<?xml version="1.0" encoding="utf-8" standalone="no"?>
<!DOCTYPE svg PUBLIC "-//W3C//DTD SVG 1.1//EN"
  "http://www.w3.org/Graphics/SVG/1.1/DTD/svg11.dtd">
<svg xmlns:xlink="http://www.w3.org/1999/xlink" width="1012.574375pt" height="573.154072pt" viewBox="0 0 1012.574375 573.154072" xmlns="http://www.w3.org/2000/svg" version="1.1">
 <metadata>
  <rdf:RDF xmlns:dc="http://purl.org/dc/elements/1.1/" xmlns:cc="http://creativecommons.org/ns#" xmlns:rdf="http://www.w3.org/1999/02/22-rdf-syntax-ns#">
   <cc:Work>
    <dc:type rdf:resource="http://purl.org/dc/dcmitype/StillImage"/>
    <dc:date>2025-03-03T11:54:59.576878</dc:date>
    <dc:format>image/svg+xml</dc:format>
    <dc:creator>
     <cc:Agent>
      <dc:title>Matplotlib v3.9.2, https://matplotlib.org/</dc:title>
     </cc:Agent>
    </dc:creator>
   </cc:Work>
  </rdf:RDF>
 </metadata>
 <defs>
  <style type="text/css">*{stroke-linejoin: round; stroke-linecap: butt}</style>
 </defs>
 <g id="figure_1">
  <g id="patch_1">
   <path d="M 0 573.154072 
L 1012.574375 573.154072 
L 1012.574375 0 
L 0 0 
z
" style="fill: #ffffff"/>
  </g>
  <g id="axes_1">
   <g id="patch_2">
    <path d="M 47.110625 531.19445 
L 1005.374375 531.19445 
L 1005.374375 35.935625 
L 47.110625 35.935625 
z
" style="fill: #ffffff"/>
   </g>
   <g id="matplotlib.axis_1">
    <g id="xtick_1">
     <g id="line2d_1">
      <defs>
       <path id="m058f92e98e" d="M 0 0 
L 0 6 
" style="stroke: #262626; stroke-width: 1.25"/>
      </defs>
      <g>
       <use xlink:href="#m058f92e98e" x="97.197021" y="531.19445" style="fill: #262626; stroke: #262626; stroke-width: 1.25"/>
      </g>
     </g>
     <g id="text_1">
      <!-- ADA -->
      <g style="fill: #262626" transform="translate(79.657237 562.255793) rotate(-45) scale(0.11 -0.11)">
       <defs>
        <path id="ArialMT-41" d="M -9 0 
L 1750 4581 
L 2403 4581 
L 4278 0 
L 3588 0 
L 3053 1388 
L 1138 1388 
L 634 0 
L -9 0 
z
M 1313 1881 
L 2866 1881 
L 2388 3150 
Q 2169 3728 2063 4100 
Q 1975 3659 1816 3225 
L 1313 1881 
z
" transform="scale(0.015625)"/>
        <path id="ArialMT-44" d="M 494 0 
L 494 4581 
L 2072 4581 
Q 2606 4581 2888 4516 
Q 3281 4425 3559 4188 
Q 3922 3881 4101 3404 
Q 4281 2928 4281 2316 
Q 4281 1794 4159 1391 
Q 4038 988 3847 723 
Q 3656 459 3429 307 
Q 3203 156 2883 78 
Q 2563 0 2147 0 
L 494 0 
z
M 1100 541 
L 2078 541 
Q 2531 541 2789 625 
Q 3047 709 3200 863 
Q 3416 1078 3536 1442 
Q 3656 1806 3656 2325 
Q 3656 3044 3420 3430 
Q 3184 3816 2847 3947 
Q 2603 4041 2063 4041 
L 1100 4041 
L 1100 541 
z
" transform="scale(0.015625)"/>
       </defs>
       <use xlink:href="#ArialMT-41"/>
       <use xlink:href="#ArialMT-44" x="66.699219"/>
       <use xlink:href="#ArialMT-41" x="138.916016"/>
      </g>
     </g>
    </g>
    <g id="xtick_2">
     <g id="line2d_2">
      <g>
       <use xlink:href="#m058f92e98e" x="115.851172" y="531.19445" style="fill: #262626; stroke: #262626; stroke-width: 1.25"/>
      </g>
     </g>
     <g id="text_2">
      <!-- ADE -->
      <g style="fill: #262626" transform="translate(98.311389 562.255793) rotate(-45) scale(0.11 -0.11)">
       <defs>
        <path id="ArialMT-45" d="M 506 0 
L 506 4581 
L 3819 4581 
L 3819 4041 
L 1113 4041 
L 1113 2638 
L 3647 2638 
L 3647 2100 
L 1113 2100 
L 1113 541 
L 3925 541 
L 3925 0 
L 506 0 
z
" transform="scale(0.015625)"/>
       </defs>
       <use xlink:href="#ArialMT-41"/>
       <use xlink:href="#ArialMT-44" x="66.699219"/>
       <use xlink:href="#ArialMT-45" x="138.916016"/>
      </g>
     </g>
    </g>
    <g id="xtick_3">
     <g id="line2d_3">
      <g>
       <use xlink:href="#m058f92e98e" x="134.505324" y="531.19445" style="fill: #262626; stroke: #262626; stroke-width: 1.25"/>
      </g>
     </g>
     <g id="text_3">
      <!-- ADF -->
      <g style="fill: #262626" transform="translate(117.403062 561.81827) rotate(-45) scale(0.11 -0.11)">
       <defs>
        <path id="ArialMT-46" d="M 525 0 
L 525 4581 
L 3616 4581 
L 3616 4041 
L 1131 4041 
L 1131 2622 
L 3281 2622 
L 3281 2081 
L 1131 2081 
L 1131 0 
L 525 0 
z
" transform="scale(0.015625)"/>
       </defs>
       <use xlink:href="#ArialMT-41"/>
       <use xlink:href="#ArialMT-44" x="66.699219"/>
       <use xlink:href="#ArialMT-46" x="138.916016"/>
      </g>
     </g>
    </g>
    <g id="xtick_4">
     <g id="line2d_4">
      <g>
       <use xlink:href="#m058f92e98e" x="153.159475" y="531.19445" style="fill: #262626; stroke: #262626; stroke-width: 1.25"/>
      </g>
     </g>
     <g id="text_4">
      <!-- ADL -->
      <g style="fill: #262626" transform="translate(136.482582 561.392902) rotate(-45) scale(0.11 -0.11)">
       <defs>
        <path id="ArialMT-4c" d="M 469 0 
L 469 4581 
L 1075 4581 
L 1075 541 
L 3331 541 
L 3331 0 
L 469 0 
z
" transform="scale(0.015625)"/>
       </defs>
       <use xlink:href="#ArialMT-41"/>
       <use xlink:href="#ArialMT-44" x="66.699219"/>
       <use xlink:href="#ArialMT-4c" x="138.916016"/>
      </g>
     </g>
    </g>
    <g id="xtick_5">
     <g id="line2d_5">
      <g>
       <use xlink:href="#m058f92e98e" x="171.813626" y="531.19445" style="fill: #262626; stroke: #262626; stroke-width: 1.25"/>
      </g>
     </g>
     <g id="text_5">
      <!-- AIA -->
      <g style="fill: #262626" transform="translate(157.730269 558.799366) rotate(-45) scale(0.11 -0.11)">
       <defs>
        <path id="ArialMT-49" d="M 597 0 
L 597 4581 
L 1203 4581 
L 1203 0 
L 597 0 
z
" transform="scale(0.015625)"/>
       </defs>
       <use xlink:href="#ArialMT-41"/>
       <use xlink:href="#ArialMT-49" x="66.699219"/>
       <use xlink:href="#ArialMT-41" x="94.482422"/>
      </g>
     </g>
    </g>
    <g id="xtick_6">
     <g id="line2d_6">
      <g>
       <use xlink:href="#m058f92e98e" x="190.467777" y="531.19445" style="fill: #262626; stroke: #262626; stroke-width: 1.25"/>
      </g>
     </g>
     <g id="text_6">
      <!-- AIB -->
      <g style="fill: #262626" transform="translate(176.38442 558.799366) rotate(-45) scale(0.11 -0.11)">
       <defs>
        <path id="ArialMT-42" d="M 469 0 
L 469 4581 
L 2188 4581 
Q 2713 4581 3030 4442 
Q 3347 4303 3526 4014 
Q 3706 3725 3706 3409 
Q 3706 3116 3547 2856 
Q 3388 2597 3066 2438 
Q 3481 2316 3704 2022 
Q 3928 1728 3928 1328 
Q 3928 1006 3792 729 
Q 3656 453 3456 303 
Q 3256 153 2954 76 
Q 2653 0 2216 0 
L 469 0 
z
M 1075 2656 
L 2066 2656 
Q 2469 2656 2644 2709 
Q 2875 2778 2992 2937 
Q 3109 3097 3109 3338 
Q 3109 3566 3000 3739 
Q 2891 3913 2687 3977 
Q 2484 4041 1991 4041 
L 1075 4041 
L 1075 2656 
z
M 1075 541 
L 2216 541 
Q 2509 541 2628 563 
Q 2838 600 2978 687 
Q 3119 775 3209 942 
Q 3300 1109 3300 1328 
Q 3300 1584 3169 1773 
Q 3038 1963 2805 2039 
Q 2572 2116 2134 2116 
L 1075 2116 
L 1075 541 
z
" transform="scale(0.015625)"/>
       </defs>
       <use xlink:href="#ArialMT-41"/>
       <use xlink:href="#ArialMT-49" x="66.699219"/>
       <use xlink:href="#ArialMT-42" x="94.482422"/>
      </g>
     </g>
    </g>
    <g id="xtick_7">
     <g id="line2d_7">
      <g>
       <use xlink:href="#m058f92e98e" x="209.121929" y="531.19445" style="fill: #262626; stroke: #262626; stroke-width: 1.25"/>
      </g>
     </g>
     <g id="text_7">
      <!-- AIM -->
      <g style="fill: #262626" transform="translate(193.74788 560.090057) rotate(-45) scale(0.11 -0.11)">
       <defs>
        <path id="ArialMT-4d" d="M 475 0 
L 475 4581 
L 1388 4581 
L 2472 1338 
Q 2622 884 2691 659 
Q 2769 909 2934 1394 
L 4031 4581 
L 4847 4581 
L 4847 0 
L 4263 0 
L 4263 3834 
L 2931 0 
L 2384 0 
L 1059 3900 
L 1059 0 
L 475 0 
z
" transform="scale(0.015625)"/>
       </defs>
       <use xlink:href="#ArialMT-41"/>
       <use xlink:href="#ArialMT-49" x="66.699219"/>
       <use xlink:href="#ArialMT-4d" x="94.482422"/>
      </g>
     </g>
    </g>
    <g id="xtick_8">
     <g id="line2d_8">
      <g>
       <use xlink:href="#m058f92e98e" x="227.77608" y="531.19445" style="fill: #262626; stroke: #262626; stroke-width: 1.25"/>
      </g>
     </g>
     <g id="text_8">
      <!-- AIY -->
      <g style="fill: #262626" transform="translate(213.692723 558.799366) rotate(-45) scale(0.11 -0.11)">
       <defs>
        <path id="ArialMT-59" d="M 1784 0 
L 1784 1941 
L 19 4581 
L 756 4581 
L 1659 3200 
Q 1909 2813 2125 2425 
Q 2331 2784 2625 3234 
L 3513 4581 
L 4219 4581 
L 2391 1941 
L 2391 0 
L 1784 0 
z
" transform="scale(0.015625)"/>
       </defs>
       <use xlink:href="#ArialMT-41"/>
       <use xlink:href="#ArialMT-49" x="66.699219"/>
       <use xlink:href="#ArialMT-59" x="94.482422"/>
      </g>
     </g>
    </g>
    <g id="xtick_9">
     <g id="line2d_9">
      <g>
       <use xlink:href="#m058f92e98e" x="246.430231" y="531.19445" style="fill: #262626; stroke: #262626; stroke-width: 1.25"/>
      </g>
     </g>
     <g id="text_9">
      <!-- AIZ -->
      <g style="fill: #262626" transform="translate(232.784396 558.361844) rotate(-45) scale(0.11 -0.11)">
       <defs>
        <path id="ArialMT-5a" d="M 128 0 
L 128 563 
L 2475 3497 
Q 2725 3809 2950 4041 
L 394 4041 
L 394 4581 
L 3675 4581 
L 3675 4041 
L 1103 863 
L 825 541 
L 3750 541 
L 3750 0 
L 128 0 
z
" transform="scale(0.015625)"/>
       </defs>
       <use xlink:href="#ArialMT-41"/>
       <use xlink:href="#ArialMT-49" x="66.699219"/>
       <use xlink:href="#ArialMT-5a" x="94.482422"/>
      </g>
     </g>
    </g>
    <g id="xtick_10">
     <g id="line2d_10">
      <g>
       <use xlink:href="#m058f92e98e" x="265.084382" y="531.19445" style="fill: #262626; stroke: #262626; stroke-width: 1.25"/>
      </g>
     </g>
     <g id="text_10">
      <!-- ASE -->
      <g style="fill: #262626" transform="translate(247.973614 561.826778) rotate(-45) scale(0.11 -0.11)">
       <defs>
        <path id="ArialMT-53" d="M 288 1472 
L 859 1522 
Q 900 1178 1048 958 
Q 1197 738 1509 602 
Q 1822 466 2213 466 
Q 2559 466 2825 569 
Q 3091 672 3220 851 
Q 3350 1031 3350 1244 
Q 3350 1459 3225 1620 
Q 3100 1781 2813 1891 
Q 2628 1963 1997 2114 
Q 1366 2266 1113 2400 
Q 784 2572 623 2826 
Q 463 3081 463 3397 
Q 463 3744 659 4045 
Q 856 4347 1234 4503 
Q 1613 4659 2075 4659 
Q 2584 4659 2973 4495 
Q 3363 4331 3572 4012 
Q 3781 3694 3797 3291 
L 3216 3247 
Q 3169 3681 2898 3903 
Q 2628 4125 2100 4125 
Q 1550 4125 1298 3923 
Q 1047 3722 1047 3438 
Q 1047 3191 1225 3031 
Q 1400 2872 2139 2705 
Q 2878 2538 3153 2413 
Q 3553 2228 3743 1945 
Q 3934 1663 3934 1294 
Q 3934 928 3725 604 
Q 3516 281 3123 101 
Q 2731 -78 2241 -78 
Q 1619 -78 1198 103 
Q 778 284 539 648 
Q 300 1013 288 1472 
z
" transform="scale(0.015625)"/>
       </defs>
       <use xlink:href="#ArialMT-41"/>
       <use xlink:href="#ArialMT-53" x="66.699219"/>
       <use xlink:href="#ArialMT-45" x="133.398438"/>
      </g>
     </g>
    </g>
    <g id="xtick_11">
     <g id="line2d_11">
      <g>
       <use xlink:href="#m058f92e98e" x="283.738534" y="531.19445" style="fill: #262626; stroke: #262626; stroke-width: 1.25"/>
      </g>
     </g>
     <g id="text_11">
      <!-- ASH -->
      <g style="fill: #262626" transform="translate(266.19875 562.255793) rotate(-45) scale(0.11 -0.11)">
       <defs>
        <path id="ArialMT-48" d="M 513 0 
L 513 4581 
L 1119 4581 
L 1119 2700 
L 3500 2700 
L 3500 4581 
L 4106 4581 
L 4106 0 
L 3500 0 
L 3500 2159 
L 1119 2159 
L 1119 0 
L 513 0 
z
" transform="scale(0.015625)"/>
       </defs>
       <use xlink:href="#ArialMT-41"/>
       <use xlink:href="#ArialMT-53" x="66.699219"/>
       <use xlink:href="#ArialMT-48" x="133.398438"/>
      </g>
     </g>
    </g>
    <g id="xtick_12">
     <g id="line2d_12">
      <g>
       <use xlink:href="#m058f92e98e" x="302.392685" y="531.19445" style="fill: #262626; stroke: #262626; stroke-width: 1.25"/>
      </g>
     </g>
     <g id="text_12">
      <!-- ASI -->
      <g style="fill: #262626" transform="translate(288.309328 558.799366) rotate(-45) scale(0.11 -0.11)">
       <use xlink:href="#ArialMT-41"/>
       <use xlink:href="#ArialMT-53" x="66.699219"/>
       <use xlink:href="#ArialMT-49" x="133.398438"/>
      </g>
     </g>
    </g>
    <g id="xtick_13">
     <g id="line2d_13">
      <g>
       <use xlink:href="#m058f92e98e" x="321.046836" y="531.19445" style="fill: #262626; stroke: #262626; stroke-width: 1.25"/>
      </g>
     </g>
     <g id="text_13">
      <!-- AVA -->
      <g style="fill: #262626" transform="translate(305.083348 560.679497) rotate(-45) scale(0.11 -0.11)">
       <defs>
        <path id="ArialMT-56" d="M 1803 0 
L 28 4581 
L 684 4581 
L 1875 1253 
Q 2019 853 2116 503 
Q 2222 878 2363 1253 
L 3600 4581 
L 4219 4581 
L 2425 0 
L 1803 0 
z
" transform="scale(0.015625)"/>
       </defs>
       <use xlink:href="#ArialMT-41"/>
       <use xlink:href="#ArialMT-56" x="59.324219"/>
       <use xlink:href="#ArialMT-41" x="118.648438"/>
      </g>
     </g>
    </g>
    <g id="xtick_14">
     <g id="line2d_14">
      <g>
       <use xlink:href="#m058f92e98e" x="339.700987" y="531.19445" style="fill: #262626; stroke: #262626; stroke-width: 1.25"/>
      </g>
     </g>
     <g id="text_14">
      <!-- AVB -->
      <g style="fill: #262626" transform="translate(323.163859 561.253137) rotate(-45) scale(0.11 -0.11)">
       <use xlink:href="#ArialMT-41"/>
       <use xlink:href="#ArialMT-56" x="59.324219"/>
       <use xlink:href="#ArialMT-42" x="126.023438"/>
      </g>
     </g>
    </g>
    <g id="xtick_15">
     <g id="line2d_15">
      <g>
       <use xlink:href="#m058f92e98e" x="358.355139" y="531.19445" style="fill: #262626; stroke: #262626; stroke-width: 1.25"/>
      </g>
     </g>
     <g id="text_15">
      <!-- AVE -->
      <g style="fill: #262626" transform="translate(341.81801 561.253137) rotate(-45) scale(0.11 -0.11)">
       <use xlink:href="#ArialMT-41"/>
       <use xlink:href="#ArialMT-56" x="59.324219"/>
       <use xlink:href="#ArialMT-45" x="126.023438"/>
      </g>
     </g>
    </g>
    <g id="xtick_16">
     <g id="line2d_16">
      <g>
       <use xlink:href="#m058f92e98e" x="377.00929" y="531.19445" style="fill: #262626; stroke: #262626; stroke-width: 1.25"/>
      </g>
     </g>
     <g id="text_16">
      <!-- AVH -->
      <g style="fill: #262626" transform="translate(360.043147 561.682152) rotate(-45) scale(0.11 -0.11)">
       <use xlink:href="#ArialMT-41"/>
       <use xlink:href="#ArialMT-56" x="59.324219"/>
       <use xlink:href="#ArialMT-48" x="126.023438"/>
      </g>
     </g>
    </g>
    <g id="xtick_17">
     <g id="line2d_17">
      <g>
       <use xlink:href="#m058f92e98e" x="395.663441" y="531.19445" style="fill: #262626; stroke: #262626; stroke-width: 1.25"/>
      </g>
     </g>
     <g id="text_17">
      <!-- AVJ -->
      <g style="fill: #262626" transform="translate(380.425511 559.953939) rotate(-45) scale(0.11 -0.11)">
       <defs>
        <path id="ArialMT-4a" d="M 184 1300 
L 731 1375 
Q 753 850 928 656 
Q 1103 463 1413 463 
Q 1641 463 1806 567 
Q 1972 672 2034 851 
Q 2097 1031 2097 1425 
L 2097 4581 
L 2703 4581 
L 2703 1459 
Q 2703 884 2564 568 
Q 2425 253 2123 87 
Q 1822 -78 1416 -78 
Q 813 -78 492 269 
Q 172 616 184 1300 
z
" transform="scale(0.015625)"/>
       </defs>
       <use xlink:href="#ArialMT-41"/>
       <use xlink:href="#ArialMT-56" x="59.324219"/>
       <use xlink:href="#ArialMT-4a" x="126.023438"/>
      </g>
     </g>
    </g>
    <g id="xtick_18">
     <g id="line2d_18">
      <g>
       <use xlink:href="#m058f92e98e" x="414.317592" y="531.19445" style="fill: #262626; stroke: #262626; stroke-width: 1.25"/>
      </g>
     </g>
     <g id="text_18">
      <!-- AVK -->
      <g style="fill: #262626" transform="translate(397.780464 561.253137) rotate(-45) scale(0.11 -0.11)">
       <defs>
        <path id="ArialMT-4b" d="M 469 0 
L 469 4581 
L 1075 4581 
L 1075 2309 
L 3350 4581 
L 4172 4581 
L 2250 2725 
L 4256 0 
L 3456 0 
L 1825 2319 
L 1075 1588 
L 1075 0 
L 469 0 
z
" transform="scale(0.015625)"/>
       </defs>
       <use xlink:href="#ArialMT-41"/>
       <use xlink:href="#ArialMT-56" x="59.324219"/>
       <use xlink:href="#ArialMT-4b" x="126.023438"/>
      </g>
     </g>
    </g>
    <g id="xtick_19">
     <g id="line2d_19">
      <g>
       <use xlink:href="#m058f92e98e" x="432.971744" y="531.19445" style="fill: #262626; stroke: #262626; stroke-width: 1.25"/>
      </g>
     </g>
     <g id="text_19">
      <!-- AWA -->
      <g style="fill: #262626" transform="translate(414.290756 563.396997) rotate(-45) scale(0.11 -0.11)">
       <defs>
        <path id="ArialMT-57" d="M 1294 0 
L 78 4581 
L 700 4581 
L 1397 1578 
Q 1509 1106 1591 641 
Q 1766 1375 1797 1488 
L 2669 4581 
L 3400 4581 
L 4056 2263 
Q 4303 1400 4413 641 
Q 4500 1075 4641 1638 
L 5359 4581 
L 5969 4581 
L 4713 0 
L 4128 0 
L 3163 3491 
Q 3041 3928 3019 4028 
Q 2947 3713 2884 3491 
L 1913 0 
L 1294 0 
z
" transform="scale(0.015625)"/>
       </defs>
       <use xlink:href="#ArialMT-41"/>
       <use xlink:href="#ArialMT-57" x="62.949219"/>
       <use xlink:href="#ArialMT-41" x="153.583984"/>
      </g>
     </g>
    </g>
    <g id="xtick_20">
     <g id="line2d_20">
      <g>
       <use xlink:href="#m058f92e98e" x="451.625895" y="531.19445" style="fill: #262626; stroke: #262626; stroke-width: 1.25"/>
      </g>
     </g>
     <g id="text_20">
      <!-- AWB -->
      <g style="fill: #262626" transform="translate(432.653226 563.688678) rotate(-45) scale(0.11 -0.11)">
       <use xlink:href="#ArialMT-41"/>
       <use xlink:href="#ArialMT-57" x="62.949219"/>
       <use xlink:href="#ArialMT-42" x="157.333984"/>
      </g>
     </g>
    </g>
    <g id="xtick_21">
     <g id="line2d_21">
      <g>
       <use xlink:href="#m058f92e98e" x="470.280046" y="531.19445" style="fill: #262626; stroke: #262626; stroke-width: 1.25"/>
      </g>
     </g>
     <g id="text_21">
      <!-- AWC -->
      <g style="fill: #262626" transform="translate(450.878362 564.117693) rotate(-45) scale(0.11 -0.11)">
       <defs>
        <path id="ArialMT-43" d="M 3763 1606 
L 4369 1453 
Q 4178 706 3683 314 
Q 3188 -78 2472 -78 
Q 1731 -78 1267 223 
Q 803 525 561 1097 
Q 319 1669 319 2325 
Q 319 3041 592 3573 
Q 866 4106 1370 4382 
Q 1875 4659 2481 4659 
Q 3169 4659 3637 4309 
Q 4106 3959 4291 3325 
L 3694 3184 
Q 3534 3684 3231 3912 
Q 2928 4141 2469 4141 
Q 1941 4141 1586 3887 
Q 1231 3634 1087 3207 
Q 944 2781 944 2328 
Q 944 1744 1114 1308 
Q 1284 872 1643 656 
Q 2003 441 2422 441 
Q 2931 441 3284 734 
Q 3638 1028 3763 1606 
z
" transform="scale(0.015625)"/>
       </defs>
       <use xlink:href="#ArialMT-41"/>
       <use xlink:href="#ArialMT-57" x="62.949219"/>
       <use xlink:href="#ArialMT-43" x="157.333984"/>
      </g>
     </g>
    </g>
    <g id="xtick_22">
     <g id="line2d_22">
      <g>
       <use xlink:href="#m058f92e98e" x="488.934197" y="531.19445" style="fill: #262626; stroke: #262626; stroke-width: 1.25"/>
      </g>
     </g>
     <g id="text_22">
      <!-- BAG -->
      <g style="fill: #262626" transform="translate(470.961753 562.688454) rotate(-45) scale(0.11 -0.11)">
       <defs>
        <path id="ArialMT-47" d="M 2638 1797 
L 2638 2334 
L 4578 2338 
L 4578 638 
Q 4131 281 3656 101 
Q 3181 -78 2681 -78 
Q 2006 -78 1454 211 
Q 903 500 622 1047 
Q 341 1594 341 2269 
Q 341 2938 620 3517 
Q 900 4097 1425 4378 
Q 1950 4659 2634 4659 
Q 3131 4659 3532 4498 
Q 3934 4338 4162 4050 
Q 4391 3763 4509 3300 
L 3963 3150 
Q 3859 3500 3706 3700 
Q 3553 3900 3268 4020 
Q 2984 4141 2638 4141 
Q 2222 4141 1919 4014 
Q 1616 3888 1430 3681 
Q 1244 3475 1141 3228 
Q 966 2803 966 2306 
Q 966 1694 1177 1281 
Q 1388 869 1791 669 
Q 2194 469 2647 469 
Q 3041 469 3416 620 
Q 3791 772 3984 944 
L 3984 1797 
L 2638 1797 
z
" transform="scale(0.015625)"/>
       </defs>
       <use xlink:href="#ArialMT-42"/>
       <use xlink:href="#ArialMT-41" x="66.699219"/>
       <use xlink:href="#ArialMT-47" x="133.398438"/>
      </g>
     </g>
    </g>
    <g id="xtick_23">
     <g id="line2d_23">
      <g>
       <use xlink:href="#m058f92e98e" x="507.588349" y="531.19445" style="fill: #262626; stroke: #262626; stroke-width: 1.25"/>
      </g>
     </g>
     <g id="text_23">
      <!-- BDU -->
      <g style="fill: #262626" transform="translate(489.61955 562.684808) rotate(-45) scale(0.11 -0.11)">
       <defs>
        <path id="ArialMT-55" d="M 3500 4581 
L 4106 4581 
L 4106 1934 
Q 4106 1244 3950 837 
Q 3794 431 3386 176 
Q 2978 -78 2316 -78 
Q 1672 -78 1262 144 
Q 853 366 678 786 
Q 503 1206 503 1934 
L 503 4581 
L 1109 4581 
L 1109 1938 
Q 1109 1341 1220 1058 
Q 1331 775 1601 622 
Q 1872 469 2263 469 
Q 2931 469 3215 772 
Q 3500 1075 3500 1938 
L 3500 4581 
z
" transform="scale(0.015625)"/>
       </defs>
       <use xlink:href="#ArialMT-42"/>
       <use xlink:href="#ArialMT-44" x="66.699219"/>
       <use xlink:href="#ArialMT-55" x="138.916016"/>
      </g>
     </g>
    </g>
    <g id="xtick_24">
     <g id="line2d_24">
      <g>
       <use xlink:href="#m058f92e98e" x="526.2425" y="531.19445" style="fill: #262626; stroke: #262626; stroke-width: 1.25"/>
      </g>
     </g>
     <g id="text_24">
      <!-- CEP -->
      <g style="fill: #262626" transform="translate(508.702716 562.255793) rotate(-45) scale(0.11 -0.11)">
       <defs>
        <path id="ArialMT-50" d="M 494 0 
L 494 4581 
L 2222 4581 
Q 2678 4581 2919 4538 
Q 3256 4481 3484 4323 
Q 3713 4166 3852 3881 
Q 3991 3597 3991 3256 
Q 3991 2672 3619 2267 
Q 3247 1863 2275 1863 
L 1100 1863 
L 1100 0 
L 494 0 
z
M 1100 2403 
L 2284 2403 
Q 2872 2403 3119 2622 
Q 3366 2841 3366 3238 
Q 3366 3525 3220 3729 
Q 3075 3934 2838 4000 
Q 2684 4041 2272 4041 
L 1100 4041 
L 1100 2403 
z
" transform="scale(0.015625)"/>
       </defs>
       <use xlink:href="#ArialMT-43"/>
       <use xlink:href="#ArialMT-45" x="72.216797"/>
       <use xlink:href="#ArialMT-50" x="138.916016"/>
      </g>
     </g>
    </g>
    <g id="xtick_25">
     <g id="line2d_25">
      <g>
       <use xlink:href="#m058f92e98e" x="544.896651" y="531.19445" style="fill: #262626; stroke: #262626; stroke-width: 1.25"/>
      </g>
     </g>
     <g id="text_25">
      <!-- DVA -->
      <g style="fill: #262626" transform="translate(527.930508 561.682152) rotate(-45) scale(0.11 -0.11)">
       <use xlink:href="#ArialMT-44"/>
       <use xlink:href="#ArialMT-56" x="72.216797"/>
       <use xlink:href="#ArialMT-41" x="131.541016"/>
      </g>
     </g>
    </g>
    <g id="xtick_26">
     <g id="line2d_26">
      <g>
       <use xlink:href="#m058f92e98e" x="563.550803" y="531.19445" style="fill: #262626; stroke: #262626; stroke-width: 1.25"/>
      </g>
     </g>
     <g id="text_26">
      <!-- IL1 -->
      <g style="fill: #262626" transform="translate(551.193228 557.073584) rotate(-45) scale(0.11 -0.11)">
       <defs>
        <path id="ArialMT-31" d="M 2384 0 
L 1822 0 
L 1822 3584 
Q 1619 3391 1289 3197 
Q 959 3003 697 2906 
L 697 3450 
Q 1169 3672 1522 3987 
Q 1875 4303 2022 4600 
L 2384 4600 
L 2384 0 
z
" transform="scale(0.015625)"/>
       </defs>
       <use xlink:href="#ArialMT-49"/>
       <use xlink:href="#ArialMT-4c" x="27.783203"/>
       <use xlink:href="#ArialMT-31" x="83.398438"/>
      </g>
     </g>
    </g>
    <g id="xtick_27">
     <g id="line2d_27">
      <g>
       <use xlink:href="#m058f92e98e" x="582.204954" y="531.19445" style="fill: #262626; stroke: #262626; stroke-width: 1.25"/>
      </g>
     </g>
     <g id="text_27">
      <!-- IL2 -->
      <g style="fill: #262626" transform="translate(569.847379 557.073584) rotate(-45) scale(0.11 -0.11)">
       <defs>
        <path id="ArialMT-32" d="M 3222 541 
L 3222 0 
L 194 0 
Q 188 203 259 391 
Q 375 700 629 1000 
Q 884 1300 1366 1694 
Q 2113 2306 2375 2664 
Q 2638 3022 2638 3341 
Q 2638 3675 2398 3904 
Q 2159 4134 1775 4134 
Q 1369 4134 1125 3890 
Q 881 3647 878 3216 
L 300 3275 
Q 359 3922 746 4261 
Q 1134 4600 1788 4600 
Q 2447 4600 2831 4234 
Q 3216 3869 3216 3328 
Q 3216 3053 3103 2787 
Q 2991 2522 2730 2228 
Q 2469 1934 1863 1422 
Q 1356 997 1212 845 
Q 1069 694 975 541 
L 3222 541 
z
" transform="scale(0.015625)"/>
       </defs>
       <use xlink:href="#ArialMT-49"/>
       <use xlink:href="#ArialMT-4c" x="27.783203"/>
       <use xlink:href="#ArialMT-32" x="83.398438"/>
      </g>
     </g>
    </g>
    <g id="xtick_28">
     <g id="line2d_28">
      <g>
       <use xlink:href="#m058f92e98e" x="600.859105" y="531.19445" style="fill: #262626; stroke: #262626; stroke-width: 1.25"/>
      </g>
     </g>
     <g id="text_28">
      <!-- OLQ -->
      <g style="fill: #262626" transform="translate(582.887876 562.687238) rotate(-45) scale(0.11 -0.11)">
       <defs>
        <path id="ArialMT-4f" d="M 309 2231 
Q 309 3372 921 4017 
Q 1534 4663 2503 4663 
Q 3138 4663 3647 4359 
Q 4156 4056 4423 3514 
Q 4691 2972 4691 2284 
Q 4691 1588 4409 1038 
Q 4128 488 3612 205 
Q 3097 -78 2500 -78 
Q 1853 -78 1343 234 
Q 834 547 571 1087 
Q 309 1628 309 2231 
z
M 934 2222 
Q 934 1394 1379 917 
Q 1825 441 2497 441 
Q 3181 441 3623 922 
Q 4066 1403 4066 2288 
Q 4066 2847 3877 3264 
Q 3688 3681 3323 3911 
Q 2959 4141 2506 4141 
Q 1863 4141 1398 3698 
Q 934 3256 934 2222 
z
" transform="scale(0.015625)"/>
        <path id="ArialMT-51" d="M 3966 491 
Q 4388 200 4744 66 
L 4566 -356 
Q 4072 -178 3581 206 
Q 3072 -78 2456 -78 
Q 1834 -78 1328 222 
Q 822 522 548 1065 
Q 275 1609 275 2291 
Q 275 2969 550 3525 
Q 825 4081 1333 4372 
Q 1841 4663 2469 4663 
Q 3103 4663 3612 4361 
Q 4122 4059 4389 3517 
Q 4656 2975 4656 2294 
Q 4656 1728 4484 1276 
Q 4313 825 3966 491 
z
M 2631 1266 
Q 3156 1119 3497 828 
Q 4031 1316 4031 2294 
Q 4031 2850 3842 3265 
Q 3653 3681 3289 3911 
Q 2925 4141 2472 4141 
Q 1794 4141 1347 3677 
Q 900 3213 900 2291 
Q 900 1397 1342 919 
Q 1784 441 2472 441 
Q 2797 441 3084 563 
Q 2800 747 2484 825 
L 2631 1266 
z
" transform="scale(0.015625)"/>
       </defs>
       <use xlink:href="#ArialMT-4f"/>
       <use xlink:href="#ArialMT-4c" x="77.783203"/>
       <use xlink:href="#ArialMT-51" x="133.398438"/>
      </g>
     </g>
    </g>
    <g id="xtick_29">
     <g id="line2d_29">
      <g>
       <use xlink:href="#m058f92e98e" x="619.513256" y="531.19445" style="fill: #262626; stroke: #262626; stroke-width: 1.25"/>
      </g>
     </g>
     <g id="text_29">
      <!-- PVC -->
      <g style="fill: #262626" transform="translate(601.973473 562.255793) rotate(-45) scale(0.11 -0.11)">
       <use xlink:href="#ArialMT-50"/>
       <use xlink:href="#ArialMT-56" x="66.699219"/>
       <use xlink:href="#ArialMT-43" x="133.398438"/>
      </g>
     </g>
    </g>
    <g id="xtick_30">
     <g id="line2d_30">
      <g>
       <use xlink:href="#m058f92e98e" x="638.167408" y="531.19445" style="fill: #262626; stroke: #262626; stroke-width: 1.25"/>
      </g>
     </g>
     <g id="text_30">
      <!-- PVP -->
      <g style="fill: #262626" transform="translate(621.056639 561.826778) rotate(-45) scale(0.11 -0.11)">
       <use xlink:href="#ArialMT-50"/>
       <use xlink:href="#ArialMT-56" x="66.699219"/>
       <use xlink:href="#ArialMT-50" x="133.398438"/>
      </g>
     </g>
    </g>
    <g id="xtick_31">
     <g id="line2d_31">
      <g>
       <use xlink:href="#m058f92e98e" x="656.821559" y="531.19445" style="fill: #262626; stroke: #262626; stroke-width: 1.25"/>
      </g>
     </g>
     <g id="text_31">
      <!-- RIA -->
      <g style="fill: #262626" transform="translate(642.309186 559.228381) rotate(-45) scale(0.11 -0.11)">
       <defs>
        <path id="ArialMT-52" d="M 503 0 
L 503 4581 
L 2534 4581 
Q 3147 4581 3465 4457 
Q 3784 4334 3975 4021 
Q 4166 3709 4166 3331 
Q 4166 2844 3850 2509 
Q 3534 2175 2875 2084 
Q 3116 1969 3241 1856 
Q 3506 1613 3744 1247 
L 4541 0 
L 3778 0 
L 3172 953 
Q 2906 1366 2734 1584 
Q 2563 1803 2427 1890 
Q 2291 1978 2150 2013 
Q 2047 2034 1813 2034 
L 1109 2034 
L 1109 0 
L 503 0 
z
M 1109 2559 
L 2413 2559 
Q 2828 2559 3062 2645 
Q 3297 2731 3419 2920 
Q 3541 3109 3541 3331 
Q 3541 3656 3305 3865 
Q 3069 4075 2559 4075 
L 1109 4075 
L 1109 2559 
z
" transform="scale(0.015625)"/>
       </defs>
       <use xlink:href="#ArialMT-52"/>
       <use xlink:href="#ArialMT-49" x="72.216797"/>
       <use xlink:href="#ArialMT-41" x="100"/>
      </g>
     </g>
    </g>
    <g id="xtick_32">
     <g id="line2d_32">
      <g>
       <use xlink:href="#m058f92e98e" x="675.47571" y="531.19445" style="fill: #262626; stroke: #262626; stroke-width: 1.25"/>
      </g>
     </g>
     <g id="text_32">
      <!-- RIB -->
      <g style="fill: #262626" transform="translate(660.963338 559.228381) rotate(-45) scale(0.11 -0.11)">
       <use xlink:href="#ArialMT-52"/>
       <use xlink:href="#ArialMT-49" x="72.216797"/>
       <use xlink:href="#ArialMT-42" x="100"/>
      </g>
     </g>
    </g>
    <g id="xtick_33">
     <g id="line2d_33">
      <g>
       <use xlink:href="#m058f92e98e" x="694.129861" y="531.19445" style="fill: #262626; stroke: #262626; stroke-width: 1.25"/>
      </g>
     </g>
     <g id="text_33">
      <!-- RIC -->
      <g style="fill: #262626" transform="translate(679.188474 559.657396) rotate(-45) scale(0.11 -0.11)">
       <use xlink:href="#ArialMT-52"/>
       <use xlink:href="#ArialMT-49" x="72.216797"/>
       <use xlink:href="#ArialMT-43" x="100"/>
      </g>
     </g>
    </g>
    <g id="xtick_34">
     <g id="line2d_34">
      <g>
       <use xlink:href="#m058f92e98e" x="712.784013" y="531.19445" style="fill: #262626; stroke: #262626; stroke-width: 1.25"/>
      </g>
     </g>
     <g id="text_34">
      <!-- RIF -->
      <g style="fill: #262626" transform="translate(698.709163 558.790859) rotate(-45) scale(0.11 -0.11)">
       <use xlink:href="#ArialMT-52"/>
       <use xlink:href="#ArialMT-49" x="72.216797"/>
       <use xlink:href="#ArialMT-46" x="100"/>
      </g>
     </g>
    </g>
    <g id="xtick_35">
     <g id="line2d_35">
      <g>
       <use xlink:href="#m058f92e98e" x="731.438164" y="531.19445" style="fill: #262626; stroke: #262626; stroke-width: 1.25"/>
      </g>
     </g>
     <g id="text_35">
      <!-- RIG -->
      <g style="fill: #262626" transform="translate(716.064116 560.090057) rotate(-45) scale(0.11 -0.11)">
       <use xlink:href="#ArialMT-52"/>
       <use xlink:href="#ArialMT-49" x="72.216797"/>
       <use xlink:href="#ArialMT-47" x="100"/>
      </g>
     </g>
    </g>
    <g id="xtick_36">
     <g id="line2d_36">
      <g>
       <use xlink:href="#m058f92e98e" x="750.092315" y="531.19445" style="fill: #262626; stroke: #262626; stroke-width: 1.25"/>
      </g>
     </g>
     <g id="text_36">
      <!-- RIH -->
      <g style="fill: #262626" transform="translate(735.150928 559.657396) rotate(-45) scale(0.11 -0.11)">
       <use xlink:href="#ArialMT-52"/>
       <use xlink:href="#ArialMT-49" x="72.216797"/>
       <use xlink:href="#ArialMT-48" x="100"/>
      </g>
     </g>
    </g>
    <g id="xtick_37">
     <g id="line2d_37">
      <g>
       <use xlink:href="#m058f92e98e" x="768.746466" y="531.19445" style="fill: #262626; stroke: #262626; stroke-width: 1.25"/>
      </g>
     </g>
     <g id="text_37">
      <!-- RIM -->
      <g style="fill: #262626" transform="translate(752.943403 560.519072) rotate(-45) scale(0.11 -0.11)">
       <use xlink:href="#ArialMT-52"/>
       <use xlink:href="#ArialMT-49" x="72.216797"/>
       <use xlink:href="#ArialMT-4d" x="100"/>
      </g>
     </g>
    </g>
    <g id="xtick_38">
     <g id="line2d_38">
      <g>
       <use xlink:href="#m058f92e98e" x="787.400618" y="531.19445" style="fill: #262626; stroke: #262626; stroke-width: 1.25"/>
      </g>
     </g>
     <g id="text_38">
      <!-- RIP -->
      <g style="fill: #262626" transform="translate(772.888245 559.228381) rotate(-45) scale(0.11 -0.11)">
       <use xlink:href="#ArialMT-52"/>
       <use xlink:href="#ArialMT-49" x="72.216797"/>
       <use xlink:href="#ArialMT-50" x="100"/>
      </g>
     </g>
    </g>
    <g id="xtick_39">
     <g id="line2d_39">
      <g>
       <use xlink:href="#m058f92e98e" x="806.054769" y="531.19445" style="fill: #262626; stroke: #262626; stroke-width: 1.25"/>
      </g>
     </g>
     <g id="text_39">
      <!-- RIR -->
      <g style="fill: #262626" transform="translate(791.113382 559.657396) rotate(-45) scale(0.11 -0.11)">
       <use xlink:href="#ArialMT-52"/>
       <use xlink:href="#ArialMT-49" x="72.216797"/>
       <use xlink:href="#ArialMT-52" x="100"/>
      </g>
     </g>
    </g>
    <g id="xtick_40">
     <g id="line2d_40">
      <g>
       <use xlink:href="#m058f92e98e" x="824.70892" y="531.19445" style="fill: #262626; stroke: #262626; stroke-width: 1.25"/>
      </g>
     </g>
     <g id="text_40">
      <!-- RIS -->
      <g style="fill: #262626" transform="translate(810.196548 559.228381) rotate(-45) scale(0.11 -0.11)">
       <use xlink:href="#ArialMT-52"/>
       <use xlink:href="#ArialMT-49" x="72.216797"/>
       <use xlink:href="#ArialMT-53" x="100"/>
      </g>
     </g>
    </g>
    <g id="xtick_41">
     <g id="line2d_41">
      <g>
       <use xlink:href="#m058f92e98e" x="843.363071" y="531.19445" style="fill: #262626; stroke: #262626; stroke-width: 1.25"/>
      </g>
     </g>
     <g id="text_41">
      <!-- RMD -->
      <g style="fill: #262626" transform="translate(824.103582 563.975499) rotate(-45) scale(0.11 -0.11)">
       <use xlink:href="#ArialMT-52"/>
       <use xlink:href="#ArialMT-4d" x="72.216797"/>
       <use xlink:href="#ArialMT-44" x="155.517578"/>
      </g>
     </g>
    </g>
    <g id="xtick_42">
     <g id="line2d_42">
      <g>
       <use xlink:href="#m058f92e98e" x="862.017223" y="531.19445" style="fill: #262626; stroke: #262626; stroke-width: 1.25"/>
      </g>
     </g>
     <g id="text_42">
      <!-- RMG -->
      <g style="fill: #262626" transform="translate(842.325072 564.408159) rotate(-45) scale(0.11 -0.11)">
       <use xlink:href="#ArialMT-52"/>
       <use xlink:href="#ArialMT-4d" x="72.216797"/>
       <use xlink:href="#ArialMT-47" x="155.517578"/>
      </g>
     </g>
    </g>
    <g id="xtick_43">
     <g id="line2d_43">
      <g>
       <use xlink:href="#m058f92e98e" x="880.671374" y="531.19445" style="fill: #262626; stroke: #262626; stroke-width: 1.25"/>
      </g>
     </g>
     <g id="text_43">
      <!-- SAA -->
      <g style="fill: #262626" transform="translate(863.560605 561.826778) rotate(-45) scale(0.11 -0.11)">
       <use xlink:href="#ArialMT-53"/>
       <use xlink:href="#ArialMT-41" x="66.699219"/>
       <use xlink:href="#ArialMT-41" x="133.398438"/>
      </g>
     </g>
    </g>
    <g id="xtick_44">
     <g id="line2d_44">
      <g>
       <use xlink:href="#m058f92e98e" x="899.325525" y="531.19445" style="fill: #262626; stroke: #262626; stroke-width: 1.25"/>
      </g>
     </g>
     <g id="text_44">
      <!-- SMB -->
      <g style="fill: #262626" transform="translate(880.924066 563.117469) rotate(-45) scale(0.11 -0.11)">
       <use xlink:href="#ArialMT-53"/>
       <use xlink:href="#ArialMT-4d" x="66.699219"/>
       <use xlink:href="#ArialMT-42" x="150"/>
      </g>
     </g>
    </g>
    <g id="xtick_45">
     <g id="line2d_45">
      <g>
       <use xlink:href="#m058f92e98e" x="917.979676" y="531.19445" style="fill: #262626; stroke: #262626; stroke-width: 1.25"/>
      </g>
     </g>
     <g id="text_45">
      <!-- SMD -->
      <g style="fill: #262626" transform="translate(899.149202 563.546484) rotate(-45) scale(0.11 -0.11)">
       <use xlink:href="#ArialMT-53"/>
       <use xlink:href="#ArialMT-4d" x="66.699219"/>
       <use xlink:href="#ArialMT-44" x="150"/>
      </g>
     </g>
    </g>
    <g id="xtick_46">
     <g id="line2d_46">
      <g>
       <use xlink:href="#m058f92e98e" x="936.633828" y="531.19445" style="fill: #262626; stroke: #262626; stroke-width: 1.25"/>
      </g>
     </g>
     <g id="text_46">
      <!-- URX -->
      <g style="fill: #262626" transform="translate(918.665029 562.684808) rotate(-45) scale(0.11 -0.11)">
       <defs>
        <path id="ArialMT-58" d="M 28 0 
L 1800 2388 
L 238 4581 
L 959 4581 
L 1791 3406 
Q 2050 3041 2159 2844 
Q 2313 3094 2522 3366 
L 3444 4581 
L 4103 4581 
L 2494 2422 
L 4228 0 
L 3478 0 
L 2325 1634 
Q 2228 1775 2125 1941 
Q 1972 1691 1906 1597 
L 756 0 
L 28 0 
z
" transform="scale(0.015625)"/>
       </defs>
       <use xlink:href="#ArialMT-55"/>
       <use xlink:href="#ArialMT-52" x="72.216797"/>
       <use xlink:href="#ArialMT-58" x="144.433594"/>
      </g>
     </g>
    </g>
    <g id="xtick_47">
     <g id="line2d_47">
      <g>
       <use xlink:href="#m058f92e98e" x="955.287979" y="531.19445" style="fill: #262626; stroke: #262626; stroke-width: 1.25"/>
      </g>
     </g>
     <g id="text_47">
      <!-- URY -->
      <g style="fill: #262626" transform="translate(937.455298 562.54869) rotate(-45) scale(0.11 -0.11)">
       <use xlink:href="#ArialMT-55"/>
       <use xlink:href="#ArialMT-52" x="72.216797"/>
       <use xlink:href="#ArialMT-59" x="142.683594"/>
      </g>
     </g>
    </g>
   </g>
   <g id="matplotlib.axis_2">
    <g id="ytick_1">
     <g id="line2d_48">
      <path d="M 47.110625 531.19445 
L 1005.374375 531.19445 
" clip-path="url(#p7dcbe9111f)" style="fill: none; stroke-dasharray: 3.7,1.6; stroke-dashoffset: 0; stroke: #cccccc; stroke-opacity: 0.7"/>
     </g>
     <g id="line2d_49">
      <defs>
       <path id="mf489ac574d" d="M 0 0 
L -6 0 
" style="stroke: #262626; stroke-width: 1.25"/>
      </defs>
      <g>
       <use xlink:href="#mf489ac574d" x="47.110625" y="531.19445" style="fill: #262626; stroke: #262626; stroke-width: 1.25"/>
      </g>
     </g>
     <g id="text_48">
      <!-- 0.0 -->
      <g style="fill: #262626" transform="translate(22.320625 535.131247) scale(0.11 -0.11)">
       <defs>
        <path id="ArialMT-30" d="M 266 2259 
Q 266 3072 433 3567 
Q 600 4063 929 4331 
Q 1259 4600 1759 4600 
Q 2128 4600 2406 4451 
Q 2684 4303 2865 4023 
Q 3047 3744 3150 3342 
Q 3253 2941 3253 2259 
Q 3253 1453 3087 958 
Q 2922 463 2592 192 
Q 2263 -78 1759 -78 
Q 1097 -78 719 397 
Q 266 969 266 2259 
z
M 844 2259 
Q 844 1131 1108 757 
Q 1372 384 1759 384 
Q 2147 384 2411 759 
Q 2675 1134 2675 2259 
Q 2675 3391 2411 3762 
Q 2147 4134 1753 4134 
Q 1366 4134 1134 3806 
Q 844 3388 844 2259 
z
" transform="scale(0.015625)"/>
        <path id="ArialMT-2e" d="M 581 0 
L 581 641 
L 1222 641 
L 1222 0 
L 581 0 
z
" transform="scale(0.015625)"/>
       </defs>
       <use xlink:href="#ArialMT-30"/>
       <use xlink:href="#ArialMT-2e" x="55.615234"/>
       <use xlink:href="#ArialMT-30" x="83.398438"/>
      </g>
     </g>
    </g>
    <g id="ytick_2">
     <g id="line2d_50">
      <path d="M 47.110625 441.147391 
L 1005.374375 441.147391 
" clip-path="url(#p7dcbe9111f)" style="fill: none; stroke-dasharray: 3.7,1.6; stroke-dashoffset: 0; stroke: #cccccc; stroke-opacity: 0.7"/>
     </g>
     <g id="line2d_51">
      <g>
       <use xlink:href="#mf489ac574d" x="47.110625" y="441.147391" style="fill: #262626; stroke: #262626; stroke-width: 1.25"/>
      </g>
     </g>
     <g id="text_49">
      <!-- 0.2 -->
      <g style="fill: #262626" transform="translate(22.320625 445.084188) scale(0.11 -0.11)">
       <use xlink:href="#ArialMT-30"/>
       <use xlink:href="#ArialMT-2e" x="55.615234"/>
       <use xlink:href="#ArialMT-32" x="83.398438"/>
      </g>
     </g>
    </g>
    <g id="ytick_3">
     <g id="line2d_52">
      <path d="M 47.110625 351.100332 
L 1005.374375 351.100332 
" clip-path="url(#p7dcbe9111f)" style="fill: none; stroke-dasharray: 3.7,1.6; stroke-dashoffset: 0; stroke: #cccccc; stroke-opacity: 0.7"/>
     </g>
     <g id="line2d_53">
      <g>
       <use xlink:href="#mf489ac574d" x="47.110625" y="351.100332" style="fill: #262626; stroke: #262626; stroke-width: 1.25"/>
      </g>
     </g>
     <g id="text_50">
      <!-- 0.4 -->
      <g style="fill: #262626" transform="translate(22.320625 355.037129) scale(0.11 -0.11)">
       <defs>
        <path id="ArialMT-34" d="M 2069 0 
L 2069 1097 
L 81 1097 
L 81 1613 
L 2172 4581 
L 2631 4581 
L 2631 1613 
L 3250 1613 
L 3250 1097 
L 2631 1097 
L 2631 0 
L 2069 0 
z
M 2069 1613 
L 2069 3678 
L 634 1613 
L 2069 1613 
z
" transform="scale(0.015625)"/>
       </defs>
       <use xlink:href="#ArialMT-30"/>
       <use xlink:href="#ArialMT-2e" x="55.615234"/>
       <use xlink:href="#ArialMT-34" x="83.398438"/>
      </g>
     </g>
    </g>
    <g id="ytick_4">
     <g id="line2d_54">
      <path d="M 47.110625 261.053273 
L 1005.374375 261.053273 
" clip-path="url(#p7dcbe9111f)" style="fill: none; stroke-dasharray: 3.7,1.6; stroke-dashoffset: 0; stroke: #cccccc; stroke-opacity: 0.7"/>
     </g>
     <g id="line2d_55">
      <g>
       <use xlink:href="#mf489ac574d" x="47.110625" y="261.053273" style="fill: #262626; stroke: #262626; stroke-width: 1.25"/>
      </g>
     </g>
     <g id="text_51">
      <!-- 0.6 -->
      <g style="fill: #262626" transform="translate(22.320625 264.990069) scale(0.11 -0.11)">
       <defs>
        <path id="ArialMT-36" d="M 3184 3459 
L 2625 3416 
Q 2550 3747 2413 3897 
Q 2184 4138 1850 4138 
Q 1581 4138 1378 3988 
Q 1113 3794 959 3422 
Q 806 3050 800 2363 
Q 1003 2672 1297 2822 
Q 1591 2972 1913 2972 
Q 2475 2972 2870 2558 
Q 3266 2144 3266 1488 
Q 3266 1056 3080 686 
Q 2894 316 2569 119 
Q 2244 -78 1831 -78 
Q 1128 -78 684 439 
Q 241 956 241 2144 
Q 241 3472 731 4075 
Q 1159 4600 1884 4600 
Q 2425 4600 2770 4297 
Q 3116 3994 3184 3459 
z
M 888 1484 
Q 888 1194 1011 928 
Q 1134 663 1356 523 
Q 1578 384 1822 384 
Q 2178 384 2434 671 
Q 2691 959 2691 1453 
Q 2691 1928 2437 2201 
Q 2184 2475 1800 2475 
Q 1419 2475 1153 2201 
Q 888 1928 888 1484 
z
" transform="scale(0.015625)"/>
       </defs>
       <use xlink:href="#ArialMT-30"/>
       <use xlink:href="#ArialMT-2e" x="55.615234"/>
       <use xlink:href="#ArialMT-36" x="83.398438"/>
      </g>
     </g>
    </g>
    <g id="ytick_5">
     <g id="line2d_56">
      <path d="M 47.110625 171.006214 
L 1005.374375 171.006214 
" clip-path="url(#p7dcbe9111f)" style="fill: none; stroke-dasharray: 3.7,1.6; stroke-dashoffset: 0; stroke: #cccccc; stroke-opacity: 0.7"/>
     </g>
     <g id="line2d_57">
      <g>
       <use xlink:href="#mf489ac574d" x="47.110625" y="171.006214" style="fill: #262626; stroke: #262626; stroke-width: 1.25"/>
      </g>
     </g>
     <g id="text_52">
      <!-- 0.8 -->
      <g style="fill: #262626" transform="translate(22.320625 174.94301) scale(0.11 -0.11)">
       <defs>
        <path id="ArialMT-38" d="M 1131 2484 
Q 781 2613 612 2850 
Q 444 3088 444 3419 
Q 444 3919 803 4259 
Q 1163 4600 1759 4600 
Q 2359 4600 2725 4251 
Q 3091 3903 3091 3403 
Q 3091 3084 2923 2848 
Q 2756 2613 2416 2484 
Q 2838 2347 3058 2040 
Q 3278 1734 3278 1309 
Q 3278 722 2862 322 
Q 2447 -78 1769 -78 
Q 1091 -78 675 323 
Q 259 725 259 1325 
Q 259 1772 486 2073 
Q 713 2375 1131 2484 
z
M 1019 3438 
Q 1019 3113 1228 2906 
Q 1438 2700 1772 2700 
Q 2097 2700 2305 2904 
Q 2513 3109 2513 3406 
Q 2513 3716 2298 3927 
Q 2084 4138 1766 4138 
Q 1444 4138 1231 3931 
Q 1019 3725 1019 3438 
z
M 838 1322 
Q 838 1081 952 856 
Q 1066 631 1291 507 
Q 1516 384 1775 384 
Q 2178 384 2440 643 
Q 2703 903 2703 1303 
Q 2703 1709 2433 1975 
Q 2163 2241 1756 2241 
Q 1359 2241 1098 1978 
Q 838 1716 838 1322 
z
" transform="scale(0.015625)"/>
       </defs>
       <use xlink:href="#ArialMT-30"/>
       <use xlink:href="#ArialMT-2e" x="55.615234"/>
       <use xlink:href="#ArialMT-38" x="83.398438"/>
      </g>
     </g>
    </g>
    <g id="ytick_6">
     <g id="line2d_58">
      <path d="M 47.110625 80.959155 
L 1005.374375 80.959155 
" clip-path="url(#p7dcbe9111f)" style="fill: none; stroke-dasharray: 3.7,1.6; stroke-dashoffset: 0; stroke: #cccccc; stroke-opacity: 0.7"/>
     </g>
     <g id="line2d_59">
      <g>
       <use xlink:href="#mf489ac574d" x="47.110625" y="80.959155" style="fill: #262626; stroke: #262626; stroke-width: 1.25"/>
      </g>
     </g>
     <g id="text_53">
      <!-- 1.0 -->
      <g style="fill: #262626" transform="translate(22.320625 84.895951) scale(0.11 -0.11)">
       <use xlink:href="#ArialMT-31"/>
       <use xlink:href="#ArialMT-2e" x="55.615234"/>
       <use xlink:href="#ArialMT-30" x="83.398438"/>
      </g>
     </g>
    </g>
    <g id="text_54">
     <!-- Proportion of Datasets -->
     <g style="fill: #262626" transform="translate(15.935625 343.259412) rotate(-90) scale(0.12 -0.12)">
      <defs>
       <path id="ArialMT-72" d="M 416 0 
L 416 3319 
L 922 3319 
L 922 2816 
Q 1116 3169 1280 3281 
Q 1444 3394 1641 3394 
Q 1925 3394 2219 3213 
L 2025 2691 
Q 1819 2813 1613 2813 
Q 1428 2813 1281 2702 
Q 1134 2591 1072 2394 
Q 978 2094 978 1738 
L 978 0 
L 416 0 
z
" transform="scale(0.015625)"/>
       <path id="ArialMT-6f" d="M 213 1659 
Q 213 2581 725 3025 
Q 1153 3394 1769 3394 
Q 2453 3394 2887 2945 
Q 3322 2497 3322 1706 
Q 3322 1066 3130 698 
Q 2938 331 2570 128 
Q 2203 -75 1769 -75 
Q 1072 -75 642 372 
Q 213 819 213 1659 
z
M 791 1659 
Q 791 1022 1069 705 
Q 1347 388 1769 388 
Q 2188 388 2466 706 
Q 2744 1025 2744 1678 
Q 2744 2294 2464 2611 
Q 2184 2928 1769 2928 
Q 1347 2928 1069 2612 
Q 791 2297 791 1659 
z
" transform="scale(0.015625)"/>
       <path id="ArialMT-70" d="M 422 -1272 
L 422 3319 
L 934 3319 
L 934 2888 
Q 1116 3141 1344 3267 
Q 1572 3394 1897 3394 
Q 2322 3394 2647 3175 
Q 2972 2956 3137 2557 
Q 3303 2159 3303 1684 
Q 3303 1175 3120 767 
Q 2938 359 2589 142 
Q 2241 -75 1856 -75 
Q 1575 -75 1351 44 
Q 1128 163 984 344 
L 984 -1272 
L 422 -1272 
z
M 931 1641 
Q 931 1000 1190 694 
Q 1450 388 1819 388 
Q 2194 388 2461 705 
Q 2728 1022 2728 1688 
Q 2728 2322 2467 2637 
Q 2206 2953 1844 2953 
Q 1484 2953 1207 2617 
Q 931 2281 931 1641 
z
" transform="scale(0.015625)"/>
       <path id="ArialMT-74" d="M 1650 503 
L 1731 6 
Q 1494 -44 1306 -44 
Q 1000 -44 831 53 
Q 663 150 594 308 
Q 525 466 525 972 
L 525 2881 
L 113 2881 
L 113 3319 
L 525 3319 
L 525 4141 
L 1084 4478 
L 1084 3319 
L 1650 3319 
L 1650 2881 
L 1084 2881 
L 1084 941 
Q 1084 700 1114 631 
Q 1144 563 1211 522 
Q 1278 481 1403 481 
Q 1497 481 1650 503 
z
" transform="scale(0.015625)"/>
       <path id="ArialMT-69" d="M 425 3934 
L 425 4581 
L 988 4581 
L 988 3934 
L 425 3934 
z
M 425 0 
L 425 3319 
L 988 3319 
L 988 0 
L 425 0 
z
" transform="scale(0.015625)"/>
       <path id="ArialMT-6e" d="M 422 0 
L 422 3319 
L 928 3319 
L 928 2847 
Q 1294 3394 1984 3394 
Q 2284 3394 2536 3286 
Q 2788 3178 2913 3003 
Q 3038 2828 3088 2588 
Q 3119 2431 3119 2041 
L 3119 0 
L 2556 0 
L 2556 2019 
Q 2556 2363 2490 2533 
Q 2425 2703 2258 2804 
Q 2091 2906 1866 2906 
Q 1506 2906 1245 2678 
Q 984 2450 984 1813 
L 984 0 
L 422 0 
z
" transform="scale(0.015625)"/>
       <path id="ArialMT-20" transform="scale(0.015625)"/>
       <path id="ArialMT-66" d="M 556 0 
L 556 2881 
L 59 2881 
L 59 3319 
L 556 3319 
L 556 3672 
Q 556 4006 616 4169 
Q 697 4388 901 4523 
Q 1106 4659 1475 4659 
Q 1713 4659 2000 4603 
L 1916 4113 
Q 1741 4144 1584 4144 
Q 1328 4144 1222 4034 
Q 1116 3925 1116 3625 
L 1116 3319 
L 1763 3319 
L 1763 2881 
L 1116 2881 
L 1116 0 
L 556 0 
z
" transform="scale(0.015625)"/>
       <path id="ArialMT-61" d="M 2588 409 
Q 2275 144 1986 34 
Q 1697 -75 1366 -75 
Q 819 -75 525 192 
Q 231 459 231 875 
Q 231 1119 342 1320 
Q 453 1522 633 1644 
Q 813 1766 1038 1828 
Q 1203 1872 1538 1913 
Q 2219 1994 2541 2106 
Q 2544 2222 2544 2253 
Q 2544 2597 2384 2738 
Q 2169 2928 1744 2928 
Q 1347 2928 1158 2789 
Q 969 2650 878 2297 
L 328 2372 
Q 403 2725 575 2942 
Q 747 3159 1072 3276 
Q 1397 3394 1825 3394 
Q 2250 3394 2515 3294 
Q 2781 3194 2906 3042 
Q 3031 2891 3081 2659 
Q 3109 2516 3109 2141 
L 3109 1391 
Q 3109 606 3145 398 
Q 3181 191 3288 0 
L 2700 0 
Q 2613 175 2588 409 
z
M 2541 1666 
Q 2234 1541 1622 1453 
Q 1275 1403 1131 1340 
Q 988 1278 909 1158 
Q 831 1038 831 891 
Q 831 666 1001 516 
Q 1172 366 1500 366 
Q 1825 366 2078 508 
Q 2331 650 2450 897 
Q 2541 1088 2541 1459 
L 2541 1666 
z
" transform="scale(0.015625)"/>
       <path id="ArialMT-73" d="M 197 991 
L 753 1078 
Q 800 744 1014 566 
Q 1228 388 1613 388 
Q 2000 388 2187 545 
Q 2375 703 2375 916 
Q 2375 1106 2209 1216 
Q 2094 1291 1634 1406 
Q 1016 1563 777 1677 
Q 538 1791 414 1992 
Q 291 2194 291 2438 
Q 291 2659 392 2848 
Q 494 3038 669 3163 
Q 800 3259 1026 3326 
Q 1253 3394 1513 3394 
Q 1903 3394 2198 3281 
Q 2494 3169 2634 2976 
Q 2775 2784 2828 2463 
L 2278 2388 
Q 2241 2644 2061 2787 
Q 1881 2931 1553 2931 
Q 1166 2931 1000 2803 
Q 834 2675 834 2503 
Q 834 2394 903 2306 
Q 972 2216 1119 2156 
Q 1203 2125 1616 2013 
Q 2213 1853 2448 1751 
Q 2684 1650 2818 1456 
Q 2953 1263 2953 975 
Q 2953 694 2789 445 
Q 2625 197 2315 61 
Q 2006 -75 1616 -75 
Q 969 -75 630 194 
Q 291 463 197 991 
z
" transform="scale(0.015625)"/>
       <path id="ArialMT-65" d="M 2694 1069 
L 3275 997 
Q 3138 488 2766 206 
Q 2394 -75 1816 -75 
Q 1088 -75 661 373 
Q 234 822 234 1631 
Q 234 2469 665 2931 
Q 1097 3394 1784 3394 
Q 2450 3394 2872 2941 
Q 3294 2488 3294 1666 
Q 3294 1616 3291 1516 
L 816 1516 
Q 847 969 1125 678 
Q 1403 388 1819 388 
Q 2128 388 2347 550 
Q 2566 713 2694 1069 
z
M 847 1978 
L 2700 1978 
Q 2663 2397 2488 2606 
Q 2219 2931 1791 2931 
Q 1403 2931 1139 2672 
Q 875 2413 847 1978 
z
" transform="scale(0.015625)"/>
      </defs>
      <use xlink:href="#ArialMT-50"/>
      <use xlink:href="#ArialMT-72" x="66.699219"/>
      <use xlink:href="#ArialMT-6f" x="100"/>
      <use xlink:href="#ArialMT-70" x="155.615234"/>
      <use xlink:href="#ArialMT-6f" x="211.230469"/>
      <use xlink:href="#ArialMT-72" x="266.845703"/>
      <use xlink:href="#ArialMT-74" x="300.146484"/>
      <use xlink:href="#ArialMT-69" x="327.929688"/>
      <use xlink:href="#ArialMT-6f" x="350.146484"/>
      <use xlink:href="#ArialMT-6e" x="405.761719"/>
      <use xlink:href="#ArialMT-20" x="461.376953"/>
      <use xlink:href="#ArialMT-6f" x="489.160156"/>
      <use xlink:href="#ArialMT-66" x="544.775391"/>
      <use xlink:href="#ArialMT-20" x="572.558594"/>
      <use xlink:href="#ArialMT-44" x="600.341797"/>
      <use xlink:href="#ArialMT-61" x="672.558594"/>
      <use xlink:href="#ArialMT-74" x="728.173828"/>
      <use xlink:href="#ArialMT-61" x="755.957031"/>
      <use xlink:href="#ArialMT-73" x="811.572266"/>
      <use xlink:href="#ArialMT-65" x="861.572266"/>
      <use xlink:href="#ArialMT-74" x="917.1875"/>
      <use xlink:href="#ArialMT-73" x="944.970703"/>
     </g>
    </g>
   </g>
   <g id="patch_3">
    <path d="M 90.668068 531.19445 
L 97.197021 531.19445 
L 97.197021 171.006214 
L 90.668068 171.006214 
z
" clip-path="url(#p7dcbe9111f)" style="fill: #ff0000; opacity: 0.7; stroke: #ffffff; stroke-linejoin: miter"/>
   </g>
   <g id="patch_4">
    <path d="M 109.322219 531.19445 
L 115.851172 531.19445 
L 115.851172 261.053273 
L 109.322219 261.053273 
z
" clip-path="url(#p7dcbe9111f)" style="fill: #ff0000; opacity: 0.7; stroke: #ffffff; stroke-linejoin: miter"/>
   </g>
   <g id="patch_5">
    <path d="M 127.976371 531.19445 
L 134.505324 531.19445 
L 134.505324 261.053273 
L 127.976371 261.053273 
z
" clip-path="url(#p7dcbe9111f)" style="fill: #ff0000; opacity: 0.7; stroke: #ffffff; stroke-linejoin: miter"/>
   </g>
   <g id="patch_6">
    <path d="M 146.630522 531.19445 
L 153.159475 531.19445 
L 153.159475 306.076802 
L 146.630522 306.076802 
z
" clip-path="url(#p7dcbe9111f)" style="fill: #ff0000; opacity: 0.7; stroke: #ffffff; stroke-linejoin: miter"/>
   </g>
   <g id="patch_7">
    <path d="M 165.284673 531.19445 
L 171.813626 531.19445 
L 171.813626 171.006214 
L 165.284673 171.006214 
z
" clip-path="url(#p7dcbe9111f)" style="fill: #ff0000; opacity: 0.7; stroke: #ffffff; stroke-linejoin: miter"/>
   </g>
   <g id="patch_8">
    <path d="M 183.938824 531.19445 
L 190.467777 531.19445 
L 190.467777 80.959155 
L 183.938824 80.959155 
z
" clip-path="url(#p7dcbe9111f)" style="fill: #ff0000; opacity: 0.7; stroke: #ffffff; stroke-linejoin: miter"/>
   </g>
   <g id="patch_9">
    <path d="M 202.592976 531.19445 
L 209.121929 531.19445 
L 209.121929 396.123861 
L 202.592976 396.123861 
z
" clip-path="url(#p7dcbe9111f)" style="fill: #ff0000; opacity: 0.7; stroke: #ffffff; stroke-linejoin: miter"/>
   </g>
   <g id="patch_10">
    <path d="M 221.247127 531.19445 
L 227.77608 531.19445 
L 227.77608 396.123861 
L 221.247127 396.123861 
z
" clip-path="url(#p7dcbe9111f)" style="fill: #ff0000; opacity: 0.7; stroke: #ffffff; stroke-linejoin: miter"/>
   </g>
   <g id="patch_11">
    <path d="M 239.901278 531.19445 
L 246.430231 531.19445 
L 246.430231 125.982684 
L 239.901278 125.982684 
z
" clip-path="url(#p7dcbe9111f)" style="fill: #ff0000; opacity: 0.7; stroke: #ffffff; stroke-linejoin: miter"/>
   </g>
   <g id="patch_12">
    <path d="M 258.555429 531.19445 
L 265.084382 531.19445 
L 265.084382 306.076802 
L 258.555429 306.076802 
z
" clip-path="url(#p7dcbe9111f)" style="fill: #ff0000; opacity: 0.7; stroke: #ffffff; stroke-linejoin: miter"/>
   </g>
   <g id="patch_13">
    <path d="M 277.209581 531.19445 
L 283.738534 531.19445 
L 283.738534 125.982684 
L 277.209581 125.982684 
z
" clip-path="url(#p7dcbe9111f)" style="fill: #ff0000; opacity: 0.7; stroke: #ffffff; stroke-linejoin: miter"/>
   </g>
   <g id="patch_14">
    <path d="M 295.863732 531.19445 
L 302.392685 531.19445 
L 302.392685 531.19445 
L 295.863732 531.19445 
z
" clip-path="url(#p7dcbe9111f)" style="fill: #ff0000; opacity: 0.7; stroke: #ffffff; stroke-linejoin: miter"/>
   </g>
   <g id="patch_15">
    <path d="M 314.517883 531.19445 
L 321.046836 531.19445 
L 321.046836 261.053273 
L 314.517883 261.053273 
z
" clip-path="url(#p7dcbe9111f)" style="fill: #ff0000; opacity: 0.7; stroke: #ffffff; stroke-linejoin: miter"/>
   </g>
   <g id="patch_16">
    <path d="M 333.172035 531.19445 
L 339.700987 531.19445 
L 339.700987 441.147391 
L 333.172035 441.147391 
z
" clip-path="url(#p7dcbe9111f)" style="fill: #ff0000; opacity: 0.7; stroke: #ffffff; stroke-linejoin: miter"/>
   </g>
   <g id="patch_17">
    <path d="M 351.826186 531.19445 
L 358.355139 531.19445 
L 358.355139 80.959155 
L 351.826186 80.959155 
z
" clip-path="url(#p7dcbe9111f)" style="fill: #ff0000; opacity: 0.7; stroke: #ffffff; stroke-linejoin: miter"/>
   </g>
   <g id="patch_18">
    <path d="M 370.480337 531.19445 
L 377.00929 531.19445 
L 377.00929 261.053273 
L 370.480337 261.053273 
z
" clip-path="url(#p7dcbe9111f)" style="fill: #ff0000; opacity: 0.7; stroke: #ffffff; stroke-linejoin: miter"/>
   </g>
   <g id="patch_19">
    <path d="M 389.134488 531.19445 
L 395.663441 531.19445 
L 395.663441 531.19445 
L 389.134488 531.19445 
z
" clip-path="url(#p7dcbe9111f)" style="fill: #ff0000; opacity: 0.7; stroke: #ffffff; stroke-linejoin: miter"/>
   </g>
   <g id="patch_20">
    <path d="M 407.78864 531.19445 
L 414.317592 531.19445 
L 414.317592 396.123861 
L 407.78864 396.123861 
z
" clip-path="url(#p7dcbe9111f)" style="fill: #ff0000; opacity: 0.7; stroke: #ffffff; stroke-linejoin: miter"/>
   </g>
   <g id="patch_21">
    <path d="M 426.442791 531.19445 
L 432.971744 531.19445 
L 432.971744 486.17092 
L 426.442791 486.17092 
z
" clip-path="url(#p7dcbe9111f)" style="fill: #ff0000; opacity: 0.7; stroke: #ffffff; stroke-linejoin: miter"/>
   </g>
   <g id="patch_22">
    <path d="M 445.096942 531.19445 
L 451.625895 531.19445 
L 451.625895 486.17092 
L 445.096942 486.17092 
z
" clip-path="url(#p7dcbe9111f)" style="fill: #ff0000; opacity: 0.7; stroke: #ffffff; stroke-linejoin: miter"/>
   </g>
   <g id="patch_23">
    <path d="M 463.751093 531.19445 
L 470.280046 531.19445 
L 470.280046 441.147391 
L 463.751093 441.147391 
z
" clip-path="url(#p7dcbe9111f)" style="fill: #ff0000; opacity: 0.7; stroke: #ffffff; stroke-linejoin: miter"/>
   </g>
   <g id="patch_24">
    <path d="M 482.405245 531.19445 
L 488.934197 531.19445 
L 488.934197 441.147391 
L 482.405245 441.147391 
z
" clip-path="url(#p7dcbe9111f)" style="fill: #ff0000; opacity: 0.7; stroke: #ffffff; stroke-linejoin: miter"/>
   </g>
   <g id="patch_25">
    <path d="M 501.059396 531.19445 
L 507.588349 531.19445 
L 507.588349 531.19445 
L 501.059396 531.19445 
z
" clip-path="url(#p7dcbe9111f)" style="fill: #ff0000; opacity: 0.7; stroke: #ffffff; stroke-linejoin: miter"/>
   </g>
   <g id="patch_26">
    <path d="M 519.713547 531.19445 
L 526.2425 531.19445 
L 526.2425 80.959155 
L 519.713547 80.959155 
z
" clip-path="url(#p7dcbe9111f)" style="fill: #ff0000; opacity: 0.7; stroke: #ffffff; stroke-linejoin: miter"/>
   </g>
   <g id="patch_27">
    <path d="M 538.367698 531.19445 
L 544.896651 531.19445 
L 544.896651 441.147391 
L 538.367698 441.147391 
z
" clip-path="url(#p7dcbe9111f)" style="fill: #ff0000; opacity: 0.7; stroke: #ffffff; stroke-linejoin: miter"/>
   </g>
   <g id="patch_28">
    <path d="M 557.02185 531.19445 
L 563.550803 531.19445 
L 563.550803 486.17092 
L 557.02185 486.17092 
z
" clip-path="url(#p7dcbe9111f)" style="fill: #ff0000; opacity: 0.7; stroke: #ffffff; stroke-linejoin: miter"/>
   </g>
   <g id="patch_29">
    <path d="M 575.676001 531.19445 
L 582.204954 531.19445 
L 582.204954 171.006214 
L 575.676001 171.006214 
z
" clip-path="url(#p7dcbe9111f)" style="fill: #ff0000; opacity: 0.7; stroke: #ffffff; stroke-linejoin: miter"/>
   </g>
   <g id="patch_30">
    <path d="M 594.330152 531.19445 
L 600.859105 531.19445 
L 600.859105 486.17092 
L 594.330152 486.17092 
z
" clip-path="url(#p7dcbe9111f)" style="fill: #ff0000; opacity: 0.7; stroke: #ffffff; stroke-linejoin: miter"/>
   </g>
   <g id="patch_31">
    <path d="M 612.984303 531.19445 
L 619.513256 531.19445 
L 619.513256 441.147391 
L 612.984303 441.147391 
z
" clip-path="url(#p7dcbe9111f)" style="fill: #ff0000; opacity: 0.7; stroke: #ffffff; stroke-linejoin: miter"/>
   </g>
   <g id="patch_32">
    <path d="M 631.638455 531.19445 
L 638.167408 531.19445 
L 638.167408 441.147391 
L 631.638455 441.147391 
z
" clip-path="url(#p7dcbe9111f)" style="fill: #ff0000; opacity: 0.7; stroke: #ffffff; stroke-linejoin: miter"/>
   </g>
   <g id="patch_33">
    <path d="M 650.292606 531.19445 
L 656.821559 531.19445 
L 656.821559 80.959155 
L 650.292606 80.959155 
z
" clip-path="url(#p7dcbe9111f)" style="fill: #ff0000; opacity: 0.7; stroke: #ffffff; stroke-linejoin: miter"/>
   </g>
   <g id="patch_34">
    <path d="M 668.946757 531.19445 
L 675.47571 531.19445 
L 675.47571 80.959155 
L 668.946757 80.959155 
z
" clip-path="url(#p7dcbe9111f)" style="fill: #ff0000; opacity: 0.7; stroke: #ffffff; stroke-linejoin: miter"/>
   </g>
   <g id="patch_35">
    <path d="M 687.600908 531.19445 
L 694.129861 531.19445 
L 694.129861 486.17092 
L 687.600908 486.17092 
z
" clip-path="url(#p7dcbe9111f)" style="fill: #ff0000; opacity: 0.7; stroke: #ffffff; stroke-linejoin: miter"/>
   </g>
   <g id="patch_36">
    <path d="M 706.25506 531.19445 
L 712.784013 531.19445 
L 712.784013 441.147391 
L 706.25506 441.147391 
z
" clip-path="url(#p7dcbe9111f)" style="fill: #ff0000; opacity: 0.7; stroke: #ffffff; stroke-linejoin: miter"/>
   </g>
   <g id="patch_37">
    <path d="M 724.909211 531.19445 
L 731.438164 531.19445 
L 731.438164 80.959155 
L 724.909211 80.959155 
z
" clip-path="url(#p7dcbe9111f)" style="fill: #ff0000; opacity: 0.7; stroke: #ffffff; stroke-linejoin: miter"/>
   </g>
   <g id="patch_38">
    <path d="M 743.563362 531.19445 
L 750.092315 531.19445 
L 750.092315 441.147391 
L 743.563362 441.147391 
z
" clip-path="url(#p7dcbe9111f)" style="fill: #ff0000; opacity: 0.7; stroke: #ffffff; stroke-linejoin: miter"/>
   </g>
   <g id="patch_39">
    <path d="M 762.217513 531.19445 
L 768.746466 531.19445 
L 768.746466 80.959155 
L 762.217513 80.959155 
z
" clip-path="url(#p7dcbe9111f)" style="fill: #ff0000; opacity: 0.7; stroke: #ffffff; stroke-linejoin: miter"/>
   </g>
   <g id="patch_40">
    <path d="M 780.871665 531.19445 
L 787.400618 531.19445 
L 787.400618 531.19445 
L 780.871665 531.19445 
z
" clip-path="url(#p7dcbe9111f)" style="fill: #ff0000; opacity: 0.7; stroke: #ffffff; stroke-linejoin: miter"/>
   </g>
   <g id="patch_41">
    <path d="M 799.525816 531.19445 
L 806.054769 531.19445 
L 806.054769 441.147391 
L 799.525816 441.147391 
z
" clip-path="url(#p7dcbe9111f)" style="fill: #ff0000; opacity: 0.7; stroke: #ffffff; stroke-linejoin: miter"/>
   </g>
   <g id="patch_42">
    <path d="M 818.179967 531.19445 
L 824.70892 531.19445 
L 824.70892 486.17092 
L 818.179967 486.17092 
z
" clip-path="url(#p7dcbe9111f)" style="fill: #ff0000; opacity: 0.7; stroke: #ffffff; stroke-linejoin: miter"/>
   </g>
   <g id="patch_43">
    <path d="M 836.834118 531.19445 
L 843.363071 531.19445 
L 843.363071 80.959155 
L 836.834118 80.959155 
z
" clip-path="url(#p7dcbe9111f)" style="fill: #ff0000; opacity: 0.7; stroke: #ffffff; stroke-linejoin: miter"/>
   </g>
   <g id="patch_44">
    <path d="M 855.48827 531.19445 
L 862.017223 531.19445 
L 862.017223 396.123861 
L 855.48827 396.123861 
z
" clip-path="url(#p7dcbe9111f)" style="fill: #ff0000; opacity: 0.7; stroke: #ffffff; stroke-linejoin: miter"/>
   </g>
   <g id="patch_45">
    <path d="M 874.142421 531.19445 
L 880.671374 531.19445 
L 880.671374 486.17092 
L 874.142421 486.17092 
z
" clip-path="url(#p7dcbe9111f)" style="fill: #ff0000; opacity: 0.7; stroke: #ffffff; stroke-linejoin: miter"/>
   </g>
   <g id="patch_46">
    <path d="M 892.796572 531.19445 
L 899.325525 531.19445 
L 899.325525 216.029743 
L 892.796572 216.029743 
z
" clip-path="url(#p7dcbe9111f)" style="fill: #ff0000; opacity: 0.7; stroke: #ffffff; stroke-linejoin: miter"/>
   </g>
   <g id="patch_47">
    <path d="M 911.450723 531.19445 
L 917.979676 531.19445 
L 917.979676 80.959155 
L 911.450723 80.959155 
z
" clip-path="url(#p7dcbe9111f)" style="fill: #ff0000; opacity: 0.7; stroke: #ffffff; stroke-linejoin: miter"/>
   </g>
   <g id="patch_48">
    <path d="M 930.104875 531.19445 
L 936.633828 531.19445 
L 936.633828 216.029743 
L 930.104875 216.029743 
z
" clip-path="url(#p7dcbe9111f)" style="fill: #ff0000; opacity: 0.7; stroke: #ffffff; stroke-linejoin: miter"/>
   </g>
   <g id="patch_49">
    <path d="M 948.759026 531.19445 
L 955.287979 531.19445 
L 955.287979 396.123861 
L 948.759026 396.123861 
z
" clip-path="url(#p7dcbe9111f)" style="fill: #ff0000; opacity: 0.7; stroke: #ffffff; stroke-linejoin: miter"/>
   </g>
   <g id="patch_50">
    <path d="M 97.197021 531.19445 
L 103.725974 531.19445 
L 103.725974 80.959155 
L 97.197021 80.959155 
z
" clip-path="url(#p7dcbe9111f)" style="fill: #0000ff; opacity: 0.7; stroke: #ffffff; stroke-linejoin: miter"/>
   </g>
   <g id="patch_51">
    <path d="M 115.851172 531.19445 
L 122.380125 531.19445 
L 122.380125 531.19445 
L 115.851172 531.19445 
z
" clip-path="url(#p7dcbe9111f)" style="fill: #0000ff; opacity: 0.7; stroke: #ffffff; stroke-linejoin: miter"/>
   </g>
   <g id="patch_52">
    <path d="M 134.505324 531.19445 
L 141.034277 531.19445 
L 141.034277 531.19445 
L 134.505324 531.19445 
z
" clip-path="url(#p7dcbe9111f)" style="fill: #0000ff; opacity: 0.7; stroke: #ffffff; stroke-linejoin: miter"/>
   </g>
   <g id="patch_53">
    <path d="M 153.159475 531.19445 
L 159.688428 531.19445 
L 159.688428 306.076802 
L 153.159475 306.076802 
z
" clip-path="url(#p7dcbe9111f)" style="fill: #0000ff; opacity: 0.7; stroke: #ffffff; stroke-linejoin: miter"/>
   </g>
   <g id="patch_54">
    <path d="M 171.813626 531.19445 
L 178.342579 531.19445 
L 178.342579 531.19445 
L 171.813626 531.19445 
z
" clip-path="url(#p7dcbe9111f)" style="fill: #0000ff; opacity: 0.7; stroke: #ffffff; stroke-linejoin: miter"/>
   </g>
   <g id="patch_55">
    <path d="M 190.467777 531.19445 
L 196.99673 531.19445 
L 196.99673 80.959155 
L 190.467777 80.959155 
z
" clip-path="url(#p7dcbe9111f)" style="fill: #0000ff; opacity: 0.7; stroke: #ffffff; stroke-linejoin: miter"/>
   </g>
   <g id="patch_56">
    <path d="M 209.121929 531.19445 
L 215.650882 531.19445 
L 215.650882 531.19445 
L 209.121929 531.19445 
z
" clip-path="url(#p7dcbe9111f)" style="fill: #0000ff; opacity: 0.7; stroke: #ffffff; stroke-linejoin: miter"/>
   </g>
   <g id="patch_57">
    <path d="M 227.77608 531.19445 
L 234.305033 531.19445 
L 234.305033 531.19445 
L 227.77608 531.19445 
z
" clip-path="url(#p7dcbe9111f)" style="fill: #0000ff; opacity: 0.7; stroke: #ffffff; stroke-linejoin: miter"/>
   </g>
   <g id="patch_58">
    <path d="M 246.430231 531.19445 
L 252.959184 531.19445 
L 252.959184 80.959155 
L 246.430231 80.959155 
z
" clip-path="url(#p7dcbe9111f)" style="fill: #0000ff; opacity: 0.7; stroke: #ffffff; stroke-linejoin: miter"/>
   </g>
   <g id="patch_59">
    <path d="M 265.084382 531.19445 
L 271.613335 531.19445 
L 271.613335 531.19445 
L 265.084382 531.19445 
z
" clip-path="url(#p7dcbe9111f)" style="fill: #0000ff; opacity: 0.7; stroke: #ffffff; stroke-linejoin: miter"/>
   </g>
   <g id="patch_60">
    <path d="M 283.738534 531.19445 
L 290.267487 531.19445 
L 290.267487 531.19445 
L 283.738534 531.19445 
z
" clip-path="url(#p7dcbe9111f)" style="fill: #0000ff; opacity: 0.7; stroke: #ffffff; stroke-linejoin: miter"/>
   </g>
   <g id="patch_61">
    <path d="M 302.392685 531.19445 
L 308.921638 531.19445 
L 308.921638 306.076802 
L 302.392685 306.076802 
z
" clip-path="url(#p7dcbe9111f)" style="fill: #0000ff; opacity: 0.7; stroke: #ffffff; stroke-linejoin: miter"/>
   </g>
   <g id="patch_62">
    <path d="M 321.046836 531.19445 
L 327.575789 531.19445 
L 327.575789 306.076802 
L 321.046836 306.076802 
z
" clip-path="url(#p7dcbe9111f)" style="fill: #0000ff; opacity: 0.7; stroke: #ffffff; stroke-linejoin: miter"/>
   </g>
   <g id="patch_63">
    <path d="M 339.700987 531.19445 
L 346.22994 531.19445 
L 346.22994 80.959155 
L 339.700987 80.959155 
z
" clip-path="url(#p7dcbe9111f)" style="fill: #0000ff; opacity: 0.7; stroke: #ffffff; stroke-linejoin: miter"/>
   </g>
   <g id="patch_64">
    <path d="M 358.355139 531.19445 
L 364.884092 531.19445 
L 364.884092 80.959155 
L 358.355139 80.959155 
z
" clip-path="url(#p7dcbe9111f)" style="fill: #0000ff; opacity: 0.7; stroke: #ffffff; stroke-linejoin: miter"/>
   </g>
   <g id="patch_65">
    <path d="M 377.00929 531.19445 
L 383.538243 531.19445 
L 383.538243 531.19445 
L 377.00929 531.19445 
z
" clip-path="url(#p7dcbe9111f)" style="fill: #0000ff; opacity: 0.7; stroke: #ffffff; stroke-linejoin: miter"/>
   </g>
   <g id="patch_66">
    <path d="M 395.663441 531.19445 
L 402.192394 531.19445 
L 402.192394 306.076802 
L 395.663441 306.076802 
z
" clip-path="url(#p7dcbe9111f)" style="fill: #0000ff; opacity: 0.7; stroke: #ffffff; stroke-linejoin: miter"/>
   </g>
   <g id="patch_67">
    <path d="M 414.317592 531.19445 
L 420.846545 531.19445 
L 420.846545 306.076802 
L 414.317592 306.076802 
z
" clip-path="url(#p7dcbe9111f)" style="fill: #0000ff; opacity: 0.7; stroke: #ffffff; stroke-linejoin: miter"/>
   </g>
   <g id="patch_68">
    <path d="M 432.971744 531.19445 
L 439.500697 531.19445 
L 439.500697 306.076802 
L 432.971744 306.076802 
z
" clip-path="url(#p7dcbe9111f)" style="fill: #0000ff; opacity: 0.7; stroke: #ffffff; stroke-linejoin: miter"/>
   </g>
   <g id="patch_69">
    <path d="M 451.625895 531.19445 
L 458.154848 531.19445 
L 458.154848 80.959155 
L 451.625895 80.959155 
z
" clip-path="url(#p7dcbe9111f)" style="fill: #0000ff; opacity: 0.7; stroke: #ffffff; stroke-linejoin: miter"/>
   </g>
   <g id="patch_70">
    <path d="M 470.280046 531.19445 
L 476.808999 531.19445 
L 476.808999 531.19445 
L 470.280046 531.19445 
z
" clip-path="url(#p7dcbe9111f)" style="fill: #0000ff; opacity: 0.7; stroke: #ffffff; stroke-linejoin: miter"/>
   </g>
   <g id="patch_71">
    <path d="M 488.934197 531.19445 
L 495.46315 531.19445 
L 495.46315 531.19445 
L 488.934197 531.19445 
z
" clip-path="url(#p7dcbe9111f)" style="fill: #0000ff; opacity: 0.7; stroke: #ffffff; stroke-linejoin: miter"/>
   </g>
   <g id="patch_72">
    <path d="M 507.588349 531.19445 
L 514.117302 531.19445 
L 514.117302 306.076802 
L 507.588349 306.076802 
z
" clip-path="url(#p7dcbe9111f)" style="fill: #0000ff; opacity: 0.7; stroke: #ffffff; stroke-linejoin: miter"/>
   </g>
   <g id="patch_73">
    <path d="M 526.2425 531.19445 
L 532.771453 531.19445 
L 532.771453 80.959155 
L 526.2425 80.959155 
z
" clip-path="url(#p7dcbe9111f)" style="fill: #0000ff; opacity: 0.7; stroke: #ffffff; stroke-linejoin: miter"/>
   </g>
   <g id="patch_74">
    <path d="M 544.896651 531.19445 
L 551.425604 531.19445 
L 551.425604 531.19445 
L 544.896651 531.19445 
z
" clip-path="url(#p7dcbe9111f)" style="fill: #0000ff; opacity: 0.7; stroke: #ffffff; stroke-linejoin: miter"/>
   </g>
   <g id="patch_75">
    <path d="M 563.550803 531.19445 
L 570.079755 531.19445 
L 570.079755 306.076802 
L 563.550803 306.076802 
z
" clip-path="url(#p7dcbe9111f)" style="fill: #0000ff; opacity: 0.7; stroke: #ffffff; stroke-linejoin: miter"/>
   </g>
   <g id="patch_76">
    <path d="M 582.204954 531.19445 
L 588.733907 531.19445 
L 588.733907 531.19445 
L 582.204954 531.19445 
z
" clip-path="url(#p7dcbe9111f)" style="fill: #0000ff; opacity: 0.7; stroke: #ffffff; stroke-linejoin: miter"/>
   </g>
   <g id="patch_77">
    <path d="M 600.859105 531.19445 
L 607.388058 531.19445 
L 607.388058 80.959155 
L 600.859105 80.959155 
z
" clip-path="url(#p7dcbe9111f)" style="fill: #0000ff; opacity: 0.7; stroke: #ffffff; stroke-linejoin: miter"/>
   </g>
   <g id="patch_78">
    <path d="M 619.513256 531.19445 
L 626.042209 531.19445 
L 626.042209 531.19445 
L 619.513256 531.19445 
z
" clip-path="url(#p7dcbe9111f)" style="fill: #0000ff; opacity: 0.7; stroke: #ffffff; stroke-linejoin: miter"/>
   </g>
   <g id="patch_79">
    <path d="M 638.167408 531.19445 
L 644.69636 531.19445 
L 644.69636 306.076802 
L 638.167408 306.076802 
z
" clip-path="url(#p7dcbe9111f)" style="fill: #0000ff; opacity: 0.7; stroke: #ffffff; stroke-linejoin: miter"/>
   </g>
   <g id="patch_80">
    <path d="M 656.821559 531.19445 
L 663.350512 531.19445 
L 663.350512 80.959155 
L 656.821559 80.959155 
z
" clip-path="url(#p7dcbe9111f)" style="fill: #0000ff; opacity: 0.7; stroke: #ffffff; stroke-linejoin: miter"/>
   </g>
   <g id="patch_81">
    <path d="M 675.47571 531.19445 
L 682.004663 531.19445 
L 682.004663 306.076802 
L 675.47571 306.076802 
z
" clip-path="url(#p7dcbe9111f)" style="fill: #0000ff; opacity: 0.7; stroke: #ffffff; stroke-linejoin: miter"/>
   </g>
   <g id="patch_82">
    <path d="M 694.129861 531.19445 
L 700.658814 531.19445 
L 700.658814 306.076802 
L 694.129861 306.076802 
z
" clip-path="url(#p7dcbe9111f)" style="fill: #0000ff; opacity: 0.7; stroke: #ffffff; stroke-linejoin: miter"/>
   </g>
   <g id="patch_83">
    <path d="M 712.784013 531.19445 
L 719.312965 531.19445 
L 719.312965 306.076802 
L 712.784013 306.076802 
z
" clip-path="url(#p7dcbe9111f)" style="fill: #0000ff; opacity: 0.7; stroke: #ffffff; stroke-linejoin: miter"/>
   </g>
   <g id="patch_84">
    <path d="M 731.438164 531.19445 
L 737.967117 531.19445 
L 737.967117 306.076802 
L 731.438164 306.076802 
z
" clip-path="url(#p7dcbe9111f)" style="fill: #0000ff; opacity: 0.7; stroke: #ffffff; stroke-linejoin: miter"/>
   </g>
   <g id="patch_85">
    <path d="M 750.092315 531.19445 
L 756.621268 531.19445 
L 756.621268 531.19445 
L 750.092315 531.19445 
z
" clip-path="url(#p7dcbe9111f)" style="fill: #0000ff; opacity: 0.7; stroke: #ffffff; stroke-linejoin: miter"/>
   </g>
   <g id="patch_86">
    <path d="M 768.746466 531.19445 
L 775.275419 531.19445 
L 775.275419 306.076802 
L 768.746466 306.076802 
z
" clip-path="url(#p7dcbe9111f)" style="fill: #0000ff; opacity: 0.7; stroke: #ffffff; stroke-linejoin: miter"/>
   </g>
   <g id="patch_87">
    <path d="M 787.400618 531.19445 
L 793.929571 531.19445 
L 793.929571 80.959155 
L 787.400618 80.959155 
z
" clip-path="url(#p7dcbe9111f)" style="fill: #0000ff; opacity: 0.7; stroke: #ffffff; stroke-linejoin: miter"/>
   </g>
   <g id="patch_88">
    <path d="M 806.054769 531.19445 
L 812.583722 531.19445 
L 812.583722 531.19445 
L 806.054769 531.19445 
z
" clip-path="url(#p7dcbe9111f)" style="fill: #0000ff; opacity: 0.7; stroke: #ffffff; stroke-linejoin: miter"/>
   </g>
   <g id="patch_89">
    <path d="M 824.70892 531.19445 
L 831.237873 531.19445 
L 831.237873 306.076802 
L 824.70892 306.076802 
z
" clip-path="url(#p7dcbe9111f)" style="fill: #0000ff; opacity: 0.7; stroke: #ffffff; stroke-linejoin: miter"/>
   </g>
   <g id="patch_90">
    <path d="M 843.363071 531.19445 
L 849.892024 531.19445 
L 849.892024 80.959155 
L 843.363071 80.959155 
z
" clip-path="url(#p7dcbe9111f)" style="fill: #0000ff; opacity: 0.7; stroke: #ffffff; stroke-linejoin: miter"/>
   </g>
   <g id="patch_91">
    <path d="M 862.017223 531.19445 
L 868.546176 531.19445 
L 868.546176 531.19445 
L 862.017223 531.19445 
z
" clip-path="url(#p7dcbe9111f)" style="fill: #0000ff; opacity: 0.7; stroke: #ffffff; stroke-linejoin: miter"/>
   </g>
   <g id="patch_92">
    <path d="M 880.671374 531.19445 
L 887.200327 531.19445 
L 887.200327 80.959155 
L 880.671374 80.959155 
z
" clip-path="url(#p7dcbe9111f)" style="fill: #0000ff; opacity: 0.7; stroke: #ffffff; stroke-linejoin: miter"/>
   </g>
   <g id="patch_93">
    <path d="M 899.325525 531.19445 
L 905.854478 531.19445 
L 905.854478 306.076802 
L 899.325525 306.076802 
z
" clip-path="url(#p7dcbe9111f)" style="fill: #0000ff; opacity: 0.7; stroke: #ffffff; stroke-linejoin: miter"/>
   </g>
   <g id="patch_94">
    <path d="M 917.979676 531.19445 
L 924.508629 531.19445 
L 924.508629 80.959155 
L 917.979676 80.959155 
z
" clip-path="url(#p7dcbe9111f)" style="fill: #0000ff; opacity: 0.7; stroke: #ffffff; stroke-linejoin: miter"/>
   </g>
   <g id="patch_95">
    <path d="M 936.633828 531.19445 
L 943.162781 531.19445 
L 943.162781 531.19445 
L 936.633828 531.19445 
z
" clip-path="url(#p7dcbe9111f)" style="fill: #0000ff; opacity: 0.7; stroke: #ffffff; stroke-linejoin: miter"/>
   </g>
   <g id="patch_96">
    <path d="M 955.287979 531.19445 
L 961.816932 531.19445 
L 961.816932 80.959155 
L 955.287979 80.959155 
z
" clip-path="url(#p7dcbe9111f)" style="fill: #0000ff; opacity: 0.7; stroke: #ffffff; stroke-linejoin: miter"/>
   </g>
   <g id="patch_97">
    <path d="M 47.110625 531.19445 
L 47.110625 35.935625 
" style="fill: none; stroke: #262626; stroke-width: 1.25; stroke-linejoin: miter; stroke-linecap: square"/>
   </g>
   <g id="patch_98">
    <path d="M 1005.374375 531.19445 
L 1005.374375 35.935625 
" style="fill: none; stroke: #262626; stroke-width: 1.25; stroke-linejoin: miter; stroke-linecap: square"/>
   </g>
   <g id="patch_99">
    <path d="M 47.110625 531.19445 
L 1005.374375 531.19445 
" style="fill: none; stroke: #262626; stroke-width: 1.25; stroke-linejoin: miter; stroke-linecap: square"/>
   </g>
   <g id="patch_100">
    <path d="M 47.110625 35.935625 
L 1005.374375 35.935625 
" style="fill: none; stroke: #262626; stroke-width: 1.25; stroke-linejoin: miter; stroke-linecap: square"/>
   </g>
   <g id="text_55">
    <!-- Rich Club Membership Proportions -->
    <g style="fill: #262626" transform="translate(433.209687 15.935625) scale(0.12 -0.12)">
     <defs>
      <path id="ArialMT-63" d="M 2588 1216 
L 3141 1144 
Q 3050 572 2676 248 
Q 2303 -75 1759 -75 
Q 1078 -75 664 370 
Q 250 816 250 1647 
Q 250 2184 428 2587 
Q 606 2991 970 3192 
Q 1334 3394 1763 3394 
Q 2303 3394 2647 3120 
Q 2991 2847 3088 2344 
L 2541 2259 
Q 2463 2594 2264 2762 
Q 2066 2931 1784 2931 
Q 1359 2931 1093 2626 
Q 828 2322 828 1663 
Q 828 994 1084 691 
Q 1341 388 1753 388 
Q 2084 388 2306 591 
Q 2528 794 2588 1216 
z
" transform="scale(0.015625)"/>
      <path id="ArialMT-68" d="M 422 0 
L 422 4581 
L 984 4581 
L 984 2938 
Q 1378 3394 1978 3394 
Q 2347 3394 2619 3248 
Q 2891 3103 3008 2847 
Q 3125 2591 3125 2103 
L 3125 0 
L 2563 0 
L 2563 2103 
Q 2563 2525 2380 2717 
Q 2197 2909 1863 2909 
Q 1613 2909 1392 2779 
Q 1172 2650 1078 2428 
Q 984 2206 984 1816 
L 984 0 
L 422 0 
z
" transform="scale(0.015625)"/>
      <path id="ArialMT-6c" d="M 409 0 
L 409 4581 
L 972 4581 
L 972 0 
L 409 0 
z
" transform="scale(0.015625)"/>
      <path id="ArialMT-75" d="M 2597 0 
L 2597 488 
Q 2209 -75 1544 -75 
Q 1250 -75 995 37 
Q 741 150 617 320 
Q 494 491 444 738 
Q 409 903 409 1263 
L 409 3319 
L 972 3319 
L 972 1478 
Q 972 1038 1006 884 
Q 1059 663 1231 536 
Q 1403 409 1656 409 
Q 1909 409 2131 539 
Q 2353 669 2445 892 
Q 2538 1116 2538 1541 
L 2538 3319 
L 3100 3319 
L 3100 0 
L 2597 0 
z
" transform="scale(0.015625)"/>
      <path id="ArialMT-62" d="M 941 0 
L 419 0 
L 419 4581 
L 981 4581 
L 981 2947 
Q 1338 3394 1891 3394 
Q 2197 3394 2470 3270 
Q 2744 3147 2920 2923 
Q 3097 2700 3197 2384 
Q 3297 2069 3297 1709 
Q 3297 856 2875 390 
Q 2453 -75 1863 -75 
Q 1275 -75 941 416 
L 941 0 
z
M 934 1684 
Q 934 1088 1097 822 
Q 1363 388 1816 388 
Q 2184 388 2453 708 
Q 2722 1028 2722 1663 
Q 2722 2313 2464 2622 
Q 2206 2931 1841 2931 
Q 1472 2931 1203 2611 
Q 934 2291 934 1684 
z
" transform="scale(0.015625)"/>
      <path id="ArialMT-6d" d="M 422 0 
L 422 3319 
L 925 3319 
L 925 2853 
Q 1081 3097 1340 3245 
Q 1600 3394 1931 3394 
Q 2300 3394 2536 3241 
Q 2772 3088 2869 2813 
Q 3263 3394 3894 3394 
Q 4388 3394 4653 3120 
Q 4919 2847 4919 2278 
L 4919 0 
L 4359 0 
L 4359 2091 
Q 4359 2428 4304 2576 
Q 4250 2725 4106 2815 
Q 3963 2906 3769 2906 
Q 3419 2906 3187 2673 
Q 2956 2441 2956 1928 
L 2956 0 
L 2394 0 
L 2394 2156 
Q 2394 2531 2256 2718 
Q 2119 2906 1806 2906 
Q 1569 2906 1367 2781 
Q 1166 2656 1075 2415 
Q 984 2175 984 1722 
L 984 0 
L 422 0 
z
" transform="scale(0.015625)"/>
     </defs>
     <use xlink:href="#ArialMT-52"/>
     <use xlink:href="#ArialMT-69" x="72.216797"/>
     <use xlink:href="#ArialMT-63" x="94.433594"/>
     <use xlink:href="#ArialMT-68" x="144.433594"/>
     <use xlink:href="#ArialMT-20" x="200.048828"/>
     <use xlink:href="#ArialMT-43" x="227.832031"/>
     <use xlink:href="#ArialMT-6c" x="300.048828"/>
     <use xlink:href="#ArialMT-75" x="322.265625"/>
     <use xlink:href="#ArialMT-62" x="377.880859"/>
     <use xlink:href="#ArialMT-20" x="433.496094"/>
     <use xlink:href="#ArialMT-4d" x="461.279297"/>
     <use xlink:href="#ArialMT-65" x="544.580078"/>
     <use xlink:href="#ArialMT-6d" x="600.195312"/>
     <use xlink:href="#ArialMT-62" x="683.496094"/>
     <use xlink:href="#ArialMT-65" x="739.111328"/>
     <use xlink:href="#ArialMT-72" x="794.726562"/>
     <use xlink:href="#ArialMT-73" x="828.027344"/>
     <use xlink:href="#ArialMT-68" x="878.027344"/>
     <use xlink:href="#ArialMT-69" x="933.642578"/>
     <use xlink:href="#ArialMT-70" x="955.859375"/>
     <use xlink:href="#ArialMT-20" x="1011.474609"/>
     <use xlink:href="#ArialMT-50" x="1039.257812"/>
     <use xlink:href="#ArialMT-72" x="1105.957031"/>
     <use xlink:href="#ArialMT-6f" x="1139.257812"/>
     <use xlink:href="#ArialMT-70" x="1194.873047"/>
     <use xlink:href="#ArialMT-6f" x="1250.488281"/>
     <use xlink:href="#ArialMT-72" x="1306.103516"/>
     <use xlink:href="#ArialMT-74" x="1339.404297"/>
     <use xlink:href="#ArialMT-69" x="1367.1875"/>
     <use xlink:href="#ArialMT-6f" x="1389.404297"/>
     <use xlink:href="#ArialMT-6e" x="1445.019531"/>
     <use xlink:href="#ArialMT-73" x="1500.634766"/>
    </g>
   </g>
   <g id="legend_1">
    <g id="patch_101">
     <path d="M 898.564375 77.075625 
L 997.674375 77.075625 
Q 999.874375 77.075625 999.874375 74.875625 
L 999.874375 43.635625 
Q 999.874375 41.435625 997.674375 41.435625 
L 898.564375 41.435625 
Q 896.364375 41.435625 896.364375 43.635625 
L 896.364375 74.875625 
Q 896.364375 77.075625 898.564375 77.075625 
z
" style="fill: #ffffff; opacity: 0.8; stroke: #cccccc; stroke-linejoin: miter"/>
    </g>
    <g id="patch_102">
     <path d="M 900.764375 54.195625 
L 922.764375 54.195625 
L 922.764375 46.495625 
L 900.764375 46.495625 
z
" style="fill: #ff0000; opacity: 0.7; stroke: #ffffff; stroke-linejoin: miter"/>
    </g>
    <g id="text_56">
     <!-- $\it{C.}$ $\it{elegans}$ -->
     <g style="fill: #262626" transform="translate(931.564375 54.195625) scale(0.11 -0.11)">
      <defs>
       <path id="DejaVuSans-Oblique-43" d="M 4447 4306 
L 4319 3641 
Q 4019 3944 3683 4091 
Q 3347 4238 2956 4238 
Q 2422 4238 2017 3981 
Q 1613 3725 1319 3200 
Q 1131 2863 1032 2486 
Q 934 2109 934 1728 
Q 934 1091 1264 756 
Q 1594 422 2222 422 
Q 2656 422 3056 561 
Q 3456 700 3834 978 
L 3688 231 
Q 3316 72 2936 -9 
Q 2556 -91 2175 -91 
Q 1278 -91 773 396 
Q 269 884 269 1753 
Q 269 2309 461 2846 
Q 653 3384 1013 3828 
Q 1394 4300 1883 4525 
Q 2372 4750 3022 4750 
Q 3422 4750 3780 4639 
Q 4138 4528 4447 4306 
z
" transform="scale(0.015625)"/>
       <path id="DejaVuSans-2e" d="M 684 794 
L 1344 794 
L 1344 0 
L 684 0 
L 684 794 
z
" transform="scale(0.015625)"/>
       <path id="DejaVuSans-Oblique-65" d="M 3078 2063 
Q 3088 2113 3092 2166 
Q 3097 2219 3097 2272 
Q 3097 2653 2873 2875 
Q 2650 3097 2266 3097 
Q 1838 3097 1509 2826 
Q 1181 2556 1013 2059 
L 3078 2063 
z
M 3578 1613 
L 903 1613 
Q 884 1494 878 1425 
Q 872 1356 872 1306 
Q 872 872 1139 634 
Q 1406 397 1894 397 
Q 2269 397 2603 481 
Q 2938 566 3225 728 
L 3116 159 
Q 2806 34 2476 -28 
Q 2147 -91 1806 -91 
Q 1078 -91 686 257 
Q 294 606 294 1247 
Q 294 1794 489 2264 
Q 684 2734 1063 3103 
Q 1306 3334 1642 3459 
Q 1978 3584 2356 3584 
Q 2950 3584 3301 3228 
Q 3653 2872 3653 2272 
Q 3653 2128 3634 1964 
Q 3616 1800 3578 1613 
z
" transform="scale(0.015625)"/>
       <path id="DejaVuSans-Oblique-6c" d="M 1172 4863 
L 1747 4863 
L 800 0 
L 225 0 
L 1172 4863 
z
" transform="scale(0.015625)"/>
       <path id="DejaVuSans-Oblique-67" d="M 3816 3500 
L 3219 434 
Q 3047 -456 2561 -893 
Q 2075 -1331 1253 -1331 
Q 950 -1331 690 -1286 
Q 431 -1241 206 -1147 
L 313 -588 
Q 525 -725 762 -790 
Q 1000 -856 1269 -856 
Q 1816 -856 2167 -557 
Q 2519 -259 2631 300 
L 2681 563 
Q 2441 288 2122 144 
Q 1803 0 1434 0 
Q 903 0 598 351 
Q 294 703 294 1319 
Q 294 1803 478 2267 
Q 663 2731 997 3091 
Q 1219 3328 1514 3456 
Q 1809 3584 2131 3584 
Q 2484 3584 2746 3420 
Q 3009 3256 3138 2956 
L 3238 3500 
L 3816 3500 
z
M 2950 2216 
Q 2950 2641 2750 2872 
Q 2550 3103 2181 3103 
Q 1953 3103 1747 3012 
Q 1541 2922 1394 2759 
Q 1156 2491 1023 2127 
Q 891 1763 891 1375 
Q 891 944 1092 712 
Q 1294 481 1672 481 
Q 2219 481 2584 976 
Q 2950 1472 2950 2216 
z
" transform="scale(0.015625)"/>
       <path id="DejaVuSans-Oblique-61" d="M 3438 1997 
L 3047 0 
L 2472 0 
L 2578 531 
Q 2325 219 2001 64 
Q 1678 -91 1281 -91 
Q 834 -91 548 182 
Q 263 456 263 884 
Q 263 1497 752 1853 
Q 1241 2209 2100 2209 
L 2900 2209 
L 2931 2363 
Q 2938 2388 2941 2417 
Q 2944 2447 2944 2509 
Q 2944 2788 2717 2942 
Q 2491 3097 2081 3097 
Q 1800 3097 1504 3025 
Q 1209 2953 897 2809 
L 997 3341 
Q 1322 3463 1633 3523 
Q 1944 3584 2234 3584 
Q 2853 3584 3176 3315 
Q 3500 3047 3500 2534 
Q 3500 2431 3484 2292 
Q 3469 2153 3438 1997 
z
M 2816 1759 
L 2241 1759 
Q 1534 1759 1195 1570 
Q 856 1381 856 984 
Q 856 709 1029 553 
Q 1203 397 1509 397 
Q 1978 397 2328 733 
Q 2678 1069 2791 1631 
L 2816 1759 
z
" transform="scale(0.015625)"/>
       <path id="DejaVuSans-Oblique-6e" d="M 3566 2113 
L 3156 0 
L 2578 0 
L 2988 2091 
Q 3016 2238 3031 2350 
Q 3047 2463 3047 2528 
Q 3047 2791 2881 2937 
Q 2716 3084 2419 3084 
Q 1956 3084 1622 2776 
Q 1288 2469 1184 1941 
L 800 0 
L 225 0 
L 903 3500 
L 1478 3500 
L 1363 2950 
Q 1603 3253 1940 3418 
Q 2278 3584 2650 3584 
Q 3113 3584 3367 3334 
Q 3622 3084 3622 2631 
Q 3622 2519 3608 2391 
Q 3594 2263 3566 2113 
z
" transform="scale(0.015625)"/>
       <path id="DejaVuSans-Oblique-73" d="M 3200 3397 
L 3091 2853 
Q 2863 2978 2609 3040 
Q 2356 3103 2088 3103 
Q 1634 3103 1373 2948 
Q 1113 2794 1113 2528 
Q 1113 2219 1719 2053 
Q 1766 2041 1788 2034 
L 1972 1978 
Q 2547 1819 2739 1644 
Q 2931 1469 2931 1166 
Q 2931 609 2489 259 
Q 2047 -91 1331 -91 
Q 1053 -91 747 -37 
Q 441 16 72 128 
L 184 722 
Q 500 559 806 475 
Q 1113 391 1394 391 
Q 1816 391 2080 572 
Q 2344 753 2344 1031 
Q 2344 1331 1650 1516 
L 1591 1531 
L 1394 1581 
Q 956 1697 753 1886 
Q 550 2075 550 2369 
Q 550 2928 970 3256 
Q 1391 3584 2113 3584 
Q 2397 3584 2667 3537 
Q 2938 3491 3200 3397 
z
" transform="scale(0.015625)"/>
      </defs>
      <use xlink:href="#DejaVuSans-Oblique-43" transform="translate(0 0.015625)"/>
      <use xlink:href="#DejaVuSans-2e" transform="translate(69.824219 0.015625)"/>
      <use xlink:href="#ArialMT-20" transform="translate(121.09375 0.015625)"/>
      <use xlink:href="#DejaVuSans-Oblique-65" transform="translate(148.876953 0.015625)"/>
      <use xlink:href="#DejaVuSans-Oblique-6c" transform="translate(210.400391 0.015625)"/>
      <use xlink:href="#DejaVuSans-Oblique-65" transform="translate(238.183594 0.015625)"/>
      <use xlink:href="#DejaVuSans-Oblique-67" transform="translate(299.707031 0.015625)"/>
      <use xlink:href="#DejaVuSans-Oblique-61" transform="translate(363.183594 0.015625)"/>
      <use xlink:href="#DejaVuSans-Oblique-6e" transform="translate(424.462891 0.015625)"/>
      <use xlink:href="#DejaVuSans-Oblique-73" transform="translate(487.841797 0.015625)"/>
     </g>
    </g>
    <g id="patch_103">
     <path d="M 900.764375 70.365625 
L 922.764375 70.365625 
L 922.764375 62.665625 
L 900.764375 62.665625 
z
" style="fill: #0000ff; opacity: 0.7; stroke: #ffffff; stroke-linejoin: miter"/>
    </g>
    <g id="text_57">
     <!-- $\it{P.}$ $\it{pacificus}$ -->
     <g style="fill: #262626" transform="translate(931.564375 70.365625) scale(0.11 -0.11)">
      <defs>
       <path id="DejaVuSans-Oblique-50" d="M 1081 4666 
L 2541 4666 
Q 3178 4666 3512 4369 
Q 3847 4072 3847 3500 
Q 3847 2731 3353 2303 
Q 2859 1875 1966 1875 
L 1172 1875 
L 806 0 
L 172 0 
L 1081 4666 
z
M 1613 4147 
L 1275 2394 
L 2069 2394 
Q 2606 2394 2893 2669 
Q 3181 2944 3181 3456 
Q 3181 3784 2986 3965 
Q 2791 4147 2438 4147 
L 1613 4147 
z
" transform="scale(0.015625)"/>
       <path id="DejaVuSans-Oblique-70" d="M 3175 2156 
Q 3175 2616 2975 2859 
Q 2775 3103 2400 3103 
Q 2144 3103 1911 2972 
Q 1678 2841 1497 2591 
Q 1319 2344 1212 1994 
Q 1106 1644 1106 1300 
Q 1106 863 1306 627 
Q 1506 391 1875 391 
Q 2147 391 2380 519 
Q 2613 647 2778 891 
Q 2956 1147 3065 1494 
Q 3175 1841 3175 2156 
z
M 1394 2969 
Q 1625 3272 1939 3428 
Q 2253 3584 2638 3584 
Q 3175 3584 3472 3232 
Q 3769 2881 3769 2247 
Q 3769 1728 3584 1258 
Q 3400 788 3053 416 
Q 2822 169 2531 39 
Q 2241 -91 1919 -91 
Q 1547 -91 1294 64 
Q 1041 219 916 525 
L 556 -1331 
L -19 -1331 
L 922 3500 
L 1497 3500 
L 1394 2969 
z
" transform="scale(0.015625)"/>
       <path id="DejaVuSans-Oblique-63" d="M 3431 3366 
L 3316 2797 
Q 3109 2947 2876 3022 
Q 2644 3097 2394 3097 
Q 2119 3097 1870 3000 
Q 1622 2903 1453 2725 
Q 1184 2453 1037 2087 
Q 891 1722 891 1331 
Q 891 859 1127 628 
Q 1363 397 1844 397 
Q 2081 397 2348 469 
Q 2616 541 2906 684 
L 2797 116 
Q 2547 13 2283 -39 
Q 2019 -91 1741 -91 
Q 1044 -91 669 257 
Q 294 606 294 1253 
Q 294 1797 489 2255 
Q 684 2713 1069 3078 
Q 1331 3328 1684 3456 
Q 2038 3584 2456 3584 
Q 2700 3584 2940 3529 
Q 3181 3475 3431 3366 
z
" transform="scale(0.015625)"/>
       <path id="DejaVuSans-Oblique-69" d="M 1172 4863 
L 1747 4863 
L 1606 4134 
L 1031 4134 
L 1172 4863 
z
M 909 3500 
L 1484 3500 
L 800 0 
L 225 0 
L 909 3500 
z
" transform="scale(0.015625)"/>
       <path id="DejaVuSans-Oblique-66" d="M 3059 4863 
L 2969 4384 
L 2419 4384 
Q 2106 4384 1964 4261 
Q 1822 4138 1753 3809 
L 1691 3500 
L 2638 3500 
L 2553 3053 
L 1606 3053 
L 1013 0 
L 434 0 
L 1031 3053 
L 481 3053 
L 563 3500 
L 1113 3500 
L 1159 3744 
Q 1278 4363 1576 4613 
Q 1875 4863 2516 4863 
L 3059 4863 
z
" transform="scale(0.015625)"/>
       <path id="DejaVuSans-Oblique-75" d="M 428 1388 
L 838 3500 
L 1416 3500 
L 1006 1409 
Q 975 1256 961 1147 
Q 947 1038 947 966 
Q 947 700 1109 554 
Q 1272 409 1569 409 
Q 2031 409 2368 721 
Q 2706 1034 2809 1563 
L 3194 3500 
L 3769 3500 
L 3091 0 
L 2516 0 
L 2631 550 
Q 2388 244 2052 76 
Q 1716 -91 1338 -91 
Q 878 -91 622 161 
Q 366 413 366 863 
Q 366 956 381 1097 
Q 397 1238 428 1388 
z
" transform="scale(0.015625)"/>
      </defs>
      <use xlink:href="#DejaVuSans-Oblique-50" transform="translate(0 0.015625)"/>
      <use xlink:href="#DejaVuSans-2e" transform="translate(60.302734 0.015625)"/>
      <use xlink:href="#ArialMT-20" transform="translate(111.572266 0.015625)"/>
      <use xlink:href="#DejaVuSans-Oblique-70" transform="translate(139.355469 0.015625)"/>
      <use xlink:href="#DejaVuSans-Oblique-61" transform="translate(202.832031 0.015625)"/>
      <use xlink:href="#DejaVuSans-Oblique-63" transform="translate(264.111328 0.015625)"/>
      <use xlink:href="#DejaVuSans-Oblique-69" transform="translate(319.091797 0.015625)"/>
      <use xlink:href="#DejaVuSans-Oblique-66" transform="translate(346.875 0.015625)"/>
      <use xlink:href="#DejaVuSans-Oblique-69" transform="translate(382.080078 0.015625)"/>
      <use xlink:href="#DejaVuSans-Oblique-63" transform="translate(409.863281 0.015625)"/>
      <use xlink:href="#DejaVuSans-Oblique-75" transform="translate(464.84375 0.015625)"/>
      <use xlink:href="#DejaVuSans-Oblique-73" transform="translate(528.222656 0.015625)"/>
     </g>
    </g>
   </g>
  </g>
 </g>
 <defs>
  <clipPath id="p7dcbe9111f">
   <rect x="47.110625" y="35.935625" width="958.26375" height="495.258825"/>
  </clipPath>
 </defs>
</svg>
