<?xml version="1.0" encoding="utf-8" standalone="no"?>
<!DOCTYPE svg PUBLIC "-//W3C//DTD SVG 1.1//EN"
  "http://www.w3.org/Graphics/SVG/1.1/DTD/svg11.dtd">
<svg xmlns:xlink="http://www.w3.org/1999/xlink" width="715.174281pt" height="429.030469pt" viewBox="0 0 715.174281 429.030469" xmlns="http://www.w3.org/2000/svg" version="1.1">
 <metadata>
  <rdf:RDF xmlns:dc="http://purl.org/dc/elements/1.1/" xmlns:cc="http://creativecommons.org/ns#" xmlns:rdf="http://www.w3.org/1999/02/22-rdf-syntax-ns#">
   <cc:Work>
    <dc:type rdf:resource="http://purl.org/dc/dcmitype/StillImage"/>
    <dc:date>2024-11-19T23:19:27.795504</dc:date>
    <dc:format>image/svg+xml</dc:format>
    <dc:creator>
     <cc:Agent>
      <dc:title>Matplotlib v3.9.2, https://matplotlib.org/</dc:title>
     </cc:Agent>
    </dc:creator>
   </cc:Work>
  </rdf:RDF>
 </metadata>
 <defs>
  <style type="text/css">*{stroke-linejoin: round; stroke-linecap: butt}</style>
 </defs>
 <g id="figure_1">
  <g id="patch_1">
   <path d="M 0 429.030469 
L 715.174281 429.030469 
L 715.174281 0 
L 0 0 
z
" style="fill: #ffffff"/>
  </g>
  <g id="axes_1">
   <g id="patch_2">
    <path d="M 46.964375 387.009375 
L 566.584375 387.009375 
L 566.584375 21.789375 
L 46.964375 21.789375 
z
" style="fill: #ffffff"/>
   </g>
   <g id="matplotlib.axis_1">
    <g id="xtick_1">
     <g id="line2d_1">
      <path d="M 70.583466 387.009375 
L 70.583466 21.789375 
" clip-path="url(#pc07381e929)" style="fill: none; stroke: #cccccc; stroke-opacity: 0.3; stroke-linecap: round"/>
     </g>
     <g id="line2d_2">
      <defs>
       <path id="m6c3a9a32f2" d="M 0 0 
L 0 6 
" style="stroke: #262626; stroke-width: 1.25"/>
      </defs>
      <g>
       <use xlink:href="#m6c3a9a32f2" x="70.583466" y="387.009375" style="fill: #262626; stroke: #262626; stroke-width: 1.25"/>
      </g>
     </g>
     <g id="text_1">
      <!-- 0 -->
      <g style="fill: #262626" transform="translate(67.52495 404.382969) scale(0.11 -0.11)">
       <defs>
        <path id="ArialMT-30" d="M 266 2259 
Q 266 3072 433 3567 
Q 600 4063 929 4331 
Q 1259 4600 1759 4600 
Q 2128 4600 2406 4451 
Q 2684 4303 2865 4023 
Q 3047 3744 3150 3342 
Q 3253 2941 3253 2259 
Q 3253 1453 3087 958 
Q 2922 463 2592 192 
Q 2263 -78 1759 -78 
Q 1097 -78 719 397 
Q 266 969 266 2259 
z
M 844 2259 
Q 844 1131 1108 757 
Q 1372 384 1759 384 
Q 2147 384 2411 759 
Q 2675 1134 2675 2259 
Q 2675 3391 2411 3762 
Q 2147 4134 1753 4134 
Q 1366 4134 1134 3806 
Q 844 3388 844 2259 
z
" transform="scale(0.015625)"/>
       </defs>
       <use xlink:href="#ArialMT-30"/>
      </g>
     </g>
    </g>
    <g id="xtick_2">
     <g id="line2d_3">
      <path d="M 154.937362 387.009375 
L 154.937362 21.789375 
" clip-path="url(#pc07381e929)" style="fill: none; stroke: #cccccc; stroke-opacity: 0.3; stroke-linecap: round"/>
     </g>
     <g id="line2d_4">
      <g>
       <use xlink:href="#m6c3a9a32f2" x="154.937362" y="387.009375" style="fill: #262626; stroke: #262626; stroke-width: 1.25"/>
      </g>
     </g>
     <g id="text_2">
      <!-- 10 -->
      <g style="fill: #262626" transform="translate(148.820331 404.382969) scale(0.11 -0.11)">
       <defs>
        <path id="ArialMT-31" d="M 2384 0 
L 1822 0 
L 1822 3584 
Q 1619 3391 1289 3197 
Q 959 3003 697 2906 
L 697 3450 
Q 1169 3672 1522 3987 
Q 1875 4303 2022 4600 
L 2384 4600 
L 2384 0 
z
" transform="scale(0.015625)"/>
       </defs>
       <use xlink:href="#ArialMT-31"/>
       <use xlink:href="#ArialMT-30" x="55.615234"/>
      </g>
     </g>
    </g>
    <g id="xtick_3">
     <g id="line2d_5">
      <path d="M 239.291258 387.009375 
L 239.291258 21.789375 
" clip-path="url(#pc07381e929)" style="fill: none; stroke: #cccccc; stroke-opacity: 0.3; stroke-linecap: round"/>
     </g>
     <g id="line2d_6">
      <g>
       <use xlink:href="#m6c3a9a32f2" x="239.291258" y="387.009375" style="fill: #262626; stroke: #262626; stroke-width: 1.25"/>
      </g>
     </g>
     <g id="text_3">
      <!-- 20 -->
      <g style="fill: #262626" transform="translate(233.174227 404.382969) scale(0.11 -0.11)">
       <defs>
        <path id="ArialMT-32" d="M 3222 541 
L 3222 0 
L 194 0 
Q 188 203 259 391 
Q 375 700 629 1000 
Q 884 1300 1366 1694 
Q 2113 2306 2375 2664 
Q 2638 3022 2638 3341 
Q 2638 3675 2398 3904 
Q 2159 4134 1775 4134 
Q 1369 4134 1125 3890 
Q 881 3647 878 3216 
L 300 3275 
Q 359 3922 746 4261 
Q 1134 4600 1788 4600 
Q 2447 4600 2831 4234 
Q 3216 3869 3216 3328 
Q 3216 3053 3103 2787 
Q 2991 2522 2730 2228 
Q 2469 1934 1863 1422 
Q 1356 997 1212 845 
Q 1069 694 975 541 
L 3222 541 
z
" transform="scale(0.015625)"/>
       </defs>
       <use xlink:href="#ArialMT-32"/>
       <use xlink:href="#ArialMT-30" x="55.615234"/>
      </g>
     </g>
    </g>
    <g id="xtick_4">
     <g id="line2d_7">
      <path d="M 323.645154 387.009375 
L 323.645154 21.789375 
" clip-path="url(#pc07381e929)" style="fill: none; stroke: #cccccc; stroke-opacity: 0.3; stroke-linecap: round"/>
     </g>
     <g id="line2d_8">
      <g>
       <use xlink:href="#m6c3a9a32f2" x="323.645154" y="387.009375" style="fill: #262626; stroke: #262626; stroke-width: 1.25"/>
      </g>
     </g>
     <g id="text_4">
      <!-- 30 -->
      <g style="fill: #262626" transform="translate(317.528123 404.382969) scale(0.11 -0.11)">
       <defs>
        <path id="ArialMT-33" d="M 269 1209 
L 831 1284 
Q 928 806 1161 595 
Q 1394 384 1728 384 
Q 2125 384 2398 659 
Q 2672 934 2672 1341 
Q 2672 1728 2419 1979 
Q 2166 2231 1775 2231 
Q 1616 2231 1378 2169 
L 1441 2663 
Q 1497 2656 1531 2656 
Q 1891 2656 2178 2843 
Q 2466 3031 2466 3422 
Q 2466 3731 2256 3934 
Q 2047 4138 1716 4138 
Q 1388 4138 1169 3931 
Q 950 3725 888 3313 
L 325 3413 
Q 428 3978 793 4289 
Q 1159 4600 1703 4600 
Q 2078 4600 2393 4439 
Q 2709 4278 2876 4000 
Q 3044 3722 3044 3409 
Q 3044 3113 2884 2869 
Q 2725 2625 2413 2481 
Q 2819 2388 3044 2092 
Q 3269 1797 3269 1353 
Q 3269 753 2831 336 
Q 2394 -81 1725 -81 
Q 1122 -81 723 278 
Q 325 638 269 1209 
z
" transform="scale(0.015625)"/>
       </defs>
       <use xlink:href="#ArialMT-33"/>
       <use xlink:href="#ArialMT-30" x="55.615234"/>
      </g>
     </g>
    </g>
    <g id="xtick_5">
     <g id="line2d_9">
      <path d="M 407.99905 387.009375 
L 407.99905 21.789375 
" clip-path="url(#pc07381e929)" style="fill: none; stroke: #cccccc; stroke-opacity: 0.3; stroke-linecap: round"/>
     </g>
     <g id="line2d_10">
      <g>
       <use xlink:href="#m6c3a9a32f2" x="407.99905" y="387.009375" style="fill: #262626; stroke: #262626; stroke-width: 1.25"/>
      </g>
     </g>
     <g id="text_5">
      <!-- 40 -->
      <g style="fill: #262626" transform="translate(401.882019 404.382969) scale(0.11 -0.11)">
       <defs>
        <path id="ArialMT-34" d="M 2069 0 
L 2069 1097 
L 81 1097 
L 81 1613 
L 2172 4581 
L 2631 4581 
L 2631 1613 
L 3250 1613 
L 3250 1097 
L 2631 1097 
L 2631 0 
L 2069 0 
z
M 2069 1613 
L 2069 3678 
L 634 1613 
L 2069 1613 
z
" transform="scale(0.015625)"/>
       </defs>
       <use xlink:href="#ArialMT-34"/>
       <use xlink:href="#ArialMT-30" x="55.615234"/>
      </g>
     </g>
    </g>
    <g id="xtick_6">
     <g id="line2d_11">
      <path d="M 492.352946 387.009375 
L 492.352946 21.789375 
" clip-path="url(#pc07381e929)" style="fill: none; stroke: #cccccc; stroke-opacity: 0.3; stroke-linecap: round"/>
     </g>
     <g id="line2d_12">
      <g>
       <use xlink:href="#m6c3a9a32f2" x="492.352946" y="387.009375" style="fill: #262626; stroke: #262626; stroke-width: 1.25"/>
      </g>
     </g>
     <g id="text_6">
      <!-- 50 -->
      <g style="fill: #262626" transform="translate(486.235915 404.382969) scale(0.11 -0.11)">
       <defs>
        <path id="ArialMT-35" d="M 266 1200 
L 856 1250 
Q 922 819 1161 601 
Q 1400 384 1738 384 
Q 2144 384 2425 690 
Q 2706 997 2706 1503 
Q 2706 1984 2436 2262 
Q 2166 2541 1728 2541 
Q 1456 2541 1237 2417 
Q 1019 2294 894 2097 
L 366 2166 
L 809 4519 
L 3088 4519 
L 3088 3981 
L 1259 3981 
L 1013 2750 
Q 1425 3038 1878 3038 
Q 2478 3038 2890 2622 
Q 3303 2206 3303 1553 
Q 3303 931 2941 478 
Q 2500 -78 1738 -78 
Q 1113 -78 717 272 
Q 322 622 266 1200 
z
" transform="scale(0.015625)"/>
       </defs>
       <use xlink:href="#ArialMT-35"/>
       <use xlink:href="#ArialMT-30" x="55.615234"/>
      </g>
     </g>
    </g>
    <g id="text_7">
     <!-- Degree threshold (k) -->
     <g style="fill: #262626" transform="translate(252.087188 419.304844) scale(0.12 -0.12)">
      <defs>
       <path id="ArialMT-44" d="M 494 0 
L 494 4581 
L 2072 4581 
Q 2606 4581 2888 4516 
Q 3281 4425 3559 4188 
Q 3922 3881 4101 3404 
Q 4281 2928 4281 2316 
Q 4281 1794 4159 1391 
Q 4038 988 3847 723 
Q 3656 459 3429 307 
Q 3203 156 2883 78 
Q 2563 0 2147 0 
L 494 0 
z
M 1100 541 
L 2078 541 
Q 2531 541 2789 625 
Q 3047 709 3200 863 
Q 3416 1078 3536 1442 
Q 3656 1806 3656 2325 
Q 3656 3044 3420 3430 
Q 3184 3816 2847 3947 
Q 2603 4041 2063 4041 
L 1100 4041 
L 1100 541 
z
" transform="scale(0.015625)"/>
       <path id="ArialMT-65" d="M 2694 1069 
L 3275 997 
Q 3138 488 2766 206 
Q 2394 -75 1816 -75 
Q 1088 -75 661 373 
Q 234 822 234 1631 
Q 234 2469 665 2931 
Q 1097 3394 1784 3394 
Q 2450 3394 2872 2941 
Q 3294 2488 3294 1666 
Q 3294 1616 3291 1516 
L 816 1516 
Q 847 969 1125 678 
Q 1403 388 1819 388 
Q 2128 388 2347 550 
Q 2566 713 2694 1069 
z
M 847 1978 
L 2700 1978 
Q 2663 2397 2488 2606 
Q 2219 2931 1791 2931 
Q 1403 2931 1139 2672 
Q 875 2413 847 1978 
z
" transform="scale(0.015625)"/>
       <path id="ArialMT-67" d="M 319 -275 
L 866 -356 
Q 900 -609 1056 -725 
Q 1266 -881 1628 -881 
Q 2019 -881 2231 -725 
Q 2444 -569 2519 -288 
Q 2563 -116 2559 434 
Q 2191 0 1641 0 
Q 956 0 581 494 
Q 206 988 206 1678 
Q 206 2153 378 2554 
Q 550 2956 876 3175 
Q 1203 3394 1644 3394 
Q 2231 3394 2613 2919 
L 2613 3319 
L 3131 3319 
L 3131 450 
Q 3131 -325 2973 -648 
Q 2816 -972 2473 -1159 
Q 2131 -1347 1631 -1347 
Q 1038 -1347 672 -1080 
Q 306 -813 319 -275 
z
M 784 1719 
Q 784 1066 1043 766 
Q 1303 466 1694 466 
Q 2081 466 2343 764 
Q 2606 1063 2606 1700 
Q 2606 2309 2336 2618 
Q 2066 2928 1684 2928 
Q 1309 2928 1046 2623 
Q 784 2319 784 1719 
z
" transform="scale(0.015625)"/>
       <path id="ArialMT-72" d="M 416 0 
L 416 3319 
L 922 3319 
L 922 2816 
Q 1116 3169 1280 3281 
Q 1444 3394 1641 3394 
Q 1925 3394 2219 3213 
L 2025 2691 
Q 1819 2813 1613 2813 
Q 1428 2813 1281 2702 
Q 1134 2591 1072 2394 
Q 978 2094 978 1738 
L 978 0 
L 416 0 
z
" transform="scale(0.015625)"/>
       <path id="ArialMT-20" transform="scale(0.015625)"/>
       <path id="ArialMT-74" d="M 1650 503 
L 1731 6 
Q 1494 -44 1306 -44 
Q 1000 -44 831 53 
Q 663 150 594 308 
Q 525 466 525 972 
L 525 2881 
L 113 2881 
L 113 3319 
L 525 3319 
L 525 4141 
L 1084 4478 
L 1084 3319 
L 1650 3319 
L 1650 2881 
L 1084 2881 
L 1084 941 
Q 1084 700 1114 631 
Q 1144 563 1211 522 
Q 1278 481 1403 481 
Q 1497 481 1650 503 
z
" transform="scale(0.015625)"/>
       <path id="ArialMT-68" d="M 422 0 
L 422 4581 
L 984 4581 
L 984 2938 
Q 1378 3394 1978 3394 
Q 2347 3394 2619 3248 
Q 2891 3103 3008 2847 
Q 3125 2591 3125 2103 
L 3125 0 
L 2563 0 
L 2563 2103 
Q 2563 2525 2380 2717 
Q 2197 2909 1863 2909 
Q 1613 2909 1392 2779 
Q 1172 2650 1078 2428 
Q 984 2206 984 1816 
L 984 0 
L 422 0 
z
" transform="scale(0.015625)"/>
       <path id="ArialMT-73" d="M 197 991 
L 753 1078 
Q 800 744 1014 566 
Q 1228 388 1613 388 
Q 2000 388 2187 545 
Q 2375 703 2375 916 
Q 2375 1106 2209 1216 
Q 2094 1291 1634 1406 
Q 1016 1563 777 1677 
Q 538 1791 414 1992 
Q 291 2194 291 2438 
Q 291 2659 392 2848 
Q 494 3038 669 3163 
Q 800 3259 1026 3326 
Q 1253 3394 1513 3394 
Q 1903 3394 2198 3281 
Q 2494 3169 2634 2976 
Q 2775 2784 2828 2463 
L 2278 2388 
Q 2241 2644 2061 2787 
Q 1881 2931 1553 2931 
Q 1166 2931 1000 2803 
Q 834 2675 834 2503 
Q 834 2394 903 2306 
Q 972 2216 1119 2156 
Q 1203 2125 1616 2013 
Q 2213 1853 2448 1751 
Q 2684 1650 2818 1456 
Q 2953 1263 2953 975 
Q 2953 694 2789 445 
Q 2625 197 2315 61 
Q 2006 -75 1616 -75 
Q 969 -75 630 194 
Q 291 463 197 991 
z
" transform="scale(0.015625)"/>
       <path id="ArialMT-6f" d="M 213 1659 
Q 213 2581 725 3025 
Q 1153 3394 1769 3394 
Q 2453 3394 2887 2945 
Q 3322 2497 3322 1706 
Q 3322 1066 3130 698 
Q 2938 331 2570 128 
Q 2203 -75 1769 -75 
Q 1072 -75 642 372 
Q 213 819 213 1659 
z
M 791 1659 
Q 791 1022 1069 705 
Q 1347 388 1769 388 
Q 2188 388 2466 706 
Q 2744 1025 2744 1678 
Q 2744 2294 2464 2611 
Q 2184 2928 1769 2928 
Q 1347 2928 1069 2612 
Q 791 2297 791 1659 
z
" transform="scale(0.015625)"/>
       <path id="ArialMT-6c" d="M 409 0 
L 409 4581 
L 972 4581 
L 972 0 
L 409 0 
z
" transform="scale(0.015625)"/>
       <path id="ArialMT-64" d="M 2575 0 
L 2575 419 
Q 2259 -75 1647 -75 
Q 1250 -75 917 144 
Q 584 363 401 755 
Q 219 1147 219 1656 
Q 219 2153 384 2558 
Q 550 2963 881 3178 
Q 1213 3394 1622 3394 
Q 1922 3394 2156 3267 
Q 2391 3141 2538 2938 
L 2538 4581 
L 3097 4581 
L 3097 0 
L 2575 0 
z
M 797 1656 
Q 797 1019 1065 703 
Q 1334 388 1700 388 
Q 2069 388 2326 689 
Q 2584 991 2584 1609 
Q 2584 2291 2321 2609 
Q 2059 2928 1675 2928 
Q 1300 2928 1048 2622 
Q 797 2316 797 1656 
z
" transform="scale(0.015625)"/>
       <path id="ArialMT-28" d="M 1497 -1347 
Q 1031 -759 709 28 
Q 388 816 388 1659 
Q 388 2403 628 3084 
Q 909 3875 1497 4659 
L 1900 4659 
Q 1522 4009 1400 3731 
Q 1209 3300 1100 2831 
Q 966 2247 966 1656 
Q 966 153 1900 -1347 
L 1497 -1347 
z
" transform="scale(0.015625)"/>
       <path id="ArialMT-6b" d="M 425 0 
L 425 4581 
L 988 4581 
L 988 1969 
L 2319 3319 
L 3047 3319 
L 1778 2088 
L 3175 0 
L 2481 0 
L 1384 1697 
L 988 1316 
L 988 0 
L 425 0 
z
" transform="scale(0.015625)"/>
       <path id="ArialMT-29" d="M 791 -1347 
L 388 -1347 
Q 1322 153 1322 1656 
Q 1322 2244 1188 2822 
Q 1081 3291 891 3722 
Q 769 4003 388 4659 
L 791 4659 
Q 1378 3875 1659 3084 
Q 1900 2403 1900 1659 
Q 1900 816 1576 28 
Q 1253 -759 791 -1347 
z
" transform="scale(0.015625)"/>
      </defs>
      <use xlink:href="#ArialMT-44"/>
      <use xlink:href="#ArialMT-65" x="72.216797"/>
      <use xlink:href="#ArialMT-67" x="127.832031"/>
      <use xlink:href="#ArialMT-72" x="183.447266"/>
      <use xlink:href="#ArialMT-65" x="216.748047"/>
      <use xlink:href="#ArialMT-65" x="272.363281"/>
      <use xlink:href="#ArialMT-20" x="327.978516"/>
      <use xlink:href="#ArialMT-74" x="355.761719"/>
      <use xlink:href="#ArialMT-68" x="383.544922"/>
      <use xlink:href="#ArialMT-72" x="439.160156"/>
      <use xlink:href="#ArialMT-65" x="472.460938"/>
      <use xlink:href="#ArialMT-73" x="528.076172"/>
      <use xlink:href="#ArialMT-68" x="578.076172"/>
      <use xlink:href="#ArialMT-6f" x="633.691406"/>
      <use xlink:href="#ArialMT-6c" x="689.306641"/>
      <use xlink:href="#ArialMT-64" x="711.523438"/>
      <use xlink:href="#ArialMT-20" x="767.138672"/>
      <use xlink:href="#ArialMT-28" x="794.921875"/>
      <use xlink:href="#ArialMT-6b" x="828.222656"/>
      <use xlink:href="#ArialMT-29" x="878.222656"/>
     </g>
    </g>
   </g>
   <g id="matplotlib.axis_2">
    <g id="ytick_1">
     <g id="line2d_13">
      <path d="M 46.964375 370.408466 
L 566.584375 370.408466 
" clip-path="url(#pc07381e929)" style="fill: none; stroke: #cccccc; stroke-opacity: 0.3; stroke-linecap: round"/>
     </g>
     <g id="line2d_14">
      <defs>
       <path id="m0b9f4c72b1" d="M 0 0 
L -6 0 
" style="stroke: #262626; stroke-width: 1.25"/>
      </defs>
      <g>
       <use xlink:href="#m0b9f4c72b1" x="46.964375" y="370.408466" style="fill: #262626; stroke: #262626; stroke-width: 1.25"/>
      </g>
     </g>
     <g id="text_8">
      <!-- 0.0 -->
      <g style="fill: #262626" transform="translate(22.174375 374.345263) scale(0.11 -0.11)">
       <defs>
        <path id="ArialMT-2e" d="M 581 0 
L 581 641 
L 1222 641 
L 1222 0 
L 581 0 
z
" transform="scale(0.015625)"/>
       </defs>
       <use xlink:href="#ArialMT-30"/>
       <use xlink:href="#ArialMT-2e" x="55.615234"/>
       <use xlink:href="#ArialMT-30" x="83.398438"/>
      </g>
     </g>
    </g>
    <g id="ytick_2">
     <g id="line2d_15">
      <path d="M 46.964375 311.890261 
L 566.584375 311.890261 
" clip-path="url(#pc07381e929)" style="fill: none; stroke: #cccccc; stroke-opacity: 0.3; stroke-linecap: round"/>
     </g>
     <g id="line2d_16">
      <g>
       <use xlink:href="#m0b9f4c72b1" x="46.964375" y="311.890261" style="fill: #262626; stroke: #262626; stroke-width: 1.25"/>
      </g>
     </g>
     <g id="text_9">
      <!-- 0.5 -->
      <g style="fill: #262626" transform="translate(22.174375 315.827058) scale(0.11 -0.11)">
       <use xlink:href="#ArialMT-30"/>
       <use xlink:href="#ArialMT-2e" x="55.615234"/>
       <use xlink:href="#ArialMT-35" x="83.398438"/>
      </g>
     </g>
    </g>
    <g id="ytick_3">
     <g id="line2d_17">
      <path d="M 46.964375 253.372057 
L 566.584375 253.372057 
" clip-path="url(#pc07381e929)" style="fill: none; stroke: #cccccc; stroke-opacity: 0.3; stroke-linecap: round"/>
     </g>
     <g id="line2d_18">
      <g>
       <use xlink:href="#m0b9f4c72b1" x="46.964375" y="253.372057" style="fill: #262626; stroke: #262626; stroke-width: 1.25"/>
      </g>
     </g>
     <g id="text_10">
      <!-- 1.0 -->
      <g style="fill: #262626" transform="translate(22.174375 257.308854) scale(0.11 -0.11)">
       <use xlink:href="#ArialMT-31"/>
       <use xlink:href="#ArialMT-2e" x="55.615234"/>
       <use xlink:href="#ArialMT-30" x="83.398438"/>
      </g>
     </g>
    </g>
    <g id="ytick_4">
     <g id="line2d_19">
      <path d="M 46.964375 194.853852 
L 566.584375 194.853852 
" clip-path="url(#pc07381e929)" style="fill: none; stroke: #cccccc; stroke-opacity: 0.3; stroke-linecap: round"/>
     </g>
     <g id="line2d_20">
      <g>
       <use xlink:href="#m0b9f4c72b1" x="46.964375" y="194.853852" style="fill: #262626; stroke: #262626; stroke-width: 1.25"/>
      </g>
     </g>
     <g id="text_11">
      <!-- 1.5 -->
      <g style="fill: #262626" transform="translate(22.174375 198.790649) scale(0.11 -0.11)">
       <use xlink:href="#ArialMT-31"/>
       <use xlink:href="#ArialMT-2e" x="55.615234"/>
       <use xlink:href="#ArialMT-35" x="83.398438"/>
      </g>
     </g>
    </g>
    <g id="ytick_5">
     <g id="line2d_21">
      <path d="M 46.964375 136.335648 
L 566.584375 136.335648 
" clip-path="url(#pc07381e929)" style="fill: none; stroke: #cccccc; stroke-opacity: 0.3; stroke-linecap: round"/>
     </g>
     <g id="line2d_22">
      <g>
       <use xlink:href="#m0b9f4c72b1" x="46.964375" y="136.335648" style="fill: #262626; stroke: #262626; stroke-width: 1.25"/>
      </g>
     </g>
     <g id="text_12">
      <!-- 2.0 -->
      <g style="fill: #262626" transform="translate(22.174375 140.272445) scale(0.11 -0.11)">
       <use xlink:href="#ArialMT-32"/>
       <use xlink:href="#ArialMT-2e" x="55.615234"/>
       <use xlink:href="#ArialMT-30" x="83.398438"/>
      </g>
     </g>
    </g>
    <g id="ytick_6">
     <g id="line2d_23">
      <path d="M 46.964375 77.817443 
L 566.584375 77.817443 
" clip-path="url(#pc07381e929)" style="fill: none; stroke: #cccccc; stroke-opacity: 0.3; stroke-linecap: round"/>
     </g>
     <g id="line2d_24">
      <g>
       <use xlink:href="#m0b9f4c72b1" x="46.964375" y="77.817443" style="fill: #262626; stroke: #262626; stroke-width: 1.25"/>
      </g>
     </g>
     <g id="text_13">
      <!-- 2.5 -->
      <g style="fill: #262626" transform="translate(22.174375 81.75424) scale(0.11 -0.11)">
       <use xlink:href="#ArialMT-32"/>
       <use xlink:href="#ArialMT-2e" x="55.615234"/>
       <use xlink:href="#ArialMT-35" x="83.398438"/>
      </g>
     </g>
    </g>
    <g id="text_14">
     <!-- Normalized rich club coefficient -->
     <g style="fill: #262626" transform="translate(15.789375 287.323125) rotate(-90) scale(0.12 -0.12)">
      <defs>
       <path id="ArialMT-4e" d="M 488 0 
L 488 4581 
L 1109 4581 
L 3516 984 
L 3516 4581 
L 4097 4581 
L 4097 0 
L 3475 0 
L 1069 3600 
L 1069 0 
L 488 0 
z
" transform="scale(0.015625)"/>
       <path id="ArialMT-6d" d="M 422 0 
L 422 3319 
L 925 3319 
L 925 2853 
Q 1081 3097 1340 3245 
Q 1600 3394 1931 3394 
Q 2300 3394 2536 3241 
Q 2772 3088 2869 2813 
Q 3263 3394 3894 3394 
Q 4388 3394 4653 3120 
Q 4919 2847 4919 2278 
L 4919 0 
L 4359 0 
L 4359 2091 
Q 4359 2428 4304 2576 
Q 4250 2725 4106 2815 
Q 3963 2906 3769 2906 
Q 3419 2906 3187 2673 
Q 2956 2441 2956 1928 
L 2956 0 
L 2394 0 
L 2394 2156 
Q 2394 2531 2256 2718 
Q 2119 2906 1806 2906 
Q 1569 2906 1367 2781 
Q 1166 2656 1075 2415 
Q 984 2175 984 1722 
L 984 0 
L 422 0 
z
" transform="scale(0.015625)"/>
       <path id="ArialMT-61" d="M 2588 409 
Q 2275 144 1986 34 
Q 1697 -75 1366 -75 
Q 819 -75 525 192 
Q 231 459 231 875 
Q 231 1119 342 1320 
Q 453 1522 633 1644 
Q 813 1766 1038 1828 
Q 1203 1872 1538 1913 
Q 2219 1994 2541 2106 
Q 2544 2222 2544 2253 
Q 2544 2597 2384 2738 
Q 2169 2928 1744 2928 
Q 1347 2928 1158 2789 
Q 969 2650 878 2297 
L 328 2372 
Q 403 2725 575 2942 
Q 747 3159 1072 3276 
Q 1397 3394 1825 3394 
Q 2250 3394 2515 3294 
Q 2781 3194 2906 3042 
Q 3031 2891 3081 2659 
Q 3109 2516 3109 2141 
L 3109 1391 
Q 3109 606 3145 398 
Q 3181 191 3288 0 
L 2700 0 
Q 2613 175 2588 409 
z
M 2541 1666 
Q 2234 1541 1622 1453 
Q 1275 1403 1131 1340 
Q 988 1278 909 1158 
Q 831 1038 831 891 
Q 831 666 1001 516 
Q 1172 366 1500 366 
Q 1825 366 2078 508 
Q 2331 650 2450 897 
Q 2541 1088 2541 1459 
L 2541 1666 
z
" transform="scale(0.015625)"/>
       <path id="ArialMT-69" d="M 425 3934 
L 425 4581 
L 988 4581 
L 988 3934 
L 425 3934 
z
M 425 0 
L 425 3319 
L 988 3319 
L 988 0 
L 425 0 
z
" transform="scale(0.015625)"/>
       <path id="ArialMT-7a" d="M 125 0 
L 125 456 
L 2238 2881 
Q 1878 2863 1603 2863 
L 250 2863 
L 250 3319 
L 2963 3319 
L 2963 2947 
L 1166 841 
L 819 456 
Q 1197 484 1528 484 
L 3063 484 
L 3063 0 
L 125 0 
z
" transform="scale(0.015625)"/>
       <path id="ArialMT-63" d="M 2588 1216 
L 3141 1144 
Q 3050 572 2676 248 
Q 2303 -75 1759 -75 
Q 1078 -75 664 370 
Q 250 816 250 1647 
Q 250 2184 428 2587 
Q 606 2991 970 3192 
Q 1334 3394 1763 3394 
Q 2303 3394 2647 3120 
Q 2991 2847 3088 2344 
L 2541 2259 
Q 2463 2594 2264 2762 
Q 2066 2931 1784 2931 
Q 1359 2931 1093 2626 
Q 828 2322 828 1663 
Q 828 994 1084 691 
Q 1341 388 1753 388 
Q 2084 388 2306 591 
Q 2528 794 2588 1216 
z
" transform="scale(0.015625)"/>
       <path id="ArialMT-75" d="M 2597 0 
L 2597 488 
Q 2209 -75 1544 -75 
Q 1250 -75 995 37 
Q 741 150 617 320 
Q 494 491 444 738 
Q 409 903 409 1263 
L 409 3319 
L 972 3319 
L 972 1478 
Q 972 1038 1006 884 
Q 1059 663 1231 536 
Q 1403 409 1656 409 
Q 1909 409 2131 539 
Q 2353 669 2445 892 
Q 2538 1116 2538 1541 
L 2538 3319 
L 3100 3319 
L 3100 0 
L 2597 0 
z
" transform="scale(0.015625)"/>
       <path id="ArialMT-62" d="M 941 0 
L 419 0 
L 419 4581 
L 981 4581 
L 981 2947 
Q 1338 3394 1891 3394 
Q 2197 3394 2470 3270 
Q 2744 3147 2920 2923 
Q 3097 2700 3197 2384 
Q 3297 2069 3297 1709 
Q 3297 856 2875 390 
Q 2453 -75 1863 -75 
Q 1275 -75 941 416 
L 941 0 
z
M 934 1684 
Q 934 1088 1097 822 
Q 1363 388 1816 388 
Q 2184 388 2453 708 
Q 2722 1028 2722 1663 
Q 2722 2313 2464 2622 
Q 2206 2931 1841 2931 
Q 1472 2931 1203 2611 
Q 934 2291 934 1684 
z
" transform="scale(0.015625)"/>
       <path id="ArialMT-66" d="M 556 0 
L 556 2881 
L 59 2881 
L 59 3319 
L 556 3319 
L 556 3672 
Q 556 4006 616 4169 
Q 697 4388 901 4523 
Q 1106 4659 1475 4659 
Q 1713 4659 2000 4603 
L 1916 4113 
Q 1741 4144 1584 4144 
Q 1328 4144 1222 4034 
Q 1116 3925 1116 3625 
L 1116 3319 
L 1763 3319 
L 1763 2881 
L 1116 2881 
L 1116 0 
L 556 0 
z
" transform="scale(0.015625)"/>
       <path id="ArialMT-6e" d="M 422 0 
L 422 3319 
L 928 3319 
L 928 2847 
Q 1294 3394 1984 3394 
Q 2284 3394 2536 3286 
Q 2788 3178 2913 3003 
Q 3038 2828 3088 2588 
Q 3119 2431 3119 2041 
L 3119 0 
L 2556 0 
L 2556 2019 
Q 2556 2363 2490 2533 
Q 2425 2703 2258 2804 
Q 2091 2906 1866 2906 
Q 1506 2906 1245 2678 
Q 984 2450 984 1813 
L 984 0 
L 422 0 
z
" transform="scale(0.015625)"/>
      </defs>
      <use xlink:href="#ArialMT-4e"/>
      <use xlink:href="#ArialMT-6f" x="72.216797"/>
      <use xlink:href="#ArialMT-72" x="127.832031"/>
      <use xlink:href="#ArialMT-6d" x="161.132812"/>
      <use xlink:href="#ArialMT-61" x="244.433594"/>
      <use xlink:href="#ArialMT-6c" x="300.048828"/>
      <use xlink:href="#ArialMT-69" x="322.265625"/>
      <use xlink:href="#ArialMT-7a" x="344.482422"/>
      <use xlink:href="#ArialMT-65" x="394.482422"/>
      <use xlink:href="#ArialMT-64" x="450.097656"/>
      <use xlink:href="#ArialMT-20" x="505.712891"/>
      <use xlink:href="#ArialMT-72" x="533.496094"/>
      <use xlink:href="#ArialMT-69" x="566.796875"/>
      <use xlink:href="#ArialMT-63" x="589.013672"/>
      <use xlink:href="#ArialMT-68" x="639.013672"/>
      <use xlink:href="#ArialMT-20" x="694.628906"/>
      <use xlink:href="#ArialMT-63" x="722.412109"/>
      <use xlink:href="#ArialMT-6c" x="772.412109"/>
      <use xlink:href="#ArialMT-75" x="794.628906"/>
      <use xlink:href="#ArialMT-62" x="850.244141"/>
      <use xlink:href="#ArialMT-20" x="905.859375"/>
      <use xlink:href="#ArialMT-63" x="933.642578"/>
      <use xlink:href="#ArialMT-6f" x="983.642578"/>
      <use xlink:href="#ArialMT-65" x="1039.257812"/>
      <use xlink:href="#ArialMT-66" x="1094.873047"/>
      <use xlink:href="#ArialMT-66" x="1120.90625"/>
      <use xlink:href="#ArialMT-69" x="1148.689453"/>
      <use xlink:href="#ArialMT-63" x="1170.90625"/>
      <use xlink:href="#ArialMT-69" x="1220.90625"/>
      <use xlink:href="#ArialMT-65" x="1243.123047"/>
      <use xlink:href="#ArialMT-6e" x="1298.738281"/>
      <use xlink:href="#ArialMT-74" x="1354.353516"/>
     </g>
    </g>
   </g>
   <g id="line2d_25">
    <path d="M 70.583466 253.372057 
L 79.018856 253.372057 
L 87.454245 253.372057 
L 95.889635 253.375499 
L 104.325024 253.536408 
L 112.760414 253.663918 
L 121.195804 253.806299 
L 129.631193 252.649999 
L 138.066583 249.696127 
L 146.501972 253.597335 
L 154.937362 251.76758 
L 163.372752 248.410819 
L 171.808141 248.426232 
L 180.243531 231.112573 
L 188.67892 221.290362 
L 197.11431 220.139496 
L 205.5497 236.046425 
L 213.985089 236.046425 
L 222.420479 250.983559 
L 230.855869 250.983559 
L 239.291258 250.983559 
L 247.726648 370.408466 
" clip-path="url(#pc07381e929)" style="fill: none; stroke: #4c72b0; stroke-width: 1.5; stroke-linecap: round"/>
   </g>
   <g id="line2d_26">
    <path d="M 70.583466 253.372057 
L 79.018856 253.372057 
L 87.454245 253.372057 
L 95.889635 253.380578 
L 104.325024 253.392133 
L 112.760414 253.470249 
L 121.195804 251.979148 
L 129.631193 251.793796 
L 138.066583 251.640017 
L 146.501972 250.624598 
L 154.937362 251.883144 
L 163.372752 249.758688 
L 171.808141 249.31855 
L 180.243531 245.462429 
L 188.67892 245.123068 
L 197.11431 244.185856 
L 205.5497 241.608309 
L 213.985089 232.263507 
L 222.420479 241.985193 
L 230.855869 241.985193 
L 239.291258 240.005782 
L 247.726648 226.056159 
L 256.162037 244.019255 
L 264.597427 272.470048 
" clip-path="url(#pc07381e929)" style="fill: none; stroke: #dd8452; stroke-width: 1.5; stroke-linecap: round"/>
   </g>
   <g id="line2d_27">
    <path d="M 70.583466 253.372057 
L 79.018856 253.372057 
L 87.454245 253.377526 
L 95.889635 253.380318 
L 104.325024 253.383176 
L 112.760414 253.467108 
L 121.195804 253.678923 
L 129.631193 253.907835 
L 138.066583 253.869927 
L 146.501972 253.167567 
L 154.937362 251.957072 
L 163.372752 249.498113 
L 171.808141 250.075993 
L 180.243531 250.820854 
L 188.67892 248.954329 
L 197.11431 242.670072 
L 205.5497 241.047483 
L 213.985089 235.39006 
L 222.420479 224.513277 
L 230.855869 215.642664 
L 239.291258 214.35992 
L 247.726648 224.315861 
L 256.162037 182.9002 
L 264.597427 182.9002 
L 273.032817 223.500839 
L 281.468206 370.408466 
" clip-path="url(#pc07381e929)" style="fill: none; stroke: #55a868; stroke-width: 1.5; stroke-linecap: round"/>
   </g>
   <g id="line2d_28">
    <path d="M 70.583466 253.372057 
L 79.018856 253.372057 
L 87.454245 253.372057 
L 95.889635 253.374681 
L 104.325024 253.382647 
L 112.760414 253.185815 
L 121.195804 252.749492 
L 129.631193 252.365743 
L 138.066583 251.542865 
L 146.501972 251.59341 
L 154.937362 253.019891 
L 163.372752 252.722387 
L 171.808141 248.239469 
L 180.243531 245.392524 
L 188.67892 239.348657 
L 197.11431 242.332462 
L 205.5497 240.145339 
L 213.985089 245.858205 
L 222.420479 241.565868 
L 230.855869 246.95869 
L 239.291258 249.53876 
L 247.726648 253.219201 
L 256.162037 228.596709 
L 264.597427 240.078389 
L 273.032817 240.078389 
L 281.468206 273.282815 
L 289.903596 273.282815 
" clip-path="url(#pc07381e929)" style="fill: none; stroke: #c44e52; stroke-width: 1.5; stroke-linecap: round"/>
   </g>
   <g id="line2d_29">
    <path d="M 70.583466 253.372057 
L 79.018856 253.372057 
L 87.454245 253.372057 
L 95.889635 253.374037 
L 104.325024 253.374037 
L 112.760414 253.392197 
L 121.195804 253.207243 
L 129.631193 253.207243 
L 138.066583 253.277934 
L 146.501972 252.908858 
L 154.937362 252.977633 
L 163.372752 252.135902 
L 171.808141 252.479126 
L 180.243531 252.496386 
L 188.67892 254.013127 
L 197.11431 251.814914 
L 205.5497 252.265918 
L 213.985089 250.52482 
L 222.420479 249.909726 
L 230.855869 250.456296 
L 239.291258 247.879761 
L 247.726648 242.89072 
L 256.162037 242.322508 
L 264.597427 240.661225 
L 273.032817 235.532848 
L 281.468206 234.121527 
L 289.903596 238.729338 
L 298.338985 253.715272 
L 306.774375 277.627621 
L 315.209765 277.627621 
L 323.645154 38.390284 
" clip-path="url(#pc07381e929)" style="fill: none; stroke: #8172b3; stroke-width: 1.5; stroke-linecap: round"/>
   </g>
   <g id="line2d_30">
    <path d="M 70.583466 253.372057 
L 79.018856 253.372057 
L 87.454245 253.372057 
L 95.889635 253.181563 
L 104.325024 253.181563 
L 112.760414 253.181563 
L 121.195804 253.192383 
L 129.631193 253.255782 
L 138.066583 253.171014 
L 146.501972 253.248005 
L 154.937362 253.106702 
L 163.372752 252.35723 
L 171.808141 252.39346 
L 180.243531 249.921276 
L 188.67892 249.911883 
L 197.11431 252.103745 
L 205.5497 249.625438 
L 213.985089 251.561717 
L 222.420479 251.317148 
L 230.855869 250.065944 
L 239.291258 243.137337 
L 247.726648 227.80247 
L 256.162037 225.725969 
L 264.597427 237.14212 
L 273.032817 240.891313 
L 281.468206 255.591845 
L 289.903596 254.816951 
L 298.338985 236.65257 
L 306.774375 197.660999 
L 315.209765 147.481972 
" clip-path="url(#pc07381e929)" style="fill: none; stroke: #937860; stroke-width: 1.5; stroke-linecap: round"/>
   </g>
   <g id="line2d_31">
    <path d="M 70.583466 253.372057 
L 79.018856 253.372057 
L 87.454245 253.372057 
L 95.889635 253.372057 
L 104.325024 253.385132 
L 112.760414 253.385132 
L 121.195804 253.42108 
L 129.631193 253.455595 
L 138.066583 253.348785 
L 146.501972 253.294945 
L 154.937362 253.004671 
L 163.372752 251.703257 
L 171.808141 252.019542 
L 180.243531 253.132085 
L 188.67892 250.509349 
L 197.11431 251.792356 
L 205.5497 251.272691 
L 213.985089 250.497073 
L 222.420479 250.186617 
L 230.855869 246.866383 
L 239.291258 231.315959 
L 247.726648 222.235419 
L 256.162037 228.176719 
L 264.597427 200.320951 
L 273.032817 200.320951 
L 281.468206 207.631819 
L 289.903596 207.631819 
L 298.338985 205.236114 
L 306.774375 230.524312 
L 315.209765 230.524312 
L 323.645154 252.189871 
" clip-path="url(#pc07381e929)" style="fill: none; stroke: #da8bc3; stroke-width: 1.5; stroke-linecap: round"/>
   </g>
   <g id="line2d_32">
    <path d="M 70.583466 253.372057 
L 79.018856 253.372057 
L 87.454245 253.372057 
L 95.889635 253.372057 
L 104.325024 253.372057 
L 112.760414 253.372057 
L 121.195804 253.372057 
L 129.631193 253.4033 
L 138.066583 253.4033 
L 146.501972 253.1513 
L 154.937362 253.031599 
L 163.372752 253.144879 
L 171.808141 252.494722 
L 180.243531 252.459622 
L 188.67892 252.150834 
L 197.11431 251.916582 
L 205.5497 251.757023 
L 213.985089 251.858466 
L 222.420479 252.536935 
L 230.855869 253.582554 
L 239.291258 253.07805 
L 247.726648 253.759781 
L 256.162037 253.538389 
L 264.597427 253.392676 
L 273.032817 249.569173 
L 281.468206 249.569173 
L 289.903596 244.804041 
L 298.338985 236.799393 
L 306.774375 239.585309 
L 315.209765 240.871765 
L 323.645154 235.130695 
L 332.080544 244.876772 
L 340.515933 251.790484 
L 348.951323 257.511608 
L 357.386713 260.293565 
L 365.822102 241.797027 
L 374.257492 241.797027 
L 382.692881 241.797027 
L 391.128271 254.530833 
L 399.563661 254.530833 
L 407.99905 254.530833 
L 416.43444 254.530833 
L 424.86983 254.530833 
L 433.305219 254.530833 
L 441.740609 254.530833 
L 450.175998 254.530833 
L 458.611388 254.530833 
" clip-path="url(#pc07381e929)" style="fill: none; stroke: #8c8c8c; stroke-width: 1.5; stroke-linecap: round"/>
   </g>
   <g id="line2d_33">
    <path d="M 70.583466 253.372057 
L 79.018856 253.372057 
L 87.454245 253.372057 
L 95.889635 253.372057 
L 104.325024 253.372057 
L 112.760414 253.372057 
L 121.195804 253.372057 
L 129.631193 253.372057 
L 138.066583 253.372057 
L 146.501972 253.372057 
L 154.937362 253.379911 
L 163.372752 253.14865 
L 171.808141 252.981022 
L 180.243531 252.981022 
L 188.67892 252.981022 
L 197.11431 252.75001 
L 205.5497 252.75001 
L 213.985089 252.774369 
L 222.420479 252.781948 
L 230.855869 252.781948 
L 239.291258 252.38948 
L 247.726648 252.38948 
L 256.162037 252.333276 
L 264.597427 251.595155 
L 273.032817 251.818876 
L 281.468206 251.042384 
L 289.903596 249.947306 
L 298.338985 249.947306 
L 306.774375 250.64158 
L 315.209765 251.294359 
L 323.645154 249.351342 
L 332.080544 249.225557 
L 340.515933 245.791171 
L 348.951323 245.791171 
L 357.386713 245.601327 
L 365.822102 245.974093 
L 374.257492 244.793999 
L 382.692881 244.793999 
L 391.128271 243.53754 
L 399.563661 243.53754 
L 407.99905 242.340019 
L 416.43444 243.009517 
L 424.86983 237.793434 
L 433.305219 236.234365 
L 441.740609 236.234365 
L 450.175998 236.234365 
L 458.611388 237.27181 
L 467.046778 232.160936 
L 475.482167 232.780848 
L 483.917557 232.808507 
L 492.352946 232.808507 
L 500.788336 232.808507 
L 509.223726 204.98598 
L 517.659115 204.98598 
L 526.094505 204.98598 
L 534.529894 204.98598 
L 542.965284 204.98598 
" clip-path="url(#pc07381e929)" style="fill: none; stroke: #ccb974; stroke-width: 1.5; stroke-linecap: round"/>
   </g>
   <g id="line2d_34">
    <path d="M 70.583466 253.372057 
L 79.018856 253.372057 
L 87.454245 253.372057 
L 95.889635 253.374034 
L 104.325024 253.374034 
L 112.760414 253.374034 
L 121.195804 253.198338 
L 129.631193 253.200286 
L 138.066583 253.200286 
L 146.501972 253.090409 
L 154.937362 252.97991 
L 163.372752 252.166313 
L 171.808141 250.502168 
L 180.243531 250.057972 
L 188.67892 250.8602 
L 197.11431 248.882803 
L 205.5497 248.059279 
L 213.985089 245.971994 
L 222.420479 245.98236 
L 230.855869 246.661554 
L 239.291258 238.986273 
L 247.726648 233.973854 
L 256.162037 235.564755 
L 264.597427 229.848083 
L 273.032817 228.20892 
L 281.468206 224.168349 
L 289.903596 210.681357 
L 298.338985 210.681357 
L 306.774375 207.857898 
L 315.209765 187.758608 
L 323.645154 187.758608 
L 332.080544 174.25806 
L 340.515933 174.25806 
L 348.951323 174.25806 
L 357.386713 174.25806 
L 365.822102 174.25806 
L 374.257492 174.25806 
L 382.692881 174.25806 
" clip-path="url(#pc07381e929)" style="fill: none; stroke: #64b5cd; stroke-width: 1.5; stroke-linecap: round"/>
   </g>
   <g id="line2d_35">
    <path d="M 70.583466 253.372057 
L 79.018856 253.372057 
L 87.454245 253.372057 
L 95.889635 253.372057 
L 104.325024 253.396562 
L 112.760414 253.047158 
L 121.195804 253.434721 
L 129.631193 253.780064 
L 138.066583 252.434731 
L 146.501972 251.266184 
L 154.937362 252.081706 
L 163.372752 250.669374 
L 171.808141 247.625479 
L 180.243531 246.439419 
L 188.67892 248.553236 
L 197.11431 246.507969 
L 205.5497 242.952534 
L 213.985089 240.713864 
L 222.420479 252.269426 
L 230.855869 268.637675 
L 239.291258 134.764689 
L 247.726648 205.568453 
" clip-path="url(#pc07381e929)" style="fill: none; stroke: #4c72b0; stroke-width: 1.5; stroke-linecap: round"/>
   </g>
   <g id="patch_3">
    <path d="M 46.964375 387.009375 
L 46.964375 21.789375 
" style="fill: none; stroke: #262626; stroke-width: 1.25; stroke-linejoin: miter; stroke-linecap: square"/>
   </g>
   <g id="patch_4">
    <path d="M 566.584375 387.009375 
L 566.584375 21.789375 
" style="fill: none; stroke: #262626; stroke-width: 1.25; stroke-linejoin: miter; stroke-linecap: square"/>
   </g>
   <g id="patch_5">
    <path d="M 46.964375 387.009375 
L 566.584375 387.009375 
" style="fill: none; stroke: #262626; stroke-width: 1.25; stroke-linejoin: miter; stroke-linecap: square"/>
   </g>
   <g id="patch_6">
    <path d="M 46.964375 21.789375 
L 566.584375 21.789375 
" style="fill: none; stroke: #262626; stroke-width: 1.25; stroke-linejoin: miter; stroke-linecap: square"/>
   </g>
   <g id="text_15">
    <!-- Normalized Rich Club Coefficients Across Datasets -->
    <g style="fill: #262626" transform="translate(170.832188 15.789375) scale(0.12 -0.12)">
     <defs>
      <path id="ArialMT-52" d="M 503 0 
L 503 4581 
L 2534 4581 
Q 3147 4581 3465 4457 
Q 3784 4334 3975 4021 
Q 4166 3709 4166 3331 
Q 4166 2844 3850 2509 
Q 3534 2175 2875 2084 
Q 3116 1969 3241 1856 
Q 3506 1613 3744 1247 
L 4541 0 
L 3778 0 
L 3172 953 
Q 2906 1366 2734 1584 
Q 2563 1803 2427 1890 
Q 2291 1978 2150 2013 
Q 2047 2034 1813 2034 
L 1109 2034 
L 1109 0 
L 503 0 
z
M 1109 2559 
L 2413 2559 
Q 2828 2559 3062 2645 
Q 3297 2731 3419 2920 
Q 3541 3109 3541 3331 
Q 3541 3656 3305 3865 
Q 3069 4075 2559 4075 
L 1109 4075 
L 1109 2559 
z
" transform="scale(0.015625)"/>
      <path id="ArialMT-43" d="M 3763 1606 
L 4369 1453 
Q 4178 706 3683 314 
Q 3188 -78 2472 -78 
Q 1731 -78 1267 223 
Q 803 525 561 1097 
Q 319 1669 319 2325 
Q 319 3041 592 3573 
Q 866 4106 1370 4382 
Q 1875 4659 2481 4659 
Q 3169 4659 3637 4309 
Q 4106 3959 4291 3325 
L 3694 3184 
Q 3534 3684 3231 3912 
Q 2928 4141 2469 4141 
Q 1941 4141 1586 3887 
Q 1231 3634 1087 3207 
Q 944 2781 944 2328 
Q 944 1744 1114 1308 
Q 1284 872 1643 656 
Q 2003 441 2422 441 
Q 2931 441 3284 734 
Q 3638 1028 3763 1606 
z
" transform="scale(0.015625)"/>
      <path id="ArialMT-41" d="M -9 0 
L 1750 4581 
L 2403 4581 
L 4278 0 
L 3588 0 
L 3053 1388 
L 1138 1388 
L 634 0 
L -9 0 
z
M 1313 1881 
L 2866 1881 
L 2388 3150 
Q 2169 3728 2063 4100 
Q 1975 3659 1816 3225 
L 1313 1881 
z
" transform="scale(0.015625)"/>
     </defs>
     <use xlink:href="#ArialMT-4e"/>
     <use xlink:href="#ArialMT-6f" x="72.216797"/>
     <use xlink:href="#ArialMT-72" x="127.832031"/>
     <use xlink:href="#ArialMT-6d" x="161.132812"/>
     <use xlink:href="#ArialMT-61" x="244.433594"/>
     <use xlink:href="#ArialMT-6c" x="300.048828"/>
     <use xlink:href="#ArialMT-69" x="322.265625"/>
     <use xlink:href="#ArialMT-7a" x="344.482422"/>
     <use xlink:href="#ArialMT-65" x="394.482422"/>
     <use xlink:href="#ArialMT-64" x="450.097656"/>
     <use xlink:href="#ArialMT-20" x="505.712891"/>
     <use xlink:href="#ArialMT-52" x="533.496094"/>
     <use xlink:href="#ArialMT-69" x="605.712891"/>
     <use xlink:href="#ArialMT-63" x="627.929688"/>
     <use xlink:href="#ArialMT-68" x="677.929688"/>
     <use xlink:href="#ArialMT-20" x="733.544922"/>
     <use xlink:href="#ArialMT-43" x="761.328125"/>
     <use xlink:href="#ArialMT-6c" x="833.544922"/>
     <use xlink:href="#ArialMT-75" x="855.761719"/>
     <use xlink:href="#ArialMT-62" x="911.376953"/>
     <use xlink:href="#ArialMT-20" x="966.992188"/>
     <use xlink:href="#ArialMT-43" x="994.775391"/>
     <use xlink:href="#ArialMT-6f" x="1066.992188"/>
     <use xlink:href="#ArialMT-65" x="1122.607422"/>
     <use xlink:href="#ArialMT-66" x="1178.222656"/>
     <use xlink:href="#ArialMT-66" x="1204.255859"/>
     <use xlink:href="#ArialMT-69" x="1232.039062"/>
     <use xlink:href="#ArialMT-63" x="1254.255859"/>
     <use xlink:href="#ArialMT-69" x="1304.255859"/>
     <use xlink:href="#ArialMT-65" x="1326.472656"/>
     <use xlink:href="#ArialMT-6e" x="1382.087891"/>
     <use xlink:href="#ArialMT-74" x="1437.703125"/>
     <use xlink:href="#ArialMT-73" x="1465.486328"/>
     <use xlink:href="#ArialMT-20" x="1515.486328"/>
     <use xlink:href="#ArialMT-41" x="1537.769531"/>
     <use xlink:href="#ArialMT-63" x="1604.46875"/>
     <use xlink:href="#ArialMT-72" x="1654.46875"/>
     <use xlink:href="#ArialMT-6f" x="1687.769531"/>
     <use xlink:href="#ArialMT-73" x="1743.384766"/>
     <use xlink:href="#ArialMT-73" x="1793.384766"/>
     <use xlink:href="#ArialMT-20" x="1843.384766"/>
     <use xlink:href="#ArialMT-44" x="1871.167969"/>
     <use xlink:href="#ArialMT-61" x="1943.384766"/>
     <use xlink:href="#ArialMT-74" x="1999"/>
     <use xlink:href="#ArialMT-61" x="2026.783203"/>
     <use xlink:href="#ArialMT-73" x="2082.398438"/>
     <use xlink:href="#ArialMT-65" x="2132.398438"/>
     <use xlink:href="#ArialMT-74" x="2188.013672"/>
     <use xlink:href="#ArialMT-73" x="2215.796875"/>
    </g>
   </g>
   <g id="legend_1">
    <g id="patch_7">
     <path d="M 600.265375 203.426875 
L 705.774281 203.426875 
Q 707.974281 203.426875 707.974281 201.226875 
L 707.974281 29.489375 
Q 707.974281 27.289375 705.774281 27.289375 
L 600.265375 27.289375 
Q 598.065375 27.289375 598.065375 29.489375 
L 598.065375 201.226875 
Q 598.065375 203.426875 600.265375 203.426875 
z
" style="fill: #ffffff; opacity: 0.8; stroke: #cccccc; stroke-linejoin: miter"/>
    </g>
    <g id="line2d_36">
     <path d="M 602.465375 35.745625 
L 613.465375 35.745625 
L 624.465375 35.745625 
" style="fill: none; stroke: #4c72b0; stroke-width: 1.5; stroke-linecap: round"/>
    </g>
    <g id="text_16">
     <!-- witvliet_1_syn -->
     <g style="fill: #262626" transform="translate(633.265375 39.595625) scale(0.11 -0.11)">
      <defs>
       <path id="ArialMT-77" d="M 1034 0 
L 19 3319 
L 600 3319 
L 1128 1403 
L 1325 691 
Q 1338 744 1497 1375 
L 2025 3319 
L 2603 3319 
L 3100 1394 
L 3266 759 
L 3456 1400 
L 4025 3319 
L 4572 3319 
L 3534 0 
L 2950 0 
L 2422 1988 
L 2294 2553 
L 1622 0 
L 1034 0 
z
" transform="scale(0.015625)"/>
       <path id="ArialMT-76" d="M 1344 0 
L 81 3319 
L 675 3319 
L 1388 1331 
Q 1503 1009 1600 663 
Q 1675 925 1809 1294 
L 2547 3319 
L 3125 3319 
L 1869 0 
L 1344 0 
z
" transform="scale(0.015625)"/>
       <path id="ArialMT-5f" d="M -97 -1272 
L -97 -866 
L 3631 -866 
L 3631 -1272 
L -97 -1272 
z
" transform="scale(0.015625)"/>
       <path id="ArialMT-79" d="M 397 -1278 
L 334 -750 
Q 519 -800 656 -800 
Q 844 -800 956 -737 
Q 1069 -675 1141 -563 
Q 1194 -478 1313 -144 
Q 1328 -97 1363 -6 
L 103 3319 
L 709 3319 
L 1400 1397 
Q 1534 1031 1641 628 
Q 1738 1016 1872 1384 
L 2581 3319 
L 3144 3319 
L 1881 -56 
Q 1678 -603 1566 -809 
Q 1416 -1088 1222 -1217 
Q 1028 -1347 759 -1347 
Q 597 -1347 397 -1278 
z
" transform="scale(0.015625)"/>
      </defs>
      <use xlink:href="#ArialMT-77"/>
      <use xlink:href="#ArialMT-69" x="72.216797"/>
      <use xlink:href="#ArialMT-74" x="94.433594"/>
      <use xlink:href="#ArialMT-76" x="122.216797"/>
      <use xlink:href="#ArialMT-6c" x="172.216797"/>
      <use xlink:href="#ArialMT-69" x="194.433594"/>
      <use xlink:href="#ArialMT-65" x="216.650391"/>
      <use xlink:href="#ArialMT-74" x="272.265625"/>
      <use xlink:href="#ArialMT-5f" x="300.048828"/>
      <use xlink:href="#ArialMT-31" x="355.664062"/>
      <use xlink:href="#ArialMT-5f" x="411.279297"/>
      <use xlink:href="#ArialMT-73" x="466.894531"/>
      <use xlink:href="#ArialMT-79" x="516.894531"/>
      <use xlink:href="#ArialMT-6e" x="566.894531"/>
     </g>
    </g>
    <g id="line2d_37">
     <path d="M 602.465375 51.467031 
L 613.465375 51.467031 
L 624.465375 51.467031 
" style="fill: none; stroke: #dd8452; stroke-width: 1.5; stroke-linecap: round"/>
    </g>
    <g id="text_17">
     <!-- witvliet_2_syn -->
     <g style="fill: #262626" transform="translate(633.265375 55.317031) scale(0.11 -0.11)">
      <use xlink:href="#ArialMT-77"/>
      <use xlink:href="#ArialMT-69" x="72.216797"/>
      <use xlink:href="#ArialMT-74" x="94.433594"/>
      <use xlink:href="#ArialMT-76" x="122.216797"/>
      <use xlink:href="#ArialMT-6c" x="172.216797"/>
      <use xlink:href="#ArialMT-69" x="194.433594"/>
      <use xlink:href="#ArialMT-65" x="216.650391"/>
      <use xlink:href="#ArialMT-74" x="272.265625"/>
      <use xlink:href="#ArialMT-5f" x="300.048828"/>
      <use xlink:href="#ArialMT-32" x="355.664062"/>
      <use xlink:href="#ArialMT-5f" x="411.279297"/>
      <use xlink:href="#ArialMT-73" x="466.894531"/>
      <use xlink:href="#ArialMT-79" x="516.894531"/>
      <use xlink:href="#ArialMT-6e" x="566.894531"/>
     </g>
    </g>
    <g id="line2d_38">
     <path d="M 602.465375 67.188438 
L 613.465375 67.188438 
L 624.465375 67.188438 
" style="fill: none; stroke: #55a868; stroke-width: 1.5; stroke-linecap: round"/>
    </g>
    <g id="text_18">
     <!-- witvliet_3_syn -->
     <g style="fill: #262626" transform="translate(633.265375 71.038438) scale(0.11 -0.11)">
      <use xlink:href="#ArialMT-77"/>
      <use xlink:href="#ArialMT-69" x="72.216797"/>
      <use xlink:href="#ArialMT-74" x="94.433594"/>
      <use xlink:href="#ArialMT-76" x="122.216797"/>
      <use xlink:href="#ArialMT-6c" x="172.216797"/>
      <use xlink:href="#ArialMT-69" x="194.433594"/>
      <use xlink:href="#ArialMT-65" x="216.650391"/>
      <use xlink:href="#ArialMT-74" x="272.265625"/>
      <use xlink:href="#ArialMT-5f" x="300.048828"/>
      <use xlink:href="#ArialMT-33" x="355.664062"/>
      <use xlink:href="#ArialMT-5f" x="411.279297"/>
      <use xlink:href="#ArialMT-73" x="466.894531"/>
      <use xlink:href="#ArialMT-79" x="516.894531"/>
      <use xlink:href="#ArialMT-6e" x="566.894531"/>
     </g>
    </g>
    <g id="line2d_39">
     <path d="M 602.465375 82.877188 
L 613.465375 82.877188 
L 624.465375 82.877188 
" style="fill: none; stroke: #c44e52; stroke-width: 1.5; stroke-linecap: round"/>
    </g>
    <g id="text_19">
     <!-- witvliet_4_syn -->
     <g style="fill: #262626" transform="translate(633.265375 86.727188) scale(0.11 -0.11)">
      <use xlink:href="#ArialMT-77"/>
      <use xlink:href="#ArialMT-69" x="72.216797"/>
      <use xlink:href="#ArialMT-74" x="94.433594"/>
      <use xlink:href="#ArialMT-76" x="122.216797"/>
      <use xlink:href="#ArialMT-6c" x="172.216797"/>
      <use xlink:href="#ArialMT-69" x="194.433594"/>
      <use xlink:href="#ArialMT-65" x="216.650391"/>
      <use xlink:href="#ArialMT-74" x="272.265625"/>
      <use xlink:href="#ArialMT-5f" x="300.048828"/>
      <use xlink:href="#ArialMT-34" x="355.664062"/>
      <use xlink:href="#ArialMT-5f" x="411.279297"/>
      <use xlink:href="#ArialMT-73" x="466.894531"/>
      <use xlink:href="#ArialMT-79" x="516.894531"/>
      <use xlink:href="#ArialMT-6e" x="566.894531"/>
     </g>
    </g>
    <g id="line2d_40">
     <path d="M 602.465375 98.565938 
L 613.465375 98.565938 
L 624.465375 98.565938 
" style="fill: none; stroke: #8172b3; stroke-width: 1.5; stroke-linecap: round"/>
    </g>
    <g id="text_20">
     <!-- witvliet_5_syn -->
     <g style="fill: #262626" transform="translate(633.265375 102.415938) scale(0.11 -0.11)">
      <use xlink:href="#ArialMT-77"/>
      <use xlink:href="#ArialMT-69" x="72.216797"/>
      <use xlink:href="#ArialMT-74" x="94.433594"/>
      <use xlink:href="#ArialMT-76" x="122.216797"/>
      <use xlink:href="#ArialMT-6c" x="172.216797"/>
      <use xlink:href="#ArialMT-69" x="194.433594"/>
      <use xlink:href="#ArialMT-65" x="216.650391"/>
      <use xlink:href="#ArialMT-74" x="272.265625"/>
      <use xlink:href="#ArialMT-5f" x="300.048828"/>
      <use xlink:href="#ArialMT-35" x="355.664062"/>
      <use xlink:href="#ArialMT-5f" x="411.279297"/>
      <use xlink:href="#ArialMT-73" x="466.894531"/>
      <use xlink:href="#ArialMT-79" x="516.894531"/>
      <use xlink:href="#ArialMT-6e" x="566.894531"/>
     </g>
    </g>
    <g id="line2d_41">
     <path d="M 602.465375 114.287344 
L 613.465375 114.287344 
L 624.465375 114.287344 
" style="fill: none; stroke: #937860; stroke-width: 1.5; stroke-linecap: round"/>
    </g>
    <g id="text_21">
     <!-- witvliet_6_syn -->
     <g style="fill: #262626" transform="translate(633.265375 118.137344) scale(0.11 -0.11)">
      <defs>
       <path id="ArialMT-36" d="M 3184 3459 
L 2625 3416 
Q 2550 3747 2413 3897 
Q 2184 4138 1850 4138 
Q 1581 4138 1378 3988 
Q 1113 3794 959 3422 
Q 806 3050 800 2363 
Q 1003 2672 1297 2822 
Q 1591 2972 1913 2972 
Q 2475 2972 2870 2558 
Q 3266 2144 3266 1488 
Q 3266 1056 3080 686 
Q 2894 316 2569 119 
Q 2244 -78 1831 -78 
Q 1128 -78 684 439 
Q 241 956 241 2144 
Q 241 3472 731 4075 
Q 1159 4600 1884 4600 
Q 2425 4600 2770 4297 
Q 3116 3994 3184 3459 
z
M 888 1484 
Q 888 1194 1011 928 
Q 1134 663 1356 523 
Q 1578 384 1822 384 
Q 2178 384 2434 671 
Q 2691 959 2691 1453 
Q 2691 1928 2437 2201 
Q 2184 2475 1800 2475 
Q 1419 2475 1153 2201 
Q 888 1928 888 1484 
z
" transform="scale(0.015625)"/>
      </defs>
      <use xlink:href="#ArialMT-77"/>
      <use xlink:href="#ArialMT-69" x="72.216797"/>
      <use xlink:href="#ArialMT-74" x="94.433594"/>
      <use xlink:href="#ArialMT-76" x="122.216797"/>
      <use xlink:href="#ArialMT-6c" x="172.216797"/>
      <use xlink:href="#ArialMT-69" x="194.433594"/>
      <use xlink:href="#ArialMT-65" x="216.650391"/>
      <use xlink:href="#ArialMT-74" x="272.265625"/>
      <use xlink:href="#ArialMT-5f" x="300.048828"/>
      <use xlink:href="#ArialMT-36" x="355.664062"/>
      <use xlink:href="#ArialMT-5f" x="411.279297"/>
      <use xlink:href="#ArialMT-73" x="466.894531"/>
      <use xlink:href="#ArialMT-79" x="516.894531"/>
      <use xlink:href="#ArialMT-6e" x="566.894531"/>
     </g>
    </g>
    <g id="line2d_42">
     <path d="M 602.465375 129.976094 
L 613.465375 129.976094 
L 624.465375 129.976094 
" style="fill: none; stroke: #da8bc3; stroke-width: 1.5; stroke-linecap: round"/>
    </g>
    <g id="text_22">
     <!-- cel_jsh_syn -->
     <g style="fill: #262626" transform="translate(633.265375 133.826094) scale(0.11 -0.11)">
      <defs>
       <path id="ArialMT-6a" d="M 419 3928 
L 419 4581 
L 981 4581 
L 981 3928 
L 419 3928 
z
M -294 -1288 
L -188 -809 
Q -19 -853 78 -853 
Q 250 -853 334 -739 
Q 419 -625 419 -169 
L 419 3319 
L 981 3319 
L 981 -181 
Q 981 -794 822 -1034 
Q 619 -1347 147 -1347 
Q -81 -1347 -294 -1288 
z
" transform="scale(0.015625)"/>
      </defs>
      <use xlink:href="#ArialMT-63"/>
      <use xlink:href="#ArialMT-65" x="50"/>
      <use xlink:href="#ArialMT-6c" x="105.615234"/>
      <use xlink:href="#ArialMT-5f" x="127.832031"/>
      <use xlink:href="#ArialMT-6a" x="183.447266"/>
      <use xlink:href="#ArialMT-73" x="205.664062"/>
      <use xlink:href="#ArialMT-68" x="255.664062"/>
      <use xlink:href="#ArialMT-5f" x="311.279297"/>
      <use xlink:href="#ArialMT-73" x="366.894531"/>
      <use xlink:href="#ArialMT-79" x="416.894531"/>
      <use xlink:href="#ArialMT-6e" x="466.894531"/>
     </g>
    </g>
    <g id="line2d_43">
     <path d="M 602.465375 145.6975 
L 613.465375 145.6975 
L 624.465375 145.6975 
" style="fill: none; stroke: #8c8c8c; stroke-width: 1.5; stroke-linecap: round"/>
    </g>
    <g id="text_23">
     <!-- witvliet_8_syn -->
     <g style="fill: #262626" transform="translate(633.265375 149.5475) scale(0.11 -0.11)">
      <defs>
       <path id="ArialMT-38" d="M 1131 2484 
Q 781 2613 612 2850 
Q 444 3088 444 3419 
Q 444 3919 803 4259 
Q 1163 4600 1759 4600 
Q 2359 4600 2725 4251 
Q 3091 3903 3091 3403 
Q 3091 3084 2923 2848 
Q 2756 2613 2416 2484 
Q 2838 2347 3058 2040 
Q 3278 1734 3278 1309 
Q 3278 722 2862 322 
Q 2447 -78 1769 -78 
Q 1091 -78 675 323 
Q 259 725 259 1325 
Q 259 1772 486 2073 
Q 713 2375 1131 2484 
z
M 1019 3438 
Q 1019 3113 1228 2906 
Q 1438 2700 1772 2700 
Q 2097 2700 2305 2904 
Q 2513 3109 2513 3406 
Q 2513 3716 2298 3927 
Q 2084 4138 1766 4138 
Q 1444 4138 1231 3931 
Q 1019 3725 1019 3438 
z
M 838 1322 
Q 838 1081 952 856 
Q 1066 631 1291 507 
Q 1516 384 1775 384 
Q 2178 384 2440 643 
Q 2703 903 2703 1303 
Q 2703 1709 2433 1975 
Q 2163 2241 1756 2241 
Q 1359 2241 1098 1978 
Q 838 1716 838 1322 
z
" transform="scale(0.015625)"/>
      </defs>
      <use xlink:href="#ArialMT-77"/>
      <use xlink:href="#ArialMT-69" x="72.216797"/>
      <use xlink:href="#ArialMT-74" x="94.433594"/>
      <use xlink:href="#ArialMT-76" x="122.216797"/>
      <use xlink:href="#ArialMT-6c" x="172.216797"/>
      <use xlink:href="#ArialMT-69" x="194.433594"/>
      <use xlink:href="#ArialMT-65" x="216.650391"/>
      <use xlink:href="#ArialMT-74" x="272.265625"/>
      <use xlink:href="#ArialMT-5f" x="300.048828"/>
      <use xlink:href="#ArialMT-38" x="355.664062"/>
      <use xlink:href="#ArialMT-5f" x="411.279297"/>
      <use xlink:href="#ArialMT-73" x="466.894531"/>
      <use xlink:href="#ArialMT-79" x="516.894531"/>
      <use xlink:href="#ArialMT-6e" x="566.894531"/>
     </g>
    </g>
    <g id="line2d_44">
     <path d="M 602.465375 161.418906 
L 613.465375 161.418906 
L 624.465375 161.418906 
" style="fill: none; stroke: #ccb974; stroke-width: 1.5; stroke-linecap: round"/>
    </g>
    <g id="text_24">
     <!-- cel_n2u_syn -->
     <g style="fill: #262626" transform="translate(633.265375 165.268906) scale(0.11 -0.11)">
      <use xlink:href="#ArialMT-63"/>
      <use xlink:href="#ArialMT-65" x="50"/>
      <use xlink:href="#ArialMT-6c" x="105.615234"/>
      <use xlink:href="#ArialMT-5f" x="127.832031"/>
      <use xlink:href="#ArialMT-6e" x="183.447266"/>
      <use xlink:href="#ArialMT-32" x="239.0625"/>
      <use xlink:href="#ArialMT-75" x="294.677734"/>
      <use xlink:href="#ArialMT-5f" x="350.292969"/>
      <use xlink:href="#ArialMT-73" x="405.908203"/>
      <use xlink:href="#ArialMT-79" x="455.908203"/>
      <use xlink:href="#ArialMT-6e" x="505.908203"/>
     </g>
    </g>
    <g id="line2d_45">
     <path d="M 602.465375 177.140313 
L 613.465375 177.140313 
L 624.465375 177.140313 
" style="fill: none; stroke: #64b5cd; stroke-width: 1.5; stroke-linecap: round"/>
    </g>
    <g id="text_25">
     <!-- pristi_s14_syn -->
     <g style="fill: #262626" transform="translate(633.265375 180.990313) scale(0.11 -0.11)">
      <defs>
       <path id="ArialMT-70" d="M 422 -1272 
L 422 3319 
L 934 3319 
L 934 2888 
Q 1116 3141 1344 3267 
Q 1572 3394 1897 3394 
Q 2322 3394 2647 3175 
Q 2972 2956 3137 2557 
Q 3303 2159 3303 1684 
Q 3303 1175 3120 767 
Q 2938 359 2589 142 
Q 2241 -75 1856 -75 
Q 1575 -75 1351 44 
Q 1128 163 984 344 
L 984 -1272 
L 422 -1272 
z
M 931 1641 
Q 931 1000 1190 694 
Q 1450 388 1819 388 
Q 2194 388 2461 705 
Q 2728 1022 2728 1688 
Q 2728 2322 2467 2637 
Q 2206 2953 1844 2953 
Q 1484 2953 1207 2617 
Q 931 2281 931 1641 
z
" transform="scale(0.015625)"/>
      </defs>
      <use xlink:href="#ArialMT-70"/>
      <use xlink:href="#ArialMT-72" x="55.615234"/>
      <use xlink:href="#ArialMT-69" x="88.916016"/>
      <use xlink:href="#ArialMT-73" x="111.132812"/>
      <use xlink:href="#ArialMT-74" x="161.132812"/>
      <use xlink:href="#ArialMT-69" x="188.916016"/>
      <use xlink:href="#ArialMT-5f" x="211.132812"/>
      <use xlink:href="#ArialMT-73" x="266.748047"/>
      <use xlink:href="#ArialMT-31" x="316.748047"/>
      <use xlink:href="#ArialMT-34" x="372.363281"/>
      <use xlink:href="#ArialMT-5f" x="427.978516"/>
      <use xlink:href="#ArialMT-73" x="483.59375"/>
      <use xlink:href="#ArialMT-79" x="533.59375"/>
      <use xlink:href="#ArialMT-6e" x="583.59375"/>
     </g>
    </g>
    <g id="line2d_46">
     <path d="M 602.465375 192.861719 
L 613.465375 192.861719 
L 624.465375 192.861719 
" style="fill: none; stroke: #4c72b0; stroke-width: 1.5; stroke-linecap: round"/>
    </g>
    <g id="text_26">
     <!-- pristi_s15_syn -->
     <g style="fill: #262626" transform="translate(633.265375 196.711719) scale(0.11 -0.11)">
      <use xlink:href="#ArialMT-70"/>
      <use xlink:href="#ArialMT-72" x="55.615234"/>
      <use xlink:href="#ArialMT-69" x="88.916016"/>
      <use xlink:href="#ArialMT-73" x="111.132812"/>
      <use xlink:href="#ArialMT-74" x="161.132812"/>
      <use xlink:href="#ArialMT-69" x="188.916016"/>
      <use xlink:href="#ArialMT-5f" x="211.132812"/>
      <use xlink:href="#ArialMT-73" x="266.748047"/>
      <use xlink:href="#ArialMT-31" x="316.748047"/>
      <use xlink:href="#ArialMT-35" x="372.363281"/>
      <use xlink:href="#ArialMT-5f" x="427.978516"/>
      <use xlink:href="#ArialMT-73" x="483.59375"/>
      <use xlink:href="#ArialMT-79" x="533.59375"/>
      <use xlink:href="#ArialMT-6e" x="583.59375"/>
     </g>
    </g>
   </g>
  </g>
 </g>
 <defs>
  <clipPath id="pc07381e929">
   <rect x="46.964375" y="21.789375" width="519.62" height="365.22"/>
  </clipPath>
 </defs>
</svg>
