<?xml version="1.0" encoding="UTF-8" standalone="no"?>
<!DOCTYPE svg PUBLIC "-//W3C//DTD SVG 1.1//EN"
 "http://www.w3.org/Graphics/SVG/1.1/DTD/svg11.dtd">
<!-- Generated by graphviz version 11.0.0 (20240428.1522)
 -->
<!-- Pages: 1 -->
<svg width="421pt" height="2967pt"
 viewBox="0.00 0.00 421.41 2967.00" xmlns="http://www.w3.org/2000/svg" xmlns:xlink="http://www.w3.org/1999/xlink">
<g id="graph0" class="graph" transform="scale(1 1) rotate(0) translate(4 2963)">
<polygon fill="white" stroke="none" points="-4,4 -4,-2963 417.41,-2963 417.41,4 -4,4"/>
<!-- ADA -->
<g id="node1" class="node">
<title>ADA</title>
<ellipse fill="none" stroke="black" cx="204.21" cy="-1519" rx="108" ry="108"/>
<text text-anchor="middle" x="204.21" y="-1500" font-family="Times New Roman,serif" font-size="50.00">ADA</text>
</g>
<!-- ADA&#45;&gt;ADA -->
<g id="edge1" class="edge">
<title>ADA&#45;&gt;ADA</title>
<path fill="none" stroke="gray" stroke-width="5" d="M171.88,-1622.39C173.8,-1649.51 184.57,-1670 204.21,-1670 219.78,-1670 229.79,-1657.12 234.22,-1638.26"/>
<polygon fill="gray" stroke="gray" stroke-width="5" points="238.51,-1639.09 235.64,-1628.56 229.86,-1637.82 238.51,-1639.09"/>
</g>
<!-- ADE -->
<g id="node2" class="node">
<title>ADE</title>
<ellipse fill="none" stroke="black" cx="380.81" cy="-2941" rx="29.11" ry="18"/>
<text text-anchor="middle" x="380.81" y="-2935.57" font-family="Times New Roman,serif" font-size="14.00">ADE</text>
</g>
<!-- ADA&#45;&gt;ADE -->
<g id="edge2" class="edge">
<title>ADA&#45;&gt;ADE</title>
<path fill="none" stroke="gray" stroke-width="0.2" d="M217.31,-1626.42C251.81,-1948.2 348.21,-2880.5 348.21,-2880.5 348.21,-2880.5 361.37,-2896.74 370.71,-2914.04"/>
<polygon fill="gray" stroke="gray" stroke-width="0.2" points="367.47,-2915.39 375.02,-2922.83 373.76,-2912.31 367.47,-2915.39"/>
</g>
<!-- ADF -->
<g id="node3" class="node">
<title>ADF</title>
<ellipse fill="none" stroke="black" cx="380.81" cy="-2862" rx="29.11" ry="18"/>
<text text-anchor="middle" x="380.81" y="-2856.57" font-family="Times New Roman,serif" font-size="14.00">ADF</text>
</g>
<!-- ADA&#45;&gt;ADF -->
<g id="edge3" class="edge">
<title>ADA&#45;&gt;ADF</title>
<path fill="none" stroke="gray" stroke-width="0.2" d="M218.09,-1626.58C253.24,-1935.48 348.21,-2801.5 348.21,-2801.5 348.21,-2801.5 361.37,-2817.74 370.71,-2835.04"/>
<polygon fill="gray" stroke="gray" stroke-width="0.2" points="367.47,-2836.39 375.02,-2843.83 373.76,-2833.31 367.47,-2836.39"/>
</g>
<!-- ADL -->
<g id="node4" class="node">
<title>ADL</title>
<ellipse fill="none" stroke="black" cx="380.81" cy="-2783" rx="29.11" ry="18"/>
<text text-anchor="middle" x="380.81" y="-2777.57" font-family="Times New Roman,serif" font-size="14.00">ADL</text>
</g>
<!-- ADA&#45;&gt;ADL -->
<g id="edge4" class="edge">
<title>ADA&#45;&gt;ADL</title>
<path fill="none" stroke="gray" stroke-width="0.2" d="M218.92,-1626.32C254.72,-1921.57 348.21,-2722.5 348.21,-2722.5 348.21,-2722.5 361.37,-2738.74 370.71,-2756.04"/>
<polygon fill="gray" stroke="gray" stroke-width="0.2" points="367.47,-2757.39 375.02,-2764.83 373.76,-2754.31 367.47,-2757.39"/>
</g>
<!-- AIA -->
<g id="node5" class="node">
<title>AIA</title>
<ellipse fill="none" stroke="black" cx="380.81" cy="-2704" rx="27" ry="18"/>
<text text-anchor="middle" x="380.81" y="-2698.57" font-family="Times New Roman,serif" font-size="14.00">AIA</text>
</g>
<!-- ADA&#45;&gt;AIA -->
<g id="edge5" class="edge">
<title>ADA&#45;&gt;AIA</title>
<path fill="none" stroke="gray" stroke-width="0.2" d="M219.91,-1626.35C256.4,-1907.73 348.21,-2643.5 348.21,-2643.5 348.21,-2643.5 361.37,-2659.74 370.71,-2677.04"/>
<polygon fill="gray" stroke="gray" stroke-width="0.2" points="367.47,-2678.39 375.02,-2685.83 373.76,-2675.31 367.47,-2678.39"/>
</g>
<!-- AIB -->
<g id="node6" class="node">
<title>AIB</title>
<ellipse fill="none" stroke="black" cx="380.81" cy="-2625" rx="27" ry="18"/>
<text text-anchor="middle" x="380.81" y="-2619.57" font-family="Times New Roman,serif" font-size="14.00">AIB</text>
</g>
<!-- ADA&#45;&gt;AIB -->
<g id="edge6" class="edge">
<title>ADA&#45;&gt;AIB</title>
<path fill="none" stroke="gray" stroke-width="2" d="M220.99,-1625.99C258.18,-1892.74 348.21,-2564.5 348.21,-2564.5 348.21,-2564.5 360.19,-2579.29 369.4,-2595.67"/>
<polygon fill="gray" stroke="gray" stroke-width="2" points="366.17,-2597.04 373.79,-2604.4 372.42,-2593.89 366.17,-2597.04"/>
</g>
<!-- AIZ -->
<g id="node7" class="node">
<title>AIZ</title>
<ellipse fill="none" stroke="black" cx="380.81" cy="-2546" rx="27" ry="18"/>
<text text-anchor="middle" x="380.81" y="-2540.57" font-family="Times New Roman,serif" font-size="14.00">AIZ</text>
</g>
<!-- ADA&#45;&gt;AIZ -->
<g id="edge7" class="edge">
<title>ADA&#45;&gt;AIZ</title>
<path fill="none" stroke="gray" stroke-width="0.2" d="M222.25,-1625.59C260.17,-1877.18 348.21,-2485.5 348.21,-2485.5 348.21,-2485.5 361.37,-2501.74 370.71,-2519.04"/>
<polygon fill="gray" stroke="gray" stroke-width="0.2" points="367.47,-2520.39 375.02,-2527.83 373.76,-2517.31 367.47,-2520.39"/>
</g>
<!-- ALM -->
<g id="node8" class="node">
<title>ALM</title>
<ellipse fill="none" stroke="black" cx="380.81" cy="-2467" rx="30.61" ry="18"/>
<text text-anchor="middle" x="380.81" y="-2461.57" font-family="Times New Roman,serif" font-size="14.00">ALM</text>
</g>
<!-- ADA&#45;&gt;ALM -->
<g id="edge8" class="edge">
<title>ADA&#45;&gt;ALM</title>
<path fill="none" stroke="gray" stroke-width="0.2" d="M222.04,-1625.95C259.84,-1866.23 348.21,-2428 348.21,-2428 348.21,-2428 353.91,-2435.03 360.47,-2443.13"/>
<polygon fill="gray" stroke="gray" stroke-width="0.2" points="357.39,-2444.89 366.4,-2450.45 362.83,-2440.48 357.39,-2444.89"/>
</g>
<!-- ALN -->
<g id="node9" class="node">
<title>ALN</title>
<ellipse fill="none" stroke="black" cx="380.81" cy="-2388" rx="29.11" ry="18"/>
<text text-anchor="middle" x="380.81" y="-2382.57" font-family="Times New Roman,serif" font-size="14.00">ALN</text>
</g>
<!-- ADA&#45;&gt;ALN -->
<g id="edge9" class="edge">
<title>ADA&#45;&gt;ALN</title>
<path fill="none" stroke="gray" stroke-width="0.2" d="M223.54,-1625.39C262.13,-1849.35 348.21,-2349 348.21,-2349 348.21,-2349 353.95,-2356.09 360.54,-2364.22"/>
<polygon fill="gray" stroke="gray" stroke-width="0.2" points="357.75,-2366.34 366.77,-2371.9 363.19,-2361.93 357.75,-2366.34"/>
</g>
<!-- ASH -->
<g id="node10" class="node">
<title>ASH</title>
<ellipse fill="none" stroke="black" cx="380.81" cy="-2309" rx="29.11" ry="18"/>
<text text-anchor="middle" x="380.81" y="-2303.57" font-family="Times New Roman,serif" font-size="14.00">ASH</text>
</g>
<!-- ADA&#45;&gt;ASH -->
<g id="edge10" class="edge">
<title>ADA&#45;&gt;ASH</title>
<path fill="none" stroke="gray" stroke-width="0.2" d="M227.71,-1624.7C267.98,-1827.16 348.21,-2248.5 348.21,-2248.5 348.21,-2248.5 361.37,-2264.74 370.71,-2282.04"/>
<polygon fill="gray" stroke="gray" stroke-width="0.2" points="367.47,-2283.39 375.02,-2290.83 373.76,-2280.31 367.47,-2283.39"/>
</g>
<!-- AVA -->
<g id="node11" class="node">
<title>AVA</title>
<ellipse fill="none" stroke="black" cx="380.81" cy="-2230" rx="30.11" ry="18"/>
<text text-anchor="middle" x="380.81" y="-2224.57" font-family="Times New Roman,serif" font-size="14.00">AVA</text>
</g>
<!-- ADA&#45;&gt;AVA -->
<g id="edge11" class="edge">
<title>ADA&#45;&gt;AVA</title>
<path fill="none" stroke="black" stroke-width="5" d="M230.37,-1624.17C271.4,-1808.53 348.21,-2169.5 348.21,-2169.5 348.21,-2169.5 358.85,-2182.63 367.78,-2197.85"/>
<polygon fill="black" stroke="black" stroke-width="5" points="363.81,-2199.69 372.29,-2206.56 371.58,-2195.67 363.81,-2199.69"/>
</g>
<!-- AVB -->
<g id="node12" class="node">
<title>AVB</title>
<ellipse fill="none" stroke="black" cx="380.81" cy="-2151" rx="29.61" ry="18"/>
<text text-anchor="middle" x="380.81" y="-2145.57" font-family="Times New Roman,serif" font-size="14.00">AVB</text>
</g>
<!-- ADA&#45;&gt;AVB -->
<g id="edge12" class="edge">
<title>ADA&#45;&gt;AVB</title>
<path fill="none" stroke="black" stroke-width="5" d="M230.53,-1623.99C271.6,-1794.31 348.21,-2112 348.21,-2112 348.21,-2112 351.93,-2116.58 356.81,-2122.61"/>
<polygon fill="black" stroke="black" stroke-width="5" points="353.34,-2125.28 363.03,-2130.29 360.14,-2119.77 353.34,-2125.28"/>
</g>
<!-- AVD -->
<g id="node13" class="node">
<title>AVD</title>
<ellipse fill="none" stroke="black" cx="380.81" cy="-2072" rx="30.11" ry="18"/>
<text text-anchor="middle" x="380.81" y="-2066.57" font-family="Times New Roman,serif" font-size="14.00">AVD</text>
</g>
<!-- ADA&#45;&gt;AVD -->
<g id="edge13" class="edge">
<title>ADA&#45;&gt;AVD</title>
<path fill="none" stroke="black" stroke-width="5" d="M234.15,-1623.02C275.94,-1773.21 348.21,-2033 348.21,-2033 348.21,-2033 351.82,-2037.46 356.6,-2043.36"/>
<polygon fill="black" stroke="black" stroke-width="5" points="352.97,-2045.83 362.67,-2050.84 359.77,-2040.32 352.97,-2045.83"/>
</g>
<!-- AVE -->
<g id="node14" class="node">
<title>AVE</title>
<ellipse fill="none" stroke="black" cx="380.81" cy="-1993" rx="29.11" ry="18"/>
<text text-anchor="middle" x="380.81" y="-1987.58" font-family="Times New Roman,serif" font-size="14.00">AVE</text>
</g>
<!-- ADA&#45;&gt;AVE -->
<g id="edge14" class="edge">
<title>ADA&#45;&gt;AVE</title>
<path fill="none" stroke="black" stroke-width="5" d="M238.92,-1621.54C281.2,-1750.14 348.21,-1954 348.21,-1954 348.21,-1954 351.93,-1958.58 356.81,-1964.61"/>
<polygon fill="black" stroke="black" stroke-width="5" points="353.34,-1967.28 363.03,-1972.29 360.14,-1961.77 353.34,-1967.28"/>
</g>
<!-- AVJ -->
<g id="node15" class="node">
<title>AVJ</title>
<ellipse fill="none" stroke="black" cx="380.81" cy="-1914" rx="27.11" ry="18"/>
<text text-anchor="middle" x="380.81" y="-1908.58" font-family="Times New Roman,serif" font-size="14.00">AVJ</text>
</g>
<!-- ADA&#45;&gt;AVJ -->
<g id="edge15" class="edge">
<title>ADA&#45;&gt;AVJ</title>
<path fill="none" stroke="black" stroke-width="5" d="M251.05,-1616.79C292.88,-1715.74 348.21,-1853.5 348.21,-1853.5 348.21,-1853.5 358.85,-1866.63 367.78,-1881.85"/>
<polygon fill="black" stroke="black" stroke-width="5" points="363.81,-1883.69 372.29,-1890.56 371.58,-1879.67 363.81,-1883.69"/>
</g>
<!-- AVK -->
<g id="node16" class="node">
<title>AVK</title>
<ellipse fill="none" stroke="black" cx="380.81" cy="-1835" rx="30.11" ry="18"/>
<text text-anchor="middle" x="380.81" y="-1829.58" font-family="Times New Roman,serif" font-size="14.00">AVK</text>
</g>
<!-- ADA&#45;&gt;AVK -->
<g id="edge16" class="edge">
<title>ADA&#45;&gt;AVK</title>
<path fill="none" stroke="gray" stroke-width="0.2" d="M261.73,-1610.97C301.7,-1684.4 348.21,-1774.5 348.21,-1774.5 348.21,-1774.5 361.37,-1790.74 370.71,-1808.04"/>
<polygon fill="gray" stroke="gray" stroke-width="0.2" points="367.47,-1809.39 375.02,-1816.83 373.76,-1806.31 367.47,-1809.39"/>
</g>
<!-- AWA -->
<g id="node17" class="node">
<title>AWA</title>
<ellipse fill="none" stroke="black" cx="380.81" cy="-1756" rx="32.6" ry="18"/>
<text text-anchor="middle" x="380.81" y="-1750.58" font-family="Times New Roman,serif" font-size="14.00">AWA</text>
</g>
<!-- ADA&#45;&gt;AWA -->
<g id="edge17" class="edge">
<title>ADA&#45;&gt;AWA</title>
<path fill="none" stroke="gray" stroke-width="0.2" d="M276.92,-1599.46C312.6,-1646.19 348.21,-1695.5 348.21,-1695.5 348.21,-1695.5 361.24,-1711.57 370.56,-1728.77"/>
<polygon fill="gray" stroke="gray" stroke-width="0.2" points="367.31,-1730.1 374.88,-1737.52 373.59,-1727 367.31,-1730.1"/>
</g>
<!-- AWB -->
<g id="node18" class="node">
<title>AWB</title>
<ellipse fill="none" stroke="black" cx="380.81" cy="-1677" rx="32.1" ry="18"/>
<text text-anchor="middle" x="380.81" y="-1671.58" font-family="Times New Roman,serif" font-size="14.00">AWB</text>
</g>
<!-- ADA&#45;&gt;AWB -->
<g id="edge18" class="edge">
<title>ADA&#45;&gt;AWB</title>
<path fill="none" stroke="gray" stroke-width="0.2" d="M292.51,-1581.88C319.52,-1606.31 346.52,-1632.81 363.19,-1652"/>
<polygon fill="gray" stroke="gray" stroke-width="0.2" points="360.38,-1654.1 369.48,-1659.53 365.75,-1649.61 360.38,-1654.1"/>
</g>
<!-- DVA -->
<g id="node19" class="node">
<title>DVA</title>
<ellipse fill="none" stroke="black" cx="380.81" cy="-1598" rx="30.11" ry="18"/>
<text text-anchor="middle" x="380.81" y="-1592.58" font-family="Times New Roman,serif" font-size="14.00">DVA</text>
</g>
<!-- ADA&#45;&gt;DVA -->
<g id="edge19" class="edge">
<title>ADA&#45;&gt;DVA</title>
<path fill="none" stroke="gray" stroke-width="5" d="M308.04,-1549.63C324.25,-1557.45 339.72,-1565.69 352.12,-1573.31"/>
<polygon fill="gray" stroke="gray" stroke-width="5" points="349.62,-1576.9 360.37,-1578.78 354.45,-1569.61 349.62,-1576.9"/>
</g>
<!-- OLQ -->
<g id="node20" class="node">
<title>OLQ</title>
<ellipse fill="none" stroke="black" cx="380.81" cy="-1519" rx="30.11" ry="18"/>
<text text-anchor="middle" x="380.81" y="-1513.58" font-family="Times New Roman,serif" font-size="14.00">OLQ</text>
</g>
<!-- ADA&#45;&gt;OLQ -->
<g id="edge20" class="edge">
<title>ADA&#45;&gt;OLQ</title>
<path fill="none" stroke="gray" stroke-width="2" d="M311.56,-1503.22C323.17,-1503.65 334.32,-1504.47 344.11,-1505.7"/>
<polygon fill="gray" stroke="gray" stroke-width="2" points="343.55,-1509.15 353.97,-1507.23 344.62,-1502.24 343.55,-1509.15"/>
</g>
<!-- PVP -->
<g id="node21" class="node">
<title>PVP</title>
<ellipse fill="none" stroke="black" cx="380.81" cy="-1440" rx="28.11" ry="18"/>
<text text-anchor="middle" x="380.81" y="-1434.58" font-family="Times New Roman,serif" font-size="14.00">PVP</text>
</g>
<!-- ADA&#45;&gt;PVP -->
<g id="edge21" class="edge">
<title>ADA&#45;&gt;PVP</title>
<path fill="none" stroke="gray" stroke-width="nan" d="M296.09,-1461.77C316.64,-1452.61 336.93,-1444.76 352.38,-1440.29"/>
<polygon fill="gray" stroke="gray" stroke-width="nan" points="nan,-nan nan,-nan nan,-nan nan,-nan"/>
</g>
<!-- PVQ -->
<g id="node22" class="node">
<title>PVQ</title>
<ellipse fill="none" stroke="black" cx="380.81" cy="-1361" rx="29.61" ry="18"/>
<text text-anchor="middle" x="380.81" y="-1355.58" font-family="Times New Roman,serif" font-size="14.00">PVQ</text>
</g>
<!-- ADA&#45;&gt;PVQ -->
<g id="edge22" class="edge">
<title>ADA&#45;&gt;PVQ</title>
<path fill="none" stroke="gray" stroke-width="0.2" d="M276.73,-1438.39C301.45,-1415.27 327.92,-1392.35 347.85,-1377.12"/>
<polygon fill="gray" stroke="gray" stroke-width="0.2" points="349.78,-1380.04 355.72,-1371.27 345.61,-1374.43 349.78,-1380.04"/>
</g>
<!-- PVR -->
<g id="node23" class="node">
<title>PVR</title>
<ellipse fill="none" stroke="black" cx="380.81" cy="-1282" rx="29.11" ry="18"/>
<text text-anchor="middle" x="380.81" y="-1276.58" font-family="Times New Roman,serif" font-size="14.00">PVR</text>
</g>
<!-- ADA&#45;&gt;PVR -->
<g id="edge23" class="edge">
<title>ADA&#45;&gt;PVR</title>
<path fill="none" stroke="blue" stroke-width="2" d="M260.09,-1426.05C293.17,-1377.07 331.28,-1323.96 348.13,-1301.51"/>
<polygon fill="blue" stroke="blue" stroke-width="2" points="350.65,-1303.96 354.01,-1293.92 345.12,-1299.68 350.65,-1303.96"/>
</g>
<!-- RIA -->
<g id="node24" class="node">
<title>RIA</title>
<ellipse fill="none" stroke="black" cx="380.81" cy="-1203" rx="27" ry="18"/>
<text text-anchor="middle" x="380.81" y="-1197.58" font-family="Times New Roman,serif" font-size="14.00">RIA</text>
</g>
<!-- ADA&#45;&gt;RIA -->
<g id="edge24" class="edge">
<title>ADA&#45;&gt;RIA</title>
<path fill="none" stroke="blue" stroke-width="5" d="M254.83,-1423.24C296.13,-1343.53 348.21,-1243 348.21,-1243 348.21,-1243 352.23,-1237.92 357.39,-1231.38"/>
<polygon fill="blue" stroke="blue" stroke-width="5" points="360.69,-1234.26 363.46,-1223.7 353.83,-1228.84 360.69,-1234.26"/>
</g>
<!-- RIB -->
<g id="node25" class="node">
<title>RIB</title>
<ellipse fill="none" stroke="black" cx="380.81" cy="-1124" rx="27" ry="18"/>
<text text-anchor="middle" x="380.81" y="-1118.58" font-family="Times New Roman,serif" font-size="14.00">RIB</text>
</g>
<!-- ADA&#45;&gt;RIB -->
<g id="edge25" class="edge">
<title>ADA&#45;&gt;RIB</title>
<path fill="none" stroke="gray" stroke-width="0.2" d="M245.43,-1419.17C287.72,-1314.17 348.21,-1164 348.21,-1164 348.21,-1164 354.24,-1156.37 361.03,-1147.78"/>
<polygon fill="gray" stroke="gray" stroke-width="0.2" points="363.68,-1150.06 367.14,-1140.05 358.19,-1145.72 363.68,-1150.06"/>
</g>
<!-- RIC -->
<g id="node26" class="node">
<title>RIC</title>
<ellipse fill="none" stroke="black" cx="380.81" cy="-1045" rx="27" ry="18"/>
<text text-anchor="middle" x="380.81" y="-1039.58" font-family="Times New Roman,serif" font-size="14.00">RIC</text>
</g>
<!-- ADA&#45;&gt;RIC -->
<g id="edge26" class="edge">
<title>ADA&#45;&gt;RIC</title>
<path fill="none" stroke="gray" stroke-width="2" d="M234.84,-1415.17C276.73,-1280.45 348.21,-1063.5 348.21,-1063.5 348.21,-1063.5 348.27,-1063.43 348.38,-1063.29"/>
<polygon fill="gray" stroke="gray" stroke-width="2" points="351.01,-1065.6 354.87,-1055.74 345.7,-1061.04 351.01,-1065.6"/>
</g>
<!-- RIF -->
<g id="node27" class="node">
<title>RIF</title>
<ellipse fill="none" stroke="black" cx="380.81" cy="-966" rx="27" ry="18"/>
<text text-anchor="middle" x="380.81" y="-960.58" font-family="Times New Roman,serif" font-size="14.00">RIF</text>
</g>
<!-- ADA&#45;&gt;RIF -->
<g id="edge27" class="edge">
<title>ADA&#45;&gt;RIF</title>
<path fill="none" stroke="gray" stroke-width="0.2" d="M230.86,-1413.85C272.01,-1257.86 348.21,-984.5 348.21,-984.5 348.21,-984.5 348.93,-983.6 350.14,-982.13"/>
<polygon fill="gray" stroke="gray" stroke-width="0.2" points="352.71,-984.51 356.65,-974.67 347.44,-979.91 352.71,-984.51"/>
</g>
<!-- RIM -->
<g id="node28" class="node">
<title>RIM</title>
<ellipse fill="none" stroke="black" cx="380.81" cy="-887" rx="28.11" ry="18"/>
<text text-anchor="middle" x="380.81" y="-881.58" font-family="Times New Roman,serif" font-size="14.00">RIM</text>
</g>
<!-- ADA&#45;&gt;RIM -->
<g id="edge28" class="edge">
<title>ADA&#45;&gt;RIM</title>
<path fill="none" stroke="black" stroke-width="5" d="M227.71,-1413.23C263.34,-1257.48 330.25,-979.1 350.5,-910.96"/>
<polygon fill="black" stroke="black" stroke-width="5" points="354.58,-912.53 353.79,-901.65 346.33,-909.62 354.58,-912.53"/>
</g>
<!-- RIP -->
<g id="node29" class="node">
<title>RIP</title>
<ellipse fill="none" stroke="black" cx="380.81" cy="-808" rx="27" ry="18"/>
<text text-anchor="middle" x="380.81" y="-802.58" font-family="Times New Roman,serif" font-size="14.00">RIP</text>
</g>
<!-- ADA&#45;&gt;RIP -->
<g id="edge29" class="edge">
<title>ADA&#45;&gt;RIP</title>
<path fill="none" stroke="red" stroke-width="5" d="M227.71,-1413.26C267.98,-1224.02 348.21,-847 348.21,-847 348.21,-847 351.93,-842.42 356.81,-836.39"/>
<polygon fill="red" stroke="red" stroke-width="5" points="360.14,-839.23 363.03,-828.71 353.34,-833.72 360.14,-839.23"/>
</g>
<!-- RIV -->
<g id="node30" class="node">
<title>RIV</title>
<ellipse fill="none" stroke="black" cx="380.81" cy="-729" rx="27" ry="18"/>
<text text-anchor="middle" x="380.81" y="-723.58" font-family="Times New Roman,serif" font-size="14.00">RIV</text>
</g>
<!-- ADA&#45;&gt;RIV -->
<g id="edge30" class="edge">
<title>ADA&#45;&gt;RIV</title>
<path fill="none" stroke="gray" stroke-width="0.2" d="M225.4,-1412.99C264.82,-1205.98 348.21,-768 348.21,-768 348.21,-768 353.95,-760.91 360.54,-752.78"/>
<polygon fill="gray" stroke="gray" stroke-width="0.2" points="363.19,-755.07 366.77,-745.1 357.75,-750.66 363.19,-755.07"/>
</g>
<!-- RMF -->
<g id="node31" class="node">
<title>RMF</title>
<ellipse fill="none" stroke="black" cx="380.81" cy="-650" rx="30.61" ry="18"/>
<text text-anchor="middle" x="380.81" y="-644.58" font-family="Times New Roman,serif" font-size="14.00">RMF</text>
</g>
<!-- ADA&#45;&gt;RMF -->
<g id="edge31" class="edge">
<title>ADA&#45;&gt;RMF</title>
<path fill="none" stroke="gray" stroke-width="0.2" d="M223.54,-1412.61C262.13,-1188.65 348.21,-689 348.21,-689 348.21,-689 353.91,-681.97 360.47,-673.87"/>
<polygon fill="gray" stroke="gray" stroke-width="0.2" points="362.83,-676.52 366.4,-666.55 357.39,-672.11 362.83,-676.52"/>
</g>
<!-- RMG -->
<g id="node32" class="node">
<title>RMG</title>
<ellipse fill="none" stroke="black" cx="380.81" cy="-571" rx="32.1" ry="18"/>
<text text-anchor="middle" x="380.81" y="-565.58" font-family="Times New Roman,serif" font-size="14.00">RMG</text>
</g>
<!-- ADA&#45;&gt;RMG -->
<g id="edge32" class="edge">
<title>ADA&#45;&gt;RMG</title>
<path fill="none" stroke="gray" stroke-width="0.2" d="M220.38,-1412C254.56,-1184.6 335.51,-669.31 351.76,-591.35"/>
<polygon fill="gray" stroke="gray" stroke-width="0.2" points="355.13,-592.31 354.23,-581.75 348.35,-590.56 355.13,-592.31"/>
</g>
<!-- SAA -->
<g id="node33" class="node">
<title>SAA</title>
<ellipse fill="none" stroke="black" cx="380.81" cy="-492" rx="29.11" ry="18"/>
<text text-anchor="middle" x="380.81" y="-486.57" font-family="Times New Roman,serif" font-size="14.00">SAA</text>
</g>
<!-- ADA&#45;&gt;SAA -->
<g id="edge33" class="edge">
<title>ADA&#45;&gt;SAA</title>
<path fill="none" stroke="gray" stroke-width="0.2" d="M219.25,-1411.78C255.28,-1151.58 348.21,-509.5 348.21,-509.5 348.21,-509.5 348.41,-509.26 348.76,-508.83"/>
<polygon fill="gray" stroke="gray" stroke-width="0.2" points="351.37,-511.16 355.34,-501.34 346.11,-506.54 351.37,-511.16"/>
</g>
<!-- SDQ -->
<g id="node34" class="node">
<title>SDQ</title>
<ellipse fill="none" stroke="black" cx="380.81" cy="-413" rx="29.61" ry="18"/>
<text text-anchor="middle" x="380.81" y="-407.57" font-family="Times New Roman,serif" font-size="14.00">SDQ</text>
</g>
<!-- ADA&#45;&gt;SDQ -->
<g id="edge34" class="edge">
<title>ADA&#45;&gt;SDQ</title>
<path fill="none" stroke="gray" stroke-width="0.2" d="M218.28,-1411.56C253.58,-1136.58 348.21,-430.5 348.21,-430.5 348.21,-430.5 348.4,-430.27 348.73,-429.87"/>
<polygon fill="gray" stroke="gray" stroke-width="0.2" points="351.07,-432.51 355.03,-422.68 345.8,-427.9 351.07,-432.51"/>
</g>
<!-- SIB -->
<g id="node35" class="node">
<title>SIB</title>
<ellipse fill="none" stroke="black" cx="380.81" cy="-334" rx="27" ry="18"/>
<text text-anchor="middle" x="380.81" y="-328.57" font-family="Times New Roman,serif" font-size="14.00">SIB</text>
</g>
<!-- ADA&#45;&gt;SIB -->
<g id="edge35" class="edge">
<title>ADA&#45;&gt;SIB</title>
<path fill="none" stroke="blue" stroke-width="2" d="M218.6,-1411.7C254.15,-1126.81 348.21,-373 348.21,-373 348.21,-373 353.16,-366.9 359.13,-359.52"/>
<polygon fill="blue" stroke="blue" stroke-width="2" points="361.48,-362.19 365.05,-352.21 356.04,-357.78 361.48,-362.19"/>
</g>
<!-- SMD -->
<g id="node36" class="node">
<title>SMD</title>
<ellipse fill="none" stroke="black" cx="380.81" cy="-255" rx="30.61" ry="18"/>
<text text-anchor="middle" x="380.81" y="-249.57" font-family="Times New Roman,serif" font-size="14.00">SMD</text>
</g>
<!-- ADA&#45;&gt;SMD -->
<g id="edge36" class="edge">
<title>ADA&#45;&gt;SMD</title>
<path fill="none" stroke="gray" stroke-width="5" d="M217.78,-1411.36C252.67,-1112.44 348.21,-294 348.21,-294 348.21,-294 351.82,-289.54 356.6,-283.64"/>
<polygon fill="gray" stroke="gray" stroke-width="5" points="359.77,-286.68 362.67,-276.16 352.97,-281.17 359.77,-286.68"/>
</g>
<!-- URA -->
<g id="node37" class="node">
<title>URA</title>
<ellipse fill="none" stroke="black" cx="380.81" cy="-176" rx="30.11" ry="18"/>
<text text-anchor="middle" x="380.81" y="-170.57" font-family="Times New Roman,serif" font-size="14.00">URA</text>
</g>
<!-- ADA&#45;&gt;URA -->
<g id="edge37" class="edge">
<title>ADA&#45;&gt;URA</title>
<path fill="none" stroke="gray" stroke-width="0.2" d="M216.02,-1411.32C247.41,-1113.38 337.04,-295.46 352.87,-195.74"/>
<polygon fill="gray" stroke="gray" stroke-width="0.2" points="356.27,-196.59 354.85,-186.09 349.41,-195.18 356.27,-196.59"/>
</g>
<!-- URX -->
<g id="node38" class="node">
<title>URX</title>
<ellipse fill="none" stroke="black" cx="380.81" cy="-97" rx="30.11" ry="18"/>
<text text-anchor="middle" x="380.81" y="-91.58" font-family="Times New Roman,serif" font-size="14.00">URX</text>
</g>
<!-- ADA&#45;&gt;URX -->
<g id="edge38" class="edge">
<title>ADA&#45;&gt;URX</title>
<path fill="none" stroke="gray" stroke-width="2" d="M215.44,-1411.17C246.09,-1102.95 335.78,-234.76 352.55,-119.45"/>
<polygon fill="gray" stroke="gray" stroke-width="2" points="355.96,-120.24 354.36,-109.77 349.08,-118.96 355.96,-120.24"/>
</g>
<!-- URY -->
<g id="node39" class="node">
<title>URY</title>
<ellipse fill="none" stroke="black" cx="380.81" cy="-18" rx="30.11" ry="18"/>
<text text-anchor="middle" x="380.81" y="-12.57" font-family="Times New Roman,serif" font-size="14.00">URY</text>
</g>
<!-- ADA&#45;&gt;URY -->
<g id="edge39" class="edge">
<title>ADA&#45;&gt;URY</title>
<path fill="none" stroke="gray" stroke-width="0.2" d="M214.9,-1411.24C245.33,-1088.05 337.54,-144.6 353.04,-37.65"/>
<polygon fill="gray" stroke="gray" stroke-width="0.2" points="356.43,-38.57 354.86,-28.09 349.55,-37.26 356.43,-38.57"/>
</g>
<!-- ADE&#45;&gt;ADA -->
<g id="edge40" class="edge">
<title>ADE&#45;&gt;ADA</title>
<path fill="none" stroke="gray" stroke-width="5" d="M355.54,-2931.89C351.3,-2927.31 348.21,-2923.5 348.21,-2923.5 348.21,-2923.5 251.32,-1986.41 217.05,-1642.97"/>
<polygon fill="gray" stroke="gray" stroke-width="5" points="221.4,-1642.55 216.06,-1633.03 212.7,-1643.42 221.4,-1642.55"/>
</g>
<!-- ADF&#45;&gt;ADA -->
<g id="edge41" class="edge">
<title>ADF&#45;&gt;ADA</title>
<path fill="none" stroke="gray" stroke-width="5" d="M355.54,-2852.89C351.3,-2848.31 348.21,-2844.5 348.21,-2844.5 348.21,-2844.5 252.49,-1971.65 217.68,-1642.42"/>
<polygon fill="gray" stroke="gray" stroke-width="5" points="222.07,-1642.37 216.67,-1632.89 213.37,-1643.29 222.07,-1642.37"/>
</g>
<!-- ADL&#45;&gt;ADA -->
<g id="edge42" class="edge">
<title>ADL&#45;&gt;ADA</title>
<path fill="none" stroke="gray" stroke-width="2" d="M355.54,-2773.89C351.3,-2769.31 348.21,-2765.5 348.21,-2765.5 348.21,-2765.5 253.26,-1952.07 218.1,-1639.27"/>
<polygon fill="gray" stroke="gray" stroke-width="2" points="221.6,-1639.11 217.01,-1629.56 214.65,-1639.89 221.6,-1639.11"/>
</g>
<!-- AIA&#45;&gt;ADA -->
<g id="edge43" class="edge">
<title>AIA&#45;&gt;ADA</title>
<path fill="none" stroke="red" stroke-width="5" d="M356.51,-2695.93C351.78,-2690.9 348.21,-2686.5 348.21,-2686.5 348.21,-2686.5 255.39,-1942.66 219.32,-1642.29"/>
<polygon fill="red" stroke="red" stroke-width="5" points="223.71,-1642.2 218.18,-1632.79 215.02,-1643.24 223.71,-1642.2"/>
</g>
<!-- AIB&#45;&gt;ADA -->
<g id="edge44" class="edge">
<title>AIB&#45;&gt;ADA</title>
<path fill="none" stroke="gray" stroke-width="0.2" d="M356.51,-2616.93C351.78,-2611.9 348.21,-2607.5 348.21,-2607.5 348.21,-2607.5 255.79,-1917.87 219.55,-1636.29"/>
<polygon fill="gray" stroke="gray" stroke-width="0.2" points="223.07,-1636.22 218.32,-1626.74 216.12,-1637.11 223.07,-1636.22"/>
</g>
<!-- AIZ&#45;&gt;ADA -->
<g id="edge45" class="edge">
<title>AIZ&#45;&gt;ADA</title>
<path fill="none" stroke="gray" stroke-width="nan" d="M356.51,-2537.93C351.78,-2532.9 348.21,-2528.5 348.21,-2528.5 348.21,-2528.5 255.28,-1886.42 219.25,-1626.22"/>
<polygon fill="gray" stroke="gray" stroke-width="nan" points="nan,-nan nan,-nan nan,-nan nan,-nan"/>
</g>
<!-- ASH&#45;&gt;ADA -->
<g id="edge46" class="edge">
<title>ASH&#45;&gt;ADA</title>
<path fill="none" stroke="red" stroke-width="5" d="M355.54,-2299.89C351.3,-2295.31 348.21,-2291.5 348.21,-2291.5 348.21,-2291.5 265.97,-1859.59 226.23,-1641.48"/>
<polygon fill="red" stroke="red" stroke-width="5" points="230.53,-1640.71 224.44,-1631.65 221.92,-1642.27 230.53,-1640.71"/>
</g>
<!-- AVA&#45;&gt;ADA -->
<g id="edge47" class="edge">
<title>AVA&#45;&gt;ADA</title>
<path fill="none" stroke="gray" stroke-width="2" d="M354.91,-2220.21C351,-2215.94 348.21,-2212.5 348.21,-2212.5 348.21,-2212.5 268.18,-1836.4 227.86,-1637.93"/>
<polygon fill="gray" stroke="gray" stroke-width="2" points="231.34,-1637.48 225.92,-1628.37 224.48,-1638.87 231.34,-1637.48"/>
</g>
<!-- AVJ&#45;&gt;ADA -->
<g id="edge48" class="edge">
<title>AVJ&#45;&gt;ADA</title>
<path fill="none" stroke="gray" stroke-width="0.2" d="M356.51,-1905.93C351.78,-1900.9 348.21,-1896.5 348.21,-1896.5 348.21,-1896.5 286.07,-1741.8 243.72,-1630.2"/>
<polygon fill="gray" stroke="gray" stroke-width="0.2" points="247.12,-1629.29 240.3,-1621.18 240.57,-1631.77 247.12,-1629.29"/>
</g>
<!-- AVK&#45;&gt;ADA -->
<g id="edge49" class="edge">
<title>AVK&#45;&gt;ADA</title>
<path fill="none" stroke="gray" stroke-width="0.2" d="M354.91,-1825.21C351,-1820.94 348.21,-1817.5 348.21,-1817.5 348.21,-1817.5 294.13,-1712.75 252.49,-1627.08"/>
<polygon fill="gray" stroke="gray" stroke-width="0.2" points="255.76,-1625.8 248.25,-1618.33 249.46,-1628.86 255.76,-1625.8"/>
</g>
<!-- AWA&#45;&gt;ADA -->
<g id="edge50" class="edge">
<title>AWA&#45;&gt;ADA</title>
<path fill="none" stroke="gray" stroke-width="0.2" d="M354.01,-1745.21C350.57,-1741.42 348.21,-1738.5 348.21,-1738.5 348.21,-1738.5 304.65,-1678.18 265.61,-1620.51"/>
<polygon fill="gray" stroke="gray" stroke-width="0.2" points="268.55,-1618.61 260.06,-1612.28 262.75,-1622.53 268.55,-1618.61"/>
</g>
<!-- AWB&#45;&gt;ADA -->
<g id="edge51" class="edge">
<title>AWB&#45;&gt;ADA</title>
<path fill="none" stroke="blue" stroke-width="2" d="M354.72,-1666.02C336.61,-1652.83 311.07,-1631.17 286.21,-1608.38"/>
<polygon fill="blue" stroke="blue" stroke-width="2" points="288.67,-1605.89 278.95,-1601.67 283.91,-1611.03 288.67,-1605.89"/>
</g>
<!-- DVA&#45;&gt;ADA -->
<g id="edge52" class="edge">
<title>DVA&#45;&gt;ADA</title>
<path fill="none" stroke="gray" stroke-width="2" d="M350.49,-1597.15C338.26,-1593.49 323.26,-1587.87 307.59,-1581.23"/>
<polygon fill="gray" stroke="gray" stroke-width="2" points="309.43,-1578.22 298.87,-1577.44 306.64,-1584.64 309.43,-1578.22"/>
</g>
<!-- OLQ&#45;&gt;ADA -->
<g id="edge53" class="edge">
<title>OLQ&#45;&gt;ADA</title>
<path fill="none" stroke="gray" stroke-width="0.2" d="M356.96,-1530.31C347.2,-1532.18 335.02,-1533.51 321.82,-1534.29"/>
<polygon fill="gray" stroke="gray" stroke-width="0.2" points="321.68,-1530.79 311.86,-1534.76 322.02,-1537.78 321.68,-1530.79"/>
</g>
<!-- PVP&#45;&gt;ADA -->
<g id="edge54" class="edge">
<title>PVP&#45;&gt;ADA</title>
<path fill="none" stroke="black" stroke-width="2" d="M365.83,-1455.59C354.76,-1463.69 338.13,-1473.27 319.71,-1482.6"/>
<polygon fill="black" stroke="black" stroke-width="2" points="318.17,-1479.46 310.75,-1487.03 321.27,-1485.74 318.17,-1479.46"/>
</g>
<!-- PVQ&#45;&gt;ADA -->
<g id="edge55" class="edge">
<title>PVQ&#45;&gt;ADA</title>
<path fill="none" stroke="gray" stroke-width="0.2" d="M369.93,-1377.92C355.78,-1395.73 328.3,-1423.3 299.78,-1449.5"/>
<polygon fill="gray" stroke="gray" stroke-width="0.2" points="297.77,-1446.6 292.74,-1455.92 302.48,-1451.77 297.77,-1446.6"/>
</g>
<!-- PVR&#45;&gt;ADA -->
<g id="edge56" class="edge">
<title>PVR&#45;&gt;ADA</title>
<path fill="none" stroke="blue" stroke-width="5" d="M375.15,-1300.05C366.36,-1320.53 348.21,-1343.5 348.21,-1343.5 348.21,-1343.5 318.95,-1383.81 286.91,-1425.97"/>
<polygon fill="blue" stroke="blue" stroke-width="5" points="283.51,-1423.21 280.92,-1433.81 290.46,-1428.52 283.51,-1423.21"/>
</g>
<!-- RIC&#45;&gt;ADA -->
<g id="edge57" class="edge">
<title>RIC&#45;&gt;ADA</title>
<path fill="none" stroke="black" stroke-width="5" d="M375.15,-1063.05C366.36,-1083.53 348.21,-1106.5 348.21,-1106.5 348.21,-1106.5 290.78,-1280.8 248.71,-1403.01"/>
<polygon fill="black" stroke="black" stroke-width="5" points="244.7,-1401.23 245.57,-1412.11 252.97,-1404.09 244.7,-1401.23"/>
</g>
<!-- RIF&#45;&gt;ADA -->
<g id="edge58" class="edge">
<title>RIF&#45;&gt;ADA</title>
<path fill="none" stroke="gray" stroke-width="2" d="M375.15,-984.05C366.36,-1004.53 348.21,-1027.5 348.21,-1027.5 348.21,-1027.5 283.94,-1258.06 241.58,-1403.57"/>
<polygon fill="gray" stroke="gray" stroke-width="2" points="238.22,-1402.58 238.78,-1413.16 244.94,-1404.54 238.22,-1402.58"/>
</g>
<!-- RIM&#45;&gt;ADA -->
<g id="edge59" class="edge">
<title>RIM&#45;&gt;ADA</title>
<path fill="none" stroke="black" stroke-width="5" d="M375.15,-904.9C366.36,-925.1 348.21,-947.5 348.21,-947.5 348.21,-947.5 279.75,-1231.39 237.57,-1399.2"/>
<polygon fill="black" stroke="black" stroke-width="5" points="233.36,-1398 235.16,-1408.76 241.84,-1400.14 233.36,-1398"/>
</g>
<!-- RMG&#45;&gt;ADA -->
<g id="edge60" class="edge">
<title>RMG&#45;&gt;ADA</title>
<path fill="none" stroke="gray" stroke-width="2" d="M375.15,-588.9C366.36,-609.1 348.21,-631.5 348.21,-631.5 348.21,-631.5 265.44,-1157.65 225.84,-1399.89"/>
<polygon fill="gray" stroke="gray" stroke-width="2" points="222.41,-1399.19 224.25,-1409.62 229.32,-1400.32 222.41,-1399.19"/>
</g>
<!-- SAA&#45;&gt;ADA -->
<g id="edge61" class="edge">
<title>SAA&#45;&gt;ADA</title>
<path fill="none" stroke="blue" stroke-width="2" d="M375.15,-509.9C366.36,-530.1 348.21,-552.5 348.21,-552.5 348.21,-552.5 263.07,-1140.79 224.18,-1399.59"/>
<polygon fill="blue" stroke="blue" stroke-width="2" points="220.73,-1399 222.7,-1409.41 227.65,-1400.05 220.73,-1399"/>
</g>
<!-- SDQ&#45;&gt;ADA -->
<g id="edge62" class="edge">
<title>SDQ&#45;&gt;ADA</title>
<path fill="none" stroke="gray" stroke-width="0.2" d="M375.15,-430.9C366.36,-451.1 348.21,-473.5 348.21,-473.5 348.21,-473.5 260.37,-1128.96 222.38,-1402.06"/>
<polygon fill="gray" stroke="gray" stroke-width="0.2" points="218.95,-1401.32 221.04,-1411.71 225.88,-1402.29 218.95,-1401.32"/>
</g>
<!-- URA&#45;&gt;ADA -->
<g id="edge63" class="edge">
<title>URA&#45;&gt;ADA</title>
<path fill="none" stroke="gray" stroke-width="0.2" d="M375.15,-193.9C366.36,-214.1 348.21,-236.5 348.21,-236.5 348.21,-236.5 255.27,-1084.02 219.24,-1401.27"/>
<polygon fill="gray" stroke="gray" stroke-width="0.2" points="215.78,-1400.79 218.13,-1411.12 222.73,-1401.58 215.78,-1400.79"/>
</g>
<!-- URX&#45;&gt;ADA -->
<g id="edge64" class="edge">
<title>URX&#45;&gt;ADA</title>
<path fill="none" stroke="gray" stroke-width="5" d="M375.15,-114.9C366.36,-135.1 348.21,-157.5 348.21,-157.5 348.21,-157.5 254.9,-1060 219.03,-1395.56"/>
<polygon fill="gray" stroke="gray" stroke-width="5" points="214.69,-1394.97 217.98,-1405.38 223.39,-1395.9 214.69,-1394.97"/>
</g>
<!-- URY&#45;&gt;ADA -->
<g id="edge65" class="edge">
<title>URY&#45;&gt;ADA</title>
<path fill="none" stroke="gray" stroke-width="0.2" d="M375.15,-35.9C366.36,-56.1 348.21,-78.5 348.21,-78.5 348.21,-78.5 252.49,-1057.1 217.68,-1401.26"/>
<polygon fill="gray" stroke="gray" stroke-width="0.2" points="214.2,-1400.9 216.67,-1411.2 221.16,-1401.6 214.2,-1400.9"/>
</g>
<!-- AIM -->
<g id="node40" class="node">
<title>AIM</title>
<ellipse fill="none" stroke="black" cx="30.11" cy="-2072" rx="28.11" ry="18"/>
<text text-anchor="middle" x="30.11" y="-2066.57" font-family="Times New Roman,serif" font-size="14.00">AIM</text>
</g>
<!-- AIM&#45;&gt;ADA -->
<g id="edge66" class="edge">
<title>AIM&#45;&gt;ADA</title>
<path fill="none" stroke="gray" stroke-width="0.2" d="M43.28,-2055.69C51.26,-2045 60.21,-2033 60.21,-2033 60.21,-2033 129.42,-1784.25 171.54,-1632.84"/>
<polygon fill="gray" stroke="gray" stroke-width="0.2" points="174.88,-1633.88 174.19,-1623.31 168.14,-1632 174.88,-1633.88"/>
</g>
<!-- ASI -->
<g id="node41" class="node">
<title>ASI</title>
<ellipse fill="none" stroke="black" cx="30.11" cy="-1993" rx="27" ry="18"/>
<text text-anchor="middle" x="30.11" y="-1987.58" font-family="Times New Roman,serif" font-size="14.00">ASI</text>
</g>
<!-- ASI&#45;&gt;ADA -->
<g id="edge67" class="edge">
<title>ASI&#45;&gt;ADA</title>
<path fill="none" stroke="gray" stroke-width="0.2" d="M42.94,-1977.14C51,-1966.34 60.21,-1954 60.21,-1954 60.21,-1954 123.99,-1759.98 166.36,-1631.09"/>
<polygon fill="gray" stroke="gray" stroke-width="0.2" points="169.61,-1632.42 169.41,-1621.83 162.96,-1630.23 169.61,-1632.42"/>
</g>
<!-- ASK -->
<g id="node42" class="node">
<title>ASK</title>
<ellipse fill="none" stroke="black" cx="30.11" cy="-1914" rx="29.11" ry="18"/>
<text text-anchor="middle" x="30.11" y="-1908.58" font-family="Times New Roman,serif" font-size="14.00">ASK</text>
</g>
<!-- ASK&#45;&gt;ADA -->
<g id="edge68" class="edge">
<title>ASK&#45;&gt;ADA</title>
<path fill="none" stroke="gray" stroke-width="0.2" d="M43.28,-1897.69C51.26,-1887 60.21,-1875 60.21,-1875 60.21,-1875 117.21,-1733.1 159.24,-1628.48"/>
<polygon fill="gray" stroke="gray" stroke-width="0.2" points="162.41,-1629.98 162.89,-1619.39 155.91,-1627.37 162.41,-1629.98"/>
</g>
<!-- AVF -->
<g id="node43" class="node">
<title>AVF</title>
<ellipse fill="none" stroke="black" cx="30.11" cy="-1835" rx="29.11" ry="18"/>
<text text-anchor="middle" x="30.11" y="-1829.58" font-family="Times New Roman,serif" font-size="14.00">AVF</text>
</g>
<!-- AVF&#45;&gt;ADA -->
<g id="edge69" class="edge">
<title>AVF&#45;&gt;ADA</title>
<path fill="none" stroke="gray" stroke-width="0.2" d="M43.28,-1818.69C51.26,-1808 60.21,-1796 60.21,-1796 60.21,-1796 108.66,-1702.15 149.16,-1623.71"/>
<polygon fill="gray" stroke="gray" stroke-width="0.2" points="152.18,-1625.48 153.66,-1614.98 145.96,-1622.26 152.18,-1625.48"/>
</g>
<!-- BDU -->
<g id="node44" class="node">
<title>BDU</title>
<ellipse fill="none" stroke="black" cx="30.11" cy="-1756" rx="29.61" ry="18"/>
<text text-anchor="middle" x="30.11" y="-1750.58" font-family="Times New Roman,serif" font-size="14.00">BDU</text>
</g>
<!-- BDU&#45;&gt;ADA -->
<g id="edge70" class="edge">
<title>BDU&#45;&gt;ADA</title>
<path fill="none" stroke="gray" stroke-width="0.2" d="M43.28,-1739.69C51.26,-1729 60.21,-1717 60.21,-1717 60.21,-1717 97.65,-1665.16 134.22,-1614.53"/>
<polygon fill="gray" stroke="gray" stroke-width="0.2" points="136.88,-1616.82 139.9,-1606.67 131.2,-1612.73 136.88,-1616.82"/>
</g>
<!-- DVC -->
<g id="node45" class="node">
<title>DVC</title>
<ellipse fill="none" stroke="black" cx="30.11" cy="-1677" rx="30.11" ry="18"/>
<text text-anchor="middle" x="30.11" y="-1671.58" font-family="Times New Roman,serif" font-size="14.00">DVC</text>
</g>
<!-- DVC&#45;&gt;ADA -->
<g id="edge71" class="edge">
<title>DVC&#45;&gt;ADA</title>
<path fill="none" stroke="gray" stroke-width="0.2" d="M47.61,-1661.85C63.91,-1646.88 90.16,-1622.78 116.5,-1598.61"/>
<polygon fill="gray" stroke="gray" stroke-width="0.2" points="118.7,-1601.34 123.7,-1592 113.96,-1596.18 118.7,-1601.34"/>
</g>
<!-- FLP -->
<g id="node46" class="node">
<title>FLP</title>
<ellipse fill="none" stroke="black" cx="30.11" cy="-1598" rx="27.11" ry="18"/>
<text text-anchor="middle" x="30.11" y="-1592.58" font-family="Times New Roman,serif" font-size="14.00">FLP</text>
</g>
<!-- FLP&#45;&gt;ADA -->
<g id="edge72" class="edge">
<title>FLP&#45;&gt;ADA</title>
<path fill="none" stroke="red" stroke-width="0.2" d="M52.9,-1587.99C64.58,-1582.63 79.92,-1575.59 96.34,-1568.05"/>
<polygon fill="red" stroke="red" stroke-width="0.2" points="97.66,-1571.3 105.29,-1563.95 94.74,-1564.94 97.66,-1571.3"/>
</g>
<!-- HSN -->
<g id="node47" class="node">
<title>HSN</title>
<ellipse fill="none" stroke="black" cx="30.11" cy="-1519" rx="29.11" ry="18"/>
<text text-anchor="middle" x="30.11" y="-1513.58" font-family="Times New Roman,serif" font-size="14.00">HSN</text>
</g>
<!-- HSN&#45;&gt;ADA -->
<g id="edge73" class="edge">
<title>HSN&#45;&gt;ADA</title>
<path fill="none" stroke="gray" stroke-width="2" d="M59.53,-1519C66.58,-1519 74.6,-1519 83.14,-1519"/>
<polygon fill="gray" stroke="gray" stroke-width="2" points="82.97,-1522.5 92.97,-1519 82.97,-1515.5 82.97,-1522.5"/>
</g>
<!-- IL2 -->
<g id="node48" class="node">
<title>IL2</title>
<ellipse fill="none" stroke="black" cx="30.11" cy="-1440" rx="27" ry="18"/>
<text text-anchor="middle" x="30.11" y="-1434.58" font-family="Times New Roman,serif" font-size="14.00">IL2</text>
</g>
<!-- IL2&#45;&gt;ADA -->
<g id="edge74" class="edge">
<title>IL2&#45;&gt;ADA</title>
<path fill="none" stroke="gray" stroke-width="nan" d="M52.9,-1450.01C66.74,-1456.36 85.73,-1465.07 105.56,-1474.18"/>
<polygon fill="gray" stroke="gray" stroke-width="nan" points="nan,-nan nan,-nan nan,-nan nan,-nan"/>
</g>
<!-- PVC -->
<g id="node49" class="node">
<title>PVC</title>
<ellipse fill="none" stroke="black" cx="30.11" cy="-1361" rx="29.11" ry="18"/>
<text text-anchor="middle" x="30.11" y="-1355.58" font-family="Times New Roman,serif" font-size="14.00">PVC</text>
</g>
<!-- PVC&#45;&gt;ADA -->
<g id="edge75" class="edge">
<title>PVC&#45;&gt;ADA</title>
<path fill="none" stroke="gray" stroke-width="0.2" d="M47.3,-1375.86C63.59,-1390.82 90.04,-1415.1 116.56,-1439.45"/>
<polygon fill="gray" stroke="gray" stroke-width="0.2" points="114.08,-1441.92 123.81,-1446.11 118.81,-1436.77 114.08,-1441.92"/>
</g>
<!-- PVN -->
<g id="node50" class="node">
<title>PVN</title>
<ellipse fill="none" stroke="black" cx="30.11" cy="-1282" rx="29.11" ry="18"/>
<text text-anchor="middle" x="30.11" y="-1276.58" font-family="Times New Roman,serif" font-size="14.00">PVN</text>
</g>
<!-- PVN&#45;&gt;ADA -->
<g id="edge76" class="edge">
<title>PVN&#45;&gt;ADA</title>
<path fill="none" stroke="gray" stroke-width="0.2" d="M42.94,-1298.27C51,-1309.34 60.21,-1322 60.21,-1322 60.21,-1322 97.52,-1373.39 134.02,-1423.68"/>
<polygon fill="gray" stroke="gray" stroke-width="0.2" points="130.98,-1425.45 139.69,-1431.49 136.65,-1421.34 130.98,-1425.45"/>
</g>
<!-- RIR -->
<g id="node51" class="node">
<title>RIR</title>
<ellipse fill="none" stroke="black" cx="30.11" cy="-1203" rx="27" ry="18"/>
<text text-anchor="middle" x="30.11" y="-1197.58" font-family="Times New Roman,serif" font-size="14.00">RIR</text>
</g>
<!-- RIR&#45;&gt;ADA -->
<g id="edge77" class="edge">
<title>RIR&#45;&gt;ADA</title>
<path fill="none" stroke="gray" stroke-width="0.2" d="M42.94,-1219.27C51,-1230.34 60.21,-1243 60.21,-1243 60.21,-1243 108.5,-1336.21 148.96,-1414.29"/>
<polygon fill="gray" stroke="gray" stroke-width="0.2" points="145.75,-1415.71 153.46,-1422.97 151.97,-1412.49 145.75,-1415.71"/>
</g>
<!-- SMB -->
<g id="node52" class="node">
<title>SMB</title>
<ellipse fill="none" stroke="black" cx="30.11" cy="-1124" rx="30.11" ry="18"/>
<text text-anchor="middle" x="30.11" y="-1118.58" font-family="Times New Roman,serif" font-size="14.00">SMB</text>
</g>
<!-- SMB&#45;&gt;ADA -->
<g id="edge78" class="edge">
<title>SMB&#45;&gt;ADA</title>
<path fill="none" stroke="gray" stroke-width="0.2" d="M42.94,-1140.27C51,-1151.34 60.21,-1164 60.21,-1164 60.21,-1164 117.21,-1305.5 159.24,-1409.83"/>
<polygon fill="gray" stroke="gray" stroke-width="0.2" points="155.9,-1410.92 162.89,-1418.89 162.4,-1408.3 155.9,-1410.92"/>
</g>
<!-- URB -->
<g id="node53" class="node">
<title>URB</title>
<ellipse fill="none" stroke="black" cx="30.11" cy="-1045" rx="29.61" ry="18"/>
<text text-anchor="middle" x="30.11" y="-1039.58" font-family="Times New Roman,serif" font-size="14.00">URB</text>
</g>
<!-- URB&#45;&gt;ADA -->
<g id="edge79" class="edge">
<title>URB&#45;&gt;ADA</title>
<path fill="none" stroke="red" stroke-width="5" d="M42.94,-1061.27C51,-1072.34 60.21,-1085 60.21,-1085 60.21,-1085 122.01,-1272.54 164.35,-1401.06"/>
<polygon fill="red" stroke="red" stroke-width="5" points="160.18,-1402.37 167.46,-1410.5 168.49,-1399.63 160.18,-1402.37"/>
</g>
<!-- VBn -->
<g id="node54" class="node">
<title>VBn</title>
<ellipse fill="none" stroke="black" cx="30.11" cy="-966" rx="27.61" ry="18"/>
<text text-anchor="middle" x="30.11" y="-960.58" font-family="Times New Roman,serif" font-size="14.00">VBn</text>
</g>
<!-- VBn&#45;&gt;ADA -->
<g id="edge80" class="edge">
<title>VBn&#45;&gt;ADA</title>
<path fill="none" stroke="gray" stroke-width="0.2" d="M42.94,-982.27C51,-993.34 60.21,-1006 60.21,-1006 60.21,-1006 129.32,-1253.92 171.45,-1405.07"/>
<polygon fill="gray" stroke="gray" stroke-width="0.2" points="168.05,-1405.89 174.11,-1414.59 174.79,-1404.01 168.05,-1405.89"/>
</g>
</g>
</svg>
