<?xml version="1.0" encoding="UTF-8" standalone="no"?>
<!DOCTYPE svg PUBLIC "-//W3C//DTD SVG 1.1//EN"
 "http://www.w3.org/Graphics/SVG/1.1/DTD/svg11.dtd">
<!-- Generated by graphviz version 11.0.0 (20240428.1522)
 -->
<!-- Pages: 1 -->
<svg width="324pt" height="3678pt"
 viewBox="0.00 0.00 324.20 3678.00" xmlns="http://www.w3.org/2000/svg" xmlns:xlink="http://www.w3.org/1999/xlink">
<g id="graph0" class="graph" transform="scale(1 1) rotate(0) translate(4 3674)">
<polygon fill="white" stroke="none" points="-4,4 -4,-3674 320.2,-3674 320.2,4 -4,4"/>
<!-- ADE -->
<g id="node1" class="node">
<title>ADE</title>
<ellipse fill="none" stroke="black" cx="108" cy="-1993" rx="108" ry="108"/>
<text text-anchor="middle" x="108" y="-1974" font-family="Times New Roman,serif" font-size="50.00">ADE</text>
</g>
<!-- ADE&#45;&gt;ADE -->
<g id="edge1" class="edge">
<title>ADE&#45;&gt;ADE</title>
<path fill="none" stroke="red" stroke-width="5" d="M75.3,-2096.39C77.24,-2123.51 88.14,-2144 108,-2144 123.75,-2144 133.87,-2131.12 138.35,-2112.26"/>
<polygon fill="red" stroke="red" stroke-width="5" points="142.65,-2113.1 139.79,-2102.56 133.99,-2111.81 142.65,-2113.1"/>
</g>
<!-- ADA -->
<g id="node2" class="node">
<title>ADA</title>
<ellipse fill="none" stroke="black" cx="284.1" cy="-3652" rx="30.11" ry="18"/>
<text text-anchor="middle" x="284.1" y="-3646.57" font-family="Times New Roman,serif" font-size="14.00">ADA</text>
</g>
<!-- ADE&#45;&gt;ADA -->
<g id="edge2" class="edge">
<title>ADE&#45;&gt;ADA</title>
<path fill="none" stroke="gray" stroke-width="5" d="M119.31,-2100.88C152.13,-2460.12 252,-3591.5 252,-3591.5 252,-3591.5 262.47,-3604.63 271.26,-3619.85"/>
<polygon fill="gray" stroke="gray" stroke-width="5" points="267.25,-3621.62 275.68,-3628.54 275.05,-3617.65 267.25,-3621.62"/>
</g>
<!-- AIN -->
<g id="node3" class="node">
<title>AIN</title>
<ellipse fill="none" stroke="black" cx="284.1" cy="-3573" rx="27" ry="18"/>
<text text-anchor="middle" x="284.1" y="-3567.57" font-family="Times New Roman,serif" font-size="14.00">AIN</text>
</g>
<!-- ADE&#45;&gt;AIN -->
<g id="edge3" class="edge">
<title>ADE&#45;&gt;AIN</title>
<path fill="none" stroke="gray" stroke-width="0.2" d="M119,-2100.75C151.49,-2450.86 252,-3534 252,-3534 252,-3534 257.65,-3541.09 264.14,-3549.22"/>
<polygon fill="gray" stroke="gray" stroke-width="0.2" points="261.29,-3551.26 270.26,-3556.9 266.76,-3546.9 261.29,-3551.26"/>
</g>
<!-- ALM -->
<g id="node4" class="node">
<title>ALM</title>
<ellipse fill="none" stroke="black" cx="284.1" cy="-3494" rx="30.61" ry="18"/>
<text text-anchor="middle" x="284.1" y="-3488.57" font-family="Times New Roman,serif" font-size="14.00">ALM</text>
</g>
<!-- ADE&#45;&gt;ALM -->
<g id="edge4" class="edge">
<title>ADE&#45;&gt;ALM</title>
<path fill="none" stroke="red" stroke-width="0.2" d="M120.43,-2100.5C154.34,-2435.01 252,-3433.5 252,-3433.5 252,-3433.5 264.95,-3449.74 274.14,-3467.04"/>
<polygon fill="red" stroke="red" stroke-width="0.2" points="270.88,-3468.34 278.38,-3475.83 277.19,-3465.3 270.88,-3468.34"/>
</g>
<!-- ALN -->
<g id="node5" class="node">
<title>ALN</title>
<ellipse fill="none" stroke="black" cx="284.1" cy="-3415" rx="29.11" ry="18"/>
<text text-anchor="middle" x="284.1" y="-3409.57" font-family="Times New Roman,serif" font-size="14.00">ALN</text>
</g>
<!-- ADE&#45;&gt;ALN -->
<g id="edge5" class="edge">
<title>ADE&#45;&gt;ALN</title>
<path fill="none" stroke="red" stroke-width="2" d="M121.1,-2100.42C155.6,-2422.2 252,-3354.5 252,-3354.5 252,-3354.5 263.79,-3369.29 272.85,-3385.67"/>
<polygon fill="red" stroke="red" stroke-width="2" points="269.6,-3386.98 277.17,-3394.39 275.87,-3383.87 269.6,-3386.98"/>
</g>
<!-- AQR -->
<g id="node6" class="node">
<title>AQR</title>
<ellipse fill="none" stroke="black" cx="284.1" cy="-3336" rx="30.61" ry="18"/>
<text text-anchor="middle" x="284.1" y="-3330.57" font-family="Times New Roman,serif" font-size="14.00">AQR</text>
</g>
<!-- ADE&#45;&gt;AQR -->
<g id="edge6" class="edge">
<title>ADE&#45;&gt;AQR</title>
<path fill="none" stroke="gray" stroke-width="5" d="M121.88,-2100.58C157.03,-2409.48 252,-3275.5 252,-3275.5 252,-3275.5 262.47,-3288.63 271.26,-3303.85"/>
<polygon fill="gray" stroke="gray" stroke-width="5" points="267.25,-3305.62 275.68,-3312.54 275.05,-3301.65 267.25,-3305.62"/>
</g>
<!-- ASI -->
<g id="node7" class="node">
<title>ASI</title>
<ellipse fill="none" stroke="black" cx="284.1" cy="-3257" rx="27" ry="18"/>
<text text-anchor="middle" x="284.1" y="-3251.57" font-family="Times New Roman,serif" font-size="14.00">ASI</text>
</g>
<!-- ADE&#45;&gt;ASI -->
<g id="edge7" class="edge">
<title>ADE&#45;&gt;ASI</title>
<path fill="none" stroke="gray" stroke-width="0.2" d="M121.56,-2100.64C156.46,-2399.56 252,-3218 252,-3218 252,-3218 257.65,-3225.09 264.14,-3233.22"/>
<polygon fill="gray" stroke="gray" stroke-width="0.2" points="261.29,-3235.26 270.26,-3240.9 266.76,-3230.9 261.29,-3235.26"/>
</g>
<!-- ASJ -->
<g id="node8" class="node">
<title>ASJ</title>
<ellipse fill="none" stroke="black" cx="284.1" cy="-3178" rx="27" ry="18"/>
<text text-anchor="middle" x="284.1" y="-3172.57" font-family="Times New Roman,serif" font-size="14.00">ASJ</text>
</g>
<!-- ADE&#45;&gt;ASJ -->
<g id="edge8" class="edge">
<title>ADE&#45;&gt;ASJ</title>
<path fill="none" stroke="gray" stroke-width="0.2" d="M122.39,-2100.3C157.94,-2385.19 252,-3139 252,-3139 252,-3139 257.65,-3146.09 264.14,-3154.22"/>
<polygon fill="gray" stroke="gray" stroke-width="0.2" points="261.29,-3156.26 270.26,-3161.9 266.76,-3151.9 261.29,-3156.26"/>
</g>
<!-- AVA -->
<g id="node9" class="node">
<title>AVA</title>
<ellipse fill="none" stroke="black" cx="284.1" cy="-3099" rx="30.11" ry="18"/>
<text text-anchor="middle" x="284.1" y="-3093.57" font-family="Times New Roman,serif" font-size="14.00">AVA</text>
</g>
<!-- ADE&#45;&gt;AVA -->
<g id="edge9" class="edge">
<title>ADE&#45;&gt;AVA</title>
<path fill="none" stroke="black" stroke-width="5" d="M123.37,-2100.19C159.63,-2370.77 252,-3060 252,-3060 252,-3060 255.55,-3064.46 260.26,-3070.36"/>
<polygon fill="black" stroke="black" stroke-width="5" points="256.55,-3072.72 266.2,-3077.81 263.39,-3067.26 256.55,-3072.72"/>
</g>
<!-- AVB -->
<g id="node10" class="node">
<title>AVB</title>
<ellipse fill="none" stroke="black" cx="284.1" cy="-3020" rx="29.61" ry="18"/>
<text text-anchor="middle" x="284.1" y="-3014.57" font-family="Times New Roman,serif" font-size="14.00">AVB</text>
</g>
<!-- ADE&#45;&gt;AVB -->
<g id="edge10" class="edge">
<title>ADE&#45;&gt;AVB</title>
<path fill="none" stroke="gray" stroke-width="0.2" d="M124.51,-2100.14C161.53,-2355.91 252,-2981 252,-2981 252,-2981 257.38,-2987.75 263.67,-2995.63"/>
<polygon fill="gray" stroke="gray" stroke-width="0.2" points="260.93,-2997.81 269.9,-3003.45 266.4,-2993.45 260.93,-2997.81"/>
</g>
<!-- AVD -->
<g id="node11" class="node">
<title>AVD</title>
<ellipse fill="none" stroke="black" cx="284.1" cy="-2941" rx="30.11" ry="18"/>
<text text-anchor="middle" x="284.1" y="-2935.57" font-family="Times New Roman,serif" font-size="14.00">AVD</text>
</g>
<!-- ADE&#45;&gt;AVD -->
<g id="edge11" class="edge">
<title>ADE&#45;&gt;AVD</title>
<path fill="none" stroke="gray" stroke-width="0.2" d="M125.82,-2099.95C163.63,-2340.23 252,-2902 252,-2902 252,-2902 257.38,-2908.75 263.67,-2916.63"/>
<polygon fill="gray" stroke="gray" stroke-width="0.2" points="260.93,-2918.81 269.9,-2924.45 266.4,-2914.45 260.93,-2918.81"/>
</g>
<!-- AVE -->
<g id="node12" class="node">
<title>AVE</title>
<ellipse fill="none" stroke="black" cx="284.1" cy="-2862" rx="29.11" ry="18"/>
<text text-anchor="middle" x="284.1" y="-2856.57" font-family="Times New Roman,serif" font-size="14.00">AVE</text>
</g>
<!-- ADE&#45;&gt;AVE -->
<g id="edge12" class="edge">
<title>ADE&#45;&gt;AVE</title>
<path fill="none" stroke="red" stroke-width="0.2" d="M127.33,-2099.39C165.92,-2323.35 252,-2823 252,-2823 252,-2823 257.65,-2830.09 264.14,-2838.22"/>
<polygon fill="red" stroke="red" stroke-width="0.2" points="261.29,-2840.26 270.26,-2845.9 266.76,-2835.9 261.29,-2840.26"/>
</g>
<!-- AVH -->
<g id="node13" class="node">
<title>AVH</title>
<ellipse fill="none" stroke="black" cx="284.1" cy="-2783" rx="30.11" ry="18"/>
<text text-anchor="middle" x="284.1" y="-2777.57" font-family="Times New Roman,serif" font-size="14.00">AVH</text>
</g>
<!-- ADE&#45;&gt;AVH -->
<g id="edge13" class="edge">
<title>ADE&#45;&gt;AVH</title>
<path fill="none" stroke="gray" stroke-width="0.2" d="M129.19,-2099.01C168.6,-2306.02 252,-2744 252,-2744 252,-2744 257.38,-2750.75 263.67,-2758.63"/>
<polygon fill="gray" stroke="gray" stroke-width="0.2" points="260.93,-2760.81 269.9,-2766.45 266.4,-2756.45 260.93,-2760.81"/>
</g>
<!-- AVJ -->
<g id="node14" class="node">
<title>AVJ</title>
<ellipse fill="none" stroke="black" cx="284.1" cy="-2704" rx="27.11" ry="18"/>
<text text-anchor="middle" x="284.1" y="-2698.57" font-family="Times New Roman,serif" font-size="14.00">AVJ</text>
</g>
<!-- ADE&#45;&gt;AVJ -->
<g id="edge14" class="edge">
<title>ADE&#45;&gt;AVJ</title>
<path fill="none" stroke="gray" stroke-width="0.2" d="M131.5,-2098.74C171.77,-2287.98 252,-2665 252,-2665 252,-2665 257.65,-2672.09 264.14,-2680.22"/>
<polygon fill="gray" stroke="gray" stroke-width="0.2" points="261.29,-2682.26 270.26,-2687.9 266.76,-2677.9 261.29,-2682.26"/>
</g>
<!-- AVK -->
<g id="node15" class="node">
<title>AVK</title>
<ellipse fill="none" stroke="black" cx="284.1" cy="-2625" rx="30.11" ry="18"/>
<text text-anchor="middle" x="284.1" y="-2619.57" font-family="Times New Roman,serif" font-size="14.00">AVK</text>
</g>
<!-- ADE&#45;&gt;AVK -->
<g id="edge15" class="edge">
<title>ADE&#45;&gt;AVK</title>
<path fill="none" stroke="gray" stroke-width="0.2" d="M134.32,-2097.99C175.39,-2268.31 252,-2586 252,-2586 252,-2586 257.38,-2592.75 263.67,-2600.63"/>
<polygon fill="gray" stroke="gray" stroke-width="0.2" points="260.93,-2602.81 269.9,-2608.45 266.4,-2598.45 260.93,-2602.81"/>
</g>
<!-- AVL -->
<g id="node16" class="node">
<title>AVL</title>
<ellipse fill="none" stroke="black" cx="284.1" cy="-2546" rx="29.11" ry="18"/>
<text text-anchor="middle" x="284.1" y="-2540.57" font-family="Times New Roman,serif" font-size="14.00">AVL</text>
</g>
<!-- ADE&#45;&gt;AVL -->
<g id="edge16" class="edge">
<title>ADE&#45;&gt;AVL</title>
<path fill="none" stroke="gray" stroke-width="0.2" d="M137.94,-2097.02C179.72,-2247.21 252,-2507 252,-2507 252,-2507 257.65,-2514.09 264.14,-2522.22"/>
<polygon fill="gray" stroke="gray" stroke-width="0.2" points="261.29,-2524.26 270.26,-2529.9 266.76,-2519.9 261.29,-2524.26"/>
</g>
<!-- BDU -->
<g id="node17" class="node">
<title>BDU</title>
<ellipse fill="none" stroke="black" cx="284.1" cy="-2467" rx="29.61" ry="18"/>
<text text-anchor="middle" x="284.1" y="-2461.57" font-family="Times New Roman,serif" font-size="14.00">BDU</text>
</g>
<!-- ADE&#45;&gt;BDU -->
<g id="edge17" class="edge">
<title>ADE&#45;&gt;BDU</title>
<path fill="none" stroke="gray" stroke-width="0.2" d="M147.23,-2093.99C189.59,-2216.64 252,-2406.5 252,-2406.5 252,-2406.5 264.95,-2422.74 274.14,-2440.04"/>
<polygon fill="gray" stroke="gray" stroke-width="0.2" points="270.88,-2441.34 278.38,-2448.83 277.19,-2438.3 270.88,-2441.34"/>
</g>
<!-- CEP -->
<g id="node18" class="node">
<title>CEP</title>
<ellipse fill="none" stroke="black" cx="284.1" cy="-2388" rx="28.11" ry="18"/>
<text text-anchor="middle" x="284.1" y="-2382.57" font-family="Times New Roman,serif" font-size="14.00">CEP</text>
</g>
<!-- ADE&#45;&gt;CEP -->
<g id="edge18" class="edge">
<title>ADE&#45;&gt;CEP</title>
<path fill="none" stroke="red" stroke-width="5" d="M154.84,-2090.79C196.66,-2189.74 252,-2327.5 252,-2327.5 252,-2327.5 262.47,-2340.63 271.26,-2355.85"/>
<polygon fill="red" stroke="red" stroke-width="5" points="267.25,-2357.62 275.68,-2364.54 275.05,-2353.65 267.25,-2357.62"/>
</g>
<!-- DVA -->
<g id="node19" class="node">
<title>DVA</title>
<ellipse fill="none" stroke="black" cx="284.1" cy="-2309" rx="30.11" ry="18"/>
<text text-anchor="middle" x="284.1" y="-2303.57" font-family="Times New Roman,serif" font-size="14.00">DVA</text>
</g>
<!-- ADE&#45;&gt;DVA -->
<g id="edge19" class="edge">
<title>ADE&#45;&gt;DVA</title>
<path fill="none" stroke="gray" stroke-width="0.2" d="M165.52,-2084.97C205.49,-2158.4 252,-2248.5 252,-2248.5 252,-2248.5 264.95,-2264.74 274.14,-2282.04"/>
<polygon fill="gray" stroke="gray" stroke-width="0.2" points="270.88,-2283.34 278.38,-2290.83 277.19,-2280.3 270.88,-2283.34"/>
</g>
<!-- DVC -->
<g id="node20" class="node">
<title>DVC</title>
<ellipse fill="none" stroke="black" cx="284.1" cy="-2230" rx="30.11" ry="18"/>
<text text-anchor="middle" x="284.1" y="-2224.57" font-family="Times New Roman,serif" font-size="14.00">DVC</text>
</g>
<!-- ADE&#45;&gt;DVC -->
<g id="edge20" class="edge">
<title>ADE&#45;&gt;DVC</title>
<path fill="none" stroke="gray" stroke-width="2" d="M180.71,-2073.46C216.39,-2120.19 252,-2169.5 252,-2169.5 252,-2169.5 263.79,-2184.29 272.85,-2200.67"/>
<polygon fill="gray" stroke="gray" stroke-width="2" points="269.6,-2201.98 277.17,-2209.39 275.87,-2198.87 269.6,-2201.98"/>
</g>
<!-- FLP -->
<g id="node21" class="node">
<title>FLP</title>
<ellipse fill="none" stroke="black" cx="284.1" cy="-2151" rx="27.11" ry="18"/>
<text text-anchor="middle" x="284.1" y="-2145.57" font-family="Times New Roman,serif" font-size="14.00">FLP</text>
</g>
<!-- ADE&#45;&gt;FLP -->
<g id="edge21" class="edge">
<title>ADE&#45;&gt;FLP</title>
<path fill="none" stroke="red" stroke-width="2" d="M196.05,-2055.88C222.16,-2079.57 248.27,-2105.2 264.98,-2124.23"/>
<polygon fill="red" stroke="red" stroke-width="2" points="262.19,-2126.35 271.3,-2131.76 267.55,-2121.85 262.19,-2126.35"/>
</g>
<!-- IL1 -->
<g id="node22" class="node">
<title>IL1</title>
<ellipse fill="none" stroke="black" cx="284.1" cy="-2072" rx="27" ry="18"/>
<text text-anchor="middle" x="284.1" y="-2066.57" font-family="Times New Roman,serif" font-size="14.00">IL1</text>
</g>
<!-- ADE&#45;&gt;IL1 -->
<g id="edge22" class="edge">
<title>ADE&#45;&gt;IL1</title>
<path fill="none" stroke="red" stroke-width="5" d="M211.79,-2023.75C228.01,-2031.61 243.48,-2039.89 255.84,-2047.53"/>
<polygon fill="red" stroke="red" stroke-width="5" points="253.28,-2051.08 264.03,-2052.99 258.14,-2043.8 253.28,-2051.08"/>
</g>
<!-- IL2 -->
<g id="node23" class="node">
<title>IL2</title>
<ellipse fill="none" stroke="black" cx="284.1" cy="-1993" rx="27" ry="18"/>
<text text-anchor="middle" x="284.1" y="-1987.58" font-family="Times New Roman,serif" font-size="14.00">IL2</text>
</g>
<!-- ADE&#45;&gt;IL2 -->
<g id="edge23" class="edge">
<title>ADE&#45;&gt;IL2</title>
<path fill="none" stroke="red" stroke-width="5" d="M215.29,-1977.23C226.3,-1977.64 236.88,-1978.42 246.27,-1979.55"/>
<polygon fill="red" stroke="red" stroke-width="5" points="245.48,-1983.85 256.04,-1981.09 246.85,-1975.21 245.48,-1983.85"/>
</g>
<!-- OLL -->
<g id="node24" class="node">
<title>OLL</title>
<ellipse fill="none" stroke="black" cx="284.1" cy="-1914" rx="28.61" ry="18"/>
<text text-anchor="middle" x="284.1" y="-1908.58" font-family="Times New Roman,serif" font-size="14.00">OLL</text>
</g>
<!-- ADE&#45;&gt;OLL -->
<g id="edge24" class="edge">
<title>ADE&#45;&gt;OLL</title>
<path fill="none" stroke="red" stroke-width="2" d="M199.88,-1935.65C214.96,-1928.92 229.9,-1922.9 242.86,-1918.42"/>
<polygon fill="red" stroke="red" stroke-width="2" points="243.77,-1921.8 252.22,-1915.41 241.63,-1915.14 243.77,-1921.8"/>
</g>
<!-- PVN -->
<g id="node25" class="node">
<title>PVN</title>
<ellipse fill="none" stroke="black" cx="284.1" cy="-1835" rx="29.11" ry="18"/>
<text text-anchor="middle" x="284.1" y="-1829.58" font-family="Times New Roman,serif" font-size="14.00">PVN</text>
</g>
<!-- ADE&#45;&gt;PVN -->
<g id="edge25" class="edge">
<title>ADE&#45;&gt;PVN</title>
<path fill="none" stroke="gray" stroke-width="0.2" d="M188.66,-1920.7C214.36,-1897.38 240.92,-1873.28 259.31,-1856.6"/>
<polygon fill="gray" stroke="gray" stroke-width="0.2" points="261.38,-1859.44 266.43,-1850.13 256.68,-1854.26 261.38,-1859.44"/>
</g>
<!-- PVP -->
<g id="node26" class="node">
<title>PVP</title>
<ellipse fill="none" stroke="black" cx="284.1" cy="-1756" rx="28.11" ry="18"/>
<text text-anchor="middle" x="284.1" y="-1750.58" font-family="Times New Roman,serif" font-size="14.00">PVP</text>
</g>
<!-- ADE&#45;&gt;PVP -->
<g id="edge26" class="edge">
<title>ADE&#45;&gt;PVP</title>
<path fill="none" stroke="gray" stroke-width="0.2" d="M172.35,-1905.73C210.6,-1853.04 252,-1796 252,-1796 252,-1796 257.93,-1788.37 264.61,-1779.78"/>
<polygon fill="gray" stroke="gray" stroke-width="0.2" points="267.25,-1782.09 270.62,-1772.05 261.72,-1777.79 267.25,-1782.09"/>
</g>
<!-- PVR -->
<g id="node27" class="node">
<title>PVR</title>
<ellipse fill="none" stroke="black" cx="284.1" cy="-1677" rx="29.11" ry="18"/>
<text text-anchor="middle" x="284.1" y="-1671.58" font-family="Times New Roman,serif" font-size="14.00">PVR</text>
</g>
<!-- ADE&#45;&gt;PVR -->
<g id="edge27" class="edge">
<title>ADE&#45;&gt;PVR</title>
<path fill="none" stroke="gray" stroke-width="0.2" d="M158.61,-1897.24C199.91,-1817.53 252,-1717 252,-1717 252,-1717 257.65,-1709.73 264.14,-1701.39"/>
<polygon fill="gray" stroke="gray" stroke-width="0.2" points="266.89,-1703.55 270.27,-1693.51 261.36,-1699.25 266.89,-1703.55"/>
</g>
<!-- PVT -->
<g id="node28" class="node">
<title>PVT</title>
<ellipse fill="none" stroke="black" cx="284.1" cy="-1598" rx="28.61" ry="18"/>
<text text-anchor="middle" x="284.1" y="-1592.58" font-family="Times New Roman,serif" font-size="14.00">PVT</text>
</g>
<!-- ADE&#45;&gt;PVT -->
<g id="edge28" class="edge">
<title>ADE&#45;&gt;PVT</title>
<path fill="none" stroke="gray" stroke-width="0.2" d="M149.21,-1893.17C191.51,-1788.17 252,-1638 252,-1638 252,-1638 257.65,-1630.73 264.14,-1622.39"/>
<polygon fill="gray" stroke="gray" stroke-width="0.2" points="266.89,-1624.55 270.27,-1614.51 261.36,-1620.25 266.89,-1624.55"/>
</g>
<!-- RIA -->
<g id="node29" class="node">
<title>RIA</title>
<ellipse fill="none" stroke="black" cx="284.1" cy="-1519" rx="27" ry="18"/>
<text text-anchor="middle" x="284.1" y="-1513.58" font-family="Times New Roman,serif" font-size="14.00">RIA</text>
</g>
<!-- ADE&#45;&gt;RIA -->
<g id="edge29" class="edge">
<title>ADE&#45;&gt;RIA</title>
<path fill="none" stroke="gray" stroke-width="0.2" d="M142.8,-1890.42C185.08,-1762.1 252,-1559 252,-1559 252,-1559 257.93,-1551.37 264.61,-1542.78"/>
<polygon fill="gray" stroke="gray" stroke-width="0.2" points="267.25,-1545.09 270.62,-1535.05 261.72,-1540.79 267.25,-1545.09"/>
</g>
<!-- RIF -->
<g id="node30" class="node">
<title>RIF</title>
<ellipse fill="none" stroke="black" cx="284.1" cy="-1440" rx="27" ry="18"/>
<text text-anchor="middle" x="284.1" y="-1434.58" font-family="Times New Roman,serif" font-size="14.00">RIF</text>
</g>
<!-- ADE&#45;&gt;RIF -->
<g id="edge30" class="edge">
<title>ADE&#45;&gt;RIF</title>
<path fill="none" stroke="gray" stroke-width="0.2" d="M138.02,-1888.88C179.82,-1738.93 252,-1480 252,-1480 252,-1480 257.93,-1472.37 264.61,-1463.78"/>
<polygon fill="gray" stroke="gray" stroke-width="0.2" points="267.25,-1466.09 270.62,-1456.05 261.72,-1461.79 267.25,-1466.09"/>
</g>
<!-- RIG -->
<g id="node31" class="node">
<title>RIG</title>
<ellipse fill="none" stroke="black" cx="284.1" cy="-1361" rx="27.11" ry="18"/>
<text text-anchor="middle" x="284.1" y="-1355.58" font-family="Times New Roman,serif" font-size="14.00">RIG</text>
</g>
<!-- ADE&#45;&gt;RIG -->
<g id="edge31" class="edge">
<title>ADE&#45;&gt;RIG</title>
<path fill="none" stroke="black" stroke-width="5" d="M131.5,-1887.38C167.21,-1731.54 234.34,-1452.74 254.78,-1384.82"/>
<polygon fill="black" stroke="black" stroke-width="5" points="258.8,-1386.57 258.06,-1375.68 250.57,-1383.61 258.8,-1386.57"/>
</g>
<!-- RIH -->
<g id="node32" class="node">
<title>RIH</title>
<ellipse fill="none" stroke="black" cx="284.1" cy="-1282" rx="27" ry="18"/>
<text text-anchor="middle" x="284.1" y="-1276.58" font-family="Times New Roman,serif" font-size="14.00">RIH</text>
</g>
<!-- ADE&#45;&gt;RIH -->
<g id="edge32" class="edge">
<title>ADE&#45;&gt;RIH</title>
<path fill="none" stroke="gray" stroke-width="2" d="M131.5,-1887.42C171.77,-1698.46 252,-1322 252,-1322 252,-1322 257,-1315.57 262.99,-1307.86"/>
<polygon fill="gray" stroke="gray" stroke-width="2" points="265.58,-1310.24 268.95,-1300.2 260.05,-1305.94 265.58,-1310.24"/>
</g>
<!-- RIM -->
<g id="node33" class="node">
<title>RIM</title>
<ellipse fill="none" stroke="black" cx="284.1" cy="-1203" rx="28.11" ry="18"/>
<text text-anchor="middle" x="284.1" y="-1197.58" font-family="Times New Roman,serif" font-size="14.00">RIM</text>
</g>
<!-- ADE&#45;&gt;RIM -->
<g id="edge33" class="edge">
<title>ADE&#45;&gt;RIM</title>
<path fill="none" stroke="gray" stroke-width="0.2" d="M129.26,-1886.74C168.71,-1679.84 252,-1243 252,-1243 252,-1243 257.93,-1235.37 264.61,-1226.78"/>
<polygon fill="gray" stroke="gray" stroke-width="0.2" points="267.25,-1229.09 270.62,-1219.05 261.72,-1224.79 267.25,-1229.09"/>
</g>
<!-- RIV -->
<g id="node34" class="node">
<title>RIV</title>
<ellipse fill="none" stroke="black" cx="284.1" cy="-1124" rx="27" ry="18"/>
<text text-anchor="middle" x="284.1" y="-1118.58" font-family="Times New Roman,serif" font-size="14.00">RIV</text>
</g>
<!-- ADE&#45;&gt;RIV -->
<g id="edge34" class="edge">
<title>ADE&#45;&gt;RIV</title>
<path fill="none" stroke="red" stroke-width="5" d="M125.54,-1886.12C159.66,-1678.82 235.8,-1236.52 255.86,-1148.2"/>
<polygon fill="red" stroke="red" stroke-width="5" points="260,-1149.62 258.49,-1138.81 251.58,-1147.26 260,-1149.62"/>
</g>
<!-- RMD -->
<g id="node35" class="node">
<title>RMD</title>
<ellipse fill="none" stroke="black" cx="284.1" cy="-1045" rx="31.6" ry="18"/>
<text text-anchor="middle" x="284.1" y="-1039.58" font-family="Times New Roman,serif" font-size="14.00">RMD</text>
</g>
<!-- ADE&#45;&gt;RMD -->
<g id="edge35" class="edge">
<title>ADE&#45;&gt;RMD</title>
<path fill="none" stroke="red" stroke-width="5" d="M124.17,-1886.11C157.63,-1663.72 235.91,-1165.74 254.59,-1071.43"/>
<polygon fill="red" stroke="red" stroke-width="5" points="258.77,-1072.73 256.84,-1061.99 250.26,-1070.7 258.77,-1072.73"/>
</g>
<!-- RME -->
<g id="node36" class="node">
<title>RME</title>
<ellipse fill="none" stroke="black" cx="284.1" cy="-966" rx="30.61" ry="18"/>
<text text-anchor="middle" x="284.1" y="-960.58" font-family="Times New Roman,serif" font-size="14.00">RME</text>
</g>
<!-- ADE&#45;&gt;RME -->
<g id="edge36" class="edge">
<title>ADE&#45;&gt;RME</title>
<path fill="none" stroke="gray" stroke-width="2" d="M124.51,-1885.97C161.53,-1630.45 252,-1006 252,-1006 252,-1006 256.76,-999.88 262.55,-992.43"/>
<polygon fill="gray" stroke="gray" stroke-width="2" points="265.22,-994.7 268.59,-984.66 259.69,-990.41 265.22,-994.7"/>
</g>
<!-- RMF -->
<g id="node37" class="node">
<title>RMF</title>
<ellipse fill="none" stroke="black" cx="284.1" cy="-887" rx="30.61" ry="18"/>
<text text-anchor="middle" x="284.1" y="-881.58" font-family="Times New Roman,serif" font-size="14.00">RMF</text>
</g>
<!-- ADE&#45;&gt;RMF -->
<g id="edge37" class="edge">
<title>ADE&#45;&gt;RMF</title>
<path fill="none" stroke="gray" stroke-width="2" d="M123.37,-1885.91C159.63,-1615.58 252,-927 252,-927 252,-927 256.76,-920.88 262.55,-913.43"/>
<polygon fill="gray" stroke="gray" stroke-width="2" points="265.22,-915.7 268.59,-905.66 259.69,-911.41 265.22,-915.7"/>
</g>
<!-- RMG -->
<g id="node38" class="node">
<title>RMG</title>
<ellipse fill="none" stroke="black" cx="284.1" cy="-808" rx="32.1" ry="18"/>
<text text-anchor="middle" x="284.1" y="-802.58" font-family="Times New Roman,serif" font-size="14.00">RMG</text>
</g>
<!-- ADE&#45;&gt;RMG -->
<g id="edge38" class="edge">
<title>ADE&#45;&gt;RMG</title>
<path fill="none" stroke="gray" stroke-width="2" d="M121.22,-1885.49C153.4,-1616.84 238.78,-932.41 255.69,-831.4"/>
<polygon fill="gray" stroke="gray" stroke-width="2" points="259.05,-832.39 257.67,-821.89 252.2,-830.96 259.05,-832.39"/>
</g>
<!-- RMH -->
<g id="node39" class="node">
<title>RMH</title>
<ellipse fill="none" stroke="black" cx="284.1" cy="-729" rx="31.6" ry="18"/>
<text text-anchor="middle" x="284.1" y="-723.58" font-family="Times New Roman,serif" font-size="14.00">RMH</text>
</g>
<!-- ADE&#45;&gt;RMH -->
<g id="edge39" class="edge">
<title>ADE&#45;&gt;RMH</title>
<path fill="none" stroke="red" stroke-width="2" d="M121.56,-1885.45C156.46,-1586.77 252,-769 252,-769 252,-769 256.76,-762.88 262.55,-755.43"/>
<polygon fill="red" stroke="red" stroke-width="2" points="265.22,-757.7 268.59,-747.66 259.69,-753.41 265.22,-757.7"/>
</g>
<!-- SAA -->
<g id="node40" class="node">
<title>SAA</title>
<ellipse fill="none" stroke="black" cx="284.1" cy="-650" rx="29.11" ry="18"/>
<text text-anchor="middle" x="284.1" y="-644.58" font-family="Times New Roman,serif" font-size="14.00">SAA</text>
</g>
<!-- ADE&#45;&gt;SAA -->
<g id="edge40" class="edge">
<title>ADE&#45;&gt;SAA</title>
<path fill="none" stroke="red" stroke-width="0.2" d="M120.82,-1885.26C155.08,-1573.08 252,-690 252,-690 252,-690 257.65,-682.73 264.14,-674.39"/>
<polygon fill="red" stroke="red" stroke-width="0.2" points="266.89,-676.55 270.27,-666.51 261.36,-672.25 266.89,-676.55"/>
</g>
<!-- SDQ -->
<g id="node41" class="node">
<title>SDQ</title>
<ellipse fill="none" stroke="black" cx="284.1" cy="-571" rx="29.61" ry="18"/>
<text text-anchor="middle" x="284.1" y="-565.58" font-family="Times New Roman,serif" font-size="14.00">SDQ</text>
</g>
<!-- ADE&#45;&gt;SDQ -->
<g id="edge41" class="edge">
<title>ADE&#45;&gt;SDQ</title>
<path fill="none" stroke="gray" stroke-width="0.2" d="M120.13,-1885.42C153.76,-1560.44 252,-611 252,-611 252,-611 257.65,-603.73 264.14,-595.39"/>
<polygon fill="gray" stroke="gray" stroke-width="0.2" points="266.89,-597.55 270.27,-587.51 261.36,-593.25 266.89,-597.55"/>
</g>
<!-- SIA -->
<g id="node42" class="node">
<title>SIA</title>
<ellipse fill="none" stroke="black" cx="284.1" cy="-492" rx="27" ry="18"/>
<text text-anchor="middle" x="284.1" y="-486.57" font-family="Times New Roman,serif" font-size="14.00">SIA</text>
</g>
<!-- ADE&#45;&gt;SIA -->
<g id="edge42" class="edge">
<title>ADE&#45;&gt;SIA</title>
<path fill="none" stroke="gray" stroke-width="5" d="M118.69,-1885.31C148.65,-1567.33 238.49,-648.56 257.24,-516.6"/>
<polygon fill="gray" stroke="gray" stroke-width="5" points="261.51,-517.57 259.03,-506.94 252.91,-515.97 261.51,-517.57"/>
</g>
<!-- SIB -->
<g id="node43" class="node">
<title>SIB</title>
<ellipse fill="none" stroke="black" cx="284.1" cy="-413" rx="27" ry="18"/>
<text text-anchor="middle" x="284.1" y="-407.57" font-family="Times New Roman,serif" font-size="14.00">SIB</text>
</g>
<!-- ADE&#45;&gt;SIB -->
<g id="edge43" class="edge">
<title>ADE&#45;&gt;SIB</title>
<path fill="none" stroke="gray" stroke-width="0.2" d="M119,-1885.32C151.49,-1535.43 252,-453 252,-453 252,-453 257.93,-445.37 264.61,-436.78"/>
<polygon fill="gray" stroke="gray" stroke-width="0.2" points="267.25,-439.09 270.62,-429.05 261.72,-434.79 267.25,-439.09"/>
</g>
<!-- SMB -->
<g id="node44" class="node">
<title>SMB</title>
<ellipse fill="none" stroke="black" cx="284.1" cy="-334" rx="30.11" ry="18"/>
<text text-anchor="middle" x="284.1" y="-328.57" font-family="Times New Roman,serif" font-size="14.00">SMB</text>
</g>
<!-- ADE&#45;&gt;SMB -->
<g id="edge44" class="edge">
<title>ADE&#45;&gt;SMB</title>
<path fill="none" stroke="gray" stroke-width="2" d="M118.52,-1885.2C150.49,-1523.26 252,-374 252,-374 252,-374 256.76,-367.88 262.55,-360.43"/>
<polygon fill="gray" stroke="gray" stroke-width="2" points="265.22,-362.7 268.59,-352.66 259.69,-358.41 265.22,-362.7"/>
</g>
<!-- SMD -->
<g id="node45" class="node">
<title>SMD</title>
<ellipse fill="none" stroke="black" cx="284.1" cy="-255" rx="30.61" ry="18"/>
<text text-anchor="middle" x="284.1" y="-249.57" font-family="Times New Roman,serif" font-size="14.00">SMD</text>
</g>
<!-- ADE&#45;&gt;SMD -->
<g id="edge45" class="edge">
<title>ADE&#45;&gt;SMD</title>
<path fill="none" stroke="gray" stroke-width="0.2" d="M118.08,-1885.17C149.55,-1511.54 252,-295 252,-295 252,-295 257.65,-287.73 264.14,-279.39"/>
<polygon fill="gray" stroke="gray" stroke-width="0.2" points="266.89,-281.55 270.27,-271.51 261.36,-277.25 266.89,-281.55"/>
</g>
<!-- URB -->
<g id="node46" class="node">
<title>URB</title>
<ellipse fill="none" stroke="black" cx="284.1" cy="-176" rx="29.61" ry="18"/>
<text text-anchor="middle" x="284.1" y="-170.57" font-family="Times New Roman,serif" font-size="14.00">URB</text>
</g>
<!-- ADE&#45;&gt;URB -->
<g id="edge46" class="edge">
<title>ADE&#45;&gt;URB</title>
<path fill="none" stroke="red" stroke-width="2" d="M117.05,-1885C145.58,-1517.69 240.76,-334.17 257.18,-198.54"/>
<polygon fill="red" stroke="red" stroke-width="2" points="260.61,-199.3 258.73,-188.87 253.69,-198.19 260.61,-199.3"/>
</g>
<!-- URX -->
<g id="node47" class="node">
<title>URX</title>
<ellipse fill="none" stroke="black" cx="284.1" cy="-97" rx="30.11" ry="18"/>
<text text-anchor="middle" x="284.1" y="-91.58" font-family="Times New Roman,serif" font-size="14.00">URX</text>
</g>
<!-- ADE&#45;&gt;URX -->
<g id="edge47" class="edge">
<title>ADE&#45;&gt;URX</title>
<path fill="none" stroke="gray" stroke-width="0.2" d="M117.31,-1885.19C147.83,-1489.08 252,-137 252,-137 252,-137 257.65,-129.73 264.14,-121.39"/>
<polygon fill="gray" stroke="gray" stroke-width="0.2" points="266.89,-123.55 270.27,-113.51 261.36,-119.25 266.89,-123.55"/>
</g>
<!-- VBn -->
<g id="node48" class="node">
<title>VBn</title>
<ellipse fill="none" stroke="black" cx="284.1" cy="-18" rx="27.61" ry="18"/>
<text text-anchor="middle" x="284.1" y="-12.57" font-family="Times New Roman,serif" font-size="14.00">VBn</text>
</g>
<!-- ADE&#45;&gt;VBn -->
<g id="edge48" class="edge">
<title>ADE&#45;&gt;VBn</title>
<path fill="none" stroke="gray" stroke-width="0.2" d="M116.97,-1885.17C147.05,-1478.13 252,-58 252,-58 252,-58 257.93,-50.37 264.61,-41.78"/>
<polygon fill="gray" stroke="gray" stroke-width="0.2" points="267.25,-44.09 270.62,-34.05 261.72,-39.79 267.25,-44.09"/>
</g>
<!-- ADA&#45;&gt;ADE -->
<g id="edge49" class="edge">
<title>ADA&#45;&gt;ADE</title>
<path fill="none" stroke="gray" stroke-width="0.2" d="M258.6,-3642.21C254.74,-3637.94 252,-3634.5 252,-3634.5 252,-3634.5 150.75,-2487.48 118.64,-2110.95"/>
<polygon fill="gray" stroke="gray" stroke-width="0.2" points="122.15,-2110.81 117.81,-2101.15 115.17,-2111.41 122.15,-2110.81"/>
</g>
<!-- ALM&#45;&gt;ADE -->
<g id="edge50" class="edge">
<title>ALM&#45;&gt;ADE</title>
<path fill="none" stroke="gray" stroke-width="5" d="M258.29,-3483.87C254.6,-3479.76 252,-3476.5 252,-3476.5 252,-3476.5 153.88,-2473.37 120.2,-2116.74"/>
<polygon fill="gray" stroke="gray" stroke-width="5" points="124.57,-2116.52 119.27,-2106.97 115.86,-2117.34 124.57,-2116.52"/>
</g>
<!-- ALN&#45;&gt;ADE -->
<g id="edge51" class="edge">
<title>ALN&#45;&gt;ADE</title>
<path fill="none" stroke="gray" stroke-width="0.2" d="M258.9,-3405.55C254.89,-3401.12 252,-3397.5 252,-3397.5 252,-3397.5 153.95,-2449.22 120.23,-2110.9"/>
<polygon fill="gray" stroke="gray" stroke-width="0.2" points="123.73,-2110.73 119.26,-2101.13 116.76,-2111.42 123.73,-2110.73"/>
</g>
<!-- AQR&#45;&gt;ADE -->
<g id="edge52" class="edge">
<title>AQR&#45;&gt;ADE</title>
<path fill="none" stroke="gray" stroke-width="0.2" d="M258.29,-3325.87C254.6,-3321.76 252,-3318.5 252,-3318.5 252,-3318.5 155.14,-2435.23 120.85,-2110.59"/>
<polygon fill="gray" stroke="gray" stroke-width="0.2" points="124.37,-2110.56 119.84,-2100.99 117.41,-2111.3 124.37,-2110.56"/>
</g>
<!-- BDU&#45;&gt;ADE -->
<g id="edge53" class="edge">
<title>BDU&#45;&gt;ADE</title>
<path fill="none" stroke="gray" stroke-width="0.2" d="M258.6,-2457.21C254.74,-2452.94 252,-2449.5 252,-2449.5 252,-2449.5 183.83,-2242.12 141.62,-2106.66"/>
<polygon fill="gray" stroke="gray" stroke-width="0.2" points="145.03,-2105.83 138.72,-2097.32 138.35,-2107.91 145.03,-2105.83"/>
</g>
<!-- CEP&#45;&gt;ADE -->
<g id="edge54" class="edge">
<title>CEP&#45;&gt;ADE</title>
<path fill="none" stroke="gray" stroke-width="0.2" d="M259.21,-2378.89C255.04,-2374.31 252,-2370.5 252,-2370.5 252,-2370.5 189.86,-2215.8 147.51,-2104.2"/>
<polygon fill="gray" stroke="gray" stroke-width="0.2" points="150.9,-2103.29 144.09,-2095.18 144.36,-2105.77 150.9,-2103.29"/>
</g>
<!-- DVA&#45;&gt;ADE -->
<g id="edge55" class="edge">
<title>DVA&#45;&gt;ADE</title>
<path fill="none" stroke="gray" stroke-width="0.2" d="M258.6,-2299.21C254.74,-2294.94 252,-2291.5 252,-2291.5 252,-2291.5 197.92,-2186.75 156.28,-2101.08"/>
<polygon fill="gray" stroke="gray" stroke-width="0.2" points="159.55,-2099.8 152.04,-2092.33 153.25,-2102.86 159.55,-2099.8"/>
</g>
<!-- DVC&#45;&gt;ADE -->
<g id="edge56" class="edge">
<title>DVC&#45;&gt;ADE</title>
<path fill="none" stroke="gray" stroke-width="5" d="M258.6,-2220.21C254.74,-2215.94 252,-2212.5 252,-2212.5 252,-2212.5 210.9,-2155.59 172.77,-2099.48"/>
<polygon fill="gray" stroke="gray" stroke-width="5" points="176.39,-2097.03 167.17,-2091.19 169.14,-2101.93 176.39,-2097.03"/>
</g>
<!-- FLP&#45;&gt;ADE -->
<g id="edge57" class="edge">
<title>FLP&#45;&gt;ADE</title>
<path fill="none" stroke="red" stroke-width="5" d="M260.53,-2141.78C242.94,-2129.23 217.36,-2107.63 192.2,-2084.62"/>
<polygon fill="red" stroke="red" stroke-width="5" points="195.2,-2081.43 184.89,-2077.85 189.26,-2087.85 195.2,-2081.43"/>
</g>
<!-- IL1&#45;&gt;ADE -->
<g id="edge58" class="edge">
<title>IL1&#45;&gt;ADE</title>
<path fill="none" stroke="gray" stroke-width="0.2" d="M256.95,-2072.05C243.76,-2068.32 226.83,-2061.98 209.17,-2054.41"/>
<polygon fill="gray" stroke="gray" stroke-width="0.2" points="210.72,-2051.27 200.15,-2050.47 207.91,-2057.68 210.72,-2051.27"/>
</g>
<!-- IL2&#45;&gt;ADE -->
<g id="edge59" class="edge">
<title>IL2&#45;&gt;ADE</title>
<path fill="none" stroke="red" stroke-width="nan" d="M262.2,-2003.93C249.84,-2006.49 233.13,-2008.1 215.29,-2008.77"/>
<polygon fill="red" stroke="red" stroke-width="nan" points="nan,-nan nan,-nan nan,-nan nan,-nan"/>
</g>
<!-- OLL&#45;&gt;ADE -->
<g id="edge60" class="edge">
<title>OLL&#45;&gt;ADE</title>
<path fill="none" stroke="gray" stroke-width="2" d="M268.96,-1929.73C257.95,-1937.79 241.52,-1947.27 223.31,-1956.53"/>
<polygon fill="gray" stroke="gray" stroke-width="2" points="221.9,-1953.32 214.5,-1960.9 225.01,-1959.59 221.9,-1953.32"/>
</g>
<!-- RIG&#45;&gt;ADE -->
<g id="edge61" class="edge">
<title>RIG&#45;&gt;ADE</title>
<path fill="none" stroke="gray" stroke-width="0.2" d="M278.51,-1379.05C269.86,-1399.53 252,-1422.5 252,-1422.5 252,-1422.5 182.04,-1712.12 139.99,-1878.86"/>
<polygon fill="gray" stroke="gray" stroke-width="0.2" points="136.64,-1877.83 137.58,-1888.38 143.43,-1879.54 136.64,-1877.83"/>
</g>
<!-- RIV&#45;&gt;ADE -->
<g id="edge62" class="edge">
<title>RIV&#45;&gt;ADE</title>
<path fill="none" stroke="gray" stroke-width="0.2" d="M278.51,-1142.05C269.86,-1162.53 252,-1185.5 252,-1185.5 252,-1185.5 171.34,-1653.11 131.18,-1876.83"/>
<polygon fill="gray" stroke="gray" stroke-width="0.2" points="127.79,-1875.89 129.47,-1886.35 134.68,-1877.12 127.79,-1875.89"/>
</g>
<!-- RMD&#45;&gt;ADE -->
<g id="edge63" class="edge">
<title>RMD&#45;&gt;ADE</title>
<path fill="none" stroke="gray" stroke-width="0.2" d="M278.51,-1063.05C269.86,-1083.53 252,-1106.5 252,-1106.5 252,-1106.5 168.67,-1635.59 129.24,-1876.45"/>
<polygon fill="gray" stroke="gray" stroke-width="0.2" points="125.83,-1875.56 127.67,-1886 132.74,-1876.69 125.83,-1875.56"/>
</g>
<!-- RMG&#45;&gt;ADE -->
<g id="edge64" class="edge">
<title>RMG&#45;&gt;ADE</title>
<path fill="none" stroke="gray" stroke-width="0.2" d="M278.51,-826.05C269.86,-846.53 252,-869.5 252,-869.5 252,-869.5 162.33,-1587.5 125,-1875.68"/>
<polygon fill="gray" stroke="gray" stroke-width="0.2" points="121.55,-1875.08 123.74,-1885.45 128.49,-1875.98 121.55,-1875.08"/>
</g>
<!-- SIA&#45;&gt;ADE -->
<g id="edge65" class="edge">
<title>SIA&#45;&gt;ADE</title>
<path fill="none" stroke="gray" stroke-width="0.2" d="M278.51,-510.05C269.86,-530.53 252,-553.5 252,-553.5 252,-553.5 156.34,-1530.86 121.5,-1875.04"/>
<polygon fill="gray" stroke="gray" stroke-width="0.2" points="118.02,-1874.68 120.49,-1884.98 124.98,-1875.39 118.02,-1874.68"/>
</g>
<!-- URB&#45;&gt;ADE -->
<g id="edge66" class="edge">
<title>URB&#45;&gt;ADE</title>
<path fill="none" stroke="red" stroke-width="0.2" d="M278.51,-194.05C269.86,-214.53 252,-237.5 252,-237.5 252,-237.5 151.87,-1481.76 119.19,-1875.34"/>
<polygon fill="red" stroke="red" stroke-width="0.2" points="115.72,-1874.77 118.38,-1885.02 122.7,-1875.35 115.72,-1874.77"/>
</g>
</g>
</svg>
