<?xml version="1.0" encoding="UTF-8" standalone="no"?>
<!DOCTYPE svg PUBLIC "-//W3C//DTD SVG 1.1//EN"
 "http://www.w3.org/Graphics/SVG/1.1/DTD/svg11.dtd">
<!-- Generated by graphviz version 11.0.0 (20240428.1522)
 -->
<!-- Pages: 1 -->
<svg width="417pt" height="2651pt"
 viewBox="0.00 0.00 417.42 2651.00" xmlns="http://www.w3.org/2000/svg" xmlns:xlink="http://www.w3.org/1999/xlink">
<g id="graph0" class="graph" transform="scale(1 1) rotate(0) translate(4 2647)">
<polygon fill="white" stroke="none" points="-4,4 -4,-2647 413.42,-2647 413.42,4 -4,4"/>
<!-- ADF -->
<g id="node1" class="node">
<title>ADF</title>
<ellipse fill="none" stroke="black" cx="200.22" cy="-1440" rx="108" ry="108"/>
<text text-anchor="middle" x="200.22" y="-1421" font-family="Times New Roman,serif" font-size="50.00">ADF</text>
</g>
<!-- ADF&#45;&gt;ADF -->
<g id="edge1" class="edge">
<title>ADF&#45;&gt;ADF</title>
<path fill="none" stroke="gray" stroke-width="0.2" d="M168.26,-1543.39C170.15,-1570.51 180.81,-1591 200.22,-1591 217.13,-1591 227.4,-1575.45 231.01,-1553.52"/>
<polygon fill="gray" stroke="gray" stroke-width="0.2" points="234.48,-1554.03 232.15,-1543.69 227.52,-1553.23 234.48,-1554.03"/>
</g>
<!-- ADA -->
<g id="node2" class="node">
<title>ADA</title>
<ellipse fill="none" stroke="black" cx="376.82" cy="-2625" rx="30.11" ry="18"/>
<text text-anchor="middle" x="376.82" y="-2619.57" font-family="Times New Roman,serif" font-size="14.00">ADA</text>
</g>
<!-- ADF&#45;&gt;ADA -->
<g id="edge2" class="edge">
<title>ADF&#45;&gt;ADA</title>
<path fill="none" stroke="gray" stroke-width="5" d="M215.92,-1547.35C252.41,-1828.73 344.22,-2564.5 344.22,-2564.5 344.22,-2564.5 354.86,-2577.63 363.79,-2592.85"/>
<polygon fill="gray" stroke="gray" stroke-width="5" points="359.81,-2594.69 368.29,-2601.56 367.59,-2590.67 359.81,-2594.69"/>
</g>
<!-- ADL -->
<g id="node3" class="node">
<title>ADL</title>
<ellipse fill="none" stroke="black" cx="376.82" cy="-2546" rx="29.11" ry="18"/>
<text text-anchor="middle" x="376.82" y="-2540.57" font-family="Times New Roman,serif" font-size="14.00">ADL</text>
</g>
<!-- ADF&#45;&gt;ADL -->
<g id="edge3" class="edge">
<title>ADF&#45;&gt;ADL</title>
<path fill="none" stroke="gray" stroke-width="0.2" d="M215.59,-1547.19C251.85,-1817.77 344.22,-2507 344.22,-2507 344.22,-2507 349.96,-2514.09 356.55,-2522.22"/>
<polygon fill="gray" stroke="gray" stroke-width="0.2" points="353.76,-2524.34 362.78,-2529.9 359.2,-2519.93 353.76,-2524.34"/>
</g>
<!-- AFD -->
<g id="node4" class="node">
<title>AFD</title>
<ellipse fill="none" stroke="black" cx="376.82" cy="-2467" rx="29.11" ry="18"/>
<text text-anchor="middle" x="376.82" y="-2461.57" font-family="Times New Roman,serif" font-size="14.00">AFD</text>
</g>
<!-- ADF&#45;&gt;AFD -->
<g id="edge4" class="edge">
<title>ADF&#45;&gt;AFD</title>
<path fill="none" stroke="gray" stroke-width="5" d="M218.26,-1546.59C256.17,-1798.18 344.22,-2406.5 344.22,-2406.5 344.22,-2406.5 354.86,-2419.63 363.79,-2434.85"/>
<polygon fill="gray" stroke="gray" stroke-width="5" points="359.81,-2436.69 368.29,-2443.56 367.59,-2432.67 359.81,-2436.69"/>
</g>
<!-- AIA -->
<g id="node5" class="node">
<title>AIA</title>
<ellipse fill="none" stroke="black" cx="376.82" cy="-2388" rx="27" ry="18"/>
<text text-anchor="middle" x="376.82" y="-2382.57" font-family="Times New Roman,serif" font-size="14.00">AIA</text>
</g>
<!-- ADF&#45;&gt;AIA -->
<g id="edge5" class="edge">
<title>ADF&#45;&gt;AIA</title>
<path fill="none" stroke="gray" stroke-width="2" d="M219.77,-1546.39C258.46,-1782.36 344.22,-2327.5 344.22,-2327.5 344.22,-2327.5 356.2,-2342.29 365.41,-2358.67"/>
<polygon fill="gray" stroke="gray" stroke-width="2" points="362.18,-2360.04 369.8,-2367.4 368.43,-2356.89 362.18,-2360.04"/>
</g>
<!-- AIB -->
<g id="node6" class="node">
<title>AIB</title>
<ellipse fill="none" stroke="black" cx="376.82" cy="-2309" rx="27" ry="18"/>
<text text-anchor="middle" x="376.82" y="-2303.57" font-family="Times New Roman,serif" font-size="14.00">AIB</text>
</g>
<!-- ADF&#45;&gt;AIB -->
<g id="edge6" class="edge">
<title>ADF&#45;&gt;AIB</title>
<path fill="none" stroke="red" stroke-width="0.2" d="M219.55,-1546.39C258.14,-1770.35 344.22,-2270 344.22,-2270 344.22,-2270 349.96,-2277.09 356.55,-2285.22"/>
<polygon fill="red" stroke="red" stroke-width="0.2" points="353.76,-2287.34 362.78,-2292.9 359.2,-2282.93 353.76,-2287.34"/>
</g>
<!-- AIN -->
<g id="node7" class="node">
<title>AIN</title>
<ellipse fill="none" stroke="black" cx="376.82" cy="-2230" rx="27" ry="18"/>
<text text-anchor="middle" x="376.82" y="-2224.57" font-family="Times New Roman,serif" font-size="14.00">AIN</text>
</g>
<!-- ADF&#45;&gt;AIN -->
<g id="edge7" class="edge">
<title>ADF&#45;&gt;AIN</title>
<path fill="none" stroke="gray" stroke-width="0.2" d="M223.72,-1545.7C263.99,-1748.16 344.22,-2169.5 344.22,-2169.5 344.22,-2169.5 357.38,-2185.74 366.72,-2203.04"/>
<polygon fill="gray" stroke="gray" stroke-width="0.2" points="363.48,-2204.39 371.03,-2211.83 369.77,-2201.31 363.48,-2204.39"/>
</g>
<!-- AIY -->
<g id="node8" class="node">
<title>AIY</title>
<ellipse fill="none" stroke="black" cx="376.82" cy="-2151" rx="27" ry="18"/>
<text text-anchor="middle" x="376.82" y="-2145.57" font-family="Times New Roman,serif" font-size="14.00">AIY</text>
</g>
<!-- ADF&#45;&gt;AIY -->
<g id="edge8" class="edge">
<title>ADF&#45;&gt;AIY</title>
<path fill="none" stroke="gray" stroke-width="2" d="M226.37,-1545.17C267.41,-1729.53 344.22,-2090.5 344.22,-2090.5 344.22,-2090.5 356.2,-2105.29 365.41,-2121.67"/>
<polygon fill="gray" stroke="gray" stroke-width="2" points="362.18,-2123.04 369.8,-2130.4 368.43,-2119.89 362.18,-2123.04"/>
</g>
<!-- AIZ -->
<g id="node9" class="node">
<title>AIZ</title>
<ellipse fill="none" stroke="black" cx="376.82" cy="-2072" rx="27" ry="18"/>
<text text-anchor="middle" x="376.82" y="-2066.57" font-family="Times New Roman,serif" font-size="14.00">AIZ</text>
</g>
<!-- ADF&#45;&gt;AIZ -->
<g id="edge9" class="edge">
<title>ADF&#45;&gt;AIZ</title>
<path fill="none" stroke="black" stroke-width="5" d="M229.64,-1544.19C271.35,-1709.3 344.22,-2011.5 344.22,-2011.5 344.22,-2011.5 354.86,-2024.63 363.79,-2039.85"/>
<polygon fill="black" stroke="black" stroke-width="5" points="359.81,-2041.69 368.29,-2048.56 367.59,-2037.67 359.81,-2041.69"/>
</g>
<!-- ASE -->
<g id="node10" class="node">
<title>ASE</title>
<ellipse fill="none" stroke="black" cx="376.82" cy="-1993" rx="28.11" ry="18"/>
<text text-anchor="middle" x="376.82" y="-1987.58" font-family="Times New Roman,serif" font-size="14.00">ASE</text>
</g>
<!-- ADF&#45;&gt;ASE -->
<g id="edge10" class="edge">
<title>ADF&#45;&gt;ASE</title>
<path fill="none" stroke="gray" stroke-width="0.2" d="M233.85,-1542.85C276.05,-1687.48 344.22,-1932.5 344.22,-1932.5 344.22,-1932.5 357.38,-1948.74 366.72,-1966.04"/>
<polygon fill="gray" stroke="gray" stroke-width="0.2" points="363.48,-1967.39 371.03,-1974.83 369.77,-1964.31 363.48,-1967.39"/>
</g>
<!-- ASG -->
<g id="node11" class="node">
<title>ASG</title>
<ellipse fill="none" stroke="black" cx="376.82" cy="-1914" rx="29.61" ry="18"/>
<text text-anchor="middle" x="376.82" y="-1908.58" font-family="Times New Roman,serif" font-size="14.00">ASG</text>
</g>
<!-- ADF&#45;&gt;ASG -->
<g id="edge11" class="edge">
<title>ADF&#45;&gt;ASG</title>
<path fill="none" stroke="gray" stroke-width="nan" d="M234.93,-1542.54C277.21,-1671.14 344.22,-1875 344.22,-1875 344.22,-1875 354.22,-1887.34 362.97,-1898.14"/>
<polygon fill="gray" stroke="gray" stroke-width="nan" points="nan,-nan nan,-nan nan,-nan nan,-nan"/>
</g>
<!-- ASH -->
<g id="node12" class="node">
<title>ASH</title>
<ellipse fill="none" stroke="black" cx="376.82" cy="-1835" rx="29.11" ry="18"/>
<text text-anchor="middle" x="376.82" y="-1829.58" font-family="Times New Roman,serif" font-size="14.00">ASH</text>
</g>
<!-- ADF&#45;&gt;ASH -->
<g id="edge12" class="edge">
<title>ADF&#45;&gt;ASH</title>
<path fill="none" stroke="gray" stroke-width="nan" d="M247.06,-1537.79C288.88,-1636.74 344.22,-1774.5 344.22,-1774.5 344.22,-1774.5 362.37,-1796.9 371.16,-1817.1"/>
<polygon fill="gray" stroke="gray" stroke-width="nan" points="nan,-nan nan,-nan nan,-nan nan,-nan"/>
</g>
<!-- AUA -->
<g id="node13" class="node">
<title>AUA</title>
<ellipse fill="none" stroke="black" cx="376.82" cy="-1756" rx="30.11" ry="18"/>
<text text-anchor="middle" x="376.82" y="-1750.58" font-family="Times New Roman,serif" font-size="14.00">AUA</text>
</g>
<!-- ADF&#45;&gt;AUA -->
<g id="edge13" class="edge">
<title>ADF&#45;&gt;AUA</title>
<path fill="none" stroke="black" stroke-width="5" d="M257.74,-1531.97C297.71,-1605.4 344.22,-1695.5 344.22,-1695.5 344.22,-1695.5 354.86,-1708.63 363.79,-1723.85"/>
<polygon fill="black" stroke="black" stroke-width="5" points="359.81,-1725.69 368.29,-1732.56 367.59,-1721.67 359.81,-1725.69"/>
</g>
<!-- AVH -->
<g id="node14" class="node">
<title>AVH</title>
<ellipse fill="none" stroke="black" cx="376.82" cy="-1677" rx="30.11" ry="18"/>
<text text-anchor="middle" x="376.82" y="-1671.58" font-family="Times New Roman,serif" font-size="14.00">AVH</text>
</g>
<!-- ADF&#45;&gt;AVH -->
<g id="edge14" class="edge">
<title>ADF&#45;&gt;AVH</title>
<path fill="none" stroke="red" stroke-width="2" d="M272.93,-1520.46C308.61,-1567.19 344.22,-1616.5 344.22,-1616.5 344.22,-1616.5 356.2,-1631.29 365.41,-1647.67"/>
<polygon fill="red" stroke="red" stroke-width="2" points="362.18,-1649.04 369.8,-1656.4 368.43,-1645.89 362.18,-1649.04"/>
</g>
<!-- AWA -->
<g id="node15" class="node">
<title>AWA</title>
<ellipse fill="none" stroke="black" cx="376.82" cy="-1598" rx="32.6" ry="18"/>
<text text-anchor="middle" x="376.82" y="-1592.58" font-family="Times New Roman,serif" font-size="14.00">AWA</text>
</g>
<!-- ADF&#45;&gt;AWA -->
<g id="edge15" class="edge">
<title>ADF&#45;&gt;AWA</title>
<path fill="none" stroke="gray" stroke-width="0.2" d="M288.52,-1502.88C315.53,-1527.31 342.53,-1553.81 359.2,-1573"/>
<polygon fill="gray" stroke="gray" stroke-width="0.2" points="356.39,-1575.1 365.49,-1580.53 361.76,-1570.61 356.39,-1575.1"/>
</g>
<!-- AWB -->
<g id="node16" class="node">
<title>AWB</title>
<ellipse fill="none" stroke="black" cx="376.82" cy="-1519" rx="32.1" ry="18"/>
<text text-anchor="middle" x="376.82" y="-1513.58" font-family="Times New Roman,serif" font-size="14.00">AWB</text>
</g>
<!-- ADF&#45;&gt;AWB -->
<g id="edge16" class="edge">
<title>ADF&#45;&gt;AWB</title>
<path fill="none" stroke="gray" stroke-width="2" d="M304.05,-1470.63C321.28,-1478.94 337.68,-1487.73 350.44,-1495.74"/>
<polygon fill="gray" stroke="gray" stroke-width="2" points="348.28,-1498.51 358.54,-1501.16 352.17,-1492.69 348.28,-1498.51"/>
</g>
<!-- AWC -->
<g id="node17" class="node">
<title>AWC</title>
<ellipse fill="none" stroke="black" cx="376.82" cy="-1440" rx="32.6" ry="18"/>
<text text-anchor="middle" x="376.82" y="-1434.58" font-family="Times New Roman,serif" font-size="14.00">AWC</text>
</g>
<!-- ADF&#45;&gt;AWC -->
<g id="edge17" class="edge">
<title>ADF&#45;&gt;AWC</title>
<path fill="none" stroke="gray" stroke-width="0.2" d="M307.57,-1424.22C319.72,-1424.67 331.36,-1425.55 341.47,-1426.87"/>
<polygon fill="gray" stroke="gray" stroke-width="0.2" points="340.7,-1430.29 351.12,-1428.36 341.77,-1423.38 340.7,-1430.29"/>
</g>
<!-- BAG -->
<g id="node18" class="node">
<title>BAG</title>
<ellipse fill="none" stroke="black" cx="376.82" cy="-1361" rx="30.11" ry="18"/>
<text text-anchor="middle" x="376.82" y="-1355.58" font-family="Times New Roman,serif" font-size="14.00">BAG</text>
</g>
<!-- ADF&#45;&gt;BAG -->
<g id="edge18" class="edge">
<title>ADF&#45;&gt;BAG</title>
<path fill="none" stroke="gray" stroke-width="2" d="M292.1,-1382.77C306.89,-1376.17 321.55,-1370.26 334.36,-1365.8"/>
<polygon fill="gray" stroke="gray" stroke-width="2" points="335.19,-1369.21 343.62,-1362.79 333.03,-1362.55 335.19,-1369.21"/>
</g>
<!-- OLQ -->
<g id="node19" class="node">
<title>OLQ</title>
<ellipse fill="none" stroke="black" cx="376.82" cy="-1282" rx="30.11" ry="18"/>
<text text-anchor="middle" x="376.82" y="-1276.58" font-family="Times New Roman,serif" font-size="14.00">OLQ</text>
</g>
<!-- ADF&#45;&gt;OLQ -->
<g id="edge19" class="edge">
<title>ADF&#45;&gt;OLQ</title>
<path fill="none" stroke="red" stroke-width="2" d="M281.11,-1367.7C305.85,-1345.32 331.38,-1322.21 349.7,-1305.64"/>
<polygon fill="red" stroke="red" stroke-width="2" points="352.02,-1308.26 357.08,-1298.96 347.32,-1303.07 352.02,-1308.26"/>
</g>
<!-- PVN -->
<g id="node20" class="node">
<title>PVN</title>
<ellipse fill="none" stroke="black" cx="376.82" cy="-1203" rx="29.11" ry="18"/>
<text text-anchor="middle" x="376.82" y="-1197.58" font-family="Times New Roman,serif" font-size="14.00">PVN</text>
</g>
<!-- ADF&#45;&gt;PVN -->
<g id="edge20" class="edge">
<title>ADF&#45;&gt;PVN</title>
<path fill="none" stroke="gray" stroke-width="0.2" d="M255.89,-1346.97C296.26,-1286.9 344.22,-1220.5 344.22,-1220.5 344.22,-1220.5 344.41,-1220.26 344.77,-1219.83"/>
<polygon fill="gray" stroke="gray" stroke-width="0.2" points="347.38,-1222.16 351.35,-1212.34 342.12,-1217.54 347.38,-1222.16"/>
</g>
<!-- PVP -->
<g id="node21" class="node">
<title>PVP</title>
<ellipse fill="none" stroke="black" cx="376.82" cy="-1124" rx="28.11" ry="18"/>
<text text-anchor="middle" x="376.82" y="-1118.58" font-family="Times New Roman,serif" font-size="14.00">PVP</text>
</g>
<!-- ADF&#45;&gt;PVP -->
<g id="edge21" class="edge">
<title>ADF&#45;&gt;PVP</title>
<path fill="none" stroke="gray" stroke-width="0.2" d="M244.13,-1340.94C286.25,-1253.8 344.22,-1141.5 344.22,-1141.5 344.22,-1141.5 344.54,-1141.11 345.11,-1140.43"/>
<polygon fill="gray" stroke="gray" stroke-width="0.2" points="347.68,-1142.81 351.67,-1132.99 342.43,-1138.17 347.68,-1142.81"/>
</g>
<!-- PVQ -->
<g id="node22" class="node">
<title>PVQ</title>
<ellipse fill="none" stroke="black" cx="376.82" cy="-1045" rx="29.61" ry="18"/>
<text text-anchor="middle" x="376.82" y="-1039.58" font-family="Times New Roman,serif" font-size="14.00">PVQ</text>
</g>
<!-- ADF&#45;&gt;PVQ -->
<g id="edge22" class="edge">
<title>ADF&#45;&gt;PVQ</title>
<path fill="none" stroke="gray" stroke-width="0.2" d="M241.43,-1339.89C283.73,-1234.59 344.22,-1084 344.22,-1084 344.22,-1084 349.96,-1076.91 356.55,-1068.78"/>
<polygon fill="gray" stroke="gray" stroke-width="0.2" points="359.2,-1071.07 362.78,-1061.1 353.76,-1066.66 359.2,-1071.07"/>
</g>
<!-- RIA -->
<g id="node23" class="node">
<title>RIA</title>
<ellipse fill="none" stroke="black" cx="376.82" cy="-966" rx="27" ry="18"/>
<text text-anchor="middle" x="376.82" y="-960.58" font-family="Times New Roman,serif" font-size="14.00">RIA</text>
</g>
<!-- ADF&#45;&gt;RIA -->
<g id="edge23" class="edge">
<title>ADF&#45;&gt;RIA</title>
<path fill="none" stroke="black" stroke-width="5" d="M230.85,-1335.97C267.09,-1219.15 325.49,-1040.61 345.95,-988.5"/>
<polygon fill="black" stroke="black" stroke-width="5" points="349.78,-990.66 349.94,-979.74 341.81,-987.03 349.78,-990.66"/>
</g>
<!-- RIB -->
<g id="node24" class="node">
<title>RIB</title>
<ellipse fill="none" stroke="black" cx="376.82" cy="-887" rx="27" ry="18"/>
<text text-anchor="middle" x="376.82" y="-881.58" font-family="Times New Roman,serif" font-size="14.00">RIB</text>
</g>
<!-- ADF&#45;&gt;RIB -->
<g id="edge24" class="edge">
<title>ADF&#45;&gt;RIB</title>
<path fill="none" stroke="gray" stroke-width="2" d="M230.16,-1335.98C271.94,-1185.79 344.22,-926 344.22,-926 344.22,-926 349.16,-919.9 355.14,-912.52"/>
<polygon fill="gray" stroke="gray" stroke-width="2" points="357.49,-915.19 361.06,-905.21 352.05,-910.78 357.49,-915.19"/>
</g>
<!-- RIC -->
<g id="node25" class="node">
<title>RIC</title>
<ellipse fill="none" stroke="black" cx="376.82" cy="-808" rx="27" ry="18"/>
<text text-anchor="middle" x="376.82" y="-802.58" font-family="Times New Roman,serif" font-size="14.00">RIC</text>
</g>
<!-- ADF&#45;&gt;RIC -->
<g id="edge25" class="edge">
<title>ADF&#45;&gt;RIC</title>
<path fill="none" stroke="gray" stroke-width="0.2" d="M226.54,-1335.01C267.61,-1164.69 344.22,-847 344.22,-847 344.22,-847 349.96,-839.91 356.55,-831.78"/>
<polygon fill="gray" stroke="gray" stroke-width="0.2" points="359.2,-834.07 362.78,-824.1 353.76,-829.66 359.2,-834.07"/>
</g>
<!-- RIG -->
<g id="node26" class="node">
<title>RIG</title>
<ellipse fill="none" stroke="black" cx="376.82" cy="-729" rx="27.11" ry="18"/>
<text text-anchor="middle" x="376.82" y="-723.58" font-family="Times New Roman,serif" font-size="14.00">RIG</text>
</g>
<!-- ADF&#45;&gt;RIG -->
<g id="edge26" class="edge">
<title>ADF&#45;&gt;RIG</title>
<path fill="none" stroke="red" stroke-width="5" d="M221.33,-1333.59C256.56,-1159.44 327.1,-827.07 347.53,-752.15"/>
<polygon fill="red" stroke="red" stroke-width="5" points="351.57,-753.86 350.56,-742.99 343.26,-751.11 351.57,-753.86"/>
</g>
<!-- RIH -->
<g id="node27" class="node">
<title>RIH</title>
<ellipse fill="none" stroke="black" cx="376.82" cy="-650" rx="27" ry="18"/>
<text text-anchor="middle" x="376.82" y="-644.58" font-family="Times New Roman,serif" font-size="14.00">RIH</text>
</g>
<!-- ADF&#45;&gt;RIH -->
<g id="edge27" class="edge">
<title>ADF&#45;&gt;RIH</title>
<path fill="none" stroke="gray" stroke-width="2" d="M219.33,-1333.48C254.43,-1139.95 329.4,-745.4 348.61,-670.39"/>
<polygon fill="gray" stroke="gray" stroke-width="2" points="351.91,-671.54 351.61,-660.95 345.24,-669.42 351.91,-671.54"/>
</g>
<!-- RIP -->
<g id="node28" class="node">
<title>RIP</title>
<ellipse fill="none" stroke="black" cx="376.82" cy="-571" rx="27" ry="18"/>
<text text-anchor="middle" x="376.82" y="-565.58" font-family="Times New Roman,serif" font-size="14.00">RIP</text>
</g>
<!-- ADF&#45;&gt;RIP -->
<g id="edge28" class="edge">
<title>ADF&#45;&gt;RIP</title>
<path fill="none" stroke="blue" stroke-width="5" d="M217.76,-1333C251.88,-1125.47 328.02,-682.64 348.17,-594.41"/>
<polygon fill="blue" stroke="blue" stroke-width="5" points="352.3,-595.88 350.82,-585.07 343.89,-593.5 352.3,-595.88"/>
</g>
<!-- RIR -->
<g id="node29" class="node">
<title>RIR</title>
<ellipse fill="none" stroke="black" cx="376.82" cy="-492" rx="27" ry="18"/>
<text text-anchor="middle" x="376.82" y="-486.57" font-family="Times New Roman,serif" font-size="14.00">RIR</text>
</g>
<!-- ADF&#45;&gt;RIR -->
<g id="edge29" class="edge">
<title>ADF&#45;&gt;RIR</title>
<path fill="none" stroke="black" stroke-width="5" d="M216.39,-1333C249.88,-1110.14 328.3,-610.78 348.38,-515.74"/>
<polygon fill="black" stroke="black" stroke-width="5" points="352.6,-516.88 350.93,-506.1 344.14,-514.65 352.6,-516.88"/>
</g>
<!-- RIV -->
<g id="node30" class="node">
<title>RIV</title>
<ellipse fill="none" stroke="black" cx="376.82" cy="-413" rx="27" ry="18"/>
<text text-anchor="middle" x="376.82" y="-407.57" font-family="Times New Roman,serif" font-size="14.00">RIV</text>
</g>
<!-- ADF&#45;&gt;RIV -->
<g id="edge30" class="edge">
<title>ADF&#45;&gt;RIV</title>
<path fill="none" stroke="gray" stroke-width="0.2" d="M216.73,-1332.86C253.75,-1077.09 344.22,-452 344.22,-452 344.22,-452 349.96,-444.91 356.55,-436.78"/>
<polygon fill="gray" stroke="gray" stroke-width="0.2" points="359.2,-439.07 362.78,-429.1 353.76,-434.66 359.2,-439.07"/>
</g>
<!-- SIB -->
<g id="node31" class="node">
<title>SIB</title>
<ellipse fill="none" stroke="black" cx="376.82" cy="-334" rx="27" ry="18"/>
<text text-anchor="middle" x="376.82" y="-328.57" font-family="Times New Roman,serif" font-size="14.00">SIB</text>
</g>
<!-- ADF&#45;&gt;SIB -->
<g id="edge31" class="edge">
<title>ADF&#45;&gt;SIB</title>
<path fill="none" stroke="gray" stroke-width="0.2" d="M215.59,-1332.81C251.85,-1062.23 344.22,-373 344.22,-373 344.22,-373 349.96,-365.91 356.55,-357.78"/>
<polygon fill="gray" stroke="gray" stroke-width="0.2" points="359.2,-360.07 362.78,-350.1 353.76,-355.66 359.2,-360.07"/>
</g>
<!-- SMB -->
<g id="node32" class="node">
<title>SMB</title>
<ellipse fill="none" stroke="black" cx="376.82" cy="-255" rx="30.11" ry="18"/>
<text text-anchor="middle" x="376.82" y="-249.57" font-family="Times New Roman,serif" font-size="14.00">SMB</text>
</g>
<!-- ADF&#45;&gt;SMB -->
<g id="edge32" class="edge">
<title>ADF&#45;&gt;SMB</title>
<path fill="none" stroke="gray" stroke-width="5" d="M214.61,-1332.7C250.16,-1047.81 344.22,-294 344.22,-294 344.22,-294 347.83,-289.54 352.61,-283.64"/>
<polygon fill="gray" stroke="gray" stroke-width="5" points="355.78,-286.68 358.68,-276.16 348.98,-281.17 355.78,-286.68"/>
</g>
<!-- SMD -->
<g id="node33" class="node">
<title>SMD</title>
<ellipse fill="none" stroke="black" cx="376.82" cy="-176" rx="30.61" ry="18"/>
<text text-anchor="middle" x="376.82" y="-170.57" font-family="Times New Roman,serif" font-size="14.00">SMD</text>
</g>
<!-- ADF&#45;&gt;SMD -->
<g id="edge33" class="edge">
<title>ADF&#45;&gt;SMD</title>
<path fill="none" stroke="gray" stroke-width="0.2" d="M213.79,-1332.36C248.68,-1033.44 344.22,-215 344.22,-215 344.22,-215 349.92,-207.97 356.48,-199.87"/>
<polygon fill="gray" stroke="gray" stroke-width="0.2" points="358.84,-202.52 362.41,-192.55 353.4,-198.11 358.84,-202.52"/>
</g>
<!-- URX -->
<g id="node34" class="node">
<title>URX</title>
<ellipse fill="none" stroke="black" cx="376.82" cy="-97" rx="30.11" ry="18"/>
<text text-anchor="middle" x="376.82" y="-91.58" font-family="Times New Roman,serif" font-size="14.00">URX</text>
</g>
<!-- ADF&#45;&gt;URX -->
<g id="edge34" class="edge">
<title>ADF&#45;&gt;URX</title>
<path fill="none" stroke="gray" stroke-width="5" d="M212.03,-1332.32C242.87,-1039.63 329.9,-245.12 347.97,-122.68"/>
<polygon fill="gray" stroke="gray" stroke-width="5" points="352.26,-123.55 349.78,-112.92 343.66,-121.96 352.26,-123.55"/>
</g>
<!-- URY -->
<g id="node35" class="node">
<title>URY</title>
<ellipse fill="none" stroke="black" cx="376.82" cy="-18" rx="30.11" ry="18"/>
<text text-anchor="middle" x="376.82" y="-12.57" font-family="Times New Roman,serif" font-size="14.00">URY</text>
</g>
<!-- ADF&#45;&gt;URY -->
<g id="edge35" class="edge">
<title>ADF&#45;&gt;URY</title>
<path fill="none" stroke="gray" stroke-width="0.2" d="M212.35,-1332.34C245.98,-1007.13 344.22,-57 344.22,-57 344.22,-57 349.92,-49.97 356.48,-41.87"/>
<polygon fill="gray" stroke="gray" stroke-width="0.2" points="358.84,-44.52 362.41,-34.55 353.4,-40.11 358.84,-44.52"/>
</g>
<!-- ADA&#45;&gt;ADF -->
<g id="edge36" class="edge">
<title>ADA&#45;&gt;ADF</title>
<path fill="none" stroke="gray" stroke-width="0.2" d="M350.92,-2615.21C347.01,-2610.94 344.22,-2607.5 344.22,-2607.5 344.22,-2607.5 250.2,-1854.01 214.63,-1557.52"/>
<polygon fill="gray" stroke="gray" stroke-width="0.2" points="218.14,-1557.41 213.48,-1547.9 211.19,-1558.24 218.14,-1557.41"/>
</g>
<!-- AFD&#45;&gt;ADF -->
<g id="edge37" class="edge">
<title>AFD&#45;&gt;ADF</title>
<path fill="none" stroke="gray" stroke-width="0.2" d="M351.55,-2457.89C347.31,-2453.31 344.22,-2449.5 344.22,-2449.5 344.22,-2449.5 253.63,-1823.62 216.66,-1557.31"/>
<polygon fill="gray" stroke="gray" stroke-width="0.2" points="220.14,-1556.94 215.3,-1547.52 213.21,-1557.91 220.14,-1556.94"/>
</g>
<!-- AIA&#45;&gt;ADF -->
<g id="edge38" class="edge">
<title>AIA&#45;&gt;ADF</title>
<path fill="none" stroke="gray" stroke-width="0.2" d="M352.52,-2379.93C347.79,-2374.9 344.22,-2370.5 344.22,-2370.5 344.22,-2370.5 255.58,-1807.02 217.87,-1556.86"/>
<polygon fill="gray" stroke="gray" stroke-width="0.2" points="221.38,-1556.67 216.43,-1547.3 214.46,-1557.71 221.38,-1556.67"/>
</g>
<!-- AIN&#45;&gt;ADF -->
<g id="edge39" class="edge">
<title>AIN&#45;&gt;ADF</title>
<path fill="none" stroke="blue" stroke-width="0.2" d="M352.52,-2221.93C347.79,-2216.9 344.22,-2212.5 344.22,-2212.5 344.22,-2212.5 260.49,-1772.77 221.17,-1556.64"/>
<polygon fill="blue" stroke="blue" stroke-width="0.2" points="224.62,-1556.03 219.39,-1546.81 217.73,-1557.28 224.62,-1556.03"/>
</g>
<!-- AIY&#45;&gt;ADF -->
<g id="edge40" class="edge">
<title>AIY&#45;&gt;ADF</title>
<path fill="none" stroke="gray" stroke-width="5" d="M352.52,-2142.93C347.79,-2137.9 344.22,-2133.5 344.22,-2133.5 344.22,-2133.5 265.06,-1761.51 224.54,-1562.21"/>
<polygon fill="gray" stroke="gray" stroke-width="5" points="228.85,-1561.45 222.57,-1552.52 220.27,-1563.19 228.85,-1561.45"/>
</g>
<!-- AIZ&#45;&gt;ADF -->
<g id="edge41" class="edge">
<title>AIZ&#45;&gt;ADF</title>
<path fill="none" stroke="gray" stroke-width="2" d="M352.52,-2063.93C347.79,-2058.9 344.22,-2054.5 344.22,-2054.5 344.22,-2054.5 267.71,-1737.22 226.62,-1558.4"/>
<polygon fill="gray" stroke="gray" stroke-width="2" points="230.04,-1557.69 224.4,-1548.72 223.22,-1559.25 230.04,-1557.69"/>
</g>
<!-- ASE&#45;&gt;ADF -->
<g id="edge42" class="edge">
<title>ASE&#45;&gt;ADF</title>
<path fill="none" stroke="gray" stroke-width="2" d="M351.87,-1984.23C347.46,-1979.5 344.22,-1975.5 344.22,-1975.5 344.22,-1975.5 271.74,-1714.99 229.99,-1557.13"/>
<polygon fill="gray" stroke="gray" stroke-width="2" points="233.49,-1556.72 227.56,-1547.94 226.73,-1558.5 233.49,-1556.72"/>
</g>
<!-- ASH&#45;&gt;ADF -->
<g id="edge43" class="edge">
<title>ASH&#45;&gt;ADF</title>
<path fill="none" stroke="red" stroke-width="2" d="M351.55,-1825.89C347.31,-1821.31 344.22,-1817.5 344.22,-1817.5 344.22,-1817.5 283.07,-1665.28 240.75,-1553.9"/>
<polygon fill="red" stroke="red" stroke-width="2" points="244.09,-1552.84 237.27,-1544.73 237.54,-1555.32 244.09,-1552.84"/>
</g>
<!-- AUA&#45;&gt;ADF -->
<g id="edge44" class="edge">
<title>AUA&#45;&gt;ADF</title>
<path fill="none" stroke="gray" stroke-width="0.2" d="M350.92,-1746.21C347.01,-1741.94 344.22,-1738.5 344.22,-1738.5 344.22,-1738.5 290.14,-1633.75 248.5,-1548.08"/>
<polygon fill="gray" stroke="gray" stroke-width="0.2" points="251.77,-1546.8 244.26,-1539.33 245.47,-1549.86 251.77,-1546.8"/>
</g>
<!-- AVH&#45;&gt;ADF -->
<g id="edge45" class="edge">
<title>AVH&#45;&gt;ADF</title>
<path fill="none" stroke="red" stroke-width="5" d="M350.92,-1667.21C347.01,-1662.94 344.22,-1659.5 344.22,-1659.5 344.22,-1659.5 303.12,-1602.59 264.99,-1546.48"/>
<polygon fill="red" stroke="red" stroke-width="5" points="268.61,-1544.03 259.39,-1538.19 261.36,-1548.93 268.61,-1544.03"/>
</g>
<!-- AWA&#45;&gt;ADF -->
<g id="edge46" class="edge">
<title>AWA&#45;&gt;ADF</title>
<path fill="none" stroke="gray" stroke-width="5" d="M350.73,-1587.02C333.18,-1574.24 308.65,-1553.5 284.52,-1531.49"/>
<polygon fill="gray" stroke="gray" stroke-width="5" points="287.64,-1528.41 277.32,-1524.84 281.7,-1534.84 287.64,-1528.41"/>
</g>
<!-- AWB&#45;&gt;ADF -->
<g id="edge47" class="edge">
<title>AWB&#45;&gt;ADF</title>
<path fill="none" stroke="black" stroke-width="5" d="M344.56,-1517.56C333.5,-1514.15 320.37,-1509.24 306.61,-1503.5"/>
<polygon fill="black" stroke="black" stroke-width="5" points="308.74,-1499.65 297.83,-1499.71 305.27,-1507.69 308.74,-1499.65"/>
</g>
<!-- AWC&#45;&gt;ADF -->
<g id="edge48" class="edge">
<title>AWC&#45;&gt;ADF</title>
<path fill="none" stroke="gray" stroke-width="0.2" d="M351.42,-1451.6C341.92,-1453.32 330.3,-1454.55 317.78,-1455.29"/>
<polygon fill="gray" stroke="gray" stroke-width="0.2" points="317.69,-1451.79 307.87,-1455.76 318.02,-1458.78 317.69,-1451.79"/>
</g>
<!-- BAG&#45;&gt;ADF -->
<g id="edge49" class="edge">
<title>BAG&#45;&gt;ADF</title>
<path fill="none" stroke="gray" stroke-width="0.2" d="M361.58,-1376.78C349.97,-1385.24 332.38,-1395.27 313.04,-1404.95"/>
<polygon fill="gray" stroke="gray" stroke-width="0.2" points="311.75,-1401.69 304.32,-1409.24 314.84,-1407.97 311.75,-1401.69"/>
</g>
<!-- PVN&#45;&gt;ADF -->
<g id="edge50" class="edge">
<title>PVN&#45;&gt;ADF</title>
<path fill="none" stroke="gray" stroke-width="0.2" d="M371.16,-1220.9C362.37,-1241.1 344.22,-1263.5 344.22,-1263.5 344.22,-1263.5 312.53,-1307.38 278.99,-1351.58"/>
<polygon fill="gray" stroke="gray" stroke-width="0.2" points="276.38,-1349.22 273.11,-1359.3 281.95,-1353.46 276.38,-1349.22"/>
</g>
<!-- PVP&#45;&gt;ADF -->
<g id="edge51" class="edge">
<title>PVP&#45;&gt;ADF</title>
<path fill="none" stroke="gray" stroke-width="0.2" d="M371.16,-1141.9C362.37,-1162.1 344.22,-1184.5 344.22,-1184.5 344.22,-1184.5 301.27,-1267.69 262.45,-1339.36"/>
<polygon fill="gray" stroke="gray" stroke-width="0.2" points="259.58,-1337.31 257.88,-1347.77 265.73,-1340.65 259.58,-1337.31"/>
</g>
<!-- RIA&#45;&gt;ADF -->
<g id="edge52" class="edge">
<title>RIA&#45;&gt;ADF</title>
<path fill="none" stroke="gray" stroke-width="0.2" d="M371.16,-983.9C362.37,-1004.1 344.22,-1026.5 344.22,-1026.5 344.22,-1026.5 284.94,-1206.84 242.71,-1329.55"/>
<polygon fill="gray" stroke="gray" stroke-width="0.2" points="239.5,-1328.13 239.55,-1338.73 246.11,-1330.41 239.5,-1328.13"/>
</g>
<!-- RIG&#45;&gt;ADF -->
<g id="edge53" class="edge">
<title>RIG&#45;&gt;ADF</title>
<path fill="none" stroke="gray" stroke-width="0.2" d="M371.16,-746.9C362.37,-767.1 344.22,-789.5 344.22,-789.5 344.22,-789.5 270.08,-1137.89 228.57,-1324.95"/>
<polygon fill="gray" stroke="gray" stroke-width="0.2" points="225.19,-1324.01 226.44,-1334.53 232.03,-1325.53 225.19,-1324.01"/>
</g>
<!-- RIH&#45;&gt;ADF -->
<g id="edge54" class="edge">
<title>RIH&#45;&gt;ADF</title>
<path fill="none" stroke="gray" stroke-width="0.2" d="M371.16,-667.9C362.37,-688.1 344.22,-710.5 344.22,-710.5 344.22,-710.5 266.56,-1118.37 225.7,-1324.34"/>
<polygon fill="gray" stroke="gray" stroke-width="0.2" points="222.3,-1323.51 223.78,-1334 229.16,-1324.87 222.3,-1323.51"/>
</g>
<!-- RIP&#45;&gt;ADF -->
<g id="edge55" class="edge">
<title>RIP&#45;&gt;ADF</title>
<path fill="none" stroke="blue" stroke-width="2" d="M371.16,-588.9C362.37,-609.1 344.22,-631.5 344.22,-631.5 344.22,-631.5 264.1,-1096.56 223.8,-1321.43"/>
<polygon fill="blue" stroke="blue" stroke-width="2" points="220.41,-1320.48 222.09,-1330.94 227.3,-1321.72 220.41,-1320.48"/>
</g>
<!-- RIR&#45;&gt;ADF -->
<g id="edge56" class="edge">
<title>RIR&#45;&gt;ADF</title>
<path fill="none" stroke="red" stroke-width="5" d="M371.16,-509.9C362.37,-530.1 344.22,-552.5 344.22,-552.5 344.22,-552.5 262.19,-1073.95 222.39,-1317.62"/>
<polygon fill="red" stroke="red" stroke-width="5" points="218.07,-1316.88 220.78,-1327.46 226.71,-1318.29 218.07,-1316.88"/>
</g>
<!-- URX&#45;&gt;ADF -->
<g id="edge57" class="edge">
<title>URX&#45;&gt;ADF</title>
<path fill="none" stroke="gray" stroke-width="0.2" d="M371.16,-114.9C362.37,-135.1 344.22,-157.5 344.22,-157.5 344.22,-157.5 251.28,-1005.02 215.25,-1322.27"/>
<polygon fill="gray" stroke="gray" stroke-width="0.2" points="211.79,-1321.79 214.13,-1332.12 218.74,-1322.58 211.79,-1321.79"/>
</g>
<!-- AIM -->
<g id="node36" class="node">
<title>AIM</title>
<ellipse fill="none" stroke="black" cx="28.11" cy="-1480" rx="28.11" ry="18"/>
<text text-anchor="middle" x="28.11" y="-1474.58" font-family="Times New Roman,serif" font-size="14.00">AIM</text>
</g>
<!-- AIM&#45;&gt;ADF -->
<g id="edge58" class="edge">
<title>AIM&#45;&gt;ADF</title>
<path fill="none" stroke="gray" stroke-width="0.2" d="M54.95,-1473.92C63.57,-1471.9 73.81,-1469.49 84.8,-1466.91"/>
<polygon fill="gray" stroke="gray" stroke-width="0.2" points="85.39,-1470.36 94.33,-1464.67 83.79,-1463.55 85.39,-1470.36"/>
</g>
<!-- ASI -->
<g id="node37" class="node">
<title>ASI</title>
<ellipse fill="none" stroke="black" cx="28.11" cy="-1401" rx="27" ry="18"/>
<text text-anchor="middle" x="28.11" y="-1395.58" font-family="Times New Roman,serif" font-size="14.00">ASI</text>
</g>
<!-- ASI&#45;&gt;ADF -->
<g id="edge59" class="edge">
<title>ASI&#45;&gt;ADF</title>
<path fill="none" stroke="gray" stroke-width="0.2" d="M54.21,-1406.75C62.93,-1408.75 73.36,-1411.15 84.58,-1413.72"/>
<polygon fill="gray" stroke="gray" stroke-width="0.2" points="83.79,-1417.13 94.32,-1415.95 85.35,-1410.3 83.79,-1417.13"/>
</g>
</g>
</svg>
