<?xml version="1.0" encoding="UTF-8" standalone="no"?>
<!DOCTYPE svg PUBLIC "-//W3C//DTD SVG 1.1//EN"
 "http://www.w3.org/Graphics/SVG/1.1/DTD/svg11.dtd">
<!-- Generated by graphviz version 11.0.0 (20240428.1522)
 -->
<!-- Pages: 1 -->
<svg width="420pt" height="3520pt"
 viewBox="0.00 0.00 420.42 3520.00" xmlns="http://www.w3.org/2000/svg" xmlns:xlink="http://www.w3.org/1999/xlink">
<g id="graph0" class="graph" transform="scale(1 1) rotate(0) translate(4 3516)">
<polygon fill="white" stroke="none" points="-4,4 -4,-3516 416.42,-3516 416.42,4 -4,4"/>
<!-- ADL -->
<g id="node1" class="node">
<title>ADL</title>
<ellipse fill="none" stroke="black" cx="203.21" cy="-1835" rx="108" ry="108"/>
<text text-anchor="middle" x="203.21" y="-1816" font-family="Times New Roman,serif" font-size="50.00">ADL</text>
</g>
<!-- ADL&#45;&gt;ADL -->
<g id="edge1" class="edge">
<title>ADL&#45;&gt;ADL</title>
<path fill="none" stroke="gray" stroke-width="2" d="M170.97,-1938.39C172.89,-1965.51 183.63,-1986 203.21,-1986 219.58,-1986 229.78,-1971.68 233.8,-1951.14"/>
<polygon fill="gray" stroke="gray" stroke-width="2" points="237.25,-1951.76 235.07,-1941.4 230.31,-1950.86 237.25,-1951.76"/>
</g>
<!-- ADA -->
<g id="node2" class="node">
<title>ADA</title>
<ellipse fill="none" stroke="black" cx="379.82" cy="-3494" rx="30.11" ry="18"/>
<text text-anchor="middle" x="379.82" y="-3488.57" font-family="Times New Roman,serif" font-size="14.00">ADA</text>
</g>
<!-- ADL&#45;&gt;ADA -->
<g id="edge2" class="edge">
<title>ADL&#45;&gt;ADA</title>
<path fill="none" stroke="gray" stroke-width="2" d="M214.53,-1942.88C247.35,-2302.12 347.21,-3433.5 347.21,-3433.5 347.21,-3433.5 359.19,-3448.29 368.4,-3464.67"/>
<polygon fill="gray" stroke="gray" stroke-width="2" points="365.17,-3466.04 372.79,-3473.4 371.43,-3462.89 365.17,-3466.04"/>
</g>
<!-- AIA -->
<g id="node3" class="node">
<title>AIA</title>
<ellipse fill="none" stroke="black" cx="379.82" cy="-3415" rx="27" ry="18"/>
<text text-anchor="middle" x="379.82" y="-3409.57" font-family="Times New Roman,serif" font-size="14.00">AIA</text>
</g>
<!-- ADL&#45;&gt;AIA -->
<g id="edge3" class="edge">
<title>ADL&#45;&gt;AIA</title>
<path fill="none" stroke="black" stroke-width="5" d="M215.05,-1942.62C248.39,-2289.58 347.21,-3354.5 347.21,-3354.5 347.21,-3354.5 357.85,-3367.63 366.78,-3382.85"/>
<polygon fill="black" stroke="black" stroke-width="5" points="362.81,-3384.69 371.29,-3391.56 370.58,-3380.67 362.81,-3384.69"/>
</g>
<!-- AIB -->
<g id="node4" class="node">
<title>AIB</title>
<ellipse fill="none" stroke="black" cx="379.82" cy="-3336" rx="27" ry="18"/>
<text text-anchor="middle" x="379.82" y="-3330.57" font-family="Times New Roman,serif" font-size="14.00">AIB</text>
</g>
<!-- ADL&#45;&gt;AIB -->
<g id="edge4" class="edge">
<title>ADL&#45;&gt;AIB</title>
<path fill="none" stroke="black" stroke-width="5" d="M215.64,-1942.5C249.55,-2277.01 347.21,-3275.5 347.21,-3275.5 347.21,-3275.5 357.85,-3288.63 366.78,-3303.85"/>
<polygon fill="black" stroke="black" stroke-width="5" points="362.81,-3305.69 371.29,-3312.56 370.58,-3301.67 362.81,-3305.69"/>
</g>
<!-- AIM -->
<g id="node5" class="node">
<title>AIM</title>
<ellipse fill="none" stroke="black" cx="379.82" cy="-3257" rx="28.11" ry="18"/>
<text text-anchor="middle" x="379.82" y="-3251.57" font-family="Times New Roman,serif" font-size="14.00">AIM</text>
</g>
<!-- ADL&#45;&gt;AIM -->
<g id="edge5" class="edge">
<title>ADL&#45;&gt;AIM</title>
<path fill="none" stroke="gray" stroke-width="2" d="M216.31,-1942.42C250.82,-2264.2 347.21,-3196.5 347.21,-3196.5 347.21,-3196.5 359.19,-3211.29 368.4,-3227.67"/>
<polygon fill="gray" stroke="gray" stroke-width="2" points="365.17,-3229.04 372.79,-3236.4 371.43,-3225.89 365.17,-3229.04"/>
</g>
<!-- ALA -->
<g id="node6" class="node">
<title>ALA</title>
<ellipse fill="none" stroke="black" cx="379.82" cy="-3178" rx="29.11" ry="18"/>
<text text-anchor="middle" x="379.82" y="-3172.57" font-family="Times New Roman,serif" font-size="14.00">ALA</text>
</g>
<!-- ADL&#45;&gt;ALA -->
<g id="edge6" class="edge">
<title>ADL&#45;&gt;ALA</title>
<path fill="none" stroke="gray" stroke-width="5" d="M217.09,-1942.58C252.24,-2251.48 347.21,-3117.5 347.21,-3117.5 347.21,-3117.5 357.85,-3130.63 366.78,-3145.85"/>
<polygon fill="gray" stroke="gray" stroke-width="5" points="362.81,-3147.69 371.29,-3154.56 370.58,-3143.67 362.81,-3147.69"/>
</g>
<!-- ALM -->
<g id="node7" class="node">
<title>ALM</title>
<ellipse fill="none" stroke="black" cx="379.82" cy="-3099" rx="30.61" ry="18"/>
<text text-anchor="middle" x="379.82" y="-3093.57" font-family="Times New Roman,serif" font-size="14.00">ALM</text>
</g>
<!-- ADL&#45;&gt;ALM -->
<g id="edge7" class="edge">
<title>ADL&#45;&gt;ALM</title>
<path fill="none" stroke="gray" stroke-width="0.2" d="M216.78,-1942.64C251.67,-2241.56 347.21,-3060 347.21,-3060 347.21,-3060 352.91,-3067.03 359.47,-3075.13"/>
<polygon fill="gray" stroke="gray" stroke-width="0.2" points="356.39,-3076.89 365.41,-3082.45 361.83,-3072.48 356.39,-3076.89"/>
</g>
<!-- ASE -->
<g id="node8" class="node">
<title>ASE</title>
<ellipse fill="none" stroke="black" cx="379.82" cy="-3020" rx="28.11" ry="18"/>
<text text-anchor="middle" x="379.82" y="-3014.57" font-family="Times New Roman,serif" font-size="14.00">ASE</text>
</g>
<!-- ADL&#45;&gt;ASE -->
<g id="edge8" class="edge">
<title>ADL&#45;&gt;ASE</title>
<path fill="none" stroke="gray" stroke-width="5" d="M218.91,-1942.35C255.4,-2223.73 347.21,-2959.5 347.21,-2959.5 347.21,-2959.5 357.85,-2972.63 366.78,-2987.85"/>
<polygon fill="gray" stroke="gray" stroke-width="5" points="362.81,-2989.69 371.29,-2996.56 370.58,-2985.67 362.81,-2989.69"/>
</g>
<!-- ASG -->
<g id="node9" class="node">
<title>ASG</title>
<ellipse fill="none" stroke="black" cx="379.82" cy="-2941" rx="29.61" ry="18"/>
<text text-anchor="middle" x="379.82" y="-2935.57" font-family="Times New Roman,serif" font-size="14.00">ASG</text>
</g>
<!-- ADL&#45;&gt;ASG -->
<g id="edge9" class="edge">
<title>ADL&#45;&gt;ASG</title>
<path fill="none" stroke="gray" stroke-width="2" d="M218.58,-1942.19C254.84,-2212.77 347.21,-2902 347.21,-2902 347.21,-2902 352.16,-2908.1 358.13,-2915.48"/>
<polygon fill="gray" stroke="gray" stroke-width="2" points="355.04,-2917.22 364.06,-2922.79 360.48,-2912.81 355.04,-2917.22"/>
</g>
<!-- ASH -->
<g id="node10" class="node">
<title>ASH</title>
<ellipse fill="none" stroke="black" cx="379.82" cy="-2862" rx="29.11" ry="18"/>
<text text-anchor="middle" x="379.82" y="-2856.57" font-family="Times New Roman,serif" font-size="14.00">ASH</text>
</g>
<!-- ADL&#45;&gt;ASH -->
<g id="edge10" class="edge">
<title>ADL&#45;&gt;ASH</title>
<path fill="none" stroke="gray" stroke-width="5" d="M221.25,-1941.59C259.17,-2193.18 347.21,-2801.5 347.21,-2801.5 347.21,-2801.5 357.85,-2814.63 366.78,-2829.85"/>
<polygon fill="gray" stroke="gray" stroke-width="5" points="362.81,-2831.69 371.29,-2838.56 370.58,-2827.67 362.81,-2831.69"/>
</g>
<!-- ASI -->
<g id="node11" class="node">
<title>ASI</title>
<ellipse fill="none" stroke="black" cx="379.82" cy="-2783" rx="27" ry="18"/>
<text text-anchor="middle" x="379.82" y="-2777.57" font-family="Times New Roman,serif" font-size="14.00">ASI</text>
</g>
<!-- ADL&#45;&gt;ASI -->
<g id="edge11" class="edge">
<title>ADL&#45;&gt;ASI</title>
<path fill="none" stroke="blue" stroke-width="5" d="M222.76,-1941.39C261.45,-2177.36 347.21,-2722.5 347.21,-2722.5 347.21,-2722.5 357.85,-2735.63 366.78,-2750.85"/>
<polygon fill="blue" stroke="blue" stroke-width="5" points="362.81,-2752.69 371.29,-2759.56 370.58,-2748.67 362.81,-2752.69"/>
</g>
<!-- ASJ -->
<g id="node12" class="node">
<title>ASJ</title>
<ellipse fill="none" stroke="black" cx="379.82" cy="-2704" rx="27" ry="18"/>
<text text-anchor="middle" x="379.82" y="-2698.57" font-family="Times New Roman,serif" font-size="14.00">ASJ</text>
</g>
<!-- ADL&#45;&gt;ASJ -->
<g id="edge12" class="edge">
<title>ADL&#45;&gt;ASJ</title>
<path fill="none" stroke="gray" stroke-width="0.2" d="M224.55,-1941.08C264.03,-2160.69 347.21,-2643.5 347.21,-2643.5 347.21,-2643.5 360.37,-2659.74 369.71,-2677.04"/>
<polygon fill="gray" stroke="gray" stroke-width="0.2" points="366.47,-2678.39 374.02,-2685.83 372.76,-2675.31 366.47,-2678.39"/>
</g>
<!-- ASK -->
<g id="node13" class="node">
<title>ASK</title>
<ellipse fill="none" stroke="black" cx="379.82" cy="-2625" rx="29.11" ry="18"/>
<text text-anchor="middle" x="379.82" y="-2619.57" font-family="Times New Roman,serif" font-size="14.00">ASK</text>
</g>
<!-- ADL&#45;&gt;ASK -->
<g id="edge13" class="edge">
<title>ADL&#45;&gt;ASK</title>
<path fill="none" stroke="gray" stroke-width="2" d="M226.72,-1940.7C266.99,-2143.16 347.21,-2564.5 347.21,-2564.5 347.21,-2564.5 359.19,-2579.29 368.4,-2595.67"/>
<polygon fill="gray" stroke="gray" stroke-width="2" points="365.17,-2597.04 372.79,-2604.4 371.43,-2593.89 365.17,-2597.04"/>
</g>
<!-- AVA -->
<g id="node14" class="node">
<title>AVA</title>
<ellipse fill="none" stroke="black" cx="379.82" cy="-2546" rx="30.11" ry="18"/>
<text text-anchor="middle" x="379.82" y="-2540.57" font-family="Times New Roman,serif" font-size="14.00">AVA</text>
</g>
<!-- ADL&#45;&gt;AVA -->
<g id="edge14" class="edge">
<title>ADL&#45;&gt;AVA</title>
<path fill="none" stroke="gray" stroke-width="5" d="M226.72,-1940.74C266.99,-2129.98 347.21,-2507 347.21,-2507 347.21,-2507 350.82,-2511.46 355.6,-2517.36"/>
<polygon fill="gray" stroke="gray" stroke-width="5" points="351.98,-2519.83 361.67,-2524.84 358.77,-2514.32 351.98,-2519.83"/>
</g>
<!-- AVB -->
<g id="node15" class="node">
<title>AVB</title>
<ellipse fill="none" stroke="black" cx="379.82" cy="-2467" rx="29.61" ry="18"/>
<text text-anchor="middle" x="379.82" y="-2461.57" font-family="Times New Roman,serif" font-size="14.00">AVB</text>
</g>
<!-- ADL&#45;&gt;AVB -->
<g id="edge15" class="edge">
<title>ADL&#45;&gt;AVB</title>
<path fill="none" stroke="black" stroke-width="5" d="M229.53,-1939.99C270.61,-2110.31 347.21,-2428 347.21,-2428 347.21,-2428 350.93,-2432.58 355.81,-2438.61"/>
<polygon fill="black" stroke="black" stroke-width="5" points="352.34,-2441.28 362.04,-2446.29 359.14,-2435.77 352.34,-2441.28"/>
</g>
<!-- AVD -->
<g id="node16" class="node">
<title>AVD</title>
<ellipse fill="none" stroke="black" cx="379.82" cy="-2388" rx="30.11" ry="18"/>
<text text-anchor="middle" x="379.82" y="-2382.57" font-family="Times New Roman,serif" font-size="14.00">AVD</text>
</g>
<!-- ADL&#45;&gt;AVD -->
<g id="edge16" class="edge">
<title>ADL&#45;&gt;AVD</title>
<path fill="none" stroke="black" stroke-width="5" d="M233.15,-1939.02C274.94,-2089.21 347.21,-2349 347.21,-2349 347.21,-2349 350.82,-2353.46 355.6,-2359.36"/>
<polygon fill="black" stroke="black" stroke-width="5" points="351.98,-2361.83 361.67,-2366.84 358.77,-2356.32 351.98,-2361.83"/>
</g>
<!-- AVE -->
<g id="node17" class="node">
<title>AVE</title>
<ellipse fill="none" stroke="black" cx="379.82" cy="-2309" rx="29.11" ry="18"/>
<text text-anchor="middle" x="379.82" y="-2303.57" font-family="Times New Roman,serif" font-size="14.00">AVE</text>
</g>
<!-- ADL&#45;&gt;AVE -->
<g id="edge17" class="edge">
<title>ADL&#45;&gt;AVE</title>
<path fill="none" stroke="gray" stroke-width="2" d="M237.92,-1937.54C280.2,-2066.14 347.21,-2270 347.21,-2270 347.21,-2270 352.16,-2276.1 358.13,-2283.48"/>
<polygon fill="gray" stroke="gray" stroke-width="2" points="355.04,-2285.22 364.06,-2290.79 360.48,-2280.81 355.04,-2285.22"/>
</g>
<!-- AVH -->
<g id="node18" class="node">
<title>AVH</title>
<ellipse fill="none" stroke="black" cx="379.82" cy="-2230" rx="30.11" ry="18"/>
<text text-anchor="middle" x="379.82" y="-2224.57" font-family="Times New Roman,serif" font-size="14.00">AVH</text>
</g>
<!-- ADL&#45;&gt;AVH -->
<g id="edge18" class="edge">
<title>ADL&#45;&gt;AVH</title>
<path fill="none" stroke="gray" stroke-width="0.2" d="M250.05,-1932.79C291.88,-2031.74 347.21,-2169.5 347.21,-2169.5 347.21,-2169.5 360.37,-2185.74 369.71,-2203.04"/>
<polygon fill="gray" stroke="gray" stroke-width="0.2" points="366.47,-2204.39 374.02,-2211.83 372.76,-2201.31 366.47,-2204.39"/>
</g>
<!-- AVJ -->
<g id="node19" class="node">
<title>AVJ</title>
<ellipse fill="none" stroke="black" cx="379.82" cy="-2151" rx="27.11" ry="18"/>
<text text-anchor="middle" x="379.82" y="-2145.57" font-family="Times New Roman,serif" font-size="14.00">AVJ</text>
</g>
<!-- ADL&#45;&gt;AVJ -->
<g id="edge19" class="edge">
<title>ADL&#45;&gt;AVJ</title>
<path fill="none" stroke="gray" stroke-width="5" d="M260.73,-1926.97C300.7,-2000.4 347.21,-2090.5 347.21,-2090.5 347.21,-2090.5 357.85,-2103.63 366.78,-2118.85"/>
<polygon fill="gray" stroke="gray" stroke-width="5" points="362.81,-2120.69 371.29,-2127.56 370.58,-2116.67 362.81,-2120.69"/>
</g>
<!-- AWA -->
<g id="node20" class="node">
<title>AWA</title>
<ellipse fill="none" stroke="black" cx="379.82" cy="-2072" rx="32.6" ry="18"/>
<text text-anchor="middle" x="379.82" y="-2066.57" font-family="Times New Roman,serif" font-size="14.00">AWA</text>
</g>
<!-- ADL&#45;&gt;AWA -->
<g id="edge20" class="edge">
<title>ADL&#45;&gt;AWA</title>
<path fill="none" stroke="gray" stroke-width="0.2" d="M275.92,-1915.46C311.6,-1962.19 347.21,-2011.5 347.21,-2011.5 347.21,-2011.5 360.24,-2027.57 369.56,-2044.77"/>
<polygon fill="gray" stroke="gray" stroke-width="0.2" points="366.32,-2046.1 373.88,-2053.52 372.59,-2043 366.32,-2046.1"/>
</g>
<!-- AWB -->
<g id="node21" class="node">
<title>AWB</title>
<ellipse fill="none" stroke="black" cx="379.82" cy="-1993" rx="32.1" ry="18"/>
<text text-anchor="middle" x="379.82" y="-1987.58" font-family="Times New Roman,serif" font-size="14.00">AWB</text>
</g>
<!-- ADL&#45;&gt;AWB -->
<g id="edge21" class="edge">
<title>ADL&#45;&gt;AWB</title>
<path fill="none" stroke="black" stroke-width="2" d="M291.51,-1897.88C317.55,-1921.44 343.59,-1946.92 360.37,-1965.92"/>
<polygon fill="black" stroke="black" stroke-width="2" points="357.6,-1968.06 366.72,-1973.45 362.94,-1963.55 357.6,-1968.06"/>
</g>
<!-- AWC -->
<g id="node22" class="node">
<title>AWC</title>
<ellipse fill="none" stroke="black" cx="379.82" cy="-1914" rx="32.6" ry="18"/>
<text text-anchor="middle" x="379.82" y="-1908.58" font-family="Times New Roman,serif" font-size="14.00">AWC</text>
</g>
<!-- ADL&#45;&gt;AWC -->
<g id="edge22" class="edge">
<title>ADL&#45;&gt;AWC</title>
<path fill="none" stroke="gray" stroke-width="5" d="M307.04,-1865.63C323.04,-1873.35 338.32,-1881.48 350.64,-1889.01"/>
<polygon fill="gray" stroke="gray" stroke-width="5" points="348.08,-1892.57 358.84,-1894.41 352.89,-1885.26 348.08,-1892.57"/>
</g>
<!-- CEP -->
<g id="node23" class="node">
<title>CEP</title>
<ellipse fill="none" stroke="black" cx="379.82" cy="-1835" rx="28.11" ry="18"/>
<text text-anchor="middle" x="379.82" y="-1829.58" font-family="Times New Roman,serif" font-size="14.00">CEP</text>
</g>
<!-- ADL&#45;&gt;CEP -->
<g id="edge23" class="edge">
<title>ADL&#45;&gt;CEP</title>
<path fill="none" stroke="gray" stroke-width="0.2" d="M310.56,-1819.22C323.8,-1819.71 336.43,-1820.71 347.15,-1822.24"/>
<polygon fill="gray" stroke="gray" stroke-width="0.2" points="346.43,-1825.66 356.87,-1823.88 347.6,-1818.76 346.43,-1825.66"/>
</g>
<!-- HSN -->
<g id="node24" class="node">
<title>HSN</title>
<ellipse fill="none" stroke="black" cx="379.82" cy="-1756" rx="29.11" ry="18"/>
<text text-anchor="middle" x="379.82" y="-1750.58" font-family="Times New Roman,serif" font-size="14.00">HSN</text>
</g>
<!-- ADL&#45;&gt;HSN -->
<g id="edge24" class="edge">
<title>ADL&#45;&gt;HSN</title>
<path fill="none" stroke="gray" stroke-width="2" d="M295.09,-1777.77C310.13,-1771.06 325.03,-1765.06 338,-1760.58"/>
<polygon fill="gray" stroke="gray" stroke-width="2" points="338.93,-1763.95 347.37,-1757.55 336.78,-1757.29 338.93,-1763.95"/>
</g>
<!-- IL1 -->
<g id="node25" class="node">
<title>IL1</title>
<ellipse fill="none" stroke="black" cx="379.82" cy="-1677" rx="27" ry="18"/>
<text text-anchor="middle" x="379.82" y="-1671.58" font-family="Times New Roman,serif" font-size="14.00">IL1</text>
</g>
<!-- ADL&#45;&gt;IL1 -->
<g id="edge25" class="edge">
<title>ADL&#45;&gt;IL1</title>
<path fill="none" stroke="gray" stroke-width="2" d="M284.11,-1762.7C309.14,-1740.05 335,-1716.65 353.36,-1700.04"/>
<polygon fill="gray" stroke="gray" stroke-width="2" points="355.67,-1702.66 360.74,-1693.36 350.97,-1697.47 355.67,-1702.66"/>
</g>
<!-- IL2 -->
<g id="node26" class="node">
<title>IL2</title>
<ellipse fill="none" stroke="black" cx="379.82" cy="-1598" rx="27" ry="18"/>
<text text-anchor="middle" x="379.82" y="-1592.58" font-family="Times New Roman,serif" font-size="14.00">IL2</text>
</g>
<!-- ADL&#45;&gt;IL2 -->
<g id="edge26" class="edge">
<title>ADL&#45;&gt;IL2</title>
<path fill="none" stroke="gray" stroke-width="0.2" d="M258.89,-1741.97C299.26,-1681.9 347.21,-1615.5 347.21,-1615.5 347.21,-1615.5 347.8,-1614.77 348.82,-1613.57"/>
<polygon fill="gray" stroke="gray" stroke-width="0.2" points="351.27,-1616.09 355.32,-1606.29 346.05,-1611.42 351.27,-1616.09"/>
</g>
<!-- OLL -->
<g id="node27" class="node">
<title>OLL</title>
<ellipse fill="none" stroke="black" cx="379.82" cy="-1519" rx="28.61" ry="18"/>
<text text-anchor="middle" x="379.82" y="-1513.58" font-family="Times New Roman,serif" font-size="14.00">OLL</text>
</g>
<!-- ADL&#45;&gt;OLL -->
<g id="edge27" class="edge">
<title>ADL&#45;&gt;OLL</title>
<path fill="none" stroke="gray" stroke-width="0.2" d="M253.63,-1739.28C294.96,-1659.22 347.21,-1558 347.21,-1558 347.21,-1558 352.96,-1550.91 359.55,-1542.78"/>
<polygon fill="gray" stroke="gray" stroke-width="0.2" points="362.2,-1545.07 365.77,-1535.1 356.76,-1540.66 362.2,-1545.07"/>
</g>
<!-- OLQ -->
<g id="node28" class="node">
<title>OLQ</title>
<ellipse fill="none" stroke="black" cx="379.82" cy="-1440" rx="30.11" ry="18"/>
<text text-anchor="middle" x="379.82" y="-1434.58" font-family="Times New Roman,serif" font-size="14.00">OLQ</text>
</g>
<!-- ADL&#45;&gt;OLQ -->
<g id="edge28" class="edge">
<title>ADL&#45;&gt;OLQ</title>
<path fill="none" stroke="gray" stroke-width="nan" d="M244.43,-1734.89C286.72,-1629.59 347.21,-1479 347.21,-1479 347.21,-1479 356.94,-1467 365.6,-1456.31"/>
<polygon fill="gray" stroke="gray" stroke-width="nan" points="nan,-nan nan,-nan nan,-nan nan,-nan"/>
</g>
<!-- PVC -->
<g id="node29" class="node">
<title>PVC</title>
<ellipse fill="none" stroke="black" cx="379.82" cy="-1361" rx="29.11" ry="18"/>
<text text-anchor="middle" x="379.82" y="-1355.58" font-family="Times New Roman,serif" font-size="14.00">PVC</text>
</g>
<!-- ADL&#45;&gt;PVC -->
<g id="edge29" class="edge">
<title>ADL&#45;&gt;PVC</title>
<path fill="none" stroke="gray" stroke-width="0.2" d="M233.84,-1730.97C275.73,-1595.95 347.21,-1378.5 347.21,-1378.5 347.21,-1378.5 347.41,-1378.26 347.76,-1377.83"/>
<polygon fill="gray" stroke="gray" stroke-width="0.2" points="350.38,-1380.16 354.34,-1370.34 345.12,-1375.54 350.38,-1380.16"/>
</g>
<!-- PVD -->
<g id="node30" class="node">
<title>PVD</title>
<ellipse fill="none" stroke="black" cx="379.82" cy="-1282" rx="29.11" ry="18"/>
<text text-anchor="middle" x="379.82" y="-1276.58" font-family="Times New Roman,serif" font-size="14.00">PVD</text>
</g>
<!-- ADL&#45;&gt;PVD -->
<g id="edge30" class="edge">
<title>ADL&#45;&gt;PVD</title>
<path fill="none" stroke="blue" stroke-width="0.2" d="M233.15,-1730.98C274.94,-1580.79 347.21,-1321 347.21,-1321 347.21,-1321 352.96,-1313.91 359.55,-1305.78"/>
<polygon fill="blue" stroke="blue" stroke-width="0.2" points="362.2,-1308.07 365.77,-1298.1 356.76,-1303.66 362.2,-1308.07"/>
</g>
<!-- PVN -->
<g id="node31" class="node">
<title>PVN</title>
<ellipse fill="none" stroke="black" cx="379.82" cy="-1203" rx="29.11" ry="18"/>
<text text-anchor="middle" x="379.82" y="-1197.58" font-family="Times New Roman,serif" font-size="14.00">PVN</text>
</g>
<!-- ADL&#45;&gt;PVN -->
<g id="edge31" class="edge">
<title>ADL&#45;&gt;PVN</title>
<path fill="none" stroke="gray" stroke-width="nan" d="M229.53,-1730.01C270.61,-1559.69 347.21,-1242 347.21,-1242 347.21,-1242 357.21,-1229.66 365.96,-1218.86"/>
<polygon fill="gray" stroke="gray" stroke-width="nan" points="nan,-nan nan,-nan nan,-nan nan,-nan"/>
</g>
<!-- PVP -->
<g id="node32" class="node">
<title>PVP</title>
<ellipse fill="none" stroke="black" cx="379.82" cy="-1124" rx="28.11" ry="18"/>
<text text-anchor="middle" x="379.82" y="-1118.58" font-family="Times New Roman,serif" font-size="14.00">PVP</text>
</g>
<!-- ADL&#45;&gt;PVP -->
<g id="edge32" class="edge">
<title>ADL&#45;&gt;PVP</title>
<path fill="none" stroke="gray" stroke-width="nan" d="M226.72,-1729.26C266.99,-1540.02 347.21,-1163 347.21,-1163 347.21,-1163 357.21,-1150.66 365.96,-1139.86"/>
<polygon fill="gray" stroke="gray" stroke-width="nan" points="nan,-nan nan,-nan nan,-nan nan,-nan"/>
</g>
<!-- PVQ -->
<g id="node33" class="node">
<title>PVQ</title>
<ellipse fill="none" stroke="black" cx="379.82" cy="-1045" rx="29.61" ry="18"/>
<text text-anchor="middle" x="379.82" y="-1039.58" font-family="Times New Roman,serif" font-size="14.00">PVQ</text>
</g>
<!-- ADL&#45;&gt;PVQ -->
<g id="edge33" class="edge">
<title>ADL&#45;&gt;PVQ</title>
<path fill="none" stroke="gray" stroke-width="0.2" d="M222.33,-1728.48C260.8,-1516.3 347.21,-1062.5 347.21,-1062.5 347.21,-1062.5 347.4,-1062.27 347.74,-1061.87"/>
<polygon fill="gray" stroke="gray" stroke-width="0.2" points="350.07,-1064.51 354.03,-1054.68 344.81,-1059.9 350.07,-1064.51"/>
</g>
<!-- RIA -->
<g id="node34" class="node">
<title>RIA</title>
<ellipse fill="none" stroke="black" cx="379.82" cy="-966" rx="27" ry="18"/>
<text text-anchor="middle" x="379.82" y="-960.58" font-family="Times New Roman,serif" font-size="14.00">RIA</text>
</g>
<!-- ADL&#45;&gt;RIA -->
<g id="edge34" class="edge">
<title>ADL&#45;&gt;RIA</title>
<path fill="none" stroke="gray" stroke-width="0.2" d="M222.54,-1728.61C261.13,-1504.65 347.21,-1005 347.21,-1005 347.21,-1005 352.96,-997.91 359.55,-989.78"/>
<polygon fill="gray" stroke="gray" stroke-width="0.2" points="362.2,-992.07 365.77,-982.1 356.76,-987.66 362.2,-992.07"/>
</g>
<!-- RIC -->
<g id="node35" class="node">
<title>RIC</title>
<ellipse fill="none" stroke="black" cx="379.82" cy="-887" rx="27" ry="18"/>
<text text-anchor="middle" x="379.82" y="-881.58" font-family="Times New Roman,serif" font-size="14.00">RIC</text>
</g>
<!-- ADL&#45;&gt;RIC -->
<g id="edge35" class="edge">
<title>ADL&#45;&gt;RIC</title>
<path fill="none" stroke="gray" stroke-width="0.2" d="M219.38,-1728C256.19,-1483.14 347.21,-904.5 347.21,-904.5 347.21,-904.5 347.8,-903.77 348.82,-902.57"/>
<polygon fill="gray" stroke="gray" stroke-width="0.2" points="351.27,-905.09 355.32,-895.29 346.05,-900.42 351.27,-905.09"/>
</g>
<!-- RIF -->
<g id="node36" class="node">
<title>RIF</title>
<ellipse fill="none" stroke="black" cx="379.82" cy="-808" rx="27" ry="18"/>
<text text-anchor="middle" x="379.82" y="-802.58" font-family="Times New Roman,serif" font-size="14.00">RIF</text>
</g>
<!-- ADL&#45;&gt;RIF -->
<g id="edge36" class="edge">
<title>ADL&#45;&gt;RIF</title>
<path fill="none" stroke="gray" stroke-width="0.2" d="M218.25,-1727.78C254.28,-1467.58 347.21,-825.5 347.21,-825.5 347.21,-825.5 347.8,-824.77 348.82,-823.57"/>
<polygon fill="gray" stroke="gray" stroke-width="0.2" points="351.27,-826.09 355.32,-816.29 346.05,-821.42 351.27,-826.09"/>
</g>
<!-- RIG -->
<g id="node37" class="node">
<title>RIG</title>
<ellipse fill="none" stroke="black" cx="379.82" cy="-729" rx="27.11" ry="18"/>
<text text-anchor="middle" x="379.82" y="-723.58" font-family="Times New Roman,serif" font-size="14.00">RIG</text>
</g>
<!-- ADL&#45;&gt;RIG -->
<g id="edge37" class="edge">
<title>ADL&#45;&gt;RIG</title>
<path fill="none" stroke="gray" stroke-width="0.2" d="M217.28,-1727.56C252.58,-1452.58 347.21,-746.5 347.21,-746.5 347.21,-746.5 347.8,-745.77 348.82,-744.57"/>
<polygon fill="gray" stroke="gray" stroke-width="0.2" points="351.27,-747.09 355.32,-737.29 346.05,-742.42 351.27,-747.09"/>
</g>
<!-- RIP -->
<g id="node38" class="node">
<title>RIP</title>
<ellipse fill="none" stroke="black" cx="379.82" cy="-650" rx="27" ry="18"/>
<text text-anchor="middle" x="379.82" y="-644.58" font-family="Times New Roman,serif" font-size="14.00">RIP</text>
</g>
<!-- ADL&#45;&gt;RIP -->
<g id="edge38" class="edge">
<title>ADL&#45;&gt;RIP</title>
<path fill="none" stroke="gray" stroke-width="0.2" d="M217.6,-1727.7C253.15,-1442.81 347.21,-689 347.21,-689 347.21,-689 352.96,-681.91 359.55,-673.78"/>
<polygon fill="gray" stroke="gray" stroke-width="0.2" points="362.2,-676.07 365.77,-666.1 356.76,-671.66 362.2,-676.07"/>
</g>
<!-- RIR -->
<g id="node39" class="node">
<title>RIR</title>
<ellipse fill="none" stroke="black" cx="379.82" cy="-571" rx="27" ry="18"/>
<text text-anchor="middle" x="379.82" y="-565.58" font-family="Times New Roman,serif" font-size="14.00">RIR</text>
</g>
<!-- ADL&#45;&gt;RIR -->
<g id="edge39" class="edge">
<title>ADL&#45;&gt;RIR</title>
<path fill="none" stroke="gray" stroke-width="0.2" d="M216.78,-1727.36C251.67,-1428.44 347.21,-610 347.21,-610 347.21,-610 352.96,-602.91 359.55,-594.78"/>
<polygon fill="gray" stroke="gray" stroke-width="0.2" points="362.2,-597.07 365.77,-587.1 356.76,-592.66 362.2,-597.07"/>
</g>
<!-- RMG -->
<g id="node40" class="node">
<title>RMG</title>
<ellipse fill="none" stroke="black" cx="379.82" cy="-492" rx="32.1" ry="18"/>
<text text-anchor="middle" x="379.82" y="-486.57" font-family="Times New Roman,serif" font-size="14.00">RMG</text>
</g>
<!-- ADL&#45;&gt;RMG -->
<g id="edge40" class="edge">
<title>ADL&#45;&gt;RMG</title>
<path fill="none" stroke="blue" stroke-width="2" d="M215.02,-1727.32C246.12,-1432.16 334.37,-626.67 350.91,-515.26"/>
<polygon fill="blue" stroke="blue" stroke-width="2" points="354.35,-515.91 352.75,-505.43 347.47,-514.62 354.35,-515.91"/>
</g>
<!-- SIB -->
<g id="node41" class="node">
<title>SIB</title>
<ellipse fill="none" stroke="black" cx="379.82" cy="-413" rx="27" ry="18"/>
<text text-anchor="middle" x="379.82" y="-407.57" font-family="Times New Roman,serif" font-size="14.00">SIB</text>
</g>
<!-- ADL&#45;&gt;SIB -->
<g id="edge41" class="edge">
<title>ADL&#45;&gt;SIB</title>
<path fill="none" stroke="gray" stroke-width="0.2" d="M215.35,-1727.34C248.97,-1402.13 347.21,-452 347.21,-452 347.21,-452 352.96,-444.91 359.55,-436.78"/>
<polygon fill="gray" stroke="gray" stroke-width="0.2" points="362.2,-439.07 365.77,-429.1 356.76,-434.66 362.2,-439.07"/>
</g>
<!-- SMB -->
<g id="node42" class="node">
<title>SMB</title>
<ellipse fill="none" stroke="black" cx="379.82" cy="-334" rx="30.11" ry="18"/>
<text text-anchor="middle" x="379.82" y="-328.57" font-family="Times New Roman,serif" font-size="14.00">SMB</text>
</g>
<!-- ADL&#45;&gt;SMB -->
<g id="edge42" class="edge">
<title>ADL&#45;&gt;SMB</title>
<path fill="none" stroke="gray" stroke-width="5" d="M213.9,-1727.24C243.83,-1409.38 333.52,-491.58 351.21,-359.63"/>
<polygon fill="gray" stroke="gray" stroke-width="5" points="355.5,-360.53 352.87,-349.94 346.87,-359.06 355.5,-360.53"/>
</g>
<!-- SMD -->
<g id="node43" class="node">
<title>SMD</title>
<ellipse fill="none" stroke="black" cx="379.82" cy="-255" rx="30.61" ry="18"/>
<text text-anchor="middle" x="379.82" y="-249.57" font-family="Times New Roman,serif" font-size="14.00">SMD</text>
</g>
<!-- ADL&#45;&gt;SMD -->
<g id="edge43" class="edge">
<title>ADL&#45;&gt;SMD</title>
<path fill="none" stroke="blue" stroke-width="2" d="M214.21,-1727.25C246.7,-1377.14 347.21,-294 347.21,-294 347.21,-294 351.81,-288.33 357.5,-281.31"/>
<polygon fill="blue" stroke="blue" stroke-width="2" points="360.11,-283.64 363.69,-273.67 354.68,-279.23 360.11,-283.64"/>
</g>
<!-- URB -->
<g id="node44" class="node">
<title>URB</title>
<ellipse fill="none" stroke="black" cx="379.82" cy="-176" rx="29.61" ry="18"/>
<text text-anchor="middle" x="379.82" y="-170.57" font-family="Times New Roman,serif" font-size="14.00">URB</text>
</g>
<!-- ADL&#45;&gt;URB -->
<g id="edge44" class="edge">
<title>ADL&#45;&gt;URB</title>
<path fill="none" stroke="gray" stroke-width="2" d="M213,-1727.16C242.32,-1382.6 335.57,-325.43 352.09,-198.02"/>
<polygon fill="gray" stroke="gray" stroke-width="2" points="355.49,-198.88 353.72,-188.44 348.59,-197.71 355.49,-198.88"/>
</g>
<!-- URX -->
<g id="node45" class="node">
<title>URX</title>
<ellipse fill="none" stroke="black" cx="379.82" cy="-97" rx="30.11" ry="18"/>
<text text-anchor="middle" x="379.82" y="-91.58" font-family="Times New Roman,serif" font-size="14.00">URX</text>
</g>
<!-- ADL&#45;&gt;URX -->
<g id="edge45" class="edge">
<title>ADL&#45;&gt;URX</title>
<path fill="none" stroke="gray" stroke-width="2" d="M212.6,-1727.21C241.48,-1371.44 335.67,-251.71 351.87,-119.54"/>
<polygon fill="gray" stroke="gray" stroke-width="2" points="355.31,-120.21 353.44,-109.78 348.4,-119.1 355.31,-120.21"/>
</g>
<!-- URY -->
<g id="node46" class="node">
<title>URY</title>
<ellipse fill="none" stroke="black" cx="379.82" cy="-18" rx="30.11" ry="18"/>
<text text-anchor="middle" x="379.82" y="-12.57" font-family="Times New Roman,serif" font-size="14.00">URY</text>
</g>
<!-- ADL&#45;&gt;URY -->
<g id="edge46" class="edge">
<title>ADL&#45;&gt;URY</title>
<path fill="none" stroke="gray" stroke-width="0.2" d="M212.26,-1726.94C240.97,-1357.16 337.16,-160.54 352.25,-37.93"/>
<polygon fill="gray" stroke="gray" stroke-width="0.2" points="355.7,-38.53 353.87,-28.09 348.79,-37.39 355.7,-38.53"/>
</g>
<!-- ADA&#45;&gt;ADL -->
<g id="edge47" class="edge">
<title>ADA&#45;&gt;ADL</title>
<path fill="none" stroke="gray" stroke-width="0.2" d="M353.92,-3484.21C350,-3479.94 347.21,-3476.5 347.21,-3476.5 347.21,-3476.5 245.96,-2329.48 213.86,-1952.95"/>
<polygon fill="gray" stroke="gray" stroke-width="0.2" points="217.36,-1952.81 213.02,-1943.15 210.39,-1953.41 217.36,-1952.81"/>
</g>
<!-- AIA&#45;&gt;ADL -->
<g id="edge48" class="edge">
<title>AIA&#45;&gt;ADL</title>
<path fill="none" stroke="gray" stroke-width="5" d="M355.52,-3406.93C350.78,-3401.9 347.21,-3397.5 347.21,-3397.5 347.21,-3397.5 248.03,-2328.64 214.87,-1958.87"/>
<polygon fill="gray" stroke="gray" stroke-width="5" points="219.24,-1958.63 213.99,-1949.06 210.52,-1959.41 219.24,-1958.63"/>
</g>
<!-- AIB&#45;&gt;ADL -->
<g id="edge49" class="edge">
<title>AIB&#45;&gt;ADL</title>
<path fill="none" stroke="gray" stroke-width="0.2" d="M355.52,-3327.93C350.78,-3322.9 347.21,-3318.5 347.21,-3318.5 347.21,-3318.5 248.02,-2304.4 214.86,-1952.96"/>
<polygon fill="gray" stroke="gray" stroke-width="0.2" points="218.35,-1952.69 213.93,-1943.06 211.39,-1953.35 218.35,-1952.69"/>
</g>
<!-- AIM&#45;&gt;ADL -->
<g id="edge50" class="edge">
<title>AIM&#45;&gt;ADL</title>
<path fill="none" stroke="gray" stroke-width="0.2" d="M354.86,-3248.23C350.46,-3243.5 347.21,-3239.5 347.21,-3239.5 347.21,-3239.5 249.16,-2291.22 215.44,-1952.9"/>
<polygon fill="gray" stroke="gray" stroke-width="0.2" points="218.94,-1952.73 214.47,-1943.13 211.98,-1953.42 218.94,-1952.73"/>
</g>
<!-- ALA&#45;&gt;ADL -->
<g id="edge51" class="edge">
<title>ALA&#45;&gt;ADL</title>
<path fill="none" stroke="gray" stroke-width="5" d="M354.54,-3168.89C350.3,-3164.31 347.21,-3160.5 347.21,-3160.5 347.21,-3160.5 251.5,-2287.65 216.68,-1958.42"/>
<polygon fill="gray" stroke="gray" stroke-width="5" points="221.08,-1958.37 215.68,-1948.89 212.37,-1959.29 221.08,-1958.37"/>
</g>
<!-- ASE&#45;&gt;ADL -->
<g id="edge52" class="edge">
<title>ASE&#45;&gt;ADL</title>
<path fill="none" stroke="red" stroke-width="2" d="M354.86,-3011.23C350.46,-3006.5 347.21,-3002.5 347.21,-3002.5 347.21,-3002.5 253.75,-2253.47 217.94,-1955.17"/>
<polygon fill="red" stroke="red" stroke-width="2" points="221.46,-1955.12 216.8,-1945.6 214.51,-1955.95 221.46,-1955.12"/>
</g>
<!-- ASH&#45;&gt;ADL -->
<g id="edge53" class="edge">
<title>ASH&#45;&gt;ADL</title>
<path fill="none" stroke="gray" stroke-width="2" d="M354.54,-2852.89C350.3,-2848.31 347.21,-2844.5 347.21,-2844.5 347.21,-2844.5 257.25,-2222.94 220.04,-1955.09"/>
<polygon fill="gray" stroke="gray" stroke-width="2" points="223.51,-1954.64 218.67,-1945.22 216.57,-1955.6 223.51,-1954.64"/>
</g>
<!-- ASI&#45;&gt;ADL -->
<g id="edge54" class="edge">
<title>ASI&#45;&gt;ADL</title>
<path fill="none" stroke="gray" stroke-width="2" d="M355.52,-2774.93C350.78,-2769.9 347.21,-2765.5 347.21,-2765.5 347.21,-2765.5 259.27,-2206.47 221.32,-1954.84"/>
<polygon fill="gray" stroke="gray" stroke-width="2" points="224.78,-1954.36 219.83,-1944.99 217.86,-1955.4 224.78,-1954.36"/>
</g>
<!-- ASJ&#45;&gt;ADL -->
<g id="edge55" class="edge">
<title>ASJ&#45;&gt;ADL</title>
<path fill="none" stroke="gray" stroke-width="0.2" d="M355.52,-2695.93C350.78,-2690.9 347.21,-2686.5 347.21,-2686.5 347.21,-2686.5 260.9,-2185.5 222.39,-1951.9"/>
<polygon fill="gray" stroke="gray" stroke-width="0.2" points="225.88,-1951.6 220.81,-1942.3 218.98,-1952.73 225.88,-1951.6"/>
</g>
<!-- ASK&#45;&gt;ADL -->
<g id="edge56" class="edge">
<title>ASK&#45;&gt;ADL</title>
<path fill="none" stroke="gray" stroke-width="5" d="M354.54,-2615.89C350.3,-2611.31 347.21,-2607.5 347.21,-2607.5 347.21,-2607.5 264.97,-2175.59 225.23,-1957.48"/>
<polygon fill="gray" stroke="gray" stroke-width="5" points="229.53,-1956.71 223.44,-1947.65 220.93,-1958.27 229.53,-1956.71"/>
</g>
<!-- AVH&#45;&gt;ADL -->
<g id="edge57" class="edge">
<title>AVH&#45;&gt;ADL</title>
<path fill="none" stroke="red" stroke-width="2" d="M353.92,-2220.21C350,-2215.94 347.21,-2212.5 347.21,-2212.5 347.21,-2212.5 286.07,-2060.28 243.74,-1948.9"/>
<polygon fill="red" stroke="red" stroke-width="2" points="247.08,-1947.84 240.27,-1939.73 240.54,-1950.32 247.08,-1947.84"/>
</g>
<!-- AVJ&#45;&gt;ADL -->
<g id="edge58" class="edge">
<title>AVJ&#45;&gt;ADL</title>
<path fill="none" stroke="gray" stroke-width="0.2" d="M355.52,-2142.93C350.78,-2137.9 347.21,-2133.5 347.21,-2133.5 347.21,-2133.5 293.14,-2028.75 251.49,-1943.08"/>
<polygon fill="gray" stroke="gray" stroke-width="0.2" points="254.76,-1941.8 247.25,-1934.33 248.46,-1944.86 254.76,-1941.8"/>
</g>
<!-- AWA&#45;&gt;ADL -->
<g id="edge59" class="edge">
<title>AWA&#45;&gt;ADL</title>
<path fill="none" stroke="gray" stroke-width="2" d="M353.01,-2061.21C349.58,-2057.42 347.21,-2054.5 347.21,-2054.5 347.21,-2054.5 304.71,-1995.65 266.05,-1938.64"/>
<polygon fill="gray" stroke="gray" stroke-width="2" points="269.08,-1936.87 260.58,-1930.54 263.28,-1940.78 269.08,-1936.87"/>
</g>
<!-- AWB&#45;&gt;ADL -->
<g id="edge60" class="edge">
<title>AWB&#45;&gt;ADL</title>
<path fill="none" stroke="blue" stroke-width="2" d="M353.73,-1982.02C335.61,-1968.83 310.07,-1947.17 285.21,-1924.38"/>
<polygon fill="blue" stroke="blue" stroke-width="2" points="287.67,-1921.89 277.96,-1917.67 282.92,-1927.03 287.67,-1921.89"/>
</g>
<!-- AWC&#45;&gt;ADL -->
<g id="edge61" class="edge">
<title>AWC&#45;&gt;ADL</title>
<path fill="none" stroke="gray" stroke-width="0.2" d="M347.16,-1912.44C334.76,-1908.59 319.79,-1902.89 304.28,-1896.25"/>
<polygon fill="gray" stroke="gray" stroke-width="0.2" points="305.94,-1893.15 295.37,-1892.35 303.13,-1899.57 305.94,-1893.15"/>
</g>
<!-- CEP&#45;&gt;ADL -->
<g id="edge62" class="edge">
<title>CEP&#45;&gt;ADL</title>
<path fill="none" stroke="gray" stroke-width="0.2" d="M357.17,-1846.07C347.2,-1848.07 334.53,-1849.48 320.76,-1850.29"/>
<polygon fill="gray" stroke="gray" stroke-width="0.2" points="320.68,-1846.79 310.86,-1850.76 321.02,-1853.78 320.68,-1846.79"/>
</g>
<!-- HSN&#45;&gt;ADL -->
<g id="edge63" class="edge">
<title>HSN&#45;&gt;ADL</title>
<path fill="none" stroke="gray" stroke-width="5" d="M364.57,-1771.78C354.06,-1779.44 338.65,-1788.38 321.47,-1797.2"/>
<polygon fill="gray" stroke="gray" stroke-width="5" points="319.63,-1793.22 312.63,-1801.59 323.53,-1801.06 319.63,-1793.22"/>
</g>
<!-- IL2&#45;&gt;ADL -->
<g id="edge64" class="edge">
<title>IL2&#45;&gt;ADL</title>
<path fill="none" stroke="gray" stroke-width="0.2" d="M374.15,-1615.9C365.36,-1636.1 347.21,-1658.5 347.21,-1658.5 347.21,-1658.5 315.52,-1702.38 281.98,-1746.58"/>
<polygon fill="gray" stroke="gray" stroke-width="0.2" points="279.38,-1744.22 276.11,-1754.3 284.95,-1748.46 279.38,-1744.22"/>
</g>
<!-- PVC&#45;&gt;ADL -->
<g id="edge65" class="edge">
<title>PVC&#45;&gt;ADL</title>
<path fill="none" stroke="gray" stroke-width="0.2" d="M374.15,-1378.9C365.36,-1399.1 347.21,-1421.5 347.21,-1421.5 347.21,-1421.5 287.93,-1601.84 245.71,-1724.55"/>
<polygon fill="gray" stroke="gray" stroke-width="0.2" points="242.49,-1723.13 242.54,-1733.73 249.11,-1725.41 242.49,-1723.13"/>
</g>
<!-- PVQ&#45;&gt;ADL -->
<g id="edge66" class="edge">
<title>PVQ&#45;&gt;ADL</title>
<path fill="none" stroke="gray" stroke-width="5" d="M374.15,-1062.9C365.36,-1083.1 347.21,-1105.5 347.21,-1105.5 347.21,-1105.5 271.01,-1505.71 229.86,-1713.46"/>
<polygon fill="gray" stroke="gray" stroke-width="5" points="225.59,-1712.52 227.93,-1723.18 234.17,-1714.22 225.59,-1712.52"/>
</g>
<!-- RIC&#45;&gt;ADL -->
<g id="edge67" class="edge">
<title>RIC&#45;&gt;ADL</title>
<path fill="none" stroke="gray" stroke-width="0.2" d="M374.15,-904.9C365.36,-925.1 347.21,-947.5 347.21,-947.5 347.21,-947.5 263.78,-1477.84 224.38,-1718.76"/>
<polygon fill="gray" stroke="gray" stroke-width="0.2" points="220.97,-1717.88 222.81,-1728.31 227.88,-1719.01 220.97,-1717.88"/>
</g>
<!-- RIF&#45;&gt;ADL -->
<g id="edge68" class="edge">
<title>RIF&#45;&gt;ADL</title>
<path fill="none" stroke="gray" stroke-width="0.2" d="M374.15,-825.9C365.36,-846.1 347.21,-868.5 347.21,-868.5 347.21,-868.5 261.47,-1460.88 222.78,-1718.27"/>
<polygon fill="gray" stroke="gray" stroke-width="0.2" points="219.32,-1717.7 221.3,-1728.11 226.25,-1718.74 219.32,-1717.7"/>
</g>
<!-- RIG&#45;&gt;ADL -->
<g id="edge69" class="edge">
<title>RIG&#45;&gt;ADL</title>
<path fill="none" stroke="gray" stroke-width="0.2" d="M374.15,-746.9C365.36,-767.1 347.21,-789.5 347.21,-789.5 347.21,-789.5 259.37,-1444.96 221.38,-1718.06"/>
<polygon fill="gray" stroke="gray" stroke-width="0.2" points="217.95,-1717.32 220.04,-1727.71 224.88,-1718.29 217.95,-1717.32"/>
</g>
<!-- RMG&#45;&gt;ADL -->
<g id="edge70" class="edge">
<title>RMG&#45;&gt;ADL</title>
<path fill="none" stroke="gray" stroke-width="0.2" d="M374.15,-509.9C365.36,-530.1 347.21,-552.5 347.21,-552.5 347.21,-552.5 254.27,-1400.02 218.25,-1717.27"/>
<polygon fill="gray" stroke="gray" stroke-width="0.2" points="214.78,-1716.79 217.13,-1727.12 221.73,-1717.58 214.78,-1716.79"/>
</g>
<!-- SMB&#45;&gt;ADL -->
<g id="edge71" class="edge">
<title>SMB&#45;&gt;ADL</title>
<path fill="none" stroke="gray" stroke-width="0.2" d="M374.15,-351.9C365.36,-372.1 347.21,-394.5 347.21,-394.5 347.21,-394.5 251.5,-1373.1 216.68,-1717.26"/>
<polygon fill="gray" stroke="gray" stroke-width="0.2" points="213.2,-1716.9 215.68,-1727.2 220.16,-1717.6 213.2,-1716.9"/>
</g>
<!-- URB&#45;&gt;ADL -->
<g id="edge72" class="edge">
<title>URB&#45;&gt;ADL</title>
<path fill="none" stroke="gray" stroke-width="0.2" d="M374.15,-193.9C365.36,-214.1 347.21,-236.5 347.21,-236.5 347.21,-236.5 249.19,-1346.99 215.46,-1716.92"/>
<polygon fill="gray" stroke="gray" stroke-width="0.2" points="211.98,-1716.54 214.55,-1726.82 218.95,-1717.18 211.98,-1716.54"/>
</g>
<!-- URX&#45;&gt;ADL -->
<g id="edge73" class="edge">
<title>URX&#45;&gt;ADL</title>
<path fill="none" stroke="gray" stroke-width="0.2" d="M374.15,-114.9C365.36,-135.1 347.21,-157.5 347.21,-157.5 347.21,-157.5 248.11,-1335 214.91,-1717.06"/>
<polygon fill="gray" stroke="gray" stroke-width="0.2" points="211.42,-1716.74 214.04,-1727.01 218.39,-1717.35 211.42,-1716.74"/>
</g>
<!-- URY&#45;&gt;ADL -->
<g id="edge74" class="edge">
<title>URY&#45;&gt;ADL</title>
<path fill="none" stroke="gray" stroke-width="0.2" d="M374.15,-35.9C365.36,-56.1 347.21,-78.5 347.21,-78.5 347.21,-78.5 247.08,-1323.46 214.4,-1717.27"/>
<polygon fill="gray" stroke="gray" stroke-width="0.2" points="210.93,-1716.7 213.59,-1726.96 217.91,-1717.28 210.93,-1716.7"/>
</g>
<!-- ADF -->
<g id="node47" class="node">
<title>ADF</title>
<ellipse fill="none" stroke="black" cx="29.61" cy="-1875" rx="29.11" ry="18"/>
<text text-anchor="middle" x="29.61" y="-1869.58" font-family="Times New Roman,serif" font-size="14.00">ADF</text>
</g>
<!-- ADF&#45;&gt;ADL -->
<g id="edge75" class="edge">
<title>ADF&#45;&gt;ADL</title>
<path fill="none" stroke="gray" stroke-width="0.2" d="M57.42,-1868.75C66.24,-1866.69 76.68,-1864.26 87.84,-1861.66"/>
<polygon fill="gray" stroke="gray" stroke-width="0.2" points="88.58,-1865.08 97.52,-1859.4 86.99,-1858.26 88.58,-1865.08"/>
</g>
<!-- SDQ -->
<g id="node48" class="node">
<title>SDQ</title>
<ellipse fill="none" stroke="black" cx="29.61" cy="-1796" rx="29.61" ry="18"/>
<text text-anchor="middle" x="29.61" y="-1790.58" font-family="Times New Roman,serif" font-size="14.00">SDQ</text>
</g>
<!-- SDQ&#45;&gt;ADL -->
<g id="edge76" class="edge">
<title>SDQ&#45;&gt;ADL</title>
<path fill="none" stroke="gray" stroke-width="0.2" d="M57.8,-1802.18C66.5,-1804.16 76.74,-1806.48 87.68,-1808.97"/>
<polygon fill="gray" stroke="gray" stroke-width="0.2" points="86.63,-1812.32 97.16,-1811.12 88.18,-1805.5 86.63,-1812.32"/>
</g>
</g>
</svg>
