<?xml version="1.0" encoding="UTF-8" standalone="no"?>
<!DOCTYPE svg PUBLIC "-//W3C//DTD SVG 1.1//EN"
 "http://www.w3.org/Graphics/SVG/1.1/DTD/svg11.dtd">
<!-- Generated by graphviz version 11.0.0 (20240428.1522)
 -->
<!-- Pages: 1 -->
<svg width="426pt" height="992pt"
 viewBox="0.00 0.00 426.40 992.00" xmlns="http://www.w3.org/2000/svg" xmlns:xlink="http://www.w3.org/1999/xlink">
<g id="graph0" class="graph" transform="scale(1 1) rotate(0) translate(4 988)">
<polygon fill="white" stroke="none" points="-4,4 -4,-988 422.4,-988 422.4,4 -4,4"/>
<!-- AFD -->
<g id="node1" class="node">
<title>AFD</title>
<ellipse fill="none" stroke="black" cx="209.2" cy="-571" rx="108" ry="108"/>
<text text-anchor="middle" x="209.2" y="-552" font-family="Times New Roman,serif" font-size="50.00">AFD</text>
</g>
<!-- AFD&#45;&gt;AFD -->
<g id="edge1" class="edge">
<title>AFD&#45;&gt;AFD</title>
<path fill="none" stroke="gray" stroke-width="0.2" d="M176.41,-674.39C178.35,-701.51 189.28,-722 209.2,-722 226.55,-722 237.09,-706.45 240.8,-684.52"/>
<polygon fill="gray" stroke="gray" stroke-width="0.2" points="244.26,-685.04 241.96,-674.69 237.31,-684.21 244.26,-685.04"/>
</g>
<!-- ADF -->
<g id="node2" class="node">
<title>ADF</title>
<ellipse fill="none" stroke="black" cx="385.8" cy="-966" rx="29.11" ry="18"/>
<text text-anchor="middle" x="385.8" y="-960.58" font-family="Times New Roman,serif" font-size="14.00">ADF</text>
</g>
<!-- AFD&#45;&gt;ADF -->
<g id="edge2" class="edge">
<title>AFD&#45;&gt;ADF</title>
<path fill="none" stroke="gray" stroke-width="0.2" d="M256.04,-668.79C297.87,-767.74 353.2,-905.5 353.2,-905.5 353.2,-905.5 366.36,-921.74 375.7,-939.04"/>
<polygon fill="gray" stroke="gray" stroke-width="0.2" points="372.46,-940.39 380.01,-947.83 378.75,-937.31 372.46,-940.39"/>
</g>
<!-- AIB -->
<g id="node3" class="node">
<title>AIB</title>
<ellipse fill="none" stroke="black" cx="385.8" cy="-887" rx="27" ry="18"/>
<text text-anchor="middle" x="385.8" y="-881.58" font-family="Times New Roman,serif" font-size="14.00">AIB</text>
</g>
<!-- AFD&#45;&gt;AIB -->
<g id="edge3" class="edge">
<title>AFD&#45;&gt;AIB</title>
<path fill="none" stroke="gray" stroke-width="2" d="M259.61,-666.72C300.95,-746.78 353.2,-848 353.2,-848 353.2,-848 358.15,-854.1 364.12,-861.48"/>
<polygon fill="gray" stroke="gray" stroke-width="2" points="361.03,-863.22 370.04,-868.79 366.47,-858.81 361.03,-863.22"/>
</g>
<!-- AIN -->
<g id="node4" class="node">
<title>AIN</title>
<ellipse fill="none" stroke="black" cx="385.8" cy="-808" rx="27" ry="18"/>
<text text-anchor="middle" x="385.8" y="-802.58" font-family="Times New Roman,serif" font-size="14.00">AIN</text>
</g>
<!-- AFD&#45;&gt;AIN -->
<g id="edge4" class="edge">
<title>AFD&#45;&gt;AIN</title>
<path fill="none" stroke="gray" stroke-width="2" d="M281.91,-651.46C317.59,-698.19 353.2,-747.5 353.2,-747.5 353.2,-747.5 365.18,-762.29 374.39,-778.67"/>
<polygon fill="gray" stroke="gray" stroke-width="2" points="371.16,-780.04 378.78,-787.4 377.41,-776.89 371.16,-780.04"/>
</g>
<!-- AIY -->
<g id="node5" class="node">
<title>AIY</title>
<ellipse fill="none" stroke="black" cx="385.8" cy="-729" rx="27" ry="18"/>
<text text-anchor="middle" x="385.8" y="-723.58" font-family="Times New Roman,serif" font-size="14.00">AIY</text>
</g>
<!-- AFD&#45;&gt;AIY -->
<g id="edge5" class="edge">
<title>AFD&#45;&gt;AIY</title>
<path fill="none" stroke="black" stroke-width="5" d="M297.5,-633.88C322.6,-656.58 347.69,-681.07 364.49,-699.82"/>
<polygon fill="black" stroke="black" stroke-width="5" points="361.06,-702.54 370.87,-707.33 367.73,-696.88 361.06,-702.54"/>
</g>
<!-- AIZ -->
<g id="node6" class="node">
<title>AIZ</title>
<ellipse fill="none" stroke="black" cx="385.8" cy="-650" rx="27" ry="18"/>
<text text-anchor="middle" x="385.8" y="-644.58" font-family="Times New Roman,serif" font-size="14.00">AIZ</text>
</g>
<!-- AFD&#45;&gt;AIZ -->
<g id="edge6" class="edge">
<title>AFD&#45;&gt;AIZ</title>
<path fill="none" stroke="gray" stroke-width="0.2" d="M313.03,-601.63C331.8,-610.68 349.57,-620.3 362.74,-628.87"/>
<polygon fill="gray" stroke="gray" stroke-width="0.2" points="360.61,-631.64 370.83,-634.43 364.58,-625.88 360.61,-631.64"/>
</g>
<!-- ASE -->
<g id="node7" class="node">
<title>ASE</title>
<ellipse fill="none" stroke="black" cx="385.8" cy="-571" rx="28.11" ry="18"/>
<text text-anchor="middle" x="385.8" y="-565.58" font-family="Times New Roman,serif" font-size="14.00">ASE</text>
</g>
<!-- AFD&#45;&gt;ASE -->
<g id="edge7" class="edge">
<title>AFD&#45;&gt;ASE</title>
<path fill="none" stroke="gray" stroke-width="2" d="M316.55,-555.22C328.69,-555.67 340.31,-556.55 350.42,-557.87"/>
<polygon fill="gray" stroke="gray" stroke-width="2" points="349.74,-561.3 360.17,-559.45 350.86,-554.39 349.74,-561.3"/>
</g>
<!-- ASH -->
<g id="node8" class="node">
<title>ASH</title>
<ellipse fill="none" stroke="black" cx="385.8" cy="-492" rx="29.11" ry="18"/>
<text text-anchor="middle" x="385.8" y="-486.57" font-family="Times New Roman,serif" font-size="14.00">ASH</text>
</g>
<!-- AFD&#45;&gt;ASH -->
<g id="edge8" class="edge">
<title>AFD&#45;&gt;ASH</title>
<path fill="none" stroke="gray" stroke-width="0.2" d="M301.08,-513.77C317.22,-506.58 333.19,-500.19 346.79,-495.62"/>
<polygon fill="gray" stroke="gray" stroke-width="0.2" points="347.48,-499.07 355.95,-492.71 345.36,-492.4 347.48,-499.07"/>
</g>
<!-- AUA -->
<g id="node9" class="node">
<title>AUA</title>
<ellipse fill="none" stroke="black" cx="385.8" cy="-413" rx="30.11" ry="18"/>
<text text-anchor="middle" x="385.8" y="-407.57" font-family="Times New Roman,serif" font-size="14.00">AUA</text>
</g>
<!-- AFD&#45;&gt;AUA -->
<g id="edge9" class="edge">
<title>AFD&#45;&gt;AUA</title>
<path fill="none" stroke="gray" stroke-width="0.2" d="M290.09,-498.7C315.86,-475.38 342.5,-451.28 360.94,-434.6"/>
<polygon fill="gray" stroke="gray" stroke-width="0.2" points="363.02,-437.43 368.09,-428.13 358.32,-432.24 363.02,-437.43"/>
</g>
<!-- AWB -->
<g id="node10" class="node">
<title>AWB</title>
<ellipse fill="none" stroke="black" cx="385.8" cy="-334" rx="32.1" ry="18"/>
<text text-anchor="middle" x="385.8" y="-328.57" font-family="Times New Roman,serif" font-size="14.00">AWB</text>
</g>
<!-- AFD&#45;&gt;AWB -->
<g id="edge10" class="edge">
<title>AFD&#45;&gt;AWB</title>
<path fill="none" stroke="gray" stroke-width="2" d="M273.34,-483.58C311.65,-430.54 353.2,-373 353.2,-373 353.2,-373 357.8,-367.33 363.48,-360.31"/>
<polygon fill="gray" stroke="gray" stroke-width="2" points="366.1,-362.64 369.68,-352.67 360.66,-358.23 366.1,-362.64"/>
</g>
<!-- AWC -->
<g id="node11" class="node">
<title>AWC</title>
<ellipse fill="none" stroke="black" cx="385.8" cy="-255" rx="32.6" ry="18"/>
<text text-anchor="middle" x="385.8" y="-249.57" font-family="Times New Roman,serif" font-size="14.00">AWC</text>
</g>
<!-- AFD&#45;&gt;AWC -->
<g id="edge11" class="edge">
<title>AFD&#45;&gt;AWC</title>
<path fill="none" stroke="gray" stroke-width="0.2" d="M253.11,-471.94C289.31,-397.05 337.21,-303.59 353.65,-274.52"/>
<polygon fill="gray" stroke="gray" stroke-width="0.2" points="356.6,-276.4 358.84,-266.04 350.63,-272.74 356.6,-276.4"/>
</g>
<!-- BAG -->
<g id="node12" class="node">
<title>BAG</title>
<ellipse fill="none" stroke="black" cx="385.8" cy="-176" rx="30.11" ry="18"/>
<text text-anchor="middle" x="385.8" y="-170.57" font-family="Times New Roman,serif" font-size="14.00">BAG</text>
</g>
<!-- AFD&#45;&gt;BAG -->
<g id="edge12" class="edge">
<title>AFD&#45;&gt;BAG</title>
<path fill="none" stroke="gray" stroke-width="0.2" d="M245.18,-469.11C282.56,-370.15 338.13,-231.12 355.25,-194.59"/>
<polygon fill="gray" stroke="gray" stroke-width="0.2" points="358.18,-196.54 359.76,-186.06 351.99,-193.26 358.18,-196.54"/>
</g>
<!-- PVP -->
<g id="node13" class="node">
<title>PVP</title>
<ellipse fill="none" stroke="black" cx="385.8" cy="-97" rx="28.11" ry="18"/>
<text text-anchor="middle" x="385.8" y="-91.58" font-family="Times New Roman,serif" font-size="14.00">PVP</text>
</g>
<!-- AFD&#45;&gt;PVP -->
<g id="edge13" class="edge">
<title>AFD&#45;&gt;PVP</title>
<path fill="none" stroke="gray" stroke-width="0.2" d="M243.91,-468.46C286.19,-339.86 353.2,-136 353.2,-136 353.2,-136 358.94,-128.91 365.53,-120.78"/>
<polygon fill="gray" stroke="gray" stroke-width="0.2" points="368.18,-123.07 371.76,-113.1 362.74,-118.66 368.18,-123.07"/>
</g>
<!-- SIB -->
<g id="node14" class="node">
<title>SIB</title>
<ellipse fill="none" stroke="black" cx="385.8" cy="-18" rx="27" ry="18"/>
<text text-anchor="middle" x="385.8" y="-12.57" font-family="Times New Roman,serif" font-size="14.00">SIB</text>
</g>
<!-- AFD&#45;&gt;SIB -->
<g id="edge14" class="edge">
<title>AFD&#45;&gt;SIB</title>
<path fill="none" stroke="blue" stroke-width="2" d="M239.14,-466.98C280.93,-316.79 353.2,-57 353.2,-57 353.2,-57 358.15,-50.9 364.12,-43.52"/>
<polygon fill="blue" stroke="blue" stroke-width="2" points="366.47,-46.19 370.04,-36.21 361.03,-41.78 366.47,-46.19"/>
</g>
<!-- ADF&#45;&gt;AFD -->
<g id="edge15" class="edge">
<title>ADF&#45;&gt;AFD</title>
<path fill="none" stroke="gray" stroke-width="5" d="M360.53,-956.89C356.29,-952.31 353.2,-948.5 353.2,-948.5 353.2,-948.5 293.16,-799.04 250.89,-687.95"/>
<polygon fill="gray" stroke="gray" stroke-width="5" points="255.03,-686.53 247.4,-678.73 246.85,-689.63 255.03,-686.53"/>
</g>
<!-- AIN&#45;&gt;AFD -->
<g id="edge16" class="edge">
<title>AIN&#45;&gt;AFD</title>
<path fill="none" stroke="red" stroke-width="5" d="M361.5,-799.93C356.77,-794.9 353.2,-790.5 353.2,-790.5 353.2,-790.5 312.1,-733.59 273.97,-677.48"/>
<polygon fill="red" stroke="red" stroke-width="5" points="277.59,-675.03 268.37,-669.19 270.34,-679.93 277.59,-675.03"/>
</g>
<!-- AIY&#45;&gt;AFD -->
<g id="edge17" class="edge">
<title>AIY&#45;&gt;AFD</title>
<path fill="none" stroke="gray" stroke-width="0.2" d="M362.17,-719.78C343.49,-706.49 315.82,-683.06 289.2,-658.54"/>
<polygon fill="gray" stroke="gray" stroke-width="0.2" points="291.66,-656.05 281.94,-651.81 286.89,-661.18 291.66,-656.05"/>
</g>
<!-- AIZ&#45;&gt;AFD -->
<g id="edge18" class="edge">
<title>AIZ&#45;&gt;AFD</title>
<path fill="none" stroke="gray" stroke-width="0.2" d="M358.48,-650.03C345.21,-646.27 328.18,-639.91 310.42,-632.31"/>
<polygon fill="gray" stroke="gray" stroke-width="0.2" points="311.92,-629.15 301.36,-628.35 309.12,-635.56 311.92,-629.15"/>
</g>
<!-- ASE&#45;&gt;AFD -->
<g id="edge19" class="edge">
<title>ASE&#45;&gt;AFD</title>
<path fill="none" stroke="gray" stroke-width="5" d="M363.16,-582.07C354.64,-583.78 344.15,-585.06 332.69,-585.9"/>
<polygon fill="gray" stroke="gray" stroke-width="5" points="332.52,-581.53 322.78,-586.44 333,-590.26 332.52,-581.53"/>
</g>
<!-- ASH&#45;&gt;AFD -->
<g id="edge20" class="edge">
<title>ASH&#45;&gt;AFD</title>
<path fill="none" stroke="gray" stroke-width="0.2" d="M370.56,-507.78C358.95,-516.24 341.36,-526.27 322.02,-535.95"/>
<polygon fill="gray" stroke="gray" stroke-width="0.2" points="320.73,-532.69 313.3,-540.24 323.82,-538.97 320.73,-532.69"/>
</g>
<!-- AWC&#45;&gt;AFD -->
<g id="edge21" class="edge">
<title>AWC&#45;&gt;AFD</title>
<path fill="none" stroke="gray" stroke-width="2" d="M380,-273.21C371.16,-293.33 353.2,-315.5 353.2,-315.5 353.2,-315.5 311.29,-396.68 272.85,-467.73"/>
<polygon fill="gray" stroke="gray" stroke-width="2" points="269.86,-465.91 268.16,-476.37 276.01,-469.25 269.86,-465.91"/>
</g>
<!-- BAG&#45;&gt;AFD -->
<g id="edge22" class="edge">
<title>BAG&#45;&gt;AFD</title>
<path fill="none" stroke="gray" stroke-width="0.2" d="M380.14,-193.9C371.35,-214.1 353.2,-236.5 353.2,-236.5 353.2,-236.5 301.27,-365.79 260,-463.83"/>
<polygon fill="gray" stroke="gray" stroke-width="0.2" points="256.82,-462.36 256.16,-472.94 263.27,-465.08 256.82,-462.36"/>
</g>
<!-- ASI -->
<g id="node15" class="node">
<title>ASI</title>
<ellipse fill="none" stroke="black" cx="32.6" cy="-729" rx="27" ry="18"/>
<text text-anchor="middle" x="32.6" y="-723.58" font-family="Times New Roman,serif" font-size="14.00">ASI</text>
</g>
<!-- ASI&#45;&gt;AFD -->
<g id="edge23" class="edge">
<title>ASI&#45;&gt;AFD</title>
<path fill="none" stroke="gray" stroke-width="0.2" d="M49.4,-714.7C66.05,-699.64 93.62,-674.69 121.15,-649.77"/>
<polygon fill="gray" stroke="gray" stroke-width="0.2" points="123.24,-652.61 128.3,-643.3 118.54,-647.42 123.24,-652.61"/>
</g>
<!-- AWA -->
<g id="node16" class="node">
<title>AWA</title>
<ellipse fill="none" stroke="black" cx="32.6" cy="-650" rx="32.6" ry="18"/>
<text text-anchor="middle" x="32.6" y="-644.58" font-family="Times New Roman,serif" font-size="14.00">AWA</text>
</g>
<!-- AWA&#45;&gt;AFD -->
<g id="edge24" class="edge">
<title>AWA&#45;&gt;AFD</title>
<path fill="none" stroke="red" stroke-width="5" d="M58.62,-638.68C69.04,-633.96 81.95,-628.13 95.77,-621.87"/>
<polygon fill="red" stroke="red" stroke-width="5" points="97.45,-625.91 104.75,-617.81 93.84,-617.94 97.45,-625.91"/>
</g>
<!-- CEP -->
<g id="node17" class="node">
<title>CEP</title>
<ellipse fill="none" stroke="black" cx="32.6" cy="-571" rx="28.11" ry="18"/>
<text text-anchor="middle" x="32.6" y="-565.58" font-family="Times New Roman,serif" font-size="14.00">CEP</text>
</g>
<!-- CEP&#45;&gt;AFD -->
<g id="edge25" class="edge">
<title>CEP&#45;&gt;AFD</title>
<path fill="none" stroke="gray" stroke-width="0.2" d="M60.88,-571C69.55,-571 79.74,-571 90.65,-571"/>
<polygon fill="gray" stroke="gray" stroke-width="0.2" points="90.55,-574.5 100.55,-571 90.55,-567.5 90.55,-574.5"/>
</g>
<!-- RIG -->
<g id="node18" class="node">
<title>RIG</title>
<ellipse fill="none" stroke="black" cx="32.6" cy="-492" rx="27.11" ry="18"/>
<text text-anchor="middle" x="32.6" y="-486.57" font-family="Times New Roman,serif" font-size="14.00">RIG</text>
</g>
<!-- RIG&#45;&gt;AFD -->
<g id="edge26" class="edge">
<title>RIG&#45;&gt;AFD</title>
<path fill="none" stroke="gray" stroke-width="0.2" d="M55.71,-502.01C67.9,-507.52 84.03,-514.82 101.24,-522.6"/>
<polygon fill="gray" stroke="gray" stroke-width="0.2" points="99.49,-525.65 110.04,-526.59 102.37,-519.28 99.49,-525.65"/>
</g>
<!-- RIR -->
<g id="node19" class="node">
<title>RIR</title>
<ellipse fill="none" stroke="black" cx="32.6" cy="-413" rx="27" ry="18"/>
<text text-anchor="middle" x="32.6" y="-407.57" font-family="Times New Roman,serif" font-size="14.00">RIR</text>
</g>
<!-- RIR&#45;&gt;AFD -->
<g id="edge27" class="edge">
<title>RIR&#45;&gt;AFD</title>
<path fill="none" stroke="gray" stroke-width="0.2" d="M49.4,-427.3C66.05,-442.36 93.62,-467.31 121.15,-492.23"/>
<polygon fill="gray" stroke="gray" stroke-width="0.2" points="118.54,-494.58 128.3,-498.7 123.24,-489.39 118.54,-494.58"/>
</g>
</g>
</svg>
