<?xml version="1.0" encoding="UTF-8" standalone="no"?>
<!DOCTYPE svg PUBLIC "-//W3C//DTD SVG 1.1//EN"
 "http://www.w3.org/Graphics/SVG/1.1/DTD/svg11.dtd">
<!-- Generated by graphviz version 11.0.0 (20240428.1522)
 -->
<!-- Pages: 1 -->
<svg width="421pt" height="1624pt"
 viewBox="0.00 0.00 421.41 1624.00" xmlns="http://www.w3.org/2000/svg" xmlns:xlink="http://www.w3.org/1999/xlink">
<g id="graph0" class="graph" transform="scale(1 1) rotate(0) translate(4 1620)">
<polygon fill="white" stroke="none" points="-4,4 -4,-1620 417.41,-1620 417.41,4 -4,4"/>
<!-- AIA -->
<g id="node1" class="node">
<title>AIA</title>
<ellipse fill="none" stroke="black" cx="204.21" cy="-808" rx="108" ry="108"/>
<text text-anchor="middle" x="204.21" y="-789" font-family="Times New Roman,serif" font-size="50.00">AIA</text>
</g>
<!-- AIA&#45;&gt;AIA -->
<g id="edge1" class="edge">
<title>AIA&#45;&gt;AIA</title>
<path fill="none" stroke="gray" stroke-width="2" d="M171.88,-911.39C173.8,-938.51 184.57,-959 204.21,-959 220.63,-959 230.85,-944.68 234.89,-924.14"/>
<polygon fill="gray" stroke="gray" stroke-width="2" points="238.34,-924.76 236.16,-914.4 231.39,-923.86 238.34,-924.76"/>
</g>
<!-- ADA -->
<g id="node2" class="node">
<title>ADA</title>
<ellipse fill="none" stroke="black" cx="380.81" cy="-1598" rx="30.11" ry="18"/>
<text text-anchor="middle" x="380.81" y="-1592.58" font-family="Times New Roman,serif" font-size="14.00">ADA</text>
</g>
<!-- AIA&#45;&gt;ADA -->
<g id="edge2" class="edge">
<title>AIA&#45;&gt;ADA</title>
<path fill="none" stroke="red" stroke-width="5" d="M227.71,-913.7C267.98,-1116.16 348.21,-1537.5 348.21,-1537.5 348.21,-1537.5 358.85,-1550.63 367.78,-1565.85"/>
<polygon fill="red" stroke="red" stroke-width="5" points="363.81,-1567.69 372.29,-1574.56 371.58,-1563.67 363.81,-1567.69"/>
</g>
<!-- ADF -->
<g id="node3" class="node">
<title>ADF</title>
<ellipse fill="none" stroke="black" cx="380.81" cy="-1519" rx="29.11" ry="18"/>
<text text-anchor="middle" x="380.81" y="-1513.58" font-family="Times New Roman,serif" font-size="14.00">ADF</text>
</g>
<!-- AIA&#45;&gt;ADF -->
<g id="edge3" class="edge">
<title>AIA&#45;&gt;ADF</title>
<path fill="none" stroke="gray" stroke-width="0.2" d="M230.37,-913.17C271.4,-1097.53 348.21,-1458.5 348.21,-1458.5 348.21,-1458.5 361.37,-1474.74 370.71,-1492.04"/>
<polygon fill="gray" stroke="gray" stroke-width="0.2" points="367.47,-1493.39 375.02,-1500.83 373.76,-1490.31 367.47,-1493.39"/>
</g>
<!-- ADL -->
<g id="node4" class="node">
<title>ADL</title>
<ellipse fill="none" stroke="black" cx="380.81" cy="-1440" rx="29.11" ry="18"/>
<text text-anchor="middle" x="380.81" y="-1434.58" font-family="Times New Roman,serif" font-size="14.00">ADL</text>
</g>
<!-- AIA&#45;&gt;ADL -->
<g id="edge4" class="edge">
<title>AIA&#45;&gt;ADL</title>
<path fill="none" stroke="gray" stroke-width="5" d="M233.64,-912.19C275.34,-1077.3 348.21,-1379.5 348.21,-1379.5 348.21,-1379.5 358.85,-1392.63 367.78,-1407.85"/>
<polygon fill="gray" stroke="gray" stroke-width="5" points="363.81,-1409.69 372.29,-1416.56 371.58,-1405.67 363.81,-1409.69"/>
</g>
<!-- AIB -->
<g id="node5" class="node">
<title>AIB</title>
<ellipse fill="none" stroke="black" cx="380.81" cy="-1361" rx="27" ry="18"/>
<text text-anchor="middle" x="380.81" y="-1355.58" font-family="Times New Roman,serif" font-size="14.00">AIB</text>
</g>
<!-- AIA&#45;&gt;AIB -->
<g id="edge5" class="edge">
<title>AIA&#45;&gt;AIB</title>
<path fill="none" stroke="black" stroke-width="nan" d="M237.84,-910.85C280.05,-1055.48 348.21,-1300.5 348.21,-1300.5 348.21,-1300.5 366.36,-1322.9 375.15,-1343.1"/>
<polygon fill="black" stroke="black" stroke-width="nan" points="nan,-nan nan,-nan nan,-nan nan,-nan"/>
</g>
<!-- AIM -->
<g id="node6" class="node">
<title>AIM</title>
<ellipse fill="none" stroke="black" cx="380.81" cy="-1282" rx="28.11" ry="18"/>
<text text-anchor="middle" x="380.81" y="-1276.58" font-family="Times New Roman,serif" font-size="14.00">AIM</text>
</g>
<!-- AIA&#45;&gt;AIM -->
<g id="edge6" class="edge">
<title>AIA&#45;&gt;AIM</title>
<path fill="none" stroke="gray" stroke-width="2" d="M243.44,-908.99C285.8,-1031.64 348.21,-1221.5 348.21,-1221.5 348.21,-1221.5 360.19,-1236.29 369.4,-1252.67"/>
<polygon fill="gray" stroke="gray" stroke-width="2" points="366.17,-1254.04 373.79,-1261.4 372.42,-1250.89 366.17,-1254.04"/>
</g>
<!-- AIY -->
<g id="node7" class="node">
<title>AIY</title>
<ellipse fill="none" stroke="black" cx="380.81" cy="-1203" rx="27" ry="18"/>
<text text-anchor="middle" x="380.81" y="-1197.58" font-family="Times New Roman,serif" font-size="14.00">AIY</text>
</g>
<!-- AIA&#45;&gt;AIY -->
<g id="edge7" class="edge">
<title>AIA&#45;&gt;AIY</title>
<path fill="none" stroke="gray" stroke-width="2" d="M245.43,-908.11C287.72,-1013.41 348.21,-1164 348.21,-1164 348.21,-1164 353.16,-1170.1 359.13,-1177.48"/>
<polygon fill="gray" stroke="gray" stroke-width="2" points="356.04,-1179.22 365.05,-1184.79 361.48,-1174.81 356.04,-1179.22"/>
</g>
<!-- AIZ -->
<g id="node8" class="node">
<title>AIZ</title>
<ellipse fill="none" stroke="black" cx="380.81" cy="-1124" rx="27" ry="18"/>
<text text-anchor="middle" x="380.81" y="-1118.58" font-family="Times New Roman,serif" font-size="14.00">AIZ</text>
</g>
<!-- AIA&#45;&gt;AIZ -->
<g id="edge8" class="edge">
<title>AIA&#45;&gt;AIZ</title>
<path fill="none" stroke="gray" stroke-width="nan" d="M261.73,-899.97C301.7,-973.4 348.21,-1063.5 348.21,-1063.5 348.21,-1063.5 366.36,-1085.9 375.15,-1106.1"/>
<polygon fill="gray" stroke="gray" stroke-width="nan" points="nan,-nan nan,-nan nan,-nan nan,-nan"/>
</g>
<!-- ASE -->
<g id="node9" class="node">
<title>ASE</title>
<ellipse fill="none" stroke="black" cx="380.81" cy="-1045" rx="28.11" ry="18"/>
<text text-anchor="middle" x="380.81" y="-1039.58" font-family="Times New Roman,serif" font-size="14.00">ASE</text>
</g>
<!-- AIA&#45;&gt;ASE -->
<g id="edge9" class="edge">
<title>AIA&#45;&gt;ASE</title>
<path fill="none" stroke="gray" stroke-width="5" d="M276.92,-888.46C312.6,-935.19 348.21,-984.5 348.21,-984.5 348.21,-984.5 358.85,-997.63 367.78,-1012.85"/>
<polygon fill="gray" stroke="gray" stroke-width="5" points="363.81,-1014.69 372.29,-1021.56 371.58,-1010.67 363.81,-1014.69"/>
</g>
<!-- ASG -->
<g id="node10" class="node">
<title>ASG</title>
<ellipse fill="none" stroke="black" cx="380.81" cy="-966" rx="29.61" ry="18"/>
<text text-anchor="middle" x="380.81" y="-960.58" font-family="Times New Roman,serif" font-size="14.00">ASG</text>
</g>
<!-- AIA&#45;&gt;ASG -->
<g id="edge10" class="edge">
<title>AIA&#45;&gt;ASG</title>
<path fill="none" stroke="gray" stroke-width="5" d="M292.51,-870.88C317.61,-893.58 342.7,-918.07 359.5,-936.82"/>
<polygon fill="gray" stroke="gray" stroke-width="5" points="356.07,-939.54 365.88,-944.33 362.74,-933.88 356.07,-939.54"/>
</g>
<!-- ASH -->
<g id="node11" class="node">
<title>ASH</title>
<ellipse fill="none" stroke="black" cx="380.81" cy="-887" rx="29.11" ry="18"/>
<text text-anchor="middle" x="380.81" y="-881.58" font-family="Times New Roman,serif" font-size="14.00">ASH</text>
</g>
<!-- AIA&#45;&gt;ASH -->
<g id="edge11" class="edge">
<title>AIA&#45;&gt;ASH</title>
<path fill="none" stroke="gray" stroke-width="5" d="M308.04,-838.63C324.25,-846.45 339.72,-854.69 352.12,-862.31"/>
<polygon fill="gray" stroke="gray" stroke-width="5" points="349.62,-865.9 360.37,-867.78 354.45,-858.61 349.62,-865.9"/>
</g>
<!-- ASI -->
<g id="node12" class="node">
<title>ASI</title>
<ellipse fill="none" stroke="black" cx="380.81" cy="-808" rx="27" ry="18"/>
<text text-anchor="middle" x="380.81" y="-802.58" font-family="Times New Roman,serif" font-size="14.00">ASI</text>
</g>
<!-- AIA&#45;&gt;ASI -->
<g id="edge12" class="edge">
<title>AIA&#45;&gt;ASI</title>
<path fill="none" stroke="gray" stroke-width="2" d="M311.56,-792.22C323.89,-792.68 335.7,-793.58 345.91,-794.93"/>
<polygon fill="gray" stroke="gray" stroke-width="2" points="345.34,-798.38 355.78,-796.56 346.48,-791.48 345.34,-798.38"/>
</g>
<!-- ASJ -->
<g id="node13" class="node">
<title>ASJ</title>
<ellipse fill="none" stroke="black" cx="380.81" cy="-729" rx="27" ry="18"/>
<text text-anchor="middle" x="380.81" y="-723.58" font-family="Times New Roman,serif" font-size="14.00">ASJ</text>
</g>
<!-- AIA&#45;&gt;ASJ -->
<g id="edge13" class="edge">
<title>AIA&#45;&gt;ASJ</title>
<path fill="none" stroke="gray" stroke-width="0.2" d="M296.09,-750.77C313.03,-743.22 329.78,-736.56 343.81,-731.95"/>
<polygon fill="gray" stroke="gray" stroke-width="0.2" points="344.67,-735.35 353.21,-729.06 342.62,-728.66 344.67,-735.35"/>
</g>
<!-- ASK -->
<g id="node14" class="node">
<title>ASK</title>
<ellipse fill="none" stroke="black" cx="380.81" cy="-650" rx="29.11" ry="18"/>
<text text-anchor="middle" x="380.81" y="-644.58" font-family="Times New Roman,serif" font-size="14.00">ASK</text>
</g>
<!-- AIA&#45;&gt;ASK -->
<g id="edge14" class="edge">
<title>AIA&#45;&gt;ASK</title>
<path fill="none" stroke="gray" stroke-width="5" d="M276.73,-727.39C299.73,-705.88 324.24,-684.55 343.59,-669.42"/>
<polygon fill="gray" stroke="gray" stroke-width="5" points="346.03,-673.05 351.39,-663.55 340.76,-666.06 346.03,-673.05"/>
</g>
<!-- AWA -->
<g id="node15" class="node">
<title>AWA</title>
<ellipse fill="none" stroke="black" cx="380.81" cy="-571" rx="32.6" ry="18"/>
<text text-anchor="middle" x="380.81" y="-565.58" font-family="Times New Roman,serif" font-size="14.00">AWA</text>
</g>
<!-- AIA&#45;&gt;AWA -->
<g id="edge15" class="edge">
<title>AIA&#45;&gt;AWA</title>
<path fill="none" stroke="gray" stroke-width="2" d="M259.89,-714.97C292.37,-666.63 329.77,-614.2 346.16,-592.06"/>
<polygon fill="gray" stroke="gray" stroke-width="2" points="348.88,-594.26 352.17,-584.19 343.32,-590.01 348.88,-594.26"/>
</g>
<!-- AWB -->
<g id="node16" class="node">
<title>AWB</title>
<ellipse fill="none" stroke="black" cx="380.81" cy="-492" rx="32.1" ry="18"/>
<text text-anchor="middle" x="380.81" y="-486.57" font-family="Times New Roman,serif" font-size="14.00">AWB</text>
</g>
<!-- AIA&#45;&gt;AWB -->
<g id="edge16" class="edge">
<title>AIA&#45;&gt;AWB</title>
<path fill="none" stroke="gray" stroke-width="0.2" d="M248.12,-708.94C284.48,-633.71 332.66,-539.74 349.07,-510.92"/>
<polygon fill="gray" stroke="gray" stroke-width="0.2" points="351.86,-513.06 354.15,-502.72 345.91,-509.38 351.86,-513.06"/>
</g>
<!-- AWC -->
<g id="node17" class="node">
<title>AWC</title>
<ellipse fill="none" stroke="black" cx="380.81" cy="-413" rx="32.6" ry="18"/>
<text text-anchor="middle" x="380.81" y="-407.57" font-family="Times New Roman,serif" font-size="14.00">AWC</text>
</g>
<!-- AIA&#45;&gt;AWC -->
<g id="edge17" class="edge">
<title>AIA&#45;&gt;AWC</title>
<path fill="none" stroke="black" stroke-width="5" d="M240.19,-706.11C275.75,-611.97 327.77,-481.56 346.96,-438.22"/>
<polygon fill="black" stroke="black" stroke-width="5" points="350.81,-440.3 351.27,-429.39 342.95,-436.46 350.81,-440.3"/>
</g>
<!-- HSN -->
<g id="node18" class="node">
<title>HSN</title>
<ellipse fill="none" stroke="black" cx="380.81" cy="-334" rx="29.11" ry="18"/>
<text text-anchor="middle" x="380.81" y="-328.57" font-family="Times New Roman,serif" font-size="14.00">HSN</text>
</g>
<!-- AIA&#45;&gt;HSN -->
<g id="edge18" class="edge">
<title>AIA&#45;&gt;HSN</title>
<path fill="none" stroke="gray" stroke-width="0.2" d="M234.84,-703.97C276.73,-568.95 348.21,-351.5 348.21,-351.5 348.21,-351.5 348.41,-351.26 348.76,-350.83"/>
<polygon fill="gray" stroke="gray" stroke-width="0.2" points="351.37,-353.16 355.34,-343.34 346.11,-348.54 351.37,-353.16"/>
</g>
<!-- PVQ -->
<g id="node19" class="node">
<title>PVQ</title>
<ellipse fill="none" stroke="black" cx="380.81" cy="-255" rx="29.61" ry="18"/>
<text text-anchor="middle" x="380.81" y="-249.57" font-family="Times New Roman,serif" font-size="14.00">PVQ</text>
</g>
<!-- AIA&#45;&gt;PVQ -->
<g id="edge19" class="edge">
<title>AIA&#45;&gt;PVQ</title>
<path fill="none" stroke="gray" stroke-width="0.2" d="M230.78,-702.99C271.91,-546.76 348.21,-272.5 348.21,-272.5 348.21,-272.5 348.4,-272.27 348.73,-271.87"/>
<polygon fill="gray" stroke="gray" stroke-width="0.2" points="351.07,-274.51 355.03,-264.68 345.8,-269.9 351.07,-274.51"/>
</g>
<!-- RIF -->
<g id="node20" class="node">
<title>RIF</title>
<ellipse fill="none" stroke="black" cx="380.81" cy="-176" rx="27" ry="18"/>
<text text-anchor="middle" x="380.81" y="-170.57" font-family="Times New Roman,serif" font-size="14.00">RIF</text>
</g>
<!-- AIA&#45;&gt;RIF -->
<g id="edge20" class="edge">
<title>AIA&#45;&gt;RIF</title>
<path fill="none" stroke="red" stroke-width="5" d="M227.71,-702.23C263.42,-546.14 330.55,-266.87 351.09,-199.02"/>
<polygon fill="red" stroke="red" stroke-width="5" points="355.09,-200.82 354.39,-189.93 346.86,-197.84 355.09,-200.82"/>
</g>
<!-- RIR -->
<g id="node21" class="node">
<title>RIR</title>
<ellipse fill="none" stroke="black" cx="380.81" cy="-97" rx="27" ry="18"/>
<text text-anchor="middle" x="380.81" y="-91.58" font-family="Times New Roman,serif" font-size="14.00">RIR</text>
</g>
<!-- AIA&#45;&gt;RIR -->
<g id="edge21" class="edge">
<title>AIA&#45;&gt;RIR</title>
<path fill="none" stroke="gray" stroke-width="0.2" d="M227.71,-702.26C267.98,-513.02 348.21,-136 348.21,-136 348.21,-136 353.95,-128.91 360.54,-120.78"/>
<polygon fill="gray" stroke="gray" stroke-width="0.2" points="363.19,-123.07 366.77,-113.1 357.75,-118.66 363.19,-123.07"/>
</g>
<!-- RMG -->
<g id="node22" class="node">
<title>RMG</title>
<ellipse fill="none" stroke="black" cx="380.81" cy="-18" rx="32.1" ry="18"/>
<text text-anchor="middle" x="380.81" y="-12.57" font-family="Times New Roman,serif" font-size="14.00">RMG</text>
</g>
<!-- AIA&#45;&gt;RMG -->
<g id="edge22" class="edge">
<title>AIA&#45;&gt;RMG</title>
<path fill="none" stroke="gray" stroke-width="0.2" d="M225.4,-701.99C264.82,-494.98 348.21,-57 348.21,-57 348.21,-57 353.91,-49.97 360.47,-41.87"/>
<polygon fill="gray" stroke="gray" stroke-width="0.2" points="362.83,-44.52 366.4,-34.55 357.39,-40.11 362.83,-44.52"/>
</g>
<!-- ADA&#45;&gt;AIA -->
<g id="edge23" class="edge">
<title>ADA&#45;&gt;AIA</title>
<path fill="none" stroke="gray" stroke-width="0.2" d="M354.91,-1588.21C351,-1583.94 348.21,-1580.5 348.21,-1580.5 348.21,-1580.5 264.48,-1140.77 225.16,-924.64"/>
<polygon fill="gray" stroke="gray" stroke-width="0.2" points="228.61,-924.03 223.38,-914.81 221.72,-925.28 228.61,-924.03"/>
</g>
<!-- ADF&#45;&gt;AIA -->
<g id="edge24" class="edge">
<title>ADF&#45;&gt;AIA</title>
<path fill="none" stroke="gray" stroke-width="2" d="M355.54,-1509.89C351.3,-1505.31 348.21,-1501.5 348.21,-1501.5 348.21,-1501.5 268.18,-1125.4 227.86,-926.93"/>
<polygon fill="gray" stroke="gray" stroke-width="2" points="231.34,-926.48 225.92,-917.37 224.48,-927.87 231.34,-926.48"/>
</g>
<!-- ADL&#45;&gt;AIA -->
<g id="edge25" class="edge">
<title>ADL&#45;&gt;AIA</title>
<path fill="none" stroke="black" stroke-width="5" d="M355.54,-1430.89C351.3,-1426.31 348.21,-1422.5 348.21,-1422.5 348.21,-1422.5 272.54,-1108.7 231.29,-929.37"/>
<polygon fill="black" stroke="black" stroke-width="5" points="235.61,-928.62 229.11,-919.85 227.08,-930.58 235.61,-928.62"/>
</g>
<!-- AIB&#45;&gt;AIA -->
<g id="edge26" class="edge">
<title>AIB&#45;&gt;AIA</title>
<path fill="none" stroke="gray" stroke-width="2" d="M356.51,-1352.93C351.78,-1347.9 348.21,-1343.5 348.21,-1343.5 348.21,-1343.5 275.74,-1082.99 233.98,-925.13"/>
<polygon fill="gray" stroke="gray" stroke-width="2" points="237.49,-924.72 231.55,-915.94 230.72,-926.5 237.49,-924.72"/>
</g>
<!-- AIM&#45;&gt;AIA -->
<g id="edge27" class="edge">
<title>AIM&#45;&gt;AIA</title>
<path fill="none" stroke="red" stroke-width="5" d="M355.86,-1273.23C351.45,-1268.5 348.21,-1264.5 348.21,-1264.5 348.21,-1264.5 281.93,-1062.89 239.62,-927.39"/>
<polygon fill="red" stroke="red" stroke-width="5" points="243.85,-926.24 236.7,-917.99 235.49,-928.84 243.85,-926.24"/>
</g>
<!-- AIZ&#45;&gt;AIA -->
<g id="edge28" class="edge">
<title>AIZ&#45;&gt;AIA</title>
<path fill="none" stroke="red" stroke-width="5" d="M356.51,-1115.93C351.78,-1110.9 348.21,-1106.5 348.21,-1106.5 348.21,-1106.5 296.41,-1006.15 255.16,-921.56"/>
<polygon fill="red" stroke="red" stroke-width="5" points="259.14,-919.75 250.84,-912.67 251.27,-923.58 259.14,-919.75"/>
</g>
<!-- ASE&#45;&gt;AIA -->
<g id="edge29" class="edge">
<title>ASE&#45;&gt;AIA</title>
<path fill="none" stroke="black" stroke-width="5" d="M355.86,-1036.23C351.45,-1031.5 348.21,-1027.5 348.21,-1027.5 348.21,-1027.5 307.11,-970.59 268.98,-914.48"/>
<polygon fill="black" stroke="black" stroke-width="5" points="272.6,-912.03 263.38,-906.19 265.35,-916.93 272.6,-912.03"/>
</g>
<!-- ASG&#45;&gt;AIA -->
<g id="edge30" class="edge">
<title>ASG&#45;&gt;AIA</title>
<path fill="none" stroke="black" stroke-width="5" d="M355.96,-955.91C338.31,-943.21 313.15,-921.97 288.42,-899.4"/>
<polygon fill="black" stroke="black" stroke-width="5" points="291.63,-896.41 281.31,-892.84 285.69,-902.84 291.63,-896.41"/>
</g>
<!-- ASH&#45;&gt;AIA -->
<g id="edge31" class="edge">
<title>ASH&#45;&gt;AIA</title>
<path fill="none" stroke="gray" stroke-width="5" d="M351.25,-886.38C339.65,-882.95 325.47,-877.71 310.56,-871.48"/>
<polygon fill="gray" stroke="gray" stroke-width="5" points="312.73,-867.65 301.82,-867.71 309.26,-875.69 312.73,-867.65"/>
</g>
<!-- ASI&#45;&gt;AIA -->
<g id="edge32" class="edge">
<title>ASI&#45;&gt;AIA</title>
<path fill="none" stroke="black" stroke-width="5" d="M358.77,-818.95C350.11,-820.73 339.34,-822.05 327.55,-822.91"/>
<polygon fill="black" stroke="black" stroke-width="5" points="327.53,-818.53 317.79,-823.44 328.01,-827.27 327.53,-818.53"/>
</g>
<!-- ASJ&#45;&gt;AIA -->
<g id="edge33" class="edge">
<title>ASJ&#45;&gt;AIA</title>
<path fill="none" stroke="gray" stroke-width="0.2" d="M366.09,-744.4C354.51,-752.92 336.73,-763.08 317.15,-772.89"/>
<polygon fill="gray" stroke="gray" stroke-width="0.2" points="315.74,-769.68 308.31,-777.24 318.83,-775.97 315.74,-769.68"/>
</g>
<!-- ASK&#45;&gt;AIA -->
<g id="edge34" class="edge">
<title>ASK&#45;&gt;AIA</title>
<path fill="none" stroke="black" stroke-width="5" d="M369.93,-666.92C356.56,-683.75 331.29,-709.29 304.48,-734.16"/>
<polygon fill="black" stroke="black" stroke-width="5" points="301.53,-730.93 297.11,-740.91 307.44,-737.38 301.53,-730.93"/>
</g>
<!-- AWA&#45;&gt;AIA -->
<g id="edge35" class="edge">
<title>AWA&#45;&gt;AIA</title>
<path fill="none" stroke="gray" stroke-width="5" d="M375.01,-589.21C366.17,-609.33 348.21,-631.5 348.21,-631.5 348.21,-631.5 318.84,-672.17 286.72,-714.64"/>
<polygon fill="gray" stroke="gray" stroke-width="5" points="283.26,-711.96 280.69,-722.57 290.23,-717.26 283.26,-711.96"/>
</g>
<!-- AWB&#45;&gt;AIA -->
<g id="edge36" class="edge">
<title>AWB&#45;&gt;AIA</title>
<path fill="none" stroke="black" stroke-width="5" d="M375.15,-509.9C366.36,-530.1 348.21,-552.5 348.21,-552.5 348.21,-552.5 307.33,-631.69 269.29,-702.1"/>
<polygon fill="black" stroke="black" stroke-width="5" points="265.62,-699.67 264.7,-710.55 273.32,-703.85 265.62,-699.67"/>
</g>
<!-- AWC&#45;&gt;AIA -->
<g id="edge37" class="edge">
<title>AWC&#45;&gt;AIA</title>
<path fill="none" stroke="gray" stroke-width="5" d="M375.01,-431.21C366.17,-451.33 348.21,-473.5 348.21,-473.5 348.21,-473.5 298.15,-598.14 257.26,-695.46"/>
<polygon fill="gray" stroke="gray" stroke-width="5" points="253.32,-693.55 253.47,-704.47 261.38,-696.95 253.32,-693.55"/>
</g>
<!-- HSN&#45;&gt;AIA -->
<g id="edge38" class="edge">
<title>HSN&#45;&gt;AIA</title>
<path fill="none" stroke="gray" stroke-width="2" d="M375.15,-351.9C366.36,-372.1 348.21,-394.5 348.21,-394.5 348.21,-394.5 289.76,-572.32 247.59,-694.96"/>
<polygon fill="gray" stroke="gray" stroke-width="2" points="244.37,-693.56 244.43,-704.15 250.99,-695.84 244.37,-693.56"/>
</g>
<!-- PVQ&#45;&gt;AIA -->
<g id="edge39" class="edge">
<title>PVQ&#45;&gt;AIA</title>
<path fill="none" stroke="gray" stroke-width="5" d="M375.15,-272.9C366.36,-293.1 348.21,-315.5 348.21,-315.5 348.21,-315.5 284.63,-544.06 242.25,-689.98"/>
<polygon fill="gray" stroke="gray" stroke-width="5" points="238.18,-688.33 239.58,-699.16 246.58,-690.78 238.18,-688.33"/>
</g>
<!-- RIF&#45;&gt;AIA -->
<g id="edge40" class="edge">
<title>RIF&#45;&gt;AIA</title>
<path fill="none" stroke="gray" stroke-width="0.2" d="M375.15,-193.9C366.36,-214.1 348.21,-236.5 348.21,-236.5 348.21,-236.5 278.16,-527.01 236.11,-693.98"/>
<polygon fill="gray" stroke="gray" stroke-width="0.2" points="232.76,-692.97 233.71,-703.52 239.55,-694.68 232.76,-692.97"/>
</g>
<!-- AIN -->
<g id="node23" class="node">
<title>AIN</title>
<ellipse fill="none" stroke="black" cx="30.11" cy="-927" rx="27" ry="18"/>
<text text-anchor="middle" x="30.11" y="-921.58" font-family="Times New Roman,serif" font-size="14.00">AIN</text>
</g>
<!-- AIN&#45;&gt;AIA -->
<g id="edge41" class="edge">
<title>AIN&#45;&gt;AIA</title>
<path fill="none" stroke="gray" stroke-width="2" d="M49.52,-914.26C63.25,-904.78 83.17,-891 104.15,-876.49"/>
<polygon fill="gray" stroke="gray" stroke-width="2" points="106.13,-879.38 112.36,-870.82 102.15,-873.63 106.13,-879.38"/>
</g>
<!-- AVF -->
<g id="node24" class="node">
<title>AVF</title>
<ellipse fill="none" stroke="black" cx="30.11" cy="-848" rx="29.11" ry="18"/>
<text text-anchor="middle" x="30.11" y="-842.58" font-family="Times New Roman,serif" font-size="14.00">AVF</text>
</g>
<!-- AVF&#45;&gt;AIA -->
<g id="edge42" class="edge">
<title>AVF&#45;&gt;AIA</title>
<path fill="none" stroke="gray" stroke-width="0.2" d="M57.62,-841.84C66.61,-839.75 77.29,-837.27 88.74,-834.61"/>
<polygon fill="gray" stroke="gray" stroke-width="0.2" points="89.26,-838.08 98.21,-832.4 87.68,-831.26 89.26,-838.08"/>
</g>
<!-- AVH -->
<g id="node25" class="node">
<title>AVH</title>
<ellipse fill="none" stroke="black" cx="30.11" cy="-769" rx="30.11" ry="18"/>
<text text-anchor="middle" x="30.11" y="-763.58" font-family="Times New Roman,serif" font-size="14.00">AVH</text>
</g>
<!-- AVH&#45;&gt;AIA -->
<g id="edge43" class="edge">
<title>AVH&#45;&gt;AIA</title>
<path fill="none" stroke="gray" stroke-width="0.2" d="M58.76,-775.27C67.5,-777.25 77.77,-779.57 88.74,-782.06"/>
<polygon fill="gray" stroke="gray" stroke-width="0.2" points="87.71,-785.41 98.23,-784.21 89.25,-778.59 87.71,-785.41"/>
</g>
<!-- PVN -->
<g id="node26" class="node">
<title>PVN</title>
<ellipse fill="none" stroke="black" cx="30.11" cy="-690" rx="29.11" ry="18"/>
<text text-anchor="middle" x="30.11" y="-684.58" font-family="Times New Roman,serif" font-size="14.00">PVN</text>
</g>
<!-- PVN&#45;&gt;AIA -->
<g id="edge44" class="edge">
<title>PVN&#45;&gt;AIA</title>
<path fill="none" stroke="gray" stroke-width="2" d="M50.51,-703.31C64.14,-712.65 83.51,-725.93 103.89,-739.9"/>
<polygon fill="gray" stroke="gray" stroke-width="2" points="101.9,-742.78 112.12,-745.55 105.86,-737.01 101.9,-742.78"/>
</g>
</g>
</svg>
