<?xml version="1.0" encoding="UTF-8" standalone="no"?>
<!DOCTYPE svg PUBLIC "-//W3C//DTD SVG 1.1//EN"
 "http://www.w3.org/Graphics/SVG/1.1/DTD/svg11.dtd">
<!-- Generated by graphviz version 11.0.0 (20240428.1522)
 -->
<!-- Pages: 1 -->
<svg width="426pt" height="2967pt"
 viewBox="0.00 0.00 426.40 2967.00" xmlns="http://www.w3.org/2000/svg" xmlns:xlink="http://www.w3.org/1999/xlink">
<g id="graph0" class="graph" transform="scale(1 1) rotate(0) translate(4 2963)">
<polygon fill="white" stroke="none" points="-4,4 -4,-2963 422.4,-2963 422.4,4 -4,4"/>
<!-- AIB -->
<g id="node1" class="node">
<title>AIB</title>
<ellipse fill="none" stroke="black" cx="209.2" cy="-1519" rx="108" ry="108"/>
<text text-anchor="middle" x="209.2" y="-1500" font-family="Times New Roman,serif" font-size="50.00">AIB</text>
</g>
<!-- AIB&#45;&gt;AIB -->
<g id="edge1" class="edge">
<title>AIB&#45;&gt;AIB</title>
<path fill="none" stroke="gray" stroke-width="2" d="M176.41,-1622.39C178.35,-1649.51 189.28,-1670 209.2,-1670 225.85,-1670 236.22,-1655.68 240.32,-1635.14"/>
<polygon fill="gray" stroke="gray" stroke-width="2" points="243.76,-1635.77 241.6,-1625.39 236.82,-1634.85 243.76,-1635.77"/>
</g>
<!-- ADA -->
<g id="node2" class="node">
<title>ADA</title>
<ellipse fill="none" stroke="black" cx="385.8" cy="-2941" rx="30.11" ry="18"/>
<text text-anchor="middle" x="385.8" y="-2935.57" font-family="Times New Roman,serif" font-size="14.00">ADA</text>
</g>
<!-- AIB&#45;&gt;ADA -->
<g id="edge2" class="edge">
<title>AIB&#45;&gt;ADA</title>
<path fill="none" stroke="gray" stroke-width="0.2" d="M222.3,-1626.42C256.8,-1948.2 353.2,-2880.5 353.2,-2880.5 353.2,-2880.5 366.36,-2896.74 375.7,-2914.04"/>
<polygon fill="gray" stroke="gray" stroke-width="0.2" points="372.46,-2915.39 380.01,-2922.83 378.75,-2912.31 372.46,-2915.39"/>
</g>
<!-- ADL -->
<g id="node3" class="node">
<title>ADL</title>
<ellipse fill="none" stroke="black" cx="385.8" cy="-2862" rx="29.11" ry="18"/>
<text text-anchor="middle" x="385.8" y="-2856.57" font-family="Times New Roman,serif" font-size="14.00">ADL</text>
</g>
<!-- AIB&#45;&gt;ADL -->
<g id="edge3" class="edge">
<title>AIB&#45;&gt;ADL</title>
<path fill="none" stroke="gray" stroke-width="0.2" d="M223.08,-1626.58C258.23,-1935.48 353.2,-2801.5 353.2,-2801.5 353.2,-2801.5 366.36,-2817.74 375.7,-2835.04"/>
<polygon fill="gray" stroke="gray" stroke-width="0.2" points="372.46,-2836.39 380.01,-2843.83 378.75,-2833.31 372.46,-2836.39"/>
</g>
<!-- AIA -->
<g id="node4" class="node">
<title>AIA</title>
<ellipse fill="none" stroke="black" cx="385.8" cy="-2783" rx="27" ry="18"/>
<text text-anchor="middle" x="385.8" y="-2777.57" font-family="Times New Roman,serif" font-size="14.00">AIA</text>
</g>
<!-- AIB&#45;&gt;AIA -->
<g id="edge4" class="edge">
<title>AIB&#45;&gt;AIA</title>
<path fill="none" stroke="gray" stroke-width="2" d="M223.91,-1626.32C259.71,-1921.57 353.2,-2722.5 353.2,-2722.5 353.2,-2722.5 365.18,-2737.29 374.39,-2753.67"/>
<polygon fill="gray" stroke="gray" stroke-width="2" points="371.16,-2755.04 378.78,-2762.4 377.41,-2751.89 371.16,-2755.04"/>
</g>
<!-- AIY -->
<g id="node5" class="node">
<title>AIY</title>
<ellipse fill="none" stroke="black" cx="385.8" cy="-2704" rx="27" ry="18"/>
<text text-anchor="middle" x="385.8" y="-2698.57" font-family="Times New Roman,serif" font-size="14.00">AIY</text>
</g>
<!-- AIB&#45;&gt;AIY -->
<g id="edge5" class="edge">
<title>AIB&#45;&gt;AIY</title>
<path fill="none" stroke="gray" stroke-width="0.2" d="M224.9,-1626.35C261.39,-1907.73 353.2,-2643.5 353.2,-2643.5 353.2,-2643.5 366.36,-2659.74 375.7,-2677.04"/>
<polygon fill="gray" stroke="gray" stroke-width="0.2" points="372.46,-2678.39 380.01,-2685.83 378.75,-2675.31 372.46,-2678.39"/>
</g>
<!-- AIZ -->
<g id="node6" class="node">
<title>AIZ</title>
<ellipse fill="none" stroke="black" cx="385.8" cy="-2625" rx="27" ry="18"/>
<text text-anchor="middle" x="385.8" y="-2619.57" font-family="Times New Roman,serif" font-size="14.00">AIZ</text>
</g>
<!-- AIB&#45;&gt;AIZ -->
<g id="edge6" class="edge">
<title>AIB&#45;&gt;AIZ</title>
<path fill="none" stroke="gray" stroke-width="2" d="M225.98,-1625.99C263.17,-1892.74 353.2,-2564.5 353.2,-2564.5 353.2,-2564.5 365.18,-2579.29 374.39,-2595.67"/>
<polygon fill="gray" stroke="gray" stroke-width="2" points="371.16,-2597.04 378.78,-2604.4 377.41,-2593.89 371.16,-2597.04"/>
</g>
<!-- AQR -->
<g id="node7" class="node">
<title>AQR</title>
<ellipse fill="none" stroke="black" cx="385.8" cy="-2546" rx="30.61" ry="18"/>
<text text-anchor="middle" x="385.8" y="-2540.57" font-family="Times New Roman,serif" font-size="14.00">AQR</text>
</g>
<!-- AIB&#45;&gt;AQR -->
<g id="edge7" class="edge">
<title>AIB&#45;&gt;AQR</title>
<path fill="none" stroke="gray" stroke-width="0.2" d="M227.24,-1625.59C265.16,-1877.18 353.2,-2485.5 353.2,-2485.5 353.2,-2485.5 366.36,-2501.74 375.7,-2519.04"/>
<polygon fill="gray" stroke="gray" stroke-width="0.2" points="372.46,-2520.39 380.01,-2527.83 378.75,-2517.31 372.46,-2520.39"/>
</g>
<!-- ASE -->
<g id="node8" class="node">
<title>ASE</title>
<ellipse fill="none" stroke="black" cx="385.8" cy="-2467" rx="28.11" ry="18"/>
<text text-anchor="middle" x="385.8" y="-2461.57" font-family="Times New Roman,serif" font-size="14.00">ASE</text>
</g>
<!-- AIB&#45;&gt;ASE -->
<g id="edge8" class="edge">
<title>AIB&#45;&gt;ASE</title>
<path fill="none" stroke="gray" stroke-width="0.2" d="M228.75,-1625.39C267.44,-1861.36 353.2,-2406.5 353.2,-2406.5 353.2,-2406.5 366.36,-2422.74 375.7,-2440.04"/>
<polygon fill="gray" stroke="gray" stroke-width="0.2" points="372.46,-2441.39 380.01,-2448.83 378.75,-2438.31 372.46,-2441.39"/>
</g>
<!-- ASH -->
<g id="node9" class="node">
<title>ASH</title>
<ellipse fill="none" stroke="black" cx="385.8" cy="-2388" rx="29.11" ry="18"/>
<text text-anchor="middle" x="385.8" y="-2382.57" font-family="Times New Roman,serif" font-size="14.00">ASH</text>
</g>
<!-- AIB&#45;&gt;ASH -->
<g id="edge9" class="edge">
<title>AIB&#45;&gt;ASH</title>
<path fill="none" stroke="gray" stroke-width="5" d="M230.54,-1625.08C270.02,-1844.69 353.2,-2327.5 353.2,-2327.5 353.2,-2327.5 363.84,-2340.63 372.77,-2355.85"/>
<polygon fill="gray" stroke="gray" stroke-width="5" points="368.8,-2357.69 377.28,-2364.56 376.57,-2353.67 368.8,-2357.69"/>
</g>
<!-- ASK -->
<g id="node10" class="node">
<title>ASK</title>
<ellipse fill="none" stroke="black" cx="385.8" cy="-2309" rx="29.11" ry="18"/>
<text text-anchor="middle" x="385.8" y="-2303.57" font-family="Times New Roman,serif" font-size="14.00">ASK</text>
</g>
<!-- AIB&#45;&gt;ASK -->
<g id="edge10" class="edge">
<title>AIB&#45;&gt;ASK</title>
<path fill="none" stroke="gray" stroke-width="0.2" d="M232.7,-1624.7C272.97,-1827.16 353.2,-2248.5 353.2,-2248.5 353.2,-2248.5 366.36,-2264.74 375.7,-2282.04"/>
<polygon fill="gray" stroke="gray" stroke-width="0.2" points="372.46,-2283.39 380.01,-2290.83 378.75,-2280.31 372.46,-2283.39"/>
</g>
<!-- AUA -->
<g id="node11" class="node">
<title>AUA</title>
<ellipse fill="none" stroke="black" cx="385.8" cy="-2230" rx="30.11" ry="18"/>
<text text-anchor="middle" x="385.8" y="-2224.57" font-family="Times New Roman,serif" font-size="14.00">AUA</text>
</g>
<!-- AIB&#45;&gt;AUA -->
<g id="edge11" class="edge">
<title>AIB&#45;&gt;AUA</title>
<path fill="none" stroke="red" stroke-width="0.2" d="M235.36,-1624.17C276.39,-1808.53 353.2,-2169.5 353.2,-2169.5 353.2,-2169.5 366.36,-2185.74 375.7,-2203.04"/>
<polygon fill="red" stroke="red" stroke-width="0.2" points="372.46,-2204.39 380.01,-2211.83 378.75,-2201.31 372.46,-2204.39"/>
</g>
<!-- AVA -->
<g id="node12" class="node">
<title>AVA</title>
<ellipse fill="none" stroke="black" cx="385.8" cy="-2151" rx="30.11" ry="18"/>
<text text-anchor="middle" x="385.8" y="-2145.57" font-family="Times New Roman,serif" font-size="14.00">AVA</text>
</g>
<!-- AIB&#45;&gt;AVA -->
<g id="edge12" class="edge">
<title>AIB&#45;&gt;AVA</title>
<path fill="none" stroke="black" stroke-width="5" d="M235.52,-1623.99C276.59,-1794.31 353.2,-2112 353.2,-2112 353.2,-2112 356.81,-2116.46 361.59,-2122.36"/>
<polygon fill="black" stroke="black" stroke-width="5" points="357.96,-2124.83 367.66,-2129.84 364.76,-2119.32 357.96,-2124.83"/>
</g>
<!-- AVB -->
<g id="node13" class="node">
<title>AVB</title>
<ellipse fill="none" stroke="black" cx="385.8" cy="-2072" rx="29.61" ry="18"/>
<text text-anchor="middle" x="385.8" y="-2066.57" font-family="Times New Roman,serif" font-size="14.00">AVB</text>
</g>
<!-- AIB&#45;&gt;AVB -->
<g id="edge13" class="edge">
<title>AIB&#45;&gt;AVB</title>
<path fill="none" stroke="black" stroke-width="5" d="M242.83,-1621.85C285.03,-1766.48 353.2,-2011.5 353.2,-2011.5 353.2,-2011.5 363.84,-2024.63 372.77,-2039.85"/>
<polygon fill="black" stroke="black" stroke-width="5" points="368.8,-2041.69 377.28,-2048.56 376.57,-2037.67 368.8,-2041.69"/>
</g>
<!-- AVD -->
<g id="node14" class="node">
<title>AVD</title>
<ellipse fill="none" stroke="black" cx="385.8" cy="-1993" rx="30.11" ry="18"/>
<text text-anchor="middle" x="385.8" y="-1987.58" font-family="Times New Roman,serif" font-size="14.00">AVD</text>
</g>
<!-- AIB&#45;&gt;AVD -->
<g id="edge14" class="edge">
<title>AIB&#45;&gt;AVD</title>
<path fill="none" stroke="gray" stroke-width="0.2" d="M243.91,-1621.54C286.19,-1750.14 353.2,-1954 353.2,-1954 353.2,-1954 358.9,-1961.03 365.46,-1969.13"/>
<polygon fill="gray" stroke="gray" stroke-width="0.2" points="362.38,-1970.89 371.39,-1976.45 367.82,-1966.48 362.38,-1970.89"/>
</g>
<!-- AVE -->
<g id="node15" class="node">
<title>AVE</title>
<ellipse fill="none" stroke="black" cx="385.8" cy="-1914" rx="29.11" ry="18"/>
<text text-anchor="middle" x="385.8" y="-1908.58" font-family="Times New Roman,serif" font-size="14.00">AVE</text>
</g>
<!-- AIB&#45;&gt;AVE -->
<g id="edge15" class="edge">
<title>AIB&#45;&gt;AVE</title>
<path fill="none" stroke="gray" stroke-width="5" d="M250.42,-1619.11C292.71,-1724.41 353.2,-1875 353.2,-1875 353.2,-1875 356.92,-1879.58 361.8,-1885.61"/>
<polygon fill="gray" stroke="gray" stroke-width="5" points="358.33,-1888.28 368.02,-1893.29 365.13,-1882.77 358.33,-1888.28"/>
</g>
<!-- AVK -->
<g id="node16" class="node">
<title>AVK</title>
<ellipse fill="none" stroke="black" cx="385.8" cy="-1835" rx="30.11" ry="18"/>
<text text-anchor="middle" x="385.8" y="-1829.58" font-family="Times New Roman,serif" font-size="14.00">AVK</text>
</g>
<!-- AIB&#45;&gt;AVK -->
<g id="edge16" class="edge">
<title>AIB&#45;&gt;AVK</title>
<path fill="none" stroke="gray" stroke-width="0.2" d="M266.72,-1610.97C306.69,-1684.4 353.2,-1774.5 353.2,-1774.5 353.2,-1774.5 366.36,-1790.74 375.7,-1808.04"/>
<polygon fill="gray" stroke="gray" stroke-width="0.2" points="372.46,-1809.39 380.01,-1816.83 378.75,-1806.31 372.46,-1809.39"/>
</g>
<!-- AWC -->
<g id="node17" class="node">
<title>AWC</title>
<ellipse fill="none" stroke="black" cx="385.8" cy="-1756" rx="32.6" ry="18"/>
<text text-anchor="middle" x="385.8" y="-1750.58" font-family="Times New Roman,serif" font-size="14.00">AWC</text>
</g>
<!-- AIB&#45;&gt;AWC -->
<g id="edge17" class="edge">
<title>AIB&#45;&gt;AWC</title>
<path fill="none" stroke="gray" stroke-width="0.2" d="M281.91,-1599.46C317.59,-1646.19 353.2,-1695.5 353.2,-1695.5 353.2,-1695.5 366.23,-1711.57 375.55,-1728.77"/>
<polygon fill="gray" stroke="gray" stroke-width="0.2" points="372.3,-1730.1 379.87,-1737.52 378.58,-1727 372.3,-1730.1"/>
</g>
<!-- BAG -->
<g id="node18" class="node">
<title>BAG</title>
<ellipse fill="none" stroke="black" cx="385.8" cy="-1677" rx="30.11" ry="18"/>
<text text-anchor="middle" x="385.8" y="-1671.58" font-family="Times New Roman,serif" font-size="14.00">BAG</text>
</g>
<!-- AIB&#45;&gt;BAG -->
<g id="edge18" class="edge">
<title>AIB&#45;&gt;BAG</title>
<path fill="none" stroke="gray" stroke-width="0.2" d="M297.5,-1581.88C324.66,-1606.45 351.81,-1633.1 368.46,-1652.32"/>
<polygon fill="gray" stroke="gray" stroke-width="0.2" points="365.63,-1654.4 374.72,-1659.85 371.01,-1649.92 365.63,-1654.4"/>
</g>
<!-- DVA -->
<g id="node19" class="node">
<title>DVA</title>
<ellipse fill="none" stroke="black" cx="385.8" cy="-1598" rx="30.11" ry="18"/>
<text text-anchor="middle" x="385.8" y="-1592.58" font-family="Times New Roman,serif" font-size="14.00">DVA</text>
</g>
<!-- AIB&#45;&gt;DVA -->
<g id="edge19" class="edge">
<title>AIB&#45;&gt;DVA</title>
<path fill="none" stroke="red" stroke-width="2" d="M308.22,-1563.35C322.87,-1569.98 337.12,-1576.43 349.27,-1581.92"/>
<polygon fill="red" stroke="red" stroke-width="2" points="347.79,-1585.1 358.35,-1586.03 350.68,-1578.72 347.79,-1585.1"/>
</g>
<!-- DVC -->
<g id="node20" class="node">
<title>DVC</title>
<ellipse fill="none" stroke="black" cx="385.8" cy="-1519" rx="30.11" ry="18"/>
<text text-anchor="middle" x="385.8" y="-1513.58" font-family="Times New Roman,serif" font-size="14.00">DVC</text>
</g>
<!-- AIB&#45;&gt;DVC -->
<g id="edge20" class="edge">
<title>AIB&#45;&gt;DVC</title>
<path fill="none" stroke="gray" stroke-width="0.2" d="M316.55,-1503.22C329.36,-1503.69 341.61,-1504.65 352.09,-1506.09"/>
<polygon fill="gray" stroke="gray" stroke-width="0.2" points="351.22,-1509.49 361.65,-1507.64 352.34,-1502.58 351.22,-1509.49"/>
</g>
<!-- FLP -->
<g id="node21" class="node">
<title>FLP</title>
<ellipse fill="none" stroke="black" cx="385.8" cy="-1440" rx="27.11" ry="18"/>
<text text-anchor="middle" x="385.8" y="-1434.58" font-family="Times New Roman,serif" font-size="14.00">FLP</text>
</g>
<!-- AIB&#45;&gt;FLP -->
<g id="edge21" class="edge">
<title>AIB&#45;&gt;FLP</title>
<path fill="none" stroke="gray" stroke-width="0.2" d="M301.08,-1461.77C318.02,-1454.22 334.77,-1447.56 348.8,-1442.95"/>
<polygon fill="gray" stroke="gray" stroke-width="0.2" points="349.66,-1446.35 358.2,-1440.06 347.61,-1439.66 349.66,-1446.35"/>
</g>
<!-- IL2 -->
<g id="node22" class="node">
<title>IL2</title>
<ellipse fill="none" stroke="black" cx="385.8" cy="-1361" rx="27" ry="18"/>
<text text-anchor="middle" x="385.8" y="-1355.58" font-family="Times New Roman,serif" font-size="14.00">IL2</text>
</g>
<!-- AIB&#45;&gt;IL2 -->
<g id="edge22" class="edge">
<title>AIB&#45;&gt;IL2</title>
<path fill="none" stroke="gray" stroke-width="0.2" d="M281.72,-1438.39C306.94,-1414.81 333.97,-1391.43 354.02,-1376.22"/>
<polygon fill="gray" stroke="gray" stroke-width="0.2" points="355.95,-1379.15 361.92,-1370.4 351.8,-1373.51 355.95,-1379.15"/>
</g>
<!-- PVT -->
<g id="node23" class="node">
<title>PVT</title>
<ellipse fill="none" stroke="black" cx="385.8" cy="-1282" rx="28.61" ry="18"/>
<text text-anchor="middle" x="385.8" y="-1276.58" font-family="Times New Roman,serif" font-size="14.00">PVT</text>
</g>
<!-- AIB&#45;&gt;PVT -->
<g id="edge23" class="edge">
<title>AIB&#45;&gt;PVT</title>
<path fill="none" stroke="gray" stroke-width="0.2" d="M265.08,-1426.05C305.41,-1366.34 353.2,-1300.5 353.2,-1300.5 353.2,-1300.5 353.66,-1299.92 354.46,-1298.94"/>
<polygon fill="gray" stroke="gray" stroke-width="0.2" points="356.78,-1301.61 360.65,-1291.75 351.48,-1297.05 356.78,-1301.61"/>
</g>
<!-- RIA -->
<g id="node24" class="node">
<title>RIA</title>
<ellipse fill="none" stroke="black" cx="385.8" cy="-1203" rx="27" ry="18"/>
<text text-anchor="middle" x="385.8" y="-1197.58" font-family="Times New Roman,serif" font-size="14.00">RIA</text>
</g>
<!-- AIB&#45;&gt;RIA -->
<g id="edge24" class="edge">
<title>AIB&#45;&gt;RIA</title>
<path fill="none" stroke="red" stroke-width="2" d="M259.82,-1423.24C301.12,-1343.53 353.2,-1243 353.2,-1243 353.2,-1243 358.28,-1236.57 364.37,-1228.86"/>
<polygon fill="red" stroke="red" stroke-width="2" points="366.98,-1231.2 370.44,-1221.18 361.49,-1226.86 366.98,-1231.2"/>
</g>
<!-- RIB -->
<g id="node25" class="node">
<title>RIB</title>
<ellipse fill="none" stroke="black" cx="385.8" cy="-1124" rx="27" ry="18"/>
<text text-anchor="middle" x="385.8" y="-1118.58" font-family="Times New Roman,serif" font-size="14.00">RIB</text>
</g>
<!-- AIB&#45;&gt;RIB -->
<g id="edge25" class="edge">
<title>AIB&#45;&gt;RIB</title>
<path fill="none" stroke="black" stroke-width="5" d="M245.37,-1416.87C281.34,-1321.9 334.03,-1190.25 354.36,-1146.64"/>
<polygon fill="black" stroke="black" stroke-width="5" points="358.14,-1148.85 358.93,-1137.96 350.4,-1144.77 358.14,-1148.85"/>
</g>
<!-- RIC -->
<g id="node26" class="node">
<title>RIC</title>
<ellipse fill="none" stroke="black" cx="385.8" cy="-1045" rx="27" ry="18"/>
<text text-anchor="middle" x="385.8" y="-1039.58" font-family="Times New Roman,serif" font-size="14.00">RIC</text>
</g>
<!-- AIB&#45;&gt;RIC -->
<g id="edge26" class="edge">
<title>AIB&#45;&gt;RIC</title>
<path fill="none" stroke="gray" stroke-width="0.2" d="M239.83,-1415.17C281.72,-1280.45 353.2,-1063.5 353.2,-1063.5 353.2,-1063.5 353.92,-1062.6 355.13,-1061.13"/>
<polygon fill="gray" stroke="gray" stroke-width="0.2" points="357.7,-1063.51 361.64,-1053.67 352.43,-1058.91 357.7,-1063.51"/>
</g>
<!-- RIF -->
<g id="node27" class="node">
<title>RIF</title>
<ellipse fill="none" stroke="black" cx="385.8" cy="-966" rx="27" ry="18"/>
<text text-anchor="middle" x="385.8" y="-960.58" font-family="Times New Roman,serif" font-size="14.00">RIF</text>
</g>
<!-- AIB&#45;&gt;RIF -->
<g id="edge27" class="edge">
<title>AIB&#45;&gt;RIF</title>
<path fill="none" stroke="gray" stroke-width="0.2" d="M235.85,-1413.85C277,-1257.86 353.2,-984.5 353.2,-984.5 353.2,-984.5 353.92,-983.6 355.13,-982.13"/>
<polygon fill="gray" stroke="gray" stroke-width="0.2" points="357.7,-984.51 361.64,-974.67 352.43,-979.91 357.7,-984.51"/>
</g>
<!-- RIG -->
<g id="node28" class="node">
<title>RIG</title>
<ellipse fill="none" stroke="black" cx="385.8" cy="-887" rx="27.11" ry="18"/>
<text text-anchor="middle" x="385.8" y="-881.58" font-family="Times New Roman,serif" font-size="14.00">RIG</text>
</g>
<!-- AIB&#45;&gt;RIG -->
<g id="edge28" class="edge">
<title>AIB&#45;&gt;RIG</title>
<path fill="none" stroke="red" stroke-width="0.2" d="M232.7,-1413.38C272.97,-1237.63 353.2,-905.5 353.2,-905.5 353.2,-905.5 353.92,-904.6 355.13,-903.13"/>
<polygon fill="red" stroke="red" stroke-width="0.2" points="357.7,-905.51 361.64,-895.67 352.43,-900.91 357.7,-905.51"/>
</g>
<!-- RIM -->
<g id="node29" class="node">
<title>RIM</title>
<ellipse fill="none" stroke="black" cx="385.8" cy="-808" rx="28.11" ry="18"/>
<text text-anchor="middle" x="385.8" y="-802.58" font-family="Times New Roman,serif" font-size="14.00">RIM</text>
</g>
<!-- AIB&#45;&gt;RIM -->
<g id="edge29" class="edge">
<title>AIB&#45;&gt;RIM</title>
<path fill="none" stroke="black" stroke-width="5" d="M230.31,-1412.73C265.54,-1238.83 336.08,-906.95 356.27,-832.2"/>
<polygon fill="black" stroke="black" stroke-width="5" points="360.3,-833.96 359.24,-823.1 351.98,-831.25 360.3,-833.96"/>
</g>
<!-- RIV -->
<g id="node30" class="node">
<title>RIV</title>
<ellipse fill="none" stroke="black" cx="385.8" cy="-729" rx="27" ry="18"/>
<text text-anchor="middle" x="385.8" y="-723.58" font-family="Times New Roman,serif" font-size="14.00">RIV</text>
</g>
<!-- AIB&#45;&gt;RIV -->
<g id="edge30" class="edge">
<title>AIB&#45;&gt;RIV</title>
<path fill="none" stroke="gray" stroke-width="0.2" d="M230.46,-1412.74C269.91,-1205.84 353.2,-769 353.2,-769 353.2,-769 359.23,-761.37 366.02,-752.78"/>
<polygon fill="gray" stroke="gray" stroke-width="0.2" points="368.67,-755.06 372.13,-745.05 363.18,-750.72 368.67,-755.06"/>
</g>
<!-- RMF -->
<g id="node31" class="node">
<title>RMF</title>
<ellipse fill="none" stroke="black" cx="385.8" cy="-650" rx="30.61" ry="18"/>
<text text-anchor="middle" x="385.8" y="-644.58" font-family="Times New Roman,serif" font-size="14.00">RMF</text>
</g>
<!-- AIB&#45;&gt;RMF -->
<g id="edge31" class="edge">
<title>AIB&#45;&gt;RMF</title>
<path fill="none" stroke="red" stroke-width="2" d="M226.75,-1412.12C261.23,-1202.59 338.65,-752.96 356.8,-672.56"/>
<polygon fill="red" stroke="red" stroke-width="2" points="360.11,-673.72 359.41,-663.15 353.36,-671.85 360.11,-673.72"/>
</g>
<!-- RMH -->
<g id="node32" class="node">
<title>RMH</title>
<ellipse fill="none" stroke="black" cx="385.8" cy="-571" rx="31.6" ry="18"/>
<text text-anchor="middle" x="385.8" y="-565.58" font-family="Times New Roman,serif" font-size="14.00">RMH</text>
</g>
<!-- AIB&#45;&gt;RMH -->
<g id="edge32" class="edge">
<title>AIB&#45;&gt;RMH</title>
<path fill="none" stroke="gray" stroke-width="0.2" d="M225.37,-1412C259.55,-1184.6 340.5,-669.31 356.99,-591.09"/>
<polygon fill="gray" stroke="gray" stroke-width="0.2" points="360.37,-591.98 359.52,-581.42 353.6,-590.21 360.37,-591.98"/>
</g>
<!-- SAA -->
<g id="node33" class="node">
<title>SAA</title>
<ellipse fill="none" stroke="black" cx="385.8" cy="-492" rx="29.11" ry="18"/>
<text text-anchor="middle" x="385.8" y="-486.57" font-family="Times New Roman,serif" font-size="14.00">SAA</text>
</g>
<!-- AIB&#45;&gt;SAA -->
<g id="edge33" class="edge">
<title>AIB&#45;&gt;SAA</title>
<path fill="none" stroke="gray" stroke-width="5" d="M224.24,-1411.78C257.17,-1173.94 337.65,-617.04 356.84,-516.67"/>
<polygon fill="gray" stroke="gray" stroke-width="5" points="361.04,-517.92 359.09,-507.18 352.52,-515.9 361.04,-517.92"/>
</g>
<!-- SIA -->
<g id="node34" class="node">
<title>SIA</title>
<ellipse fill="none" stroke="black" cx="385.8" cy="-413" rx="27" ry="18"/>
<text text-anchor="middle" x="385.8" y="-407.57" font-family="Times New Roman,serif" font-size="14.00">SIA</text>
</g>
<!-- AIB&#45;&gt;SIA -->
<g id="edge34" class="edge">
<title>AIB&#45;&gt;SIA</title>
<path fill="none" stroke="gray" stroke-width="2" d="M224.57,-1411.81C260.83,-1141.23 353.2,-452 353.2,-452 353.2,-452 358.15,-445.9 364.12,-438.52"/>
<polygon fill="gray" stroke="gray" stroke-width="2" points="366.47,-441.19 370.04,-431.21 361.03,-436.78 366.47,-441.19"/>
</g>
<!-- SIB -->
<g id="node35" class="node">
<title>SIB</title>
<ellipse fill="none" stroke="black" cx="385.8" cy="-334" rx="27" ry="18"/>
<text text-anchor="middle" x="385.8" y="-328.57" font-family="Times New Roman,serif" font-size="14.00">SIB</text>
</g>
<!-- AIB&#45;&gt;SIB -->
<g id="edge35" class="edge">
<title>AIB&#45;&gt;SIB</title>
<path fill="none" stroke="gray" stroke-width="0.2" d="M223.59,-1411.7C259.14,-1126.81 353.2,-373 353.2,-373 353.2,-373 358.94,-365.91 365.53,-357.78"/>
<polygon fill="gray" stroke="gray" stroke-width="0.2" points="368.18,-360.07 371.76,-350.1 362.74,-355.66 368.18,-360.07"/>
</g>
<!-- SMD -->
<g id="node36" class="node">
<title>SMD</title>
<ellipse fill="none" stroke="black" cx="385.8" cy="-255" rx="30.61" ry="18"/>
<text text-anchor="middle" x="385.8" y="-249.57" font-family="Times New Roman,serif" font-size="14.00">SMD</text>
</g>
<!-- AIB&#45;&gt;SMD -->
<g id="edge36" class="edge">
<title>AIB&#45;&gt;SMD</title>
<path fill="none" stroke="black" stroke-width="5" d="M221.66,-1411.45C253.01,-1131.7 338.7,-396.79 356.86,-280.37"/>
<polygon fill="black" stroke="black" stroke-width="5" points="361.08,-281.57 358.71,-270.91 352.5,-279.89 361.08,-281.57"/>
</g>
<!-- URA -->
<g id="node37" class="node">
<title>URA</title>
<ellipse fill="none" stroke="black" cx="385.8" cy="-176" rx="30.11" ry="18"/>
<text text-anchor="middle" x="385.8" y="-170.57" font-family="Times New Roman,serif" font-size="14.00">URA</text>
</g>
<!-- AIB&#45;&gt;URA -->
<g id="edge37" class="edge">
<title>AIB&#45;&gt;URA</title>
<path fill="none" stroke="gray" stroke-width="0.2" d="M222,-1411.46C256.23,-1099.28 353.2,-215 353.2,-215 353.2,-215 358.9,-207.97 365.46,-199.87"/>
<polygon fill="gray" stroke="gray" stroke-width="0.2" points="367.82,-202.52 371.39,-192.55 362.38,-198.11 367.82,-202.52"/>
</g>
<!-- URY -->
<g id="node38" class="node">
<title>URY</title>
<ellipse fill="none" stroke="black" cx="385.8" cy="-97" rx="30.11" ry="18"/>
<text text-anchor="middle" x="385.8" y="-91.58" font-family="Times New Roman,serif" font-size="14.00">URY</text>
</g>
<!-- AIB&#45;&gt;URY -->
<g id="edge38" class="edge">
<title>AIB&#45;&gt;URY</title>
<path fill="none" stroke="gray" stroke-width="0.2" d="M220.43,-1411.17C251.34,-1100.38 342.27,-220.24 357.94,-116.73"/>
<polygon fill="gray" stroke="gray" stroke-width="0.2" points="361.34,-117.58 359.85,-107.09 354.48,-116.22 361.34,-117.58"/>
</g>
<!-- VBn -->
<g id="node39" class="node">
<title>VBn</title>
<ellipse fill="none" stroke="black" cx="385.8" cy="-18" rx="27.61" ry="18"/>
<text text-anchor="middle" x="385.8" y="-12.57" font-family="Times New Roman,serif" font-size="14.00">VBn</text>
</g>
<!-- AIB&#45;&gt;VBn -->
<g id="edge39" class="edge">
<title>AIB&#45;&gt;VBn</title>
<path fill="none" stroke="gray" stroke-width="0.2" d="M219.89,-1411.24C252.05,-1069.7 353.2,-35.5 353.2,-35.5 353.2,-35.5 353.68,-34.91 354.52,-33.91"/>
<polygon fill="gray" stroke="gray" stroke-width="0.2" points="356.95,-36.45 360.98,-26.64 351.72,-31.8 356.95,-36.45"/>
</g>
<!-- ADA&#45;&gt;AIB -->
<g id="edge40" class="edge">
<title>ADA&#45;&gt;AIB</title>
<path fill="none" stroke="gray" stroke-width="2" d="M359.9,-2931.21C355.99,-2926.94 353.2,-2923.5 353.2,-2923.5 353.2,-2923.5 255.68,-1980.35 221.71,-1639.67"/>
<polygon fill="gray" stroke="gray" stroke-width="2" points="225.2,-1639.44 220.73,-1629.84 218.24,-1640.14 225.2,-1639.44"/>
</g>
<!-- ADL&#45;&gt;AIB -->
<g id="edge41" class="edge">
<title>ADL&#45;&gt;AIB</title>
<path fill="none" stroke="black" stroke-width="5" d="M360.53,-2852.89C356.29,-2848.31 353.2,-2844.5 353.2,-2844.5 353.2,-2844.5 257.48,-1971.65 222.67,-1642.42"/>
<polygon fill="black" stroke="black" stroke-width="5" points="227.06,-1642.37 221.66,-1632.89 218.36,-1643.29 227.06,-1642.37"/>
</g>
<!-- AIA&#45;&gt;AIB -->
<g id="edge42" class="edge">
<title>AIA&#45;&gt;AIB</title>
<path fill="none" stroke="black" stroke-width="nan" d="M361.5,-2774.93C356.77,-2769.9 353.2,-2765.5 353.2,-2765.5 353.2,-2765.5 255.6,-1929.36 221.66,-1626.55"/>
<polygon fill="black" stroke="black" stroke-width="nan" points="nan,-nan nan,-nan nan,-nan nan,-nan"/>
</g>
<!-- AIY&#45;&gt;AIB -->
<g id="edge43" class="edge">
<title>AIY&#45;&gt;AIB</title>
<path fill="none" stroke="gray" stroke-width="5" d="M361.5,-2695.93C356.77,-2690.9 353.2,-2686.5 353.2,-2686.5 353.2,-2686.5 260.38,-1942.66 224.31,-1642.29"/>
<polygon fill="gray" stroke="gray" stroke-width="5" points="228.7,-1642.2 223.17,-1632.79 220.01,-1643.24 228.7,-1642.2"/>
</g>
<!-- AIZ&#45;&gt;AIB -->
<g id="edge44" class="edge">
<title>AIZ&#45;&gt;AIB</title>
<path fill="none" stroke="black" stroke-width="5" d="M361.5,-2616.93C356.77,-2611.9 353.2,-2607.5 353.2,-2607.5 353.2,-2607.5 262.05,-1927.38 225.3,-1642.19"/>
<polygon fill="black" stroke="black" stroke-width="5" points="229.68,-1641.99 224.07,-1632.63 221,-1643.11 229.68,-1641.99"/>
</g>
<!-- AQR&#45;&gt;AIB -->
<g id="edge45" class="edge">
<title>AQR&#45;&gt;AIB</title>
<path fill="none" stroke="gray" stroke-width="0.2" d="M359.9,-2536.21C355.99,-2531.94 353.2,-2528.5 353.2,-2528.5 353.2,-2528.5 262.61,-1902.62 225.64,-1636.31"/>
<polygon fill="gray" stroke="gray" stroke-width="0.2" points="229.12,-1635.94 224.28,-1626.52 222.19,-1636.91 229.12,-1635.94"/>
</g>
<!-- ASE&#45;&gt;AIB -->
<g id="edge46" class="edge">
<title>ASE&#45;&gt;AIB</title>
<path fill="none" stroke="black" stroke-width="5" d="M360.85,-2458.23C356.44,-2453.5 353.2,-2449.5 353.2,-2449.5 353.2,-2449.5 265.96,-1894.9 227.76,-1641.86"/>
<polygon fill="black" stroke="black" stroke-width="5" points="232.12,-1641.4 226.3,-1632.17 223.46,-1642.71 232.12,-1641.4"/>
</g>
<!-- ASH&#45;&gt;AIB -->
<g id="edge47" class="edge">
<title>ASH&#45;&gt;AIB</title>
<path fill="none" stroke="black" stroke-width="5" d="M360.53,-2378.89C356.29,-2374.31 353.2,-2370.5 353.2,-2370.5 353.2,-2370.5 268.33,-1877.9 229.36,-1641.85"/>
<polygon fill="black" stroke="black" stroke-width="5" points="233.7,-1641.31 227.76,-1632.15 225.07,-1642.73 233.7,-1641.31"/>
</g>
<!-- ASK&#45;&gt;AIB -->
<g id="edge48" class="edge">
<title>ASK&#45;&gt;AIB</title>
<path fill="none" stroke="gray" stroke-width="5" d="M360.53,-2299.89C356.29,-2295.31 353.2,-2291.5 353.2,-2291.5 353.2,-2291.5 270.96,-1859.59 231.22,-1641.48"/>
<polygon fill="gray" stroke="gray" stroke-width="5" points="235.52,-1640.71 229.43,-1631.65 226.91,-1642.27 235.52,-1640.71"/>
</g>
<!-- AUA&#45;&gt;AIB -->
<g id="edge49" class="edge">
<title>AUA&#45;&gt;AIB</title>
<path fill="none" stroke="gray" stroke-width="0.2" d="M359.9,-2220.21C355.99,-2215.94 353.2,-2212.5 353.2,-2212.5 353.2,-2212.5 272.45,-1833.01 232.31,-1635.26"/>
<polygon fill="gray" stroke="gray" stroke-width="0.2" points="235.79,-1634.81 230.37,-1625.7 228.93,-1636.2 235.79,-1634.81"/>
</g>
<!-- AVB&#45;&gt;AIB -->
<g id="edge50" class="edge">
<title>AVB&#45;&gt;AIB</title>
<path fill="none" stroke="gray" stroke-width="0.2" d="M360.22,-2062.55C356.14,-2058.12 353.2,-2054.5 353.2,-2054.5 353.2,-2054.5 280,-1791.37 238.34,-1633.77"/>
<polygon fill="gray" stroke="gray" stroke-width="0.2" points="241.78,-1633.08 235.84,-1624.31 235.01,-1634.87 241.78,-1633.08"/>
</g>
<!-- AVK&#45;&gt;AIB -->
<g id="edge51" class="edge">
<title>AVK&#45;&gt;AIB</title>
<path fill="none" stroke="gray" stroke-width="2" d="M359.9,-1825.21C355.99,-1820.94 353.2,-1817.5 353.2,-1817.5 353.2,-1817.5 300.21,-1714.85 258.75,-1629.68"/>
<polygon fill="gray" stroke="gray" stroke-width="2" points="261.94,-1628.25 254.43,-1620.78 255.64,-1631.31 261.94,-1628.25"/>
</g>
<!-- AWC&#45;&gt;AIB -->
<g id="edge52" class="edge">
<title>AWC&#45;&gt;AIB</title>
<path fill="none" stroke="black" stroke-width="5" d="M359,-1745.21C355.56,-1741.42 353.2,-1738.5 353.2,-1738.5 353.2,-1738.5 312.1,-1681.59 273.97,-1625.48"/>
<polygon fill="black" stroke="black" stroke-width="5" points="277.59,-1623.03 268.37,-1617.19 270.34,-1627.93 277.59,-1623.03"/>
</g>
<!-- BAG&#45;&gt;AIB -->
<g id="edge53" class="edge">
<title>BAG&#45;&gt;AIB</title>
<path fill="none" stroke="gray" stroke-width="2" d="M360.54,-1666.62C342.34,-1653.46 316.3,-1631.41 291,-1608.2"/>
<polygon fill="gray" stroke="gray" stroke-width="2" points="293.66,-1605.89 283.94,-1601.67 288.9,-1611.03 293.66,-1605.89"/>
</g>
<!-- DVC&#45;&gt;AIB -->
<g id="edge54" class="edge">
<title>DVC&#45;&gt;AIB</title>
<path fill="none" stroke="black" stroke-width="5" d="M361.95,-1530.31C353.63,-1531.91 343.54,-1533.11 332.56,-1533.91"/>
<polygon fill="black" stroke="black" stroke-width="5" points="332.52,-1529.53 322.78,-1534.44 333,-1538.27 332.52,-1529.53"/>
</g>
<!-- FLP&#45;&gt;AIB -->
<g id="edge55" class="edge">
<title>FLP&#45;&gt;AIB</title>
<path fill="none" stroke="red" stroke-width="5" d="M371.08,-1455.4C360.54,-1463.15 344.87,-1472.26 327.38,-1481.23"/>
<polygon fill="red" stroke="red" stroke-width="5" points="325.62,-1477.22 318.62,-1485.59 329.52,-1485.06 325.62,-1477.22"/>
</g>
<!-- IL2&#45;&gt;AIB -->
<g id="edge56" class="edge">
<title>IL2&#45;&gt;AIB</title>
<path fill="none" stroke="gray" stroke-width="0.2" d="M374.92,-1377.92C360.77,-1395.73 333.29,-1423.3 304.77,-1449.5"/>
<polygon fill="gray" stroke="gray" stroke-width="0.2" points="302.76,-1446.6 297.73,-1455.92 307.47,-1451.77 302.76,-1446.6"/>
</g>
<!-- PVT&#45;&gt;AIB -->
<g id="edge57" class="edge">
<title>PVT&#45;&gt;AIB</title>
<path fill="none" stroke="gray" stroke-width="5" d="M380.14,-1300.05C371.35,-1320.53 353.2,-1343.5 353.2,-1343.5 353.2,-1343.5 323.94,-1383.81 291.9,-1425.97"/>
<polygon fill="gray" stroke="gray" stroke-width="5" points="288.5,-1423.21 285.91,-1433.81 295.45,-1428.52 288.5,-1423.21"/>
</g>
<!-- RIB&#45;&gt;AIB -->
<g id="edge58" class="edge">
<title>RIB&#45;&gt;AIB</title>
<path fill="none" stroke="red" stroke-width="5" d="M380.14,-1142.05C371.35,-1162.53 353.2,-1185.5 353.2,-1185.5 353.2,-1185.5 303.14,-1309.79 262.25,-1406.83"/>
<polygon fill="red" stroke="red" stroke-width="5" points="258.33,-1404.88 258.47,-1415.79 266.39,-1408.28 258.33,-1404.88"/>
</g>
<!-- RIC&#45;&gt;AIB -->
<g id="edge59" class="edge">
<title>RIC&#45;&gt;AIB</title>
<path fill="none" stroke="red" stroke-width="5" d="M380.14,-1063.05C371.35,-1083.53 353.2,-1106.5 353.2,-1106.5 353.2,-1106.5 295.77,-1280.8 253.7,-1403.01"/>
<polygon fill="red" stroke="red" stroke-width="5" points="249.69,-1401.23 250.56,-1412.11 257.96,-1404.09 249.69,-1401.23"/>
</g>
<!-- RIF&#45;&gt;AIB -->
<g id="edge60" class="edge">
<title>RIF&#45;&gt;AIB</title>
<path fill="none" stroke="gray" stroke-width="0.2" d="M380.14,-984.05C371.35,-1004.53 353.2,-1027.5 353.2,-1027.5 353.2,-1027.5 288.15,-1260.85 245.8,-1406.19"/>
<polygon fill="gray" stroke="gray" stroke-width="0.2" points="242.45,-1405.2 243,-1415.78 249.17,-1407.16 242.45,-1405.2"/>
</g>
<!-- RIG&#45;&gt;AIB -->
<g id="edge61" class="edge">
<title>RIG&#45;&gt;AIB</title>
<path fill="none" stroke="black" stroke-width="5" d="M380.14,-905.05C371.35,-925.53 353.2,-948.5 353.2,-948.5 353.2,-948.5 284.84,-1231.52 242.65,-1399.08"/>
<polygon fill="black" stroke="black" stroke-width="5" points="238.44,-1397.86 240.24,-1408.62 246.93,-1400 238.44,-1397.86"/>
</g>
<!-- RIM&#45;&gt;AIB -->
<g id="edge62" class="edge">
<title>RIM&#45;&gt;AIB</title>
<path fill="none" stroke="black" stroke-width="5" d="M380.14,-826.05C371.35,-846.53 353.2,-869.5 353.2,-869.5 353.2,-869.5 280.6,-1210.15 238.86,-1398.24"/>
<polygon fill="black" stroke="black" stroke-width="5" points="234.61,-1397.2 236.71,-1407.92 243.15,-1399.1 234.61,-1397.2"/>
</g>
<!-- RMF&#45;&gt;AIB -->
<g id="edge63" class="edge">
<title>RMF&#45;&gt;AIB</title>
<path fill="none" stroke="gray" stroke-width="0.2" d="M380.14,-668.05C371.35,-688.53 353.2,-711.5 353.2,-711.5 353.2,-711.5 272.54,-1179.11 232.38,-1402.83"/>
<polygon fill="gray" stroke="gray" stroke-width="0.2" points="228.99,-1401.89 230.67,-1412.35 235.88,-1403.12 228.99,-1401.89"/>
</g>
<!-- RMH&#45;&gt;AIB -->
<g id="edge64" class="edge">
<title>RMH&#45;&gt;AIB</title>
<path fill="none" stroke="gray" stroke-width="0.2" d="M380.14,-588.9C371.35,-609.1 353.2,-631.5 353.2,-631.5 353.2,-631.5 269.77,-1161.84 230.36,-1402.76"/>
<polygon fill="gray" stroke="gray" stroke-width="0.2" points="226.96,-1401.88 228.8,-1412.31 233.87,-1403.01 226.96,-1401.88"/>
</g>
<!-- SAA&#45;&gt;AIB -->
<g id="edge65" class="edge">
<title>SAA&#45;&gt;AIB</title>
<path fill="none" stroke="red" stroke-width="2" d="M380.14,-509.9C371.35,-530.1 353.2,-552.5 353.2,-552.5 353.2,-552.5 268.06,-1140.79 229.17,-1399.59"/>
<polygon fill="red" stroke="red" stroke-width="2" points="225.72,-1399 227.69,-1409.41 232.64,-1400.05 225.72,-1399"/>
</g>
<!-- SMD&#45;&gt;AIB -->
<g id="edge66" class="edge">
<title>SMD&#45;&gt;AIB</title>
<path fill="none" stroke="gray" stroke-width="0.2" d="M380.14,-272.9C371.35,-293.1 353.2,-315.5 353.2,-315.5 353.2,-315.5 261.79,-1098.55 225.14,-1401.54"/>
<polygon fill="gray" stroke="gray" stroke-width="0.2" points="221.68,-1401.03 223.95,-1411.37 228.63,-1401.87 221.68,-1401.03"/>
</g>
<!-- URY&#45;&gt;AIB -->
<g id="edge67" class="edge">
<title>URY&#45;&gt;AIB</title>
<path fill="none" stroke="gray" stroke-width="2" d="M380.14,-114.9C371.35,-135.1 353.2,-157.5 353.2,-157.5 353.2,-157.5 259.24,-1066.28 223.65,-1399.03"/>
<polygon fill="gray" stroke="gray" stroke-width="2" points="220.21,-1398.26 222.62,-1408.57 227.17,-1399 220.21,-1398.26"/>
</g>
<!-- VBn&#45;&gt;AIB -->
<g id="edge68" class="edge">
<title>VBn&#45;&gt;AIB</title>
<path fill="none" stroke="gray" stroke-width="0.2" d="M380.14,-35.9C371.35,-56.1 353.2,-78.5 353.2,-78.5 353.2,-78.5 257.48,-1057.1 222.67,-1401.26"/>
<polygon fill="gray" stroke="gray" stroke-width="0.2" points="219.19,-1400.9 221.66,-1411.2 226.15,-1401.6 219.19,-1400.9"/>
</g>
<!-- ADF -->
<g id="node40" class="node">
<title>ADF</title>
<ellipse fill="none" stroke="black" cx="32.6" cy="-2388" rx="29.11" ry="18"/>
<text text-anchor="middle" x="32.6" y="-2382.57" font-family="Times New Roman,serif" font-size="14.00">ADF</text>
</g>
<!-- ADF&#45;&gt;AIB -->
<g id="edge69" class="edge">
<title>ADF&#45;&gt;AIB</title>
<path fill="none" stroke="red" stroke-width="0.2" d="M46.45,-2372.14C55.2,-2361.34 65.2,-2349 65.2,-2349 65.2,-2349 148.78,-1863.88 188.15,-1635.4"/>
<polygon fill="red" stroke="red" stroke-width="0.2" points="191.57,-1636.13 189.82,-1625.68 184.67,-1634.94 191.57,-1636.13"/>
</g>
<!-- AFD -->
<g id="node41" class="node">
<title>AFD</title>
<ellipse fill="none" stroke="black" cx="32.6" cy="-2309" rx="29.11" ry="18"/>
<text text-anchor="middle" x="32.6" y="-2303.57" font-family="Times New Roman,serif" font-size="14.00">AFD</text>
</g>
<!-- AFD&#45;&gt;AIB -->
<g id="edge70" class="edge">
<title>AFD&#45;&gt;AIB</title>
<path fill="none" stroke="gray" stroke-width="2" d="M46.45,-2293.14C55.2,-2282.34 65.2,-2270 65.2,-2270 65.2,-2270 145.29,-1849.38 185.6,-1637.71"/>
<polygon fill="gray" stroke="gray" stroke-width="2" points="189.02,-1638.46 187.45,-1627.98 182.14,-1637.15 189.02,-1638.46"/>
</g>
<!-- AIM -->
<g id="node42" class="node">
<title>AIM</title>
<ellipse fill="none" stroke="black" cx="32.6" cy="-2230" rx="28.11" ry="18"/>
<text text-anchor="middle" x="32.6" y="-2224.57" font-family="Times New Roman,serif" font-size="14.00">AIM</text>
</g>
<!-- AIM&#45;&gt;AIB -->
<g id="edge71" class="edge">
<title>AIM&#45;&gt;AIB</title>
<path fill="none" stroke="blue" stroke-width="2" d="M46.45,-2214.14C55.2,-2203.34 65.2,-2191 65.2,-2191 65.2,-2191 141.94,-1830.37 182.99,-1637.48"/>
<polygon fill="blue" stroke="blue" stroke-width="2" points="186.41,-1638.21 185.07,-1627.7 179.57,-1636.75 186.41,-1638.21"/>
</g>
<!-- AIN -->
<g id="node43" class="node">
<title>AIN</title>
<ellipse fill="none" stroke="black" cx="32.6" cy="-2151" rx="27" ry="18"/>
<text text-anchor="middle" x="32.6" y="-2145.57" font-family="Times New Roman,serif" font-size="14.00">AIN</text>
</g>
<!-- AIN&#45;&gt;AIB -->
<g id="edge72" class="edge">
<title>AIN&#45;&gt;AIB</title>
<path fill="none" stroke="black" stroke-width="5" d="M46.45,-2135.14C55.2,-2124.34 65.2,-2112 65.2,-2112 65.2,-2112 137.32,-1812.96 179.12,-1639.59"/>
<polygon fill="black" stroke="black" stroke-width="5" points="183.33,-1640.8 181.42,-1630.06 174.82,-1638.75 183.33,-1640.8"/>
</g>
<!-- ALN -->
<g id="node44" class="node">
<title>ALN</title>
<ellipse fill="none" stroke="black" cx="32.6" cy="-2072" rx="29.11" ry="18"/>
<text text-anchor="middle" x="32.6" y="-2066.57" font-family="Times New Roman,serif" font-size="14.00">ALN</text>
</g>
<!-- ALN&#45;&gt;AIB -->
<g id="edge73" class="edge">
<title>ALN&#45;&gt;AIB</title>
<path fill="none" stroke="gray" stroke-width="0.2" d="M46.45,-2056.14C55.2,-2045.34 65.2,-2033 65.2,-2033 65.2,-2033 134.41,-1784.25 176.53,-1632.84"/>
<polygon fill="gray" stroke="gray" stroke-width="0.2" points="179.87,-1633.88 179.18,-1623.31 173.13,-1632 179.87,-1633.88"/>
</g>
<!-- ASG -->
<g id="node45" class="node">
<title>ASG</title>
<ellipse fill="none" stroke="black" cx="32.6" cy="-1993" rx="29.61" ry="18"/>
<text text-anchor="middle" x="32.6" y="-1987.58" font-family="Times New Roman,serif" font-size="14.00">ASG</text>
</g>
<!-- ASG&#45;&gt;AIB -->
<g id="edge74" class="edge">
<title>ASG&#45;&gt;AIB</title>
<path fill="none" stroke="gray" stroke-width="2" d="M46.45,-1977.14C55.2,-1966.34 65.2,-1954 65.2,-1954 65.2,-1954 128.09,-1762.69 170.46,-1633.81"/>
<polygon fill="gray" stroke="gray" stroke-width="2" points="173.75,-1635.01 173.55,-1624.41 167.1,-1632.82 173.75,-1635.01"/>
</g>
<!-- ASI -->
<g id="node46" class="node">
<title>ASI</title>
<ellipse fill="none" stroke="black" cx="32.6" cy="-1914" rx="27" ry="18"/>
<text text-anchor="middle" x="32.6" y="-1908.58" font-family="Times New Roman,serif" font-size="14.00">ASI</text>
</g>
<!-- ASI&#45;&gt;AIB -->
<g id="edge75" class="edge">
<title>ASI&#45;&gt;AIB</title>
<path fill="none" stroke="black" stroke-width="5" d="M46.45,-1898.14C55.2,-1887.34 65.2,-1875 65.2,-1875 65.2,-1875 120.27,-1737.92 162.06,-1633.88"/>
<polygon fill="black" stroke="black" stroke-width="5" points="166,-1635.81 165.66,-1624.9 157.88,-1632.55 166,-1635.81"/>
</g>
<!-- ASJ -->
<g id="node47" class="node">
<title>ASJ</title>
<ellipse fill="none" stroke="black" cx="32.6" cy="-1835" rx="27" ry="18"/>
<text text-anchor="middle" x="32.6" y="-1829.58" font-family="Times New Roman,serif" font-size="14.00">ASJ</text>
</g>
<!-- ASJ&#45;&gt;AIB -->
<g id="edge76" class="edge">
<title>ASJ&#45;&gt;AIB</title>
<path fill="none" stroke="gray" stroke-width="nan" d="M46.45,-1819.14C55.2,-1808.34 65.2,-1796 65.2,-1796 65.2,-1796 117.46,-1694.78 158.79,-1614.72"/>
<polygon fill="gray" stroke="gray" stroke-width="nan" points="nan,-nan nan,-nan nan,-nan nan,-nan"/>
</g>
<!-- AVH -->
<g id="node48" class="node">
<title>AVH</title>
<ellipse fill="none" stroke="black" cx="32.6" cy="-1756" rx="30.11" ry="18"/>
<text text-anchor="middle" x="32.6" y="-1750.58" font-family="Times New Roman,serif" font-size="14.00">AVH</text>
</g>
<!-- AVH&#45;&gt;AIB -->
<g id="edge77" class="edge">
<title>AVH&#45;&gt;AIB</title>
<path fill="none" stroke="gray" stroke-width="0.2" d="M46.82,-1739.69C55.48,-1729 65.2,-1717 65.2,-1717 65.2,-1717 102.64,-1665.16 139.21,-1614.53"/>
<polygon fill="gray" stroke="gray" stroke-width="0.2" points="141.87,-1616.82 144.89,-1606.67 136.19,-1612.73 141.87,-1616.82"/>
</g>
<!-- AWA -->
<g id="node49" class="node">
<title>AWA</title>
<ellipse fill="none" stroke="black" cx="32.6" cy="-1677" rx="32.6" ry="18"/>
<text text-anchor="middle" x="32.6" y="-1671.58" font-family="Times New Roman,serif" font-size="14.00">AWA</text>
</g>
<!-- AWA&#45;&gt;AIB -->
<g id="edge78" class="edge">
<title>AWA&#45;&gt;AIB</title>
<path fill="none" stroke="gray" stroke-width="5" d="M50.66,-1661.56C66.44,-1647.28 91.2,-1624.87 116.47,-1602.01"/>
<polygon fill="gray" stroke="gray" stroke-width="5" points="119.37,-1605.29 123.85,-1595.34 113.5,-1598.8 119.37,-1605.29"/>
</g>
<!-- AWB -->
<g id="node50" class="node">
<title>AWB</title>
<ellipse fill="none" stroke="black" cx="32.6" cy="-1598" rx="32.1" ry="18"/>
<text text-anchor="middle" x="32.6" y="-1592.58" font-family="Times New Roman,serif" font-size="14.00">AWB</text>
</g>
<!-- AWB&#45;&gt;AIB -->
<g id="edge79" class="edge">
<title>AWB&#45;&gt;AIB</title>
<path fill="none" stroke="gray" stroke-width="5" d="M58.25,-1586.85C68.82,-1582.06 81.99,-1576.11 96.1,-1569.72"/>
<polygon fill="gray" stroke="gray" stroke-width="5" points="97.47,-1573.9 104.78,-1565.79 93.87,-1565.93 97.47,-1573.9"/>
</g>
<!-- HSN -->
<g id="node51" class="node">
<title>HSN</title>
<ellipse fill="none" stroke="black" cx="32.6" cy="-1519" rx="29.11" ry="18"/>
<text text-anchor="middle" x="32.6" y="-1513.58" font-family="Times New Roman,serif" font-size="14.00">HSN</text>
</g>
<!-- HSN&#45;&gt;AIB -->
<g id="edge80" class="edge">
<title>HSN&#45;&gt;AIB</title>
<path fill="none" stroke="gray" stroke-width="5" d="M62.04,-1519C68.9,-1519 76.67,-1519 84.96,-1519"/>
<polygon fill="gray" stroke="gray" stroke-width="5" points="84.66,-1523.38 94.66,-1519 84.66,-1514.63 84.66,-1523.38"/>
</g>
<!-- IL1 -->
<g id="node52" class="node">
<title>IL1</title>
<ellipse fill="none" stroke="black" cx="32.6" cy="-1440" rx="27" ry="18"/>
<text text-anchor="middle" x="32.6" y="-1434.58" font-family="Times New Roman,serif" font-size="14.00">IL1</text>
</g>
<!-- IL1&#45;&gt;AIB -->
<g id="edge81" class="edge">
<title>IL1&#45;&gt;AIB</title>
<path fill="none" stroke="gray" stroke-width="0.2" d="M55.71,-1450.01C67.9,-1455.52 84.03,-1462.82 101.24,-1470.6"/>
<polygon fill="gray" stroke="gray" stroke-width="0.2" points="99.49,-1473.65 110.04,-1474.59 102.37,-1467.28 99.49,-1473.65"/>
</g>
<!-- PLN -->
<g id="node53" class="node">
<title>PLN</title>
<ellipse fill="none" stroke="black" cx="32.6" cy="-1361" rx="28.11" ry="18"/>
<text text-anchor="middle" x="32.6" y="-1355.58" font-family="Times New Roman,serif" font-size="14.00">PLN</text>
</g>
<!-- PLN&#45;&gt;AIB -->
<g id="edge82" class="edge">
<title>PLN&#45;&gt;AIB</title>
<path fill="none" stroke="blue" stroke-width="2" d="M49.71,-1375.58C65.95,-1390.27 92.35,-1414.16 118.99,-1438.27"/>
<polygon fill="blue" stroke="blue" stroke-width="2" points="116.4,-1440.65 126.16,-1444.76 121.1,-1435.46 116.4,-1440.65"/>
</g>
<!-- PVN -->
<g id="node54" class="node">
<title>PVN</title>
<ellipse fill="none" stroke="black" cx="32.6" cy="-1282" rx="29.11" ry="18"/>
<text text-anchor="middle" x="32.6" y="-1276.58" font-family="Times New Roman,serif" font-size="14.00">PVN</text>
</g>
<!-- PVN&#45;&gt;AIB -->
<g id="edge83" class="edge">
<title>PVN&#45;&gt;AIB</title>
<path fill="none" stroke="blue" stroke-width="5" d="M46.45,-1298.27C55.2,-1309.34 65.2,-1322 65.2,-1322 65.2,-1322 100.09,-1370.06 135.4,-1418.71"/>
<polygon fill="blue" stroke="blue" stroke-width="5" points="131.78,-1421.16 141.19,-1426.69 138.86,-1416.02 131.78,-1421.16"/>
</g>
<!-- PVP -->
<g id="node55" class="node">
<title>PVP</title>
<ellipse fill="none" stroke="black" cx="32.6" cy="-1203" rx="28.11" ry="18"/>
<text text-anchor="middle" x="32.6" y="-1197.58" font-family="Times New Roman,serif" font-size="14.00">PVP</text>
</g>
<!-- PVP&#45;&gt;AIB -->
<g id="edge84" class="edge">
<title>PVP&#45;&gt;AIB</title>
<path fill="none" stroke="gray" stroke-width="2" d="M46.09,-1218.81C54.92,-1229.99 65.2,-1243 65.2,-1243 65.2,-1243 112.52,-1334.32 152.72,-1411.91"/>
<polygon fill="gray" stroke="gray" stroke-width="2" points="149.49,-1413.29 157.2,-1420.56 155.7,-1410.07 149.49,-1413.29"/>
</g>
<!-- PVQ -->
<g id="node56" class="node">
<title>PVQ</title>
<ellipse fill="none" stroke="black" cx="32.6" cy="-1124" rx="29.61" ry="18"/>
<text text-anchor="middle" x="32.6" y="-1118.58" font-family="Times New Roman,serif" font-size="14.00">PVQ</text>
</g>
<!-- PVQ&#45;&gt;AIB -->
<g id="edge85" class="edge">
<title>PVQ&#45;&gt;AIB</title>
<path fill="none" stroke="blue" stroke-width="5" d="M46.45,-1140.27C55.2,-1151.34 65.2,-1164 65.2,-1164 65.2,-1164 120.15,-1300.42 161.93,-1404.12"/>
<polygon fill="blue" stroke="blue" stroke-width="5" points="157.86,-1405.74 165.66,-1413.38 165.98,-1402.47 157.86,-1405.74"/>
</g>
<!-- RIH -->
<g id="node57" class="node">
<title>RIH</title>
<ellipse fill="none" stroke="black" cx="32.6" cy="-1045" rx="27" ry="18"/>
<text text-anchor="middle" x="32.6" y="-1039.58" font-family="Times New Roman,serif" font-size="14.00">RIH</text>
</g>
<!-- RIH&#45;&gt;AIB -->
<g id="edge86" class="edge">
<title>RIH&#45;&gt;AIB</title>
<path fill="none" stroke="gray" stroke-width="0.2" d="M46.09,-1060.81C54.92,-1071.99 65.2,-1085 65.2,-1085 65.2,-1085 128.89,-1278.3 171.26,-1406.89"/>
<polygon fill="gray" stroke="gray" stroke-width="0.2" points="167.86,-1407.73 174.31,-1416.14 174.5,-1405.54 167.86,-1407.73"/>
</g>
<!-- RIR -->
<g id="node58" class="node">
<title>RIR</title>
<ellipse fill="none" stroke="black" cx="32.6" cy="-966" rx="27" ry="18"/>
<text text-anchor="middle" x="32.6" y="-960.58" font-family="Times New Roman,serif" font-size="14.00">RIR</text>
</g>
<!-- RIR&#45;&gt;AIB -->
<g id="edge87" class="edge">
<title>RIR&#45;&gt;AIB</title>
<path fill="none" stroke="gray" stroke-width="0.2" d="M46.09,-981.81C54.92,-992.99 65.2,-1006 65.2,-1006 65.2,-1006 134.31,-1253.92 176.44,-1405.07"/>
<polygon fill="gray" stroke="gray" stroke-width="0.2" points="173.04,-1405.89 179.1,-1414.59 179.78,-1404.01 173.04,-1405.89"/>
</g>
<!-- RIS -->
<g id="node59" class="node">
<title>RIS</title>
<ellipse fill="none" stroke="black" cx="32.6" cy="-887" rx="27" ry="18"/>
<text text-anchor="middle" x="32.6" y="-881.58" font-family="Times New Roman,serif" font-size="14.00">RIS</text>
</g>
<!-- RIS&#45;&gt;AIB -->
<g id="edge88" class="edge">
<title>RIS&#45;&gt;AIB</title>
<path fill="none" stroke="gray" stroke-width="2" d="M46.09,-902.81C54.92,-913.99 65.2,-927 65.2,-927 65.2,-927 138.09,-1228.75 179.79,-1401.39"/>
<polygon fill="gray" stroke="gray" stroke-width="2" points="176.34,-1402 182.09,-1410.9 183.14,-1400.36 176.34,-1402"/>
</g>
<!-- RMG -->
<g id="node60" class="node">
<title>RMG</title>
<ellipse fill="none" stroke="black" cx="32.6" cy="-808" rx="32.1" ry="18"/>
<text text-anchor="middle" x="32.6" y="-802.58" font-family="Times New Roman,serif" font-size="14.00">RMG</text>
</g>
<!-- RMG&#45;&gt;AIB -->
<g id="edge89" class="edge">
<title>RMG&#45;&gt;AIB</title>
<path fill="none" stroke="gray" stroke-width="0.2" d="M46.45,-824.27C55.2,-835.34 65.2,-848 65.2,-848 65.2,-848 142.71,-1211.7 183.6,-1403.57"/>
<polygon fill="gray" stroke="gray" stroke-width="0.2" points="180.13,-1404.07 185.64,-1413.12 186.98,-1402.61 180.13,-1404.07"/>
</g>
<!-- SDQ -->
<g id="node61" class="node">
<title>SDQ</title>
<ellipse fill="none" stroke="black" cx="32.6" cy="-729" rx="29.61" ry="18"/>
<text text-anchor="middle" x="32.6" y="-723.58" font-family="Times New Roman,serif" font-size="14.00">SDQ</text>
</g>
<!-- SDQ&#45;&gt;AIB -->
<g id="edge90" class="edge">
<title>SDQ&#45;&gt;AIB</title>
<path fill="none" stroke="black" stroke-width="5" d="M46.45,-745.27C55.2,-756.34 65.2,-769 65.2,-769 65.2,-769 144.4,-1184.35 184.91,-1396.86"/>
<polygon fill="black" stroke="black" stroke-width="5" points="180.6,-1397.61 186.77,-1406.61 189.2,-1395.97 180.6,-1397.61"/>
</g>
<!-- URX -->
<g id="node62" class="node">
<title>URX</title>
<ellipse fill="none" stroke="black" cx="32.6" cy="-650" rx="30.11" ry="18"/>
<text text-anchor="middle" x="32.6" y="-644.58" font-family="Times New Roman,serif" font-size="14.00">URX</text>
</g>
<!-- URX&#45;&gt;AIB -->
<g id="edge91" class="edge">
<title>URX&#45;&gt;AIB</title>
<path fill="none" stroke="gray" stroke-width="0.2" d="M46.45,-666.27C55.2,-677.34 65.2,-690 65.2,-690 65.2,-690 148.68,-1173.92 188.07,-1402.31"/>
<polygon fill="gray" stroke="gray" stroke-width="0.2" points="184.6,-1402.76 189.75,-1412.02 191.5,-1401.57 184.6,-1402.76"/>
</g>
</g>
</svg>
