<?xml version="1.0" encoding="UTF-8" standalone="no"?>
<!DOCTYPE svg PUBLIC "-//W3C//DTD SVG 1.1//EN"
 "http://www.w3.org/Graphics/SVG/1.1/DTD/svg11.dtd">
<!-- Generated by graphviz version 11.0.0 (20240428.1522)
 -->
<!-- Pages: 1 -->
<svg width="425pt" height="2809pt"
 viewBox="0.00 0.00 425.41 2809.00" xmlns="http://www.w3.org/2000/svg" xmlns:xlink="http://www.w3.org/1999/xlink">
<g id="graph0" class="graph" transform="scale(1 1) rotate(0) translate(4 2805)">
<polygon fill="white" stroke="none" points="-4,4 -4,-2805 421.41,-2805 421.41,4 -4,4"/>
<!-- AIM -->
<g id="node1" class="node">
<title>AIM</title>
<ellipse fill="none" stroke="black" cx="209.2" cy="-1440" rx="108" ry="108"/>
<text text-anchor="middle" x="209.2" y="-1421" font-family="Times New Roman,serif" font-size="50.00">AIM</text>
</g>
<!-- AIM&#45;&gt;AIM -->
<g id="edge1" class="edge">
<title>AIM&#45;&gt;AIM</title>
<path fill="none" stroke="red" stroke-width="0.2" d="M176.5,-1543.39C178.44,-1570.51 189.34,-1591 209.2,-1591 226.5,-1591 237.01,-1575.45 240.71,-1553.52"/>
<polygon fill="red" stroke="red" stroke-width="0.2" points="244.17,-1554.04 241.87,-1543.69 237.22,-1553.21 244.17,-1554.04"/>
</g>
<!-- ADA -->
<g id="node2" class="node">
<title>ADA</title>
<ellipse fill="none" stroke="black" cx="385.3" cy="-2783" rx="30.11" ry="18"/>
<text text-anchor="middle" x="385.3" y="-2777.57" font-family="Times New Roman,serif" font-size="14.00">ADA</text>
</g>
<!-- AIM&#45;&gt;ADA -->
<g id="edge2" class="edge">
<title>AIM&#45;&gt;ADA</title>
<path fill="none" stroke="gray" stroke-width="0.2" d="M222,-1547.54C256.23,-1859.72 353.2,-2744 353.2,-2744 353.2,-2744 358.58,-2750.75 364.87,-2758.63"/>
<polygon fill="gray" stroke="gray" stroke-width="0.2" points="362.13,-2760.81 371.11,-2766.45 367.61,-2756.45 362.13,-2760.81"/>
</g>
<!-- ADF -->
<g id="node3" class="node">
<title>ADF</title>
<ellipse fill="none" stroke="black" cx="385.3" cy="-2704" rx="29.11" ry="18"/>
<text text-anchor="middle" x="385.3" y="-2698.57" font-family="Times New Roman,serif" font-size="14.00">ADF</text>
</g>
<!-- AIM&#45;&gt;ADF -->
<g id="edge3" class="edge">
<title>AIM&#45;&gt;ADF</title>
<path fill="none" stroke="gray" stroke-width="0.2" d="M222.77,-1547.64C257.66,-1846.56 353.2,-2665 353.2,-2665 353.2,-2665 358.85,-2672.09 365.34,-2680.22"/>
<polygon fill="gray" stroke="gray" stroke-width="0.2" points="362.49,-2682.26 371.47,-2687.9 367.97,-2677.9 362.49,-2682.26"/>
</g>
<!-- ADL -->
<g id="node4" class="node">
<title>ADL</title>
<ellipse fill="none" stroke="black" cx="385.3" cy="-2625" rx="29.11" ry="18"/>
<text text-anchor="middle" x="385.3" y="-2619.57" font-family="Times New Roman,serif" font-size="14.00">ADL</text>
</g>
<!-- AIM&#45;&gt;ADL -->
<g id="edge4" class="edge">
<title>AIM&#45;&gt;ADL</title>
<path fill="none" stroke="gray" stroke-width="0.2" d="M224.9,-1547.35C261.39,-1828.73 353.2,-2564.5 353.2,-2564.5 353.2,-2564.5 366.15,-2580.74 375.34,-2598.04"/>
<polygon fill="gray" stroke="gray" stroke-width="0.2" points="372.09,-2599.34 379.58,-2606.83 378.39,-2596.3 372.09,-2599.34"/>
</g>
<!-- AIA -->
<g id="node5" class="node">
<title>AIA</title>
<ellipse fill="none" stroke="black" cx="385.3" cy="-2546" rx="27" ry="18"/>
<text text-anchor="middle" x="385.3" y="-2540.57" font-family="Times New Roman,serif" font-size="14.00">AIA</text>
</g>
<!-- AIM&#45;&gt;AIA -->
<g id="edge5" class="edge">
<title>AIM&#45;&gt;AIA</title>
<path fill="none" stroke="red" stroke-width="5" d="M225.98,-1546.99C263.17,-1813.74 353.2,-2485.5 353.2,-2485.5 353.2,-2485.5 363.67,-2498.63 372.46,-2513.85"/>
<polygon fill="red" stroke="red" stroke-width="5" points="368.45,-2515.62 376.89,-2522.54 376.25,-2511.65 368.45,-2515.62"/>
</g>
<!-- AIB -->
<g id="node6" class="node">
<title>AIB</title>
<ellipse fill="none" stroke="black" cx="385.3" cy="-2467" rx="27" ry="18"/>
<text text-anchor="middle" x="385.3" y="-2461.57" font-family="Times New Roman,serif" font-size="14.00">AIB</text>
</g>
<!-- AIM&#45;&gt;AIB -->
<g id="edge6" class="edge">
<title>AIM&#45;&gt;AIB</title>
<path fill="none" stroke="blue" stroke-width="2" d="M225.71,-1547.14C262.73,-1802.91 353.2,-2428 353.2,-2428 353.2,-2428 357.85,-2433.83 363.56,-2440.99"/>
<polygon fill="blue" stroke="blue" stroke-width="2" points="360.79,-2443.13 369.77,-2448.77 366.27,-2438.77 360.79,-2443.13"/>
</g>
<!-- AIY -->
<g id="node7" class="node">
<title>AIY</title>
<ellipse fill="none" stroke="black" cx="385.3" cy="-2388" rx="27" ry="18"/>
<text text-anchor="middle" x="385.3" y="-2382.57" font-family="Times New Roman,serif" font-size="14.00">AIY</text>
</g>
<!-- AIM&#45;&gt;AIY -->
<g id="edge7" class="edge">
<title>AIM&#45;&gt;AIY</title>
<path fill="none" stroke="gray" stroke-width="0.2" d="M227.03,-1546.95C264.83,-1787.23 353.2,-2349 353.2,-2349 353.2,-2349 358.85,-2356.09 365.34,-2364.22"/>
<polygon fill="gray" stroke="gray" stroke-width="0.2" points="362.49,-2366.26 371.47,-2371.9 367.97,-2361.9 362.49,-2366.26"/>
</g>
<!-- AIZ -->
<g id="node8" class="node">
<title>AIZ</title>
<ellipse fill="none" stroke="black" cx="385.3" cy="-2309" rx="27" ry="18"/>
<text text-anchor="middle" x="385.3" y="-2303.57" font-family="Times New Roman,serif" font-size="14.00">AIZ</text>
</g>
<!-- AIM&#45;&gt;AIZ -->
<g id="edge8" class="edge">
<title>AIM&#45;&gt;AIZ</title>
<path fill="none" stroke="gray" stroke-width="0.2" d="M228.53,-1546.39C267.12,-1770.35 353.2,-2270 353.2,-2270 353.2,-2270 358.85,-2277.09 365.34,-2285.22"/>
<polygon fill="gray" stroke="gray" stroke-width="0.2" points="362.49,-2287.26 371.47,-2292.9 367.97,-2282.9 362.49,-2287.26"/>
</g>
<!-- ALA -->
<g id="node9" class="node">
<title>ALA</title>
<ellipse fill="none" stroke="black" cx="385.3" cy="-2230" rx="29.11" ry="18"/>
<text text-anchor="middle" x="385.3" y="-2224.57" font-family="Times New Roman,serif" font-size="14.00">ALA</text>
</g>
<!-- AIM&#45;&gt;ALA -->
<g id="edge9" class="edge">
<title>AIM&#45;&gt;ALA</title>
<path fill="none" stroke="gray" stroke-width="0.2" d="M232.7,-1545.7C272.97,-1748.16 353.2,-2169.5 353.2,-2169.5 353.2,-2169.5 366.15,-2185.74 375.34,-2203.04"/>
<polygon fill="gray" stroke="gray" stroke-width="0.2" points="372.09,-2204.34 379.58,-2211.83 378.39,-2201.3 372.09,-2204.34"/>
</g>
<!-- ALM -->
<g id="node10" class="node">
<title>ALM</title>
<ellipse fill="none" stroke="black" cx="385.3" cy="-2151" rx="30.61" ry="18"/>
<text text-anchor="middle" x="385.3" y="-2145.57" font-family="Times New Roman,serif" font-size="14.00">ALM</text>
</g>
<!-- AIM&#45;&gt;ALM -->
<g id="edge10" class="edge">
<title>AIM&#45;&gt;ALM</title>
<path fill="none" stroke="red" stroke-width="2" d="M235.36,-1545.17C276.39,-1729.53 353.2,-2090.5 353.2,-2090.5 353.2,-2090.5 364.99,-2105.29 374.06,-2121.67"/>
<polygon fill="red" stroke="red" stroke-width="2" points="370.8,-2122.98 378.37,-2130.39 377.07,-2119.87 370.8,-2122.98"/>
</g>
<!-- ASG -->
<g id="node11" class="node">
<title>ASG</title>
<ellipse fill="none" stroke="black" cx="385.3" cy="-2072" rx="29.61" ry="18"/>
<text text-anchor="middle" x="385.3" y="-2066.57" font-family="Times New Roman,serif" font-size="14.00">ASG</text>
</g>
<!-- AIM&#45;&gt;ASG -->
<g id="edge11" class="edge">
<title>AIM&#45;&gt;ASG</title>
<path fill="none" stroke="red" stroke-width="5" d="M238.63,-1544.19C280.33,-1709.3 353.2,-2011.5 353.2,-2011.5 353.2,-2011.5 363.67,-2024.63 372.46,-2039.85"/>
<polygon fill="red" stroke="red" stroke-width="5" points="368.45,-2041.62 376.89,-2048.54 376.25,-2037.65 368.45,-2041.62"/>
</g>
<!-- ASH -->
<g id="node12" class="node">
<title>ASH</title>
<ellipse fill="none" stroke="black" cx="385.3" cy="-1993" rx="29.11" ry="18"/>
<text text-anchor="middle" x="385.3" y="-1987.58" font-family="Times New Roman,serif" font-size="14.00">ASH</text>
</g>
<!-- AIM&#45;&gt;ASH -->
<g id="edge12" class="edge">
<title>AIM&#45;&gt;ASH</title>
<path fill="none" stroke="gray" stroke-width="2" d="M242.83,-1542.85C285.03,-1687.48 353.2,-1932.5 353.2,-1932.5 353.2,-1932.5 364.99,-1947.29 374.06,-1963.67"/>
<polygon fill="gray" stroke="gray" stroke-width="2" points="370.8,-1964.98 378.37,-1972.39 377.07,-1961.87 370.8,-1964.98"/>
</g>
<!-- ASJ -->
<g id="node13" class="node">
<title>ASJ</title>
<ellipse fill="none" stroke="black" cx="385.3" cy="-1914" rx="27" ry="18"/>
<text text-anchor="middle" x="385.3" y="-1908.58" font-family="Times New Roman,serif" font-size="14.00">ASJ</text>
</g>
<!-- AIM&#45;&gt;ASJ -->
<g id="edge13" class="edge">
<title>AIM&#45;&gt;ASJ</title>
<path fill="none" stroke="gray" stroke-width="2" d="M248.43,-1540.99C290.79,-1663.64 353.2,-1853.5 353.2,-1853.5 353.2,-1853.5 364.99,-1868.29 374.06,-1884.67"/>
<polygon fill="gray" stroke="gray" stroke-width="2" points="370.8,-1885.98 378.37,-1893.39 377.07,-1882.87 370.8,-1885.98"/>
</g>
<!-- ASK -->
<g id="node14" class="node">
<title>ASK</title>
<ellipse fill="none" stroke="black" cx="385.3" cy="-1835" rx="29.11" ry="18"/>
<text text-anchor="middle" x="385.3" y="-1829.58" font-family="Times New Roman,serif" font-size="14.00">ASK</text>
</g>
<!-- AIM&#45;&gt;ASK -->
<g id="edge14" class="edge">
<title>AIM&#45;&gt;ASK</title>
<path fill="none" stroke="gray" stroke-width="5" d="M256.04,-1537.79C297.87,-1636.74 353.2,-1774.5 353.2,-1774.5 353.2,-1774.5 363.67,-1787.63 372.46,-1802.85"/>
<polygon fill="gray" stroke="gray" stroke-width="5" points="368.45,-1804.62 376.89,-1811.54 376.25,-1800.65 368.45,-1804.62"/>
</g>
<!-- AVA -->
<g id="node15" class="node">
<title>AVA</title>
<ellipse fill="none" stroke="black" cx="385.3" cy="-1756" rx="30.11" ry="18"/>
<text text-anchor="middle" x="385.3" y="-1750.58" font-family="Times New Roman,serif" font-size="14.00">AVA</text>
</g>
<!-- AIM&#45;&gt;AVA -->
<g id="edge15" class="edge">
<title>AIM&#45;&gt;AVA</title>
<path fill="none" stroke="red" stroke-width="0.2" d="M259.61,-1535.72C300.95,-1615.78 353.2,-1717 353.2,-1717 353.2,-1717 358.58,-1723.75 364.87,-1731.63"/>
<polygon fill="red" stroke="red" stroke-width="0.2" points="362.13,-1733.81 371.11,-1739.45 367.61,-1729.45 362.13,-1733.81"/>
</g>
<!-- AVB -->
<g id="node16" class="node">
<title>AVB</title>
<ellipse fill="none" stroke="black" cx="385.3" cy="-1677" rx="29.61" ry="18"/>
<text text-anchor="middle" x="385.3" y="-1671.58" font-family="Times New Roman,serif" font-size="14.00">AVB</text>
</g>
<!-- AIM&#45;&gt;AVB -->
<g id="edge16" class="edge">
<title>AIM&#45;&gt;AVB</title>
<path fill="none" stroke="gray" stroke-width="0.2" d="M273.34,-1527.42C311.65,-1580.46 353.2,-1638 353.2,-1638 353.2,-1638 358.58,-1644.75 364.87,-1652.63"/>
<polygon fill="gray" stroke="gray" stroke-width="0.2" points="362.13,-1654.81 371.11,-1660.45 367.61,-1650.45 362.13,-1654.81"/>
</g>
<!-- AVD -->
<g id="node17" class="node">
<title>AVD</title>
<ellipse fill="none" stroke="black" cx="385.3" cy="-1598" rx="30.11" ry="18"/>
<text text-anchor="middle" x="385.3" y="-1592.58" font-family="Times New Roman,serif" font-size="14.00">AVD</text>
</g>
<!-- AIM&#45;&gt;AVD -->
<g id="edge17" class="edge">
<title>AIM&#45;&gt;AVD</title>
<path fill="none" stroke="red" stroke-width="2" d="M289.87,-1512.3C314.53,-1534.68 339.99,-1557.79 358.25,-1574.36"/>
<polygon fill="red" stroke="red" stroke-width="2" points="355.86,-1576.91 365.62,-1581.04 360.56,-1571.73 355.86,-1576.91"/>
</g>
<!-- AVF -->
<g id="node18" class="node">
<title>AVF</title>
<ellipse fill="none" stroke="black" cx="385.3" cy="-1519" rx="29.11" ry="18"/>
<text text-anchor="middle" x="385.3" y="-1513.58" font-family="Times New Roman,serif" font-size="14.00">AVF</text>
</g>
<!-- AIM&#45;&gt;AVF -->
<g id="edge18" class="edge">
<title>AIM&#45;&gt;AVF</title>
<path fill="none" stroke="black" stroke-width="5" d="M312.99,-1470.75C329.11,-1478.56 344.48,-1486.78 356.8,-1494.38"/>
<polygon fill="black" stroke="black" stroke-width="5" points="354.22,-1497.91 364.97,-1499.81 359.07,-1490.63 354.22,-1497.91"/>
</g>
<!-- AVH -->
<g id="node19" class="node">
<title>AVH</title>
<ellipse fill="none" stroke="black" cx="385.3" cy="-1440" rx="30.11" ry="18"/>
<text text-anchor="middle" x="385.3" y="-1434.58" font-family="Times New Roman,serif" font-size="14.00">AVH</text>
</g>
<!-- AIM&#45;&gt;AVH -->
<g id="edge19" class="edge">
<title>AIM&#45;&gt;AVH</title>
<path fill="none" stroke="gray" stroke-width="0.2" d="M317.49,-1440C327.03,-1440 336.24,-1440 344.6,-1440"/>
<polygon fill="gray" stroke="gray" stroke-width="0.2" points="344.41,-1443.5 354.41,-1440 344.41,-1436.5 344.41,-1443.5"/>
</g>
<!-- AVJ -->
<g id="node20" class="node">
<title>AVJ</title>
<ellipse fill="none" stroke="black" cx="385.3" cy="-1361" rx="27.11" ry="18"/>
<text text-anchor="middle" x="385.3" y="-1355.58" font-family="Times New Roman,serif" font-size="14.00">AVJ</text>
</g>
<!-- AIM&#45;&gt;AVJ -->
<g id="edge20" class="edge">
<title>AIM&#45;&gt;AVJ</title>
<path fill="none" stroke="red" stroke-width="2" d="M307.94,-1395.65C323.29,-1388.69 338.19,-1381.93 350.69,-1376.25"/>
<polygon fill="red" stroke="red" stroke-width="2" points="351.9,-1379.55 359.56,-1372.23 349.01,-1373.17 351.9,-1379.55"/>
</g>
<!-- AWB -->
<g id="node21" class="node">
<title>AWB</title>
<ellipse fill="none" stroke="black" cx="385.3" cy="-1282" rx="32.1" ry="18"/>
<text text-anchor="middle" x="385.3" y="-1276.58" font-family="Times New Roman,serif" font-size="14.00">AWB</text>
</g>
<!-- AIM&#45;&gt;AWB -->
<g id="edge21" class="edge">
<title>AIM&#45;&gt;AWB</title>
<path fill="none" stroke="gray" stroke-width="0.2" d="M281.52,-1359.39C305.68,-1336.73 331.51,-1314.27 351.23,-1299.04"/>
<polygon fill="gray" stroke="gray" stroke-width="0.2" points="353.16,-1301.97 359.04,-1293.17 348.95,-1296.38 353.16,-1301.97"/>
</g>
<!-- BDU -->
<g id="node22" class="node">
<title>BDU</title>
<ellipse fill="none" stroke="black" cx="385.3" cy="-1203" rx="29.61" ry="18"/>
<text text-anchor="middle" x="385.3" y="-1197.58" font-family="Times New Roman,serif" font-size="14.00">BDU</text>
</g>
<!-- AIM&#45;&gt;BDU -->
<g id="edge22" class="edge">
<title>AIM&#45;&gt;BDU</title>
<path fill="none" stroke="gray" stroke-width="0.2" d="M273.34,-1352.58C311.65,-1299.54 353.2,-1242 353.2,-1242 353.2,-1242 358.58,-1235.25 364.87,-1227.37"/>
<polygon fill="gray" stroke="gray" stroke-width="0.2" points="367.61,-1229.55 371.11,-1219.55 362.13,-1225.19 367.61,-1229.55"/>
</g>
<!-- CEP -->
<g id="node23" class="node">
<title>CEP</title>
<ellipse fill="none" stroke="black" cx="385.3" cy="-1124" rx="28.11" ry="18"/>
<text text-anchor="middle" x="385.3" y="-1118.58" font-family="Times New Roman,serif" font-size="14.00">CEP</text>
</g>
<!-- AIM&#45;&gt;CEP -->
<g id="edge23" class="edge">
<title>AIM&#45;&gt;CEP</title>
<path fill="none" stroke="black" stroke-width="5" d="M259.61,-1344.28C300.95,-1264.22 353.2,-1163 353.2,-1163 353.2,-1163 356.86,-1158.42 361.66,-1152.39"/>
<polygon fill="black" stroke="black" stroke-width="5" points="364.95,-1155.29 367.76,-1144.74 358.11,-1149.83 364.95,-1155.29"/>
</g>
<!-- HSN -->
<g id="node24" class="node">
<title>HSN</title>
<ellipse fill="none" stroke="black" cx="385.3" cy="-1045" rx="29.11" ry="18"/>
<text text-anchor="middle" x="385.3" y="-1039.58" font-family="Times New Roman,serif" font-size="14.00">HSN</text>
</g>
<!-- AIM&#45;&gt;HSN -->
<g id="edge24" class="edge">
<title>AIM&#45;&gt;HSN</title>
<path fill="none" stroke="gray" stroke-width="0.2" d="M245.18,-1338.11C287.52,-1226.02 353.2,-1062.5 353.2,-1062.5 353.2,-1062.5 353.38,-1062.27 353.72,-1061.87"/>
<polygon fill="gray" stroke="gray" stroke-width="0.2" points="356.03,-1064.54 359.91,-1054.68 350.73,-1059.97 356.03,-1064.54"/>
</g>
<!-- OLQ -->
<g id="node25" class="node">
<title>OLQ</title>
<ellipse fill="none" stroke="black" cx="385.3" cy="-966" rx="30.11" ry="18"/>
<text text-anchor="middle" x="385.3" y="-960.58" font-family="Times New Roman,serif" font-size="14.00">OLQ</text>
</g>
<!-- AIM&#45;&gt;OLQ -->
<g id="edge25" class="edge">
<title>AIM&#45;&gt;OLQ</title>
<path fill="none" stroke="gray" stroke-width="0.2" d="M243.91,-1337.46C286.19,-1208.86 353.2,-1005 353.2,-1005 353.2,-1005 358.58,-998.25 364.87,-990.37"/>
<polygon fill="gray" stroke="gray" stroke-width="0.2" points="367.61,-992.55 371.11,-982.55 362.13,-988.19 367.61,-992.55"/>
</g>
<!-- PVN -->
<g id="node26" class="node">
<title>PVN</title>
<ellipse fill="none" stroke="black" cx="385.3" cy="-887" rx="29.11" ry="18"/>
<text text-anchor="middle" x="385.3" y="-881.58" font-family="Times New Roman,serif" font-size="14.00">PVN</text>
</g>
<!-- AIM&#45;&gt;PVN -->
<g id="edge26" class="edge">
<title>AIM&#45;&gt;PVN</title>
<path fill="none" stroke="gray" stroke-width="2" d="M235.77,-1334.99C272.32,-1196.15 336.65,-964.1 355.36,-908.51"/>
<polygon fill="gray" stroke="gray" stroke-width="2" points="358.59,-909.86 359,-899.27 352.08,-907.29 358.59,-909.86"/>
</g>
<!-- PVQ -->
<g id="node27" class="node">
<title>PVQ</title>
<ellipse fill="none" stroke="black" cx="385.3" cy="-808" rx="29.61" ry="18"/>
<text text-anchor="middle" x="385.3" y="-802.58" font-family="Times New Roman,serif" font-size="14.00">PVQ</text>
</g>
<!-- AIM&#45;&gt;PVQ -->
<g id="edge27" class="edge">
<title>AIM&#45;&gt;PVQ</title>
<path fill="none" stroke="gray" stroke-width="0.2" d="M232.7,-1334.23C269.36,-1174.01 339.11,-884.02 356.32,-827.39"/>
<polygon fill="gray" stroke="gray" stroke-width="0.2" points="359.58,-828.67 359.69,-818.08 353,-826.29 359.58,-828.67"/>
</g>
<!-- RIC -->
<g id="node28" class="node">
<title>RIC</title>
<ellipse fill="none" stroke="black" cx="385.3" cy="-729" rx="27" ry="18"/>
<text text-anchor="middle" x="385.3" y="-723.58" font-family="Times New Roman,serif" font-size="14.00">RIC</text>
</g>
<!-- AIM&#45;&gt;RIC -->
<g id="edge28" class="edge">
<title>AIM&#45;&gt;RIC</title>
<path fill="none" stroke="gray" stroke-width="0.2" d="M232.7,-1334.26C272.97,-1145.02 353.2,-768 353.2,-768 353.2,-768 358.85,-760.91 365.34,-752.78"/>
<polygon fill="gray" stroke="gray" stroke-width="0.2" points="367.97,-755.1 371.47,-745.1 362.49,-750.74 367.97,-755.1"/>
</g>
<!-- RID -->
<g id="node29" class="node">
<title>RID</title>
<ellipse fill="none" stroke="black" cx="385.3" cy="-650" rx="27" ry="18"/>
<text text-anchor="middle" x="385.3" y="-644.58" font-family="Times New Roman,serif" font-size="14.00">RID</text>
</g>
<!-- AIM&#45;&gt;RID -->
<g id="edge29" class="edge">
<title>AIM&#45;&gt;RID</title>
<path fill="none" stroke="gray" stroke-width="0.2" d="M230.39,-1333.99C269.81,-1126.98 353.2,-689 353.2,-689 353.2,-689 358.85,-681.91 365.34,-673.78"/>
<polygon fill="gray" stroke="gray" stroke-width="0.2" points="367.97,-676.1 371.47,-666.1 362.49,-671.74 367.97,-676.1"/>
</g>
<!-- RIF -->
<g id="node30" class="node">
<title>RIF</title>
<ellipse fill="none" stroke="black" cx="385.3" cy="-571" rx="27" ry="18"/>
<text text-anchor="middle" x="385.3" y="-565.58" font-family="Times New Roman,serif" font-size="14.00">RIF</text>
</g>
<!-- AIM&#45;&gt;RIF -->
<g id="edge30" class="edge">
<title>AIM&#45;&gt;RIF</title>
<path fill="none" stroke="gray" stroke-width="2" d="M226.75,-1333C261.26,-1123.01 338.81,-672.11 357.5,-591.69"/>
<polygon fill="gray" stroke="gray" stroke-width="2" points="360.79,-592.9 360.21,-582.33 354.07,-590.96 360.79,-592.9"/>
</g>
<!-- RMD -->
<g id="node31" class="node">
<title>RMD</title>
<ellipse fill="none" stroke="black" cx="385.3" cy="-492" rx="31.6" ry="18"/>
<text text-anchor="middle" x="385.3" y="-486.57" font-family="Times New Roman,serif" font-size="14.00">RMD</text>
</g>
<!-- AIM&#45;&gt;RMD -->
<g id="edge31" class="edge">
<title>AIM&#45;&gt;RMD</title>
<path fill="none" stroke="gray" stroke-width="0.2" d="M227.03,-1333.05C264.83,-1092.77 353.2,-531 353.2,-531 353.2,-531 358.58,-524.25 364.87,-516.37"/>
<polygon fill="gray" stroke="gray" stroke-width="0.2" points="367.61,-518.55 371.11,-508.55 362.13,-514.19 367.61,-518.55"/>
</g>
<!-- RMG -->
<g id="node32" class="node">
<title>RMG</title>
<ellipse fill="none" stroke="black" cx="385.3" cy="-413" rx="32.1" ry="18"/>
<text text-anchor="middle" x="385.3" y="-407.57" font-family="Times New Roman,serif" font-size="14.00">RMG</text>
</g>
<!-- AIM&#45;&gt;RMG -->
<g id="edge32" class="edge">
<title>AIM&#45;&gt;RMG</title>
<path fill="none" stroke="gray" stroke-width="2" d="M224.24,-1332.78C257.49,-1092.66 339.2,-527.3 356.1,-436.22"/>
<polygon fill="gray" stroke="gray" stroke-width="2" points="359.45,-437.26 358.24,-426.74 352.62,-435.72 359.45,-437.26"/>
</g>
<!-- SDQ -->
<g id="node33" class="node">
<title>SDQ</title>
<ellipse fill="none" stroke="black" cx="385.3" cy="-334" rx="29.61" ry="18"/>
<text text-anchor="middle" x="385.3" y="-328.57" font-family="Times New Roman,serif" font-size="14.00">SDQ</text>
</g>
<!-- AIM&#45;&gt;SDQ -->
<g id="edge33" class="edge">
<title>AIM&#45;&gt;SDQ</title>
<path fill="none" stroke="gray" stroke-width="0.2" d="M224.57,-1332.81C260.83,-1062.23 353.2,-373 353.2,-373 353.2,-373 358.58,-366.25 364.87,-358.37"/>
<polygon fill="gray" stroke="gray" stroke-width="0.2" points="367.61,-360.55 371.11,-350.55 362.13,-356.19 367.61,-360.55"/>
</g>
<!-- SIA -->
<g id="node34" class="node">
<title>SIA</title>
<ellipse fill="none" stroke="black" cx="385.3" cy="-255" rx="27" ry="18"/>
<text text-anchor="middle" x="385.3" y="-249.57" font-family="Times New Roman,serif" font-size="14.00">SIA</text>
</g>
<!-- AIM&#45;&gt;SIA -->
<g id="edge34" class="edge">
<title>AIM&#45;&gt;SIA</title>
<path fill="none" stroke="gray" stroke-width="0.2" d="M223.59,-1332.7C259.14,-1047.81 353.2,-294 353.2,-294 353.2,-294 358.85,-286.91 365.34,-278.78"/>
<polygon fill="gray" stroke="gray" stroke-width="0.2" points="367.97,-281.1 371.47,-271.1 362.49,-276.74 367.97,-281.1"/>
</g>
<!-- SIB -->
<g id="node35" class="node">
<title>SIB</title>
<ellipse fill="none" stroke="black" cx="385.3" cy="-176" rx="27" ry="18"/>
<text text-anchor="middle" x="385.3" y="-170.57" font-family="Times New Roman,serif" font-size="14.00">SIB</text>
</g>
<!-- AIM&#45;&gt;SIB -->
<g id="edge35" class="edge">
<title>AIM&#45;&gt;SIB</title>
<path fill="none" stroke="gray" stroke-width="0.2" d="M222.77,-1332.36C257.66,-1033.44 353.2,-215 353.2,-215 353.2,-215 358.85,-207.91 365.34,-199.78"/>
<polygon fill="gray" stroke="gray" stroke-width="0.2" points="367.97,-202.1 371.47,-192.1 362.49,-197.74 367.97,-202.1"/>
</g>
<!-- SMB -->
<g id="node36" class="node">
<title>SMB</title>
<ellipse fill="none" stroke="black" cx="385.3" cy="-97" rx="30.11" ry="18"/>
<text text-anchor="middle" x="385.3" y="-91.58" font-family="Times New Roman,serif" font-size="14.00">SMB</text>
</g>
<!-- AIM&#45;&gt;SMB -->
<g id="edge36" class="edge">
<title>AIM&#45;&gt;SMB</title>
<path fill="none" stroke="black" stroke-width="0.2" d="M221.01,-1332.32C252.4,-1034.38 342.03,-216.46 357.77,-116.74"/>
<polygon fill="black" stroke="black" stroke-width="0.2" points="361.17,-117.59 359.74,-107.09 354.31,-116.19 361.17,-117.59"/>
</g>
<!-- URX -->
<g id="node37" class="node">
<title>URX</title>
<ellipse fill="none" stroke="black" cx="385.3" cy="-18" rx="30.11" ry="18"/>
<text text-anchor="middle" x="385.3" y="-12.57" font-family="Times New Roman,serif" font-size="14.00">URX</text>
</g>
<!-- AIM&#45;&gt;URX -->
<g id="edge37" class="edge">
<title>AIM&#45;&gt;URX</title>
<path fill="none" stroke="gray" stroke-width="2" d="M220.43,-1332.17C251.08,-1023.95 340.77,-155.76 357.45,-40.45"/>
<polygon fill="gray" stroke="gray" stroke-width="2" points="360.87,-41.24 359.25,-30.77 353.98,-39.96 360.87,-41.24"/>
</g>
<!-- ADL&#45;&gt;AIM -->
<g id="edge38" class="edge">
<title>ADL&#45;&gt;AIM</title>
<path fill="none" stroke="gray" stroke-width="2" d="M360.1,-2615.55C356.09,-2611.12 353.2,-2607.5 353.2,-2607.5 353.2,-2607.5 259.74,-1858.47 223.93,-1560.17"/>
<polygon fill="gray" stroke="gray" stroke-width="2" points="227.45,-1560.12 222.79,-1550.6 220.5,-1560.95 227.45,-1560.12"/>
</g>
<!-- AIA&#45;&gt;AIM -->
<g id="edge39" class="edge">
<title>AIA&#45;&gt;AIM</title>
<path fill="none" stroke="gray" stroke-width="2" d="M361.05,-2537.58C356.55,-2532.7 353.2,-2528.5 353.2,-2528.5 353.2,-2528.5 261.42,-1843.63 224.91,-1560.22"/>
<polygon fill="gray" stroke="gray" stroke-width="2" points="228.4,-1559.92 223.66,-1550.45 221.46,-1560.81 228.4,-1559.92"/>
</g>
<!-- ALA&#45;&gt;AIM -->
<g id="edge40" class="edge">
<title>ALA&#45;&gt;AIM</title>
<path fill="none" stroke="gray" stroke-width="2" d="M360.1,-2220.55C356.09,-2216.12 353.2,-2212.5 353.2,-2212.5 353.2,-2212.5 270.13,-1776.25 230.62,-1559.22"/>
<polygon fill="gray" stroke="gray" stroke-width="2" points="234.09,-1558.71 228.85,-1549.49 227.2,-1559.96 234.09,-1558.71"/>
</g>
<!-- ALM&#45;&gt;AIM -->
<g id="edge41" class="edge">
<title>ALM&#45;&gt;AIM</title>
<path fill="none" stroke="gray" stroke-width="0.2" d="M359.5,-2140.87C355.8,-2136.76 353.2,-2133.5 353.2,-2133.5 353.2,-2133.5 272.45,-1754.01 232.31,-1556.26"/>
<polygon fill="gray" stroke="gray" stroke-width="0.2" points="235.79,-1555.81 230.37,-1546.7 228.93,-1557.2 235.79,-1555.81"/>
</g>
<!-- ASG&#45;&gt;AIM -->
<g id="edge42" class="edge">
<title>ASG&#45;&gt;AIM</title>
<path fill="none" stroke="gray" stroke-width="2" d="M359.8,-2062.21C355.94,-2057.94 353.2,-2054.5 353.2,-2054.5 353.2,-2054.5 276.69,-1737.22 235.6,-1558.4"/>
<polygon fill="gray" stroke="gray" stroke-width="2" points="239.03,-1557.69 233.38,-1548.72 232.2,-1559.25 239.03,-1557.69"/>
</g>
<!-- ASH&#45;&gt;AIM -->
<g id="edge43" class="edge">
<title>ASH&#45;&gt;AIM</title>
<path fill="none" stroke="gray" stroke-width="0.2" d="M360.1,-1983.55C356.09,-1979.12 353.2,-1975.5 353.2,-1975.5 353.2,-1975.5 280,-1712.37 238.34,-1554.77"/>
<polygon fill="gray" stroke="gray" stroke-width="0.2" points="241.78,-1554.08 235.84,-1545.31 235.01,-1555.87 241.78,-1554.08"/>
</g>
<!-- ASJ&#45;&gt;AIM -->
<g id="edge44" class="edge">
<title>ASJ&#45;&gt;AIM</title>
<path fill="none" stroke="gray" stroke-width="nan" d="M361.05,-1905.58C356.55,-1900.7 353.2,-1896.5 353.2,-1896.5 353.2,-1896.5 281.72,-1679.05 239.83,-1544.03"/>
<polygon fill="gray" stroke="gray" stroke-width="nan" points="nan,-nan nan,-nan nan,-nan nan,-nan"/>
</g>
<!-- ASK&#45;&gt;AIM -->
<g id="edge45" class="edge">
<title>ASK&#45;&gt;AIM</title>
<path fill="none" stroke="red" stroke-width="5" d="M360.1,-1825.55C356.09,-1821.12 353.2,-1817.5 353.2,-1817.5 353.2,-1817.5 293.16,-1668.04 250.89,-1556.95"/>
<polygon fill="red" stroke="red" stroke-width="5" points="255.03,-1555.53 247.4,-1547.73 246.85,-1558.63 255.03,-1555.53"/>
</g>
<!-- AVF&#45;&gt;AIM -->
<g id="edge46" class="edge">
<title>AVF&#45;&gt;AIM</title>
<path fill="none" stroke="gray" stroke-width="2" d="M355.93,-1518.41C343.69,-1514.79 328.55,-1509.13 312.71,-1502.41"/>
<polygon fill="gray" stroke="gray" stroke-width="2" points="314.42,-1499.34 303.85,-1498.55 311.62,-1505.76 314.42,-1499.34"/>
</g>
<!-- AWB&#45;&gt;AIM -->
<g id="edge47" class="edge">
<title>AWB&#45;&gt;AIM</title>
<path fill="none" stroke="gray" stroke-width="0.2" d="M374.19,-1299.24C360.06,-1317 332.97,-1344.25 304.82,-1370.21"/>
<polygon fill="gray" stroke="gray" stroke-width="0.2" points="302.49,-1367.59 297.48,-1376.92 307.22,-1372.75 302.49,-1367.59"/>
</g>
<!-- HSN&#45;&gt;AIM -->
<g id="edge48" class="edge">
<title>HSN&#45;&gt;AIM</title>
<path fill="none" stroke="gray" stroke-width="0.2" d="M379.71,-1062.9C371.06,-1083.1 353.2,-1105.5 353.2,-1105.5 353.2,-1105.5 301.27,-1234.79 260,-1332.83"/>
<polygon fill="gray" stroke="gray" stroke-width="0.2" points="256.82,-1331.36 256.16,-1341.94 263.27,-1334.08 256.82,-1331.36"/>
</g>
<!-- PVN&#45;&gt;AIM -->
<g id="edge49" class="edge">
<title>PVN&#45;&gt;AIM</title>
<path fill="none" stroke="gray" stroke-width="0.2" d="M379.71,-904.9C371.06,-925.1 353.2,-947.5 353.2,-947.5 353.2,-947.5 287.93,-1182.11 245.59,-1327.69"/>
<polygon fill="gray" stroke="gray" stroke-width="0.2" points="242.35,-1326.28 242.91,-1336.86 249.07,-1328.23 242.35,-1326.28"/>
</g>
<!-- PVQ&#45;&gt;AIM -->
<g id="edge50" class="edge">
<title>PVQ&#45;&gt;AIM</title>
<path fill="none" stroke="red" stroke-width="2" d="M379.71,-825.9C371.06,-846.1 353.2,-868.5 353.2,-868.5 353.2,-868.5 283.91,-1155.83 241.8,-1323.23"/>
<polygon fill="red" stroke="red" stroke-width="2" points="238.42,-1322.32 239.37,-1332.88 245.2,-1324.04 238.42,-1322.32"/>
</g>
<!-- RIF&#45;&gt;AIM -->
<g id="edge51" class="edge">
<title>RIF&#45;&gt;AIM</title>
<path fill="none" stroke="gray" stroke-width="0.2" d="M379.71,-588.9C371.06,-609.1 353.2,-631.5 353.2,-631.5 353.2,-631.5 272.44,-1100.27 232.3,-1324.11"/>
<polygon fill="gray" stroke="gray" stroke-width="0.2" points="228.91,-1323.16 230.59,-1333.63 235.8,-1324.4 228.91,-1323.16"/>
</g>
<!-- RMG&#45;&gt;AIM -->
<g id="edge52" class="edge">
<title>RMG&#45;&gt;AIM</title>
<path fill="none" stroke="red" stroke-width="0.2" d="M379.58,-431.21C370.88,-451.33 353.2,-473.5 353.2,-473.5 353.2,-473.5 267.46,-1065.88 228.76,-1323.27"/>
<polygon fill="red" stroke="red" stroke-width="0.2" points="225.31,-1322.7 227.28,-1333.11 232.23,-1323.74 225.31,-1322.7"/>
</g>
<!-- SMB&#45;&gt;AIM -->
<g id="edge53" class="edge">
<title>SMB&#45;&gt;AIM</title>
<path fill="none" stroke="gray" stroke-width="0.2" d="M379.71,-114.9C371.06,-135.1 353.2,-157.5 353.2,-157.5 353.2,-157.5 260.26,-1005.02 224.23,-1322.27"/>
<polygon fill="gray" stroke="gray" stroke-width="0.2" points="220.77,-1321.79 223.12,-1332.12 227.72,-1322.58 220.77,-1321.79"/>
</g>
<!-- URX&#45;&gt;AIM -->
<g id="edge54" class="edge">
<title>URX&#45;&gt;AIM</title>
<path fill="none" stroke="gray" stroke-width="2" d="M379.71,-35.9C371.06,-56.1 353.2,-78.5 353.2,-78.5 353.2,-78.5 259.24,-987.28 223.65,-1320.03"/>
<polygon fill="gray" stroke="gray" stroke-width="2" points="220.21,-1319.26 222.62,-1329.57 227.17,-1320 220.21,-1319.26"/>
</g>
<!-- ASI -->
<g id="node38" class="node">
<title>ASI</title>
<ellipse fill="none" stroke="black" cx="32.6" cy="-1638" rx="27" ry="18"/>
<text text-anchor="middle" x="32.6" y="-1632.58" font-family="Times New Roman,serif" font-size="14.00">ASI</text>
</g>
<!-- ASI&#45;&gt;AIM -->
<g id="edge55" class="edge">
<title>ASI&#45;&gt;AIM</title>
<path fill="none" stroke="blue" stroke-width="5" d="M47.3,-1622.46C64.63,-1602.81 95.9,-1567.36 126.28,-1532.9"/>
<polygon fill="blue" stroke="blue" stroke-width="5" points="129.51,-1535.85 132.85,-1525.45 122.95,-1530.06 129.51,-1535.85"/>
</g>
<!-- AVE -->
<g id="node39" class="node">
<title>AVE</title>
<ellipse fill="none" stroke="black" cx="32.6" cy="-1559" rx="29.11" ry="18"/>
<text text-anchor="middle" x="32.6" y="-1553.58" font-family="Times New Roman,serif" font-size="14.00">AVE</text>
</g>
<!-- AVE&#45;&gt;AIM -->
<g id="edge56" class="edge">
<title>AVE&#45;&gt;AIM</title>
<path fill="none" stroke="gray" stroke-width="0.2" d="M52.95,-1545.81C67.66,-1535.79 89.1,-1521.17 111.38,-1505.99"/>
<polygon fill="gray" stroke="gray" stroke-width="0.2" points="113.08,-1509.07 119.37,-1500.54 109.13,-1503.28 113.08,-1509.07"/>
</g>
<!-- AWA -->
<g id="node40" class="node">
<title>AWA</title>
<ellipse fill="none" stroke="black" cx="32.6" cy="-1480" rx="32.6" ry="18"/>
<text text-anchor="middle" x="32.6" y="-1474.58" font-family="Times New Roman,serif" font-size="14.00">AWA</text>
</g>
<!-- AWA&#45;&gt;AIM -->
<g id="edge57" class="edge">
<title>AWA&#45;&gt;AIM</title>
<path fill="none" stroke="gray" stroke-width="2" d="M63.22,-1473.21C71.45,-1471.33 80.92,-1469.16 90.99,-1466.85"/>
<polygon fill="gray" stroke="gray" stroke-width="2" points="91.62,-1470.3 100.59,-1464.65 90.06,-1463.48 91.62,-1470.3"/>
</g>
<!-- AWC -->
<g id="node41" class="node">
<title>AWC</title>
<ellipse fill="none" stroke="black" cx="32.6" cy="-1401" rx="32.6" ry="18"/>
<text text-anchor="middle" x="32.6" y="-1395.58" font-family="Times New Roman,serif" font-size="14.00">AWC</text>
</g>
<!-- AWC&#45;&gt;AIM -->
<g id="edge58" class="edge">
<title>AWC&#45;&gt;AIM</title>
<path fill="none" stroke="gray" stroke-width="0.2" d="M63.22,-1407.62C72.17,-1409.62 82.6,-1411.94 93.66,-1414.42"/>
<polygon fill="gray" stroke="gray" stroke-width="0.2" points="92.72,-1417.79 103.24,-1416.56 94.25,-1410.96 92.72,-1417.79"/>
</g>
<!-- RIR -->
<g id="node42" class="node">
<title>RIR</title>
<ellipse fill="none" stroke="black" cx="32.6" cy="-1322" rx="27" ry="18"/>
<text text-anchor="middle" x="32.6" y="-1316.58" font-family="Times New Roman,serif" font-size="14.00">RIR</text>
</g>
<!-- RIR&#45;&gt;AIM -->
<g id="edge59" class="edge">
<title>RIR&#45;&gt;AIM</title>
<path fill="none" stroke="gray" stroke-width="0.2" d="M52.29,-1334.63C66.94,-1344.53 88.56,-1359.14 111.06,-1374.35"/>
<polygon fill="gray" stroke="gray" stroke-width="0.2" points="108.88,-1377.1 119.12,-1379.8 112.8,-1371.3 108.88,-1377.1"/>
</g>
<!-- URY -->
<g id="node43" class="node">
<title>URY</title>
<ellipse fill="none" stroke="black" cx="32.6" cy="-1243" rx="30.11" ry="18"/>
<text text-anchor="middle" x="32.6" y="-1237.58" font-family="Times New Roman,serif" font-size="14.00">URY</text>
</g>
<!-- URY&#45;&gt;AIM -->
<g id="edge60" class="edge">
<title>URY&#45;&gt;AIM</title>
<path fill="none" stroke="gray" stroke-width="0.2" d="M47.59,-1258.79C65.73,-1279.25 98.75,-1316.5 130.15,-1351.94"/>
<polygon fill="gray" stroke="gray" stroke-width="0.2" points="127.37,-1354.08 136.62,-1359.24 132.61,-1349.43 127.37,-1354.08"/>
</g>
</g>
</svg>
