<?xml version="1.0" encoding="UTF-8" standalone="no"?>
<!DOCTYPE svg PUBLIC "-//W3C//DTD SVG 1.1//EN"
 "http://www.w3.org/Graphics/SVG/1.1/DTD/svg11.dtd">
<!-- Generated by graphviz version 11.0.0 (20240428.1522)
 -->
<!-- Pages: 1 -->
<svg width="422pt" height="1782pt"
 viewBox="0.00 0.00 422.41 1782.00" xmlns="http://www.w3.org/2000/svg" xmlns:xlink="http://www.w3.org/1999/xlink">
<g id="graph0" class="graph" transform="scale(1 1) rotate(0) translate(4 1778)">
<polygon fill="white" stroke="none" points="-4,4 -4,-1778 418.41,-1778 418.41,4 -4,4"/>
<!-- AIN -->
<g id="node1" class="node">
<title>AIN</title>
<ellipse fill="none" stroke="black" cx="205.21" cy="-887" rx="108" ry="108"/>
<text text-anchor="middle" x="205.21" y="-868" font-family="Times New Roman,serif" font-size="50.00">AIN</text>
</g>
<!-- AIN&#45;&gt;AIN -->
<g id="edge1" class="edge">
<title>AIN&#45;&gt;AIN</title>
<path fill="none" stroke="gray" stroke-width="0.2" d="M172.78,-990.39C174.71,-1017.51 185.52,-1038 205.21,-1038 222.37,-1038 232.78,-1022.45 236.45,-1000.52"/>
<polygon fill="gray" stroke="gray" stroke-width="0.2" points="239.91,-1001.03 237.6,-990.69 232.96,-1000.22 239.91,-1001.03"/>
</g>
<!-- ADF -->
<g id="node2" class="node">
<title>ADF</title>
<ellipse fill="none" stroke="black" cx="381.81" cy="-1756" rx="29.11" ry="18"/>
<text text-anchor="middle" x="381.81" y="-1750.58" font-family="Times New Roman,serif" font-size="14.00">ADF</text>
</g>
<!-- AIN&#45;&gt;ADF -->
<g id="edge2" class="edge">
<title>AIN&#45;&gt;ADF</title>
<path fill="none" stroke="blue" stroke-width="0.2" d="M226.55,-993.08C266.03,-1212.69 349.21,-1695.5 349.21,-1695.5 349.21,-1695.5 362.37,-1711.74 371.71,-1729.04"/>
<polygon fill="blue" stroke="blue" stroke-width="0.2" points="368.47,-1730.39 376.02,-1737.83 374.76,-1727.31 368.47,-1730.39"/>
</g>
<!-- AFD -->
<g id="node3" class="node">
<title>AFD</title>
<ellipse fill="none" stroke="black" cx="381.81" cy="-1677" rx="29.11" ry="18"/>
<text text-anchor="middle" x="381.81" y="-1671.58" font-family="Times New Roman,serif" font-size="14.00">AFD</text>
</g>
<!-- AIN&#45;&gt;AFD -->
<g id="edge3" class="edge">
<title>AIN&#45;&gt;AFD</title>
<path fill="none" stroke="red" stroke-width="5" d="M228.71,-992.7C268.98,-1195.16 349.21,-1616.5 349.21,-1616.5 349.21,-1616.5 359.85,-1629.63 368.78,-1644.85"/>
<polygon fill="red" stroke="red" stroke-width="5" points="364.8,-1646.69 373.28,-1653.56 372.58,-1642.67 364.8,-1646.69"/>
</g>
<!-- AIA -->
<g id="node4" class="node">
<title>AIA</title>
<ellipse fill="none" stroke="black" cx="381.81" cy="-1598" rx="27" ry="18"/>
<text text-anchor="middle" x="381.81" y="-1592.58" font-family="Times New Roman,serif" font-size="14.00">AIA</text>
</g>
<!-- AIN&#45;&gt;AIA -->
<g id="edge4" class="edge">
<title>AIN&#45;&gt;AIA</title>
<path fill="none" stroke="gray" stroke-width="2" d="M228.71,-992.74C268.98,-1181.98 349.21,-1559 349.21,-1559 349.21,-1559 354.15,-1565.1 360.13,-1572.48"/>
<polygon fill="gray" stroke="gray" stroke-width="2" points="357.04,-1574.22 366.05,-1579.79 362.48,-1569.81 357.04,-1574.22"/>
</g>
<!-- AIB -->
<g id="node5" class="node">
<title>AIB</title>
<ellipse fill="none" stroke="black" cx="381.81" cy="-1519" rx="27" ry="18"/>
<text text-anchor="middle" x="381.81" y="-1513.58" font-family="Times New Roman,serif" font-size="14.00">AIB</text>
</g>
<!-- AIN&#45;&gt;AIB -->
<g id="edge5" class="edge">
<title>AIN&#45;&gt;AIB</title>
<path fill="none" stroke="black" stroke-width="5" d="M231.53,-991.99C272.6,-1162.31 349.21,-1480 349.21,-1480 349.21,-1480 352.92,-1484.58 357.8,-1490.61"/>
<polygon fill="black" stroke="black" stroke-width="5" points="354.34,-1493.28 364.03,-1498.29 361.13,-1487.77 354.34,-1493.28"/>
</g>
<!-- AIY -->
<g id="node6" class="node">
<title>AIY</title>
<ellipse fill="none" stroke="black" cx="381.81" cy="-1440" rx="27" ry="18"/>
<text text-anchor="middle" x="381.81" y="-1434.58" font-family="Times New Roman,serif" font-size="14.00">AIY</text>
</g>
<!-- AIN&#45;&gt;AIY -->
<g id="edge6" class="edge">
<title>AIN&#45;&gt;AIY</title>
<path fill="none" stroke="gray" stroke-width="0.2" d="M238.84,-989.85C281.04,-1134.48 349.21,-1379.5 349.21,-1379.5 349.21,-1379.5 362.37,-1395.74 371.71,-1413.04"/>
<polygon fill="gray" stroke="gray" stroke-width="0.2" points="368.47,-1414.39 376.02,-1421.83 374.76,-1411.31 368.47,-1414.39"/>
</g>
<!-- AIZ -->
<g id="node7" class="node">
<title>AIZ</title>
<ellipse fill="none" stroke="black" cx="381.81" cy="-1361" rx="27" ry="18"/>
<text text-anchor="middle" x="381.81" y="-1355.58" font-family="Times New Roman,serif" font-size="14.00">AIZ</text>
</g>
<!-- AIN&#45;&gt;AIZ -->
<g id="edge7" class="edge">
<title>AIN&#45;&gt;AIZ</title>
<path fill="none" stroke="blue" stroke-width="2" d="M239.92,-989.54C282.2,-1118.14 349.21,-1322 349.21,-1322 349.21,-1322 354.15,-1328.1 360.13,-1335.48"/>
<polygon fill="blue" stroke="blue" stroke-width="2" points="357.04,-1337.22 366.05,-1342.79 362.48,-1332.81 357.04,-1337.22"/>
</g>
<!-- ASE -->
<g id="node8" class="node">
<title>ASE</title>
<ellipse fill="none" stroke="black" cx="381.81" cy="-1282" rx="28.11" ry="18"/>
<text text-anchor="middle" x="381.81" y="-1276.58" font-family="Times New Roman,serif" font-size="14.00">ASE</text>
</g>
<!-- AIN&#45;&gt;ASE -->
<g id="edge8" class="edge">
<title>AIN&#45;&gt;ASE</title>
<path fill="none" stroke="gray" stroke-width="2" d="M252.05,-984.79C293.87,-1083.74 349.21,-1221.5 349.21,-1221.5 349.21,-1221.5 361.19,-1236.29 370.4,-1252.67"/>
<polygon fill="gray" stroke="gray" stroke-width="2" points="367.17,-1254.04 374.79,-1261.4 373.42,-1250.89 367.17,-1254.04"/>
</g>
<!-- ASG -->
<g id="node9" class="node">
<title>ASG</title>
<ellipse fill="none" stroke="black" cx="381.81" cy="-1203" rx="29.61" ry="18"/>
<text text-anchor="middle" x="381.81" y="-1197.58" font-family="Times New Roman,serif" font-size="14.00">ASG</text>
</g>
<!-- AIN&#45;&gt;ASG -->
<g id="edge9" class="edge">
<title>AIN&#45;&gt;ASG</title>
<path fill="none" stroke="gray" stroke-width="0.2" d="M262.73,-978.97C302.7,-1052.4 349.21,-1142.5 349.21,-1142.5 349.21,-1142.5 362.37,-1158.74 371.71,-1176.04"/>
<polygon fill="gray" stroke="gray" stroke-width="0.2" points="368.47,-1177.39 376.02,-1184.83 374.76,-1174.31 368.47,-1177.39"/>
</g>
<!-- ASI -->
<g id="node10" class="node">
<title>ASI</title>
<ellipse fill="none" stroke="black" cx="381.81" cy="-1124" rx="27" ry="18"/>
<text text-anchor="middle" x="381.81" y="-1118.58" font-family="Times New Roman,serif" font-size="14.00">ASI</text>
</g>
<!-- AIN&#45;&gt;ASI -->
<g id="edge10" class="edge">
<title>AIN&#45;&gt;ASI</title>
<path fill="none" stroke="gray" stroke-width="5" d="M269.35,-974.42C307.66,-1027.46 349.21,-1085 349.21,-1085 349.21,-1085 352.92,-1089.58 357.8,-1095.61"/>
<polygon fill="gray" stroke="gray" stroke-width="5" points="354.34,-1098.28 364.03,-1103.29 361.13,-1092.77 354.34,-1098.28"/>
</g>
<!-- AUA -->
<g id="node11" class="node">
<title>AUA</title>
<ellipse fill="none" stroke="black" cx="381.81" cy="-1045" rx="30.11" ry="18"/>
<text text-anchor="middle" x="381.81" y="-1039.58" font-family="Times New Roman,serif" font-size="14.00">AUA</text>
</g>
<!-- AIN&#45;&gt;AUA -->
<g id="edge11" class="edge">
<title>AIN&#45;&gt;AUA</title>
<path fill="none" stroke="black" stroke-width="5" d="M293.51,-949.88C318.6,-972.58 343.7,-997.07 360.5,-1015.82"/>
<polygon fill="black" stroke="black" stroke-width="5" points="357.07,-1018.54 366.88,-1023.33 363.73,-1012.88 357.07,-1018.54"/>
</g>
<!-- AVA -->
<g id="node12" class="node">
<title>AVA</title>
<ellipse fill="none" stroke="black" cx="381.81" cy="-966" rx="30.11" ry="18"/>
<text text-anchor="middle" x="381.81" y="-960.58" font-family="Times New Roman,serif" font-size="14.00">AVA</text>
</g>
<!-- AIN&#45;&gt;AVA -->
<g id="edge12" class="edge">
<title>AIN&#45;&gt;AVA</title>
<path fill="none" stroke="gray" stroke-width="0.2" d="M304.23,-931.35C319.96,-938.47 335.22,-945.37 347.93,-951.12"/>
<polygon fill="gray" stroke="gray" stroke-width="0.2" points="346.28,-954.22 356.84,-955.15 349.17,-947.84 346.28,-954.22"/>
</g>
<!-- AWA -->
<g id="node13" class="node">
<title>AWA</title>
<ellipse fill="none" stroke="black" cx="381.81" cy="-887" rx="32.6" ry="18"/>
<text text-anchor="middle" x="381.81" y="-881.58" font-family="Times New Roman,serif" font-size="14.00">AWA</text>
</g>
<!-- AIN&#45;&gt;AWA -->
<g id="edge13" class="edge">
<title>AIN&#45;&gt;AWA</title>
<path fill="none" stroke="blue" stroke-width="5" d="M312.56,-871.22C322.41,-871.58 331.92,-872.23 340.56,-873.17"/>
<polygon fill="blue" stroke="blue" stroke-width="5" points="339.72,-877.47 350.23,-874.53 340.94,-868.8 339.72,-877.47"/>
</g>
<!-- AWC -->
<g id="node14" class="node">
<title>AWC</title>
<ellipse fill="none" stroke="black" cx="381.81" cy="-808" rx="32.6" ry="18"/>
<text text-anchor="middle" x="381.81" y="-802.58" font-family="Times New Roman,serif" font-size="14.00">AWC</text>
</g>
<!-- AIN&#45;&gt;AWC -->
<g id="edge14" class="edge">
<title>AIN&#45;&gt;AWC</title>
<path fill="none" stroke="gray" stroke-width="0.2" d="M297.09,-829.77C312.01,-823.12 326.8,-817.16 339.69,-812.68"/>
<polygon fill="gray" stroke="gray" stroke-width="0.2" points="340.47,-816.11 348.87,-809.66 338.28,-809.46 340.47,-816.11"/>
</g>
<!-- BAG -->
<g id="node15" class="node">
<title>BAG</title>
<ellipse fill="none" stroke="black" cx="381.81" cy="-729" rx="30.11" ry="18"/>
<text text-anchor="middle" x="381.81" y="-723.58" font-family="Times New Roman,serif" font-size="14.00">BAG</text>
</g>
<!-- AIN&#45;&gt;BAG -->
<g id="edge15" class="edge">
<title>AIN&#45;&gt;BAG</title>
<path fill="none" stroke="black" stroke-width="5" d="M277.73,-806.39C300.42,-785.17 324.59,-764.11 343.81,-749.02"/>
<polygon fill="black" stroke="black" stroke-width="5" points="346.24,-752.67 351.58,-743.15 340.96,-745.69 346.24,-752.67"/>
</g>
<!-- CEP -->
<g id="node16" class="node">
<title>CEP</title>
<ellipse fill="none" stroke="black" cx="381.81" cy="-650" rx="28.11" ry="18"/>
<text text-anchor="middle" x="381.81" y="-644.58" font-family="Times New Roman,serif" font-size="14.00">CEP</text>
</g>
<!-- AIN&#45;&gt;CEP -->
<g id="edge16" class="edge">
<title>AIN&#45;&gt;CEP</title>
<path fill="none" stroke="red" stroke-width="0.2" d="M260.88,-793.97C301.25,-733.9 349.21,-667.5 349.21,-667.5 349.21,-667.5 349.53,-667.11 350.1,-666.43"/>
<polygon fill="red" stroke="red" stroke-width="0.2" points="352.67,-668.81 356.66,-658.99 347.42,-664.17 352.67,-668.81"/>
</g>
<!-- RIA -->
<g id="node17" class="node">
<title>RIA</title>
<ellipse fill="none" stroke="black" cx="381.81" cy="-571" rx="27" ry="18"/>
<text text-anchor="middle" x="381.81" y="-565.58" font-family="Times New Roman,serif" font-size="14.00">RIA</text>
</g>
<!-- AIN&#45;&gt;RIA -->
<g id="edge17" class="edge">
<title>AIN&#45;&gt;RIA</title>
<path fill="none" stroke="gray" stroke-width="2" d="M255.62,-791.28C296.96,-711.22 349.21,-610 349.21,-610 349.21,-610 354.15,-603.9 360.13,-596.52"/>
<polygon fill="gray" stroke="gray" stroke-width="2" points="362.48,-599.19 366.05,-589.21 357.04,-594.78 362.48,-599.19"/>
</g>
<!-- RIB -->
<g id="node18" class="node">
<title>RIB</title>
<ellipse fill="none" stroke="black" cx="381.81" cy="-492" rx="27" ry="18"/>
<text text-anchor="middle" x="381.81" y="-486.57" font-family="Times New Roman,serif" font-size="14.00">RIB</text>
</g>
<!-- AIN&#45;&gt;RIB -->
<g id="edge18" class="edge">
<title>AIN&#45;&gt;RIB</title>
<path fill="none" stroke="black" stroke-width="5" d="M241.19,-785.11C277.08,-690.09 329.74,-558.13 350.01,-514.38"/>
<polygon fill="black" stroke="black" stroke-width="5" points="353.85,-516.48 354.62,-505.59 346.1,-512.42 353.85,-516.48"/>
</g>
<!-- RID -->
<g id="node19" class="node">
<title>RID</title>
<ellipse fill="none" stroke="black" cx="381.81" cy="-413" rx="27" ry="18"/>
<text text-anchor="middle" x="381.81" y="-407.57" font-family="Times New Roman,serif" font-size="14.00">RID</text>
</g>
<!-- AIN&#45;&gt;RID -->
<g id="edge19" class="edge">
<title>AIN&#45;&gt;RID</title>
<path fill="none" stroke="red" stroke-width="2" d="M239.92,-784.46C282.2,-655.86 349.21,-452 349.21,-452 349.21,-452 354.15,-445.9 360.13,-438.52"/>
<polygon fill="red" stroke="red" stroke-width="2" points="362.48,-441.19 366.05,-431.21 357.04,-436.78 362.48,-441.19"/>
</g>
<!-- RIM -->
<g id="node20" class="node">
<title>RIM</title>
<ellipse fill="none" stroke="black" cx="381.81" cy="-334" rx="28.11" ry="18"/>
<text text-anchor="middle" x="381.81" y="-328.57" font-family="Times New Roman,serif" font-size="14.00">RIM</text>
</g>
<!-- AIN&#45;&gt;RIM -->
<g id="edge20" class="edge">
<title>AIN&#45;&gt;RIM</title>
<path fill="none" stroke="gray" stroke-width="0.2" d="M235.15,-782.98C276.93,-632.79 349.21,-373 349.21,-373 349.21,-373 354.95,-365.91 361.54,-357.78"/>
<polygon fill="gray" stroke="gray" stroke-width="0.2" points="364.19,-360.07 367.77,-350.1 358.75,-355.66 364.19,-360.07"/>
</g>
<!-- RMD -->
<g id="node21" class="node">
<title>RMD</title>
<ellipse fill="none" stroke="black" cx="381.81" cy="-255" rx="31.6" ry="18"/>
<text text-anchor="middle" x="381.81" y="-249.57" font-family="Times New Roman,serif" font-size="14.00">RMD</text>
</g>
<!-- AIN&#45;&gt;RMD -->
<g id="edge21" class="edge">
<title>AIN&#45;&gt;RMD</title>
<path fill="none" stroke="gray" stroke-width="0.2" d="M231.53,-782.01C272.6,-611.69 349.21,-294 349.21,-294 349.21,-294 354.91,-286.97 361.47,-278.87"/>
<polygon fill="gray" stroke="gray" stroke-width="0.2" points="363.83,-281.52 367.4,-271.55 358.39,-277.11 363.83,-281.52"/>
</g>
<!-- RMF -->
<g id="node22" class="node">
<title>RMF</title>
<ellipse fill="none" stroke="black" cx="381.81" cy="-176" rx="30.61" ry="18"/>
<text text-anchor="middle" x="381.81" y="-170.57" font-family="Times New Roman,serif" font-size="14.00">RMF</text>
</g>
<!-- AIN&#45;&gt;RMF -->
<g id="edge22" class="edge">
<title>AIN&#45;&gt;RMF</title>
<path fill="none" stroke="gray" stroke-width="0.2" d="M228.71,-781.26C268.98,-592.02 349.21,-215 349.21,-215 349.21,-215 354.91,-207.97 361.47,-199.87"/>
<polygon fill="gray" stroke="gray" stroke-width="0.2" points="363.83,-202.52 367.4,-192.55 358.39,-198.11 363.83,-202.52"/>
</g>
<!-- SAA -->
<g id="node23" class="node">
<title>SAA</title>
<ellipse fill="none" stroke="black" cx="381.81" cy="-97" rx="29.11" ry="18"/>
<text text-anchor="middle" x="381.81" y="-91.58" font-family="Times New Roman,serif" font-size="14.00">SAA</text>
</g>
<!-- AIN&#45;&gt;SAA -->
<g id="edge23" class="edge">
<title>AIN&#45;&gt;SAA</title>
<path fill="none" stroke="gray" stroke-width="0.2" d="M226.4,-780.99C265.81,-573.98 349.21,-136 349.21,-136 349.21,-136 354.95,-128.91 361.54,-120.78"/>
<polygon fill="gray" stroke="gray" stroke-width="0.2" points="364.19,-123.07 367.77,-113.1 358.75,-118.66 364.19,-123.07"/>
</g>
<!-- URX -->
<g id="node24" class="node">
<title>URX</title>
<ellipse fill="none" stroke="black" cx="381.81" cy="-18" rx="30.11" ry="18"/>
<text text-anchor="middle" x="381.81" y="-12.57" font-family="Times New Roman,serif" font-size="14.00">URX</text>
</g>
<!-- AIN&#45;&gt;URX -->
<g id="edge24" class="edge">
<title>AIN&#45;&gt;URX</title>
<path fill="none" stroke="gray" stroke-width="0.2" d="M222.75,-780C257.6,-567.99 336.31,-110.44 353.12,-37.57"/>
<polygon fill="gray" stroke="gray" stroke-width="0.2" points="356.45,-38.66 355.83,-28.08 349.72,-36.74 356.45,-38.66"/>
</g>
<!-- ADF&#45;&gt;AIN -->
<g id="edge25" class="edge">
<title>ADF&#45;&gt;AIN</title>
<path fill="none" stroke="gray" stroke-width="0.2" d="M356.54,-1746.89C352.3,-1742.31 349.21,-1738.5 349.21,-1738.5 349.21,-1738.5 262.89,-1237.5 224.38,-1003.9"/>
<polygon fill="gray" stroke="gray" stroke-width="0.2" points="227.88,-1003.6 222.8,-994.3 220.97,-1004.73 227.88,-1003.6"/>
</g>
<!-- AFD&#45;&gt;AIN -->
<g id="edge26" class="edge">
<title>AFD&#45;&gt;AIN</title>
<path fill="none" stroke="gray" stroke-width="2" d="M356.54,-1667.89C352.3,-1663.31 349.21,-1659.5 349.21,-1659.5 349.21,-1659.5 266.14,-1223.25 226.63,-1006.22"/>
<polygon fill="gray" stroke="gray" stroke-width="2" points="230.09,-1005.71 224.86,-996.49 223.21,-1006.96 230.09,-1005.71"/>
</g>
<!-- AIY&#45;&gt;AIN -->
<g id="edge27" class="edge">
<title>AIY&#45;&gt;AIN</title>
<path fill="none" stroke="gray" stroke-width="0.2" d="M357.51,-1431.93C352.78,-1426.9 349.21,-1422.5 349.21,-1422.5 349.21,-1422.5 276.01,-1159.37 234.35,-1001.77"/>
<polygon fill="gray" stroke="gray" stroke-width="0.2" points="237.79,-1001.08 231.85,-992.31 231.02,-1002.87 237.79,-1001.08"/>
</g>
<!-- ASE&#45;&gt;AIN -->
<g id="edge28" class="edge">
<title>ASE&#45;&gt;AIN</title>
<path fill="none" stroke="gray" stroke-width="0.2" d="M356.86,-1273.23C352.45,-1268.5 349.21,-1264.5 349.21,-1264.5 349.21,-1264.5 287.07,-1109.8 244.72,-998.2"/>
<polygon fill="gray" stroke="gray" stroke-width="0.2" points="248.11,-997.29 241.3,-989.18 241.57,-999.77 248.11,-997.29"/>
</g>
<!-- ASG&#45;&gt;AIN -->
<g id="edge29" class="edge">
<title>ASG&#45;&gt;AIN</title>
<path fill="none" stroke="gray" stroke-width="0.2" d="M356.22,-1193.55C352.14,-1189.12 349.21,-1185.5 349.21,-1185.5 349.21,-1185.5 295.13,-1080.75 253.49,-995.08"/>
<polygon fill="gray" stroke="gray" stroke-width="0.2" points="256.76,-993.8 249.25,-986.33 250.46,-996.86 256.76,-993.8"/>
</g>
<!-- AUA&#45;&gt;AIN -->
<g id="edge30" class="edge">
<title>AUA&#45;&gt;AIN</title>
<path fill="none" stroke="gray" stroke-width="2" d="M356.55,-1034.62C338.35,-1021.46 312.31,-999.41 287,-976.2"/>
<polygon fill="gray" stroke="gray" stroke-width="2" points="289.67,-973.89 279.95,-969.67 284.91,-979.03 289.67,-973.89"/>
</g>
<!-- AWA&#45;&gt;AIN -->
<g id="edge31" class="edge">
<title>AWA&#45;&gt;AIN</title>
<path fill="none" stroke="gray" stroke-width="2" d="M356.41,-898.6C347.57,-900.2 336.89,-901.38 325.36,-902.13"/>
<polygon fill="gray" stroke="gray" stroke-width="2" points="325.39,-898.62 315.58,-902.63 325.74,-905.62 325.39,-898.62"/>
</g>
<!-- AWC&#45;&gt;AIN -->
<g id="edge32" class="edge">
<title>AWC&#45;&gt;AIN</title>
<path fill="none" stroke="gray" stroke-width="0.2" d="M366.04,-824.16C354.46,-832.51 337.17,-842.36 318.17,-851.88"/>
<polygon fill="gray" stroke="gray" stroke-width="0.2" points="316.74,-848.68 309.31,-856.24 319.83,-854.97 316.74,-848.68"/>
</g>
<!-- BAG&#45;&gt;AIN -->
<g id="edge33" class="edge">
<title>BAG&#45;&gt;AIN</title>
<path fill="none" stroke="gray" stroke-width="0.2" d="M370.92,-745.92C356.77,-763.73 329.3,-791.3 300.78,-817.5"/>
<polygon fill="gray" stroke="gray" stroke-width="0.2" points="298.77,-814.6 293.73,-823.92 303.48,-819.77 298.77,-814.6"/>
</g>
<!-- CEP&#45;&gt;AIN -->
<g id="edge34" class="edge">
<title>CEP&#45;&gt;AIN</title>
<path fill="none" stroke="gray" stroke-width="0.2" d="M376.15,-667.9C367.36,-688.1 349.21,-710.5 349.21,-710.5 349.21,-710.5 317.52,-754.38 283.98,-798.58"/>
<polygon fill="gray" stroke="gray" stroke-width="0.2" points="281.37,-796.22 278.1,-806.3 286.94,-800.46 281.37,-796.22"/>
</g>
<!-- RIB&#45;&gt;AIN -->
<g id="edge35" class="edge">
<title>RIB&#45;&gt;AIN</title>
<path fill="none" stroke="gray" stroke-width="0.2" d="M376.15,-509.9C367.36,-530.1 349.21,-552.5 349.21,-552.5 349.21,-552.5 297.28,-681.79 256.01,-779.83"/>
<polygon fill="gray" stroke="gray" stroke-width="0.2" points="252.83,-778.36 252.16,-788.94 259.28,-781.08 252.83,-778.36"/>
</g>
<!-- URX&#45;&gt;AIN -->
<g id="edge36" class="edge">
<title>URX&#45;&gt;AIN</title>
<path fill="none" stroke="gray" stroke-width="0.2" d="M376.15,-35.9C367.36,-56.1 349.21,-78.5 349.21,-78.5 349.21,-78.5 268.45,-547.27 228.31,-771.11"/>
<polygon fill="gray" stroke="gray" stroke-width="0.2" points="224.92,-770.16 226.6,-780.63 231.81,-771.4 224.92,-770.16"/>
</g>
<!-- ADE -->
<g id="node25" class="node">
<title>ADE</title>
<ellipse fill="none" stroke="black" cx="30.61" cy="-1085" rx="29.11" ry="18"/>
<text text-anchor="middle" x="30.61" y="-1079.58" font-family="Times New Roman,serif" font-size="14.00">ADE</text>
</g>
<!-- ADE&#45;&gt;AIN -->
<g id="edge37" class="edge">
<title>ADE&#45;&gt;AIN</title>
<path fill="none" stroke="gray" stroke-width="0.2" d="M45.44,-1069.13C63.36,-1048.57 96.01,-1011.12 127.05,-975.51"/>
<polygon fill="gray" stroke="gray" stroke-width="0.2" points="129.52,-978.01 133.45,-968.17 124.24,-973.41 129.52,-978.01"/>
</g>
<!-- ALM -->
<g id="node26" class="node">
<title>ALM</title>
<ellipse fill="none" stroke="black" cx="30.61" cy="-1006" rx="30.61" ry="18"/>
<text text-anchor="middle" x="30.61" y="-1000.58" font-family="Times New Roman,serif" font-size="14.00">ALM</text>
</g>
<!-- ALM&#45;&gt;AIN -->
<g id="edge38" class="edge">
<title>ALM&#45;&gt;AIN</title>
<path fill="none" stroke="gray" stroke-width="0.2" d="M51.41,-992.35C65.7,-982.5 86.16,-968.39 107.48,-953.69"/>
<polygon fill="gray" stroke="gray" stroke-width="0.2" points="109.19,-956.76 115.44,-948.2 105.22,-951 109.19,-956.76"/>
</g>
<!-- ASJ -->
<g id="node27" class="node">
<title>ASJ</title>
<ellipse fill="none" stroke="black" cx="30.61" cy="-927" rx="27" ry="18"/>
<text text-anchor="middle" x="30.61" y="-921.58" font-family="Times New Roman,serif" font-size="14.00">ASJ</text>
</g>
<!-- ASJ&#45;&gt;AIN -->
<g id="edge39" class="edge">
<title>ASJ&#45;&gt;AIN</title>
<path fill="none" stroke="gray" stroke-width="nan" d="M56.7,-921.18C68.58,-918.43 83.64,-914.94 99.57,-911.25"/>
<polygon fill="gray" stroke="gray" stroke-width="nan" points="nan,-nan nan,-nan nan,-nan nan,-nan"/>
</g>
<!-- ASK -->
<g id="node28" class="node">
<title>ASK</title>
<ellipse fill="none" stroke="black" cx="30.61" cy="-848" rx="29.11" ry="18"/>
<text text-anchor="middle" x="30.61" y="-842.58" font-family="Times New Roman,serif" font-size="14.00">ASK</text>
</g>
<!-- ASK&#45;&gt;AIN -->
<g id="edge40" class="edge">
<title>ASK&#45;&gt;AIN</title>
<path fill="none" stroke="gray" stroke-width="0.2" d="M58.2,-854.01C67.28,-856.06 78.1,-858.51 89.68,-861.12"/>
<polygon fill="gray" stroke="gray" stroke-width="0.2" points="88.75,-864.5 99.28,-863.29 90.29,-857.67 88.75,-864.5"/>
</g>
<!-- AVH -->
<g id="node29" class="node">
<title>AVH</title>
<ellipse fill="none" stroke="black" cx="30.61" cy="-769" rx="30.11" ry="18"/>
<text text-anchor="middle" x="30.61" y="-763.58" font-family="Times New Roman,serif" font-size="14.00">AVH</text>
</g>
<!-- AVH&#45;&gt;AIN -->
<g id="edge41" class="edge">
<title>AVH&#45;&gt;AIN</title>
<path fill="none" stroke="gray" stroke-width="0.2" d="M51.41,-782.54C65.63,-792.26 85.98,-806.17 107.2,-820.68"/>
<polygon fill="gray" stroke="gray" stroke-width="0.2" points="105.21,-823.56 115.44,-826.31 109.16,-817.78 105.21,-823.56"/>
</g>
<!-- AVJ -->
<g id="node30" class="node">
<title>AVJ</title>
<ellipse fill="none" stroke="black" cx="30.61" cy="-690" rx="27.11" ry="18"/>
<text text-anchor="middle" x="30.61" y="-684.58" font-family="Times New Roman,serif" font-size="14.00">AVJ</text>
</g>
<!-- AVJ&#45;&gt;AIN -->
<g id="edge42" class="edge">
<title>AVJ&#45;&gt;AIN</title>
<path fill="none" stroke="gray" stroke-width="0.2" d="M45.15,-705.46C62.96,-725.78 95.64,-763.08 126.77,-798.61"/>
<polygon fill="gray" stroke="gray" stroke-width="0.2" points="123.96,-800.72 133.18,-805.93 129.23,-796.11 123.96,-800.72"/>
</g>
</g>
</svg>
