<?xml version="1.0" encoding="UTF-8" standalone="no"?>
<!DOCTYPE svg PUBLIC "-//W3C//DTD SVG 1.1//EN"
 "http://www.w3.org/Graphics/SVG/1.1/DTD/svg11.dtd">
<!-- Generated by graphviz version 11.0.0 (20240428.1522)
 -->
<!-- Pages: 1 -->
<svg width="422pt" height="1624pt"
 viewBox="0.00 0.00 422.41 1624.00" xmlns="http://www.w3.org/2000/svg" xmlns:xlink="http://www.w3.org/1999/xlink">
<g id="graph0" class="graph" transform="scale(1 1) rotate(0) translate(4 1620)">
<polygon fill="white" stroke="none" points="-4,4 -4,-1620 418.41,-1620 418.41,4 -4,4"/>
<!-- AIY -->
<g id="node1" class="node">
<title>AIY</title>
<ellipse fill="none" stroke="black" cx="205.21" cy="-926" rx="108" ry="108"/>
<text text-anchor="middle" x="205.21" y="-907" font-family="Times New Roman,serif" font-size="50.00">AIY</text>
</g>
<!-- AIY&#45;&gt;AIY -->
<g id="edge1" class="edge">
<title>AIY&#45;&gt;AIY</title>
<path fill="none" stroke="gray" stroke-width="5" d="M172.78,-1029.39C174.71,-1056.51 185.52,-1077 205.21,-1077 220.83,-1077 230.86,-1064.12 235.3,-1045.26"/>
<polygon fill="gray" stroke="gray" stroke-width="5" points="239.6,-1046.1 236.73,-1035.56 230.94,-1044.82 239.6,-1046.1"/>
</g>
<!-- ADF -->
<g id="node2" class="node">
<title>ADF</title>
<ellipse fill="none" stroke="black" cx="381.81" cy="-1598" rx="29.11" ry="18"/>
<text text-anchor="middle" x="381.81" y="-1592.58" font-family="Times New Roman,serif" font-size="14.00">ADF</text>
</g>
<!-- AIY&#45;&gt;ADF -->
<g id="edge2" class="edge">
<title>AIY&#45;&gt;ADF</title>
<path fill="none" stroke="gray" stroke-width="5" d="M232.86,-1030.61C274.23,-1205.59 349.21,-1537.5 349.21,-1537.5 349.21,-1537.5 359.85,-1550.63 368.78,-1565.85"/>
<polygon fill="gray" stroke="gray" stroke-width="5" points="364.8,-1567.69 373.28,-1574.56 372.58,-1563.67 364.8,-1567.69"/>
</g>
<!-- AFD -->
<g id="node3" class="node">
<title>AFD</title>
<ellipse fill="none" stroke="black" cx="381.81" cy="-1519" rx="29.11" ry="18"/>
<text text-anchor="middle" x="381.81" y="-1513.58" font-family="Times New Roman,serif" font-size="14.00">AFD</text>
</g>
<!-- AIY&#45;&gt;AFD -->
<g id="edge3" class="edge">
<title>AIY&#45;&gt;AFD</title>
<path fill="none" stroke="gray" stroke-width="0.2" d="M236.62,-1029.79C278.61,-1184.99 349.21,-1458.5 349.21,-1458.5 349.21,-1458.5 362.37,-1474.74 371.71,-1492.04"/>
<polygon fill="gray" stroke="gray" stroke-width="0.2" points="368.47,-1493.39 376.02,-1500.83 374.76,-1490.31 368.47,-1493.39"/>
</g>
<!-- AIB -->
<g id="node4" class="node">
<title>AIB</title>
<ellipse fill="none" stroke="black" cx="381.81" cy="-1440" rx="27" ry="18"/>
<text text-anchor="middle" x="381.81" y="-1434.58" font-family="Times New Roman,serif" font-size="14.00">AIB</text>
</g>
<!-- AIY&#45;&gt;AIB -->
<g id="edge4" class="edge">
<title>AIY&#45;&gt;AIB</title>
<path fill="none" stroke="gray" stroke-width="5" d="M241.47,-1028.26C283.81,-1162.26 349.21,-1379.5 349.21,-1379.5 349.21,-1379.5 359.85,-1392.63 368.78,-1407.85"/>
<polygon fill="gray" stroke="gray" stroke-width="5" points="364.8,-1409.69 373.28,-1416.56 372.58,-1405.67 364.8,-1409.69"/>
</g>
<!-- AIN -->
<g id="node5" class="node">
<title>AIN</title>
<ellipse fill="none" stroke="black" cx="381.81" cy="-1361" rx="27" ry="18"/>
<text text-anchor="middle" x="381.81" y="-1355.58" font-family="Times New Roman,serif" font-size="14.00">AIN</text>
</g>
<!-- AIY&#45;&gt;AIN -->
<g id="edge5" class="edge">
<title>AIY&#45;&gt;AIN</title>
<path fill="none" stroke="gray" stroke-width="0.2" d="M247.86,-1025.56C290.07,-1136.74 349.21,-1300.5 349.21,-1300.5 349.21,-1300.5 362.37,-1316.74 371.71,-1334.04"/>
<polygon fill="gray" stroke="gray" stroke-width="0.2" points="368.47,-1335.39 376.02,-1342.83 374.76,-1332.31 368.47,-1335.39"/>
</g>
<!-- AIZ -->
<g id="node6" class="node">
<title>AIZ</title>
<ellipse fill="none" stroke="black" cx="381.81" cy="-1282" rx="27" ry="18"/>
<text text-anchor="middle" x="381.81" y="-1276.58" font-family="Times New Roman,serif" font-size="14.00">AIZ</text>
</g>
<!-- AIY&#45;&gt;AIZ -->
<g id="edge6" class="edge">
<title>AIY&#45;&gt;AIZ</title>
<path fill="none" stroke="black" stroke-width="5" d="M256.83,-1021.32C297.96,-1107.9 349.21,-1221.5 349.21,-1221.5 349.21,-1221.5 359.85,-1234.63 368.78,-1249.85"/>
<polygon fill="black" stroke="black" stroke-width="5" points="364.8,-1251.69 373.28,-1258.56 372.58,-1247.67 364.8,-1251.69"/>
</g>
<!-- ASE -->
<g id="node7" class="node">
<title>ASE</title>
<ellipse fill="none" stroke="black" cx="381.81" cy="-1203" rx="28.11" ry="18"/>
<text text-anchor="middle" x="381.81" y="-1197.58" font-family="Times New Roman,serif" font-size="14.00">ASE</text>
</g>
<!-- AIY&#45;&gt;ASE -->
<g id="edge7" class="edge">
<title>AIY&#45;&gt;ASE</title>
<path fill="none" stroke="gray" stroke-width="5" d="M269.56,-1013.28C307.81,-1073.59 349.21,-1142.5 349.21,-1142.5 349.21,-1142.5 359.85,-1155.63 368.78,-1170.85"/>
<polygon fill="gray" stroke="gray" stroke-width="5" points="364.8,-1172.69 373.28,-1179.56 372.58,-1168.67 364.8,-1172.69"/>
</g>
<!-- ASG -->
<g id="node8" class="node">
<title>ASG</title>
<ellipse fill="none" stroke="black" cx="381.81" cy="-1124" rx="29.61" ry="18"/>
<text text-anchor="middle" x="381.81" y="-1118.58" font-family="Times New Roman,serif" font-size="14.00">ASG</text>
</g>
<!-- AIY&#45;&gt;ASG -->
<g id="edge8" class="edge">
<title>AIY&#45;&gt;ASG</title>
<path fill="none" stroke="gray" stroke-width="0.2" d="M285.08,-999.38C315.96,-1033.91 348.26,-1072.76 366.33,-1098.19"/>
<polygon fill="gray" stroke="gray" stroke-width="0.2" points="363.39,-1100.08 371.94,-1106.34 369.16,-1096.12 363.39,-1100.08"/>
</g>
<!-- ASH -->
<g id="node9" class="node">
<title>ASH</title>
<ellipse fill="none" stroke="black" cx="381.81" cy="-1045" rx="29.11" ry="18"/>
<text text-anchor="middle" x="381.81" y="-1039.58" font-family="Times New Roman,serif" font-size="14.00">ASH</text>
</g>
<!-- AIY&#45;&gt;ASH -->
<g id="edge9" class="edge">
<title>AIY&#45;&gt;ASH</title>
<path fill="none" stroke="gray" stroke-width="0.2" d="M301.68,-975.01C324.74,-991.08 347.02,-1008.13 362.03,-1021.74"/>
<polygon fill="gray" stroke="gray" stroke-width="0.2" points="359.3,-1023.97 368.97,-1028.31 364.12,-1018.89 359.3,-1023.97"/>
</g>
<!-- AUA -->
<g id="node10" class="node">
<title>AUA</title>
<ellipse fill="none" stroke="black" cx="381.81" cy="-966" rx="30.11" ry="18"/>
<text text-anchor="middle" x="381.81" y="-960.58" font-family="Times New Roman,serif" font-size="14.00">AUA</text>
</g>
<!-- AIY&#45;&gt;AUA -->
<g id="edge10" class="edge">
<title>AIY&#45;&gt;AUA</title>
<path fill="none" stroke="gray" stroke-width="0.2" d="M313.31,-934.78C328.16,-938.76 342.2,-943.2 353.59,-947.68"/>
<polygon fill="gray" stroke="gray" stroke-width="0.2" points="352.02,-950.82 362.6,-951.5 354.76,-944.37 352.02,-950.82"/>
</g>
<!-- AVB -->
<g id="node11" class="node">
<title>AVB</title>
<ellipse fill="none" stroke="black" cx="381.81" cy="-887" rx="29.61" ry="18"/>
<text text-anchor="middle" x="381.81" y="-881.58" font-family="Times New Roman,serif" font-size="14.00">AVB</text>
</g>
<!-- AIY&#45;&gt;AVB -->
<g id="edge11" class="edge">
<title>AIY&#45;&gt;AVB</title>
<path fill="none" stroke="gray" stroke-width="0.2" d="M311.05,-902.58C322.66,-899.99 333.84,-897.49 343.72,-895.28"/>
<polygon fill="gray" stroke="gray" stroke-width="0.2" points="344.22,-898.76 353.21,-893.16 342.69,-891.93 344.22,-898.76"/>
</g>
<!-- AWA -->
<g id="node12" class="node">
<title>AWA</title>
<ellipse fill="none" stroke="black" cx="381.81" cy="-808" rx="32.6" ry="18"/>
<text text-anchor="middle" x="381.81" y="-802.58" font-family="Times New Roman,serif" font-size="14.00">AWA</text>
</g>
<!-- AIY&#45;&gt;AWA -->
<g id="edge12" class="edge">
<title>AIY&#45;&gt;AWA</title>
<path fill="none" stroke="gray" stroke-width="2" d="M287.12,-855.23C305.64,-842.49 324.55,-830.46 340.48,-821.42"/>
<polygon fill="gray" stroke="gray" stroke-width="2" points="341.76,-824.71 348.85,-816.84 338.4,-818.57 341.76,-824.71"/>
</g>
<!-- AWB -->
<g id="node13" class="node">
<title>AWB</title>
<ellipse fill="none" stroke="black" cx="381.81" cy="-729" rx="32.1" ry="18"/>
<text text-anchor="middle" x="381.81" y="-723.58" font-family="Times New Roman,serif" font-size="14.00">AWB</text>
</g>
<!-- AIY&#45;&gt;AWB -->
<g id="edge13" class="edge">
<title>AIY&#45;&gt;AWB</title>
<path fill="none" stroke="gray" stroke-width="0.2" d="M269.49,-839.03C297.9,-805.63 329.99,-770.52 352.39,-748.79"/>
<polygon fill="gray" stroke="gray" stroke-width="0.2" points="354.53,-751.58 359.38,-742.16 349.71,-746.5 354.53,-751.58"/>
</g>
<!-- AWC -->
<g id="node14" class="node">
<title>AWC</title>
<ellipse fill="none" stroke="black" cx="381.81" cy="-650" rx="32.6" ry="18"/>
<text text-anchor="middle" x="381.81" y="-644.58" font-family="Times New Roman,serif" font-size="14.00">AWC</text>
</g>
<!-- AIY&#45;&gt;AWC -->
<g id="edge14" class="edge">
<title>AIY&#45;&gt;AWC</title>
<path fill="none" stroke="gray" stroke-width="2" d="M254.42,-829.48C288.64,-768.74 330.85,-698.09 347.87,-671.37"/>
<polygon fill="gray" stroke="gray" stroke-width="2" points="350.62,-673.54 353.31,-663.3 344.82,-669.63 350.62,-673.54"/>
</g>
<!-- BAG -->
<g id="node15" class="node">
<title>BAG</title>
<ellipse fill="none" stroke="black" cx="381.81" cy="-571" rx="30.11" ry="18"/>
<text text-anchor="middle" x="381.81" y="-565.58" font-family="Times New Roman,serif" font-size="14.00">BAG</text>
</g>
<!-- AIY&#45;&gt;BAG -->
<g id="edge15" class="edge">
<title>AIY&#45;&gt;BAG</title>
<path fill="none" stroke="red" stroke-width="0.2" d="M244.91,-825.12C281.96,-737.87 334.03,-622.14 350.96,-589.41"/>
<polygon fill="red" stroke="red" stroke-width="0.2" points="353.81,-591.47 355.76,-581.05 347.74,-587.98 353.81,-591.47"/>
</g>
<!-- HSN -->
<g id="node16" class="node">
<title>HSN</title>
<ellipse fill="none" stroke="black" cx="381.81" cy="-492" rx="29.11" ry="18"/>
<text text-anchor="middle" x="381.81" y="-486.57" font-family="Times New Roman,serif" font-size="14.00">HSN</text>
</g>
<!-- AIY&#45;&gt;HSN -->
<g id="edge16" class="edge">
<title>AIY&#45;&gt;HSN</title>
<path fill="none" stroke="gray" stroke-width="0.2" d="M242.94,-824.53C285.31,-707.5 349.21,-531 349.21,-531 349.21,-531 354.95,-523.91 361.54,-515.78"/>
<polygon fill="gray" stroke="gray" stroke-width="0.2" points="364.19,-518.07 367.77,-508.1 358.75,-513.66 364.19,-518.07"/>
</g>
<!-- RIA -->
<g id="node17" class="node">
<title>RIA</title>
<ellipse fill="none" stroke="black" cx="381.81" cy="-413" rx="27" ry="18"/>
<text text-anchor="middle" x="381.81" y="-407.57" font-family="Times New Roman,serif" font-size="14.00">RIA</text>
</g>
<!-- AIY&#45;&gt;RIA -->
<g id="edge17" class="edge">
<title>AIY&#45;&gt;RIA</title>
<path fill="none" stroke="black" stroke-width="5" d="M237.42,-822.56C279.49,-683.09 349.21,-452 349.21,-452 349.21,-452 352.92,-447.42 357.8,-441.39"/>
<polygon fill="black" stroke="black" stroke-width="5" points="361.13,-444.23 364.03,-433.71 354.34,-438.72 361.13,-444.23"/>
</g>
<!-- RIB -->
<g id="node18" class="node">
<title>RIB</title>
<ellipse fill="none" stroke="black" cx="381.81" cy="-334" rx="27" ry="18"/>
<text text-anchor="middle" x="381.81" y="-328.57" font-family="Times New Roman,serif" font-size="14.00">RIB</text>
</g>
<!-- AIY&#45;&gt;RIB -->
<g id="edge18" class="edge">
<title>AIY&#45;&gt;RIB</title>
<path fill="none" stroke="black" stroke-width="5" d="M233.28,-821.33C274.73,-661.01 349.21,-373 349.21,-373 349.21,-373 352.92,-368.42 357.8,-362.39"/>
<polygon fill="black" stroke="black" stroke-width="5" points="361.13,-365.23 364.03,-354.71 354.34,-359.72 361.13,-365.23"/>
</g>
<!-- RIH -->
<g id="node19" class="node">
<title>RIH</title>
<ellipse fill="none" stroke="black" cx="381.81" cy="-255" rx="27" ry="18"/>
<text text-anchor="middle" x="381.81" y="-249.57" font-family="Times New Roman,serif" font-size="14.00">RIH</text>
</g>
<!-- AIY&#45;&gt;RIH -->
<g id="edge19" class="edge">
<title>AIY&#45;&gt;RIH</title>
<path fill="none" stroke="gray" stroke-width="0.2" d="M227.46,-819.89C267.3,-634.51 349.21,-272.5 349.21,-272.5 349.21,-272.5 349.8,-271.77 350.82,-270.57"/>
<polygon fill="gray" stroke="gray" stroke-width="0.2" points="353.26,-273.09 357.31,-263.29 348.04,-268.42 353.26,-273.09"/>
</g>
<!-- RIM -->
<g id="node20" class="node">
<title>RIM</title>
<ellipse fill="none" stroke="black" cx="381.81" cy="-176" rx="28.11" ry="18"/>
<text text-anchor="middle" x="381.81" y="-170.57" font-family="Times New Roman,serif" font-size="14.00">RIM</text>
</g>
<!-- AIY&#45;&gt;RIM -->
<g id="edge20" class="edge">
<title>AIY&#45;&gt;RIM</title>
<path fill="none" stroke="gray" stroke-width="nan" d="M227.54,-819.94C267.41,-621.74 349.21,-215 349.21,-215 349.21,-215 359.21,-202.66 367.96,-191.86"/>
<polygon fill="gray" stroke="gray" stroke-width="nan" points="nan,-nan nan,-nan nan,-nan nan,-nan"/>
</g>
<!-- RIR -->
<g id="node21" class="node">
<title>RIR</title>
<ellipse fill="none" stroke="black" cx="381.81" cy="-97" rx="27" ry="18"/>
<text text-anchor="middle" x="381.81" y="-91.58" font-family="Times New Roman,serif" font-size="14.00">RIR</text>
</g>
<!-- AIY&#45;&gt;RIR -->
<g id="edge21" class="edge">
<title>AIY&#45;&gt;RIR</title>
<path fill="none" stroke="gray" stroke-width="0.2" d="M223.53,-819.12C261.6,-598.49 349.21,-114.5 349.21,-114.5 349.21,-114.5 349.8,-113.77 350.82,-112.57"/>
<polygon fill="gray" stroke="gray" stroke-width="0.2" points="353.26,-115.09 357.31,-105.29 348.04,-110.42 353.26,-115.09"/>
</g>
<!-- RIV -->
<g id="node22" class="node">
<title>RIV</title>
<ellipse fill="none" stroke="black" cx="381.81" cy="-18" rx="27" ry="18"/>
<text text-anchor="middle" x="381.81" y="-12.57" font-family="Times New Roman,serif" font-size="14.00">RIV</text>
</g>
<!-- AIY&#45;&gt;RIV -->
<g id="edge22" class="edge">
<title>AIY&#45;&gt;RIV</title>
<path fill="none" stroke="gray" stroke-width="0.2" d="M223.74,-819.44C261.93,-587.4 349.21,-57 349.21,-57 349.21,-57 354.95,-49.91 361.54,-41.78"/>
<polygon fill="gray" stroke="gray" stroke-width="0.2" points="364.19,-44.07 367.77,-34.1 358.75,-39.66 364.19,-44.07"/>
</g>
<!-- ADF&#45;&gt;AIY -->
<g id="edge23" class="edge">
<title>ADF&#45;&gt;AIY</title>
<path fill="none" stroke="gray" stroke-width="2" d="M356.54,-1588.89C352.3,-1584.31 349.21,-1580.5 349.21,-1580.5 349.21,-1580.5 270.76,-1233.23 230.07,-1044.39"/>
<polygon fill="gray" stroke="gray" stroke-width="2" points="233.55,-1043.9 228.02,-1034.86 226.7,-1045.38 233.55,-1043.9"/>
</g>
<!-- AFD&#45;&gt;AIY -->
<g id="edge24" class="edge">
<title>AFD&#45;&gt;AIY</title>
<path fill="none" stroke="black" stroke-width="5" d="M356.54,-1509.89C352.3,-1505.31 349.21,-1501.5 349.21,-1501.5 349.21,-1501.5 275.6,-1216.33 234.01,-1047.24"/>
<polygon fill="black" stroke="black" stroke-width="5" points="238.26,-1046.23 231.63,-1037.56 229.76,-1048.32 238.26,-1046.23"/>
</g>
<!-- AIB&#45;&gt;AIY -->
<g id="edge25" class="edge">
<title>AIB&#45;&gt;AIY</title>
<path fill="none" stroke="gray" stroke-width="0.2" d="M357.51,-1431.93C352.78,-1426.9 349.21,-1422.5 349.21,-1422.5 349.21,-1422.5 278.28,-1186.91 236.33,-1040.05"/>
<polygon fill="gray" stroke="gray" stroke-width="0.2" points="239.8,-1039.46 233.7,-1030.8 233.07,-1041.37 239.8,-1039.46"/>
</g>
<!-- AIN&#45;&gt;AIY -->
<g id="edge26" class="edge">
<title>AIN&#45;&gt;AIY</title>
<path fill="none" stroke="gray" stroke-width="0.2" d="M357.51,-1352.93C352.78,-1347.9 349.21,-1343.5 349.21,-1343.5 349.21,-1343.5 283.91,-1162.67 241.56,-1038.77"/>
<polygon fill="gray" stroke="gray" stroke-width="0.2" points="244.94,-1037.83 238.4,-1029.49 238.31,-1040.08 244.94,-1037.83"/>
</g>
<!-- AIZ&#45;&gt;AIY -->
<g id="edge27" class="edge">
<title>AIZ&#45;&gt;AIY</title>
<path fill="none" stroke="gray" stroke-width="2" d="M357.51,-1273.93C352.78,-1268.9 349.21,-1264.5 349.21,-1264.5 349.21,-1264.5 291.83,-1137.31 249.77,-1038.6"/>
<polygon fill="gray" stroke="gray" stroke-width="2" points="253.03,-1037.33 245.9,-1029.5 246.59,-1040.07 253.03,-1037.33"/>
</g>
<!-- ASE&#45;&gt;AIY -->
<g id="edge28" class="edge">
<title>ASE&#45;&gt;AIY</title>
<path fill="none" stroke="black" stroke-width="5" d="M356.86,-1194.23C352.45,-1189.5 349.21,-1185.5 349.21,-1185.5 349.21,-1185.5 302.24,-1107.32 262.14,-1036.53"/>
<polygon fill="black" stroke="black" stroke-width="5" points="266.01,-1034.5 257.29,-1027.93 258.39,-1038.79 266.01,-1034.5"/>
</g>
<!-- ASG&#45;&gt;AIY -->
<g id="edge29" class="edge">
<title>ASG&#45;&gt;AIY</title>
<path fill="none" stroke="gray" stroke-width="0.2" d="M360.01,-1111.31C339.22,-1092.04 306.08,-1056.11 275.89,-1020.84"/>
<polygon fill="gray" stroke="gray" stroke-width="0.2" points="278.84,-1018.91 269.69,-1013.56 273.51,-1023.45 278.84,-1018.91"/>
</g>
<!-- ASH&#45;&gt;AIY -->
<g id="edge30" class="edge">
<title>ASH&#45;&gt;AIY</title>
<path fill="none" stroke="gray" stroke-width="5" d="M354.26,-1038.87C339.49,-1031.29 320.12,-1019.46 300.28,-1006.19"/>
<polygon fill="gray" stroke="gray" stroke-width="5" points="302.75,-1002.58 292.02,-1000.57 297.82,-1009.81 302.75,-1002.58"/>
</g>
<!-- AUA&#45;&gt;AIY -->
<g id="edge31" class="edge">
<title>AUA&#45;&gt;AIY</title>
<path fill="none" stroke="gray" stroke-width="0.2" d="M352.78,-971.79C342.28,-971.07 329.61,-969.3 316.16,-966.82"/>
<polygon fill="gray" stroke="gray" stroke-width="0.2" points="317.04,-963.43 306.56,-964.95 315.7,-970.3 317.04,-963.43"/>
</g>
<!-- AWA&#45;&gt;AIY -->
<g id="edge32" class="edge">
<title>AWA&#45;&gt;AIY</title>
<path fill="none" stroke="gray" stroke-width="5" d="M368.72,-824.88C356.63,-836.79 336.74,-852.56 314.94,-868.2"/>
<polygon fill="gray" stroke="gray" stroke-width="5" points="312.69,-864.43 307.04,-873.77 317.73,-871.59 312.69,-864.43"/>
</g>
<!-- AWB&#45;&gt;AIY -->
<g id="edge33" class="edge">
<title>AWB&#45;&gt;AIY</title>
<path fill="none" stroke="black" stroke-width="5" d="M372.11,-746.36C357.55,-768.38 326.77,-805.97 295.63,-841.23"/>
<polygon fill="black" stroke="black" stroke-width="5" points="292.62,-838.03 289.23,-848.41 299.15,-843.86 292.62,-838.03"/>
</g>
<!-- AWC&#45;&gt;AIY -->
<g id="edge34" class="edge">
<title>AWC&#45;&gt;AIY</title>
<path fill="none" stroke="black" stroke-width="5" d="M376.01,-668.21C367.17,-688.33 349.21,-710.5 349.21,-710.5 349.21,-710.5 313.85,-769.1 278.3,-825.38"/>
<polygon fill="black" stroke="black" stroke-width="5" points="274.77,-822.78 273.11,-833.57 282.16,-827.47 274.77,-822.78"/>
</g>
<!-- BAG&#45;&gt;AIY -->
<g id="edge35" class="edge">
<title>BAG&#45;&gt;AIY</title>
<path fill="none" stroke="red" stroke-width="0.2" d="M376.15,-588.9C367.36,-609.1 349.21,-631.5 349.21,-631.5 349.21,-631.5 301.5,-736.92 261.2,-821.84"/>
<polygon fill="red" stroke="red" stroke-width="0.2" points="258.09,-820.23 256.96,-830.76 264.41,-823.23 258.09,-820.23"/>
</g>
<!-- RIH&#45;&gt;AIY -->
<g id="edge36" class="edge">
<title>RIH&#45;&gt;AIY</title>
<path fill="none" stroke="black" stroke-width="5" d="M376.15,-272.9C367.36,-293.1 349.21,-315.5 349.21,-315.5 349.21,-315.5 278.65,-627.34 236.66,-805.47"/>
<polygon fill="black" stroke="black" stroke-width="5" points="232.42,-804.41 234.37,-815.15 240.93,-806.42 232.42,-804.41"/>
</g>
<!-- RIR&#45;&gt;AIY -->
<g id="edge37" class="edge">
<title>RIR&#45;&gt;AIY</title>
<path fill="none" stroke="gray" stroke-width="0.2" d="M376.15,-114.9C367.36,-135.1 349.21,-157.5 349.21,-157.5 349.21,-157.5 270.04,-594.85 229.52,-809.88"/>
<polygon fill="gray" stroke="gray" stroke-width="0.2" points="226.09,-809.17 227.67,-819.65 232.97,-810.47 226.09,-809.17"/>
</g>
<!-- AIA -->
<g id="node23" class="node">
<title>AIA</title>
<ellipse fill="none" stroke="black" cx="30.61" cy="-1124" rx="27" ry="18"/>
<text text-anchor="middle" x="30.61" y="-1118.58" font-family="Times New Roman,serif" font-size="14.00">AIA</text>
</g>
<!-- AIA&#45;&gt;AIY -->
<g id="edge38" class="edge">
<title>AIA&#45;&gt;AIY</title>
<path fill="none" stroke="gray" stroke-width="2" d="M45.15,-1108.46C62.66,-1088.38 94.55,-1051.79 125.21,-1016.63"/>
<polygon fill="gray" stroke="gray" stroke-width="2" points="127.46,-1019.37 131.39,-1009.53 122.18,-1014.77 127.46,-1019.37"/>
</g>
<!-- AIM -->
<g id="node24" class="node">
<title>AIM</title>
<ellipse fill="none" stroke="black" cx="30.61" cy="-1045" rx="28.11" ry="18"/>
<text text-anchor="middle" x="30.61" y="-1039.58" font-family="Times New Roman,serif" font-size="14.00">AIM</text>
</g>
<!-- AIM&#45;&gt;AIY -->
<g id="edge39" class="edge">
<title>AIM&#45;&gt;AIY</title>
<path fill="none" stroke="gray" stroke-width="0.2" d="M50.41,-1032.04C64.74,-1022.16 85.68,-1007.72 107.51,-992.67"/>
<polygon fill="gray" stroke="gray" stroke-width="0.2" points="109.42,-995.6 115.67,-987.05 105.45,-989.84 109.42,-995.6"/>
</g>
<!-- ALM -->
<g id="node25" class="node">
<title>ALM</title>
<ellipse fill="none" stroke="black" cx="30.61" cy="-966" rx="30.61" ry="18"/>
<text text-anchor="middle" x="30.61" y="-960.58" font-family="Times New Roman,serif" font-size="14.00">ALM</text>
</g>
<!-- ALM&#45;&gt;AIY -->
<g id="edge40" class="edge">
<title>ALM&#45;&gt;AIY</title>
<path fill="none" stroke="gray" stroke-width="0.2" d="M59.34,-959.57C68.18,-957.52 78.58,-955.11 89.68,-952.54"/>
<polygon fill="gray" stroke="gray" stroke-width="0.2" points="90.34,-955.98 99.3,-950.31 88.76,-949.16 90.34,-955.98"/>
</g>
<!-- ASI -->
<g id="node26" class="node">
<title>ASI</title>
<ellipse fill="none" stroke="black" cx="30.61" cy="-887" rx="27" ry="18"/>
<text text-anchor="middle" x="30.61" y="-881.58" font-family="Times New Roman,serif" font-size="14.00">ASI</text>
</g>
<!-- ASI&#45;&gt;AIY -->
<g id="edge41" class="edge">
<title>ASI&#45;&gt;AIY</title>
<path fill="none" stroke="black" stroke-width="2" d="M56.7,-892.67C65.42,-894.64 75.86,-897 87.1,-899.54"/>
<polygon fill="black" stroke="black" stroke-width="2" points="86.09,-902.9 96.62,-901.69 87.64,-896.07 86.09,-902.9"/>
</g>
<!-- AVJ -->
<g id="node27" class="node">
<title>AVJ</title>
<ellipse fill="none" stroke="black" cx="30.61" cy="-808" rx="27.11" ry="18"/>
<text text-anchor="middle" x="30.61" y="-802.58" font-family="Times New Roman,serif" font-size="14.00">AVJ</text>
</g>
<!-- AVJ&#45;&gt;AIY -->
<g id="edge42" class="edge">
<title>AVJ&#45;&gt;AIY</title>
<path fill="none" stroke="gray" stroke-width="0.2" d="M50.41,-820.85C64.66,-830.6 85.45,-844.81 107.16,-859.65"/>
<polygon fill="gray" stroke="gray" stroke-width="0.2" points="105.03,-862.44 115.26,-865.19 108.98,-856.66 105.03,-862.44"/>
</g>
<!-- PVC -->
<g id="node28" class="node">
<title>PVC</title>
<ellipse fill="none" stroke="black" cx="30.61" cy="-729" rx="29.11" ry="18"/>
<text text-anchor="middle" x="30.61" y="-723.58" font-family="Times New Roman,serif" font-size="14.00">PVC</text>
</g>
<!-- PVC&#45;&gt;AIY -->
<g id="edge43" class="edge">
<title>PVC&#45;&gt;AIY</title>
<path fill="none" stroke="gray" stroke-width="0.2" d="M45.44,-744.79C63.29,-765.16 95.73,-802.19 126.66,-837.49"/>
<polygon fill="gray" stroke="gray" stroke-width="0.2" points="123.81,-839.55 133.04,-844.77 129.08,-834.94 123.81,-839.55"/>
</g>
</g>
</svg>
