<?xml version="1.0" encoding="UTF-8" standalone="no"?>
<!DOCTYPE svg PUBLIC "-//W3C//DTD SVG 1.1//EN"
 "http://www.w3.org/Graphics/SVG/1.1/DTD/svg11.dtd">
<!-- Generated by graphviz version 11.0.0 (20240428.1522)
 -->
<!-- Pages: 1 -->
<svg width="421pt" height="2572pt"
 viewBox="0.00 0.00 421.41 2572.00" xmlns="http://www.w3.org/2000/svg" xmlns:xlink="http://www.w3.org/1999/xlink">
<g id="graph0" class="graph" transform="scale(1 1) rotate(0) translate(4 2568)">
<polygon fill="white" stroke="none" points="-4,4 -4,-2568 417.41,-2568 417.41,4 -4,4"/>
<!-- AIZ -->
<g id="node1" class="node">
<title>AIZ</title>
<ellipse fill="none" stroke="black" cx="204.21" cy="-1282" rx="108" ry="108"/>
<text text-anchor="middle" x="204.21" y="-1263" font-family="Times New Roman,serif" font-size="50.00">AIZ</text>
</g>
<!-- AIZ&#45;&gt;AIZ -->
<g id="edge1" class="edge">
<title>AIZ&#45;&gt;AIZ</title>
<path fill="none" stroke="gray" stroke-width="2" d="M171.88,-1385.39C173.8,-1412.51 184.57,-1433 204.21,-1433 220.63,-1433 230.85,-1418.68 234.89,-1398.14"/>
<polygon fill="gray" stroke="gray" stroke-width="2" points="238.34,-1398.76 236.16,-1388.4 231.39,-1397.86 238.34,-1398.76"/>
</g>
<!-- ADA -->
<g id="node2" class="node">
<title>ADA</title>
<ellipse fill="none" stroke="black" cx="380.81" cy="-2546" rx="30.11" ry="18"/>
<text text-anchor="middle" x="380.81" y="-2540.57" font-family="Times New Roman,serif" font-size="14.00">ADA</text>
</g>
<!-- AIZ&#45;&gt;ADA -->
<g id="edge2" class="edge">
<title>AIZ&#45;&gt;ADA</title>
<path fill="none" stroke="gray" stroke-width="nan" d="M218.92,-1389.32C254.72,-1684.57 348.21,-2485.5 348.21,-2485.5 348.21,-2485.5 366.36,-2507.9 375.15,-2528.1"/>
<polygon fill="gray" stroke="gray" stroke-width="nan" points="nan,-nan nan,-nan nan,-nan nan,-nan"/>
</g>
<!-- ADF -->
<g id="node3" class="node">
<title>ADF</title>
<ellipse fill="none" stroke="black" cx="380.81" cy="-2467" rx="29.11" ry="18"/>
<text text-anchor="middle" x="380.81" y="-2461.57" font-family="Times New Roman,serif" font-size="14.00">ADF</text>
</g>
<!-- AIZ&#45;&gt;ADF -->
<g id="edge3" class="edge">
<title>AIZ&#45;&gt;ADF</title>
<path fill="none" stroke="gray" stroke-width="2" d="M219.91,-1389.35C256.4,-1670.73 348.21,-2406.5 348.21,-2406.5 348.21,-2406.5 360.19,-2421.29 369.4,-2437.67"/>
<polygon fill="gray" stroke="gray" stroke-width="2" points="366.17,-2439.04 373.79,-2446.4 372.42,-2435.89 366.17,-2439.04"/>
</g>
<!-- AFD -->
<g id="node4" class="node">
<title>AFD</title>
<ellipse fill="none" stroke="black" cx="380.81" cy="-2388" rx="29.11" ry="18"/>
<text text-anchor="middle" x="380.81" y="-2382.57" font-family="Times New Roman,serif" font-size="14.00">AFD</text>
</g>
<!-- AIZ&#45;&gt;AFD -->
<g id="edge4" class="edge">
<title>AIZ&#45;&gt;AFD</title>
<path fill="none" stroke="gray" stroke-width="0.2" d="M220.99,-1388.99C258.18,-1655.74 348.21,-2327.5 348.21,-2327.5 348.21,-2327.5 361.37,-2343.74 370.71,-2361.04"/>
<polygon fill="gray" stroke="gray" stroke-width="0.2" points="367.47,-2362.39 375.02,-2369.83 373.76,-2359.31 367.47,-2362.39"/>
</g>
<!-- AIA -->
<g id="node5" class="node">
<title>AIA</title>
<ellipse fill="none" stroke="black" cx="380.81" cy="-2309" rx="27" ry="18"/>
<text text-anchor="middle" x="380.81" y="-2303.57" font-family="Times New Roman,serif" font-size="14.00">AIA</text>
</g>
<!-- AIZ&#45;&gt;AIA -->
<g id="edge5" class="edge">
<title>AIZ&#45;&gt;AIA</title>
<path fill="none" stroke="red" stroke-width="5" d="M222.25,-1388.59C260.17,-1640.18 348.21,-2248.5 348.21,-2248.5 348.21,-2248.5 358.85,-2261.63 367.78,-2276.85"/>
<polygon fill="red" stroke="red" stroke-width="5" points="363.81,-2278.69 372.29,-2285.56 371.58,-2274.67 363.81,-2278.69"/>
</g>
<!-- AIB -->
<g id="node6" class="node">
<title>AIB</title>
<ellipse fill="none" stroke="black" cx="380.81" cy="-2230" rx="27" ry="18"/>
<text text-anchor="middle" x="380.81" y="-2224.57" font-family="Times New Roman,serif" font-size="14.00">AIB</text>
</g>
<!-- AIZ&#45;&gt;AIB -->
<g id="edge6" class="edge">
<title>AIZ&#45;&gt;AIB</title>
<path fill="none" stroke="black" stroke-width="5" d="M223.76,-1388.39C262.45,-1624.36 348.21,-2169.5 348.21,-2169.5 348.21,-2169.5 358.85,-2182.63 367.78,-2197.85"/>
<polygon fill="black" stroke="black" stroke-width="5" points="363.81,-2199.69 372.29,-2206.56 371.58,-2195.67 363.81,-2199.69"/>
</g>
<!-- AIY -->
<g id="node7" class="node">
<title>AIY</title>
<ellipse fill="none" stroke="black" cx="380.81" cy="-2151" rx="27" ry="18"/>
<text text-anchor="middle" x="380.81" y="-2145.57" font-family="Times New Roman,serif" font-size="14.00">AIY</text>
</g>
<!-- AIZ&#45;&gt;AIY -->
<g id="edge7" class="edge">
<title>AIZ&#45;&gt;AIY</title>
<path fill="none" stroke="gray" stroke-width="2" d="M225.55,-1388.08C265.03,-1607.69 348.21,-2090.5 348.21,-2090.5 348.21,-2090.5 360.19,-2105.29 369.4,-2121.67"/>
<polygon fill="gray" stroke="gray" stroke-width="2" points="366.17,-2123.04 373.79,-2130.4 372.42,-2119.89 366.17,-2123.04"/>
</g>
<!-- ASE -->
<g id="node8" class="node">
<title>ASE</title>
<ellipse fill="none" stroke="black" cx="380.81" cy="-2072" rx="28.11" ry="18"/>
<text text-anchor="middle" x="380.81" y="-2066.57" font-family="Times New Roman,serif" font-size="14.00">ASE</text>
</g>
<!-- AIZ&#45;&gt;ASE -->
<g id="edge8" class="edge">
<title>AIZ&#45;&gt;ASE</title>
<path fill="none" stroke="gray" stroke-width="5" d="M227.71,-1387.7C267.98,-1590.16 348.21,-2011.5 348.21,-2011.5 348.21,-2011.5 358.85,-2024.63 367.78,-2039.85"/>
<polygon fill="gray" stroke="gray" stroke-width="5" points="363.81,-2041.69 372.29,-2048.56 371.58,-2037.67 363.81,-2041.69"/>
</g>
<!-- ASG -->
<g id="node9" class="node">
<title>ASG</title>
<ellipse fill="none" stroke="black" cx="380.81" cy="-1993" rx="29.61" ry="18"/>
<text text-anchor="middle" x="380.81" y="-1987.58" font-family="Times New Roman,serif" font-size="14.00">ASG</text>
</g>
<!-- AIZ&#45;&gt;ASG -->
<g id="edge9" class="edge">
<title>AIZ&#45;&gt;ASG</title>
<path fill="none" stroke="gray" stroke-width="0.2" d="M230.37,-1387.17C271.4,-1571.53 348.21,-1932.5 348.21,-1932.5 348.21,-1932.5 361.37,-1948.74 370.71,-1966.04"/>
<polygon fill="gray" stroke="gray" stroke-width="0.2" points="367.47,-1967.39 375.02,-1974.83 373.76,-1964.31 367.47,-1967.39"/>
</g>
<!-- AUA -->
<g id="node10" class="node">
<title>AUA</title>
<ellipse fill="none" stroke="black" cx="380.81" cy="-1914" rx="30.11" ry="18"/>
<text text-anchor="middle" x="380.81" y="-1908.58" font-family="Times New Roman,serif" font-size="14.00">AUA</text>
</g>
<!-- AIZ&#45;&gt;AUA -->
<g id="edge10" class="edge">
<title>AIZ&#45;&gt;AUA</title>
<path fill="none" stroke="gray" stroke-width="2" d="M233.64,-1386.19C275.34,-1551.3 348.21,-1853.5 348.21,-1853.5 348.21,-1853.5 360.19,-1868.29 369.4,-1884.67"/>
<polygon fill="gray" stroke="gray" stroke-width="2" points="366.17,-1886.04 373.79,-1893.4 372.42,-1882.89 366.17,-1886.04"/>
</g>
<!-- AVA -->
<g id="node11" class="node">
<title>AVA</title>
<ellipse fill="none" stroke="black" cx="380.81" cy="-1835" rx="30.11" ry="18"/>
<text text-anchor="middle" x="380.81" y="-1829.58" font-family="Times New Roman,serif" font-size="14.00">AVA</text>
</g>
<!-- AIZ&#45;&gt;AVA -->
<g id="edge11" class="edge">
<title>AIZ&#45;&gt;AVA</title>
<path fill="none" stroke="gray" stroke-width="5" d="M234.15,-1386.02C275.94,-1536.21 348.21,-1796 348.21,-1796 348.21,-1796 351.82,-1800.46 356.6,-1806.36"/>
<polygon fill="gray" stroke="gray" stroke-width="5" points="352.97,-1808.83 362.67,-1813.84 359.77,-1803.32 352.97,-1808.83"/>
</g>
<!-- AVD -->
<g id="node12" class="node">
<title>AVD</title>
<ellipse fill="none" stroke="black" cx="380.81" cy="-1756" rx="30.11" ry="18"/>
<text text-anchor="middle" x="380.81" y="-1750.58" font-family="Times New Roman,serif" font-size="14.00">AVD</text>
</g>
<!-- AIZ&#45;&gt;AVD -->
<g id="edge12" class="edge">
<title>AIZ&#45;&gt;AVD</title>
<path fill="none" stroke="gray" stroke-width="0.2" d="M238.92,-1384.54C281.2,-1513.14 348.21,-1717 348.21,-1717 348.21,-1717 353.91,-1724.03 360.47,-1732.13"/>
<polygon fill="gray" stroke="gray" stroke-width="0.2" points="357.39,-1733.89 366.4,-1739.45 362.83,-1729.48 357.39,-1733.89"/>
</g>
<!-- AVE -->
<g id="node13" class="node">
<title>AVE</title>
<ellipse fill="none" stroke="black" cx="380.81" cy="-1677" rx="29.11" ry="18"/>
<text text-anchor="middle" x="380.81" y="-1671.58" font-family="Times New Roman,serif" font-size="14.00">AVE</text>
</g>
<!-- AIZ&#45;&gt;AVE -->
<g id="edge13" class="edge">
<title>AIZ&#45;&gt;AVE</title>
<path fill="none" stroke="red" stroke-width="5" d="M251.05,-1379.79C292.88,-1478.74 348.21,-1616.5 348.21,-1616.5 348.21,-1616.5 358.85,-1629.63 367.78,-1644.85"/>
<polygon fill="red" stroke="red" stroke-width="5" points="363.81,-1646.69 372.29,-1653.56 371.58,-1642.67 363.81,-1646.69"/>
</g>
<!-- AVK -->
<g id="node14" class="node">
<title>AVK</title>
<ellipse fill="none" stroke="black" cx="380.81" cy="-1598" rx="30.11" ry="18"/>
<text text-anchor="middle" x="380.81" y="-1592.58" font-family="Times New Roman,serif" font-size="14.00">AVK</text>
</g>
<!-- AIZ&#45;&gt;AVK -->
<g id="edge14" class="edge">
<title>AIZ&#45;&gt;AVK</title>
<path fill="none" stroke="gray" stroke-width="5" d="M254.62,-1377.72C295.96,-1457.78 348.21,-1559 348.21,-1559 348.21,-1559 351.82,-1563.46 356.6,-1569.36"/>
<polygon fill="gray" stroke="gray" stroke-width="5" points="352.97,-1571.83 362.67,-1576.84 359.77,-1566.32 352.97,-1571.83"/>
</g>
<!-- AWA -->
<g id="node15" class="node">
<title>AWA</title>
<ellipse fill="none" stroke="black" cx="380.81" cy="-1519" rx="32.6" ry="18"/>
<text text-anchor="middle" x="380.81" y="-1513.58" font-family="Times New Roman,serif" font-size="14.00">AWA</text>
</g>
<!-- AIZ&#45;&gt;AWA -->
<g id="edge15" class="edge">
<title>AIZ&#45;&gt;AWA</title>
<path fill="none" stroke="gray" stroke-width="2" d="M276.92,-1362.46C312.6,-1409.19 348.21,-1458.5 348.21,-1458.5 348.21,-1458.5 360.07,-1473.13 369.26,-1489.41"/>
<polygon fill="gray" stroke="gray" stroke-width="2" points="366.01,-1490.75 373.65,-1498.09 372.25,-1487.59 366.01,-1490.75"/>
</g>
<!-- AWB -->
<g id="node16" class="node">
<title>AWB</title>
<ellipse fill="none" stroke="black" cx="380.81" cy="-1440" rx="32.1" ry="18"/>
<text text-anchor="middle" x="380.81" y="-1434.58" font-family="Times New Roman,serif" font-size="14.00">AWB</text>
</g>
<!-- AIZ&#45;&gt;AWB -->
<g id="edge16" class="edge">
<title>AIZ&#45;&gt;AWB</title>
<path fill="none" stroke="gray" stroke-width="2" d="M292.51,-1344.88C318.55,-1368.44 344.59,-1393.92 361.37,-1412.92"/>
<polygon fill="gray" stroke="gray" stroke-width="2" points="358.59,-1415.06 367.72,-1420.45 363.94,-1410.55 358.59,-1415.06"/>
</g>
<!-- AWC -->
<g id="node17" class="node">
<title>AWC</title>
<ellipse fill="none" stroke="black" cx="380.81" cy="-1361" rx="32.6" ry="18"/>
<text text-anchor="middle" x="380.81" y="-1355.58" font-family="Times New Roman,serif" font-size="14.00">AWC</text>
</g>
<!-- AIZ&#45;&gt;AWC -->
<g id="edge17" class="edge">
<title>AIZ&#45;&gt;AWC</title>
<path fill="none" stroke="red" stroke-width="2" d="M308.04,-1312.63C325.27,-1320.94 341.67,-1329.73 354.43,-1337.74"/>
<polygon fill="red" stroke="red" stroke-width="2" points="352.27,-1340.51 362.53,-1343.16 356.16,-1334.69 352.27,-1340.51"/>
</g>
<!-- BAG -->
<g id="node18" class="node">
<title>BAG</title>
<ellipse fill="none" stroke="black" cx="380.81" cy="-1282" rx="30.11" ry="18"/>
<text text-anchor="middle" x="380.81" y="-1276.58" font-family="Times New Roman,serif" font-size="14.00">BAG</text>
</g>
<!-- AIZ&#45;&gt;BAG -->
<g id="edge18" class="edge">
<title>AIZ&#45;&gt;BAG</title>
<path fill="none" stroke="gray" stroke-width="0.2" d="M311.56,-1266.22C324.37,-1266.69 336.62,-1267.65 347.1,-1269.09"/>
<polygon fill="gray" stroke="gray" stroke-width="0.2" points="346.23,-1272.49 356.66,-1270.64 347.35,-1265.58 346.23,-1272.49"/>
</g>
<!-- DVA -->
<g id="node19" class="node">
<title>DVA</title>
<ellipse fill="none" stroke="black" cx="380.81" cy="-1203" rx="30.11" ry="18"/>
<text text-anchor="middle" x="380.81" y="-1197.58" font-family="Times New Roman,serif" font-size="14.00">DVA</text>
</g>
<!-- AIZ&#45;&gt;DVA -->
<g id="edge19" class="edge">
<title>AIZ&#45;&gt;DVA</title>
<path fill="none" stroke="red" stroke-width="0.2" d="M296.09,-1224.77C311.81,-1217.76 327.37,-1211.53 340.73,-1206.98"/>
<polygon fill="red" stroke="red" stroke-width="0.2" points="341.75,-1210.33 350.2,-1203.94 339.61,-1203.67 341.75,-1210.33"/>
</g>
<!-- RIA -->
<g id="node20" class="node">
<title>RIA</title>
<ellipse fill="none" stroke="black" cx="380.81" cy="-1124" rx="27" ry="18"/>
<text text-anchor="middle" x="380.81" y="-1118.58" font-family="Times New Roman,serif" font-size="14.00">RIA</text>
</g>
<!-- AIZ&#45;&gt;RIA -->
<g id="edge20" class="edge">
<title>AIZ&#45;&gt;RIA</title>
<path fill="none" stroke="black" stroke-width="5" d="M276.73,-1201.39C300.03,-1179.6 324.89,-1157.98 344.35,-1142.82"/>
<polygon fill="black" stroke="black" stroke-width="5" points="346.8,-1146.45 352.18,-1136.96 341.56,-1139.45 346.8,-1146.45"/>
</g>
<!-- RIB -->
<g id="node21" class="node">
<title>RIB</title>
<ellipse fill="none" stroke="black" cx="380.81" cy="-1045" rx="27" ry="18"/>
<text text-anchor="middle" x="380.81" y="-1039.58" font-family="Times New Roman,serif" font-size="14.00">RIB</text>
</g>
<!-- AIZ&#45;&gt;RIB -->
<g id="edge21" class="edge">
<title>AIZ&#45;&gt;RIB</title>
<path fill="none" stroke="gray" stroke-width="0.2" d="M260.09,-1189.05C300.42,-1129.34 348.21,-1063.5 348.21,-1063.5 348.21,-1063.5 348.93,-1062.6 350.14,-1061.13"/>
<polygon fill="gray" stroke="gray" stroke-width="0.2" points="352.71,-1063.51 356.65,-1053.67 347.44,-1058.91 352.71,-1063.51"/>
</g>
<!-- RIC -->
<g id="node22" class="node">
<title>RIC</title>
<ellipse fill="none" stroke="black" cx="380.81" cy="-966" rx="27" ry="18"/>
<text text-anchor="middle" x="380.81" y="-960.58" font-family="Times New Roman,serif" font-size="14.00">RIC</text>
</g>
<!-- AIZ&#45;&gt;RIC -->
<g id="edge22" class="edge">
<title>AIZ&#45;&gt;RIC</title>
<path fill="none" stroke="gray" stroke-width="5" d="M248.12,-1183.24C283,-1111.32 328.75,-1022.22 348.35,-988.01"/>
<polygon fill="gray" stroke="gray" stroke-width="5" points="351.94,-990.53 353.54,-979.73 344.52,-985.88 351.94,-990.53"/>
</g>
<!-- RID -->
<g id="node23" class="node">
<title>RID</title>
<ellipse fill="none" stroke="black" cx="380.81" cy="-887" rx="27" ry="18"/>
<text text-anchor="middle" x="380.81" y="-881.58" font-family="Times New Roman,serif" font-size="14.00">RID</text>
</g>
<!-- AIZ&#45;&gt;RID -->
<g id="edge23" class="edge">
<title>AIZ&#45;&gt;RID</title>
<path fill="none" stroke="gray" stroke-width="0.2" d="M245.43,-1181.89C287.72,-1076.59 348.21,-926 348.21,-926 348.21,-926 353.95,-918.91 360.54,-910.78"/>
<polygon fill="gray" stroke="gray" stroke-width="0.2" points="363.19,-913.07 366.77,-903.1 357.75,-908.66 363.19,-913.07"/>
</g>
<!-- RIG -->
<g id="node24" class="node">
<title>RIG</title>
<ellipse fill="none" stroke="black" cx="380.81" cy="-808" rx="27.11" ry="18"/>
<text text-anchor="middle" x="380.81" y="-802.58" font-family="Times New Roman,serif" font-size="14.00">RIG</text>
</g>
<!-- AIZ&#45;&gt;RIG -->
<g id="edge24" class="edge">
<title>AIZ&#45;&gt;RIG</title>
<path fill="none" stroke="gray" stroke-width="2" d="M234.84,-1177.97C271.74,-1059.04 331.6,-876.14 351.01,-827.81"/>
<polygon fill="gray" stroke="gray" stroke-width="2" points="354.16,-829.35 355.23,-818.81 347.82,-826.38 354.16,-829.35"/>
</g>
<!-- RIH -->
<g id="node25" class="node">
<title>RIH</title>
<ellipse fill="none" stroke="black" cx="380.81" cy="-729" rx="27" ry="18"/>
<text text-anchor="middle" x="380.81" y="-723.58" font-family="Times New Roman,serif" font-size="14.00">RIH</text>
</g>
<!-- AIZ&#45;&gt;RIH -->
<g id="edge25" class="edge">
<title>AIZ&#45;&gt;RIH</title>
<path fill="none" stroke="gray" stroke-width="0.2" d="M230.78,-1176.99C271.91,-1020.76 348.21,-746.5 348.21,-746.5 348.21,-746.5 348.8,-745.77 349.82,-744.57"/>
<polygon fill="gray" stroke="gray" stroke-width="0.2" points="352.27,-747.09 356.31,-737.29 347.04,-742.42 352.27,-747.09"/>
</g>
<!-- RIM -->
<g id="node26" class="node">
<title>RIM</title>
<ellipse fill="none" stroke="black" cx="380.81" cy="-650" rx="28.11" ry="18"/>
<text text-anchor="middle" x="380.81" y="-644.58" font-family="Times New Roman,serif" font-size="14.00">RIM</text>
</g>
<!-- AIZ&#45;&gt;RIM -->
<g id="edge26" class="edge">
<title>AIZ&#45;&gt;RIM</title>
<path fill="none" stroke="black" stroke-width="5" d="M227.71,-1176.23C263.34,-1020.48 330.25,-742.1 350.5,-673.96"/>
<polygon fill="black" stroke="black" stroke-width="5" points="354.58,-675.53 353.79,-664.65 346.33,-672.62 354.58,-675.53"/>
</g>
<!-- RIP -->
<g id="node27" class="node">
<title>RIP</title>
<ellipse fill="none" stroke="black" cx="380.81" cy="-571" rx="27" ry="18"/>
<text text-anchor="middle" x="380.81" y="-565.58" font-family="Times New Roman,serif" font-size="14.00">RIP</text>
</g>
<!-- AIZ&#45;&gt;RIP -->
<g id="edge27" class="edge">
<title>AIZ&#45;&gt;RIP</title>
<path fill="none" stroke="gray" stroke-width="0.2" d="M225.32,-1175.59C264.71,-980.91 348.21,-588.5 348.21,-588.5 348.21,-588.5 348.8,-587.77 349.82,-586.57"/>
<polygon fill="gray" stroke="gray" stroke-width="0.2" points="352.27,-589.09 356.31,-579.29 347.04,-584.42 352.27,-589.09"/>
</g>
<!-- RIR -->
<g id="node28" class="node">
<title>RIR</title>
<ellipse fill="none" stroke="black" cx="380.81" cy="-492" rx="27" ry="18"/>
<text text-anchor="middle" x="380.81" y="-486.57" font-family="Times New Roman,serif" font-size="14.00">RIR</text>
</g>
<!-- AIZ&#45;&gt;RIR -->
<g id="edge28" class="edge">
<title>AIZ&#45;&gt;RIR</title>
<path fill="none" stroke="blue" stroke-width="5" d="M223.32,-1175.48C257.97,-984.44 331.47,-597.51 351.83,-515.44"/>
<polygon fill="blue" stroke="blue" stroke-width="5" points="355.97,-516.88 354.7,-506.03 347.6,-514.33 355.97,-516.88"/>
</g>
<!-- SDQ -->
<g id="node29" class="node">
<title>SDQ</title>
<ellipse fill="none" stroke="black" cx="380.81" cy="-413" rx="29.61" ry="18"/>
<text text-anchor="middle" x="380.81" y="-407.57" font-family="Times New Roman,serif" font-size="14.00">SDQ</text>
</g>
<!-- AIZ&#45;&gt;SDQ -->
<g id="edge29" class="edge">
<title>AIZ&#45;&gt;SDQ</title>
<path fill="none" stroke="gray" stroke-width="0.2" d="M221.76,-1175C259.4,-946 348.21,-430.5 348.21,-430.5 348.21,-430.5 348.4,-430.27 348.73,-429.87"/>
<polygon fill="gray" stroke="gray" stroke-width="0.2" points="351.07,-432.51 355.03,-422.68 345.8,-427.9 351.07,-432.51"/>
</g>
<!-- SIA -->
<g id="node30" class="node">
<title>SIA</title>
<ellipse fill="none" stroke="black" cx="380.81" cy="-334" rx="27" ry="18"/>
<text text-anchor="middle" x="380.81" y="-328.57" font-family="Times New Roman,serif" font-size="14.00">SIA</text>
</g>
<!-- AIZ&#45;&gt;SIA -->
<g id="edge30" class="edge">
<title>AIZ&#45;&gt;SIA</title>
<path fill="none" stroke="gray" stroke-width="0.2" d="M222.04,-1175.05C259.84,-934.77 348.21,-373 348.21,-373 348.21,-373 353.95,-365.91 360.54,-357.78"/>
<polygon fill="gray" stroke="gray" stroke-width="0.2" points="363.19,-360.07 366.77,-350.1 357.75,-355.66 363.19,-360.07"/>
</g>
<!-- SMB -->
<g id="node31" class="node">
<title>SMB</title>
<ellipse fill="none" stroke="black" cx="380.81" cy="-255" rx="30.11" ry="18"/>
<text text-anchor="middle" x="380.81" y="-249.57" font-family="Times New Roman,serif" font-size="14.00">SMB</text>
</g>
<!-- AIZ&#45;&gt;SMB -->
<g id="edge31" class="edge">
<title>AIZ&#45;&gt;SMB</title>
<path fill="none" stroke="black" stroke-width="5" d="M219.25,-1174.78C252.15,-937.2 332.49,-381.23 351.31,-280.51"/>
<polygon fill="black" stroke="black" stroke-width="5" points="355.55,-281.6 353.52,-270.87 347.02,-279.64 355.55,-281.6"/>
</g>
<!-- SMD -->
<g id="node32" class="node">
<title>SMD</title>
<ellipse fill="none" stroke="black" cx="380.81" cy="-176" rx="30.61" ry="18"/>
<text text-anchor="middle" x="380.81" y="-170.57" font-family="Times New Roman,serif" font-size="14.00">SMD</text>
</g>
<!-- AIZ&#45;&gt;SMD -->
<g id="edge32" class="edge">
<title>AIZ&#45;&gt;SMD</title>
<path fill="none" stroke="gray" stroke-width="2" d="M218.28,-1174.56C251,-919.72 334.67,-294.62 352.08,-198.28"/>
<polygon fill="gray" stroke="gray" stroke-width="2" points="355.45,-199.27 354.24,-188.74 348.62,-197.72 355.45,-199.27"/>
</g>
<!-- URY -->
<g id="node33" class="node">
<title>URY</title>
<ellipse fill="none" stroke="black" cx="380.81" cy="-97" rx="30.11" ry="18"/>
<text text-anchor="middle" x="380.81" y="-91.58" font-family="Times New Roman,serif" font-size="14.00">URY</text>
</g>
<!-- AIZ&#45;&gt;URY -->
<g id="edge33" class="edge">
<title>AIZ&#45;&gt;URY</title>
<path fill="none" stroke="gray" stroke-width="2" d="M217.44,-1174.4C249.61,-905.53 334.99,-220.5 352.23,-119.3"/>
<polygon fill="gray" stroke="gray" stroke-width="2" points="355.6,-120.26 354.28,-109.75 348.76,-118.79 355.6,-120.26"/>
</g>
<!-- VBn -->
<g id="node34" class="node">
<title>VBn</title>
<ellipse fill="none" stroke="black" cx="380.81" cy="-18" rx="27.61" ry="18"/>
<text text-anchor="middle" x="380.81" y="-12.57" font-family="Times New Roman,serif" font-size="14.00">VBn</text>
</g>
<!-- AIZ&#45;&gt;VBn -->
<g id="edge34" class="edge">
<title>AIZ&#45;&gt;VBn</title>
<path fill="none" stroke="gray" stroke-width="0.2" d="M217.78,-1174.36C252.67,-875.44 348.21,-57 348.21,-57 348.21,-57 353.95,-49.91 360.54,-41.78"/>
<polygon fill="gray" stroke="gray" stroke-width="0.2" points="363.19,-44.07 366.77,-34.1 357.75,-39.66 363.19,-44.07"/>
</g>
<!-- ADA&#45;&gt;AIZ -->
<g id="edge35" class="edge">
<title>ADA&#45;&gt;AIZ</title>
<path fill="none" stroke="gray" stroke-width="0.2" d="M354.91,-2536.21C351,-2531.94 348.21,-2528.5 348.21,-2528.5 348.21,-2528.5 252.69,-1710.23 217.79,-1399.49"/>
<polygon fill="gray" stroke="gray" stroke-width="0.2" points="221.3,-1399.4 216.71,-1389.85 214.34,-1400.18 221.3,-1399.4"/>
</g>
<!-- ADF&#45;&gt;AIZ -->
<g id="edge36" class="edge">
<title>ADF&#45;&gt;AIZ</title>
<path fill="none" stroke="black" stroke-width="5" d="M355.54,-2457.89C351.3,-2453.31 348.21,-2449.5 348.21,-2449.5 348.21,-2449.5 255.39,-1705.66 219.32,-1405.29"/>
<polygon fill="black" stroke="black" stroke-width="5" points="223.71,-1405.2 218.18,-1395.79 215.02,-1406.24 223.71,-1405.2"/>
</g>
<!-- AFD&#45;&gt;AIZ -->
<g id="edge37" class="edge">
<title>AFD&#45;&gt;AIZ</title>
<path fill="none" stroke="gray" stroke-width="0.2" d="M355.54,-2378.89C351.3,-2374.31 348.21,-2370.5 348.21,-2370.5 348.21,-2370.5 255.79,-1680.87 219.55,-1399.29"/>
<polygon fill="gray" stroke="gray" stroke-width="0.2" points="223.07,-1399.22 218.32,-1389.74 216.12,-1400.11 223.07,-1399.22"/>
</g>
<!-- AIA&#45;&gt;AIZ -->
<g id="edge38" class="edge">
<title>AIA&#45;&gt;AIZ</title>
<path fill="none" stroke="gray" stroke-width="nan" d="M356.51,-2300.93C351.78,-2295.9 348.21,-2291.5 348.21,-2291.5 348.21,-2291.5 255.28,-1649.42 219.25,-1389.22"/>
<polygon fill="gray" stroke="gray" stroke-width="nan" points="nan,-nan nan,-nan nan,-nan nan,-nan"/>
</g>
<!-- AIB&#45;&gt;AIZ -->
<g id="edge39" class="edge">
<title>AIB&#45;&gt;AIZ</title>
<path fill="none" stroke="gray" stroke-width="2" d="M356.51,-2221.93C351.78,-2216.9 348.21,-2212.5 348.21,-2212.5 348.21,-2212.5 260.27,-1653.47 222.31,-1401.84"/>
<polygon fill="gray" stroke="gray" stroke-width="2" points="225.78,-1401.36 220.83,-1391.99 218.86,-1402.4 225.78,-1401.36"/>
</g>
<!-- AIY&#45;&gt;AIZ -->
<g id="edge40" class="edge">
<title>AIY&#45;&gt;AIZ</title>
<path fill="none" stroke="black" stroke-width="5" d="M356.51,-2142.93C351.78,-2137.9 348.21,-2133.5 348.21,-2133.5 348.21,-2133.5 263.34,-1640.9 224.37,-1404.85"/>
<polygon fill="black" stroke="black" stroke-width="5" points="228.71,-1404.31 222.77,-1395.15 220.08,-1405.73 228.71,-1404.31"/>
</g>
<!-- ASE&#45;&gt;AIZ -->
<g id="edge41" class="edge">
<title>ASE&#45;&gt;AIZ</title>
<path fill="none" stroke="gray" stroke-width="2" d="M355.86,-2063.23C351.45,-2058.5 348.21,-2054.5 348.21,-2054.5 348.21,-2054.5 265.14,-1618.25 225.63,-1401.22"/>
<polygon fill="gray" stroke="gray" stroke-width="2" points="229.1,-1400.71 223.86,-1391.49 222.21,-1401.96 229.1,-1400.71"/>
</g>
<!-- ASG&#45;&gt;AIZ -->
<g id="edge42" class="edge">
<title>ASG&#45;&gt;AIZ</title>
<path fill="none" stroke="gray" stroke-width="0.2" d="M355.23,-1983.55C351.15,-1979.12 348.21,-1975.5 348.21,-1975.5 348.21,-1975.5 267.46,-1596.01 227.32,-1398.26"/>
<polygon fill="gray" stroke="gray" stroke-width="0.2" points="230.8,-1397.81 225.38,-1388.7 223.94,-1399.2 230.8,-1397.81"/>
</g>
<!-- AUA&#45;&gt;AIZ -->
<g id="edge43" class="edge">
<title>AUA&#45;&gt;AIZ</title>
<path fill="none" stroke="gray" stroke-width="2" d="M354.91,-1904.21C351,-1899.94 348.21,-1896.5 348.21,-1896.5 348.21,-1896.5 271.7,-1579.22 230.61,-1400.4"/>
<polygon fill="gray" stroke="gray" stroke-width="2" points="234.04,-1399.69 228.39,-1390.72 227.21,-1401.25 234.04,-1399.69"/>
</g>
<!-- AVE&#45;&gt;AIZ -->
<g id="edge44" class="edge">
<title>AVE&#45;&gt;AIZ</title>
<path fill="none" stroke="gray" stroke-width="0.2" d="M355.54,-1667.89C351.3,-1663.31 348.21,-1659.5 348.21,-1659.5 348.21,-1659.5 286.07,-1504.8 243.72,-1393.2"/>
<polygon fill="gray" stroke="gray" stroke-width="0.2" points="247.12,-1392.29 240.3,-1384.18 240.57,-1394.77 247.12,-1392.29"/>
</g>
<!-- AWA&#45;&gt;AIZ -->
<g id="edge45" class="edge">
<title>AWA&#45;&gt;AIZ</title>
<path fill="none" stroke="black" stroke-width="5" d="M354.01,-1508.21C350.57,-1504.42 348.21,-1501.5 348.21,-1501.5 348.21,-1501.5 307.11,-1444.59 268.98,-1388.48"/>
<polygon fill="black" stroke="black" stroke-width="5" points="272.6,-1386.03 263.38,-1380.19 265.35,-1390.93 272.6,-1386.03"/>
</g>
<!-- AWB&#45;&gt;AIZ -->
<g id="edge46" class="edge">
<title>AWB&#45;&gt;AIZ</title>
<path fill="none" stroke="gray" stroke-width="nan" d="M354.72,-1429.02C334.3,-1414.15 304.42,-1388.5 276.73,-1362.61"/>
<polygon fill="gray" stroke="gray" stroke-width="nan" points="nan,-nan nan,-nan nan,-nan nan,-nan"/>
</g>
<!-- AWC&#45;&gt;AIZ -->
<g id="edge47" class="edge">
<title>AWC&#45;&gt;AIZ</title>
<path fill="none" stroke="red" stroke-width="2" d="M348.16,-1359.44C336.45,-1355.81 322.46,-1350.52 307.88,-1344.35"/>
<polygon fill="red" stroke="red" stroke-width="2" points="309.44,-1341.21 298.87,-1340.44 306.65,-1347.63 309.44,-1341.21"/>
</g>
<!-- BAG&#45;&gt;AIZ -->
<g id="edge48" class="edge">
<title>BAG&#45;&gt;AIZ</title>
<path fill="none" stroke="gray" stroke-width="0.2" d="M356.96,-1293.31C347.2,-1295.18 335.02,-1296.51 321.82,-1297.29"/>
<polygon fill="gray" stroke="gray" stroke-width="0.2" points="321.68,-1293.79 311.86,-1297.76 322.02,-1300.78 321.68,-1293.79"/>
</g>
<!-- DVA&#45;&gt;AIZ -->
<g id="edge49" class="edge">
<title>DVA&#45;&gt;AIZ</title>
<path fill="none" stroke="gray" stroke-width="2" d="M365.57,-1218.78C354.48,-1226.85 337.94,-1236.37 319.64,-1245.64"/>
<polygon fill="gray" stroke="gray" stroke-width="2" points="318.17,-1242.46 310.75,-1250.03 321.27,-1248.74 318.17,-1242.46"/>
</g>
<!-- RIA&#45;&gt;AIZ -->
<g id="edge50" class="edge">
<title>RIA&#45;&gt;AIZ</title>
<path fill="none" stroke="gray" stroke-width="0.2" d="M369.93,-1140.92C355.78,-1158.73 328.3,-1186.3 299.78,-1212.5"/>
<polygon fill="gray" stroke="gray" stroke-width="0.2" points="297.77,-1209.6 292.74,-1218.92 302.48,-1214.77 297.77,-1209.6"/>
</g>
<!-- RIB&#45;&gt;AIZ -->
<g id="edge51" class="edge">
<title>RIB&#45;&gt;AIZ</title>
<path fill="none" stroke="gray" stroke-width="0.2" d="M375.15,-1063.05C366.36,-1083.53 348.21,-1106.5 348.21,-1106.5 348.21,-1106.5 316.78,-1149.81 283.38,-1193.6"/>
<polygon fill="gray" stroke="gray" stroke-width="0.2" points="280.61,-1191.46 277.32,-1201.53 286.17,-1195.71 280.61,-1191.46"/>
</g>
<!-- RIC&#45;&gt;AIZ -->
<g id="edge52" class="edge">
<title>RIC&#45;&gt;AIZ</title>
<path fill="none" stroke="gray" stroke-width="2" d="M375.15,-984.05C366.36,-1004.53 348.21,-1027.5 348.21,-1027.5 348.21,-1027.5 306.3,-1108.38 267.86,-1179.17"/>
<polygon fill="gray" stroke="gray" stroke-width="2" points="264.89,-1177.31 263.18,-1187.77 271.03,-1180.66 264.89,-1177.31"/>
</g>
<!-- RIG&#45;&gt;AIZ -->
<g id="edge53" class="edge">
<title>RIG&#45;&gt;AIZ</title>
<path fill="none" stroke="black" stroke-width="5" d="M375.15,-825.9C366.36,-846.1 348.21,-868.5 348.21,-868.5 348.21,-868.5 290.7,-1043.46 248.62,-1165.97"/>
<polygon fill="black" stroke="black" stroke-width="5" points="244.59,-1164.24 245.47,-1175.12 252.86,-1167.09 244.59,-1164.24"/>
</g>
<!-- RIH&#45;&gt;AIZ -->
<g id="edge54" class="edge">
<title>RIH&#45;&gt;AIZ</title>
<path fill="none" stroke="gray" stroke-width="5" d="M375.15,-746.9C366.36,-767.1 348.21,-789.5 348.21,-789.5 348.21,-789.5 284.63,-1018.06 242.25,-1163.98"/>
<polygon fill="gray" stroke="gray" stroke-width="5" points="238.18,-1162.33 239.58,-1173.16 246.58,-1164.78 238.18,-1162.33"/>
</g>
<!-- RIM&#45;&gt;AIZ -->
<g id="edge55" class="edge">
<title>RIM&#45;&gt;AIZ</title>
<path fill="none" stroke="gray" stroke-width="0.2" d="M375.15,-667.9C366.36,-688.1 348.21,-710.5 348.21,-710.5 348.21,-710.5 278.16,-1001.01 236.11,-1167.98"/>
<polygon fill="gray" stroke="gray" stroke-width="0.2" points="232.76,-1166.97 233.71,-1177.52 239.55,-1168.68 232.76,-1166.97"/>
</g>
<!-- RIP&#45;&gt;AIZ -->
<g id="edge56" class="edge">
<title>RIP&#45;&gt;AIZ</title>
<path fill="none" stroke="blue" stroke-width="2" d="M375.15,-588.9C366.36,-609.1 348.21,-631.5 348.21,-631.5 348.21,-631.5 274.81,-976.44 233.18,-1164.14"/>
<polygon fill="blue" stroke="blue" stroke-width="2" points="229.77,-1163.35 231.02,-1173.87 236.61,-1164.87 229.77,-1163.35"/>
</g>
<!-- RIR&#45;&gt;AIZ -->
<g id="edge57" class="edge">
<title>RIR&#45;&gt;AIZ</title>
<path fill="none" stroke="gray" stroke-width="5" d="M375.15,-509.9C366.36,-530.1 348.21,-552.5 348.21,-552.5 348.21,-552.5 272.01,-952.71 230.86,-1160.46"/>
<polygon fill="gray" stroke="gray" stroke-width="5" points="226.58,-1159.52 228.93,-1170.18 235.17,-1161.22 226.58,-1159.52"/>
</g>
<!-- SDQ&#45;&gt;AIZ -->
<g id="edge58" class="edge">
<title>SDQ&#45;&gt;AIZ</title>
<path fill="none" stroke="gray" stroke-width="2" d="M375.15,-430.9C366.36,-451.1 348.21,-473.5 348.21,-473.5 348.21,-473.5 268.09,-938.56 227.79,-1163.43"/>
<polygon fill="gray" stroke="gray" stroke-width="2" points="224.41,-1162.48 226.08,-1172.94 231.3,-1163.72 224.41,-1162.48"/>
</g>
<!-- SMB&#45;&gt;AIZ -->
<g id="edge59" class="edge">
<title>SMB&#45;&gt;AIZ</title>
<path fill="none" stroke="gray" stroke-width="0.2" d="M375.15,-272.9C366.36,-293.1 348.21,-315.5 348.21,-315.5 348.21,-315.5 262.47,-907.88 223.77,-1165.27"/>
<polygon fill="gray" stroke="gray" stroke-width="0.2" points="220.32,-1164.7 222.29,-1175.11 227.24,-1165.74 220.32,-1164.7"/>
</g>
<!-- SMD&#45;&gt;AIZ -->
<g id="edge60" class="edge">
<title>SMD&#45;&gt;AIZ</title>
<path fill="none" stroke="gray" stroke-width="0.2" d="M375.15,-193.9C366.36,-214.1 348.21,-236.5 348.21,-236.5 348.21,-236.5 260.37,-891.96 222.38,-1165.06"/>
<polygon fill="gray" stroke="gray" stroke-width="0.2" points="218.95,-1164.32 221.04,-1174.71 225.88,-1165.29 218.95,-1164.32"/>
</g>
<!-- URY&#45;&gt;AIZ -->
<g id="edge61" class="edge">
<title>URY&#45;&gt;AIZ</title>
<path fill="none" stroke="gray" stroke-width="0.2" d="M375.15,-114.9C366.36,-135.1 348.21,-157.5 348.21,-157.5 348.21,-157.5 258.54,-876.13 221.22,-1164.57"/>
<polygon fill="gray" stroke="gray" stroke-width="0.2" points="217.76,-1163.98 219.95,-1174.35 224.7,-1164.88 217.76,-1163.98"/>
</g>
<!-- AIM -->
<g id="node35" class="node">
<title>AIM</title>
<ellipse fill="none" stroke="black" cx="30.11" cy="-1598" rx="28.11" ry="18"/>
<text text-anchor="middle" x="30.11" y="-1592.58" font-family="Times New Roman,serif" font-size="14.00">AIM</text>
</g>
<!-- AIM&#45;&gt;AIZ -->
<g id="edge62" class="edge">
<title>AIM&#45;&gt;AIZ</title>
<path fill="none" stroke="gray" stroke-width="0.2" d="M43.28,-1581.69C51.26,-1571 60.21,-1559 60.21,-1559 60.21,-1559 108.66,-1465.15 149.16,-1386.71"/>
<polygon fill="gray" stroke="gray" stroke-width="0.2" points="152.18,-1388.48 153.66,-1377.98 145.96,-1385.26 152.18,-1388.48"/>
</g>
<!-- AIN -->
<g id="node36" class="node">
<title>AIN</title>
<ellipse fill="none" stroke="black" cx="30.11" cy="-1519" rx="27" ry="18"/>
<text text-anchor="middle" x="30.11" y="-1513.58" font-family="Times New Roman,serif" font-size="14.00">AIN</text>
</g>
<!-- AIN&#45;&gt;AIZ -->
<g id="edge63" class="edge">
<title>AIN&#45;&gt;AIZ</title>
<path fill="none" stroke="blue" stroke-width="2" d="M42.94,-1503.14C51,-1492.34 60.21,-1480 60.21,-1480 60.21,-1480 96.58,-1429.64 132.64,-1379.72"/>
<polygon fill="blue" stroke="blue" stroke-width="2" points="135.28,-1382.03 138.3,-1371.88 129.61,-1377.93 135.28,-1382.03"/>
</g>
<!-- ASH -->
<g id="node37" class="node">
<title>ASH</title>
<ellipse fill="none" stroke="black" cx="30.11" cy="-1440" rx="29.11" ry="18"/>
<text text-anchor="middle" x="30.11" y="-1434.58" font-family="Times New Roman,serif" font-size="14.00">ASH</text>
</g>
<!-- ASH&#45;&gt;AIZ -->
<g id="edge64" class="edge">
<title>ASH&#45;&gt;AIZ</title>
<path fill="none" stroke="gray" stroke-width="2" d="M47.3,-1425.14C63.17,-1410.56 88.69,-1387.14 114.52,-1363.42"/>
<polygon fill="gray" stroke="gray" stroke-width="2" points="116.8,-1366.08 121.8,-1356.74 112.07,-1360.92 116.8,-1366.08"/>
</g>
<!-- ASI -->
<g id="node38" class="node">
<title>ASI</title>
<ellipse fill="none" stroke="black" cx="30.11" cy="-1361" rx="27" ry="18"/>
<text text-anchor="middle" x="30.11" y="-1355.58" font-family="Times New Roman,serif" font-size="14.00">ASI</text>
</g>
<!-- ASI&#45;&gt;AIZ -->
<g id="edge65" class="edge">
<title>ASI&#45;&gt;AIZ</title>
<path fill="none" stroke="gray" stroke-width="5" d="M52.9,-1350.99C63.28,-1346.23 76.56,-1340.14 90.91,-1333.55"/>
<polygon fill="gray" stroke="gray" stroke-width="5" points="92.63,-1337.57 99.89,-1329.43 88.98,-1329.62 92.63,-1337.57"/>
</g>
<!-- DVC -->
<g id="node39" class="node">
<title>DVC</title>
<ellipse fill="none" stroke="black" cx="30.11" cy="-1282" rx="30.11" ry="18"/>
<text text-anchor="middle" x="30.11" y="-1276.58" font-family="Times New Roman,serif" font-size="14.00">DVC</text>
</g>
<!-- DVC&#45;&gt;AIZ -->
<g id="edge66" class="edge">
<title>DVC&#45;&gt;AIZ</title>
<path fill="none" stroke="gray" stroke-width="0.2" d="M60.69,-1282C68.24,-1282 76.84,-1282 85.97,-1282"/>
<polygon fill="gray" stroke="gray" stroke-width="0.2" points="85.76,-1285.5 95.76,-1282 85.76,-1278.5 85.76,-1285.5"/>
</g>
<!-- HSN -->
<g id="node40" class="node">
<title>HSN</title>
<ellipse fill="none" stroke="black" cx="30.11" cy="-1203" rx="29.11" ry="18"/>
<text text-anchor="middle" x="30.11" y="-1197.58" font-family="Times New Roman,serif" font-size="14.00">HSN</text>
</g>
<!-- HSN&#45;&gt;AIZ -->
<g id="edge67" class="edge">
<title>HSN&#45;&gt;AIZ</title>
<path fill="none" stroke="gray" stroke-width="5" d="M53.96,-1213.49C64.14,-1218.16 76.95,-1224.04 90.76,-1230.38"/>
<polygon fill="gray" stroke="gray" stroke-width="5" points="88.87,-1234.33 99.79,-1234.53 92.52,-1226.38 88.87,-1234.33"/>
</g>
<!-- PVN -->
<g id="node41" class="node">
<title>PVN</title>
<ellipse fill="none" stroke="black" cx="30.11" cy="-1124" rx="29.11" ry="18"/>
<text text-anchor="middle" x="30.11" y="-1118.58" font-family="Times New Roman,serif" font-size="14.00">PVN</text>
</g>
<!-- PVN&#45;&gt;AIZ -->
<g id="edge68" class="edge">
<title>PVN&#45;&gt;AIZ</title>
<path fill="none" stroke="gray" stroke-width="0.2" d="M47.3,-1138.86C63.59,-1153.82 90.04,-1178.1 116.56,-1202.45"/>
<polygon fill="gray" stroke="gray" stroke-width="0.2" points="114.08,-1204.92 123.81,-1209.11 118.81,-1199.77 114.08,-1204.92"/>
</g>
<!-- RIF -->
<g id="node42" class="node">
<title>RIF</title>
<ellipse fill="none" stroke="black" cx="30.11" cy="-1045" rx="27" ry="18"/>
<text text-anchor="middle" x="30.11" y="-1039.58" font-family="Times New Roman,serif" font-size="14.00">RIF</text>
</g>
<!-- RIF&#45;&gt;AIZ -->
<g id="edge69" class="edge">
<title>RIF&#45;&gt;AIZ</title>
<path fill="none" stroke="gray" stroke-width="0.2" d="M42.94,-1061.27C51,-1072.34 60.21,-1085 60.21,-1085 60.21,-1085 97.52,-1136.39 134.02,-1186.68"/>
<polygon fill="gray" stroke="gray" stroke-width="0.2" points="130.98,-1188.45 139.69,-1194.49 136.65,-1184.34 130.98,-1188.45"/>
</g>
<!-- URX -->
<g id="node43" class="node">
<title>URX</title>
<ellipse fill="none" stroke="black" cx="30.11" cy="-966" rx="30.11" ry="18"/>
<text text-anchor="middle" x="30.11" y="-960.58" font-family="Times New Roman,serif" font-size="14.00">URX</text>
</g>
<!-- URX&#45;&gt;AIZ -->
<g id="edge70" class="edge">
<title>URX&#45;&gt;AIZ</title>
<path fill="none" stroke="gray" stroke-width="0.2" d="M42.94,-982.27C51,-993.34 60.21,-1006 60.21,-1006 60.21,-1006 108.5,-1099.21 148.96,-1177.29"/>
<polygon fill="gray" stroke="gray" stroke-width="0.2" points="145.75,-1178.71 153.46,-1185.97 151.97,-1175.49 145.75,-1178.71"/>
</g>
</g>
</svg>
