<?xml version="1.0" encoding="UTF-8" standalone="no"?>
<!DOCTYPE svg PUBLIC "-//W3C//DTD SVG 1.1//EN"
 "http://www.w3.org/Graphics/SVG/1.1/DTD/svg11.dtd">
<!-- Generated by graphviz version 11.0.0 (20240428.1522)
 -->
<!-- Pages: 1 -->
<svg width="417pt" height="992pt"
 viewBox="0.00 0.00 417.42 992.00" xmlns="http://www.w3.org/2000/svg" xmlns:xlink="http://www.w3.org/1999/xlink">
<g id="graph0" class="graph" transform="scale(1 1) rotate(0) translate(4 988)">
<polygon fill="white" stroke="none" points="-4,4 -4,-988 413.42,-988 413.42,4 -4,4"/>
<!-- ALA -->
<g id="node1" class="node">
<title>ALA</title>
<ellipse fill="none" stroke="black" cx="202.22" cy="-571" rx="108" ry="108"/>
<text text-anchor="middle" x="202.22" y="-552" font-family="Times New Roman,serif" font-size="50.00">ALA</text>
</g>
<!-- ADL -->
<g id="node2" class="node">
<title>ADL</title>
<ellipse fill="none" stroke="black" cx="377.82" cy="-966" rx="29.11" ry="18"/>
<text text-anchor="middle" x="377.82" y="-960.58" font-family="Times New Roman,serif" font-size="14.00">ADL</text>
</g>
<!-- ALA&#45;&gt;ADL -->
<g id="edge1" class="edge">
<title>ALA&#45;&gt;ADL</title>
<path fill="none" stroke="gray" stroke-width="5" d="M249.05,-668.79C290.88,-767.74 346.22,-905.5 346.22,-905.5 346.22,-905.5 356.52,-918.63 365.17,-933.85"/>
<polygon fill="gray" stroke="gray" stroke-width="5" points="361.12,-935.54 369.51,-942.53 368.95,-931.62 361.12,-935.54"/>
</g>
<!-- AIM -->
<g id="node3" class="node">
<title>AIM</title>
<ellipse fill="none" stroke="black" cx="377.82" cy="-887" rx="28.11" ry="18"/>
<text text-anchor="middle" x="377.82" y="-881.58" font-family="Times New Roman,serif" font-size="14.00">AIM</text>
</g>
<!-- ALA&#45;&gt;AIM -->
<g id="edge2" class="edge">
<title>ALA&#45;&gt;AIM</title>
<path fill="none" stroke="gray" stroke-width="2" d="M259.73,-662.97C299.7,-736.4 346.22,-826.5 346.22,-826.5 346.22,-826.5 357.82,-841.29 366.74,-857.67"/>
<polygon fill="gray" stroke="gray" stroke-width="2" points="363.45,-858.92 370.98,-866.38 369.75,-855.86 363.45,-858.92"/>
</g>
<!-- ASG -->
<g id="node4" class="node">
<title>ASG</title>
<ellipse fill="none" stroke="black" cx="377.82" cy="-808" rx="29.61" ry="18"/>
<text text-anchor="middle" x="377.82" y="-802.58" font-family="Times New Roman,serif" font-size="14.00">ASG</text>
</g>
<!-- ALA&#45;&gt;ASG -->
<g id="edge3" class="edge">
<title>ALA&#45;&gt;ASG</title>
<path fill="none" stroke="gray" stroke-width="2" d="M266.35,-658.42C304.66,-711.46 346.22,-769 346.22,-769 346.22,-769 350.67,-774.67 356.17,-781.69"/>
<polygon fill="gray" stroke="gray" stroke-width="2" points="353.22,-783.6 362.15,-789.31 358.73,-779.28 353.22,-783.6"/>
</g>
<!-- ASJ -->
<g id="node5" class="node">
<title>ASJ</title>
<ellipse fill="none" stroke="black" cx="377.82" cy="-729" rx="27" ry="18"/>
<text text-anchor="middle" x="377.82" y="-723.58" font-family="Times New Roman,serif" font-size="14.00">ASJ</text>
</g>
<!-- ALA&#45;&gt;ASJ -->
<g id="edge4" class="edge">
<title>ALA&#45;&gt;ASJ</title>
<path fill="none" stroke="gray" stroke-width="2" d="M290.27,-634.11C316.26,-657.77 342.21,-683.33 358.82,-702.31"/>
<polygon fill="gray" stroke="gray" stroke-width="2" points="355.98,-704.37 365.08,-709.8 361.35,-699.88 355.98,-704.37"/>
</g>
<!-- AVA -->
<g id="node6" class="node">
<title>AVA</title>
<ellipse fill="none" stroke="black" cx="377.82" cy="-650" rx="30.11" ry="18"/>
<text text-anchor="middle" x="377.82" y="-644.58" font-family="Times New Roman,serif" font-size="14.00">AVA</text>
</g>
<!-- ALA&#45;&gt;AVA -->
<g id="edge5" class="edge">
<title>ALA&#45;&gt;AVA</title>
<path fill="none" stroke="gray" stroke-width="0.2" d="M300.93,-615.46C316.41,-622.51 331.42,-629.34 343.95,-635.04"/>
<polygon fill="gray" stroke="gray" stroke-width="0.2" points="342.19,-638.09 352.74,-639.04 345.09,-631.71 342.19,-638.09"/>
</g>
<!-- AVD -->
<g id="node7" class="node">
<title>AVD</title>
<ellipse fill="none" stroke="black" cx="377.82" cy="-571" rx="30.11" ry="18"/>
<text text-anchor="middle" x="377.82" y="-565.58" font-family="Times New Roman,serif" font-size="14.00">AVD</text>
</g>
<!-- ALA&#45;&gt;AVD -->
<g id="edge6" class="edge">
<title>ALA&#45;&gt;AVD</title>
<path fill="none" stroke="gray" stroke-width="0.2" d="M309.2,-555.23C321.67,-555.7 333.59,-556.63 343.84,-558.03"/>
<polygon fill="gray" stroke="gray" stroke-width="0.2" points="343.16,-561.46 353.59,-559.6 344.27,-554.55 343.16,-561.46"/>
</g>
<!-- AVE -->
<g id="node8" class="node">
<title>AVE</title>
<ellipse fill="none" stroke="black" cx="377.82" cy="-492" rx="29.11" ry="18"/>
<text text-anchor="middle" x="377.82" y="-486.57" font-family="Times New Roman,serif" font-size="14.00">AVE</text>
</g>
<!-- ALA&#45;&gt;AVE -->
<g id="edge7" class="edge">
<title>ALA&#45;&gt;AVE</title>
<path fill="none" stroke="black" stroke-width="2" d="M300.93,-526.54C315.58,-519.87 329.8,-513.39 341.91,-507.89"/>
<polygon fill="black" stroke="black" stroke-width="2" points="343.27,-511.11 350.92,-503.79 340.37,-504.74 343.27,-511.11"/>
</g>
<!-- BDU -->
<g id="node9" class="node">
<title>BDU</title>
<ellipse fill="none" stroke="black" cx="377.82" cy="-413" rx="29.61" ry="18"/>
<text text-anchor="middle" x="377.82" y="-407.57" font-family="Times New Roman,serif" font-size="14.00">BDU</text>
</g>
<!-- ALA&#45;&gt;BDU -->
<g id="edge8" class="edge">
<title>ALA&#45;&gt;BDU</title>
<path fill="none" stroke="gray" stroke-width="0.2" d="M282.9,-498.47C308.49,-475.19 334.9,-451.15 353.17,-434.52"/>
<polygon fill="gray" stroke="gray" stroke-width="0.2" points="355.21,-437.4 360.25,-428.08 350.5,-432.22 355.21,-437.4"/>
</g>
<!-- CAN -->
<g id="node10" class="node">
<title>CAN</title>
<ellipse fill="none" stroke="black" cx="377.82" cy="-334" rx="30.11" ry="18"/>
<text text-anchor="middle" x="377.82" y="-328.57" font-family="Times New Roman,serif" font-size="14.00">CAN</text>
</g>
<!-- ALA&#45;&gt;CAN -->
<g id="edge9" class="edge">
<title>ALA&#45;&gt;CAN</title>
<path fill="none" stroke="gray" stroke-width="2" d="M266.35,-483.58C304.66,-430.54 346.22,-373 346.22,-373 346.22,-373 350.67,-367.33 356.17,-360.31"/>
<polygon fill="gray" stroke="gray" stroke-width="2" points="358.73,-362.72 362.15,-352.69 353.22,-358.4 358.73,-362.72"/>
</g>
<!-- PVN -->
<g id="node11" class="node">
<title>PVN</title>
<ellipse fill="none" stroke="black" cx="377.82" cy="-255" rx="29.11" ry="18"/>
<text text-anchor="middle" x="377.82" y="-249.57" font-family="Times New Roman,serif" font-size="14.00">PVN</text>
</g>
<!-- ALA&#45;&gt;PVN -->
<g id="edge10" class="edge">
<title>ALA&#45;&gt;PVN</title>
<path fill="none" stroke="gray" stroke-width="0.2" d="M252.63,-475.28C293.96,-395.22 346.22,-294 346.22,-294 346.22,-294 351.51,-287.25 357.7,-279.37"/>
<polygon fill="gray" stroke="gray" stroke-width="0.2" points="360.41,-281.58 363.83,-271.55 354.9,-277.26 360.41,-281.58"/>
</g>
<!-- PVQ -->
<g id="node12" class="node">
<title>PVQ</title>
<ellipse fill="none" stroke="black" cx="377.82" cy="-176" rx="29.61" ry="18"/>
<text text-anchor="middle" x="377.82" y="-170.57" font-family="Times New Roman,serif" font-size="14.00">PVQ</text>
</g>
<!-- ALA&#45;&gt;PVQ -->
<g id="edge11" class="edge">
<title>ALA&#45;&gt;PVQ</title>
<path fill="none" stroke="gray" stroke-width="2" d="M238.2,-469.11C274.75,-372.34 328.69,-237.25 346.94,-197.16"/>
<polygon fill="gray" stroke="gray" stroke-width="2" points="349.93,-198.99 351.34,-188.49 343.69,-195.82 349.93,-198.99"/>
</g>
<!-- RIA -->
<g id="node13" class="node">
<title>RIA</title>
<ellipse fill="none" stroke="black" cx="377.82" cy="-97" rx="27" ry="18"/>
<text text-anchor="middle" x="377.82" y="-91.58" font-family="Times New Roman,serif" font-size="14.00">RIA</text>
</g>
<!-- ALA&#45;&gt;RIA -->
<g id="edge12" class="edge">
<title>ALA&#45;&gt;RIA</title>
<path fill="none" stroke="gray" stroke-width="0.2" d="M236.92,-468.46C279.2,-339.86 346.22,-136 346.22,-136 346.22,-136 351.78,-128.91 358.16,-120.78"/>
<polygon fill="gray" stroke="gray" stroke-width="0.2" points="360.77,-123.13 364.19,-113.1 355.26,-118.81 360.77,-123.13"/>
</g>
<!-- RMD -->
<g id="node14" class="node">
<title>RMD</title>
<ellipse fill="none" stroke="black" cx="377.82" cy="-18" rx="31.6" ry="18"/>
<text text-anchor="middle" x="377.82" y="-12.57" font-family="Times New Roman,serif" font-size="14.00">RMD</text>
</g>
<!-- ALA&#45;&gt;RMD -->
<g id="edge13" class="edge">
<title>ALA&#45;&gt;RMD</title>
<path fill="none" stroke="gray" stroke-width="0.2" d="M232.15,-466.98C273.94,-316.79 346.22,-57 346.22,-57 346.22,-57 351.51,-50.25 357.7,-42.37"/>
<polygon fill="gray" stroke="gray" stroke-width="0.2" points="360.41,-44.58 363.83,-34.55 354.9,-40.26 360.41,-44.58"/>
</g>
<!-- ADL&#45;&gt;ALA -->
<g id="edge14" class="edge">
<title>ADL&#45;&gt;ALA</title>
<path fill="none" stroke="gray" stroke-width="5" d="M352.71,-956.21C348.91,-951.94 346.22,-948.5 346.22,-948.5 346.22,-948.5 286.18,-799.04 243.91,-687.95"/>
<polygon fill="gray" stroke="gray" stroke-width="5" points="248.05,-686.53 240.41,-678.73 239.86,-689.63 248.05,-686.53"/>
</g>
<!-- AIM&#45;&gt;ALA -->
<g id="edge15" class="edge">
<title>AIM&#45;&gt;ALA</title>
<path fill="none" stroke="gray" stroke-width="0.2" d="M353.31,-877.89C349.2,-873.31 346.22,-869.5 346.22,-869.5 346.22,-869.5 292.14,-764.75 250.49,-679.08"/>
<polygon fill="gray" stroke="gray" stroke-width="0.2" points="253.76,-677.8 246.25,-670.33 247.47,-680.86 253.76,-677.8"/>
</g>
<!-- ASJ&#45;&gt;ALA -->
<g id="edge16" class="edge">
<title>ASJ&#45;&gt;ALA</title>
<path fill="none" stroke="gray" stroke-width="2" d="M354.38,-719.83C336.34,-706.93 309.83,-684.42 284.03,-660.65"/>
<polygon fill="gray" stroke="gray" stroke-width="2" points="286.5,-658.16 276.79,-653.91 281.73,-663.28 286.5,-658.16"/>
</g>
<!-- AVD&#45;&gt;ALA -->
<g id="edge17" class="edge">
<title>AVD&#45;&gt;ALA</title>
<path fill="none" stroke="gray" stroke-width="0.2" d="M353.89,-582.35C344.25,-584.19 332.27,-585.5 319.29,-586.28"/>
<polygon fill="gray" stroke="gray" stroke-width="0.2" points="319.32,-582.77 309.51,-586.76 319.66,-589.77 319.32,-582.77"/>
</g>
<!-- PVQ&#45;&gt;ALA -->
<g id="edge18" class="edge">
<title>PVQ&#45;&gt;ALA</title>
<path fill="none" stroke="gray" stroke-width="0.2" d="M372.3,-193.9C363.79,-214.1 346.22,-236.5 346.22,-236.5 346.22,-236.5 294.28,-365.79 253.01,-463.83"/>
<polygon fill="gray" stroke="gray" stroke-width="0.2" points="249.83,-462.36 249.17,-472.94 256.28,-465.08 249.83,-462.36"/>
</g>
<!-- ASK -->
<g id="node15" class="node">
<title>ASK</title>
<ellipse fill="none" stroke="black" cx="29.11" cy="-571" rx="29.11" ry="18"/>
<text text-anchor="middle" x="29.11" y="-565.58" font-family="Times New Roman,serif" font-size="14.00">ASK</text>
</g>
<!-- ASK&#45;&gt;ALA -->
<g id="edge19" class="edge">
<title>ASK&#45;&gt;ALA</title>
<path fill="none" stroke="gray" stroke-width="0.2" d="M58.36,-571C65.89,-571 74.52,-571 83.71,-571"/>
<polygon fill="gray" stroke="gray" stroke-width="0.2" points="83.6,-574.5 93.6,-571 83.6,-567.5 83.6,-574.5"/>
</g>
</g>
</svg>
