<?xml version="1.0" encoding="UTF-8" standalone="no"?>
<!DOCTYPE svg PUBLIC "-//W3C//DTD SVG 1.1//EN"
 "http://www.w3.org/Graphics/SVG/1.1/DTD/svg11.dtd">
<!-- Generated by graphviz version 11.0.0 (20240428.1522)
 -->
<!-- Pages: 1 -->
<svg width="420pt" height="2335pt"
 viewBox="0.00 0.00 420.42 2335.00" xmlns="http://www.w3.org/2000/svg" xmlns:xlink="http://www.w3.org/1999/xlink">
<g id="graph0" class="graph" transform="scale(1 1) rotate(0) translate(4 2331)">
<polygon fill="white" stroke="none" points="-4,4 -4,-2331 416.42,-2331 416.42,4 -4,4"/>
<!-- ALM -->
<g id="node1" class="node">
<title>ALM</title>
<ellipse fill="none" stroke="black" cx="204.21" cy="-1282" rx="108" ry="108"/>
<text text-anchor="middle" x="204.21" y="-1263" font-family="Times New Roman,serif" font-size="50.00">ALM</text>
</g>
<!-- ALM&#45;&gt;ALM -->
<g id="edge1" class="edge">
<title>ALM&#45;&gt;ALM</title>
<path fill="none" stroke="gray" stroke-width="2" d="M171.88,-1385.39C173.8,-1412.51 184.57,-1433 204.21,-1433 220.63,-1433 230.85,-1418.68 234.89,-1398.14"/>
<polygon fill="gray" stroke="gray" stroke-width="2" points="238.34,-1398.76 236.16,-1388.4 231.39,-1397.86 238.34,-1398.76"/>
</g>
<!-- ADE -->
<g id="node2" class="node">
<title>ADE</title>
<ellipse fill="none" stroke="black" cx="380.31" cy="-2309" rx="29.11" ry="18"/>
<text text-anchor="middle" x="380.31" y="-2303.57" font-family="Times New Roman,serif" font-size="14.00">ADE</text>
</g>
<!-- ALM&#45;&gt;ADE -->
<g id="edge2" class="edge">
<title>ALM&#45;&gt;ADE</title>
<path fill="none" stroke="gray" stroke-width="5" d="M222.25,-1388.59C260.17,-1640.18 348.21,-2248.5 348.21,-2248.5 348.21,-2248.5 358.68,-2261.63 367.47,-2276.85"/>
<polygon fill="gray" stroke="gray" stroke-width="5" points="363.46,-2278.62 371.9,-2285.54 371.26,-2274.65 363.46,-2278.62"/>
</g>
<!-- AIM -->
<g id="node3" class="node">
<title>AIM</title>
<ellipse fill="none" stroke="black" cx="380.31" cy="-2230" rx="28.11" ry="18"/>
<text text-anchor="middle" x="380.31" y="-2224.57" font-family="Times New Roman,serif" font-size="14.00">AIM</text>
</g>
<!-- ALM&#45;&gt;AIM -->
<g id="edge3" class="edge">
<title>ALM&#45;&gt;AIM</title>
<path fill="none" stroke="gray" stroke-width="0.2" d="M223.76,-1388.39C262.45,-1624.36 348.21,-2169.5 348.21,-2169.5 348.21,-2169.5 361.16,-2185.74 370.35,-2203.04"/>
<polygon fill="gray" stroke="gray" stroke-width="0.2" points="367.1,-2204.34 374.59,-2211.83 373.4,-2201.3 367.1,-2204.34"/>
</g>
<!-- AIN -->
<g id="node4" class="node">
<title>AIN</title>
<ellipse fill="none" stroke="black" cx="380.31" cy="-2151" rx="27" ry="18"/>
<text text-anchor="middle" x="380.31" y="-2145.57" font-family="Times New Roman,serif" font-size="14.00">AIN</text>
</g>
<!-- ALM&#45;&gt;AIN -->
<g id="edge4" class="edge">
<title>ALM&#45;&gt;AIN</title>
<path fill="none" stroke="gray" stroke-width="0.2" d="M223.54,-1388.39C262.13,-1612.35 348.21,-2112 348.21,-2112 348.21,-2112 353.86,-2119.09 360.35,-2127.22"/>
<polygon fill="gray" stroke="gray" stroke-width="0.2" points="357.5,-2129.26 366.48,-2134.9 362.98,-2124.9 357.5,-2129.26"/>
</g>
<!-- AIY -->
<g id="node5" class="node">
<title>AIY</title>
<ellipse fill="none" stroke="black" cx="380.31" cy="-2072" rx="27" ry="18"/>
<text text-anchor="middle" x="380.31" y="-2066.57" font-family="Times New Roman,serif" font-size="14.00">AIY</text>
</g>
<!-- ALM&#45;&gt;AIY -->
<g id="edge5" class="edge">
<title>ALM&#45;&gt;AIY</title>
<path fill="none" stroke="gray" stroke-width="0.2" d="M225.4,-1388.01C264.82,-1595.02 348.21,-2033 348.21,-2033 348.21,-2033 353.86,-2040.09 360.35,-2048.22"/>
<polygon fill="gray" stroke="gray" stroke-width="0.2" points="357.5,-2050.26 366.48,-2055.9 362.98,-2045.9 357.5,-2050.26"/>
</g>
<!-- ALN -->
<g id="node6" class="node">
<title>ALN</title>
<ellipse fill="none" stroke="black" cx="380.31" cy="-1993" rx="29.11" ry="18"/>
<text text-anchor="middle" x="380.31" y="-1987.58" font-family="Times New Roman,serif" font-size="14.00">ALN</text>
</g>
<!-- ALM&#45;&gt;ALN -->
<g id="edge6" class="edge">
<title>ALM&#45;&gt;ALN</title>
<path fill="none" stroke="gray" stroke-width="0.2" d="M227.71,-1387.74C267.98,-1576.98 348.21,-1954 348.21,-1954 348.21,-1954 353.86,-1961.09 360.35,-1969.22"/>
<polygon fill="gray" stroke="gray" stroke-width="0.2" points="357.5,-1971.26 366.48,-1976.9 362.98,-1966.9 357.5,-1971.26"/>
</g>
<!-- AVB -->
<g id="node7" class="node">
<title>AVB</title>
<ellipse fill="none" stroke="black" cx="380.31" cy="-1914" rx="29.61" ry="18"/>
<text text-anchor="middle" x="380.31" y="-1908.58" font-family="Times New Roman,serif" font-size="14.00">AVB</text>
</g>
<!-- ALM&#45;&gt;AVB -->
<g id="edge7" class="edge">
<title>ALM&#45;&gt;AVB</title>
<path fill="none" stroke="gray" stroke-width="5" d="M230.53,-1386.99C271.6,-1557.31 348.21,-1875 348.21,-1875 348.21,-1875 351.77,-1879.46 356.47,-1885.36"/>
<polygon fill="gray" stroke="gray" stroke-width="5" points="352.76,-1887.72 362.42,-1892.81 359.6,-1882.26 352.76,-1887.72"/>
</g>
<!-- AVD -->
<g id="node8" class="node">
<title>AVD</title>
<ellipse fill="none" stroke="black" cx="380.31" cy="-1835" rx="30.11" ry="18"/>
<text text-anchor="middle" x="380.31" y="-1829.58" font-family="Times New Roman,serif" font-size="14.00">AVD</text>
</g>
<!-- ALM&#45;&gt;AVD -->
<g id="edge8" class="edge">
<title>ALM&#45;&gt;AVD</title>
<path fill="none" stroke="black" stroke-width="5" d="M234.15,-1386.02C275.94,-1536.21 348.21,-1796 348.21,-1796 348.21,-1796 351.77,-1800.46 356.47,-1806.36"/>
<polygon fill="black" stroke="black" stroke-width="5" points="352.76,-1808.72 362.42,-1813.81 359.6,-1803.26 352.76,-1808.72"/>
</g>
<!-- AVE -->
<g id="node9" class="node">
<title>AVE</title>
<ellipse fill="none" stroke="black" cx="380.31" cy="-1756" rx="29.11" ry="18"/>
<text text-anchor="middle" x="380.31" y="-1750.58" font-family="Times New Roman,serif" font-size="14.00">AVE</text>
</g>
<!-- ALM&#45;&gt;AVE -->
<g id="edge9" class="edge">
<title>ALM&#45;&gt;AVE</title>
<path fill="none" stroke="gray" stroke-width="0.2" d="M243.44,-1382.99C285.8,-1505.64 348.21,-1695.5 348.21,-1695.5 348.21,-1695.5 361.16,-1711.74 370.35,-1729.04"/>
<polygon fill="gray" stroke="gray" stroke-width="0.2" points="367.1,-1730.34 374.59,-1737.83 373.4,-1727.3 367.1,-1730.34"/>
</g>
<!-- AVJ -->
<g id="node10" class="node">
<title>AVJ</title>
<ellipse fill="none" stroke="black" cx="380.31" cy="-1677" rx="27.11" ry="18"/>
<text text-anchor="middle" x="380.31" y="-1671.58" font-family="Times New Roman,serif" font-size="14.00">AVJ</text>
</g>
<!-- ALM&#45;&gt;AVJ -->
<g id="edge10" class="edge">
<title>ALM&#45;&gt;AVJ</title>
<path fill="none" stroke="blue" stroke-width="0.2" d="M251.05,-1379.79C292.88,-1478.74 348.21,-1616.5 348.21,-1616.5 348.21,-1616.5 361.16,-1632.74 370.35,-1650.04"/>
<polygon fill="blue" stroke="blue" stroke-width="0.2" points="367.1,-1651.34 374.59,-1658.83 373.4,-1648.3 367.1,-1651.34"/>
</g>
<!-- AVM -->
<g id="node11" class="node">
<title>AVM</title>
<ellipse fill="none" stroke="black" cx="380.31" cy="-1598" rx="31.6" ry="18"/>
<text text-anchor="middle" x="380.31" y="-1592.58" font-family="Times New Roman,serif" font-size="14.00">AVM</text>
</g>
<!-- ALM&#45;&gt;AVM -->
<g id="edge11" class="edge">
<title>ALM&#45;&gt;AVM</title>
<path fill="none" stroke="gray" stroke-width="0.2" d="M261.73,-1373.97C301.7,-1447.4 348.21,-1537.5 348.21,-1537.5 348.21,-1537.5 361.16,-1553.74 370.35,-1571.04"/>
<polygon fill="gray" stroke="gray" stroke-width="0.2" points="367.1,-1572.34 374.59,-1579.83 373.4,-1569.3 367.1,-1572.34"/>
</g>
<!-- AWB -->
<g id="node12" class="node">
<title>AWB</title>
<ellipse fill="none" stroke="black" cx="380.31" cy="-1519" rx="32.1" ry="18"/>
<text text-anchor="middle" x="380.31" y="-1513.58" font-family="Times New Roman,serif" font-size="14.00">AWB</text>
</g>
<!-- ALM&#45;&gt;AWB -->
<g id="edge12" class="edge">
<title>ALM&#45;&gt;AWB</title>
<path fill="none" stroke="gray" stroke-width="0.2" d="M276.92,-1362.46C312.6,-1409.19 348.21,-1458.5 348.21,-1458.5 348.21,-1458.5 361.03,-1474.57 370.21,-1491.77"/>
<polygon fill="gray" stroke="gray" stroke-width="0.2" points="366.94,-1493.05 374.46,-1500.52 373.24,-1489.99 366.94,-1493.05"/>
</g>
<!-- BDU -->
<g id="node13" class="node">
<title>BDU</title>
<ellipse fill="none" stroke="black" cx="380.31" cy="-1440" rx="29.61" ry="18"/>
<text text-anchor="middle" x="380.31" y="-1434.58" font-family="Times New Roman,serif" font-size="14.00">BDU</text>
</g>
<!-- ALM&#45;&gt;BDU -->
<g id="edge13" class="edge">
<title>ALM&#45;&gt;BDU</title>
<path fill="none" stroke="gray" stroke-width="5" d="M292.26,-1344.88C317.28,-1367.58 342.31,-1392.07 359.06,-1410.82"/>
<polygon fill="gray" stroke="gray" stroke-width="5" points="355.61,-1413.53 365.42,-1418.32 362.29,-1407.87 355.61,-1413.53"/>
</g>
<!-- CEP -->
<g id="node14" class="node">
<title>CEP</title>
<ellipse fill="none" stroke="black" cx="380.31" cy="-1361" rx="28.11" ry="18"/>
<text text-anchor="middle" x="380.31" y="-1355.58" font-family="Times New Roman,serif" font-size="14.00">CEP</text>
</g>
<!-- ALM&#45;&gt;CEP -->
<g id="edge14" class="edge">
<title>ALM&#45;&gt;CEP</title>
<path fill="none" stroke="gray" stroke-width="5" d="M308,-1312.75C324.22,-1320.61 339.69,-1328.89 352.05,-1336.53"/>
<polygon fill="gray" stroke="gray" stroke-width="5" points="349.49,-1340.08 360.24,-1341.99 354.35,-1332.8 349.49,-1340.08"/>
</g>
<!-- PVC -->
<g id="node15" class="node">
<title>PVC</title>
<ellipse fill="none" stroke="black" cx="380.31" cy="-1282" rx="29.11" ry="18"/>
<text text-anchor="middle" x="380.31" y="-1276.58" font-family="Times New Roman,serif" font-size="14.00">PVC</text>
</g>
<!-- ALM&#45;&gt;PVC -->
<g id="edge15" class="edge">
<title>ALM&#45;&gt;PVC</title>
<path fill="none" stroke="black" stroke-width="5" d="M311.5,-1266.23C321.94,-1266.62 332,-1267.34 341.02,-1268.37"/>
<polygon fill="black" stroke="black" stroke-width="5" points="340.22,-1272.68 350.76,-1269.84 341.52,-1264.03 340.22,-1272.68"/>
</g>
<!-- PVN -->
<g id="node16" class="node">
<title>PVN</title>
<ellipse fill="none" stroke="black" cx="380.31" cy="-1203" rx="29.11" ry="18"/>
<text text-anchor="middle" x="380.31" y="-1197.58" font-family="Times New Roman,serif" font-size="14.00">PVN</text>
</g>
<!-- ALM&#45;&gt;PVN -->
<g id="edge16" class="edge">
<title>ALM&#45;&gt;PVN</title>
<path fill="none" stroke="gray" stroke-width="2" d="M296.09,-1224.65C311.05,-1217.97 325.87,-1211.99 338.75,-1207.53"/>
<polygon fill="gray" stroke="gray" stroke-width="2" points="339.62,-1210.93 348.06,-1204.52 337.46,-1204.27 339.62,-1210.93"/>
</g>
<!-- PVP -->
<g id="node17" class="node">
<title>PVP</title>
<ellipse fill="none" stroke="black" cx="380.31" cy="-1124" rx="28.11" ry="18"/>
<text text-anchor="middle" x="380.31" y="-1118.58" font-family="Times New Roman,serif" font-size="14.00">PVP</text>
</g>
<!-- ALM&#45;&gt;PVP -->
<g id="edge17" class="edge">
<title>ALM&#45;&gt;PVP</title>
<path fill="none" stroke="gray" stroke-width="0.2" d="M284.88,-1209.7C310.73,-1186.24 337.46,-1161.98 355.85,-1145.29"/>
<polygon fill="gray" stroke="gray" stroke-width="0.2" points="357.92,-1148.14 362.98,-1138.83 353.22,-1142.96 357.92,-1148.14"/>
</g>
<!-- PVR -->
<g id="node18" class="node">
<title>PVR</title>
<ellipse fill="none" stroke="black" cx="380.31" cy="-1045" rx="29.11" ry="18"/>
<text text-anchor="middle" x="380.31" y="-1039.58" font-family="Times New Roman,serif" font-size="14.00">PVR</text>
</g>
<!-- ALM&#45;&gt;PVR -->
<g id="edge18" class="edge">
<title>ALM&#45;&gt;PVR</title>
<path fill="none" stroke="gray" stroke-width="0.2" d="M268.35,-1194.58C306.66,-1141.54 348.21,-1084 348.21,-1084 348.21,-1084 353.86,-1076.91 360.35,-1068.78"/>
<polygon fill="gray" stroke="gray" stroke-width="0.2" points="362.98,-1071.1 366.48,-1061.1 357.5,-1066.74 362.98,-1071.1"/>
</g>
<!-- RIC -->
<g id="node19" class="node">
<title>RIC</title>
<ellipse fill="none" stroke="black" cx="380.31" cy="-966" rx="27" ry="18"/>
<text text-anchor="middle" x="380.31" y="-960.58" font-family="Times New Roman,serif" font-size="14.00">RIC</text>
</g>
<!-- ALM&#45;&gt;RIC -->
<g id="edge19" class="edge">
<title>ALM&#45;&gt;RIC</title>
<path fill="none" stroke="gray" stroke-width="0.2" d="M254.62,-1186.28C295.96,-1106.22 348.21,-1005 348.21,-1005 348.21,-1005 353.86,-997.91 360.35,-989.78"/>
<polygon fill="gray" stroke="gray" stroke-width="0.2" points="362.98,-992.1 366.48,-982.1 357.5,-987.74 362.98,-992.1"/>
</g>
<!-- RID -->
<g id="node20" class="node">
<title>RID</title>
<ellipse fill="none" stroke="black" cx="380.31" cy="-887" rx="27" ry="18"/>
<text text-anchor="middle" x="380.31" y="-881.58" font-family="Times New Roman,serif" font-size="14.00">RID</text>
</g>
<!-- ALM&#45;&gt;RID -->
<g id="edge20" class="edge">
<title>ALM&#45;&gt;RID</title>
<path fill="none" stroke="gray" stroke-width="0.2" d="M245.43,-1181.89C287.72,-1076.59 348.21,-926 348.21,-926 348.21,-926 353.86,-918.91 360.35,-910.78"/>
<polygon fill="gray" stroke="gray" stroke-width="0.2" points="362.98,-913.1 366.48,-903.1 357.5,-908.74 362.98,-913.1"/>
</g>
<!-- RIF -->
<g id="node21" class="node">
<title>RIF</title>
<ellipse fill="none" stroke="black" cx="380.31" cy="-808" rx="27" ry="18"/>
<text text-anchor="middle" x="380.31" y="-802.58" font-family="Times New Roman,serif" font-size="14.00">RIF</text>
</g>
<!-- ALM&#45;&gt;RIF -->
<g id="edge21" class="edge">
<title>ALM&#45;&gt;RIF</title>
<path fill="none" stroke="gray" stroke-width="2" d="M234.84,-1177.97C271.74,-1059.04 331.6,-876.14 350.7,-828.05"/>
<polygon fill="gray" stroke="gray" stroke-width="2" points="353.79,-829.71 354.79,-819.17 347.43,-826.79 353.79,-829.71"/>
</g>
<!-- RIH -->
<g id="node22" class="node">
<title>RIH</title>
<ellipse fill="none" stroke="black" cx="380.31" cy="-729" rx="27" ry="18"/>
<text text-anchor="middle" x="380.31" y="-723.58" font-family="Times New Roman,serif" font-size="14.00">RIH</text>
</g>
<!-- ALM&#45;&gt;RIH -->
<g id="edge22" class="edge">
<title>ALM&#45;&gt;RIH</title>
<path fill="none" stroke="gray" stroke-width="0.2" d="M234.15,-1177.98C275.94,-1027.79 348.21,-768 348.21,-768 348.21,-768 353.86,-760.91 360.35,-752.78"/>
<polygon fill="gray" stroke="gray" stroke-width="0.2" points="362.98,-755.1 366.48,-745.1 357.5,-750.74 362.98,-755.1"/>
</g>
<!-- RIS -->
<g id="node23" class="node">
<title>RIS</title>
<ellipse fill="none" stroke="black" cx="380.31" cy="-650" rx="27" ry="18"/>
<text text-anchor="middle" x="380.31" y="-644.58" font-family="Times New Roman,serif" font-size="14.00">RIS</text>
</g>
<!-- ALM&#45;&gt;RIS -->
<g id="edge23" class="edge">
<title>ALM&#45;&gt;RIS</title>
<path fill="none" stroke="gray" stroke-width="0.2" d="M227.71,-1176.23C267.98,-1000.19 348.21,-667.5 348.21,-667.5 348.21,-667.5 348.68,-666.91 349.51,-665.91"/>
<polygon fill="gray" stroke="gray" stroke-width="0.2" points="351.92,-668.48 355.86,-658.65 346.65,-663.87 351.92,-668.48"/>
</g>
<!-- RMD -->
<g id="node24" class="node">
<title>RMD</title>
<ellipse fill="none" stroke="black" cx="380.31" cy="-571" rx="31.6" ry="18"/>
<text text-anchor="middle" x="380.31" y="-565.58" font-family="Times New Roman,serif" font-size="14.00">RMD</text>
</g>
<!-- ALM&#45;&gt;RMD -->
<g id="edge24" class="edge">
<title>ALM&#45;&gt;RMD</title>
<path fill="none" stroke="gray" stroke-width="0.2" d="M227.71,-1176.26C267.98,-987.02 348.21,-610 348.21,-610 348.21,-610 353.59,-603.25 359.88,-595.37"/>
<polygon fill="gray" stroke="gray" stroke-width="0.2" points="362.62,-597.55 366.12,-587.55 357.14,-593.19 362.62,-597.55"/>
</g>
<!-- RMG -->
<g id="node25" class="node">
<title>RMG</title>
<ellipse fill="none" stroke="black" cx="380.31" cy="-492" rx="32.1" ry="18"/>
<text text-anchor="middle" x="380.31" y="-486.57" font-family="Times New Roman,serif" font-size="14.00">RMG</text>
</g>
<!-- ALM&#45;&gt;RMG -->
<g id="edge25" class="edge">
<title>ALM&#45;&gt;RMG</title>
<path fill="none" stroke="gray" stroke-width="0.2" d="M223.32,-1175.48C258.72,-980.29 334.68,-580.63 351.06,-512.65"/>
<polygon fill="gray" stroke="gray" stroke-width="0.2" points="354.41,-513.66 353.83,-503.08 347.69,-511.71 354.41,-513.66"/>
</g>
<!-- SDQ -->
<g id="node26" class="node">
<title>SDQ</title>
<ellipse fill="none" stroke="black" cx="380.31" cy="-413" rx="29.61" ry="18"/>
<text text-anchor="middle" x="380.31" y="-407.57" font-family="Times New Roman,serif" font-size="14.00">SDQ</text>
</g>
<!-- ALM&#45;&gt;SDQ -->
<g id="edge26" class="edge">
<title>ALM&#45;&gt;SDQ</title>
<path fill="none" stroke="gray" stroke-width="0.2" d="M221.76,-1175C256.6,-962.99 335.31,-505.44 352.04,-432.57"/>
<polygon fill="gray" stroke="gray" stroke-width="0.2" points="355.37,-433.66 354.73,-423.08 348.63,-431.75 355.37,-433.66"/>
</g>
<!-- SIA -->
<g id="node27" class="node">
<title>SIA</title>
<ellipse fill="none" stroke="black" cx="380.31" cy="-334" rx="27" ry="18"/>
<text text-anchor="middle" x="380.31" y="-328.57" font-family="Times New Roman,serif" font-size="14.00">SIA</text>
</g>
<!-- ALM&#45;&gt;SIA -->
<g id="edge27" class="edge">
<title>ALM&#45;&gt;SIA</title>
<path fill="none" stroke="gray" stroke-width="0.2" d="M220.38,-1175C257.18,-930.14 348.21,-351.5 348.21,-351.5 348.21,-351.5 348.68,-350.91 349.51,-349.91"/>
<polygon fill="gray" stroke="gray" stroke-width="0.2" points="351.92,-352.48 355.86,-342.65 346.65,-347.87 351.92,-352.48"/>
</g>
<!-- SIB -->
<g id="node28" class="node">
<title>SIB</title>
<ellipse fill="none" stroke="black" cx="380.31" cy="-255" rx="27" ry="18"/>
<text text-anchor="middle" x="380.31" y="-249.57" font-family="Times New Roman,serif" font-size="14.00">SIB</text>
</g>
<!-- ALM&#45;&gt;SIB -->
<g id="edge28" class="edge">
<title>ALM&#45;&gt;SIB</title>
<path fill="none" stroke="gray" stroke-width="0.2" d="M220.72,-1174.86C257.74,-919.09 348.21,-294 348.21,-294 348.21,-294 353.86,-286.91 360.35,-278.78"/>
<polygon fill="gray" stroke="gray" stroke-width="0.2" points="362.98,-281.1 366.48,-271.1 357.5,-276.74 362.98,-281.1"/>
</g>
<!-- SMB -->
<g id="node29" class="node">
<title>SMB</title>
<ellipse fill="none" stroke="black" cx="380.31" cy="-176" rx="30.11" ry="18"/>
<text text-anchor="middle" x="380.31" y="-170.57" font-family="Times New Roman,serif" font-size="14.00">SMB</text>
</g>
<!-- ALM&#45;&gt;SMB -->
<g id="edge29" class="edge">
<title>ALM&#45;&gt;SMB</title>
<path fill="none" stroke="gray" stroke-width="0.2" d="M219.58,-1174.81C255.84,-904.23 348.21,-215 348.21,-215 348.21,-215 353.59,-208.25 359.88,-200.37"/>
<polygon fill="gray" stroke="gray" stroke-width="0.2" points="362.62,-202.55 366.12,-192.55 357.14,-198.19 362.62,-202.55"/>
</g>
<!-- SMD -->
<g id="node30" class="node">
<title>SMD</title>
<ellipse fill="none" stroke="black" cx="380.31" cy="-97" rx="30.61" ry="18"/>
<text text-anchor="middle" x="380.31" y="-91.58" font-family="Times New Roman,serif" font-size="14.00">SMD</text>
</g>
<!-- ALM&#45;&gt;SMD -->
<g id="edge30" class="edge">
<title>ALM&#45;&gt;SMD</title>
<path fill="none" stroke="gray" stroke-width="0.2" d="M218.6,-1174.7C254.15,-889.81 348.21,-136 348.21,-136 348.21,-136 353.59,-129.25 359.88,-121.37"/>
<polygon fill="gray" stroke="gray" stroke-width="0.2" points="362.62,-123.55 366.12,-113.55 357.14,-119.19 362.62,-123.55"/>
</g>
<!-- URB -->
<g id="node31" class="node">
<title>URB</title>
<ellipse fill="none" stroke="black" cx="380.31" cy="-18" rx="29.61" ry="18"/>
<text text-anchor="middle" x="380.31" y="-12.57" font-family="Times New Roman,serif" font-size="14.00">URB</text>
</g>
<!-- ALM&#45;&gt;URB -->
<g id="edge31" class="edge">
<title>ALM&#45;&gt;URB</title>
<path fill="none" stroke="gray" stroke-width="0.2" d="M217.78,-1174.36C252.67,-875.44 348.21,-57 348.21,-57 348.21,-57 353.59,-50.25 359.88,-42.37"/>
<polygon fill="gray" stroke="gray" stroke-width="0.2" points="362.62,-44.55 366.12,-34.55 357.14,-40.19 362.62,-44.55"/>
</g>
<!-- ADE&#45;&gt;ALM -->
<g id="edge32" class="edge">
<title>ADE&#45;&gt;ALM</title>
<path fill="none" stroke="red" stroke-width="0.2" d="M355.11,-2299.55C351.1,-2295.12 348.21,-2291.5 348.21,-2291.5 348.21,-2291.5 257.62,-1665.62 220.65,-1399.31"/>
<polygon fill="red" stroke="red" stroke-width="0.2" points="224.13,-1398.94 219.29,-1389.52 217.2,-1399.91 224.13,-1398.94"/>
</g>
<!-- AIM&#45;&gt;ALM -->
<g id="edge33" class="edge">
<title>AIM&#45;&gt;ALM</title>
<path fill="none" stroke="red" stroke-width="2" d="M355.43,-2220.89C351.25,-2216.31 348.21,-2212.5 348.21,-2212.5 348.21,-2212.5 260.27,-1653.47 222.31,-1401.84"/>
<polygon fill="red" stroke="red" stroke-width="2" points="225.78,-1401.36 220.83,-1391.99 218.86,-1402.4 225.78,-1401.36"/>
</g>
<!-- AVE&#45;&gt;ALM -->
<g id="edge34" class="edge">
<title>AVE&#45;&gt;ALM</title>
<path fill="none" stroke="gray" stroke-width="0.2" d="M355.11,-1746.55C351.1,-1742.12 348.21,-1738.5 348.21,-1738.5 348.21,-1738.5 280.04,-1531.12 237.83,-1395.66"/>
<polygon fill="gray" stroke="gray" stroke-width="0.2" points="241.24,-1394.83 234.93,-1386.32 234.56,-1396.91 241.24,-1394.83"/>
</g>
<!-- AVJ&#45;&gt;ALM -->
<g id="edge35" class="edge">
<title>AVJ&#45;&gt;ALM</title>
<path fill="none" stroke="gray" stroke-width="0.2" d="M356.06,-1668.58C351.56,-1663.7 348.21,-1659.5 348.21,-1659.5 348.21,-1659.5 286.07,-1504.8 243.72,-1393.2"/>
<polygon fill="gray" stroke="gray" stroke-width="0.2" points="247.12,-1392.29 240.3,-1384.18 240.57,-1394.77 247.12,-1392.29"/>
</g>
<!-- AVM&#45;&gt;ALM -->
<g id="edge36" class="edge">
<title>AVM&#45;&gt;ALM</title>
<path fill="none" stroke="gray" stroke-width="0.2" d="M354.21,-1587.54C350.67,-1583.58 348.21,-1580.5 348.21,-1580.5 348.21,-1580.5 294.13,-1475.75 252.49,-1390.08"/>
<polygon fill="gray" stroke="gray" stroke-width="0.2" points="255.76,-1388.8 248.25,-1381.33 249.46,-1391.86 255.76,-1388.8"/>
</g>
<!-- AWB&#45;&gt;ALM -->
<g id="edge37" class="edge">
<title>AWB&#45;&gt;ALM</title>
<path fill="none" stroke="blue" stroke-width="5" d="M353.92,-1508.21C350.54,-1504.42 348.21,-1501.5 348.21,-1501.5 348.21,-1501.5 307.11,-1444.59 268.98,-1388.48"/>
<polygon fill="blue" stroke="blue" stroke-width="5" points="272.6,-1386.03 263.38,-1380.19 265.35,-1390.93 272.6,-1386.03"/>
</g>
<!-- BDU&#45;&gt;ALM -->
<g id="edge38" class="edge">
<title>BDU&#45;&gt;ALM</title>
<path fill="none" stroke="gray" stroke-width="2" d="M355.53,-1429.91C337.38,-1416.81 311.24,-1394.62 285.84,-1371.25"/>
<polygon fill="gray" stroke="gray" stroke-width="2" points="288.46,-1368.91 278.75,-1364.67 283.69,-1374.04 288.46,-1368.91"/>
</g>
<!-- CEP&#45;&gt;ALM -->
<g id="edge39" class="edge">
<title>CEP&#45;&gt;ALM</title>
<path fill="none" stroke="red" stroke-width="2" d="M352.06,-1360.74C339.7,-1357.16 324.23,-1351.4 308,-1344.53"/>
<polygon fill="red" stroke="red" stroke-width="2" points="309.43,-1341.33 298.86,-1340.55 306.64,-1347.75 309.43,-1341.33"/>
</g>
<!-- PVC&#45;&gt;ALM -->
<g id="edge40" class="edge">
<title>PVC&#45;&gt;ALM</title>
<path fill="none" stroke="blue" stroke-width="0.2" d="M356.92,-1293.23C347.2,-1295.13 335.01,-1296.48 321.79,-1297.27"/>
<polygon fill="blue" stroke="blue" stroke-width="0.2" points="321.62,-1293.77 311.81,-1297.76 321.96,-1300.77 321.62,-1293.77"/>
</g>
<!-- PVN&#45;&gt;ALM -->
<g id="edge41" class="edge">
<title>PVN&#45;&gt;ALM</title>
<path fill="none" stroke="gray" stroke-width="2" d="M365.17,-1218.73C354.16,-1226.79 337.73,-1236.27 319.53,-1245.53"/>
<polygon fill="gray" stroke="gray" stroke-width="2" points="318.11,-1242.32 310.71,-1249.9 321.22,-1248.59 318.11,-1242.32"/>
</g>
<!-- RIF&#45;&gt;ALM -->
<g id="edge42" class="edge">
<title>RIF&#45;&gt;ALM</title>
<path fill="none" stroke="gray" stroke-width="2" d="M374.72,-825.9C366.07,-846.1 348.21,-868.5 348.21,-868.5 348.21,-868.5 289.76,-1046.32 247.59,-1168.96"/>
<polygon fill="gray" stroke="gray" stroke-width="2" points="244.37,-1167.56 244.43,-1178.15 250.99,-1169.84 244.37,-1167.56"/>
</g>
<!-- RIS&#45;&gt;ALM -->
<g id="edge43" class="edge">
<title>RIS&#45;&gt;ALM</title>
<path fill="none" stroke="gray" stroke-width="0.2" d="M374.72,-667.9C366.07,-688.1 348.21,-710.5 348.21,-710.5 348.21,-710.5 278.16,-1001.01 236.11,-1167.98"/>
<polygon fill="gray" stroke="gray" stroke-width="0.2" points="232.76,-1166.97 233.71,-1177.52 239.55,-1168.68 232.76,-1166.97"/>
</g>
<!-- RMG&#45;&gt;ALM -->
<g id="edge44" class="edge">
<title>RMG&#45;&gt;ALM</title>
<path fill="none" stroke="red" stroke-width="0.2" d="M374.59,-510.21C365.89,-530.33 348.21,-552.5 348.21,-552.5 348.21,-552.5 270.55,-960.37 229.69,-1166.34"/>
<polygon fill="red" stroke="red" stroke-width="0.2" points="226.29,-1165.51 227.77,-1176 233.15,-1166.87 226.29,-1165.51"/>
</g>
<!-- SDQ&#45;&gt;ALM -->
<g id="edge45" class="edge">
<title>SDQ&#45;&gt;ALM</title>
<path fill="none" stroke="gray" stroke-width="0.2" d="M374.72,-430.9C366.07,-451.1 348.21,-473.5 348.21,-473.5 348.21,-473.5 267.45,-942.27 227.31,-1166.11"/>
<polygon fill="gray" stroke="gray" stroke-width="0.2" points="223.92,-1165.16 225.6,-1175.63 230.81,-1166.4 223.92,-1165.16"/>
</g>
<!-- SIA&#45;&gt;ALM -->
<g id="edge46" class="edge">
<title>SIA&#45;&gt;ALM</title>
<path fill="none" stroke="gray" stroke-width="0.2" d="M374.72,-351.9C366.07,-372.1 348.21,-394.5 348.21,-394.5 348.21,-394.5 264.78,-924.84 225.37,-1165.76"/>
<polygon fill="gray" stroke="gray" stroke-width="0.2" points="221.97,-1164.88 223.81,-1175.31 228.88,-1166.01 221.97,-1164.88"/>
</g>
<!-- ADA -->
<g id="node32" class="node">
<title>ADA</title>
<ellipse fill="none" stroke="black" cx="30.11" cy="-1480" rx="30.11" ry="18"/>
<text text-anchor="middle" x="30.11" y="-1474.58" font-family="Times New Roman,serif" font-size="14.00">ADA</text>
</g>
<!-- ADA&#45;&gt;ALM -->
<g id="edge47" class="edge">
<title>ADA&#45;&gt;ALM</title>
<path fill="none" stroke="gray" stroke-width="0.2" d="M44.9,-1464.13C62.77,-1443.57 95.32,-1406.12 126.28,-1370.51"/>
<polygon fill="gray" stroke="gray" stroke-width="0.2" points="128.74,-1373.02 132.65,-1363.17 123.45,-1368.42 128.74,-1373.02"/>
</g>
<!-- ADL -->
<g id="node33" class="node">
<title>ADL</title>
<ellipse fill="none" stroke="black" cx="30.11" cy="-1401" rx="29.11" ry="18"/>
<text text-anchor="middle" x="30.11" y="-1395.58" font-family="Times New Roman,serif" font-size="14.00">ADL</text>
</g>
<!-- ADL&#45;&gt;ALM -->
<g id="edge48" class="edge">
<title>ADL&#45;&gt;ALM</title>
<path fill="none" stroke="gray" stroke-width="0.2" d="M50.18,-1387.81C64.38,-1377.99 84.95,-1363.77 106.43,-1348.92"/>
<polygon fill="gray" stroke="gray" stroke-width="0.2" points="108.21,-1351.94 114.45,-1343.38 104.23,-1346.18 108.21,-1351.94"/>
</g>
<!-- HSN -->
<g id="node34" class="node">
<title>HSN</title>
<ellipse fill="none" stroke="black" cx="30.11" cy="-1322" rx="29.11" ry="18"/>
<text text-anchor="middle" x="30.11" y="-1316.58" font-family="Times New Roman,serif" font-size="14.00">HSN</text>
</g>
<!-- HSN&#45;&gt;ALM -->
<g id="edge49" class="edge">
<title>HSN&#45;&gt;ALM</title>
<path fill="none" stroke="gray" stroke-width="0.2" d="M57.62,-1315.84C66.61,-1313.75 77.29,-1311.27 88.74,-1308.61"/>
<polygon fill="gray" stroke="gray" stroke-width="0.2" points="89.26,-1312.08 98.21,-1306.4 87.68,-1305.26 89.26,-1312.08"/>
</g>
<!-- PVQ -->
<g id="node35" class="node">
<title>PVQ</title>
<ellipse fill="none" stroke="black" cx="30.11" cy="-1243" rx="29.61" ry="18"/>
<text text-anchor="middle" x="30.11" y="-1237.58" font-family="Times New Roman,serif" font-size="14.00">PVQ</text>
</g>
<!-- PVQ&#45;&gt;ALM -->
<g id="edge50" class="edge">
<title>PVQ&#45;&gt;ALM</title>
<path fill="none" stroke="gray" stroke-width="0.2" d="M58.38,-1249.18C67.17,-1251.17 77.54,-1253.52 88.62,-1256.03"/>
<polygon fill="gray" stroke="gray" stroke-width="0.2" points="87.7,-1259.41 98.22,-1258.21 89.24,-1252.59 87.7,-1259.41"/>
</g>
<!-- URX -->
<g id="node36" class="node">
<title>URX</title>
<ellipse fill="none" stroke="black" cx="30.11" cy="-1164" rx="30.11" ry="18"/>
<text text-anchor="middle" x="30.11" y="-1158.58" font-family="Times New Roman,serif" font-size="14.00">URX</text>
</g>
<!-- URX&#45;&gt;ALM -->
<g id="edge51" class="edge">
<title>URX&#45;&gt;ALM</title>
<path fill="none" stroke="gray" stroke-width="0.2" d="M50.85,-1177.54C64.96,-1187.21 85.1,-1201.02 106.14,-1215.44"/>
<polygon fill="gray" stroke="gray" stroke-width="0.2" points="104.07,-1218.27 114.3,-1221.04 108.03,-1212.5 104.07,-1218.27"/>
</g>
<!-- URY -->
<g id="node37" class="node">
<title>URY</title>
<ellipse fill="none" stroke="black" cx="30.11" cy="-1085" rx="30.11" ry="18"/>
<text text-anchor="middle" x="30.11" y="-1079.58" font-family="Times New Roman,serif" font-size="14.00">URY</text>
</g>
<!-- URY&#45;&gt;ALM -->
<g id="edge52" class="edge">
<title>URY&#45;&gt;ALM</title>
<path fill="none" stroke="gray" stroke-width="0.2" d="M44.9,-1100.79C62.7,-1121.16 95.05,-1158.19 125.89,-1193.49"/>
<polygon fill="gray" stroke="gray" stroke-width="0.2" points="123.03,-1195.54 132.24,-1200.77 128.3,-1190.93 123.03,-1195.54"/>
</g>
</g>
</svg>
