<?xml version="1.0" encoding="UTF-8" standalone="no"?>
<!DOCTYPE svg PUBLIC "-//W3C//DTD SVG 1.1//EN"
 "http://www.w3.org/Graphics/SVG/1.1/DTD/svg11.dtd">
<!-- Generated by graphviz version 11.0.0 (20240428.1522)
 -->
<!-- Pages: 1 -->
<svg width="421pt" height="1229pt"
 viewBox="0.00 0.00 421.41 1229.00" xmlns="http://www.w3.org/2000/svg" xmlns:xlink="http://www.w3.org/1999/xlink">
<g id="graph0" class="graph" transform="scale(1 1) rotate(0) translate(4 1225)">
<polygon fill="white" stroke="none" points="-4,4 -4,-1225 417.41,-1225 417.41,4 -4,4"/>
<!-- ALN -->
<g id="node1" class="node">
<title>ALN</title>
<ellipse fill="none" stroke="black" cx="205.21" cy="-492" rx="108" ry="108"/>
<text text-anchor="middle" x="205.21" y="-473" font-family="Times New Roman,serif" font-size="50.00">ALN</text>
</g>
<!-- ADE -->
<g id="node2" class="node">
<title>ADE</title>
<ellipse fill="none" stroke="black" cx="381.31" cy="-1203" rx="29.11" ry="18"/>
<text text-anchor="middle" x="381.31" y="-1197.58" font-family="Times New Roman,serif" font-size="14.00">ADE</text>
</g>
<!-- ALN&#45;&gt;ADE -->
<g id="edge1" class="edge">
<title>ALN&#45;&gt;ADE</title>
<path fill="none" stroke="gray" stroke-width="0.2" d="M231.36,-597.17C272.4,-781.53 349.21,-1142.5 349.21,-1142.5 349.21,-1142.5 362.16,-1158.74 371.35,-1176.04"/>
<polygon fill="gray" stroke="gray" stroke-width="0.2" points="368.09,-1177.34 375.59,-1184.83 374.4,-1174.3 368.09,-1177.34"/>
</g>
<!-- AIB -->
<g id="node3" class="node">
<title>AIB</title>
<ellipse fill="none" stroke="black" cx="381.31" cy="-1124" rx="27" ry="18"/>
<text text-anchor="middle" x="381.31" y="-1118.58" font-family="Times New Roman,serif" font-size="14.00">AIB</text>
</g>
<!-- ALN&#45;&gt;AIB -->
<g id="edge2" class="edge">
<title>ALN&#45;&gt;AIB</title>
<path fill="none" stroke="gray" stroke-width="0.2" d="M231.53,-596.99C272.6,-767.31 349.21,-1085 349.21,-1085 349.21,-1085 354.86,-1092.09 361.35,-1100.22"/>
<polygon fill="gray" stroke="gray" stroke-width="0.2" points="358.5,-1102.26 367.47,-1107.9 363.97,-1097.9 358.5,-1102.26"/>
</g>
<!-- AVA -->
<g id="node4" class="node">
<title>AVA</title>
<ellipse fill="none" stroke="black" cx="381.31" cy="-1045" rx="30.11" ry="18"/>
<text text-anchor="middle" x="381.31" y="-1039.58" font-family="Times New Roman,serif" font-size="14.00">AVA</text>
</g>
<!-- ALN&#45;&gt;AVA -->
<g id="edge3" class="edge">
<title>ALN&#45;&gt;AVA</title>
<path fill="none" stroke="gray" stroke-width="5" d="M235.15,-596.02C276.93,-746.21 349.21,-1006 349.21,-1006 349.21,-1006 352.76,-1010.46 357.47,-1016.36"/>
<polygon fill="gray" stroke="gray" stroke-width="5" points="353.76,-1018.72 363.41,-1023.81 360.6,-1013.26 353.76,-1018.72"/>
</g>
<!-- IL1 -->
<g id="node5" class="node">
<title>IL1</title>
<ellipse fill="none" stroke="black" cx="381.31" cy="-966" rx="27" ry="18"/>
<text text-anchor="middle" x="381.31" y="-960.58" font-family="Times New Roman,serif" font-size="14.00">IL1</text>
</g>
<!-- ALN&#45;&gt;IL1 -->
<g id="edge4" class="edge">
<title>ALN&#45;&gt;IL1</title>
<path fill="none" stroke="gray" stroke-width="0.2" d="M239.92,-594.54C282.2,-723.14 349.21,-927 349.21,-927 349.21,-927 354.86,-934.09 361.35,-942.22"/>
<polygon fill="gray" stroke="gray" stroke-width="0.2" points="358.5,-944.26 367.47,-949.9 363.97,-939.9 358.5,-944.26"/>
</g>
<!-- RIA -->
<g id="node6" class="node">
<title>RIA</title>
<ellipse fill="none" stroke="black" cx="381.31" cy="-887" rx="27" ry="18"/>
<text text-anchor="middle" x="381.31" y="-881.58" font-family="Times New Roman,serif" font-size="14.00">RIA</text>
</g>
<!-- ALN&#45;&gt;RIA -->
<g id="edge5" class="edge">
<title>ALN&#45;&gt;RIA</title>
<path fill="none" stroke="red" stroke-width="0.2" d="M246.42,-592.11C288.72,-697.41 349.21,-848 349.21,-848 349.21,-848 354.86,-855.09 361.35,-863.22"/>
<polygon fill="red" stroke="red" stroke-width="0.2" points="358.5,-865.26 367.47,-870.9 363.97,-860.9 358.5,-865.26"/>
</g>
<!-- RIG -->
<g id="node7" class="node">
<title>RIG</title>
<ellipse fill="none" stroke="black" cx="381.31" cy="-808" rx="27.11" ry="18"/>
<text text-anchor="middle" x="381.31" y="-802.58" font-family="Times New Roman,serif" font-size="14.00">RIG</text>
</g>
<!-- ALN&#45;&gt;RIG -->
<g id="edge6" class="edge">
<title>ALN&#45;&gt;RIG</title>
<path fill="none" stroke="gray" stroke-width="0.2" d="M262.73,-583.97C302.7,-657.4 349.21,-747.5 349.21,-747.5 349.21,-747.5 362.16,-763.74 371.35,-781.04"/>
<polygon fill="gray" stroke="gray" stroke-width="0.2" points="368.09,-782.34 375.59,-789.83 374.4,-779.3 368.09,-782.34"/>
</g>
<!-- RIM -->
<g id="node8" class="node">
<title>RIM</title>
<ellipse fill="none" stroke="black" cx="381.31" cy="-729" rx="28.11" ry="18"/>
<text text-anchor="middle" x="381.31" y="-723.58" font-family="Times New Roman,serif" font-size="14.00">RIM</text>
</g>
<!-- ALN&#45;&gt;RIM -->
<g id="edge7" class="edge">
<title>ALN&#45;&gt;RIM</title>
<path fill="none" stroke="gray" stroke-width="2" d="M269.35,-579.42C307.66,-632.46 349.21,-690 349.21,-690 349.21,-690 353.86,-695.83 359.57,-702.99"/>
<polygon fill="gray" stroke="gray" stroke-width="2" points="356.8,-705.13 365.77,-710.77 362.28,-700.77 356.8,-705.13"/>
</g>
<!-- RIV -->
<g id="node9" class="node">
<title>RIV</title>
<ellipse fill="none" stroke="black" cx="381.31" cy="-650" rx="27" ry="18"/>
<text text-anchor="middle" x="381.31" y="-644.58" font-family="Times New Roman,serif" font-size="14.00">RIV</text>
</g>
<!-- ALN&#45;&gt;RIV -->
<g id="edge8" class="edge">
<title>ALN&#45;&gt;RIV</title>
<path fill="none" stroke="gray" stroke-width="0.2" d="M285.87,-564.3C311.88,-587.9 338.78,-612.31 357.18,-629.01"/>
<polygon fill="gray" stroke="gray" stroke-width="0.2" points="354.54,-631.34 364.3,-635.47 359.25,-626.16 354.54,-631.34"/>
</g>
<!-- RMD -->
<g id="node10" class="node">
<title>RMD</title>
<ellipse fill="none" stroke="black" cx="381.31" cy="-571" rx="31.6" ry="18"/>
<text text-anchor="middle" x="381.31" y="-565.58" font-family="Times New Roman,serif" font-size="14.00">RMD</text>
</g>
<!-- ALN&#45;&gt;RMD -->
<g id="edge9" class="edge">
<title>ALN&#45;&gt;RMD</title>
<path fill="none" stroke="gray" stroke-width="0.2" d="M303.95,-536.35C319.39,-543.36 334.38,-550.16 346.92,-555.85"/>
<polygon fill="gray" stroke="gray" stroke-width="0.2" points="345.18,-558.9 355.74,-559.85 348.08,-552.53 345.18,-558.9"/>
</g>
<!-- RMG -->
<g id="node11" class="node">
<title>RMG</title>
<ellipse fill="none" stroke="black" cx="381.31" cy="-492" rx="32.1" ry="18"/>
<text text-anchor="middle" x="381.31" y="-486.57" font-family="Times New Roman,serif" font-size="14.00">RMG</text>
</g>
<!-- ALN&#45;&gt;RMG -->
<g id="edge10" class="edge">
<title>ALN&#45;&gt;RMG</title>
<path fill="none" stroke="black" stroke-width="5" d="M312.5,-476.23C322.3,-476.6 331.75,-477.25 340.33,-478.19"/>
<polygon fill="black" stroke="black" stroke-width="5" points="339.39,-482.47 349.9,-479.54 340.62,-473.81 339.39,-482.47"/>
</g>
<!-- RMH -->
<g id="node12" class="node">
<title>RMH</title>
<ellipse fill="none" stroke="black" cx="381.31" cy="-413" rx="31.6" ry="18"/>
<text text-anchor="middle" x="381.31" y="-407.57" font-family="Times New Roman,serif" font-size="14.00">RMH</text>
</g>
<!-- ALN&#45;&gt;RMH -->
<g id="edge11" class="edge">
<title>ALN&#45;&gt;RMH</title>
<path fill="none" stroke="gray" stroke-width="0.2" d="M303.95,-447.65C319.39,-440.64 334.38,-433.84 346.92,-428.15"/>
<polygon fill="gray" stroke="gray" stroke-width="0.2" points="348.08,-431.47 355.74,-424.15 345.18,-425.1 348.08,-431.47"/>
</g>
<!-- SAA -->
<g id="node13" class="node">
<title>SAA</title>
<ellipse fill="none" stroke="black" cx="381.31" cy="-334" rx="29.11" ry="18"/>
<text text-anchor="middle" x="381.31" y="-328.57" font-family="Times New Roman,serif" font-size="14.00">SAA</text>
</g>
<!-- ALN&#45;&gt;SAA -->
<g id="edge12" class="edge">
<title>ALN&#45;&gt;SAA</title>
<path fill="none" stroke="black" stroke-width="5" d="M277.53,-411.39C300.31,-390.03 324.57,-368.83 343.8,-353.72"/>
<polygon fill="black" stroke="black" stroke-width="5" points="346.22,-357.38 351.56,-347.85 340.94,-350.4 346.22,-357.38"/>
</g>
<!-- SIA -->
<g id="node14" class="node">
<title>SIA</title>
<ellipse fill="none" stroke="black" cx="381.31" cy="-255" rx="27" ry="18"/>
<text text-anchor="middle" x="381.31" y="-249.57" font-family="Times New Roman,serif" font-size="14.00">SIA</text>
</g>
<!-- ALN&#45;&gt;SIA -->
<g id="edge13" class="edge">
<title>ALN&#45;&gt;SIA</title>
<path fill="none" stroke="gray" stroke-width="0.2" d="M260.88,-398.97C301.25,-338.9 349.21,-272.5 349.21,-272.5 349.21,-272.5 349.68,-271.91 350.51,-270.91"/>
<polygon fill="gray" stroke="gray" stroke-width="0.2" points="352.91,-273.48 356.86,-263.65 347.64,-268.87 352.91,-273.48"/>
</g>
<!-- SIB -->
<g id="node15" class="node">
<title>SIB</title>
<ellipse fill="none" stroke="black" cx="381.31" cy="-176" rx="27" ry="18"/>
<text text-anchor="middle" x="381.31" y="-170.57" font-family="Times New Roman,serif" font-size="14.00">SIB</text>
</g>
<!-- ALN&#45;&gt;SIB -->
<g id="edge14" class="edge">
<title>ALN&#45;&gt;SIB</title>
<path fill="none" stroke="gray" stroke-width="0.2" d="M255.62,-396.28C296.96,-316.22 349.21,-215 349.21,-215 349.21,-215 354.86,-207.91 361.35,-199.78"/>
<polygon fill="gray" stroke="gray" stroke-width="0.2" points="363.97,-202.1 367.47,-192.1 358.5,-197.74 363.97,-202.1"/>
</g>
<!-- SMB -->
<g id="node16" class="node">
<title>SMB</title>
<ellipse fill="none" stroke="black" cx="381.31" cy="-97" rx="30.11" ry="18"/>
<text text-anchor="middle" x="381.31" y="-91.58" font-family="Times New Roman,serif" font-size="14.00">SMB</text>
</g>
<!-- ALN&#45;&gt;SMB -->
<g id="edge15" class="edge">
<title>ALN&#45;&gt;SMB</title>
<path fill="none" stroke="black" stroke-width="5" d="M241.19,-390.11C276.91,-295.53 329.25,-164.34 348.7,-121.03"/>
<polygon fill="black" stroke="black" stroke-width="5" points="352.47,-123.27 353.02,-112.37 344.64,-119.37 352.47,-123.27"/>
</g>
<!-- SMD -->
<g id="node17" class="node">
<title>SMD</title>
<ellipse fill="none" stroke="black" cx="381.31" cy="-18" rx="30.61" ry="18"/>
<text text-anchor="middle" x="381.31" y="-12.57" font-family="Times New Roman,serif" font-size="14.00">SMD</text>
</g>
<!-- ALN&#45;&gt;SMD -->
<g id="edge16" class="edge">
<title>ALN&#45;&gt;SMD</title>
<path fill="none" stroke="gray" stroke-width="2" d="M235.84,-387.97C272.57,-269.57 332.07,-87.77 350.4,-39.85"/>
<polygon fill="gray" stroke="gray" stroke-width="2" points="353.51,-41.47 354.29,-30.9 347.09,-38.67 353.51,-41.47"/>
</g>
<!-- ADE&#45;&gt;ALN -->
<g id="edge17" class="edge">
<title>ADE&#45;&gt;ALN</title>
<path fill="none" stroke="red" stroke-width="2" d="M356.11,-1193.55C352.1,-1189.12 349.21,-1185.5 349.21,-1185.5 349.21,-1185.5 269.18,-809.4 228.86,-610.93"/>
<polygon fill="red" stroke="red" stroke-width="2" points="232.34,-610.48 226.92,-601.37 225.48,-611.87 232.34,-610.48"/>
</g>
<!-- RIG&#45;&gt;ALN -->
<g id="edge18" class="edge">
<title>RIG&#45;&gt;ALN</title>
<path fill="none" stroke="red" stroke-width="5" d="M357.06,-799.58C352.56,-794.7 349.21,-790.5 349.21,-790.5 349.21,-790.5 297.4,-690.15 256.16,-605.56"/>
<polygon fill="red" stroke="red" stroke-width="5" points="260.14,-603.75 251.84,-596.67 252.27,-607.58 260.14,-603.75"/>
</g>
<!-- RMG&#45;&gt;ALN -->
<g id="edge19" class="edge">
<title>RMG&#45;&gt;ALN</title>
<path fill="none" stroke="gray" stroke-width="2" d="M356.08,-503.58C347.3,-505.18 336.69,-506.36 325.23,-507.12"/>
<polygon fill="gray" stroke="gray" stroke-width="2" points="325.33,-503.61 315.52,-507.61 325.69,-510.6 325.33,-503.61"/>
</g>
<!-- SAA&#45;&gt;ALN -->
<g id="edge20" class="edge">
<title>SAA&#45;&gt;ALN</title>
<path fill="none" stroke="gray" stroke-width="2" d="M370.45,-350.92C356.7,-368.28 330.33,-394.91 302.67,-420.5"/>
<polygon fill="gray" stroke="gray" stroke-width="2" points="300.5,-417.74 295.49,-427.08 305.23,-422.9 300.5,-417.74"/>
</g>
<!-- SIA&#45;&gt;ALN -->
<g id="edge21" class="edge">
<title>SIA&#45;&gt;ALN</title>
<path fill="none" stroke="gray" stroke-width="2" d="M375.72,-272.9C367.07,-293.1 349.21,-315.5 349.21,-315.5 349.21,-315.5 318.56,-357.94 285.64,-401.39"/>
<polygon fill="gray" stroke="gray" stroke-width="2" points="283.02,-399.05 279.75,-409.13 288.59,-403.29 283.02,-399.05"/>
</g>
<!-- SMB&#45;&gt;ALN -->
<g id="edge22" class="edge">
<title>SMB&#45;&gt;ALN</title>
<path fill="none" stroke="red" stroke-width="2" d="M375.72,-114.9C367.07,-135.1 349.21,-157.5 349.21,-157.5 349.21,-157.5 298.11,-284.71 257.01,-382.45"/>
<polygon fill="red" stroke="red" stroke-width="2" points="253.88,-380.85 253.22,-391.43 260.33,-383.57 253.88,-380.85"/>
</g>
<!-- SMD&#45;&gt;ALN -->
<g id="edge23" class="edge">
<title>SMD&#45;&gt;ALN</title>
<path fill="none" stroke="gray" stroke-width="5" d="M375.72,-35.9C367.07,-56.1 349.21,-78.5 349.21,-78.5 349.21,-78.5 291.7,-253.46 249.62,-375.97"/>
<polygon fill="gray" stroke="gray" stroke-width="5" points="245.59,-374.24 246.47,-385.12 253.86,-377.09 245.59,-374.24"/>
</g>
<!-- ADA -->
<g id="node18" class="node">
<title>ADA</title>
<ellipse fill="none" stroke="black" cx="30.61" cy="-611" rx="30.11" ry="18"/>
<text text-anchor="middle" x="30.61" y="-605.58" font-family="Times New Roman,serif" font-size="14.00">ADA</text>
</g>
<!-- ADA&#45;&gt;ALN -->
<g id="edge24" class="edge">
<title>ADA&#45;&gt;ALN</title>
<path fill="none" stroke="gray" stroke-width="0.2" d="M51.07,-597.58C65.38,-587.72 86,-573.5 107.49,-558.68"/>
<polygon fill="gray" stroke="gray" stroke-width="0.2" points="109.27,-561.71 115.51,-553.15 105.29,-555.95 109.27,-561.71"/>
</g>
<!-- ALM -->
<g id="node19" class="node">
<title>ALM</title>
<ellipse fill="none" stroke="black" cx="30.61" cy="-532" rx="30.61" ry="18"/>
<text text-anchor="middle" x="30.61" y="-526.58" font-family="Times New Roman,serif" font-size="14.00">ALM</text>
</g>
<!-- ALM&#45;&gt;ALN -->
<g id="edge25" class="edge">
<title>ALM&#45;&gt;ALN</title>
<path fill="none" stroke="gray" stroke-width="0.2" d="M59.34,-525.57C68.18,-523.52 78.58,-521.11 89.68,-518.54"/>
<polygon fill="gray" stroke="gray" stroke-width="0.2" points="90.34,-521.98 99.3,-516.31 88.76,-515.16 90.34,-521.98"/>
</g>
<!-- AQR -->
<g id="node20" class="node">
<title>AQR</title>
<ellipse fill="none" stroke="black" cx="30.61" cy="-453" rx="30.61" ry="18"/>
<text text-anchor="middle" x="30.61" y="-447.57" font-family="Times New Roman,serif" font-size="14.00">AQR</text>
</g>
<!-- AQR&#45;&gt;ALN -->
<g id="edge26" class="edge">
<title>AQR&#45;&gt;ALN</title>
<path fill="none" stroke="gray" stroke-width="0.2" d="M59.72,-459.35C68.51,-461.34 78.81,-463.67 89.8,-466.15"/>
<polygon fill="gray" stroke="gray" stroke-width="0.2" points="88.78,-469.51 99.31,-468.3 90.32,-462.68 88.78,-469.51"/>
</g>
<!-- ASJ -->
<g id="node21" class="node">
<title>ASJ</title>
<ellipse fill="none" stroke="black" cx="30.61" cy="-374" rx="27" ry="18"/>
<text text-anchor="middle" x="30.61" y="-368.57" font-family="Times New Roman,serif" font-size="14.00">ASJ</text>
</g>
<!-- ASJ&#45;&gt;ALN -->
<g id="edge27" class="edge">
<title>ASJ&#45;&gt;ALN</title>
<path fill="none" stroke="gray" stroke-width="0.2" d="M50.08,-386.63C64.34,-396.38 85.29,-410.7 107.17,-425.66"/>
<polygon fill="gray" stroke="gray" stroke-width="0.2" points="105.11,-428.49 115.34,-431.25 109.06,-422.71 105.11,-428.49"/>
</g>
</g>
</svg>
