<?xml version="1.0" encoding="UTF-8" standalone="no"?>
<!DOCTYPE svg PUBLIC "-//W3C//DTD SVG 1.1//EN"
 "http://www.w3.org/Graphics/SVG/1.1/DTD/svg11.dtd">
<!-- Generated by graphviz version 11.0.0 (20240428.1522)
 -->
<!-- Pages: 1 -->
<svg width="417pt" height="2335pt"
 viewBox="0.00 0.00 417.42 2335.00" xmlns="http://www.w3.org/2000/svg" xmlns:xlink="http://www.w3.org/1999/xlink">
<g id="graph0" class="graph" transform="scale(1 1) rotate(0) translate(4 2331)">
<polygon fill="white" stroke="none" points="-4,4 -4,-2331 413.42,-2331 413.42,4 -4,4"/>
<!-- AQR -->
<g id="node1" class="node">
<title>AQR</title>
<ellipse fill="none" stroke="black" cx="204.21" cy="-1203" rx="108" ry="108"/>
<text text-anchor="middle" x="204.21" y="-1184" font-family="Times New Roman,serif" font-size="50.00">AQR</text>
</g>
<!-- ADE -->
<g id="node2" class="node">
<title>ADE</title>
<ellipse fill="none" stroke="black" cx="378.82" cy="-2309" rx="29.11" ry="18"/>
<text text-anchor="middle" x="378.82" y="-2303.57" font-family="Times New Roman,serif" font-size="14.00">ADE</text>
</g>
<!-- AQR&#45;&gt;ADE -->
<g id="edge1" class="edge">
<title>AQR&#45;&gt;ADE</title>
<path fill="none" stroke="gray" stroke-width="0.2" d="M220.99,-1309.99C258.18,-1576.74 348.21,-2248.5 348.21,-2248.5 348.21,-2248.5 360.54,-2264.74 369.29,-2282.04"/>
<polygon fill="gray" stroke="gray" stroke-width="0.2" points="365.97,-2283.2 373.32,-2290.83 372.33,-2280.28 365.97,-2283.2"/>
</g>
<!-- AIB -->
<g id="node3" class="node">
<title>AIB</title>
<ellipse fill="none" stroke="black" cx="378.82" cy="-2230" rx="27" ry="18"/>
<text text-anchor="middle" x="378.82" y="-2224.57" font-family="Times New Roman,serif" font-size="14.00">AIB</text>
</g>
<!-- AQR&#45;&gt;AIB -->
<g id="edge2" class="edge">
<title>AQR&#45;&gt;AIB</title>
<path fill="none" stroke="gray" stroke-width="0.2" d="M222.25,-1309.59C260.17,-1561.18 348.21,-2169.5 348.21,-2169.5 348.21,-2169.5 360.54,-2185.74 369.29,-2203.04"/>
<polygon fill="gray" stroke="gray" stroke-width="0.2" points="365.97,-2204.2 373.32,-2211.83 372.33,-2201.28 365.97,-2204.2"/>
</g>
<!-- ALN -->
<g id="node4" class="node">
<title>ALN</title>
<ellipse fill="none" stroke="black" cx="378.82" cy="-2151" rx="29.11" ry="18"/>
<text text-anchor="middle" x="378.82" y="-2145.57" font-family="Times New Roman,serif" font-size="14.00">ALN</text>
</g>
<!-- AQR&#45;&gt;ALN -->
<g id="edge3" class="edge">
<title>AQR&#45;&gt;ALN</title>
<path fill="none" stroke="gray" stroke-width="0.2" d="M222.04,-1309.95C259.84,-1550.23 348.21,-2112 348.21,-2112 348.21,-2112 353.34,-2118.75 359.32,-2126.63"/>
<polygon fill="gray" stroke="gray" stroke-width="0.2" points="356.42,-2128.6 365.25,-2134.45 361.99,-2124.36 356.42,-2128.6"/>
</g>
<!-- AUA -->
<g id="node5" class="node">
<title>AUA</title>
<ellipse fill="none" stroke="black" cx="378.82" cy="-2072" rx="30.11" ry="18"/>
<text text-anchor="middle" x="378.82" y="-2066.57" font-family="Times New Roman,serif" font-size="14.00">AUA</text>
</g>
<!-- AQR&#45;&gt;AUA -->
<g id="edge4" class="edge">
<title>AQR&#45;&gt;AUA</title>
<path fill="none" stroke="gray" stroke-width="0.2" d="M223.54,-1309.39C262.13,-1533.35 348.21,-2033 348.21,-2033 348.21,-2033 353.34,-2039.75 359.32,-2047.63"/>
<polygon fill="gray" stroke="gray" stroke-width="0.2" points="356.42,-2049.6 365.25,-2055.45 361.99,-2045.36 356.42,-2049.6"/>
</g>
<!-- AVA -->
<g id="node6" class="node">
<title>AVA</title>
<ellipse fill="none" stroke="black" cx="378.82" cy="-1993" rx="30.11" ry="18"/>
<text text-anchor="middle" x="378.82" y="-1987.58" font-family="Times New Roman,serif" font-size="14.00">AVA</text>
</g>
<!-- AQR&#45;&gt;AVA -->
<g id="edge5" class="edge">
<title>AQR&#45;&gt;AVA</title>
<path fill="none" stroke="black" stroke-width="5" d="M225.4,-1309.01C264.82,-1516.02 348.21,-1954 348.21,-1954 348.21,-1954 351.42,-1958.23 355.73,-1963.9"/>
<polygon fill="black" stroke="black" stroke-width="5" points="352.13,-1966.4 361.66,-1971.72 359.1,-1961.11 352.13,-1966.4"/>
</g>
<!-- AVB -->
<g id="node7" class="node">
<title>AVB</title>
<ellipse fill="none" stroke="black" cx="378.82" cy="-1914" rx="29.61" ry="18"/>
<text text-anchor="middle" x="378.82" y="-1908.58" font-family="Times New Roman,serif" font-size="14.00">AVB</text>
</g>
<!-- AQR&#45;&gt;AVB -->
<g id="edge6" class="edge">
<title>AQR&#45;&gt;AVB</title>
<path fill="none" stroke="red" stroke-width="5" d="M227.71,-1308.74C267.98,-1497.98 348.21,-1875 348.21,-1875 348.21,-1875 351.42,-1879.23 355.73,-1884.9"/>
<polygon fill="red" stroke="red" stroke-width="5" points="352.13,-1887.4 361.66,-1892.72 359.1,-1882.11 352.13,-1887.4"/>
</g>
<!-- AVD -->
<g id="node8" class="node">
<title>AVD</title>
<ellipse fill="none" stroke="black" cx="378.82" cy="-1835" rx="30.11" ry="18"/>
<text text-anchor="middle" x="378.82" y="-1829.58" font-family="Times New Roman,serif" font-size="14.00">AVD</text>
</g>
<!-- AQR&#45;&gt;AVD -->
<g id="edge7" class="edge">
<title>AQR&#45;&gt;AVD</title>
<path fill="none" stroke="red" stroke-width="5" d="M230.53,-1307.99C271.6,-1478.31 348.21,-1796 348.21,-1796 348.21,-1796 351.42,-1800.23 355.73,-1805.9"/>
<polygon fill="red" stroke="red" stroke-width="5" points="352.13,-1808.4 361.66,-1813.72 359.1,-1803.11 352.13,-1808.4"/>
</g>
<!-- AVE -->
<g id="node9" class="node">
<title>AVE</title>
<ellipse fill="none" stroke="black" cx="378.82" cy="-1756" rx="29.11" ry="18"/>
<text text-anchor="middle" x="378.82" y="-1750.58" font-family="Times New Roman,serif" font-size="14.00">AVE</text>
</g>
<!-- AQR&#45;&gt;AVE -->
<g id="edge8" class="edge">
<title>AQR&#45;&gt;AVE</title>
<path fill="none" stroke="blue" stroke-width="2" d="M234.15,-1307.02C275.94,-1457.21 348.21,-1717 348.21,-1717 348.21,-1717 352.52,-1722.67 357.84,-1729.69"/>
<polygon fill="blue" stroke="blue" stroke-width="2" points="354.77,-1731.43 363.6,-1737.28 360.34,-1727.19 354.77,-1731.43"/>
</g>
<!-- AVH -->
<g id="node10" class="node">
<title>AVH</title>
<ellipse fill="none" stroke="black" cx="378.82" cy="-1677" rx="30.11" ry="18"/>
<text text-anchor="middle" x="378.82" y="-1671.58" font-family="Times New Roman,serif" font-size="14.00">AVH</text>
</g>
<!-- AQR&#45;&gt;AVH -->
<g id="edge9" class="edge">
<title>AQR&#45;&gt;AVH</title>
<path fill="none" stroke="gray" stroke-width="0.2" d="M243.44,-1303.99C285.8,-1426.64 348.21,-1616.5 348.21,-1616.5 348.21,-1616.5 360.54,-1632.74 369.29,-1650.04"/>
<polygon fill="gray" stroke="gray" stroke-width="0.2" points="365.97,-1651.2 373.32,-1658.83 372.33,-1648.28 365.97,-1651.2"/>
</g>
<!-- AVJ -->
<g id="node11" class="node">
<title>AVJ</title>
<ellipse fill="none" stroke="black" cx="378.82" cy="-1598" rx="27.11" ry="18"/>
<text text-anchor="middle" x="378.82" y="-1592.58" font-family="Times New Roman,serif" font-size="14.00">AVJ</text>
</g>
<!-- AQR&#45;&gt;AVJ -->
<g id="edge10" class="edge">
<title>AQR&#45;&gt;AVJ</title>
<path fill="none" stroke="gray" stroke-width="0.2" d="M251.05,-1300.79C292.88,-1399.74 348.21,-1537.5 348.21,-1537.5 348.21,-1537.5 360.54,-1553.74 369.29,-1571.04"/>
<polygon fill="gray" stroke="gray" stroke-width="0.2" points="365.97,-1572.2 373.32,-1579.83 372.33,-1569.28 365.97,-1572.2"/>
</g>
<!-- AVK -->
<g id="node12" class="node">
<title>AVK</title>
<ellipse fill="none" stroke="black" cx="378.82" cy="-1519" rx="30.11" ry="18"/>
<text text-anchor="middle" x="378.82" y="-1513.58" font-family="Times New Roman,serif" font-size="14.00">AVK</text>
</g>
<!-- AQR&#45;&gt;AVK -->
<g id="edge11" class="edge">
<title>AQR&#45;&gt;AVK</title>
<path fill="none" stroke="gray" stroke-width="2" d="M261.73,-1294.97C301.7,-1368.4 348.21,-1458.5 348.21,-1458.5 348.21,-1458.5 359.44,-1473.29 368.06,-1489.67"/>
<polygon fill="gray" stroke="gray" stroke-width="2" points="364.73,-1490.81 372.16,-1498.36 371.06,-1487.83 364.73,-1490.81"/>
</g>
<!-- BAG -->
<g id="node13" class="node">
<title>BAG</title>
<ellipse fill="none" stroke="black" cx="378.82" cy="-1440" rx="30.11" ry="18"/>
<text text-anchor="middle" x="378.82" y="-1434.58" font-family="Times New Roman,serif" font-size="14.00">BAG</text>
</g>
<!-- AQR&#45;&gt;BAG -->
<g id="edge12" class="edge">
<title>AQR&#45;&gt;BAG</title>
<path fill="none" stroke="red" stroke-width="2" d="M276.92,-1283.46C312.6,-1330.19 348.21,-1379.5 348.21,-1379.5 348.21,-1379.5 359.44,-1394.29 368.06,-1410.67"/>
<polygon fill="red" stroke="red" stroke-width="2" points="364.73,-1411.81 372.16,-1419.36 371.06,-1408.83 364.73,-1411.81"/>
</g>
<!-- DVA -->
<g id="node14" class="node">
<title>DVA</title>
<ellipse fill="none" stroke="black" cx="378.82" cy="-1361" rx="30.11" ry="18"/>
<text text-anchor="middle" x="378.82" y="-1355.58" font-family="Times New Roman,serif" font-size="14.00">DVA</text>
</g>
<!-- AQR&#45;&gt;DVA -->
<g id="edge13" class="edge">
<title>AQR&#45;&gt;DVA</title>
<path fill="none" stroke="gray" stroke-width="5" d="M292.02,-1266.34C316.59,-1288.86 341.11,-1313.07 357.61,-1331.68"/>
<polygon fill="gray" stroke="gray" stroke-width="5" points="354.06,-1334.25 363.85,-1339.08 360.75,-1328.62 354.06,-1334.25"/>
</g>
<!-- FLP -->
<g id="node15" class="node">
<title>FLP</title>
<ellipse fill="none" stroke="black" cx="378.82" cy="-1282" rx="27.11" ry="18"/>
<text text-anchor="middle" x="378.82" y="-1276.58" font-family="Times New Roman,serif" font-size="14.00">FLP</text>
</g>
<!-- AQR&#45;&gt;FLP -->
<g id="edge14" class="edge">
<title>AQR&#45;&gt;FLP</title>
<path fill="none" stroke="gray" stroke-width="0.2" d="M302.86,-1247.69C318.79,-1254.98 334.19,-1262.03 346.85,-1267.82"/>
<polygon fill="gray" stroke="gray" stroke-width="0.2" points="345.13,-1270.89 355.68,-1271.87 348.04,-1264.52 345.13,-1270.89"/>
</g>
<!-- IL1 -->
<g id="node16" class="node">
<title>IL1</title>
<ellipse fill="none" stroke="black" cx="378.82" cy="-1203" rx="27" ry="18"/>
<text text-anchor="middle" x="378.82" y="-1197.58" font-family="Times New Roman,serif" font-size="14.00">IL1</text>
</g>
<!-- AQR&#45;&gt;IL1 -->
<g id="edge15" class="edge">
<title>AQR&#45;&gt;IL1</title>
<path fill="none" stroke="gray" stroke-width="0.2" d="M312.56,-1203C322.8,-1203 332.61,-1203 341.38,-1203"/>
<polygon fill="gray" stroke="gray" stroke-width="0.2" points="341.21,-1206.5 351.21,-1203 341.21,-1199.5 341.21,-1206.5"/>
</g>
<!-- IL2 -->
<g id="node17" class="node">
<title>IL2</title>
<ellipse fill="none" stroke="black" cx="378.82" cy="-1124" rx="27" ry="18"/>
<text text-anchor="middle" x="378.82" y="-1118.58" font-family="Times New Roman,serif" font-size="14.00">IL2</text>
</g>
<!-- AQR&#45;&gt;IL2 -->
<g id="edge16" class="edge">
<title>AQR&#45;&gt;IL2</title>
<path fill="none" stroke="gray" stroke-width="0.2" d="M302.86,-1158.31C318.79,-1151.02 334.19,-1143.97 346.85,-1138.18"/>
<polygon fill="gray" stroke="gray" stroke-width="0.2" points="348.04,-1141.48 355.68,-1134.13 345.13,-1135.11 348.04,-1141.48"/>
</g>
<!-- OLQ -->
<g id="node18" class="node">
<title>OLQ</title>
<ellipse fill="none" stroke="black" cx="378.82" cy="-1045" rx="30.11" ry="18"/>
<text text-anchor="middle" x="378.82" y="-1039.58" font-family="Times New Roman,serif" font-size="14.00">OLQ</text>
</g>
<!-- AQR&#45;&gt;OLQ -->
<g id="edge17" class="edge">
<title>AQR&#45;&gt;OLQ</title>
<path fill="none" stroke="gray" stroke-width="0.2" d="M284.69,-1130.24C309.93,-1107.14 335.95,-1083.32 354.05,-1066.75"/>
<polygon fill="gray" stroke="gray" stroke-width="0.2" points="356.06,-1069.66 361.07,-1060.33 351.33,-1064.5 356.06,-1069.66"/>
</g>
<!-- PLN -->
<g id="node19" class="node">
<title>PLN</title>
<ellipse fill="none" stroke="black" cx="378.82" cy="-966" rx="28.11" ry="18"/>
<text text-anchor="middle" x="378.82" y="-960.58" font-family="Times New Roman,serif" font-size="14.00">PLN</text>
</g>
<!-- AQR&#45;&gt;PLN -->
<g id="edge18" class="edge">
<title>AQR&#45;&gt;PLN</title>
<path fill="none" stroke="gray" stroke-width="0.2" d="M268.35,-1115.58C306.66,-1062.54 348.21,-1005 348.21,-1005 348.21,-1005 353.34,-998.25 359.32,-990.37"/>
<polygon fill="gray" stroke="gray" stroke-width="0.2" points="361.99,-992.64 365.25,-982.55 356.42,-988.4 361.99,-992.64"/>
</g>
<!-- PVC -->
<g id="node20" class="node">
<title>PVC</title>
<ellipse fill="none" stroke="black" cx="378.82" cy="-887" rx="29.11" ry="18"/>
<text text-anchor="middle" x="378.82" y="-881.58" font-family="Times New Roman,serif" font-size="14.00">PVC</text>
</g>
<!-- AQR&#45;&gt;PVC -->
<g id="edge19" class="edge">
<title>AQR&#45;&gt;PVC</title>
<path fill="none" stroke="black" stroke-width="2" d="M248.12,-1103.94C283.49,-1030.76 330.05,-939.83 347.6,-908.21"/>
<polygon fill="black" stroke="black" stroke-width="2" points="350.54,-910.11 352.65,-899.73 344.53,-906.53 350.54,-910.11"/>
</g>
<!-- PVP -->
<g id="node21" class="node">
<title>PVP</title>
<ellipse fill="none" stroke="black" cx="378.82" cy="-808" rx="28.11" ry="18"/>
<text text-anchor="middle" x="378.82" y="-802.58" font-family="Times New Roman,serif" font-size="14.00">PVP</text>
</g>
<!-- AQR&#45;&gt;PVP -->
<g id="edge20" class="edge">
<title>AQR&#45;&gt;PVP</title>
<path fill="none" stroke="gray" stroke-width="2" d="M240.19,-1101.11C276.74,-1004.34 330.69,-869.25 348.98,-828.94"/>
<polygon fill="gray" stroke="gray" stroke-width="2" points="352.04,-830.66 353.42,-820.16 345.79,-827.51 352.04,-830.66"/>
</g>
<!-- RIA -->
<g id="node22" class="node">
<title>RIA</title>
<ellipse fill="none" stroke="black" cx="378.82" cy="-729" rx="27" ry="18"/>
<text text-anchor="middle" x="378.82" y="-723.58" font-family="Times New Roman,serif" font-size="14.00">RIA</text>
</g>
<!-- AQR&#45;&gt;RIA -->
<g id="edge21" class="edge">
<title>AQR&#45;&gt;RIA</title>
<path fill="none" stroke="black" stroke-width="5" d="M234.84,-1098.97C270.92,-982.68 328.96,-805.22 348.75,-752.88"/>
<polygon fill="black" stroke="black" stroke-width="5" points="352.7,-754.76 352.62,-743.84 344.66,-751.31 352.7,-754.76"/>
</g>
<!-- RIG -->
<g id="node23" class="node">
<title>RIG</title>
<ellipse fill="none" stroke="black" cx="378.82" cy="-650" rx="27.11" ry="18"/>
<text text-anchor="middle" x="378.82" y="-644.58" font-family="Times New Roman,serif" font-size="14.00">RIG</text>
</g>
<!-- AQR&#45;&gt;RIG -->
<g id="edge22" class="edge">
<title>AQR&#45;&gt;RIG</title>
<path fill="none" stroke="gray" stroke-width="0.2" d="M230.78,-1097.99C271.91,-941.76 348.21,-667.5 348.21,-667.5 348.21,-667.5 348.39,-667.26 348.73,-666.83"/>
<polygon fill="gray" stroke="gray" stroke-width="0.2" points="351.24,-669.29 354.89,-659.34 345.83,-664.84 351.24,-669.29"/>
</g>
<!-- RIM -->
<g id="node24" class="node">
<title>RIM</title>
<ellipse fill="none" stroke="black" cx="378.82" cy="-571" rx="28.11" ry="18"/>
<text text-anchor="middle" x="378.82" y="-565.58" font-family="Times New Roman,serif" font-size="14.00">RIM</text>
</g>
<!-- AQR&#45;&gt;RIM -->
<g id="edge23" class="edge">
<title>AQR&#45;&gt;RIM</title>
<path fill="none" stroke="blue" stroke-width="0.2" d="M230.53,-1098.01C271.6,-927.69 348.21,-610 348.21,-610 348.21,-610 353.34,-603.25 359.32,-595.37"/>
<polygon fill="blue" stroke="blue" stroke-width="0.2" points="361.99,-597.64 365.25,-587.55 356.42,-593.4 361.99,-597.64"/>
</g>
<!-- RIP -->
<g id="node25" class="node">
<title>RIP</title>
<ellipse fill="none" stroke="black" cx="378.82" cy="-492" rx="27" ry="18"/>
<text text-anchor="middle" x="378.82" y="-486.57" font-family="Times New Roman,serif" font-size="14.00">RIP</text>
</g>
<!-- AQR&#45;&gt;RIP -->
<g id="edge24" class="edge">
<title>AQR&#45;&gt;RIP</title>
<path fill="none" stroke="gray" stroke-width="0.2" d="M227.71,-1097.26C267.98,-908.02 348.21,-531 348.21,-531 348.21,-531 353.48,-524.06 359.57,-516.03"/>
<polygon fill="gray" stroke="gray" stroke-width="0.2" points="362.33,-518.19 365.59,-508.1 356.76,-513.95 362.33,-518.19"/>
</g>
<!-- RIR -->
<g id="node26" class="node">
<title>RIR</title>
<ellipse fill="none" stroke="black" cx="378.82" cy="-413" rx="27" ry="18"/>
<text text-anchor="middle" x="378.82" y="-407.57" font-family="Times New Roman,serif" font-size="14.00">RIR</text>
</g>
<!-- AQR&#45;&gt;RIR -->
<g id="edge25" class="edge">
<title>AQR&#45;&gt;RIR</title>
<path fill="none" stroke="gray" stroke-width="5" d="M223.32,-1096.48C257.89,-905.85 331.15,-520.19 350.66,-437.73"/>
<polygon fill="gray" stroke="gray" stroke-width="5" points="354.87,-438.93 353.38,-428.11 346.45,-436.54 354.87,-438.93"/>
</g>
<!-- RIV -->
<g id="node27" class="node">
<title>RIV</title>
<ellipse fill="none" stroke="black" cx="378.82" cy="-334" rx="27" ry="18"/>
<text text-anchor="middle" x="378.82" y="-328.57" font-family="Times New Roman,serif" font-size="14.00">RIV</text>
</g>
<!-- AQR&#45;&gt;RIV -->
<g id="edge26" class="edge">
<title>AQR&#45;&gt;RIV</title>
<path fill="none" stroke="gray" stroke-width="0.2" d="M223.54,-1096.61C262.13,-872.65 348.21,-373 348.21,-373 348.21,-373 353.48,-366.06 359.57,-358.03"/>
<polygon fill="gray" stroke="gray" stroke-width="0.2" points="362.33,-360.19 365.59,-350.1 356.76,-355.95 362.33,-360.19"/>
</g>
<!-- RMF -->
<g id="node28" class="node">
<title>RMF</title>
<ellipse fill="none" stroke="black" cx="378.82" cy="-255" rx="30.61" ry="18"/>
<text text-anchor="middle" x="378.82" y="-249.57" font-family="Times New Roman,serif" font-size="14.00">RMF</text>
</g>
<!-- AQR&#45;&gt;RMF -->
<g id="edge27" class="edge">
<title>AQR&#45;&gt;RMF</title>
<path fill="none" stroke="gray" stroke-width="0.2" d="M222.04,-1096.05C259.84,-855.77 348.21,-294 348.21,-294 348.21,-294 353.34,-287.25 359.32,-279.37"/>
<polygon fill="gray" stroke="gray" stroke-width="0.2" points="361.99,-281.64 365.25,-271.55 356.42,-277.4 361.99,-281.64"/>
</g>
<!-- SAA -->
<g id="node29" class="node">
<title>SAA</title>
<ellipse fill="none" stroke="black" cx="378.82" cy="-176" rx="29.11" ry="18"/>
<text text-anchor="middle" x="378.82" y="-170.57" font-family="Times New Roman,serif" font-size="14.00">SAA</text>
</g>
<!-- AQR&#45;&gt;SAA -->
<g id="edge28" class="edge">
<title>AQR&#45;&gt;SAA</title>
<path fill="none" stroke="gray" stroke-width="0.2" d="M220.72,-1095.86C257.74,-840.09 348.21,-215 348.21,-215 348.21,-215 353.34,-208.25 359.32,-200.37"/>
<polygon fill="gray" stroke="gray" stroke-width="0.2" points="361.99,-202.64 365.25,-192.55 356.42,-198.4 361.99,-202.64"/>
</g>
<!-- SDQ -->
<g id="node30" class="node">
<title>SDQ</title>
<ellipse fill="none" stroke="black" cx="378.82" cy="-97" rx="29.61" ry="18"/>
<text text-anchor="middle" x="378.82" y="-91.58" font-family="Times New Roman,serif" font-size="14.00">SDQ</text>
</g>
<!-- AQR&#45;&gt;SDQ -->
<g id="edge29" class="edge">
<title>AQR&#45;&gt;SDQ</title>
<path fill="none" stroke="gray" stroke-width="0.2" d="M219.58,-1095.81C255.84,-825.23 348.21,-136 348.21,-136 348.21,-136 353.34,-129.25 359.32,-121.37"/>
<polygon fill="gray" stroke="gray" stroke-width="0.2" points="361.99,-123.64 365.25,-113.55 356.42,-119.4 361.99,-123.64"/>
</g>
<!-- URX -->
<g id="node31" class="node">
<title>URX</title>
<ellipse fill="none" stroke="black" cx="378.82" cy="-18" rx="30.11" ry="18"/>
<text text-anchor="middle" x="378.82" y="-12.57" font-family="Times New Roman,serif" font-size="14.00">URX</text>
</g>
<!-- AQR&#45;&gt;URX -->
<g id="edge30" class="edge">
<title>AQR&#45;&gt;URX</title>
<path fill="none" stroke="gray" stroke-width="2" d="M217.44,-1095.4C249.58,-826.82 334.81,-142.94 351.38,-41.16"/>
<polygon fill="gray" stroke="gray" stroke-width="2" points="354.79,-41.92 353.33,-31.43 347.93,-40.54 354.79,-41.92"/>
</g>
<!-- ADE&#45;&gt;AQR -->
<g id="edge31" class="edge">
<title>ADE&#45;&gt;AQR</title>
<path fill="none" stroke="gray" stroke-width="5" d="M354.2,-2298.87C350.69,-2294.76 348.21,-2291.5 348.21,-2291.5 348.21,-2291.5 257.06,-1611.38 220.31,-1326.19"/>
<polygon fill="gray" stroke="gray" stroke-width="5" points="224.69,-1325.99 219.08,-1316.63 216.01,-1327.11 224.69,-1325.99"/>
</g>
<!-- AIB&#45;&gt;AQR -->
<g id="edge32" class="edge">
<title>AIB&#45;&gt;AQR</title>
<path fill="none" stroke="gray" stroke-width="0.2" d="M355.08,-2220.89C351.1,-2216.31 348.21,-2212.5 348.21,-2212.5 348.21,-2212.5 257.62,-1586.62 220.65,-1320.31"/>
<polygon fill="gray" stroke="gray" stroke-width="0.2" points="224.13,-1319.94 219.29,-1310.52 217.2,-1320.91 224.13,-1319.94"/>
</g>
<!-- AVH&#45;&gt;AQR -->
<g id="edge33" class="edge">
<title>AVH&#45;&gt;AQR</title>
<path fill="none" stroke="gray" stroke-width="0.2" d="M353.92,-1666.54C350.55,-1662.58 348.21,-1659.5 348.21,-1659.5 348.21,-1659.5 280.04,-1452.12 237.83,-1316.66"/>
<polygon fill="gray" stroke="gray" stroke-width="0.2" points="241.24,-1315.83 234.93,-1307.32 234.56,-1317.91 241.24,-1315.83"/>
</g>
<!-- AVJ&#45;&gt;AQR -->
<g id="edge34" class="edge">
<title>AVJ&#45;&gt;AQR</title>
<path fill="none" stroke="gray" stroke-width="0.2" d="M355.08,-1588.89C351.1,-1584.31 348.21,-1580.5 348.21,-1580.5 348.21,-1580.5 286.07,-1425.8 243.72,-1314.2"/>
<polygon fill="gray" stroke="gray" stroke-width="0.2" points="247.12,-1313.29 240.3,-1305.18 240.57,-1315.77 247.12,-1313.29"/>
</g>
<!-- AVK&#45;&gt;AQR -->
<g id="edge35" class="edge">
<title>AVK&#45;&gt;AQR</title>
<path fill="none" stroke="gray" stroke-width="0.2" d="M353.92,-1508.54C350.55,-1504.58 348.21,-1501.5 348.21,-1501.5 348.21,-1501.5 294.13,-1396.75 252.49,-1311.08"/>
<polygon fill="gray" stroke="gray" stroke-width="0.2" points="255.76,-1309.8 248.25,-1302.33 249.46,-1312.86 255.76,-1309.8"/>
</g>
<!-- BAG&#45;&gt;AQR -->
<g id="edge36" class="edge">
<title>BAG&#45;&gt;AQR</title>
<path fill="none" stroke="gray" stroke-width="0.2" d="M353.92,-1429.54C350.55,-1425.58 348.21,-1422.5 348.21,-1422.5 348.21,-1422.5 304.65,-1362.18 265.61,-1304.51"/>
<polygon fill="gray" stroke="gray" stroke-width="0.2" points="268.55,-1302.61 260.06,-1296.28 262.75,-1306.53 268.55,-1302.61"/>
</g>
<!-- DVA&#45;&gt;AQR -->
<g id="edge37" class="edge">
<title>DVA&#45;&gt;AQR</title>
<path fill="none" stroke="red" stroke-width="2" d="M353.83,-1350.62C335.92,-1337.52 310.32,-1315.6 285.41,-1292.5"/>
<polygon fill="red" stroke="red" stroke-width="2" points="287.82,-1289.96 278.12,-1285.68 283.03,-1295.07 287.82,-1289.96"/>
</g>
<!-- PVC&#45;&gt;AQR -->
<g id="edge38" class="edge">
<title>PVC&#45;&gt;AQR</title>
<path fill="none" stroke="gray" stroke-width="2" d="M373.45,-904.9C365.21,-925.1 348.21,-947.5 348.21,-947.5 348.21,-947.5 306.3,-1028.68 267.86,-1099.73"/>
<polygon fill="gray" stroke="gray" stroke-width="2" points="264.87,-1097.91 263.17,-1108.37 271.02,-1101.25 264.87,-1097.91"/>
</g>
<!-- PVP&#45;&gt;AQR -->
<g id="edge39" class="edge">
<title>PVP&#45;&gt;AQR</title>
<path fill="none" stroke="gray" stroke-width="5" d="M373.45,-825.9C365.21,-846.1 348.21,-868.5 348.21,-868.5 348.21,-868.5 298.15,-993.14 257.26,-1090.46"/>
<polygon fill="gray" stroke="gray" stroke-width="5" points="253.32,-1088.55 253.47,-1099.47 261.38,-1091.95 253.32,-1088.55"/>
</g>
<!-- RIA&#45;&gt;AQR -->
<g id="edge40" class="edge">
<title>RIA&#45;&gt;AQR</title>
<path fill="none" stroke="gray" stroke-width="2" d="M373.45,-746.9C365.21,-767.1 348.21,-789.5 348.21,-789.5 348.21,-789.5 289.76,-967.32 247.59,-1089.96"/>
<polygon fill="gray" stroke="gray" stroke-width="2" points="244.37,-1088.56 244.43,-1099.15 250.99,-1090.84 244.37,-1088.56"/>
</g>
<!-- RIG&#45;&gt;AQR -->
<g id="edge41" class="edge">
<title>RIG&#45;&gt;AQR</title>
<path fill="none" stroke="gray" stroke-width="0.2" d="M373.45,-667.9C365.21,-688.1 348.21,-710.5 348.21,-710.5 348.21,-710.5 282.94,-945.11 240.6,-1090.69"/>
<polygon fill="gray" stroke="gray" stroke-width="0.2" points="237.36,-1089.28 237.92,-1099.86 244.08,-1091.23 237.36,-1089.28"/>
</g>
<!-- RIR&#45;&gt;AQR -->
<g id="edge42" class="edge">
<title>RIR&#45;&gt;AQR</title>
<path fill="none" stroke="red" stroke-width="2" d="M373.45,-430.9C365.21,-451.1 348.21,-473.5 348.21,-473.5 348.21,-473.5 271.24,-877.73 230.24,-1084.57"/>
<polygon fill="red" stroke="red" stroke-width="2" points="226.82,-1083.84 228.3,-1094.33 233.68,-1085.2 226.82,-1083.84"/>
</g>
<!-- URX&#45;&gt;AQR -->
<g id="edge43" class="edge">
<title>URX&#45;&gt;AQR</title>
<path fill="none" stroke="gray" stroke-width="2" d="M373.45,-35.9C365.21,-56.1 348.21,-78.5 348.21,-78.5 348.21,-78.5 259.07,-792.87 221.55,-1082.99"/>
<polygon fill="gray" stroke="gray" stroke-width="2" points="218.11,-1082.28 220.3,-1092.65 225.05,-1083.18 218.11,-1082.28"/>
</g>
<!-- AVF -->
<g id="node32" class="node">
<title>AVF</title>
<ellipse fill="none" stroke="black" cx="30.11" cy="-1401" rx="29.11" ry="18"/>
<text text-anchor="middle" x="30.11" y="-1395.58" font-family="Times New Roman,serif" font-size="14.00">AVF</text>
</g>
<!-- AVF&#45;&gt;AQR -->
<g id="edge44" class="edge">
<title>AVF&#45;&gt;AQR</title>
<path fill="none" stroke="gray" stroke-width="0.2" d="M44.9,-1385.13C62.77,-1364.57 95.32,-1327.12 126.28,-1291.51"/>
<polygon fill="gray" stroke="gray" stroke-width="0.2" points="128.74,-1294.02 132.65,-1284.17 123.45,-1289.42 128.74,-1294.02"/>
</g>
<!-- AVL -->
<g id="node33" class="node">
<title>AVL</title>
<ellipse fill="none" stroke="black" cx="30.11" cy="-1322" rx="29.11" ry="18"/>
<text text-anchor="middle" x="30.11" y="-1316.58" font-family="Times New Roman,serif" font-size="14.00">AVL</text>
</g>
<!-- AVL&#45;&gt;AQR -->
<g id="edge45" class="edge">
<title>AVL&#45;&gt;AQR</title>
<path fill="none" stroke="gray" stroke-width="0.2" d="M50.18,-1308.81C64.38,-1298.99 84.95,-1284.77 106.43,-1269.92"/>
<polygon fill="gray" stroke="gray" stroke-width="0.2" points="108.21,-1272.94 114.45,-1264.38 104.23,-1267.18 108.21,-1272.94"/>
</g>
<!-- DVC -->
<g id="node34" class="node">
<title>DVC</title>
<ellipse fill="none" stroke="black" cx="30.11" cy="-1243" rx="30.11" ry="18"/>
<text text-anchor="middle" x="30.11" y="-1237.58" font-family="Times New Roman,serif" font-size="14.00">DVC</text>
</g>
<!-- DVC&#45;&gt;AQR -->
<g id="edge46" class="edge">
<title>DVC&#45;&gt;AQR</title>
<path fill="none" stroke="gray" stroke-width="5" d="M58.76,-1236.57C65.91,-1234.91 74.09,-1233.01 82.83,-1230.98"/>
<polygon fill="gray" stroke="gray" stroke-width="5" points="83.7,-1235.27 92.45,-1228.74 81.72,-1226.74 83.7,-1235.27"/>
</g>
<!-- HSN -->
<g id="node35" class="node">
<title>HSN</title>
<ellipse fill="none" stroke="black" cx="30.11" cy="-1164" rx="29.11" ry="18"/>
<text text-anchor="middle" x="30.11" y="-1158.58" font-family="Times New Roman,serif" font-size="14.00">HSN</text>
</g>
<!-- HSN&#45;&gt;AQR -->
<g id="edge47" class="edge">
<title>HSN&#45;&gt;AQR</title>
<path fill="none" stroke="gray" stroke-width="0.2" d="M58,-1170.09C66.85,-1172.1 77.31,-1174.47 88.51,-1177.01"/>
<polygon fill="gray" stroke="gray" stroke-width="0.2" points="87.69,-1180.41 98.21,-1179.21 89.24,-1173.58 87.69,-1180.41"/>
</g>
<!-- PVT -->
<g id="node36" class="node">
<title>PVT</title>
<ellipse fill="none" stroke="black" cx="30.11" cy="-1085" rx="28.61" ry="18"/>
<text text-anchor="middle" x="30.11" y="-1079.58" font-family="Times New Roman,serif" font-size="14.00">PVT</text>
</g>
<!-- PVT&#45;&gt;AQR -->
<g id="edge48" class="edge">
<title>PVT&#45;&gt;AQR</title>
<path fill="none" stroke="gray" stroke-width="0.2" d="M50.18,-1098.08C64.38,-1107.82 84.95,-1121.92 106.43,-1136.64"/>
<polygon fill="gray" stroke="gray" stroke-width="0.2" points="104.22,-1139.37 114.45,-1142.14 108.18,-1133.6 104.22,-1139.37"/>
</g>
<!-- RIF -->
<g id="node37" class="node">
<title>RIF</title>
<ellipse fill="none" stroke="black" cx="30.11" cy="-1006" rx="27" ry="18"/>
<text text-anchor="middle" x="30.11" y="-1000.58" font-family="Times New Roman,serif" font-size="14.00">RIF</text>
</g>
<!-- RIF&#45;&gt;AQR -->
<g id="edge49" class="edge">
<title>RIF&#45;&gt;AQR</title>
<path fill="none" stroke="gray" stroke-width="0.2" d="M44.61,-1021.46C62.37,-1041.78 94.96,-1079.08 126,-1114.61"/>
<polygon fill="gray" stroke="gray" stroke-width="0.2" points="123.18,-1116.71 132.39,-1121.93 128.45,-1112.1 123.18,-1116.71"/>
</g>
</g>
</svg>
