<?xml version="1.0" encoding="UTF-8" standalone="no"?>
<!DOCTYPE svg PUBLIC "-//W3C//DTD SVG 1.1//EN"
 "http://www.w3.org/Graphics/SVG/1.1/DTD/svg11.dtd">
<!-- Generated by graphviz version 11.0.0 (20240428.1522)
 -->
<!-- Pages: 1 -->
<svg width="325pt" height="2177pt"
 viewBox="0.00 0.00 325.20 2177.00" xmlns="http://www.w3.org/2000/svg" xmlns:xlink="http://www.w3.org/1999/xlink">
<g id="graph0" class="graph" transform="scale(1 1) rotate(0) translate(4 2173)">
<polygon fill="white" stroke="none" points="-4,4 -4,-2173 321.2,-2173 321.2,4 -4,4"/>
<!-- ASE -->
<g id="node1" class="node">
<title>ASE</title>
<ellipse fill="none" stroke="black" cx="108" cy="-1242" rx="108" ry="108"/>
<text text-anchor="middle" x="108" y="-1223" font-family="Times New Roman,serif" font-size="50.00">ASE</text>
</g>
<!-- ASE&#45;&gt;ASE -->
<g id="edge1" class="edge">
<title>ASE&#45;&gt;ASE</title>
<path fill="none" stroke="gray" stroke-width="5" d="M75.2,-1345.39C77.15,-1372.51 88.08,-1393 108,-1393 123.8,-1393 133.94,-1380.12 138.43,-1361.26"/>
<polygon fill="gray" stroke="gray" stroke-width="5" points="142.73,-1362.1 139.88,-1351.56 134.08,-1360.81 142.73,-1362.1"/>
</g>
<!-- ADF -->
<g id="node2" class="node">
<title>ADF</title>
<ellipse fill="none" stroke="black" cx="284.6" cy="-2151" rx="29.11" ry="18"/>
<text text-anchor="middle" x="284.6" y="-2145.57" font-family="Times New Roman,serif" font-size="14.00">ADF</text>
</g>
<!-- ASE&#45;&gt;ADF -->
<g id="edge2" class="edge">
<title>ASE&#45;&gt;ADF</title>
<path fill="none" stroke="gray" stroke-width="2" d="M128.43,-1348.5C167.53,-1576.61 252,-2090.5 252,-2090.5 252,-2090.5 263.98,-2105.29 273.19,-2121.67"/>
<polygon fill="gray" stroke="gray" stroke-width="2" points="269.96,-2123.04 277.58,-2130.4 276.21,-2119.89 269.96,-2123.04"/>
</g>
<!-- ADL -->
<g id="node3" class="node">
<title>ADL</title>
<ellipse fill="none" stroke="black" cx="284.6" cy="-2072" rx="29.11" ry="18"/>
<text text-anchor="middle" x="284.6" y="-2066.57" font-family="Times New Roman,serif" font-size="14.00">ADL</text>
</g>
<!-- ASE&#45;&gt;ADL -->
<g id="edge3" class="edge">
<title>ASE&#45;&gt;ADL</title>
<path fill="none" stroke="red" stroke-width="2" d="M130.33,-1347.8C170.2,-1559 252,-2011.5 252,-2011.5 252,-2011.5 263.98,-2026.29 273.19,-2042.67"/>
<polygon fill="red" stroke="red" stroke-width="2" points="269.96,-2044.04 277.58,-2051.4 276.21,-2040.89 269.96,-2044.04"/>
</g>
<!-- AFD -->
<g id="node4" class="node">
<title>AFD</title>
<ellipse fill="none" stroke="black" cx="284.6" cy="-1993" rx="29.11" ry="18"/>
<text text-anchor="middle" x="284.6" y="-1987.58" font-family="Times New Roman,serif" font-size="14.00">AFD</text>
</g>
<!-- ASE&#45;&gt;AFD -->
<g id="edge4" class="edge">
<title>ASE&#45;&gt;AFD</title>
<path fill="none" stroke="gray" stroke-width="5" d="M132.77,-1347.63C173.44,-1541.33 252,-1932.5 252,-1932.5 252,-1932.5 262.64,-1945.63 271.57,-1960.85"/>
<polygon fill="gray" stroke="gray" stroke-width="5" points="267.59,-1962.69 276.07,-1969.56 275.37,-1958.67 267.59,-1962.69"/>
</g>
<!-- AIA -->
<g id="node5" class="node">
<title>AIA</title>
<ellipse fill="none" stroke="black" cx="284.6" cy="-1914" rx="27" ry="18"/>
<text text-anchor="middle" x="284.6" y="-1908.58" font-family="Times New Roman,serif" font-size="14.00">AIA</text>
</g>
<!-- ASE&#45;&gt;AIA -->
<g id="edge5" class="edge">
<title>ASE&#45;&gt;AIA</title>
<path fill="none" stroke="black" stroke-width="5" d="M135.65,-1346.61C177.02,-1521.59 252,-1853.5 252,-1853.5 252,-1853.5 262.64,-1866.63 271.57,-1881.85"/>
<polygon fill="black" stroke="black" stroke-width="5" points="267.59,-1883.69 276.07,-1890.56 275.37,-1879.67 267.59,-1883.69"/>
</g>
<!-- AIB -->
<g id="node6" class="node">
<title>AIB</title>
<ellipse fill="none" stroke="black" cx="284.6" cy="-1835" rx="27" ry="18"/>
<text text-anchor="middle" x="284.6" y="-1829.58" font-family="Times New Roman,serif" font-size="14.00">AIB</text>
</g>
<!-- ASE&#45;&gt;AIB -->
<g id="edge6" class="edge">
<title>ASE&#45;&gt;AIB</title>
<path fill="none" stroke="black" stroke-width="5" d="M139.41,-1345.79C181.4,-1500.99 252,-1774.5 252,-1774.5 252,-1774.5 262.64,-1787.63 271.57,-1802.85"/>
<polygon fill="black" stroke="black" stroke-width="5" points="267.59,-1804.69 276.07,-1811.56 275.37,-1800.67 267.59,-1804.69"/>
</g>
<!-- AIN -->
<g id="node7" class="node">
<title>AIN</title>
<ellipse fill="none" stroke="black" cx="284.6" cy="-1756" rx="27" ry="18"/>
<text text-anchor="middle" x="284.6" y="-1750.58" font-family="Times New Roman,serif" font-size="14.00">AIN</text>
</g>
<!-- ASE&#45;&gt;AIN -->
<g id="edge7" class="edge">
<title>ASE&#45;&gt;AIN</title>
<path fill="none" stroke="gray" stroke-width="0.2" d="M144.26,-1344.26C186.6,-1478.26 252,-1695.5 252,-1695.5 252,-1695.5 265.16,-1711.74 274.5,-1729.04"/>
<polygon fill="gray" stroke="gray" stroke-width="0.2" points="271.26,-1730.39 278.8,-1737.83 277.55,-1727.31 271.26,-1730.39"/>
</g>
<!-- AIY -->
<g id="node8" class="node">
<title>AIY</title>
<ellipse fill="none" stroke="black" cx="284.6" cy="-1677" rx="27" ry="18"/>
<text text-anchor="middle" x="284.6" y="-1671.58" font-family="Times New Roman,serif" font-size="14.00">AIY</text>
</g>
<!-- ASE&#45;&gt;AIY -->
<g id="edge8" class="edge">
<title>ASE&#45;&gt;AIY</title>
<path fill="none" stroke="black" stroke-width="5" d="M150.65,-1341.56C192.86,-1452.74 252,-1616.5 252,-1616.5 252,-1616.5 262.64,-1629.63 271.57,-1644.85"/>
<polygon fill="black" stroke="black" stroke-width="5" points="267.59,-1646.69 276.07,-1653.56 275.37,-1642.67 267.59,-1646.69"/>
</g>
<!-- AIZ -->
<g id="node9" class="node">
<title>AIZ</title>
<ellipse fill="none" stroke="black" cx="284.6" cy="-1598" rx="27" ry="18"/>
<text text-anchor="middle" x="284.6" y="-1592.58" font-family="Times New Roman,serif" font-size="14.00">AIZ</text>
</g>
<!-- ASE&#45;&gt;AIZ -->
<g id="edge9" class="edge">
<title>ASE&#45;&gt;AIZ</title>
<path fill="none" stroke="gray" stroke-width="2" d="M159.62,-1337.32C200.75,-1423.9 252,-1537.5 252,-1537.5 252,-1537.5 263.98,-1552.29 273.19,-1568.67"/>
<polygon fill="gray" stroke="gray" stroke-width="2" points="269.96,-1570.04 277.58,-1577.4 276.21,-1566.89 269.96,-1570.04"/>
</g>
<!-- ASG -->
<g id="node10" class="node">
<title>ASG</title>
<ellipse fill="none" stroke="black" cx="284.6" cy="-1519" rx="29.61" ry="18"/>
<text text-anchor="middle" x="284.6" y="-1513.58" font-family="Times New Roman,serif" font-size="14.00">ASG</text>
</g>
<!-- ASE&#45;&gt;ASG -->
<g id="edge10" class="edge">
<title>ASE&#45;&gt;ASG</title>
<path fill="none" stroke="gray" stroke-width="5" d="M172.35,-1329.28C210.6,-1389.59 252,-1458.5 252,-1458.5 252,-1458.5 262.64,-1471.63 271.57,-1486.85"/>
<polygon fill="gray" stroke="gray" stroke-width="5" points="267.59,-1488.69 276.07,-1495.56 275.37,-1484.67 267.59,-1488.69"/>
</g>
<!-- ASH -->
<g id="node11" class="node">
<title>ASH</title>
<ellipse fill="none" stroke="black" cx="284.6" cy="-1440" rx="29.11" ry="18"/>
<text text-anchor="middle" x="284.6" y="-1434.58" font-family="Times New Roman,serif" font-size="14.00">ASH</text>
</g>
<!-- ASE&#45;&gt;ASH -->
<g id="edge11" class="edge">
<title>ASE&#45;&gt;ASH</title>
<path fill="none" stroke="gray" stroke-width="2" d="M187.87,-1315.38C217.94,-1349.01 249.36,-1386.73 267.68,-1412.16"/>
<polygon fill="gray" stroke="gray" stroke-width="2" points="264.6,-1413.87 273.17,-1420.1 270.36,-1409.89 264.6,-1413.87"/>
</g>
<!-- ASI -->
<g id="node12" class="node">
<title>ASI</title>
<ellipse fill="none" stroke="black" cx="284.6" cy="-1361" rx="27" ry="18"/>
<text text-anchor="middle" x="284.6" y="-1355.58" font-family="Times New Roman,serif" font-size="14.00">ASI</text>
</g>
<!-- ASE&#45;&gt;ASI -->
<g id="edge12" class="edge">
<title>ASE&#45;&gt;ASI</title>
<path fill="none" stroke="gray" stroke-width="5" d="M204.47,-1291.01C225.32,-1305.54 245.54,-1320.88 260.32,-1333.74"/>
<polygon fill="gray" stroke="gray" stroke-width="5" points="257.34,-1336.95 267.65,-1340.53 263.29,-1330.53 257.34,-1336.95"/>
</g>
<!-- ASJ -->
<g id="node13" class="node">
<title>ASJ</title>
<ellipse fill="none" stroke="black" cx="284.6" cy="-1282" rx="27" ry="18"/>
<text text-anchor="middle" x="284.6" y="-1276.58" font-family="Times New Roman,serif" font-size="14.00">ASJ</text>
</g>
<!-- ASE&#45;&gt;ASJ -->
<g id="edge13" class="edge">
<title>ASE&#45;&gt;ASJ</title>
<path fill="none" stroke="gray" stroke-width="2" d="M213.59,-1265.96C225.07,-1268.59 236.14,-1271.13 245.96,-1273.38"/>
<polygon fill="gray" stroke="gray" stroke-width="2" points="245,-1276.75 255.53,-1275.57 246.57,-1269.92 245,-1276.75"/>
</g>
<!-- ASK -->
<g id="node14" class="node">
<title>ASK</title>
<ellipse fill="none" stroke="black" cx="284.6" cy="-1203" rx="29.11" ry="18"/>
<text text-anchor="middle" x="284.6" y="-1197.58" font-family="Times New Roman,serif" font-size="14.00">ASK</text>
</g>
<!-- ASE&#45;&gt;ASK -->
<g id="edge14" class="edge">
<title>ASE&#45;&gt;ASK</title>
<path fill="none" stroke="gray" stroke-width="0.2" d="M209.3,-1203.63C222.55,-1201 235.39,-1198.97 246.56,-1197.81"/>
<polygon fill="gray" stroke="gray" stroke-width="0.2" points="246.74,-1201.31 256.42,-1197 246.17,-1194.33 246.74,-1201.31"/>
</g>
<!-- AWA -->
<g id="node15" class="node">
<title>AWA</title>
<ellipse fill="none" stroke="black" cx="284.6" cy="-1124" rx="32.6" ry="18"/>
<text text-anchor="middle" x="284.6" y="-1118.58" font-family="Times New Roman,serif" font-size="14.00">AWA</text>
</g>
<!-- ASE&#45;&gt;AWA -->
<g id="edge15" class="edge">
<title>ASE&#45;&gt;AWA</title>
<path fill="none" stroke="black" stroke-width="5" d="M189.91,-1171.23C207.35,-1159.23 225.13,-1147.87 240.46,-1139.03"/>
<polygon fill="black" stroke="black" stroke-width="5" points="242.2,-1143.07 248.84,-1134.4 237.97,-1135.4 242.2,-1143.07"/>
</g>
<!-- AWB -->
<g id="node16" class="node">
<title>AWB</title>
<ellipse fill="none" stroke="black" cx="284.6" cy="-1045" rx="32.1" ry="18"/>
<text text-anchor="middle" x="284.6" y="-1039.58" font-family="Times New Roman,serif" font-size="14.00">AWB</text>
</g>
<!-- ASE&#45;&gt;AWB -->
<g id="edge16" class="edge">
<title>ASE&#45;&gt;AWB</title>
<path fill="none" stroke="gray" stroke-width="0.2" d="M172.28,-1155.03C200.69,-1121.63 232.78,-1086.52 255.18,-1064.79"/>
<polygon fill="gray" stroke="gray" stroke-width="0.2" points="257.32,-1067.58 262.17,-1058.16 252.5,-1062.5 257.32,-1067.58"/>
</g>
<!-- AWC -->
<g id="node17" class="node">
<title>AWC</title>
<ellipse fill="none" stroke="black" cx="284.6" cy="-966" rx="32.6" ry="18"/>
<text text-anchor="middle" x="284.6" y="-960.58" font-family="Times New Roman,serif" font-size="14.00">AWC</text>
</g>
<!-- ASE&#45;&gt;AWC -->
<g id="edge17" class="edge">
<title>ASE&#45;&gt;AWC</title>
<path fill="none" stroke="red" stroke-width="5" d="M157.41,-1145.47C190.63,-1086.74 231.3,-1018.85 249.47,-990.24"/>
<polygon fill="red" stroke="red" stroke-width="5" points="252.99,-992.85 254.92,-982.11 245.72,-987.98 252.99,-992.85"/>
</g>
<!-- BAG -->
<g id="node18" class="node">
<title>BAG</title>
<ellipse fill="none" stroke="black" cx="284.6" cy="-887" rx="30.11" ry="18"/>
<text text-anchor="middle" x="284.6" y="-881.58" font-family="Times New Roman,serif" font-size="14.00">BAG</text>
</g>
<!-- ASE&#45;&gt;BAG -->
<g id="edge18" class="edge">
<title>ASE&#45;&gt;BAG</title>
<path fill="none" stroke="gray" stroke-width="0.2" d="M153.66,-1143.63C195.62,-1051.2 252,-927 252,-927 252,-927 257.86,-919.58 264.53,-911.13"/>
<polygon fill="gray" stroke="gray" stroke-width="0.2" points="267.11,-913.52 270.56,-903.51 261.61,-909.18 267.11,-913.52"/>
</g>
<!-- HSN -->
<g id="node19" class="node">
<title>HSN</title>
<ellipse fill="none" stroke="black" cx="284.6" cy="-808" rx="29.11" ry="18"/>
<text text-anchor="middle" x="284.6" y="-802.58" font-family="Times New Roman,serif" font-size="14.00">HSN</text>
</g>
<!-- ASE&#45;&gt;HSN -->
<g id="edge19" class="edge">
<title>ASE&#45;&gt;HSN</title>
<path fill="none" stroke="gray" stroke-width="0.2" d="M141.18,-1138.98C183.35,-1015.65 252,-826.5 252,-826.5 252,-826.5 252.46,-825.92 253.26,-824.94"/>
<polygon fill="gray" stroke="gray" stroke-width="0.2" points="255.58,-827.61 259.45,-817.75 250.27,-823.05 255.58,-827.61"/>
</g>
<!-- IL2 -->
<g id="node20" class="node">
<title>IL2</title>
<ellipse fill="none" stroke="black" cx="284.6" cy="-729" rx="27" ry="18"/>
<text text-anchor="middle" x="284.6" y="-723.58" font-family="Times New Roman,serif" font-size="14.00">IL2</text>
</g>
<!-- ASE&#45;&gt;IL2 -->
<g id="edge20" class="edge">
<title>ASE&#45;&gt;IL2</title>
<path fill="none" stroke="gray" stroke-width="0.2" d="M140.29,-1138.49C182.38,-999.29 252,-769 252,-769 252,-769 258.03,-761.37 264.81,-752.78"/>
<polygon fill="gray" stroke="gray" stroke-width="0.2" points="267.47,-755.06 270.92,-745.05 261.98,-750.72 267.47,-755.06"/>
</g>
<!-- OLL -->
<g id="node21" class="node">
<title>OLL</title>
<ellipse fill="none" stroke="black" cx="284.6" cy="-650" rx="28.61" ry="18"/>
<text text-anchor="middle" x="284.6" y="-644.58" font-family="Times New Roman,serif" font-size="14.00">OLL</text>
</g>
<!-- ASE&#45;&gt;OLL -->
<g id="edge21" class="edge">
<title>ASE&#45;&gt;OLL</title>
<path fill="none" stroke="gray" stroke-width="0.2" d="M136.07,-1137.52C177.52,-977.49 252,-690 252,-690 252,-690 257.86,-682.58 264.53,-674.13"/>
<polygon fill="gray" stroke="gray" stroke-width="0.2" points="267.11,-676.52 270.56,-666.51 261.61,-672.18 267.11,-676.52"/>
</g>
<!-- PVN -->
<g id="node22" class="node">
<title>PVN</title>
<ellipse fill="none" stroke="black" cx="284.6" cy="-571" rx="29.11" ry="18"/>
<text text-anchor="middle" x="284.6" y="-565.58" font-family="Times New Roman,serif" font-size="14.00">PVN</text>
</g>
<!-- ASE&#45;&gt;PVN -->
<g id="edge22" class="edge">
<title>ASE&#45;&gt;PVN</title>
<path fill="none" stroke="gray" stroke-width="0.2" d="M130.25,-1136.03C170.09,-950.94 252,-589.5 252,-589.5 252,-589.5 252.46,-588.92 253.26,-587.94"/>
<polygon fill="gray" stroke="gray" stroke-width="0.2" points="255.58,-590.61 259.45,-580.75 250.27,-586.05 255.58,-590.61"/>
</g>
<!-- PVQ -->
<g id="node23" class="node">
<title>PVQ</title>
<ellipse fill="none" stroke="black" cx="284.6" cy="-492" rx="29.61" ry="18"/>
<text text-anchor="middle" x="284.6" y="-486.57" font-family="Times New Roman,serif" font-size="14.00">PVQ</text>
</g>
<!-- ASE&#45;&gt;PVQ -->
<g id="edge23" class="edge">
<title>ASE&#45;&gt;PVQ</title>
<path fill="none" stroke="gray" stroke-width="0.2" d="M128.06,-1135.7C167,-932.55 252,-510.5 252,-510.5 252,-510.5 252.3,-510.12 252.85,-509.45"/>
<polygon fill="gray" stroke="gray" stroke-width="0.2" points="255.29,-511.98 259.13,-502.11 249.97,-507.43 255.29,-511.98"/>
</g>
<!-- RIA -->
<g id="node24" class="node">
<title>RIA</title>
<ellipse fill="none" stroke="black" cx="284.6" cy="-413" rx="27" ry="18"/>
<text text-anchor="middle" x="284.6" y="-407.57" font-family="Times New Roman,serif" font-size="14.00">RIA</text>
</g>
<!-- ASE&#45;&gt;RIA -->
<g id="edge24" class="edge">
<title>ASE&#45;&gt;RIA</title>
<path fill="none" stroke="red" stroke-width="2" d="M128.29,-1135.59C167.32,-920.23 252,-453 252,-453 252,-453 257.08,-446.57 263.17,-438.86"/>
<polygon fill="red" stroke="red" stroke-width="2" points="265.78,-441.2 269.23,-431.18 260.29,-436.86 265.78,-441.2"/>
</g>
<!-- RIB -->
<g id="node25" class="node">
<title>RIB</title>
<ellipse fill="none" stroke="black" cx="284.6" cy="-334" rx="27" ry="18"/>
<text text-anchor="middle" x="284.6" y="-328.57" font-family="Times New Roman,serif" font-size="14.00">RIB</text>
</g>
<!-- ASE&#45;&gt;RIB -->
<g id="edge25" class="edge">
<title>ASE&#45;&gt;RIB</title>
<path fill="none" stroke="gray" stroke-width="2" d="M126.61,-1135.13C164.83,-903.12 252,-374 252,-374 252,-374 257.08,-367.57 263.17,-359.86"/>
<polygon fill="gray" stroke="gray" stroke-width="2" points="265.78,-362.2 269.23,-352.18 260.29,-357.86 265.78,-362.2"/>
</g>
<!-- RIM -->
<g id="node26" class="node">
<title>RIM</title>
<ellipse fill="none" stroke="black" cx="284.6" cy="-255" rx="28.11" ry="18"/>
<text text-anchor="middle" x="284.6" y="-249.57" font-family="Times New Roman,serif" font-size="14.00">RIM</text>
</g>
<!-- ASE&#45;&gt;RIM -->
<g id="edge26" class="edge">
<title>ASE&#45;&gt;RIM</title>
<path fill="none" stroke="gray" stroke-width="2" d="M125.13,-1135.21C162.52,-887.54 252,-295 252,-295 252,-295 257.08,-288.57 263.17,-280.86"/>
<polygon fill="gray" stroke="gray" stroke-width="2" points="265.78,-283.2 269.23,-273.18 260.29,-278.86 265.78,-283.2"/>
</g>
<!-- RIR -->
<g id="node27" class="node">
<title>RIR</title>
<ellipse fill="none" stroke="black" cx="284.6" cy="-176" rx="27" ry="18"/>
<text text-anchor="middle" x="284.6" y="-170.57" font-family="Times New Roman,serif" font-size="14.00">RIR</text>
</g>
<!-- ASE&#45;&gt;RIR -->
<g id="edge27" class="edge">
<title>ASE&#45;&gt;RIR</title>
<path fill="none" stroke="gray" stroke-width="0.2" d="M123.9,-1135.1C160.52,-872.32 252,-216 252,-216 252,-216 258.03,-208.37 264.81,-199.78"/>
<polygon fill="gray" stroke="gray" stroke-width="0.2" points="267.47,-202.06 270.92,-192.05 261.98,-197.72 267.47,-202.06"/>
</g>
<!-- RIS -->
<g id="node28" class="node">
<title>RIS</title>
<ellipse fill="none" stroke="black" cx="284.6" cy="-97" rx="27" ry="18"/>
<text text-anchor="middle" x="284.6" y="-91.58" font-family="Times New Roman,serif" font-size="14.00">RIS</text>
</g>
<!-- ASE&#45;&gt;RIS -->
<g id="edge28" class="edge">
<title>ASE&#45;&gt;RIS</title>
<path fill="none" stroke="gray" stroke-width="0.2" d="M122.91,-1134.54C158.84,-856.86 252,-137 252,-137 252,-137 258.03,-129.37 264.81,-120.78"/>
<polygon fill="gray" stroke="gray" stroke-width="0.2" points="267.47,-123.06 270.92,-113.05 261.98,-118.72 267.47,-123.06"/>
</g>
<!-- RMG -->
<g id="node29" class="node">
<title>RMG</title>
<ellipse fill="none" stroke="black" cx="284.6" cy="-18" rx="32.1" ry="18"/>
<text text-anchor="middle" x="284.6" y="-12.57" font-family="Times New Roman,serif" font-size="14.00">RMG</text>
</g>
<!-- ASE&#45;&gt;RMG -->
<g id="edge29" class="edge">
<title>ASE&#45;&gt;RMG</title>
<path fill="none" stroke="gray" stroke-width="5" d="M121.97,-1134.58C157.2,-842.92 252,-58 252,-58 252,-58 255.91,-53.06 260.97,-46.64"/>
<polygon fill="gray" stroke="gray" stroke-width="5" points="264.11,-49.72 266.88,-39.16 257.25,-44.3 264.11,-49.72"/>
</g>
<!-- ADF&#45;&gt;ASE -->
<g id="edge30" class="edge">
<title>ADF&#45;&gt;ASE</title>
<path fill="none" stroke="gray" stroke-width="0.2" d="M259.33,-2141.89C255.09,-2137.31 252,-2133.5 252,-2133.5 252,-2133.5 164.42,-1600.65 126.34,-1358.66"/>
<polygon fill="gray" stroke="gray" stroke-width="0.2" points="129.84,-1358.41 124.83,-1349.07 122.92,-1359.49 129.84,-1358.41"/>
</g>
<!-- ADL&#45;&gt;ASE -->
<g id="edge31" class="edge">
<title>ADL&#45;&gt;ASE</title>
<path fill="none" stroke="gray" stroke-width="5" d="M259.33,-2062.89C255.09,-2058.31 252,-2054.5 252,-2054.5 252,-2054.5 168.35,-1591.77 129,-1364.53"/>
<polygon fill="gray" stroke="gray" stroke-width="5" points="133.32,-1363.84 127.31,-1354.73 124.7,-1365.33 133.32,-1363.84"/>
</g>
<!-- AFD&#45;&gt;ASE -->
<g id="edge32" class="edge">
<title>AFD&#45;&gt;ASE</title>
<path fill="none" stroke="gray" stroke-width="2" d="M259.33,-1983.89C255.09,-1979.31 252,-1975.5 252,-1975.5 252,-1975.5 170.37,-1569.04 130.46,-1361.06"/>
<polygon fill="gray" stroke="gray" stroke-width="2" points="133.95,-1360.7 128.63,-1351.54 127.08,-1362.02 133.95,-1360.7"/>
</g>
<!-- AIA&#45;&gt;ASE -->
<g id="edge33" class="edge">
<title>AIA&#45;&gt;ASE</title>
<path fill="none" stroke="gray" stroke-width="5" d="M260.3,-1905.93C255.57,-1900.9 252,-1896.5 252,-1896.5 252,-1896.5 174.41,-1553.03 133.53,-1363.51"/>
<polygon fill="gray" stroke="gray" stroke-width="5" points="137.87,-1362.86 131.49,-1354 129.31,-1364.7 137.87,-1362.86"/>
</g>
<!-- AIB&#45;&gt;ASE -->
<g id="edge34" class="edge">
<title>AIB&#45;&gt;ASE</title>
<path fill="none" stroke="gray" stroke-width="0.2" d="M260.3,-1826.93C255.57,-1821.9 252,-1817.5 252,-1817.5 252,-1817.5 176.67,-1525.68 135.36,-1357.41"/>
<polygon fill="gray" stroke="gray" stroke-width="0.2" points="138.79,-1356.68 133.01,-1347.8 131.99,-1358.35 138.79,-1356.68"/>
</g>
<!-- AIN&#45;&gt;ASE -->
<g id="edge35" class="edge">
<title>AIN&#45;&gt;ASE</title>
<path fill="none" stroke="gray" stroke-width="2" d="M260.3,-1747.93C255.57,-1742.9 252,-1738.5 252,-1738.5 252,-1738.5 181.92,-1505.72 139.88,-1358.7"/>
<polygon fill="gray" stroke="gray" stroke-width="2" points="143.34,-1358.07 137.23,-1349.42 136.61,-1359.99 143.34,-1358.07"/>
</g>
<!-- AIY&#45;&gt;ASE -->
<g id="edge36" class="edge">
<title>AIY&#45;&gt;ASE</title>
<path fill="none" stroke="gray" stroke-width="5" d="M260.3,-1668.93C255.57,-1663.9 252,-1659.5 252,-1659.5 252,-1659.5 188.65,-1484.06 146.28,-1360.39"/>
<polygon fill="gray" stroke="gray" stroke-width="5" points="150.48,-1359.16 143.11,-1351.11 142.2,-1361.98 150.48,-1359.16"/>
</g>
<!-- AIZ&#45;&gt;ASE -->
<g id="edge37" class="edge">
<title>AIZ&#45;&gt;ASE</title>
<path fill="none" stroke="gray" stroke-width="5" d="M260.3,-1589.93C255.57,-1584.9 252,-1580.5 252,-1580.5 252,-1580.5 195.78,-1455.88 153.85,-1357.61"/>
<polygon fill="gray" stroke="gray" stroke-width="5" points="157.89,-1355.94 149.95,-1348.45 149.84,-1359.36 157.89,-1355.94"/>
</g>
<!-- ASG&#45;&gt;ASE -->
<g id="edge38" class="edge">
<title>ASG&#45;&gt;ASE</title>
<path fill="none" stroke="gray" stroke-width="2" d="M259.01,-1509.55C254.93,-1505.12 252,-1501.5 252,-1501.5 252,-1501.5 203.65,-1421.03 163.18,-1349.44"/>
<polygon fill="gray" stroke="gray" stroke-width="2" points="166.46,-1348.13 158.5,-1341.14 160.36,-1351.57 166.46,-1348.13"/>
</g>
<!-- ASH&#45;&gt;ASE -->
<g id="edge39" class="edge">
<title>ASH&#45;&gt;ASE</title>
<path fill="none" stroke="gray" stroke-width="0.2" d="M263.21,-1427.69C242.45,-1408.52 209.1,-1372.38 178.72,-1336.89"/>
<polygon fill="gray" stroke="gray" stroke-width="0.2" points="181.63,-1334.91 172.48,-1329.56 176.3,-1339.45 181.63,-1334.91"/>
</g>
<!-- ASI&#45;&gt;ASE -->
<g id="edge40" class="edge">
<title>ASI&#45;&gt;ASE</title>
<path fill="none" stroke="gray" stroke-width="5" d="M258.63,-1355.68C243.63,-1348.12 223.49,-1335.86 202.87,-1322.06"/>
<polygon fill="gray" stroke="gray" stroke-width="5" points="205.54,-1318.59 194.81,-1316.57 200.61,-1325.82 205.54,-1318.59"/>
</g>
<!-- ASK&#45;&gt;ASE -->
<g id="edge41" class="edge">
<title>ASK&#45;&gt;ASE</title>
<path fill="none" stroke="gray" stroke-width="2" d="M265.94,-1217.15C256.15,-1221.64 243.04,-1226.21 228.55,-1230.4"/>
<polygon fill="gray" stroke="gray" stroke-width="2" points="227.73,-1227 219.01,-1233.03 229.58,-1233.75 227.73,-1227"/>
</g>
<!-- AWA&#45;&gt;ASE -->
<g id="edge42" class="edge">
<title>AWA&#45;&gt;ASE</title>
<path fill="none" stroke="gray" stroke-width="5" d="M271.51,-1140.88C259.42,-1152.79 239.53,-1168.56 217.73,-1184.2"/>
<polygon fill="gray" stroke="gray" stroke-width="5" points="215.48,-1180.43 209.83,-1189.77 220.52,-1187.59 215.48,-1180.43"/>
</g>
<!-- AWB&#45;&gt;ASE -->
<g id="edge43" class="edge">
<title>AWB&#45;&gt;ASE</title>
<path fill="none" stroke="gray" stroke-width="nan" d="M274.9,-1062.36C258.69,-1086.87 222.39,-1130.67 187.87,-1169.07"/>
<polygon fill="gray" stroke="gray" stroke-width="nan" points="nan,-nan nan,-nan nan,-nan nan,-nan"/>
</g>
<!-- AWC&#45;&gt;ASE -->
<g id="edge44" class="edge">
<title>AWC&#45;&gt;ASE</title>
<path fill="none" stroke="red" stroke-width="5" d="M278.94,-984.05C270.15,-1004.53 252,-1027.5 252,-1027.5 252,-1027.5 216.77,-1085.64 181.28,-1141.58"/>
<polygon fill="red" stroke="red" stroke-width="5" points="177.8,-1138.91 176.11,-1149.69 185.18,-1143.61 177.8,-1138.91"/>
</g>
<!-- HSN&#45;&gt;ASE -->
<g id="edge45" class="edge">
<title>HSN&#45;&gt;ASE</title>
<path fill="none" stroke="gray" stroke-width="0.2" d="M278.94,-826.05C270.15,-846.53 252,-869.5 252,-869.5 252,-869.5 196.34,-1022.87 154.47,-1133.01"/>
<polygon fill="gray" stroke="gray" stroke-width="0.2" points="151.24,-1131.65 150.95,-1142.24 157.78,-1134.14 151.24,-1131.65"/>
</g>
<!-- PVN&#45;&gt;ASE -->
<g id="edge46" class="edge">
<title>PVN&#45;&gt;ASE</title>
<path fill="none" stroke="gray" stroke-width="5" d="M278.94,-589.05C270.15,-609.53 252,-632.5 252,-632.5 252,-632.5 181.44,-943.84 139.45,-1121.68"/>
<polygon fill="gray" stroke="gray" stroke-width="5" points="135.21,-1120.6 137.17,-1131.34 143.73,-1122.61 135.21,-1120.6"/>
</g>
<!-- PVQ&#45;&gt;ASE -->
<g id="edge47" class="edge">
<title>PVQ&#45;&gt;ASE</title>
<path fill="none" stroke="red" stroke-width="2" d="M278.94,-510.05C270.15,-530.53 252,-553.5 252,-553.5 252,-553.5 176.78,-926.99 135.45,-1123.99"/>
<polygon fill="red" stroke="red" stroke-width="2" points="132.03,-1123.24 133.4,-1133.74 138.88,-1124.68 132.03,-1123.24"/>
</g>
</g>
</svg>
