<?xml version="1.0" encoding="UTF-8" standalone="no"?>
<!DOCTYPE svg PUBLIC "-//W3C//DTD SVG 1.1//EN"
 "http://www.w3.org/Graphics/SVG/1.1/DTD/svg11.dtd">
<!-- Generated by graphviz version 11.0.0 (20240428.1522)
 -->
<!-- Pages: 1 -->
<svg width="426pt" height="1071pt"
 viewBox="0.00 0.00 426.40 1071.00" xmlns="http://www.w3.org/2000/svg" xmlns:xlink="http://www.w3.org/1999/xlink">
<g id="graph0" class="graph" transform="scale(1 1) rotate(0) translate(4 1067)">
<polygon fill="white" stroke="none" points="-4,4 -4,-1067 422.4,-1067 422.4,4 -4,4"/>
<!-- ASG -->
<g id="node1" class="node">
<title>ASG</title>
<ellipse fill="none" stroke="black" cx="209.2" cy="-571" rx="108" ry="108"/>
<text text-anchor="middle" x="209.2" y="-552" font-family="Times New Roman,serif" font-size="50.00">ASG</text>
</g>
<!-- AIA -->
<g id="node2" class="node">
<title>AIA</title>
<ellipse fill="none" stroke="black" cx="385.8" cy="-1045" rx="27" ry="18"/>
<text text-anchor="middle" x="385.8" y="-1039.58" font-family="Times New Roman,serif" font-size="14.00">AIA</text>
</g>
<!-- ASG&#45;&gt;AIA -->
<g id="edge1" class="edge">
<title>ASG&#45;&gt;AIA</title>
<path fill="none" stroke="black" stroke-width="5" d="M248.43,-671.99C290.79,-794.64 353.2,-984.5 353.2,-984.5 353.2,-984.5 363.84,-997.63 372.77,-1012.85"/>
<polygon fill="black" stroke="black" stroke-width="5" points="368.8,-1014.69 377.28,-1021.56 376.57,-1010.67 368.8,-1014.69"/>
</g>
<!-- AIB -->
<g id="node3" class="node">
<title>AIB</title>
<ellipse fill="none" stroke="black" cx="385.8" cy="-966" rx="27" ry="18"/>
<text text-anchor="middle" x="385.8" y="-960.58" font-family="Times New Roman,serif" font-size="14.00">AIB</text>
</g>
<!-- ASG&#45;&gt;AIB -->
<g id="edge2" class="edge">
<title>ASG&#45;&gt;AIB</title>
<path fill="none" stroke="gray" stroke-width="2" d="M250.42,-671.11C292.71,-776.41 353.2,-927 353.2,-927 353.2,-927 358.15,-933.1 364.12,-940.48"/>
<polygon fill="gray" stroke="gray" stroke-width="2" points="361.03,-942.22 370.04,-947.79 366.47,-937.81 361.03,-942.22"/>
</g>
<!-- AIM -->
<g id="node4" class="node">
<title>AIM</title>
<ellipse fill="none" stroke="black" cx="385.8" cy="-887" rx="28.11" ry="18"/>
<text text-anchor="middle" x="385.8" y="-881.58" font-family="Times New Roman,serif" font-size="14.00">AIM</text>
</g>
<!-- ASG&#45;&gt;AIM -->
<g id="edge3" class="edge">
<title>ASG&#45;&gt;AIM</title>
<path fill="none" stroke="gray" stroke-width="2" d="M266.72,-662.97C306.69,-736.4 353.2,-826.5 353.2,-826.5 353.2,-826.5 365.18,-841.29 374.39,-857.67"/>
<polygon fill="gray" stroke="gray" stroke-width="2" points="371.16,-859.04 378.78,-866.4 377.41,-855.89 371.16,-859.04"/>
</g>
<!-- AIN -->
<g id="node5" class="node">
<title>AIN</title>
<ellipse fill="none" stroke="black" cx="385.8" cy="-808" rx="27" ry="18"/>
<text text-anchor="middle" x="385.8" y="-802.58" font-family="Times New Roman,serif" font-size="14.00">AIN</text>
</g>
<!-- ASG&#45;&gt;AIN -->
<g id="edge4" class="edge">
<title>ASG&#45;&gt;AIN</title>
<path fill="none" stroke="gray" stroke-width="0.2" d="M281.91,-651.46C317.59,-698.19 353.2,-747.5 353.2,-747.5 353.2,-747.5 366.36,-763.74 375.7,-781.04"/>
<polygon fill="gray" stroke="gray" stroke-width="0.2" points="372.46,-782.39 380.01,-789.83 378.75,-779.31 372.46,-782.39"/>
</g>
<!-- AIY -->
<g id="node6" class="node">
<title>AIY</title>
<ellipse fill="none" stroke="black" cx="385.8" cy="-729" rx="27" ry="18"/>
<text text-anchor="middle" x="385.8" y="-723.58" font-family="Times New Roman,serif" font-size="14.00">AIY</text>
</g>
<!-- ASG&#45;&gt;AIY -->
<g id="edge5" class="edge">
<title>ASG&#45;&gt;AIY</title>
<path fill="none" stroke="gray" stroke-width="0.2" d="M297.5,-633.88C324.66,-658.45 351.81,-685.1 368.46,-704.32"/>
<polygon fill="gray" stroke="gray" stroke-width="0.2" points="365.63,-706.4 374.72,-711.85 371.01,-701.92 365.63,-706.4"/>
</g>
<!-- AIZ -->
<g id="node7" class="node">
<title>AIZ</title>
<ellipse fill="none" stroke="black" cx="385.8" cy="-650" rx="27" ry="18"/>
<text text-anchor="middle" x="385.8" y="-644.58" font-family="Times New Roman,serif" font-size="14.00">AIZ</text>
</g>
<!-- ASG&#45;&gt;AIZ -->
<g id="edge6" class="edge">
<title>ASG&#45;&gt;AIZ</title>
<path fill="none" stroke="gray" stroke-width="0.2" d="M313.03,-601.63C331.8,-610.68 349.57,-620.3 362.74,-628.87"/>
<polygon fill="gray" stroke="gray" stroke-width="0.2" points="360.61,-631.64 370.83,-634.43 364.58,-625.88 360.61,-631.64"/>
</g>
<!-- ASE -->
<g id="node8" class="node">
<title>ASE</title>
<ellipse fill="none" stroke="black" cx="385.8" cy="-571" rx="28.11" ry="18"/>
<text text-anchor="middle" x="385.8" y="-565.58" font-family="Times New Roman,serif" font-size="14.00">ASE</text>
</g>
<!-- ASG&#45;&gt;ASE -->
<g id="edge7" class="edge">
<title>ASG&#45;&gt;ASE</title>
<path fill="none" stroke="gray" stroke-width="2" d="M316.55,-555.22C328.69,-555.67 340.31,-556.55 350.42,-557.87"/>
<polygon fill="gray" stroke="gray" stroke-width="2" points="349.74,-561.3 360.17,-559.45 350.86,-554.39 349.74,-561.3"/>
</g>
<!-- ASH -->
<g id="node9" class="node">
<title>ASH</title>
<ellipse fill="none" stroke="black" cx="385.8" cy="-492" rx="29.11" ry="18"/>
<text text-anchor="middle" x="385.8" y="-486.57" font-family="Times New Roman,serif" font-size="14.00">ASH</text>
</g>
<!-- ASG&#45;&gt;ASH -->
<g id="edge8" class="edge">
<title>ASG&#45;&gt;ASH</title>
<path fill="none" stroke="gray" stroke-width="0.2" d="M308.22,-526.65C324.2,-519.42 339.7,-512.41 352.52,-506.61"/>
<polygon fill="gray" stroke="gray" stroke-width="0.2" points="353.82,-509.86 361.49,-502.55 350.94,-503.48 353.82,-509.86"/>
</g>
<!-- ASJ -->
<g id="node10" class="node">
<title>ASJ</title>
<ellipse fill="none" stroke="black" cx="385.8" cy="-413" rx="27" ry="18"/>
<text text-anchor="middle" x="385.8" y="-407.57" font-family="Times New Roman,serif" font-size="14.00">ASJ</text>
</g>
<!-- ASG&#45;&gt;ASJ -->
<g id="edge9" class="edge">
<title>ASG&#45;&gt;ASJ</title>
<path fill="none" stroke="gray" stroke-width="0.2" d="M281.72,-490.39C306.94,-466.81 333.97,-443.43 354.02,-428.22"/>
<polygon fill="gray" stroke="gray" stroke-width="0.2" points="355.95,-431.15 361.92,-422.4 351.8,-425.51 355.95,-431.15"/>
</g>
<!-- ASK -->
<g id="node11" class="node">
<title>ASK</title>
<ellipse fill="none" stroke="black" cx="385.8" cy="-334" rx="29.11" ry="18"/>
<text text-anchor="middle" x="385.8" y="-328.57" font-family="Times New Roman,serif" font-size="14.00">ASK</text>
</g>
<!-- ASG&#45;&gt;ASK -->
<g id="edge10" class="edge">
<title>ASG&#45;&gt;ASK</title>
<path fill="none" stroke="gray" stroke-width="2" d="M265.08,-478.05C298.16,-429.07 336.27,-375.96 353.12,-353.51"/>
<polygon fill="gray" stroke="gray" stroke-width="2" points="355.64,-355.96 359,-345.92 350.11,-351.68 355.64,-355.96"/>
</g>
<!-- AVB -->
<g id="node12" class="node">
<title>AVB</title>
<ellipse fill="none" stroke="black" cx="385.8" cy="-255" rx="29.61" ry="18"/>
<text text-anchor="middle" x="385.8" y="-249.57" font-family="Times New Roman,serif" font-size="14.00">AVB</text>
</g>
<!-- ASG&#45;&gt;AVB -->
<g id="edge11" class="edge">
<title>ASG&#45;&gt;AVB</title>
<path fill="none" stroke="gray" stroke-width="0.2" d="M259.82,-475.24C301.12,-395.53 353.2,-295 353.2,-295 353.2,-295 359.06,-287.58 365.74,-279.13"/>
<polygon fill="gray" stroke="gray" stroke-width="0.2" points="368.31,-281.52 371.76,-271.51 362.82,-277.18 368.31,-281.52"/>
</g>
<!-- AVE -->
<g id="node13" class="node">
<title>AVE</title>
<ellipse fill="none" stroke="black" cx="385.8" cy="-176" rx="29.11" ry="18"/>
<text text-anchor="middle" x="385.8" y="-170.57" font-family="Times New Roman,serif" font-size="14.00">AVE</text>
</g>
<!-- ASG&#45;&gt;AVE -->
<g id="edge12" class="edge">
<title>ASG&#45;&gt;AVE</title>
<path fill="none" stroke="blue" stroke-width="0.2" d="M250.42,-470.89C292.71,-365.59 353.2,-215 353.2,-215 353.2,-215 358.94,-207.91 365.53,-199.78"/>
<polygon fill="blue" stroke="blue" stroke-width="0.2" points="368.18,-202.07 371.76,-192.1 362.74,-197.66 368.18,-202.07"/>
</g>
<!-- AWC -->
<g id="node14" class="node">
<title>AWC</title>
<ellipse fill="none" stroke="black" cx="385.8" cy="-97" rx="32.6" ry="18"/>
<text text-anchor="middle" x="385.8" y="-91.58" font-family="Times New Roman,serif" font-size="14.00">AWC</text>
</g>
<!-- ASG&#45;&gt;AWC -->
<g id="edge13" class="edge">
<title>ASG&#45;&gt;AWC</title>
<path fill="none" stroke="gray" stroke-width="5" d="M239.83,-466.97C275.75,-351.2 333.42,-174.83 352.79,-122.66"/>
<polygon fill="gray" stroke="gray" stroke-width="5" points="356.78,-124.46 356.6,-113.54 348.71,-121.09 356.78,-124.46"/>
</g>
<!-- CEP -->
<g id="node15" class="node">
<title>CEP</title>
<ellipse fill="none" stroke="black" cx="385.8" cy="-18" rx="28.11" ry="18"/>
<text text-anchor="middle" x="385.8" y="-12.57" font-family="Times New Roman,serif" font-size="14.00">CEP</text>
</g>
<!-- ASG&#45;&gt;CEP -->
<g id="edge14" class="edge">
<title>ASG&#45;&gt;CEP</title>
<path fill="none" stroke="gray" stroke-width="0.2" d="M235.77,-465.99C276.9,-309.76 353.2,-35.5 353.2,-35.5 353.2,-35.5 353.52,-35.11 354.09,-34.43"/>
<polygon fill="gray" stroke="gray" stroke-width="0.2" points="356.66,-36.81 360.65,-26.99 351.41,-32.17 356.66,-36.81"/>
</g>
<!-- AIA&#45;&gt;ASG -->
<g id="edge15" class="edge">
<title>AIA&#45;&gt;ASG</title>
<path fill="none" stroke="gray" stroke-width="5" d="M361.5,-1036.93C356.77,-1031.9 353.2,-1027.5 353.2,-1027.5 353.2,-1027.5 286.92,-825.89 244.61,-690.39"/>
<polygon fill="gray" stroke="gray" stroke-width="5" points="248.84,-689.24 241.69,-680.99 240.48,-691.84 248.84,-689.24"/>
</g>
<!-- AIM&#45;&gt;ASG -->
<g id="edge16" class="edge">
<title>AIM&#45;&gt;ASG</title>
<path fill="none" stroke="red" stroke-width="5" d="M360.85,-878.23C356.44,-873.5 353.2,-869.5 353.2,-869.5 353.2,-869.5 301.4,-769.15 260.15,-684.56"/>
<polygon fill="red" stroke="red" stroke-width="5" points="264.13,-682.75 255.83,-675.67 256.26,-686.58 264.13,-682.75"/>
</g>
<!-- AIN&#45;&gt;ASG -->
<g id="edge17" class="edge">
<title>AIN&#45;&gt;ASG</title>
<path fill="none" stroke="gray" stroke-width="0.2" d="M361.5,-799.93C356.77,-794.9 353.2,-790.5 353.2,-790.5 353.2,-790.5 309.64,-730.18 270.6,-672.51"/>
<polygon fill="gray" stroke="gray" stroke-width="0.2" points="273.54,-670.61 265.05,-664.28 267.74,-674.53 273.54,-670.61"/>
</g>
<!-- AIY&#45;&gt;ASG -->
<g id="edge18" class="edge">
<title>AIY&#45;&gt;ASG</title>
<path fill="none" stroke="gray" stroke-width="0.2" d="M362.17,-719.78C343.49,-706.49 315.82,-683.06 289.2,-658.54"/>
<polygon fill="gray" stroke="gray" stroke-width="0.2" points="291.66,-656.05 281.94,-651.81 286.89,-661.18 291.66,-656.05"/>
</g>
<!-- AIZ&#45;&gt;ASG -->
<g id="edge19" class="edge">
<title>AIZ&#45;&gt;ASG</title>
<path fill="none" stroke="gray" stroke-width="0.2" d="M358.48,-650.03C345.21,-646.27 328.18,-639.91 310.42,-632.31"/>
<polygon fill="gray" stroke="gray" stroke-width="0.2" points="311.92,-629.15 301.36,-628.35 309.12,-635.56 311.92,-629.15"/>
</g>
<!-- ASE&#45;&gt;ASG -->
<g id="edge20" class="edge">
<title>ASE&#45;&gt;ASG</title>
<path fill="none" stroke="gray" stroke-width="5" d="M363.16,-582.07C354.64,-583.78 344.15,-585.06 332.69,-585.9"/>
<polygon fill="gray" stroke="gray" stroke-width="5" points="332.52,-581.53 322.78,-586.44 333,-590.26 332.52,-581.53"/>
</g>
<!-- ASJ&#45;&gt;ASG -->
<g id="edge21" class="edge">
<title>ASJ&#45;&gt;ASG</title>
<path fill="none" stroke="gray" stroke-width="nan" d="M374.92,-429.92C359.57,-449.24 328.54,-480.04 297.5,-508.12"/>
<polygon fill="gray" stroke="gray" stroke-width="nan" points="nan,-nan nan,-nan nan,-nan nan,-nan"/>
</g>
<!-- ASK&#45;&gt;ASG -->
<g id="edge22" class="edge">
<title>ASK&#45;&gt;ASG</title>
<path fill="none" stroke="red" stroke-width="0.2" d="M380.14,-352.05C371.35,-372.53 353.2,-395.5 353.2,-395.5 353.2,-395.5 321.77,-438.81 288.37,-482.6"/>
<polygon fill="red" stroke="red" stroke-width="0.2" points="285.6,-480.46 282.3,-490.53 291.16,-484.71 285.6,-480.46"/>
</g>
<!-- AWC&#45;&gt;ASG -->
<g id="edge23" class="edge">
<title>AWC&#45;&gt;ASG</title>
<path fill="none" stroke="gray" stroke-width="5" d="M380,-115.21C371.16,-135.33 353.2,-157.5 353.2,-157.5 353.2,-157.5 295.69,-332.46 253.61,-454.97"/>
<polygon fill="gray" stroke="gray" stroke-width="5" points="249.58,-453.24 250.46,-464.12 257.85,-456.09 249.58,-453.24"/>
</g>
<!-- CEP&#45;&gt;ASG -->
<g id="edge24" class="edge">
<title>CEP&#45;&gt;ASG</title>
<path fill="none" stroke="gray" stroke-width="0.2" d="M380.14,-35.9C371.35,-56.1 353.2,-78.5 353.2,-78.5 353.2,-78.5 287.93,-313.11 245.59,-458.69"/>
<polygon fill="gray" stroke="gray" stroke-width="0.2" points="242.35,-457.28 242.91,-467.86 249.07,-459.23 242.35,-457.28"/>
</g>
<!-- ADF -->
<g id="node16" class="node">
<title>ADF</title>
<ellipse fill="none" stroke="black" cx="32.6" cy="-887" rx="29.11" ry="18"/>
<text text-anchor="middle" x="32.6" y="-881.58" font-family="Times New Roman,serif" font-size="14.00">ADF</text>
</g>
<!-- ADF&#45;&gt;ASG -->
<g id="edge25" class="edge">
<title>ADF&#45;&gt;ASG</title>
<path fill="none" stroke="gray" stroke-width="nan" d="M46.45,-871.14C55.2,-860.34 65.2,-848 65.2,-848 65.2,-848 117.46,-746.78 158.79,-666.72"/>
<polygon fill="gray" stroke="gray" stroke-width="nan" points="nan,-nan nan,-nan nan,-nan nan,-nan"/>
</g>
<!-- ADL -->
<g id="node17" class="node">
<title>ADL</title>
<ellipse fill="none" stroke="black" cx="32.6" cy="-808" rx="29.11" ry="18"/>
<text text-anchor="middle" x="32.6" y="-802.58" font-family="Times New Roman,serif" font-size="14.00">ADL</text>
</g>
<!-- ADL&#45;&gt;ASG -->
<g id="edge26" class="edge">
<title>ADL&#45;&gt;ASG</title>
<path fill="none" stroke="gray" stroke-width="2" d="M46.45,-792.14C55.2,-781.34 65.2,-769 65.2,-769 65.2,-769 101.57,-718.64 137.63,-668.72"/>
<polygon fill="gray" stroke="gray" stroke-width="2" points="140.27,-671.03 143.29,-660.88 134.6,-666.93 140.27,-671.03"/>
</g>
<!-- ALA -->
<g id="node18" class="node">
<title>ALA</title>
<ellipse fill="none" stroke="black" cx="32.6" cy="-729" rx="29.11" ry="18"/>
<text text-anchor="middle" x="32.6" y="-723.58" font-family="Times New Roman,serif" font-size="14.00">ALA</text>
</g>
<!-- ALA&#45;&gt;ASG -->
<g id="edge27" class="edge">
<title>ALA&#45;&gt;ASG</title>
<path fill="none" stroke="gray" stroke-width="2" d="M50.03,-714.14C66.35,-699.36 92.73,-675.49 119.31,-651.44"/>
<polygon fill="gray" stroke="gray" stroke-width="2" points="121.39,-654.28 126.46,-644.97 116.69,-649.09 121.39,-654.28"/>
</g>
<!-- ASI -->
<g id="node19" class="node">
<title>ASI</title>
<ellipse fill="none" stroke="black" cx="32.6" cy="-650" rx="27" ry="18"/>
<text text-anchor="middle" x="32.6" y="-644.58" font-family="Times New Roman,serif" font-size="14.00">ASI</text>
</g>
<!-- ASI&#45;&gt;ASG -->
<g id="edge28" class="edge">
<title>ASI&#45;&gt;ASG</title>
<path fill="none" stroke="red" stroke-width="5" d="M55.71,-639.99C66.56,-635.09 80.53,-628.77 95.6,-621.95"/>
<polygon fill="red" stroke="red" stroke-width="5" points="97.33,-625.97 104.64,-617.86 93.72,-618 97.33,-625.97"/>
</g>
<!-- AWA -->
<g id="node20" class="node">
<title>AWA</title>
<ellipse fill="none" stroke="black" cx="32.6" cy="-571" rx="32.6" ry="18"/>
<text text-anchor="middle" x="32.6" y="-565.58" font-family="Times New Roman,serif" font-size="14.00">AWA</text>
</g>
<!-- AWA&#45;&gt;ASG -->
<g id="edge29" class="edge">
<title>AWA&#45;&gt;ASG</title>
<path fill="none" stroke="gray" stroke-width="0.2" d="M65.63,-571C73.14,-571 81.57,-571 90.5,-571"/>
<polygon fill="gray" stroke="gray" stroke-width="0.2" points="90.45,-574.5 100.45,-571 90.45,-567.5 90.45,-574.5"/>
</g>
<!-- AWB -->
<g id="node21" class="node">
<title>AWB</title>
<ellipse fill="none" stroke="black" cx="32.6" cy="-492" rx="32.1" ry="18"/>
<text text-anchor="middle" x="32.6" y="-486.57" font-family="Times New Roman,serif" font-size="14.00">AWB</text>
</g>
<!-- AWB&#45;&gt;ASG -->
<g id="edge30" class="edge">
<title>AWB&#45;&gt;ASG</title>
<path fill="none" stroke="gray" stroke-width="0.2" d="M58.25,-503.15C70.14,-508.53 85.32,-515.4 101.43,-522.69"/>
<polygon fill="gray" stroke="gray" stroke-width="0.2" points="99.63,-525.72 110.19,-526.65 102.52,-519.34 99.63,-525.72"/>
</g>
<!-- PVQ -->
<g id="node22" class="node">
<title>PVQ</title>
<ellipse fill="none" stroke="black" cx="32.6" cy="-413" rx="29.61" ry="18"/>
<text text-anchor="middle" x="32.6" y="-407.57" font-family="Times New Roman,serif" font-size="14.00">PVQ</text>
</g>
<!-- PVQ&#45;&gt;ASG -->
<g id="edge31" class="edge">
<title>PVQ&#45;&gt;ASG</title>
<path fill="none" stroke="gray" stroke-width="0.2" d="M50.03,-427.86C66.78,-443.03 94.12,-467.77 121.4,-492.45"/>
<polygon fill="gray" stroke="gray" stroke-width="0.2" points="118.71,-494.74 128.48,-498.86 123.41,-489.55 118.71,-494.74"/>
</g>
<!-- RIF -->
<g id="node23" class="node">
<title>RIF</title>
<ellipse fill="none" stroke="black" cx="32.6" cy="-334" rx="27" ry="18"/>
<text text-anchor="middle" x="32.6" y="-328.57" font-family="Times New Roman,serif" font-size="14.00">RIF</text>
</g>
<!-- RIF&#45;&gt;ASG -->
<g id="edge32" class="edge">
<title>RIF&#45;&gt;ASG</title>
<path fill="none" stroke="gray" stroke-width="0.2" d="M46.09,-349.81C54.92,-360.99 65.2,-374 65.2,-374 65.2,-374 102.51,-425.39 139.01,-475.68"/>
<polygon fill="gray" stroke="gray" stroke-width="0.2" points="135.97,-477.45 144.68,-483.49 141.64,-473.34 135.97,-477.45"/>
</g>
<!-- SMD -->
<g id="node24" class="node">
<title>SMD</title>
<ellipse fill="none" stroke="black" cx="32.6" cy="-255" rx="30.61" ry="18"/>
<text text-anchor="middle" x="32.6" y="-249.57" font-family="Times New Roman,serif" font-size="14.00">SMD</text>
</g>
<!-- SMD&#45;&gt;ASG -->
<g id="edge33" class="edge">
<title>SMD&#45;&gt;ASG</title>
<path fill="none" stroke="gray" stroke-width="0.2" d="M46.45,-271.27C55.2,-282.34 65.2,-295 65.2,-295 65.2,-295 113.49,-388.21 153.95,-466.29"/>
<polygon fill="gray" stroke="gray" stroke-width="0.2" points="150.74,-467.71 158.45,-474.97 156.96,-464.49 150.74,-467.71"/>
</g>
</g>
</svg>
