<?xml version="1.0" encoding="UTF-8" standalone="no"?>
<!DOCTYPE svg PUBLIC "-//W3C//DTD SVG 1.1//EN"
 "http://www.w3.org/Graphics/SVG/1.1/DTD/svg11.dtd">
<!-- Generated by graphviz version 11.0.0 (20240428.1522)
 -->
<!-- Pages: 1 -->
<svg width="420pt" height="2651pt"
 viewBox="0.00 0.00 420.42 2651.00" xmlns="http://www.w3.org/2000/svg" xmlns:xlink="http://www.w3.org/1999/xlink">
<g id="graph0" class="graph" transform="scale(1 1) rotate(0) translate(4 2647)">
<polygon fill="white" stroke="none" points="-4,4 -4,-2647 416.42,-2647 416.42,4 -4,4"/>
<!-- ASH -->
<g id="node1" class="node">
<title>ASH</title>
<ellipse fill="none" stroke="black" cx="203.21" cy="-1361" rx="108" ry="108"/>
<text text-anchor="middle" x="203.21" y="-1342" font-family="Times New Roman,serif" font-size="50.00">ASH</text>
</g>
<!-- ASH&#45;&gt;ASH -->
<g id="edge1" class="edge">
<title>ASH&#45;&gt;ASH</title>
<path fill="none" stroke="gray" stroke-width="0.2" d="M170.97,-1464.39C172.89,-1491.51 183.63,-1512 203.21,-1512 220.27,-1512 230.63,-1496.45 234.28,-1474.52"/>
<polygon fill="gray" stroke="gray" stroke-width="0.2" points="237.74,-1475.03 235.42,-1464.69 230.79,-1474.22 237.74,-1475.03"/>
</g>
<!-- ADA -->
<g id="node2" class="node">
<title>ADA</title>
<ellipse fill="none" stroke="black" cx="379.82" cy="-2625" rx="30.11" ry="18"/>
<text text-anchor="middle" x="379.82" y="-2619.57" font-family="Times New Roman,serif" font-size="14.00">ADA</text>
</g>
<!-- ASH&#45;&gt;ADA -->
<g id="edge2" class="edge">
<title>ASH&#45;&gt;ADA</title>
<path fill="none" stroke="red" stroke-width="5" d="M217.93,-1468.32C253.72,-1763.57 347.21,-2564.5 347.21,-2564.5 347.21,-2564.5 357.85,-2577.63 366.78,-2592.85"/>
<polygon fill="red" stroke="red" stroke-width="5" points="362.81,-2594.69 371.29,-2601.56 370.58,-2590.67 362.81,-2594.69"/>
</g>
<!-- ADF -->
<g id="node3" class="node">
<title>ADF</title>
<ellipse fill="none" stroke="black" cx="379.82" cy="-2546" rx="29.11" ry="18"/>
<text text-anchor="middle" x="379.82" y="-2540.57" font-family="Times New Roman,serif" font-size="14.00">ADF</text>
</g>
<!-- ASH&#45;&gt;ADF -->
<g id="edge3" class="edge">
<title>ASH&#45;&gt;ADF</title>
<path fill="none" stroke="red" stroke-width="2" d="M218.91,-1468.35C255.4,-1749.73 347.21,-2485.5 347.21,-2485.5 347.21,-2485.5 359.19,-2500.29 368.4,-2516.67"/>
<polygon fill="red" stroke="red" stroke-width="2" points="365.17,-2518.04 372.79,-2525.4 371.43,-2514.89 365.17,-2518.04"/>
</g>
<!-- ADL -->
<g id="node4" class="node">
<title>ADL</title>
<ellipse fill="none" stroke="black" cx="379.82" cy="-2467" rx="29.11" ry="18"/>
<text text-anchor="middle" x="379.82" y="-2461.57" font-family="Times New Roman,serif" font-size="14.00">ADL</text>
</g>
<!-- ASH&#45;&gt;ADL -->
<g id="edge4" class="edge">
<title>ASH&#45;&gt;ADL</title>
<path fill="none" stroke="gray" stroke-width="2" d="M220,-1467.99C257.19,-1734.74 347.21,-2406.5 347.21,-2406.5 347.21,-2406.5 359.19,-2421.29 368.4,-2437.67"/>
<polygon fill="gray" stroke="gray" stroke-width="2" points="365.17,-2439.04 372.79,-2446.4 371.43,-2435.89 365.17,-2439.04"/>
</g>
<!-- AFD -->
<g id="node5" class="node">
<title>AFD</title>
<ellipse fill="none" stroke="black" cx="379.82" cy="-2388" rx="29.11" ry="18"/>
<text text-anchor="middle" x="379.82" y="-2382.57" font-family="Times New Roman,serif" font-size="14.00">AFD</text>
</g>
<!-- ASH&#45;&gt;AFD -->
<g id="edge5" class="edge">
<title>ASH&#45;&gt;AFD</title>
<path fill="none" stroke="gray" stroke-width="0.2" d="M221.25,-1467.59C259.17,-1719.18 347.21,-2327.5 347.21,-2327.5 347.21,-2327.5 360.37,-2343.74 369.71,-2361.04"/>
<polygon fill="gray" stroke="gray" stroke-width="0.2" points="366.47,-2362.39 374.02,-2369.83 372.76,-2359.31 366.47,-2362.39"/>
</g>
<!-- AIA -->
<g id="node6" class="node">
<title>AIA</title>
<ellipse fill="none" stroke="black" cx="379.82" cy="-2309" rx="27" ry="18"/>
<text text-anchor="middle" x="379.82" y="-2303.57" font-family="Times New Roman,serif" font-size="14.00">AIA</text>
</g>
<!-- ASH&#45;&gt;AIA -->
<g id="edge6" class="edge">
<title>ASH&#45;&gt;AIA</title>
<path fill="none" stroke="gray" stroke-width="5" d="M222.76,-1467.39C261.45,-1703.36 347.21,-2248.5 347.21,-2248.5 347.21,-2248.5 357.85,-2261.63 366.78,-2276.85"/>
<polygon fill="gray" stroke="gray" stroke-width="5" points="362.81,-2278.69 371.29,-2285.56 370.58,-2274.67 362.81,-2278.69"/>
</g>
<!-- AIB -->
<g id="node7" class="node">
<title>AIB</title>
<ellipse fill="none" stroke="black" cx="379.82" cy="-2230" rx="27" ry="18"/>
<text text-anchor="middle" x="379.82" y="-2224.57" font-family="Times New Roman,serif" font-size="14.00">AIB</text>
</g>
<!-- ASH&#45;&gt;AIB -->
<g id="edge7" class="edge">
<title>ASH&#45;&gt;AIB</title>
<path fill="none" stroke="black" stroke-width="5" d="M224.55,-1467.08C264.03,-1686.69 347.21,-2169.5 347.21,-2169.5 347.21,-2169.5 357.85,-2182.63 366.78,-2197.85"/>
<polygon fill="black" stroke="black" stroke-width="5" points="362.81,-2199.69 371.29,-2206.56 370.58,-2195.67 362.81,-2199.69"/>
</g>
<!-- AIM -->
<g id="node8" class="node">
<title>AIM</title>
<ellipse fill="none" stroke="black" cx="379.82" cy="-2151" rx="28.11" ry="18"/>
<text text-anchor="middle" x="379.82" y="-2145.57" font-family="Times New Roman,serif" font-size="14.00">AIM</text>
</g>
<!-- ASH&#45;&gt;AIM -->
<g id="edge8" class="edge">
<title>ASH&#45;&gt;AIM</title>
<path fill="none" stroke="gray" stroke-width="0.2" d="M226.72,-1466.7C266.99,-1669.16 347.21,-2090.5 347.21,-2090.5 347.21,-2090.5 360.37,-2106.74 369.71,-2124.04"/>
<polygon fill="gray" stroke="gray" stroke-width="0.2" points="366.47,-2125.39 374.02,-2132.83 372.76,-2122.31 366.47,-2125.39"/>
</g>
<!-- AIY -->
<g id="node9" class="node">
<title>AIY</title>
<ellipse fill="none" stroke="black" cx="379.82" cy="-2072" rx="27" ry="18"/>
<text text-anchor="middle" x="379.82" y="-2066.57" font-family="Times New Roman,serif" font-size="14.00">AIY</text>
</g>
<!-- ASH&#45;&gt;AIY -->
<g id="edge9" class="edge">
<title>ASH&#45;&gt;AIY</title>
<path fill="none" stroke="gray" stroke-width="5" d="M229.37,-1466.17C270.4,-1650.53 347.21,-2011.5 347.21,-2011.5 347.21,-2011.5 357.85,-2024.63 366.78,-2039.85"/>
<polygon fill="gray" stroke="gray" stroke-width="5" points="362.81,-2041.69 371.29,-2048.56 370.58,-2037.67 362.81,-2041.69"/>
</g>
<!-- AIZ -->
<g id="node10" class="node">
<title>AIZ</title>
<ellipse fill="none" stroke="black" cx="379.82" cy="-1993" rx="27" ry="18"/>
<text text-anchor="middle" x="379.82" y="-1987.58" font-family="Times New Roman,serif" font-size="14.00">AIZ</text>
</g>
<!-- ASH&#45;&gt;AIZ -->
<g id="edge10" class="edge">
<title>ASH&#45;&gt;AIZ</title>
<path fill="none" stroke="gray" stroke-width="2" d="M229.53,-1465.99C270.61,-1636.31 347.21,-1954 347.21,-1954 347.21,-1954 352.16,-1960.1 358.13,-1967.48"/>
<polygon fill="gray" stroke="gray" stroke-width="2" points="355.04,-1969.22 364.06,-1974.79 360.48,-1964.81 355.04,-1969.22"/>
</g>
<!-- ASE -->
<g id="node11" class="node">
<title>ASE</title>
<ellipse fill="none" stroke="black" cx="379.82" cy="-1914" rx="28.11" ry="18"/>
<text text-anchor="middle" x="379.82" y="-1908.58" font-family="Times New Roman,serif" font-size="14.00">ASE</text>
</g>
<!-- ASH&#45;&gt;ASE -->
<g id="edge11" class="edge">
<title>ASH&#45;&gt;ASE</title>
<path fill="none" stroke="gray" stroke-width="0.2" d="M236.84,-1463.85C279.05,-1608.48 347.21,-1853.5 347.21,-1853.5 347.21,-1853.5 360.37,-1869.74 369.71,-1887.04"/>
<polygon fill="gray" stroke="gray" stroke-width="0.2" points="366.47,-1888.39 374.02,-1895.83 372.76,-1885.31 366.47,-1888.39"/>
</g>
<!-- ASK -->
<g id="node12" class="node">
<title>ASK</title>
<ellipse fill="none" stroke="black" cx="379.82" cy="-1835" rx="29.11" ry="18"/>
<text text-anchor="middle" x="379.82" y="-1829.58" font-family="Times New Roman,serif" font-size="14.00">ASK</text>
</g>
<!-- ASH&#45;&gt;ASK -->
<g id="edge12" class="edge">
<title>ASH&#45;&gt;ASK</title>
<path fill="none" stroke="gray" stroke-width="2" d="M242.44,-1461.99C284.8,-1584.64 347.21,-1774.5 347.21,-1774.5 347.21,-1774.5 359.19,-1789.29 368.4,-1805.67"/>
<polygon fill="gray" stroke="gray" stroke-width="2" points="365.17,-1807.04 372.79,-1814.4 371.43,-1803.89 365.17,-1807.04"/>
</g>
<!-- AVA -->
<g id="node13" class="node">
<title>AVA</title>
<ellipse fill="none" stroke="black" cx="379.82" cy="-1756" rx="30.11" ry="18"/>
<text text-anchor="middle" x="379.82" y="-1750.58" font-family="Times New Roman,serif" font-size="14.00">AVA</text>
</g>
<!-- ASH&#45;&gt;AVA -->
<g id="edge13" class="edge">
<title>ASH&#45;&gt;AVA</title>
<path fill="none" stroke="red" stroke-width="5" d="M244.43,-1461.11C286.72,-1566.41 347.21,-1717 347.21,-1717 347.21,-1717 350.82,-1721.46 355.6,-1727.36"/>
<polygon fill="red" stroke="red" stroke-width="5" points="351.98,-1729.83 361.67,-1734.84 358.77,-1724.32 351.98,-1729.83"/>
</g>
<!-- AVB -->
<g id="node14" class="node">
<title>AVB</title>
<ellipse fill="none" stroke="black" cx="379.82" cy="-1677" rx="29.61" ry="18"/>
<text text-anchor="middle" x="379.82" y="-1671.58" font-family="Times New Roman,serif" font-size="14.00">AVB</text>
</g>
<!-- ASH&#45;&gt;AVB -->
<g id="edge14" class="edge">
<title>ASH&#45;&gt;AVB</title>
<path fill="none" stroke="red" stroke-width="5" d="M253.63,-1456.72C294.96,-1536.78 347.21,-1638 347.21,-1638 347.21,-1638 350.93,-1642.58 355.81,-1648.61"/>
<polygon fill="red" stroke="red" stroke-width="5" points="352.34,-1651.28 362.04,-1656.29 359.14,-1645.77 352.34,-1651.28"/>
</g>
<!-- AVD -->
<g id="node15" class="node">
<title>AVD</title>
<ellipse fill="none" stroke="black" cx="379.82" cy="-1598" rx="30.11" ry="18"/>
<text text-anchor="middle" x="379.82" y="-1592.58" font-family="Times New Roman,serif" font-size="14.00">AVD</text>
</g>
<!-- ASH&#45;&gt;AVD -->
<g id="edge15" class="edge">
<title>ASH&#45;&gt;AVD</title>
<path fill="none" stroke="red" stroke-width="5" d="M267.35,-1448.42C305.66,-1501.46 347.21,-1559 347.21,-1559 347.21,-1559 350.82,-1563.46 355.6,-1569.36"/>
<polygon fill="red" stroke="red" stroke-width="5" points="351.98,-1571.83 361.67,-1576.84 358.77,-1566.32 351.98,-1571.83"/>
</g>
<!-- AVE -->
<g id="node16" class="node">
<title>AVE</title>
<ellipse fill="none" stroke="black" cx="379.82" cy="-1519" rx="29.11" ry="18"/>
<text text-anchor="middle" x="379.82" y="-1513.58" font-family="Times New Roman,serif" font-size="14.00">AVE</text>
</g>
<!-- ASH&#45;&gt;AVE -->
<g id="edge16" class="edge">
<title>ASH&#45;&gt;AVE</title>
<path fill="none" stroke="red" stroke-width="5" d="M284.11,-1433.3C307.81,-1454.74 332.24,-1476.85 350.35,-1493.24"/>
<polygon fill="red" stroke="red" stroke-width="5" points="347.35,-1496.42 357.7,-1499.89 353.22,-1489.94 347.35,-1496.42"/>
</g>
<!-- AVF -->
<g id="node17" class="node">
<title>AVF</title>
<ellipse fill="none" stroke="black" cx="379.82" cy="-1440" rx="29.11" ry="18"/>
<text text-anchor="middle" x="379.82" y="-1434.58" font-family="Times New Roman,serif" font-size="14.00">AVF</text>
</g>
<!-- ASH&#45;&gt;AVF -->
<g id="edge17" class="edge">
<title>ASH&#45;&gt;AVF</title>
<path fill="none" stroke="gray" stroke-width="0.2" d="M307.04,-1391.63C325.57,-1400.56 343.13,-1410.06 356.25,-1418.54"/>
<polygon fill="gray" stroke="gray" stroke-width="0.2" points="354.09,-1421.3 364.32,-1424.05 358.04,-1415.52 354.09,-1421.3"/>
</g>
<!-- AVH -->
<g id="node18" class="node">
<title>AVH</title>
<ellipse fill="none" stroke="black" cx="379.82" cy="-1361" rx="30.11" ry="18"/>
<text text-anchor="middle" x="379.82" y="-1355.58" font-family="Times New Roman,serif" font-size="14.00">AVH</text>
</g>
<!-- ASH&#45;&gt;AVH -->
<g id="edge18" class="edge">
<title>ASH&#45;&gt;AVH</title>
<path fill="none" stroke="red" stroke-width="2" d="M310.56,-1345.22C322.18,-1345.65 333.32,-1346.47 343.11,-1347.7"/>
<polygon fill="red" stroke="red" stroke-width="2" points="342.55,-1351.15 352.97,-1349.23 343.62,-1344.24 342.55,-1351.15"/>
</g>
<!-- AVJ -->
<g id="node19" class="node">
<title>AVJ</title>
<ellipse fill="none" stroke="black" cx="379.82" cy="-1282" rx="27.11" ry="18"/>
<text text-anchor="middle" x="379.82" y="-1276.58" font-family="Times New Roman,serif" font-size="14.00">AVJ</text>
</g>
<!-- ASH&#45;&gt;AVJ -->
<g id="edge19" class="edge">
<title>ASH&#45;&gt;AVJ</title>
<path fill="none" stroke="gray" stroke-width="2" d="M295.09,-1303.77C311.04,-1296.66 326.83,-1290.34 340.33,-1285.78"/>
<polygon fill="gray" stroke="gray" stroke-width="2" points="341.11,-1289.2 349.61,-1282.88 339.02,-1282.52 341.11,-1289.2"/>
</g>
<!-- AWA -->
<g id="node20" class="node">
<title>AWA</title>
<ellipse fill="none" stroke="black" cx="379.82" cy="-1203" rx="32.6" ry="18"/>
<text text-anchor="middle" x="379.82" y="-1197.58" font-family="Times New Roman,serif" font-size="14.00">AWA</text>
</g>
<!-- ASH&#45;&gt;AWA -->
<g id="edge20" class="edge">
<title>ASH&#45;&gt;AWA</title>
<path fill="none" stroke="red" stroke-width="0.2" d="M275.73,-1280.39C299.96,-1257.73 325.87,-1235.27 345.65,-1220.04"/>
<polygon fill="red" stroke="red" stroke-width="0.2" points="347.58,-1222.97 353.48,-1214.17 343.38,-1217.37 347.58,-1222.97"/>
</g>
<!-- AWB -->
<g id="node21" class="node">
<title>AWB</title>
<ellipse fill="none" stroke="black" cx="379.82" cy="-1124" rx="32.1" ry="18"/>
<text text-anchor="middle" x="379.82" y="-1118.58" font-family="Times New Roman,serif" font-size="14.00">AWB</text>
</g>
<!-- ASH&#45;&gt;AWB -->
<g id="edge21" class="edge">
<title>ASH&#45;&gt;AWB</title>
<path fill="none" stroke="red" stroke-width="2" d="M258.89,-1267.97C291.53,-1219.4 329.13,-1166.69 345.55,-1144.57"/>
<polygon fill="red" stroke="red" stroke-width="2" points="348.16,-1146.93 351.46,-1136.86 342.6,-1142.66 348.16,-1146.93"/>
</g>
<!-- AWC -->
<g id="node22" class="node">
<title>AWC</title>
<ellipse fill="none" stroke="black" cx="379.82" cy="-1045" rx="32.6" ry="18"/>
<text text-anchor="middle" x="379.82" y="-1039.58" font-family="Times New Roman,serif" font-size="14.00">AWC</text>
</g>
<!-- ASH&#45;&gt;AWC -->
<g id="edge22" class="edge">
<title>ASH&#45;&gt;AWC</title>
<path fill="none" stroke="gray" stroke-width="0.2" d="M247.12,-1261.94C283.32,-1187.05 331.22,-1093.59 347.66,-1064.52"/>
<polygon fill="gray" stroke="gray" stroke-width="0.2" points="350.61,-1066.4 352.85,-1056.04 344.64,-1062.74 350.61,-1066.4"/>
</g>
<!-- HSN -->
<g id="node23" class="node">
<title>HSN</title>
<ellipse fill="none" stroke="black" cx="379.82" cy="-966" rx="29.11" ry="18"/>
<text text-anchor="middle" x="379.82" y="-960.58" font-family="Times New Roman,serif" font-size="14.00">HSN</text>
</g>
<!-- ASH&#45;&gt;HSN -->
<g id="edge23" class="edge">
<title>ASH&#45;&gt;HSN</title>
<path fill="none" stroke="gray" stroke-width="5" d="M239.2,-1259.11C275,-1164.31 327.5,-1032.74 347.28,-989.32"/>
<polygon fill="gray" stroke="gray" stroke-width="5" points="351.05,-991.56 351.7,-980.66 343.26,-987.58 351.05,-991.56"/>
</g>
<!-- PVC -->
<g id="node24" class="node">
<title>PVC</title>
<ellipse fill="none" stroke="black" cx="379.82" cy="-887" rx="29.11" ry="18"/>
<text text-anchor="middle" x="379.82" y="-881.58" font-family="Times New Roman,serif" font-size="14.00">PVC</text>
</g>
<!-- ASH&#45;&gt;PVC -->
<g id="edge24" class="edge">
<title>ASH&#45;&gt;PVC</title>
<path fill="none" stroke="gray" stroke-width="2" d="M233.84,-1256.97C270.66,-1138.3 330.34,-955.96 349.23,-907.84"/>
<polygon fill="gray" stroke="gray" stroke-width="2" points="352.35,-909.42 353.29,-898.87 345.98,-906.53 352.35,-909.42"/>
</g>
<!-- PVN -->
<g id="node25" class="node">
<title>PVN</title>
<ellipse fill="none" stroke="black" cx="379.82" cy="-808" rx="29.11" ry="18"/>
<text text-anchor="middle" x="379.82" y="-802.58" font-family="Times New Roman,serif" font-size="14.00">PVN</text>
</g>
<!-- ASH&#45;&gt;PVN -->
<g id="edge25" class="edge">
<title>ASH&#45;&gt;PVN</title>
<path fill="none" stroke="gray" stroke-width="2" d="M233.15,-1256.98C274.94,-1106.79 347.21,-847 347.21,-847 347.21,-847 352.16,-840.9 358.13,-833.52"/>
<polygon fill="gray" stroke="gray" stroke-width="2" points="360.48,-836.19 364.06,-826.21 355.04,-831.78 360.48,-836.19"/>
</g>
<!-- PVP -->
<g id="node26" class="node">
<title>PVP</title>
<ellipse fill="none" stroke="black" cx="379.82" cy="-729" rx="28.11" ry="18"/>
<text text-anchor="middle" x="379.82" y="-723.58" font-family="Times New Roman,serif" font-size="14.00">PVP</text>
</g>
<!-- ASH&#45;&gt;PVP -->
<g id="edge26" class="edge">
<title>ASH&#45;&gt;PVP</title>
<path fill="none" stroke="gray" stroke-width="0.2" d="M226.72,-1255.23C266.99,-1079.19 347.21,-746.5 347.21,-746.5 347.21,-746.5 347.53,-746.11 348.1,-745.43"/>
<polygon fill="gray" stroke="gray" stroke-width="0.2" points="350.67,-747.81 354.66,-737.99 345.42,-743.17 350.67,-747.81"/>
</g>
<!-- PVQ -->
<g id="node27" class="node">
<title>PVQ</title>
<ellipse fill="none" stroke="black" cx="379.82" cy="-650" rx="29.61" ry="18"/>
<text text-anchor="middle" x="379.82" y="-644.58" font-family="Times New Roman,serif" font-size="14.00">PVQ</text>
</g>
<!-- ASH&#45;&gt;PVQ -->
<g id="edge27" class="edge">
<title>ASH&#45;&gt;PVQ</title>
<path fill="none" stroke="gray" stroke-width="0.2" d="M226.72,-1255.26C266.99,-1066.02 347.21,-689 347.21,-689 347.21,-689 352.96,-681.91 359.55,-673.78"/>
<polygon fill="gray" stroke="gray" stroke-width="0.2" points="362.2,-676.07 365.77,-666.1 356.76,-671.66 362.2,-676.07"/>
</g>
<!-- RIA -->
<g id="node28" class="node">
<title>RIA</title>
<ellipse fill="none" stroke="black" cx="379.82" cy="-571" rx="27" ry="18"/>
<text text-anchor="middle" x="379.82" y="-565.58" font-family="Times New Roman,serif" font-size="14.00">RIA</text>
</g>
<!-- ASH&#45;&gt;RIA -->
<g id="edge28" class="edge">
<title>ASH&#45;&gt;RIA</title>
<path fill="none" stroke="red" stroke-width="5" d="M224.4,-1254.99C263.82,-1047.98 347.21,-610 347.21,-610 347.21,-610 350.93,-605.42 355.81,-599.39"/>
<polygon fill="red" stroke="red" stroke-width="5" points="359.14,-602.23 362.04,-591.71 352.34,-596.72 359.14,-602.23"/>
</g>
<!-- RIF -->
<g id="node29" class="node">
<title>RIF</title>
<ellipse fill="none" stroke="black" cx="379.82" cy="-492" rx="27" ry="18"/>
<text text-anchor="middle" x="379.82" y="-486.57" font-family="Times New Roman,serif" font-size="14.00">RIF</text>
</g>
<!-- ASH&#45;&gt;RIF -->
<g id="edge29" class="edge">
<title>ASH&#45;&gt;RIF</title>
<path fill="none" stroke="gray" stroke-width="0.2" d="M220.76,-1254C258.4,-1025 347.21,-509.5 347.21,-509.5 347.21,-509.5 347.8,-508.77 348.82,-507.57"/>
<polygon fill="gray" stroke="gray" stroke-width="0.2" points="351.27,-510.09 355.32,-500.29 346.05,-505.42 351.27,-510.09"/>
</g>
<!-- RIM -->
<g id="node30" class="node">
<title>RIM</title>
<ellipse fill="none" stroke="black" cx="379.82" cy="-413" rx="28.11" ry="18"/>
<text text-anchor="middle" x="379.82" y="-407.57" font-family="Times New Roman,serif" font-size="14.00">RIM</text>
</g>
<!-- ASH&#45;&gt;RIM -->
<g id="edge30" class="edge">
<title>ASH&#45;&gt;RIM</title>
<path fill="none" stroke="gray" stroke-width="nan" d="M221.04,-1254.05C258.84,-1013.77 347.21,-452 347.21,-452 347.21,-452 357.21,-439.66 365.96,-428.86"/>
<polygon fill="gray" stroke="gray" stroke-width="nan" points="nan,-nan nan,-nan nan,-nan nan,-nan"/>
</g>
<!-- RIP -->
<g id="node31" class="node">
<title>RIP</title>
<ellipse fill="none" stroke="black" cx="379.82" cy="-334" rx="27" ry="18"/>
<text text-anchor="middle" x="379.82" y="-328.57" font-family="Times New Roman,serif" font-size="14.00">RIP</text>
</g>
<!-- ASH&#45;&gt;RIP -->
<g id="edge31" class="edge">
<title>ASH&#45;&gt;RIP</title>
<path fill="none" stroke="gray" stroke-width="nan" d="M219.72,-1253.86C256.74,-998.09 347.21,-373 347.21,-373 347.21,-373 357.21,-360.66 365.96,-349.86"/>
<polygon fill="gray" stroke="gray" stroke-width="nan" points="nan,-nan nan,-nan nan,-nan nan,-nan"/>
</g>
<!-- RIR -->
<g id="node32" class="node">
<title>RIR</title>
<ellipse fill="none" stroke="black" cx="379.82" cy="-255" rx="27" ry="18"/>
<text text-anchor="middle" x="379.82" y="-249.57" font-family="Times New Roman,serif" font-size="14.00">RIR</text>
</g>
<!-- ASH&#45;&gt;RIR -->
<g id="edge32" class="edge">
<title>ASH&#45;&gt;RIR</title>
<path fill="none" stroke="gray" stroke-width="nan" d="M217.28,-1253.56C252.58,-978.58 347.21,-272.5 347.21,-272.5 347.21,-272.5 350.78,-268.1 355.52,-263.07"/>
<polygon fill="gray" stroke="gray" stroke-width="nan" points="nan,-nan nan,-nan nan,-nan nan,-nan"/>
</g>
<!-- RMG -->
<g id="node33" class="node">
<title>RMG</title>
<ellipse fill="none" stroke="black" cx="379.82" cy="-176" rx="32.1" ry="18"/>
<text text-anchor="middle" x="379.82" y="-170.57" font-family="Times New Roman,serif" font-size="14.00">RMG</text>
</g>
<!-- ASH&#45;&gt;RMG -->
<g id="edge33" class="edge">
<title>ASH&#45;&gt;RMG</title>
<path fill="none" stroke="gray" stroke-width="2" d="M216.44,-1253.4C248.58,-984.82 333.82,-300.94 350.69,-199.16"/>
<polygon fill="gray" stroke="gray" stroke-width="2" points="354.1,-199.92 352.7,-189.42 347.25,-198.51 354.1,-199.92"/>
</g>
<!-- SMB -->
<g id="node34" class="node">
<title>SMB</title>
<ellipse fill="none" stroke="black" cx="379.82" cy="-97" rx="30.11" ry="18"/>
<text text-anchor="middle" x="379.82" y="-91.58" font-family="Times New Roman,serif" font-size="14.00">SMB</text>
</g>
<!-- ASH&#45;&gt;SMB -->
<g id="edge34" class="edge">
<title>ASH&#45;&gt;SMB</title>
<path fill="none" stroke="gray" stroke-width="2" d="M216.78,-1253.36C251.67,-954.44 347.21,-136 347.21,-136 347.21,-136 351.81,-130.33 357.5,-123.31"/>
<polygon fill="gray" stroke="gray" stroke-width="2" points="360.11,-125.64 363.69,-115.67 354.68,-121.23 360.11,-125.64"/>
</g>
<!-- URX -->
<g id="node35" class="node">
<title>URX</title>
<ellipse fill="none" stroke="black" cx="379.82" cy="-18" rx="30.11" ry="18"/>
<text text-anchor="middle" x="379.82" y="-12.57" font-family="Times New Roman,serif" font-size="14.00">URX</text>
</g>
<!-- ASH&#45;&gt;URX -->
<g id="edge35" class="edge">
<title>ASH&#45;&gt;URX</title>
<path fill="none" stroke="gray" stroke-width="0.2" d="M215.02,-1253.32C246.42,-955.38 336.04,-137.46 351.87,-37.74"/>
<polygon fill="gray" stroke="gray" stroke-width="0.2" points="355.27,-38.59 353.86,-28.09 348.41,-37.18 355.27,-38.59"/>
</g>
<!-- ADA&#45;&gt;ASH -->
<g id="edge36" class="edge">
<title>ADA&#45;&gt;ASH</title>
<path fill="none" stroke="gray" stroke-width="0.2" d="M353.92,-2615.21C350,-2610.94 347.21,-2607.5 347.21,-2607.5 347.21,-2607.5 251.69,-1789.23 216.79,-1478.49"/>
<polygon fill="gray" stroke="gray" stroke-width="0.2" points="220.3,-1478.4 215.71,-1468.85 213.35,-1479.18 220.3,-1478.4"/>
</g>
<!-- ADF&#45;&gt;ASH -->
<g id="edge37" class="edge">
<title>ADF&#45;&gt;ASH</title>
<path fill="none" stroke="gray" stroke-width="nan" d="M354.54,-2536.89C350.3,-2532.31 347.21,-2528.5 347.21,-2528.5 347.21,-2528.5 251.05,-1757.8 216.44,-1468.6"/>
<polygon fill="gray" stroke="gray" stroke-width="nan" points="nan,-nan nan,-nan nan,-nan nan,-nan"/>
</g>
<!-- ADL&#45;&gt;ASH -->
<g id="edge38" class="edge">
<title>ADL&#45;&gt;ASH</title>
<path fill="none" stroke="gray" stroke-width="5" d="M354.54,-2457.89C350.3,-2453.31 347.21,-2449.5 347.21,-2449.5 347.21,-2449.5 256.06,-1769.38 219.31,-1484.19"/>
<polygon fill="gray" stroke="gray" stroke-width="5" points="223.69,-1483.99 218.08,-1474.63 215.02,-1485.11 223.69,-1483.99"/>
</g>
<!-- AFD&#45;&gt;ASH -->
<g id="edge39" class="edge">
<title>AFD&#45;&gt;ASH</title>
<path fill="none" stroke="gray" stroke-width="0.2" d="M354.54,-2378.89C350.3,-2374.31 347.21,-2370.5 347.21,-2370.5 347.21,-2370.5 256.63,-1744.62 219.65,-1478.31"/>
<polygon fill="gray" stroke="gray" stroke-width="0.2" points="223.13,-1477.94 218.29,-1468.52 216.2,-1478.91 223.13,-1477.94"/>
</g>
<!-- AIA&#45;&gt;ASH -->
<g id="edge40" class="edge">
<title>AIA&#45;&gt;ASH</title>
<path fill="none" stroke="gray" stroke-width="5" d="M355.52,-2300.93C350.78,-2295.9 347.21,-2291.5 347.21,-2291.5 347.21,-2291.5 259.97,-1736.9 221.77,-1483.86"/>
<polygon fill="gray" stroke="gray" stroke-width="5" points="226.13,-1483.4 220.31,-1474.17 217.47,-1484.71 226.13,-1483.4"/>
</g>
<!-- AIB&#45;&gt;ASH -->
<g id="edge41" class="edge">
<title>AIB&#45;&gt;ASH</title>
<path fill="none" stroke="gray" stroke-width="5" d="M355.52,-2221.93C350.78,-2216.9 347.21,-2212.5 347.21,-2212.5 347.21,-2212.5 262.34,-1719.9 223.37,-1483.85"/>
<polygon fill="gray" stroke="gray" stroke-width="5" points="227.71,-1483.31 221.77,-1474.15 219.08,-1484.73 227.71,-1483.31"/>
</g>
<!-- AIM&#45;&gt;ASH -->
<g id="edge42" class="edge">
<title>AIM&#45;&gt;ASH</title>
<path fill="none" stroke="gray" stroke-width="2" d="M354.86,-2142.23C350.46,-2137.5 347.21,-2133.5 347.21,-2133.5 347.21,-2133.5 264.15,-1697.25 224.63,-1480.22"/>
<polygon fill="gray" stroke="gray" stroke-width="2" points="228.1,-1479.71 222.87,-1470.49 221.21,-1480.96 228.1,-1479.71"/>
</g>
<!-- AIY&#45;&gt;ASH -->
<g id="edge43" class="edge">
<title>AIY&#45;&gt;ASH</title>
<path fill="none" stroke="gray" stroke-width="0.2" d="M355.52,-2063.93C350.78,-2058.9 347.21,-2054.5 347.21,-2054.5 347.21,-2054.5 266.46,-1675.01 226.32,-1477.26"/>
<polygon fill="gray" stroke="gray" stroke-width="0.2" points="229.8,-1476.81 224.38,-1467.7 222.94,-1478.2 229.8,-1476.81"/>
</g>
<!-- ASE&#45;&gt;ASH -->
<g id="edge44" class="edge">
<title>ASE&#45;&gt;ASH</title>
<path fill="none" stroke="gray" stroke-width="2" d="M354.86,-1905.23C350.46,-1900.5 347.21,-1896.5 347.21,-1896.5 347.21,-1896.5 274.74,-1635.99 232.98,-1478.13"/>
<polygon fill="gray" stroke="gray" stroke-width="2" points="236.49,-1477.72 230.55,-1468.94 229.72,-1479.5 236.49,-1477.72"/>
</g>
<!-- ASK&#45;&gt;ASH -->
<g id="edge45" class="edge">
<title>ASK&#45;&gt;ASH</title>
<path fill="none" stroke="gray" stroke-width="0.2" d="M354.54,-1825.89C350.3,-1821.31 347.21,-1817.5 347.21,-1817.5 347.21,-1817.5 279.04,-1610.12 236.84,-1474.66"/>
<polygon fill="gray" stroke="gray" stroke-width="0.2" points="240.24,-1473.83 233.93,-1465.32 233.56,-1475.91 240.24,-1473.83"/>
</g>
<!-- AVF&#45;&gt;ASH -->
<g id="edge46" class="edge">
<title>AVF&#45;&gt;ASH</title>
<path fill="none" stroke="gray" stroke-width="0.2" d="M350.25,-1439.38C337.34,-1435.56 321.22,-1429.5 304.46,-1422.32"/>
<polygon fill="gray" stroke="gray" stroke-width="0.2" points="305.94,-1419.15 295.37,-1418.35 303.13,-1425.56 305.94,-1419.15"/>
</g>
<!-- AVH&#45;&gt;ASH -->
<g id="edge47" class="edge">
<title>AVH&#45;&gt;ASH</title>
<path fill="none" stroke="red" stroke-width="0.2" d="M355.96,-1372.31C346.2,-1374.18 334.02,-1375.51 320.82,-1376.29"/>
<polygon fill="red" stroke="red" stroke-width="0.2" points="320.68,-1372.79 310.86,-1376.76 321.02,-1379.78 320.68,-1372.79"/>
</g>
<!-- AVJ&#45;&gt;ASH -->
<g id="edge48" class="edge">
<title>AVJ&#45;&gt;ASH</title>
<path fill="none" stroke="gray" stroke-width="0.2" d="M365.09,-1297.4C353.51,-1305.92 335.73,-1316.08 316.15,-1325.89"/>
<polygon fill="gray" stroke="gray" stroke-width="0.2" points="314.74,-1322.68 307.31,-1330.24 317.83,-1328.97 314.74,-1322.68"/>
</g>
<!-- AWA&#45;&gt;ASH -->
<g id="edge49" class="edge">
<title>AWA&#45;&gt;ASH</title>
<path fill="none" stroke="red" stroke-width="nan" d="M368.67,-1220.24C353.24,-1239.58 322.38,-1270.2 291.51,-1298.12"/>
<polygon fill="red" stroke="red" stroke-width="nan" points="nan,-nan nan,-nan nan,-nan nan,-nan"/>
</g>
<!-- AWB&#45;&gt;ASH -->
<g id="edge50" class="edge">
<title>AWB&#45;&gt;ASH</title>
<path fill="none" stroke="gray" stroke-width="2" d="M374.15,-1141.9C365.36,-1162.1 347.21,-1184.5 347.21,-1184.5 347.21,-1184.5 316.56,-1226.94 283.64,-1270.39"/>
<polygon fill="gray" stroke="gray" stroke-width="2" points="281.02,-1268.05 277.76,-1278.13 286.6,-1272.29 281.02,-1268.05"/>
</g>
<!-- AWC&#45;&gt;ASH -->
<g id="edge51" class="edge">
<title>AWC&#45;&gt;ASH</title>
<path fill="none" stroke="gray" stroke-width="2" d="M374.02,-1063.21C365.18,-1083.33 347.21,-1105.5 347.21,-1105.5 347.21,-1105.5 305.31,-1186.68 266.86,-1257.73"/>
<polygon fill="gray" stroke="gray" stroke-width="2" points="263.87,-1255.91 262.18,-1266.37 270.02,-1259.25 263.87,-1255.91"/>
</g>
<!-- HSN&#45;&gt;ASH -->
<g id="edge52" class="edge">
<title>HSN&#45;&gt;ASH</title>
<path fill="none" stroke="red" stroke-width="5" d="M374.15,-983.9C365.36,-1004.1 347.21,-1026.5 347.21,-1026.5 347.21,-1026.5 297.15,-1151.14 256.27,-1248.46"/>
<polygon fill="red" stroke="red" stroke-width="5" points="252.32,-1246.55 252.47,-1257.47 260.39,-1249.95 252.32,-1246.55"/>
</g>
<!-- PVC&#45;&gt;ASH -->
<g id="edge53" class="edge">
<title>PVC&#45;&gt;ASH</title>
<path fill="none" stroke="gray" stroke-width="0.2" d="M374.15,-904.9C365.36,-925.1 347.21,-947.5 347.21,-947.5 347.21,-947.5 287.93,-1127.84 245.71,-1250.55"/>
<polygon fill="gray" stroke="gray" stroke-width="0.2" points="242.49,-1249.13 242.54,-1259.73 249.11,-1251.41 242.49,-1249.13"/>
</g>
<!-- PVP&#45;&gt;ASH -->
<g id="edge54" class="edge">
<title>PVP&#45;&gt;ASH</title>
<path fill="none" stroke="gray" stroke-width="0.2" d="M374.15,-746.9C365.36,-767.1 347.21,-789.5 347.21,-789.5 347.21,-789.5 277.16,-1080.01 235.12,-1246.98"/>
<polygon fill="gray" stroke="gray" stroke-width="0.2" points="231.76,-1245.97 232.71,-1256.52 238.55,-1247.68 231.76,-1245.97"/>
</g>
<!-- RIF&#45;&gt;ASH -->
<g id="edge55" class="edge">
<title>RIF&#45;&gt;ASH</title>
<path fill="none" stroke="red" stroke-width="2" d="M374.15,-509.9C365.36,-530.1 347.21,-552.5 347.21,-552.5 347.21,-552.5 267.09,-1017.56 226.79,-1242.43"/>
<polygon fill="red" stroke="red" stroke-width="2" points="223.41,-1241.48 225.09,-1251.94 230.3,-1242.72 223.41,-1241.48"/>
</g>
<!-- RIR&#45;&gt;ASH -->
<g id="edge56" class="edge">
<title>RIR&#45;&gt;ASH</title>
<path fill="none" stroke="gray" stroke-width="0.2" d="M374.15,-272.9C365.36,-293.1 347.21,-315.5 347.21,-315.5 347.21,-315.5 259.37,-970.96 221.38,-1244.06"/>
<polygon fill="gray" stroke="gray" stroke-width="0.2" points="217.95,-1243.32 220.04,-1253.71 224.88,-1244.29 217.95,-1243.32"/>
</g>
<!-- RMG&#45;&gt;ASH -->
<g id="edge57" class="edge">
<title>RMG&#45;&gt;ASH</title>
<path fill="none" stroke="red" stroke-width="2" d="M374.15,-193.9C365.36,-214.1 347.21,-236.5 347.21,-236.5 347.21,-236.5 258.07,-950.87 220.55,-1240.99"/>
<polygon fill="red" stroke="red" stroke-width="2" points="217.11,-1240.28 219.3,-1250.65 224.06,-1241.18 217.11,-1240.28"/>
</g>
<!-- URX&#45;&gt;ASH -->
<g id="edge58" class="edge">
<title>URX&#45;&gt;ASH</title>
<path fill="none" stroke="gray" stroke-width="0.2" d="M374.15,-35.9C365.36,-56.1 347.21,-78.5 347.21,-78.5 347.21,-78.5 254.27,-926.02 218.25,-1243.27"/>
<polygon fill="gray" stroke="gray" stroke-width="0.2" points="214.78,-1242.79 217.13,-1253.12 221.73,-1243.58 214.78,-1242.79"/>
</g>
<!-- ASG -->
<g id="node36" class="node">
<title>ASG</title>
<ellipse fill="none" stroke="black" cx="29.61" cy="-1440" rx="29.61" ry="18"/>
<text text-anchor="middle" x="29.61" y="-1434.58" font-family="Times New Roman,serif" font-size="14.00">ASG</text>
</g>
<!-- ASG&#45;&gt;ASH -->
<g id="edge59" class="edge">
<title>ASG&#45;&gt;ASH</title>
<path fill="none" stroke="gray" stroke-width="0.2" d="M53.75,-1429.35C65.15,-1424.1 79.78,-1417.36 95.41,-1410.17"/>
<polygon fill="gray" stroke="gray" stroke-width="0.2" points="96.81,-1413.37 104.43,-1406.01 93.89,-1407.02 96.81,-1413.37"/>
</g>
<!-- ASI -->
<g id="node37" class="node">
<title>ASI</title>
<ellipse fill="none" stroke="black" cx="29.61" cy="-1361" rx="27" ry="18"/>
<text text-anchor="middle" x="29.61" y="-1355.58" font-family="Times New Roman,serif" font-size="14.00">ASI</text>
</g>
<!-- ASI&#45;&gt;ASH -->
<g id="edge60" class="edge">
<title>ASI&#45;&gt;ASH</title>
<path fill="none" stroke="gray" stroke-width="2" d="M57.04,-1361C64.41,-1361 72.93,-1361 82.06,-1361"/>
<polygon fill="gray" stroke="gray" stroke-width="2" points="81.83,-1364.5 91.83,-1361 81.83,-1357.5 81.83,-1364.5"/>
</g>
<!-- RIG -->
<g id="node38" class="node">
<title>RIG</title>
<ellipse fill="none" stroke="black" cx="29.61" cy="-1282" rx="27.11" ry="18"/>
<text text-anchor="middle" x="29.61" y="-1276.58" font-family="Times New Roman,serif" font-size="14.00">RIG</text>
</g>
<!-- RIG&#45;&gt;ASH -->
<g id="edge61" class="edge">
<title>RIG&#45;&gt;ASH</title>
<path fill="none" stroke="gray" stroke-width="0.2" d="M52.34,-1292.01C63.98,-1297.37 79.28,-1304.41 95.66,-1311.95"/>
<polygon fill="gray" stroke="gray" stroke-width="0.2" points="94.02,-1315.05 104.57,-1316.05 96.95,-1308.69 94.02,-1315.05"/>
</g>
</g>
</svg>
