<?xml version="1.0" encoding="UTF-8" standalone="no"?>
<!DOCTYPE svg PUBLIC "-//W3C//DTD SVG 1.1//EN"
 "http://www.w3.org/Graphics/SVG/1.1/DTD/svg11.dtd">
<!-- Generated by graphviz version 11.0.0 (20240428.1522)
 -->
<!-- Pages: 1 -->
<svg width="421pt" height="2572pt"
 viewBox="0.00 0.00 421.41 2572.00" xmlns="http://www.w3.org/2000/svg" xmlns:xlink="http://www.w3.org/1999/xlink">
<g id="graph0" class="graph" transform="scale(1 1) rotate(0) translate(4 2568)">
<polygon fill="white" stroke="none" points="-4,4 -4,-2568 417.41,-2568 417.41,4 -4,4"/>
<!-- ASI -->
<g id="node1" class="node">
<title>ASI</title>
<ellipse fill="none" stroke="black" cx="204.21" cy="-1242" rx="108" ry="108"/>
<text text-anchor="middle" x="204.21" y="-1223" font-family="Times New Roman,serif" font-size="50.00">ASI</text>
</g>
<!-- ASI&#45;&gt;ASI -->
<g id="edge1" class="edge">
<title>ASI&#45;&gt;ASI</title>
<path fill="none" stroke="gray" stroke-width="0.2" d="M171.88,-1345.39C173.8,-1372.51 184.57,-1393 204.21,-1393 221.32,-1393 231.7,-1377.45 235.36,-1355.52"/>
<polygon fill="gray" stroke="gray" stroke-width="0.2" points="238.83,-1356.03 236.51,-1345.69 231.87,-1355.22 238.83,-1356.03"/>
</g>
<!-- ADA -->
<g id="node2" class="node">
<title>ADA</title>
<ellipse fill="none" stroke="black" cx="380.81" cy="-2546" rx="30.11" ry="18"/>
<text text-anchor="middle" x="380.81" y="-2540.57" font-family="Times New Roman,serif" font-size="14.00">ADA</text>
</g>
<!-- ASI&#45;&gt;ADA -->
<g id="edge2" class="edge">
<title>ASI&#45;&gt;ADA</title>
<path fill="none" stroke="gray" stroke-width="0.2" d="M217.37,-1349.58C251.93,-1655.26 348.21,-2507 348.21,-2507 348.21,-2507 353.91,-2514.03 360.47,-2522.13"/>
<polygon fill="gray" stroke="gray" stroke-width="0.2" points="357.39,-2523.89 366.4,-2529.45 362.83,-2519.48 357.39,-2523.89"/>
</g>
<!-- ADF -->
<g id="node3" class="node">
<title>ADF</title>
<ellipse fill="none" stroke="black" cx="380.81" cy="-2467" rx="29.11" ry="18"/>
<text text-anchor="middle" x="380.81" y="-2461.57" font-family="Times New Roman,serif" font-size="14.00">ADF</text>
</g>
<!-- ASI&#45;&gt;ADF -->
<g id="edge3" class="edge">
<title>ASI&#45;&gt;ADF</title>
<path fill="none" stroke="gray" stroke-width="0.2" d="M218.15,-1349.34C253.36,-1641.29 348.21,-2428 348.21,-2428 348.21,-2428 353.95,-2435.09 360.54,-2443.22"/>
<polygon fill="gray" stroke="gray" stroke-width="0.2" points="357.75,-2445.34 366.77,-2450.9 363.19,-2440.93 357.75,-2445.34"/>
</g>
<!-- ADL -->
<g id="node4" class="node">
<title>ADL</title>
<ellipse fill="none" stroke="black" cx="380.81" cy="-2388" rx="29.11" ry="18"/>
<text text-anchor="middle" x="380.81" y="-2382.57" font-family="Times New Roman,serif" font-size="14.00">ADL</text>
</g>
<!-- ASI&#45;&gt;ADL -->
<g id="edge4" class="edge">
<title>ASI&#45;&gt;ADL</title>
<path fill="none" stroke="gray" stroke-width="2" d="M220.41,-1349.09C257.24,-1623.25 348.21,-2327.5 348.21,-2327.5 348.21,-2327.5 360.19,-2342.29 369.4,-2358.67"/>
<polygon fill="gray" stroke="gray" stroke-width="2" points="366.17,-2360.04 373.79,-2367.4 372.42,-2356.89 366.17,-2360.04"/>
</g>
<!-- AFD -->
<g id="node5" class="node">
<title>AFD</title>
<ellipse fill="none" stroke="black" cx="380.81" cy="-2309" rx="29.11" ry="18"/>
<text text-anchor="middle" x="380.81" y="-2303.57" font-family="Times New Roman,serif" font-size="14.00">AFD</text>
</g>
<!-- ASI&#45;&gt;AFD -->
<g id="edge5" class="edge">
<title>ASI&#45;&gt;AFD</title>
<path fill="none" stroke="gray" stroke-width="0.2" d="M220.11,-1349.1C256.74,-1612.4 348.21,-2270 348.21,-2270 348.21,-2270 353.95,-2277.09 360.54,-2285.22"/>
<polygon fill="gray" stroke="gray" stroke-width="0.2" points="357.75,-2287.34 366.77,-2292.9 363.19,-2282.93 357.75,-2287.34"/>
</g>
<!-- AIA -->
<g id="node6" class="node">
<title>AIA</title>
<ellipse fill="none" stroke="black" cx="380.81" cy="-2230" rx="27" ry="18"/>
<text text-anchor="middle" x="380.81" y="-2224.57" font-family="Times New Roman,serif" font-size="14.00">AIA</text>
</g>
<!-- ASI&#45;&gt;AIA -->
<g id="edge6" class="edge">
<title>ASI&#45;&gt;AIA</title>
<path fill="none" stroke="black" stroke-width="5" d="M222.96,-1348.49C261.26,-1592.45 348.21,-2169.5 348.21,-2169.5 348.21,-2169.5 358.85,-2182.63 367.78,-2197.85"/>
<polygon fill="black" stroke="black" stroke-width="5" points="363.81,-2199.69 372.29,-2206.56 371.58,-2195.67 363.81,-2199.69"/>
</g>
<!-- AIB -->
<g id="node7" class="node">
<title>AIB</title>
<ellipse fill="none" stroke="black" cx="380.81" cy="-2151" rx="27" ry="18"/>
<text text-anchor="middle" x="380.81" y="-2145.57" font-family="Times New Roman,serif" font-size="14.00">AIB</text>
</g>
<!-- ASI&#45;&gt;AIB -->
<g id="edge7" class="edge">
<title>ASI&#45;&gt;AIB</title>
<path fill="none" stroke="black" stroke-width="5" d="M222.75,-1348.68C260.93,-1580.99 348.21,-2112 348.21,-2112 348.21,-2112 351.93,-2116.58 356.81,-2122.61"/>
<polygon fill="black" stroke="black" stroke-width="5" points="353.34,-2125.28 363.03,-2130.29 360.14,-2119.77 353.34,-2125.28"/>
</g>
<!-- AIM -->
<g id="node8" class="node">
<title>AIM</title>
<ellipse fill="none" stroke="black" cx="380.81" cy="-2072" rx="28.11" ry="18"/>
<text text-anchor="middle" x="380.81" y="-2066.57" font-family="Times New Roman,serif" font-size="14.00">AIM</text>
</g>
<!-- ASI&#45;&gt;AIM -->
<g id="edge8" class="edge">
<title>ASI&#45;&gt;AIM</title>
<path fill="none" stroke="blue" stroke-width="5" d="M224.42,-1348.27C263.42,-1563.99 348.21,-2033 348.21,-2033 348.21,-2033 351.93,-2037.58 356.81,-2043.61"/>
<polygon fill="blue" stroke="blue" stroke-width="5" points="353.34,-2046.28 363.03,-2051.29 360.14,-2040.77 353.34,-2046.28"/>
</g>
<!-- AIY -->
<g id="node9" class="node">
<title>AIY</title>
<ellipse fill="none" stroke="black" cx="380.81" cy="-1993" rx="27" ry="18"/>
<text text-anchor="middle" x="380.81" y="-1987.58" font-family="Times New Roman,serif" font-size="14.00">AIY</text>
</g>
<!-- ASI&#45;&gt;AIY -->
<g id="edge9" class="edge">
<title>ASI&#45;&gt;AIY</title>
<path fill="none" stroke="black" stroke-width="2" d="M226.47,-1347.82C266.3,-1546.17 348.21,-1954 348.21,-1954 348.21,-1954 353.16,-1960.1 359.13,-1967.48"/>
<polygon fill="black" stroke="black" stroke-width="2" points="356.04,-1969.22 365.05,-1974.79 361.48,-1964.81 356.04,-1969.22"/>
</g>
<!-- AIZ -->
<g id="node10" class="node">
<title>AIZ</title>
<ellipse fill="none" stroke="black" cx="380.81" cy="-1914" rx="27" ry="18"/>
<text text-anchor="middle" x="380.81" y="-1908.58" font-family="Times New Roman,serif" font-size="14.00">AIZ</text>
</g>
<!-- ASI&#45;&gt;AIZ -->
<g id="edge10" class="edge">
<title>ASI&#45;&gt;AIZ</title>
<path fill="none" stroke="gray" stroke-width="5" d="M229.07,-1347.59C269.75,-1527.69 348.21,-1875 348.21,-1875 348.21,-1875 351.93,-1879.58 356.81,-1885.61"/>
<polygon fill="gray" stroke="gray" stroke-width="5" points="353.34,-1888.28 363.03,-1893.29 360.14,-1882.77 353.34,-1888.28"/>
</g>
<!-- ASE -->
<g id="node11" class="node">
<title>ASE</title>
<ellipse fill="none" stroke="black" cx="380.81" cy="-1835" rx="28.11" ry="18"/>
<text text-anchor="middle" x="380.81" y="-1829.58" font-family="Times New Roman,serif" font-size="14.00">ASE</text>
</g>
<!-- ASI&#45;&gt;ASE -->
<g id="edge11" class="edge">
<title>ASI&#45;&gt;ASE</title>
<path fill="none" stroke="gray" stroke-width="5" d="M235.63,-1345.79C277.61,-1500.99 348.21,-1774.5 348.21,-1774.5 348.21,-1774.5 358.85,-1787.63 367.78,-1802.85"/>
<polygon fill="gray" stroke="gray" stroke-width="5" points="363.81,-1804.69 372.29,-1811.56 371.58,-1800.67 363.81,-1804.69"/>
</g>
<!-- ASG -->
<g id="node12" class="node">
<title>ASG</title>
<ellipse fill="none" stroke="black" cx="380.81" cy="-1756" rx="29.61" ry="18"/>
<text text-anchor="middle" x="380.81" y="-1750.58" font-family="Times New Roman,serif" font-size="14.00">ASG</text>
</g>
<!-- ASI&#45;&gt;ASG -->
<g id="edge12" class="edge">
<title>ASI&#45;&gt;ASG</title>
<path fill="none" stroke="red" stroke-width="5" d="M236.33,-1345.36C278.4,-1485.09 348.21,-1717 348.21,-1717 348.21,-1717 351.93,-1721.58 356.81,-1727.61"/>
<polygon fill="red" stroke="red" stroke-width="5" points="353.34,-1730.28 363.03,-1735.29 360.14,-1724.77 353.34,-1730.28"/>
</g>
<!-- ASH -->
<g id="node13" class="node">
<title>ASH</title>
<ellipse fill="none" stroke="black" cx="380.81" cy="-1677" rx="29.11" ry="18"/>
<text text-anchor="middle" x="380.81" y="-1671.58" font-family="Times New Roman,serif" font-size="14.00">ASH</text>
</g>
<!-- ASI&#45;&gt;ASH -->
<g id="edge13" class="edge">
<title>ASI&#45;&gt;ASH</title>
<path fill="none" stroke="gray" stroke-width="2" d="M241.95,-1343.72C284.31,-1461.05 348.21,-1638 348.21,-1638 348.21,-1638 353.16,-1644.1 359.13,-1651.48"/>
<polygon fill="gray" stroke="gray" stroke-width="2" points="356.04,-1653.22 365.05,-1658.79 361.48,-1648.81 356.04,-1653.22"/>
</g>
<!-- ASJ -->
<g id="node14" class="node">
<title>ASJ</title>
<ellipse fill="none" stroke="black" cx="380.81" cy="-1598" rx="27" ry="18"/>
<text text-anchor="middle" x="380.81" y="-1592.58" font-family="Times New Roman,serif" font-size="14.00">ASJ</text>
</g>
<!-- ASI&#45;&gt;ASJ -->
<g id="edge14" class="edge">
<title>ASI&#45;&gt;ASJ</title>
<path fill="none" stroke="gray" stroke-width="0.2" d="M249.48,-1340.13C291.48,-1433.23 348.21,-1559 348.21,-1559 348.21,-1559 353.95,-1566.09 360.54,-1574.22"/>
<polygon fill="gray" stroke="gray" stroke-width="0.2" points="357.75,-1576.34 366.77,-1581.9 363.19,-1571.93 357.75,-1576.34"/>
</g>
<!-- ASK -->
<g id="node15" class="node">
<title>ASK</title>
<ellipse fill="none" stroke="black" cx="380.81" cy="-1519" rx="29.11" ry="18"/>
<text text-anchor="middle" x="380.81" y="-1513.58" font-family="Times New Roman,serif" font-size="14.00">ASK</text>
</g>
<!-- ASI&#45;&gt;ASK -->
<g id="edge15" class="edge">
<title>ASI&#45;&gt;ASK</title>
<path fill="none" stroke="black" stroke-width="2" d="M268.56,-1329.28C306.81,-1389.59 348.21,-1458.5 348.21,-1458.5 348.21,-1458.5 360.19,-1473.29 369.4,-1489.67"/>
<polygon fill="black" stroke="black" stroke-width="2" points="366.17,-1491.04 373.79,-1498.4 372.42,-1487.89 366.17,-1491.04"/>
</g>
<!-- AVB -->
<g id="node16" class="node">
<title>AVB</title>
<ellipse fill="none" stroke="black" cx="380.81" cy="-1440" rx="29.61" ry="18"/>
<text text-anchor="middle" x="380.81" y="-1434.58" font-family="Times New Roman,serif" font-size="14.00">AVB</text>
</g>
<!-- ASI&#45;&gt;AVB -->
<g id="edge16" class="edge">
<title>ASI&#45;&gt;AVB</title>
<path fill="none" stroke="gray" stroke-width="0.2" d="M276.48,-1322.82C306.34,-1356.68 338.79,-1393.48 359.21,-1416.63"/>
<polygon fill="gray" stroke="gray" stroke-width="0.2" points="356.46,-1418.81 365.7,-1424 361.71,-1414.18 356.46,-1418.81"/>
</g>
<!-- AVF -->
<g id="node17" class="node">
<title>AVF</title>
<ellipse fill="none" stroke="black" cx="380.81" cy="-1361" rx="29.11" ry="18"/>
<text text-anchor="middle" x="380.81" y="-1355.58" font-family="Times New Roman,serif" font-size="14.00">AVF</text>
</g>
<!-- ASI&#45;&gt;AVF -->
<g id="edge17" class="edge">
<title>ASI&#45;&gt;AVF</title>
<path fill="none" stroke="gray" stroke-width="0.2" d="M294.05,-1302.55C315.23,-1316.98 336.29,-1331.34 352.24,-1342.21"/>
<polygon fill="gray" stroke="gray" stroke-width="0.2" points="350.06,-1344.96 360.3,-1347.7 354,-1339.17 350.06,-1344.96"/>
</g>
<!-- AWA -->
<g id="node18" class="node">
<title>AWA</title>
<ellipse fill="none" stroke="black" cx="380.81" cy="-1282" rx="32.6" ry="18"/>
<text text-anchor="middle" x="380.81" y="-1276.58" font-family="Times New Roman,serif" font-size="14.00">AWA</text>
</g>
<!-- ASI&#45;&gt;AWA -->
<g id="edge18" class="edge">
<title>ASI&#45;&gt;AWA</title>
<path fill="none" stroke="red" stroke-width="2" d="M312.31,-1250.78C325.66,-1254.36 338.35,-1258.3 349.06,-1262.32"/>
<polygon fill="red" stroke="red" stroke-width="2" points="347.66,-1265.53 358.24,-1266.09 350.32,-1259.06 347.66,-1265.53"/>
</g>
<!-- AWB -->
<g id="node19" class="node">
<title>AWB</title>
<ellipse fill="none" stroke="black" cx="380.81" cy="-1203" rx="32.1" ry="18"/>
<text text-anchor="middle" x="380.81" y="-1197.58" font-family="Times New Roman,serif" font-size="14.00">AWB</text>
</g>
<!-- ASI&#45;&gt;AWB -->
<g id="edge19" class="edge">
<title>ASI&#45;&gt;AWB</title>
<path fill="none" stroke="gray" stroke-width="0.2" d="M305.51,-1203.63C317.71,-1201.21 329.56,-1199.29 340.09,-1198.1"/>
<polygon fill="gray" stroke="gray" stroke-width="0.2" points="340.2,-1201.6 349.83,-1197.19 339.55,-1194.64 340.2,-1201.6"/>
</g>
<!-- AWC -->
<g id="node20" class="node">
<title>AWC</title>
<ellipse fill="none" stroke="black" cx="380.81" cy="-1124" rx="32.6" ry="18"/>
<text text-anchor="middle" x="380.81" y="-1118.58" font-family="Times New Roman,serif" font-size="14.00">AWC</text>
</g>
<!-- ASI&#45;&gt;AWC -->
<g id="edge20" class="edge">
<title>ASI&#45;&gt;AWC</title>
<path fill="none" stroke="gray" stroke-width="5" d="M286.12,-1171.23C303.56,-1159.23 321.35,-1147.87 336.67,-1139.03"/>
<polygon fill="gray" stroke="gray" stroke-width="5" points="338.41,-1143.07 345.05,-1134.4 334.18,-1135.4 338.41,-1143.07"/>
</g>
<!-- BAG -->
<g id="node21" class="node">
<title>BAG</title>
<ellipse fill="none" stroke="black" cx="380.81" cy="-1045" rx="30.11" ry="18"/>
<text text-anchor="middle" x="380.81" y="-1039.58" font-family="Times New Roman,serif" font-size="14.00">BAG</text>
</g>
<!-- ASI&#45;&gt;BAG -->
<g id="edge21" class="edge">
<title>ASI&#45;&gt;BAG</title>
<path fill="none" stroke="gray" stroke-width="0.2" d="M276.73,-1161.3C306.39,-1127.85 338.55,-1091.55 358.93,-1068.57"/>
<polygon fill="gray" stroke="gray" stroke-width="0.2" points="361.4,-1071.05 365.42,-1061.24 356.16,-1066.41 361.4,-1071.05"/>
</g>
<!-- CEP -->
<g id="node22" class="node">
<title>CEP</title>
<ellipse fill="none" stroke="black" cx="380.81" cy="-966" rx="28.11" ry="18"/>
<text text-anchor="middle" x="380.81" y="-960.58" font-family="Times New Roman,serif" font-size="14.00">CEP</text>
</g>
<!-- ASI&#45;&gt;CEP -->
<g id="edge22" class="edge">
<title>ASI&#45;&gt;CEP</title>
<path fill="none" stroke="gray" stroke-width="0.2" d="M260.91,-1149.69C301.06,-1083.15 348.21,-1005 348.21,-1005 348.21,-1005 353.95,-997.91 360.54,-989.78"/>
<polygon fill="gray" stroke="gray" stroke-width="0.2" points="363.19,-992.07 366.77,-982.1 357.75,-987.66 363.19,-992.07"/>
</g>
<!-- HSN -->
<g id="node23" class="node">
<title>HSN</title>
<ellipse fill="none" stroke="black" cx="380.81" cy="-887" rx="29.11" ry="18"/>
<text text-anchor="middle" x="380.81" y="-881.58" font-family="Times New Roman,serif" font-size="14.00">HSN</text>
</g>
<!-- ASI&#45;&gt;HSN -->
<g id="edge23" class="edge">
<title>ASI&#45;&gt;HSN</title>
<path fill="none" stroke="gray" stroke-width="2" d="M243.91,-1141.12C280.14,-1055.81 330.71,-943.3 349.16,-907.3"/>
<polygon fill="gray" stroke="gray" stroke-width="2" points="352.13,-909.16 354.04,-898.74 346.05,-905.7 352.13,-909.16"/>
</g>
<!-- PVN -->
<g id="node24" class="node">
<title>PVN</title>
<ellipse fill="none" stroke="black" cx="380.81" cy="-808" rx="29.11" ry="18"/>
<text text-anchor="middle" x="380.81" y="-802.58" font-family="Times New Roman,serif" font-size="14.00">PVN</text>
</g>
<!-- ASI&#45;&gt;PVN -->
<g id="edge24" class="edge">
<title>ASI&#45;&gt;PVN</title>
<path fill="none" stroke="blue" stroke-width="5" d="M237.39,-1138.76C273.39,-1033.24 328.67,-879.64 348.65,-831.69"/>
<polygon fill="blue" stroke="blue" stroke-width="5" points="352.56,-833.66 352.88,-822.75 344.65,-829.92 352.56,-833.66"/>
</g>
<!-- PVP -->
<g id="node25" class="node">
<title>PVP</title>
<ellipse fill="none" stroke="black" cx="380.81" cy="-729" rx="28.11" ry="18"/>
<text text-anchor="middle" x="380.81" y="-723.58" font-family="Times New Roman,serif" font-size="14.00">PVP</text>
</g>
<!-- ASI&#45;&gt;PVP -->
<g id="edge25" class="edge">
<title>ASI&#45;&gt;PVP</title>
<path fill="none" stroke="gray" stroke-width="0.2" d="M236.42,-1138.56C278.49,-999.09 348.21,-768 348.21,-768 348.21,-768 353.95,-760.91 360.54,-752.78"/>
<polygon fill="gray" stroke="gray" stroke-width="0.2" points="363.19,-755.07 366.77,-745.1 357.75,-750.66 363.19,-755.07"/>
</g>
<!-- PVQ -->
<g id="node26" class="node">
<title>PVQ</title>
<ellipse fill="none" stroke="black" cx="380.81" cy="-650" rx="29.61" ry="18"/>
<text text-anchor="middle" x="380.81" y="-644.58" font-family="Times New Roman,serif" font-size="14.00">PVQ</text>
</g>
<!-- ASI&#45;&gt;PVQ -->
<g id="edge26" class="edge">
<title>ASI&#45;&gt;PVQ</title>
<path fill="none" stroke="blue" stroke-width="2" d="M229.15,-1136.66C265.56,-988.04 332.1,-729.89 350.75,-671.34"/>
<polygon fill="blue" stroke="blue" stroke-width="2" points="353.91,-672.88 354.16,-662.29 347.36,-670.41 353.91,-672.88"/>
</g>
<!-- RIA -->
<g id="node27" class="node">
<title>RIA</title>
<ellipse fill="none" stroke="black" cx="380.81" cy="-571" rx="27" ry="18"/>
<text text-anchor="middle" x="380.81" y="-565.58" font-family="Times New Roman,serif" font-size="14.00">RIA</text>
</g>
<!-- ASI&#45;&gt;RIA -->
<g id="edge27" class="edge">
<title>ASI&#45;&gt;RIA</title>
<path fill="none" stroke="gray" stroke-width="0.2" d="M229.07,-1136.57C269.75,-956.76 348.21,-610 348.21,-610 348.21,-610 353.95,-602.91 360.54,-594.78"/>
<polygon fill="gray" stroke="gray" stroke-width="0.2" points="363.19,-597.07 366.77,-587.1 357.75,-592.66 363.19,-597.07"/>
</g>
<!-- RIB -->
<g id="node28" class="node">
<title>RIB</title>
<ellipse fill="none" stroke="black" cx="380.81" cy="-492" rx="27" ry="18"/>
<text text-anchor="middle" x="380.81" y="-486.57" font-family="Times New Roman,serif" font-size="14.00">RIB</text>
</g>
<!-- ASI&#45;&gt;RIB -->
<g id="edge28" class="edge">
<title>ASI&#45;&gt;RIB</title>
<path fill="none" stroke="gray" stroke-width="0.2" d="M226.54,-1135.94C266.41,-937.74 348.21,-531 348.21,-531 348.21,-531 353.95,-523.91 360.54,-515.78"/>
<polygon fill="gray" stroke="gray" stroke-width="0.2" points="363.19,-518.07 366.77,-508.1 357.75,-513.66 363.19,-518.07"/>
</g>
<!-- RIF -->
<g id="node29" class="node">
<title>RIF</title>
<ellipse fill="none" stroke="black" cx="380.81" cy="-413" rx="27" ry="18"/>
<text text-anchor="middle" x="380.81" y="-407.57" font-family="Times New Roman,serif" font-size="14.00">RIF</text>
</g>
<!-- ASI&#45;&gt;RIF -->
<g id="edge29" class="edge">
<title>ASI&#45;&gt;RIF</title>
<path fill="none" stroke="gray" stroke-width="0.2" d="M224.5,-1135.46C263.53,-919.82 348.21,-452 348.21,-452 348.21,-452 353.95,-444.91 360.54,-436.78"/>
<polygon fill="gray" stroke="gray" stroke-width="0.2" points="363.19,-439.07 366.77,-429.1 357.75,-434.66 363.19,-439.07"/>
</g>
<!-- RIG -->
<g id="node30" class="node">
<title>RIG</title>
<ellipse fill="none" stroke="black" cx="380.81" cy="-334" rx="27.11" ry="18"/>
<text text-anchor="middle" x="380.81" y="-328.57" font-family="Times New Roman,serif" font-size="14.00">RIG</text>
</g>
<!-- ASI&#45;&gt;RIG -->
<g id="edge30" class="edge">
<title>ASI&#45;&gt;RIG</title>
<path fill="none" stroke="gray" stroke-width="0.2" d="M222.75,-1135.44C260.93,-903.4 348.21,-373 348.21,-373 348.21,-373 353.95,-365.91 360.54,-357.78"/>
<polygon fill="gray" stroke="gray" stroke-width="0.2" points="363.19,-360.07 366.77,-350.1 357.75,-355.66 363.19,-360.07"/>
</g>
<!-- RMF -->
<g id="node31" class="node">
<title>RMF</title>
<ellipse fill="none" stroke="black" cx="380.81" cy="-255" rx="30.61" ry="18"/>
<text text-anchor="middle" x="380.81" y="-249.57" font-family="Times New Roman,serif" font-size="14.00">RMF</text>
</g>
<!-- ASI&#45;&gt;RMF -->
<g id="edge31" class="edge">
<title>ASI&#45;&gt;RMF</title>
<path fill="none" stroke="gray" stroke-width="0.2" d="M221.34,-1135.1C258.74,-887.17 348.21,-294 348.21,-294 348.21,-294 353.91,-286.97 360.47,-278.87"/>
<polygon fill="gray" stroke="gray" stroke-width="0.2" points="362.83,-281.52 366.4,-271.55 357.39,-277.11 362.83,-281.52"/>
</g>
<!-- SAA -->
<g id="node32" class="node">
<title>SAA</title>
<ellipse fill="none" stroke="black" cx="380.81" cy="-176" rx="29.11" ry="18"/>
<text text-anchor="middle" x="380.81" y="-170.57" font-family="Times New Roman,serif" font-size="14.00">SAA</text>
</g>
<!-- ASI&#45;&gt;SAA -->
<g id="edge32" class="edge">
<title>ASI&#45;&gt;SAA</title>
<path fill="none" stroke="gray" stroke-width="0.2" d="M218.73,-1134.85C254.38,-867.41 348.21,-193.5 348.21,-193.5 348.21,-193.5 348.41,-193.26 348.76,-192.83"/>
<polygon fill="gray" stroke="gray" stroke-width="0.2" points="351.37,-195.16 355.34,-185.34 346.11,-190.54 351.37,-195.16"/>
</g>
<!-- SMB -->
<g id="node33" class="node">
<title>SMB</title>
<ellipse fill="none" stroke="black" cx="380.81" cy="-97" rx="30.11" ry="18"/>
<text text-anchor="middle" x="380.81" y="-91.58" font-family="Times New Roman,serif" font-size="14.00">SMB</text>
</g>
<!-- ASI&#45;&gt;SMB -->
<g id="edge33" class="edge">
<title>ASI&#45;&gt;SMB</title>
<path fill="none" stroke="blue" stroke-width="0.2" d="M219.09,-1134.7C255,-856.95 348.21,-136 348.21,-136 348.21,-136 353.91,-128.97 360.47,-120.87"/>
<polygon fill="blue" stroke="blue" stroke-width="0.2" points="362.83,-123.52 366.4,-113.55 357.39,-119.11 362.83,-123.52"/>
</g>
<!-- URY -->
<g id="node34" class="node">
<title>URY</title>
<ellipse fill="none" stroke="black" cx="380.81" cy="-18" rx="30.11" ry="18"/>
<text text-anchor="middle" x="380.81" y="-12.57" font-family="Times New Roman,serif" font-size="14.00">URY</text>
</g>
<!-- ASI&#45;&gt;URY -->
<g id="edge34" class="edge">
<title>ASI&#45;&gt;URY</title>
<path fill="none" stroke="gray" stroke-width="0.2" d="M218.19,-1134.49C253.41,-842.58 348.21,-57 348.21,-57 348.21,-57 353.91,-49.97 360.47,-41.87"/>
<polygon fill="gray" stroke="gray" stroke-width="0.2" points="362.83,-44.52 366.4,-34.55 357.39,-40.11 362.83,-44.52"/>
</g>
<!-- ADL&#45;&gt;ASI -->
<g id="edge35" class="edge">
<title>ADL&#45;&gt;ASI</title>
<path fill="none" stroke="blue" stroke-width="5" d="M355.54,-2378.89C351.3,-2374.31 348.21,-2370.5 348.21,-2370.5 348.21,-2370.5 256.2,-1658.23 219.79,-1365.27"/>
<polygon fill="blue" stroke="blue" stroke-width="5" points="224.18,-1365.11 218.61,-1355.72 215.5,-1366.19 224.18,-1365.11"/>
</g>
<!-- AIA&#45;&gt;ASI -->
<g id="edge36" class="edge">
<title>AIA&#45;&gt;ASI</title>
<path fill="none" stroke="gray" stroke-width="2" d="M356.51,-2221.93C351.78,-2216.9 348.21,-2212.5 348.21,-2212.5 348.21,-2212.5 259.21,-1621.84 221.64,-1361.93"/>
<polygon fill="gray" stroke="gray" stroke-width="2" points="225.1,-1361.45 220.21,-1352.05 218.17,-1362.45 225.1,-1361.45"/>
</g>
<!-- ASE&#45;&gt;ASI -->
<g id="edge37" class="edge">
<title>ASE&#45;&gt;ASI</title>
<path fill="none" stroke="gray" stroke-width="5" d="M355.86,-1826.23C351.45,-1821.5 348.21,-1817.5 348.21,-1817.5 348.21,-1817.5 274.6,-1532.33 233.01,-1363.24"/>
<polygon fill="gray" stroke="gray" stroke-width="5" points="237.26,-1362.23 230.63,-1353.56 228.77,-1364.32 237.26,-1362.23"/>
</g>
<!-- ASK&#45;&gt;ASI -->
<g id="edge38" class="edge">
<title>ASK&#45;&gt;ASI</title>
<path fill="none" stroke="gray" stroke-width="2" d="M355.54,-1509.89C351.3,-1505.31 348.21,-1501.5 348.21,-1501.5 348.21,-1501.5 299.86,-1421.03 259.39,-1349.44"/>
<polygon fill="gray" stroke="gray" stroke-width="2" points="262.67,-1348.13 254.71,-1341.14 256.57,-1351.57 262.67,-1348.13"/>
</g>
<!-- AWA&#45;&gt;ASI -->
<g id="edge39" class="edge">
<title>AWA&#45;&gt;ASI</title>
<path fill="none" stroke="gray" stroke-width="nan" d="M349.3,-1287.61C336.68,-1286.58 321.26,-1284.17 305.26,-1280.89"/>
<polygon fill="gray" stroke="gray" stroke-width="nan" points="nan,-nan nan,-nan nan,-nan nan,-nan"/>
</g>
<!-- AWB&#45;&gt;ASI -->
<g id="edge40" class="edge">
<title>AWB&#45;&gt;ASI</title>
<path fill="none" stroke="gray" stroke-width="2" d="M361.04,-1217.65C351.4,-1221.98 338.75,-1226.35 324.83,-1230.38"/>
<polygon fill="gray" stroke="gray" stroke-width="2" points="323.94,-1227 315.23,-1233.03 325.8,-1233.75 323.94,-1227"/>
</g>
<!-- AWC&#45;&gt;ASI -->
<g id="edge41" class="edge">
<title>AWC&#45;&gt;ASI</title>
<path fill="none" stroke="red" stroke-width="0.2" d="M367.72,-1140.88C354.78,-1153.63 332.91,-1170.79 309.34,-1187.48"/>
<polygon fill="red" stroke="red" stroke-width="0.2" points="307.37,-1184.59 301.19,-1193.19 311.39,-1190.32 307.37,-1184.59"/>
</g>
<!-- HSN&#45;&gt;ASI -->
<g id="edge42" class="edge">
<title>HSN&#45;&gt;ASI</title>
<path fill="none" stroke="gray" stroke-width="0.2" d="M375.15,-904.9C366.36,-925.1 348.21,-947.5 348.21,-947.5 348.21,-947.5 300.51,-1052.92 260.2,-1137.84"/>
<polygon fill="gray" stroke="gray" stroke-width="0.2" points="257.09,-1136.23 255.96,-1146.76 263.42,-1139.23 257.09,-1136.23"/>
</g>
<!-- PVN&#45;&gt;ASI -->
<g id="edge43" class="edge">
<title>PVN&#45;&gt;ASI</title>
<path fill="none" stroke="gray" stroke-width="5" d="M375.15,-825.9C366.36,-846.1 348.21,-868.5 348.21,-868.5 348.21,-868.5 294.24,-1017.58 252.61,-1127.58"/>
<polygon fill="gray" stroke="gray" stroke-width="5" points="248.63,-1125.75 249.17,-1136.65 256.81,-1128.85 248.63,-1125.75"/>
</g>
<!-- PVQ&#45;&gt;ASI -->
<g id="edge44" class="edge">
<title>PVQ&#45;&gt;ASI</title>
<path fill="none" stroke="gray" stroke-width="0.2" d="M375.15,-667.9C366.36,-688.1 348.21,-710.5 348.21,-710.5 348.21,-710.5 280.48,-972.43 238.24,-1128.75"/>
<polygon fill="gray" stroke="gray" stroke-width="0.2" points="234.94,-1127.57 235.71,-1138.13 241.7,-1129.4 234.94,-1127.57"/>
</g>
<!-- SAA&#45;&gt;ASI -->
<g id="edge45" class="edge">
<title>SAA&#45;&gt;ASI</title>
<path fill="none" stroke="gray" stroke-width="0.2" d="M375.15,-193.9C366.36,-214.1 348.21,-236.5 348.21,-236.5 348.21,-236.5 261.42,-859.8 223.07,-1125.07"/>
<polygon fill="gray" stroke="gray" stroke-width="0.2" points="219.63,-1124.43 221.66,-1134.83 226.56,-1125.43 219.63,-1124.43"/>
</g>
<!-- ADE -->
<g id="node35" class="node">
<title>ADE</title>
<ellipse fill="none" stroke="black" cx="30.11" cy="-1361" rx="29.11" ry="18"/>
<text text-anchor="middle" x="30.11" y="-1355.58" font-family="Times New Roman,serif" font-size="14.00">ADE</text>
</g>
<!-- ADE&#45;&gt;ASI -->
<g id="edge46" class="edge">
<title>ADE&#45;&gt;ASI</title>
<path fill="none" stroke="gray" stroke-width="0.2" d="M50.18,-1347.81C64.38,-1337.99 84.95,-1323.77 106.43,-1308.92"/>
<polygon fill="gray" stroke="gray" stroke-width="0.2" points="108.21,-1311.94 114.45,-1303.38 104.23,-1306.18 108.21,-1311.94"/>
</g>
<!-- AIN -->
<g id="node36" class="node">
<title>AIN</title>
<ellipse fill="none" stroke="black" cx="30.11" cy="-1282" rx="27" ry="18"/>
<text text-anchor="middle" x="30.11" y="-1276.58" font-family="Times New Roman,serif" font-size="14.00">AIN</text>
</g>
<!-- AIN&#45;&gt;ASI -->
<g id="edge47" class="edge">
<title>AIN&#45;&gt;ASI</title>
<path fill="none" stroke="gray" stroke-width="5" d="M56.13,-1276.18C63.93,-1274.37 73.11,-1272.24 83.01,-1269.94"/>
<polygon fill="gray" stroke="gray" stroke-width="5" points="83.67,-1274.27 92.42,-1267.75 81.69,-1265.75 83.67,-1274.27"/>
</g>
<!-- IL2 -->
<g id="node37" class="node">
<title>IL2</title>
<ellipse fill="none" stroke="black" cx="30.11" cy="-1203" rx="27" ry="18"/>
<text text-anchor="middle" x="30.11" y="-1197.58" font-family="Times New Roman,serif" font-size="14.00">IL2</text>
</g>
<!-- IL2&#45;&gt;ASI -->
<g id="edge48" class="edge">
<title>IL2&#45;&gt;ASI</title>
<path fill="none" stroke="gray" stroke-width="0.2" d="M56.13,-1208.67C65.4,-1210.77 76.62,-1213.31 88.67,-1216.04"/>
<polygon fill="gray" stroke="gray" stroke-width="0.2" points="87.68,-1219.41 98.2,-1218.2 89.23,-1212.58 87.68,-1219.41"/>
</g>
<!-- URX -->
<g id="node38" class="node">
<title>URX</title>
<ellipse fill="none" stroke="black" cx="30.11" cy="-1124" rx="30.11" ry="18"/>
<text text-anchor="middle" x="30.11" y="-1118.58" font-family="Times New Roman,serif" font-size="14.00">URX</text>
</g>
<!-- URX&#45;&gt;ASI -->
<g id="edge49" class="edge">
<title>URX&#45;&gt;ASI</title>
<path fill="none" stroke="gray" stroke-width="0.2" d="M50.85,-1137.54C64.96,-1147.21 85.1,-1161.02 106.14,-1175.44"/>
<polygon fill="gray" stroke="gray" stroke-width="0.2" points="104.07,-1178.27 114.3,-1181.04 108.03,-1172.5 104.07,-1178.27"/>
</g>
</g>
</svg>
