<?xml version="1.0" encoding="UTF-8" standalone="no"?>
<!DOCTYPE svg PUBLIC "-//W3C//DTD SVG 1.1//EN"
 "http://www.w3.org/Graphics/SVG/1.1/DTD/svg11.dtd">
<!-- Generated by graphviz version 11.0.0 (20240428.1522)
 -->
<!-- Pages: 1 -->
<svg width="425pt" height="1466pt"
 viewBox="0.00 0.00 425.41 1466.00" xmlns="http://www.w3.org/2000/svg" xmlns:xlink="http://www.w3.org/1999/xlink">
<g id="graph0" class="graph" transform="scale(1 1) rotate(0) translate(4 1462)">
<polygon fill="white" stroke="none" points="-4,4 -4,-1462 421.41,-1462 421.41,4 -4,4"/>
<!-- ASJ -->
<g id="node1" class="node">
<title>ASJ</title>
<ellipse fill="none" stroke="black" cx="208.2" cy="-808" rx="108" ry="108"/>
<text text-anchor="middle" x="208.2" y="-789" font-family="Times New Roman,serif" font-size="50.00">ASJ</text>
</g>
<!-- ADL -->
<g id="node2" class="node">
<title>ADL</title>
<ellipse fill="none" stroke="black" cx="384.81" cy="-1440" rx="29.11" ry="18"/>
<text text-anchor="middle" x="384.81" y="-1434.58" font-family="Times New Roman,serif" font-size="14.00">ADL</text>
</g>
<!-- ASJ&#45;&gt;ADL -->
<g id="edge1" class="edge">
<title>ASJ&#45;&gt;ADL</title>
<path fill="none" stroke="gray" stroke-width="0.2" d="M237.63,-912.19C279.33,-1077.3 352.2,-1379.5 352.2,-1379.5 352.2,-1379.5 365.36,-1395.74 374.7,-1413.04"/>
<polygon fill="gray" stroke="gray" stroke-width="0.2" points="371.46,-1414.39 379.01,-1421.83 377.75,-1411.31 371.46,-1414.39"/>
</g>
<!-- AIA -->
<g id="node3" class="node">
<title>AIA</title>
<ellipse fill="none" stroke="black" cx="384.81" cy="-1361" rx="27" ry="18"/>
<text text-anchor="middle" x="384.81" y="-1355.58" font-family="Times New Roman,serif" font-size="14.00">AIA</text>
</g>
<!-- ASJ&#45;&gt;AIA -->
<g id="edge2" class="edge">
<title>ASJ&#45;&gt;AIA</title>
<path fill="none" stroke="gray" stroke-width="0.2" d="M241.83,-910.85C284.04,-1055.48 352.2,-1300.5 352.2,-1300.5 352.2,-1300.5 365.36,-1316.74 374.7,-1334.04"/>
<polygon fill="gray" stroke="gray" stroke-width="0.2" points="371.46,-1335.39 379.01,-1342.83 377.75,-1332.31 371.46,-1335.39"/>
</g>
<!-- AIB -->
<g id="node4" class="node">
<title>AIB</title>
<ellipse fill="none" stroke="black" cx="384.81" cy="-1282" rx="27" ry="18"/>
<text text-anchor="middle" x="384.81" y="-1276.58" font-family="Times New Roman,serif" font-size="14.00">AIB</text>
</g>
<!-- ASJ&#45;&gt;AIB -->
<g id="edge3" class="edge">
<title>ASJ&#45;&gt;AIB</title>
<path fill="none" stroke="gray" stroke-width="nan" d="M242.91,-910.54C285.19,-1039.14 352.2,-1243 352.2,-1243 352.2,-1243 362.2,-1255.34 370.95,-1266.14"/>
<polygon fill="gray" stroke="gray" stroke-width="nan" points="nan,-nan nan,-nan nan,-nan nan,-nan"/>
</g>
<!-- AIM -->
<g id="node5" class="node">
<title>AIM</title>
<ellipse fill="none" stroke="black" cx="384.81" cy="-1203" rx="28.11" ry="18"/>
<text text-anchor="middle" x="384.81" y="-1197.58" font-family="Times New Roman,serif" font-size="14.00">AIM</text>
</g>
<!-- ASJ&#45;&gt;AIM -->
<g id="edge4" class="edge">
<title>ASJ&#45;&gt;AIM</title>
<path fill="none" stroke="gray" stroke-width="nan" d="M255.04,-905.79C296.87,-1004.74 352.2,-1142.5 352.2,-1142.5 352.2,-1142.5 370.35,-1164.9 379.14,-1185.1"/>
<polygon fill="gray" stroke="gray" stroke-width="nan" points="nan,-nan nan,-nan nan,-nan nan,-nan"/>
</g>
<!-- AIN -->
<g id="node6" class="node">
<title>AIN</title>
<ellipse fill="none" stroke="black" cx="384.81" cy="-1124" rx="27" ry="18"/>
<text text-anchor="middle" x="384.81" y="-1118.58" font-family="Times New Roman,serif" font-size="14.00">AIN</text>
</g>
<!-- ASJ&#45;&gt;AIN -->
<g id="edge5" class="edge">
<title>ASJ&#45;&gt;AIN</title>
<path fill="none" stroke="gray" stroke-width="nan" d="M258.62,-903.72C299.95,-983.78 352.2,-1085 352.2,-1085 352.2,-1085 362.2,-1097.34 370.95,-1108.14"/>
<polygon fill="gray" stroke="gray" stroke-width="nan" points="nan,-nan nan,-nan nan,-nan nan,-nan"/>
</g>
<!-- ALA -->
<g id="node7" class="node">
<title>ALA</title>
<ellipse fill="none" stroke="black" cx="384.81" cy="-1045" rx="29.11" ry="18"/>
<text text-anchor="middle" x="384.81" y="-1039.58" font-family="Times New Roman,serif" font-size="14.00">ALA</text>
</g>
<!-- ASJ&#45;&gt;ALA -->
<g id="edge6" class="edge">
<title>ASJ&#45;&gt;ALA</title>
<path fill="none" stroke="gray" stroke-width="2" d="M280.91,-888.46C316.59,-935.19 352.2,-984.5 352.2,-984.5 352.2,-984.5 364.18,-999.29 373.39,-1015.67"/>
<polygon fill="gray" stroke="gray" stroke-width="2" points="370.16,-1017.04 377.78,-1024.4 376.42,-1013.89 370.16,-1017.04"/>
</g>
<!-- ALN -->
<g id="node8" class="node">
<title>ALN</title>
<ellipse fill="none" stroke="black" cx="384.81" cy="-966" rx="29.11" ry="18"/>
<text text-anchor="middle" x="384.81" y="-960.58" font-family="Times New Roman,serif" font-size="14.00">ALN</text>
</g>
<!-- ASJ&#45;&gt;ALN -->
<g id="edge7" class="edge">
<title>ASJ&#45;&gt;ALN</title>
<path fill="none" stroke="gray" stroke-width="0.2" d="M289.1,-880.3C314.87,-903.62 341.5,-927.72 359.94,-944.4"/>
<polygon fill="gray" stroke="gray" stroke-width="0.2" points="357.33,-946.76 367.09,-950.87 362.02,-941.57 357.33,-946.76"/>
</g>
<!-- ASG -->
<g id="node9" class="node">
<title>ASG</title>
<ellipse fill="none" stroke="black" cx="384.81" cy="-887" rx="29.61" ry="18"/>
<text text-anchor="middle" x="384.81" y="-881.58" font-family="Times New Roman,serif" font-size="14.00">ASG</text>
</g>
<!-- ASJ&#45;&gt;ASG -->
<g id="edge8" class="edge">
<title>ASJ&#45;&gt;ASG</title>
<path fill="none" stroke="gray" stroke-width="nan" d="M312.03,-838.63C334.83,-849.63 356.18,-861.47 369.56,-871.22"/>
<polygon fill="gray" stroke="gray" stroke-width="nan" points="nan,-nan nan,-nan nan,-nan nan,-nan"/>
</g>
<!-- ASK -->
<g id="node10" class="node">
<title>ASK</title>
<ellipse fill="none" stroke="black" cx="384.81" cy="-808" rx="29.11" ry="18"/>
<text text-anchor="middle" x="384.81" y="-802.58" font-family="Times New Roman,serif" font-size="14.00">ASK</text>
</g>
<!-- ASJ&#45;&gt;ASK -->
<g id="edge9" class="edge">
<title>ASJ&#45;&gt;ASK</title>
<path fill="none" stroke="gray" stroke-width="5" d="M315.55,-792.22C326.27,-792.62 336.59,-793.35 345.82,-794.42"/>
<polygon fill="gray" stroke="gray" stroke-width="5" points="344.85,-798.7 355.39,-795.88 346.16,-790.05 344.85,-798.7"/>
</g>
<!-- AVF -->
<g id="node11" class="node">
<title>AVF</title>
<ellipse fill="none" stroke="black" cx="384.81" cy="-729" rx="29.11" ry="18"/>
<text text-anchor="middle" x="384.81" y="-723.58" font-family="Times New Roman,serif" font-size="14.00">AVF</text>
</g>
<!-- ASJ&#45;&gt;AVF -->
<g id="edge10" class="edge">
<title>ASJ&#45;&gt;AVF</title>
<path fill="none" stroke="blue" stroke-width="5" d="M300.08,-750.77C314.03,-744.55 327.85,-738.94 340.12,-734.58"/>
<polygon fill="blue" stroke="blue" stroke-width="5" points="341.18,-738.84 349.32,-731.57 338.45,-730.53 341.18,-738.84"/>
</g>
<!-- AWA -->
<g id="node12" class="node">
<title>AWA</title>
<ellipse fill="none" stroke="black" cx="384.81" cy="-650" rx="32.6" ry="18"/>
<text text-anchor="middle" x="384.81" y="-644.58" font-family="Times New Roman,serif" font-size="14.00">AWA</text>
</g>
<!-- ASJ&#45;&gt;AWA -->
<g id="edge11" class="edge">
<title>ASJ&#45;&gt;AWA</title>
<path fill="none" stroke="gray" stroke-width="0.2" d="M289.1,-735.7C314.71,-712.53 341.18,-688.57 359.6,-671.9"/>
<polygon fill="gray" stroke="gray" stroke-width="0.2" points="361.69,-674.73 366.75,-665.43 356.99,-669.54 361.69,-674.73"/>
</g>
<!-- CEP -->
<g id="node13" class="node">
<title>CEP</title>
<ellipse fill="none" stroke="black" cx="384.81" cy="-571" rx="28.11" ry="18"/>
<text text-anchor="middle" x="384.81" y="-565.58" font-family="Times New Roman,serif" font-size="14.00">CEP</text>
</g>
<!-- ASJ&#45;&gt;CEP -->
<g id="edge12" class="edge">
<title>ASJ&#45;&gt;CEP</title>
<path fill="none" stroke="gray" stroke-width="0.2" d="M272.34,-720.58C310.65,-667.54 352.2,-610 352.2,-610 352.2,-610 357.95,-602.91 364.54,-594.78"/>
<polygon fill="gray" stroke="gray" stroke-width="0.2" points="367.19,-597.07 370.76,-587.1 361.75,-592.66 367.19,-597.07"/>
</g>
<!-- HSN -->
<g id="node14" class="node">
<title>HSN</title>
<ellipse fill="none" stroke="black" cx="384.81" cy="-492" rx="29.11" ry="18"/>
<text text-anchor="middle" x="384.81" y="-486.57" font-family="Times New Roman,serif" font-size="14.00">HSN</text>
</g>
<!-- ASJ&#45;&gt;HSN -->
<g id="edge13" class="edge">
<title>ASJ&#45;&gt;HSN</title>
<path fill="none" stroke="gray" stroke-width="5" d="M252.11,-708.94C286.66,-637.46 331.88,-549.05 351.06,-514.95"/>
<polygon fill="gray" stroke="gray" stroke-width="5" points="354.79,-517.24 356.28,-506.43 347.32,-512.68 354.79,-517.24"/>
</g>
<!-- PVN -->
<g id="node15" class="node">
<title>PVN</title>
<ellipse fill="none" stroke="black" cx="384.81" cy="-413" rx="29.11" ry="18"/>
<text text-anchor="middle" x="384.81" y="-407.57" font-family="Times New Roman,serif" font-size="14.00">PVN</text>
</g>
<!-- ASJ&#45;&gt;PVN -->
<g id="edge14" class="edge">
<title>ASJ&#45;&gt;PVN</title>
<path fill="none" stroke="gray" stroke-width="2" d="M244.19,-706.11C280.82,-609.12 334.92,-473.64 353.59,-433.45"/>
<polygon fill="gray" stroke="gray" stroke-width="2" points="356.59,-435.27 358.13,-424.79 350.39,-432.02 356.59,-435.27"/>
</g>
<!-- PVQ -->
<g id="node16" class="node">
<title>PVQ</title>
<ellipse fill="none" stroke="black" cx="384.81" cy="-334" rx="29.61" ry="18"/>
<text text-anchor="middle" x="384.81" y="-328.57" font-family="Times New Roman,serif" font-size="14.00">PVQ</text>
</g>
<!-- ASJ&#45;&gt;PVQ -->
<g id="edge15" class="edge">
<title>ASJ&#45;&gt;PVQ</title>
<path fill="none" stroke="black" stroke-width="5" d="M238.83,-703.97C274.91,-587.68 332.95,-410.22 352.83,-358.1"/>
<polygon fill="black" stroke="black" stroke-width="5" points="356.74,-360.09 356.73,-349.17 348.72,-356.59 356.74,-360.09"/>
</g>
<!-- RIF -->
<g id="node17" class="node">
<title>RIF</title>
<ellipse fill="none" stroke="black" cx="384.81" cy="-255" rx="27" ry="18"/>
<text text-anchor="middle" x="384.81" y="-249.57" font-family="Times New Roman,serif" font-size="14.00">RIF</text>
</g>
<!-- ASJ&#45;&gt;RIF -->
<g id="edge16" class="edge">
<title>ASJ&#45;&gt;RIF</title>
<path fill="none" stroke="gray" stroke-width="0.2" d="M238.14,-703.98C279.93,-553.79 352.2,-294 352.2,-294 352.2,-294 357.95,-286.91 364.54,-278.78"/>
<polygon fill="gray" stroke="gray" stroke-width="0.2" points="367.19,-281.07 370.76,-271.1 361.75,-276.66 367.19,-281.07"/>
</g>
<!-- RIS -->
<g id="node18" class="node">
<title>RIS</title>
<ellipse fill="none" stroke="black" cx="384.81" cy="-176" rx="27" ry="18"/>
<text text-anchor="middle" x="384.81" y="-170.57" font-family="Times New Roman,serif" font-size="14.00">RIS</text>
</g>
<!-- ASJ&#45;&gt;RIS -->
<g id="edge17" class="edge">
<title>ASJ&#45;&gt;RIS</title>
<path fill="none" stroke="gray" stroke-width="0.2" d="M234.52,-703.01C275.6,-532.69 352.2,-215 352.2,-215 352.2,-215 357.95,-207.91 364.54,-199.78"/>
<polygon fill="gray" stroke="gray" stroke-width="0.2" points="367.19,-202.07 370.76,-192.1 361.75,-197.66 367.19,-202.07"/>
</g>
<!-- RMG -->
<g id="node19" class="node">
<title>RMG</title>
<ellipse fill="none" stroke="black" cx="384.81" cy="-97" rx="32.1" ry="18"/>
<text text-anchor="middle" x="384.81" y="-91.58" font-family="Times New Roman,serif" font-size="14.00">RMG</text>
</g>
<!-- ASJ&#45;&gt;RMG -->
<g id="edge18" class="edge">
<title>ASJ&#45;&gt;RMG</title>
<path fill="none" stroke="gray" stroke-width="2" d="M231.71,-702.26C271.98,-513.02 352.2,-136 352.2,-136 352.2,-136 356.8,-130.33 362.49,-123.31"/>
<polygon fill="gray" stroke="gray" stroke-width="2" points="365.1,-125.64 368.68,-115.67 359.67,-121.23 365.1,-125.64"/>
</g>
<!-- SAA -->
<g id="node20" class="node">
<title>SAA</title>
<ellipse fill="none" stroke="black" cx="384.81" cy="-18" rx="29.11" ry="18"/>
<text text-anchor="middle" x="384.81" y="-12.57" font-family="Times New Roman,serif" font-size="14.00">SAA</text>
</g>
<!-- ASJ&#45;&gt;SAA -->
<g id="edge19" class="edge">
<title>ASJ&#45;&gt;SAA</title>
<path fill="none" stroke="gray" stroke-width="0.2" d="M229.39,-701.99C268.81,-494.98 352.2,-57 352.2,-57 352.2,-57 357.95,-49.91 364.54,-41.78"/>
<polygon fill="gray" stroke="gray" stroke-width="0.2" points="367.19,-44.07 370.76,-34.1 361.75,-39.66 367.19,-44.07"/>
</g>
<!-- ADL&#45;&gt;ASJ -->
<g id="edge20" class="edge">
<title>ADL&#45;&gt;ASJ</title>
<path fill="none" stroke="gray" stroke-width="0.2" d="M359.53,-1430.89C355.29,-1426.31 352.2,-1422.5 352.2,-1422.5 352.2,-1422.5 274.93,-1102.04 233.99,-923.73"/>
<polygon fill="gray" stroke="gray" stroke-width="0.2" points="237.42,-923.03 231.77,-914.07 230.6,-924.6 237.42,-923.03"/>
</g>
<!-- AIA&#45;&gt;ASJ -->
<g id="edge21" class="edge">
<title>AIA&#45;&gt;ASJ</title>
<path fill="none" stroke="gray" stroke-width="0.2" d="M360.51,-1352.93C355.77,-1347.9 352.2,-1343.5 352.2,-1343.5 352.2,-1343.5 279,-1080.37 237.34,-922.77"/>
<polygon fill="gray" stroke="gray" stroke-width="0.2" points="240.78,-922.08 234.85,-913.31 234.01,-923.87 240.78,-922.08"/>
</g>
<!-- AIM&#45;&gt;ASJ -->
<g id="edge22" class="edge">
<title>AIM&#45;&gt;ASJ</title>
<path fill="none" stroke="gray" stroke-width="2" d="M359.85,-1194.23C355.45,-1189.5 352.2,-1185.5 352.2,-1185.5 352.2,-1185.5 291.06,-1033.28 248.73,-921.9"/>
<polygon fill="gray" stroke="gray" stroke-width="2" points="252.07,-920.84 245.26,-912.73 245.53,-923.32 252.07,-920.84"/>
</g>
<!-- ALA&#45;&gt;ASJ -->
<g id="edge23" class="edge">
<title>ALA&#45;&gt;ASJ</title>
<path fill="none" stroke="gray" stroke-width="2" d="M359.53,-1035.89C355.29,-1031.31 352.2,-1027.5 352.2,-1027.5 352.2,-1027.5 309.7,-968.65 271.04,-911.64"/>
<polygon fill="gray" stroke="gray" stroke-width="2" points="274.07,-909.87 265.57,-903.54 268.27,-913.78 274.07,-909.87"/>
</g>
<!-- ASG&#45;&gt;ASJ -->
<g id="edge24" class="edge">
<title>ASG&#45;&gt;ASJ</title>
<path fill="none" stroke="gray" stroke-width="0.2" d="M354.86,-886.26C341.99,-882.44 326,-876.41 309.37,-869.29"/>
<polygon fill="gray" stroke="gray" stroke-width="0.2" points="310.93,-866.15 300.36,-865.35 308.12,-872.56 310.93,-866.15"/>
</g>
<!-- ASK&#45;&gt;ASJ -->
<g id="edge25" class="edge">
<title>ASK&#45;&gt;ASJ</title>
<path fill="none" stroke="gray" stroke-width="2" d="M361.56,-819.19C352.32,-821 340.83,-822.32 328.34,-823.13"/>
<polygon fill="gray" stroke="gray" stroke-width="2" points="328.38,-819.62 318.57,-823.63 328.74,-826.62 328.38,-819.62"/>
</g>
<!-- AVF&#45;&gt;ASJ -->
<g id="edge26" class="edge">
<title>AVF&#45;&gt;ASJ</title>
<path fill="none" stroke="gray" stroke-width="2" d="M369.56,-744.78C358.48,-752.85 341.94,-762.37 323.63,-771.64"/>
<polygon fill="gray" stroke="gray" stroke-width="2" points="322.16,-768.46 314.75,-776.03 325.26,-774.74 322.16,-768.46"/>
</g>
<!-- HSN&#45;&gt;ASJ -->
<g id="edge27" class="edge">
<title>HSN&#45;&gt;ASJ</title>
<path fill="none" stroke="gray" stroke-width="0.2" d="M379.14,-509.9C370.35,-530.1 352.2,-552.5 352.2,-552.5 352.2,-552.5 309.26,-635.69 270.43,-707.36"/>
<polygon fill="gray" stroke="gray" stroke-width="0.2" points="267.56,-705.31 265.87,-715.77 273.71,-708.65 267.56,-705.31"/>
</g>
<!-- PVN&#45;&gt;ASJ -->
<g id="edge28" class="edge">
<title>PVN&#45;&gt;ASJ</title>
<path fill="none" stroke="gray" stroke-width="2" d="M379.14,-430.9C370.35,-451.1 352.2,-473.5 352.2,-473.5 352.2,-473.5 301.11,-600.71 260,-698.45"/>
<polygon fill="gray" stroke="gray" stroke-width="2" points="256.88,-696.85 256.22,-707.43 263.33,-699.57 256.88,-696.85"/>
</g>
<!-- PVQ&#45;&gt;ASJ -->
<g id="edge29" class="edge">
<title>PVQ&#45;&gt;ASJ</title>
<path fill="none" stroke="gray" stroke-width="2" d="M379.14,-351.9C370.35,-372.1 352.2,-394.5 352.2,-394.5 352.2,-394.5 293.75,-572.32 251.59,-694.96"/>
<polygon fill="gray" stroke="gray" stroke-width="2" points="248.37,-693.56 248.42,-704.15 254.98,-695.84 248.37,-693.56"/>
</g>
<!-- ADE -->
<g id="node21" class="node">
<title>ADE</title>
<ellipse fill="none" stroke="black" cx="32.1" cy="-1006" rx="29.11" ry="18"/>
<text text-anchor="middle" x="32.1" y="-1000.58" font-family="Times New Roman,serif" font-size="14.00">ADE</text>
</g>
<!-- ADE&#45;&gt;ASJ -->
<g id="edge30" class="edge">
<title>ADE&#45;&gt;ASJ</title>
<path fill="none" stroke="gray" stroke-width="0.2" d="M47.06,-990.13C65.14,-969.57 98.06,-932.12 129.38,-896.51"/>
<polygon fill="gray" stroke="gray" stroke-width="0.2" points="131.85,-898.99 135.83,-889.17 126.6,-894.37 131.85,-898.99"/>
</g>
<!-- ASE -->
<g id="node22" class="node">
<title>ASE</title>
<ellipse fill="none" stroke="black" cx="32.1" cy="-927" rx="28.11" ry="18"/>
<text text-anchor="middle" x="32.1" y="-921.58" font-family="Times New Roman,serif" font-size="14.00">ASE</text>
</g>
<!-- ASE&#45;&gt;ASJ -->
<g id="edge31" class="edge">
<title>ASE&#45;&gt;ASJ</title>
<path fill="none" stroke="gray" stroke-width="2" d="M52.07,-914.04C66.15,-904.41 86.56,-890.46 107.98,-875.82"/>
<polygon fill="gray" stroke="gray" stroke-width="2" points="109.77,-878.84 116.05,-870.3 105.82,-873.06 109.77,-878.84"/>
</g>
<!-- ASI -->
<g id="node23" class="node">
<title>ASI</title>
<ellipse fill="none" stroke="black" cx="32.1" cy="-848" rx="27" ry="18"/>
<text text-anchor="middle" x="32.1" y="-842.58" font-family="Times New Roman,serif" font-size="14.00">ASI</text>
</g>
<!-- ASI&#45;&gt;ASJ -->
<g id="edge32" class="edge">
<title>ASI&#45;&gt;ASJ</title>
<path fill="none" stroke="gray" stroke-width="0.2" d="M58.05,-842.27C67.79,-840.03 79.69,-837.3 92.49,-834.36"/>
<polygon fill="gray" stroke="gray" stroke-width="0.2" points="93.17,-837.79 102.13,-832.14 91.6,-830.97 93.17,-837.79"/>
</g>
<!-- AWB -->
<g id="node24" class="node">
<title>AWB</title>
<ellipse fill="none" stroke="black" cx="32.1" cy="-769" rx="32.1" ry="18"/>
<text text-anchor="middle" x="32.1" y="-763.58" font-family="Times New Roman,serif" font-size="14.00">AWB</text>
</g>
<!-- AWB&#45;&gt;ASJ -->
<g id="edge33" class="edge">
<title>AWB&#45;&gt;ASJ</title>
<path fill="none" stroke="gray" stroke-width="0.2" d="M62.24,-775.53C71.15,-777.52 81.54,-779.85 92.59,-782.33"/>
<polygon fill="gray" stroke="gray" stroke-width="0.2" points="91.64,-785.7 102.16,-784.47 93.17,-778.87 91.64,-785.7"/>
</g>
<!-- SMD -->
<g id="node25" class="node">
<title>SMD</title>
<ellipse fill="none" stroke="black" cx="32.1" cy="-690" rx="30.61" ry="18"/>
<text text-anchor="middle" x="32.1" y="-684.58" font-family="Times New Roman,serif" font-size="14.00">SMD</text>
</g>
<!-- SMD&#45;&gt;ASJ -->
<g id="edge34" class="edge">
<title>SMD&#45;&gt;ASJ</title>
<path fill="none" stroke="gray" stroke-width="0.2" d="M53.07,-703.54C67.57,-713.36 88.36,-727.45 109.99,-742.11"/>
<polygon fill="gray" stroke="gray" stroke-width="0.2" points="107.82,-744.87 118.07,-747.59 111.75,-739.08 107.82,-744.87"/>
</g>
<!-- VBn -->
<g id="node26" class="node">
<title>VBn</title>
<ellipse fill="none" stroke="black" cx="32.1" cy="-611" rx="27.61" ry="18"/>
<text text-anchor="middle" x="32.1" y="-605.58" font-family="Times New Roman,serif" font-size="14.00">VBn</text>
</g>
<!-- VBn&#45;&gt;ASJ -->
<g id="edge35" class="edge">
<title>VBn&#45;&gt;ASJ</title>
<path fill="none" stroke="gray" stroke-width="2" d="M46.76,-626.46C64.5,-646.52 96.86,-683.14 127.9,-718.27"/>
<polygon fill="gray" stroke="gray" stroke-width="2" points="124.93,-720.19 134.17,-725.36 130.17,-715.55 124.93,-720.19"/>
</g>
</g>
</svg>
