<?xml version="1.0" encoding="UTF-8" standalone="no"?>
<!DOCTYPE svg PUBLIC "-//W3C//DTD SVG 1.1//EN"
 "http://www.w3.org/Graphics/SVG/1.1/DTD/svg11.dtd">
<!-- Generated by graphviz version 11.0.0 (20240428.1522)
 -->
<!-- Pages: 1 -->
<svg width="421pt" height="2019pt"
 viewBox="0.00 0.00 421.41 2019.00" xmlns="http://www.w3.org/2000/svg" xmlns:xlink="http://www.w3.org/1999/xlink">
<g id="graph0" class="graph" transform="scale(1 1) rotate(0) translate(4 2015)">
<polygon fill="white" stroke="none" points="-4,4 -4,-2015 417.41,-2015 417.41,4 -4,4"/>
<!-- ASK -->
<g id="node1" class="node">
<title>ASK</title>
<ellipse fill="none" stroke="black" cx="204.21" cy="-1084" rx="108" ry="108"/>
<text text-anchor="middle" x="204.21" y="-1065" font-family="Times New Roman,serif" font-size="50.00">ASK</text>
</g>
<!-- ASK&#45;&gt;ASK -->
<g id="edge1" class="edge">
<title>ASK&#45;&gt;ASK</title>
<path fill="none" stroke="gray" stroke-width="0.2" d="M171.88,-1187.39C173.8,-1214.51 184.57,-1235 204.21,-1235 221.32,-1235 231.7,-1219.45 235.36,-1197.52"/>
<polygon fill="gray" stroke="gray" stroke-width="0.2" points="238.83,-1198.03 236.51,-1187.69 231.87,-1197.22 238.83,-1198.03"/>
</g>
<!-- ADA -->
<g id="node2" class="node">
<title>ADA</title>
<ellipse fill="none" stroke="black" cx="380.81" cy="-1993" rx="30.11" ry="18"/>
<text text-anchor="middle" x="380.81" y="-1987.58" font-family="Times New Roman,serif" font-size="14.00">ADA</text>
</g>
<!-- ASK&#45;&gt;ADA -->
<g id="edge2" class="edge">
<title>ASK&#45;&gt;ADA</title>
<path fill="none" stroke="gray" stroke-width="0.2" d="M222.75,-1190.68C260.93,-1422.99 348.21,-1954 348.21,-1954 348.21,-1954 353.91,-1961.03 360.47,-1969.13"/>
<polygon fill="gray" stroke="gray" stroke-width="0.2" points="357.39,-1970.89 366.4,-1976.45 362.83,-1966.48 357.39,-1970.89"/>
</g>
<!-- ADL -->
<g id="node3" class="node">
<title>ADL</title>
<ellipse fill="none" stroke="black" cx="380.81" cy="-1914" rx="29.11" ry="18"/>
<text text-anchor="middle" x="380.81" y="-1908.58" font-family="Times New Roman,serif" font-size="14.00">ADL</text>
</g>
<!-- ASK&#45;&gt;ADL -->
<g id="edge3" class="edge">
<title>ASK&#45;&gt;ADL</title>
<path fill="none" stroke="gray" stroke-width="5" d="M226.54,-1189.8C266.41,-1401 348.21,-1853.5 348.21,-1853.5 348.21,-1853.5 358.85,-1866.63 367.78,-1881.85"/>
<polygon fill="gray" stroke="gray" stroke-width="5" points="363.81,-1883.69 372.29,-1890.56 371.58,-1879.67 363.81,-1883.69"/>
</g>
<!-- AIA -->
<g id="node4" class="node">
<title>AIA</title>
<ellipse fill="none" stroke="black" cx="380.81" cy="-1835" rx="27" ry="18"/>
<text text-anchor="middle" x="380.81" y="-1829.58" font-family="Times New Roman,serif" font-size="14.00">AIA</text>
</g>
<!-- ASK&#45;&gt;AIA -->
<g id="edge4" class="edge">
<title>ASK&#45;&gt;AIA</title>
<path fill="none" stroke="black" stroke-width="5" d="M228.99,-1189.63C269.65,-1383.33 348.21,-1774.5 348.21,-1774.5 348.21,-1774.5 358.85,-1787.63 367.78,-1802.85"/>
<polygon fill="black" stroke="black" stroke-width="5" points="363.81,-1804.69 372.29,-1811.56 371.58,-1800.67 363.81,-1804.69"/>
</g>
<!-- AIB -->
<g id="node5" class="node">
<title>AIB</title>
<ellipse fill="none" stroke="black" cx="380.81" cy="-1756" rx="27" ry="18"/>
<text text-anchor="middle" x="380.81" y="-1750.58" font-family="Times New Roman,serif" font-size="14.00">AIB</text>
</g>
<!-- ASK&#45;&gt;AIB -->
<g id="edge5" class="edge">
<title>ASK&#45;&gt;AIB</title>
<path fill="none" stroke="gray" stroke-width="5" d="M231.86,-1188.61C273.23,-1363.59 348.21,-1695.5 348.21,-1695.5 348.21,-1695.5 358.85,-1708.63 367.78,-1723.85"/>
<polygon fill="gray" stroke="gray" stroke-width="5" points="363.81,-1725.69 372.29,-1732.56 371.58,-1721.67 363.81,-1725.69"/>
</g>
<!-- AIM -->
<g id="node6" class="node">
<title>AIM</title>
<ellipse fill="none" stroke="black" cx="380.81" cy="-1677" rx="28.11" ry="18"/>
<text text-anchor="middle" x="380.81" y="-1671.58" font-family="Times New Roman,serif" font-size="14.00">AIM</text>
</g>
<!-- ASK&#45;&gt;AIM -->
<g id="edge6" class="edge">
<title>ASK&#45;&gt;AIM</title>
<path fill="none" stroke="red" stroke-width="5" d="M235.63,-1187.79C277.61,-1342.99 348.21,-1616.5 348.21,-1616.5 348.21,-1616.5 358.85,-1629.63 367.78,-1644.85"/>
<polygon fill="red" stroke="red" stroke-width="5" points="363.81,-1646.69 372.29,-1653.56 371.58,-1642.67 363.81,-1646.69"/>
</g>
<!-- AIN -->
<g id="node7" class="node">
<title>AIN</title>
<ellipse fill="none" stroke="black" cx="380.81" cy="-1598" rx="27" ry="18"/>
<text text-anchor="middle" x="380.81" y="-1592.58" font-family="Times New Roman,serif" font-size="14.00">AIN</text>
</g>
<!-- ASK&#45;&gt;AIN -->
<g id="edge7" class="edge">
<title>ASK&#45;&gt;AIN</title>
<path fill="none" stroke="gray" stroke-width="0.2" d="M236.33,-1187.36C278.4,-1327.09 348.21,-1559 348.21,-1559 348.21,-1559 353.95,-1566.09 360.54,-1574.22"/>
<polygon fill="gray" stroke="gray" stroke-width="0.2" points="357.75,-1576.34 366.77,-1581.9 363.19,-1571.93 357.75,-1576.34"/>
</g>
<!-- ALA -->
<g id="node8" class="node">
<title>ALA</title>
<ellipse fill="none" stroke="black" cx="380.81" cy="-1519" rx="29.11" ry="18"/>
<text text-anchor="middle" x="380.81" y="-1513.58" font-family="Times New Roman,serif" font-size="14.00">ALA</text>
</g>
<!-- ASK&#45;&gt;ALA -->
<g id="edge8" class="edge">
<title>ASK&#45;&gt;ALA</title>
<path fill="none" stroke="gray" stroke-width="0.2" d="M241.95,-1185.72C284.31,-1303.05 348.21,-1480 348.21,-1480 348.21,-1480 353.95,-1487.09 360.54,-1495.22"/>
<polygon fill="gray" stroke="gray" stroke-width="0.2" points="357.75,-1497.34 366.77,-1502.9 363.19,-1492.93 357.75,-1497.34"/>
</g>
<!-- ASE -->
<g id="node9" class="node">
<title>ASE</title>
<ellipse fill="none" stroke="black" cx="380.81" cy="-1440" rx="28.11" ry="18"/>
<text text-anchor="middle" x="380.81" y="-1434.58" font-family="Times New Roman,serif" font-size="14.00">ASE</text>
</g>
<!-- ASK&#45;&gt;ASE -->
<g id="edge9" class="edge">
<title>ASK&#45;&gt;ASE</title>
<path fill="none" stroke="gray" stroke-width="2" d="M255.83,-1179.32C296.97,-1265.9 348.21,-1379.5 348.21,-1379.5 348.21,-1379.5 360.19,-1394.29 369.4,-1410.67"/>
<polygon fill="gray" stroke="gray" stroke-width="2" points="366.17,-1412.04 373.79,-1419.4 372.42,-1408.89 366.17,-1412.04"/>
</g>
<!-- ASG -->
<g id="node10" class="node">
<title>ASG</title>
<ellipse fill="none" stroke="black" cx="380.81" cy="-1361" rx="29.61" ry="18"/>
<text text-anchor="middle" x="380.81" y="-1355.58" font-family="Times New Roman,serif" font-size="14.00">ASG</text>
</g>
<!-- ASK&#45;&gt;ASG -->
<g id="edge10" class="edge">
<title>ASK&#45;&gt;ASG</title>
<path fill="none" stroke="red" stroke-width="0.2" d="M268.56,-1171.28C306.81,-1231.59 348.21,-1300.5 348.21,-1300.5 348.21,-1300.5 361.37,-1316.74 370.71,-1334.04"/>
<polygon fill="red" stroke="red" stroke-width="0.2" points="367.47,-1335.39 375.02,-1342.83 373.76,-1332.31 367.47,-1335.39"/>
</g>
<!-- ASH -->
<g id="node11" class="node">
<title>ASH</title>
<ellipse fill="none" stroke="black" cx="380.81" cy="-1282" rx="29.11" ry="18"/>
<text text-anchor="middle" x="380.81" y="-1276.58" font-family="Times New Roman,serif" font-size="14.00">ASH</text>
</g>
<!-- ASK&#45;&gt;ASH -->
<g id="edge11" class="edge">
<title>ASK&#45;&gt;ASH</title>
<path fill="none" stroke="gray" stroke-width="0.2" d="M284.08,-1157.38C314.97,-1191.91 347.27,-1230.76 365.34,-1256.19"/>
<polygon fill="gray" stroke="gray" stroke-width="0.2" points="362.39,-1258.08 370.94,-1264.34 368.16,-1254.12 362.39,-1258.08"/>
</g>
<!-- ASI -->
<g id="node12" class="node">
<title>ASI</title>
<ellipse fill="none" stroke="black" cx="380.81" cy="-1203" rx="27" ry="18"/>
<text text-anchor="middle" x="380.81" y="-1197.58" font-family="Times New Roman,serif" font-size="14.00">ASI</text>
</g>
<!-- ASK&#45;&gt;ASI -->
<g id="edge12" class="edge">
<title>ASK&#45;&gt;ASI</title>
<path fill="none" stroke="gray" stroke-width="2" d="M300.69,-1133.01C322.81,-1148.43 344.23,-1164.76 359.19,-1178.08"/>
<polygon fill="gray" stroke="gray" stroke-width="2" points="356.55,-1180.41 366.23,-1184.7 361.34,-1175.3 356.55,-1180.41"/>
</g>
<!-- ASJ -->
<g id="node13" class="node">
<title>ASJ</title>
<ellipse fill="none" stroke="black" cx="380.81" cy="-1124" rx="27" ry="18"/>
<text text-anchor="middle" x="380.81" y="-1118.58" font-family="Times New Roman,serif" font-size="14.00">ASJ</text>
</g>
<!-- ASK&#45;&gt;ASJ -->
<g id="edge13" class="edge">
<title>ASK&#45;&gt;ASJ</title>
<path fill="none" stroke="gray" stroke-width="2" d="M312.31,-1092.78C326.51,-1096.58 339.98,-1100.81 351.1,-1105.1"/>
<polygon fill="gray" stroke="gray" stroke-width="2" points="349.61,-1108.27 360.18,-1108.95 352.34,-1101.82 349.61,-1108.27"/>
</g>
<!-- AVD -->
<g id="node14" class="node">
<title>AVD</title>
<ellipse fill="none" stroke="black" cx="380.81" cy="-1045" rx="30.11" ry="18"/>
<text text-anchor="middle" x="380.81" y="-1039.58" font-family="Times New Roman,serif" font-size="14.00">AVD</text>
</g>
<!-- ASK&#45;&gt;AVD -->
<g id="edge14" class="edge">
<title>ASK&#45;&gt;AVD</title>
<path fill="none" stroke="gray" stroke-width="0.2" d="M310.05,-1060.58C321.44,-1058.04 332.4,-1055.59 342.14,-1053.42"/>
<polygon fill="gray" stroke="gray" stroke-width="0.2" points="342.89,-1056.83 351.88,-1051.24 341.36,-1050 342.89,-1056.83"/>
</g>
<!-- AVF -->
<g id="node15" class="node">
<title>AVF</title>
<ellipse fill="none" stroke="black" cx="380.81" cy="-966" rx="29.11" ry="18"/>
<text text-anchor="middle" x="380.81" y="-960.58" font-family="Times New Roman,serif" font-size="14.00">AVF</text>
</g>
<!-- ASK&#45;&gt;AVF -->
<g id="edge15" class="edge">
<title>ASK&#45;&gt;AVF</title>
<path fill="none" stroke="gray" stroke-width="0.2" d="M286.12,-1013.23C306.45,-999.25 327.23,-986.13 344.05,-976.86"/>
<polygon fill="gray" stroke="gray" stroke-width="0.2" points="345.49,-980.06 352.68,-972.27 342.21,-973.88 345.49,-980.06"/>
</g>
<!-- AVJ -->
<g id="node16" class="node">
<title>AVJ</title>
<ellipse fill="none" stroke="black" cx="380.81" cy="-887" rx="27.11" ry="18"/>
<text text-anchor="middle" x="380.81" y="-881.58" font-family="Times New Roman,serif" font-size="14.00">AVJ</text>
</g>
<!-- ASK&#45;&gt;AVJ -->
<g id="edge16" class="edge">
<title>ASK&#45;&gt;AVJ</title>
<path fill="none" stroke="gray" stroke-width="0.2" d="M268.49,-997.03C297.3,-963.16 329.9,-927.54 352.33,-905.88"/>
<polygon fill="gray" stroke="gray" stroke-width="0.2" points="354.72,-908.44 359.6,-899.03 349.92,-903.34 354.72,-908.44"/>
</g>
<!-- AWA -->
<g id="node17" class="node">
<title>AWA</title>
<ellipse fill="none" stroke="black" cx="380.81" cy="-808" rx="32.6" ry="18"/>
<text text-anchor="middle" x="380.81" y="-802.58" font-family="Times New Roman,serif" font-size="14.00">AWA</text>
</g>
<!-- ASK&#45;&gt;AWA -->
<g id="edge17" class="edge">
<title>ASK&#45;&gt;AWA</title>
<path fill="none" stroke="gray" stroke-width="0.2" d="M253.43,-987.48C288.62,-925.02 332.25,-852.06 348.26,-827.19"/>
<polygon fill="gray" stroke="gray" stroke-width="0.2" points="351.09,-829.27 353.84,-819.04 345.31,-825.32 351.09,-829.27"/>
</g>
<!-- AWB -->
<g id="node18" class="node">
<title>AWB</title>
<ellipse fill="none" stroke="black" cx="380.81" cy="-729" rx="32.1" ry="18"/>
<text text-anchor="middle" x="380.81" y="-723.58" font-family="Times New Roman,serif" font-size="14.00">AWB</text>
</g>
<!-- ASK&#45;&gt;AWB -->
<g id="edge18" class="edge">
<title>ASK&#45;&gt;AWB</title>
<path fill="none" stroke="gray" stroke-width="0.2" d="M249.67,-985.75C291.65,-892.99 348.21,-768 348.21,-768 348.21,-768 353.91,-760.97 360.47,-752.87"/>
<polygon fill="gray" stroke="gray" stroke-width="0.2" points="362.83,-755.52 366.4,-745.55 357.39,-751.11 362.83,-755.52"/>
</g>
<!-- AWC -->
<g id="node19" class="node">
<title>AWC</title>
<ellipse fill="none" stroke="black" cx="380.81" cy="-650" rx="32.6" ry="18"/>
<text text-anchor="middle" x="380.81" y="-644.58" font-family="Times New Roman,serif" font-size="14.00">AWC</text>
</g>
<!-- ASK&#45;&gt;AWC -->
<g id="edge19" class="edge">
<title>ASK&#45;&gt;AWC</title>
<path fill="none" stroke="gray" stroke-width="2" d="M237.39,-980.76C273.96,-873.55 330.44,-716.71 348.58,-672.56"/>
<polygon fill="gray" stroke="gray" stroke-width="2" points="351.73,-674.08 352.74,-663.54 345.38,-671.15 351.73,-674.08"/>
</g>
<!-- CEP -->
<g id="node20" class="node">
<title>CEP</title>
<ellipse fill="none" stroke="black" cx="380.81" cy="-571" rx="28.11" ry="18"/>
<text text-anchor="middle" x="380.81" y="-565.58" font-family="Times New Roman,serif" font-size="14.00">CEP</text>
</g>
<!-- ASK&#45;&gt;CEP -->
<g id="edge20" class="edge">
<title>ASK&#45;&gt;CEP</title>
<path fill="none" stroke="gray" stroke-width="0.2" d="M236.42,-980.56C278.49,-841.09 348.21,-610 348.21,-610 348.21,-610 353.95,-602.91 360.54,-594.78"/>
<polygon fill="gray" stroke="gray" stroke-width="0.2" points="363.19,-597.07 366.77,-587.1 357.75,-592.66 363.19,-597.07"/>
</g>
<!-- HSN -->
<g id="node21" class="node">
<title>HSN</title>
<ellipse fill="none" stroke="black" cx="380.81" cy="-492" rx="29.11" ry="18"/>
<text text-anchor="middle" x="380.81" y="-486.57" font-family="Times New Roman,serif" font-size="14.00">HSN</text>
</g>
<!-- ASK&#45;&gt;HSN -->
<g id="edge21" class="edge">
<title>ASK&#45;&gt;HSN</title>
<path fill="none" stroke="gray" stroke-width="0.2" d="M229.15,-978.66C269.86,-812.51 348.21,-509.5 348.21,-509.5 348.21,-509.5 348.41,-509.26 348.76,-508.83"/>
<polygon fill="gray" stroke="gray" stroke-width="0.2" points="351.37,-511.16 355.34,-501.34 346.11,-506.54 351.37,-511.16"/>
</g>
<!-- PVN -->
<g id="node22" class="node">
<title>PVN</title>
<ellipse fill="none" stroke="black" cx="380.81" cy="-413" rx="29.11" ry="18"/>
<text text-anchor="middle" x="380.81" y="-407.57" font-family="Times New Roman,serif" font-size="14.00">PVN</text>
</g>
<!-- ASK&#45;&gt;PVN -->
<g id="edge22" class="edge">
<title>ASK&#45;&gt;PVN</title>
<path fill="none" stroke="gray" stroke-width="0.2" d="M226.47,-977.89C266.3,-792.51 348.21,-430.5 348.21,-430.5 348.21,-430.5 348.41,-430.26 348.76,-429.83"/>
<polygon fill="gray" stroke="gray" stroke-width="0.2" points="351.37,-432.16 355.34,-422.34 346.11,-427.54 351.37,-432.16"/>
</g>
<!-- PVQ -->
<g id="node23" class="node">
<title>PVQ</title>
<ellipse fill="none" stroke="black" cx="380.81" cy="-334" rx="29.61" ry="18"/>
<text text-anchor="middle" x="380.81" y="-328.57" font-family="Times New Roman,serif" font-size="14.00">PVQ</text>
</g>
<!-- ASK&#45;&gt;PVQ -->
<g id="edge23" class="edge">
<title>ASK&#45;&gt;PVQ</title>
<path fill="none" stroke="gray" stroke-width="nan" d="M224.28,-977.57C263.21,-774.14 348.21,-351.5 348.21,-351.5 348.21,-351.5 351.15,-347.88 355.23,-343.45"/>
<polygon fill="gray" stroke="gray" stroke-width="nan" points="nan,-nan nan,-nan nan,-nan nan,-nan"/>
</g>
<!-- RIF -->
<g id="node24" class="node">
<title>RIF</title>
<ellipse fill="none" stroke="black" cx="380.81" cy="-255" rx="27" ry="18"/>
<text text-anchor="middle" x="380.81" y="-249.57" font-family="Times New Roman,serif" font-size="14.00">RIF</text>
</g>
<!-- ASK&#45;&gt;RIF -->
<g id="edge24" class="edge">
<title>ASK&#45;&gt;RIF</title>
<path fill="none" stroke="gray" stroke-width="nan" d="M224.5,-977.46C263.53,-761.82 348.21,-294 348.21,-294 348.21,-294 358.21,-281.66 366.96,-270.86"/>
<polygon fill="gray" stroke="gray" stroke-width="nan" points="nan,-nan nan,-nan nan,-nan nan,-nan"/>
</g>
<!-- RMG -->
<g id="node25" class="node">
<title>RMG</title>
<ellipse fill="none" stroke="black" cx="380.81" cy="-176" rx="32.1" ry="18"/>
<text text-anchor="middle" x="380.81" y="-170.57" font-family="Times New Roman,serif" font-size="14.00">RMG</text>
</g>
<!-- ASK&#45;&gt;RMG -->
<g id="edge25" class="edge">
<title>ASK&#45;&gt;RMG</title>
<path fill="none" stroke="gray" stroke-width="0.2" d="M222.75,-977.44C260.93,-745.4 348.21,-215 348.21,-215 348.21,-215 353.91,-207.97 360.47,-199.87"/>
<polygon fill="gray" stroke="gray" stroke-width="0.2" points="362.83,-202.52 366.4,-192.55 357.39,-198.11 362.83,-202.52"/>
</g>
<!-- SIB -->
<g id="node26" class="node">
<title>SIB</title>
<ellipse fill="none" stroke="black" cx="380.81" cy="-97" rx="27" ry="18"/>
<text text-anchor="middle" x="380.81" y="-91.58" font-family="Times New Roman,serif" font-size="14.00">SIB</text>
</g>
<!-- ASK&#45;&gt;SIB -->
<g id="edge26" class="edge">
<title>ASK&#45;&gt;SIB</title>
<path fill="none" stroke="gray" stroke-width="0.2" d="M221.34,-977.1C258.74,-729.17 348.21,-136 348.21,-136 348.21,-136 353.95,-128.91 360.54,-120.78"/>
<polygon fill="gray" stroke="gray" stroke-width="0.2" points="363.19,-123.07 366.77,-113.1 357.75,-118.66 363.19,-123.07"/>
</g>
<!-- SMD -->
<g id="node27" class="node">
<title>SMD</title>
<ellipse fill="none" stroke="black" cx="380.81" cy="-18" rx="30.61" ry="18"/>
<text text-anchor="middle" x="380.81" y="-12.57" font-family="Times New Roman,serif" font-size="14.00">SMD</text>
</g>
<!-- ASK&#45;&gt;SMD -->
<g id="edge27" class="edge">
<title>ASK&#45;&gt;SMD</title>
<path fill="none" stroke="gray" stroke-width="0.2" d="M220.11,-977C256.74,-713.96 348.21,-57 348.21,-57 348.21,-57 353.91,-49.97 360.47,-41.87"/>
<polygon fill="gray" stroke="gray" stroke-width="0.2" points="362.83,-44.52 366.4,-34.55 357.39,-40.11 362.83,-44.52"/>
</g>
<!-- ADL&#45;&gt;ASK -->
<g id="edge28" class="edge">
<title>ADL&#45;&gt;ASK</title>
<path fill="none" stroke="gray" stroke-width="2" d="M355.54,-1904.89C351.3,-1900.31 348.21,-1896.5 348.21,-1896.5 348.21,-1896.5 263.72,-1429.13 224.63,-1203.14"/>
<polygon fill="gray" stroke="gray" stroke-width="2" points="228.13,-1202.83 222.98,-1193.57 221.23,-1204.02 228.13,-1202.83"/>
</g>
<!-- AIA&#45;&gt;ASK -->
<g id="edge29" class="edge">
<title>AIA&#45;&gt;ASK</title>
<path fill="none" stroke="gray" stroke-width="5" d="M356.51,-1826.93C351.78,-1821.9 348.21,-1817.5 348.21,-1817.5 348.21,-1817.5 267.47,-1415.48 227.33,-1206.49"/>
<polygon fill="gray" stroke="gray" stroke-width="5" points="231.63,-1205.69 225.45,-1196.69 223.03,-1207.33 231.63,-1205.69"/>
</g>
<!-- AIB&#45;&gt;ASK -->
<g id="edge30" class="edge">
<title>AIB&#45;&gt;ASK</title>
<path fill="none" stroke="gray" stroke-width="0.2" d="M356.51,-1747.93C351.78,-1742.9 348.21,-1738.5 348.21,-1738.5 348.21,-1738.5 269.05,-1388.1 228.53,-1199.85"/>
<polygon fill="gray" stroke="gray" stroke-width="0.2" points="231.98,-1199.24 226.45,-1190.2 225.13,-1200.71 231.98,-1199.24"/>
</g>
<!-- AIM&#45;&gt;ASK -->
<g id="edge31" class="edge">
<title>AIM&#45;&gt;ASK</title>
<path fill="none" stroke="gray" stroke-width="5" d="M355.86,-1668.23C351.45,-1663.5 348.21,-1659.5 348.21,-1659.5 348.21,-1659.5 274.6,-1374.33 233.01,-1205.24"/>
<polygon fill="gray" stroke="gray" stroke-width="5" points="237.26,-1204.23 230.63,-1195.56 228.77,-1206.32 237.26,-1204.23"/>
</g>
<!-- ASE&#45;&gt;ASK -->
<g id="edge32" class="edge">
<title>ASE&#45;&gt;ASK</title>
<path fill="none" stroke="gray" stroke-width="0.2" d="M355.86,-1431.23C351.45,-1426.5 348.21,-1422.5 348.21,-1422.5 348.21,-1422.5 289.78,-1292.97 247.62,-1193.89"/>
<polygon fill="gray" stroke="gray" stroke-width="0.2" points="250.97,-1192.83 243.84,-1184.99 244.53,-1195.56 250.97,-1192.83"/>
</g>
<!-- ASG&#45;&gt;ASK -->
<g id="edge33" class="edge">
<title>ASG&#45;&gt;ASK</title>
<path fill="none" stroke="gray" stroke-width="2" d="M355.23,-1351.55C351.15,-1347.12 348.21,-1343.5 348.21,-1343.5 348.21,-1343.5 299.86,-1263.03 259.39,-1191.44"/>
<polygon fill="gray" stroke="gray" stroke-width="2" points="262.67,-1190.13 254.71,-1183.14 256.57,-1193.57 262.67,-1190.13"/>
</g>
<!-- ASH&#45;&gt;ASK -->
<g id="edge34" class="edge">
<title>ASH&#45;&gt;ASK</title>
<path fill="none" stroke="gray" stroke-width="2" d="M359.42,-1269.69C339.1,-1250.92 306.7,-1215.88 276.84,-1181.12"/>
<polygon fill="gray" stroke="gray" stroke-width="2" points="279.61,-1178.97 270.46,-1173.64 274.28,-1183.52 279.61,-1178.97"/>
</g>
<!-- ASI&#45;&gt;ASK -->
<g id="edge35" class="edge">
<title>ASI&#45;&gt;ASK</title>
<path fill="none" stroke="black" stroke-width="2" d="M354.84,-1197.68C339.2,-1189.8 317.98,-1176.81 296.44,-1162.29"/>
<polygon fill="black" stroke="black" stroke-width="2" points="298.6,-1159.52 288.37,-1156.76 294.64,-1165.3 298.6,-1159.52"/>
</g>
<!-- ASJ&#45;&gt;ASK -->
<g id="edge36" class="edge">
<title>ASJ&#45;&gt;ASK</title>
<path fill="none" stroke="gray" stroke-width="5" d="M354.87,-1129.98C345.27,-1129.49 333.56,-1128.02 320.97,-1125.86"/>
<polygon fill="gray" stroke="gray" stroke-width="5" points="322.03,-1121.6 311.39,-1124.05 320.4,-1130.2 322.03,-1121.6"/>
</g>
<!-- AVF&#45;&gt;ASK -->
<g id="edge37" class="edge">
<title>AVF&#45;&gt;ASK</title>
<path fill="none" stroke="gray" stroke-width="0.2" d="M367.98,-982.62C355.03,-995.44 332.91,-1012.81 309.08,-1029.67"/>
<polygon fill="gray" stroke="gray" stroke-width="0.2" points="307.38,-1026.59 301.19,-1035.19 311.39,-1032.32 307.38,-1026.59"/>
</g>
<!-- AVJ&#45;&gt;ASK -->
<g id="edge38" class="edge">
<title>AVJ&#45;&gt;ASK</title>
<path fill="none" stroke="gray" stroke-width="0.2" d="M371.36,-903.98C356.29,-926.89 323.27,-967.04 290.61,-1003.77"/>
<polygon fill="gray" stroke="gray" stroke-width="0.2" points="288.34,-1001.05 284.29,-1010.84 293.56,-1005.72 288.34,-1001.05"/>
</g>
<!-- AWA&#45;&gt;ASK -->
<g id="edge39" class="edge">
<title>AWA&#45;&gt;ASK</title>
<path fill="none" stroke="gray" stroke-width="0.2" d="M375.01,-826.21C366.17,-846.33 348.21,-868.5 348.21,-868.5 348.21,-868.5 310.74,-930.61 274.15,-988.36"/>
<polygon fill="gray" stroke="gray" stroke-width="0.2" points="271.34,-986.26 268.93,-996.58 277.25,-990.02 271.34,-986.26"/>
</g>
<!-- AWC&#45;&gt;ASK -->
<g id="edge40" class="edge">
<title>AWC&#45;&gt;ASK</title>
<path fill="none" stroke="gray" stroke-width="2" d="M375.01,-668.21C366.17,-688.33 348.21,-710.5 348.21,-710.5 348.21,-710.5 293.25,-862.33 251.47,-972.6"/>
<polygon fill="gray" stroke="gray" stroke-width="2" points="248.31,-971.06 248.03,-981.65 254.85,-973.55 248.31,-971.06"/>
</g>
<!-- HSN&#45;&gt;ASK -->
<g id="edge41" class="edge">
<title>HSN&#45;&gt;ASK</title>
<path fill="none" stroke="gray" stroke-width="2" d="M375.15,-509.9C366.36,-530.1 348.21,-552.5 348.21,-552.5 348.21,-552.5 281.29,-811.31 239.01,-967.93"/>
<polygon fill="gray" stroke="gray" stroke-width="2" points="235.65,-966.94 236.42,-977.5 242.41,-968.77 235.65,-966.94"/>
</g>
<!-- PVN&#45;&gt;ASK -->
<g id="edge42" class="edge">
<title>PVN&#45;&gt;ASK</title>
<path fill="none" stroke="blue" stroke-width="5" d="M375.15,-430.9C366.36,-451.1 348.21,-473.5 348.21,-473.5 348.21,-473.5 277.65,-785.34 235.66,-963.47"/>
<polygon fill="blue" stroke="blue" stroke-width="5" points="231.42,-962.41 233.38,-973.15 239.93,-964.42 231.42,-962.41"/>
</g>
<!-- PVQ&#45;&gt;ASK -->
<g id="edge43" class="edge">
<title>PVQ&#45;&gt;ASK</title>
<path fill="none" stroke="black" stroke-width="5" d="M375.15,-351.9C366.36,-372.1 348.21,-394.5 348.21,-394.5 348.21,-394.5 273.74,-764.79 232.28,-962.84"/>
<polygon fill="black" stroke="black" stroke-width="5" points="228.04,-961.75 230.27,-972.44 236.6,-963.55 228.04,-961.75"/>
</g>
<!-- AVH -->
<g id="node28" class="node">
<title>AVH</title>
<ellipse fill="none" stroke="black" cx="30.11" cy="-1084" rx="30.11" ry="18"/>
<text text-anchor="middle" x="30.11" y="-1078.58" font-family="Times New Roman,serif" font-size="14.00">AVH</text>
</g>
<!-- AVH&#45;&gt;ASK -->
<g id="edge44" class="edge">
<title>AVH&#45;&gt;ASK</title>
<path fill="none" stroke="gray" stroke-width="0.2" d="M60.69,-1084C68.24,-1084 76.84,-1084 85.97,-1084"/>
<polygon fill="gray" stroke="gray" stroke-width="0.2" points="85.76,-1087.5 95.76,-1084 85.76,-1080.5 85.76,-1087.5"/>
</g>
</g>
</svg>
