<?xml version="1.0" encoding="UTF-8" standalone="no"?>
<!DOCTYPE svg PUBLIC "-//W3C//DTD SVG 1.1//EN"
 "http://www.w3.org/Graphics/SVG/1.1/DTD/svg11.dtd">
<!-- Generated by graphviz version 11.0.0 (20240428.1522)
 -->
<!-- Pages: 1 -->
<svg width="421pt" height="1150pt"
 viewBox="0.00 0.00 421.41 1150.00" xmlns="http://www.w3.org/2000/svg" xmlns:xlink="http://www.w3.org/1999/xlink">
<g id="graph0" class="graph" transform="scale(1 1) rotate(0) translate(4 1146)">
<polygon fill="white" stroke="none" points="-4,4 -4,-1146 417.41,-1146 417.41,4 -4,4"/>
<!-- AUA -->
<g id="node1" class="node">
<title>AUA</title>
<ellipse fill="none" stroke="black" cx="209.2" cy="-531" rx="108" ry="108"/>
<text text-anchor="middle" x="209.2" y="-512" font-family="Times New Roman,serif" font-size="50.00">AUA</text>
</g>
<!-- AUA&#45;&gt;AUA -->
<g id="edge1" class="edge">
<title>AUA&#45;&gt;AUA</title>
<path fill="none" stroke="gray" stroke-width="0.2" d="M176.87,-634.39C178.79,-661.51 189.56,-682 209.2,-682 226.31,-682 236.69,-666.45 240.35,-644.52"/>
<polygon fill="gray" stroke="gray" stroke-width="0.2" points="243.82,-645.03 241.5,-634.69 236.86,-644.22 243.82,-645.03"/>
</g>
<!-- ADF -->
<g id="node2" class="node">
<title>ADF</title>
<ellipse fill="none" stroke="black" cx="383.31" cy="-1124" rx="29.11" ry="18"/>
<text text-anchor="middle" x="383.31" y="-1118.58" font-family="Times New Roman,serif" font-size="14.00">ADF</text>
</g>
<!-- AUA&#45;&gt;ADF -->
<g id="edge2" class="edge">
<title>AUA&#45;&gt;ADF</title>
<path fill="none" stroke="gray" stroke-width="0.2" d="M240.62,-634.79C282.6,-789.99 353.2,-1063.5 353.2,-1063.5 353.2,-1063.5 365.32,-1079.74 373.92,-1097.04"/>
<polygon fill="gray" stroke="gray" stroke-width="0.2" points="370.58,-1098.15 377.89,-1105.83 376.96,-1095.27 370.58,-1098.15"/>
</g>
<!-- AIB -->
<g id="node3" class="node">
<title>AIB</title>
<ellipse fill="none" stroke="black" cx="383.31" cy="-1045" rx="27" ry="18"/>
<text text-anchor="middle" x="383.31" y="-1039.58" font-family="Times New Roman,serif" font-size="14.00">AIB</text>
</g>
<!-- AUA&#45;&gt;AIB -->
<g id="edge3" class="edge">
<title>AUA&#45;&gt;AIB</title>
<path fill="none" stroke="gray" stroke-width="0.2" d="M245.46,-633.26C287.8,-767.26 353.2,-984.5 353.2,-984.5 353.2,-984.5 365.32,-1000.74 373.92,-1018.04"/>
<polygon fill="gray" stroke="gray" stroke-width="0.2" points="370.58,-1019.15 377.89,-1026.83 376.96,-1016.27 370.58,-1019.15"/>
</g>
<!-- AIN -->
<g id="node4" class="node">
<title>AIN</title>
<ellipse fill="none" stroke="black" cx="383.31" cy="-966" rx="27" ry="18"/>
<text text-anchor="middle" x="383.31" y="-960.58" font-family="Times New Roman,serif" font-size="14.00">AIN</text>
</g>
<!-- AUA&#45;&gt;AIN -->
<g id="edge4" class="edge">
<title>AUA&#45;&gt;AIN</title>
<path fill="none" stroke="gray" stroke-width="2" d="M251.85,-630.56C294.07,-741.74 353.2,-905.5 353.2,-905.5 353.2,-905.5 364.24,-920.29 372.72,-936.67"/>
<polygon fill="gray" stroke="gray" stroke-width="2" points="369.36,-937.75 376.74,-945.36 375.71,-934.81 369.36,-937.75"/>
</g>
<!-- AIY -->
<g id="node5" class="node">
<title>AIY</title>
<ellipse fill="none" stroke="black" cx="383.31" cy="-887" rx="27" ry="18"/>
<text text-anchor="middle" x="383.31" y="-881.58" font-family="Times New Roman,serif" font-size="14.00">AIY</text>
</g>
<!-- AUA&#45;&gt;AIY -->
<g id="edge5" class="edge">
<title>AUA&#45;&gt;AIY</title>
<path fill="none" stroke="gray" stroke-width="0.2" d="M260.82,-626.32C301.96,-712.9 353.2,-826.5 353.2,-826.5 353.2,-826.5 365.32,-842.74 373.92,-860.04"/>
<polygon fill="gray" stroke="gray" stroke-width="0.2" points="370.58,-861.15 377.89,-868.83 376.96,-858.27 370.58,-861.15"/>
</g>
<!-- AIZ -->
<g id="node6" class="node">
<title>AIZ</title>
<ellipse fill="none" stroke="black" cx="383.31" cy="-808" rx="27" ry="18"/>
<text text-anchor="middle" x="383.31" y="-802.58" font-family="Times New Roman,serif" font-size="14.00">AIZ</text>
</g>
<!-- AUA&#45;&gt;AIZ -->
<g id="edge6" class="edge">
<title>AUA&#45;&gt;AIZ</title>
<path fill="none" stroke="gray" stroke-width="2" d="M273.55,-618.28C311.8,-678.59 353.2,-747.5 353.2,-747.5 353.2,-747.5 364.24,-762.29 372.72,-778.67"/>
<polygon fill="gray" stroke="gray" stroke-width="2" points="369.36,-779.75 376.74,-787.36 375.71,-776.81 369.36,-779.75"/>
</g>
<!-- AVA -->
<g id="node7" class="node">
<title>AVA</title>
<ellipse fill="none" stroke="black" cx="383.31" cy="-729" rx="30.11" ry="18"/>
<text text-anchor="middle" x="383.31" y="-723.58" font-family="Times New Roman,serif" font-size="14.00">AVA</text>
</g>
<!-- AUA&#45;&gt;AVA -->
<g id="edge7" class="edge">
<title>AUA&#45;&gt;AVA</title>
<path fill="none" stroke="red" stroke-width="5" d="M280.95,-612.39C308.36,-643.92 337.91,-677.92 357.99,-701.02"/>
<polygon fill="red" stroke="red" stroke-width="5" points="354.41,-703.57 364.27,-708.25 361.01,-697.83 354.41,-703.57"/>
</g>
<!-- AVD -->
<g id="node8" class="node">
<title>AVD</title>
<ellipse fill="none" stroke="black" cx="383.31" cy="-650" rx="30.11" ry="18"/>
<text text-anchor="middle" x="383.31" y="-644.58" font-family="Times New Roman,serif" font-size="14.00">AVD</text>
</g>
<!-- AUA&#45;&gt;AVD -->
<g id="edge8" class="edge">
<title>AUA&#45;&gt;AVD</title>
<path fill="none" stroke="gray" stroke-width="2" d="M298.52,-592.07C317.86,-605.44 337.04,-618.7 352.16,-629.16"/>
<polygon fill="gray" stroke="gray" stroke-width="2" points="350.17,-632.03 360.38,-634.84 354.15,-626.27 350.17,-632.03"/>
</g>
<!-- AVE -->
<g id="node9" class="node">
<title>AVE</title>
<ellipse fill="none" stroke="black" cx="383.31" cy="-571" rx="29.11" ry="18"/>
<text text-anchor="middle" x="383.31" y="-565.58" font-family="Times New Roman,serif" font-size="14.00">AVE</text>
</g>
<!-- AUA&#45;&gt;AVE -->
<g id="edge9" class="edge">
<title>AUA&#45;&gt;AVE</title>
<path fill="none" stroke="gray" stroke-width="5" d="M314.78,-555.31C323.61,-557.36 332.16,-559.34 340.04,-561.18"/>
<polygon fill="gray" stroke="gray" stroke-width="5" points="338.81,-565.38 349.54,-563.38 340.79,-556.86 338.81,-565.38"/>
</g>
<!-- BAG -->
<g id="node10" class="node">
<title>BAG</title>
<ellipse fill="none" stroke="black" cx="383.31" cy="-492" rx="30.11" ry="18"/>
<text text-anchor="middle" x="383.31" y="-486.57" font-family="Times New Roman,serif" font-size="14.00">BAG</text>
</g>
<!-- AUA&#45;&gt;BAG -->
<g id="edge10" class="edge">
<title>AUA&#45;&gt;BAG</title>
<path fill="none" stroke="gray" stroke-width="2" d="M310.32,-492.38C321.37,-490.18 332.11,-488.42 341.78,-487.26"/>
<polygon fill="gray" stroke="gray" stroke-width="2" points="342,-490.76 351.63,-486.33 341.35,-483.79 342,-490.76"/>
</g>
<!-- DVA -->
<g id="node11" class="node">
<title>DVA</title>
<ellipse fill="none" stroke="black" cx="383.31" cy="-413" rx="30.11" ry="18"/>
<text text-anchor="middle" x="383.31" y="-407.57" font-family="Times New Roman,serif" font-size="14.00">DVA</text>
</g>
<!-- AUA&#45;&gt;DVA -->
<g id="edge11" class="edge">
<title>AUA&#45;&gt;DVA</title>
<path fill="none" stroke="gray" stroke-width="0.2" d="M290.71,-459.71C310.2,-446.13 330.07,-433.41 346.3,-424.29"/>
<polygon fill="gray" stroke="gray" stroke-width="0.2" points="347.53,-427.6 354.65,-419.75 344.19,-421.45 347.53,-427.6"/>
</g>
<!-- RIA -->
<g id="node12" class="node">
<title>RIA</title>
<ellipse fill="none" stroke="black" cx="383.31" cy="-334" rx="27" ry="18"/>
<text text-anchor="middle" x="383.31" y="-328.57" font-family="Times New Roman,serif" font-size="14.00">RIA</text>
</g>
<!-- AUA&#45;&gt;RIA -->
<g id="edge12" class="edge">
<title>AUA&#45;&gt;RIA</title>
<path fill="none" stroke="black" stroke-width="5" d="M273.07,-443.45C299.68,-411.74 329.49,-378.57 351.24,-356.82"/>
<polygon fill="black" stroke="black" stroke-width="5" points="354.09,-360.15 358.24,-350.05 348.01,-353.86 354.09,-360.15"/>
</g>
<!-- RIB -->
<g id="node13" class="node">
<title>RIB</title>
<ellipse fill="none" stroke="black" cx="383.31" cy="-255" rx="27" ry="18"/>
<text text-anchor="middle" x="383.31" y="-249.57" font-family="Times New Roman,serif" font-size="14.00">RIB</text>
</g>
<!-- AUA&#45;&gt;RIB -->
<g id="edge13" class="edge">
<title>AUA&#45;&gt;RIB</title>
<path fill="none" stroke="black" stroke-width="5" d="M258.62,-434.47C292.16,-375.17 333.3,-306.52 351.54,-277.67"/>
<polygon fill="black" stroke="black" stroke-width="5" points="354.93,-280.48 356.81,-269.72 347.64,-275.65 354.93,-280.48"/>
</g>
<!-- RIR -->
<g id="node14" class="node">
<title>RIR</title>
<ellipse fill="none" stroke="black" cx="383.31" cy="-176" rx="27" ry="18"/>
<text text-anchor="middle" x="383.31" y="-170.57" font-family="Times New Roman,serif" font-size="14.00">RIR</text>
</g>
<!-- AUA&#45;&gt;RIR -->
<g id="edge14" class="edge">
<title>AUA&#45;&gt;RIR</title>
<path fill="none" stroke="gray" stroke-width="0.2" d="M248.9,-430.12C291.25,-330.4 353.2,-193.5 353.2,-193.5 353.2,-193.5 353.38,-193.26 353.71,-192.83"/>
<polygon fill="gray" stroke="gray" stroke-width="0.2" points="356.2,-195.32 359.76,-185.35 350.75,-190.92 356.2,-195.32"/>
</g>
<!-- SAA -->
<g id="node15" class="node">
<title>SAA</title>
<ellipse fill="none" stroke="black" cx="383.31" cy="-97" rx="29.11" ry="18"/>
<text text-anchor="middle" x="383.31" y="-91.58" font-family="Times New Roman,serif" font-size="14.00">SAA</text>
</g>
<!-- AUA&#45;&gt;SAA -->
<g id="edge15" class="edge">
<title>AUA&#45;&gt;SAA</title>
<path fill="none" stroke="gray" stroke-width="0.2" d="M246.94,-429.53C289.3,-312.5 353.2,-136 353.2,-136 353.2,-136 358.24,-129.25 364.12,-121.37"/>
<polygon fill="gray" stroke="gray" stroke-width="0.2" points="366.78,-123.66 369.95,-113.56 361.17,-119.48 366.78,-123.66"/>
</g>
<!-- URX -->
<g id="node16" class="node">
<title>URX</title>
<ellipse fill="none" stroke="black" cx="383.31" cy="-18" rx="30.11" ry="18"/>
<text text-anchor="middle" x="383.31" y="-12.57" font-family="Times New Roman,serif" font-size="14.00">URX</text>
</g>
<!-- AUA&#45;&gt;URX -->
<g id="edge16" class="edge">
<title>AUA&#45;&gt;URX</title>
<path fill="none" stroke="gray" stroke-width="5" d="M237.69,-426.39C273.63,-300.34 333.85,-99.78 352.89,-43.67"/>
<polygon fill="gray" stroke="gray" stroke-width="5" points="356.87,-45.52 356.33,-34.62 348.69,-42.41 356.87,-45.52"/>
</g>
<!-- ADF&#45;&gt;AUA -->
<g id="edge17" class="edge">
<title>ADF&#45;&gt;AUA</title>
<path fill="none" stroke="black" stroke-width="5" d="M359.09,-1113.87C355.63,-1109.76 353.2,-1106.5 353.2,-1106.5 353.2,-1106.5 279.59,-821.33 238,-652.24"/>
<polygon fill="black" stroke="black" stroke-width="5" points="242.25,-651.23 235.62,-642.56 233.76,-653.32 242.25,-651.23"/>
</g>
<!-- AIB&#45;&gt;AUA -->
<g id="edge18" class="edge">
<title>AIB&#45;&gt;AUA</title>
<path fill="none" stroke="red" stroke-width="0.2" d="M359.95,-1035.89C356.04,-1031.31 353.2,-1027.5 353.2,-1027.5 353.2,-1027.5 282.28,-791.91 240.33,-645.05"/>
<polygon fill="red" stroke="red" stroke-width="0.2" points="243.8,-644.46 237.69,-635.8 237.06,-646.37 243.8,-644.46"/>
</g>
<!-- AIN&#45;&gt;AUA -->
<g id="edge19" class="edge">
<title>AIN&#45;&gt;AUA</title>
<path fill="none" stroke="black" stroke-width="5" d="M359.95,-956.89C356.04,-952.31 353.2,-948.5 353.2,-948.5 353.2,-948.5 289.85,-773.06 247.48,-649.39"/>
<polygon fill="black" stroke="black" stroke-width="5" points="251.68,-648.16 244.31,-640.11 243.4,-650.98 251.68,-648.16"/>
</g>
<!-- AIY&#45;&gt;AUA -->
<g id="edge20" class="edge">
<title>AIY&#45;&gt;AUA</title>
<path fill="none" stroke="gray" stroke-width="0.2" d="M359.95,-877.89C356.04,-873.31 353.2,-869.5 353.2,-869.5 353.2,-869.5 294.77,-739.97 252.61,-640.89"/>
<polygon fill="gray" stroke="gray" stroke-width="0.2" points="255.96,-639.83 248.83,-631.99 249.52,-642.56 255.96,-639.83"/>
</g>
<!-- AIZ&#45;&gt;AUA -->
<g id="edge21" class="edge">
<title>AIZ&#45;&gt;AUA</title>
<path fill="none" stroke="gray" stroke-width="2" d="M359.95,-798.89C356.04,-794.31 353.2,-790.5 353.2,-790.5 353.2,-790.5 304.85,-710.03 264.38,-638.44"/>
<polygon fill="gray" stroke="gray" stroke-width="2" points="267.66,-637.13 259.7,-630.14 261.56,-640.57 267.66,-637.13"/>
</g>
<!-- BAG&#45;&gt;AUA -->
<g id="edge22" class="edge">
<title>BAG&#45;&gt;AUA</title>
<path fill="none" stroke="gray" stroke-width="2" d="M364.27,-506.44C355.09,-510.66 343.06,-514.93 329.76,-518.89"/>
<polygon fill="gray" stroke="gray" stroke-width="2" points="328.82,-515.52 320.15,-521.61 330.73,-522.26 328.82,-515.52"/>
</g>
<!-- DVA&#45;&gt;AUA -->
<g id="edge23" class="edge">
<title>DVA&#45;&gt;AUA</title>
<path fill="none" stroke="red" stroke-width="2" d="M370.58,-429.69C358.45,-441.85 338.23,-458.08 316.17,-474.08"/>
<polygon fill="red" stroke="red" stroke-width="2" points="314.13,-471.24 308.03,-479.9 318.2,-476.93 314.13,-471.24"/>
</g>
<!-- RIA&#45;&gt;AUA -->
<g id="edge24" class="edge">
<title>RIA&#45;&gt;AUA</title>
<path fill="none" stroke="gray" stroke-width="0.2" d="M373.82,-351.22C359.06,-373.92 327.19,-413.27 295.46,-449.53"/>
<polygon fill="gray" stroke="gray" stroke-width="0.2" points="292.88,-447.17 288.9,-456.99 298.13,-451.79 292.88,-447.17"/>
</g>
<!-- RIB&#45;&gt;AUA -->
<g id="edge25" class="edge">
<title>RIB&#45;&gt;AUA</title>
<path fill="none" stroke="red" stroke-width="2" d="M378.01,-273.05C369.92,-293.53 353.2,-316.5 353.2,-316.5 353.2,-316.5 316.93,-376.37 280.91,-433.05"/>
<polygon fill="red" stroke="red" stroke-width="2" points="278.02,-431.09 275.59,-441.4 283.92,-434.85 278.02,-431.09"/>
</g>
<!-- RIR&#45;&gt;AUA -->
<g id="edge26" class="edge">
<title>RIR&#45;&gt;AUA</title>
<path fill="none" stroke="red" stroke-width="5" d="M378.01,-193.9C369.92,-214.1 353.2,-236.5 353.2,-236.5 353.2,-236.5 307.5,-337.49 267.77,-421.4"/>
<polygon fill="red" stroke="red" stroke-width="5" points="263.84,-419.49 263.5,-430.4 271.74,-423.24 263.84,-419.49"/>
</g>
<!-- URX&#45;&gt;AUA -->
<g id="edge27" class="edge">
<title>URX&#45;&gt;AUA</title>
<path fill="none" stroke="gray" stroke-width="5" d="M378.01,-35.9C369.92,-56.1 353.2,-78.5 353.2,-78.5 353.2,-78.5 292.57,-279.49 250.26,-413.77"/>
<polygon fill="gray" stroke="gray" stroke-width="5" points="246.18,-412.18 247.34,-423.04 254.52,-414.82 246.18,-412.18"/>
</g>
<!-- AFD -->
<g id="node17" class="node">
<title>AFD</title>
<ellipse fill="none" stroke="black" cx="32.6" cy="-808" rx="29.11" ry="18"/>
<text text-anchor="middle" x="32.6" y="-802.58" font-family="Times New Roman,serif" font-size="14.00">AFD</text>
</g>
<!-- AFD&#45;&gt;AUA -->
<g id="edge28" class="edge">
<title>AFD&#45;&gt;AUA</title>
<path fill="none" stroke="gray" stroke-width="0.2" d="M46.45,-792.14C55.2,-781.34 65.2,-769 65.2,-769 65.2,-769 108.54,-696.88 147.49,-632.04"/>
<polygon fill="gray" stroke="gray" stroke-width="0.2" points="150.4,-633.99 152.55,-623.62 144.4,-630.39 150.4,-633.99"/>
</g>
<!-- AQR -->
<g id="node18" class="node">
<title>AQR</title>
<ellipse fill="none" stroke="black" cx="32.6" cy="-729" rx="30.61" ry="18"/>
<text text-anchor="middle" x="32.6" y="-723.58" font-family="Times New Roman,serif" font-size="14.00">AQR</text>
</g>
<!-- AQR&#45;&gt;AUA -->
<g id="edge29" class="edge">
<title>AQR&#45;&gt;AUA</title>
<path fill="none" stroke="gray" stroke-width="0.2" d="M47.59,-713.13C65.8,-692.48 99.02,-654.81 130.54,-619.06"/>
<polygon fill="gray" stroke="gray" stroke-width="0.2" points="133.05,-621.52 137.04,-611.7 127.8,-616.89 133.05,-621.52"/>
</g>
<!-- AWA -->
<g id="node19" class="node">
<title>AWA</title>
<ellipse fill="none" stroke="black" cx="32.6" cy="-650" rx="32.6" ry="18"/>
<text text-anchor="middle" x="32.6" y="-644.58" font-family="Times New Roman,serif" font-size="14.00">AWA</text>
</g>
<!-- AWA&#45;&gt;AUA -->
<g id="edge30" class="edge">
<title>AWA&#45;&gt;AUA</title>
<path fill="none" stroke="gray" stroke-width="2" d="M53.97,-636.12C68.05,-626.52 87.94,-612.96 108.77,-598.77"/>
<polygon fill="gray" stroke="gray" stroke-width="2" points="110.59,-601.76 116.89,-593.24 106.65,-595.98 110.59,-601.76"/>
</g>
<!-- AWB -->
<g id="node20" class="node">
<title>AWB</title>
<ellipse fill="none" stroke="black" cx="32.6" cy="-571" rx="32.1" ry="18"/>
<text text-anchor="middle" x="32.6" y="-565.58" font-family="Times New Roman,serif" font-size="14.00">AWB</text>
</g>
<!-- AWB&#45;&gt;AUA -->
<g id="edge31" class="edge">
<title>AWB&#45;&gt;AUA</title>
<path fill="none" stroke="gray" stroke-width="0.2" d="M62.83,-564.3C71.84,-562.24 82.36,-559.83 93.54,-557.27"/>
<polygon fill="gray" stroke="gray" stroke-width="0.2" points="94.26,-560.69 103.23,-555.05 92.7,-553.87 94.26,-560.69"/>
</g>
<!-- IL2 -->
<g id="node21" class="node">
<title>IL2</title>
<ellipse fill="none" stroke="black" cx="32.6" cy="-492" rx="27" ry="18"/>
<text text-anchor="middle" x="32.6" y="-486.57" font-family="Times New Roman,serif" font-size="14.00">IL2</text>
</g>
<!-- IL2&#45;&gt;AUA -->
<g id="edge32" class="edge">
<title>IL2&#45;&gt;AUA</title>
<path fill="none" stroke="gray" stroke-width="0.2" d="M58.62,-497.59C68.46,-499.79 80.51,-502.48 93.45,-505.37"/>
<polygon fill="gray" stroke="gray" stroke-width="0.2" points="92.69,-508.78 103.21,-507.55 94.21,-501.95 92.69,-508.78"/>
</g>
<!-- RIH -->
<g id="node22" class="node">
<title>RIH</title>
<ellipse fill="none" stroke="black" cx="32.6" cy="-413" rx="27" ry="18"/>
<text text-anchor="middle" x="32.6" y="-407.57" font-family="Times New Roman,serif" font-size="14.00">RIH</text>
</g>
<!-- RIH&#45;&gt;AUA -->
<g id="edge33" class="edge">
<title>RIH&#45;&gt;AUA</title>
<path fill="none" stroke="red" stroke-width="0.2" d="M52.29,-425.63C66.94,-435.53 88.56,-450.14 111.06,-465.35"/>
<polygon fill="red" stroke="red" stroke-width="0.2" points="108.88,-468.1 119.12,-470.8 112.8,-462.3 108.88,-468.1"/>
</g>
<!-- RIM -->
<g id="node23" class="node">
<title>RIM</title>
<ellipse fill="none" stroke="black" cx="32.6" cy="-334" rx="28.11" ry="18"/>
<text text-anchor="middle" x="32.6" y="-328.57" font-family="Times New Roman,serif" font-size="14.00">RIM</text>
</g>
<!-- RIM&#45;&gt;AUA -->
<g id="edge34" class="edge">
<title>RIM&#45;&gt;AUA</title>
<path fill="none" stroke="gray" stroke-width="0.2" d="M47.3,-349.46C65.39,-369.87 98.65,-407.4 130.26,-443.06"/>
<polygon fill="gray" stroke="gray" stroke-width="0.2" points="127.52,-445.24 136.77,-450.41 132.76,-440.6 127.52,-445.24"/>
</g>
<!-- URY -->
<g id="node24" class="node">
<title>URY</title>
<ellipse fill="none" stroke="black" cx="32.6" cy="-255" rx="30.11" ry="18"/>
<text text-anchor="middle" x="32.6" y="-249.57" font-family="Times New Roman,serif" font-size="14.00">URY</text>
</g>
<!-- URY&#45;&gt;AUA -->
<g id="edge35" class="edge">
<title>URY&#45;&gt;AUA</title>
<path fill="none" stroke="gray" stroke-width="0.2" d="M46.45,-271.27C55.2,-282.34 65.2,-295 65.2,-295 65.2,-295 108.24,-366.03 147.1,-430.15"/>
<polygon fill="gray" stroke="gray" stroke-width="0.2" points="143.97,-431.74 152.14,-438.48 149.95,-428.12 143.97,-431.74"/>
</g>
</g>
</svg>
