<?xml version="1.0" encoding="UTF-8" standalone="no"?>
<!DOCTYPE svg PUBLIC "-//W3C//DTD SVG 1.1//EN"
 "http://www.w3.org/Graphics/SVG/1.1/DTD/svg11.dtd">
<!-- Generated by graphviz version 11.0.0 (20240428.1522)
 -->
<!-- Pages: 1 -->
<svg width="422pt" height="3283pt"
 viewBox="0.00 0.00 422.41 3283.00" xmlns="http://www.w3.org/2000/svg" xmlns:xlink="http://www.w3.org/1999/xlink">
<g id="graph0" class="graph" transform="scale(1 1) rotate(0) translate(4 3279)">
<polygon fill="white" stroke="none" points="-4,4 -4,-3279 418.41,-3279 418.41,4 -4,4"/>
<!-- AVA -->
<g id="node1" class="node">
<title>AVA</title>
<ellipse fill="none" stroke="black" cx="209.2" cy="-1637" rx="108" ry="108"/>
<text text-anchor="middle" x="209.2" y="-1618" font-family="Times New Roman,serif" font-size="50.00">AVA</text>
</g>
<!-- ADA -->
<g id="node2" class="node">
<title>ADA</title>
<ellipse fill="none" stroke="black" cx="383.81" cy="-1874" rx="30.11" ry="18"/>
<text text-anchor="middle" x="383.81" y="-1868.58" font-family="Times New Roman,serif" font-size="14.00">ADA</text>
</g>
<!-- AVA&#45;&gt;ADA -->
<g id="edge1" class="edge">
<title>AVA&#45;&gt;ADA</title>
<path fill="none" stroke="gray" stroke-width="2" d="M281.91,-1717.46C317.59,-1764.19 353.2,-1813.5 353.2,-1813.5 353.2,-1813.5 364.43,-1828.29 373.05,-1844.67"/>
<polygon fill="gray" stroke="gray" stroke-width="2" points="369.72,-1845.81 377.15,-1853.36 376.05,-1842.83 369.72,-1845.81"/>
</g>
<!-- AVB -->
<g id="node3" class="node">
<title>AVB</title>
<ellipse fill="none" stroke="black" cx="383.81" cy="-1795" rx="29.61" ry="18"/>
<text text-anchor="middle" x="383.81" y="-1789.58" font-family="Times New Roman,serif" font-size="14.00">AVB</text>
</g>
<!-- AVA&#45;&gt;AVB -->
<g id="edge2" class="edge">
<title>AVA&#45;&gt;AVB</title>
<path fill="none" stroke="gray" stroke-width="0.2" d="M297.01,-1700.34C323.6,-1724.7 350.13,-1751.05 366.49,-1770.14"/>
<polygon fill="gray" stroke="gray" stroke-width="0.2" points="363.6,-1772.13 372.66,-1777.62 369,-1767.68 363.6,-1772.13"/>
</g>
<!-- AVD -->
<g id="node4" class="node">
<title>AVD</title>
<ellipse fill="none" stroke="black" cx="383.81" cy="-1716" rx="30.11" ry="18"/>
<text text-anchor="middle" x="383.81" y="-1710.58" font-family="Times New Roman,serif" font-size="14.00">AVD</text>
</g>
<!-- AVA&#45;&gt;AVD -->
<g id="edge3" class="edge">
<title>AVA&#45;&gt;AVD</title>
<path fill="none" stroke="gray" stroke-width="0.2" d="M307.85,-1681.69C323.02,-1688.64 337.71,-1695.36 350.01,-1700.99"/>
<polygon fill="gray" stroke="gray" stroke-width="0.2" points="348.5,-1704.15 359.05,-1705.13 351.41,-1697.78 348.5,-1704.15"/>
</g>
<!-- RIA -->
<g id="node5" class="node">
<title>RIA</title>
<ellipse fill="none" stroke="black" cx="383.81" cy="-1637" rx="27" ry="18"/>
<text text-anchor="middle" x="383.81" y="-1631.58" font-family="Times New Roman,serif" font-size="14.00">RIA</text>
</g>
<!-- AVA&#45;&gt;RIA -->
<g id="edge4" class="edge">
<title>AVA&#45;&gt;RIA</title>
<path fill="none" stroke="gray" stroke-width="0.2" d="M316.07,-1621.25C329.16,-1621.76 341.61,-1622.78 352.13,-1624.33"/>
<polygon fill="gray" stroke="gray" stroke-width="0.2" points="351.22,-1627.72 361.67,-1625.99 352.42,-1620.83 351.22,-1627.72"/>
</g>
<!-- RIC -->
<g id="node6" class="node">
<title>RIC</title>
<ellipse fill="none" stroke="black" cx="383.81" cy="-1558" rx="27" ry="18"/>
<text text-anchor="middle" x="383.81" y="-1552.58" font-family="Times New Roman,serif" font-size="14.00">RIC</text>
</g>
<!-- AVA&#45;&gt;RIC -->
<g id="edge5" class="edge">
<title>AVA&#45;&gt;RIC</title>
<path fill="none" stroke="gray" stroke-width="0.2" d="M301.05,-1579.31C317.23,-1572.05 333.2,-1565.64 346.67,-1561.13"/>
<polygon fill="gray" stroke="gray" stroke-width="0.2" points="347.66,-1564.49 356.16,-1558.16 345.57,-1557.81 347.66,-1564.49"/>
</g>
<!-- SAA -->
<g id="node7" class="node">
<title>SAA</title>
<ellipse fill="none" stroke="black" cx="383.81" cy="-1479" rx="29.11" ry="18"/>
<text text-anchor="middle" x="383.81" y="-1473.58" font-family="Times New Roman,serif" font-size="14.00">SAA</text>
</g>
<!-- AVA&#45;&gt;SAA -->
<g id="edge6" class="edge">
<title>AVA&#45;&gt;SAA</title>
<path fill="none" stroke="gray" stroke-width="2" d="M280.91,-1556.39C304.47,-1534.1 329.64,-1511.99 349.07,-1496.78"/>
<polygon fill="gray" stroke="gray" stroke-width="2" points="350.96,-1499.74 356.82,-1490.92 346.73,-1494.16 350.96,-1499.74"/>
</g>
<!-- SMD -->
<g id="node8" class="node">
<title>SMD</title>
<ellipse fill="none" stroke="black" cx="383.81" cy="-1400" rx="30.61" ry="18"/>
<text text-anchor="middle" x="383.81" y="-1394.58" font-family="Times New Roman,serif" font-size="14.00">SMD</text>
</g>
<!-- AVA&#45;&gt;SMD -->
<g id="edge7" class="edge">
<title>AVA&#45;&gt;SMD</title>
<path fill="none" stroke="gray" stroke-width="2" d="M265.08,-1544.05C297.69,-1495.77 335.18,-1443.48 351.5,-1421.23"/>
<polygon fill="gray" stroke="gray" stroke-width="2" points="354.21,-1423.46 357.38,-1413.35 348.6,-1419.27 354.21,-1423.46"/>
</g>
<!-- ADA&#45;&gt;AVA -->
<g id="edge8" class="edge">
<title>ADA&#45;&gt;AVA</title>
<path fill="none" stroke="black" stroke-width="5" d="M358.91,-1863.54C355.54,-1859.58 353.2,-1856.5 353.2,-1856.5 353.2,-1856.5 312.1,-1799.59 273.97,-1743.48"/>
<polygon fill="black" stroke="black" stroke-width="5" points="277.59,-1741.03 268.37,-1735.19 270.34,-1745.93 277.59,-1741.03"/>
</g>
<!-- AVB&#45;&gt;AVA -->
<g id="edge9" class="edge">
<title>AVB&#45;&gt;AVA</title>
<path fill="none" stroke="gray" stroke-width="2" d="M359.23,-1784.91C341.23,-1771.81 315.32,-1749.62 290.13,-1726.25"/>
<polygon fill="gray" stroke="gray" stroke-width="2" points="292.81,-1723.96 283.11,-1719.68 288.02,-1729.07 292.81,-1723.96"/>
</g>
<!-- RIA&#45;&gt;AVA -->
<g id="edge10" class="edge">
<title>RIA&#45;&gt;AVA</title>
<path fill="none" stroke="gray" stroke-width="2" d="M361.97,-1647.95C352.87,-1649.84 341.42,-1651.22 328.9,-1652.07"/>
<polygon fill="gray" stroke="gray" stroke-width="2" points="328.9,-1648.56 319.1,-1652.59 329.27,-1655.55 328.9,-1648.56"/>
</g>
<!-- RIC&#45;&gt;AVA -->
<g id="edge11" class="edge">
<title>RIC&#45;&gt;AVA</title>
<path fill="none" stroke="black" stroke-width="5" d="M369.02,-1573.56C358.88,-1581.07 344.03,-1589.85 327.41,-1598.52"/>
<polygon fill="black" stroke="black" stroke-width="5" points="325.61,-1594.53 318.67,-1602.95 329.56,-1602.34 325.61,-1594.53"/>
</g>
<!-- SAA&#45;&gt;AVA -->
<g id="edge12" class="edge">
<title>SAA&#45;&gt;AVA</title>
<path fill="none" stroke="black" stroke-width="5" d="M372.86,-1496.15C359.66,-1512.9 334.96,-1538.15 308.73,-1562.79"/>
<polygon fill="black" stroke="black" stroke-width="5" points="305.94,-1559.41 301.58,-1569.42 311.89,-1565.83 305.94,-1559.41"/>
</g>
<!-- SMD&#45;&gt;AVA -->
<g id="edge13" class="edge">
<title>SMD&#45;&gt;AVA</title>
<path fill="none" stroke="gray" stroke-width="0.2" d="M378.44,-1418.05C370.2,-1438.53 353.2,-1461.5 353.2,-1461.5 353.2,-1461.5 321.77,-1504.81 288.37,-1548.6"/>
<polygon fill="gray" stroke="gray" stroke-width="0.2" points="285.6,-1546.46 282.3,-1556.53 291.16,-1550.71 285.6,-1546.46"/>
</g>
<!-- ADE -->
<g id="node9" class="node">
<title>ADE</title>
<ellipse fill="none" stroke="black" cx="32.6" cy="-3257" rx="29.11" ry="18"/>
<text text-anchor="middle" x="32.6" y="-3251.57" font-family="Times New Roman,serif" font-size="14.00">ADE</text>
</g>
<!-- ADE&#45;&gt;AVA -->
<g id="edge14" class="edge">
<title>ADE&#45;&gt;AVA</title>
<path fill="none" stroke="black" stroke-width="5" d="M46.45,-3241.14C55.2,-3230.34 65.2,-3218 65.2,-3218 65.2,-3218 163.3,-2133.4 197,-1760.87"/>
<polygon fill="black" stroke="black" stroke-width="5" points="201.35,-1761.3 197.9,-1750.95 192.64,-1760.51 201.35,-1761.3"/>
</g>
<!-- ADL -->
<g id="node10" class="node">
<title>ADL</title>
<ellipse fill="none" stroke="black" cx="32.6" cy="-3178" rx="29.11" ry="18"/>
<text text-anchor="middle" x="32.6" y="-3172.57" font-family="Times New Roman,serif" font-size="14.00">ADL</text>
</g>
<!-- ADL&#45;&gt;AVA -->
<g id="edge15" class="edge">
<title>ADL&#45;&gt;AVA</title>
<path fill="none" stroke="gray" stroke-width="5" d="M46.45,-3162.14C55.2,-3151.34 65.2,-3139 65.2,-3139 65.2,-3139 162.18,-2120.35 196.41,-1760.82"/>
<polygon fill="gray" stroke="gray" stroke-width="5" points="200.76,-1761.3 197.36,-1750.93 192.05,-1760.47 200.76,-1761.3"/>
</g>
<!-- AIB -->
<g id="node11" class="node">
<title>AIB</title>
<ellipse fill="none" stroke="black" cx="32.6" cy="-3099" rx="27" ry="18"/>
<text text-anchor="middle" x="32.6" y="-3093.57" font-family="Times New Roman,serif" font-size="14.00">AIB</text>
</g>
<!-- AIB&#45;&gt;AVA -->
<g id="edge16" class="edge">
<title>AIB&#45;&gt;AVA</title>
<path fill="none" stroke="black" stroke-width="5" d="M46.45,-3083.14C55.2,-3072.34 65.2,-3060 65.2,-3060 65.2,-3060 160.96,-2107.12 195.76,-1760.86"/>
<polygon fill="black" stroke="black" stroke-width="5" points="200.1,-1761.43 196.74,-1751.04 191.39,-1760.55 200.1,-1761.43"/>
</g>
<!-- AIM -->
<g id="node12" class="node">
<title>AIM</title>
<ellipse fill="none" stroke="black" cx="32.6" cy="-3020" rx="28.11" ry="18"/>
<text text-anchor="middle" x="32.6" y="-3014.57" font-family="Times New Roman,serif" font-size="14.00">AIM</text>
</g>
<!-- AIM&#45;&gt;AVA -->
<g id="edge17" class="edge">
<title>AIM&#45;&gt;AVA</title>
<path fill="none" stroke="red" stroke-width="0.2" d="M46.45,-3004.14C55.2,-2993.34 65.2,-2981 65.2,-2981 65.2,-2981 160.82,-2082.36 195.68,-1754.71"/>
<polygon fill="red" stroke="red" stroke-width="0.2" points="199.13,-1755.33 196.71,-1745.01 192.17,-1754.59 199.13,-1755.33"/>
</g>
<!-- AIN -->
<g id="node13" class="node">
<title>AIN</title>
<ellipse fill="none" stroke="black" cx="32.6" cy="-2941" rx="27" ry="18"/>
<text text-anchor="middle" x="32.6" y="-2935.57" font-family="Times New Roman,serif" font-size="14.00">AIN</text>
</g>
<!-- AIN&#45;&gt;AVA -->
<g id="edge18" class="edge">
<title>AIN&#45;&gt;AVA</title>
<path fill="none" stroke="gray" stroke-width="0.2" d="M46.45,-2925.14C55.2,-2914.34 65.2,-2902 65.2,-2902 65.2,-2902 159.43,-2068.46 194.91,-1754.62"/>
<polygon fill="gray" stroke="gray" stroke-width="0.2" points="198.36,-1755.21 196.01,-1744.88 191.41,-1754.42 198.36,-1755.21"/>
</g>
<!-- AIZ -->
<g id="node14" class="node">
<title>AIZ</title>
<ellipse fill="none" stroke="black" cx="32.6" cy="-2862" rx="27" ry="18"/>
<text text-anchor="middle" x="32.6" y="-2856.57" font-family="Times New Roman,serif" font-size="14.00">AIZ</text>
</g>
<!-- AIZ&#45;&gt;AVA -->
<g id="edge19" class="edge">
<title>AIZ&#45;&gt;AVA</title>
<path fill="none" stroke="gray" stroke-width="5" d="M46.45,-2846.14C55.2,-2835.34 65.2,-2823 65.2,-2823 65.2,-2823 156.75,-2063.7 193.35,-1760.19"/>
<polygon fill="gray" stroke="gray" stroke-width="5" points="197.66,-1760.99 194.51,-1750.53 188.97,-1759.94 197.66,-1760.99"/>
</g>
<!-- ALA -->
<g id="node15" class="node">
<title>ALA</title>
<ellipse fill="none" stroke="black" cx="32.6" cy="-2783" rx="29.11" ry="18"/>
<text text-anchor="middle" x="32.6" y="-2777.57" font-family="Times New Roman,serif" font-size="14.00">ALA</text>
</g>
<!-- ALA&#45;&gt;AVA -->
<g id="edge20" class="edge">
<title>ALA&#45;&gt;AVA</title>
<path fill="none" stroke="gray" stroke-width="0.2" d="M46.45,-2767.14C55.2,-2756.34 65.2,-2744 65.2,-2744 65.2,-2744 156.24,-2039.21 193.04,-1754.36"/>
<polygon fill="gray" stroke="gray" stroke-width="0.2" points="196.48,-1755.07 194.29,-1744.7 189.54,-1754.17 196.48,-1755.07"/>
</g>
<!-- ALN -->
<g id="node16" class="node">
<title>ALN</title>
<ellipse fill="none" stroke="black" cx="32.6" cy="-2704" rx="29.11" ry="18"/>
<text text-anchor="middle" x="32.6" y="-2698.57" font-family="Times New Roman,serif" font-size="14.00">ALN</text>
</g>
<!-- ALN&#45;&gt;AVA -->
<g id="edge21" class="edge">
<title>ALN&#45;&gt;AVA</title>
<path fill="none" stroke="gray" stroke-width="5" d="M46.45,-2688.14C55.2,-2677.34 65.2,-2665 65.2,-2665 65.2,-2665 153.14,-2032.84 191.1,-1759.98"/>
<polygon fill="gray" stroke="gray" stroke-width="5" points="195.4,-1760.79 192.44,-1750.28 186.73,-1759.58 195.4,-1760.79"/>
</g>
<!-- AQR -->
<g id="node17" class="node">
<title>AQR</title>
<ellipse fill="none" stroke="black" cx="32.6" cy="-2625" rx="30.61" ry="18"/>
<text text-anchor="middle" x="32.6" y="-2619.57" font-family="Times New Roman,serif" font-size="14.00">AQR</text>
</g>
<!-- AQR&#45;&gt;AVA -->
<g id="edge22" class="edge">
<title>AQR&#45;&gt;AVA</title>
<path fill="none" stroke="black" stroke-width="5" d="M46.82,-2608.69C55.48,-2598 65.2,-2586 65.2,-2586 65.2,-2586 151.05,-2016.31 189.71,-1759.71"/>
<polygon fill="black" stroke="black" stroke-width="5" points="193.98,-1760.73 191.15,-1750.19 185.33,-1759.42 193.98,-1760.73"/>
</g>
<!-- ASH -->
<g id="node18" class="node">
<title>ASH</title>
<ellipse fill="none" stroke="black" cx="32.6" cy="-2546" rx="29.11" ry="18"/>
<text text-anchor="middle" x="32.6" y="-2540.57" font-family="Times New Roman,serif" font-size="14.00">ASH</text>
</g>
<!-- ASH&#45;&gt;AVA -->
<g id="edge23" class="edge">
<title>ASH&#45;&gt;AVA</title>
<path fill="none" stroke="red" stroke-width="5" d="M46.45,-2530.14C55.2,-2519.34 65.2,-2507 65.2,-2507 65.2,-2507 148.69,-1999.07 188.08,-1759.42"/>
<polygon fill="red" stroke="red" stroke-width="5" points="192.35,-1760.41 189.66,-1749.83 183.72,-1758.99 192.35,-1760.41"/>
</g>
<!-- AUA -->
<g id="node19" class="node">
<title>AUA</title>
<ellipse fill="none" stroke="black" cx="32.6" cy="-2467" rx="30.11" ry="18"/>
<text text-anchor="middle" x="32.6" y="-2461.57" font-family="Times New Roman,serif" font-size="14.00">AUA</text>
</g>
<!-- AUA&#45;&gt;AVA -->
<g id="edge24" class="edge">
<title>AUA&#45;&gt;AVA</title>
<path fill="none" stroke="red" stroke-width="5" d="M46.82,-2450.69C55.48,-2440 65.2,-2428 65.2,-2428 65.2,-2428 145.98,-1981.17 186.11,-1759.18"/>
<polygon fill="red" stroke="red" stroke-width="5" points="190.41,-1760.02 187.88,-1749.4 181.8,-1758.47 190.41,-1760.02"/>
</g>
<!-- AVE -->
<g id="node20" class="node">
<title>AVE</title>
<ellipse fill="none" stroke="black" cx="32.6" cy="-2388" rx="29.11" ry="18"/>
<text text-anchor="middle" x="32.6" y="-2382.57" font-family="Times New Roman,serif" font-size="14.00">AVE</text>
</g>
<!-- AVE&#45;&gt;AVA -->
<g id="edge25" class="edge">
<title>AVE&#45;&gt;AVA</title>
<path fill="none" stroke="gray" stroke-width="0.2" d="M46.45,-2372.14C55.2,-2361.34 65.2,-2349 65.2,-2349 65.2,-2349 144.42,-1954.59 184.93,-1752.87"/>
<polygon fill="gray" stroke="gray" stroke-width="0.2" points="188.35,-1753.61 186.89,-1743.12 181.49,-1752.24 188.35,-1753.61"/>
</g>
<!-- AVF -->
<g id="node21" class="node">
<title>AVF</title>
<ellipse fill="none" stroke="black" cx="32.6" cy="-2309" rx="29.11" ry="18"/>
<text text-anchor="middle" x="32.6" y="-2303.57" font-family="Times New Roman,serif" font-size="14.00">AVF</text>
</g>
<!-- AVF&#45;&gt;AVA -->
<g id="edge26" class="edge">
<title>AVF&#45;&gt;AVA</title>
<path fill="none" stroke="gray" stroke-width="0.2" d="M46.45,-2293.14C55.2,-2282.34 65.2,-2270 65.2,-2270 65.2,-2270 140.85,-1935.13 182.11,-1752.52"/>
<polygon fill="gray" stroke="gray" stroke-width="0.2" points="185.49,-1753.41 184.28,-1742.89 178.66,-1751.87 185.49,-1753.41"/>
</g>
<!-- AVH -->
<g id="node22" class="node">
<title>AVH</title>
<ellipse fill="none" stroke="black" cx="32.6" cy="-2230" rx="30.11" ry="18"/>
<text text-anchor="middle" x="32.6" y="-2224.57" font-family="Times New Roman,serif" font-size="14.00">AVH</text>
</g>
<!-- AVH&#45;&gt;AVA -->
<g id="edge27" class="edge">
<title>AVH&#45;&gt;AVA</title>
<path fill="none" stroke="red" stroke-width="0.2" d="M46.82,-2213.69C55.48,-2203 65.2,-2191 65.2,-2191 65.2,-2191 136.9,-1913.25 178.76,-1751.08"/>
<polygon fill="red" stroke="red" stroke-width="0.2" points="182.03,-1752.38 181.15,-1741.82 175.26,-1750.63 182.03,-1752.38"/>
</g>
<!-- AVJ -->
<g id="node23" class="node">
<title>AVJ</title>
<ellipse fill="none" stroke="black" cx="32.6" cy="-2151" rx="27.11" ry="18"/>
<text text-anchor="middle" x="32.6" y="-2145.57" font-family="Times New Roman,serif" font-size="14.00">AVJ</text>
</g>
<!-- AVJ&#45;&gt;AVA -->
<g id="edge28" class="edge">
<title>AVJ&#45;&gt;AVA</title>
<path fill="none" stroke="red" stroke-width="0.2" d="M46.45,-2135.14C55.2,-2124.34 65.2,-2112 65.2,-2112 65.2,-2112 131.92,-1890.39 174.21,-1749.91"/>
<polygon fill="red" stroke="red" stroke-width="0.2" points="177.47,-1751.24 177,-1740.65 170.76,-1749.22 177.47,-1751.24"/>
</g>
<!-- AVK -->
<g id="node24" class="node">
<title>AVK</title>
<ellipse fill="none" stroke="black" cx="32.6" cy="-2072" rx="30.11" ry="18"/>
<text text-anchor="middle" x="32.6" y="-2066.57" font-family="Times New Roman,serif" font-size="14.00">AVK</text>
</g>
<!-- AVK&#45;&gt;AVA -->
<g id="edge29" class="edge">
<title>AVK&#45;&gt;AVA</title>
<path fill="none" stroke="blue" stroke-width="0.2" d="M46.82,-2055.69C55.48,-2045 65.2,-2033 65.2,-2033 65.2,-2033 125.77,-1865.26 168.07,-1748.12"/>
<polygon fill="blue" stroke="blue" stroke-width="0.2" points="171.26,-1749.6 171.37,-1739.01 164.68,-1747.22 171.26,-1749.6"/>
</g>
<!-- AVL -->
<g id="node25" class="node">
<title>AVL</title>
<ellipse fill="none" stroke="black" cx="32.6" cy="-1993" rx="29.11" ry="18"/>
<text text-anchor="middle" x="32.6" y="-1987.58" font-family="Times New Roman,serif" font-size="14.00">AVL</text>
</g>
<!-- AVL&#45;&gt;AVA -->
<g id="edge30" class="edge">
<title>AVL&#45;&gt;AVA</title>
<path fill="none" stroke="blue" stroke-width="2" d="M46.45,-1977.14C55.2,-1966.34 65.2,-1954 65.2,-1954 65.2,-1954 117.38,-1838.34 158.7,-1746.74"/>
<polygon fill="blue" stroke="blue" stroke-width="2" points="161.77,-1748.44 162.69,-1737.89 155.39,-1745.57 161.77,-1748.44"/>
</g>
<!-- AWC -->
<g id="node26" class="node">
<title>AWC</title>
<ellipse fill="none" stroke="black" cx="32.6" cy="-1914" rx="32.6" ry="18"/>
<text text-anchor="middle" x="32.6" y="-1908.58" font-family="Times New Roman,serif" font-size="14.00">AWC</text>
</g>
<!-- AWC&#45;&gt;AVA -->
<g id="edge31" class="edge">
<title>AWC&#45;&gt;AVA</title>
<path fill="none" stroke="gray" stroke-width="0.2" d="M46.82,-1897.69C55.48,-1887 65.2,-1875 65.2,-1875 65.2,-1875 108.54,-1802.88 147.49,-1738.04"/>
<polygon fill="gray" stroke="gray" stroke-width="0.2" points="150.4,-1739.99 152.55,-1729.62 144.4,-1736.39 150.4,-1739.99"/>
</g>
<!-- BAG -->
<g id="node27" class="node">
<title>BAG</title>
<ellipse fill="none" stroke="black" cx="32.6" cy="-1835" rx="30.11" ry="18"/>
<text text-anchor="middle" x="32.6" y="-1829.58" font-family="Times New Roman,serif" font-size="14.00">BAG</text>
</g>
<!-- BAG&#45;&gt;AVA -->
<g id="edge32" class="edge">
<title>BAG&#45;&gt;AVA</title>
<path fill="none" stroke="gray" stroke-width="5" d="M47.59,-1819.13C65.04,-1799.35 96.27,-1763.93 126.58,-1729.56"/>
<polygon fill="gray" stroke="gray" stroke-width="5" points="129.78,-1732.54 133.11,-1722.15 123.22,-1726.76 129.78,-1732.54"/>
</g>
<!-- BDU -->
<g id="node28" class="node">
<title>BDU</title>
<ellipse fill="none" stroke="black" cx="32.6" cy="-1756" rx="29.61" ry="18"/>
<text text-anchor="middle" x="32.6" y="-1750.58" font-family="Times New Roman,serif" font-size="14.00">BDU</text>
</g>
<!-- BDU&#45;&gt;AVA -->
<g id="edge33" class="edge">
<title>BDU&#45;&gt;AVA</title>
<path fill="none" stroke="gray" stroke-width="0.2" d="M53.29,-1742.58C67.92,-1732.61 89.08,-1718.19 111.08,-1703.19"/>
<polygon fill="gray" stroke="gray" stroke-width="0.2" points="113,-1706.12 119.29,-1697.6 109.06,-1700.34 113,-1706.12"/>
</g>
<!-- DVA -->
<g id="node29" class="node">
<title>DVA</title>
<ellipse fill="none" stroke="black" cx="32.6" cy="-1677" rx="30.11" ry="18"/>
<text text-anchor="middle" x="32.6" y="-1671.58" font-family="Times New Roman,serif" font-size="14.00">DVA</text>
</g>
<!-- DVA&#45;&gt;AVA -->
<g id="edge34" class="edge">
<title>DVA&#45;&gt;AVA</title>
<path fill="none" stroke="red" stroke-width="5" d="M61.27,-1670.66C69.09,-1668.87 78.14,-1666.8 87.83,-1664.58"/>
<polygon fill="red" stroke="red" stroke-width="5" points="88.64,-1668.88 97.41,-1662.38 86.69,-1660.35 88.64,-1668.88"/>
</g>
<!-- DVC -->
<g id="node30" class="node">
<title>DVC</title>
<ellipse fill="none" stroke="black" cx="32.6" cy="-1598" rx="30.11" ry="18"/>
<text text-anchor="middle" x="32.6" y="-1592.58" font-family="Times New Roman,serif" font-size="14.00">DVC</text>
</g>
<!-- DVC&#45;&gt;AVA -->
<g id="edge35" class="edge">
<title>DVC&#45;&gt;AVA</title>
<path fill="none" stroke="black" stroke-width="5" d="M61.27,-1604.18C69.09,-1605.93 78.14,-1607.95 87.83,-1610.11"/>
<polygon fill="black" stroke="black" stroke-width="5" points="86.69,-1614.34 97.4,-1612.25 88.6,-1605.8 86.69,-1614.34"/>
</g>
<!-- FLP -->
<g id="node31" class="node">
<title>FLP</title>
<ellipse fill="none" stroke="black" cx="32.6" cy="-1519" rx="27.11" ry="18"/>
<text text-anchor="middle" x="32.6" y="-1513.58" font-family="Times New Roman,serif" font-size="14.00">FLP</text>
</g>
<!-- FLP&#45;&gt;AVA -->
<g id="edge36" class="edge">
<title>FLP&#45;&gt;AVA</title>
<path fill="none" stroke="red" stroke-width="5" d="M52.29,-1531.63C65.85,-1540.79 85.37,-1553.99 106.04,-1567.96"/>
<polygon fill="red" stroke="red" stroke-width="5" points="103.47,-1571.5 114.21,-1573.48 108.37,-1564.25 103.47,-1571.5"/>
</g>
<!-- HSN -->
<g id="node32" class="node">
<title>HSN</title>
<ellipse fill="none" stroke="black" cx="32.6" cy="-1440" rx="29.11" ry="18"/>
<text text-anchor="middle" x="32.6" y="-1434.58" font-family="Times New Roman,serif" font-size="14.00">HSN</text>
</g>
<!-- HSN&#45;&gt;AVA -->
<g id="edge37" class="edge">
<title>HSN&#45;&gt;AVA</title>
<path fill="none" stroke="gray" stroke-width="0.2" d="M47.59,-1455.79C65.73,-1476.25 98.75,-1513.5 130.15,-1548.94"/>
<polygon fill="gray" stroke="gray" stroke-width="0.2" points="127.37,-1551.08 136.62,-1556.24 132.61,-1546.43 127.37,-1551.08"/>
</g>
<!-- IL2 -->
<g id="node33" class="node">
<title>IL2</title>
<ellipse fill="none" stroke="black" cx="32.6" cy="-1361" rx="27" ry="18"/>
<text text-anchor="middle" x="32.6" y="-1355.58" font-family="Times New Roman,serif" font-size="14.00">IL2</text>
</g>
<!-- IL2&#45;&gt;AVA -->
<g id="edge38" class="edge">
<title>IL2&#45;&gt;AVA</title>
<path fill="none" stroke="gray" stroke-width="0.2" d="M46.09,-1376.81C54.92,-1387.99 65.2,-1401 65.2,-1401 65.2,-1401 108.24,-1472.03 147.1,-1536.15"/>
<polygon fill="gray" stroke="gray" stroke-width="0.2" points="143.97,-1537.74 152.14,-1544.48 149.95,-1534.12 143.97,-1537.74"/>
</g>
<!-- OLQ -->
<g id="node34" class="node">
<title>OLQ</title>
<ellipse fill="none" stroke="black" cx="32.6" cy="-1282" rx="30.11" ry="18"/>
<text text-anchor="middle" x="32.6" y="-1276.58" font-family="Times New Roman,serif" font-size="14.00">OLQ</text>
</g>
<!-- OLQ&#45;&gt;AVA -->
<g id="edge39" class="edge">
<title>OLQ&#45;&gt;AVA</title>
<path fill="none" stroke="gray" stroke-width="0.2" d="M46.45,-1298.27C55.2,-1309.34 65.2,-1322 65.2,-1322 65.2,-1322 117.9,-1438.09 159.32,-1529.32"/>
<polygon fill="gray" stroke="gray" stroke-width="0.2" points="156.1,-1530.69 163.42,-1538.35 162.47,-1527.8 156.1,-1530.69"/>
</g>
<!-- PLN -->
<g id="node35" class="node">
<title>PLN</title>
<ellipse fill="none" stroke="black" cx="32.6" cy="-1203" rx="28.11" ry="18"/>
<text text-anchor="middle" x="32.6" y="-1197.58" font-family="Times New Roman,serif" font-size="14.00">PLN</text>
</g>
<!-- PLN&#45;&gt;AVA -->
<g id="edge40" class="edge">
<title>PLN&#45;&gt;AVA</title>
<path fill="none" stroke="blue" stroke-width="2" d="M46.09,-1218.81C54.92,-1229.99 65.2,-1243 65.2,-1243 65.2,-1243 124.72,-1406.98 166.96,-1523.37"/>
<polygon fill="blue" stroke="blue" stroke-width="2" points="163.64,-1524.48 170.34,-1532.69 170.22,-1522.1 163.64,-1524.48"/>
</g>
<!-- PVC -->
<g id="node36" class="node">
<title>PVC</title>
<ellipse fill="none" stroke="black" cx="32.6" cy="-1124" rx="29.11" ry="18"/>
<text text-anchor="middle" x="32.6" y="-1118.58" font-family="Times New Roman,serif" font-size="14.00">PVC</text>
</g>
<!-- PVC&#45;&gt;AVA -->
<g id="edge41" class="edge">
<title>PVC&#45;&gt;AVA</title>
<path fill="none" stroke="gray" stroke-width="5" d="M46.45,-1140.27C55.2,-1151.34 65.2,-1164 65.2,-1164 65.2,-1164 129.88,-1377.94 172.24,-1518.06"/>
<polygon fill="gray" stroke="gray" stroke-width="5" points="168.02,-1519.21 175.1,-1527.52 176.4,-1516.68 168.02,-1519.21"/>
</g>
<!-- PVP -->
<g id="node37" class="node">
<title>PVP</title>
<ellipse fill="none" stroke="black" cx="32.6" cy="-1045" rx="28.11" ry="18"/>
<text text-anchor="middle" x="32.6" y="-1039.58" font-family="Times New Roman,serif" font-size="14.00">PVP</text>
</g>
<!-- PVP&#45;&gt;AVA -->
<g id="edge42" class="edge">
<title>PVP&#45;&gt;AVA</title>
<path fill="none" stroke="gray" stroke-width="5" d="M46.09,-1060.81C54.92,-1071.99 65.2,-1085 65.2,-1085 65.2,-1085 135.1,-1354.81 177.16,-1517.16"/>
<polygon fill="gray" stroke="gray" stroke-width="5" points="172.83,-1517.9 179.57,-1526.49 181.3,-1515.71 172.83,-1517.9"/>
</g>
<!-- PVT -->
<g id="node38" class="node">
<title>PVT</title>
<ellipse fill="none" stroke="black" cx="32.6" cy="-966" rx="28.61" ry="18"/>
<text text-anchor="middle" x="32.6" y="-960.58" font-family="Times New Roman,serif" font-size="14.00">PVT</text>
</g>
<!-- PVT&#45;&gt;AVA -->
<g id="edge43" class="edge">
<title>PVT&#45;&gt;AVA</title>
<path fill="none" stroke="gray" stroke-width="0.2" d="M46.45,-982.27C55.2,-993.34 65.2,-1006 65.2,-1006 65.2,-1006 140.85,-1339.81 182.11,-1521.85"/>
<polygon fill="gray" stroke="gray" stroke-width="0.2" points="178.66,-1522.47 184.28,-1531.44 185.48,-1520.92 178.66,-1522.47"/>
</g>
<!-- RIB -->
<g id="node39" class="node">
<title>RIB</title>
<ellipse fill="none" stroke="black" cx="32.6" cy="-887" rx="27" ry="18"/>
<text text-anchor="middle" x="32.6" y="-881.58" font-family="Times New Roman,serif" font-size="14.00">RIB</text>
</g>
<!-- RIB&#45;&gt;AVA -->
<g id="edge44" class="edge">
<title>RIB&#45;&gt;AVA</title>
<path fill="none" stroke="red" stroke-width="5" d="M46.09,-902.81C54.92,-913.99 65.2,-927 65.2,-927 65.2,-927 142.83,-1312.41 183.69,-1515.32"/>
<polygon fill="red" stroke="red" stroke-width="5" points="179.38,-1516.04 185.64,-1524.97 187.95,-1514.31 179.38,-1516.04"/>
</g>
<!-- RIF -->
<g id="node40" class="node">
<title>RIF</title>
<ellipse fill="none" stroke="black" cx="32.6" cy="-808" rx="27" ry="18"/>
<text text-anchor="middle" x="32.6" y="-802.58" font-family="Times New Roman,serif" font-size="14.00">RIF</text>
</g>
<!-- RIF&#45;&gt;AVA -->
<g id="edge45" class="edge">
<title>RIF&#45;&gt;AVA</title>
<path fill="none" stroke="gray" stroke-width="0.2" d="M46.09,-823.81C54.92,-834.99 65.2,-848 65.2,-848 65.2,-848 147.34,-1301.19 187.11,-1520.64"/>
<polygon fill="gray" stroke="gray" stroke-width="0.2" points="183.64,-1521.08 188.86,-1530.29 190.52,-1519.83 183.64,-1521.08"/>
</g>
<!-- RIG -->
<g id="node41" class="node">
<title>RIG</title>
<ellipse fill="none" stroke="black" cx="32.6" cy="-729" rx="27.11" ry="18"/>
<text text-anchor="middle" x="32.6" y="-723.58" font-family="Times New Roman,serif" font-size="14.00">RIG</text>
</g>
<!-- RIG&#45;&gt;AVA -->
<g id="edge46" class="edge">
<title>RIG&#45;&gt;AVA</title>
<path fill="none" stroke="gray" stroke-width="0.2" d="M46.09,-744.81C54.92,-755.99 65.2,-769 65.2,-769 65.2,-769 149.92,-1283.24 188.94,-1520.1"/>
<polygon fill="gray" stroke="gray" stroke-width="0.2" points="185.47,-1520.53 190.55,-1529.83 192.37,-1519.4 185.47,-1520.53"/>
</g>
<!-- RIM -->
<g id="node42" class="node">
<title>RIM</title>
<ellipse fill="none" stroke="black" cx="32.6" cy="-650" rx="28.11" ry="18"/>
<text text-anchor="middle" x="32.6" y="-644.58" font-family="Times New Roman,serif" font-size="14.00">RIM</text>
</g>
<!-- RIM&#45;&gt;AVA -->
<g id="edge47" class="edge">
<title>RIM&#45;&gt;AVA</title>
<path fill="none" stroke="red" stroke-width="2" d="M46.09,-665.81C54.92,-676.99 65.2,-690 65.2,-690 65.2,-690 151.73,-1263.03 190.17,-1517.59"/>
<polygon fill="red" stroke="red" stroke-width="2" points="186.67,-1517.85 191.62,-1527.21 193.59,-1516.8 186.67,-1517.85"/>
</g>
<!-- RMD -->
<g id="node43" class="node">
<title>RMD</title>
<ellipse fill="none" stroke="black" cx="32.6" cy="-571" rx="31.6" ry="18"/>
<text text-anchor="middle" x="32.6" y="-565.58" font-family="Times New Roman,serif" font-size="14.00">RMD</text>
</g>
<!-- RMD&#45;&gt;AVA -->
<g id="edge48" class="edge">
<title>RMD&#45;&gt;AVA</title>
<path fill="none" stroke="gray" stroke-width="0.2" d="M46.45,-587.27C55.2,-598.34 65.2,-611 65.2,-611 65.2,-611 154.37,-1250.76 191.88,-1519.91"/>
<polygon fill="gray" stroke="gray" stroke-width="0.2" points="188.41,-1520.38 193.26,-1529.8 195.35,-1519.42 188.41,-1520.38"/>
</g>
<!-- RMG -->
<g id="node44" class="node">
<title>RMG</title>
<ellipse fill="none" stroke="black" cx="32.6" cy="-492" rx="32.1" ry="18"/>
<text text-anchor="middle" x="32.6" y="-486.57" font-family="Times New Roman,serif" font-size="14.00">RMG</text>
</g>
<!-- RMG&#45;&gt;AVA -->
<g id="edge49" class="edge">
<title>RMG&#45;&gt;AVA</title>
<path fill="none" stroke="red" stroke-width="0.2" d="M46.45,-508.27C55.2,-519.34 65.2,-532 65.2,-532 65.2,-532 156.19,-1235.09 193.01,-1519.6"/>
<polygon fill="red" stroke="red" stroke-width="0.2" points="189.5,-1519.77 194.26,-1529.24 196.44,-1518.87 189.5,-1519.77"/>
</g>
<!-- RMH -->
<g id="node45" class="node">
<title>RMH</title>
<ellipse fill="none" stroke="black" cx="32.6" cy="-413" rx="31.6" ry="18"/>
<text text-anchor="middle" x="32.6" y="-407.57" font-family="Times New Roman,serif" font-size="14.00">RMH</text>
</g>
<!-- RMH&#45;&gt;AVA -->
<g id="edge50" class="edge">
<title>RMH&#45;&gt;AVA</title>
<path fill="none" stroke="gray" stroke-width="0.2" d="M46.45,-429.27C55.2,-440.34 65.2,-453 65.2,-453 65.2,-453 157.88,-1220.39 194.02,-1519.57"/>
<polygon fill="gray" stroke="gray" stroke-width="0.2" points="190.52,-1519.77 195.19,-1529.28 197.47,-1518.93 190.52,-1519.77"/>
</g>
<!-- SDQ -->
<g id="node46" class="node">
<title>SDQ</title>
<ellipse fill="none" stroke="black" cx="32.6" cy="-334" rx="29.61" ry="18"/>
<text text-anchor="middle" x="32.6" y="-328.57" font-family="Times New Roman,serif" font-size="14.00">SDQ</text>
</g>
<!-- SDQ&#45;&gt;AVA -->
<g id="edge51" class="edge">
<title>SDQ&#45;&gt;AVA</title>
<path fill="none" stroke="black" stroke-width="5" d="M46.45,-350.27C55.2,-361.34 65.2,-374 65.2,-374 65.2,-374 158.17,-1195.09 194.18,-1513.19"/>
<polygon fill="black" stroke="black" stroke-width="5" points="189.84,-1513.68 195.31,-1523.12 198.53,-1512.69 189.84,-1513.68"/>
</g>
<!-- SIA -->
<g id="node47" class="node">
<title>SIA</title>
<ellipse fill="none" stroke="black" cx="32.6" cy="-255" rx="27" ry="18"/>
<text text-anchor="middle" x="32.6" y="-249.57" font-family="Times New Roman,serif" font-size="14.00">SIA</text>
</g>
<!-- SIA&#45;&gt;AVA -->
<g id="edge52" class="edge">
<title>SIA&#45;&gt;AVA</title>
<path fill="none" stroke="gray" stroke-width="0.2" d="M46.09,-270.81C54.92,-281.99 65.2,-295 65.2,-295 65.2,-295 160.82,-1192.31 195.68,-1519.46"/>
<polygon fill="gray" stroke="gray" stroke-width="0.2" points="192.17,-1519.57 196.71,-1529.15 199.13,-1518.83 192.17,-1519.57"/>
</g>
<!-- SMB -->
<g id="node48" class="node">
<title>SMB</title>
<ellipse fill="none" stroke="black" cx="32.6" cy="-176" rx="30.11" ry="18"/>
<text text-anchor="middle" x="32.6" y="-170.57" font-family="Times New Roman,serif" font-size="14.00">SMB</text>
</g>
<!-- SMB&#45;&gt;AVA -->
<g id="edge53" class="edge">
<title>SMB&#45;&gt;AVA</title>
<path fill="none" stroke="gray" stroke-width="0.2" d="M46.45,-192.27C55.2,-203.34 65.2,-216 65.2,-216 65.2,-216 162.05,-1178.43 196.35,-1519.18"/>
<polygon fill="gray" stroke="gray" stroke-width="0.2" points="192.85,-1519.42 197.34,-1529.02 199.82,-1518.72 192.85,-1519.42"/>
</g>
<!-- URX -->
<g id="node49" class="node">
<title>URX</title>
<ellipse fill="none" stroke="black" cx="32.6" cy="-97" rx="30.11" ry="18"/>
<text text-anchor="middle" x="32.6" y="-91.58" font-family="Times New Roman,serif" font-size="14.00">URX</text>
</g>
<!-- URX&#45;&gt;AVA -->
<g id="edge54" class="edge">
<title>URX&#45;&gt;AVA</title>
<path fill="none" stroke="gray" stroke-width="0.2" d="M46.45,-113.27C55.2,-124.34 65.2,-137 65.2,-137 65.2,-137 163.24,-1165.32 196.96,-1519.11"/>
<polygon fill="gray" stroke="gray" stroke-width="0.2" points="193.46,-1519.2 197.89,-1528.82 200.42,-1518.54 193.46,-1519.2"/>
</g>
<!-- URY -->
<g id="node50" class="node">
<title>URY</title>
<ellipse fill="none" stroke="black" cx="32.6" cy="-18" rx="30.11" ry="18"/>
<text text-anchor="middle" x="32.6" y="-12.57" font-family="Times New Roman,serif" font-size="14.00">URY</text>
</g>
<!-- URY&#45;&gt;AVA -->
<g id="edge55" class="edge">
<title>URY&#45;&gt;AVA</title>
<path fill="none" stroke="gray" stroke-width="5" d="M46.45,-34.27C55.2,-45.34 65.2,-58 65.2,-58 65.2,-58 163.25,-1140.6 196.97,-1512.96"/>
<polygon fill="gray" stroke="gray" stroke-width="5" points="192.61,-1513.31 197.87,-1522.88 201.32,-1512.52 192.61,-1513.31"/>
</g>
</g>
</svg>
