<?xml version="1.0" encoding="UTF-8" standalone="no"?>
<!DOCTYPE svg PUBLIC "-//W3C//DTD SVG 1.1//EN"
 "http://www.w3.org/Graphics/SVG/1.1/DTD/svg11.dtd">
<!-- Generated by graphviz version 11.0.0 (20240428.1522)
 -->
<!-- Pages: 1 -->
<svg width="421pt" height="2967pt"
 viewBox="0.00 0.00 421.41 2967.00" xmlns="http://www.w3.org/2000/svg" xmlns:xlink="http://www.w3.org/1999/xlink">
<g id="graph0" class="graph" transform="scale(1 1) rotate(0) translate(4 2963)">
<polygon fill="white" stroke="none" points="-4,4 -4,-2963 417.41,-2963 417.41,4 -4,4"/>
<!-- AVB -->
<g id="node1" class="node">
<title>AVB</title>
<ellipse fill="none" stroke="black" cx="209.2" cy="-1479" rx="108" ry="108"/>
<text text-anchor="middle" x="209.2" y="-1460" font-family="Times New Roman,serif" font-size="50.00">AVB</text>
</g>
<!-- AVB&#45;&gt;AVB -->
<g id="edge1" class="edge">
<title>AVB&#45;&gt;AVB</title>
<path fill="none" stroke="gray" stroke-width="0.2" d="M176.87,-1582.39C178.79,-1609.51 189.56,-1630 209.2,-1630 226.31,-1630 236.69,-1614.45 240.35,-1592.52"/>
<polygon fill="gray" stroke="gray" stroke-width="0.2" points="243.82,-1593.03 241.5,-1582.69 236.86,-1592.22 243.82,-1593.03"/>
</g>
<!-- AIB -->
<g id="node2" class="node">
<title>AIB</title>
<ellipse fill="none" stroke="black" cx="383.31" cy="-1795" rx="27" ry="18"/>
<text text-anchor="middle" x="383.31" y="-1789.58" font-family="Times New Roman,serif" font-size="14.00">AIB</text>
</g>
<!-- AVB&#45;&gt;AIB -->
<g id="edge2" class="edge">
<title>AVB&#45;&gt;AIB</title>
<path fill="none" stroke="gray" stroke-width="0.2" d="M266.72,-1570.97C306.69,-1644.4 353.2,-1734.5 353.2,-1734.5 353.2,-1734.5 365.32,-1750.74 373.92,-1768.04"/>
<polygon fill="gray" stroke="gray" stroke-width="0.2" points="370.58,-1769.15 377.89,-1776.83 376.96,-1766.27 370.58,-1769.15"/>
</g>
<!-- AVA -->
<g id="node3" class="node">
<title>AVA</title>
<ellipse fill="none" stroke="black" cx="383.31" cy="-1716" rx="30.11" ry="18"/>
<text text-anchor="middle" x="383.31" y="-1710.58" font-family="Times New Roman,serif" font-size="14.00">AVA</text>
</g>
<!-- AVB&#45;&gt;AVA -->
<g id="edge3" class="edge">
<title>AVB&#45;&gt;AVA</title>
<path fill="none" stroke="gray" stroke-width="2" d="M281.91,-1559.46C317.59,-1606.19 353.2,-1655.5 353.2,-1655.5 353.2,-1655.5 364.24,-1670.29 372.72,-1686.67"/>
<polygon fill="gray" stroke="gray" stroke-width="2" points="369.36,-1687.75 376.74,-1695.36 375.71,-1684.81 369.36,-1687.75"/>
</g>
<!-- AVD -->
<g id="node4" class="node">
<title>AVD</title>
<ellipse fill="none" stroke="black" cx="383.31" cy="-1637" rx="30.11" ry="18"/>
<text text-anchor="middle" x="383.31" y="-1631.58" font-family="Times New Roman,serif" font-size="14.00">AVD</text>
</g>
<!-- AVB&#45;&gt;AVD -->
<g id="edge4" class="edge">
<title>AVB&#45;&gt;AVD</title>
<path fill="none" stroke="gray" stroke-width="0.2" d="M289.45,-1551.76C314.62,-1574.86 340.57,-1598.68 358.61,-1615.25"/>
<polygon fill="gray" stroke="gray" stroke-width="0.2" points="355.88,-1617.49 365.61,-1621.67 360.61,-1612.33 355.88,-1617.49"/>
</g>
<!-- AVJ -->
<g id="node5" class="node">
<title>AVJ</title>
<ellipse fill="none" stroke="black" cx="383.31" cy="-1558" rx="27.11" ry="18"/>
<text text-anchor="middle" x="383.31" y="-1552.58" font-family="Times New Roman,serif" font-size="14.00">AVJ</text>
</g>
<!-- AVB&#45;&gt;AVJ -->
<g id="edge5" class="edge">
<title>AVB&#45;&gt;AVJ</title>
<path fill="none" stroke="gray" stroke-width="2" d="M312.8,-1510.24C329.6,-1518.5 345.53,-1527.21 357.89,-1535.13"/>
<polygon fill="gray" stroke="gray" stroke-width="2" points="355.83,-1537.96 366.06,-1540.73 359.79,-1532.19 355.83,-1537.96"/>
</g>
<!-- DVA -->
<g id="node6" class="node">
<title>DVA</title>
<ellipse fill="none" stroke="black" cx="383.31" cy="-1479" rx="30.11" ry="18"/>
<text text-anchor="middle" x="383.31" y="-1473.58" font-family="Times New Roman,serif" font-size="14.00">DVA</text>
</g>
<!-- AVB&#45;&gt;DVA -->
<g id="edge6" class="edge">
<title>AVB&#45;&gt;DVA</title>
<path fill="none" stroke="gray" stroke-width="0.2" d="M316.26,-1463.27C328.15,-1463.74 339.49,-1464.65 349.33,-1465.99"/>
<polygon fill="gray" stroke="gray" stroke-width="0.2" points="348.62,-1469.42 359.05,-1467.56 349.74,-1462.51 348.62,-1469.42"/>
</g>
<!-- PVC -->
<g id="node7" class="node">
<title>PVC</title>
<ellipse fill="none" stroke="black" cx="383.31" cy="-1400" rx="29.11" ry="18"/>
<text text-anchor="middle" x="383.31" y="-1394.58" font-family="Times New Roman,serif" font-size="14.00">PVC</text>
</g>
<!-- AVB&#45;&gt;PVC -->
<g id="edge7" class="edge">
<title>AVB&#45;&gt;PVC</title>
<path fill="none" stroke="gray" stroke-width="nan" d="M300.79,-1421.31C320.06,-1412.64 339.03,-1405.18 353.82,-1400.72"/>
<polygon fill="gray" stroke="gray" stroke-width="nan" points="nan,-nan nan,-nan nan,-nan nan,-nan"/>
</g>
<!-- RIM -->
<g id="node8" class="node">
<title>RIM</title>
<ellipse fill="none" stroke="black" cx="383.31" cy="-1321" rx="28.11" ry="18"/>
<text text-anchor="middle" x="383.31" y="-1315.58" font-family="Times New Roman,serif" font-size="14.00">RIM</text>
</g>
<!-- AVB&#45;&gt;RIM -->
<g id="edge8" class="edge">
<title>AVB&#45;&gt;RIM</title>
<path fill="none" stroke="gray" stroke-width="nan" d="M281.2,-1397.92C309.16,-1371.42 339.31,-1345.24 359.35,-1330.69"/>
<polygon fill="gray" stroke="gray" stroke-width="nan" points="nan,-nan nan,-nan nan,-nan nan,-nan"/>
</g>
<!-- RIR -->
<g id="node9" class="node">
<title>RIR</title>
<ellipse fill="none" stroke="black" cx="383.31" cy="-1242" rx="27" ry="18"/>
<text text-anchor="middle" x="383.31" y="-1236.58" font-family="Times New Roman,serif" font-size="14.00">RIR</text>
</g>
<!-- AVB&#45;&gt;RIR -->
<g id="edge9" class="edge">
<title>AVB&#45;&gt;RIR</title>
<path fill="none" stroke="gray" stroke-width="0.2" d="M265.08,-1386.05C305.41,-1326.34 353.2,-1260.5 353.2,-1260.5 353.2,-1260.5 353.49,-1260.1 354.02,-1259.4"/>
<polygon fill="gray" stroke="gray" stroke-width="0.2" points="356.6,-1261.78 360.06,-1251.76 351.11,-1257.43 356.6,-1261.78"/>
</g>
<!-- SDQ -->
<g id="node10" class="node">
<title>SDQ</title>
<ellipse fill="none" stroke="black" cx="383.31" cy="-1163" rx="29.61" ry="18"/>
<text text-anchor="middle" x="383.31" y="-1157.58" font-family="Times New Roman,serif" font-size="14.00">SDQ</text>
</g>
<!-- AVB&#45;&gt;SDQ -->
<g id="edge10" class="edge">
<title>AVB&#45;&gt;SDQ</title>
<path fill="none" stroke="gray" stroke-width="0.2" d="M253.11,-1380.24C289.47,-1305.27 337.65,-1211.63 353.93,-1182.55"/>
<polygon fill="gray" stroke="gray" stroke-width="0.2" points="356.8,-1184.56 358.94,-1174.18 350.8,-1180.97 356.8,-1184.56"/>
</g>
<!-- AIB&#45;&gt;AVB -->
<g id="edge11" class="edge">
<title>AIB&#45;&gt;AVB</title>
<path fill="none" stroke="black" stroke-width="5" d="M359.95,-1785.89C356.04,-1781.31 353.2,-1777.5 353.2,-1777.5 353.2,-1777.5 301.4,-1677.15 260.15,-1592.56"/>
<polygon fill="black" stroke="black" stroke-width="5" points="264.13,-1590.75 255.83,-1583.67 256.26,-1594.58 264.13,-1590.75"/>
</g>
<!-- AVA&#45;&gt;AVB -->
<g id="edge12" class="edge">
<title>AVA&#45;&gt;AVB</title>
<path fill="none" stroke="gray" stroke-width="0.2" d="M358.54,-1705.21C355.38,-1701.42 353.2,-1698.5 353.2,-1698.5 353.2,-1698.5 309.64,-1638.18 270.6,-1580.51"/>
<polygon fill="gray" stroke="gray" stroke-width="0.2" points="273.54,-1578.61 265.05,-1572.28 267.74,-1582.53 273.54,-1578.61"/>
</g>
<!-- AVJ&#45;&gt;AVB -->
<g id="edge13" class="edge">
<title>AVJ&#45;&gt;AVB</title>
<path fill="none" stroke="black" stroke-width="5" d="M356.02,-1557.93C344.6,-1554.62 330.4,-1549.36 315.38,-1543.04"/>
<polygon fill="black" stroke="black" stroke-width="5" points="317.42,-1539.16 306.51,-1539.18 313.93,-1547.18 317.42,-1539.16"/>
</g>
<!-- DVA&#45;&gt;AVB -->
<g id="edge14" class="edge">
<title>DVA&#45;&gt;AVB</title>
<path fill="none" stroke="black" stroke-width="0.2" d="M359.35,-1490.39C350.11,-1492.16 338.7,-1493.44 326.35,-1494.21"/>
<polygon fill="black" stroke="black" stroke-width="0.2" points="326.37,-1490.71 316.56,-1494.72 326.73,-1497.7 326.37,-1490.71"/>
</g>
<!-- PVC&#45;&gt;AVB -->
<g id="edge15" class="edge">
<title>PVC&#45;&gt;AVB</title>
<path fill="none" stroke="black" stroke-width="5" d="M368.3,-1415.75C358.19,-1423.23 343.45,-1431.95 326.98,-1440.57"/>
<polygon fill="black" stroke="black" stroke-width="5" points="325.3,-1436.52 318.36,-1444.94 329.26,-1444.32 325.3,-1436.52"/>
</g>
<!-- RIM&#45;&gt;AVB -->
<g id="edge16" class="edge">
<title>RIM&#45;&gt;AVB</title>
<path fill="none" stroke="black" stroke-width="5" d="M372.42,-1338.1C359.31,-1354.8 334.77,-1379.98 308.67,-1404.58"/>
<polygon fill="black" stroke="black" stroke-width="5" points="305.92,-1401.16 301.58,-1411.18 311.88,-1407.57 305.92,-1401.16"/>
</g>
<!-- RIR&#45;&gt;AVB -->
<g id="edge17" class="edge">
<title>RIR&#45;&gt;AVB</title>
<path fill="none" stroke="blue" stroke-width="0.2" d="M378.01,-1260.05C369.92,-1280.53 353.2,-1303.5 353.2,-1303.5 353.2,-1303.5 321.77,-1346.81 288.37,-1390.6"/>
<polygon fill="blue" stroke="blue" stroke-width="0.2" points="285.6,-1388.46 282.3,-1398.53 291.16,-1392.71 285.6,-1388.46"/>
</g>
<!-- SDQ&#45;&gt;AVB -->
<g id="edge18" class="edge">
<title>SDQ&#45;&gt;AVB</title>
<path fill="none" stroke="black" stroke-width="5" d="M378.01,-1181.05C369.92,-1201.53 353.2,-1224.5 353.2,-1224.5 353.2,-1224.5 312.32,-1303.4 274.28,-1373.54"/>
<polygon fill="black" stroke="black" stroke-width="5" points="270.64,-1371.08 269.7,-1381.95 278.32,-1375.26 270.64,-1371.08"/>
</g>
<!-- ADA -->
<g id="node11" class="node">
<title>ADA</title>
<ellipse fill="none" stroke="black" cx="32.6" cy="-2941" rx="30.11" ry="18"/>
<text text-anchor="middle" x="32.6" y="-2935.57" font-family="Times New Roman,serif" font-size="14.00">ADA</text>
</g>
<!-- ADA&#45;&gt;AVB -->
<g id="edge19" class="edge">
<title>ADA&#45;&gt;AVB</title>
<path fill="none" stroke="black" stroke-width="5" d="M46.82,-2924.69C55.48,-2914 65.2,-2902 65.2,-2902 65.2,-2902 160.96,-1949.12 195.76,-1602.86"/>
<polygon fill="black" stroke="black" stroke-width="5" points="200.1,-1603.43 196.74,-1593.04 191.39,-1602.55 200.1,-1603.43"/>
</g>
<!-- ADE -->
<g id="node12" class="node">
<title>ADE</title>
<ellipse fill="none" stroke="black" cx="32.6" cy="-2862" rx="29.11" ry="18"/>
<text text-anchor="middle" x="32.6" y="-2856.57" font-family="Times New Roman,serif" font-size="14.00">ADE</text>
</g>
<!-- ADE&#45;&gt;AVB -->
<g id="edge20" class="edge">
<title>ADE&#45;&gt;AVB</title>
<path fill="none" stroke="gray" stroke-width="0.2" d="M46.45,-2846.14C55.2,-2835.34 65.2,-2823 65.2,-2823 65.2,-2823 160.82,-1924.36 195.68,-1596.71"/>
<polygon fill="gray" stroke="gray" stroke-width="0.2" points="199.13,-1597.33 196.71,-1587.01 192.17,-1596.59 199.13,-1597.33"/>
</g>
<!-- ADL -->
<g id="node13" class="node">
<title>ADL</title>
<ellipse fill="none" stroke="black" cx="32.6" cy="-2783" rx="29.11" ry="18"/>
<text text-anchor="middle" x="32.6" y="-2777.57" font-family="Times New Roman,serif" font-size="14.00">ADL</text>
</g>
<!-- ADL&#45;&gt;AVB -->
<g id="edge21" class="edge">
<title>ADL&#45;&gt;AVB</title>
<path fill="none" stroke="black" stroke-width="5" d="M46.45,-2767.14C55.2,-2756.34 65.2,-2744 65.2,-2744 65.2,-2744 158.32,-1920.3 194.27,-1602.25"/>
<polygon fill="black" stroke="black" stroke-width="5" points="198.56,-1603.21 195.34,-1592.78 189.87,-1602.22 198.56,-1603.21"/>
</g>
<!-- AIM -->
<g id="node14" class="node">
<title>AIM</title>
<ellipse fill="none" stroke="black" cx="32.6" cy="-2704" rx="28.11" ry="18"/>
<text text-anchor="middle" x="32.6" y="-2698.57" font-family="Times New Roman,serif" font-size="14.00">AIM</text>
</g>
<!-- AIM&#45;&gt;AVB -->
<g id="edge22" class="edge">
<title>AIM&#45;&gt;AVB</title>
<path fill="none" stroke="gray" stroke-width="0.2" d="M46.45,-2688.14C55.2,-2677.34 65.2,-2665 65.2,-2665 65.2,-2665 157.94,-1895.86 194.05,-1596.36"/>
<polygon fill="gray" stroke="gray" stroke-width="0.2" points="197.5,-1596.99 195.22,-1586.64 190.55,-1596.15 197.5,-1596.99"/>
</g>
<!-- AIY -->
<g id="node15" class="node">
<title>AIY</title>
<ellipse fill="none" stroke="black" cx="32.6" cy="-2625" rx="27" ry="18"/>
<text text-anchor="middle" x="32.6" y="-2619.57" font-family="Times New Roman,serif" font-size="14.00">AIY</text>
</g>
<!-- AIY&#45;&gt;AVB -->
<g id="edge23" class="edge">
<title>AIY&#45;&gt;AVB</title>
<path fill="none" stroke="gray" stroke-width="0.2" d="M46.45,-2609.14C55.2,-2598.34 65.2,-2586 65.2,-2586 65.2,-2586 156.24,-1881.21 193.04,-1596.36"/>
<polygon fill="gray" stroke="gray" stroke-width="0.2" points="196.48,-1597.07 194.29,-1586.7 189.54,-1596.17 196.48,-1597.07"/>
</g>
<!-- ALM -->
<g id="node16" class="node">
<title>ALM</title>
<ellipse fill="none" stroke="black" cx="32.6" cy="-2546" rx="30.61" ry="18"/>
<text text-anchor="middle" x="32.6" y="-2540.57" font-family="Times New Roman,serif" font-size="14.00">ALM</text>
</g>
<!-- ALM&#45;&gt;AVB -->
<g id="edge24" class="edge">
<title>ALM&#45;&gt;AVB</title>
<path fill="none" stroke="gray" stroke-width="5" d="M46.82,-2529.69C55.48,-2519 65.2,-2507 65.2,-2507 65.2,-2507 153.14,-1874.84 191.1,-1601.98"/>
<polygon fill="gray" stroke="gray" stroke-width="5" points="195.4,-1602.79 192.44,-1592.28 186.73,-1601.58 195.4,-1602.79"/>
</g>
<!-- AQR -->
<g id="node17" class="node">
<title>AQR</title>
<ellipse fill="none" stroke="black" cx="32.6" cy="-2467" rx="30.61" ry="18"/>
<text text-anchor="middle" x="32.6" y="-2461.57" font-family="Times New Roman,serif" font-size="14.00">AQR</text>
</g>
<!-- AQR&#45;&gt;AVB -->
<g id="edge25" class="edge">
<title>AQR&#45;&gt;AVB</title>
<path fill="none" stroke="red" stroke-width="5" d="M46.82,-2450.69C55.48,-2440 65.2,-2428 65.2,-2428 65.2,-2428 151.05,-1858.31 189.71,-1601.71"/>
<polygon fill="red" stroke="red" stroke-width="5" points="193.98,-1602.73 191.15,-1592.19 185.33,-1601.42 193.98,-1602.73"/>
</g>
<!-- ASG -->
<g id="node18" class="node">
<title>ASG</title>
<ellipse fill="none" stroke="black" cx="32.6" cy="-2388" rx="29.61" ry="18"/>
<text text-anchor="middle" x="32.6" y="-2382.57" font-family="Times New Roman,serif" font-size="14.00">ASG</text>
</g>
<!-- ASG&#45;&gt;AVB -->
<g id="edge26" class="edge">
<title>ASG&#45;&gt;AVB</title>
<path fill="none" stroke="gray" stroke-width="0.2" d="M46.45,-2372.14C55.2,-2361.34 65.2,-2349 65.2,-2349 65.2,-2349 150.03,-1832.93 189.02,-1595.73"/>
<polygon fill="gray" stroke="gray" stroke-width="0.2" points="192.45,-1596.41 190.62,-1585.98 185.54,-1595.28 192.45,-1596.41"/>
</g>
<!-- ASH -->
<g id="node19" class="node">
<title>ASH</title>
<ellipse fill="none" stroke="black" cx="32.6" cy="-2309" rx="29.11" ry="18"/>
<text text-anchor="middle" x="32.6" y="-2303.57" font-family="Times New Roman,serif" font-size="14.00">ASH</text>
</g>
<!-- ASH&#45;&gt;AVB -->
<g id="edge27" class="edge">
<title>ASH&#45;&gt;AVB</title>
<path fill="none" stroke="red" stroke-width="5" d="M46.45,-2293.14C55.2,-2282.34 65.2,-2270 65.2,-2270 65.2,-2270 145.98,-1823.17 186.11,-1601.18"/>
<polygon fill="red" stroke="red" stroke-width="5" points="190.41,-1602.02 187.88,-1591.4 181.8,-1600.47 190.41,-1602.02"/>
</g>
<!-- ASI -->
<g id="node20" class="node">
<title>ASI</title>
<ellipse fill="none" stroke="black" cx="32.6" cy="-2230" rx="27" ry="18"/>
<text text-anchor="middle" x="32.6" y="-2224.57" font-family="Times New Roman,serif" font-size="14.00">ASI</text>
</g>
<!-- ASI&#45;&gt;AVB -->
<g id="edge28" class="edge">
<title>ASI&#45;&gt;AVB</title>
<path fill="none" stroke="gray" stroke-width="0.2" d="M46.45,-2214.14C55.2,-2203.34 65.2,-2191 65.2,-2191 65.2,-2191 144.42,-1796.59 184.93,-1594.87"/>
<polygon fill="gray" stroke="gray" stroke-width="0.2" points="188.35,-1595.61 186.89,-1585.12 181.49,-1594.24 188.35,-1595.61"/>
</g>
<!-- AVF -->
<g id="node21" class="node">
<title>AVF</title>
<ellipse fill="none" stroke="black" cx="32.6" cy="-2151" rx="29.11" ry="18"/>
<text text-anchor="middle" x="32.6" y="-2145.57" font-family="Times New Roman,serif" font-size="14.00">AVF</text>
</g>
<!-- AVF&#45;&gt;AVB -->
<g id="edge29" class="edge">
<title>AVF&#45;&gt;AVB</title>
<path fill="none" stroke="gray" stroke-width="2" d="M46.45,-2135.14C55.2,-2124.34 65.2,-2112 65.2,-2112 65.2,-2112 140.1,-1780.45 181.49,-1597.25"/>
<polygon fill="gray" stroke="gray" stroke-width="2" points="184.89,-1598.07 183.68,-1587.55 178.06,-1596.53 184.89,-1598.07"/>
</g>
<!-- AVH -->
<g id="node22" class="node">
<title>AVH</title>
<ellipse fill="none" stroke="black" cx="32.6" cy="-2072" rx="30.11" ry="18"/>
<text text-anchor="middle" x="32.6" y="-2066.57" font-family="Times New Roman,serif" font-size="14.00">AVH</text>
</g>
<!-- AVH&#45;&gt;AVB -->
<g id="edge30" class="edge">
<title>AVH&#45;&gt;AVB</title>
<path fill="none" stroke="red" stroke-width="0.2" d="M46.82,-2055.69C55.48,-2045 65.2,-2033 65.2,-2033 65.2,-2033 136.9,-1755.25 178.76,-1593.08"/>
<polygon fill="red" stroke="red" stroke-width="0.2" points="182.03,-1594.38 181.15,-1583.82 175.26,-1592.63 182.03,-1594.38"/>
</g>
<!-- AVK -->
<g id="node23" class="node">
<title>AVK</title>
<ellipse fill="none" stroke="black" cx="32.6" cy="-1993" rx="30.11" ry="18"/>
<text text-anchor="middle" x="32.6" y="-1987.58" font-family="Times New Roman,serif" font-size="14.00">AVK</text>
</g>
<!-- AVK&#45;&gt;AVB -->
<g id="edge31" class="edge">
<title>AVK&#45;&gt;AVB</title>
<path fill="none" stroke="gray" stroke-width="2" d="M46.82,-1976.69C55.48,-1966 65.2,-1954 65.2,-1954 65.2,-1954 131.12,-1735.04 173.45,-1594.45"/>
<polygon fill="gray" stroke="gray" stroke-width="2" points="176.68,-1595.84 176.21,-1585.26 169.98,-1593.83 176.68,-1595.84"/>
</g>
<!-- AVM -->
<g id="node24" class="node">
<title>AVM</title>
<ellipse fill="none" stroke="black" cx="32.6" cy="-1914" rx="31.6" ry="18"/>
<text text-anchor="middle" x="32.6" y="-1908.58" font-family="Times New Roman,serif" font-size="14.00">AVM</text>
</g>
<!-- AVM&#45;&gt;AVB -->
<g id="edge32" class="edge">
<title>AVM&#45;&gt;AVB</title>
<path fill="none" stroke="red" stroke-width="5" d="M46.82,-1897.69C55.48,-1887 65.2,-1875 65.2,-1875 65.2,-1875 123.85,-1712.6 166.02,-1595.8"/>
<polygon fill="red" stroke="red" stroke-width="5" points="170.07,-1597.48 169.35,-1586.59 161.84,-1594.51 170.07,-1597.48"/>
</g>
<!-- AWA -->
<g id="node25" class="node">
<title>AWA</title>
<ellipse fill="none" stroke="black" cx="32.6" cy="-1835" rx="32.6" ry="18"/>
<text text-anchor="middle" x="32.6" y="-1829.58" font-family="Times New Roman,serif" font-size="14.00">AWA</text>
</g>
<!-- AWA&#45;&gt;AVB -->
<g id="edge33" class="edge">
<title>AWA&#45;&gt;AVB</title>
<path fill="none" stroke="blue" stroke-width="5" d="M46.82,-1818.69C55.48,-1808 65.2,-1796 65.2,-1796 65.2,-1796 116.22,-1682.91 157.31,-1591.83"/>
<polygon fill="blue" stroke="blue" stroke-width="5" points="161.25,-1593.73 161.37,-1582.82 153.27,-1590.13 161.25,-1593.73"/>
</g>
<!-- AWB -->
<g id="node26" class="node">
<title>AWB</title>
<ellipse fill="none" stroke="black" cx="32.6" cy="-1756" rx="32.1" ry="18"/>
<text text-anchor="middle" x="32.6" y="-1750.58" font-family="Times New Roman,serif" font-size="14.00">AWB</text>
</g>
<!-- AWB&#45;&gt;AVB -->
<g id="edge34" class="edge">
<title>AWB&#45;&gt;AVB</title>
<path fill="none" stroke="gray" stroke-width="5" d="M46.82,-1739.69C55.48,-1729 65.2,-1717 65.2,-1717 65.2,-1717 106.27,-1648.66 144.38,-1585.21"/>
<polygon fill="gray" stroke="gray" stroke-width="5" points="148.1,-1587.53 149.5,-1576.7 140.6,-1583.02 148.1,-1587.53"/>
</g>
<!-- BDU -->
<g id="node27" class="node">
<title>BDU</title>
<ellipse fill="none" stroke="black" cx="32.6" cy="-1677" rx="29.61" ry="18"/>
<text text-anchor="middle" x="32.6" y="-1671.58" font-family="Times New Roman,serif" font-size="14.00">BDU</text>
</g>
<!-- BDU&#45;&gt;AVB -->
<g id="edge35" class="edge">
<title>BDU&#45;&gt;AVB</title>
<path fill="none" stroke="gray" stroke-width="0.2" d="M47.59,-1661.13C65.8,-1640.48 99.02,-1602.81 130.54,-1567.06"/>
<polygon fill="gray" stroke="gray" stroke-width="0.2" points="133.05,-1569.52 137.04,-1559.7 127.8,-1564.89 133.05,-1569.52"/>
</g>
<!-- CEP -->
<g id="node28" class="node">
<title>CEP</title>
<ellipse fill="none" stroke="black" cx="32.6" cy="-1598" rx="28.11" ry="18"/>
<text text-anchor="middle" x="32.6" y="-1592.58" font-family="Times New Roman,serif" font-size="14.00">CEP</text>
</g>
<!-- CEP&#45;&gt;AVB -->
<g id="edge36" class="edge">
<title>CEP&#45;&gt;AVB</title>
<path fill="none" stroke="gray" stroke-width="0.2" d="M52.62,-1585.04C67.26,-1575.06 88.71,-1560.44 111.04,-1545.22"/>
<polygon fill="gray" stroke="gray" stroke-width="0.2" points="112.75,-1548.29 119.04,-1539.77 108.81,-1542.51 112.75,-1548.29"/>
</g>
<!-- DVC -->
<g id="node29" class="node">
<title>DVC</title>
<ellipse fill="none" stroke="black" cx="32.6" cy="-1519" rx="30.11" ry="18"/>
<text text-anchor="middle" x="32.6" y="-1513.58" font-family="Times New Roman,serif" font-size="14.00">DVC</text>
</g>
<!-- DVC&#45;&gt;AVB -->
<g id="edge37" class="edge">
<title>DVC&#45;&gt;AVB</title>
<path fill="none" stroke="gray" stroke-width="2" d="M61.27,-1512.66C69.93,-1510.68 80.09,-1508.35 90.96,-1505.86"/>
<polygon fill="gray" stroke="gray" stroke-width="2" points="91.57,-1509.31 100.54,-1503.66 90.01,-1502.49 91.57,-1509.31"/>
</g>
<!-- FLP -->
<g id="node30" class="node">
<title>FLP</title>
<ellipse fill="none" stroke="black" cx="32.6" cy="-1440" rx="27.11" ry="18"/>
<text text-anchor="middle" x="32.6" y="-1434.58" font-family="Times New Roman,serif" font-size="14.00">FLP</text>
</g>
<!-- FLP&#45;&gt;AVB -->
<g id="edge38" class="edge">
<title>FLP&#45;&gt;AVB</title>
<path fill="none" stroke="red" stroke-width="5" d="M58.62,-1445.59C67.01,-1447.46 77.01,-1449.7 87.8,-1452.11"/>
<polygon fill="red" stroke="red" stroke-width="5" points="86.7,-1456.34 97.42,-1454.25 88.61,-1447.8 86.7,-1456.34"/>
</g>
<!-- HSN -->
<g id="node31" class="node">
<title>HSN</title>
<ellipse fill="none" stroke="black" cx="32.6" cy="-1361" rx="29.11" ry="18"/>
<text text-anchor="middle" x="32.6" y="-1355.58" font-family="Times New Roman,serif" font-size="14.00">HSN</text>
</g>
<!-- HSN&#45;&gt;AVB -->
<g id="edge39" class="edge">
<title>HSN&#45;&gt;AVB</title>
<path fill="none" stroke="gray" stroke-width="2" d="M52.95,-1374.08C67.07,-1383.62 87.39,-1397.35 108.7,-1411.75"/>
<polygon fill="gray" stroke="gray" stroke-width="2" points="106.46,-1414.46 116.71,-1417.16 110.38,-1408.66 106.46,-1414.46"/>
</g>
<!-- IL2 -->
<g id="node32" class="node">
<title>IL2</title>
<ellipse fill="none" stroke="black" cx="32.6" cy="-1282" rx="27" ry="18"/>
<text text-anchor="middle" x="32.6" y="-1276.58" font-family="Times New Roman,serif" font-size="14.00">IL2</text>
</g>
<!-- IL2&#45;&gt;AVB -->
<g id="edge40" class="edge">
<title>IL2&#45;&gt;AVB</title>
<path fill="none" stroke="gray" stroke-width="0.2" d="M47.3,-1297.46C65.39,-1317.87 98.65,-1355.4 130.26,-1391.06"/>
<polygon fill="gray" stroke="gray" stroke-width="0.2" points="127.52,-1393.24 136.77,-1398.41 132.76,-1388.6 127.52,-1393.24"/>
</g>
<!-- PLN -->
<g id="node33" class="node">
<title>PLN</title>
<ellipse fill="none" stroke="black" cx="32.6" cy="-1203" rx="28.11" ry="18"/>
<text text-anchor="middle" x="32.6" y="-1197.58" font-family="Times New Roman,serif" font-size="14.00">PLN</text>
</g>
<!-- PLN&#45;&gt;AVB -->
<g id="edge41" class="edge">
<title>PLN&#45;&gt;AVB</title>
<path fill="none" stroke="gray" stroke-width="0.2" d="M46.09,-1218.81C54.92,-1229.99 65.2,-1243 65.2,-1243 65.2,-1243 108.24,-1314.03 147.1,-1378.15"/>
<polygon fill="gray" stroke="gray" stroke-width="0.2" points="143.97,-1379.74 152.14,-1386.48 149.95,-1376.12 143.97,-1379.74"/>
</g>
<!-- PVN -->
<g id="node34" class="node">
<title>PVN</title>
<ellipse fill="none" stroke="black" cx="32.6" cy="-1124" rx="29.11" ry="18"/>
<text text-anchor="middle" x="32.6" y="-1118.58" font-family="Times New Roman,serif" font-size="14.00">PVN</text>
</g>
<!-- PVN&#45;&gt;AVB -->
<g id="edge42" class="edge">
<title>PVN&#45;&gt;AVB</title>
<path fill="none" stroke="gray" stroke-width="5" d="M46.45,-1140.27C55.2,-1151.34 65.2,-1164 65.2,-1164 65.2,-1164 115.9,-1275.68 156.92,-1366.04"/>
<polygon fill="gray" stroke="gray" stroke-width="5" points="152.85,-1367.65 160.97,-1374.95 160.82,-1364.03 152.85,-1367.65"/>
</g>
<!-- PVP -->
<g id="node35" class="node">
<title>PVP</title>
<ellipse fill="none" stroke="black" cx="32.6" cy="-1045" rx="28.11" ry="18"/>
<text text-anchor="middle" x="32.6" y="-1039.58" font-family="Times New Roman,serif" font-size="14.00">PVP</text>
</g>
<!-- PVP&#45;&gt;AVB -->
<g id="edge43" class="edge">
<title>PVP&#45;&gt;AVB</title>
<path fill="none" stroke="black" stroke-width="5" d="M46.09,-1060.81C54.92,-1071.99 65.2,-1085 65.2,-1085 65.2,-1085 123.76,-1246.34 165.93,-1362.53"/>
<polygon fill="black" stroke="black" stroke-width="5" points="161.72,-1363.76 169.25,-1371.67 169.95,-1360.78 161.72,-1363.76"/>
</g>
<!-- PVQ -->
<g id="node36" class="node">
<title>PVQ</title>
<ellipse fill="none" stroke="black" cx="32.6" cy="-966" rx="29.61" ry="18"/>
<text text-anchor="middle" x="32.6" y="-960.58" font-family="Times New Roman,serif" font-size="14.00">PVQ</text>
</g>
<!-- PVQ&#45;&gt;AVB -->
<g id="edge44" class="edge">
<title>PVQ&#45;&gt;AVB</title>
<path fill="none" stroke="gray" stroke-width="0.2" d="M46.45,-982.27C55.2,-993.34 65.2,-1006 65.2,-1006 65.2,-1006 131.73,-1226.06 174.03,-1365.98"/>
<polygon fill="gray" stroke="gray" stroke-width="0.2" points="170.58,-1366.64 176.82,-1375.2 177.28,-1364.62 170.58,-1366.64"/>
</g>
<!-- PVR -->
<g id="node37" class="node">
<title>PVR</title>
<ellipse fill="none" stroke="black" cx="32.6" cy="-887" rx="29.11" ry="18"/>
<text text-anchor="middle" x="32.6" y="-881.58" font-family="Times New Roman,serif" font-size="14.00">PVR</text>
</g>
<!-- PVR&#45;&gt;AVB -->
<g id="edge45" class="edge">
<title>PVR&#45;&gt;AVB</title>
<path fill="none" stroke="gray" stroke-width="5" d="M46.45,-903.27C55.2,-914.34 65.2,-927 65.2,-927 65.2,-927 135.1,-1196.81 177.16,-1359.16"/>
<polygon fill="gray" stroke="gray" stroke-width="5" points="172.83,-1359.9 179.57,-1368.49 181.3,-1357.71 172.83,-1359.9"/>
</g>
<!-- RIB -->
<g id="node38" class="node">
<title>RIB</title>
<ellipse fill="none" stroke="black" cx="32.6" cy="-808" rx="27" ry="18"/>
<text text-anchor="middle" x="32.6" y="-802.58" font-family="Times New Roman,serif" font-size="14.00">RIB</text>
</g>
<!-- RIB&#45;&gt;AVB -->
<g id="edge46" class="edge">
<title>RIB&#45;&gt;AVB</title>
<path fill="none" stroke="gray" stroke-width="0.2" d="M46.09,-823.81C54.92,-834.99 65.2,-848 65.2,-848 65.2,-848 140.85,-1181.81 182.11,-1363.85"/>
<polygon fill="gray" stroke="gray" stroke-width="0.2" points="178.66,-1364.47 184.28,-1373.44 185.48,-1362.92 178.66,-1364.47"/>
</g>
<!-- RIC -->
<g id="node39" class="node">
<title>RIC</title>
<ellipse fill="none" stroke="black" cx="32.6" cy="-729" rx="27" ry="18"/>
<text text-anchor="middle" x="32.6" y="-723.58" font-family="Times New Roman,serif" font-size="14.00">RIC</text>
</g>
<!-- RIC&#45;&gt;AVB -->
<g id="edge47" class="edge">
<title>RIC&#45;&gt;AVB</title>
<path fill="none" stroke="gray" stroke-width="0.2" d="M46.09,-744.81C54.92,-755.99 65.2,-769 65.2,-769 65.2,-769 144.31,-1161.79 184.85,-1363.06"/>
<polygon fill="gray" stroke="gray" stroke-width="0.2" points="181.41,-1363.68 186.81,-1372.79 188.27,-1362.3 181.41,-1363.68"/>
</g>
<!-- RIF -->
<g id="node40" class="node">
<title>RIF</title>
<ellipse fill="none" stroke="black" cx="32.6" cy="-650" rx="27" ry="18"/>
<text text-anchor="middle" x="32.6" y="-644.58" font-family="Times New Roman,serif" font-size="14.00">RIF</text>
</g>
<!-- RIF&#45;&gt;AVB -->
<g id="edge48" class="edge">
<title>RIF&#45;&gt;AVB</title>
<path fill="none" stroke="black" stroke-width="5" d="M46.09,-665.81C54.92,-676.99 65.2,-690 65.2,-690 65.2,-690 145.88,-1135.14 186.04,-1356.71"/>
<polygon fill="black" stroke="black" stroke-width="5" points="181.72,-1357.4 187.8,-1366.45 190.33,-1355.83 181.72,-1357.4"/>
</g>
<!-- RIG -->
<g id="node41" class="node">
<title>RIG</title>
<ellipse fill="none" stroke="black" cx="32.6" cy="-571" rx="27.11" ry="18"/>
<text text-anchor="middle" x="32.6" y="-565.58" font-family="Times New Roman,serif" font-size="14.00">RIG</text>
</g>
<!-- RIG&#45;&gt;AVB -->
<g id="edge49" class="edge">
<title>RIG&#45;&gt;AVB</title>
<path fill="none" stroke="gray" stroke-width="0.2" d="M46.09,-586.81C54.92,-597.99 65.2,-611 65.2,-611 65.2,-611 149.92,-1125.24 188.94,-1362.1"/>
<polygon fill="gray" stroke="gray" stroke-width="0.2" points="185.47,-1362.53 190.55,-1371.83 192.37,-1361.4 185.47,-1362.53"/>
</g>
<!-- RIP -->
<g id="node42" class="node">
<title>RIP</title>
<ellipse fill="none" stroke="black" cx="32.6" cy="-492" rx="27" ry="18"/>
<text text-anchor="middle" x="32.6" y="-486.57" font-family="Times New Roman,serif" font-size="14.00">RIP</text>
</g>
<!-- RIP&#45;&gt;AVB -->
<g id="edge50" class="edge">
<title>RIP&#45;&gt;AVB</title>
<path fill="none" stroke="gray" stroke-width="2" d="M46.09,-507.81C54.92,-518.99 65.2,-532 65.2,-532 65.2,-532 151.73,-1105.03 190.17,-1359.59"/>
<polygon fill="gray" stroke="gray" stroke-width="2" points="186.67,-1359.85 191.62,-1369.21 193.59,-1358.8 186.67,-1359.85"/>
</g>
<!-- RMG -->
<g id="node43" class="node">
<title>RMG</title>
<ellipse fill="none" stroke="black" cx="32.6" cy="-413" rx="32.1" ry="18"/>
<text text-anchor="middle" x="32.6" y="-407.57" font-family="Times New Roman,serif" font-size="14.00">RMG</text>
</g>
<!-- RMG&#45;&gt;AVB -->
<g id="edge51" class="edge">
<title>RMG&#45;&gt;AVB</title>
<path fill="none" stroke="red" stroke-width="5" d="M46.45,-429.27C55.2,-440.34 65.2,-453 65.2,-453 65.2,-453 153.14,-1083.93 191.1,-1356.26"/>
<polygon fill="red" stroke="red" stroke-width="5" points="186.73,-1356.63 192.44,-1365.93 195.39,-1355.42 186.73,-1356.63"/>
</g>
<!-- SAA -->
<g id="node44" class="node">
<title>SAA</title>
<ellipse fill="none" stroke="black" cx="32.6" cy="-334" rx="29.11" ry="18"/>
<text text-anchor="middle" x="32.6" y="-328.57" font-family="Times New Roman,serif" font-size="14.00">SAA</text>
</g>
<!-- SAA&#45;&gt;AVB -->
<g id="edge52" class="edge">
<title>SAA&#45;&gt;AVB</title>
<path fill="none" stroke="gray" stroke-width="0.2" d="M46.45,-350.27C55.2,-361.34 65.2,-374 65.2,-374 65.2,-374 156.19,-1077.09 193.01,-1361.6"/>
<polygon fill="gray" stroke="gray" stroke-width="0.2" points="189.5,-1361.77 194.26,-1371.24 196.44,-1360.87 189.5,-1361.77"/>
</g>
<!-- SMB -->
<g id="node45" class="node">
<title>SMB</title>
<ellipse fill="none" stroke="black" cx="32.6" cy="-255" rx="30.11" ry="18"/>
<text text-anchor="middle" x="32.6" y="-249.57" font-family="Times New Roman,serif" font-size="14.00">SMB</text>
</g>
<!-- SMB&#45;&gt;AVB -->
<g id="edge53" class="edge">
<title>SMB&#45;&gt;AVB</title>
<path fill="none" stroke="gray" stroke-width="0.2" d="M46.45,-271.27C55.2,-282.34 65.2,-295 65.2,-295 65.2,-295 157.88,-1062.39 194.02,-1361.57"/>
<polygon fill="gray" stroke="gray" stroke-width="0.2" points="190.52,-1361.77 195.19,-1371.28 197.47,-1360.93 190.52,-1361.77"/>
</g>
<!-- URB -->
<g id="node46" class="node">
<title>URB</title>
<ellipse fill="none" stroke="black" cx="32.6" cy="-176" rx="29.61" ry="18"/>
<text text-anchor="middle" x="32.6" y="-170.57" font-family="Times New Roman,serif" font-size="14.00">URB</text>
</g>
<!-- URB&#45;&gt;AVB -->
<g id="edge54" class="edge">
<title>URB&#45;&gt;AVB</title>
<path fill="none" stroke="red" stroke-width="2" d="M46.45,-192.27C55.2,-203.34 65.2,-216 65.2,-216 65.2,-216 158.82,-1042.81 194.56,-1358.49"/>
<polygon fill="red" stroke="red" stroke-width="2" points="191.07,-1358.77 195.67,-1368.31 198.02,-1357.98 191.07,-1358.77"/>
</g>
<!-- URX -->
<g id="node47" class="node">
<title>URX</title>
<ellipse fill="none" stroke="black" cx="32.6" cy="-97" rx="30.11" ry="18"/>
<text text-anchor="middle" x="32.6" y="-91.58" font-family="Times New Roman,serif" font-size="14.00">URX</text>
</g>
<!-- URX&#45;&gt;AVB -->
<g id="edge55" class="edge">
<title>URX&#45;&gt;AVB</title>
<path fill="none" stroke="gray" stroke-width="2" d="M46.45,-113.27C55.2,-124.34 65.2,-137 65.2,-137 65.2,-137 160.25,-1029 195.37,-1358.54"/>
<polygon fill="gray" stroke="gray" stroke-width="2" points="191.88,-1358.86 196.42,-1368.44 198.84,-1358.12 191.88,-1358.86"/>
</g>
<!-- URY -->
<g id="node48" class="node">
<title>URY</title>
<ellipse fill="none" stroke="black" cx="32.6" cy="-18" rx="30.11" ry="18"/>
<text text-anchor="middle" x="32.6" y="-12.57" font-family="Times New Roman,serif" font-size="14.00">URY</text>
</g>
<!-- URY&#45;&gt;AVB -->
<g id="edge56" class="edge">
<title>URY&#45;&gt;AVB</title>
<path fill="none" stroke="gray" stroke-width="5" d="M46.45,-34.27C55.2,-45.34 65.2,-58 65.2,-58 65.2,-58 160.96,-1009.55 195.76,-1355.32"/>
<polygon fill="gray" stroke="gray" stroke-width="5" points="191.39,-1355.6 196.74,-1365.11 200.09,-1354.73 191.39,-1355.6"/>
</g>
</g>
</svg>
