<?xml version="1.0" encoding="UTF-8" standalone="no"?>
<!DOCTYPE svg PUBLIC "-//W3C//DTD SVG 1.1//EN"
 "http://www.w3.org/Graphics/SVG/1.1/DTD/svg11.dtd">
<!-- Generated by graphviz version 11.0.0 (20240428.1522)
 -->
<!-- Pages: 1 -->
<svg width="418pt" height="2967pt"
 viewBox="0.00 0.00 418.42 2967.00" xmlns="http://www.w3.org/2000/svg" xmlns:xlink="http://www.w3.org/1999/xlink">
<g id="graph0" class="graph" transform="scale(1 1) rotate(0) translate(4 2963)">
<polygon fill="white" stroke="none" points="-4,4 -4,-2963 414.42,-2963 414.42,4 -4,4"/>
<!-- AVD -->
<g id="node1" class="node">
<title>AVD</title>
<ellipse fill="none" stroke="black" cx="208.2" cy="-1479" rx="108" ry="108"/>
<text text-anchor="middle" x="208.2" y="-1460" font-family="Times New Roman,serif" font-size="50.00">AVD</text>
</g>
<!-- ALA -->
<g id="node2" class="node">
<title>ALA</title>
<ellipse fill="none" stroke="black" cx="381.31" cy="-1519" rx="29.11" ry="18"/>
<text text-anchor="middle" x="381.31" y="-1513.58" font-family="Times New Roman,serif" font-size="14.00">ALA</text>
</g>
<!-- AVD&#45;&gt;ALA -->
<g id="edge1" class="edge">
<title>AVD&#45;&gt;ALA</title>
<path fill="none" stroke="gray" stroke-width="0.2" d="M316.11,-1488.32C329.83,-1492.12 342.77,-1496.33 353.38,-1500.58"/>
<polygon fill="gray" stroke="gray" stroke-width="0.2" points="351.96,-1503.78 362.52,-1504.53 354.74,-1497.35 351.96,-1503.78"/>
</g>
<!-- AVJ -->
<g id="node3" class="node">
<title>AVJ</title>
<ellipse fill="none" stroke="black" cx="381.31" cy="-1440" rx="27.11" ry="18"/>
<text text-anchor="middle" x="381.31" y="-1434.58" font-family="Times New Roman,serif" font-size="14.00">AVJ</text>
</g>
<!-- AVD&#45;&gt;AVJ -->
<g id="edge2" class="edge">
<title>AVD&#45;&gt;AVJ</title>
<path fill="none" stroke="gray" stroke-width="0.2" d="M309.23,-1440.28C322.07,-1437.73 334.46,-1435.77 345.19,-1434.69"/>
<polygon fill="gray" stroke="gray" stroke-width="0.2" points="345.34,-1438.19 355.04,-1433.93 344.8,-1431.21 345.34,-1438.19"/>
</g>
<!-- ALA&#45;&gt;AVD -->
<g id="edge3" class="edge">
<title>ALA&#45;&gt;AVD</title>
<path fill="none" stroke="gray" stroke-width="0.2" d="M353.36,-1524.83C343.5,-1524.16 331.64,-1522.53 319.02,-1520.21"/>
<polygon fill="gray" stroke="gray" stroke-width="0.2" points="320.02,-1516.83 309.53,-1518.36 318.68,-1523.71 320.02,-1516.83"/>
</g>
<!-- AVJ&#45;&gt;AVD -->
<g id="edge4" class="edge">
<title>AVJ&#45;&gt;AVD</title>
<path fill="none" stroke="gray" stroke-width="2" d="M363.33,-1454C354.15,-1458.33 341.91,-1462.73 328.34,-1466.81"/>
<polygon fill="gray" stroke="gray" stroke-width="2" points="327.68,-1463.36 319.02,-1469.47 329.6,-1470.09 327.68,-1463.36"/>
</g>
<!-- ADA -->
<g id="node4" class="node">
<title>ADA</title>
<ellipse fill="none" stroke="black" cx="32.1" cy="-2941" rx="30.11" ry="18"/>
<text text-anchor="middle" x="32.1" y="-2935.57" font-family="Times New Roman,serif" font-size="14.00">ADA</text>
</g>
<!-- ADA&#45;&gt;AVD -->
<g id="edge5" class="edge">
<title>ADA&#45;&gt;AVD</title>
<path fill="none" stroke="black" stroke-width="5" d="M46.11,-2924.69C54.63,-2914 64.2,-2902 64.2,-2902 64.2,-2902 159.96,-1949.12 194.76,-1602.86"/>
<polygon fill="black" stroke="black" stroke-width="5" points="199.1,-1603.43 195.74,-1593.04 190.39,-1602.55 199.1,-1603.43"/>
</g>
<!-- ADE -->
<g id="node5" class="node">
<title>ADE</title>
<ellipse fill="none" stroke="black" cx="32.1" cy="-2862" rx="29.11" ry="18"/>
<text text-anchor="middle" x="32.1" y="-2856.57" font-family="Times New Roman,serif" font-size="14.00">ADE</text>
</g>
<!-- ADE&#45;&gt;AVD -->
<g id="edge6" class="edge">
<title>ADE&#45;&gt;AVD</title>
<path fill="none" stroke="gray" stroke-width="0.2" d="M45.75,-2846.14C54.36,-2835.34 64.2,-2823 64.2,-2823 64.2,-2823 159.82,-1924.36 194.68,-1596.71"/>
<polygon fill="gray" stroke="gray" stroke-width="0.2" points="198.13,-1597.33 195.71,-1587.01 191.17,-1596.59 198.13,-1597.33"/>
</g>
<!-- ADL -->
<g id="node6" class="node">
<title>ADL</title>
<ellipse fill="none" stroke="black" cx="32.1" cy="-2783" rx="29.11" ry="18"/>
<text text-anchor="middle" x="32.1" y="-2777.57" font-family="Times New Roman,serif" font-size="14.00">ADL</text>
</g>
<!-- ADL&#45;&gt;AVD -->
<g id="edge7" class="edge">
<title>ADL&#45;&gt;AVD</title>
<path fill="none" stroke="black" stroke-width="5" d="M45.75,-2767.14C54.36,-2756.34 64.2,-2744 64.2,-2744 64.2,-2744 157.32,-1920.3 193.27,-1602.25"/>
<polygon fill="black" stroke="black" stroke-width="5" points="197.57,-1603.21 194.34,-1592.78 188.87,-1602.22 197.57,-1603.21"/>
</g>
<!-- AIB -->
<g id="node7" class="node">
<title>AIB</title>
<ellipse fill="none" stroke="black" cx="32.1" cy="-2704" rx="27" ry="18"/>
<text text-anchor="middle" x="32.1" y="-2698.57" font-family="Times New Roman,serif" font-size="14.00">AIB</text>
</g>
<!-- AIB&#45;&gt;AVD -->
<g id="edge8" class="edge">
<title>AIB&#45;&gt;AVD</title>
<path fill="none" stroke="gray" stroke-width="0.2" d="M45.75,-2688.14C54.36,-2677.34 64.2,-2665 64.2,-2665 64.2,-2665 156.94,-1895.86 193.05,-1596.36"/>
<polygon fill="gray" stroke="gray" stroke-width="0.2" points="196.5,-1596.99 194.23,-1586.64 189.55,-1596.15 196.5,-1596.99"/>
</g>
<!-- AIM -->
<g id="node8" class="node">
<title>AIM</title>
<ellipse fill="none" stroke="black" cx="32.1" cy="-2625" rx="28.11" ry="18"/>
<text text-anchor="middle" x="32.1" y="-2619.57" font-family="Times New Roman,serif" font-size="14.00">AIM</text>
</g>
<!-- AIM&#45;&gt;AVD -->
<g id="edge9" class="edge">
<title>AIM&#45;&gt;AVD</title>
<path fill="none" stroke="red" stroke-width="2" d="M45.75,-2609.14C54.36,-2598.34 64.2,-2586 64.2,-2586 64.2,-2586 154.71,-1885.39 191.72,-1598.9"/>
<polygon fill="red" stroke="red" stroke-width="2" points="195.13,-1599.77 192.94,-1589.4 188.19,-1598.87 195.13,-1599.77"/>
</g>
<!-- AIZ -->
<g id="node9" class="node">
<title>AIZ</title>
<ellipse fill="none" stroke="black" cx="32.1" cy="-2546" rx="27" ry="18"/>
<text text-anchor="middle" x="32.1" y="-2540.57" font-family="Times New Roman,serif" font-size="14.00">AIZ</text>
</g>
<!-- AIZ&#45;&gt;AVD -->
<g id="edge10" class="edge">
<title>AIZ&#45;&gt;AVD</title>
<path fill="none" stroke="gray" stroke-width="0.2" d="M45.75,-2530.14C54.36,-2519.34 64.2,-2507 64.2,-2507 64.2,-2507 153.46,-1865.36 190.94,-1595.92"/>
<polygon fill="gray" stroke="gray" stroke-width="0.2" points="194.35,-1596.79 192.26,-1586.4 187.42,-1595.83 194.35,-1596.79"/>
</g>
<!-- ALM -->
<g id="node10" class="node">
<title>ALM</title>
<ellipse fill="none" stroke="black" cx="32.1" cy="-2467" rx="30.61" ry="18"/>
<text text-anchor="middle" x="32.1" y="-2461.57" font-family="Times New Roman,serif" font-size="14.00">ALM</text>
</g>
<!-- ALM&#45;&gt;AVD -->
<g id="edge11" class="edge">
<title>ALM&#45;&gt;AVD</title>
<path fill="none" stroke="black" stroke-width="5" d="M46.11,-2450.69C54.63,-2440 64.2,-2428 64.2,-2428 64.2,-2428 150.05,-1858.31 188.71,-1601.71"/>
<polygon fill="black" stroke="black" stroke-width="5" points="192.98,-1602.73 190.15,-1592.19 184.33,-1601.42 192.98,-1602.73"/>
</g>
<!-- AQR -->
<g id="node11" class="node">
<title>AQR</title>
<ellipse fill="none" stroke="black" cx="32.1" cy="-2388" rx="30.61" ry="18"/>
<text text-anchor="middle" x="32.1" y="-2382.57" font-family="Times New Roman,serif" font-size="14.00">AQR</text>
</g>
<!-- AQR&#45;&gt;AVD -->
<g id="edge12" class="edge">
<title>AQR&#45;&gt;AVD</title>
<path fill="none" stroke="red" stroke-width="5" d="M46.11,-2371.69C54.63,-2361 64.2,-2349 64.2,-2349 64.2,-2349 147.69,-1841.07 187.08,-1601.42"/>
<polygon fill="red" stroke="red" stroke-width="5" points="191.35,-1602.41 188.66,-1591.83 182.72,-1600.99 191.35,-1602.41"/>
</g>
<!-- ASH -->
<g id="node12" class="node">
<title>ASH</title>
<ellipse fill="none" stroke="black" cx="32.1" cy="-2309" rx="29.11" ry="18"/>
<text text-anchor="middle" x="32.1" y="-2303.57" font-family="Times New Roman,serif" font-size="14.00">ASH</text>
</g>
<!-- ASH&#45;&gt;AVD -->
<g id="edge13" class="edge">
<title>ASH&#45;&gt;AVD</title>
<path fill="none" stroke="red" stroke-width="5" d="M45.75,-2293.14C54.36,-2282.34 64.2,-2270 64.2,-2270 64.2,-2270 144.98,-1823.17 185.12,-1601.18"/>
<polygon fill="red" stroke="red" stroke-width="5" points="189.41,-1602.02 186.88,-1591.4 180.8,-1600.47 189.41,-1602.02"/>
</g>
<!-- ASK -->
<g id="node13" class="node">
<title>ASK</title>
<ellipse fill="none" stroke="black" cx="32.1" cy="-2230" rx="29.11" ry="18"/>
<text text-anchor="middle" x="32.1" y="-2224.57" font-family="Times New Roman,serif" font-size="14.00">ASK</text>
</g>
<!-- ASK&#45;&gt;AVD -->
<g id="edge14" class="edge">
<title>ASK&#45;&gt;AVD</title>
<path fill="none" stroke="gray" stroke-width="0.2" d="M45.75,-2214.14C54.36,-2203.34 64.2,-2191 64.2,-2191 64.2,-2191 143.42,-1796.59 183.93,-1594.87"/>
<polygon fill="gray" stroke="gray" stroke-width="0.2" points="187.35,-1595.61 185.89,-1585.12 180.49,-1594.24 187.35,-1595.61"/>
</g>
<!-- AUA -->
<g id="node14" class="node">
<title>AUA</title>
<ellipse fill="none" stroke="black" cx="32.1" cy="-2151" rx="30.11" ry="18"/>
<text text-anchor="middle" x="32.1" y="-2145.57" font-family="Times New Roman,serif" font-size="14.00">AUA</text>
</g>
<!-- AUA&#45;&gt;AVD -->
<g id="edge15" class="edge">
<title>AUA&#45;&gt;AVD</title>
<path fill="none" stroke="gray" stroke-width="2" d="M46.11,-2134.69C54.63,-2124 64.2,-2112 64.2,-2112 64.2,-2112 139.1,-1780.45 180.49,-1597.25"/>
<polygon fill="gray" stroke="gray" stroke-width="2" points="183.89,-1598.07 182.68,-1587.55 177.06,-1596.53 183.89,-1598.07"/>
</g>
<!-- AVA -->
<g id="node15" class="node">
<title>AVA</title>
<ellipse fill="none" stroke="black" cx="32.1" cy="-2072" rx="30.11" ry="18"/>
<text text-anchor="middle" x="32.1" y="-2066.57" font-family="Times New Roman,serif" font-size="14.00">AVA</text>
</g>
<!-- AVA&#45;&gt;AVD -->
<g id="edge16" class="edge">
<title>AVA&#45;&gt;AVD</title>
<path fill="none" stroke="gray" stroke-width="0.2" d="M46.11,-2055.69C54.63,-2045 64.2,-2033 64.2,-2033 64.2,-2033 135.9,-1755.25 177.76,-1593.08"/>
<polygon fill="gray" stroke="gray" stroke-width="0.2" points="181.04,-1594.38 180.15,-1583.82 174.26,-1592.63 181.04,-1594.38"/>
</g>
<!-- AVB -->
<g id="node16" class="node">
<title>AVB</title>
<ellipse fill="none" stroke="black" cx="32.1" cy="-1993" rx="29.61" ry="18"/>
<text text-anchor="middle" x="32.1" y="-1987.58" font-family="Times New Roman,serif" font-size="14.00">AVB</text>
</g>
<!-- AVB&#45;&gt;AVD -->
<g id="edge17" class="edge">
<title>AVB&#45;&gt;AVD</title>
<path fill="none" stroke="gray" stroke-width="0.2" d="M46.11,-1976.69C54.63,-1966 64.2,-1954 64.2,-1954 64.2,-1954 130.92,-1732.39 173.21,-1591.91"/>
<polygon fill="gray" stroke="gray" stroke-width="0.2" points="176.47,-1593.24 176,-1582.65 169.77,-1591.22 176.47,-1593.24"/>
</g>
<!-- AVH -->
<g id="node17" class="node">
<title>AVH</title>
<ellipse fill="none" stroke="black" cx="32.1" cy="-1914" rx="30.11" ry="18"/>
<text text-anchor="middle" x="32.1" y="-1908.58" font-family="Times New Roman,serif" font-size="14.00">AVH</text>
</g>
<!-- AVH&#45;&gt;AVD -->
<g id="edge18" class="edge">
<title>AVH&#45;&gt;AVD</title>
<path fill="none" stroke="gray" stroke-width="0.2" d="M46.11,-1897.69C54.63,-1887 64.2,-1875 64.2,-1875 64.2,-1875 124.78,-1707.26 167.08,-1590.12"/>
<polygon fill="gray" stroke="gray" stroke-width="0.2" points="170.26,-1591.6 170.37,-1581.01 163.68,-1589.22 170.26,-1591.6"/>
</g>
<!-- AVM -->
<g id="node18" class="node">
<title>AVM</title>
<ellipse fill="none" stroke="black" cx="32.1" cy="-1835" rx="31.6" ry="18"/>
<text text-anchor="middle" x="32.1" y="-1829.58" font-family="Times New Roman,serif" font-size="14.00">AVM</text>
</g>
<!-- AVM&#45;&gt;AVD -->
<g id="edge19" class="edge">
<title>AVM&#45;&gt;AVD</title>
<path fill="none" stroke="red" stroke-width="0.2" d="M46.11,-1818.69C54.63,-1808 64.2,-1796 64.2,-1796 64.2,-1796 117.23,-1678.44 158.71,-1586.51"/>
<polygon fill="red" stroke="red" stroke-width="0.2" points="161.89,-1587.96 162.81,-1577.41 155.51,-1585.08 161.89,-1587.96"/>
</g>
<!-- AWB -->
<g id="node19" class="node">
<title>AWB</title>
<ellipse fill="none" stroke="black" cx="32.1" cy="-1756" rx="32.1" ry="18"/>
<text text-anchor="middle" x="32.1" y="-1750.58" font-family="Times New Roman,serif" font-size="14.00">AWB</text>
</g>
<!-- AWB&#45;&gt;AVD -->
<g id="edge20" class="edge">
<title>AWB&#45;&gt;AVD</title>
<path fill="none" stroke="blue" stroke-width="5" d="M46.11,-1739.69C54.63,-1729 64.2,-1717 64.2,-1717 64.2,-1717 105.27,-1648.66 143.39,-1585.21"/>
<polygon fill="blue" stroke="blue" stroke-width="5" points="147.1,-1587.53 148.5,-1576.7 139.6,-1583.02 147.1,-1587.53"/>
</g>
<!-- BAG -->
<g id="node20" class="node">
<title>BAG</title>
<ellipse fill="none" stroke="black" cx="32.1" cy="-1677" rx="30.11" ry="18"/>
<text text-anchor="middle" x="32.1" y="-1671.58" font-family="Times New Roman,serif" font-size="14.00">BAG</text>
</g>
<!-- BAG&#45;&gt;AVD -->
<g id="edge21" class="edge">
<title>BAG&#45;&gt;AVD</title>
<path fill="none" stroke="gray" stroke-width="0.2" d="M47.06,-1661.13C65.14,-1640.57 98.06,-1603.12 129.38,-1567.51"/>
<polygon fill="gray" stroke="gray" stroke-width="0.2" points="131.85,-1569.99 135.83,-1560.17 126.6,-1565.37 131.85,-1569.99"/>
</g>
<!-- BDU -->
<g id="node21" class="node">
<title>BDU</title>
<ellipse fill="none" stroke="black" cx="32.1" cy="-1598" rx="29.61" ry="18"/>
<text text-anchor="middle" x="32.1" y="-1592.58" font-family="Times New Roman,serif" font-size="14.00">BDU</text>
</g>
<!-- BDU&#45;&gt;AVD -->
<g id="edge22" class="edge">
<title>BDU&#45;&gt;AVD</title>
<path fill="none" stroke="gray" stroke-width="0.2" d="M52.74,-1584.58C67.24,-1574.66 88.19,-1560.35 110,-1545.44"/>
<polygon fill="gray" stroke="gray" stroke-width="0.2" points="111.86,-1548.41 118.14,-1539.87 107.91,-1542.63 111.86,-1548.41"/>
</g>
<!-- CEP -->
<g id="node22" class="node">
<title>CEP</title>
<ellipse fill="none" stroke="black" cx="32.1" cy="-1519" rx="28.11" ry="18"/>
<text text-anchor="middle" x="32.1" y="-1513.58" font-family="Times New Roman,serif" font-size="14.00">CEP</text>
</g>
<!-- CEP&#45;&gt;AVD -->
<g id="edge23" class="edge">
<title>CEP&#45;&gt;AVD</title>
<path fill="none" stroke="gray" stroke-width="0.2" d="M59.17,-1513.01C68.84,-1510.79 80.54,-1508.1 93.07,-1505.22"/>
<polygon fill="gray" stroke="gray" stroke-width="0.2" points="93.53,-1508.71 102.49,-1503.06 91.96,-1501.89 93.53,-1508.71"/>
</g>
<!-- DVA -->
<g id="node23" class="node">
<title>DVA</title>
<ellipse fill="none" stroke="black" cx="32.1" cy="-1440" rx="30.11" ry="18"/>
<text text-anchor="middle" x="32.1" y="-1434.58" font-family="Times New Roman,serif" font-size="14.00">DVA</text>
</g>
<!-- DVA&#45;&gt;AVD -->
<g id="edge24" class="edge">
<title>DVA&#45;&gt;AVD</title>
<path fill="none" stroke="gray" stroke-width="0.2" d="M60.69,-1446.18C69.9,-1448.24 80.82,-1450.69 92.47,-1453.3"/>
<polygon fill="gray" stroke="gray" stroke-width="0.2" points="91.6,-1456.69 102.12,-1455.46 93.13,-1449.86 91.6,-1456.69"/>
</g>
<!-- FLP -->
<g id="node24" class="node">
<title>FLP</title>
<ellipse fill="none" stroke="black" cx="32.1" cy="-1361" rx="27.11" ry="18"/>
<text text-anchor="middle" x="32.1" y="-1355.58" font-family="Times New Roman,serif" font-size="14.00">FLP</text>
</g>
<!-- FLP&#45;&gt;AVD -->
<g id="edge25" class="edge">
<title>FLP&#45;&gt;AVD</title>
<path fill="none" stroke="red" stroke-width="5" d="M51.73,-1373.63C65.18,-1382.74 84.52,-1395.85 105,-1409.73"/>
<polygon fill="red" stroke="red" stroke-width="5" points="102.33,-1413.2 113.06,-1415.19 107.24,-1405.96 102.33,-1413.2"/>
</g>
<!-- HSN -->
<g id="node25" class="node">
<title>HSN</title>
<ellipse fill="none" stroke="black" cx="32.1" cy="-1282" rx="29.11" ry="18"/>
<text text-anchor="middle" x="32.1" y="-1276.58" font-family="Times New Roman,serif" font-size="14.00">HSN</text>
</g>
<!-- HSN&#45;&gt;AVD -->
<g id="edge26" class="edge">
<title>HSN&#45;&gt;AVD</title>
<path fill="none" stroke="gray" stroke-width="2" d="M47.06,-1297.79C64.76,-1317.82 96.69,-1353.95 127.41,-1388.71"/>
<polygon fill="gray" stroke="gray" stroke-width="2" points="124.78,-1391.02 134.02,-1396.2 130.02,-1386.38 124.78,-1391.02"/>
</g>
<!-- OLQ -->
<g id="node26" class="node">
<title>OLQ</title>
<ellipse fill="none" stroke="black" cx="32.1" cy="-1203" rx="30.11" ry="18"/>
<text text-anchor="middle" x="32.1" y="-1197.58" font-family="Times New Roman,serif" font-size="14.00">OLQ</text>
</g>
<!-- OLQ&#45;&gt;AVD -->
<g id="edge27" class="edge">
<title>OLQ&#45;&gt;AVD</title>
<path fill="none" stroke="gray" stroke-width="0.2" d="M45.75,-1219.27C54.36,-1230.34 64.2,-1243 64.2,-1243 64.2,-1243 107.24,-1314.03 146.1,-1378.15"/>
<polygon fill="gray" stroke="gray" stroke-width="0.2" points="142.97,-1379.74 151.15,-1386.48 148.96,-1376.12 142.97,-1379.74"/>
</g>
<!-- PVC -->
<g id="node27" class="node">
<title>PVC</title>
<ellipse fill="none" stroke="black" cx="32.1" cy="-1124" rx="29.11" ry="18"/>
<text text-anchor="middle" x="32.1" y="-1118.58" font-family="Times New Roman,serif" font-size="14.00">PVC</text>
</g>
<!-- PVC&#45;&gt;AVD -->
<g id="edge28" class="edge">
<title>PVC&#45;&gt;AVD</title>
<path fill="none" stroke="black" stroke-width="5" d="M45.75,-1140.27C54.36,-1151.34 64.2,-1164 64.2,-1164 64.2,-1164 114.9,-1275.68 155.93,-1366.04"/>
<polygon fill="black" stroke="black" stroke-width="5" points="151.85,-1367.65 159.97,-1374.95 159.82,-1364.03 151.85,-1367.65"/>
</g>
<!-- PVD -->
<g id="node28" class="node">
<title>PVD</title>
<ellipse fill="none" stroke="black" cx="32.1" cy="-1045" rx="29.11" ry="18"/>
<text text-anchor="middle" x="32.1" y="-1039.58" font-family="Times New Roman,serif" font-size="14.00">PVD</text>
</g>
<!-- PVD&#45;&gt;AVD -->
<g id="edge29" class="edge">
<title>PVD&#45;&gt;AVD</title>
<path fill="none" stroke="blue" stroke-width="5" d="M45.75,-1061.27C54.36,-1072.34 64.2,-1085 64.2,-1085 64.2,-1085 122.76,-1246.34 164.93,-1362.53"/>
<polygon fill="blue" stroke="blue" stroke-width="5" points="160.73,-1363.76 168.25,-1371.67 168.95,-1360.78 160.73,-1363.76"/>
</g>
<!-- PVN -->
<g id="node29" class="node">
<title>PVN</title>
<ellipse fill="none" stroke="black" cx="32.1" cy="-966" rx="29.11" ry="18"/>
<text text-anchor="middle" x="32.1" y="-960.58" font-family="Times New Roman,serif" font-size="14.00">PVN</text>
</g>
<!-- PVN&#45;&gt;AVD -->
<g id="edge30" class="edge">
<title>PVN&#45;&gt;AVD</title>
<path fill="none" stroke="gray" stroke-width="0.2" d="M45.75,-982.27C54.36,-993.34 64.2,-1006 64.2,-1006 64.2,-1006 130.73,-1226.06 173.03,-1365.98"/>
<polygon fill="gray" stroke="gray" stroke-width="0.2" points="169.58,-1366.64 175.82,-1375.2 176.28,-1364.62 169.58,-1366.64"/>
</g>
<!-- PVP -->
<g id="node30" class="node">
<title>PVP</title>
<ellipse fill="none" stroke="black" cx="32.1" cy="-887" rx="28.11" ry="18"/>
<text text-anchor="middle" x="32.1" y="-881.58" font-family="Times New Roman,serif" font-size="14.00">PVP</text>
</g>
<!-- PVP&#45;&gt;AVD -->
<g id="edge31" class="edge">
<title>PVP&#45;&gt;AVD</title>
<path fill="none" stroke="gray" stroke-width="5" d="M45.39,-902.81C54.09,-913.99 64.2,-927 64.2,-927 64.2,-927 134.1,-1196.81 176.16,-1359.16"/>
<polygon fill="gray" stroke="gray" stroke-width="5" points="171.83,-1359.9 178.57,-1368.49 180.3,-1357.71 171.83,-1359.9"/>
</g>
<!-- PVR -->
<g id="node31" class="node">
<title>PVR</title>
<ellipse fill="none" stroke="black" cx="32.1" cy="-808" rx="29.11" ry="18"/>
<text text-anchor="middle" x="32.1" y="-802.58" font-family="Times New Roman,serif" font-size="14.00">PVR</text>
</g>
<!-- PVR&#45;&gt;AVD -->
<g id="edge32" class="edge">
<title>PVR&#45;&gt;AVD</title>
<path fill="none" stroke="gray" stroke-width="0.2" d="M45.75,-824.27C54.36,-835.34 64.2,-848 64.2,-848 64.2,-848 139.85,-1181.81 181.11,-1363.85"/>
<polygon fill="gray" stroke="gray" stroke-width="0.2" points="177.66,-1364.47 183.28,-1373.44 184.49,-1362.92 177.66,-1364.47"/>
</g>
<!-- RIB -->
<g id="node32" class="node">
<title>RIB</title>
<ellipse fill="none" stroke="black" cx="32.1" cy="-729" rx="27" ry="18"/>
<text text-anchor="middle" x="32.1" y="-723.58" font-family="Times New Roman,serif" font-size="14.00">RIB</text>
</g>
<!-- RIB&#45;&gt;AVD -->
<g id="edge33" class="edge">
<title>RIB&#45;&gt;AVD</title>
<path fill="none" stroke="gray" stroke-width="2" d="M45.39,-744.81C54.09,-755.99 64.2,-769 64.2,-769 64.2,-769 142.61,-1158.29 183.31,-1360.35"/>
<polygon fill="gray" stroke="gray" stroke-width="2" points="179.87,-1361.01 185.28,-1370.12 186.73,-1359.63 179.87,-1361.01"/>
</g>
<!-- RIC -->
<g id="node33" class="node">
<title>RIC</title>
<ellipse fill="none" stroke="black" cx="32.1" cy="-650" rx="27" ry="18"/>
<text text-anchor="middle" x="32.1" y="-644.58" font-family="Times New Roman,serif" font-size="14.00">RIC</text>
</g>
<!-- RIC&#45;&gt;AVD -->
<g id="edge34" class="edge">
<title>RIC&#45;&gt;AVD</title>
<path fill="none" stroke="gray" stroke-width="0.2" d="M45.39,-665.81C54.09,-676.99 64.2,-690 64.2,-690 64.2,-690 146.34,-1143.19 186.12,-1362.64"/>
<polygon fill="gray" stroke="gray" stroke-width="0.2" points="182.64,-1363.08 187.86,-1372.29 189.52,-1361.83 182.64,-1363.08"/>
</g>
<!-- RIF -->
<g id="node34" class="node">
<title>RIF</title>
<ellipse fill="none" stroke="black" cx="32.1" cy="-571" rx="27" ry="18"/>
<text text-anchor="middle" x="32.1" y="-565.58" font-family="Times New Roman,serif" font-size="14.00">RIF</text>
</g>
<!-- RIF&#45;&gt;AVD -->
<g id="edge35" class="edge">
<title>RIF&#45;&gt;AVD</title>
<path fill="none" stroke="gray" stroke-width="2" d="M45.39,-586.81C54.09,-597.99 64.2,-611 64.2,-611 64.2,-611 148.34,-1121.68 187.54,-1359.63"/>
<polygon fill="gray" stroke="gray" stroke-width="2" points="184.03,-1359.85 189.11,-1369.14 190.93,-1358.71 184.03,-1359.85"/>
</g>
<!-- RIG -->
<g id="node35" class="node">
<title>RIG</title>
<ellipse fill="none" stroke="black" cx="32.1" cy="-492" rx="27.11" ry="18"/>
<text text-anchor="middle" x="32.1" y="-486.57" font-family="Times New Roman,serif" font-size="14.00">RIG</text>
</g>
<!-- RIG&#45;&gt;AVD -->
<g id="edge36" class="edge">
<title>RIG&#45;&gt;AVD</title>
<path fill="none" stroke="gray" stroke-width="2" d="M45.39,-507.81C54.09,-518.99 64.2,-532 64.2,-532 64.2,-532 150.73,-1105.03 189.17,-1359.59"/>
<polygon fill="gray" stroke="gray" stroke-width="2" points="185.67,-1359.85 190.63,-1369.21 192.59,-1358.8 185.67,-1359.85"/>
</g>
<!-- RMG -->
<g id="node36" class="node">
<title>RMG</title>
<ellipse fill="none" stroke="black" cx="32.1" cy="-413" rx="32.1" ry="18"/>
<text text-anchor="middle" x="32.1" y="-407.57" font-family="Times New Roman,serif" font-size="14.00">RMG</text>
</g>
<!-- RMG&#45;&gt;AVD -->
<g id="edge37" class="edge">
<title>RMG&#45;&gt;AVD</title>
<path fill="none" stroke="gray" stroke-width="2" d="M45.75,-429.27C54.36,-440.34 64.2,-453 64.2,-453 64.2,-453 152.84,-1088.97 190.55,-1359.5"/>
<polygon fill="gray" stroke="gray" stroke-width="2" points="187.04,-1359.68 191.89,-1369.11 193.97,-1358.72 187.04,-1359.68"/>
</g>
<!-- SDQ -->
<g id="node37" class="node">
<title>SDQ</title>
<ellipse fill="none" stroke="black" cx="32.1" cy="-334" rx="29.61" ry="18"/>
<text text-anchor="middle" x="32.1" y="-328.57" font-family="Times New Roman,serif" font-size="14.00">SDQ</text>
</g>
<!-- SDQ&#45;&gt;AVD -->
<g id="edge38" class="edge">
<title>SDQ&#45;&gt;AVD</title>
<path fill="none" stroke="gray" stroke-width="0.2" d="M45.75,-350.27C54.36,-361.34 64.2,-374 64.2,-374 64.2,-374 155.19,-1077.09 192.01,-1361.6"/>
<polygon fill="gray" stroke="gray" stroke-width="0.2" points="188.5,-1361.77 193.26,-1371.24 195.45,-1360.87 188.5,-1361.77"/>
</g>
<!-- SIB -->
<g id="node38" class="node">
<title>SIB</title>
<ellipse fill="none" stroke="black" cx="32.1" cy="-255" rx="27" ry="18"/>
<text text-anchor="middle" x="32.1" y="-249.57" font-family="Times New Roman,serif" font-size="14.00">SIB</text>
</g>
<!-- SIB&#45;&gt;AVD -->
<g id="edge39" class="edge">
<title>SIB&#45;&gt;AVD</title>
<path fill="none" stroke="gray" stroke-width="0.2" d="M45.39,-270.81C54.09,-281.99 64.2,-295 64.2,-295 64.2,-295 156.89,-1062.39 193.02,-1361.57"/>
<polygon fill="gray" stroke="gray" stroke-width="0.2" points="189.52,-1361.77 194.19,-1371.28 196.47,-1360.93 189.52,-1361.77"/>
</g>
<!-- URB -->
<g id="node39" class="node">
<title>URB</title>
<ellipse fill="none" stroke="black" cx="32.1" cy="-176" rx="29.61" ry="18"/>
<text text-anchor="middle" x="32.1" y="-170.57" font-family="Times New Roman,serif" font-size="14.00">URB</text>
</g>
<!-- URB&#45;&gt;AVD -->
<g id="edge40" class="edge">
<title>URB&#45;&gt;AVD</title>
<path fill="none" stroke="red" stroke-width="0.2" d="M45.75,-192.27C54.36,-203.34 64.2,-216 64.2,-216 64.2,-216 158.37,-1047.73 193.88,-1361.29"/>
<polygon fill="red" stroke="red" stroke-width="0.2" points="190.38,-1361.47 194.98,-1371.02 197.33,-1360.69 190.38,-1361.47"/>
</g>
<!-- URX -->
<g id="node40" class="node">
<title>URX</title>
<ellipse fill="none" stroke="black" cx="32.1" cy="-97" rx="30.11" ry="18"/>
<text text-anchor="middle" x="32.1" y="-91.58" font-family="Times New Roman,serif" font-size="14.00">URX</text>
</g>
<!-- URX&#45;&gt;AVD -->
<g id="edge41" class="edge">
<title>URX&#45;&gt;AVD</title>
<path fill="none" stroke="gray" stroke-width="0.2" d="M45.75,-113.27C54.36,-124.34 64.2,-137 64.2,-137 64.2,-137 159.82,-1034.31 194.68,-1361.46"/>
<polygon fill="gray" stroke="gray" stroke-width="0.2" points="191.17,-1361.57 195.71,-1371.15 198.13,-1360.83 191.17,-1361.57"/>
</g>
<!-- URY -->
<g id="node41" class="node">
<title>URY</title>
<ellipse fill="none" stroke="black" cx="32.1" cy="-18" rx="30.11" ry="18"/>
<text text-anchor="middle" x="32.1" y="-12.57" font-family="Times New Roman,serif" font-size="14.00">URY</text>
</g>
<!-- URY&#45;&gt;AVD -->
<g id="edge42" class="edge">
<title>URY&#45;&gt;AVD</title>
<path fill="none" stroke="black" stroke-width="5" d="M45.75,-34.27C54.36,-45.34 64.2,-58 64.2,-58 64.2,-58 159.96,-1009.55 194.76,-1355.32"/>
<polygon fill="black" stroke="black" stroke-width="5" points="190.39,-1355.6 195.74,-1365.11 199.1,-1354.73 190.39,-1355.6"/>
</g>
</g>
</svg>
