<?xml version="1.0" encoding="UTF-8" standalone="no"?>
<!DOCTYPE svg PUBLIC "-//W3C//DTD SVG 1.1//EN"
 "http://www.w3.org/Graphics/SVG/1.1/DTD/svg11.dtd">
<!-- Generated by graphviz version 11.0.0 (20240428.1522)
 -->
<!-- Pages: 1 -->
<svg width="425pt" height="3046pt"
 viewBox="0.00 0.00 425.41 3046.00" xmlns="http://www.w3.org/2000/svg" xmlns:xlink="http://www.w3.org/1999/xlink">
<g id="graph0" class="graph" transform="scale(1 1) rotate(0) translate(4 3042)">
<polygon fill="white" stroke="none" points="-4,4 -4,-3042 421.41,-3042 421.41,4 -4,4"/>
<!-- AVE -->
<g id="node1" class="node">
<title>AVE</title>
<ellipse fill="none" stroke="black" cx="209.2" cy="-1519" rx="108" ry="108"/>
<text text-anchor="middle" x="209.2" y="-1500" font-family="Times New Roman,serif" font-size="50.00">AVE</text>
</g>
<!-- AIM -->
<g id="node2" class="node">
<title>AIM</title>
<ellipse fill="none" stroke="black" cx="385.3" cy="-1954" rx="28.11" ry="18"/>
<text text-anchor="middle" x="385.3" y="-1948.58" font-family="Times New Roman,serif" font-size="14.00">AIM</text>
</g>
<!-- AVE&#45;&gt;AIM -->
<g id="edge1" class="edge">
<title>AVE&#45;&gt;AIM</title>
<path fill="none" stroke="gray" stroke-width="0.2" d="M246.94,-1620.72C289.3,-1738.05 353.2,-1915 353.2,-1915 353.2,-1915 358.85,-1922.09 365.34,-1930.22"/>
<polygon fill="gray" stroke="gray" stroke-width="0.2" points="362.49,-1932.26 371.47,-1937.9 367.97,-1927.9 362.49,-1932.26"/>
</g>
<!-- AIZ -->
<g id="node3" class="node">
<title>AIZ</title>
<ellipse fill="none" stroke="black" cx="385.3" cy="-1875" rx="27" ry="18"/>
<text text-anchor="middle" x="385.3" y="-1869.58" font-family="Times New Roman,serif" font-size="14.00">AIZ</text>
</g>
<!-- AVE&#45;&gt;AIZ -->
<g id="edge2" class="edge">
<title>AVE&#45;&gt;AIZ</title>
<path fill="none" stroke="gray" stroke-width="0.2" d="M260.82,-1614.32C301.96,-1700.9 353.2,-1814.5 353.2,-1814.5 353.2,-1814.5 366.15,-1830.74 375.34,-1848.04"/>
<polygon fill="gray" stroke="gray" stroke-width="0.2" points="372.09,-1849.34 379.58,-1856.83 378.39,-1846.3 372.09,-1849.34"/>
</g>
<!-- ALM -->
<g id="node4" class="node">
<title>ALM</title>
<ellipse fill="none" stroke="black" cx="385.3" cy="-1796" rx="30.61" ry="18"/>
<text text-anchor="middle" x="385.3" y="-1790.58" font-family="Times New Roman,serif" font-size="14.00">ALM</text>
</g>
<!-- AVE&#45;&gt;ALM -->
<g id="edge3" class="edge">
<title>AVE&#45;&gt;ALM</title>
<path fill="none" stroke="gray" stroke-width="0.2" d="M273.55,-1606.28C311.8,-1666.59 353.2,-1735.5 353.2,-1735.5 353.2,-1735.5 366.15,-1751.74 375.34,-1769.04"/>
<polygon fill="gray" stroke="gray" stroke-width="0.2" points="372.09,-1770.34 379.58,-1777.83 378.39,-1767.3 372.09,-1770.34"/>
</g>
<!-- AVA -->
<g id="node5" class="node">
<title>AVA</title>
<ellipse fill="none" stroke="black" cx="385.3" cy="-1717" rx="30.11" ry="18"/>
<text text-anchor="middle" x="385.3" y="-1711.58" font-family="Times New Roman,serif" font-size="14.00">AVA</text>
</g>
<!-- AVE&#45;&gt;AVA -->
<g id="edge4" class="edge">
<title>AVE&#45;&gt;AVA</title>
<path fill="none" stroke="gray" stroke-width="0.2" d="M281.27,-1599.82C311.04,-1633.68 343.4,-1670.48 363.76,-1693.63"/>
<polygon fill="gray" stroke="gray" stroke-width="0.2" points="361,-1695.8 370.23,-1701 366.26,-1691.18 361,-1695.8"/>
</g>
<!-- CEP -->
<g id="node6" class="node">
<title>CEP</title>
<ellipse fill="none" stroke="black" cx="385.3" cy="-1638" rx="28.11" ry="18"/>
<text text-anchor="middle" x="385.3" y="-1632.58" font-family="Times New Roman,serif" font-size="14.00">CEP</text>
</g>
<!-- AVE&#45;&gt;CEP -->
<g id="edge5" class="edge">
<title>AVE&#45;&gt;CEP</title>
<path fill="none" stroke="gray" stroke-width="0.2" d="M305.66,-1568.19C328.59,-1584.23 350.73,-1601.23 365.65,-1614.81"/>
<polygon fill="gray" stroke="gray" stroke-width="0.2" points="362.88,-1617 372.54,-1621.36 367.7,-1611.93 362.88,-1617"/>
</g>
<!-- OLL -->
<g id="node7" class="node">
<title>OLL</title>
<ellipse fill="none" stroke="black" cx="385.3" cy="-1559" rx="28.61" ry="18"/>
<text text-anchor="middle" x="385.3" y="-1553.58" font-family="Times New Roman,serif" font-size="14.00">OLL</text>
</g>
<!-- AVE&#45;&gt;OLL -->
<g id="edge6" class="edge">
<title>AVE&#45;&gt;OLL</title>
<path fill="none" stroke="gray" stroke-width="0.2" d="M316.99,-1527.78C332.02,-1531.82 346.21,-1536.33 357.66,-1540.88"/>
<polygon fill="gray" stroke="gray" stroke-width="0.2" points="356.12,-1544.02 366.69,-1544.76 358.88,-1537.59 356.12,-1544.02"/>
</g>
<!-- PVP -->
<g id="node8" class="node">
<title>PVP</title>
<ellipse fill="none" stroke="black" cx="385.3" cy="-1480" rx="28.11" ry="18"/>
<text text-anchor="middle" x="385.3" y="-1474.58" font-family="Times New Roman,serif" font-size="14.00">PVP</text>
</g>
<!-- AVE&#45;&gt;PVP -->
<g id="edge7" class="edge">
<title>AVE&#45;&gt;PVP</title>
<path fill="none" stroke="gray" stroke-width="0.2" d="M310.47,-1480.58C323.87,-1477.92 336.85,-1475.87 348.09,-1474.73"/>
<polygon fill="gray" stroke="gray" stroke-width="0.2" points="348.29,-1478.23 357.98,-1473.96 347.74,-1471.25 348.29,-1478.23"/>
</g>
<!-- RIF -->
<g id="node9" class="node">
<title>RIF</title>
<ellipse fill="none" stroke="black" cx="385.3" cy="-1401" rx="27" ry="18"/>
<text text-anchor="middle" x="385.3" y="-1395.58" font-family="Times New Roman,serif" font-size="14.00">RIF</text>
</g>
<!-- AVE&#45;&gt;RIF -->
<g id="edge8" class="edge">
<title>AVE&#45;&gt;RIF</title>
<path fill="none" stroke="gray" stroke-width="0.2" d="M291.14,-1448.06C311.97,-1433.7 333.26,-1420.26 350.23,-1410.99"/>
<polygon fill="gray" stroke="gray" stroke-width="0.2" points="351.69,-1414.18 358.91,-1406.43 348.43,-1407.98 351.69,-1414.18"/>
</g>
<!-- RIM -->
<g id="node10" class="node">
<title>RIM</title>
<ellipse fill="none" stroke="black" cx="385.3" cy="-1322" rx="28.11" ry="18"/>
<text text-anchor="middle" x="385.3" y="-1316.58" font-family="Times New Roman,serif" font-size="14.00">RIM</text>
</g>
<!-- AVE&#45;&gt;RIM -->
<g id="edge9" class="edge">
<title>AVE&#45;&gt;RIM</title>
<path fill="none" stroke="gray" stroke-width="0.2" d="M273.55,-1431.74C302.08,-1398.12 334.28,-1362.82 356.58,-1341.19"/>
<polygon fill="gray" stroke="gray" stroke-width="0.2" points="358.95,-1343.77 363.81,-1334.35 354.14,-1338.68 358.95,-1343.77"/>
</g>
<!-- RMG -->
<g id="node11" class="node">
<title>RMG</title>
<ellipse fill="none" stroke="black" cx="385.3" cy="-1243" rx="32.1" ry="18"/>
<text text-anchor="middle" x="385.3" y="-1237.58" font-family="Times New Roman,serif" font-size="14.00">RMG</text>
</g>
<!-- AVE&#45;&gt;RMG -->
<g id="edge10" class="edge">
<title>AVE&#45;&gt;RMG</title>
<path fill="none" stroke="gray" stroke-width="0.2" d="M258.62,-1422.47C293.94,-1360.02 337.69,-1287.2 353.79,-1262.28"/>
<polygon fill="gray" stroke="gray" stroke-width="0.2" points="356.58,-1264.41 359.33,-1254.17 350.8,-1260.46 356.58,-1264.41"/>
</g>
<!-- URX -->
<g id="node12" class="node">
<title>URX</title>
<ellipse fill="none" stroke="black" cx="385.3" cy="-1164" rx="30.11" ry="18"/>
<text text-anchor="middle" x="385.3" y="-1158.58" font-family="Times New Roman,serif" font-size="14.00">URX</text>
</g>
<!-- AVE&#45;&gt;URX -->
<g id="edge11" class="edge">
<title>AVE&#45;&gt;URX</title>
<path fill="none" stroke="gray" stroke-width="0.2" d="M248.9,-1418.39C291.25,-1318.97 353.2,-1182.5 353.2,-1182.5 353.2,-1182.5 353.38,-1182.27 353.72,-1181.85"/>
<polygon fill="gray" stroke="gray" stroke-width="0.2" points="356.17,-1184.37 359.91,-1174.46 350.8,-1179.88 356.17,-1184.37"/>
</g>
<!-- AIZ&#45;&gt;AVE -->
<g id="edge12" class="edge">
<title>AIZ&#45;&gt;AVE</title>
<path fill="none" stroke="red" stroke-width="5" d="M361.05,-1866.58C356.55,-1861.7 353.2,-1857.5 353.2,-1857.5 353.2,-1857.5 296.99,-1732.88 255.05,-1634.61"/>
<polygon fill="red" stroke="red" stroke-width="5" points="259.09,-1632.94 251.15,-1625.45 251.04,-1636.36 259.09,-1632.94"/>
</g>
<!-- ALM&#45;&gt;AVE -->
<g id="edge13" class="edge">
<title>ALM&#45;&gt;AVE</title>
<path fill="none" stroke="gray" stroke-width="0.2" d="M359.5,-1785.87C355.8,-1781.76 353.2,-1778.5 353.2,-1778.5 353.2,-1778.5 303.85,-1696.37 263.14,-1624.24"/>
<polygon fill="gray" stroke="gray" stroke-width="0.2" points="266.32,-1622.76 258.37,-1615.76 260.22,-1626.2 266.32,-1622.76"/>
</g>
<!-- CEP&#45;&gt;AVE -->
<g id="edge14" class="edge">
<title>CEP&#45;&gt;AVE</title>
<path fill="none" stroke="black" stroke-width="5" d="M358.31,-1632.12C343.53,-1624.56 324.03,-1612.62 304.04,-1599.22"/>
<polygon fill="black" stroke="black" stroke-width="5" points="306.76,-1595.78 296.03,-1593.75 301.82,-1603 306.76,-1595.78"/>
</g>
<!-- OLL&#45;&gt;AVE -->
<g id="edge15" class="edge">
<title>OLL&#45;&gt;AVE</title>
<path fill="none" stroke="black" stroke-width="nan" d="M357.84,-1564.89C344.66,-1564.09 327.8,-1561.55 310.22,-1557.94"/>
<polygon fill="black" stroke="black" stroke-width="nan" points="nan,-nan nan,-nan nan,-nan nan,-nan"/>
</g>
<!-- PVP&#45;&gt;AVE -->
<g id="edge16" class="edge">
<title>PVP&#45;&gt;AVE</title>
<path fill="none" stroke="gray" stroke-width="2" d="M366.97,-1494.02C357.2,-1498.55 344.05,-1503.15 329.5,-1507.38"/>
<polygon fill="gray" stroke="gray" stroke-width="2" points="328.62,-1503.99 319.91,-1510.02 330.48,-1510.74 328.62,-1503.99"/>
</g>
<!-- RIF&#45;&gt;AVE -->
<g id="edge17" class="edge">
<title>RIF&#45;&gt;AVE</title>
<path fill="none" stroke="gray" stroke-width="2" d="M372.8,-1417.32C360.43,-1429.68 339.42,-1446.33 316.53,-1462.7"/>
<polygon fill="gray" stroke="gray" stroke-width="2" points="314.54,-1459.82 308.39,-1468.44 318.58,-1465.54 314.54,-1459.82"/>
</g>
<!-- RIM&#45;&gt;AVE -->
<g id="edge18" class="edge">
<title>RIM&#45;&gt;AVE</title>
<path fill="none" stroke="red" stroke-width="0.2" d="M375.66,-1339.31C360.56,-1362.23 327.9,-1402.04 295.56,-1438.54"/>
<polygon fill="red" stroke="red" stroke-width="0.2" points="293.34,-1435.76 289.3,-1445.56 298.57,-1440.42 293.34,-1435.76"/>
</g>
<!-- RMG&#45;&gt;AVE -->
<g id="edge19" class="edge">
<title>RMG&#45;&gt;AVE</title>
<path fill="none" stroke="red" stroke-width="5" d="M379.71,-1261.05C371.06,-1281.53 353.2,-1304.5 353.2,-1304.5 353.2,-1304.5 317.97,-1362.64 282.49,-1418.58"/>
<polygon fill="red" stroke="red" stroke-width="5" points="279,-1415.91 277.32,-1426.69 286.38,-1420.61 279,-1415.91"/>
</g>
<!-- URX&#45;&gt;AVE -->
<g id="edge20" class="edge">
<title>URX&#45;&gt;AVE</title>
<path fill="none" stroke="red" stroke-width="5" d="M379.71,-1182.05C371.06,-1202.53 353.2,-1225.5 353.2,-1225.5 353.2,-1225.5 307.65,-1325.84 267.97,-1409.39"/>
<polygon fill="red" stroke="red" stroke-width="5" points="264.06,-1407.43 263.7,-1418.34 271.96,-1411.19 264.06,-1407.43"/>
</g>
<!-- ADA -->
<g id="node13" class="node">
<title>ADA</title>
<ellipse fill="none" stroke="black" cx="32.6" cy="-3020" rx="30.11" ry="18"/>
<text text-anchor="middle" x="32.6" y="-3014.57" font-family="Times New Roman,serif" font-size="14.00">ADA</text>
</g>
<!-- ADA&#45;&gt;AVE -->
<g id="edge21" class="edge">
<title>ADA&#45;&gt;AVE</title>
<path fill="none" stroke="black" stroke-width="5" d="M46.82,-3003.69C55.48,-2993 65.2,-2981 65.2,-2981 65.2,-2981 161.57,-1995.75 196.09,-1642.87"/>
<polygon fill="black" stroke="black" stroke-width="5" points="200.43,-1643.39 197.05,-1633.01 191.72,-1642.54 200.43,-1643.39"/>
</g>
<!-- ADE -->
<g id="node14" class="node">
<title>ADE</title>
<ellipse fill="none" stroke="black" cx="32.6" cy="-2941" rx="29.11" ry="18"/>
<text text-anchor="middle" x="32.6" y="-2935.57" font-family="Times New Roman,serif" font-size="14.00">ADE</text>
</g>
<!-- ADE&#45;&gt;AVE -->
<g id="edge22" class="edge">
<title>ADE&#45;&gt;AVE</title>
<path fill="none" stroke="red" stroke-width="0.2" d="M46.45,-2925.14C55.2,-2914.34 65.2,-2902 65.2,-2902 65.2,-2902 161.44,-1971.26 196.02,-1636.86"/>
<polygon fill="red" stroke="red" stroke-width="0.2" points="199.49,-1637.27 197.04,-1626.96 192.53,-1636.55 199.49,-1637.27"/>
</g>
<!-- ADL -->
<g id="node15" class="node">
<title>ADL</title>
<ellipse fill="none" stroke="black" cx="32.6" cy="-2862" rx="29.11" ry="18"/>
<text text-anchor="middle" x="32.6" y="-2856.57" font-family="Times New Roman,serif" font-size="14.00">ADL</text>
</g>
<!-- ADL&#45;&gt;AVE -->
<g id="edge23" class="edge">
<title>ADL&#45;&gt;AVE</title>
<path fill="none" stroke="gray" stroke-width="2" d="M46.45,-2846.14C55.2,-2835.34 65.2,-2823 65.2,-2823 65.2,-2823 159.63,-1961.88 195.02,-1639.19"/>
<polygon fill="gray" stroke="gray" stroke-width="2" points="198.47,-1639.87 196.08,-1629.55 191.51,-1639.11 198.47,-1639.87"/>
</g>
<!-- AIB -->
<g id="node16" class="node">
<title>AIB</title>
<ellipse fill="none" stroke="black" cx="32.6" cy="-2783" rx="27" ry="18"/>
<text text-anchor="middle" x="32.6" y="-2777.57" font-family="Times New Roman,serif" font-size="14.00">AIB</text>
</g>
<!-- AIB&#45;&gt;AVE -->
<g id="edge24" class="edge">
<title>AIB&#45;&gt;AVE</title>
<path fill="none" stroke="gray" stroke-width="5" d="M46.45,-2767.14C55.2,-2756.34 65.2,-2744 65.2,-2744 65.2,-2744 157.5,-1953.29 193.8,-1642.41"/>
<polygon fill="gray" stroke="gray" stroke-width="5" points="198.1,-1643.27 194.91,-1632.83 189.41,-1642.26 198.1,-1643.27"/>
</g>
<!-- ALA -->
<g id="node17" class="node">
<title>ALA</title>
<ellipse fill="none" stroke="black" cx="32.6" cy="-2704" rx="29.11" ry="18"/>
<text text-anchor="middle" x="32.6" y="-2698.57" font-family="Times New Roman,serif" font-size="14.00">ALA</text>
</g>
<!-- ALA&#45;&gt;AVE -->
<g id="edge25" class="edge">
<title>ALA&#45;&gt;AVE</title>
<path fill="none" stroke="black" stroke-width="2" d="M46.45,-2688.14C55.2,-2677.34 65.2,-2665 65.2,-2665 65.2,-2665 156.53,-1933.11 193.21,-1639.12"/>
<polygon fill="black" stroke="black" stroke-width="2" points="196.67,-1639.66 194.44,-1629.3 189.73,-1638.79 196.67,-1639.66"/>
</g>
<!-- AQR -->
<g id="node18" class="node">
<title>AQR</title>
<ellipse fill="none" stroke="black" cx="32.6" cy="-2625" rx="30.61" ry="18"/>
<text text-anchor="middle" x="32.6" y="-2619.57" font-family="Times New Roman,serif" font-size="14.00">AQR</text>
</g>
<!-- AQR&#45;&gt;AVE -->
<g id="edge26" class="edge">
<title>AQR&#45;&gt;AVE</title>
<path fill="none" stroke="blue" stroke-width="2" d="M46.82,-2608.69C55.48,-2598 65.2,-2586 65.2,-2586 65.2,-2586 154.8,-1917.48 192.15,-1638.76"/>
<polygon fill="blue" stroke="blue" stroke-width="2" points="195.57,-1639.57 193.43,-1629.19 188.64,-1638.64 195.57,-1639.57"/>
</g>
<!-- ASG -->
<g id="node19" class="node">
<title>ASG</title>
<ellipse fill="none" stroke="black" cx="32.6" cy="-2546" rx="29.61" ry="18"/>
<text text-anchor="middle" x="32.6" y="-2540.57" font-family="Times New Roman,serif" font-size="14.00">ASG</text>
</g>
<!-- ASG&#45;&gt;AVE -->
<g id="edge27" class="edge">
<title>ASG&#45;&gt;AVE</title>
<path fill="none" stroke="blue" stroke-width="0.2" d="M46.45,-2530.14C55.2,-2519.34 65.2,-2507 65.2,-2507 65.2,-2507 153.39,-1897.69 191.26,-1636.06"/>
<polygon fill="blue" stroke="blue" stroke-width="0.2" points="194.68,-1636.84 192.65,-1626.44 187.75,-1635.84 194.68,-1636.84"/>
</g>
<!-- ASH -->
<g id="node20" class="node">
<title>ASH</title>
<ellipse fill="none" stroke="black" cx="32.6" cy="-2467" rx="29.11" ry="18"/>
<text text-anchor="middle" x="32.6" y="-2461.57" font-family="Times New Roman,serif" font-size="14.00">ASH</text>
</g>
<!-- ASH&#45;&gt;AVE -->
<g id="edge28" class="edge">
<title>ASH&#45;&gt;AVE</title>
<path fill="none" stroke="red" stroke-width="5" d="M46.45,-2451.14C55.2,-2440.34 65.2,-2428 65.2,-2428 65.2,-2428 149.82,-1890.11 188.87,-1641.87"/>
<polygon fill="red" stroke="red" stroke-width="5" points="193.18,-1642.67 190.41,-1632.11 184.53,-1641.31 193.18,-1642.67"/>
</g>
<!-- AUA -->
<g id="node21" class="node">
<title>AUA</title>
<ellipse fill="none" stroke="black" cx="32.6" cy="-2388" rx="30.11" ry="18"/>
<text text-anchor="middle" x="32.6" y="-2382.57" font-family="Times New Roman,serif" font-size="14.00">AUA</text>
</g>
<!-- AUA&#45;&gt;AVE -->
<g id="edge29" class="edge">
<title>AUA&#45;&gt;AVE</title>
<path fill="none" stroke="gray" stroke-width="5" d="M46.82,-2371.69C55.48,-2361 65.2,-2349 65.2,-2349 65.2,-2349 147.38,-1872.02 187.14,-1641.23"/>
<polygon fill="gray" stroke="gray" stroke-width="5" points="191.43,-1642.13 188.81,-1631.53 182.8,-1640.64 191.43,-1642.13"/>
</g>
<!-- AVF -->
<g id="node22" class="node">
<title>AVF</title>
<ellipse fill="none" stroke="black" cx="32.6" cy="-2309" rx="29.11" ry="18"/>
<text text-anchor="middle" x="32.6" y="-2303.57" font-family="Times New Roman,serif" font-size="14.00">AVF</text>
</g>
<!-- AVF&#45;&gt;AVE -->
<g id="edge30" class="edge">
<title>AVF&#45;&gt;AVE</title>
<path fill="none" stroke="gray" stroke-width="2" d="M46.45,-2293.14C55.2,-2282.34 65.2,-2270 65.2,-2270 65.2,-2270 145.29,-1849.38 185.6,-1637.71"/>
<polygon fill="gray" stroke="gray" stroke-width="2" points="189.02,-1638.46 187.45,-1627.98 182.14,-1637.15 189.02,-1638.46"/>
</g>
<!-- AVJ -->
<g id="node23" class="node">
<title>AVJ</title>
<ellipse fill="none" stroke="black" cx="32.6" cy="-2230" rx="27.11" ry="18"/>
<text text-anchor="middle" x="32.6" y="-2224.57" font-family="Times New Roman,serif" font-size="14.00">AVJ</text>
</g>
<!-- AVJ&#45;&gt;AVE -->
<g id="edge31" class="edge">
<title>AVJ&#45;&gt;AVE</title>
<path fill="none" stroke="blue" stroke-width="2" d="M46.45,-2214.14C55.2,-2203.34 65.2,-2191 65.2,-2191 65.2,-2191 141.94,-1830.37 182.99,-1637.48"/>
<polygon fill="blue" stroke="blue" stroke-width="2" points="186.41,-1638.21 185.07,-1627.7 179.57,-1636.75 186.41,-1638.21"/>
</g>
<!-- AVK -->
<g id="node24" class="node">
<title>AVK</title>
<ellipse fill="none" stroke="black" cx="32.6" cy="-2151" rx="30.11" ry="18"/>
<text text-anchor="middle" x="32.6" y="-2145.57" font-family="Times New Roman,serif" font-size="14.00">AVK</text>
</g>
<!-- AVK&#45;&gt;AVE -->
<g id="edge32" class="edge">
<title>AVK&#45;&gt;AVE</title>
<path fill="none" stroke="gray" stroke-width="5" d="M46.82,-2134.69C55.48,-2124 65.2,-2112 65.2,-2112 65.2,-2112 137.32,-1812.96 179.12,-1639.59"/>
<polygon fill="gray" stroke="gray" stroke-width="5" points="183.33,-1640.8 181.42,-1630.06 174.82,-1638.75 183.33,-1640.8"/>
</g>
<!-- AVL -->
<g id="node25" class="node">
<title>AVL</title>
<ellipse fill="none" stroke="black" cx="32.6" cy="-2072" rx="29.11" ry="18"/>
<text text-anchor="middle" x="32.6" y="-2066.57" font-family="Times New Roman,serif" font-size="14.00">AVL</text>
</g>
<!-- AVL&#45;&gt;AVE -->
<g id="edge33" class="edge">
<title>AVL&#45;&gt;AVE</title>
<path fill="none" stroke="gray" stroke-width="nan" d="M46.45,-2056.14C55.2,-2045.34 65.2,-2033 65.2,-2033 65.2,-2033 137.48,-1773.21 179.26,-1623.02"/>
<polygon fill="gray" stroke="gray" stroke-width="nan" points="nan,-nan nan,-nan nan,-nan nan,-nan"/>
</g>
<!-- AWC -->
<g id="node26" class="node">
<title>AWC</title>
<ellipse fill="none" stroke="black" cx="32.6" cy="-1993" rx="32.6" ry="18"/>
<text text-anchor="middle" x="32.6" y="-1987.58" font-family="Times New Roman,serif" font-size="14.00">AWC</text>
</g>
<!-- AWC&#45;&gt;AVE -->
<g id="edge34" class="edge">
<title>AWC&#45;&gt;AVE</title>
<path fill="none" stroke="gray" stroke-width="0.2" d="M46.82,-1976.69C55.48,-1966 65.2,-1954 65.2,-1954 65.2,-1954 128.98,-1759.98 171.35,-1631.09"/>
<polygon fill="gray" stroke="gray" stroke-width="0.2" points="174.6,-1632.42 174.4,-1621.83 167.95,-1630.23 174.6,-1632.42"/>
</g>
<!-- BAG -->
<g id="node27" class="node">
<title>BAG</title>
<ellipse fill="none" stroke="black" cx="32.6" cy="-1914" rx="30.11" ry="18"/>
<text text-anchor="middle" x="32.6" y="-1908.58" font-family="Times New Roman,serif" font-size="14.00">BAG</text>
</g>
<!-- BAG&#45;&gt;AVE -->
<g id="edge35" class="edge">
<title>BAG&#45;&gt;AVE</title>
<path fill="none" stroke="black" stroke-width="5" d="M46.82,-1897.69C55.48,-1887 65.2,-1875 65.2,-1875 65.2,-1875 120.27,-1737.92 162.06,-1633.88"/>
<polygon fill="black" stroke="black" stroke-width="5" points="166,-1635.81 165.66,-1624.9 157.88,-1632.55 166,-1635.81"/>
</g>
<!-- DVA -->
<g id="node28" class="node">
<title>DVA</title>
<ellipse fill="none" stroke="black" cx="32.6" cy="-1835" rx="30.11" ry="18"/>
<text text-anchor="middle" x="32.6" y="-1829.58" font-family="Times New Roman,serif" font-size="14.00">DVA</text>
</g>
<!-- DVA&#45;&gt;AVE -->
<g id="edge36" class="edge">
<title>DVA&#45;&gt;AVE</title>
<path fill="none" stroke="black" stroke-width="5" d="M46.82,-1818.69C55.48,-1808 65.2,-1796 65.2,-1796 65.2,-1796 111.51,-1706.3 151.42,-1628.98"/>
<polygon fill="black" stroke="black" stroke-width="5" points="155.23,-1631.15 155.93,-1620.26 147.45,-1627.14 155.23,-1631.15"/>
</g>
<!-- DVC -->
<g id="node29" class="node">
<title>DVC</title>
<ellipse fill="none" stroke="black" cx="32.6" cy="-1756" rx="30.11" ry="18"/>
<text text-anchor="middle" x="32.6" y="-1750.58" font-family="Times New Roman,serif" font-size="14.00">DVC</text>
</g>
<!-- DVC&#45;&gt;AVE -->
<g id="edge37" class="edge">
<title>DVC&#45;&gt;AVE</title>
<path fill="none" stroke="gray" stroke-width="2" d="M46.82,-1739.69C55.48,-1729 65.2,-1717 65.2,-1717 65.2,-1717 101.57,-1666.64 137.63,-1616.72"/>
<polygon fill="gray" stroke="gray" stroke-width="2" points="140.27,-1619.03 143.29,-1608.88 134.6,-1614.93 140.27,-1619.03"/>
</g>
<!-- FLP -->
<g id="node30" class="node">
<title>FLP</title>
<ellipse fill="none" stroke="black" cx="32.6" cy="-1677" rx="27.11" ry="18"/>
<text text-anchor="middle" x="32.6" y="-1671.58" font-family="Times New Roman,serif" font-size="14.00">FLP</text>
</g>
<!-- FLP&#45;&gt;AVE -->
<g id="edge38" class="edge">
<title>FLP&#45;&gt;AVE</title>
<path fill="none" stroke="red" stroke-width="5" d="M49.4,-1662.7C65.13,-1648.47 90.6,-1625.42 116.58,-1601.91"/>
<polygon fill="red" stroke="red" stroke-width="5" points="119.42,-1605.24 123.9,-1595.29 113.55,-1598.75 119.42,-1605.24"/>
</g>
<!-- IL1 -->
<g id="node31" class="node">
<title>IL1</title>
<ellipse fill="none" stroke="black" cx="32.6" cy="-1598" rx="27" ry="18"/>
<text text-anchor="middle" x="32.6" y="-1592.58" font-family="Times New Roman,serif" font-size="14.00">IL1</text>
</g>
<!-- IL1&#45;&gt;AVE -->
<g id="edge39" class="edge">
<title>IL1&#45;&gt;AVE</title>
<path fill="none" stroke="red" stroke-width="5" d="M55.71,-1587.99C66.56,-1583.09 80.53,-1576.77 95.6,-1569.95"/>
<polygon fill="red" stroke="red" stroke-width="5" points="97.33,-1573.97 104.64,-1565.86 93.72,-1566 97.33,-1573.97"/>
</g>
<!-- IL2 -->
<g id="node32" class="node">
<title>IL2</title>
<ellipse fill="none" stroke="black" cx="32.6" cy="-1519" rx="27" ry="18"/>
<text text-anchor="middle" x="32.6" y="-1513.58" font-family="Times New Roman,serif" font-size="14.00">IL2</text>
</g>
<!-- IL2&#45;&gt;AVE -->
<g id="edge40" class="edge">
<title>IL2&#45;&gt;AVE</title>
<path fill="none" stroke="gray" stroke-width="2" d="M59.74,-1519C67.92,-1519 77.55,-1519 87.9,-1519"/>
<polygon fill="gray" stroke="gray" stroke-width="2" points="87.81,-1522.5 97.81,-1519 87.81,-1515.5 87.81,-1522.5"/>
</g>
<!-- OLQ -->
<g id="node33" class="node">
<title>OLQ</title>
<ellipse fill="none" stroke="black" cx="32.6" cy="-1440" rx="30.11" ry="18"/>
<text text-anchor="middle" x="32.6" y="-1434.58" font-family="Times New Roman,serif" font-size="14.00">OLQ</text>
</g>
<!-- OLQ&#45;&gt;AVE -->
<g id="edge41" class="edge">
<title>OLQ&#45;&gt;AVE</title>
<path fill="none" stroke="gray" stroke-width="5" d="M57.15,-1450.65C67.83,-1455.49 81.31,-1461.59 95.8,-1468.14"/>
<polygon fill="gray" stroke="gray" stroke-width="5" points="93.96,-1472.11 104.88,-1472.25 97.57,-1464.14 93.96,-1472.11"/>
</g>
<!-- PVC -->
<g id="node34" class="node">
<title>PVC</title>
<ellipse fill="none" stroke="black" cx="32.6" cy="-1361" rx="29.11" ry="18"/>
<text text-anchor="middle" x="32.6" y="-1355.58" font-family="Times New Roman,serif" font-size="14.00">PVC</text>
</g>
<!-- PVC&#45;&gt;AVE -->
<g id="edge42" class="edge">
<title>PVC&#45;&gt;AVE</title>
<path fill="none" stroke="gray" stroke-width="5" d="M50.03,-1375.86C65.85,-1390.19 91.13,-1413.06 116.87,-1436.35"/>
<polygon fill="gray" stroke="gray" stroke-width="5" points="113.73,-1439.41 124.08,-1442.87 119.6,-1432.92 113.73,-1439.41"/>
</g>
<!-- PVN -->
<g id="node35" class="node">
<title>PVN</title>
<ellipse fill="none" stroke="black" cx="32.6" cy="-1282" rx="29.11" ry="18"/>
<text text-anchor="middle" x="32.6" y="-1276.58" font-family="Times New Roman,serif" font-size="14.00">PVN</text>
</g>
<!-- PVN&#45;&gt;AVE -->
<g id="edge43" class="edge">
<title>PVN&#45;&gt;AVE</title>
<path fill="none" stroke="gray" stroke-width="0.2" d="M46.45,-1298.27C55.2,-1309.34 65.2,-1322 65.2,-1322 65.2,-1322 102.51,-1373.39 139.01,-1423.68"/>
<polygon fill="gray" stroke="gray" stroke-width="0.2" points="135.97,-1425.45 144.68,-1431.49 141.64,-1421.34 135.97,-1425.45"/>
</g>
<!-- PVT -->
<g id="node36" class="node">
<title>PVT</title>
<ellipse fill="none" stroke="black" cx="32.6" cy="-1203" rx="28.61" ry="18"/>
<text text-anchor="middle" x="32.6" y="-1197.58" font-family="Times New Roman,serif" font-size="14.00">PVT</text>
</g>
<!-- PVT&#45;&gt;AVE -->
<g id="edge44" class="edge">
<title>PVT&#45;&gt;AVE</title>
<path fill="none" stroke="gray" stroke-width="0.2" d="M46.45,-1219.27C55.2,-1230.34 65.2,-1243 65.2,-1243 65.2,-1243 113.49,-1336.21 153.95,-1414.29"/>
<polygon fill="gray" stroke="gray" stroke-width="0.2" points="150.74,-1415.71 158.45,-1422.97 156.96,-1412.49 150.74,-1415.71"/>
</g>
<!-- RIB -->
<g id="node37" class="node">
<title>RIB</title>
<ellipse fill="none" stroke="black" cx="32.6" cy="-1124" rx="27" ry="18"/>
<text text-anchor="middle" x="32.6" y="-1118.58" font-family="Times New Roman,serif" font-size="14.00">RIB</text>
</g>
<!-- RIB&#45;&gt;AVE -->
<g id="edge45" class="edge">
<title>RIB&#45;&gt;AVE</title>
<path fill="none" stroke="black" stroke-width="5" d="M46.09,-1139.81C54.92,-1150.99 65.2,-1164 65.2,-1164 65.2,-1164 120.15,-1300.42 161.93,-1404.12"/>
<polygon fill="black" stroke="black" stroke-width="5" points="157.86,-1405.74 165.66,-1413.38 165.98,-1402.47 157.86,-1405.74"/>
</g>
<!-- RIC -->
<g id="node38" class="node">
<title>RIC</title>
<ellipse fill="none" stroke="black" cx="32.6" cy="-1045" rx="27" ry="18"/>
<text text-anchor="middle" x="32.6" y="-1039.58" font-family="Times New Roman,serif" font-size="14.00">RIC</text>
</g>
<!-- RIC&#45;&gt;AVE -->
<g id="edge46" class="edge">
<title>RIC&#45;&gt;AVE</title>
<path fill="none" stroke="gray" stroke-width="0.2" d="M46.09,-1060.81C54.92,-1071.99 65.2,-1085 65.2,-1085 65.2,-1085 128.89,-1278.3 171.26,-1406.89"/>
<polygon fill="gray" stroke="gray" stroke-width="0.2" points="167.86,-1407.73 174.31,-1416.14 174.5,-1405.54 167.86,-1407.73"/>
</g>
<!-- RIG -->
<g id="node39" class="node">
<title>RIG</title>
<ellipse fill="none" stroke="black" cx="32.6" cy="-966" rx="27.11" ry="18"/>
<text text-anchor="middle" x="32.6" y="-960.58" font-family="Times New Roman,serif" font-size="14.00">RIG</text>
</g>
<!-- RIG&#45;&gt;AVE -->
<g id="edge47" class="edge">
<title>RIG&#45;&gt;AVE</title>
<path fill="none" stroke="red" stroke-width="5" d="M46.09,-981.81C54.92,-992.99 65.2,-1006 65.2,-1006 65.2,-1006 132.67,-1248.02 174.92,-1399.59"/>
<polygon fill="red" stroke="red" stroke-width="5" points="170.6,-1400.41 177.5,-1408.87 179.03,-1398.06 170.6,-1400.41"/>
</g>
<!-- RIH -->
<g id="node40" class="node">
<title>RIH</title>
<ellipse fill="none" stroke="black" cx="32.6" cy="-887" rx="27" ry="18"/>
<text text-anchor="middle" x="32.6" y="-881.58" font-family="Times New Roman,serif" font-size="14.00">RIH</text>
</g>
<!-- RIH&#45;&gt;AVE -->
<g id="edge48" class="edge">
<title>RIH&#45;&gt;AVE</title>
<path fill="none" stroke="gray" stroke-width="0.2" d="M46.09,-902.81C54.92,-913.99 65.2,-927 65.2,-927 65.2,-927 138.82,-1231.78 180.42,-1403.97"/>
<polygon fill="gray" stroke="gray" stroke-width="0.2" points="176.98,-1404.65 182.73,-1413.55 183.78,-1403.01 176.98,-1404.65"/>
</g>
<!-- RIR -->
<g id="node41" class="node">
<title>RIR</title>
<ellipse fill="none" stroke="black" cx="32.6" cy="-808" rx="27" ry="18"/>
<text text-anchor="middle" x="32.6" y="-802.58" font-family="Times New Roman,serif" font-size="14.00">RIR</text>
</g>
<!-- RIR&#45;&gt;AVE -->
<g id="edge49" class="edge">
<title>RIR&#45;&gt;AVE</title>
<path fill="none" stroke="red" stroke-width="2" d="M46.09,-823.81C54.92,-834.99 65.2,-848 65.2,-848 65.2,-848 141.94,-1208.09 182.99,-1400.7"/>
<polygon fill="red" stroke="red" stroke-width="2" points="179.56,-1401.41 185.07,-1410.46 186.41,-1399.95 179.56,-1401.41"/>
</g>
<!-- RIS -->
<g id="node42" class="node">
<title>RIS</title>
<ellipse fill="none" stroke="black" cx="32.6" cy="-729" rx="27" ry="18"/>
<text text-anchor="middle" x="32.6" y="-723.58" font-family="Times New Roman,serif" font-size="14.00">RIS</text>
</g>
<!-- RIS&#45;&gt;AVE -->
<g id="edge50" class="edge">
<title>RIS&#45;&gt;AVE</title>
<path fill="none" stroke="black" stroke-width="5" d="M46.09,-744.81C54.92,-755.99 65.2,-769 65.2,-769 65.2,-769 144.4,-1184.35 184.91,-1396.86"/>
<polygon fill="black" stroke="black" stroke-width="5" points="180.6,-1397.61 186.77,-1406.61 189.2,-1395.97 180.6,-1397.61"/>
</g>
<!-- RMD -->
<g id="node43" class="node">
<title>RMD</title>
<ellipse fill="none" stroke="black" cx="32.6" cy="-650" rx="31.6" ry="18"/>
<text text-anchor="middle" x="32.6" y="-644.58" font-family="Times New Roman,serif" font-size="14.00">RMD</text>
</g>
<!-- RMD&#45;&gt;AVE -->
<g id="edge51" class="edge">
<title>RMD&#45;&gt;AVE</title>
<path fill="none" stroke="gray" stroke-width="2" d="M46.45,-666.27C55.2,-677.34 65.2,-690 65.2,-690 65.2,-690 148.02,-1170.1 187.6,-1399.58"/>
<polygon fill="gray" stroke="gray" stroke-width="2" points="184.14,-1400.08 189.29,-1409.34 191.03,-1398.89 184.14,-1400.08"/>
</g>
<!-- RME -->
<g id="node44" class="node">
<title>RME</title>
<ellipse fill="none" stroke="black" cx="32.6" cy="-571" rx="30.61" ry="18"/>
<text text-anchor="middle" x="32.6" y="-565.58" font-family="Times New Roman,serif" font-size="14.00">RME</text>
</g>
<!-- RME&#45;&gt;AVE -->
<g id="edge52" class="edge">
<title>RME&#45;&gt;AVE</title>
<path fill="none" stroke="blue" stroke-width="5" d="M46.45,-587.27C55.2,-598.34 65.2,-611 65.2,-611 65.2,-611 149.82,-1148.3 188.87,-1396.26"/>
<polygon fill="blue" stroke="blue" stroke-width="5" points="184.53,-1396.81 190.41,-1406.01 193.17,-1395.45 184.53,-1396.81"/>
</g>
<!-- RMF -->
<g id="node45" class="node">
<title>RMF</title>
<ellipse fill="none" stroke="black" cx="32.6" cy="-492" rx="30.61" ry="18"/>
<text text-anchor="middle" x="32.6" y="-486.57" font-family="Times New Roman,serif" font-size="14.00">RMF</text>
</g>
<!-- RMF&#45;&gt;AVE -->
<g id="edge53" class="edge">
<title>RMF&#45;&gt;AVE</title>
<path fill="none" stroke="gray" stroke-width="0.2" d="M46.45,-508.27C55.2,-519.34 65.2,-532 65.2,-532 65.2,-532 153.39,-1140.7 191.26,-1402.06"/>
<polygon fill="gray" stroke="gray" stroke-width="0.2" points="187.75,-1402.27 192.65,-1411.67 194.68,-1401.27 187.75,-1402.27"/>
</g>
<!-- SAA -->
<g id="node46" class="node">
<title>SAA</title>
<ellipse fill="none" stroke="black" cx="32.6" cy="-413" rx="29.11" ry="18"/>
<text text-anchor="middle" x="32.6" y="-407.57" font-family="Times New Roman,serif" font-size="14.00">SAA</text>
</g>
<!-- SAA&#45;&gt;AVE -->
<g id="edge54" class="edge">
<title>SAA&#45;&gt;AVE</title>
<path fill="none" stroke="gray" stroke-width="5" d="M46.45,-429.27C55.2,-440.34 65.2,-453 65.2,-453 65.2,-453 154.09,-1115.61 191.7,-1396.02"/>
<polygon fill="gray" stroke="gray" stroke-width="5" points="187.34,-1396.4 193.01,-1405.73 196.01,-1395.23 187.34,-1396.4"/>
</g>
<!-- SDQ -->
<g id="node47" class="node">
<title>SDQ</title>
<ellipse fill="none" stroke="black" cx="32.6" cy="-334" rx="29.61" ry="18"/>
<text text-anchor="middle" x="32.6" y="-328.57" font-family="Times New Roman,serif" font-size="14.00">SDQ</text>
</g>
<!-- SDQ&#45;&gt;AVE -->
<g id="edge55" class="edge">
<title>SDQ&#45;&gt;AVE</title>
<path fill="none" stroke="gray" stroke-width="2" d="M46.45,-350.27C55.2,-361.34 65.2,-374 65.2,-374 65.2,-374 156.47,-1104.81 193.18,-1398.72"/>
<polygon fill="gray" stroke="gray" stroke-width="2" points="189.69,-1399.05 194.41,-1408.53 196.64,-1398.18 189.69,-1399.05"/>
</g>
<!-- SMD -->
<g id="node48" class="node">
<title>SMD</title>
<ellipse fill="none" stroke="black" cx="32.6" cy="-255" rx="30.61" ry="18"/>
<text text-anchor="middle" x="32.6" y="-249.57" font-family="Times New Roman,serif" font-size="14.00">SMD</text>
</g>
<!-- SMD&#45;&gt;AVE -->
<g id="edge56" class="edge">
<title>SMD&#45;&gt;AVE</title>
<path fill="none" stroke="gray" stroke-width="0.2" d="M46.45,-271.27C55.2,-282.34 65.2,-295 65.2,-295 65.2,-295 158.7,-1095.3 194.49,-1401.65"/>
<polygon fill="gray" stroke="gray" stroke-width="0.2" points="190.97,-1401.62 195.6,-1411.15 197.92,-1400.81 190.97,-1401.62"/>
</g>
<!-- URA -->
<g id="node49" class="node">
<title>URA</title>
<ellipse fill="none" stroke="black" cx="32.6" cy="-176" rx="30.11" ry="18"/>
<text text-anchor="middle" x="32.6" y="-170.57" font-family="Times New Roman,serif" font-size="14.00">URA</text>
</g>
<!-- URA&#45;&gt;AVE -->
<g id="edge57" class="edge">
<title>URA&#45;&gt;AVE</title>
<path fill="none" stroke="gray" stroke-width="0.2" d="M46.45,-192.27C55.2,-203.34 65.2,-216 65.2,-216 65.2,-216 160.14,-1081.06 195.3,-1401.48"/>
<polygon fill="gray" stroke="gray" stroke-width="0.2" points="191.78,-1401.4 196.35,-1410.96 198.73,-1400.64 191.78,-1401.4"/>
</g>
<!-- URB -->
<g id="node50" class="node">
<title>URB</title>
<ellipse fill="none" stroke="black" cx="32.6" cy="-97" rx="29.61" ry="18"/>
<text text-anchor="middle" x="32.6" y="-91.58" font-family="Times New Roman,serif" font-size="14.00">URB</text>
</g>
<!-- URB&#45;&gt;AVE -->
<g id="edge58" class="edge">
<title>URB&#45;&gt;AVE</title>
<path fill="none" stroke="gray" stroke-width="0.2" d="M46.45,-113.27C55.2,-124.34 65.2,-137 65.2,-137 65.2,-137 161.44,-1067.07 196.02,-1401.23"/>
<polygon fill="gray" stroke="gray" stroke-width="0.2" points="192.53,-1401.53 197.04,-1411.12 199.49,-1400.81 192.53,-1401.53"/>
</g>
<!-- URY -->
<g id="node51" class="node">
<title>URY</title>
<ellipse fill="none" stroke="black" cx="32.6" cy="-18" rx="30.11" ry="18"/>
<text text-anchor="middle" x="32.6" y="-12.57" font-family="Times New Roman,serif" font-size="14.00">URY</text>
</g>
<!-- URY&#45;&gt;AVE -->
<g id="edge59" class="edge">
<title>URY&#45;&gt;AVE</title>
<path fill="none" stroke="black" stroke-width="5" d="M46.45,-34.27C55.2,-45.34 65.2,-58 65.2,-58 65.2,-58 161.57,-1042.57 196.09,-1395.22"/>
<polygon fill="black" stroke="black" stroke-width="5" points="191.72,-1395.54 197.05,-1405.07 200.43,-1394.69 191.72,-1395.54"/>
</g>
</g>
</svg>
