<?xml version="1.0" encoding="UTF-8" standalone="no"?>
<!DOCTYPE svg PUBLIC "-//W3C//DTD SVG 1.1//EN"
 "http://www.w3.org/Graphics/SVG/1.1/DTD/svg11.dtd">
<!-- Generated by graphviz version 11.0.0 (20240428.1522)
 -->
<!-- Pages: 1 -->
<svg width="421pt" height="2414pt"
 viewBox="0.00 0.00 421.41 2414.00" xmlns="http://www.w3.org/2000/svg" xmlns:xlink="http://www.w3.org/1999/xlink">
<g id="graph0" class="graph" transform="scale(1 1) rotate(0) translate(4 2410)">
<polygon fill="white" stroke="none" points="-4,4 -4,-2410 417.41,-2410 417.41,4 -4,4"/>
<!-- AVF -->
<g id="node1" class="node">
<title>AVF</title>
<ellipse fill="none" stroke="black" cx="204.21" cy="-1084" rx="108" ry="108"/>
<text text-anchor="middle" x="204.21" y="-1065" font-family="Times New Roman,serif" font-size="50.00">AVF</text>
</g>
<!-- AVF&#45;&gt;AVF -->
<g id="edge1" class="edge">
<title>AVF&#45;&gt;AVF</title>
<path fill="none" stroke="gray" stroke-width="5" d="M171.88,-1187.39C173.8,-1214.51 184.57,-1235 204.21,-1235 219.78,-1235 229.79,-1222.12 234.22,-1203.26"/>
<polygon fill="gray" stroke="gray" stroke-width="5" points="238.51,-1204.09 235.64,-1193.56 229.86,-1202.82 238.51,-1204.09"/>
</g>
<!-- ADA -->
<g id="node2" class="node">
<title>ADA</title>
<ellipse fill="none" stroke="black" cx="380.81" cy="-2388" rx="30.11" ry="18"/>
<text text-anchor="middle" x="380.81" y="-2382.57" font-family="Times New Roman,serif" font-size="14.00">ADA</text>
</g>
<!-- AVF&#45;&gt;ADA -->
<g id="edge2" class="edge">
<title>AVF&#45;&gt;ADA</title>
<path fill="none" stroke="gray" stroke-width="0.2" d="M217.37,-1191.58C251.93,-1497.26 348.21,-2349 348.21,-2349 348.21,-2349 353.91,-2356.03 360.47,-2364.13"/>
<polygon fill="gray" stroke="gray" stroke-width="0.2" points="357.39,-2365.89 366.4,-2371.45 362.83,-2361.48 357.39,-2365.89"/>
</g>
<!-- AIA -->
<g id="node3" class="node">
<title>AIA</title>
<ellipse fill="none" stroke="black" cx="380.81" cy="-2309" rx="27" ry="18"/>
<text text-anchor="middle" x="380.81" y="-2303.57" font-family="Times New Roman,serif" font-size="14.00">AIA</text>
</g>
<!-- AVF&#45;&gt;AIA -->
<g id="edge3" class="edge">
<title>AVF&#45;&gt;AIA</title>
<path fill="none" stroke="gray" stroke-width="0.2" d="M218.15,-1191.34C253.36,-1483.29 348.21,-2270 348.21,-2270 348.21,-2270 353.95,-2277.09 360.54,-2285.22"/>
<polygon fill="gray" stroke="gray" stroke-width="0.2" points="357.75,-2287.34 366.77,-2292.9 363.19,-2282.93 357.75,-2287.34"/>
</g>
<!-- AIM -->
<g id="node4" class="node">
<title>AIM</title>
<ellipse fill="none" stroke="black" cx="380.81" cy="-2230" rx="28.11" ry="18"/>
<text text-anchor="middle" x="380.81" y="-2224.57" font-family="Times New Roman,serif" font-size="14.00">AIM</text>
</g>
<!-- AVF&#45;&gt;AIM -->
<g id="edge4" class="edge">
<title>AVF&#45;&gt;AIM</title>
<path fill="none" stroke="gray" stroke-width="2" d="M220.41,-1191.09C257.24,-1465.25 348.21,-2169.5 348.21,-2169.5 348.21,-2169.5 360.19,-2184.29 369.4,-2200.67"/>
<polygon fill="gray" stroke="gray" stroke-width="2" points="366.17,-2202.04 373.79,-2209.4 372.42,-2198.89 366.17,-2202.04"/>
</g>
<!-- AQR -->
<g id="node5" class="node">
<title>AQR</title>
<ellipse fill="none" stroke="black" cx="380.81" cy="-2151" rx="30.61" ry="18"/>
<text text-anchor="middle" x="380.81" y="-2145.57" font-family="Times New Roman,serif" font-size="14.00">AQR</text>
</g>
<!-- AVF&#45;&gt;AQR -->
<g id="edge5" class="edge">
<title>AVF&#45;&gt;AQR</title>
<path fill="none" stroke="gray" stroke-width="0.2" d="M220.11,-1191.1C256.74,-1454.4 348.21,-2112 348.21,-2112 348.21,-2112 353.91,-2119.03 360.47,-2127.13"/>
<polygon fill="gray" stroke="gray" stroke-width="0.2" points="357.39,-2128.89 366.4,-2134.45 362.83,-2124.48 357.39,-2128.89"/>
</g>
<!-- ASH -->
<g id="node6" class="node">
<title>ASH</title>
<ellipse fill="none" stroke="black" cx="380.81" cy="-2072" rx="29.11" ry="18"/>
<text text-anchor="middle" x="380.81" y="-2066.57" font-family="Times New Roman,serif" font-size="14.00">ASH</text>
</g>
<!-- AVF&#45;&gt;ASH -->
<g id="edge6" class="edge">
<title>AVF&#45;&gt;ASH</title>
<path fill="none" stroke="gray" stroke-width="0.2" d="M222.96,-1190.49C261.26,-1434.45 348.21,-2011.5 348.21,-2011.5 348.21,-2011.5 361.37,-2027.74 370.71,-2045.04"/>
<polygon fill="gray" stroke="gray" stroke-width="0.2" points="367.47,-2046.39 375.02,-2053.83 373.76,-2043.31 367.47,-2046.39"/>
</g>
<!-- ASJ -->
<g id="node7" class="node">
<title>ASJ</title>
<ellipse fill="none" stroke="black" cx="380.81" cy="-1993" rx="27" ry="18"/>
<text text-anchor="middle" x="380.81" y="-1987.58" font-family="Times New Roman,serif" font-size="14.00">ASJ</text>
</g>
<!-- AVF&#45;&gt;ASJ -->
<g id="edge7" class="edge">
<title>AVF&#45;&gt;ASJ</title>
<path fill="none" stroke="gray" stroke-width="2" d="M224.65,-1190.5C263.75,-1418.61 348.21,-1932.5 348.21,-1932.5 348.21,-1932.5 360.19,-1947.29 369.4,-1963.67"/>
<polygon fill="gray" stroke="gray" stroke-width="2" points="366.17,-1965.04 373.79,-1972.4 372.42,-1961.89 366.17,-1965.04"/>
</g>
<!-- ASK -->
<g id="node8" class="node">
<title>ASK</title>
<ellipse fill="none" stroke="black" cx="380.81" cy="-1914" rx="29.11" ry="18"/>
<text text-anchor="middle" x="380.81" y="-1908.58" font-family="Times New Roman,serif" font-size="14.00">ASK</text>
</g>
<!-- AVF&#45;&gt;ASK -->
<g id="edge8" class="edge">
<title>AVF&#45;&gt;ASK</title>
<path fill="none" stroke="gray" stroke-width="0.2" d="M226.54,-1189.8C266.41,-1401 348.21,-1853.5 348.21,-1853.5 348.21,-1853.5 361.37,-1869.74 370.71,-1887.04"/>
<polygon fill="gray" stroke="gray" stroke-width="0.2" points="367.47,-1888.39 375.02,-1895.83 373.76,-1885.31 367.47,-1888.39"/>
</g>
<!-- AVA -->
<g id="node9" class="node">
<title>AVA</title>
<ellipse fill="none" stroke="black" cx="380.81" cy="-1835" rx="30.11" ry="18"/>
<text text-anchor="middle" x="380.81" y="-1829.58" font-family="Times New Roman,serif" font-size="14.00">AVA</text>
</g>
<!-- AVF&#45;&gt;AVA -->
<g id="edge9" class="edge">
<title>AVF&#45;&gt;AVA</title>
<path fill="none" stroke="gray" stroke-width="0.2" d="M226.47,-1189.82C266.3,-1388.17 348.21,-1796 348.21,-1796 348.21,-1796 353.91,-1803.03 360.47,-1811.13"/>
<polygon fill="gray" stroke="gray" stroke-width="0.2" points="357.39,-1812.89 366.4,-1818.45 362.83,-1808.48 357.39,-1812.89"/>
</g>
<!-- AVB -->
<g id="node10" class="node">
<title>AVB</title>
<ellipse fill="none" stroke="black" cx="380.81" cy="-1756" rx="29.61" ry="18"/>
<text text-anchor="middle" x="380.81" y="-1750.58" font-family="Times New Roman,serif" font-size="14.00">AVB</text>
</g>
<!-- AVF&#45;&gt;AVB -->
<g id="edge10" class="edge">
<title>AVF&#45;&gt;AVB</title>
<path fill="none" stroke="gray" stroke-width="2" d="M229.07,-1189.59C269.75,-1369.69 348.21,-1717 348.21,-1717 348.21,-1717 353.16,-1723.1 359.13,-1730.48"/>
<polygon fill="gray" stroke="gray" stroke-width="2" points="356.04,-1732.22 365.05,-1737.79 361.48,-1727.81 356.04,-1732.22"/>
</g>
<!-- AVE -->
<g id="node11" class="node">
<title>AVE</title>
<ellipse fill="none" stroke="black" cx="380.81" cy="-1677" rx="29.11" ry="18"/>
<text text-anchor="middle" x="380.81" y="-1671.58" font-family="Times New Roman,serif" font-size="14.00">AVE</text>
</g>
<!-- AVF&#45;&gt;AVE -->
<g id="edge11" class="edge">
<title>AVF&#45;&gt;AVE</title>
<path fill="none" stroke="gray" stroke-width="2" d="M232.19,-1188.53C273.63,-1349.07 348.21,-1638 348.21,-1638 348.21,-1638 353.16,-1644.1 359.13,-1651.48"/>
<polygon fill="gray" stroke="gray" stroke-width="2" points="356.04,-1653.22 365.05,-1658.79 361.48,-1648.81 356.04,-1653.22"/>
</g>
<!-- AVH -->
<g id="node12" class="node">
<title>AVH</title>
<ellipse fill="none" stroke="black" cx="380.81" cy="-1598" rx="30.11" ry="18"/>
<text text-anchor="middle" x="380.81" y="-1592.58" font-family="Times New Roman,serif" font-size="14.00">AVH</text>
</g>
<!-- AVF&#45;&gt;AVH -->
<g id="edge12" class="edge">
<title>AVF&#45;&gt;AVH</title>
<path fill="none" stroke="gray" stroke-width="0.2" d="M236.33,-1187.36C278.4,-1327.09 348.21,-1559 348.21,-1559 348.21,-1559 353.91,-1566.03 360.47,-1574.13"/>
<polygon fill="gray" stroke="gray" stroke-width="0.2" points="357.39,-1575.89 366.4,-1581.45 362.83,-1571.48 357.39,-1575.89"/>
</g>
<!-- AVJ -->
<g id="node13" class="node">
<title>AVJ</title>
<ellipse fill="none" stroke="black" cx="380.81" cy="-1519" rx="27.11" ry="18"/>
<text text-anchor="middle" x="380.81" y="-1513.58" font-family="Times New Roman,serif" font-size="14.00">AVJ</text>
</g>
<!-- AVF&#45;&gt;AVJ -->
<g id="edge13" class="edge">
<title>AVF&#45;&gt;AVJ</title>
<path fill="none" stroke="gray" stroke-width="2" d="M241.95,-1185.72C284.31,-1303.05 348.21,-1480 348.21,-1480 348.21,-1480 353.16,-1486.1 359.13,-1493.48"/>
<polygon fill="gray" stroke="gray" stroke-width="2" points="356.04,-1495.22 365.05,-1500.79 361.48,-1490.81 356.04,-1495.22"/>
</g>
<!-- AVK -->
<g id="node14" class="node">
<title>AVK</title>
<ellipse fill="none" stroke="black" cx="380.81" cy="-1440" rx="30.11" ry="18"/>
<text text-anchor="middle" x="380.81" y="-1434.58" font-family="Times New Roman,serif" font-size="14.00">AVK</text>
</g>
<!-- AVF&#45;&gt;AVK -->
<g id="edge14" class="edge">
<title>AVF&#45;&gt;AVK</title>
<path fill="none" stroke="gray" stroke-width="0.2" d="M249.48,-1182.13C291.48,-1275.23 348.21,-1401 348.21,-1401 348.21,-1401 353.91,-1408.03 360.47,-1416.13"/>
<polygon fill="gray" stroke="gray" stroke-width="0.2" points="357.39,-1417.89 366.4,-1423.45 362.83,-1413.48 357.39,-1417.89"/>
</g>
<!-- AVM -->
<g id="node15" class="node">
<title>AVM</title>
<ellipse fill="none" stroke="black" cx="380.81" cy="-1361" rx="31.6" ry="18"/>
<text text-anchor="middle" x="380.81" y="-1355.58" font-family="Times New Roman,serif" font-size="14.00">AVM</text>
</g>
<!-- AVF&#45;&gt;AVM -->
<g id="edge15" class="edge">
<title>AVF&#45;&gt;AVM</title>
<path fill="none" stroke="gray" stroke-width="0.2" d="M260.7,-1176.36C300.9,-1243.26 348.21,-1322 348.21,-1322 348.21,-1322 353.91,-1329.03 360.47,-1337.13"/>
<polygon fill="gray" stroke="gray" stroke-width="0.2" points="357.39,-1338.89 366.4,-1344.45 362.83,-1334.48 357.39,-1338.89"/>
</g>
<!-- AWA -->
<g id="node16" class="node">
<title>AWA</title>
<ellipse fill="none" stroke="black" cx="380.81" cy="-1282" rx="32.6" ry="18"/>
<text text-anchor="middle" x="380.81" y="-1276.58" font-family="Times New Roman,serif" font-size="14.00">AWA</text>
</g>
<!-- AVF&#45;&gt;AWA -->
<g id="edge16" class="edge">
<title>AVF&#45;&gt;AWA</title>
<path fill="none" stroke="gray" stroke-width="0.2" d="M276.48,-1164.82C306.17,-1198.49 338.43,-1235.07 358.86,-1258.24"/>
<polygon fill="gray" stroke="gray" stroke-width="0.2" points="356.13,-1260.44 365.37,-1265.62 361.38,-1255.81 356.13,-1260.44"/>
</g>
<!-- AWB -->
<g id="node17" class="node">
<title>AWB</title>
<ellipse fill="none" stroke="black" cx="380.81" cy="-1203" rx="32.1" ry="18"/>
<text text-anchor="middle" x="380.81" y="-1197.58" font-family="Times New Roman,serif" font-size="14.00">AWB</text>
</g>
<!-- AVF&#45;&gt;AWB -->
<g id="edge17" class="edge">
<title>AVF&#45;&gt;AWB</title>
<path fill="none" stroke="gray" stroke-width="0.2" d="M294.05,-1144.55C314.8,-1158.69 335.44,-1172.76 351.27,-1183.55"/>
<polygon fill="gray" stroke="gray" stroke-width="0.2" points="349.06,-1186.27 359.29,-1189.01 353,-1180.49 349.06,-1186.27"/>
</g>
<!-- BDU -->
<g id="node18" class="node">
<title>BDU</title>
<ellipse fill="none" stroke="black" cx="380.81" cy="-1124" rx="29.61" ry="18"/>
<text text-anchor="middle" x="380.81" y="-1118.58" font-family="Times New Roman,serif" font-size="14.00">BDU</text>
</g>
<!-- AVF&#45;&gt;BDU -->
<g id="edge18" class="edge">
<title>AVF&#45;&gt;BDU</title>
<path fill="none" stroke="gray" stroke-width="0.2" d="M312.31,-1092.78C327.16,-1096.76 341.2,-1101.2 352.59,-1105.68"/>
<polygon fill="gray" stroke="gray" stroke-width="0.2" points="351.03,-1108.82 361.6,-1109.5 353.76,-1102.37 351.03,-1108.82"/>
</g>
<!-- CEP -->
<g id="node19" class="node">
<title>CEP</title>
<ellipse fill="none" stroke="black" cx="380.81" cy="-1045" rx="28.11" ry="18"/>
<text text-anchor="middle" x="380.81" y="-1039.58" font-family="Times New Roman,serif" font-size="14.00">CEP</text>
</g>
<!-- AVF&#45;&gt;CEP -->
<g id="edge19" class="edge">
<title>AVF&#45;&gt;CEP</title>
<path fill="none" stroke="blue" stroke-width="0.2" d="M310.05,-1060.58C322.09,-1057.89 333.67,-1055.31 343.81,-1053.04"/>
<polygon fill="blue" stroke="blue" stroke-width="0.2" points="344.53,-1056.47 353.53,-1050.87 343.01,-1049.63 344.53,-1056.47"/>
</g>
<!-- DVA -->
<g id="node20" class="node">
<title>DVA</title>
<ellipse fill="none" stroke="black" cx="380.81" cy="-966" rx="30.11" ry="18"/>
<text text-anchor="middle" x="380.81" y="-960.58" font-family="Times New Roman,serif" font-size="14.00">DVA</text>
</g>
<!-- AVF&#45;&gt;DVA -->
<g id="edge20" class="edge">
<title>AVF&#45;&gt;DVA</title>
<path fill="none" stroke="gray" stroke-width="2" d="M294.3,-1023.79C314.19,-1010.35 333.96,-996.99 349.47,-986.51"/>
<polygon fill="gray" stroke="gray" stroke-width="2" points="351.12,-989.62 357.44,-981.12 347.2,-983.82 351.12,-989.62"/>
</g>
<!-- HSN -->
<g id="node21" class="node">
<title>HSN</title>
<ellipse fill="none" stroke="black" cx="380.81" cy="-887" rx="29.11" ry="18"/>
<text text-anchor="middle" x="380.81" y="-881.58" font-family="Times New Roman,serif" font-size="14.00">HSN</text>
</g>
<!-- AVF&#45;&gt;HSN -->
<g id="edge21" class="edge">
<title>AVF&#45;&gt;HSN</title>
<path fill="none" stroke="red" stroke-width="2" d="M268.49,-997.03C296.38,-964.25 327.81,-929.82 350.14,-908.01"/>
<polygon fill="red" stroke="red" stroke-width="2" points="352.38,-910.71 357.22,-901.28 347.56,-905.63 352.38,-910.71"/>
</g>
<!-- PVD -->
<g id="node22" class="node">
<title>PVD</title>
<ellipse fill="none" stroke="black" cx="380.81" cy="-808" rx="29.11" ry="18"/>
<text text-anchor="middle" x="380.81" y="-802.58" font-family="Times New Roman,serif" font-size="14.00">PVD</text>
</g>
<!-- AVF&#45;&gt;PVD -->
<g id="edge22" class="edge">
<title>AVF&#45;&gt;PVD</title>
<path fill="none" stroke="gray" stroke-width="0.2" d="M253.43,-987.48C294.94,-913.79 348.21,-825.5 348.21,-825.5 348.21,-825.5 348.41,-825.26 348.76,-824.83"/>
<polygon fill="gray" stroke="gray" stroke-width="0.2" points="351.37,-827.16 355.34,-817.34 346.11,-822.54 351.37,-827.16"/>
</g>
<!-- PVN -->
<g id="node23" class="node">
<title>PVN</title>
<ellipse fill="none" stroke="black" cx="380.81" cy="-729" rx="29.11" ry="18"/>
<text text-anchor="middle" x="380.81" y="-723.58" font-family="Times New Roman,serif" font-size="14.00">PVN</text>
</g>
<!-- AVF&#45;&gt;PVN -->
<g id="edge23" class="edge">
<title>AVF&#45;&gt;PVN</title>
<path fill="none" stroke="gray" stroke-width="5" d="M243.91,-983.12C279.23,-899.96 328.18,-790.93 347.71,-752.16"/>
<polygon fill="gray" stroke="gray" stroke-width="5" points="351.46,-754.42 352.51,-743.56 343.82,-750.16 351.46,-754.42"/>
</g>
<!-- PVQ -->
<g id="node24" class="node">
<title>PVQ</title>
<ellipse fill="none" stroke="black" cx="380.81" cy="-650" rx="29.61" ry="18"/>
<text text-anchor="middle" x="380.81" y="-644.58" font-family="Times New Roman,serif" font-size="14.00">PVQ</text>
</g>
<!-- AVF&#45;&gt;PVQ -->
<g id="edge24" class="edge">
<title>AVF&#45;&gt;PVQ</title>
<path fill="none" stroke="red" stroke-width="2" d="M237.39,-980.76C274.13,-873.06 330.95,-715.29 349.63,-671.09"/>
<polygon fill="red" stroke="red" stroke-width="2" points="352.73,-672.71 353.91,-662.18 346.42,-669.68 352.73,-672.71"/>
</g>
<!-- RID -->
<g id="node25" class="node">
<title>RID</title>
<ellipse fill="none" stroke="black" cx="380.81" cy="-571" rx="27" ry="18"/>
<text text-anchor="middle" x="380.81" y="-565.58" font-family="Times New Roman,serif" font-size="14.00">RID</text>
</g>
<!-- AVF&#45;&gt;RID -->
<g id="edge25" class="edge">
<title>AVF&#45;&gt;RID</title>
<path fill="none" stroke="gray" stroke-width="0.2" d="M236.42,-980.56C278.49,-841.09 348.21,-610 348.21,-610 348.21,-610 353.95,-602.91 360.54,-594.78"/>
<polygon fill="gray" stroke="gray" stroke-width="0.2" points="363.19,-597.07 366.77,-587.1 357.75,-592.66 363.19,-597.07"/>
</g>
<!-- RIF -->
<g id="node26" class="node">
<title>RIF</title>
<ellipse fill="none" stroke="black" cx="380.81" cy="-492" rx="27" ry="18"/>
<text text-anchor="middle" x="380.81" y="-486.57" font-family="Times New Roman,serif" font-size="14.00">RIF</text>
</g>
<!-- AVF&#45;&gt;RIF -->
<g id="edge26" class="edge">
<title>AVF&#45;&gt;RIF</title>
<path fill="none" stroke="gray" stroke-width="2" d="M229.15,-978.66C265.64,-829.71 332.39,-570.77 351.8,-511.96"/>
<polygon fill="gray" stroke="gray" stroke-width="2" points="354.97,-513.47 355.4,-502.88 348.46,-510.89 354.97,-513.47"/>
</g>
<!-- RMD -->
<g id="node27" class="node">
<title>RMD</title>
<ellipse fill="none" stroke="black" cx="380.81" cy="-413" rx="31.6" ry="18"/>
<text text-anchor="middle" x="380.81" y="-407.57" font-family="Times New Roman,serif" font-size="14.00">RMD</text>
</g>
<!-- AVF&#45;&gt;RMD -->
<g id="edge27" class="edge">
<title>AVF&#45;&gt;RMD</title>
<path fill="none" stroke="gray" stroke-width="0.2" d="M229.07,-978.57C269.75,-798.76 348.21,-452 348.21,-452 348.21,-452 353.91,-444.97 360.47,-436.87"/>
<polygon fill="gray" stroke="gray" stroke-width="0.2" points="362.83,-439.52 366.4,-429.55 357.39,-435.11 362.83,-439.52"/>
</g>
<!-- RMG -->
<g id="node28" class="node">
<title>RMG</title>
<ellipse fill="none" stroke="black" cx="380.81" cy="-334" rx="32.1" ry="18"/>
<text text-anchor="middle" x="380.81" y="-328.57" font-family="Times New Roman,serif" font-size="14.00">RMG</text>
</g>
<!-- AVF&#45;&gt;RMG -->
<g id="edge28" class="edge">
<title>AVF&#45;&gt;RMG</title>
<path fill="none" stroke="gray" stroke-width="0.2" d="M224.28,-977.57C260.01,-790.83 334.58,-419.36 351.28,-354.23"/>
<polygon fill="gray" stroke="gray" stroke-width="0.2" points="354.6,-355.34 354.22,-344.75 347.92,-353.27 354.6,-355.34"/>
</g>
<!-- SIA -->
<g id="node29" class="node">
<title>SIA</title>
<ellipse fill="none" stroke="black" cx="380.81" cy="-255" rx="27" ry="18"/>
<text text-anchor="middle" x="380.81" y="-249.57" font-family="Times New Roman,serif" font-size="14.00">SIA</text>
</g>
<!-- AVF&#45;&gt;SIA -->
<g id="edge29" class="edge">
<title>AVF&#45;&gt;SIA</title>
<path fill="none" stroke="gray" stroke-width="0.2" d="M222.53,-977.12C260.6,-756.49 348.21,-272.5 348.21,-272.5 348.21,-272.5 348.8,-271.77 349.82,-270.57"/>
<polygon fill="gray" stroke="gray" stroke-width="0.2" points="352.27,-273.09 356.31,-263.29 347.04,-268.42 352.27,-273.09"/>
</g>
<!-- SMB -->
<g id="node30" class="node">
<title>SMB</title>
<ellipse fill="none" stroke="black" cx="380.81" cy="-176" rx="30.11" ry="18"/>
<text text-anchor="middle" x="380.81" y="-170.57" font-family="Times New Roman,serif" font-size="14.00">SMB</text>
</g>
<!-- AVF&#45;&gt;SMB -->
<g id="edge30" class="edge">
<title>AVF&#45;&gt;SMB</title>
<path fill="none" stroke="gray" stroke-width="0.2" d="M221.06,-976.9C255.6,-757.05 335.49,-270.86 352.21,-195.58"/>
<polygon fill="gray" stroke="gray" stroke-width="0.2" points="355.54,-196.65 354.83,-186.08 348.8,-194.79 355.54,-196.65"/>
</g>
<!-- SMD -->
<g id="node31" class="node">
<title>SMD</title>
<ellipse fill="none" stroke="black" cx="380.81" cy="-97" rx="30.61" ry="18"/>
<text text-anchor="middle" x="380.81" y="-91.58" font-family="Times New Roman,serif" font-size="14.00">SMD</text>
</g>
<!-- AVF&#45;&gt;SMD -->
<g id="edge31" class="edge">
<title>AVF&#45;&gt;SMD</title>
<path fill="none" stroke="gray" stroke-width="0.2" d="M221.34,-977.1C258.74,-729.17 348.21,-136 348.21,-136 348.21,-136 353.91,-128.97 360.47,-120.87"/>
<polygon fill="gray" stroke="gray" stroke-width="0.2" points="362.83,-123.52 366.4,-113.55 357.39,-119.11 362.83,-123.52"/>
</g>
<!-- URA -->
<g id="node32" class="node">
<title>URA</title>
<ellipse fill="none" stroke="black" cx="380.81" cy="-18" rx="30.11" ry="18"/>
<text text-anchor="middle" x="380.81" y="-12.57" font-family="Times New Roman,serif" font-size="14.00">URA</text>
</g>
<!-- AVF&#45;&gt;URA -->
<g id="edge32" class="edge">
<title>AVF&#45;&gt;URA</title>
<path fill="none" stroke="gray" stroke-width="0.2" d="M220.11,-977C256.74,-713.96 348.21,-57 348.21,-57 348.21,-57 353.91,-49.97 360.47,-41.87"/>
<polygon fill="gray" stroke="gray" stroke-width="0.2" points="362.83,-44.52 366.4,-34.55 357.39,-40.11 362.83,-44.52"/>
</g>
<!-- AIM&#45;&gt;AVF -->
<g id="edge33" class="edge">
<title>AIM&#45;&gt;AVF</title>
<path fill="none" stroke="black" stroke-width="5" d="M355.86,-2221.23C351.45,-2216.5 348.21,-2212.5 348.21,-2212.5 348.21,-2212.5 256.2,-1500.23 219.79,-1207.27"/>
<polygon fill="black" stroke="black" stroke-width="5" points="224.18,-1207.11 218.61,-1197.72 215.5,-1208.19 224.18,-1207.11"/>
</g>
<!-- ASH&#45;&gt;AVF -->
<g id="edge34" class="edge">
<title>ASH&#45;&gt;AVF</title>
<path fill="none" stroke="gray" stroke-width="0.2" d="M355.54,-2062.89C351.3,-2058.31 348.21,-2054.5 348.21,-2054.5 348.21,-2054.5 258.59,-1459.72 221.25,-1201.24"/>
<polygon fill="gray" stroke="gray" stroke-width="0.2" points="224.71,-1200.75 219.82,-1191.36 217.78,-1201.75 224.71,-1200.75"/>
</g>
<!-- ASJ&#45;&gt;AVF -->
<g id="edge35" class="edge">
<title>ASJ&#45;&gt;AVF</title>
<path fill="none" stroke="blue" stroke-width="5" d="M356.51,-1984.93C351.78,-1979.9 348.21,-1975.5 348.21,-1975.5 348.21,-1975.5 262.01,-1451.05 223.46,-1206.47"/>
<polygon fill="blue" stroke="blue" stroke-width="5" points="227.84,-1206.13 221.96,-1196.93 219.19,-1207.49 227.84,-1206.13"/>
</g>
<!-- ASK&#45;&gt;AVF -->
<g id="edge36" class="edge">
<title>ASK&#45;&gt;AVF</title>
<path fill="none" stroke="gray" stroke-width="0.2" d="M355.54,-1904.89C351.3,-1900.31 348.21,-1896.5 348.21,-1896.5 348.21,-1896.5 263.05,-1425.41 224.16,-1200.45"/>
<polygon fill="gray" stroke="gray" stroke-width="0.2" points="227.66,-1200.14 222.51,-1190.88 220.76,-1201.33 227.66,-1200.14"/>
</g>
<!-- BDU&#45;&gt;AVF -->
<g id="edge37" class="edge">
<title>BDU&#45;&gt;AVF</title>
<path fill="none" stroke="gray" stroke-width="2" d="M352.48,-1129.84C342.51,-1129.19 330.51,-1127.58 317.72,-1125.29"/>
<polygon fill="gray" stroke="gray" stroke-width="2" points="318.71,-1121.91 308.23,-1123.46 317.39,-1128.79 318.71,-1121.91"/>
</g>
<!-- HSN&#45;&gt;AVF -->
<g id="edge38" class="edge">
<title>HSN&#45;&gt;AVF</title>
<path fill="none" stroke="gray" stroke-width="2" d="M371.11,-904.36C356.23,-926.86 324.43,-965.61 292.6,-1001.52"/>
<polygon fill="gray" stroke="gray" stroke-width="2" points="290.15,-999.02 286.1,-1008.81 295.37,-1003.68 290.15,-999.02"/>
</g>
<!-- PVD&#45;&gt;AVF -->
<g id="edge39" class="edge">
<title>PVD&#45;&gt;AVF</title>
<path fill="none" stroke="gray" stroke-width="0.2" d="M375.15,-825.9C366.36,-846.1 348.21,-868.5 348.21,-868.5 348.21,-868.5 310.74,-930.61 274.15,-988.36"/>
<polygon fill="gray" stroke="gray" stroke-width="0.2" points="271.34,-986.26 268.93,-996.58 277.25,-990.02 271.34,-986.26"/>
</g>
<!-- PVN&#45;&gt;AVF -->
<g id="edge40" class="edge">
<title>PVN&#45;&gt;AVF</title>
<path fill="none" stroke="gray" stroke-width="0.2" d="M375.15,-746.9C366.36,-767.1 348.21,-789.5 348.21,-789.5 348.21,-789.5 300.51,-894.92 260.2,-979.84"/>
<polygon fill="gray" stroke="gray" stroke-width="0.2" points="257.09,-978.23 255.96,-988.76 263.42,-981.23 257.09,-978.23"/>
</g>
<!-- PVQ&#45;&gt;AVF -->
<g id="edge41" class="edge">
<title>PVQ&#45;&gt;AVF</title>
<path fill="none" stroke="gray" stroke-width="5" d="M375.15,-667.9C366.36,-688.1 348.21,-710.5 348.21,-710.5 348.21,-710.5 294.24,-859.58 252.61,-969.58"/>
<polygon fill="gray" stroke="gray" stroke-width="5" points="248.63,-967.75 249.17,-978.65 256.81,-970.85 248.63,-967.75"/>
</g>
<!-- RIF&#45;&gt;AVF -->
<g id="edge42" class="edge">
<title>RIF&#45;&gt;AVF</title>
<path fill="none" stroke="gray" stroke-width="2" d="M375.15,-509.9C366.36,-530.1 348.21,-552.5 348.21,-552.5 348.21,-552.5 281.29,-811.31 239.01,-967.93"/>
<polygon fill="gray" stroke="gray" stroke-width="2" points="235.65,-966.94 236.42,-977.5 242.41,-968.77 235.65,-966.94"/>
</g>
<!-- RMG&#45;&gt;AVF -->
<g id="edge43" class="edge">
<title>RMG&#45;&gt;AVF</title>
<path fill="none" stroke="gray" stroke-width="0.2" d="M375.15,-351.9C366.36,-372.1 348.21,-394.5 348.21,-394.5 348.21,-394.5 272.24,-772.26 231.04,-968.75"/>
<polygon fill="gray" stroke="gray" stroke-width="0.2" points="227.68,-967.74 229.05,-978.24 234.53,-969.18 227.68,-967.74"/>
</g>
<!-- SIA&#45;&gt;AVF -->
<g id="edge44" class="edge">
<title>SIA&#45;&gt;AVF</title>
<path fill="none" stroke="gray" stroke-width="0.2" d="M375.15,-272.9C366.36,-293.1 348.21,-315.5 348.21,-315.5 348.21,-315.5 269.05,-752.85 228.52,-967.88"/>
<polygon fill="gray" stroke="gray" stroke-width="0.2" points="225.09,-967.17 226.68,-977.65 231.97,-968.47 225.09,-967.17"/>
</g>
<!-- SMB&#45;&gt;AVF -->
<g id="edge45" class="edge">
<title>SMB&#45;&gt;AVF</title>
<path fill="none" stroke="gray" stroke-width="0.2" d="M375.15,-193.9C366.36,-214.1 348.21,-236.5 348.21,-236.5 348.21,-236.5 266.12,-735.36 226.33,-967.79"/>
<polygon fill="gray" stroke="gray" stroke-width="0.2" points="222.94,-966.89 224.7,-977.34 229.84,-968.07 222.94,-966.89"/>
</g>
<!-- ASI -->
<g id="node33" class="node">
<title>ASI</title>
<ellipse fill="none" stroke="black" cx="30.11" cy="-1242" rx="27" ry="18"/>
<text text-anchor="middle" x="30.11" y="-1236.58" font-family="Times New Roman,serif" font-size="14.00">ASI</text>
</g>
<!-- ASI&#45;&gt;AVF -->
<g id="edge46" class="edge">
<title>ASI&#45;&gt;AVF</title>
<path fill="none" stroke="gray" stroke-width="0.2" d="M46.99,-1227.42C63.27,-1212.48 89.91,-1188.02 116.62,-1163.49"/>
<polygon fill="gray" stroke="gray" stroke-width="0.2" points="118.93,-1166.13 123.93,-1156.79 114.19,-1160.97 118.93,-1166.13"/>
</g>
<!-- OLQ -->
<g id="node34" class="node">
<title>OLQ</title>
<ellipse fill="none" stroke="black" cx="30.11" cy="-1163" rx="30.11" ry="18"/>
<text text-anchor="middle" x="30.11" y="-1157.58" font-family="Times New Roman,serif" font-size="14.00">OLQ</text>
</g>
<!-- OLQ&#45;&gt;AVF -->
<g id="edge47" class="edge">
<title>OLQ&#45;&gt;AVF</title>
<path fill="none" stroke="gray" stroke-width="0.2" d="M54.68,-1152.18C66.14,-1146.92 80.82,-1140.18 96.47,-1133"/>
<polygon fill="gray" stroke="gray" stroke-width="0.2" points="97.87,-1136.2 105.5,-1128.85 94.95,-1129.84 97.87,-1136.2"/>
</g>
<!-- PVP -->
<g id="node35" class="node">
<title>PVP</title>
<ellipse fill="none" stroke="black" cx="30.11" cy="-1084" rx="28.11" ry="18"/>
<text text-anchor="middle" x="30.11" y="-1078.58" font-family="Times New Roman,serif" font-size="14.00">PVP</text>
</g>
<!-- PVP&#45;&gt;AVF -->
<g id="edge48" class="edge">
<title>PVP&#45;&gt;AVF</title>
<path fill="none" stroke="gray" stroke-width="0.2" d="M58.38,-1084C66.41,-1084 75.75,-1084 85.75,-1084"/>
<polygon fill="gray" stroke="gray" stroke-width="0.2" points="85.64,-1087.5 95.64,-1084 85.64,-1080.5 85.64,-1087.5"/>
</g>
<!-- URX -->
<g id="node36" class="node">
<title>URX</title>
<ellipse fill="none" stroke="black" cx="30.11" cy="-1005" rx="30.11" ry="18"/>
<text text-anchor="middle" x="30.11" y="-999.58" font-family="Times New Roman,serif" font-size="14.00">URX</text>
</g>
<!-- URX&#45;&gt;AVF -->
<g id="edge49" class="edge">
<title>URX&#45;&gt;AVF</title>
<path fill="none" stroke="gray" stroke-width="nan" d="M54.68,-1015.82C68.39,-1022.12 86.71,-1030.52 105.78,-1039.28"/>
<polygon fill="gray" stroke="gray" stroke-width="nan" points="nan,-nan nan,-nan nan,-nan nan,-nan"/>
</g>
<!-- VBn -->
<g id="node37" class="node">
<title>VBn</title>
<ellipse fill="none" stroke="black" cx="30.11" cy="-926" rx="27.61" ry="18"/>
<text text-anchor="middle" x="30.11" y="-920.58" font-family="Times New Roman,serif" font-size="14.00">VBn</text>
</g>
<!-- VBn&#45;&gt;AVF -->
<g id="edge50" class="edge">
<title>VBn&#45;&gt;AVF</title>
<path fill="none" stroke="gray" stroke-width="2" d="M46.99,-940.58C62.85,-955.14 88.55,-978.74 114.57,-1002.62"/>
<polygon fill="gray" stroke="gray" stroke-width="2" points="112.18,-1005.18 121.92,-1009.37 116.92,-1000.03 112.18,-1005.18"/>
</g>
</g>
</svg>
