<?xml version="1.0" encoding="UTF-8" standalone="no"?>
<!DOCTYPE svg PUBLIC "-//W3C//DTD SVG 1.1//EN"
 "http://www.w3.org/Graphics/SVG/1.1/DTD/svg11.dtd">
<!-- Generated by graphviz version 11.0.0 (20240428.1522)
 -->
<!-- Pages: 1 -->
<svg width="418pt" height="2256pt"
 viewBox="0.00 0.00 418.42 2256.00" xmlns="http://www.w3.org/2000/svg" xmlns:xlink="http://www.w3.org/1999/xlink">
<g id="graph0" class="graph" transform="scale(1 1) rotate(0) translate(4 2252)">
<polygon fill="white" stroke="none" points="-4,4 -4,-2252 414.42,-2252 414.42,4 -4,4"/>
<!-- AVH -->
<g id="node1" class="node">
<title>AVH</title>
<ellipse fill="none" stroke="black" cx="202.22" cy="-1124" rx="108" ry="108"/>
<text text-anchor="middle" x="202.22" y="-1105" font-family="Times New Roman,serif" font-size="50.00">AVH</text>
</g>
<!-- AVH&#45;&gt;AVH -->
<g id="edge1" class="edge">
<title>AVH&#45;&gt;AVH</title>
<path fill="none" stroke="gray" stroke-width="0.2" d="M170.07,-1227.39C171.97,-1254.51 182.69,-1275 202.22,-1275 219.22,-1275 229.55,-1259.45 233.19,-1237.52"/>
<polygon fill="gray" stroke="gray" stroke-width="0.2" points="236.65,-1238.03 234.33,-1227.69 229.7,-1237.22 236.65,-1238.03"/>
</g>
<!-- ADF -->
<g id="node2" class="node">
<title>ADF</title>
<ellipse fill="none" stroke="black" cx="378.32" cy="-2230" rx="29.11" ry="18"/>
<text text-anchor="middle" x="378.32" y="-2224.57" font-family="Times New Roman,serif" font-size="14.00">ADF</text>
</g>
<!-- AVH&#45;&gt;ADF -->
<g id="edge2" class="edge">
<title>AVH&#45;&gt;ADF</title>
<path fill="none" stroke="red" stroke-width="5" d="M219,-1230.99C256.19,-1497.74 346.22,-2169.5 346.22,-2169.5 346.22,-2169.5 356.69,-2182.63 365.48,-2197.85"/>
<polygon fill="red" stroke="red" stroke-width="5" points="361.47,-2199.62 369.9,-2206.54 369.26,-2195.65 361.47,-2199.62"/>
</g>
<!-- ADL -->
<g id="node3" class="node">
<title>ADL</title>
<ellipse fill="none" stroke="black" cx="378.32" cy="-2151" rx="29.11" ry="18"/>
<text text-anchor="middle" x="378.32" y="-2145.57" font-family="Times New Roman,serif" font-size="14.00">ADL</text>
</g>
<!-- AVH&#45;&gt;ADL -->
<g id="edge3" class="edge">
<title>AVH&#45;&gt;ADL</title>
<path fill="none" stroke="red" stroke-width="2" d="M220.25,-1230.59C258.17,-1482.18 346.22,-2090.5 346.22,-2090.5 346.22,-2090.5 358.01,-2105.29 367.07,-2121.67"/>
<polygon fill="red" stroke="red" stroke-width="2" points="363.81,-2122.98 371.39,-2130.39 370.09,-2119.87 363.81,-2122.98"/>
</g>
<!-- AIA -->
<g id="node4" class="node">
<title>AIA</title>
<ellipse fill="none" stroke="black" cx="378.32" cy="-2072" rx="27" ry="18"/>
<text text-anchor="middle" x="378.32" y="-2066.57" font-family="Times New Roman,serif" font-size="14.00">AIA</text>
</g>
<!-- AVH&#45;&gt;AIA -->
<g id="edge4" class="edge">
<title>AVH&#45;&gt;AIA</title>
<path fill="none" stroke="gray" stroke-width="0.2" d="M220.04,-1230.95C257.84,-1471.23 346.22,-2033 346.22,-2033 346.22,-2033 351.87,-2040.09 358.35,-2048.22"/>
<polygon fill="gray" stroke="gray" stroke-width="0.2" points="355.51,-2050.26 364.48,-2055.9 360.98,-2045.9 355.51,-2050.26"/>
</g>
<!-- AIB -->
<g id="node5" class="node">
<title>AIB</title>
<ellipse fill="none" stroke="black" cx="378.32" cy="-1993" rx="27" ry="18"/>
<text text-anchor="middle" x="378.32" y="-1987.58" font-family="Times New Roman,serif" font-size="14.00">AIB</text>
</g>
<!-- AVH&#45;&gt;AIB -->
<g id="edge5" class="edge">
<title>AVH&#45;&gt;AIB</title>
<path fill="none" stroke="gray" stroke-width="0.2" d="M221.55,-1230.39C260.13,-1454.35 346.22,-1954 346.22,-1954 346.22,-1954 351.87,-1961.09 358.35,-1969.22"/>
<polygon fill="gray" stroke="gray" stroke-width="0.2" points="355.51,-1971.26 364.48,-1976.9 360.98,-1966.9 355.51,-1971.26"/>
</g>
<!-- AIN -->
<g id="node6" class="node">
<title>AIN</title>
<ellipse fill="none" stroke="black" cx="378.32" cy="-1914" rx="27" ry="18"/>
<text text-anchor="middle" x="378.32" y="-1908.58" font-family="Times New Roman,serif" font-size="14.00">AIN</text>
</g>
<!-- AVH&#45;&gt;AIN -->
<g id="edge6" class="edge">
<title>AVH&#45;&gt;AIN</title>
<path fill="none" stroke="gray" stroke-width="0.2" d="M223.4,-1230.01C262.82,-1437.02 346.22,-1875 346.22,-1875 346.22,-1875 351.87,-1882.09 358.35,-1890.22"/>
<polygon fill="gray" stroke="gray" stroke-width="0.2" points="355.51,-1892.26 364.48,-1897.9 360.98,-1887.9 355.51,-1892.26"/>
</g>
<!-- AQR -->
<g id="node7" class="node">
<title>AQR</title>
<ellipse fill="none" stroke="black" cx="378.32" cy="-1835" rx="30.61" ry="18"/>
<text text-anchor="middle" x="378.32" y="-1829.58" font-family="Times New Roman,serif" font-size="14.00">AQR</text>
</g>
<!-- AVH&#45;&gt;AQR -->
<g id="edge7" class="edge">
<title>AVH&#45;&gt;AQR</title>
<path fill="none" stroke="gray" stroke-width="0.2" d="M228.37,-1229.17C269.4,-1413.53 346.22,-1774.5 346.22,-1774.5 346.22,-1774.5 359.17,-1790.74 368.36,-1808.04"/>
<polygon fill="gray" stroke="gray" stroke-width="0.2" points="365.1,-1809.34 372.6,-1816.83 371.4,-1806.3 365.1,-1809.34"/>
</g>
<!-- ASH -->
<g id="node8" class="node">
<title>ASH</title>
<ellipse fill="none" stroke="black" cx="378.32" cy="-1756" rx="29.11" ry="18"/>
<text text-anchor="middle" x="378.32" y="-1750.58" font-family="Times New Roman,serif" font-size="14.00">ASH</text>
</g>
<!-- AVH&#45;&gt;ASH -->
<g id="edge8" class="edge">
<title>AVH&#45;&gt;ASH</title>
<path fill="none" stroke="red" stroke-width="0.2" d="M231.64,-1228.19C273.34,-1393.3 346.22,-1695.5 346.22,-1695.5 346.22,-1695.5 359.17,-1711.74 368.36,-1729.04"/>
<polygon fill="red" stroke="red" stroke-width="0.2" points="365.1,-1730.34 372.6,-1737.83 371.4,-1727.3 365.1,-1730.34"/>
</g>
<!-- ASK -->
<g id="node9" class="node">
<title>ASK</title>
<ellipse fill="none" stroke="black" cx="378.32" cy="-1677" rx="29.11" ry="18"/>
<text text-anchor="middle" x="378.32" y="-1671.58" font-family="Times New Roman,serif" font-size="14.00">ASK</text>
</g>
<!-- AVH&#45;&gt;ASK -->
<g id="edge9" class="edge">
<title>AVH&#45;&gt;ASK</title>
<path fill="none" stroke="gray" stroke-width="0.2" d="M232.15,-1228.02C273.94,-1378.21 346.22,-1638 346.22,-1638 346.22,-1638 351.87,-1645.09 358.35,-1653.22"/>
<polygon fill="gray" stroke="gray" stroke-width="0.2" points="355.51,-1655.26 364.48,-1660.9 360.98,-1650.9 355.51,-1655.26"/>
</g>
<!-- AVA -->
<g id="node10" class="node">
<title>AVA</title>
<ellipse fill="none" stroke="black" cx="378.32" cy="-1598" rx="30.11" ry="18"/>
<text text-anchor="middle" x="378.32" y="-1592.58" font-family="Times New Roman,serif" font-size="14.00">AVA</text>
</g>
<!-- AVH&#45;&gt;AVA -->
<g id="edge10" class="edge">
<title>AVH&#45;&gt;AVA</title>
<path fill="none" stroke="red" stroke-width="0.2" d="M236.92,-1226.54C279.2,-1355.14 346.22,-1559 346.22,-1559 346.22,-1559 351.6,-1565.75 357.89,-1573.63"/>
<polygon fill="red" stroke="red" stroke-width="0.2" points="355.15,-1575.81 364.12,-1581.45 360.62,-1571.45 355.15,-1575.81"/>
</g>
<!-- AVB -->
<g id="node11" class="node">
<title>AVB</title>
<ellipse fill="none" stroke="black" cx="378.32" cy="-1519" rx="29.61" ry="18"/>
<text text-anchor="middle" x="378.32" y="-1513.58" font-family="Times New Roman,serif" font-size="14.00">AVB</text>
</g>
<!-- AVH&#45;&gt;AVB -->
<g id="edge11" class="edge">
<title>AVH&#45;&gt;AVB</title>
<path fill="none" stroke="red" stroke-width="0.2" d="M243.43,-1224.11C285.73,-1329.41 346.22,-1480 346.22,-1480 346.22,-1480 351.6,-1486.75 357.89,-1494.63"/>
<polygon fill="red" stroke="red" stroke-width="0.2" points="355.15,-1496.81 364.12,-1502.45 360.62,-1492.45 355.15,-1496.81"/>
</g>
<!-- AVD -->
<g id="node12" class="node">
<title>AVD</title>
<ellipse fill="none" stroke="black" cx="378.32" cy="-1440" rx="30.11" ry="18"/>
<text text-anchor="middle" x="378.32" y="-1434.58" font-family="Times New Roman,serif" font-size="14.00">AVD</text>
</g>
<!-- AVH&#45;&gt;AVD -->
<g id="edge12" class="edge">
<title>AVH&#45;&gt;AVD</title>
<path fill="none" stroke="gray" stroke-width="0.2" d="M252.63,-1219.72C293.96,-1299.78 346.22,-1401 346.22,-1401 346.22,-1401 351.6,-1407.75 357.89,-1415.63"/>
<polygon fill="gray" stroke="gray" stroke-width="0.2" points="355.15,-1417.81 364.12,-1423.45 360.62,-1413.45 355.15,-1417.81"/>
</g>
<!-- AVJ -->
<g id="node13" class="node">
<title>AVJ</title>
<ellipse fill="none" stroke="black" cx="378.32" cy="-1361" rx="27.11" ry="18"/>
<text text-anchor="middle" x="378.32" y="-1355.58" font-family="Times New Roman,serif" font-size="14.00">AVJ</text>
</g>
<!-- AVH&#45;&gt;AVJ -->
<g id="edge13" class="edge">
<title>AVH&#45;&gt;AVJ</title>
<path fill="none" stroke="red" stroke-width="5" d="M274.93,-1204.46C310.61,-1251.19 346.22,-1300.5 346.22,-1300.5 346.22,-1300.5 356.69,-1313.63 365.48,-1328.85"/>
<polygon fill="red" stroke="red" stroke-width="5" points="361.47,-1330.62 369.9,-1337.54 369.26,-1326.65 361.47,-1330.62"/>
</g>
<!-- AVM -->
<g id="node14" class="node">
<title>AVM</title>
<ellipse fill="none" stroke="black" cx="378.32" cy="-1282" rx="31.6" ry="18"/>
<text text-anchor="middle" x="378.32" y="-1276.58" font-family="Times New Roman,serif" font-size="14.00">AVM</text>
</g>
<!-- AVH&#45;&gt;AVM -->
<g id="edge14" class="edge">
<title>AVH&#45;&gt;AVM</title>
<path fill="none" stroke="gray" stroke-width="0.2" d="M290.27,-1186.88C317.19,-1211.31 344.12,-1237.81 360.74,-1257"/>
<polygon fill="gray" stroke="gray" stroke-width="0.2" points="357.92,-1259.08 367.01,-1264.53 363.3,-1254.6 357.92,-1259.08"/>
</g>
<!-- AWB -->
<g id="node15" class="node">
<title>AWB</title>
<ellipse fill="none" stroke="black" cx="378.32" cy="-1203" rx="32.1" ry="18"/>
<text text-anchor="middle" x="378.32" y="-1197.58" font-family="Times New Roman,serif" font-size="14.00">AWB</text>
</g>
<!-- AVH&#45;&gt;AWB -->
<g id="edge15" class="edge">
<title>AVH&#45;&gt;AWB</title>
<path fill="none" stroke="red" stroke-width="2" d="M306,-1154.75C323.14,-1163.05 339.43,-1171.82 352.11,-1179.81"/>
<polygon fill="red" stroke="red" stroke-width="2" points="349.89,-1182.53 360.14,-1185.2 353.79,-1176.72 349.89,-1182.53"/>
</g>
<!-- BAG -->
<g id="node16" class="node">
<title>BAG</title>
<ellipse fill="none" stroke="black" cx="378.32" cy="-1124" rx="30.11" ry="18"/>
<text text-anchor="middle" x="378.32" y="-1118.58" font-family="Times New Roman,serif" font-size="14.00">BAG</text>
</g>
<!-- AVH&#45;&gt;BAG -->
<g id="edge16" class="edge">
<title>AVH&#45;&gt;BAG</title>
<path fill="none" stroke="gray" stroke-width="0.2" d="M310.5,-1124C320.05,-1124 329.25,-1124 337.61,-1124"/>
<polygon fill="gray" stroke="gray" stroke-width="0.2" points="337.42,-1127.5 347.42,-1124 337.42,-1120.5 337.42,-1127.5"/>
</g>
<!-- BDU -->
<g id="node17" class="node">
<title>BDU</title>
<ellipse fill="none" stroke="black" cx="378.32" cy="-1045" rx="29.61" ry="18"/>
<text text-anchor="middle" x="378.32" y="-1039.58" font-family="Times New Roman,serif" font-size="14.00">BDU</text>
</g>
<!-- AVH&#45;&gt;BDU -->
<g id="edge17" class="edge">
<title>AVH&#45;&gt;BDU</title>
<path fill="none" stroke="gray" stroke-width="0.2" d="M294.09,-1066.65C309.86,-1059.61 325.46,-1053.35 338.82,-1048.82"/>
<polygon fill="gray" stroke="gray" stroke-width="0.2" points="339.82,-1052.18 348.27,-1045.8 337.68,-1045.51 339.82,-1052.18"/>
</g>
<!-- DVA -->
<g id="node18" class="node">
<title>DVA</title>
<ellipse fill="none" stroke="black" cx="378.32" cy="-966" rx="30.11" ry="18"/>
<text text-anchor="middle" x="378.32" y="-960.58" font-family="Times New Roman,serif" font-size="14.00">DVA</text>
</g>
<!-- AVH&#45;&gt;DVA -->
<g id="edge18" class="edge">
<title>AVH&#45;&gt;DVA</title>
<path fill="none" stroke="red" stroke-width="2" d="M282.88,-1051.7C307.54,-1029.32 333.01,-1006.21 351.27,-989.64"/>
<polygon fill="red" stroke="red" stroke-width="2" points="353.58,-992.27 358.63,-982.96 348.87,-987.09 353.58,-992.27"/>
</g>
<!-- PVC -->
<g id="node19" class="node">
<title>PVC</title>
<ellipse fill="none" stroke="black" cx="378.32" cy="-887" rx="29.11" ry="18"/>
<text text-anchor="middle" x="378.32" y="-881.58" font-family="Times New Roman,serif" font-size="14.00">PVC</text>
</g>
<!-- AVH&#45;&gt;PVC -->
<g id="edge19" class="edge">
<title>AVH&#45;&gt;PVC</title>
<path fill="none" stroke="gray" stroke-width="0.2" d="M257.89,-1030.97C298.26,-970.9 346.22,-904.5 346.22,-904.5 346.22,-904.5 346.4,-904.27 346.73,-903.87"/>
<polygon fill="gray" stroke="gray" stroke-width="0.2" points="349.04,-906.54 352.92,-896.68 343.74,-901.97 349.04,-906.54"/>
</g>
<!-- PVP -->
<g id="node20" class="node">
<title>PVP</title>
<ellipse fill="none" stroke="black" cx="378.32" cy="-808" rx="28.11" ry="18"/>
<text text-anchor="middle" x="378.32" y="-802.58" font-family="Times New Roman,serif" font-size="14.00">PVP</text>
</g>
<!-- AVH&#45;&gt;PVP -->
<g id="edge20" class="edge">
<title>AVH&#45;&gt;PVP</title>
<path fill="none" stroke="red" stroke-width="5" d="M246.12,-1024.94C280.67,-953.46 325.89,-865.05 345.01,-830.95"/>
<polygon fill="red" stroke="red" stroke-width="5" points="348.73,-833.26 350.19,-822.44 341.25,-828.71 348.73,-833.26"/>
</g>
<!-- RIF -->
<g id="node21" class="node">
<title>RIF</title>
<ellipse fill="none" stroke="black" cx="378.32" cy="-729" rx="27" ry="18"/>
<text text-anchor="middle" x="378.32" y="-723.58" font-family="Times New Roman,serif" font-size="14.00">RIF</text>
</g>
<!-- AVH&#45;&gt;RIF -->
<g id="edge21" class="edge">
<title>AVH&#45;&gt;RIF</title>
<path fill="none" stroke="gray" stroke-width="0.2" d="M238.2,-1022.11C280.53,-910.02 346.22,-746.5 346.22,-746.5 346.22,-746.5 346.69,-745.91 347.51,-744.91"/>
<polygon fill="gray" stroke="gray" stroke-width="0.2" points="349.92,-747.48 353.87,-737.65 344.65,-742.87 349.92,-747.48"/>
</g>
<!-- RIG -->
<g id="node22" class="node">
<title>RIG</title>
<ellipse fill="none" stroke="black" cx="378.32" cy="-650" rx="27.11" ry="18"/>
<text text-anchor="middle" x="378.32" y="-644.58" font-family="Times New Roman,serif" font-size="14.00">RIG</text>
</g>
<!-- AVH&#45;&gt;RIG -->
<g id="edge22" class="edge">
<title>AVH&#45;&gt;RIG</title>
<path fill="none" stroke="gray" stroke-width="0.2" d="M236.92,-1021.46C279.2,-892.86 346.22,-689 346.22,-689 346.22,-689 351.87,-681.91 358.35,-673.78"/>
<polygon fill="gray" stroke="gray" stroke-width="0.2" points="360.98,-676.1 364.48,-666.1 355.51,-671.74 360.98,-676.1"/>
</g>
<!-- RIM -->
<g id="node23" class="node">
<title>RIM</title>
<ellipse fill="none" stroke="black" cx="378.32" cy="-571" rx="28.11" ry="18"/>
<text text-anchor="middle" x="378.32" y="-565.58" font-family="Times New Roman,serif" font-size="14.00">RIM</text>
</g>
<!-- AVH&#45;&gt;RIM -->
<g id="edge23" class="edge">
<title>AVH&#45;&gt;RIM</title>
<path fill="none" stroke="red" stroke-width="0.2" d="M232.15,-1019.98C273.94,-869.79 346.22,-610 346.22,-610 346.22,-610 351.87,-602.91 358.35,-594.78"/>
<polygon fill="red" stroke="red" stroke-width="0.2" points="360.98,-597.1 364.48,-587.1 355.51,-592.74 360.98,-597.1"/>
</g>
<!-- RIR -->
<g id="node24" class="node">
<title>RIR</title>
<ellipse fill="none" stroke="black" cx="378.32" cy="-492" rx="27" ry="18"/>
<text text-anchor="middle" x="378.32" y="-486.57" font-family="Times New Roman,serif" font-size="14.00">RIR</text>
</g>
<!-- AVH&#45;&gt;RIR -->
<g id="edge24" class="edge">
<title>AVH&#45;&gt;RIR</title>
<path fill="none" stroke="red" stroke-width="5" d="M225.72,-1018.23C261.35,-862.48 328.26,-584.1 348.64,-515.71"/>
<polygon fill="red" stroke="red" stroke-width="5" points="352.76,-517.18 351.98,-506.3 344.51,-514.26 352.76,-517.18"/>
</g>
<!-- RIV -->
<g id="node25" class="node">
<title>RIV</title>
<ellipse fill="none" stroke="black" cx="378.32" cy="-413" rx="27" ry="18"/>
<text text-anchor="middle" x="378.32" y="-407.57" font-family="Times New Roman,serif" font-size="14.00">RIV</text>
</g>
<!-- AVH&#45;&gt;RIV -->
<g id="edge25" class="edge">
<title>AVH&#45;&gt;RIV</title>
<path fill="none" stroke="gray" stroke-width="0.2" d="M225.72,-1018.26C265.99,-829.02 346.22,-452 346.22,-452 346.22,-452 351.87,-444.91 358.35,-436.78"/>
<polygon fill="gray" stroke="gray" stroke-width="0.2" points="360.98,-439.1 364.48,-429.1 355.51,-434.74 360.98,-439.1"/>
</g>
<!-- RMF -->
<g id="node26" class="node">
<title>RMF</title>
<ellipse fill="none" stroke="black" cx="378.32" cy="-334" rx="30.61" ry="18"/>
<text text-anchor="middle" x="378.32" y="-328.57" font-family="Times New Roman,serif" font-size="14.00">RMF</text>
</g>
<!-- AVH&#45;&gt;RMF -->
<g id="edge26" class="edge">
<title>AVH&#45;&gt;RMF</title>
<path fill="none" stroke="gray" stroke-width="0.2" d="M223.4,-1017.99C262.82,-810.98 346.22,-373 346.22,-373 346.22,-373 351.6,-366.25 357.89,-358.37"/>
<polygon fill="gray" stroke="gray" stroke-width="0.2" points="360.62,-360.55 364.12,-350.55 355.15,-356.19 360.62,-360.55"/>
</g>
<!-- SIA -->
<g id="node27" class="node">
<title>SIA</title>
<ellipse fill="none" stroke="black" cx="378.32" cy="-255" rx="27" ry="18"/>
<text text-anchor="middle" x="378.32" y="-249.57" font-family="Times New Roman,serif" font-size="14.00">SIA</text>
</g>
<!-- AVH&#45;&gt;SIA -->
<g id="edge27" class="edge">
<title>AVH&#45;&gt;SIA</title>
<path fill="none" stroke="gray" stroke-width="0.2" d="M221.55,-1017.61C260.13,-793.65 346.22,-294 346.22,-294 346.22,-294 351.87,-286.91 358.35,-278.78"/>
<polygon fill="gray" stroke="gray" stroke-width="0.2" points="360.98,-281.1 364.48,-271.1 355.51,-276.74 360.98,-281.1"/>
</g>
<!-- SMB -->
<g id="node28" class="node">
<title>SMB</title>
<ellipse fill="none" stroke="black" cx="378.32" cy="-176" rx="30.11" ry="18"/>
<text text-anchor="middle" x="378.32" y="-170.57" font-family="Times New Roman,serif" font-size="14.00">SMB</text>
</g>
<!-- AVH&#45;&gt;SMB -->
<g id="edge28" class="edge">
<title>AVH&#45;&gt;SMB</title>
<path fill="none" stroke="red" stroke-width="5" d="M218.38,-1017C251.84,-794.38 330.13,-295.85 349.03,-201.34"/>
<polygon fill="red" stroke="red" stroke-width="5" points="353.23,-202.6 351.34,-191.85 344.72,-200.53 353.23,-202.6"/>
</g>
<!-- SMD -->
<g id="node29" class="node">
<title>SMD</title>
<ellipse fill="none" stroke="black" cx="378.32" cy="-97" rx="30.61" ry="18"/>
<text text-anchor="middle" x="378.32" y="-91.58" font-family="Times New Roman,serif" font-size="14.00">SMD</text>
</g>
<!-- AVH&#45;&gt;SMD -->
<g id="edge29" class="edge">
<title>AVH&#45;&gt;SMD</title>
<path fill="none" stroke="gray" stroke-width="0.2" d="M218.72,-1016.86C255.74,-761.09 346.22,-136 346.22,-136 346.22,-136 351.6,-129.25 357.89,-121.37"/>
<polygon fill="gray" stroke="gray" stroke-width="0.2" points="360.62,-123.55 364.12,-113.55 355.15,-119.19 360.62,-123.55"/>
</g>
<!-- URX -->
<g id="node30" class="node">
<title>URX</title>
<ellipse fill="none" stroke="black" cx="378.32" cy="-18" rx="30.11" ry="18"/>
<text text-anchor="middle" x="378.32" y="-12.57" font-family="Times New Roman,serif" font-size="14.00">URX</text>
</g>
<!-- AVH&#45;&gt;URX -->
<g id="edge30" class="edge">
<title>AVH&#45;&gt;URX</title>
<path fill="none" stroke="gray" stroke-width="0.2" d="M216.29,-1016.56C249.31,-759.3 334.26,-124.73 350.48,-37.68"/>
<polygon fill="gray" stroke="gray" stroke-width="0.2" points="353.85,-38.62 352.74,-28.09 347.04,-37.02 353.85,-38.62"/>
</g>
<!-- ADF&#45;&gt;AVH -->
<g id="edge31" class="edge">
<title>ADF&#45;&gt;AVH</title>
<path fill="none" stroke="red" stroke-width="2" d="M353.12,-2220.55C349.1,-2216.12 346.22,-2212.5 346.22,-2212.5 346.22,-2212.5 254.43,-1527.63 217.93,-1244.22"/>
<polygon fill="red" stroke="red" stroke-width="2" points="221.42,-1243.92 216.67,-1234.45 214.48,-1244.81 221.42,-1243.92"/>
</g>
<!-- ADL&#45;&gt;AVH -->
<g id="edge32" class="edge">
<title>ADL&#45;&gt;AVH</title>
<path fill="none" stroke="gray" stroke-width="0.2" d="M353.12,-2141.55C349.1,-2137.12 346.22,-2133.5 346.22,-2133.5 346.22,-2133.5 255.63,-1507.62 218.65,-1241.31"/>
<polygon fill="gray" stroke="gray" stroke-width="0.2" points="222.14,-1240.94 217.3,-1231.52 215.2,-1241.91 222.14,-1240.94"/>
</g>
<!-- AQR&#45;&gt;AVH -->
<g id="edge33" class="edge">
<title>AQR&#45;&gt;AVH</title>
<path fill="none" stroke="gray" stroke-width="0.2" d="M352.51,-1824.87C348.82,-1820.76 346.22,-1817.5 346.22,-1817.5 346.22,-1817.5 265.46,-1438.01 225.32,-1240.26"/>
<polygon fill="gray" stroke="gray" stroke-width="0.2" points="228.8,-1239.81 223.39,-1230.7 221.94,-1241.2 228.8,-1239.81"/>
</g>
<!-- ASH&#45;&gt;AVH -->
<g id="edge34" class="edge">
<title>ASH&#45;&gt;AVH</title>
<path fill="none" stroke="red" stroke-width="2" d="M353.12,-1746.55C349.1,-1742.12 346.22,-1738.5 346.22,-1738.5 346.22,-1738.5 269.7,-1421.22 228.61,-1242.4"/>
<polygon fill="red" stroke="red" stroke-width="2" points="232.04,-1241.69 226.39,-1232.72 225.22,-1243.25 232.04,-1241.69"/>
</g>
<!-- AVJ&#45;&gt;AVH -->
<g id="edge35" class="edge">
<title>AVJ&#45;&gt;AVH</title>
<path fill="none" stroke="gray" stroke-width="0.2" d="M354.06,-1352.58C349.56,-1347.7 346.22,-1343.5 346.22,-1343.5 346.22,-1343.5 302.65,-1283.18 263.61,-1225.51"/>
<polygon fill="gray" stroke="gray" stroke-width="0.2" points="266.55,-1223.61 258.06,-1217.28 260.75,-1227.53 266.55,-1223.61"/>
</g>
<!-- AVM&#45;&gt;AVH -->
<g id="edge36" class="edge">
<title>AVM&#45;&gt;AVH</title>
<path fill="none" stroke="gray" stroke-width="0.2" d="M352.71,-1271.32C334.17,-1257.83 307.64,-1235.23 282.07,-1211.62"/>
<polygon fill="gray" stroke="gray" stroke-width="0.2" points="284.46,-1209.06 274.75,-1204.82 279.69,-1214.19 284.46,-1209.06"/>
</g>
<!-- AWB&#45;&gt;AVH -->
<g id="edge37" class="edge">
<title>AWB&#45;&gt;AVH</title>
<path fill="none" stroke="gray" stroke-width="0.2" d="M345.87,-1201.47C333.54,-1197.65 318.66,-1191.97 303.23,-1185.35"/>
<polygon fill="gray" stroke="gray" stroke-width="0.2" points="304.93,-1182.27 294.37,-1181.47 302.13,-1188.68 304.93,-1182.27"/>
</g>
<!-- BDU&#45;&gt;AVH -->
<g id="edge38" class="edge">
<title>BDU&#45;&gt;AVH</title>
<path fill="none" stroke="gray" stroke-width="2" d="M363.17,-1060.73C352.16,-1068.79 335.73,-1078.27 317.53,-1087.53"/>
<polygon fill="gray" stroke="gray" stroke-width="2" points="316.12,-1084.32 308.71,-1091.9 319.23,-1090.59 316.12,-1084.32"/>
</g>
<!-- PVC&#45;&gt;AVH -->
<g id="edge39" class="edge">
<title>PVC&#45;&gt;AVH</title>
<path fill="none" stroke="gray" stroke-width="0.2" d="M372.73,-904.9C364.08,-925.1 346.22,-947.5 346.22,-947.5 346.22,-947.5 314.53,-991.38 280.98,-1035.58"/>
<polygon fill="gray" stroke="gray" stroke-width="0.2" points="278.38,-1033.22 275.11,-1043.3 283.95,-1037.46 278.38,-1033.22"/>
</g>
<!-- PVP&#45;&gt;AVH -->
<g id="edge40" class="edge">
<title>PVP&#45;&gt;AVH</title>
<path fill="none" stroke="red" stroke-width="5" d="M372.73,-825.9C364.08,-846.1 346.22,-868.5 346.22,-868.5 346.22,-868.5 305.34,-947.69 267.29,-1018.1"/>
<polygon fill="red" stroke="red" stroke-width="5" points="263.63,-1015.67 262.71,-1026.55 271.32,-1019.85 263.63,-1015.67"/>
</g>
<!-- RIF&#45;&gt;AVH -->
<g id="edge41" class="edge">
<title>RIF&#45;&gt;AVH</title>
<path fill="none" stroke="red" stroke-width="2" d="M372.73,-746.9C364.08,-767.1 346.22,-789.5 346.22,-789.5 346.22,-789.5 295.12,-916.71 254.01,-1014.45"/>
<polygon fill="red" stroke="red" stroke-width="2" points="250.89,-1012.85 250.23,-1023.43 257.34,-1015.57 250.89,-1012.85"/>
</g>
<!-- RIR&#45;&gt;AVH -->
<g id="edge42" class="edge">
<title>RIR&#45;&gt;AVH</title>
<path fill="none" stroke="gray" stroke-width="nan" d="M372.73,-509.9C364.08,-530.1 346.22,-552.5 346.22,-552.5 346.22,-552.5 273.34,-854.7 231.64,-1019.81"/>
<polygon fill="gray" stroke="gray" stroke-width="nan" points="nan,-nan nan,-nan nan,-nan nan,-nan"/>
</g>
<!-- SMB&#45;&gt;AVH -->
<g id="edge43" class="edge">
<title>SMB&#45;&gt;AVH</title>
<path fill="none" stroke="gray" stroke-width="0.2" d="M372.73,-193.9C364.08,-214.1 346.22,-236.5 346.22,-236.5 346.22,-236.5 262.79,-766.84 223.38,-1007.76"/>
<polygon fill="gray" stroke="gray" stroke-width="0.2" points="219.98,-1006.88 221.81,-1017.31 226.88,-1008.01 219.98,-1006.88"/>
</g>
<!-- URX&#45;&gt;AVH -->
<g id="edge44" class="edge">
<title>URX&#45;&gt;AVH</title>
<path fill="none" stroke="gray" stroke-width="0.2" d="M372.73,-35.9C364.08,-56.1 346.22,-78.5 346.22,-78.5 346.22,-78.5 258.37,-733.96 220.38,-1007.06"/>
<polygon fill="gray" stroke="gray" stroke-width="0.2" points="216.95,-1006.32 219.04,-1016.71 223.89,-1007.29 216.95,-1006.32"/>
</g>
<!-- ADE -->
<g id="node31" class="node">
<title>ADE</title>
<ellipse fill="none" stroke="black" cx="29.11" cy="-1243" rx="29.11" ry="18"/>
<text text-anchor="middle" x="29.11" y="-1237.58" font-family="Times New Roman,serif" font-size="14.00">ADE</text>
</g>
<!-- ADE&#45;&gt;AVH -->
<g id="edge45" class="edge">
<title>ADE&#45;&gt;AVH</title>
<path fill="none" stroke="gray" stroke-width="0.2" d="M49.4,-1229.58C63.45,-1219.81 83.63,-1205.78 104.71,-1191.12"/>
<polygon fill="gray" stroke="gray" stroke-width="0.2" points="106.68,-1194.01 112.89,-1185.43 102.68,-1188.26 106.68,-1194.01"/>
</g>
<!-- AIM -->
<g id="node32" class="node">
<title>AIM</title>
<ellipse fill="none" stroke="black" cx="29.11" cy="-1164" rx="28.11" ry="18"/>
<text text-anchor="middle" x="29.11" y="-1158.58" font-family="Times New Roman,serif" font-size="14.00">AIM</text>
</g>
<!-- AIM&#45;&gt;AVH -->
<g id="edge46" class="edge">
<title>AIM&#45;&gt;AVH</title>
<path fill="none" stroke="gray" stroke-width="0.2" d="M56.1,-1157.92C65.01,-1155.84 75.63,-1153.36 87.02,-1150.7"/>
<polygon fill="gray" stroke="gray" stroke-width="0.2" points="87.51,-1154.18 96.45,-1148.49 85.91,-1147.36 87.51,-1154.18"/>
</g>
<!-- AVF -->
<g id="node33" class="node">
<title>AVF</title>
<ellipse fill="none" stroke="black" cx="29.11" cy="-1085" rx="29.11" ry="18"/>
<text text-anchor="middle" x="29.11" y="-1079.58" font-family="Times New Roman,serif" font-size="14.00">AVF</text>
</g>
<!-- AVF&#45;&gt;AVH -->
<g id="edge47" class="edge">
<title>AVF&#45;&gt;AVH</title>
<path fill="none" stroke="gray" stroke-width="0.2" d="M56.84,-1091.09C65.49,-1093.07 75.7,-1095.39 86.62,-1097.88"/>
<polygon fill="gray" stroke="gray" stroke-width="0.2" points="85.56,-1101.23 96.09,-1100.04 87.12,-1094.4 85.56,-1101.23"/>
</g>
<!-- HSN -->
<g id="node34" class="node">
<title>HSN</title>
<ellipse fill="none" stroke="black" cx="29.11" cy="-1006" rx="29.11" ry="18"/>
<text text-anchor="middle" x="29.11" y="-1000.58" font-family="Times New Roman,serif" font-size="14.00">HSN</text>
</g>
<!-- HSN&#45;&gt;AVH -->
<g id="edge48" class="edge">
<title>HSN&#45;&gt;AVH</title>
<path fill="none" stroke="red" stroke-width="2" d="M49.4,-1019.31C62.88,-1028.6 81.99,-1041.78 102.14,-1055.67"/>
<polygon fill="red" stroke="red" stroke-width="2" points="100.03,-1058.47 110.25,-1061.27 104,-1052.71 100.03,-1058.47"/>
</g>
</g>
</svg>
