<?xml version="1.0" encoding="UTF-8" standalone="no"?>
<!DOCTYPE svg PUBLIC "-//W3C//DTD SVG 1.1//EN"
 "http://www.w3.org/Graphics/SVG/1.1/DTD/svg11.dtd">
<!-- Generated by graphviz version 11.0.0 (20240428.1522)
 -->
<!-- Pages: 1 -->
<svg width="423pt" height="2019pt"
 viewBox="0.00 0.00 423.41 2019.00" xmlns="http://www.w3.org/2000/svg" xmlns:xlink="http://www.w3.org/1999/xlink">
<g id="graph0" class="graph" transform="scale(1 1) rotate(0) translate(4 2015)">
<polygon fill="white" stroke="none" points="-4,4 -4,-2015 419.41,-2015 419.41,4 -4,4"/>
<!-- AVJ -->
<g id="node1" class="node">
<title>AVJ</title>
<ellipse fill="none" stroke="black" cx="208.2" cy="-1005" rx="108" ry="108"/>
<text text-anchor="middle" x="208.2" y="-986" font-family="Times New Roman,serif" font-size="50.00">AVJ</text>
</g>
<!-- AVJ&#45;&gt;AVJ -->
<g id="edge1" class="edge">
<title>AVJ&#45;&gt;AVJ</title>
<path fill="none" stroke="gray" stroke-width="0.2" d="M175.59,-1108.39C177.53,-1135.51 188.4,-1156 208.2,-1156 225.46,-1156 235.93,-1140.45 239.62,-1118.52"/>
<polygon fill="gray" stroke="gray" stroke-width="0.2" points="243.09,-1119.04 240.78,-1108.69 236.13,-1118.22 243.09,-1119.04"/>
</g>
<!-- ADA -->
<g id="node2" class="node">
<title>ADA</title>
<ellipse fill="none" stroke="black" cx="383.81" cy="-1993" rx="30.11" ry="18"/>
<text text-anchor="middle" x="383.81" y="-1987.58" font-family="Times New Roman,serif" font-size="14.00">ADA</text>
</g>
<!-- AVJ&#45;&gt;ADA -->
<g id="edge2" class="edge">
<title>AVJ&#45;&gt;ADA</title>
<path fill="none" stroke="gray" stroke-width="0.2" d="M226.95,-1111.49C265.25,-1355.45 352.2,-1932.5 352.2,-1932.5 352.2,-1932.5 364.95,-1948.74 373.99,-1966.04"/>
<polygon fill="gray" stroke="gray" stroke-width="0.2" points="370.71,-1967.3 378.16,-1974.83 377.03,-1964.29 370.71,-1967.3"/>
</g>
<!-- ADL -->
<g id="node3" class="node">
<title>ADL</title>
<ellipse fill="none" stroke="black" cx="383.81" cy="-1914" rx="29.11" ry="18"/>
<text text-anchor="middle" x="383.81" y="-1908.58" font-family="Times New Roman,serif" font-size="14.00">ADL</text>
</g>
<!-- AVJ&#45;&gt;ADL -->
<g id="edge3" class="edge">
<title>AVJ&#45;&gt;ADL</title>
<path fill="none" stroke="gray" stroke-width="0.2" d="M228.64,-1111.5C267.74,-1339.61 352.2,-1853.5 352.2,-1853.5 352.2,-1853.5 364.95,-1869.74 373.99,-1887.04"/>
<polygon fill="gray" stroke="gray" stroke-width="0.2" points="370.71,-1888.3 378.16,-1895.83 377.03,-1885.29 370.71,-1888.3"/>
</g>
<!-- AIN -->
<g id="node4" class="node">
<title>AIN</title>
<ellipse fill="none" stroke="black" cx="383.81" cy="-1835" rx="27" ry="18"/>
<text text-anchor="middle" x="383.81" y="-1829.58" font-family="Times New Roman,serif" font-size="14.00">AIN</text>
</g>
<!-- AVJ&#45;&gt;AIN -->
<g id="edge4" class="edge">
<title>AVJ&#45;&gt;AIN</title>
<path fill="none" stroke="gray" stroke-width="0.2" d="M228.42,-1111.27C267.42,-1326.99 352.2,-1796 352.2,-1796 352.2,-1796 357.76,-1803.09 364.15,-1811.22"/>
<polygon fill="gray" stroke="gray" stroke-width="0.2" points="361.25,-1813.19 370.17,-1818.9 366.75,-1808.87 361.25,-1813.19"/>
</g>
<!-- AIY -->
<g id="node5" class="node">
<title>AIY</title>
<ellipse fill="none" stroke="black" cx="383.81" cy="-1756" rx="27" ry="18"/>
<text text-anchor="middle" x="383.81" y="-1750.58" font-family="Times New Roman,serif" font-size="14.00">AIY</text>
</g>
<!-- AVJ&#45;&gt;AIY -->
<g id="edge5" class="edge">
<title>AVJ&#45;&gt;AIY</title>
<path fill="none" stroke="gray" stroke-width="0.2" d="M230.46,-1110.82C270.29,-1309.17 352.2,-1717 352.2,-1717 352.2,-1717 357.76,-1724.09 364.15,-1732.22"/>
<polygon fill="gray" stroke="gray" stroke-width="0.2" points="361.25,-1734.19 370.17,-1739.9 366.75,-1729.87 361.25,-1734.19"/>
</g>
<!-- ALM -->
<g id="node6" class="node">
<title>ALM</title>
<ellipse fill="none" stroke="black" cx="383.81" cy="-1677" rx="30.61" ry="18"/>
<text text-anchor="middle" x="383.81" y="-1671.58" font-family="Times New Roman,serif" font-size="14.00">ALM</text>
</g>
<!-- AVJ&#45;&gt;ALM -->
<g id="edge6" class="edge">
<title>AVJ&#45;&gt;ALM</title>
<path fill="none" stroke="gray" stroke-width="0.2" d="M235.85,-1109.61C277.22,-1284.59 352.2,-1616.5 352.2,-1616.5 352.2,-1616.5 364.95,-1632.74 373.99,-1650.04"/>
<polygon fill="gray" stroke="gray" stroke-width="0.2" points="370.71,-1651.3 378.16,-1658.83 377.03,-1648.29 370.71,-1651.3"/>
</g>
<!-- AQR -->
<g id="node7" class="node">
<title>AQR</title>
<ellipse fill="none" stroke="black" cx="383.81" cy="-1598" rx="30.61" ry="18"/>
<text text-anchor="middle" x="383.81" y="-1592.58" font-family="Times New Roman,serif" font-size="14.00">AQR</text>
</g>
<!-- AVJ&#45;&gt;AQR -->
<g id="edge7" class="edge">
<title>AVJ&#45;&gt;AQR</title>
<path fill="none" stroke="gray" stroke-width="0.2" d="M239.62,-1108.79C281.61,-1263.99 352.2,-1537.5 352.2,-1537.5 352.2,-1537.5 364.95,-1553.74 373.99,-1571.04"/>
<polygon fill="gray" stroke="gray" stroke-width="0.2" points="370.71,-1572.3 378.16,-1579.83 377.03,-1569.29 370.71,-1572.3"/>
</g>
<!-- ASH -->
<g id="node8" class="node">
<title>ASH</title>
<ellipse fill="none" stroke="black" cx="383.81" cy="-1519" rx="29.11" ry="18"/>
<text text-anchor="middle" x="383.81" y="-1513.58" font-family="Times New Roman,serif" font-size="14.00">ASH</text>
</g>
<!-- AVJ&#45;&gt;ASH -->
<g id="edge8" class="edge">
<title>AVJ&#45;&gt;ASH</title>
<path fill="none" stroke="gray" stroke-width="0.2" d="M244.46,-1107.26C286.8,-1241.26 352.2,-1458.5 352.2,-1458.5 352.2,-1458.5 364.95,-1474.74 373.99,-1492.04"/>
<polygon fill="gray" stroke="gray" stroke-width="0.2" points="370.71,-1493.3 378.16,-1500.83 377.03,-1490.29 370.71,-1493.3"/>
</g>
<!-- ASK -->
<g id="node9" class="node">
<title>ASK</title>
<ellipse fill="none" stroke="black" cx="383.81" cy="-1440" rx="29.11" ry="18"/>
<text text-anchor="middle" x="383.81" y="-1434.58" font-family="Times New Roman,serif" font-size="14.00">ASK</text>
</g>
<!-- AVJ&#45;&gt;ASK -->
<g id="edge9" class="edge">
<title>AVJ&#45;&gt;ASK</title>
<path fill="none" stroke="gray" stroke-width="0.2" d="M250.85,-1104.56C293.07,-1215.74 352.2,-1379.5 352.2,-1379.5 352.2,-1379.5 364.95,-1395.74 373.99,-1413.04"/>
<polygon fill="gray" stroke="gray" stroke-width="0.2" points="370.71,-1414.3 378.16,-1421.83 377.03,-1411.29 370.71,-1414.3"/>
</g>
<!-- AVA -->
<g id="node10" class="node">
<title>AVA</title>
<ellipse fill="none" stroke="black" cx="383.81" cy="-1361" rx="30.11" ry="18"/>
<text text-anchor="middle" x="383.81" y="-1355.58" font-family="Times New Roman,serif" font-size="14.00">AVA</text>
</g>
<!-- AVJ&#45;&gt;AVA -->
<g id="edge10" class="edge">
<title>AVJ&#45;&gt;AVA</title>
<path fill="none" stroke="red" stroke-width="0.2" d="M253.47,-1103.13C295.47,-1196.23 352.2,-1322 352.2,-1322 352.2,-1322 357.5,-1328.75 363.69,-1336.63"/>
<polygon fill="red" stroke="red" stroke-width="0.2" points="360.89,-1338.74 369.82,-1344.45 366.4,-1334.42 360.89,-1338.74"/>
</g>
<!-- AVB -->
<g id="node11" class="node">
<title>AVB</title>
<ellipse fill="none" stroke="black" cx="383.81" cy="-1282" rx="29.61" ry="18"/>
<text text-anchor="middle" x="383.81" y="-1276.58" font-family="Times New Roman,serif" font-size="14.00">AVB</text>
</g>
<!-- AVJ&#45;&gt;AVB -->
<g id="edge11" class="edge">
<title>AVJ&#45;&gt;AVB</title>
<path fill="none" stroke="black" stroke-width="5" d="M272.55,-1092.28C310.8,-1152.59 352.2,-1221.5 352.2,-1221.5 352.2,-1221.5 362.51,-1234.63 371.16,-1249.85"/>
<polygon fill="black" stroke="black" stroke-width="5" points="367.11,-1251.54 375.5,-1258.53 374.93,-1247.62 367.11,-1251.54"/>
</g>
<!-- AVD -->
<g id="node12" class="node">
<title>AVD</title>
<ellipse fill="none" stroke="black" cx="383.81" cy="-1203" rx="30.11" ry="18"/>
<text text-anchor="middle" x="383.81" y="-1197.58" font-family="Times New Roman,serif" font-size="14.00">AVD</text>
</g>
<!-- AVJ&#45;&gt;AVD -->
<g id="edge12" class="edge">
<title>AVJ&#45;&gt;AVD</title>
<path fill="none" stroke="gray" stroke-width="2" d="M287.63,-1078.38C317.53,-1112.01 348.76,-1149.73 366.97,-1175.16"/>
<polygon fill="gray" stroke="gray" stroke-width="2" points="363.88,-1176.85 372.44,-1183.1 369.65,-1172.88 363.88,-1176.85"/>
</g>
<!-- AVE -->
<g id="node13" class="node">
<title>AVE</title>
<ellipse fill="none" stroke="black" cx="383.81" cy="-1124" rx="29.11" ry="18"/>
<text text-anchor="middle" x="383.81" y="-1118.58" font-family="Times New Roman,serif" font-size="14.00">AVE</text>
</g>
<!-- AVJ&#45;&gt;AVE -->
<g id="edge13" class="edge">
<title>AVJ&#45;&gt;AVE</title>
<path fill="none" stroke="blue" stroke-width="2" d="M297.79,-1065.72C317.7,-1079.37 337.48,-1092.93 352.95,-1103.53"/>
<polygon fill="blue" stroke="blue" stroke-width="2" points="350.67,-1106.21 360.89,-1108.98 354.62,-1100.44 350.67,-1106.21"/>
</g>
<!-- AVH -->
<g id="node14" class="node">
<title>AVH</title>
<ellipse fill="none" stroke="black" cx="383.81" cy="-1045" rx="30.11" ry="18"/>
<text text-anchor="middle" x="383.81" y="-1039.58" font-family="Times New Roman,serif" font-size="14.00">AVH</text>
</g>
<!-- AVJ&#45;&gt;AVH -->
<g id="edge14" class="edge">
<title>AVJ&#45;&gt;AVH</title>
<path fill="none" stroke="gray" stroke-width="0.2" d="M316.18,-1013.92C330.61,-1017.81 344.25,-1022.15 355.38,-1026.54"/>
<polygon fill="gray" stroke="gray" stroke-width="0.2" points="354,-1029.75 364.57,-1030.45 356.74,-1023.31 354,-1029.75"/>
</g>
<!-- AVM -->
<g id="node15" class="node">
<title>AVM</title>
<ellipse fill="none" stroke="black" cx="383.81" cy="-966" rx="31.6" ry="18"/>
<text text-anchor="middle" x="383.81" y="-960.58" font-family="Times New Roman,serif" font-size="14.00">AVM</text>
</g>
<!-- AVJ&#45;&gt;AVM -->
<g id="edge15" class="edge">
<title>AVJ&#45;&gt;AVM</title>
<path fill="none" stroke="red" stroke-width="0.2" d="M309.44,-966.53C321.38,-964.16 332.97,-962.28 343.28,-961.1"/>
<polygon fill="red" stroke="red" stroke-width="0.2" points="343.59,-964.59 353.22,-960.17 342.94,-957.62 343.59,-964.59"/>
</g>
<!-- DVA -->
<g id="node16" class="node">
<title>DVA</title>
<ellipse fill="none" stroke="black" cx="383.81" cy="-887" rx="30.11" ry="18"/>
<text text-anchor="middle" x="383.81" y="-881.58" font-family="Times New Roman,serif" font-size="14.00">DVA</text>
</g>
<!-- AVJ&#45;&gt;DVA -->
<g id="edge16" class="edge">
<title>AVJ&#45;&gt;DVA</title>
<path fill="none" stroke="gray" stroke-width="0.2" d="M298.04,-944.62C318.73,-930.55 339.27,-916.59 354.95,-905.93"/>
<polygon fill="gray" stroke="gray" stroke-width="0.2" points="356.58,-909.06 362.88,-900.54 352.64,-903.27 356.58,-909.06"/>
</g>
<!-- FLP -->
<g id="node17" class="node">
<title>FLP</title>
<ellipse fill="none" stroke="black" cx="383.81" cy="-808" rx="27.11" ry="18"/>
<text text-anchor="middle" x="383.81" y="-802.58" font-family="Times New Roman,serif" font-size="14.00">FLP</text>
</g>
<!-- AVJ&#45;&gt;FLP -->
<g id="edge17" class="edge">
<title>AVJ&#45;&gt;FLP</title>
<path fill="none" stroke="gray" stroke-width="0.2" d="M272.37,-917.74C300.99,-883.92 333.32,-848.39 355.57,-826.8"/>
<polygon fill="gray" stroke="gray" stroke-width="0.2" points="357.91,-829.4 362.77,-819.98 353.1,-824.31 357.91,-829.4"/>
</g>
<!-- OLQ -->
<g id="node18" class="node">
<title>OLQ</title>
<ellipse fill="none" stroke="black" cx="383.81" cy="-729" rx="30.11" ry="18"/>
<text text-anchor="middle" x="383.81" y="-723.58" font-family="Times New Roman,serif" font-size="14.00">OLQ</text>
</g>
<!-- AVJ&#45;&gt;OLQ -->
<g id="edge18" class="edge">
<title>AVJ&#45;&gt;OLQ</title>
<path fill="none" stroke="gray" stroke-width="0.2" d="M257.62,-908.47C299.1,-835.14 352.2,-747.5 352.2,-747.5 352.2,-747.5 352.38,-747.27 352.71,-746.85"/>
<polygon fill="gray" stroke="gray" stroke-width="0.2" points="355.14,-749.4 358.8,-739.46 349.74,-744.95 355.14,-749.4"/>
</g>
<!-- PVC -->
<g id="node19" class="node">
<title>PVC</title>
<ellipse fill="none" stroke="black" cx="383.81" cy="-650" rx="29.11" ry="18"/>
<text text-anchor="middle" x="383.81" y="-644.58" font-family="Times New Roman,serif" font-size="14.00">PVC</text>
</g>
<!-- AVJ&#45;&gt;PVC -->
<g id="edge19" class="edge">
<title>AVJ&#45;&gt;PVC</title>
<path fill="none" stroke="black" stroke-width="2" d="M247.9,-904.39C284.13,-819.34 334.71,-707.17 353.01,-671.13"/>
<polygon fill="black" stroke="black" stroke-width="2" points="356,-672.96 357.82,-662.52 349.89,-669.54 356,-672.96"/>
</g>
<!-- PVN -->
<g id="node20" class="node">
<title>PVN</title>
<ellipse fill="none" stroke="black" cx="383.81" cy="-571" rx="29.11" ry="18"/>
<text text-anchor="middle" x="383.81" y="-565.58" font-family="Times New Roman,serif" font-size="14.00">PVN</text>
</g>
<!-- AVJ&#45;&gt;PVN -->
<g id="edge20" class="edge">
<title>AVJ&#45;&gt;PVN</title>
<path fill="none" stroke="gray" stroke-width="0.2" d="M241.39,-901.98C283.55,-778.65 352.2,-589.5 352.2,-589.5 352.2,-589.5 352.39,-589.26 352.74,-588.82"/>
<polygon fill="gray" stroke="gray" stroke-width="0.2" points="355.43,-591.05 359.11,-581.11 350.04,-586.59 355.43,-591.05"/>
</g>
<!-- PVP -->
<g id="node21" class="node">
<title>PVP</title>
<ellipse fill="none" stroke="black" cx="383.81" cy="-492" rx="28.11" ry="18"/>
<text text-anchor="middle" x="383.81" y="-486.57" font-family="Times New Roman,serif" font-size="14.00">PVP</text>
</g>
<!-- AVJ&#45;&gt;PVP -->
<g id="edge21" class="edge">
<title>AVJ&#45;&gt;PVP</title>
<path fill="none" stroke="gray" stroke-width="2" d="M236.69,-900.58C273.44,-771.94 335.59,-565.57 354.55,-513.5"/>
<polygon fill="gray" stroke="gray" stroke-width="2" points="357.77,-514.89 358.43,-504.31 351.32,-512.16 357.77,-514.89"/>
</g>
<!-- RID -->
<g id="node22" class="node">
<title>RID</title>
<ellipse fill="none" stroke="black" cx="383.81" cy="-413" rx="27" ry="18"/>
<text text-anchor="middle" x="383.81" y="-407.57" font-family="Times New Roman,serif" font-size="14.00">RID</text>
</g>
<!-- AVJ&#45;&gt;RID -->
<g id="edge22" class="edge">
<title>AVJ&#45;&gt;RID</title>
<path fill="none" stroke="gray" stroke-width="0.2" d="M236.27,-900.33C277.73,-740.01 352.2,-452 352.2,-452 352.2,-452 357.76,-444.91 364.15,-436.78"/>
<polygon fill="gray" stroke="gray" stroke-width="0.2" points="366.75,-439.13 370.17,-429.1 361.25,-434.81 366.75,-439.13"/>
</g>
<!-- RIF -->
<g id="node23" class="node">
<title>RIF</title>
<ellipse fill="none" stroke="black" cx="383.81" cy="-334" rx="27" ry="18"/>
<text text-anchor="middle" x="383.81" y="-328.57" font-family="Times New Roman,serif" font-size="14.00">RIF</text>
</g>
<!-- AVJ&#45;&gt;RIF -->
<g id="edge23" class="edge">
<title>AVJ&#45;&gt;RIF</title>
<path fill="none" stroke="gray" stroke-width="0.2" d="M230.46,-898.89C270.29,-713.51 352.2,-351.5 352.2,-351.5 352.2,-351.5 352.51,-351.11 353.06,-350.43"/>
<polygon fill="gray" stroke="gray" stroke-width="0.2" points="355.58,-352.87 359.42,-343 350.26,-348.32 355.58,-352.87"/>
</g>
<!-- RIM -->
<g id="node24" class="node">
<title>RIM</title>
<ellipse fill="none" stroke="black" cx="383.81" cy="-255" rx="28.11" ry="18"/>
<text text-anchor="middle" x="383.81" y="-249.57" font-family="Times New Roman,serif" font-size="14.00">RIM</text>
</g>
<!-- AVJ&#45;&gt;RIM -->
<g id="edge24" class="edge">
<title>AVJ&#45;&gt;RIM</title>
<path fill="none" stroke="gray" stroke-width="2" d="M228.27,-898.57C263.63,-713.82 336.99,-348.25 355.47,-276.4"/>
<polygon fill="gray" stroke="gray" stroke-width="2" points="358.77,-277.59 358.4,-267 352.09,-275.51 358.77,-277.59"/>
</g>
<!-- RIS -->
<g id="node25" class="node">
<title>RIS</title>
<ellipse fill="none" stroke="black" cx="383.81" cy="-176" rx="27" ry="18"/>
<text text-anchor="middle" x="383.81" y="-170.57" font-family="Times New Roman,serif" font-size="14.00">RIS</text>
</g>
<!-- AVJ&#45;&gt;RIS -->
<g id="edge25" class="edge">
<title>AVJ&#45;&gt;RIS</title>
<path fill="none" stroke="red" stroke-width="0.2" d="M228.49,-898.46C267.52,-682.82 352.2,-215 352.2,-215 352.2,-215 357.76,-207.91 364.15,-199.78"/>
<polygon fill="red" stroke="red" stroke-width="0.2" points="366.75,-202.13 370.17,-192.1 361.25,-197.81 366.75,-202.13"/>
</g>
<!-- SIB -->
<g id="node26" class="node">
<title>SIB</title>
<ellipse fill="none" stroke="black" cx="383.81" cy="-97" rx="27" ry="18"/>
<text text-anchor="middle" x="383.81" y="-91.58" font-family="Times New Roman,serif" font-size="14.00">SIB</text>
</g>
<!-- AVJ&#45;&gt;SIB -->
<g id="edge26" class="edge">
<title>AVJ&#45;&gt;SIB</title>
<path fill="none" stroke="gray" stroke-width="0.2" d="M226.74,-898.44C264.92,-666.4 352.2,-136 352.2,-136 352.2,-136 357.76,-128.91 364.15,-120.78"/>
<polygon fill="gray" stroke="gray" stroke-width="0.2" points="366.75,-123.13 370.17,-113.1 361.25,-118.81 366.75,-123.13"/>
</g>
<!-- URY -->
<g id="node27" class="node">
<title>URY</title>
<ellipse fill="none" stroke="black" cx="383.81" cy="-18" rx="30.11" ry="18"/>
<text text-anchor="middle" x="383.81" y="-12.57" font-family="Times New Roman,serif" font-size="14.00">URY</text>
</g>
<!-- AVJ&#45;&gt;URY -->
<g id="edge27" class="edge">
<title>AVJ&#45;&gt;URY</title>
<path fill="none" stroke="gray" stroke-width="0.2" d="M223.77,-898.04C257.68,-662.89 339.88,-117.24 355.97,-37.78"/>
<polygon fill="gray" stroke="gray" stroke-width="0.2" points="359.28,-38.97 358.32,-28.42 352.49,-37.26 359.28,-38.97"/>
</g>
<!-- ADA&#45;&gt;AVJ -->
<g id="edge28" class="edge">
<title>ADA&#45;&gt;AVJ</title>
<path fill="none" stroke="black" stroke-width="5" d="M358.4,-1982.87C354.76,-1978.76 352.2,-1975.5 352.2,-1975.5 352.2,-1975.5 263.91,-1389.52 226.08,-1128.05"/>
<polygon fill="black" stroke="black" stroke-width="5" points="230.42,-1127.5 224.66,-1118.23 221.76,-1128.75 230.42,-1127.5"/>
</g>
<!-- ADL&#45;&gt;AVJ -->
<g id="edge29" class="edge">
<title>ADL&#45;&gt;AVJ</title>
<path fill="none" stroke="gray" stroke-width="5" d="M358.69,-1904.21C354.9,-1899.94 352.2,-1896.5 352.2,-1896.5 352.2,-1896.5 266,-1372.05 227.45,-1127.47"/>
<polygon fill="gray" stroke="gray" stroke-width="5" points="231.83,-1127.13 225.95,-1117.93 223.19,-1128.49 231.83,-1127.13"/>
</g>
<!-- ALM&#45;&gt;AVJ -->
<g id="edge30" class="edge">
<title>ALM&#45;&gt;AVJ</title>
<path fill="none" stroke="blue" stroke-width="0.2" d="M358.4,-1666.87C354.76,-1662.76 352.2,-1659.5 352.2,-1659.5 352.2,-1659.5 273.05,-1309.1 232.52,-1120.85"/>
<polygon fill="blue" stroke="blue" stroke-width="0.2" points="235.97,-1120.24 230.44,-1111.2 229.12,-1121.71 235.97,-1120.24"/>
</g>
<!-- AQR&#45;&gt;AVJ -->
<g id="edge31" class="edge">
<title>AQR&#45;&gt;AVJ</title>
<path fill="none" stroke="gray" stroke-width="0.2" d="M358.4,-1587.87C354.76,-1583.76 352.2,-1580.5 352.2,-1580.5 352.2,-1580.5 276.88,-1288.68 235.57,-1120.41"/>
<polygon fill="gray" stroke="gray" stroke-width="0.2" points="238.99,-1119.68 233.21,-1110.8 232.19,-1121.35 238.99,-1119.68"/>
</g>
<!-- ASH&#45;&gt;AVJ -->
<g id="edge32" class="edge">
<title>ASH&#45;&gt;AVJ</title>
<path fill="none" stroke="gray" stroke-width="2" d="M358.69,-1509.21C354.9,-1504.94 352.2,-1501.5 352.2,-1501.5 352.2,-1501.5 282.12,-1268.72 240.08,-1121.7"/>
<polygon fill="gray" stroke="gray" stroke-width="2" points="243.55,-1121.07 237.44,-1112.42 236.81,-1122.99 243.55,-1121.07"/>
</g>
<!-- ASK&#45;&gt;AVJ -->
<g id="edge33" class="edge">
<title>ASK&#45;&gt;AVJ</title>
<path fill="none" stroke="gray" stroke-width="0.2" d="M358.69,-1430.21C354.9,-1425.94 352.2,-1422.5 352.2,-1422.5 352.2,-1422.5 286.9,-1241.67 244.56,-1117.77"/>
<polygon fill="gray" stroke="gray" stroke-width="0.2" points="247.93,-1116.83 241.39,-1108.49 241.31,-1119.08 247.93,-1116.83"/>
</g>
<!-- AVB&#45;&gt;AVJ -->
<g id="edge34" class="edge">
<title>AVB&#45;&gt;AVJ</title>
<path fill="none" stroke="gray" stroke-width="2" d="M358.69,-1272.21C354.9,-1267.94 352.2,-1264.5 352.2,-1264.5 352.2,-1264.5 303.85,-1184.03 263.38,-1112.44"/>
<polygon fill="gray" stroke="gray" stroke-width="2" points="266.66,-1111.13 258.7,-1104.14 260.56,-1114.57 266.66,-1111.13"/>
</g>
<!-- AVD&#45;&gt;AVJ -->
<g id="edge35" class="edge">
<title>AVD&#45;&gt;AVJ</title>
<path fill="none" stroke="gray" stroke-width="0.2" d="M362.12,-1190.31C341.45,-1171.04 308.51,-1135.11 278.48,-1099.84"/>
<polygon fill="gray" stroke="gray" stroke-width="0.2" points="281.45,-1097.93 272.32,-1092.56 276.11,-1102.46 281.45,-1097.93"/>
</g>
<!-- AVH&#45;&gt;AVJ -->
<g id="edge36" class="edge">
<title>AVH&#45;&gt;AVJ</title>
<path fill="none" stroke="red" stroke-width="5" d="M354.81,-1050.78C346.09,-1050.17 335.88,-1048.84 324.97,-1046.97"/>
<polygon fill="red" stroke="red" stroke-width="5" points="325.95,-1042.71 315.31,-1045.15 324.33,-1051.3 325.95,-1042.71"/>
</g>
<!-- AVM&#45;&gt;AVJ -->
<g id="edge37" class="edge">
<title>AVM&#45;&gt;AVJ</title>
<path fill="none" stroke="red" stroke-width="5" d="M364.3,-980.58C355.46,-984.58 344.06,-988.62 331.45,-992.4"/>
<polygon fill="red" stroke="red" stroke-width="5" points="330.63,-988.09 322.19,-995.01 333,-996.51 330.63,-988.09"/>
</g>
<!-- FLP&#45;&gt;AVJ -->
<g id="edge38" class="edge">
<title>FLP&#45;&gt;AVJ</title>
<path fill="none" stroke="gray" stroke-width="0.2" d="M374.18,-825.31C359.13,-848.23 326.57,-888.04 294.32,-924.54"/>
<polygon fill="gray" stroke="gray" stroke-width="0.2" points="292.11,-921.76 288.08,-931.56 297.34,-926.41 292.11,-921.76"/>
</g>
<!-- OLQ&#45;&gt;AVJ -->
<g id="edge39" class="edge">
<title>OLQ&#45;&gt;AVJ</title>
<path fill="none" stroke="gray" stroke-width="2" d="M378.29,-747.05C369.78,-767.53 352.2,-790.5 352.2,-790.5 352.2,-790.5 315.93,-850.37 279.92,-907.05"/>
<polygon fill="gray" stroke="gray" stroke-width="2" points="277.02,-905.09 274.59,-915.4 282.92,-908.85 277.02,-905.09"/>
</g>
<!-- PVC&#45;&gt;AVJ -->
<g id="edge40" class="edge">
<title>PVC&#45;&gt;AVJ</title>
<path fill="none" stroke="black" stroke-width="2" d="M378.29,-668.05C369.78,-688.53 352.2,-711.5 352.2,-711.5 352.2,-711.5 305.61,-814.13 265.62,-898.23"/>
<polygon fill="black" stroke="black" stroke-width="2" points="262.47,-896.7 261.33,-907.23 268.79,-899.71 262.47,-896.7"/>
</g>
<!-- PVN&#45;&gt;AVJ -->
<g id="edge41" class="edge">
<title>PVN&#45;&gt;AVJ</title>
<path fill="none" stroke="gray" stroke-width="5" d="M378.29,-589.05C369.78,-609.53 352.2,-632.5 352.2,-632.5 352.2,-632.5 298.32,-780.97 256.7,-890.66"/>
<polygon fill="gray" stroke="gray" stroke-width="5" points="252.73,-888.79 253.26,-899.69 260.91,-891.9 252.73,-888.79"/>
</g>
<!-- PVP&#45;&gt;AVJ -->
<g id="edge42" class="edge">
<title>PVP&#45;&gt;AVJ</title>
<path fill="none" stroke="gray" stroke-width="2" d="M378.29,-510.05C369.78,-530.53 352.2,-553.5 352.2,-553.5 352.2,-553.5 290.79,-756.63 248.46,-890.61"/>
<polygon fill="gray" stroke="gray" stroke-width="2" points="245.15,-889.47 245.47,-900.06 251.82,-891.58 245.15,-889.47"/>
</g>
<!-- RIF&#45;&gt;AVJ -->
<g id="edge43" class="edge">
<title>RIF&#45;&gt;AVJ</title>
<path fill="none" stroke="black" stroke-width="5" d="M378.29,-351.9C369.78,-372.1 352.2,-394.5 352.2,-394.5 352.2,-394.5 281.65,-706.34 239.65,-884.47"/>
<polygon fill="black" stroke="black" stroke-width="5" points="235.41,-883.41 237.37,-894.15 243.92,-885.42 235.41,-883.41"/>
</g>
<!-- RIM&#45;&gt;AVJ -->
<g id="edge44" class="edge">
<title>RIM&#45;&gt;AVJ</title>
<path fill="none" stroke="gray" stroke-width="2" d="M378.29,-272.9C369.78,-293.1 352.2,-315.5 352.2,-315.5 352.2,-315.5 276.98,-689.51 235.65,-886.81"/>
<polygon fill="gray" stroke="gray" stroke-width="2" points="232.23,-886.07 233.6,-896.58 239.08,-887.51 232.23,-886.07"/>
</g>
<!-- URY&#45;&gt;AVJ -->
<g id="edge45" class="edge">
<title>URY&#45;&gt;AVJ</title>
<path fill="none" stroke="gray" stroke-width="2" d="M378.29,-35.9C369.78,-56.1 352.2,-78.5 352.2,-78.5 352.2,-78.5 268.3,-634.71 229.03,-885.38"/>
<polygon fill="gray" stroke="gray" stroke-width="2" points="225.59,-884.76 227.5,-895.19 232.5,-885.85 225.59,-884.76"/>
</g>
<!-- ADE -->
<g id="node28" class="node">
<title>ADE</title>
<ellipse fill="none" stroke="black" cx="32.1" cy="-1519" rx="29.11" ry="18"/>
<text text-anchor="middle" x="32.1" y="-1513.58" font-family="Times New Roman,serif" font-size="14.00">ADE</text>
</g>
<!-- ADE&#45;&gt;AVJ -->
<g id="edge46" class="edge">
<title>ADE&#45;&gt;AVJ</title>
<path fill="none" stroke="gray" stroke-width="0.2" d="M45.75,-1503.14C54.36,-1492.34 64.2,-1480 64.2,-1480 64.2,-1480 130.92,-1258.39 173.21,-1117.91"/>
<polygon fill="gray" stroke="gray" stroke-width="0.2" points="176.47,-1119.24 176,-1108.65 169.77,-1117.22 176.47,-1119.24"/>
</g>
<!-- AIM -->
<g id="node29" class="node">
<title>AIM</title>
<ellipse fill="none" stroke="black" cx="32.1" cy="-1440" rx="28.11" ry="18"/>
<text text-anchor="middle" x="32.1" y="-1434.58" font-family="Times New Roman,serif" font-size="14.00">AIM</text>
</g>
<!-- AIM&#45;&gt;AVJ -->
<g id="edge47" class="edge">
<title>AIM&#45;&gt;AVJ</title>
<path fill="none" stroke="red" stroke-width="2" d="M45.75,-1424.14C54.36,-1413.34 64.2,-1401 64.2,-1401 64.2,-1401 123.81,-1235.94 166.05,-1118.95"/>
<polygon fill="red" stroke="red" stroke-width="2" points="169.34,-1120.16 169.44,-1109.57 162.75,-1117.79 169.34,-1120.16"/>
</g>
<!-- AVF -->
<g id="node30" class="node">
<title>AVF</title>
<ellipse fill="none" stroke="black" cx="32.1" cy="-1361" rx="29.11" ry="18"/>
<text text-anchor="middle" x="32.1" y="-1355.58" font-family="Times New Roman,serif" font-size="14.00">AVF</text>
</g>
<!-- AVF&#45;&gt;AVJ -->
<g id="edge48" class="edge">
<title>AVF&#45;&gt;AVJ</title>
<path fill="none" stroke="gray" stroke-width="2" d="M45.75,-1345.14C54.36,-1334.34 64.2,-1322 64.2,-1322 64.2,-1322 116.38,-1206.34 157.7,-1114.74"/>
<polygon fill="gray" stroke="gray" stroke-width="2" points="160.77,-1116.44 161.69,-1105.89 154.39,-1113.57 160.77,-1116.44"/>
</g>
<!-- AWB -->
<g id="node31" class="node">
<title>AWB</title>
<ellipse fill="none" stroke="black" cx="32.1" cy="-1282" rx="32.1" ry="18"/>
<text text-anchor="middle" x="32.1" y="-1276.58" font-family="Times New Roman,serif" font-size="14.00">AWB</text>
</g>
<!-- AWB&#45;&gt;AVJ -->
<g id="edge49" class="edge">
<title>AWB&#45;&gt;AVJ</title>
<path fill="none" stroke="blue" stroke-width="5" d="M46.11,-1265.69C54.63,-1255 64.2,-1243 64.2,-1243 64.2,-1243 105.27,-1174.66 143.39,-1111.21"/>
<polygon fill="blue" stroke="blue" stroke-width="5" points="147.1,-1113.53 148.5,-1102.7 139.6,-1109.02 147.1,-1113.53"/>
</g>
<!-- BDU -->
<g id="node32" class="node">
<title>BDU</title>
<ellipse fill="none" stroke="black" cx="32.1" cy="-1203" rx="29.61" ry="18"/>
<text text-anchor="middle" x="32.1" y="-1197.58" font-family="Times New Roman,serif" font-size="14.00">BDU</text>
</g>
<!-- BDU&#45;&gt;AVJ -->
<g id="edge50" class="edge">
<title>BDU&#45;&gt;AVJ</title>
<path fill="none" stroke="black" stroke-width="5" d="M47.06,-1187.13C64.38,-1167.43 95.33,-1132.23 125.44,-1097.99"/>
<polygon fill="black" stroke="black" stroke-width="5" points="128.59,-1101.03 131.91,-1090.63 122.02,-1095.25 128.59,-1101.03"/>
</g>
<!-- CEP -->
<g id="node33" class="node">
<title>CEP</title>
<ellipse fill="none" stroke="black" cx="32.1" cy="-1124" rx="28.11" ry="18"/>
<text text-anchor="middle" x="32.1" y="-1118.58" font-family="Times New Roman,serif" font-size="14.00">CEP</text>
</g>
<!-- CEP&#45;&gt;AVJ -->
<g id="edge51" class="edge">
<title>CEP&#45;&gt;AVJ</title>
<path fill="none" stroke="gray" stroke-width="0.2" d="M52.07,-1111.04C66.67,-1101.06 88.06,-1086.44 110.32,-1071.22"/>
<polygon fill="gray" stroke="gray" stroke-width="0.2" points="112.02,-1074.3 118.3,-1065.77 108.07,-1068.52 112.02,-1074.3"/>
</g>
<!-- HSN -->
<g id="node34" class="node">
<title>HSN</title>
<ellipse fill="none" stroke="black" cx="32.1" cy="-1045" rx="29.11" ry="18"/>
<text text-anchor="middle" x="32.1" y="-1039.58" font-family="Times New Roman,serif" font-size="14.00">HSN</text>
</g>
<!-- HSN&#45;&gt;AVJ -->
<g id="edge52" class="edge">
<title>HSN&#45;&gt;AVJ</title>
<path fill="none" stroke="gray" stroke-width="2" d="M59.92,-1038.84C68.75,-1036.81 79.2,-1034.41 90.39,-1031.84"/>
<polygon fill="gray" stroke="gray" stroke-width="2" points="90.87,-1035.32 99.84,-1029.67 89.31,-1028.5 90.87,-1035.32"/>
</g>
<!-- PVD -->
<g id="node35" class="node">
<title>PVD</title>
<ellipse fill="none" stroke="black" cx="32.1" cy="-966" rx="29.11" ry="18"/>
<text text-anchor="middle" x="32.1" y="-960.58" font-family="Times New Roman,serif" font-size="14.00">PVD</text>
</g>
<!-- PVD&#45;&gt;AVJ -->
<g id="edge53" class="edge">
<title>PVD&#45;&gt;AVJ</title>
<path fill="none" stroke="blue" stroke-width="5" d="M59.92,-972.01C67.75,-973.76 76.85,-975.8 86.61,-977.99"/>
<polygon fill="blue" stroke="blue" stroke-width="5" points="85.61,-982.25 96.32,-980.16 87.52,-973.71 85.61,-982.25"/>
</g>
<!-- PVR -->
<g id="node36" class="node">
<title>PVR</title>
<ellipse fill="none" stroke="black" cx="32.1" cy="-887" rx="29.11" ry="18"/>
<text text-anchor="middle" x="32.1" y="-881.58" font-family="Times New Roman,serif" font-size="14.00">PVR</text>
</g>
<!-- PVR&#45;&gt;AVJ -->
<g id="edge54" class="edge">
<title>PVR&#45;&gt;AVJ</title>
<path fill="none" stroke="gray" stroke-width="5" d="M52.4,-900.08C65.84,-909.19 84.91,-922.11 105.09,-935.79"/>
<polygon fill="gray" stroke="gray" stroke-width="5" points="102.57,-939.37 113.31,-941.36 107.48,-932.13 102.57,-939.37"/>
</g>
<!-- RIC -->
<g id="node37" class="node">
<title>RIC</title>
<ellipse fill="none" stroke="black" cx="32.1" cy="-808" rx="27" ry="18"/>
<text text-anchor="middle" x="32.1" y="-802.58" font-family="Times New Roman,serif" font-size="14.00">RIC</text>
</g>
<!-- RIC&#45;&gt;AVJ -->
<g id="edge55" class="edge">
<title>RIC&#45;&gt;AVJ</title>
<path fill="none" stroke="blue" stroke-width="0.2" d="M46.76,-823.46C64.8,-843.87 97.97,-881.4 129.48,-917.06"/>
<polygon fill="blue" stroke="blue" stroke-width="0.2" points="126.73,-919.23 135.98,-924.41 131.98,-914.6 126.73,-919.23"/>
</g>
<!-- RMG -->
<g id="node38" class="node">
<title>RMG</title>
<ellipse fill="none" stroke="black" cx="32.1" cy="-729" rx="32.1" ry="18"/>
<text text-anchor="middle" x="32.1" y="-723.58" font-family="Times New Roman,serif" font-size="14.00">RMG</text>
</g>
<!-- RMG&#45;&gt;AVJ -->
<g id="edge56" class="edge">
<title>RMG&#45;&gt;AVJ</title>
<path fill="none" stroke="gray" stroke-width="2" d="M45.75,-745.27C54.36,-756.34 64.2,-769 64.2,-769 64.2,-769 106.2,-838.3 144.67,-901.8"/>
<polygon fill="gray" stroke="gray" stroke-width="2" points="141.56,-903.41 149.73,-910.15 147.54,-899.79 141.56,-903.41"/>
</g>
<!-- SMB -->
<g id="node39" class="node">
<title>SMB</title>
<ellipse fill="none" stroke="black" cx="32.1" cy="-650" rx="30.11" ry="18"/>
<text text-anchor="middle" x="32.1" y="-644.58" font-family="Times New Roman,serif" font-size="14.00">SMB</text>
</g>
<!-- SMB&#45;&gt;AVJ -->
<g id="edge57" class="edge">
<title>SMB&#45;&gt;AVJ</title>
<path fill="none" stroke="gray" stroke-width="0.2" d="M45.75,-666.27C54.36,-677.34 64.2,-690 64.2,-690 64.2,-690 116.91,-806.09 158.32,-897.32"/>
<polygon fill="gray" stroke="gray" stroke-width="0.2" points="155.1,-898.69 162.42,-906.35 161.47,-895.8 155.1,-898.69"/>
</g>
<!-- URB -->
<g id="node40" class="node">
<title>URB</title>
<ellipse fill="none" stroke="black" cx="32.1" cy="-571" rx="29.61" ry="18"/>
<text text-anchor="middle" x="32.1" y="-565.58" font-family="Times New Roman,serif" font-size="14.00">URB</text>
</g>
<!-- URB&#45;&gt;AVJ -->
<g id="edge58" class="edge">
<title>URB&#45;&gt;AVJ</title>
<path fill="none" stroke="gray" stroke-width="0.2" d="M45.75,-587.27C54.36,-598.34 64.2,-611 64.2,-611 64.2,-611 124.69,-777.65 166.98,-894.18"/>
<polygon fill="gray" stroke="gray" stroke-width="0.2" points="163.57,-895.04 170.27,-903.25 170.15,-892.66 163.57,-895.04"/>
</g>
<!-- URX -->
<g id="node41" class="node">
<title>URX</title>
<ellipse fill="none" stroke="black" cx="32.1" cy="-492" rx="30.11" ry="18"/>
<text text-anchor="middle" x="32.1" y="-486.57" font-family="Times New Roman,serif" font-size="14.00">URX</text>
</g>
<!-- URX&#45;&gt;AVJ -->
<g id="edge59" class="edge">
<title>URX&#45;&gt;AVJ</title>
<path fill="none" stroke="gray" stroke-width="2" d="M45.75,-508.27C54.36,-519.34 64.2,-532 64.2,-532 64.2,-532 129.81,-748.99 172.14,-889.03"/>
<polygon fill="gray" stroke="gray" stroke-width="2" points="168.79,-890.03 175.03,-898.59 175.49,-888.01 168.79,-890.03"/>
</g>
</g>
</svg>
