<?xml version="1.0" encoding="UTF-8" standalone="no"?>
<!DOCTYPE svg PUBLIC "-//W3C//DTD SVG 1.1//EN"
 "http://www.w3.org/Graphics/SVG/1.1/DTD/svg11.dtd">
<!-- Generated by graphviz version 11.0.0 (20240428.1522)
 -->
<!-- Pages: 1 -->
<svg width="420pt" height="1940pt"
 viewBox="0.00 0.00 420.42 1940.00" xmlns="http://www.w3.org/2000/svg" xmlns:xlink="http://www.w3.org/1999/xlink">
<g id="graph0" class="graph" transform="scale(1 1) rotate(0) translate(4 1936)">
<polygon fill="white" stroke="none" points="-4,4 -4,-1936 416.42,-1936 416.42,4 -4,4"/>
<!-- AVK -->
<g id="node1" class="node">
<title>AVK</title>
<ellipse fill="none" stroke="black" cx="204.21" cy="-1045" rx="108" ry="108"/>
<text text-anchor="middle" x="204.21" y="-1026" font-family="Times New Roman,serif" font-size="50.00">AVK</text>
</g>
<!-- AVK&#45;&gt;AVK -->
<g id="edge1" class="edge">
<title>AVK&#45;&gt;AVK</title>
<path fill="none" stroke="gray" stroke-width="0.2" d="M171.88,-1148.39C173.8,-1175.51 184.57,-1196 204.21,-1196 221.32,-1196 231.7,-1180.45 235.36,-1158.52"/>
<polygon fill="gray" stroke="gray" stroke-width="0.2" points="238.83,-1159.03 236.51,-1148.69 231.87,-1158.22 238.83,-1159.03"/>
</g>
<!-- ADA -->
<g id="node2" class="node">
<title>ADA</title>
<ellipse fill="none" stroke="black" cx="380.31" cy="-1914" rx="30.11" ry="18"/>
<text text-anchor="middle" x="380.31" y="-1908.58" font-family="Times New Roman,serif" font-size="14.00">ADA</text>
</g>
<!-- AVK&#45;&gt;ADA -->
<g id="edge2" class="edge">
<title>AVK&#45;&gt;ADA</title>
<path fill="none" stroke="gray" stroke-width="0.2" d="M225.55,-1151.08C265.03,-1370.69 348.21,-1853.5 348.21,-1853.5 348.21,-1853.5 361.16,-1869.74 370.35,-1887.04"/>
<polygon fill="gray" stroke="gray" stroke-width="0.2" points="367.1,-1888.34 374.59,-1895.83 373.4,-1885.3 367.1,-1888.34"/>
</g>
<!-- AIB -->
<g id="node3" class="node">
<title>AIB</title>
<ellipse fill="none" stroke="black" cx="380.31" cy="-1835" rx="27" ry="18"/>
<text text-anchor="middle" x="380.31" y="-1829.58" font-family="Times New Roman,serif" font-size="14.00">AIB</text>
</g>
<!-- AVK&#45;&gt;AIB -->
<g id="edge3" class="edge">
<title>AVK&#45;&gt;AIB</title>
<path fill="none" stroke="gray" stroke-width="2" d="M227.71,-1150.7C267.98,-1353.16 348.21,-1774.5 348.21,-1774.5 348.21,-1774.5 360,-1789.29 369.07,-1805.67"/>
<polygon fill="gray" stroke="gray" stroke-width="2" points="365.81,-1806.98 373.38,-1814.39 372.08,-1803.87 365.81,-1806.98"/>
</g>
<!-- AQR -->
<g id="node4" class="node">
<title>AQR</title>
<ellipse fill="none" stroke="black" cx="380.31" cy="-1756" rx="30.61" ry="18"/>
<text text-anchor="middle" x="380.31" y="-1750.58" font-family="Times New Roman,serif" font-size="14.00">AQR</text>
</g>
<!-- AVK&#45;&gt;AQR -->
<g id="edge4" class="edge">
<title>AVK&#45;&gt;AQR</title>
<path fill="none" stroke="gray" stroke-width="0.2" d="M230.37,-1150.17C271.4,-1334.53 348.21,-1695.5 348.21,-1695.5 348.21,-1695.5 361.16,-1711.74 370.35,-1729.04"/>
<polygon fill="gray" stroke="gray" stroke-width="0.2" points="367.1,-1730.34 374.59,-1737.83 373.4,-1727.3 367.1,-1730.34"/>
</g>
<!-- AVA -->
<g id="node5" class="node">
<title>AVA</title>
<ellipse fill="none" stroke="black" cx="380.31" cy="-1677" rx="30.11" ry="18"/>
<text text-anchor="middle" x="380.31" y="-1671.58" font-family="Times New Roman,serif" font-size="14.00">AVA</text>
</g>
<!-- AVK&#45;&gt;AVA -->
<g id="edge5" class="edge">
<title>AVK&#45;&gt;AVA</title>
<path fill="none" stroke="blue" stroke-width="0.2" d="M230.53,-1149.99C271.6,-1320.31 348.21,-1638 348.21,-1638 348.21,-1638 353.59,-1644.75 359.88,-1652.63"/>
<polygon fill="blue" stroke="blue" stroke-width="0.2" points="357.14,-1654.81 366.12,-1660.45 362.62,-1650.45 357.14,-1654.81"/>
</g>
<!-- AVB -->
<g id="node6" class="node">
<title>AVB</title>
<ellipse fill="none" stroke="black" cx="380.31" cy="-1598" rx="29.61" ry="18"/>
<text text-anchor="middle" x="380.31" y="-1592.58" font-family="Times New Roman,serif" font-size="14.00">AVB</text>
</g>
<!-- AVK&#45;&gt;AVB -->
<g id="edge6" class="edge">
<title>AVK&#45;&gt;AVB</title>
<path fill="none" stroke="gray" stroke-width="2" d="M234.15,-1149.02C275.94,-1299.21 348.21,-1559 348.21,-1559 348.21,-1559 352.74,-1564.67 358.33,-1571.69"/>
<polygon fill="gray" stroke="gray" stroke-width="2" points="355.45,-1573.68 364.42,-1579.32 360.92,-1569.32 355.45,-1573.68"/>
</g>
<!-- AVE -->
<g id="node7" class="node">
<title>AVE</title>
<ellipse fill="none" stroke="black" cx="380.31" cy="-1519" rx="29.11" ry="18"/>
<text text-anchor="middle" x="380.31" y="-1513.58" font-family="Times New Roman,serif" font-size="14.00">AVE</text>
</g>
<!-- AVK&#45;&gt;AVE -->
<g id="edge7" class="edge">
<title>AVK&#45;&gt;AVE</title>
<path fill="none" stroke="gray" stroke-width="5" d="M238.92,-1147.54C281.2,-1276.14 348.21,-1480 348.21,-1480 348.21,-1480 351.87,-1484.58 356.67,-1490.61"/>
<polygon fill="gray" stroke="gray" stroke-width="5" points="353.12,-1493.17 362.77,-1498.26 359.96,-1487.71 353.12,-1493.17"/>
</g>
<!-- AVL -->
<g id="node8" class="node">
<title>AVL</title>
<ellipse fill="none" stroke="black" cx="380.31" cy="-1440" rx="29.11" ry="18"/>
<text text-anchor="middle" x="380.31" y="-1434.58" font-family="Times New Roman,serif" font-size="14.00">AVL</text>
</g>
<!-- AVK&#45;&gt;AVL -->
<g id="edge8" class="edge">
<title>AVK&#45;&gt;AVL</title>
<path fill="none" stroke="gray" stroke-width="2" d="M251.05,-1142.79C292.88,-1241.74 348.21,-1379.5 348.21,-1379.5 348.21,-1379.5 360,-1394.29 369.07,-1410.67"/>
<polygon fill="gray" stroke="gray" stroke-width="2" points="365.81,-1411.98 373.38,-1419.39 372.08,-1408.87 365.81,-1411.98"/>
</g>
<!-- DVC -->
<g id="node9" class="node">
<title>DVC</title>
<ellipse fill="none" stroke="black" cx="380.31" cy="-1361" rx="30.11" ry="18"/>
<text text-anchor="middle" x="380.31" y="-1355.58" font-family="Times New Roman,serif" font-size="14.00">DVC</text>
</g>
<!-- AVK&#45;&gt;DVC -->
<g id="edge9" class="edge">
<title>AVK&#45;&gt;DVC</title>
<path fill="none" stroke="gray" stroke-width="0.2" d="M261.73,-1136.97C301.7,-1210.4 348.21,-1300.5 348.21,-1300.5 348.21,-1300.5 361.16,-1316.74 370.35,-1334.04"/>
<polygon fill="gray" stroke="gray" stroke-width="0.2" points="367.1,-1335.34 374.59,-1342.83 373.4,-1332.3 367.1,-1335.34"/>
</g>
<!-- PVT -->
<g id="node10" class="node">
<title>PVT</title>
<ellipse fill="none" stroke="black" cx="380.31" cy="-1282" rx="28.61" ry="18"/>
<text text-anchor="middle" x="380.31" y="-1276.58" font-family="Times New Roman,serif" font-size="14.00">PVT</text>
</g>
<!-- AVK&#45;&gt;PVT -->
<g id="edge10" class="edge">
<title>AVK&#45;&gt;PVT</title>
<path fill="none" stroke="gray" stroke-width="2" d="M276.92,-1125.46C312.6,-1172.19 348.21,-1221.5 348.21,-1221.5 348.21,-1221.5 360,-1236.29 369.07,-1252.67"/>
<polygon fill="gray" stroke="gray" stroke-width="2" points="365.81,-1253.98 373.38,-1261.39 372.08,-1250.87 365.81,-1253.98"/>
</g>
<!-- RIA -->
<g id="node11" class="node">
<title>RIA</title>
<ellipse fill="none" stroke="black" cx="380.31" cy="-1203" rx="27" ry="18"/>
<text text-anchor="middle" x="380.31" y="-1197.58" font-family="Times New Roman,serif" font-size="14.00">RIA</text>
</g>
<!-- AVK&#45;&gt;RIA -->
<g id="edge11" class="edge">
<title>AVK&#45;&gt;RIA</title>
<path fill="none" stroke="gray" stroke-width="2" d="M284.88,-1117.3C309.84,-1139.95 335.62,-1163.35 353.93,-1179.96"/>
<polygon fill="gray" stroke="gray" stroke-width="2" points="351.53,-1182.51 361.29,-1186.64 356.23,-1177.33 351.53,-1182.51"/>
</g>
<!-- RIG -->
<g id="node12" class="node">
<title>RIG</title>
<ellipse fill="none" stroke="black" cx="380.31" cy="-1124" rx="27.11" ry="18"/>
<text text-anchor="middle" x="380.31" y="-1118.58" font-family="Times New Roman,serif" font-size="14.00">RIG</text>
</g>
<!-- AVK&#45;&gt;RIG -->
<g id="edge12" class="edge">
<title>AVK&#45;&gt;RIG</title>
<path fill="none" stroke="gray" stroke-width="0.2" d="M308,-1075.75C326.54,-1084.73 344.1,-1094.26 357.15,-1102.76"/>
<polygon fill="gray" stroke="gray" stroke-width="0.2" points="354.96,-1105.5 365.18,-1108.28 358.93,-1099.73 354.96,-1105.5"/>
</g>
<!-- RIM -->
<g id="node13" class="node">
<title>RIM</title>
<ellipse fill="none" stroke="black" cx="380.31" cy="-1045" rx="28.11" ry="18"/>
<text text-anchor="middle" x="380.31" y="-1039.58" font-family="Times New Roman,serif" font-size="14.00">RIM</text>
</g>
<!-- AVK&#45;&gt;RIM -->
<g id="edge13" class="edge">
<title>AVK&#45;&gt;RIM</title>
<path fill="none" stroke="black" stroke-width="5" d="M311.5,-1029.23C322.25,-1029.63 332.59,-1030.38 341.81,-1031.47"/>
<polygon fill="black" stroke="black" stroke-width="5" points="340.81,-1035.74 351.36,-1032.94 342.14,-1027.09 340.81,-1035.74"/>
</g>
<!-- RIS -->
<g id="node14" class="node">
<title>RIS</title>
<ellipse fill="none" stroke="black" cx="380.31" cy="-966" rx="27" ry="18"/>
<text text-anchor="middle" x="380.31" y="-960.58" font-family="Times New Roman,serif" font-size="14.00">RIS</text>
</g>
<!-- AVK&#45;&gt;RIS -->
<g id="edge14" class="edge">
<title>AVK&#45;&gt;RIS</title>
<path fill="none" stroke="gray" stroke-width="5" d="M296.09,-987.65C310.65,-981.15 325.07,-975.32 337.71,-970.89"/>
<polygon fill="gray" stroke="gray" stroke-width="5" points="339.03,-975.06 347.23,-967.85 336.37,-966.73 339.03,-975.06"/>
</g>
<!-- RIV -->
<g id="node15" class="node">
<title>RIV</title>
<ellipse fill="none" stroke="black" cx="380.31" cy="-887" rx="27" ry="18"/>
<text text-anchor="middle" x="380.31" y="-881.58" font-family="Times New Roman,serif" font-size="14.00">RIV</text>
</g>
<!-- AVK&#45;&gt;RIV -->
<g id="edge15" class="edge">
<title>AVK&#45;&gt;RIV</title>
<path fill="none" stroke="gray" stroke-width="5" d="M284.88,-972.7C308.8,-951 333.47,-928.61 351.59,-912.16"/>
<polygon fill="gray" stroke="gray" stroke-width="5" points="354.44,-915.48 358.91,-905.52 348.56,-909 354.44,-915.48"/>
</g>
<!-- RMD -->
<g id="node16" class="node">
<title>RMD</title>
<ellipse fill="none" stroke="black" cx="380.31" cy="-808" rx="31.6" ry="18"/>
<text text-anchor="middle" x="380.31" y="-802.58" font-family="Times New Roman,serif" font-size="14.00">RMD</text>
</g>
<!-- AVK&#45;&gt;RMD -->
<g id="edge16" class="edge">
<title>AVK&#45;&gt;RMD</title>
<path fill="none" stroke="gray" stroke-width="5" d="M260.09,-952.05C291.6,-905.4 327.66,-855.01 344.93,-831.59"/>
<polygon fill="gray" stroke="gray" stroke-width="5" points="348.2,-834.51 350.74,-823.9 341.22,-829.24 348.2,-834.51"/>
</g>
<!-- RMF -->
<g id="node17" class="node">
<title>RMF</title>
<ellipse fill="none" stroke="black" cx="380.31" cy="-729" rx="30.61" ry="18"/>
<text text-anchor="middle" x="380.31" y="-723.58" font-family="Times New Roman,serif" font-size="14.00">RMF</text>
</g>
<!-- AVK&#45;&gt;RMF -->
<g id="edge17" class="edge">
<title>AVK&#45;&gt;RMF</title>
<path fill="none" stroke="red" stroke-width="0.2" d="M248.12,-945.94C284.48,-870.71 332.66,-776.74 349.2,-747.7"/>
<polygon fill="red" stroke="red" stroke-width="0.2" points="352.06,-749.73 354.35,-739.38 346.11,-746.05 352.06,-749.73"/>
</g>
<!-- RMG -->
<g id="node18" class="node">
<title>RMG</title>
<ellipse fill="none" stroke="black" cx="380.31" cy="-650" rx="32.1" ry="18"/>
<text text-anchor="middle" x="380.31" y="-644.58" font-family="Times New Roman,serif" font-size="14.00">RMG</text>
</g>
<!-- AVK&#45;&gt;RMG -->
<g id="edge18" class="edge">
<title>AVK&#45;&gt;RMG</title>
<path fill="none" stroke="gray" stroke-width="0.2" d="M245.43,-944.89C287.72,-839.59 348.21,-689 348.21,-689 348.21,-689 353.59,-682.25 359.88,-674.37"/>
<polygon fill="gray" stroke="gray" stroke-width="0.2" points="362.62,-676.55 366.12,-666.55 357.14,-672.19 362.62,-676.55"/>
</g>
<!-- RMH -->
<g id="node19" class="node">
<title>RMH</title>
<ellipse fill="none" stroke="black" cx="380.31" cy="-571" rx="31.6" ry="18"/>
<text text-anchor="middle" x="380.31" y="-565.58" font-family="Times New Roman,serif" font-size="14.00">RMH</text>
</g>
<!-- AVK&#45;&gt;RMH -->
<g id="edge19" class="edge">
<title>AVK&#45;&gt;RMH</title>
<path fill="none" stroke="gray" stroke-width="0.2" d="M234.84,-940.97C272.23,-820.46 333.2,-634.27 350.13,-590.65"/>
<polygon fill="gray" stroke="gray" stroke-width="0.2" points="353.23,-592.3 354.09,-581.74 346.83,-589.45 353.23,-592.3"/>
</g>
<!-- SAA -->
<g id="node20" class="node">
<title>SAA</title>
<ellipse fill="none" stroke="black" cx="380.31" cy="-492" rx="29.11" ry="18"/>
<text text-anchor="middle" x="380.31" y="-486.57" font-family="Times New Roman,serif" font-size="14.00">SAA</text>
</g>
<!-- AVK&#45;&gt;SAA -->
<g id="edge20" class="edge">
<title>AVK&#45;&gt;SAA</title>
<path fill="none" stroke="gray" stroke-width="5" d="M230.78,-939.99C266.69,-803.6 329.41,-577.23 349.34,-516.6"/>
<polygon fill="gray" stroke="gray" stroke-width="5" points="353.42,-518.18 352.89,-507.28 345.25,-515.07 353.42,-518.18"/>
</g>
<!-- SDQ -->
<g id="node21" class="node">
<title>SDQ</title>
<ellipse fill="none" stroke="black" cx="380.31" cy="-413" rx="29.61" ry="18"/>
<text text-anchor="middle" x="380.31" y="-407.57" font-family="Times New Roman,serif" font-size="14.00">SDQ</text>
</g>
<!-- AVK&#45;&gt;SDQ -->
<g id="edge21" class="edge">
<title>AVK&#45;&gt;SDQ</title>
<path fill="none" stroke="gray" stroke-width="0.2" d="M227.71,-939.23C264.37,-779.01 334.12,-489.02 351.33,-432.39"/>
<polygon fill="gray" stroke="gray" stroke-width="0.2" points="354.59,-433.67 354.7,-423.08 348.01,-431.29 354.59,-433.67"/>
</g>
<!-- SIA -->
<g id="node22" class="node">
<title>SIA</title>
<ellipse fill="none" stroke="black" cx="380.31" cy="-334" rx="27" ry="18"/>
<text text-anchor="middle" x="380.31" y="-328.57" font-family="Times New Roman,serif" font-size="14.00">SIA</text>
</g>
<!-- AVK&#45;&gt;SIA -->
<g id="edge22" class="edge">
<title>AVK&#45;&gt;SIA</title>
<path fill="none" stroke="gray" stroke-width="5" d="M227.71,-939.26C267.98,-750.02 348.21,-373 348.21,-373 348.21,-373 351.87,-368.42 356.67,-362.39"/>
<polygon fill="gray" stroke="gray" stroke-width="5" points="359.96,-365.29 362.77,-354.74 353.12,-359.83 359.96,-365.29"/>
</g>
<!-- SIB -->
<g id="node23" class="node">
<title>SIB</title>
<ellipse fill="none" stroke="black" cx="380.31" cy="-255" rx="27" ry="18"/>
<text text-anchor="middle" x="380.31" y="-249.57" font-family="Times New Roman,serif" font-size="14.00">SIB</text>
</g>
<!-- AVK&#45;&gt;SIB -->
<g id="edge23" class="edge">
<title>AVK&#45;&gt;SIB</title>
<path fill="none" stroke="gray" stroke-width="0.2" d="M225.4,-938.99C264.82,-731.98 348.21,-294 348.21,-294 348.21,-294 353.86,-286.91 360.35,-278.78"/>
<polygon fill="gray" stroke="gray" stroke-width="0.2" points="362.98,-281.1 366.48,-271.1 357.5,-276.74 362.98,-281.1"/>
</g>
<!-- SMB -->
<g id="node24" class="node">
<title>SMB</title>
<ellipse fill="none" stroke="black" cx="380.31" cy="-176" rx="30.11" ry="18"/>
<text text-anchor="middle" x="380.31" y="-170.57" font-family="Times New Roman,serif" font-size="14.00">SMB</text>
</g>
<!-- AVK&#45;&gt;SMB -->
<g id="edge24" class="edge">
<title>AVK&#45;&gt;SMB</title>
<path fill="none" stroke="red" stroke-width="0.2" d="M223.54,-938.61C262.13,-714.65 348.21,-215 348.21,-215 348.21,-215 353.59,-208.25 359.88,-200.37"/>
<polygon fill="red" stroke="red" stroke-width="0.2" points="362.62,-202.55 366.12,-192.55 357.14,-198.19 362.62,-202.55"/>
</g>
<!-- SMD -->
<g id="node25" class="node">
<title>SMD</title>
<ellipse fill="none" stroke="black" cx="380.31" cy="-97" rx="30.61" ry="18"/>
<text text-anchor="middle" x="380.31" y="-91.58" font-family="Times New Roman,serif" font-size="14.00">SMD</text>
</g>
<!-- AVK&#45;&gt;SMD -->
<g id="edge25" class="edge">
<title>AVK&#45;&gt;SMD</title>
<path fill="none" stroke="red" stroke-width="0.2" d="M222.04,-938.05C259.84,-697.77 348.21,-136 348.21,-136 348.21,-136 353.59,-129.25 359.88,-121.37"/>
<polygon fill="red" stroke="red" stroke-width="0.2" points="362.62,-123.55 366.12,-113.55 357.14,-119.19 362.62,-123.55"/>
</g>
<!-- URY -->
<g id="node26" class="node">
<title>URY</title>
<ellipse fill="none" stroke="black" cx="380.31" cy="-18" rx="30.11" ry="18"/>
<text text-anchor="middle" x="380.31" y="-12.57" font-family="Times New Roman,serif" font-size="14.00">URY</text>
</g>
<!-- AVK&#45;&gt;URY -->
<g id="edge26" class="edge">
<title>AVK&#45;&gt;URY</title>
<path fill="none" stroke="gray" stroke-width="2" d="M220.72,-937.86C257.74,-682.09 348.21,-57 348.21,-57 348.21,-57 352.74,-51.33 358.33,-44.31"/>
<polygon fill="gray" stroke="gray" stroke-width="2" points="360.92,-46.68 364.42,-36.68 355.45,-42.32 360.92,-46.68"/>
</g>
<!-- ADA&#45;&gt;AVK -->
<g id="edge27" class="edge">
<title>ADA&#45;&gt;AVK</title>
<path fill="none" stroke="gray" stroke-width="0.2" d="M354.81,-1904.21C350.95,-1899.94 348.21,-1896.5 348.21,-1896.5 348.21,-1896.5 261.9,-1395.5 223.39,-1161.9"/>
<polygon fill="gray" stroke="gray" stroke-width="0.2" points="226.88,-1161.6 221.8,-1152.3 219.98,-1162.73 226.88,-1161.6"/>
</g>
<!-- AIB&#45;&gt;AVK -->
<g id="edge28" class="edge">
<title>AIB&#45;&gt;AVK</title>
<path fill="none" stroke="gray" stroke-width="0.2" d="M356.06,-1826.58C351.56,-1821.7 348.21,-1817.5 348.21,-1817.5 348.21,-1817.5 264.48,-1377.77 225.16,-1161.64"/>
<polygon fill="gray" stroke="gray" stroke-width="0.2" points="228.61,-1161.03 223.38,-1151.81 221.72,-1162.28 228.61,-1161.03"/>
</g>
<!-- AQR&#45;&gt;AVK -->
<g id="edge29" class="edge">
<title>AQR&#45;&gt;AVK</title>
<path fill="none" stroke="gray" stroke-width="2" d="M354.51,-1745.87C350.81,-1741.76 348.21,-1738.5 348.21,-1738.5 348.21,-1738.5 268.18,-1362.4 227.86,-1163.93"/>
<polygon fill="gray" stroke="gray" stroke-width="2" points="231.34,-1163.48 225.92,-1154.37 224.48,-1164.87 231.34,-1163.48"/>
</g>
<!-- AVL&#45;&gt;AVK -->
<g id="edge30" class="edge">
<title>AVL&#45;&gt;AVK</title>
<path fill="none" stroke="gray" stroke-width="nan" d="M355.11,-1430.55C351.1,-1426.12 348.21,-1422.5 348.21,-1422.5 348.21,-1422.5 282.53,-1258.98 240.19,-1146.89"/>
<polygon fill="gray" stroke="gray" stroke-width="nan" points="nan,-nan nan,-nan nan,-nan nan,-nan"/>
</g>
<!-- DVC&#45;&gt;AVK -->
<g id="edge31" class="edge">
<title>DVC&#45;&gt;AVK</title>
<path fill="none" stroke="gray" stroke-width="2" d="M354.81,-1351.21C350.95,-1346.94 348.21,-1343.5 348.21,-1343.5 348.21,-1343.5 295.22,-1240.85 253.76,-1155.68"/>
<polygon fill="gray" stroke="gray" stroke-width="2" points="256.95,-1154.25 249.44,-1146.78 250.65,-1157.31 256.95,-1154.25"/>
</g>
<!-- PVT&#45;&gt;AVK -->
<g id="edge32" class="edge">
<title>PVT&#45;&gt;AVK</title>
<path fill="none" stroke="gray" stroke-width="5" d="M355.43,-1272.89C351.25,-1268.31 348.21,-1264.5 348.21,-1264.5 348.21,-1264.5 307.11,-1207.59 268.98,-1151.48"/>
<polygon fill="gray" stroke="gray" stroke-width="5" points="272.6,-1149.03 263.38,-1143.19 265.35,-1153.93 272.6,-1149.03"/>
</g>
<!-- RIG&#45;&gt;AVK -->
<g id="edge33" class="edge">
<title>RIG&#45;&gt;AVK</title>
<path fill="none" stroke="gray" stroke-width="5" d="M352.8,-1123.95C340.97,-1120.57 326.19,-1115.14 310.59,-1108.62"/>
<polygon fill="gray" stroke="gray" stroke-width="5" points="312.73,-1104.78 301.81,-1104.82 309.25,-1112.81 312.73,-1104.78"/>
</g>
<!-- RIM&#45;&gt;AVK -->
<g id="edge34" class="edge">
<title>RIM&#45;&gt;AVK</title>
<path fill="none" stroke="gray" stroke-width="0.2" d="M357.53,-1056.11C347.65,-1058.09 335.15,-1059.48 321.56,-1060.28"/>
<polygon fill="gray" stroke="gray" stroke-width="0.2" points="321.63,-1056.78 311.81,-1060.76 321.96,-1063.77 321.63,-1056.78"/>
</g>
<!-- RIS&#45;&gt;AVK -->
<g id="edge35" class="edge">
<title>RIS&#45;&gt;AVK</title>
<path fill="none" stroke="gray" stroke-width="5" d="M365.43,-981.54C355,-989.21 339.61,-998.19 322.44,-1007.04"/>
<polygon fill="gray" stroke="gray" stroke-width="5" points="320.57,-1003.08 313.58,-1011.46 324.48,-1010.91 320.57,-1003.08"/>
</g>
<!-- RMD&#45;&gt;AVK -->
<g id="edge36" class="edge">
<title>RMD&#45;&gt;AVK</title>
<path fill="none" stroke="gray" stroke-width="0.2" d="M374.72,-826.05C366.07,-846.53 348.21,-869.5 348.21,-869.5 348.21,-869.5 316.78,-912.81 283.38,-956.6"/>
<polygon fill="gray" stroke="gray" stroke-width="0.2" points="280.61,-954.46 277.32,-964.53 286.17,-958.71 280.61,-954.46"/>
</g>
<!-- RMF&#45;&gt;AVK -->
<g id="edge37" class="edge">
<title>RMF&#45;&gt;AVK</title>
<path fill="none" stroke="red" stroke-width="5" d="M374.72,-746.9C366.07,-767.1 348.21,-789.5 348.21,-789.5 348.21,-789.5 307.33,-868.69 269.29,-939.1"/>
<polygon fill="red" stroke="red" stroke-width="5" points="265.62,-936.67 264.7,-947.55 273.32,-940.85 265.62,-936.67"/>
</g>
<!-- RMH&#45;&gt;AVK -->
<g id="edge38" class="edge">
<title>RMH&#45;&gt;AVK</title>
<path fill="none" stroke="gray" stroke-width="0.2" d="M374.72,-588.9C366.07,-609.1 348.21,-631.5 348.21,-631.5 348.21,-631.5 288.93,-811.84 246.7,-934.55"/>
<polygon fill="gray" stroke="gray" stroke-width="0.2" points="243.49,-933.13 243.54,-943.73 250.11,-935.41 243.49,-933.13"/>
</g>
<!-- SAA&#45;&gt;AVK -->
<g id="edge39" class="edge">
<title>SAA&#45;&gt;AVK</title>
<path fill="none" stroke="gray" stroke-width="0.2" d="M374.72,-509.9C366.07,-530.1 348.21,-552.5 348.21,-552.5 348.21,-552.5 282.94,-787.11 240.6,-932.69"/>
<polygon fill="gray" stroke="gray" stroke-width="0.2" points="237.36,-931.28 237.92,-941.86 244.08,-933.23 237.36,-931.28"/>
</g>
<!-- SDQ&#45;&gt;AVK -->
<g id="edge40" class="edge">
<title>SDQ&#45;&gt;AVK</title>
<path fill="none" stroke="gray" stroke-width="2" d="M374.72,-430.9C366.07,-451.1 348.21,-473.5 348.21,-473.5 348.21,-473.5 278.92,-760.83 236.81,-928.23"/>
<polygon fill="gray" stroke="gray" stroke-width="2" points="233.43,-927.32 234.38,-937.88 240.21,-929.04 233.43,-927.32"/>
</g>
<!-- ADE -->
<g id="node27" class="node">
<title>ADE</title>
<ellipse fill="none" stroke="black" cx="30.11" cy="-1322" rx="29.11" ry="18"/>
<text text-anchor="middle" x="30.11" y="-1316.58" font-family="Times New Roman,serif" font-size="14.00">ADE</text>
</g>
<!-- ADE&#45;&gt;AVK -->
<g id="edge41" class="edge">
<title>ADE&#45;&gt;AVK</title>
<path fill="none" stroke="gray" stroke-width="0.2" d="M43.28,-1305.69C51.26,-1295 60.21,-1283 60.21,-1283 60.21,-1283 103.55,-1210.88 142.5,-1146.04"/>
<polygon fill="gray" stroke="gray" stroke-width="0.2" points="145.41,-1147.99 147.56,-1137.62 139.41,-1144.39 145.41,-1147.99"/>
</g>
<!-- AIZ -->
<g id="node28" class="node">
<title>AIZ</title>
<ellipse fill="none" stroke="black" cx="30.11" cy="-1243" rx="27" ry="18"/>
<text text-anchor="middle" x="30.11" y="-1237.58" font-family="Times New Roman,serif" font-size="14.00">AIZ</text>
</g>
<!-- AIZ&#45;&gt;AVK -->
<g id="edge42" class="edge">
<title>AIZ&#45;&gt;AVK</title>
<path fill="none" stroke="gray" stroke-width="5" d="M44.61,-1227.46C61.62,-1207.89 92.25,-1172.65 122.09,-1138.32"/>
<polygon fill="gray" stroke="gray" stroke-width="5" points="125.24,-1141.37 128.5,-1130.96 118.64,-1135.63 125.24,-1141.37"/>
</g>
<!-- AVF -->
<g id="node29" class="node">
<title>AVF</title>
<ellipse fill="none" stroke="black" cx="30.11" cy="-1164" rx="29.11" ry="18"/>
<text text-anchor="middle" x="30.11" y="-1158.58" font-family="Times New Roman,serif" font-size="14.00">AVF</text>
</g>
<!-- AVF&#45;&gt;AVK -->
<g id="edge43" class="edge">
<title>AVF&#45;&gt;AVK</title>
<path fill="none" stroke="gray" stroke-width="0.2" d="M50.18,-1150.81C64.38,-1140.99 84.95,-1126.77 106.43,-1111.92"/>
<polygon fill="gray" stroke="gray" stroke-width="0.2" points="108.21,-1114.94 114.45,-1106.38 104.23,-1109.18 108.21,-1114.94"/>
</g>
<!-- BDU -->
<g id="node30" class="node">
<title>BDU</title>
<ellipse fill="none" stroke="black" cx="30.11" cy="-1085" rx="29.61" ry="18"/>
<text text-anchor="middle" x="30.11" y="-1079.58" font-family="Times New Roman,serif" font-size="14.00">BDU</text>
</g>
<!-- BDU&#45;&gt;AVK -->
<g id="edge44" class="edge">
<title>BDU&#45;&gt;AVK</title>
<path fill="none" stroke="gray" stroke-width="0.2" d="M58.38,-1078.66C67.17,-1076.62 77.54,-1074.21 88.62,-1071.63"/>
<polygon fill="gray" stroke="gray" stroke-width="0.2" points="89.27,-1075.07 98.22,-1069.4 87.69,-1068.26 89.27,-1075.07"/>
</g>
<!-- DVA -->
<g id="node31" class="node">
<title>DVA</title>
<ellipse fill="none" stroke="black" cx="30.11" cy="-1006" rx="30.11" ry="18"/>
<text text-anchor="middle" x="30.11" y="-1000.58" font-family="Times New Roman,serif" font-size="14.00">DVA</text>
</g>
<!-- DVA&#45;&gt;AVK -->
<g id="edge45" class="edge">
<title>DVA&#45;&gt;AVK</title>
<path fill="none" stroke="gray" stroke-width="0.2" d="M58.76,-1012.27C67.5,-1014.25 77.77,-1016.57 88.74,-1019.06"/>
<polygon fill="gray" stroke="gray" stroke-width="0.2" points="87.71,-1022.41 98.23,-1021.21 89.25,-1015.59 87.71,-1022.41"/>
</g>
<!-- PVC -->
<g id="node32" class="node">
<title>PVC</title>
<ellipse fill="none" stroke="black" cx="30.11" cy="-927" rx="29.11" ry="18"/>
<text text-anchor="middle" x="30.11" y="-921.58" font-family="Times New Roman,serif" font-size="14.00">PVC</text>
</g>
<!-- PVC&#45;&gt;AVK -->
<g id="edge46" class="edge">
<title>PVC&#45;&gt;AVK</title>
<path fill="none" stroke="gray" stroke-width="0.2" d="M50.51,-940.31C64.64,-949.99 84.94,-963.91 106.14,-978.45"/>
<polygon fill="gray" stroke="gray" stroke-width="0.2" points="104.14,-981.32 114.37,-984.09 108.1,-975.55 104.14,-981.32"/>
</g>
<!-- PVP -->
<g id="node33" class="node">
<title>PVP</title>
<ellipse fill="none" stroke="black" cx="30.11" cy="-848" rx="28.11" ry="18"/>
<text text-anchor="middle" x="30.11" y="-842.58" font-family="Times New Roman,serif" font-size="14.00">PVP</text>
</g>
<!-- PVP&#45;&gt;AVK -->
<g id="edge47" class="edge">
<title>PVP&#45;&gt;AVK</title>
<path fill="none" stroke="gray" stroke-width="0.2" d="M44.9,-863.79C62.7,-884.16 95.05,-921.19 125.89,-956.49"/>
<polygon fill="gray" stroke="gray" stroke-width="0.2" points="123.03,-958.54 132.24,-963.77 128.3,-953.93 123.03,-958.54"/>
</g>
<!-- RIC -->
<g id="node34" class="node">
<title>RIC</title>
<ellipse fill="none" stroke="black" cx="30.11" cy="-769" rx="27" ry="18"/>
<text text-anchor="middle" x="30.11" y="-763.58" font-family="Times New Roman,serif" font-size="14.00">RIC</text>
</g>
<!-- RIC&#45;&gt;AVK -->
<g id="edge48" class="edge">
<title>RIC&#45;&gt;AVK</title>
<path fill="none" stroke="gray" stroke-width="0.2" d="M42.94,-785.27C51,-796.34 60.21,-809 60.21,-809 60.21,-809 103.25,-880.03 142.11,-944.15"/>
<polygon fill="gray" stroke="gray" stroke-width="0.2" points="138.98,-945.74 147.15,-952.48 144.96,-942.12 138.98,-945.74"/>
</g>
</g>
</svg>
