<?xml version="1.0" encoding="UTF-8" standalone="no"?>
<!DOCTYPE svg PUBLIC "-//W3C//DTD SVG 1.1//EN"
 "http://www.w3.org/Graphics/SVG/1.1/DTD/svg11.dtd">
<!-- Generated by graphviz version 11.0.0 (20240428.1522)
 -->
<!-- Pages: 1 -->
<svg width="415pt" height="992pt"
 viewBox="0.00 0.00 415.43 992.00" xmlns="http://www.w3.org/2000/svg" xmlns:xlink="http://www.w3.org/1999/xlink">
<g id="graph0" class="graph" transform="scale(1 1) rotate(0) translate(4 988)">
<polygon fill="white" stroke="none" points="-4,4 -4,-988 411.43,-988 411.43,4 -4,4"/>
<!-- AVL -->
<g id="node1" class="node">
<title>AVL</title>
<ellipse fill="none" stroke="black" cx="202.22" cy="-492" rx="108" ry="108"/>
<text text-anchor="middle" x="202.22" y="-473" font-family="Times New Roman,serif" font-size="50.00">AVL</text>
</g>
<!-- AQR -->
<g id="node2" class="node">
<title>AQR</title>
<ellipse fill="none" stroke="black" cx="376.82" cy="-966" rx="30.61" ry="18"/>
<text text-anchor="middle" x="376.82" y="-960.58" font-family="Times New Roman,serif" font-size="14.00">AQR</text>
</g>
<!-- AVL&#45;&gt;AQR -->
<g id="edge1" class="edge">
<title>AVL&#45;&gt;AQR</title>
<path fill="none" stroke="gray" stroke-width="0.2" d="M236.92,-594.54C279.2,-723.14 346.22,-927 346.22,-927 346.22,-927 351.34,-933.75 357.32,-941.63"/>
<polygon fill="gray" stroke="gray" stroke-width="0.2" points="354.42,-943.6 363.25,-949.45 360,-939.36 354.42,-943.6"/>
</g>
<!-- AVA -->
<g id="node3" class="node">
<title>AVA</title>
<ellipse fill="none" stroke="black" cx="376.82" cy="-887" rx="30.11" ry="18"/>
<text text-anchor="middle" x="376.82" y="-881.58" font-family="Times New Roman,serif" font-size="14.00">AVA</text>
</g>
<!-- AVL&#45;&gt;AVA -->
<g id="edge2" class="edge">
<title>AVL&#45;&gt;AVA</title>
<path fill="none" stroke="blue" stroke-width="2" d="M243.43,-592.11C285.73,-697.41 346.22,-848 346.22,-848 346.22,-848 350.52,-853.67 355.85,-860.69"/>
<polygon fill="blue" stroke="blue" stroke-width="2" points="352.77,-862.43 361.61,-868.28 358.35,-858.19 352.77,-862.43"/>
</g>
<!-- AVE -->
<g id="node4" class="node">
<title>AVE</title>
<ellipse fill="none" stroke="black" cx="376.82" cy="-808" rx="29.11" ry="18"/>
<text text-anchor="middle" x="376.82" y="-802.58" font-family="Times New Roman,serif" font-size="14.00">AVE</text>
</g>
<!-- AVL&#45;&gt;AVE -->
<g id="edge3" class="edge">
<title>AVL&#45;&gt;AVE</title>
<path fill="none" stroke="gray" stroke-width="nan" d="M252.63,-587.72C293.96,-667.78 346.22,-769 346.22,-769 346.22,-769 355.33,-781 363.44,-791.69"/>
<polygon fill="gray" stroke="gray" stroke-width="nan" points="nan,-nan nan,-nan nan,-nan nan,-nan"/>
</g>
<!-- AVK -->
<g id="node5" class="node">
<title>AVK</title>
<ellipse fill="none" stroke="black" cx="376.82" cy="-729" rx="30.11" ry="18"/>
<text text-anchor="middle" x="376.82" y="-723.58" font-family="Times New Roman,serif" font-size="14.00">AVK</text>
</g>
<!-- AVL&#45;&gt;AVK -->
<g id="edge4" class="edge">
<title>AVL&#45;&gt;AVK</title>
<path fill="none" stroke="gray" stroke-width="nan" d="M274.93,-572.46C310.61,-619.19 346.22,-668.5 346.22,-668.5 346.22,-668.5 363.22,-690.9 371.45,-711.1"/>
<polygon fill="gray" stroke="gray" stroke-width="nan" points="nan,-nan nan,-nan nan,-nan nan,-nan"/>
</g>
<!-- DVC -->
<g id="node6" class="node">
<title>DVC</title>
<ellipse fill="none" stroke="black" cx="376.82" cy="-650" rx="30.11" ry="18"/>
<text text-anchor="middle" x="376.82" y="-644.58" font-family="Times New Roman,serif" font-size="14.00">DVC</text>
</g>
<!-- AVL&#45;&gt;DVC -->
<g id="edge5" class="edge">
<title>AVL&#45;&gt;DVC</title>
<path fill="none" stroke="gray" stroke-width="nan" d="M290.02,-555.34C320.41,-583.19 350.72,-613.62 365.87,-632.85"/>
<polygon fill="gray" stroke="gray" stroke-width="nan" points="nan,-nan nan,-nan nan,-nan nan,-nan"/>
</g>
<!-- PVP -->
<g id="node7" class="node">
<title>PVP</title>
<ellipse fill="none" stroke="black" cx="376.82" cy="-571" rx="28.11" ry="18"/>
<text text-anchor="middle" x="376.82" y="-565.58" font-family="Times New Roman,serif" font-size="14.00">PVP</text>
</g>
<!-- AVL&#45;&gt;PVP -->
<g id="edge6" class="edge">
<title>AVL&#45;&gt;PVP</title>
<path fill="none" stroke="gray" stroke-width="0.2" d="M300.87,-536.69C316.55,-543.87 331.72,-550.82 344.27,-556.56"/>
<polygon fill="gray" stroke="gray" stroke-width="0.2" points="342.49,-559.59 353.04,-560.57 345.4,-553.23 342.49,-559.59"/>
</g>
<!-- PVT -->
<g id="node8" class="node">
<title>PVT</title>
<ellipse fill="none" stroke="black" cx="376.82" cy="-492" rx="28.61" ry="18"/>
<text text-anchor="middle" x="376.82" y="-486.57" font-family="Times New Roman,serif" font-size="14.00">PVT</text>
</g>
<!-- AVL&#45;&gt;PVT -->
<g id="edge7" class="edge">
<title>AVL&#45;&gt;PVT</title>
<path fill="none" stroke="gray" stroke-width="5" d="M309.09,-476.25C319.25,-476.64 329.02,-477.35 337.81,-478.37"/>
<polygon fill="gray" stroke="gray" stroke-width="5" points="337.1,-482.69 347.64,-479.87 338.42,-474.04 337.1,-482.69"/>
</g>
<!-- RIB -->
<g id="node9" class="node">
<title>RIB</title>
<ellipse fill="none" stroke="black" cx="376.82" cy="-413" rx="27" ry="18"/>
<text text-anchor="middle" x="376.82" y="-407.57" font-family="Times New Roman,serif" font-size="14.00">RIB</text>
</g>
<!-- AVL&#45;&gt;RIB -->
<g id="edge8" class="edge">
<title>AVL&#45;&gt;RIB</title>
<path fill="none" stroke="gray" stroke-width="0.2" d="M300.87,-447.31C316.79,-440.02 332.19,-432.97 344.85,-427.18"/>
<polygon fill="gray" stroke="gray" stroke-width="0.2" points="346.04,-430.48 353.68,-423.13 343.13,-424.11 346.04,-430.48"/>
</g>
<!-- RIG -->
<g id="node10" class="node">
<title>RIG</title>
<ellipse fill="none" stroke="black" cx="376.82" cy="-334" rx="27.11" ry="18"/>
<text text-anchor="middle" x="376.82" y="-328.57" font-family="Times New Roman,serif" font-size="14.00">RIG</text>
</g>
<!-- AVL&#45;&gt;RIG -->
<g id="edge9" class="edge">
<title>AVL&#45;&gt;RIG</title>
<path fill="none" stroke="gray" stroke-width="2" d="M282.7,-419.24C307.22,-396.8 332.48,-373.67 350.49,-357.18"/>
<polygon fill="gray" stroke="gray" stroke-width="2" points="352.71,-359.9 357.72,-350.57 347.98,-354.74 352.71,-359.9"/>
</g>
<!-- RIM -->
<g id="node11" class="node">
<title>RIM</title>
<ellipse fill="none" stroke="black" cx="376.82" cy="-255" rx="28.11" ry="18"/>
<text text-anchor="middle" x="376.82" y="-249.57" font-family="Times New Roman,serif" font-size="14.00">RIM</text>
</g>
<!-- AVL&#45;&gt;RIM -->
<g id="edge10" class="edge">
<title>AVL&#45;&gt;RIM</title>
<path fill="none" stroke="gray" stroke-width="0.2" d="M266.35,-404.58C304.66,-351.54 346.22,-294 346.22,-294 346.22,-294 351.34,-287.25 357.32,-279.37"/>
<polygon fill="gray" stroke="gray" stroke-width="0.2" points="360,-281.64 363.25,-271.55 354.42,-277.4 360,-281.64"/>
</g>
<!-- RIS -->
<g id="node12" class="node">
<title>RIS</title>
<ellipse fill="none" stroke="black" cx="376.82" cy="-176" rx="27" ry="18"/>
<text text-anchor="middle" x="376.82" y="-170.57" font-family="Times New Roman,serif" font-size="14.00">RIS</text>
</g>
<!-- AVL&#45;&gt;RIS -->
<g id="edge11" class="edge">
<title>AVL&#45;&gt;RIS</title>
<path fill="none" stroke="red" stroke-width="0.2" d="M246.12,-392.94C288.24,-305.8 346.22,-193.5 346.22,-193.5 346.22,-193.5 346.4,-193.26 346.73,-192.83"/>
<polygon fill="red" stroke="red" stroke-width="0.2" points="349.24,-195.29 352.89,-185.34 343.83,-190.84 349.24,-195.29"/>
</g>
<!-- RME -->
<g id="node13" class="node">
<title>RME</title>
<ellipse fill="none" stroke="black" cx="376.82" cy="-97" rx="30.61" ry="18"/>
<text text-anchor="middle" x="376.82" y="-91.58" font-family="Times New Roman,serif" font-size="14.00">RME</text>
</g>
<!-- AVL&#45;&gt;RME -->
<g id="edge12" class="edge">
<title>AVL&#45;&gt;RME</title>
<path fill="none" stroke="gray" stroke-width="0.2" d="M243.43,-391.89C285.73,-286.59 346.22,-136 346.22,-136 346.22,-136 351.34,-129.25 357.32,-121.37"/>
<polygon fill="gray" stroke="gray" stroke-width="0.2" points="360,-123.64 363.25,-113.55 354.42,-119.4 360,-123.64"/>
</g>
<!-- URY -->
<g id="node14" class="node">
<title>URY</title>
<ellipse fill="none" stroke="black" cx="376.82" cy="-18" rx="30.11" ry="18"/>
<text text-anchor="middle" x="376.82" y="-12.57" font-family="Times New Roman,serif" font-size="14.00">URY</text>
</g>
<!-- AVL&#45;&gt;URY -->
<g id="edge13" class="edge">
<title>AVL&#45;&gt;URY</title>
<path fill="none" stroke="gray" stroke-width="0.2" d="M232.85,-387.97C270.23,-267.46 331.2,-81.27 347.93,-37.65"/>
<polygon fill="gray" stroke="gray" stroke-width="0.2" points="351.02,-39.3 351.8,-28.74 344.6,-36.51 351.02,-39.3"/>
</g>
<!-- AVK&#45;&gt;AVL -->
<g id="edge14" class="edge">
<title>AVK&#45;&gt;AVL</title>
<path fill="none" stroke="gray" stroke-width="2" d="M351.92,-718.54C348.56,-714.58 346.22,-711.5 346.22,-711.5 346.22,-711.5 303.72,-652.65 265.05,-595.64"/>
<polygon fill="gray" stroke="gray" stroke-width="2" points="268.08,-593.87 259.58,-587.54 262.28,-597.78 268.08,-593.87"/>
</g>
<!-- DVC&#45;&gt;AVL -->
<g id="edge15" class="edge">
<title>DVC&#45;&gt;AVL</title>
<path fill="none" stroke="gray" stroke-width="0.2" d="M351.84,-639.62C333.37,-626.12 306.74,-603.24 281.11,-579.36"/>
<polygon fill="gray" stroke="gray" stroke-width="0.2" points="283.83,-577.11 274.14,-572.82 279.04,-582.21 283.83,-577.11"/>
</g>
<!-- PVT&#45;&gt;AVL -->
<g id="edge16" class="edge">
<title>PVT&#45;&gt;AVL</title>
<path fill="none" stroke="gray" stroke-width="5" d="M353.81,-503.19C345.75,-504.79 335.95,-506 325.27,-506.83"/>
<polygon fill="gray" stroke="gray" stroke-width="5" points="325.05,-502.46 315.31,-507.39 325.55,-511.19 325.05,-502.46"/>
</g>
<!-- RIS&#45;&gt;AVL -->
<g id="edge17" class="edge">
<title>RIS&#45;&gt;AVL</title>
<path fill="none" stroke="gray" stroke-width="2" d="M371.45,-193.9C363.22,-214.1 346.22,-236.5 346.22,-236.5 346.22,-236.5 304.31,-317.68 265.87,-388.73"/>
<polygon fill="gray" stroke="gray" stroke-width="2" points="262.87,-386.91 261.18,-397.37 269.02,-390.25 262.87,-386.91"/>
</g>
<!-- URY&#45;&gt;AVL -->
<g id="edge18" class="edge">
<title>URY&#45;&gt;AVL</title>
<path fill="none" stroke="gray" stroke-width="0.2" d="M371.45,-35.9C363.22,-56.1 346.22,-78.5 346.22,-78.5 346.22,-78.5 286.93,-258.84 244.71,-381.55"/>
<polygon fill="gray" stroke="gray" stroke-width="0.2" points="241.49,-380.13 241.54,-390.73 248.11,-382.41 241.49,-380.13"/>
</g>
<!-- ADE -->
<g id="node15" class="node">
<title>ADE</title>
<ellipse fill="none" stroke="black" cx="29.11" cy="-532" rx="29.11" ry="18"/>
<text text-anchor="middle" x="29.11" y="-526.58" font-family="Times New Roman,serif" font-size="14.00">ADE</text>
</g>
<!-- ADE&#45;&gt;AVL -->
<g id="edge19" class="edge">
<title>ADE&#45;&gt;AVL</title>
<path fill="none" stroke="gray" stroke-width="0.2" d="M56.84,-525.75C65.57,-523.71 75.87,-521.3 86.9,-518.72"/>
<polygon fill="gray" stroke="gray" stroke-width="0.2" points="87.52,-522.17 96.46,-516.49 85.92,-515.36 87.52,-522.17"/>
</g>
<!-- IL1 -->
<g id="node16" class="node">
<title>IL1</title>
<ellipse fill="none" stroke="black" cx="29.11" cy="-453" rx="27" ry="18"/>
<text text-anchor="middle" x="29.11" y="-447.57" font-family="Times New Roman,serif" font-size="14.00">IL1</text>
</g>
<!-- IL1&#45;&gt;AVL -->
<g id="edge20" class="edge">
<title>IL1&#45;&gt;AVL</title>
<path fill="none" stroke="gray" stroke-width="0.2" d="M54.99,-458.67C64.04,-460.73 74.96,-463.22 86.7,-465.9"/>
<polygon fill="gray" stroke="gray" stroke-width="0.2" points="85.92,-469.31 96.44,-468.12 87.47,-462.48 85.92,-469.31"/>
</g>
</g>
</svg>
