<?xml version="1.0" encoding="UTF-8" standalone="no"?>
<!DOCTYPE svg PUBLIC "-//W3C//DTD SVG 1.1//EN"
 "http://www.w3.org/Graphics/SVG/1.1/DTD/svg11.dtd">
<!-- Generated by graphviz version 11.0.0 (20240428.1522)
 -->
<!-- Pages: 1 -->
<svg width="419pt" height="1150pt"
 viewBox="0.00 0.00 419.42 1150.00" xmlns="http://www.w3.org/2000/svg" xmlns:xlink="http://www.w3.org/1999/xlink">
<g id="graph0" class="graph" transform="scale(1 1) rotate(0) translate(4 1146)">
<polygon fill="white" stroke="none" points="-4,4 -4,-1146 415.42,-1146 415.42,4 -4,4"/>
<!-- AVM -->
<g id="node1" class="node">
<title>AVM</title>
<ellipse fill="none" stroke="black" cx="203.21" cy="-689" rx="108" ry="108"/>
<text text-anchor="middle" x="203.21" y="-670" font-family="Times New Roman,serif" font-size="50.00">AVM</text>
</g>
<!-- ALM -->
<g id="node2" class="node">
<title>ALM</title>
<ellipse fill="none" stroke="black" cx="379.32" cy="-1124" rx="30.61" ry="18"/>
<text text-anchor="middle" x="379.32" y="-1118.58" font-family="Times New Roman,serif" font-size="14.00">ALM</text>
</g>
<!-- AVM&#45;&gt;ALM -->
<g id="edge1" class="edge">
<title>AVM&#45;&gt;ALM</title>
<path fill="none" stroke="gray" stroke-width="0.2" d="M245.86,-788.56C288.08,-899.74 347.21,-1063.5 347.21,-1063.5 347.21,-1063.5 360.17,-1079.74 369.35,-1097.04"/>
<polygon fill="gray" stroke="gray" stroke-width="0.2" points="366.1,-1098.34 373.6,-1105.83 372.4,-1095.3 366.1,-1098.34"/>
</g>
<!-- AVB -->
<g id="node3" class="node">
<title>AVB</title>
<ellipse fill="none" stroke="black" cx="379.32" cy="-1045" rx="29.61" ry="18"/>
<text text-anchor="middle" x="379.32" y="-1039.58" font-family="Times New Roman,serif" font-size="14.00">AVB</text>
</g>
<!-- AVM&#45;&gt;AVB -->
<g id="edge2" class="edge">
<title>AVM&#45;&gt;AVB</title>
<path fill="none" stroke="red" stroke-width="5" d="M248.48,-787.13C290.48,-880.23 347.21,-1006 347.21,-1006 347.21,-1006 350.77,-1010.46 355.47,-1016.36"/>
<polygon fill="red" stroke="red" stroke-width="5" points="351.76,-1018.72 361.42,-1023.81 358.6,-1013.26 351.76,-1018.72"/>
</g>
<!-- AVD -->
<g id="node4" class="node">
<title>AVD</title>
<ellipse fill="none" stroke="black" cx="379.32" cy="-966" rx="30.11" ry="18"/>
<text text-anchor="middle" x="379.32" y="-960.58" font-family="Times New Roman,serif" font-size="14.00">AVD</text>
</g>
<!-- AVM&#45;&gt;AVD -->
<g id="edge3" class="edge">
<title>AVM&#45;&gt;AVD</title>
<path fill="none" stroke="red" stroke-width="0.2" d="M259.71,-781.36C299.9,-848.26 347.21,-927 347.21,-927 347.21,-927 352.6,-933.75 358.88,-941.63"/>
<polygon fill="red" stroke="red" stroke-width="0.2" points="356.15,-943.81 365.12,-949.45 361.62,-939.45 356.15,-943.81"/>
</g>
<!-- AVH -->
<g id="node5" class="node">
<title>AVH</title>
<ellipse fill="none" stroke="black" cx="379.32" cy="-887" rx="30.11" ry="18"/>
<text text-anchor="middle" x="379.32" y="-881.58" font-family="Times New Roman,serif" font-size="14.00">AVH</text>
</g>
<!-- AVM&#45;&gt;AVH -->
<g id="edge4" class="edge">
<title>AVM&#45;&gt;AVH</title>
<path fill="none" stroke="gray" stroke-width="0.2" d="M282.86,-762.38C313.65,-796.91 345.86,-835.76 363.88,-861.19"/>
<polygon fill="gray" stroke="gray" stroke-width="0.2" points="360.93,-863.07 369.47,-869.34 366.7,-859.11 360.93,-863.07"/>
</g>
<!-- AVJ -->
<g id="node6" class="node">
<title>AVJ</title>
<ellipse fill="none" stroke="black" cx="379.32" cy="-808" rx="27.11" ry="18"/>
<text text-anchor="middle" x="379.32" y="-802.58" font-family="Times New Roman,serif" font-size="14.00">AVJ</text>
</g>
<!-- AVM&#45;&gt;AVJ -->
<g id="edge5" class="edge">
<title>AVM&#45;&gt;AVJ</title>
<path fill="none" stroke="red" stroke-width="5" d="M299.67,-738.19C320.29,-752.61 340.27,-767.81 354.93,-780.6"/>
<polygon fill="red" stroke="red" stroke-width="5" points="351.89,-783.74 362.19,-787.33 357.83,-777.32 351.89,-783.74"/>
</g>
<!-- BDU -->
<g id="node7" class="node">
<title>BDU</title>
<ellipse fill="none" stroke="black" cx="379.32" cy="-729" rx="29.61" ry="18"/>
<text text-anchor="middle" x="379.32" y="-723.58" font-family="Times New Roman,serif" font-size="14.00">BDU</text>
</g>
<!-- AVM&#45;&gt;BDU -->
<g id="edge6" class="edge">
<title>AVM&#45;&gt;BDU</title>
<path fill="none" stroke="red" stroke-width="2" d="M311,-697.78C324.76,-701.48 337.83,-705.57 348.73,-709.73"/>
<polygon fill="red" stroke="red" stroke-width="2" points="347.06,-712.83 357.64,-713.46 349.76,-706.37 347.06,-712.83"/>
</g>
<!-- DBn -->
<g id="node8" class="node">
<title>DBn</title>
<ellipse fill="none" stroke="black" cx="379.32" cy="-650" rx="27.61" ry="18"/>
<text text-anchor="middle" x="379.32" y="-644.58" font-family="Times New Roman,serif" font-size="14.00">DBn</text>
</g>
<!-- AVM&#45;&gt;DBn -->
<g id="edge7" class="edge">
<title>AVM&#45;&gt;DBn</title>
<path fill="none" stroke="gray" stroke-width="2" d="M309.01,-665.53C320.07,-663.05 330.73,-660.66 340.24,-658.53"/>
<polygon fill="gray" stroke="gray" stroke-width="2" points="340.89,-661.97 349.88,-656.37 339.36,-655.14 340.89,-661.97"/>
</g>
<!-- FLP -->
<g id="node9" class="node">
<title>FLP</title>
<ellipse fill="none" stroke="black" cx="379.32" cy="-571" rx="27.11" ry="18"/>
<text text-anchor="middle" x="379.32" y="-565.58" font-family="Times New Roman,serif" font-size="14.00">FLP</text>
</g>
<!-- AVM&#45;&gt;FLP -->
<g id="edge8" class="edge">
<title>AVM&#45;&gt;FLP</title>
<path fill="none" stroke="gray" stroke-width="0.2" d="M293.31,-628.62C314.48,-614.26 335.5,-600.02 351.34,-589.29"/>
<polygon fill="gray" stroke="gray" stroke-width="0.2" points="353.01,-592.38 359.32,-583.87 349.08,-586.59 353.01,-592.38"/>
</g>
<!-- PVC -->
<g id="node10" class="node">
<title>PVC</title>
<ellipse fill="none" stroke="black" cx="379.32" cy="-492" rx="29.11" ry="18"/>
<text text-anchor="middle" x="379.32" y="-486.57" font-family="Times New Roman,serif" font-size="14.00">PVC</text>
</g>
<!-- AVM&#45;&gt;PVC -->
<g id="edge9" class="edge">
<title>AVM&#45;&gt;PVC</title>
<path fill="none" stroke="red" stroke-width="5" d="M275.53,-608.3C303.45,-576.71 333.6,-542.59 353.98,-519.54"/>
<polygon fill="red" stroke="red" stroke-width="5" points="357.02,-522.71 360.36,-512.32 350.46,-516.91 357.02,-522.71"/>
</g>
<!-- PVN -->
<g id="node11" class="node">
<title>PVN</title>
<ellipse fill="none" stroke="black" cx="379.32" cy="-413" rx="29.11" ry="18"/>
<text text-anchor="middle" x="379.32" y="-407.57" font-family="Times New Roman,serif" font-size="14.00">PVN</text>
</g>
<!-- AVM&#45;&gt;PVN -->
<g id="edge10" class="edge">
<title>AVM&#45;&gt;PVN</title>
<path fill="none" stroke="red" stroke-width="0.2" d="M252.43,-592.48C293.94,-518.79 347.21,-430.5 347.21,-430.5 347.21,-430.5 347.39,-430.27 347.73,-429.87"/>
<polygon fill="red" stroke="red" stroke-width="0.2" points="350.04,-432.54 353.92,-422.68 344.74,-427.97 350.04,-432.54"/>
</g>
<!-- RIC -->
<g id="node12" class="node">
<title>RIC</title>
<ellipse fill="none" stroke="black" cx="379.32" cy="-334" rx="27" ry="18"/>
<text text-anchor="middle" x="379.32" y="-328.57" font-family="Times New Roman,serif" font-size="14.00">RIC</text>
</g>
<!-- AVM&#45;&gt;RIC -->
<g id="edge11" class="edge">
<title>AVM&#45;&gt;RIC</title>
<path fill="none" stroke="blue" stroke-width="2" d="M248.68,-590.75C290.65,-497.99 347.21,-373 347.21,-373 347.21,-373 351.87,-367.17 357.57,-360.01"/>
<polygon fill="blue" stroke="blue" stroke-width="2" points="360.28,-362.23 363.78,-352.23 354.81,-357.87 360.28,-362.23"/>
</g>
<!-- RID -->
<g id="node13" class="node">
<title>RID</title>
<ellipse fill="none" stroke="black" cx="379.32" cy="-255" rx="27" ry="18"/>
<text text-anchor="middle" x="379.32" y="-249.57" font-family="Times New Roman,serif" font-size="14.00">RID</text>
</g>
<!-- AVM&#45;&gt;RID -->
<g id="edge12" class="edge">
<title>AVM&#45;&gt;RID</title>
<path fill="none" stroke="gray" stroke-width="0.2" d="M240.95,-587.53C283.32,-470.5 347.21,-294 347.21,-294 347.21,-294 352.87,-286.91 359.35,-278.78"/>
<polygon fill="gray" stroke="gray" stroke-width="0.2" points="361.98,-281.1 365.48,-271.1 356.51,-276.74 361.98,-281.1"/>
</g>
<!-- RME -->
<g id="node14" class="node">
<title>RME</title>
<ellipse fill="none" stroke="black" cx="379.32" cy="-176" rx="30.61" ry="18"/>
<text text-anchor="middle" x="379.32" y="-170.57" font-family="Times New Roman,serif" font-size="14.00">RME</text>
</g>
<!-- AVM&#45;&gt;RME -->
<g id="edge13" class="edge">
<title>AVM&#45;&gt;RME</title>
<path fill="none" stroke="gray" stroke-width="0.2" d="M235.42,-585.56C277.5,-446.09 347.21,-215 347.21,-215 347.21,-215 352.6,-208.25 358.88,-200.37"/>
<polygon fill="gray" stroke="gray" stroke-width="0.2" points="361.62,-202.55 365.12,-192.55 356.15,-198.19 361.62,-202.55"/>
</g>
<!-- RMG -->
<g id="node15" class="node">
<title>RMG</title>
<ellipse fill="none" stroke="black" cx="379.32" cy="-97" rx="32.1" ry="18"/>
<text text-anchor="middle" x="379.32" y="-91.58" font-family="Times New Roman,serif" font-size="14.00">RMG</text>
</g>
<!-- AVM&#45;&gt;RMG -->
<g id="edge14" class="edge">
<title>AVM&#45;&gt;RMG</title>
<path fill="none" stroke="gray" stroke-width="0.2" d="M231.28,-584.33C272.74,-424.01 347.21,-136 347.21,-136 347.21,-136 352.6,-129.25 358.88,-121.37"/>
<polygon fill="gray" stroke="gray" stroke-width="0.2" points="361.62,-123.55 365.12,-113.55 356.15,-119.19 361.62,-123.55"/>
</g>
<!-- SIB -->
<g id="node16" class="node">
<title>SIB</title>
<ellipse fill="none" stroke="black" cx="379.32" cy="-18" rx="27" ry="18"/>
<text text-anchor="middle" x="379.32" y="-12.57" font-family="Times New Roman,serif" font-size="14.00">SIB</text>
</g>
<!-- AVM&#45;&gt;SIB -->
<g id="edge15" class="edge">
<title>AVM&#45;&gt;SIB</title>
<path fill="none" stroke="gray" stroke-width="0.2" d="M228.07,-583.57C268.75,-403.76 347.21,-57 347.21,-57 347.21,-57 352.87,-49.91 359.35,-41.78"/>
<polygon fill="gray" stroke="gray" stroke-width="0.2" points="361.98,-44.1 365.48,-34.1 356.51,-39.74 361.98,-44.1"/>
</g>
<!-- ALM&#45;&gt;AVM -->
<g id="edge16" class="edge">
<title>ALM&#45;&gt;AVM</title>
<path fill="none" stroke="gray" stroke-width="0.2" d="M353.51,-1113.87C349.81,-1109.76 347.21,-1106.5 347.21,-1106.5 347.21,-1106.5 281.91,-925.67 239.57,-801.77"/>
<polygon fill="gray" stroke="gray" stroke-width="0.2" points="242.94,-800.83 236.4,-792.49 236.32,-803.08 242.94,-800.83"/>
</g>
<!-- AVH&#45;&gt;AVM -->
<g id="edge17" class="edge">
<title>AVH&#45;&gt;AVM</title>
<path fill="none" stroke="gray" stroke-width="0.2" d="M357.57,-874.31C336.84,-855.04 303.8,-819.11 273.69,-783.84"/>
<polygon fill="gray" stroke="gray" stroke-width="0.2" points="276.65,-781.92 267.51,-776.56 271.31,-786.45 276.65,-781.92"/>
</g>
<!-- AVJ&#45;&gt;AVM -->
<g id="edge18" class="edge">
<title>AVJ&#45;&gt;AVM</title>
<path fill="none" stroke="red" stroke-width="0.2" d="M353.11,-802.52C337.09,-794.4 315.29,-780.95 293.31,-766.02"/>
<polygon fill="red" stroke="red" stroke-width="0.2" points="295.37,-763.19 285.14,-760.4 291.4,-768.95 295.37,-763.19"/>
</g>
<!-- BDU&#45;&gt;AVM -->
<g id="edge19" class="edge">
<title>BDU&#45;&gt;AVM</title>
<path fill="none" stroke="gray" stroke-width="0.2" d="M350.82,-734.82C340.34,-734.13 327.65,-732.37 314.17,-729.88"/>
<polygon fill="gray" stroke="gray" stroke-width="0.2" points="315.01,-726.48 304.53,-728 313.67,-733.35 315.01,-726.48"/>
</g>
<!-- PVN&#45;&gt;AVM -->
<g id="edge20" class="edge">
<title>PVN&#45;&gt;AVM</title>
<path fill="none" stroke="gray" stroke-width="0.2" d="M373.73,-430.9C365.08,-451.1 347.21,-473.5 347.21,-473.5 347.21,-473.5 309.74,-535.61 273.16,-593.36"/>
<polygon fill="gray" stroke="gray" stroke-width="0.2" points="270.34,-591.26 267.93,-601.58 276.25,-595.02 270.34,-591.26"/>
</g>
<!-- AVF -->
<g id="node17" class="node">
<title>AVF</title>
<ellipse fill="none" stroke="black" cx="29.61" cy="-768" rx="29.11" ry="18"/>
<text text-anchor="middle" x="29.61" y="-762.58" font-family="Times New Roman,serif" font-size="14.00">AVF</text>
</g>
<!-- AVF&#45;&gt;AVM -->
<g id="edge21" class="edge">
<title>AVF&#45;&gt;AVM</title>
<path fill="none" stroke="gray" stroke-width="0.2" d="M53.75,-757.35C65.15,-752.1 79.78,-745.36 95.41,-738.17"/>
<polygon fill="gray" stroke="gray" stroke-width="0.2" points="96.81,-741.37 104.43,-734.01 93.89,-735.02 96.81,-741.37"/>
</g>
<!-- HSN -->
<g id="node18" class="node">
<title>HSN</title>
<ellipse fill="none" stroke="black" cx="29.61" cy="-689" rx="29.11" ry="18"/>
<text text-anchor="middle" x="29.61" y="-683.58" font-family="Times New Roman,serif" font-size="14.00">HSN</text>
</g>
<!-- HSN&#45;&gt;AVM -->
<g id="edge22" class="edge">
<title>HSN&#45;&gt;AVM</title>
<path fill="none" stroke="gray" stroke-width="0.2" d="M58.94,-689C66.65,-689 75.49,-689 84.92,-689"/>
<polygon fill="gray" stroke="gray" stroke-width="0.2" points="84.64,-692.5 94.64,-689 84.64,-685.5 84.64,-692.5"/>
</g>
<!-- PVQ -->
<g id="node19" class="node">
<title>PVQ</title>
<ellipse fill="none" stroke="black" cx="29.61" cy="-610" rx="29.61" ry="18"/>
<text text-anchor="middle" x="29.61" y="-604.58" font-family="Times New Roman,serif" font-size="14.00">PVQ</text>
</g>
<!-- PVQ&#45;&gt;AVM -->
<g id="edge23" class="edge">
<title>PVQ&#45;&gt;AVM</title>
<path fill="none" stroke="gray" stroke-width="0.2" d="M53.75,-620.65C65.15,-625.9 79.78,-632.64 95.41,-639.83"/>
<polygon fill="gray" stroke="gray" stroke-width="0.2" points="93.89,-642.98 104.43,-643.99 96.81,-636.63 93.89,-642.98"/>
</g>
</g>
</svg>
