<?xml version="1.0" encoding="UTF-8" standalone="no"?>
<!DOCTYPE svg PUBLIC "-//W3C//DTD SVG 1.1//EN"
 "http://www.w3.org/Graphics/SVG/1.1/DTD/svg11.dtd">
<!-- Generated by graphviz version 11.0.0 (20240428.1522)
 -->
<!-- Pages: 1 -->
<svg width="419pt" height="2256pt"
 viewBox="0.00 0.00 419.42 2256.00" xmlns="http://www.w3.org/2000/svg" xmlns:xlink="http://www.w3.org/1999/xlink">
<g id="graph0" class="graph" transform="scale(1 1) rotate(0) translate(4 2252)">
<polygon fill="white" stroke="none" points="-4,4 -4,-2252 415.42,-2252 415.42,4 -4,4"/>
<!-- AWA -->
<g id="node1" class="node">
<title>AWA</title>
<ellipse fill="none" stroke="black" cx="202.22" cy="-1242" rx="108" ry="108"/>
<text text-anchor="middle" x="202.22" y="-1223" font-family="Times New Roman,serif" font-size="50.00">AWA</text>
</g>
<!-- AWA&#45;&gt;AWA -->
<g id="edge1" class="edge">
<title>AWA&#45;&gt;AWA</title>
<path fill="none" stroke="gray" stroke-width="2" d="M170.07,-1345.39C171.97,-1372.51 182.69,-1393 202.22,-1393 218.54,-1393 228.7,-1378.68 232.71,-1358.14"/>
<polygon fill="gray" stroke="gray" stroke-width="2" points="236.16,-1358.76 233.98,-1348.4 229.22,-1357.86 236.16,-1358.76"/>
</g>
<!-- ADA -->
<g id="node2" class="node">
<title>ADA</title>
<ellipse fill="none" stroke="black" cx="378.82" cy="-2230" rx="30.11" ry="18"/>
<text text-anchor="middle" x="378.82" y="-2224.57" font-family="Times New Roman,serif" font-size="14.00">ADA</text>
</g>
<!-- AWA&#45;&gt;ADA -->
<g id="edge2" class="edge">
<title>AWA&#45;&gt;ADA</title>
<path fill="none" stroke="gray" stroke-width="0.2" d="M220.97,-1348.49C259.26,-1592.45 346.22,-2169.5 346.22,-2169.5 346.22,-2169.5 359.38,-2185.74 368.71,-2203.04"/>
<polygon fill="gray" stroke="gray" stroke-width="0.2" points="365.48,-2204.39 373.02,-2211.83 371.76,-2201.31 365.48,-2204.39"/>
</g>
<!-- ADF -->
<g id="node3" class="node">
<title>ADF</title>
<ellipse fill="none" stroke="black" cx="378.82" cy="-2151" rx="29.11" ry="18"/>
<text text-anchor="middle" x="378.82" y="-2145.57" font-family="Times New Roman,serif" font-size="14.00">ADF</text>
</g>
<!-- AWA&#45;&gt;ADF -->
<g id="edge3" class="edge">
<title>AWA&#45;&gt;ADF</title>
<path fill="none" stroke="gray" stroke-width="5" d="M222.65,-1348.5C261.75,-1576.61 346.22,-2090.5 346.22,-2090.5 346.22,-2090.5 356.85,-2103.63 365.79,-2118.85"/>
<polygon fill="gray" stroke="gray" stroke-width="5" points="361.81,-2120.69 370.29,-2127.56 369.58,-2116.67 361.81,-2120.69"/>
</g>
<!-- ADL -->
<g id="node4" class="node">
<title>ADL</title>
<ellipse fill="none" stroke="black" cx="378.82" cy="-2072" rx="29.11" ry="18"/>
<text text-anchor="middle" x="378.82" y="-2066.57" font-family="Times New Roman,serif" font-size="14.00">ADL</text>
</g>
<!-- AWA&#45;&gt;ADL -->
<g id="edge4" class="edge">
<title>AWA&#45;&gt;ADL</title>
<path fill="none" stroke="gray" stroke-width="2" d="M224.55,-1347.8C264.41,-1559 346.22,-2011.5 346.22,-2011.5 346.22,-2011.5 358.2,-2026.29 367.4,-2042.67"/>
<polygon fill="gray" stroke="gray" stroke-width="2" points="364.17,-2044.04 371.79,-2051.4 370.43,-2040.89 364.17,-2044.04"/>
</g>
<!-- AFD -->
<g id="node5" class="node">
<title>AFD</title>
<ellipse fill="none" stroke="black" cx="378.82" cy="-1993" rx="29.11" ry="18"/>
<text text-anchor="middle" x="378.82" y="-1987.58" font-family="Times New Roman,serif" font-size="14.00">AFD</text>
</g>
<!-- AWA&#45;&gt;AFD -->
<g id="edge5" class="edge">
<title>AWA&#45;&gt;AFD</title>
<path fill="none" stroke="red" stroke-width="5" d="M224.47,-1347.82C264.31,-1546.17 346.22,-1954 346.22,-1954 346.22,-1954 349.93,-1958.58 354.81,-1964.61"/>
<polygon fill="red" stroke="red" stroke-width="5" points="351.34,-1967.28 361.04,-1972.29 358.14,-1961.77 351.34,-1967.28"/>
</g>
<!-- AIA -->
<g id="node6" class="node">
<title>AIA</title>
<ellipse fill="none" stroke="black" cx="378.82" cy="-1914" rx="27" ry="18"/>
<text text-anchor="middle" x="378.82" y="-1908.58" font-family="Times New Roman,serif" font-size="14.00">AIA</text>
</g>
<!-- AWA&#45;&gt;AIA -->
<g id="edge6" class="edge">
<title>AWA&#45;&gt;AIA</title>
<path fill="none" stroke="gray" stroke-width="5" d="M229.86,-1346.61C271.23,-1521.59 346.22,-1853.5 346.22,-1853.5 346.22,-1853.5 356.85,-1866.63 365.79,-1881.85"/>
<polygon fill="gray" stroke="gray" stroke-width="5" points="361.81,-1883.69 370.29,-1890.56 369.58,-1879.67 361.81,-1883.69"/>
</g>
<!-- AIB -->
<g id="node7" class="node">
<title>AIB</title>
<ellipse fill="none" stroke="black" cx="378.82" cy="-1835" rx="27" ry="18"/>
<text text-anchor="middle" x="378.82" y="-1829.58" font-family="Times New Roman,serif" font-size="14.00">AIB</text>
</g>
<!-- AWA&#45;&gt;AIB -->
<g id="edge7" class="edge">
<title>AWA&#45;&gt;AIB</title>
<path fill="none" stroke="gray" stroke-width="5" d="M230.2,-1346.53C271.64,-1507.07 346.22,-1796 346.22,-1796 346.22,-1796 349.93,-1800.58 354.81,-1806.61"/>
<polygon fill="gray" stroke="gray" stroke-width="5" points="351.34,-1809.28 361.04,-1814.29 358.14,-1803.77 351.34,-1809.28"/>
</g>
<!-- AIM -->
<g id="node8" class="node">
<title>AIM</title>
<ellipse fill="none" stroke="black" cx="378.82" cy="-1756" rx="28.11" ry="18"/>
<text text-anchor="middle" x="378.82" y="-1750.58" font-family="Times New Roman,serif" font-size="14.00">AIM</text>
</g>
<!-- AWA&#45;&gt;AIM -->
<g id="edge8" class="edge">
<title>AWA&#45;&gt;AIM</title>
<path fill="none" stroke="gray" stroke-width="2" d="M234.33,-1345.36C276.4,-1485.09 346.22,-1717 346.22,-1717 346.22,-1717 351.16,-1723.1 357.14,-1730.48"/>
<polygon fill="gray" stroke="gray" stroke-width="2" points="354.04,-1732.22 363.06,-1737.79 359.48,-1727.81 354.04,-1732.22"/>
</g>
<!-- AIN -->
<g id="node9" class="node">
<title>AIN</title>
<ellipse fill="none" stroke="black" cx="378.82" cy="-1677" rx="27" ry="18"/>
<text text-anchor="middle" x="378.82" y="-1671.58" font-family="Times New Roman,serif" font-size="14.00">AIN</text>
</g>
<!-- AWA&#45;&gt;AIN -->
<g id="edge9" class="edge">
<title>AWA&#45;&gt;AIN</title>
<path fill="none" stroke="gray" stroke-width="2" d="M244.87,-1341.56C287.08,-1452.74 346.22,-1616.5 346.22,-1616.5 346.22,-1616.5 358.2,-1631.29 367.4,-1647.67"/>
<polygon fill="gray" stroke="gray" stroke-width="2" points="364.17,-1649.04 371.79,-1656.4 370.43,-1645.89 364.17,-1649.04"/>
</g>
<!-- AIY -->
<g id="node10" class="node">
<title>AIY</title>
<ellipse fill="none" stroke="black" cx="378.82" cy="-1598" rx="27" ry="18"/>
<text text-anchor="middle" x="378.82" y="-1592.58" font-family="Times New Roman,serif" font-size="14.00">AIY</text>
</g>
<!-- AWA&#45;&gt;AIY -->
<g id="edge10" class="edge">
<title>AWA&#45;&gt;AIY</title>
<path fill="none" stroke="gray" stroke-width="5" d="M253.83,-1337.32C294.97,-1423.9 346.22,-1537.5 346.22,-1537.5 346.22,-1537.5 356.85,-1550.63 365.79,-1565.85"/>
<polygon fill="gray" stroke="gray" stroke-width="5" points="361.81,-1567.69 370.29,-1574.56 369.58,-1563.67 361.81,-1567.69"/>
</g>
<!-- AIZ -->
<g id="node11" class="node">
<title>AIZ</title>
<ellipse fill="none" stroke="black" cx="378.82" cy="-1519" rx="27" ry="18"/>
<text text-anchor="middle" x="378.82" y="-1513.58" font-family="Times New Roman,serif" font-size="14.00">AIZ</text>
</g>
<!-- AWA&#45;&gt;AIZ -->
<g id="edge11" class="edge">
<title>AWA&#45;&gt;AIZ</title>
<path fill="none" stroke="black" stroke-width="5" d="M266.56,-1329.28C304.81,-1389.59 346.22,-1458.5 346.22,-1458.5 346.22,-1458.5 356.85,-1471.63 365.79,-1486.85"/>
<polygon fill="black" stroke="black" stroke-width="5" points="361.81,-1488.69 370.29,-1495.56 369.58,-1484.67 361.81,-1488.69"/>
</g>
<!-- ASE -->
<g id="node12" class="node">
<title>ASE</title>
<ellipse fill="none" stroke="black" cx="378.82" cy="-1440" rx="28.11" ry="18"/>
<text text-anchor="middle" x="378.82" y="-1434.58" font-family="Times New Roman,serif" font-size="14.00">ASE</text>
</g>
<!-- AWA&#45;&gt;ASE -->
<g id="edge12" class="edge">
<title>AWA&#45;&gt;ASE</title>
<path fill="none" stroke="gray" stroke-width="5" d="M282.09,-1315.38C311.23,-1347.97 341.64,-1384.41 360.16,-1409.77"/>
<polygon fill="gray" stroke="gray" stroke-width="5" points="356.49,-1412.16 365.8,-1417.86 363.67,-1407.16 356.49,-1412.16"/>
</g>
<!-- ASG -->
<g id="node13" class="node">
<title>ASG</title>
<ellipse fill="none" stroke="black" cx="378.82" cy="-1361" rx="29.61" ry="18"/>
<text text-anchor="middle" x="378.82" y="-1355.58" font-family="Times New Roman,serif" font-size="14.00">ASG</text>
</g>
<!-- AWA&#45;&gt;ASG -->
<g id="edge13" class="edge">
<title>AWA&#45;&gt;ASG</title>
<path fill="none" stroke="gray" stroke-width="0.2" d="M292.05,-1302.55C313.09,-1316.89 334.01,-1331.14 349.92,-1341.99"/>
<polygon fill="gray" stroke="gray" stroke-width="0.2" points="347.73,-1344.73 357.97,-1347.47 351.68,-1338.95 347.73,-1344.73"/>
</g>
<!-- ASH -->
<g id="node14" class="node">
<title>ASH</title>
<ellipse fill="none" stroke="black" cx="378.82" cy="-1282" rx="29.11" ry="18"/>
<text text-anchor="middle" x="378.82" y="-1276.58" font-family="Times New Roman,serif" font-size="14.00">ASH</text>
</g>
<!-- AWA&#45;&gt;ASH -->
<g id="edge14" class="edge">
<title>AWA&#45;&gt;ASH</title>
<path fill="none" stroke="red" stroke-width="nan" d="M310.31,-1250.78C329.65,-1255.96 347.63,-1261.92 360.16,-1267.75"/>
<polygon fill="red" stroke="red" stroke-width="nan" points="nan,-nan nan,-nan nan,-nan nan,-nan"/>
</g>
<!-- ASI -->
<g id="node15" class="node">
<title>ASI</title>
<ellipse fill="none" stroke="black" cx="378.82" cy="-1203" rx="27" ry="18"/>
<text text-anchor="middle" x="378.82" y="-1197.58" font-family="Times New Roman,serif" font-size="14.00">ASI</text>
</g>
<!-- AWA&#45;&gt;ASI -->
<g id="edge15" class="edge">
<title>AWA&#45;&gt;ASI</title>
<path fill="none" stroke="gray" stroke-width="nan" d="M303.52,-1203.63C321.91,-1199.98 339.51,-1197.48 352.97,-1196.87"/>
<polygon fill="gray" stroke="gray" stroke-width="nan" points="nan,-nan nan,-nan nan,-nan nan,-nan"/>
</g>
<!-- ASK -->
<g id="node16" class="node">
<title>ASK</title>
<ellipse fill="none" stroke="black" cx="378.82" cy="-1124" rx="29.11" ry="18"/>
<text text-anchor="middle" x="378.82" y="-1118.58" font-family="Times New Roman,serif" font-size="14.00">ASK</text>
</g>
<!-- AWA&#45;&gt;ASK -->
<g id="edge16" class="edge">
<title>AWA&#45;&gt;ASK</title>
<path fill="none" stroke="gray" stroke-width="0.2" d="M284.13,-1171.23C304.45,-1157.25 325.24,-1144.13 342.05,-1134.86"/>
<polygon fill="gray" stroke="gray" stroke-width="0.2" points="343.5,-1138.06 350.69,-1130.27 340.21,-1131.88 343.5,-1138.06"/>
</g>
<!-- AUA -->
<g id="node17" class="node">
<title>AUA</title>
<ellipse fill="none" stroke="black" cx="378.82" cy="-1045" rx="30.11" ry="18"/>
<text text-anchor="middle" x="378.82" y="-1039.58" font-family="Times New Roman,serif" font-size="14.00">AUA</text>
</g>
<!-- AWA&#45;&gt;AUA -->
<g id="edge17" class="edge">
<title>AWA&#45;&gt;AUA</title>
<path fill="none" stroke="gray" stroke-width="2" d="M274.74,-1161.3C303.48,-1128.87 334.59,-1093.77 355.03,-1070.71"/>
<polygon fill="gray" stroke="gray" stroke-width="2" points="357.6,-1073.09 361.61,-1063.28 352.36,-1068.44 357.6,-1073.09"/>
</g>
<!-- AVB -->
<g id="node18" class="node">
<title>AVB</title>
<ellipse fill="none" stroke="black" cx="378.82" cy="-966" rx="29.61" ry="18"/>
<text text-anchor="middle" x="378.82" y="-960.58" font-family="Times New Roman,serif" font-size="14.00">AVB</text>
</g>
<!-- AWA&#45;&gt;AVB -->
<g id="edge18" class="edge">
<title>AWA&#45;&gt;AVB</title>
<path fill="none" stroke="blue" stroke-width="5" d="M258.91,-1149.69C299.07,-1083.15 346.22,-1005 346.22,-1005 346.22,-1005 349.93,-1000.42 354.81,-994.39"/>
<polygon fill="blue" stroke="blue" stroke-width="5" points="358.14,-997.23 361.04,-986.71 351.34,-991.72 358.14,-997.23"/>
</g>
<!-- AWB -->
<g id="node19" class="node">
<title>AWB</title>
<ellipse fill="none" stroke="black" cx="378.82" cy="-887" rx="32.1" ry="18"/>
<text text-anchor="middle" x="378.82" y="-881.58" font-family="Times New Roman,serif" font-size="14.00">AWB</text>
</g>
<!-- AWA&#45;&gt;AWB -->
<g id="edge19" class="edge">
<title>AWA&#45;&gt;AWB</title>
<path fill="none" stroke="gray" stroke-width="5" d="M241.91,-1141.12C277.07,-1058.34 325.73,-949.95 344.74,-911.48"/>
<polygon fill="gray" stroke="gray" stroke-width="5" points="348.44,-913.82 349.34,-902.95 340.74,-909.66 348.44,-913.82"/>
</g>
<!-- AWC -->
<g id="node20" class="node">
<title>AWC</title>
<ellipse fill="none" stroke="black" cx="378.82" cy="-808" rx="32.6" ry="18"/>
<text text-anchor="middle" x="378.82" y="-802.58" font-family="Times New Roman,serif" font-size="14.00">AWC</text>
</g>
<!-- AWA&#45;&gt;AWC -->
<g id="edge20" class="edge">
<title>AWA&#45;&gt;AWC</title>
<path fill="none" stroke="gray" stroke-width="2" d="M239.95,-1140.53C282.32,-1023.5 346.22,-847 346.22,-847 346.22,-847 350.81,-841.33 356.5,-834.31"/>
<polygon fill="gray" stroke="gray" stroke-width="2" points="359.12,-836.64 362.69,-826.67 353.68,-832.23 359.12,-836.64"/>
</g>
<!-- HSN -->
<g id="node21" class="node">
<title>HSN</title>
<ellipse fill="none" stroke="black" cx="378.82" cy="-729" rx="29.11" ry="18"/>
<text text-anchor="middle" x="378.82" y="-723.58" font-family="Times New Roman,serif" font-size="14.00">HSN</text>
</g>
<!-- AWA&#45;&gt;HSN -->
<g id="edge21" class="edge">
<title>AWA&#45;&gt;HSN</title>
<path fill="none" stroke="gray" stroke-width="0.2" d="M230.7,-1137.39C272.24,-991.7 346.22,-746.5 346.22,-746.5 346.22,-746.5 346.41,-746.26 346.76,-745.83"/>
<polygon fill="gray" stroke="gray" stroke-width="0.2" points="349.38,-748.16 353.35,-738.34 344.12,-743.54 349.38,-748.16"/>
</g>
<!-- PVN -->
<g id="node22" class="node">
<title>PVN</title>
<ellipse fill="none" stroke="black" cx="378.82" cy="-650" rx="29.11" ry="18"/>
<text text-anchor="middle" x="378.82" y="-644.58" font-family="Times New Roman,serif" font-size="14.00">PVN</text>
</g>
<!-- AWA&#45;&gt;PVN -->
<g id="edge22" class="edge">
<title>AWA&#45;&gt;PVN</title>
<path fill="none" stroke="gray" stroke-width="2" d="M227.15,-1136.66C263.57,-988.04 330.11,-729.89 348.98,-671.09"/>
<polygon fill="gray" stroke="gray" stroke-width="2" points="352.18,-672.53 352.47,-661.94 345.64,-670.04 352.18,-672.53"/>
</g>
<!-- PVQ -->
<g id="node23" class="node">
<title>PVQ</title>
<ellipse fill="none" stroke="black" cx="378.82" cy="-571" rx="29.61" ry="18"/>
<text text-anchor="middle" x="378.82" y="-565.58" font-family="Times New Roman,serif" font-size="14.00">PVQ</text>
</g>
<!-- AWA&#45;&gt;PVQ -->
<g id="edge23" class="edge">
<title>AWA&#45;&gt;PVQ</title>
<path fill="none" stroke="gray" stroke-width="2" d="M224.47,-1135.89C260.42,-968.61 330.62,-657.52 349.14,-592.44"/>
<polygon fill="gray" stroke="gray" stroke-width="2" points="352.34,-593.91 352.25,-583.32 345.71,-591.65 352.34,-593.91"/>
</g>
<!-- RIA -->
<g id="node24" class="node">
<title>RIA</title>
<ellipse fill="none" stroke="black" cx="378.82" cy="-492" rx="27" ry="18"/>
<text text-anchor="middle" x="378.82" y="-486.57" font-family="Times New Roman,serif" font-size="14.00">RIA</text>
</g>
<!-- AWA&#45;&gt;RIA -->
<g id="edge24" class="edge">
<title>AWA&#45;&gt;RIA</title>
<path fill="none" stroke="gray" stroke-width="0.2" d="M224.55,-1135.94C264.41,-937.74 346.22,-531 346.22,-531 346.22,-531 351.96,-523.91 358.55,-515.78"/>
<polygon fill="gray" stroke="gray" stroke-width="0.2" points="361.2,-518.07 364.77,-508.1 355.76,-513.66 361.2,-518.07"/>
</g>
<!-- RIF -->
<g id="node25" class="node">
<title>RIF</title>
<ellipse fill="none" stroke="black" cx="378.82" cy="-413" rx="27" ry="18"/>
<text text-anchor="middle" x="378.82" y="-407.57" font-family="Times New Roman,serif" font-size="14.00">RIF</text>
</g>
<!-- AWA&#45;&gt;RIF -->
<g id="edge25" class="edge">
<title>AWA&#45;&gt;RIF</title>
<path fill="none" stroke="red" stroke-width="2" d="M222.5,-1135.46C261.53,-919.82 346.22,-452 346.22,-452 346.22,-452 351.16,-445.9 357.14,-438.52"/>
<polygon fill="red" stroke="red" stroke-width="2" points="359.48,-441.19 363.06,-431.21 354.04,-436.78 359.48,-441.19"/>
</g>
<!-- RIG -->
<g id="node26" class="node">
<title>RIG</title>
<ellipse fill="none" stroke="black" cx="378.82" cy="-334" rx="27.11" ry="18"/>
<text text-anchor="middle" x="378.82" y="-328.57" font-family="Times New Roman,serif" font-size="14.00">RIG</text>
</g>
<!-- AWA&#45;&gt;RIG -->
<g id="edge26" class="edge">
<title>AWA&#45;&gt;RIG</title>
<path fill="none" stroke="gray" stroke-width="0.2" d="M220.75,-1135.44C258.94,-903.4 346.22,-373 346.22,-373 346.22,-373 351.96,-365.91 358.55,-357.78"/>
<polygon fill="gray" stroke="gray" stroke-width="0.2" points="361.2,-360.07 364.77,-350.1 355.76,-355.66 361.2,-360.07"/>
</g>
<!-- RIH -->
<g id="node27" class="node">
<title>RIH</title>
<ellipse fill="none" stroke="black" cx="378.82" cy="-255" rx="27" ry="18"/>
<text text-anchor="middle" x="378.82" y="-249.57" font-family="Times New Roman,serif" font-size="14.00">RIH</text>
</g>
<!-- AWA&#45;&gt;RIH -->
<g id="edge27" class="edge">
<title>AWA&#45;&gt;RIH</title>
<path fill="none" stroke="gray" stroke-width="2" d="M219.34,-1135.1C256.74,-887.17 346.22,-294 346.22,-294 346.22,-294 351.16,-287.9 357.14,-280.52"/>
<polygon fill="gray" stroke="gray" stroke-width="2" points="359.48,-283.19 363.06,-273.21 354.04,-278.78 359.48,-283.19"/>
</g>
<!-- RIM -->
<g id="node28" class="node">
<title>RIM</title>
<ellipse fill="none" stroke="black" cx="378.82" cy="-176" rx="28.11" ry="18"/>
<text text-anchor="middle" x="378.82" y="-170.57" font-family="Times New Roman,serif" font-size="14.00">RIM</text>
</g>
<!-- AWA&#45;&gt;RIM -->
<g id="edge28" class="edge">
<title>AWA&#45;&gt;RIM</title>
<path fill="none" stroke="blue" stroke-width="2" d="M218.12,-1135C254.74,-871.96 346.22,-215 346.22,-215 346.22,-215 351.16,-208.9 357.14,-201.52"/>
<polygon fill="blue" stroke="blue" stroke-width="2" points="359.48,-204.19 363.06,-194.21 354.04,-199.78 359.48,-204.19"/>
</g>
<!-- RIR -->
<g id="node29" class="node">
<title>RIR</title>
<ellipse fill="none" stroke="black" cx="378.82" cy="-97" rx="27" ry="18"/>
<text text-anchor="middle" x="378.82" y="-91.58" font-family="Times New Roman,serif" font-size="14.00">RIR</text>
</g>
<!-- AWA&#45;&gt;RIR -->
<g id="edge29" class="edge">
<title>AWA&#45;&gt;RIR</title>
<path fill="none" stroke="gray" stroke-width="0.2" d="M217.09,-1134.7C253,-856.95 346.22,-136 346.22,-136 346.22,-136 351.96,-128.91 358.55,-120.78"/>
<polygon fill="gray" stroke="gray" stroke-width="0.2" points="361.2,-123.07 364.77,-113.1 355.76,-118.66 361.2,-123.07"/>
</g>
<!-- SMB -->
<g id="node30" class="node">
<title>SMB</title>
<ellipse fill="none" stroke="black" cx="378.82" cy="-18" rx="30.11" ry="18"/>
<text text-anchor="middle" x="378.82" y="-12.57" font-family="Times New Roman,serif" font-size="14.00">SMB</text>
</g>
<!-- AWA&#45;&gt;SMB -->
<g id="edge30" class="edge">
<title>AWA&#45;&gt;SMB</title>
<path fill="none" stroke="gray" stroke-width="5" d="M216.19,-1134.49C251.42,-842.58 346.22,-57 346.22,-57 346.22,-57 349.83,-52.54 354.61,-46.64"/>
<polygon fill="gray" stroke="gray" stroke-width="5" points="357.78,-49.68 360.67,-39.16 350.98,-44.17 357.78,-49.68"/>
</g>
<!-- ADA&#45;&gt;AWA -->
<g id="edge31" class="edge">
<title>ADA&#45;&gt;AWA</title>
<path fill="none" stroke="gray" stroke-width="0.2" d="M352.92,-2220.21C349,-2215.94 346.22,-2212.5 346.22,-2212.5 346.22,-2212.5 256.59,-1617.72 219.25,-1359.24"/>
<polygon fill="gray" stroke="gray" stroke-width="0.2" points="222.72,-1358.75 217.82,-1349.36 215.79,-1359.75 222.72,-1358.75"/>
</g>
<!-- ADF&#45;&gt;AWA -->
<g id="edge32" class="edge">
<title>ADF&#45;&gt;AWA</title>
<path fill="none" stroke="gray" stroke-width="0.2" d="M353.55,-2141.89C349.3,-2137.31 346.22,-2133.5 346.22,-2133.5 346.22,-2133.5 258.63,-1600.65 220.55,-1358.66"/>
<polygon fill="gray" stroke="gray" stroke-width="0.2" points="224.05,-1358.41 219.04,-1349.07 217.14,-1359.49 224.05,-1358.41"/>
</g>
<!-- ADL&#45;&gt;AWA -->
<g id="edge33" class="edge">
<title>ADL&#45;&gt;AWA</title>
<path fill="none" stroke="gray" stroke-width="0.2" d="M353.55,-2062.89C349.3,-2058.31 346.22,-2054.5 346.22,-2054.5 346.22,-2054.5 261.05,-1583.41 222.17,-1358.45"/>
<polygon fill="gray" stroke="gray" stroke-width="0.2" points="225.67,-1358.14 220.52,-1348.88 218.77,-1359.33 225.67,-1358.14"/>
</g>
<!-- AIA&#45;&gt;AWA -->
<g id="edge34" class="edge">
<title>AIA&#45;&gt;AWA</title>
<path fill="none" stroke="gray" stroke-width="2" d="M354.52,-1905.93C349.78,-1900.9 346.22,-1896.5 346.22,-1896.5 346.22,-1896.5 267.76,-1549.23 227.08,-1360.39"/>
<polygon fill="gray" stroke="gray" stroke-width="2" points="230.55,-1359.9 225.03,-1350.86 223.71,-1361.38 230.55,-1359.9"/>
</g>
<!-- AIN&#45;&gt;AWA -->
<g id="edge35" class="edge">
<title>AIN&#45;&gt;AWA</title>
<path fill="none" stroke="blue" stroke-width="5" d="M354.52,-1668.93C349.78,-1663.9 346.22,-1659.5 346.22,-1659.5 346.22,-1659.5 282.86,-1484.06 240.49,-1360.39"/>
<polygon fill="blue" stroke="blue" stroke-width="5" points="244.7,-1359.16 237.32,-1351.11 236.41,-1361.98 244.7,-1359.16"/>
</g>
<!-- AIY&#45;&gt;AWA -->
<g id="edge36" class="edge">
<title>AIY&#45;&gt;AWA</title>
<path fill="none" stroke="gray" stroke-width="2" d="M354.52,-1589.93C349.78,-1584.9 346.22,-1580.5 346.22,-1580.5 346.22,-1580.5 288.84,-1453.31 246.77,-1354.6"/>
<polygon fill="gray" stroke="gray" stroke-width="2" points="250.04,-1353.33 242.91,-1345.5 243.6,-1356.07 250.04,-1353.33"/>
</g>
<!-- AIZ&#45;&gt;AWA -->
<g id="edge37" class="edge">
<title>AIZ&#45;&gt;AWA</title>
<path fill="none" stroke="gray" stroke-width="2" d="M354.52,-1510.93C349.78,-1505.9 346.22,-1501.5 346.22,-1501.5 346.22,-1501.5 297.87,-1421.03 257.39,-1349.44"/>
<polygon fill="gray" stroke="gray" stroke-width="2" points="260.67,-1348.13 252.72,-1341.14 254.57,-1351.57 260.67,-1348.13"/>
</g>
<!-- ASE&#45;&gt;AWA -->
<g id="edge38" class="edge">
<title>ASE&#45;&gt;AWA</title>
<path fill="none" stroke="black" stroke-width="5" d="M357.83,-1428.06C337.98,-1409.8 306.33,-1375.65 276.82,-1341.42"/>
<polygon fill="black" stroke="black" stroke-width="5" points="280.37,-1338.84 270.55,-1334.07 273.72,-1344.52 280.37,-1338.84"/>
</g>
<!-- ASH&#45;&gt;AWA -->
<g id="edge39" class="edge">
<title>ASH&#45;&gt;AWA</title>
<path fill="none" stroke="red" stroke-width="0.2" d="M350.83,-1287.86C340.09,-1287.18 326.97,-1285.38 313.03,-1282.8"/>
<polygon fill="red" stroke="red" stroke-width="0.2" points="314.05,-1279.43 303.56,-1280.95 312.71,-1286.3 314.05,-1279.43"/>
</g>
<!-- ASI&#45;&gt;AWA -->
<g id="edge40" class="edge">
<title>ASI&#45;&gt;AWA</title>
<path fill="none" stroke="red" stroke-width="2" d="M360.7,-1216.9C350.8,-1221.5 337.37,-1226.18 322.5,-1230.48"/>
<polygon fill="red" stroke="red" stroke-width="2" points="321.95,-1227 313.23,-1233.03 323.8,-1233.75 321.95,-1227"/>
</g>
<!-- ASK&#45;&gt;AWA -->
<g id="edge41" class="edge">
<title>ASK&#45;&gt;AWA</title>
<path fill="none" stroke="gray" stroke-width="0.2" d="M365.98,-1140.62C353.03,-1153.44 330.91,-1170.81 307.08,-1187.67"/>
<polygon fill="gray" stroke="gray" stroke-width="0.2" points="305.38,-1184.59 299.19,-1193.19 309.39,-1190.32 305.38,-1184.59"/>
</g>
<!-- AWB&#45;&gt;AWA -->
<g id="edge42" class="edge">
<title>AWB&#45;&gt;AWA</title>
<path fill="none" stroke="red" stroke-width="2" d="M373.15,-904.9C364.36,-925.1 346.22,-947.5 346.22,-947.5 346.22,-947.5 299.38,-1051.01 259.31,-1135.51"/>
<polygon fill="red" stroke="red" stroke-width="2" points="256.27,-1133.77 255.13,-1144.3 262.59,-1136.77 256.27,-1133.77"/>
</g>
<!-- HSN&#45;&gt;AWA -->
<g id="edge43" class="edge">
<title>HSN&#45;&gt;AWA</title>
<path fill="none" stroke="gray" stroke-width="2" d="M373.15,-746.9C364.36,-767.1 346.22,-789.5 346.22,-789.5 346.22,-789.5 284.72,-993.35 242.38,-1127.62"/>
<polygon fill="gray" stroke="gray" stroke-width="2" points="239.06,-1126.51 239.38,-1137.1 245.74,-1128.62 239.06,-1126.51"/>
</g>
<!-- PVN&#45;&gt;AWA -->
<g id="edge44" class="edge">
<title>PVN&#45;&gt;AWA</title>
<path fill="none" stroke="gray" stroke-width="2" d="M373.15,-667.9C364.36,-688.1 346.22,-710.5 346.22,-710.5 346.22,-710.5 279.29,-969.31 237.01,-1125.93"/>
<polygon fill="gray" stroke="gray" stroke-width="2" points="233.65,-1124.94 234.42,-1135.5 240.41,-1126.77 233.65,-1124.94"/>
</g>
<!-- PVQ&#45;&gt;AWA -->
<g id="edge45" class="edge">
<title>PVQ&#45;&gt;AWA</title>
<path fill="none" stroke="red" stroke-width="0.2" d="M373.15,-588.9C364.36,-609.1 346.22,-631.5 346.22,-631.5 346.22,-631.5 274.09,-950.28 232.28,-1127.33"/>
<polygon fill="red" stroke="red" stroke-width="0.2" points="228.91,-1126.39 230.02,-1136.93 235.72,-1128 228.91,-1126.39"/>
</g>
<!-- ASJ -->
<g id="node31" class="node">
<title>ASJ</title>
<ellipse fill="none" stroke="black" cx="29.11" cy="-1321" rx="27" ry="18"/>
<text text-anchor="middle" x="29.11" y="-1315.58" font-family="Times New Roman,serif" font-size="14.00">ASJ</text>
</g>
<!-- ASJ&#45;&gt;AWA -->
<g id="edge46" class="edge">
<title>ASJ&#45;&gt;AWA</title>
<path fill="none" stroke="gray" stroke-width="0.2" d="M51.78,-1310.99C63.31,-1305.67 78.44,-1298.68 94.65,-1291.2"/>
<polygon fill="gray" stroke="gray" stroke-width="0.2" points="95.86,-1294.5 103.47,-1287.13 92.92,-1288.14 95.86,-1294.5"/>
</g>
<!-- AVF -->
<g id="node32" class="node">
<title>AVF</title>
<ellipse fill="none" stroke="black" cx="29.11" cy="-1242" rx="29.11" ry="18"/>
<text text-anchor="middle" x="29.11" y="-1236.58" font-family="Times New Roman,serif" font-size="14.00">AVF</text>
</g>
<!-- AVF&#45;&gt;AWA -->
<g id="edge47" class="edge">
<title>AVF&#45;&gt;AWA</title>
<path fill="none" stroke="gray" stroke-width="0.2" d="M58.36,-1242C65.89,-1242 74.52,-1242 83.71,-1242"/>
<polygon fill="gray" stroke="gray" stroke-width="0.2" points="83.6,-1245.5 93.6,-1242 83.6,-1238.5 83.6,-1245.5"/>
</g>
<!-- PVP -->
<g id="node33" class="node">
<title>PVP</title>
<ellipse fill="none" stroke="black" cx="29.11" cy="-1163" rx="28.11" ry="18"/>
<text text-anchor="middle" x="29.11" y="-1157.58" font-family="Times New Roman,serif" font-size="14.00">PVP</text>
</g>
<!-- PVP&#45;&gt;AWA -->
<g id="edge48" class="edge">
<title>PVP&#45;&gt;AWA</title>
<path fill="none" stroke="gray" stroke-width="0.2" d="M52.48,-1173.33C63.94,-1178.62 78.83,-1185.49 94.74,-1192.84"/>
<polygon fill="gray" stroke="gray" stroke-width="0.2" points="92.85,-1195.82 103.4,-1196.84 95.79,-1189.47 92.85,-1195.82"/>
</g>
</g>
</svg>
