<?xml version="1.0" encoding="UTF-8" standalone="no"?>
<!DOCTYPE svg PUBLIC "-//W3C//DTD SVG 1.1//EN"
 "http://www.w3.org/Graphics/SVG/1.1/DTD/svg11.dtd">
<!-- Generated by graphviz version 11.0.0 (20240428.1522)
 -->
<!-- Pages: 1 -->
<svg width="421pt" height="2888pt"
 viewBox="0.00 0.00 421.41 2888.00" xmlns="http://www.w3.org/2000/svg" xmlns:xlink="http://www.w3.org/1999/xlink">
<g id="graph0" class="graph" transform="scale(1 1) rotate(0) translate(4 2884)">
<polygon fill="white" stroke="none" points="-4,4 -4,-2884 417.41,-2884 417.41,4 -4,4"/>
<!-- AWB -->
<g id="node1" class="node">
<title>AWB</title>
<ellipse fill="none" stroke="black" cx="204.21" cy="-1558" rx="108" ry="108"/>
<text text-anchor="middle" x="204.21" y="-1539" font-family="Times New Roman,serif" font-size="50.00">AWB</text>
</g>
<!-- AWB&#45;&gt;AWB -->
<g id="edge1" class="edge">
<title>AWB&#45;&gt;AWB</title>
<path fill="none" stroke="gray" stroke-width="2" d="M171.88,-1661.39C173.8,-1688.51 184.57,-1709 204.21,-1709 220.63,-1709 230.85,-1694.68 234.89,-1674.14"/>
<polygon fill="gray" stroke="gray" stroke-width="2" points="238.34,-1674.76 236.16,-1664.4 231.39,-1673.86 238.34,-1674.76"/>
</g>
<!-- ADA -->
<g id="node2" class="node">
<title>ADA</title>
<ellipse fill="none" stroke="black" cx="380.81" cy="-2862" rx="30.11" ry="18"/>
<text text-anchor="middle" x="380.81" y="-2856.57" font-family="Times New Roman,serif" font-size="14.00">ADA</text>
</g>
<!-- AWB&#45;&gt;ADA -->
<g id="edge2" class="edge">
<title>AWB&#45;&gt;ADA</title>
<path fill="none" stroke="blue" stroke-width="2" d="M218.47,-1665.32C253.92,-1967.41 348.21,-2801.5 348.21,-2801.5 348.21,-2801.5 360.19,-2816.29 369.4,-2832.67"/>
<polygon fill="blue" stroke="blue" stroke-width="2" points="366.17,-2834.04 373.79,-2841.4 372.42,-2830.89 366.17,-2834.04"/>
</g>
<!-- ADF -->
<g id="node3" class="node">
<title>ADF</title>
<ellipse fill="none" stroke="black" cx="380.81" cy="-2783" rx="29.11" ry="18"/>
<text text-anchor="middle" x="380.81" y="-2777.57" font-family="Times New Roman,serif" font-size="14.00">ADF</text>
</g>
<!-- AWB&#45;&gt;ADF -->
<g id="edge3" class="edge">
<title>AWB&#45;&gt;ADF</title>
<path fill="none" stroke="black" stroke-width="5" d="M219.38,-1665.23C255.5,-1953.61 348.21,-2722.5 348.21,-2722.5 348.21,-2722.5 358.85,-2735.63 367.78,-2750.85"/>
<polygon fill="black" stroke="black" stroke-width="5" points="363.81,-2752.69 372.29,-2759.56 371.58,-2748.67 363.81,-2752.69"/>
</g>
<!-- ADL -->
<g id="node4" class="node">
<title>ADL</title>
<ellipse fill="none" stroke="black" cx="380.81" cy="-2704" rx="29.11" ry="18"/>
<text text-anchor="middle" x="380.81" y="-2698.57" font-family="Times New Roman,serif" font-size="14.00">ADL</text>
</g>
<!-- AWB&#45;&gt;ADL -->
<g id="edge4" class="edge">
<title>AWB&#45;&gt;ADL</title>
<path fill="none" stroke="blue" stroke-width="2" d="M220.41,-1665.09C257.24,-1939.25 348.21,-2643.5 348.21,-2643.5 348.21,-2643.5 360.19,-2658.29 369.4,-2674.67"/>
<polygon fill="blue" stroke="blue" stroke-width="2" points="366.17,-2676.04 373.79,-2683.4 372.42,-2672.89 366.17,-2676.04"/>
</g>
<!-- AIA -->
<g id="node5" class="node">
<title>AIA</title>
<ellipse fill="none" stroke="black" cx="380.81" cy="-2625" rx="27" ry="18"/>
<text text-anchor="middle" x="380.81" y="-2619.57" font-family="Times New Roman,serif" font-size="14.00">AIA</text>
</g>
<!-- AWB&#45;&gt;AIA -->
<g id="edge5" class="edge">
<title>AWB&#45;&gt;AIA</title>
<path fill="none" stroke="black" stroke-width="5" d="M221.62,-1664.99C259.18,-1924.45 348.21,-2564.5 348.21,-2564.5 348.21,-2564.5 358.85,-2577.63 367.78,-2592.85"/>
<polygon fill="black" stroke="black" stroke-width="5" points="363.81,-2594.69 372.29,-2601.56 371.58,-2590.67 363.81,-2594.69"/>
</g>
<!-- AIB -->
<g id="node6" class="node">
<title>AIB</title>
<ellipse fill="none" stroke="black" cx="380.81" cy="-2546" rx="27" ry="18"/>
<text text-anchor="middle" x="380.81" y="-2540.57" font-family="Times New Roman,serif" font-size="14.00">AIB</text>
</g>
<!-- AWB&#45;&gt;AIB -->
<g id="edge6" class="edge">
<title>AWB&#45;&gt;AIB</title>
<path fill="none" stroke="gray" stroke-width="5" d="M221.34,-1665.02C258.74,-1913.21 348.21,-2507 348.21,-2507 348.21,-2507 351.93,-2511.58 356.81,-2517.61"/>
<polygon fill="gray" stroke="gray" stroke-width="5" points="353.34,-2520.28 363.03,-2525.29 360.14,-2514.77 353.34,-2520.28"/>
</g>
<!-- AIM -->
<g id="node7" class="node">
<title>AIM</title>
<ellipse fill="none" stroke="black" cx="380.81" cy="-2467" rx="28.11" ry="18"/>
<text text-anchor="middle" x="380.81" y="-2461.57" font-family="Times New Roman,serif" font-size="14.00">AIM</text>
</g>
<!-- AWB&#45;&gt;AIM -->
<g id="edge7" class="edge">
<title>AWB&#45;&gt;AIM</title>
<path fill="none" stroke="gray" stroke-width="0.2" d="M224.65,-1664.5C263.75,-1892.61 348.21,-2406.5 348.21,-2406.5 348.21,-2406.5 361.37,-2422.74 370.71,-2440.04"/>
<polygon fill="gray" stroke="gray" stroke-width="0.2" points="367.47,-2441.39 375.02,-2448.83 373.76,-2438.31 367.47,-2441.39"/>
</g>
<!-- AIY -->
<g id="node8" class="node">
<title>AIY</title>
<ellipse fill="none" stroke="black" cx="380.81" cy="-2388" rx="27" ry="18"/>
<text text-anchor="middle" x="380.81" y="-2382.57" font-family="Times New Roman,serif" font-size="14.00">AIY</text>
</g>
<!-- AWB&#45;&gt;AIY -->
<g id="edge8" class="edge">
<title>AWB&#45;&gt;AIY</title>
<path fill="none" stroke="black" stroke-width="5" d="M226.54,-1663.8C266.41,-1875 348.21,-2327.5 348.21,-2327.5 348.21,-2327.5 358.85,-2340.63 367.78,-2355.85"/>
<polygon fill="black" stroke="black" stroke-width="5" points="363.81,-2357.69 372.29,-2364.56 371.58,-2353.67 363.81,-2357.69"/>
</g>
<!-- AIZ -->
<g id="node9" class="node">
<title>AIZ</title>
<ellipse fill="none" stroke="black" cx="380.81" cy="-2309" rx="27" ry="18"/>
<text text-anchor="middle" x="380.81" y="-2303.57" font-family="Times New Roman,serif" font-size="14.00">AIZ</text>
</g>
<!-- AWB&#45;&gt;AIZ -->
<g id="edge9" class="edge">
<title>AWB&#45;&gt;AIZ</title>
<path fill="none" stroke="gray" stroke-width="nan" d="M228.99,-1663.63C269.65,-1857.33 348.21,-2248.5 348.21,-2248.5 348.21,-2248.5 366.36,-2270.9 375.15,-2291.1"/>
<polygon fill="gray" stroke="gray" stroke-width="nan" points="nan,-nan nan,-nan nan,-nan nan,-nan"/>
</g>
<!-- ALM -->
<g id="node10" class="node">
<title>ALM</title>
<ellipse fill="none" stroke="black" cx="380.81" cy="-2230" rx="30.61" ry="18"/>
<text text-anchor="middle" x="380.81" y="-2224.57" font-family="Times New Roman,serif" font-size="14.00">ALM</text>
</g>
<!-- AWB&#45;&gt;ALM -->
<g id="edge10" class="edge">
<title>AWB&#45;&gt;ALM</title>
<path fill="none" stroke="blue" stroke-width="5" d="M231.86,-1662.61C273.23,-1837.59 348.21,-2169.5 348.21,-2169.5 348.21,-2169.5 358.85,-2182.63 367.78,-2197.85"/>
<polygon fill="blue" stroke="blue" stroke-width="5" points="363.81,-2199.69 372.29,-2206.56 371.58,-2195.67 363.81,-2199.69"/>
</g>
<!-- ASE -->
<g id="node11" class="node">
<title>ASE</title>
<ellipse fill="none" stroke="black" cx="380.81" cy="-2151" rx="28.11" ry="18"/>
<text text-anchor="middle" x="380.81" y="-2145.57" font-family="Times New Roman,serif" font-size="14.00">ASE</text>
</g>
<!-- AWB&#45;&gt;ASE -->
<g id="edge11" class="edge">
<title>AWB&#45;&gt;ASE</title>
<path fill="none" stroke="gray" stroke-width="nan" d="M235.63,-1661.79C277.61,-1816.99 348.21,-2090.5 348.21,-2090.5 348.21,-2090.5 366.36,-2112.9 375.15,-2133.1"/>
<polygon fill="gray" stroke="gray" stroke-width="nan" points="nan,-nan nan,-nan nan,-nan nan,-nan"/>
</g>
<!-- ASG -->
<g id="node12" class="node">
<title>ASG</title>
<ellipse fill="none" stroke="black" cx="380.81" cy="-2072" rx="29.61" ry="18"/>
<text text-anchor="middle" x="380.81" y="-2066.57" font-family="Times New Roman,serif" font-size="14.00">ASG</text>
</g>
<!-- AWB&#45;&gt;ASG -->
<g id="edge12" class="edge">
<title>AWB&#45;&gt;ASG</title>
<path fill="none" stroke="gray" stroke-width="0.2" d="M236.33,-1661.36C278.4,-1801.09 348.21,-2033 348.21,-2033 348.21,-2033 353.95,-2040.09 360.54,-2048.22"/>
<polygon fill="gray" stroke="gray" stroke-width="0.2" points="357.75,-2050.34 366.77,-2055.9 363.19,-2045.93 357.75,-2050.34"/>
</g>
<!-- ASH -->
<g id="node13" class="node">
<title>ASH</title>
<ellipse fill="none" stroke="black" cx="380.81" cy="-1993" rx="29.11" ry="18"/>
<text text-anchor="middle" x="380.81" y="-1987.58" font-family="Times New Roman,serif" font-size="14.00">ASH</text>
</g>
<!-- AWB&#45;&gt;ASH -->
<g id="edge13" class="edge">
<title>AWB&#45;&gt;ASH</title>
<path fill="none" stroke="gray" stroke-width="2" d="M246.86,-1657.56C289.08,-1768.74 348.21,-1932.5 348.21,-1932.5 348.21,-1932.5 360.19,-1947.29 369.4,-1963.67"/>
<polygon fill="gray" stroke="gray" stroke-width="2" points="366.17,-1965.04 373.79,-1972.4 372.42,-1961.89 366.17,-1965.04"/>
</g>
<!-- ASI -->
<g id="node14" class="node">
<title>ASI</title>
<ellipse fill="none" stroke="black" cx="380.81" cy="-1914" rx="27" ry="18"/>
<text text-anchor="middle" x="380.81" y="-1908.58" font-family="Times New Roman,serif" font-size="14.00">ASI</text>
</g>
<!-- AWB&#45;&gt;ASI -->
<g id="edge14" class="edge">
<title>AWB&#45;&gt;ASI</title>
<path fill="none" stroke="gray" stroke-width="2" d="M255.83,-1653.32C296.97,-1739.9 348.21,-1853.5 348.21,-1853.5 348.21,-1853.5 360.19,-1868.29 369.4,-1884.67"/>
<polygon fill="gray" stroke="gray" stroke-width="2" points="366.17,-1886.04 373.79,-1893.4 372.42,-1882.89 366.17,-1886.04"/>
</g>
<!-- ASJ -->
<g id="node15" class="node">
<title>ASJ</title>
<ellipse fill="none" stroke="black" cx="380.81" cy="-1835" rx="27" ry="18"/>
<text text-anchor="middle" x="380.81" y="-1829.58" font-family="Times New Roman,serif" font-size="14.00">ASJ</text>
</g>
<!-- AWB&#45;&gt;ASJ -->
<g id="edge15" class="edge">
<title>AWB&#45;&gt;ASJ</title>
<path fill="none" stroke="gray" stroke-width="0.2" d="M260.7,-1650.36C300.9,-1717.26 348.21,-1796 348.21,-1796 348.21,-1796 353.95,-1803.09 360.54,-1811.22"/>
<polygon fill="gray" stroke="gray" stroke-width="0.2" points="357.75,-1813.34 366.77,-1818.9 363.19,-1808.93 357.75,-1813.34"/>
</g>
<!-- AUA -->
<g id="node16" class="node">
<title>AUA</title>
<ellipse fill="none" stroke="black" cx="380.81" cy="-1756" rx="30.11" ry="18"/>
<text text-anchor="middle" x="380.81" y="-1750.58" font-family="Times New Roman,serif" font-size="14.00">AUA</text>
</g>
<!-- AWB&#45;&gt;AUA -->
<g id="edge16" class="edge">
<title>AWB&#45;&gt;AUA</title>
<path fill="none" stroke="gray" stroke-width="0.2" d="M276.48,-1638.82C306.34,-1672.68 338.79,-1709.48 359.21,-1732.63"/>
<polygon fill="gray" stroke="gray" stroke-width="0.2" points="356.46,-1734.81 365.7,-1740 361.71,-1730.18 356.46,-1734.81"/>
</g>
<!-- AVB -->
<g id="node17" class="node">
<title>AVB</title>
<ellipse fill="none" stroke="black" cx="380.81" cy="-1677" rx="29.61" ry="18"/>
<text text-anchor="middle" x="380.81" y="-1671.58" font-family="Times New Roman,serif" font-size="14.00">AVB</text>
</g>
<!-- AWB&#45;&gt;AVB -->
<g id="edge17" class="edge">
<title>AWB&#45;&gt;AVB</title>
<path fill="none" stroke="gray" stroke-width="5" d="M294.05,-1618.55C312.94,-1631.43 331.75,-1644.24 346.91,-1654.57"/>
<polygon fill="gray" stroke="gray" stroke-width="5" points="344.33,-1658.11 355.06,-1660.13 349.26,-1650.88 344.33,-1658.11"/>
</g>
<!-- AVD -->
<g id="node18" class="node">
<title>AVD</title>
<ellipse fill="none" stroke="black" cx="380.81" cy="-1598" rx="30.11" ry="18"/>
<text text-anchor="middle" x="380.81" y="-1592.58" font-family="Times New Roman,serif" font-size="14.00">AVD</text>
</g>
<!-- AWB&#45;&gt;AVD -->
<g id="edge18" class="edge">
<title>AWB&#45;&gt;AVD</title>
<path fill="none" stroke="blue" stroke-width="5" d="M309.8,-1581.96C319.24,-1584.12 328.4,-1586.22 336.81,-1588.15"/>
<polygon fill="blue" stroke="blue" stroke-width="5" points="335.6,-1592.36 346.32,-1590.33 337.55,-1583.83 335.6,-1592.36"/>
</g>
<!-- AVH -->
<g id="node19" class="node">
<title>AVH</title>
<ellipse fill="none" stroke="black" cx="380.81" cy="-1519" rx="30.11" ry="18"/>
<text text-anchor="middle" x="380.81" y="-1513.58" font-family="Times New Roman,serif" font-size="14.00">AVH</text>
</g>
<!-- AWB&#45;&gt;AVH -->
<g id="edge19" class="edge">
<title>AWB&#45;&gt;AVH</title>
<path fill="none" stroke="gray" stroke-width="0.2" d="M305.51,-1519.63C318.41,-1517.07 330.93,-1515.07 341.89,-1513.9"/>
<polygon fill="gray" stroke="gray" stroke-width="0.2" points="341.93,-1517.41 351.59,-1513.06 341.33,-1510.44 341.93,-1517.41"/>
</g>
<!-- AVJ -->
<g id="node20" class="node">
<title>AVJ</title>
<ellipse fill="none" stroke="black" cx="380.81" cy="-1440" rx="27.11" ry="18"/>
<text text-anchor="middle" x="380.81" y="-1434.58" font-family="Times New Roman,serif" font-size="14.00">AVJ</text>
</g>
<!-- AWB&#45;&gt;AVJ -->
<g id="edge20" class="edge">
<title>AWB&#45;&gt;AVJ</title>
<path fill="none" stroke="blue" stroke-width="5" d="M294.3,-1497.79C313.42,-1484.87 332.42,-1472.03 347.63,-1461.75"/>
<polygon fill="blue" stroke="blue" stroke-width="5" points="349.94,-1465.47 355.78,-1456.24 345.04,-1458.22 349.94,-1465.47"/>
</g>
<!-- AWA -->
<g id="node21" class="node">
<title>AWA</title>
<ellipse fill="none" stroke="black" cx="380.81" cy="-1361" rx="32.6" ry="18"/>
<text text-anchor="middle" x="380.81" y="-1355.58" font-family="Times New Roman,serif" font-size="14.00">AWA</text>
</g>
<!-- AWB&#45;&gt;AWA -->
<g id="edge21" class="edge">
<title>AWB&#45;&gt;AWA</title>
<path fill="none" stroke="red" stroke-width="2" d="M268.49,-1471.03C295.87,-1438.85 326.66,-1405.08 348.91,-1383.22"/>
<polygon fill="red" stroke="red" stroke-width="2" points="351.19,-1385.87 356,-1376.43 346.35,-1380.82 351.19,-1385.87"/>
</g>
<!-- AWC -->
<g id="node22" class="node">
<title>AWC</title>
<ellipse fill="none" stroke="black" cx="380.81" cy="-1282" rx="32.6" ry="18"/>
<text text-anchor="middle" x="380.81" y="-1276.58" font-family="Times New Roman,serif" font-size="14.00">AWC</text>
</g>
<!-- AWB&#45;&gt;AWC -->
<g id="edge22" class="edge">
<title>AWB&#45;&gt;AWC</title>
<path fill="none" stroke="gray" stroke-width="0.2" d="M260.91,-1465.69C301.06,-1399.15 348.21,-1321 348.21,-1321 348.21,-1321 353.91,-1313.97 360.47,-1305.87"/>
<polygon fill="gray" stroke="gray" stroke-width="0.2" points="362.83,-1308.52 366.4,-1298.55 357.39,-1304.11 362.83,-1308.52"/>
</g>
<!-- HSN -->
<g id="node23" class="node">
<title>HSN</title>
<ellipse fill="none" stroke="black" cx="380.81" cy="-1203" rx="29.11" ry="18"/>
<text text-anchor="middle" x="380.81" y="-1197.58" font-family="Times New Roman,serif" font-size="14.00">HSN</text>
</g>
<!-- AWB&#45;&gt;HSN -->
<g id="edge23" class="edge">
<title>AWB&#45;&gt;HSN</title>
<path fill="none" stroke="gray" stroke-width="2" d="M243.91,-1457.12C280.14,-1371.81 330.71,-1259.3 349.16,-1223.3"/>
<polygon fill="gray" stroke="gray" stroke-width="2" points="352.13,-1225.16 354.04,-1214.74 346.05,-1221.7 352.13,-1225.16"/>
</g>
<!-- OLQ -->
<g id="node24" class="node">
<title>OLQ</title>
<ellipse fill="none" stroke="black" cx="380.81" cy="-1124" rx="30.11" ry="18"/>
<text text-anchor="middle" x="380.81" y="-1118.58" font-family="Times New Roman,serif" font-size="14.00">OLQ</text>
</g>
<!-- AWB&#45;&gt;OLQ -->
<g id="edge24" class="edge">
<title>AWB&#45;&gt;OLQ</title>
<path fill="none" stroke="gray" stroke-width="0.2" d="M241.95,-1456.53C284.31,-1339.5 348.21,-1163 348.21,-1163 348.21,-1163 353.91,-1155.97 360.47,-1147.87"/>
<polygon fill="gray" stroke="gray" stroke-width="0.2" points="362.83,-1150.52 366.4,-1140.55 357.39,-1146.11 362.83,-1150.52"/>
</g>
<!-- PVC -->
<g id="node25" class="node">
<title>PVC</title>
<ellipse fill="none" stroke="black" cx="380.81" cy="-1045" rx="29.11" ry="18"/>
<text text-anchor="middle" x="380.81" y="-1039.58" font-family="Times New Roman,serif" font-size="14.00">PVC</text>
</g>
<!-- AWB&#45;&gt;PVC -->
<g id="edge25" class="edge">
<title>AWB&#45;&gt;PVC</title>
<path fill="none" stroke="blue" stroke-width="5" d="M236.42,-1454.56C278.49,-1315.09 348.21,-1084 348.21,-1084 348.21,-1084 351.93,-1079.42 356.81,-1073.39"/>
<polygon fill="blue" stroke="blue" stroke-width="5" points="360.14,-1076.23 363.03,-1065.71 353.34,-1070.72 360.14,-1076.23"/>
</g>
<!-- PVN -->
<g id="node26" class="node">
<title>PVN</title>
<ellipse fill="none" stroke="black" cx="380.81" cy="-966" rx="29.11" ry="18"/>
<text text-anchor="middle" x="380.81" y="-960.58" font-family="Times New Roman,serif" font-size="14.00">PVN</text>
</g>
<!-- AWB&#45;&gt;PVN -->
<g id="edge26" class="edge">
<title>AWB&#45;&gt;PVN</title>
<path fill="none" stroke="blue" stroke-width="2" d="M229.15,-1452.66C265.56,-1304.04 332.1,-1045.89 350.98,-987.09"/>
<polygon fill="blue" stroke="blue" stroke-width="2" points="354.18,-988.53 354.46,-977.94 347.63,-986.04 354.18,-988.53"/>
</g>
<!-- PVP -->
<g id="node27" class="node">
<title>PVP</title>
<ellipse fill="none" stroke="black" cx="380.81" cy="-887" rx="28.11" ry="18"/>
<text text-anchor="middle" x="380.81" y="-881.58" font-family="Times New Roman,serif" font-size="14.00">PVP</text>
</g>
<!-- AWB&#45;&gt;PVP -->
<g id="edge27" class="edge">
<title>AWB&#45;&gt;PVP</title>
<path fill="none" stroke="gray" stroke-width="2" d="M226.47,-1451.89C262.41,-1284.61 332.62,-973.52 351.6,-907.94"/>
<polygon fill="gray" stroke="gray" stroke-width="2" points="354.86,-909.22 354.86,-898.62 348.26,-906.91 354.86,-909.22"/>
</g>
<!-- PVQ -->
<g id="node28" class="node">
<title>PVQ</title>
<ellipse fill="none" stroke="black" cx="380.81" cy="-808" rx="29.61" ry="18"/>
<text text-anchor="middle" x="380.81" y="-802.58" font-family="Times New Roman,serif" font-size="14.00">PVQ</text>
</g>
<!-- AWB&#45;&gt;PVQ -->
<g id="edge28" class="edge">
<title>AWB&#45;&gt;PVQ</title>
<path fill="none" stroke="gray" stroke-width="nan" d="M224.28,-1451.57C263.21,-1248.14 348.21,-825.5 348.21,-825.5 348.21,-825.5 351.15,-821.88 355.23,-817.45"/>
<polygon fill="gray" stroke="gray" stroke-width="nan" points="nan,-nan nan,-nan nan,-nan nan,-nan"/>
</g>
<!-- RIA -->
<g id="node29" class="node">
<title>RIA</title>
<ellipse fill="none" stroke="black" cx="380.81" cy="-729" rx="27" ry="18"/>
<text text-anchor="middle" x="380.81" y="-723.58" font-family="Times New Roman,serif" font-size="14.00">RIA</text>
</g>
<!-- AWB&#45;&gt;RIA -->
<g id="edge29" class="edge">
<title>AWB&#45;&gt;RIA</title>
<path fill="none" stroke="black" stroke-width="nan" d="M224.5,-1451.46C263.53,-1235.82 348.21,-768 348.21,-768 348.21,-768 358.21,-755.66 366.96,-744.86"/>
<polygon fill="black" stroke="black" stroke-width="nan" points="nan,-nan nan,-nan nan,-nan nan,-nan"/>
</g>
<!-- RIB -->
<g id="node30" class="node">
<title>RIB</title>
<ellipse fill="none" stroke="black" cx="380.81" cy="-650" rx="27" ry="18"/>
<text text-anchor="middle" x="380.81" y="-644.58" font-family="Times New Roman,serif" font-size="14.00">RIB</text>
</g>
<!-- AWB&#45;&gt;RIB -->
<g id="edge30" class="edge">
<title>AWB&#45;&gt;RIB</title>
<path fill="none" stroke="gray" stroke-width="0.2" d="M222.75,-1451.44C260.93,-1219.4 348.21,-689 348.21,-689 348.21,-689 353.95,-681.91 360.54,-673.78"/>
<polygon fill="gray" stroke="gray" stroke-width="0.2" points="363.19,-676.07 366.77,-666.1 357.75,-671.66 363.19,-676.07"/>
</g>
<!-- RIF -->
<g id="node31" class="node">
<title>RIF</title>
<ellipse fill="none" stroke="black" cx="380.81" cy="-571" rx="27" ry="18"/>
<text text-anchor="middle" x="380.81" y="-565.58" font-family="Times New Roman,serif" font-size="14.00">RIF</text>
</g>
<!-- AWB&#45;&gt;RIF -->
<g id="edge31" class="edge">
<title>AWB&#45;&gt;RIF</title>
<path fill="none" stroke="gray" stroke-width="5" d="M219.78,-1451.04C253.01,-1220.57 332.63,-691.86 352.54,-594.51"/>
<polygon fill="gray" stroke="gray" stroke-width="5" points="356.71,-595.88 354.96,-585.11 348.23,-593.7 356.71,-595.88"/>
</g>
<!-- RIG -->
<g id="node32" class="node">
<title>RIG</title>
<ellipse fill="none" stroke="black" cx="380.81" cy="-492" rx="27.11" ry="18"/>
<text text-anchor="middle" x="380.81" y="-486.57" font-family="Times New Roman,serif" font-size="14.00">RIG</text>
</g>
<!-- AWB&#45;&gt;RIG -->
<g id="edge32" class="edge">
<title>AWB&#45;&gt;RIG</title>
<path fill="none" stroke="red" stroke-width="2" d="M220.11,-1451C256.74,-1187.96 348.21,-531 348.21,-531 348.21,-531 353.16,-524.9 359.13,-517.52"/>
<polygon fill="red" stroke="red" stroke-width="2" points="361.48,-520.19 365.05,-510.21 356.04,-515.78 361.48,-520.19"/>
</g>
<!-- RIR -->
<g id="node33" class="node">
<title>RIR</title>
<ellipse fill="none" stroke="black" cx="380.81" cy="-413" rx="27" ry="18"/>
<text text-anchor="middle" x="380.81" y="-407.57" font-family="Times New Roman,serif" font-size="14.00">RIR</text>
</g>
<!-- AWB&#45;&gt;RIR -->
<g id="edge33" class="edge">
<title>AWB&#45;&gt;RIR</title>
<path fill="none" stroke="gray" stroke-width="5" d="M217.84,-1450.56C249.99,-1191.13 333.32,-545.78 352.92,-436.74"/>
<polygon fill="gray" stroke="gray" stroke-width="5" points="357.15,-437.87 355.12,-427.15 348.62,-435.92 357.15,-437.87"/>
</g>
<!-- RIS -->
<g id="node34" class="node">
<title>RIS</title>
<ellipse fill="none" stroke="black" cx="380.81" cy="-334" rx="27" ry="18"/>
<text text-anchor="middle" x="380.81" y="-328.57" font-family="Times New Roman,serif" font-size="14.00">RIS</text>
</g>
<!-- AWB&#45;&gt;RIS -->
<g id="edge34" class="edge">
<title>AWB&#45;&gt;RIS</title>
<path fill="none" stroke="gray" stroke-width="0.2" d="M218.19,-1450.49C253.41,-1158.58 348.21,-373 348.21,-373 348.21,-373 353.95,-365.91 360.54,-357.78"/>
<polygon fill="gray" stroke="gray" stroke-width="0.2" points="363.19,-360.07 366.77,-350.1 357.75,-355.66 363.19,-360.07"/>
</g>
<!-- SIA -->
<g id="node35" class="node">
<title>SIA</title>
<ellipse fill="none" stroke="black" cx="380.81" cy="-255" rx="27" ry="18"/>
<text text-anchor="middle" x="380.81" y="-249.57" font-family="Times New Roman,serif" font-size="14.00">SIA</text>
</g>
<!-- AWB&#45;&gt;SIA -->
<g id="edge35" class="edge">
<title>AWB&#45;&gt;SIA</title>
<path fill="none" stroke="gray" stroke-width="0.2" d="M217.37,-1450.5C251.93,-1145.07 348.21,-294 348.21,-294 348.21,-294 353.95,-286.91 360.54,-278.78"/>
<polygon fill="gray" stroke="gray" stroke-width="0.2" points="363.19,-281.07 366.77,-271.1 357.75,-276.66 363.19,-281.07"/>
</g>
<!-- SIB -->
<g id="node36" class="node">
<title>SIB</title>
<ellipse fill="none" stroke="black" cx="380.81" cy="-176" rx="27" ry="18"/>
<text text-anchor="middle" x="380.81" y="-170.57" font-family="Times New Roman,serif" font-size="14.00">SIB</text>
</g>
<!-- AWB&#45;&gt;SIB -->
<g id="edge36" class="edge">
<title>AWB&#45;&gt;SIB</title>
<path fill="none" stroke="gray" stroke-width="0.2" d="M216.67,-1450.37C250.61,-1131.68 348.21,-215 348.21,-215 348.21,-215 353.95,-207.91 360.54,-199.78"/>
<polygon fill="gray" stroke="gray" stroke-width="0.2" points="363.19,-202.07 366.77,-192.1 357.75,-197.66 363.19,-202.07"/>
</g>
<!-- SMB -->
<g id="node37" class="node">
<title>SMB</title>
<ellipse fill="none" stroke="black" cx="380.81" cy="-97" rx="30.11" ry="18"/>
<text text-anchor="middle" x="380.81" y="-91.58" font-family="Times New Roman,serif" font-size="14.00">SMB</text>
</g>
<!-- AWB&#45;&gt;SMB -->
<g id="edge37" class="edge">
<title>AWB&#45;&gt;SMB</title>
<path fill="none" stroke="red" stroke-width="5" d="M216.05,-1450.24C249.39,-1118.68 348.21,-136 348.21,-136 348.21,-136 351.82,-131.54 356.6,-125.64"/>
<polygon fill="red" stroke="red" stroke-width="5" points="359.77,-128.68 362.67,-118.16 352.97,-123.17 359.77,-128.68"/>
</g>
<!-- URY -->
<g id="node38" class="node">
<title>URY</title>
<ellipse fill="none" stroke="black" cx="380.81" cy="-18" rx="30.11" ry="18"/>
<text text-anchor="middle" x="380.81" y="-12.57" font-family="Times New Roman,serif" font-size="14.00">URY</text>
</g>
<!-- AWB&#45;&gt;URY -->
<g id="edge38" class="edge">
<title>AWB&#45;&gt;URY</title>
<path fill="none" stroke="gray" stroke-width="5" d="M215.47,-1450.35C248.23,-1106.5 348.21,-57 348.21,-57 348.21,-57 351.82,-52.54 356.6,-46.64"/>
<polygon fill="gray" stroke="gray" stroke-width="5" points="359.77,-49.68 362.67,-39.16 352.97,-44.17 359.77,-49.68"/>
</g>
<!-- ADA&#45;&gt;AWB -->
<g id="edge39" class="edge">
<title>ADA&#45;&gt;AWB</title>
<path fill="none" stroke="gray" stroke-width="0.2" d="M354.91,-2852.21C351,-2847.94 348.21,-2844.5 348.21,-2844.5 348.21,-2844.5 252.07,-1994.01 217.45,-1675.9"/>
<polygon fill="gray" stroke="gray" stroke-width="0.2" points="220.94,-1675.59 216.38,-1666.03 213.98,-1676.35 220.94,-1675.59"/>
</g>
<!-- ADF&#45;&gt;AWB -->
<g id="edge40" class="edge">
<title>ADF&#45;&gt;AWB</title>
<path fill="none" stroke="gray" stroke-width="2" d="M355.54,-2773.89C351.3,-2769.31 348.21,-2765.5 348.21,-2765.5 348.21,-2765.5 254.02,-1984.32 218.53,-1678.45"/>
<polygon fill="gray" stroke="gray" stroke-width="2" points="222.01,-1678.11 217.38,-1668.58 215.06,-1678.91 222.01,-1678.11"/>
</g>
<!-- ADL&#45;&gt;AWB -->
<g id="edge41" class="edge">
<title>ADL&#45;&gt;AWB</title>
<path fill="none" stroke="black" stroke-width="2" d="M355.54,-2694.89C351.3,-2690.31 348.21,-2686.5 348.21,-2686.5 348.21,-2686.5 255.56,-1969.26 219.41,-1678.23"/>
<polygon fill="black" stroke="black" stroke-width="2" points="222.92,-1678.03 218.21,-1668.54 215.97,-1678.89 222.92,-1678.03"/>
</g>
<!-- AIA&#45;&gt;AWB -->
<g id="edge42" class="edge">
<title>AIA&#45;&gt;AWB</title>
<path fill="none" stroke="gray" stroke-width="0.2" d="M356.51,-2616.93C351.78,-2611.9 348.21,-2607.5 348.21,-2607.5 348.21,-2607.5 256.65,-1949.3 220.06,-1675.23"/>
<polygon fill="gray" stroke="gray" stroke-width="0.2" points="223.56,-1675 218.77,-1665.55 216.62,-1675.92 223.56,-1675"/>
</g>
<!-- AIM&#45;&gt;AWB -->
<g id="edge43" class="edge">
<title>AIM&#45;&gt;AWB</title>
<path fill="none" stroke="gray" stroke-width="0.2" d="M355.86,-2458.23C351.45,-2453.5 348.21,-2449.5 348.21,-2449.5 348.21,-2449.5 260.63,-1916.65 222.55,-1674.66"/>
<polygon fill="gray" stroke="gray" stroke-width="0.2" points="226.05,-1674.41 221.04,-1665.07 219.14,-1675.49 226.05,-1674.41"/>
</g>
<!-- AIY&#45;&gt;AWB -->
<g id="edge44" class="edge">
<title>AIY&#45;&gt;AWB</title>
<path fill="none" stroke="gray" stroke-width="0.2" d="M356.51,-2379.93C351.78,-2374.9 348.21,-2370.5 348.21,-2370.5 348.21,-2370.5 263.05,-1899.41 224.16,-1674.45"/>
<polygon fill="gray" stroke="gray" stroke-width="0.2" points="227.66,-1674.14 222.51,-1664.88 220.76,-1675.33 227.66,-1674.14"/>
</g>
<!-- AIZ&#45;&gt;AWB -->
<g id="edge45" class="edge">
<title>AIZ&#45;&gt;AWB</title>
<path fill="none" stroke="gray" stroke-width="2" d="M356.51,-2300.93C351.78,-2295.9 348.21,-2291.5 348.21,-2291.5 348.21,-2291.5 266.58,-1885.04 226.67,-1677.06"/>
<polygon fill="gray" stroke="gray" stroke-width="2" points="230.16,-1676.7 224.84,-1667.54 223.29,-1678.02 230.16,-1676.7"/>
</g>
<!-- ALM&#45;&gt;AWB -->
<g id="edge46" class="edge">
<title>ALM&#45;&gt;AWB</title>
<path fill="none" stroke="gray" stroke-width="0.2" d="M354.91,-2220.21C351,-2215.94 348.21,-2212.5 348.21,-2212.5 348.21,-2212.5 269.05,-1862.1 228.53,-1673.85"/>
<polygon fill="gray" stroke="gray" stroke-width="0.2" points="231.98,-1673.24 226.45,-1664.2 225.13,-1674.71 231.98,-1673.24"/>
</g>
<!-- ASE&#45;&gt;AWB -->
<g id="edge47" class="edge">
<title>ASE&#45;&gt;AWB</title>
<path fill="none" stroke="gray" stroke-width="0.2" d="M355.86,-2142.23C351.45,-2137.5 348.21,-2133.5 348.21,-2133.5 348.21,-2133.5 272.89,-1841.68 231.57,-1673.41"/>
<polygon fill="gray" stroke="gray" stroke-width="0.2" points="235,-1672.68 229.22,-1663.8 228.2,-1674.35 235,-1672.68"/>
</g>
<!-- ASH&#45;&gt;AWB -->
<g id="edge48" class="edge">
<title>ASH&#45;&gt;AWB</title>
<path fill="none" stroke="red" stroke-width="2" d="M355.54,-1983.89C351.3,-1979.31 348.21,-1975.5 348.21,-1975.5 348.21,-1975.5 283.82,-1797.2 241.46,-1673.38"/>
<polygon fill="red" stroke="red" stroke-width="2" points="244.82,-1672.4 238.28,-1664.07 238.2,-1674.66 244.82,-1672.4"/>
</g>
<!-- ASI&#45;&gt;AWB -->
<g id="edge49" class="edge">
<title>ASI&#45;&gt;AWB</title>
<path fill="none" stroke="gray" stroke-width="0.2" d="M356.51,-1905.93C351.78,-1900.9 348.21,-1896.5 348.21,-1896.5 348.21,-1896.5 289.78,-1766.97 247.62,-1667.89"/>
<polygon fill="gray" stroke="gray" stroke-width="0.2" points="250.97,-1666.83 243.84,-1658.99 244.53,-1669.56 250.97,-1666.83"/>
</g>
<!-- AVH&#45;&gt;AWB -->
<g id="edge50" class="edge">
<title>AVH&#45;&gt;AWB</title>
<path fill="none" stroke="red" stroke-width="2" d="M361.88,-1533.27C352.1,-1537.74 339.06,-1542.26 324.67,-1546.43"/>
<polygon fill="red" stroke="red" stroke-width="2" points="323.94,-1543 315.23,-1549.03 325.8,-1549.75 323.94,-1543"/>
</g>
<!-- AWA&#45;&gt;AWB -->
<g id="edge51" class="edge">
<title>AWA&#45;&gt;AWB</title>
<path fill="none" stroke="gray" stroke-width="5" d="M371.11,-1378.36C356.55,-1400.38 325.77,-1437.97 294.63,-1473.23"/>
<polygon fill="gray" stroke="gray" stroke-width="5" points="291.62,-1470.03 288.23,-1480.41 298.15,-1475.86 291.62,-1470.03"/>
</g>
<!-- HSN&#45;&gt;AWB -->
<g id="edge52" class="edge">
<title>HSN&#45;&gt;AWB</title>
<path fill="none" stroke="gray" stroke-width="5" d="M375.15,-1220.9C366.36,-1241.1 348.21,-1263.5 348.21,-1263.5 348.21,-1263.5 302.51,-1364.49 262.78,-1448.4"/>
<polygon fill="gray" stroke="gray" stroke-width="5" points="258.85,-1446.49 258.51,-1457.4 266.75,-1450.24 258.85,-1446.49"/>
</g>
<!-- PVN&#45;&gt;AWB -->
<g id="edge53" class="edge">
<title>PVN&#45;&gt;AWB</title>
<path fill="none" stroke="gray" stroke-width="0.2" d="M375.15,-983.9C366.36,-1004.1 348.21,-1026.5 348.21,-1026.5 348.21,-1026.5 280.48,-1288.43 238.24,-1444.75"/>
<polygon fill="gray" stroke="gray" stroke-width="0.2" points="234.94,-1443.57 235.71,-1454.13 241.7,-1445.4 234.94,-1443.57"/>
</g>
<!-- PVP&#45;&gt;AWB -->
<g id="edge54" class="edge">
<title>PVP&#45;&gt;AWB</title>
<path fill="none" stroke="blue" stroke-width="0.2" d="M375.15,-904.9C366.36,-925.1 348.21,-947.5 348.21,-947.5 348.21,-947.5 276.08,-1266.28 234.28,-1443.33"/>
<polygon fill="blue" stroke="blue" stroke-width="0.2" points="230.91,-1442.39 232.01,-1452.93 237.72,-1444 230.91,-1442.39"/>
</g>
<!-- PVQ&#45;&gt;AWB -->
<g id="edge55" class="edge">
<title>PVQ&#45;&gt;AWB</title>
<path fill="none" stroke="blue" stroke-width="2" d="M375.15,-825.9C366.36,-846.1 348.21,-868.5 348.21,-868.5 348.21,-868.5 272.99,-1242.51 231.66,-1439.81"/>
<polygon fill="blue" stroke="blue" stroke-width="2" points="228.24,-1439.07 229.61,-1449.58 235.09,-1440.51 228.24,-1439.07"/>
</g>
<!-- RIF&#45;&gt;AWB -->
<g id="edge56" class="edge">
<title>RIF&#45;&gt;AWB</title>
<path fill="none" stroke="gray" stroke-width="5" d="M375.15,-588.9C366.36,-609.1 348.21,-631.5 348.21,-631.5 348.21,-631.5 264.98,-1183.3 225.51,-1435.38"/>
<polygon fill="gray" stroke="gray" stroke-width="5" points="221.23,-1434.46 224,-1445.01 229.87,-1435.81 221.23,-1434.46"/>
</g>
<!-- RIR&#45;&gt;AWB -->
<g id="edge57" class="edge">
<title>RIR&#45;&gt;AWB</title>
<path fill="none" stroke="gray" stroke-width="0.2" d="M375.15,-430.9C366.36,-451.1 348.21,-473.5 348.21,-473.5 348.21,-473.5 259.41,-1160.3 221.77,-1440.95"/>
<polygon fill="gray" stroke="gray" stroke-width="0.2" points="218.35,-1440.09 220.49,-1450.46 225.29,-1441.02 218.35,-1440.09"/>
</g>
<!-- AFD -->
<g id="node39" class="node">
<title>AFD</title>
<ellipse fill="none" stroke="black" cx="30.11" cy="-1677" rx="29.11" ry="18"/>
<text text-anchor="middle" x="30.11" y="-1671.58" font-family="Times New Roman,serif" font-size="14.00">AFD</text>
</g>
<!-- AFD&#45;&gt;AWB -->
<g id="edge58" class="edge">
<title>AFD&#45;&gt;AWB</title>
<path fill="none" stroke="gray" stroke-width="2" d="M50.18,-1663.81C63.88,-1654.34 83.51,-1640.76 104.16,-1626.49"/>
<polygon fill="gray" stroke="gray" stroke-width="2" points="105.97,-1629.49 112.21,-1620.93 101.99,-1623.73 105.97,-1629.49"/>
</g>
<!-- ASK -->
<g id="node40" class="node">
<title>ASK</title>
<ellipse fill="none" stroke="black" cx="30.11" cy="-1598" rx="29.11" ry="18"/>
<text text-anchor="middle" x="30.11" y="-1592.58" font-family="Times New Roman,serif" font-size="14.00">ASK</text>
</g>
<!-- ASK&#45;&gt;AWB -->
<g id="edge59" class="edge">
<title>ASK&#45;&gt;AWB</title>
<path fill="none" stroke="gray" stroke-width="0.2" d="M57.62,-1591.84C66.61,-1589.75 77.29,-1587.27 88.74,-1584.61"/>
<polygon fill="gray" stroke="gray" stroke-width="0.2" points="89.26,-1588.08 98.21,-1582.4 87.68,-1581.26 89.26,-1588.08"/>
</g>
<!-- AVF -->
<g id="node41" class="node">
<title>AVF</title>
<ellipse fill="none" stroke="black" cx="30.11" cy="-1519" rx="29.11" ry="18"/>
<text text-anchor="middle" x="30.11" y="-1513.58" font-family="Times New Roman,serif" font-size="14.00">AVF</text>
</g>
<!-- AVF&#45;&gt;AWB -->
<g id="edge60" class="edge">
<title>AVF&#45;&gt;AWB</title>
<path fill="none" stroke="gray" stroke-width="0.2" d="M58,-1525.09C66.85,-1527.1 77.31,-1529.47 88.51,-1532.01"/>
<polygon fill="gray" stroke="gray" stroke-width="0.2" points="87.69,-1535.41 98.21,-1534.21 89.24,-1528.58 87.69,-1535.41"/>
</g>
<!-- URX -->
<g id="node42" class="node">
<title>URX</title>
<ellipse fill="none" stroke="black" cx="30.11" cy="-1440" rx="30.11" ry="18"/>
<text text-anchor="middle" x="30.11" y="-1434.58" font-family="Times New Roman,serif" font-size="14.00">URX</text>
</g>
<!-- URX&#45;&gt;AWB -->
<g id="edge61" class="edge">
<title>URX&#45;&gt;AWB</title>
<path fill="none" stroke="gray" stroke-width="0.2" d="M50.85,-1453.54C64.96,-1463.21 85.1,-1477.02 106.14,-1491.44"/>
<polygon fill="gray" stroke="gray" stroke-width="0.2" points="104.07,-1494.27 114.3,-1497.04 108.03,-1488.5 104.07,-1494.27"/>
</g>
</g>
</svg>
