<?xml version="1.0" encoding="UTF-8" standalone="no"?>
<!DOCTYPE svg PUBLIC "-//W3C//DTD SVG 1.1//EN"
 "http://www.w3.org/Graphics/SVG/1.1/DTD/svg11.dtd">
<!-- Generated by graphviz version 11.0.0 (20240428.1522)
 -->
<!-- Pages: 1 -->
<svg width="422pt" height="2177pt"
 viewBox="0.00 0.00 422.41 2177.00" xmlns="http://www.w3.org/2000/svg" xmlns:xlink="http://www.w3.org/1999/xlink">
<g id="graph0" class="graph" transform="scale(1 1) rotate(0) translate(4 2173)">
<polygon fill="white" stroke="none" points="-4,4 -4,-2173 418.41,-2173 418.41,4 -4,4"/>
<!-- AWC -->
<g id="node1" class="node">
<title>AWC</title>
<ellipse fill="none" stroke="black" cx="209.2" cy="-1282" rx="108" ry="108"/>
<text text-anchor="middle" x="209.2" y="-1263" font-family="Times New Roman,serif" font-size="50.00">AWC</text>
</g>
<!-- AWC&#45;&gt;AWC -->
<g id="edge1" class="edge">
<title>AWC&#45;&gt;AWC</title>
<path fill="none" stroke="gray" stroke-width="5" d="M176.78,-1385.39C178.7,-1412.51 189.51,-1433 209.2,-1433 224.82,-1433 234.85,-1420.12 239.29,-1401.26"/>
<polygon fill="gray" stroke="gray" stroke-width="5" points="243.59,-1402.1 240.72,-1391.56 234.93,-1400.82 243.59,-1402.1"/>
</g>
<!-- ADF -->
<g id="node2" class="node">
<title>ADF</title>
<ellipse fill="none" stroke="black" cx="383.81" cy="-2151" rx="29.11" ry="18"/>
<text text-anchor="middle" x="383.81" y="-2145.57" font-family="Times New Roman,serif" font-size="14.00">ADF</text>
</g>
<!-- AWC&#45;&gt;ADF -->
<g id="edge2" class="edge">
<title>AWC&#45;&gt;ADF</title>
<path fill="none" stroke="gray" stroke-width="0.2" d="M230.54,-1388.08C270.02,-1607.69 353.2,-2090.5 353.2,-2090.5 353.2,-2090.5 365.53,-2106.74 374.28,-2124.04"/>
<polygon fill="gray" stroke="gray" stroke-width="0.2" points="370.96,-2125.2 378.31,-2132.83 377.32,-2122.28 370.96,-2125.2"/>
</g>
<!-- ADL -->
<g id="node3" class="node">
<title>ADL</title>
<ellipse fill="none" stroke="black" cx="383.81" cy="-2072" rx="29.11" ry="18"/>
<text text-anchor="middle" x="383.81" y="-2066.57" font-family="Times New Roman,serif" font-size="14.00">ADL</text>
</g>
<!-- AWC&#45;&gt;ADL -->
<g id="edge3" class="edge">
<title>AWC&#45;&gt;ADL</title>
<path fill="none" stroke="gray" stroke-width="0.2" d="M232.7,-1387.7C272.97,-1590.16 353.2,-2011.5 353.2,-2011.5 353.2,-2011.5 365.53,-2027.74 374.28,-2045.04"/>
<polygon fill="gray" stroke="gray" stroke-width="0.2" points="370.96,-2046.2 378.31,-2053.83 377.32,-2043.28 370.96,-2046.2"/>
</g>
<!-- AFD -->
<g id="node4" class="node">
<title>AFD</title>
<ellipse fill="none" stroke="black" cx="383.81" cy="-1993" rx="29.11" ry="18"/>
<text text-anchor="middle" x="383.81" y="-1987.58" font-family="Times New Roman,serif" font-size="14.00">AFD</text>
</g>
<!-- AWC&#45;&gt;AFD -->
<g id="edge4" class="edge">
<title>AWC&#45;&gt;AFD</title>
<path fill="none" stroke="gray" stroke-width="2" d="M235.36,-1387.17C276.39,-1571.53 353.2,-1932.5 353.2,-1932.5 353.2,-1932.5 364.43,-1947.29 373.05,-1963.67"/>
<polygon fill="gray" stroke="gray" stroke-width="2" points="369.72,-1964.81 377.15,-1972.36 376.05,-1961.83 369.72,-1964.81"/>
</g>
<!-- AIA -->
<g id="node5" class="node">
<title>AIA</title>
<ellipse fill="none" stroke="black" cx="383.81" cy="-1914" rx="27" ry="18"/>
<text text-anchor="middle" x="383.81" y="-1908.58" font-family="Times New Roman,serif" font-size="14.00">AIA</text>
</g>
<!-- AWC&#45;&gt;AIA -->
<g id="edge5" class="edge">
<title>AWC&#45;&gt;AIA</title>
<path fill="none" stroke="gray" stroke-width="5" d="M238.63,-1386.19C280.33,-1551.3 353.2,-1853.5 353.2,-1853.5 353.2,-1853.5 363.17,-1866.63 371.54,-1881.85"/>
<polygon fill="gray" stroke="gray" stroke-width="5" points="367.42,-1883.4 375.72,-1890.49 375.3,-1879.58 367.42,-1883.4"/>
</g>
<!-- AIB -->
<g id="node6" class="node">
<title>AIB</title>
<ellipse fill="none" stroke="black" cx="383.81" cy="-1835" rx="27" ry="18"/>
<text text-anchor="middle" x="383.81" y="-1829.58" font-family="Times New Roman,serif" font-size="14.00">AIB</text>
</g>
<!-- AWC&#45;&gt;AIB -->
<g id="edge6" class="edge">
<title>AWC&#45;&gt;AIB</title>
<path fill="none" stroke="black" stroke-width="5" d="M242.83,-1384.85C285.03,-1529.48 353.2,-1774.5 353.2,-1774.5 353.2,-1774.5 363.17,-1787.63 371.54,-1802.85"/>
<polygon fill="black" stroke="black" stroke-width="5" points="367.42,-1804.4 375.72,-1811.49 375.3,-1800.58 367.42,-1804.4"/>
</g>
<!-- AIM -->
<g id="node7" class="node">
<title>AIM</title>
<ellipse fill="none" stroke="black" cx="383.81" cy="-1756" rx="28.11" ry="18"/>
<text text-anchor="middle" x="383.81" y="-1750.58" font-family="Times New Roman,serif" font-size="14.00">AIM</text>
</g>
<!-- AWC&#45;&gt;AIM -->
<g id="edge7" class="edge">
<title>AWC&#45;&gt;AIM</title>
<path fill="none" stroke="gray" stroke-width="0.2" d="M243.91,-1384.54C286.19,-1513.14 353.2,-1717 353.2,-1717 353.2,-1717 358.33,-1723.75 364.31,-1731.63"/>
<polygon fill="gray" stroke="gray" stroke-width="0.2" points="361.41,-1733.6 370.24,-1739.45 366.98,-1729.36 361.41,-1733.6"/>
</g>
<!-- AIN -->
<g id="node8" class="node">
<title>AIN</title>
<ellipse fill="none" stroke="black" cx="383.81" cy="-1677" rx="27" ry="18"/>
<text text-anchor="middle" x="383.81" y="-1671.58" font-family="Times New Roman,serif" font-size="14.00">AIN</text>
</g>
<!-- AWC&#45;&gt;AIN -->
<g id="edge8" class="edge">
<title>AWC&#45;&gt;AIN</title>
<path fill="none" stroke="gray" stroke-width="0.2" d="M256.04,-1379.79C297.87,-1478.74 353.2,-1616.5 353.2,-1616.5 353.2,-1616.5 365.53,-1632.74 374.28,-1650.04"/>
<polygon fill="gray" stroke="gray" stroke-width="0.2" points="370.96,-1651.2 378.31,-1658.83 377.32,-1648.28 370.96,-1651.2"/>
</g>
<!-- AIY -->
<g id="node9" class="node">
<title>AIY</title>
<ellipse fill="none" stroke="black" cx="383.81" cy="-1598" rx="27" ry="18"/>
<text text-anchor="middle" x="383.81" y="-1592.58" font-family="Times New Roman,serif" font-size="14.00">AIY</text>
</g>
<!-- AWC&#45;&gt;AIY -->
<g id="edge9" class="edge">
<title>AWC&#45;&gt;AIY</title>
<path fill="none" stroke="black" stroke-width="5" d="M266.72,-1373.97C306.69,-1447.4 353.2,-1537.5 353.2,-1537.5 353.2,-1537.5 363.17,-1550.63 371.54,-1565.85"/>
<polygon fill="black" stroke="black" stroke-width="5" points="367.42,-1567.4 375.72,-1574.49 375.3,-1563.58 367.42,-1567.4"/>
</g>
<!-- AIZ -->
<g id="node10" class="node">
<title>AIZ</title>
<ellipse fill="none" stroke="black" cx="383.81" cy="-1519" rx="27" ry="18"/>
<text text-anchor="middle" x="383.81" y="-1513.58" font-family="Times New Roman,serif" font-size="14.00">AIZ</text>
</g>
<!-- AWC&#45;&gt;AIZ -->
<g id="edge10" class="edge">
<title>AWC&#45;&gt;AIZ</title>
<path fill="none" stroke="red" stroke-width="2" d="M281.91,-1362.46C317.59,-1409.19 353.2,-1458.5 353.2,-1458.5 353.2,-1458.5 364.43,-1473.29 373.05,-1489.67"/>
<polygon fill="red" stroke="red" stroke-width="2" points="369.72,-1490.81 377.15,-1498.36 376.05,-1487.83 369.72,-1490.81"/>
</g>
<!-- ASE -->
<g id="node11" class="node">
<title>ASE</title>
<ellipse fill="none" stroke="black" cx="383.81" cy="-1440" rx="28.11" ry="18"/>
<text text-anchor="middle" x="383.81" y="-1434.58" font-family="Times New Roman,serif" font-size="14.00">ASE</text>
</g>
<!-- AWC&#45;&gt;ASE -->
<g id="edge11" class="edge">
<title>AWC&#45;&gt;ASE</title>
<path fill="none" stroke="red" stroke-width="5" d="M297.01,-1345.34C321.72,-1367.98 346.37,-1392.33 362.87,-1410.98"/>
<polygon fill="red" stroke="red" stroke-width="5" points="359.31,-1413.55 369.09,-1418.39 366.01,-1407.92 359.31,-1413.55"/>
</g>
<!-- ASG -->
<g id="node12" class="node">
<title>ASG</title>
<ellipse fill="none" stroke="black" cx="383.81" cy="-1361" rx="29.61" ry="18"/>
<text text-anchor="middle" x="383.81" y="-1355.58" font-family="Times New Roman,serif" font-size="14.00">ASG</text>
</g>
<!-- AWC&#45;&gt;ASG -->
<g id="edge12" class="edge">
<title>AWC&#45;&gt;ASG</title>
<path fill="none" stroke="gray" stroke-width="5" d="M313.1,-1313.24C328.63,-1320.86 343.42,-1328.85 355.35,-1336.26"/>
<polygon fill="gray" stroke="gray" stroke-width="5" points="352.84,-1339.84 363.58,-1341.78 357.71,-1332.58 352.84,-1339.84"/>
</g>
<!-- ASH -->
<g id="node13" class="node">
<title>ASH</title>
<ellipse fill="none" stroke="black" cx="383.81" cy="-1282" rx="29.11" ry="18"/>
<text text-anchor="middle" x="383.81" y="-1276.58" font-family="Times New Roman,serif" font-size="14.00">ASH</text>
</g>
<!-- AWC&#45;&gt;ASH -->
<g id="edge13" class="edge">
<title>AWC&#45;&gt;ASH</title>
<path fill="none" stroke="gray" stroke-width="2" d="M316.07,-1266.25C327.46,-1266.69 338.36,-1267.53 347.93,-1268.75"/>
<polygon fill="gray" stroke="gray" stroke-width="2" points="347.08,-1272.16 357.51,-1270.27 348.18,-1265.25 347.08,-1272.16"/>
</g>
<!-- ASI -->
<g id="node14" class="node">
<title>ASI</title>
<ellipse fill="none" stroke="black" cx="383.81" cy="-1203" rx="27" ry="18"/>
<text text-anchor="middle" x="383.81" y="-1197.58" font-family="Times New Roman,serif" font-size="14.00">ASI</text>
</g>
<!-- AWC&#45;&gt;ASI -->
<g id="edge14" class="edge">
<title>AWC&#45;&gt;ASI</title>
<path fill="none" stroke="red" stroke-width="0.2" d="M301.05,-1224.31C317.23,-1217.05 333.2,-1210.64 346.67,-1206.13"/>
<polygon fill="red" stroke="red" stroke-width="0.2" points="347.66,-1209.49 356.16,-1203.16 345.57,-1202.81 347.66,-1209.49"/>
</g>
<!-- ASK -->
<g id="node15" class="node">
<title>ASK</title>
<ellipse fill="none" stroke="black" cx="383.81" cy="-1124" rx="29.11" ry="18"/>
<text text-anchor="middle" x="383.81" y="-1118.58" font-family="Times New Roman,serif" font-size="14.00">ASK</text>
</g>
<!-- AWC&#45;&gt;ASK -->
<g id="edge15" class="edge">
<title>AWC&#45;&gt;ASK</title>
<path fill="none" stroke="gray" stroke-width="2" d="M280.91,-1201.39C304.47,-1179.1 329.64,-1156.99 349.07,-1141.78"/>
<polygon fill="gray" stroke="gray" stroke-width="2" points="350.96,-1144.74 356.82,-1135.92 346.73,-1139.16 350.96,-1144.74"/>
</g>
<!-- AVA -->
<g id="node16" class="node">
<title>AVA</title>
<ellipse fill="none" stroke="black" cx="383.81" cy="-1045" rx="30.11" ry="18"/>
<text text-anchor="middle" x="383.81" y="-1039.58" font-family="Times New Roman,serif" font-size="14.00">AVA</text>
</g>
<!-- AWC&#45;&gt;AVA -->
<g id="edge16" class="edge">
<title>AWC&#45;&gt;AVA</title>
<path fill="none" stroke="gray" stroke-width="0.2" d="M273.34,-1194.58C311.65,-1141.54 353.2,-1084 353.2,-1084 353.2,-1084 358.33,-1077.25 364.31,-1069.37"/>
<polygon fill="gray" stroke="gray" stroke-width="0.2" points="366.98,-1071.64 370.24,-1061.55 361.41,-1067.4 366.98,-1071.64"/>
</g>
<!-- AVE -->
<g id="node17" class="node">
<title>AVE</title>
<ellipse fill="none" stroke="black" cx="383.81" cy="-966" rx="29.11" ry="18"/>
<text text-anchor="middle" x="383.81" y="-960.58" font-family="Times New Roman,serif" font-size="14.00">AVE</text>
</g>
<!-- AWC&#45;&gt;AVE -->
<g id="edge17" class="edge">
<title>AWC&#45;&gt;AVE</title>
<path fill="none" stroke="gray" stroke-width="0.2" d="M259.61,-1186.28C300.95,-1106.22 353.2,-1005 353.2,-1005 353.2,-1005 358.33,-998.25 364.31,-990.37"/>
<polygon fill="gray" stroke="gray" stroke-width="0.2" points="366.98,-992.64 370.24,-982.55 361.41,-988.4 366.98,-992.64"/>
</g>
<!-- BAG -->
<g id="node18" class="node">
<title>BAG</title>
<ellipse fill="none" stroke="black" cx="383.81" cy="-887" rx="30.11" ry="18"/>
<text text-anchor="middle" x="383.81" y="-881.58" font-family="Times New Roman,serif" font-size="14.00">BAG</text>
</g>
<!-- AWC&#45;&gt;BAG -->
<g id="edge18" class="edge">
<title>AWC&#45;&gt;BAG</title>
<path fill="none" stroke="gray" stroke-width="2" d="M250.42,-1181.89C292.71,-1076.59 353.2,-926 353.2,-926 353.2,-926 357.51,-920.33 362.83,-913.31"/>
<polygon fill="gray" stroke="gray" stroke-width="2" points="365.33,-915.81 368.59,-905.72 359.76,-911.57 365.33,-915.81"/>
</g>
<!-- CEP -->
<g id="node19" class="node">
<title>CEP</title>
<ellipse fill="none" stroke="black" cx="383.81" cy="-808" rx="28.11" ry="18"/>
<text text-anchor="middle" x="383.81" y="-802.58" font-family="Times New Roman,serif" font-size="14.00">CEP</text>
</g>
<!-- AWC&#45;&gt;CEP -->
<g id="edge19" class="edge">
<title>AWC&#45;&gt;CEP</title>
<path fill="none" stroke="gray" stroke-width="5" d="M243.91,-1179.46C286.19,-1050.86 353.2,-847 353.2,-847 353.2,-847 356.41,-842.77 360.72,-837.1"/>
<polygon fill="gray" stroke="gray" stroke-width="5" points="364.09,-839.89 366.65,-829.28 357.12,-834.6 364.09,-839.89"/>
</g>
<!-- HSN -->
<g id="node20" class="node">
<title>HSN</title>
<ellipse fill="none" stroke="black" cx="383.81" cy="-729" rx="29.11" ry="18"/>
<text text-anchor="middle" x="383.81" y="-723.58" font-family="Times New Roman,serif" font-size="14.00">HSN</text>
</g>
<!-- AWC&#45;&gt;HSN -->
<g id="edge20" class="edge">
<title>AWC&#45;&gt;HSN</title>
<path fill="none" stroke="gray" stroke-width="0.2" d="M239.14,-1177.98C280.93,-1027.79 353.2,-768 353.2,-768 353.2,-768 358.33,-761.25 364.31,-753.37"/>
<polygon fill="gray" stroke="gray" stroke-width="0.2" points="366.98,-755.64 370.24,-745.55 361.41,-751.4 366.98,-755.64"/>
</g>
<!-- IL1 -->
<g id="node21" class="node">
<title>IL1</title>
<ellipse fill="none" stroke="black" cx="383.81" cy="-650" rx="27" ry="18"/>
<text text-anchor="middle" x="383.81" y="-644.58" font-family="Times New Roman,serif" font-size="14.00">IL1</text>
</g>
<!-- AWC&#45;&gt;IL1 -->
<g id="edge21" class="edge">
<title>AWC&#45;&gt;IL1</title>
<path fill="none" stroke="gray" stroke-width="0.2" d="M235.52,-1177.01C276.59,-1006.69 353.2,-689 353.2,-689 353.2,-689 358.47,-682.06 364.56,-674.03"/>
<polygon fill="gray" stroke="gray" stroke-width="0.2" points="367.32,-676.19 370.58,-666.1 361.75,-671.95 367.32,-676.19"/>
</g>
<!-- IL2 -->
<g id="node22" class="node">
<title>IL2</title>
<ellipse fill="none" stroke="black" cx="383.81" cy="-571" rx="27" ry="18"/>
<text text-anchor="middle" x="383.81" y="-565.58" font-family="Times New Roman,serif" font-size="14.00">IL2</text>
</g>
<!-- AWC&#45;&gt;IL2 -->
<g id="edge22" class="edge">
<title>AWC&#45;&gt;IL2</title>
<path fill="none" stroke="red" stroke-width="2" d="M230.31,-1175.59C266.01,-999.16 337.93,-660.34 356.22,-592.12"/>
<polygon fill="red" stroke="red" stroke-width="2" points="359.42,-593.58 359.14,-582.99 352.76,-591.45 359.42,-593.58"/>
</g>
<!-- OLL -->
<g id="node23" class="node">
<title>OLL</title>
<ellipse fill="none" stroke="black" cx="383.81" cy="-492" rx="28.61" ry="18"/>
<text text-anchor="middle" x="383.81" y="-486.57" font-family="Times New Roman,serif" font-size="14.00">OLL</text>
</g>
<!-- AWC&#45;&gt;OLL -->
<g id="edge23" class="edge">
<title>AWC&#45;&gt;OLL</title>
<path fill="none" stroke="gray" stroke-width="0.2" d="M230.39,-1175.99C269.81,-968.98 353.2,-531 353.2,-531 353.2,-531 358.33,-524.25 364.31,-516.37"/>
<polygon fill="gray" stroke="gray" stroke-width="0.2" points="366.98,-518.64 370.24,-508.55 361.41,-514.4 366.98,-518.64"/>
</g>
<!-- RIA -->
<g id="node24" class="node">
<title>RIA</title>
<ellipse fill="none" stroke="black" cx="383.81" cy="-413" rx="27" ry="18"/>
<text text-anchor="middle" x="383.81" y="-407.57" font-family="Times New Roman,serif" font-size="14.00">RIA</text>
</g>
<!-- AWC&#45;&gt;RIA -->
<g id="edge24" class="edge">
<title>AWC&#45;&gt;RIA</title>
<path fill="none" stroke="gray" stroke-width="0.2" d="M228.53,-1175.61C267.12,-951.65 353.2,-452 353.2,-452 353.2,-452 358.47,-445.06 364.56,-437.03"/>
<polygon fill="gray" stroke="gray" stroke-width="0.2" points="367.32,-439.19 370.58,-429.1 361.75,-434.95 367.32,-439.19"/>
</g>
<!-- RIM -->
<g id="node25" class="node">
<title>RIM</title>
<ellipse fill="none" stroke="black" cx="383.81" cy="-334" rx="28.11" ry="18"/>
<text text-anchor="middle" x="383.81" y="-328.57" font-family="Times New Roman,serif" font-size="14.00">RIM</text>
</g>
<!-- AWC&#45;&gt;RIM -->
<g id="edge25" class="edge">
<title>AWC&#45;&gt;RIM</title>
<path fill="none" stroke="gray" stroke-width="0.2" d="M227.03,-1175.05C264.83,-934.77 353.2,-373 353.2,-373 353.2,-373 358.33,-366.25 364.31,-358.37"/>
<polygon fill="gray" stroke="gray" stroke-width="0.2" points="366.98,-360.64 370.24,-350.55 361.41,-356.4 366.98,-360.64"/>
</g>
<!-- RIV -->
<g id="node26" class="node">
<title>RIV</title>
<ellipse fill="none" stroke="black" cx="383.81" cy="-255" rx="27" ry="18"/>
<text text-anchor="middle" x="383.81" y="-249.57" font-family="Times New Roman,serif" font-size="14.00">RIV</text>
</g>
<!-- AWC&#45;&gt;RIV -->
<g id="edge26" class="edge">
<title>AWC&#45;&gt;RIV</title>
<path fill="none" stroke="gray" stroke-width="0.2" d="M225.71,-1174.86C262.73,-919.09 353.2,-294 353.2,-294 353.2,-294 358.47,-287.06 364.56,-279.03"/>
<polygon fill="gray" stroke="gray" stroke-width="0.2" points="367.32,-281.19 370.58,-271.1 361.75,-276.95 367.32,-281.19"/>
</g>
<!-- RMF -->
<g id="node27" class="node">
<title>RMF</title>
<ellipse fill="none" stroke="black" cx="383.81" cy="-176" rx="30.61" ry="18"/>
<text text-anchor="middle" x="383.81" y="-170.57" font-family="Times New Roman,serif" font-size="14.00">RMF</text>
</g>
<!-- AWC&#45;&gt;RMF -->
<g id="edge27" class="edge">
<title>AWC&#45;&gt;RMF</title>
<path fill="none" stroke="gray" stroke-width="0.2" d="M223.27,-1174.56C256.26,-917.57 341.07,-284.05 356.46,-196.77"/>
<polygon fill="gray" stroke="gray" stroke-width="0.2" points="359.86,-197.6 358.57,-187.08 353.02,-196.11 359.86,-197.6"/>
</g>
<!-- SIB -->
<g id="node28" class="node">
<title>SIB</title>
<ellipse fill="none" stroke="black" cx="383.81" cy="-97" rx="27" ry="18"/>
<text text-anchor="middle" x="383.81" y="-91.58" font-family="Times New Roman,serif" font-size="14.00">SIB</text>
</g>
<!-- AWC&#45;&gt;SIB -->
<g id="edge28" class="edge">
<title>AWC&#45;&gt;SIB</title>
<path fill="none" stroke="gray" stroke-width="0.2" d="M223.59,-1174.7C259.14,-889.81 353.2,-136 353.2,-136 353.2,-136 358.47,-129.06 364.56,-121.03"/>
<polygon fill="gray" stroke="gray" stroke-width="0.2" points="367.32,-123.19 370.58,-113.1 361.75,-118.95 367.32,-123.19"/>
</g>
<!-- SMD -->
<g id="node29" class="node">
<title>SMD</title>
<ellipse fill="none" stroke="black" cx="383.81" cy="-18" rx="30.61" ry="18"/>
<text text-anchor="middle" x="383.81" y="-12.57" font-family="Times New Roman,serif" font-size="14.00">SMD</text>
</g>
<!-- AWC&#45;&gt;SMD -->
<g id="edge29" class="edge">
<title>AWC&#45;&gt;SMD</title>
<path fill="none" stroke="gray" stroke-width="0.2" d="M222.77,-1174.36C257.66,-875.44 353.2,-57 353.2,-57 353.2,-57 358.33,-50.25 364.31,-42.37"/>
<polygon fill="gray" stroke="gray" stroke-width="0.2" points="366.98,-44.64 370.24,-34.55 361.41,-40.4 366.98,-44.64"/>
</g>
<!-- ADF&#45;&gt;AWC -->
<g id="edge30" class="edge">
<title>ADF&#45;&gt;AWC</title>
<path fill="none" stroke="gray" stroke-width="0.2" d="M359.19,-2140.87C355.68,-2136.76 353.2,-2133.5 353.2,-2133.5 353.2,-2133.5 266.89,-1632.5 228.38,-1398.9"/>
<polygon fill="gray" stroke="gray" stroke-width="0.2" points="231.87,-1398.6 226.79,-1389.3 224.97,-1399.73 231.87,-1398.6"/>
</g>
<!-- ADL&#45;&gt;AWC -->
<g id="edge31" class="edge">
<title>ADL&#45;&gt;AWC</title>
<path fill="none" stroke="gray" stroke-width="5" d="M359.19,-2061.87C355.68,-2057.76 353.2,-2054.5 353.2,-2054.5 353.2,-2054.5 270.96,-1622.59 231.22,-1404.48"/>
<polygon fill="gray" stroke="gray" stroke-width="5" points="235.52,-1403.71 229.43,-1394.65 226.91,-1405.27 235.52,-1403.71"/>
</g>
<!-- AFD&#45;&gt;AWC -->
<g id="edge32" class="edge">
<title>AFD&#45;&gt;AWC</title>
<path fill="none" stroke="gray" stroke-width="0.2" d="M359.19,-1982.87C355.68,-1978.76 353.2,-1975.5 353.2,-1975.5 353.2,-1975.5 272.45,-1596.01 232.31,-1398.26"/>
<polygon fill="gray" stroke="gray" stroke-width="0.2" points="235.79,-1397.81 230.37,-1388.7 228.93,-1399.2 235.79,-1397.81"/>
</g>
<!-- AIA&#45;&gt;AWC -->
<g id="edge33" class="edge">
<title>AIA&#45;&gt;AWC</title>
<path fill="none" stroke="black" stroke-width="5" d="M360.07,-1904.89C356.09,-1900.31 353.2,-1896.5 353.2,-1896.5 353.2,-1896.5 277.53,-1582.7 236.28,-1403.37"/>
<polygon fill="black" stroke="black" stroke-width="5" points="240.6,-1402.62 234.1,-1393.85 232.07,-1404.58 240.6,-1402.62"/>
</g>
<!-- AIB&#45;&gt;AWC -->
<g id="edge34" class="edge">
<title>AIB&#45;&gt;AWC</title>
<path fill="none" stroke="gray" stroke-width="0.2" d="M360.07,-1825.89C356.09,-1821.31 353.2,-1817.5 353.2,-1817.5 353.2,-1817.5 280,-1554.37 238.34,-1396.77"/>
<polygon fill="gray" stroke="gray" stroke-width="0.2" points="241.78,-1396.08 235.84,-1387.31 235.01,-1397.87 241.78,-1396.08"/>
</g>
<!-- AIN&#45;&gt;AWC -->
<g id="edge35" class="edge">
<title>AIN&#45;&gt;AWC</title>
<path fill="none" stroke="gray" stroke-width="0.2" d="M360.07,-1667.89C356.09,-1663.31 353.2,-1659.5 353.2,-1659.5 353.2,-1659.5 291.06,-1504.8 248.71,-1393.2"/>
<polygon fill="gray" stroke="gray" stroke-width="0.2" points="252.11,-1392.29 245.29,-1384.18 245.56,-1394.77 252.11,-1392.29"/>
</g>
<!-- AIY&#45;&gt;AWC -->
<g id="edge36" class="edge">
<title>AIY&#45;&gt;AWC</title>
<path fill="none" stroke="gray" stroke-width="2" d="M360.07,-1588.89C356.09,-1584.31 353.2,-1580.5 353.2,-1580.5 353.2,-1580.5 300.21,-1477.85 258.75,-1392.68"/>
<polygon fill="gray" stroke="gray" stroke-width="2" points="261.94,-1391.25 254.43,-1383.78 255.64,-1394.31 261.94,-1391.25"/>
</g>
<!-- AIZ&#45;&gt;AWC -->
<g id="edge37" class="edge">
<title>AIZ&#45;&gt;AWC</title>
<path fill="none" stroke="red" stroke-width="2" d="M360.07,-1509.89C356.09,-1505.31 353.2,-1501.5 353.2,-1501.5 353.2,-1501.5 310.7,-1442.65 272.04,-1385.64"/>
<polygon fill="red" stroke="red" stroke-width="2" points="275.07,-1383.87 266.57,-1377.54 269.26,-1387.78 275.07,-1383.87"/>
</g>
<!-- ASE&#45;&gt;AWC -->
<g id="edge38" class="edge">
<title>ASE&#45;&gt;AWC</title>
<path fill="none" stroke="red" stroke-width="5" d="M359.63,-1430.2C342.19,-1417.55 317.14,-1396.19 292.53,-1373.47"/>
<polygon fill="red" stroke="red" stroke-width="5" points="295.76,-1370.5 285.46,-1366.87 289.78,-1376.89 295.76,-1370.5"/>
</g>
<!-- ASG&#45;&gt;AWC -->
<g id="edge39" class="edge">
<title>ASG&#45;&gt;AWC</title>
<path fill="none" stroke="gray" stroke-width="5" d="M353.86,-1360.16C342.9,-1356.85 329.68,-1351.91 315.75,-1346.07"/>
<polygon fill="gray" stroke="gray" stroke-width="5" points="317.69,-1342.14 306.77,-1342.17 314.2,-1350.17 317.69,-1342.14"/>
</g>
<!-- ASH&#45;&gt;AWC -->
<g id="edge40" class="edge">
<title>ASH&#45;&gt;AWC</title>
<path fill="none" stroke="gray" stroke-width="0.2" d="M360.5,-1293.25C350.96,-1295.12 339.05,-1296.46 326.13,-1297.25"/>
<polygon fill="gray" stroke="gray" stroke-width="0.2" points="326.19,-1293.74 316.38,-1297.74 326.54,-1300.73 326.19,-1293.74"/>
</g>
<!-- ASI&#45;&gt;AWC -->
<g id="edge41" class="edge">
<title>ASI&#45;&gt;AWC</title>
<path fill="none" stroke="gray" stroke-width="5" d="M369.02,-1218.56C358.88,-1226.07 344.03,-1234.85 327.41,-1243.52"/>
<polygon fill="gray" stroke="gray" stroke-width="5" points="325.61,-1239.53 318.67,-1247.95 329.56,-1247.34 325.61,-1239.53"/>
</g>
<!-- ASK&#45;&gt;AWC -->
<g id="edge42" class="edge">
<title>ASK&#45;&gt;AWC</title>
<path fill="none" stroke="gray" stroke-width="2" d="M372.86,-1141.15C359.24,-1158.42 333.4,-1184.75 306.25,-1210.11"/>
<polygon fill="gray" stroke="gray" stroke-width="2" points="304.2,-1207.25 299.23,-1216.61 308.95,-1212.38 304.2,-1207.25"/>
</g>
<!-- IL2&#45;&gt;AWC -->
<g id="edge43" class="edge">
<title>IL2&#45;&gt;AWC</title>
<path fill="none" stroke="gray" stroke-width="0.2" d="M378.44,-588.9C370.2,-609.1 353.2,-631.5 353.2,-631.5 353.2,-631.5 279.07,-979.89 237.55,-1166.95"/>
<polygon fill="gray" stroke="gray" stroke-width="0.2" points="234.17,-1166.01 235.42,-1176.53 241.01,-1167.53 234.17,-1166.01"/>
</g>
<!-- RMF&#45;&gt;AWC -->
<g id="edge44" class="edge">
<title>RMF&#45;&gt;AWC</title>
<path fill="none" stroke="gray" stroke-width="0.2" d="M378.44,-193.9C370.2,-214.1 353.2,-236.5 353.2,-236.5 353.2,-236.5 265.36,-891.96 227.37,-1165.06"/>
<polygon fill="gray" stroke="gray" stroke-width="0.2" points="223.94,-1164.32 226.03,-1174.71 230.87,-1165.29 223.94,-1164.32"/>
</g>
<!-- AWA -->
<g id="node30" class="node">
<title>AWA</title>
<ellipse fill="none" stroke="black" cx="32.6" cy="-1361" rx="32.6" ry="18"/>
<text text-anchor="middle" x="32.6" y="-1355.58" font-family="Times New Roman,serif" font-size="14.00">AWA</text>
</g>
<!-- AWA&#45;&gt;AWC -->
<g id="edge45" class="edge">
<title>AWA&#45;&gt;AWC</title>
<path fill="none" stroke="gray" stroke-width="2" d="M58.62,-1349.68C69.81,-1344.62 83.86,-1338.26 98.84,-1331.48"/>
<polygon fill="gray" stroke="gray" stroke-width="2" points="100.01,-1334.79 107.68,-1327.48 97.12,-1328.42 100.01,-1334.79"/>
</g>
<!-- AWB -->
<g id="node31" class="node">
<title>AWB</title>
<ellipse fill="none" stroke="black" cx="32.6" cy="-1282" rx="32.1" ry="18"/>
<text text-anchor="middle" x="32.6" y="-1276.58" font-family="Times New Roman,serif" font-size="14.00">AWB</text>
</g>
<!-- AWB&#45;&gt;AWC -->
<g id="edge46" class="edge">
<title>AWB&#45;&gt;AWC</title>
<path fill="none" stroke="gray" stroke-width="0.2" d="M64.82,-1282C72.68,-1282 81.59,-1282 91.04,-1282"/>
<polygon fill="gray" stroke="gray" stroke-width="0.2" points="90.75,-1285.5 100.75,-1282 90.75,-1278.5 90.75,-1285.5"/>
</g>
<!-- URY -->
<g id="node32" class="node">
<title>URY</title>
<ellipse fill="none" stroke="black" cx="32.6" cy="-1203" rx="30.11" ry="18"/>
<text text-anchor="middle" x="32.6" y="-1197.58" font-family="Times New Roman,serif" font-size="14.00">URY</text>
</g>
<!-- URY&#45;&gt;AWC -->
<g id="edge47" class="edge">
<title>URY&#45;&gt;AWC</title>
<path fill="none" stroke="gray" stroke-width="0.2" d="M57.15,-1213.65C69.16,-1219.09 84.72,-1226.13 101.28,-1233.62"/>
<polygon fill="gray" stroke="gray" stroke-width="0.2" points="99.73,-1236.76 110.28,-1237.7 102.62,-1230.38 99.73,-1236.76"/>
</g>
</g>
</svg>
