<?xml version="1.0" encoding="UTF-8" standalone="no"?>
<!DOCTYPE svg PUBLIC "-//W3C//DTD SVG 1.1//EN"
 "http://www.w3.org/Graphics/SVG/1.1/DTD/svg11.dtd">
<!-- Generated by graphviz version 11.0.0 (20240428.1522)
 -->
<!-- Pages: 1 -->
<svg width="422pt" height="1940pt"
 viewBox="0.00 0.00 422.41 1940.00" xmlns="http://www.w3.org/2000/svg" xmlns:xlink="http://www.w3.org/1999/xlink">
<g id="graph0" class="graph" transform="scale(1 1) rotate(0) translate(4 1936)">
<polygon fill="white" stroke="none" points="-4,4 -4,-1936 418.41,-1936 418.41,4 -4,4"/>
<!-- BAG -->
<g id="node1" class="node">
<title>BAG</title>
<ellipse fill="none" stroke="black" cx="209.2" cy="-1045" rx="108" ry="108"/>
<text text-anchor="middle" x="209.2" y="-1026" font-family="Times New Roman,serif" font-size="50.00">BAG</text>
</g>
<!-- BAG&#45;&gt;BAG -->
<g id="edge1" class="edge">
<title>BAG&#45;&gt;BAG</title>
<path fill="none" stroke="gray" stroke-width="0.2" d="M176.78,-1148.39C178.7,-1175.51 189.51,-1196 209.2,-1196 226.36,-1196 236.77,-1180.45 240.44,-1158.52"/>
<polygon fill="gray" stroke="gray" stroke-width="0.2" points="243.91,-1159.03 241.59,-1148.69 236.95,-1158.22 243.91,-1159.03"/>
</g>
<!-- ADF -->
<g id="node2" class="node">
<title>ADF</title>
<ellipse fill="none" stroke="black" cx="383.81" cy="-1914" rx="29.11" ry="18"/>
<text text-anchor="middle" x="383.81" y="-1908.58" font-family="Times New Roman,serif" font-size="14.00">ADF</text>
</g>
<!-- BAG&#45;&gt;ADF -->
<g id="edge2" class="edge">
<title>BAG&#45;&gt;ADF</title>
<path fill="none" stroke="gray" stroke-width="0.2" d="M230.54,-1151.08C270.02,-1370.69 353.2,-1853.5 353.2,-1853.5 353.2,-1853.5 365.53,-1869.74 374.28,-1887.04"/>
<polygon fill="gray" stroke="gray" stroke-width="0.2" points="370.96,-1888.2 378.31,-1895.83 377.32,-1885.28 370.96,-1888.2"/>
</g>
<!-- AFD -->
<g id="node3" class="node">
<title>AFD</title>
<ellipse fill="none" stroke="black" cx="383.81" cy="-1835" rx="29.11" ry="18"/>
<text text-anchor="middle" x="383.81" y="-1829.58" font-family="Times New Roman,serif" font-size="14.00">AFD</text>
</g>
<!-- BAG&#45;&gt;AFD -->
<g id="edge3" class="edge">
<title>BAG&#45;&gt;AFD</title>
<path fill="none" stroke="gray" stroke-width="0.2" d="M232.7,-1150.7C272.97,-1353.16 353.2,-1774.5 353.2,-1774.5 353.2,-1774.5 365.53,-1790.74 374.28,-1808.04"/>
<polygon fill="gray" stroke="gray" stroke-width="0.2" points="370.96,-1809.2 378.31,-1816.83 377.32,-1806.28 370.96,-1809.2"/>
</g>
<!-- AIB -->
<g id="node4" class="node">
<title>AIB</title>
<ellipse fill="none" stroke="black" cx="383.81" cy="-1756" rx="27" ry="18"/>
<text text-anchor="middle" x="383.81" y="-1750.58" font-family="Times New Roman,serif" font-size="14.00">AIB</text>
</g>
<!-- BAG&#45;&gt;AIB -->
<g id="edge4" class="edge">
<title>BAG&#45;&gt;AIB</title>
<path fill="none" stroke="gray" stroke-width="2" d="M235.36,-1150.17C276.39,-1334.53 353.2,-1695.5 353.2,-1695.5 353.2,-1695.5 364.43,-1710.29 373.05,-1726.67"/>
<polygon fill="gray" stroke="gray" stroke-width="2" points="369.72,-1727.81 377.15,-1735.36 376.05,-1724.83 369.72,-1727.81"/>
</g>
<!-- AIN -->
<g id="node5" class="node">
<title>AIN</title>
<ellipse fill="none" stroke="black" cx="383.81" cy="-1677" rx="27" ry="18"/>
<text text-anchor="middle" x="383.81" y="-1671.58" font-family="Times New Roman,serif" font-size="14.00">AIN</text>
</g>
<!-- BAG&#45;&gt;AIN -->
<g id="edge5" class="edge">
<title>BAG&#45;&gt;AIN</title>
<path fill="none" stroke="gray" stroke-width="0.2" d="M238.63,-1149.19C280.33,-1314.3 353.2,-1616.5 353.2,-1616.5 353.2,-1616.5 365.53,-1632.74 374.28,-1650.04"/>
<polygon fill="gray" stroke="gray" stroke-width="0.2" points="370.96,-1651.2 378.31,-1658.83 377.32,-1648.28 370.96,-1651.2"/>
</g>
<!-- AIY -->
<g id="node6" class="node">
<title>AIY</title>
<ellipse fill="none" stroke="black" cx="383.81" cy="-1598" rx="27" ry="18"/>
<text text-anchor="middle" x="383.81" y="-1592.58" font-family="Times New Roman,serif" font-size="14.00">AIY</text>
</g>
<!-- BAG&#45;&gt;AIY -->
<g id="edge6" class="edge">
<title>BAG&#45;&gt;AIY</title>
<path fill="none" stroke="red" stroke-width="0.2" d="M242.83,-1147.85C285.03,-1292.48 353.2,-1537.5 353.2,-1537.5 353.2,-1537.5 365.53,-1553.74 374.28,-1571.04"/>
<polygon fill="red" stroke="red" stroke-width="0.2" points="370.96,-1572.2 378.31,-1579.83 377.32,-1569.28 370.96,-1572.2"/>
</g>
<!-- AIZ -->
<g id="node7" class="node">
<title>AIZ</title>
<ellipse fill="none" stroke="black" cx="383.81" cy="-1519" rx="27" ry="18"/>
<text text-anchor="middle" x="383.81" y="-1513.58" font-family="Times New Roman,serif" font-size="14.00">AIZ</text>
</g>
<!-- BAG&#45;&gt;AIZ -->
<g id="edge7" class="edge">
<title>BAG&#45;&gt;AIZ</title>
<path fill="none" stroke="gray" stroke-width="0.2" d="M248.43,-1145.99C290.79,-1268.64 353.2,-1458.5 353.2,-1458.5 353.2,-1458.5 365.53,-1474.74 374.28,-1492.04"/>
<polygon fill="gray" stroke="gray" stroke-width="0.2" points="370.96,-1493.2 378.31,-1500.83 377.32,-1490.28 370.96,-1493.2"/>
</g>
<!-- AQR -->
<g id="node8" class="node">
<title>AQR</title>
<ellipse fill="none" stroke="black" cx="383.81" cy="-1440" rx="30.61" ry="18"/>
<text text-anchor="middle" x="383.81" y="-1434.58" font-family="Times New Roman,serif" font-size="14.00">AQR</text>
</g>
<!-- BAG&#45;&gt;AQR -->
<g id="edge8" class="edge">
<title>BAG&#45;&gt;AQR</title>
<path fill="none" stroke="gray" stroke-width="0.2" d="M256.04,-1142.79C297.87,-1241.74 353.2,-1379.5 353.2,-1379.5 353.2,-1379.5 365.53,-1395.74 374.28,-1413.04"/>
<polygon fill="gray" stroke="gray" stroke-width="0.2" points="370.96,-1414.2 378.31,-1421.83 377.32,-1411.28 370.96,-1414.2"/>
</g>
<!-- AUA -->
<g id="node9" class="node">
<title>AUA</title>
<ellipse fill="none" stroke="black" cx="383.81" cy="-1361" rx="30.11" ry="18"/>
<text text-anchor="middle" x="383.81" y="-1355.58" font-family="Times New Roman,serif" font-size="14.00">AUA</text>
</g>
<!-- BAG&#45;&gt;AUA -->
<g id="edge9" class="edge">
<title>BAG&#45;&gt;AUA</title>
<path fill="none" stroke="gray" stroke-width="2" d="M266.72,-1136.97C306.69,-1210.4 353.2,-1300.5 353.2,-1300.5 353.2,-1300.5 364.43,-1315.29 373.05,-1331.67"/>
<polygon fill="gray" stroke="gray" stroke-width="2" points="369.72,-1332.81 377.15,-1340.36 376.05,-1329.83 369.72,-1332.81"/>
</g>
<!-- AVA -->
<g id="node10" class="node">
<title>AVA</title>
<ellipse fill="none" stroke="black" cx="383.81" cy="-1282" rx="30.11" ry="18"/>
<text text-anchor="middle" x="383.81" y="-1276.58" font-family="Times New Roman,serif" font-size="14.00">AVA</text>
</g>
<!-- BAG&#45;&gt;AVA -->
<g id="edge10" class="edge">
<title>BAG&#45;&gt;AVA</title>
<path fill="none" stroke="gray" stroke-width="5" d="M273.34,-1132.42C311.65,-1185.46 353.2,-1243 353.2,-1243 353.2,-1243 356.41,-1247.23 360.72,-1252.9"/>
<polygon fill="gray" stroke="gray" stroke-width="5" points="357.12,-1255.4 366.65,-1260.72 364.09,-1250.11 357.12,-1255.4"/>
</g>
<!-- AVD -->
<g id="node11" class="node">
<title>AVD</title>
<ellipse fill="none" stroke="black" cx="383.81" cy="-1203" rx="30.11" ry="18"/>
<text text-anchor="middle" x="383.81" y="-1197.58" font-family="Times New Roman,serif" font-size="14.00">AVD</text>
</g>
<!-- BAG&#45;&gt;AVD -->
<g id="edge11" class="edge">
<title>BAG&#45;&gt;AVD</title>
<path fill="none" stroke="gray" stroke-width="0.2" d="M289.68,-1117.76C314.92,-1140.86 340.94,-1164.68 359.04,-1181.25"/>
<polygon fill="gray" stroke="gray" stroke-width="0.2" points="356.32,-1183.5 366.06,-1187.67 361.05,-1178.34 356.32,-1183.5"/>
</g>
<!-- AVE -->
<g id="node12" class="node">
<title>AVE</title>
<ellipse fill="none" stroke="black" cx="383.81" cy="-1124" rx="29.11" ry="18"/>
<text text-anchor="middle" x="383.81" y="-1118.58" font-family="Times New Roman,serif" font-size="14.00">AVE</text>
</g>
<!-- BAG&#45;&gt;AVE -->
<g id="edge12" class="edge">
<title>BAG&#45;&gt;AVE</title>
<path fill="none" stroke="black" stroke-width="5" d="M307.85,-1089.69C321.02,-1095.72 333.83,-1101.58 345.03,-1106.71"/>
<polygon fill="black" stroke="black" stroke-width="5" points="343.06,-1110.62 353.98,-1110.81 346.71,-1102.67 343.06,-1110.62"/>
</g>
<!-- CEP -->
<g id="node13" class="node">
<title>CEP</title>
<ellipse fill="none" stroke="black" cx="383.81" cy="-1045" rx="28.11" ry="18"/>
<text text-anchor="middle" x="383.81" y="-1039.58" font-family="Times New Roman,serif" font-size="14.00">CEP</text>
</g>
<!-- BAG&#45;&gt;CEP -->
<g id="edge13" class="edge">
<title>BAG&#45;&gt;CEP</title>
<path fill="none" stroke="gray" stroke-width="0.2" d="M317.55,-1045C327.29,-1045 336.65,-1045 345.08,-1045"/>
<polygon fill="gray" stroke="gray" stroke-width="0.2" points="344.94,-1048.5 354.94,-1045 344.94,-1041.5 344.94,-1048.5"/>
</g>
<!-- OLQ -->
<g id="node14" class="node">
<title>OLQ</title>
<ellipse fill="none" stroke="black" cx="383.81" cy="-966" rx="30.11" ry="18"/>
<text text-anchor="middle" x="383.81" y="-960.58" font-family="Times New Roman,serif" font-size="14.00">OLQ</text>
</g>
<!-- BAG&#45;&gt;OLQ -->
<g id="edge14" class="edge">
<title>BAG&#45;&gt;OLQ</title>
<path fill="none" stroke="gray" stroke-width="0.2" d="M307.85,-1000.31C323.02,-993.36 337.71,-986.64 350.01,-981.01"/>
<polygon fill="gray" stroke="gray" stroke-width="0.2" points="351.41,-984.22 359.05,-976.87 348.5,-977.85 351.41,-984.22"/>
</g>
<!-- PVP -->
<g id="node15" class="node">
<title>PVP</title>
<ellipse fill="none" stroke="black" cx="383.81" cy="-887" rx="28.11" ry="18"/>
<text text-anchor="middle" x="383.81" y="-881.58" font-family="Times New Roman,serif" font-size="14.00">PVP</text>
</g>
<!-- BAG&#45;&gt;PVP -->
<g id="edge15" class="edge">
<title>BAG&#45;&gt;PVP</title>
<path fill="none" stroke="gray" stroke-width="0.2" d="M289.68,-972.24C315.23,-948.86 341.58,-924.74 359.7,-908.15"/>
<polygon fill="gray" stroke="gray" stroke-width="0.2" points="361.7,-911.06 366.72,-901.73 356.98,-905.9 361.7,-911.06"/>
</g>
<!-- RIA -->
<g id="node16" class="node">
<title>RIA</title>
<ellipse fill="none" stroke="black" cx="383.81" cy="-808" rx="27" ry="18"/>
<text text-anchor="middle" x="383.81" y="-802.58" font-family="Times New Roman,serif" font-size="14.00">RIA</text>
</g>
<!-- BAG&#45;&gt;RIA -->
<g id="edge16" class="edge">
<title>BAG&#45;&gt;RIA</title>
<path fill="none" stroke="black" stroke-width="5" d="M265.08,-952.05C296.9,-904.94 333.37,-854 350.86,-830.2"/>
<polygon fill="black" stroke="black" stroke-width="5" points="354.13,-833.14 356.63,-822.51 347.13,-827.89 354.13,-833.14"/>
</g>
<!-- RIB -->
<g id="node17" class="node">
<title>RIB</title>
<ellipse fill="none" stroke="black" cx="383.81" cy="-729" rx="27" ry="18"/>
<text text-anchor="middle" x="383.81" y="-723.58" font-family="Times New Roman,serif" font-size="14.00">RIB</text>
</g>
<!-- BAG&#45;&gt;RIB -->
<g id="edge17" class="edge">
<title>BAG&#45;&gt;RIB</title>
<path fill="none" stroke="black" stroke-width="5" d="M253.11,-945.94C287.66,-874.46 332.88,-786.05 351.81,-751.95"/>
<polygon fill="black" stroke="black" stroke-width="5" points="355.5,-754.29 356.87,-743.47 347.99,-749.81 355.5,-754.29"/>
</g>
<!-- RID -->
<g id="node18" class="node">
<title>RID</title>
<ellipse fill="none" stroke="black" cx="383.81" cy="-650" rx="27" ry="18"/>
<text text-anchor="middle" x="383.81" y="-644.58" font-family="Times New Roman,serif" font-size="14.00">RID</text>
</g>
<!-- BAG&#45;&gt;RID -->
<g id="edge18" class="edge">
<title>BAG&#45;&gt;RID</title>
<path fill="none" stroke="gray" stroke-width="0.2" d="M250.42,-944.89C292.71,-839.59 353.2,-689 353.2,-689 353.2,-689 358.47,-682.06 364.56,-674.03"/>
<polygon fill="gray" stroke="gray" stroke-width="0.2" points="367.32,-676.19 370.58,-666.1 361.75,-671.95 367.32,-676.19"/>
</g>
<!-- RIG -->
<g id="node19" class="node">
<title>RIG</title>
<ellipse fill="none" stroke="black" cx="383.81" cy="-571" rx="27.11" ry="18"/>
<text text-anchor="middle" x="383.81" y="-565.58" font-family="Times New Roman,serif" font-size="14.00">RIG</text>
</g>
<!-- BAG&#45;&gt;RIG -->
<g id="edge19" class="edge">
<title>BAG&#45;&gt;RIG</title>
<path fill="none" stroke="gray" stroke-width="5" d="M239.83,-940.97C275.91,-824.68 333.95,-647.22 353.74,-594.88"/>
<polygon fill="gray" stroke="gray" stroke-width="5" points="357.69,-596.76 357.61,-585.84 349.65,-593.31 357.69,-596.76"/>
</g>
<!-- RIP -->
<g id="node20" class="node">
<title>RIP</title>
<ellipse fill="none" stroke="black" cx="383.81" cy="-492" rx="27" ry="18"/>
<text text-anchor="middle" x="383.81" y="-486.57" font-family="Times New Roman,serif" font-size="14.00">RIP</text>
</g>
<!-- BAG&#45;&gt;RIP -->
<g id="edge20" class="edge">
<title>BAG&#45;&gt;RIP</title>
<path fill="none" stroke="gray" stroke-width="0.2" d="M239.14,-940.98C280.93,-790.79 353.2,-531 353.2,-531 353.2,-531 358.47,-524.06 364.56,-516.03"/>
<polygon fill="gray" stroke="gray" stroke-width="0.2" points="367.32,-518.19 370.58,-508.1 361.75,-513.95 367.32,-518.19"/>
</g>
<!-- RIR -->
<g id="node21" class="node">
<title>RIR</title>
<ellipse fill="none" stroke="black" cx="383.81" cy="-413" rx="27" ry="18"/>
<text text-anchor="middle" x="383.81" y="-407.57" font-family="Times New Roman,serif" font-size="14.00">RIR</text>
</g>
<!-- BAG&#45;&gt;RIR -->
<g id="edge21" class="edge">
<title>BAG&#45;&gt;RIR</title>
<path fill="none" stroke="gray" stroke-width="0.2" d="M232.7,-939.23C272.97,-763.19 353.2,-430.5 353.2,-430.5 353.2,-430.5 353.38,-430.26 353.72,-429.83"/>
<polygon fill="gray" stroke="gray" stroke-width="0.2" points="356.23,-432.29 359.88,-422.34 350.82,-427.84 356.23,-432.29"/>
</g>
<!-- RIV -->
<g id="node22" class="node">
<title>RIV</title>
<ellipse fill="none" stroke="black" cx="383.81" cy="-334" rx="27" ry="18"/>
<text text-anchor="middle" x="383.81" y="-328.57" font-family="Times New Roman,serif" font-size="14.00">RIV</text>
</g>
<!-- BAG&#45;&gt;RIV -->
<g id="edge22" class="edge">
<title>BAG&#45;&gt;RIV</title>
<path fill="none" stroke="gray" stroke-width="0.2" d="M232.7,-939.26C272.97,-750.02 353.2,-373 353.2,-373 353.2,-373 358.47,-366.06 364.56,-358.03"/>
<polygon fill="gray" stroke="gray" stroke-width="0.2" points="367.32,-360.19 370.58,-350.1 361.75,-355.95 367.32,-360.19"/>
</g>
<!-- RMF -->
<g id="node23" class="node">
<title>RMF</title>
<ellipse fill="none" stroke="black" cx="383.81" cy="-255" rx="30.61" ry="18"/>
<text text-anchor="middle" x="383.81" y="-249.57" font-family="Times New Roman,serif" font-size="14.00">RMF</text>
</g>
<!-- BAG&#45;&gt;RMF -->
<g id="edge23" class="edge">
<title>BAG&#45;&gt;RMF</title>
<path fill="none" stroke="gray" stroke-width="2" d="M228.31,-938.48C263.34,-745.37 338.06,-352.09 355.3,-277.92"/>
<polygon fill="gray" stroke="gray" stroke-width="2" points="358.56,-279.28 357.83,-268.71 351.81,-277.42 358.56,-279.28"/>
</g>
<!-- SMD -->
<g id="node24" class="node">
<title>SMD</title>
<ellipse fill="none" stroke="black" cx="383.81" cy="-176" rx="30.61" ry="18"/>
<text text-anchor="middle" x="383.81" y="-170.57" font-family="Times New Roman,serif" font-size="14.00">SMD</text>
</g>
<!-- BAG&#45;&gt;SMD -->
<g id="edge24" class="edge">
<title>BAG&#45;&gt;SMD</title>
<path fill="none" stroke="gray" stroke-width="0.2" d="M228.53,-938.61C267.12,-714.65 353.2,-215 353.2,-215 353.2,-215 358.33,-208.25 364.31,-200.37"/>
<polygon fill="gray" stroke="gray" stroke-width="0.2" points="366.98,-202.64 370.24,-192.55 361.41,-198.4 366.98,-202.64"/>
</g>
<!-- URA -->
<g id="node25" class="node">
<title>URA</title>
<ellipse fill="none" stroke="black" cx="383.81" cy="-97" rx="30.11" ry="18"/>
<text text-anchor="middle" x="383.81" y="-91.58" font-family="Times New Roman,serif" font-size="14.00">URA</text>
</g>
<!-- BAG&#45;&gt;URA -->
<g id="edge25" class="edge">
<title>BAG&#45;&gt;URA</title>
<path fill="none" stroke="gray" stroke-width="0.2" d="M227.03,-938.05C264.83,-697.77 353.2,-136 353.2,-136 353.2,-136 358.33,-129.25 364.31,-121.37"/>
<polygon fill="gray" stroke="gray" stroke-width="0.2" points="366.98,-123.64 370.24,-113.55 361.41,-119.4 366.98,-123.64"/>
</g>
<!-- URX -->
<g id="node26" class="node">
<title>URX</title>
<ellipse fill="none" stroke="black" cx="383.81" cy="-18" rx="30.11" ry="18"/>
<text text-anchor="middle" x="383.81" y="-12.57" font-family="Times New Roman,serif" font-size="14.00">URX</text>
</g>
<!-- BAG&#45;&gt;URX -->
<g id="edge26" class="edge">
<title>BAG&#45;&gt;URX</title>
<path fill="none" stroke="gray" stroke-width="0.2" d="M224.24,-937.78C257.81,-695.37 340.76,-121.5 356.56,-38.48"/>
<polygon fill="gray" stroke="gray" stroke-width="0.2" points="359.97,-39.29 358.84,-28.75 353.15,-37.69 359.97,-39.29"/>
</g>
<!-- ADF&#45;&gt;BAG -->
<g id="edge27" class="edge">
<title>ADF&#45;&gt;BAG</title>
<path fill="none" stroke="gray" stroke-width="2" d="M359.19,-1903.87C355.68,-1899.76 353.2,-1896.5 353.2,-1896.5 353.2,-1896.5 267.57,-1399.46 228.84,-1164.69"/>
<polygon fill="gray" stroke="gray" stroke-width="2" points="232.32,-1164.28 227.24,-1154.99 225.41,-1165.42 232.32,-1164.28"/>
</g>
<!-- AFD&#45;&gt;BAG -->
<g id="edge28" class="edge">
<title>AFD&#45;&gt;BAG</title>
<path fill="none" stroke="gray" stroke-width="0.2" d="M359.19,-1824.87C355.68,-1820.76 353.2,-1817.5 353.2,-1817.5 353.2,-1817.5 269.47,-1377.77 230.15,-1161.64"/>
<polygon fill="gray" stroke="gray" stroke-width="0.2" points="233.6,-1161.03 228.37,-1151.81 226.71,-1162.28 233.6,-1161.03"/>
</g>
<!-- AIB&#45;&gt;BAG -->
<g id="edge29" class="edge">
<title>AIB&#45;&gt;BAG</title>
<path fill="none" stroke="gray" stroke-width="0.2" d="M360.07,-1746.89C356.09,-1742.31 353.2,-1738.5 353.2,-1738.5 353.2,-1738.5 272.45,-1359.01 232.31,-1161.26"/>
<polygon fill="gray" stroke="gray" stroke-width="0.2" points="235.79,-1160.81 230.37,-1151.7 228.93,-1162.2 235.79,-1160.81"/>
</g>
<!-- AIN&#45;&gt;BAG -->
<g id="edge30" class="edge">
<title>AIN&#45;&gt;BAG</title>
<path fill="none" stroke="black" stroke-width="5" d="M360.07,-1667.89C356.09,-1663.31 353.2,-1659.5 353.2,-1659.5 353.2,-1659.5 277.53,-1345.7 236.28,-1166.37"/>
<polygon fill="black" stroke="black" stroke-width="5" points="240.6,-1165.62 234.1,-1156.85 232.07,-1167.58 240.6,-1165.62"/>
</g>
<!-- AIY&#45;&gt;BAG -->
<g id="edge31" class="edge">
<title>AIY&#45;&gt;BAG</title>
<path fill="none" stroke="red" stroke-width="0.2" d="M360.07,-1588.89C356.09,-1584.31 353.2,-1580.5 353.2,-1580.5 353.2,-1580.5 280,-1317.37 238.34,-1159.77"/>
<polygon fill="red" stroke="red" stroke-width="0.2" points="241.78,-1159.08 235.84,-1150.31 235.01,-1160.87 241.78,-1159.08"/>
</g>
<!-- AIZ&#45;&gt;BAG -->
<g id="edge32" class="edge">
<title>AIZ&#45;&gt;BAG</title>
<path fill="none" stroke="gray" stroke-width="0.2" d="M360.07,-1509.89C356.09,-1505.31 353.2,-1501.5 353.2,-1501.5 353.2,-1501.5 285.03,-1294.12 242.82,-1158.66"/>
<polygon fill="gray" stroke="gray" stroke-width="0.2" points="246.23,-1157.83 239.92,-1149.32 239.55,-1159.91 246.23,-1157.83"/>
</g>
<!-- AQR&#45;&gt;BAG -->
<g id="edge33" class="edge">
<title>AQR&#45;&gt;BAG</title>
<path fill="none" stroke="red" stroke-width="2" d="M358.63,-1429.21C355.42,-1425.42 353.2,-1422.5 353.2,-1422.5 353.2,-1422.5 292.06,-1270.28 249.73,-1158.9"/>
<polygon fill="red" stroke="red" stroke-width="2" points="253.07,-1157.84 246.26,-1149.73 246.53,-1160.32 253.07,-1157.84"/>
</g>
<!-- AUA&#45;&gt;BAG -->
<g id="edge34" class="edge">
<title>AUA&#45;&gt;BAG</title>
<path fill="none" stroke="gray" stroke-width="2" d="M358.91,-1350.54C355.54,-1346.58 353.2,-1343.5 353.2,-1343.5 353.2,-1343.5 300.21,-1240.85 258.75,-1155.68"/>
<polygon fill="gray" stroke="gray" stroke-width="2" points="261.94,-1154.25 254.43,-1146.78 255.64,-1157.31 261.94,-1154.25"/>
</g>
<!-- RIA&#45;&gt;BAG -->
<g id="edge35" class="edge">
<title>RIA&#45;&gt;BAG</title>
<path fill="none" stroke="gray" stroke-width="0.2" d="M378.44,-826.05C370.2,-846.53 353.2,-869.5 353.2,-869.5 353.2,-869.5 321.77,-912.81 288.37,-956.6"/>
<polygon fill="gray" stroke="gray" stroke-width="0.2" points="285.6,-954.46 282.3,-964.53 291.16,-958.71 285.6,-954.46"/>
</g>
<!-- RIB&#45;&gt;BAG -->
<g id="edge36" class="edge">
<title>RIB&#45;&gt;BAG</title>
<path fill="none" stroke="black" stroke-width="5" d="M378.44,-746.9C370.2,-767.1 353.2,-789.5 353.2,-789.5 353.2,-789.5 312.32,-868.69 274.28,-939.1"/>
<polygon fill="black" stroke="black" stroke-width="5" points="270.61,-936.67 269.69,-947.55 278.31,-940.85 270.61,-936.67"/>
</g>
<!-- RIG&#45;&gt;BAG -->
<g id="edge37" class="edge">
<title>RIG&#45;&gt;BAG</title>
<path fill="none" stroke="black" stroke-width="5" d="M378.44,-588.9C370.2,-609.1 353.2,-631.5 353.2,-631.5 353.2,-631.5 295.69,-806.46 253.61,-928.97"/>
<polygon fill="black" stroke="black" stroke-width="5" points="249.58,-927.24 250.46,-938.12 257.85,-930.09 249.58,-927.24"/>
</g>
<!-- RIR&#45;&gt;BAG -->
<g id="edge38" class="edge">
<title>RIR&#45;&gt;BAG</title>
<path fill="none" stroke="gray" stroke-width="5" d="M378.44,-430.9C370.2,-451.1 353.2,-473.5 353.2,-473.5 353.2,-473.5 284.74,-757.39 242.56,-925.2"/>
<polygon fill="gray" stroke="gray" stroke-width="5" points="238.35,-924 240.15,-934.76 246.83,-926.14 238.35,-924"/>
</g>
<!-- RMF&#45;&gt;BAG -->
<g id="edge39" class="edge">
<title>RMF&#45;&gt;BAG</title>
<path fill="none" stroke="red" stroke-width="2" d="M378.44,-272.9C370.2,-293.1 353.2,-315.5 353.2,-315.5 353.2,-315.5 276.23,-719.73 235.23,-926.57"/>
<polygon fill="red" stroke="red" stroke-width="2" points="231.81,-925.84 233.29,-936.33 238.67,-927.2 231.81,-925.84"/>
</g>
<!-- URX&#45;&gt;BAG -->
<g id="edge40" class="edge">
<title>URX&#45;&gt;BAG</title>
<path fill="none" stroke="gray" stroke-width="0.2" d="M378.44,-35.9C370.2,-56.1 353.2,-78.5 353.2,-78.5 353.2,-78.5 267.46,-670.88 228.76,-928.27"/>
<polygon fill="gray" stroke="gray" stroke-width="0.2" points="225.31,-927.7 227.28,-938.11 232.23,-928.74 225.31,-927.7"/>
</g>
<!-- ASE -->
<g id="node27" class="node">
<title>ASE</title>
<ellipse fill="none" stroke="black" cx="32.6" cy="-1282" rx="28.11" ry="18"/>
<text text-anchor="middle" x="32.6" y="-1276.58" font-family="Times New Roman,serif" font-size="14.00">ASE</text>
</g>
<!-- ASE&#45;&gt;BAG -->
<g id="edge41" class="edge">
<title>ASE&#45;&gt;BAG</title>
<path fill="none" stroke="gray" stroke-width="0.2" d="M46.45,-1266.14C55.2,-1255.34 65.2,-1243 65.2,-1243 65.2,-1243 102.64,-1191.16 139.21,-1140.53"/>
<polygon fill="gray" stroke="gray" stroke-width="0.2" points="141.87,-1142.82 144.89,-1132.67 136.19,-1138.73 141.87,-1142.82"/>
</g>
<!-- ASI -->
<g id="node28" class="node">
<title>ASI</title>
<ellipse fill="none" stroke="black" cx="32.6" cy="-1203" rx="27" ry="18"/>
<text text-anchor="middle" x="32.6" y="-1197.58" font-family="Times New Roman,serif" font-size="14.00">ASI</text>
</g>
<!-- ASI&#45;&gt;BAG -->
<g id="edge42" class="edge">
<title>ASI&#45;&gt;BAG</title>
<path fill="none" stroke="gray" stroke-width="0.2" d="M49.4,-1188.7C66.05,-1173.64 93.62,-1148.69 121.15,-1123.77"/>
<polygon fill="gray" stroke="gray" stroke-width="0.2" points="123.24,-1126.61 128.3,-1117.3 118.54,-1121.42 123.24,-1126.61"/>
</g>
<!-- AVH -->
<g id="node29" class="node">
<title>AVH</title>
<ellipse fill="none" stroke="black" cx="32.6" cy="-1124" rx="30.11" ry="18"/>
<text text-anchor="middle" x="32.6" y="-1118.58" font-family="Times New Roman,serif" font-size="14.00">AVH</text>
</g>
<!-- AVH&#45;&gt;BAG -->
<g id="edge43" class="edge">
<title>AVH&#45;&gt;BAG</title>
<path fill="none" stroke="gray" stroke-width="0.2" d="M57.15,-1113.35C69.16,-1107.91 84.72,-1100.87 101.28,-1093.38"/>
<polygon fill="gray" stroke="gray" stroke-width="0.2" points="102.62,-1096.62 110.28,-1089.3 99.73,-1090.24 102.62,-1096.62"/>
</g>
<!-- AWC -->
<g id="node30" class="node">
<title>AWC</title>
<ellipse fill="none" stroke="black" cx="32.6" cy="-1045" rx="32.6" ry="18"/>
<text text-anchor="middle" x="32.6" y="-1039.58" font-family="Times New Roman,serif" font-size="14.00">AWC</text>
</g>
<!-- AWC&#45;&gt;BAG -->
<g id="edge44" class="edge">
<title>AWC&#45;&gt;BAG</title>
<path fill="none" stroke="gray" stroke-width="2" d="M65.63,-1045C72.41,-1045 79.95,-1045 87.92,-1045"/>
<polygon fill="gray" stroke="gray" stroke-width="2" points="87.72,-1048.5 97.72,-1045 87.72,-1041.5 87.72,-1048.5"/>
</g>
<!-- IL2 -->
<g id="node31" class="node">
<title>IL2</title>
<ellipse fill="none" stroke="black" cx="32.6" cy="-966" rx="27" ry="18"/>
<text text-anchor="middle" x="32.6" y="-960.58" font-family="Times New Roman,serif" font-size="14.00">IL2</text>
</g>
<!-- IL2&#45;&gt;BAG -->
<g id="edge45" class="edge">
<title>IL2&#45;&gt;BAG</title>
<path fill="none" stroke="gray" stroke-width="0.2" d="M55.71,-976.01C67.9,-981.52 84.03,-988.82 101.24,-996.6"/>
<polygon fill="gray" stroke="gray" stroke-width="0.2" points="99.49,-999.65 110.04,-1000.59 102.37,-993.28 99.49,-999.65"/>
</g>
<!-- RIH -->
<g id="node32" class="node">
<title>RIH</title>
<ellipse fill="none" stroke="black" cx="32.6" cy="-887" rx="27" ry="18"/>
<text text-anchor="middle" x="32.6" y="-881.58" font-family="Times New Roman,serif" font-size="14.00">RIH</text>
</g>
<!-- RIH&#45;&gt;BAG -->
<g id="edge46" class="edge">
<title>RIH&#45;&gt;BAG</title>
<path fill="none" stroke="gray" stroke-width="2" d="M49.4,-901.3C65.62,-915.98 92.22,-940.04 119.04,-964.32"/>
<polygon fill="gray" stroke="gray" stroke-width="2" points="116.52,-966.75 126.28,-970.87 121.21,-961.56 116.52,-966.75"/>
</g>
<!-- URY -->
<g id="node33" class="node">
<title>URY</title>
<ellipse fill="none" stroke="black" cx="32.6" cy="-808" rx="30.11" ry="18"/>
<text text-anchor="middle" x="32.6" y="-802.58" font-family="Times New Roman,serif" font-size="14.00">URY</text>
</g>
<!-- URY&#45;&gt;BAG -->
<g id="edge47" class="edge">
<title>URY&#45;&gt;BAG</title>
<path fill="none" stroke="blue" stroke-width="5" d="M46.45,-824.27C55.2,-835.34 65.2,-848 65.2,-848 65.2,-848 100.09,-896.06 135.4,-944.71"/>
<polygon fill="blue" stroke="blue" stroke-width="5" points="131.78,-947.16 141.19,-952.69 138.86,-942.02 131.78,-947.16"/>
</g>
</g>
</svg>
