<?xml version="1.0" encoding="UTF-8" standalone="no"?>
<!DOCTYPE svg PUBLIC "-//W3C//DTD SVG 1.1//EN"
 "http://www.w3.org/Graphics/SVG/1.1/DTD/svg11.dtd">
<!-- Generated by graphviz version 11.0.0 (20240428.1522)
 -->
<!-- Pages: 1 -->
<svg width="420pt" height="2651pt"
 viewBox="0.00 0.00 420.42 2651.00" xmlns="http://www.w3.org/2000/svg" xmlns:xlink="http://www.w3.org/1999/xlink">
<g id="graph0" class="graph" transform="scale(1 1) rotate(0) translate(4 2647)">
<polygon fill="white" stroke="none" points="-4,4 -4,-2647 416.42,-2647 416.42,4 -4,4"/>
<!-- BDU -->
<g id="node1" class="node">
<title>BDU</title>
<ellipse fill="none" stroke="black" cx="204.21" cy="-1361" rx="108" ry="108"/>
<text text-anchor="middle" x="204.21" y="-1342" font-family="Times New Roman,serif" font-size="50.00">BDU</text>
</g>
<!-- BDU&#45;&gt;BDU -->
<g id="edge1" class="edge">
<title>BDU&#45;&gt;BDU</title>
<path fill="none" stroke="blue" stroke-width="2" d="M171.88,-1464.39C173.8,-1491.51 184.57,-1512 204.21,-1512 220.63,-1512 230.85,-1497.68 234.89,-1477.14"/>
<polygon fill="blue" stroke="blue" stroke-width="2" points="238.34,-1477.76 236.16,-1467.4 231.39,-1476.86 238.34,-1477.76"/>
</g>
<!-- ADA -->
<g id="node2" class="node">
<title>ADA</title>
<ellipse fill="none" stroke="black" cx="380.31" cy="-2625" rx="30.11" ry="18"/>
<text text-anchor="middle" x="380.31" y="-2619.57" font-family="Times New Roman,serif" font-size="14.00">ADA</text>
</g>
<!-- BDU&#45;&gt;ADA -->
<g id="edge2" class="edge">
<title>BDU&#45;&gt;ADA</title>
<path fill="none" stroke="gray" stroke-width="0.2" d="M217.78,-1468.64C252.67,-1767.56 348.21,-2586 348.21,-2586 348.21,-2586 353.59,-2592.75 359.88,-2600.63"/>
<polygon fill="gray" stroke="gray" stroke-width="0.2" points="357.14,-2602.81 366.12,-2608.45 362.62,-2598.45 357.14,-2602.81"/>
</g>
<!-- ADE -->
<g id="node3" class="node">
<title>ADE</title>
<ellipse fill="none" stroke="black" cx="380.31" cy="-2546" rx="29.11" ry="18"/>
<text text-anchor="middle" x="380.31" y="-2540.57" font-family="Times New Roman,serif" font-size="14.00">ADE</text>
</g>
<!-- BDU&#45;&gt;ADE -->
<g id="edge3" class="edge">
<title>BDU&#45;&gt;ADE</title>
<path fill="none" stroke="gray" stroke-width="0.2" d="M219.91,-1468.35C256.4,-1749.73 348.21,-2485.5 348.21,-2485.5 348.21,-2485.5 361.16,-2501.74 370.35,-2519.04"/>
<polygon fill="gray" stroke="gray" stroke-width="0.2" points="367.1,-2520.34 374.59,-2527.83 373.4,-2517.3 367.1,-2520.34"/>
</g>
<!-- ALM -->
<g id="node4" class="node">
<title>ALM</title>
<ellipse fill="none" stroke="black" cx="380.31" cy="-2467" rx="30.61" ry="18"/>
<text text-anchor="middle" x="380.31" y="-2461.57" font-family="Times New Roman,serif" font-size="14.00">ALM</text>
</g>
<!-- BDU&#45;&gt;ALM -->
<g id="edge4" class="edge">
<title>BDU&#45;&gt;ALM</title>
<path fill="none" stroke="gray" stroke-width="2" d="M220.99,-1467.99C258.18,-1734.74 348.21,-2406.5 348.21,-2406.5 348.21,-2406.5 360,-2421.29 369.07,-2437.67"/>
<polygon fill="gray" stroke="gray" stroke-width="2" points="365.81,-2438.98 373.38,-2446.39 372.08,-2435.87 365.81,-2438.98"/>
</g>
<!-- AVA -->
<g id="node5" class="node">
<title>AVA</title>
<ellipse fill="none" stroke="black" cx="380.31" cy="-2388" rx="30.11" ry="18"/>
<text text-anchor="middle" x="380.31" y="-2382.57" font-family="Times New Roman,serif" font-size="14.00">AVA</text>
</g>
<!-- BDU&#45;&gt;AVA -->
<g id="edge5" class="edge">
<title>BDU&#45;&gt;AVA</title>
<path fill="none" stroke="gray" stroke-width="0.2" d="M220.72,-1468.14C257.74,-1723.91 348.21,-2349 348.21,-2349 348.21,-2349 353.59,-2355.75 359.88,-2363.63"/>
<polygon fill="gray" stroke="gray" stroke-width="0.2" points="357.14,-2365.81 366.12,-2371.45 362.62,-2361.45 357.14,-2365.81"/>
</g>
<!-- AVB -->
<g id="node6" class="node">
<title>AVB</title>
<ellipse fill="none" stroke="black" cx="380.31" cy="-2309" rx="29.61" ry="18"/>
<text text-anchor="middle" x="380.31" y="-2303.57" font-family="Times New Roman,serif" font-size="14.00">AVB</text>
</g>
<!-- BDU&#45;&gt;AVB -->
<g id="edge6" class="edge">
<title>BDU&#45;&gt;AVB</title>
<path fill="none" stroke="gray" stroke-width="0.2" d="M222.04,-1467.95C259.84,-1708.23 348.21,-2270 348.21,-2270 348.21,-2270 353.59,-2276.75 359.88,-2284.63"/>
<polygon fill="gray" stroke="gray" stroke-width="0.2" points="357.14,-2286.81 366.12,-2292.45 362.62,-2282.45 357.14,-2286.81"/>
</g>
<!-- AVD -->
<g id="node7" class="node">
<title>AVD</title>
<ellipse fill="none" stroke="black" cx="380.31" cy="-2230" rx="30.11" ry="18"/>
<text text-anchor="middle" x="380.31" y="-2224.57" font-family="Times New Roman,serif" font-size="14.00">AVD</text>
</g>
<!-- BDU&#45;&gt;AVD -->
<g id="edge7" class="edge">
<title>BDU&#45;&gt;AVD</title>
<path fill="none" stroke="gray" stroke-width="0.2" d="M223.54,-1467.39C262.13,-1691.35 348.21,-2191 348.21,-2191 348.21,-2191 353.59,-2197.75 359.88,-2205.63"/>
<polygon fill="gray" stroke="gray" stroke-width="0.2" points="357.14,-2207.81 366.12,-2213.45 362.62,-2203.45 357.14,-2207.81"/>
</g>
<!-- AVF -->
<g id="node8" class="node">
<title>AVF</title>
<ellipse fill="none" stroke="black" cx="380.31" cy="-2151" rx="29.11" ry="18"/>
<text text-anchor="middle" x="380.31" y="-2145.57" font-family="Times New Roman,serif" font-size="14.00">AVF</text>
</g>
<!-- BDU&#45;&gt;AVF -->
<g id="edge8" class="edge">
<title>BDU&#45;&gt;AVF</title>
<path fill="none" stroke="gray" stroke-width="2" d="M227.71,-1466.7C267.98,-1669.16 348.21,-2090.5 348.21,-2090.5 348.21,-2090.5 360,-2105.29 369.07,-2121.67"/>
<polygon fill="gray" stroke="gray" stroke-width="2" points="365.81,-2122.98 373.38,-2130.39 372.08,-2119.87 365.81,-2122.98"/>
</g>
<!-- AVH -->
<g id="node9" class="node">
<title>AVH</title>
<ellipse fill="none" stroke="black" cx="380.31" cy="-2072" rx="30.11" ry="18"/>
<text text-anchor="middle" x="380.31" y="-2066.57" font-family="Times New Roman,serif" font-size="14.00">AVH</text>
</g>
<!-- BDU&#45;&gt;AVH -->
<g id="edge9" class="edge">
<title>BDU&#45;&gt;AVH</title>
<path fill="none" stroke="gray" stroke-width="2" d="M230.37,-1466.17C271.4,-1650.53 348.21,-2011.5 348.21,-2011.5 348.21,-2011.5 360,-2026.29 369.07,-2042.67"/>
<polygon fill="gray" stroke="gray" stroke-width="2" points="365.81,-2043.98 373.38,-2051.39 372.08,-2040.87 365.81,-2043.98"/>
</g>
<!-- AVJ -->
<g id="node10" class="node">
<title>AVJ</title>
<ellipse fill="none" stroke="black" cx="380.31" cy="-1993" rx="27.11" ry="18"/>
<text text-anchor="middle" x="380.31" y="-1987.58" font-family="Times New Roman,serif" font-size="14.00">AVJ</text>
</g>
<!-- BDU&#45;&gt;AVJ -->
<g id="edge10" class="edge">
<title>BDU&#45;&gt;AVJ</title>
<path fill="none" stroke="black" stroke-width="5" d="M230.53,-1465.99C271.6,-1636.31 348.21,-1954 348.21,-1954 348.21,-1954 351.87,-1958.58 356.67,-1964.61"/>
<polygon fill="black" stroke="black" stroke-width="5" points="353.12,-1967.17 362.77,-1972.26 359.96,-1961.71 353.12,-1967.17"/>
</g>
<!-- AVK -->
<g id="node11" class="node">
<title>AVK</title>
<ellipse fill="none" stroke="black" cx="380.31" cy="-1914" rx="30.11" ry="18"/>
<text text-anchor="middle" x="380.31" y="-1908.58" font-family="Times New Roman,serif" font-size="14.00">AVK</text>
</g>
<!-- BDU&#45;&gt;AVK -->
<g id="edge11" class="edge">
<title>BDU&#45;&gt;AVK</title>
<path fill="none" stroke="gray" stroke-width="0.2" d="M234.15,-1465.02C275.94,-1615.21 348.21,-1875 348.21,-1875 348.21,-1875 353.59,-1881.75 359.88,-1889.63"/>
<polygon fill="gray" stroke="gray" stroke-width="0.2" points="357.14,-1891.81 366.12,-1897.45 362.62,-1887.45 357.14,-1891.81"/>
</g>
<!-- AVM -->
<g id="node12" class="node">
<title>AVM</title>
<ellipse fill="none" stroke="black" cx="380.31" cy="-1835" rx="31.6" ry="18"/>
<text text-anchor="middle" x="380.31" y="-1829.58" font-family="Times New Roman,serif" font-size="14.00">AVM</text>
</g>
<!-- BDU&#45;&gt;AVM -->
<g id="edge12" class="edge">
<title>BDU&#45;&gt;AVM</title>
<path fill="none" stroke="gray" stroke-width="0.2" d="M243.44,-1461.99C285.8,-1584.64 348.21,-1774.5 348.21,-1774.5 348.21,-1774.5 361.16,-1790.74 370.35,-1808.04"/>
<polygon fill="gray" stroke="gray" stroke-width="0.2" points="367.1,-1809.34 374.59,-1816.83 373.4,-1806.3 367.1,-1809.34"/>
</g>
<!-- CEP -->
<g id="node13" class="node">
<title>CEP</title>
<ellipse fill="none" stroke="black" cx="380.31" cy="-1756" rx="28.11" ry="18"/>
<text text-anchor="middle" x="380.31" y="-1750.58" font-family="Times New Roman,serif" font-size="14.00">CEP</text>
</g>
<!-- BDU&#45;&gt;CEP -->
<g id="edge13" class="edge">
<title>BDU&#45;&gt;CEP</title>
<path fill="none" stroke="gray" stroke-width="2" d="M251.05,-1458.79C292.88,-1557.74 348.21,-1695.5 348.21,-1695.5 348.21,-1695.5 360,-1710.29 369.07,-1726.67"/>
<polygon fill="gray" stroke="gray" stroke-width="2" points="365.81,-1727.98 373.38,-1735.39 372.08,-1724.87 365.81,-1727.98"/>
</g>
<!-- HSN -->
<g id="node14" class="node">
<title>HSN</title>
<ellipse fill="none" stroke="black" cx="380.31" cy="-1677" rx="29.11" ry="18"/>
<text text-anchor="middle" x="380.31" y="-1671.58" font-family="Times New Roman,serif" font-size="14.00">HSN</text>
</g>
<!-- BDU&#45;&gt;HSN -->
<g id="edge14" class="edge">
<title>BDU&#45;&gt;HSN</title>
<path fill="none" stroke="red" stroke-width="2" d="M261.73,-1452.97C301.7,-1526.4 348.21,-1616.5 348.21,-1616.5 348.21,-1616.5 360,-1631.29 369.07,-1647.67"/>
<polygon fill="red" stroke="red" stroke-width="2" points="365.81,-1648.98 373.38,-1656.39 372.08,-1645.87 365.81,-1648.98"/>
</g>
<!-- IL1 -->
<g id="node15" class="node">
<title>IL1</title>
<ellipse fill="none" stroke="black" cx="380.31" cy="-1598" rx="27" ry="18"/>
<text text-anchor="middle" x="380.31" y="-1592.58" font-family="Times New Roman,serif" font-size="14.00">IL1</text>
</g>
<!-- BDU&#45;&gt;IL1 -->
<g id="edge15" class="edge">
<title>BDU&#45;&gt;IL1</title>
<path fill="none" stroke="gray" stroke-width="2" d="M268.35,-1448.42C306.66,-1501.46 348.21,-1559 348.21,-1559 348.21,-1559 352.86,-1564.83 358.57,-1571.99"/>
<polygon fill="gray" stroke="gray" stroke-width="2" points="355.81,-1574.13 364.78,-1579.77 361.28,-1569.77 355.81,-1574.13"/>
</g>
<!-- IL2 -->
<g id="node16" class="node">
<title>IL2</title>
<ellipse fill="none" stroke="black" cx="380.31" cy="-1519" rx="27" ry="18"/>
<text text-anchor="middle" x="380.31" y="-1513.58" font-family="Times New Roman,serif" font-size="14.00">IL2</text>
</g>
<!-- BDU&#45;&gt;IL2 -->
<g id="edge16" class="edge">
<title>BDU&#45;&gt;IL2</title>
<path fill="none" stroke="gray" stroke-width="2" d="M284.88,-1433.3C309.84,-1455.95 335.62,-1479.35 353.93,-1495.96"/>
<polygon fill="gray" stroke="gray" stroke-width="2" points="351.53,-1498.51 361.29,-1502.64 356.23,-1493.33 351.53,-1498.51"/>
</g>
<!-- OLL -->
<g id="node17" class="node">
<title>OLL</title>
<ellipse fill="none" stroke="black" cx="380.31" cy="-1440" rx="28.61" ry="18"/>
<text text-anchor="middle" x="380.31" y="-1434.58" font-family="Times New Roman,serif" font-size="14.00">OLL</text>
</g>
<!-- BDU&#45;&gt;OLL -->
<g id="edge17" class="edge">
<title>BDU&#45;&gt;OLL</title>
<path fill="none" stroke="gray" stroke-width="0.2" d="M302.95,-1405.35C318.89,-1412.58 334.34,-1419.59 347.12,-1425.39"/>
<polygon fill="gray" stroke="gray" stroke-width="0.2" points="345.52,-1428.51 356.07,-1429.45 348.41,-1422.13 345.52,-1428.51"/>
</g>
<!-- OLQ -->
<g id="node18" class="node">
<title>OLQ</title>
<ellipse fill="none" stroke="black" cx="380.31" cy="-1361" rx="30.11" ry="18"/>
<text text-anchor="middle" x="380.31" y="-1355.58" font-family="Times New Roman,serif" font-size="14.00">OLQ</text>
</g>
<!-- BDU&#45;&gt;OLQ -->
<g id="edge18" class="edge">
<title>BDU&#45;&gt;OLQ</title>
<path fill="none" stroke="gray" stroke-width="0.2" d="M311.5,-1345.23C324.01,-1345.7 335.96,-1346.63 346.24,-1348.03"/>
<polygon fill="gray" stroke="gray" stroke-width="0.2" points="345.59,-1351.47 356.02,-1349.6 346.7,-1344.56 345.59,-1351.47"/>
</g>
<!-- PLN -->
<g id="node19" class="node">
<title>PLN</title>
<ellipse fill="none" stroke="black" cx="380.31" cy="-1282" rx="28.11" ry="18"/>
<text text-anchor="middle" x="380.31" y="-1276.58" font-family="Times New Roman,serif" font-size="14.00">PLN</text>
</g>
<!-- BDU&#45;&gt;PLN -->
<g id="edge19" class="edge">
<title>BDU&#45;&gt;PLN</title>
<path fill="none" stroke="gray" stroke-width="0.2" d="M302.95,-1316.65C319.01,-1309.36 334.58,-1302.3 347.42,-1296.47"/>
<polygon fill="gray" stroke="gray" stroke-width="0.2" points="348.74,-1299.72 356.4,-1292.4 345.85,-1293.34 348.74,-1299.72"/>
</g>
<!-- PVC -->
<g id="node20" class="node">
<title>PVC</title>
<ellipse fill="none" stroke="black" cx="380.31" cy="-1203" rx="29.11" ry="18"/>
<text text-anchor="middle" x="380.31" y="-1197.58" font-family="Times New Roman,serif" font-size="14.00">PVC</text>
</g>
<!-- BDU&#45;&gt;PVC -->
<g id="edge20" class="edge">
<title>BDU&#45;&gt;PVC</title>
<path fill="none" stroke="gray" stroke-width="2" d="M284.88,-1288.7C309.54,-1266.32 335,-1243.21 353.26,-1226.64"/>
<polygon fill="gray" stroke="gray" stroke-width="2" points="355.57,-1229.27 360.63,-1219.96 350.87,-1224.09 355.57,-1229.27"/>
</g>
<!-- PVN -->
<g id="node21" class="node">
<title>PVN</title>
<ellipse fill="none" stroke="black" cx="380.31" cy="-1124" rx="29.11" ry="18"/>
<text text-anchor="middle" x="380.31" y="-1118.58" font-family="Times New Roman,serif" font-size="14.00">PVN</text>
</g>
<!-- BDU&#45;&gt;PVN -->
<g id="edge21" class="edge">
<title>BDU&#45;&gt;PVN</title>
<path fill="none" stroke="black" stroke-width="5" d="M259.89,-1267.97C291.58,-1220.81 327.96,-1169.74 345.46,-1146.08"/>
<polygon fill="black" stroke="black" stroke-width="5" points="348.73,-1149.01 351.33,-1138.41 341.78,-1143.7 348.73,-1149.01"/>
</g>
<!-- PVP -->
<g id="node22" class="node">
<title>PVP</title>
<ellipse fill="none" stroke="black" cx="380.31" cy="-1045" rx="28.11" ry="18"/>
<text text-anchor="middle" x="380.31" y="-1039.58" font-family="Times New Roman,serif" font-size="14.00">PVP</text>
</g>
<!-- BDU&#45;&gt;PVP -->
<g id="edge22" class="edge">
<title>BDU&#45;&gt;PVP</title>
<path fill="none" stroke="gray" stroke-width="2" d="M254.62,-1265.28C295.96,-1185.22 348.21,-1084 348.21,-1084 348.21,-1084 352.86,-1078.17 358.57,-1071.01"/>
<polygon fill="gray" stroke="gray" stroke-width="2" points="361.28,-1073.23 364.78,-1063.23 355.81,-1068.87 361.28,-1073.23"/>
</g>
<!-- PVQ -->
<g id="node23" class="node">
<title>PVQ</title>
<ellipse fill="none" stroke="black" cx="380.31" cy="-966" rx="29.61" ry="18"/>
<text text-anchor="middle" x="380.31" y="-960.58" font-family="Times New Roman,serif" font-size="14.00">PVQ</text>
</g>
<!-- BDU&#45;&gt;PVQ -->
<g id="edge23" class="edge">
<title>BDU&#45;&gt;PVQ</title>
<path fill="none" stroke="gray" stroke-width="0.2" d="M240.19,-1259.11C277.57,-1160.15 333.14,-1021.12 350.19,-984.59"/>
<polygon fill="gray" stroke="gray" stroke-width="0.2" points="353.12,-986.54 354.67,-976.06 346.92,-983.28 353.12,-986.54"/>
</g>
<!-- PVR -->
<g id="node24" class="node">
<title>PVR</title>
<ellipse fill="none" stroke="black" cx="380.31" cy="-887" rx="29.11" ry="18"/>
<text text-anchor="middle" x="380.31" y="-881.58" font-family="Times New Roman,serif" font-size="14.00">PVR</text>
</g>
<!-- BDU&#45;&gt;PVR -->
<g id="edge24" class="edge">
<title>BDU&#45;&gt;PVR</title>
<path fill="none" stroke="blue" stroke-width="5" d="M234.84,-1256.97C270.92,-1140.68 328.96,-963.22 348.77,-911.1"/>
<polygon fill="blue" stroke="blue" stroke-width="5" points="352.68,-913.09 352.64,-902.18 344.65,-909.61 352.68,-913.09"/>
</g>
<!-- RIC -->
<g id="node25" class="node">
<title>RIC</title>
<ellipse fill="none" stroke="black" cx="380.31" cy="-808" rx="27" ry="18"/>
<text text-anchor="middle" x="380.31" y="-802.58" font-family="Times New Roman,serif" font-size="14.00">RIC</text>
</g>
<!-- BDU&#45;&gt;RIC -->
<g id="edge25" class="edge">
<title>BDU&#45;&gt;RIC</title>
<path fill="none" stroke="gray" stroke-width="0.2" d="M230.78,-1255.99C271.91,-1099.76 348.21,-825.5 348.21,-825.5 348.21,-825.5 348.68,-824.91 349.51,-823.91"/>
<polygon fill="gray" stroke="gray" stroke-width="0.2" points="351.92,-826.48 355.86,-816.65 346.65,-821.87 351.92,-826.48"/>
</g>
<!-- RID -->
<g id="node26" class="node">
<title>RID</title>
<ellipse fill="none" stroke="black" cx="380.31" cy="-729" rx="27" ry="18"/>
<text text-anchor="middle" x="380.31" y="-723.58" font-family="Times New Roman,serif" font-size="14.00">RID</text>
</g>
<!-- BDU&#45;&gt;RID -->
<g id="edge26" class="edge">
<title>BDU&#45;&gt;RID</title>
<path fill="none" stroke="gray" stroke-width="2" d="M230.53,-1256.01C271.6,-1085.69 348.21,-768 348.21,-768 348.21,-768 352.86,-762.17 358.57,-755.01"/>
<polygon fill="gray" stroke="gray" stroke-width="2" points="361.28,-757.23 364.78,-747.23 355.81,-752.87 361.28,-757.23"/>
</g>
<!-- RIF -->
<g id="node27" class="node">
<title>RIF</title>
<ellipse fill="none" stroke="black" cx="380.31" cy="-650" rx="27" ry="18"/>
<text text-anchor="middle" x="380.31" y="-644.58" font-family="Times New Roman,serif" font-size="14.00">RIF</text>
</g>
<!-- BDU&#45;&gt;RIF -->
<g id="edge27" class="edge">
<title>BDU&#45;&gt;RIF</title>
<path fill="none" stroke="gray" stroke-width="2" d="M225.32,-1254.59C261.02,-1078.16 332.94,-739.34 351.96,-670.6"/>
<polygon fill="gray" stroke="gray" stroke-width="2" points="355.22,-671.88 355.09,-661.29 348.59,-669.65 355.22,-671.88"/>
</g>
<!-- RIP -->
<g id="node28" class="node">
<title>RIP</title>
<ellipse fill="none" stroke="black" cx="380.31" cy="-571" rx="27" ry="18"/>
<text text-anchor="middle" x="380.31" y="-565.58" font-family="Times New Roman,serif" font-size="14.00">RIP</text>
</g>
<!-- BDU&#45;&gt;RIP -->
<g id="edge28" class="edge">
<title>BDU&#45;&gt;RIP</title>
<path fill="none" stroke="gray" stroke-width="0.2" d="M225.4,-1254.99C264.82,-1047.98 348.21,-610 348.21,-610 348.21,-610 353.86,-602.91 360.35,-594.78"/>
<polygon fill="gray" stroke="gray" stroke-width="0.2" points="362.98,-597.1 366.48,-587.1 357.5,-592.74 362.98,-597.1"/>
</g>
<!-- RIS -->
<g id="node29" class="node">
<title>RIS</title>
<ellipse fill="none" stroke="black" cx="380.31" cy="-492" rx="27" ry="18"/>
<text text-anchor="middle" x="380.31" y="-486.57" font-family="Times New Roman,serif" font-size="14.00">RIS</text>
</g>
<!-- BDU&#45;&gt;RIS -->
<g id="edge29" class="edge">
<title>BDU&#45;&gt;RIS</title>
<path fill="none" stroke="blue" stroke-width="2" d="M223.54,-1254.61C262.13,-1030.65 348.21,-531 348.21,-531 348.21,-531 352.86,-525.17 358.57,-518.01"/>
<polygon fill="blue" stroke="blue" stroke-width="2" points="361.28,-520.23 364.78,-510.23 355.81,-515.87 361.28,-520.23"/>
</g>
<!-- RMG -->
<g id="node30" class="node">
<title>RMG</title>
<ellipse fill="none" stroke="black" cx="380.31" cy="-413" rx="32.1" ry="18"/>
<text text-anchor="middle" x="380.31" y="-407.57" font-family="Times New Roman,serif" font-size="14.00">RMG</text>
</g>
<!-- BDU&#45;&gt;RMG -->
<g id="edge30" class="edge">
<title>BDU&#45;&gt;RMG</title>
<path fill="none" stroke="gray" stroke-width="0.2" d="M222.04,-1254.05C259.84,-1013.77 348.21,-452 348.21,-452 348.21,-452 353.59,-445.25 359.88,-437.37"/>
<polygon fill="gray" stroke="gray" stroke-width="0.2" points="362.62,-439.55 366.12,-429.55 357.14,-435.19 362.62,-439.55"/>
</g>
<!-- SDQ -->
<g id="node31" class="node">
<title>SDQ</title>
<ellipse fill="none" stroke="black" cx="380.31" cy="-334" rx="29.61" ry="18"/>
<text text-anchor="middle" x="380.31" y="-328.57" font-family="Times New Roman,serif" font-size="14.00">SDQ</text>
</g>
<!-- BDU&#45;&gt;SDQ -->
<g id="edge31" class="edge">
<title>BDU&#45;&gt;SDQ</title>
<path fill="none" stroke="gray" stroke-width="5" d="M220.72,-1253.86C257.74,-998.09 348.21,-373 348.21,-373 348.21,-373 351.77,-368.54 356.47,-362.64"/>
<polygon fill="gray" stroke="gray" stroke-width="5" points="359.6,-365.74 362.42,-355.19 352.76,-360.28 359.6,-365.74"/>
</g>
<!-- SIB -->
<g id="node32" class="node">
<title>SIB</title>
<ellipse fill="none" stroke="black" cx="380.31" cy="-255" rx="27" ry="18"/>
<text text-anchor="middle" x="380.31" y="-249.57" font-family="Times New Roman,serif" font-size="14.00">SIB</text>
</g>
<!-- BDU&#45;&gt;SIB -->
<g id="edge32" class="edge">
<title>BDU&#45;&gt;SIB</title>
<path fill="none" stroke="gray" stroke-width="0.2" d="M219.58,-1253.81C255.84,-983.23 348.21,-294 348.21,-294 348.21,-294 353.86,-286.91 360.35,-278.78"/>
<polygon fill="gray" stroke="gray" stroke-width="0.2" points="362.98,-281.1 366.48,-271.1 357.5,-276.74 362.98,-281.1"/>
</g>
<!-- URA -->
<g id="node33" class="node">
<title>URA</title>
<ellipse fill="none" stroke="black" cx="380.31" cy="-176" rx="30.11" ry="18"/>
<text text-anchor="middle" x="380.31" y="-170.57" font-family="Times New Roman,serif" font-size="14.00">URA</text>
</g>
<!-- BDU&#45;&gt;URA -->
<g id="edge33" class="edge">
<title>BDU&#45;&gt;URA</title>
<path fill="none" stroke="red" stroke-width="0.2" d="M218.6,-1253.7C254.15,-968.81 348.21,-215 348.21,-215 348.21,-215 353.59,-208.25 359.88,-200.37"/>
<polygon fill="red" stroke="red" stroke-width="0.2" points="362.62,-202.55 366.12,-192.55 357.14,-198.19 362.62,-202.55"/>
</g>
<!-- URB -->
<g id="node34" class="node">
<title>URB</title>
<ellipse fill="none" stroke="black" cx="380.31" cy="-97" rx="29.61" ry="18"/>
<text text-anchor="middle" x="380.31" y="-91.58" font-family="Times New Roman,serif" font-size="14.00">URB</text>
</g>
<!-- BDU&#45;&gt;URB -->
<g id="edge34" class="edge">
<title>BDU&#45;&gt;URB</title>
<path fill="none" stroke="blue" stroke-width="0.2" d="M217.78,-1253.36C252.67,-954.44 348.21,-136 348.21,-136 348.21,-136 353.59,-129.25 359.88,-121.37"/>
<polygon fill="blue" stroke="blue" stroke-width="0.2" points="362.62,-123.55 366.12,-113.55 357.14,-119.19 362.62,-123.55"/>
</g>
<!-- URY -->
<g id="node35" class="node">
<title>URY</title>
<ellipse fill="none" stroke="black" cx="380.31" cy="-18" rx="30.11" ry="18"/>
<text text-anchor="middle" x="380.31" y="-12.57" font-family="Times New Roman,serif" font-size="14.00">URY</text>
</g>
<!-- BDU&#45;&gt;URY -->
<g id="edge35" class="edge">
<title>BDU&#45;&gt;URY</title>
<path fill="none" stroke="gray" stroke-width="0.2" d="M216.02,-1253.32C247.41,-955.38 337.04,-137.46 352.78,-37.74"/>
<polygon fill="gray" stroke="gray" stroke-width="0.2" points="356.18,-38.59 354.75,-28.09 349.32,-37.19 356.18,-38.59"/>
</g>
<!-- ADE&#45;&gt;BDU -->
<g id="edge36" class="edge">
<title>ADE&#45;&gt;BDU</title>
<path fill="none" stroke="gray" stroke-width="0.2" d="M355.11,-2536.55C351.1,-2532.12 348.21,-2528.5 348.21,-2528.5 348.21,-2528.5 254.19,-1775.01 218.62,-1478.52"/>
<polygon fill="gray" stroke="gray" stroke-width="0.2" points="222.14,-1478.41 217.47,-1468.9 215.19,-1479.24 222.14,-1478.41"/>
</g>
<!-- ALM&#45;&gt;BDU -->
<g id="edge37" class="edge">
<title>ALM&#45;&gt;BDU</title>
<path fill="none" stroke="gray" stroke-width="5" d="M354.51,-2456.87C350.81,-2452.76 348.21,-2449.5 348.21,-2449.5 348.21,-2449.5 257.06,-1769.38 220.31,-1484.19"/>
<polygon fill="gray" stroke="gray" stroke-width="5" points="224.69,-1483.99 219.08,-1474.63 216.01,-1485.11 224.69,-1483.99"/>
</g>
<!-- AVF&#45;&gt;BDU -->
<g id="edge38" class="edge">
<title>AVF&#45;&gt;BDU</title>
<path fill="none" stroke="gray" stroke-width="0.2" d="M355.11,-2141.55C351.1,-2137.12 348.21,-2133.5 348.21,-2133.5 348.21,-2133.5 264.48,-1693.77 225.16,-1477.64"/>
<polygon fill="gray" stroke="gray" stroke-width="0.2" points="228.61,-1477.03 223.38,-1467.81 221.72,-1478.28 228.61,-1477.03"/>
</g>
<!-- AVH&#45;&gt;BDU -->
<g id="edge39" class="edge">
<title>AVH&#45;&gt;BDU</title>
<path fill="none" stroke="gray" stroke-width="0.2" d="M354.81,-2062.21C350.95,-2057.94 348.21,-2054.5 348.21,-2054.5 348.21,-2054.5 267.46,-1675.01 227.32,-1477.26"/>
<polygon fill="gray" stroke="gray" stroke-width="0.2" points="230.8,-1476.81 225.38,-1467.7 223.94,-1478.2 230.8,-1476.81"/>
</g>
<!-- AVM&#45;&gt;BDU -->
<g id="edge40" class="edge">
<title>AVM&#45;&gt;BDU</title>
<path fill="none" stroke="red" stroke-width="2" d="M354.21,-1824.54C350.67,-1820.58 348.21,-1817.5 348.21,-1817.5 348.21,-1817.5 280.85,-1612.6 238.6,-1477.1"/>
<polygon fill="red" stroke="red" stroke-width="2" points="242.05,-1476.43 235.74,-1467.92 235.37,-1478.51 242.05,-1476.43"/>
</g>
<!-- CEP&#45;&gt;BDU -->
<g id="edge41" class="edge">
<title>CEP&#45;&gt;BDU</title>
<path fill="none" stroke="gray" stroke-width="0.2" d="M355.43,-1746.89C351.25,-1742.31 348.21,-1738.5 348.21,-1738.5 348.21,-1738.5 286.07,-1583.8 243.72,-1472.2"/>
<polygon fill="gray" stroke="gray" stroke-width="0.2" points="247.12,-1471.29 240.3,-1463.18 240.57,-1473.77 247.12,-1471.29"/>
</g>
<!-- HSN&#45;&gt;BDU -->
<g id="edge42" class="edge">
<title>HSN&#45;&gt;BDU</title>
<path fill="none" stroke="red" stroke-width="2" d="M355.11,-1667.55C351.1,-1663.12 348.21,-1659.5 348.21,-1659.5 348.21,-1659.5 295.22,-1556.85 253.76,-1471.68"/>
<polygon fill="red" stroke="red" stroke-width="2" points="256.95,-1470.25 249.44,-1462.78 250.65,-1473.31 256.95,-1470.25"/>
</g>
<!-- OLQ&#45;&gt;BDU -->
<g id="edge43" class="edge">
<title>OLQ&#45;&gt;BDU</title>
<path fill="none" stroke="blue" stroke-width="2" d="M356.32,-1372.35C347.32,-1374.07 336.27,-1375.32 324.29,-1376.11"/>
<polygon fill="blue" stroke="blue" stroke-width="2" points="324.33,-1372.61 314.53,-1376.61 324.69,-1379.6 324.33,-1372.61"/>
</g>
<!-- PVN&#45;&gt;BDU -->
<g id="edge44" class="edge">
<title>PVN&#45;&gt;BDU</title>
<path fill="none" stroke="black" stroke-width="5" d="M374.72,-1141.9C366.07,-1162.1 348.21,-1184.5 348.21,-1184.5 348.21,-1184.5 318.84,-1225.17 286.72,-1267.64"/>
<polygon fill="black" stroke="black" stroke-width="5" points="283.26,-1264.96 280.69,-1275.57 290.23,-1270.26 283.26,-1264.96"/>
</g>
<!-- PVQ&#45;&gt;BDU -->
<g id="edge45" class="edge">
<title>PVQ&#45;&gt;BDU</title>
<path fill="none" stroke="gray" stroke-width="0.2" d="M374.72,-983.9C366.07,-1004.1 348.21,-1026.5 348.21,-1026.5 348.21,-1026.5 296.28,-1155.79 255.01,-1253.83"/>
<polygon fill="gray" stroke="gray" stroke-width="0.2" points="251.83,-1252.36 251.17,-1262.94 258.28,-1255.08 251.83,-1252.36"/>
</g>
<!-- PVR&#45;&gt;BDU -->
<g id="edge46" class="edge">
<title>PVR&#45;&gt;BDU</title>
<path fill="none" stroke="blue" stroke-width="2" d="M374.72,-904.9C366.07,-925.1 348.21,-947.5 348.21,-947.5 348.21,-947.5 289.76,-1125.32 247.59,-1247.96"/>
<polygon fill="blue" stroke="blue" stroke-width="2" points="244.37,-1246.56 244.43,-1257.15 250.99,-1248.84 244.37,-1246.56"/>
</g>
<!-- RIC&#45;&gt;BDU -->
<g id="edge47" class="edge">
<title>RIC&#45;&gt;BDU</title>
<path fill="none" stroke="gray" stroke-width="0.2" d="M374.72,-825.9C366.07,-846.1 348.21,-868.5 348.21,-868.5 348.21,-868.5 282.94,-1103.11 240.6,-1248.69"/>
<polygon fill="gray" stroke="gray" stroke-width="0.2" points="237.36,-1247.28 237.92,-1257.86 244.08,-1249.23 237.36,-1247.28"/>
</g>
<!-- RIF&#45;&gt;BDU -->
<g id="edge48" class="edge">
<title>RIF&#45;&gt;BDU</title>
<path fill="none" stroke="gray" stroke-width="0.2" d="M374.72,-667.9C366.07,-688.1 348.21,-710.5 348.21,-710.5 348.21,-710.5 274.08,-1058.89 232.56,-1245.95"/>
<polygon fill="gray" stroke="gray" stroke-width="0.2" points="229.19,-1245.01 230.43,-1255.53 236.02,-1246.53 229.19,-1245.01"/>
</g>
<!-- URY&#45;&gt;BDU -->
<g id="edge49" class="edge">
<title>URY&#45;&gt;BDU</title>
<path fill="none" stroke="gray" stroke-width="0.2" d="M374.72,-35.9C366.07,-56.1 348.21,-78.5 348.21,-78.5 348.21,-78.5 255.27,-926.02 219.24,-1243.27"/>
<polygon fill="gray" stroke="gray" stroke-width="0.2" points="215.78,-1242.79 218.13,-1253.12 222.73,-1243.58 215.78,-1242.79"/>
</g>
<!-- AIM -->
<g id="node36" class="node">
<title>AIM</title>
<ellipse fill="none" stroke="black" cx="30.11" cy="-1440" rx="28.11" ry="18"/>
<text text-anchor="middle" x="30.11" y="-1434.58" font-family="Times New Roman,serif" font-size="14.00">AIM</text>
</g>
<!-- AIM&#45;&gt;BDU -->
<g id="edge50" class="edge">
<title>AIM&#45;&gt;BDU</title>
<path fill="none" stroke="gray" stroke-width="0.2" d="M53.61,-1429.67C65.21,-1424.34 80.31,-1417.41 96.44,-1410.01"/>
<polygon fill="gray" stroke="gray" stroke-width="0.2" points="97.58,-1413.34 105.21,-1405.98 94.66,-1406.97 97.58,-1413.34"/>
</g>
<!-- ALA -->
<g id="node37" class="node">
<title>ALA</title>
<ellipse fill="none" stroke="black" cx="30.11" cy="-1361" rx="29.11" ry="18"/>
<text text-anchor="middle" x="30.11" y="-1355.58" font-family="Times New Roman,serif" font-size="14.00">ALA</text>
</g>
<!-- ALA&#45;&gt;BDU -->
<g id="edge51" class="edge">
<title>ALA&#45;&gt;BDU</title>
<path fill="none" stroke="gray" stroke-width="0.2" d="M59.53,-1361C67.32,-1361 76.28,-1361 85.84,-1361"/>
<polygon fill="gray" stroke="gray" stroke-width="0.2" points="85.69,-1364.5 95.69,-1361 85.69,-1357.5 85.69,-1364.5"/>
</g>
<!-- URX -->
<g id="node38" class="node">
<title>URX</title>
<ellipse fill="none" stroke="black" cx="30.11" cy="-1282" rx="30.11" ry="18"/>
<text text-anchor="middle" x="30.11" y="-1276.58" font-family="Times New Roman,serif" font-size="14.00">URX</text>
</g>
<!-- URX&#45;&gt;BDU -->
<g id="edge52" class="edge">
<title>URX&#45;&gt;BDU</title>
<path fill="none" stroke="gray" stroke-width="0.2" d="M54.68,-1292.82C66.14,-1298.08 80.82,-1304.82 96.47,-1312"/>
<polygon fill="gray" stroke="gray" stroke-width="0.2" points="94.95,-1315.16 105.5,-1316.15 97.87,-1308.8 94.95,-1315.16"/>
</g>
</g>
</svg>
