<?xml version="1.0" encoding="UTF-8" standalone="no"?>
<!DOCTYPE svg PUBLIC "-//W3C//DTD SVG 1.1//EN"
 "http://www.w3.org/Graphics/SVG/1.1/DTD/svg11.dtd">
<!-- Generated by graphviz version 11.0.0 (20240428.1522)
 -->
<!-- Pages: 1 -->
<svg width="425pt" height="2967pt"
 viewBox="0.00 0.00 425.41 2967.00" xmlns="http://www.w3.org/2000/svg" xmlns:xlink="http://www.w3.org/1999/xlink">
<g id="graph0" class="graph" transform="scale(1 1) rotate(0) translate(4 2963)">
<polygon fill="white" stroke="none" points="-4,4 -4,-2963 421.41,-2963 421.41,4 -4,4"/>
<!-- CEP -->
<g id="node1" class="node">
<title>CEP</title>
<ellipse fill="none" stroke="black" cx="209.2" cy="-1440" rx="108" ry="108"/>
<text text-anchor="middle" x="209.2" y="-1421" font-family="Times New Roman,serif" font-size="50.00">CEP</text>
</g>
<!-- CEP&#45;&gt;CEP -->
<g id="edge1" class="edge">
<title>CEP&#45;&gt;CEP</title>
<path fill="none" stroke="gray" stroke-width="2" d="M176.5,-1543.39C178.44,-1570.51 189.34,-1591 209.2,-1591 225.81,-1591 236.15,-1576.68 240.23,-1556.14"/>
<polygon fill="gray" stroke="gray" stroke-width="2" points="243.68,-1556.77 241.51,-1546.39 236.74,-1555.85 243.68,-1556.77"/>
</g>
<!-- ADE -->
<g id="node2" class="node">
<title>ADE</title>
<ellipse fill="none" stroke="black" cx="385.3" cy="-2941" rx="29.11" ry="18"/>
<text text-anchor="middle" x="385.3" y="-2935.57" font-family="Times New Roman,serif" font-size="14.00">ADE</text>
</g>
<!-- CEP&#45;&gt;ADE -->
<g id="edge2" class="edge">
<title>CEP&#45;&gt;ADE</title>
<path fill="none" stroke="gray" stroke-width="0.2" d="M221.63,-1547.5C255.54,-1882.01 353.2,-2880.5 353.2,-2880.5 353.2,-2880.5 366.15,-2896.74 375.34,-2914.04"/>
<polygon fill="gray" stroke="gray" stroke-width="0.2" points="372.09,-2915.34 379.58,-2922.83 378.39,-2912.3 372.09,-2915.34"/>
</g>
<!-- ADL -->
<g id="node3" class="node">
<title>ADL</title>
<ellipse fill="none" stroke="black" cx="385.3" cy="-2862" rx="29.11" ry="18"/>
<text text-anchor="middle" x="385.3" y="-2856.57" font-family="Times New Roman,serif" font-size="14.00">ADL</text>
</g>
<!-- CEP&#45;&gt;ADL -->
<g id="edge3" class="edge">
<title>CEP&#45;&gt;ADL</title>
<path fill="none" stroke="gray" stroke-width="0.2" d="M222.3,-1547.42C256.8,-1869.2 353.2,-2801.5 353.2,-2801.5 353.2,-2801.5 366.15,-2817.74 375.34,-2835.04"/>
<polygon fill="gray" stroke="gray" stroke-width="0.2" points="372.09,-2836.34 379.58,-2843.83 378.39,-2833.3 372.09,-2836.34"/>
</g>
<!-- AFD -->
<g id="node4" class="node">
<title>AFD</title>
<ellipse fill="none" stroke="black" cx="385.3" cy="-2783" rx="29.11" ry="18"/>
<text text-anchor="middle" x="385.3" y="-2777.57" font-family="Times New Roman,serif" font-size="14.00">AFD</text>
</g>
<!-- CEP&#45;&gt;AFD -->
<g id="edge4" class="edge">
<title>CEP&#45;&gt;AFD</title>
<path fill="none" stroke="gray" stroke-width="0.2" d="M222,-1547.54C256.23,-1859.72 353.2,-2744 353.2,-2744 353.2,-2744 358.85,-2751.09 365.34,-2759.22"/>
<polygon fill="gray" stroke="gray" stroke-width="0.2" points="362.49,-2761.26 371.47,-2766.9 367.97,-2756.9 362.49,-2761.26"/>
</g>
<!-- AIN -->
<g id="node5" class="node">
<title>AIN</title>
<ellipse fill="none" stroke="black" cx="385.3" cy="-2704" rx="27" ry="18"/>
<text text-anchor="middle" x="385.3" y="-2698.57" font-family="Times New Roman,serif" font-size="14.00">AIN</text>
</g>
<!-- CEP&#45;&gt;AIN -->
<g id="edge5" class="edge">
<title>CEP&#45;&gt;AIN</title>
<path fill="none" stroke="gray" stroke-width="0.2" d="M223.91,-1547.32C259.71,-1842.57 353.2,-2643.5 353.2,-2643.5 353.2,-2643.5 366.15,-2659.74 375.34,-2677.04"/>
<polygon fill="gray" stroke="gray" stroke-width="0.2" points="372.09,-2678.34 379.58,-2685.83 378.39,-2675.3 372.09,-2678.34"/>
</g>
<!-- ALM -->
<g id="node6" class="node">
<title>ALM</title>
<ellipse fill="none" stroke="black" cx="385.3" cy="-2625" rx="30.61" ry="18"/>
<text text-anchor="middle" x="385.3" y="-2619.57" font-family="Times New Roman,serif" font-size="14.00">ALM</text>
</g>
<!-- CEP&#45;&gt;ALM -->
<g id="edge6" class="edge">
<title>CEP&#45;&gt;ALM</title>
<path fill="none" stroke="red" stroke-width="2" d="M224.9,-1547.35C261.39,-1828.73 353.2,-2564.5 353.2,-2564.5 353.2,-2564.5 364.99,-2579.29 374.06,-2595.67"/>
<polygon fill="red" stroke="red" stroke-width="2" points="370.8,-2596.98 378.37,-2604.39 377.07,-2593.87 370.8,-2596.98"/>
</g>
<!-- ASG -->
<g id="node7" class="node">
<title>ASG</title>
<ellipse fill="none" stroke="black" cx="385.3" cy="-2546" rx="29.61" ry="18"/>
<text text-anchor="middle" x="385.3" y="-2540.57" font-family="Times New Roman,serif" font-size="14.00">ASG</text>
</g>
<!-- CEP&#45;&gt;ASG -->
<g id="edge7" class="edge">
<title>CEP&#45;&gt;ASG</title>
<path fill="none" stroke="gray" stroke-width="0.2" d="M225.98,-1546.99C263.17,-1813.74 353.2,-2485.5 353.2,-2485.5 353.2,-2485.5 366.15,-2501.74 375.34,-2519.04"/>
<polygon fill="gray" stroke="gray" stroke-width="0.2" points="372.09,-2520.34 379.58,-2527.83 378.39,-2517.3 372.09,-2520.34"/>
</g>
<!-- AVB -->
<g id="node8" class="node">
<title>AVB</title>
<ellipse fill="none" stroke="black" cx="385.3" cy="-2467" rx="29.61" ry="18"/>
<text text-anchor="middle" x="385.3" y="-2461.57" font-family="Times New Roman,serif" font-size="14.00">AVB</text>
</g>
<!-- CEP&#45;&gt;AVB -->
<g id="edge8" class="edge">
<title>CEP&#45;&gt;AVB</title>
<path fill="none" stroke="gray" stroke-width="0.2" d="M225.71,-1547.14C262.73,-1802.91 353.2,-2428 353.2,-2428 353.2,-2428 358.58,-2434.75 364.87,-2442.63"/>
<polygon fill="gray" stroke="gray" stroke-width="0.2" points="362.13,-2444.81 371.11,-2450.45 367.61,-2440.45 362.13,-2444.81"/>
</g>
<!-- AVD -->
<g id="node9" class="node">
<title>AVD</title>
<ellipse fill="none" stroke="black" cx="385.3" cy="-2388" rx="30.11" ry="18"/>
<text text-anchor="middle" x="385.3" y="-2382.57" font-family="Times New Roman,serif" font-size="14.00">AVD</text>
</g>
<!-- CEP&#45;&gt;AVD -->
<g id="edge9" class="edge">
<title>CEP&#45;&gt;AVD</title>
<path fill="none" stroke="gray" stroke-width="0.2" d="M227.03,-1546.95C264.83,-1787.23 353.2,-2349 353.2,-2349 353.2,-2349 358.58,-2355.75 364.87,-2363.63"/>
<polygon fill="gray" stroke="gray" stroke-width="0.2" points="362.13,-2365.81 371.11,-2371.45 367.61,-2361.45 362.13,-2365.81"/>
</g>
<!-- AVE -->
<g id="node10" class="node">
<title>AVE</title>
<ellipse fill="none" stroke="black" cx="385.3" cy="-2309" rx="29.11" ry="18"/>
<text text-anchor="middle" x="385.3" y="-2303.57" font-family="Times New Roman,serif" font-size="14.00">AVE</text>
</g>
<!-- CEP&#45;&gt;AVE -->
<g id="edge10" class="edge">
<title>CEP&#45;&gt;AVE</title>
<path fill="none" stroke="black" stroke-width="5" d="M230.54,-1546.08C270.02,-1765.69 353.2,-2248.5 353.2,-2248.5 353.2,-2248.5 363.67,-2261.63 372.46,-2276.85"/>
<polygon fill="black" stroke="black" stroke-width="5" points="368.45,-2278.62 376.89,-2285.54 376.25,-2274.65 368.45,-2278.62"/>
</g>
<!-- AVJ -->
<g id="node11" class="node">
<title>AVJ</title>
<ellipse fill="none" stroke="black" cx="385.3" cy="-2230" rx="27.11" ry="18"/>
<text text-anchor="middle" x="385.3" y="-2224.57" font-family="Times New Roman,serif" font-size="14.00">AVJ</text>
</g>
<!-- CEP&#45;&gt;AVJ -->
<g id="edge11" class="edge">
<title>CEP&#45;&gt;AVJ</title>
<path fill="none" stroke="gray" stroke-width="0.2" d="M230.39,-1546.01C269.81,-1753.02 353.2,-2191 353.2,-2191 353.2,-2191 358.85,-2198.09 365.34,-2206.22"/>
<polygon fill="gray" stroke="gray" stroke-width="0.2" points="362.49,-2208.26 371.47,-2213.9 367.97,-2203.9 362.49,-2208.26"/>
</g>
<!-- BDU -->
<g id="node12" class="node">
<title>BDU</title>
<ellipse fill="none" stroke="black" cx="385.3" cy="-2151" rx="29.61" ry="18"/>
<text text-anchor="middle" x="385.3" y="-2145.57" font-family="Times New Roman,serif" font-size="14.00">BDU</text>
</g>
<!-- CEP&#45;&gt;BDU -->
<g id="edge12" class="edge">
<title>CEP&#45;&gt;BDU</title>
<path fill="none" stroke="gray" stroke-width="0.2" d="M235.36,-1545.17C276.39,-1729.53 353.2,-2090.5 353.2,-2090.5 353.2,-2090.5 366.15,-2106.74 375.34,-2124.04"/>
<polygon fill="gray" stroke="gray" stroke-width="0.2" points="372.09,-2125.34 379.58,-2132.83 378.39,-2122.3 372.09,-2125.34"/>
</g>
<!-- IL1 -->
<g id="node13" class="node">
<title>IL1</title>
<ellipse fill="none" stroke="black" cx="385.3" cy="-2072" rx="27" ry="18"/>
<text text-anchor="middle" x="385.3" y="-2066.57" font-family="Times New Roman,serif" font-size="14.00">IL1</text>
</g>
<!-- CEP&#45;&gt;IL1 -->
<g id="edge13" class="edge">
<title>CEP&#45;&gt;IL1</title>
<path fill="none" stroke="black" stroke-width="5" d="M238.63,-1544.19C280.33,-1709.3 353.2,-2011.5 353.2,-2011.5 353.2,-2011.5 363.67,-2024.63 372.46,-2039.85"/>
<polygon fill="black" stroke="black" stroke-width="5" points="368.45,-2041.62 376.89,-2048.54 376.25,-2037.65 368.45,-2041.62"/>
</g>
<!-- IL2 -->
<g id="node14" class="node">
<title>IL2</title>
<ellipse fill="none" stroke="black" cx="385.3" cy="-1993" rx="27" ry="18"/>
<text text-anchor="middle" x="385.3" y="-1987.58" font-family="Times New Roman,serif" font-size="14.00">IL2</text>
</g>
<!-- CEP&#45;&gt;IL2 -->
<g id="edge14" class="edge">
<title>CEP&#45;&gt;IL2</title>
<path fill="none" stroke="gray" stroke-width="2" d="M242.83,-1542.85C285.03,-1687.48 353.2,-1932.5 353.2,-1932.5 353.2,-1932.5 364.99,-1947.29 374.06,-1963.67"/>
<polygon fill="gray" stroke="gray" stroke-width="2" points="370.8,-1964.98 378.37,-1972.39 377.07,-1961.87 370.8,-1964.98"/>
</g>
<!-- OLL -->
<g id="node15" class="node">
<title>OLL</title>
<ellipse fill="none" stroke="black" cx="385.3" cy="-1914" rx="28.61" ry="18"/>
<text text-anchor="middle" x="385.3" y="-1908.58" font-family="Times New Roman,serif" font-size="14.00">OLL</text>
</g>
<!-- CEP&#45;&gt;OLL -->
<g id="edge15" class="edge">
<title>CEP&#45;&gt;OLL</title>
<path fill="none" stroke="black" stroke-width="5" d="M248.43,-1540.99C290.79,-1663.64 353.2,-1853.5 353.2,-1853.5 353.2,-1853.5 363.67,-1866.63 372.46,-1881.85"/>
<polygon fill="black" stroke="black" stroke-width="5" points="368.45,-1883.62 376.89,-1890.54 376.25,-1879.65 368.45,-1883.62"/>
</g>
<!-- OLQ -->
<g id="node16" class="node">
<title>OLQ</title>
<ellipse fill="none" stroke="black" cx="385.3" cy="-1835" rx="30.11" ry="18"/>
<text text-anchor="middle" x="385.3" y="-1829.58" font-family="Times New Roman,serif" font-size="14.00">OLQ</text>
</g>
<!-- CEP&#45;&gt;OLQ -->
<g id="edge16" class="edge">
<title>CEP&#45;&gt;OLQ</title>
<path fill="none" stroke="red" stroke-width="5" d="M256.04,-1537.79C297.87,-1636.74 353.2,-1774.5 353.2,-1774.5 353.2,-1774.5 363.67,-1787.63 372.46,-1802.85"/>
<polygon fill="red" stroke="red" stroke-width="5" points="368.45,-1804.62 376.89,-1811.54 376.25,-1800.65 368.45,-1804.62"/>
</g>
<!-- PLN -->
<g id="node17" class="node">
<title>PLN</title>
<ellipse fill="none" stroke="black" cx="385.3" cy="-1756" rx="28.11" ry="18"/>
<text text-anchor="middle" x="385.3" y="-1750.58" font-family="Times New Roman,serif" font-size="14.00">PLN</text>
</g>
<!-- CEP&#45;&gt;PLN -->
<g id="edge17" class="edge">
<title>CEP&#45;&gt;PLN</title>
<path fill="none" stroke="gray" stroke-width="2" d="M266.72,-1531.97C306.69,-1605.4 353.2,-1695.5 353.2,-1695.5 353.2,-1695.5 364.99,-1710.29 374.06,-1726.67"/>
<polygon fill="gray" stroke="gray" stroke-width="2" points="370.8,-1727.98 378.37,-1735.39 377.07,-1724.87 370.8,-1727.98"/>
</g>
<!-- PVR -->
<g id="node18" class="node">
<title>PVR</title>
<ellipse fill="none" stroke="black" cx="385.3" cy="-1677" rx="29.11" ry="18"/>
<text text-anchor="middle" x="385.3" y="-1671.58" font-family="Times New Roman,serif" font-size="14.00">PVR</text>
</g>
<!-- CEP&#45;&gt;PVR -->
<g id="edge18" class="edge">
<title>CEP&#45;&gt;PVR</title>
<path fill="none" stroke="gray" stroke-width="2" d="M281.91,-1520.46C317.59,-1567.19 353.2,-1616.5 353.2,-1616.5 353.2,-1616.5 364.99,-1631.29 374.06,-1647.67"/>
<polygon fill="gray" stroke="gray" stroke-width="2" points="370.8,-1648.98 378.37,-1656.39 377.07,-1645.87 370.8,-1648.98"/>
</g>
<!-- RIA -->
<g id="node19" class="node">
<title>RIA</title>
<ellipse fill="none" stroke="black" cx="385.3" cy="-1598" rx="27" ry="18"/>
<text text-anchor="middle" x="385.3" y="-1592.58" font-family="Times New Roman,serif" font-size="14.00">RIA</text>
</g>
<!-- CEP&#45;&gt;RIA -->
<g id="edge19" class="edge">
<title>CEP&#45;&gt;RIA</title>
<path fill="none" stroke="gray" stroke-width="2" d="M297.25,-1502.88C323.36,-1526.57 349.47,-1552.2 366.19,-1571.23"/>
<polygon fill="gray" stroke="gray" stroke-width="2" points="363.39,-1573.35 372.5,-1578.76 368.75,-1568.85 363.39,-1573.35"/>
</g>
<!-- RIB -->
<g id="node20" class="node">
<title>RIB</title>
<ellipse fill="none" stroke="black" cx="385.3" cy="-1519" rx="27" ry="18"/>
<text text-anchor="middle" x="385.3" y="-1513.58" font-family="Times New Roman,serif" font-size="14.00">RIB</text>
</g>
<!-- CEP&#45;&gt;RIB -->
<g id="edge20" class="edge">
<title>CEP&#45;&gt;RIB</title>
<path fill="none" stroke="red" stroke-width="2" d="M312.99,-1470.75C330.46,-1479.21 347.06,-1488.16 359.84,-1496.28"/>
<polygon fill="red" stroke="red" stroke-width="2" points="357.67,-1499.04 367.91,-1501.76 361.6,-1493.25 357.67,-1499.04"/>
</g>
<!-- RIC -->
<g id="node21" class="node">
<title>RIC</title>
<ellipse fill="none" stroke="black" cx="385.3" cy="-1440" rx="27" ry="18"/>
<text text-anchor="middle" x="385.3" y="-1434.58" font-family="Times New Roman,serif" font-size="14.00">RIC</text>
</g>
<!-- CEP&#45;&gt;RIC -->
<g id="edge21" class="edge">
<title>CEP&#45;&gt;RIC</title>
<path fill="none" stroke="black" stroke-width="5" d="M316.49,-1424.23C327.5,-1424.64 338.08,-1425.42 347.48,-1426.55"/>
<polygon fill="black" stroke="black" stroke-width="5" points="346.68,-1430.85 357.25,-1428.09 348.05,-1422.21 346.68,-1430.85"/>
</g>
<!-- RIF -->
<g id="node22" class="node">
<title>RIF</title>
<ellipse fill="none" stroke="black" cx="385.3" cy="-1361" rx="27" ry="18"/>
<text text-anchor="middle" x="385.3" y="-1355.58" font-family="Times New Roman,serif" font-size="14.00">RIF</text>
</g>
<!-- CEP&#45;&gt;RIF -->
<g id="edge22" class="edge">
<title>CEP&#45;&gt;RIF</title>
<path fill="none" stroke="gray" stroke-width="0.2" d="M301.08,-1382.65C317.93,-1375.13 334.59,-1368.5 348.53,-1363.91"/>
<polygon fill="gray" stroke="gray" stroke-width="0.2" points="349.34,-1367.32 357.87,-1361.04 347.28,-1360.63 349.34,-1367.32"/>
</g>
<!-- RIH -->
<g id="node23" class="node">
<title>RIH</title>
<ellipse fill="none" stroke="black" cx="385.3" cy="-1282" rx="27" ry="18"/>
<text text-anchor="middle" x="385.3" y="-1276.58" font-family="Times New Roman,serif" font-size="14.00">RIH</text>
</g>
<!-- CEP&#45;&gt;RIH -->
<g id="edge23" class="edge">
<title>CEP&#45;&gt;RIH</title>
<path fill="none" stroke="gray" stroke-width="0.2" d="M281.52,-1359.39C306.66,-1335.81 333.62,-1312.43 353.61,-1297.22"/>
<polygon fill="gray" stroke="gray" stroke-width="0.2" points="355.52,-1300.16 361.49,-1291.4 351.37,-1294.53 355.52,-1300.16"/>
</g>
<!-- RIM -->
<g id="node24" class="node">
<title>RIM</title>
<ellipse fill="none" stroke="black" cx="385.3" cy="-1203" rx="28.11" ry="18"/>
<text text-anchor="middle" x="385.3" y="-1197.58" font-family="Times New Roman,serif" font-size="14.00">RIM</text>
</g>
<!-- CEP&#45;&gt;RIM -->
<g id="edge24" class="edge">
<title>CEP&#45;&gt;RIM</title>
<path fill="none" stroke="gray" stroke-width="0.2" d="M265.08,-1347.05C305.41,-1287.34 353.2,-1221.5 353.2,-1221.5 353.2,-1221.5 353.67,-1220.89 354.5,-1219.87"/>
<polygon fill="gray" stroke="gray" stroke-width="0.2" points="357.04,-1222.28 360.85,-1212.4 351.71,-1217.75 357.04,-1222.28"/>
</g>
<!-- RIP -->
<g id="node25" class="node">
<title>RIP</title>
<ellipse fill="none" stroke="black" cx="385.3" cy="-1124" rx="27" ry="18"/>
<text text-anchor="middle" x="385.3" y="-1118.58" font-family="Times New Roman,serif" font-size="14.00">RIP</text>
</g>
<!-- CEP&#45;&gt;RIP -->
<g id="edge25" class="edge">
<title>CEP&#45;&gt;RIP</title>
<path fill="none" stroke="gray" stroke-width="5" d="M253.11,-1341.24C287.99,-1269.32 333.74,-1180.22 353.08,-1146.22"/>
<polygon fill="gray" stroke="gray" stroke-width="5" points="356.55,-1148.92 358.09,-1138.11 349.11,-1144.31 356.55,-1148.92"/>
</g>
<!-- RIS -->
<g id="node26" class="node">
<title>RIS</title>
<ellipse fill="none" stroke="black" cx="385.3" cy="-1045" rx="27" ry="18"/>
<text text-anchor="middle" x="385.3" y="-1039.58" font-family="Times New Roman,serif" font-size="14.00">RIS</text>
</g>
<!-- CEP&#45;&gt;RIS -->
<g id="edge26" class="edge">
<title>CEP&#45;&gt;RIS</title>
<path fill="none" stroke="black" stroke-width="2" d="M245.37,-1337.87C282.08,-1240.94 336.21,-1105.79 355.27,-1065.28"/>
<polygon fill="black" stroke="black" stroke-width="2" points="358.35,-1066.95 359.95,-1056.48 352.17,-1063.67 358.35,-1066.95"/>
</g>
<!-- RIV -->
<g id="node27" class="node">
<title>RIV</title>
<ellipse fill="none" stroke="black" cx="385.3" cy="-966" rx="27" ry="18"/>
<text text-anchor="middle" x="385.3" y="-960.58" font-family="Times New Roman,serif" font-size="14.00">RIV</text>
</g>
<!-- CEP&#45;&gt;RIV -->
<g id="edge27" class="edge">
<title>CEP&#45;&gt;RIV</title>
<path fill="none" stroke="gray" stroke-width="0.2" d="M239.83,-1335.97C281.72,-1200.95 353.2,-983.5 353.2,-983.5 353.2,-983.5 353.67,-982.91 354.5,-981.91"/>
<polygon fill="gray" stroke="gray" stroke-width="0.2" points="356.91,-984.48 360.85,-974.65 351.63,-979.87 356.91,-984.48"/>
</g>
<!-- RMD -->
<g id="node28" class="node">
<title>RMD</title>
<ellipse fill="none" stroke="black" cx="385.3" cy="-887" rx="31.6" ry="18"/>
<text text-anchor="middle" x="385.3" y="-881.58" font-family="Times New Roman,serif" font-size="14.00">RMD</text>
</g>
<!-- CEP&#45;&gt;RMD -->
<g id="edge28" class="edge">
<title>CEP&#45;&gt;RMD</title>
<path fill="none" stroke="black" stroke-width="5" d="M235.77,-1334.99C271.6,-1198.9 334.11,-973.25 353.6,-912.68"/>
<polygon fill="black" stroke="black" stroke-width="5" points="357.7,-914.21 357.05,-903.31 349.49,-911.19 357.7,-914.21"/>
</g>
<!-- RMG -->
<g id="node29" class="node">
<title>RMG</title>
<ellipse fill="none" stroke="black" cx="385.3" cy="-808" rx="32.1" ry="18"/>
<text text-anchor="middle" x="385.3" y="-802.58" font-family="Times New Roman,serif" font-size="14.00">RMG</text>
</g>
<!-- CEP&#45;&gt;RMG -->
<g id="edge29" class="edge">
<title>CEP&#45;&gt;RMG</title>
<path fill="none" stroke="red" stroke-width="2" d="M232.7,-1334.23C268.81,-1176.42 337.02,-892.7 354.87,-830.82"/>
<polygon fill="red" stroke="red" stroke-width="2" points="358.08,-832.25 357.94,-821.66 351.44,-830.02 358.08,-832.25"/>
</g>
<!-- RMH -->
<g id="node30" class="node">
<title>RMH</title>
<ellipse fill="none" stroke="black" cx="385.3" cy="-729" rx="31.6" ry="18"/>
<text text-anchor="middle" x="385.3" y="-723.58" font-family="Times New Roman,serif" font-size="14.00">RMH</text>
</g>
<!-- CEP&#45;&gt;RMH -->
<g id="edge30" class="edge">
<title>CEP&#45;&gt;RMH</title>
<path fill="none" stroke="gray" stroke-width="5" d="M230.31,-1333.59C265.39,-1160.2 335.46,-829.97 354.61,-754.84"/>
<polygon fill="gray" stroke="gray" stroke-width="5" points="358.75,-756.27 357.41,-745.44 350.36,-753.77 358.75,-756.27"/>
</g>
<!-- SDQ -->
<g id="node31" class="node">
<title>SDQ</title>
<ellipse fill="none" stroke="black" cx="385.3" cy="-650" rx="29.61" ry="18"/>
<text text-anchor="middle" x="385.3" y="-644.58" font-family="Times New Roman,serif" font-size="14.00">SDQ</text>
</g>
<!-- CEP&#45;&gt;SDQ -->
<g id="edge31" class="edge">
<title>CEP&#45;&gt;SDQ</title>
<path fill="none" stroke="gray" stroke-width="0.2" d="M228.31,-1333.48C263.79,-1137.88 339.99,-736.93 356.85,-669.44"/>
<polygon fill="gray" stroke="gray" stroke-width="0.2" points="360.14,-670.67 359.71,-660.08 353.44,-668.62 360.14,-670.67"/>
</g>
<!-- SIA -->
<g id="node32" class="node">
<title>SIA</title>
<ellipse fill="none" stroke="black" cx="385.3" cy="-571" rx="27" ry="18"/>
<text text-anchor="middle" x="385.3" y="-565.58" font-family="Times New Roman,serif" font-size="14.00">SIA</text>
</g>
<!-- CEP&#45;&gt;SIA -->
<g id="edge32" class="edge">
<title>CEP&#45;&gt;SIA</title>
<path fill="none" stroke="red" stroke-width="nan" d="M226.75,-1333C264.39,-1104 353.2,-588.5 353.2,-588.5 353.2,-588.5 356.55,-584.3 361.05,-579.42"/>
<polygon fill="red" stroke="red" stroke-width="nan" points="nan,-nan nan,-nan nan,-nan nan,-nan"/>
</g>
<!-- SIB -->
<g id="node33" class="node">
<title>SIB</title>
<ellipse fill="none" stroke="black" cx="385.3" cy="-492" rx="27" ry="18"/>
<text text-anchor="middle" x="385.3" y="-486.57" font-family="Times New Roman,serif" font-size="14.00">SIB</text>
</g>
<!-- CEP&#45;&gt;SIB -->
<g id="edge33" class="edge">
<title>CEP&#45;&gt;SIB</title>
<path fill="none" stroke="gray" stroke-width="0.2" d="M227.03,-1333.05C264.83,-1092.77 353.2,-531 353.2,-531 353.2,-531 358.85,-523.91 365.34,-515.78"/>
<polygon fill="gray" stroke="gray" stroke-width="0.2" points="367.97,-518.1 371.47,-508.1 362.49,-513.74 367.97,-518.1"/>
</g>
<!-- SMB -->
<g id="node34" class="node">
<title>SMB</title>
<ellipse fill="none" stroke="black" cx="385.3" cy="-413" rx="30.11" ry="18"/>
<text text-anchor="middle" x="385.3" y="-407.57" font-family="Times New Roman,serif" font-size="14.00">SMB</text>
</g>
<!-- CEP&#45;&gt;SMB -->
<g id="edge34" class="edge">
<title>CEP&#45;&gt;SMB</title>
<path fill="none" stroke="gray" stroke-width="5" d="M224.24,-1332.78C257.14,-1095.2 337.48,-539.23 356.22,-438.51"/>
<polygon fill="gray" stroke="gray" stroke-width="5" points="360.46,-439.6 358.41,-428.87 351.92,-437.65 360.46,-439.6"/>
</g>
<!-- SMD -->
<g id="node35" class="node">
<title>SMD</title>
<ellipse fill="none" stroke="black" cx="385.3" cy="-334" rx="30.61" ry="18"/>
<text text-anchor="middle" x="385.3" y="-328.57" font-family="Times New Roman,serif" font-size="14.00">SMD</text>
</g>
<!-- CEP&#45;&gt;SMD -->
<g id="edge35" class="edge">
<title>CEP&#45;&gt;SMD</title>
<path fill="none" stroke="gray" stroke-width="2" d="M223.27,-1332.56C255.99,-1077.72 339.66,-452.62 356.75,-356.55"/>
<polygon fill="gray" stroke="gray" stroke-width="2" points="360.1,-357.6 358.84,-347.08 353.27,-356.09 360.1,-357.6"/>
</g>
<!-- URA -->
<g id="node36" class="node">
<title>URA</title>
<ellipse fill="none" stroke="black" cx="385.3" cy="-255" rx="30.11" ry="18"/>
<text text-anchor="middle" x="385.3" y="-249.57" font-family="Times New Roman,serif" font-size="14.00">URA</text>
</g>
<!-- CEP&#45;&gt;URA -->
<g id="edge36" class="edge">
<title>CEP&#45;&gt;URA</title>
<path fill="none" stroke="gray" stroke-width="5" d="M222.43,-1332.4C254.26,-1066.36 338.19,-392.84 356.57,-280.68"/>
<polygon fill="gray" stroke="gray" stroke-width="5" points="360.85,-281.57 358.56,-270.9 352.28,-279.83 360.85,-281.57"/>
</g>
<!-- URB -->
<g id="node37" class="node">
<title>URB</title>
<ellipse fill="none" stroke="black" cx="385.3" cy="-176" rx="29.61" ry="18"/>
<text text-anchor="middle" x="385.3" y="-170.57" font-family="Times New Roman,serif" font-size="14.00">URB</text>
</g>
<!-- CEP&#45;&gt;URB -->
<g id="edge37" class="edge">
<title>CEP&#45;&gt;URB</title>
<path fill="none" stroke="red" stroke-width="5" d="M221.66,-1332.45C253.01,-1052.7 338.7,-317.79 356.77,-201.37"/>
<polygon fill="red" stroke="red" stroke-width="5" points="361,-202.56 358.61,-191.91 352.41,-200.9 361,-202.56"/>
</g>
<!-- URX -->
<g id="node38" class="node">
<title>URX</title>
<ellipse fill="none" stroke="black" cx="385.3" cy="-97" rx="30.11" ry="18"/>
<text text-anchor="middle" x="385.3" y="-91.58" font-family="Times New Roman,serif" font-size="14.00">URX</text>
</g>
<!-- CEP&#45;&gt;URX -->
<g id="edge38" class="edge">
<title>CEP&#45;&gt;URX</title>
<path fill="none" stroke="gray" stroke-width="5" d="M221.01,-1332.32C251.85,-1039.63 338.89,-245.12 356.87,-122.68"/>
<polygon fill="gray" stroke="gray" stroke-width="5" points="361.16,-123.55 358.67,-112.93 352.55,-121.97 361.16,-123.55"/>
</g>
<!-- URY -->
<g id="node39" class="node">
<title>URY</title>
<ellipse fill="none" stroke="black" cx="385.3" cy="-18" rx="30.11" ry="18"/>
<text text-anchor="middle" x="385.3" y="-12.57" font-family="Times New Roman,serif" font-size="14.00">URY</text>
</g>
<!-- CEP&#45;&gt;URY -->
<g id="edge39" class="edge">
<title>CEP&#45;&gt;URY</title>
<path fill="none" stroke="red" stroke-width="5" d="M220.43,-1332.17C250.82,-1026.52 339.28,-170.21 357.02,-43.5"/>
<polygon fill="red" stroke="red" stroke-width="5" points="361.28,-44.54 358.71,-33.93 352.66,-43.02 361.28,-44.54"/>
</g>
<!-- ADE&#45;&gt;CEP -->
<g id="edge40" class="edge">
<title>ADE&#45;&gt;CEP</title>
<path fill="none" stroke="red" stroke-width="5" d="M360.1,-2931.55C356.09,-2927.12 353.2,-2923.5 353.2,-2923.5 353.2,-2923.5 255.08,-1920.37 221.4,-1563.74"/>
<polygon fill="red" stroke="red" stroke-width="5" points="225.77,-1563.52 220.48,-1553.97 217.06,-1564.34 225.77,-1563.52"/>
</g>
<!-- ADL&#45;&gt;CEP -->
<g id="edge41" class="edge">
<title>ADL&#45;&gt;CEP</title>
<path fill="none" stroke="gray" stroke-width="0.2" d="M360.1,-2852.55C356.09,-2848.12 353.2,-2844.5 353.2,-2844.5 353.2,-2844.5 255.15,-1896.22 221.43,-1557.9"/>
<polygon fill="gray" stroke="gray" stroke-width="0.2" points="224.93,-1557.73 220.46,-1548.13 217.97,-1558.42 224.93,-1557.73"/>
</g>
<!-- AIN&#45;&gt;CEP -->
<g id="edge42" class="edge">
<title>AIN&#45;&gt;CEP</title>
<path fill="none" stroke="red" stroke-width="0.2" d="M361.05,-2695.58C356.55,-2690.7 353.2,-2686.5 353.2,-2686.5 353.2,-2686.5 257.68,-1868.23 222.78,-1557.49"/>
<polygon fill="red" stroke="red" stroke-width="0.2" points="226.29,-1557.4 221.7,-1547.85 219.33,-1558.18 226.29,-1557.4"/>
</g>
<!-- ALM&#45;&gt;CEP -->
<g id="edge43" class="edge">
<title>ALM&#45;&gt;CEP</title>
<path fill="none" stroke="gray" stroke-width="5" d="M359.5,-2614.87C355.8,-2610.76 353.2,-2607.5 353.2,-2607.5 353.2,-2607.5 260.38,-1863.66 224.31,-1563.29"/>
<polygon fill="gray" stroke="gray" stroke-width="5" points="228.7,-1563.2 223.17,-1553.79 220.01,-1564.24 228.7,-1563.2"/>
</g>
<!-- ASG&#45;&gt;CEP -->
<g id="edge44" class="edge">
<title>ASG&#45;&gt;CEP</title>
<path fill="none" stroke="gray" stroke-width="0.2" d="M359.8,-2536.21C355.94,-2531.94 353.2,-2528.5 353.2,-2528.5 353.2,-2528.5 260.78,-1838.87 224.54,-1557.29"/>
<polygon fill="gray" stroke="gray" stroke-width="0.2" points="228.06,-1557.22 223.31,-1547.74 221.11,-1558.11 228.06,-1557.22"/>
</g>
<!-- AVE&#45;&gt;CEP -->
<g id="edge45" class="edge">
<title>AVE&#45;&gt;CEP</title>
<path fill="none" stroke="gray" stroke-width="0.2" d="M360.1,-2299.55C356.09,-2295.12 353.2,-2291.5 353.2,-2291.5 353.2,-2291.5 266.89,-1790.5 228.38,-1556.9"/>
<polygon fill="gray" stroke="gray" stroke-width="0.2" points="231.87,-1556.6 226.79,-1547.3 224.97,-1557.73 231.87,-1556.6"/>
</g>
<!-- BDU&#45;&gt;CEP -->
<g id="edge46" class="edge">
<title>BDU&#45;&gt;CEP</title>
<path fill="none" stroke="gray" stroke-width="2" d="M359.8,-2141.21C355.94,-2136.94 353.2,-2133.5 353.2,-2133.5 353.2,-2133.5 273.17,-1757.4 232.85,-1558.93"/>
<polygon fill="gray" stroke="gray" stroke-width="2" points="236.33,-1558.48 230.91,-1549.37 229.47,-1559.87 236.33,-1558.48"/>
</g>
<!-- IL1&#45;&gt;CEP -->
<g id="edge47" class="edge">
<title>IL1&#45;&gt;CEP</title>
<path fill="none" stroke="blue" stroke-width="5" d="M361.05,-2063.58C356.55,-2058.7 353.2,-2054.5 353.2,-2054.5 353.2,-2054.5 277.53,-1740.7 236.28,-1561.37"/>
<polygon fill="blue" stroke="blue" stroke-width="5" points="240.6,-1560.62 234.1,-1551.85 232.07,-1562.58 240.6,-1560.62"/>
</g>
<!-- IL2&#45;&gt;CEP -->
<g id="edge48" class="edge">
<title>IL2&#45;&gt;CEP</title>
<path fill="none" stroke="red" stroke-width="0.2" d="M361.05,-1984.58C356.55,-1979.7 353.2,-1975.5 353.2,-1975.5 353.2,-1975.5 280,-1712.37 238.34,-1554.77"/>
<polygon fill="red" stroke="red" stroke-width="0.2" points="241.78,-1554.08 235.84,-1545.31 235.01,-1555.87 241.78,-1554.08"/>
</g>
<!-- OLL&#45;&gt;CEP -->
<g id="edge49" class="edge">
<title>OLL&#45;&gt;CEP</title>
<path fill="none" stroke="black" stroke-width="5" d="M360.42,-1904.89C356.24,-1900.31 353.2,-1896.5 353.2,-1896.5 353.2,-1896.5 286.92,-1694.89 244.61,-1559.39"/>
<polygon fill="black" stroke="black" stroke-width="5" points="248.84,-1558.24 241.69,-1549.99 240.48,-1560.84 248.84,-1558.24"/>
</g>
<!-- OLQ&#45;&gt;CEP -->
<g id="edge50" class="edge">
<title>OLQ&#45;&gt;CEP</title>
<path fill="none" stroke="gray" stroke-width="5" d="M359.8,-1825.21C355.94,-1820.94 353.2,-1817.5 353.2,-1817.5 353.2,-1817.5 293.16,-1668.04 250.89,-1556.95"/>
<polygon fill="gray" stroke="gray" stroke-width="5" points="255.03,-1555.53 247.4,-1547.73 246.85,-1558.63 255.03,-1555.53"/>
</g>
<!-- PLN&#45;&gt;CEP -->
<g id="edge51" class="edge">
<title>PLN&#45;&gt;CEP</title>
<path fill="none" stroke="gray" stroke-width="0.2" d="M360.42,-1746.89C356.24,-1742.31 353.2,-1738.5 353.2,-1738.5 353.2,-1738.5 299.12,-1633.75 257.48,-1548.08"/>
<polygon fill="gray" stroke="gray" stroke-width="0.2" points="260.75,-1546.8 253.24,-1539.33 254.45,-1549.86 260.75,-1546.8"/>
</g>
<!-- PVR&#45;&gt;CEP -->
<g id="edge52" class="edge">
<title>PVR&#45;&gt;CEP</title>
<path fill="none" stroke="blue" stroke-width="5" d="M360.1,-1667.55C356.09,-1663.12 353.2,-1659.5 353.2,-1659.5 353.2,-1659.5 312.1,-1602.59 273.97,-1546.48"/>
<polygon fill="blue" stroke="blue" stroke-width="5" points="277.59,-1544.03 268.37,-1538.19 270.34,-1548.93 277.59,-1544.03"/>
</g>
<!-- RIA&#45;&gt;CEP -->
<g id="edge53" class="edge">
<title>RIA&#45;&gt;CEP</title>
<path fill="none" stroke="black" stroke-width="2" d="M361.73,-1588.78C343.58,-1575.83 316.93,-1553.25 291.02,-1529.43"/>
<polygon fill="black" stroke="black" stroke-width="2" points="293.45,-1526.91 283.74,-1522.67 288.68,-1532.04 293.45,-1526.91"/>
</g>
<!-- RIB&#45;&gt;CEP -->
<g id="edge54" class="edge">
<title>RIB&#45;&gt;CEP</title>
<path fill="none" stroke="gray" stroke-width="2" d="M358.16,-1519.05C345.57,-1515.49 329.58,-1509.56 312.79,-1502.45"/>
<polygon fill="gray" stroke="gray" stroke-width="2" points="314.42,-1499.34 303.85,-1498.55 311.63,-1505.75 314.42,-1499.34"/>
</g>
<!-- RIC&#45;&gt;CEP -->
<g id="edge55" class="edge">
<title>RIC&#45;&gt;CEP</title>
<path fill="none" stroke="gray" stroke-width="5" d="M363.41,-1450.93C354.81,-1452.71 344.11,-1454.03 332.39,-1454.9"/>
<polygon fill="gray" stroke="gray" stroke-width="5" points="332.47,-1450.51 322.72,-1455.43 332.95,-1459.25 332.47,-1450.51"/>
</g>
<!-- RIF&#45;&gt;CEP -->
<g id="edge56" class="edge">
<title>RIF&#45;&gt;CEP</title>
<path fill="none" stroke="gray" stroke-width="0.2" d="M370.42,-1376.54C358.9,-1385.01 341.33,-1395.08 321.99,-1404.81"/>
<polygon fill="gray" stroke="gray" stroke-width="0.2" points="320.68,-1401.55 313.26,-1409.11 323.78,-1407.83 320.68,-1401.55"/>
</g>
<!-- RIH&#45;&gt;CEP -->
<g id="edge57" class="edge">
<title>RIH&#45;&gt;CEP</title>
<path fill="none" stroke="gray" stroke-width="5" d="M374.44,-1298.92C361.11,-1315.75 335.91,-1341.29 309.19,-1366.16"/>
<polygon fill="gray" stroke="gray" stroke-width="5" points="306.25,-1362.92 301.85,-1372.9 312.17,-1369.36 306.25,-1362.92"/>
</g>
<!-- RIM&#45;&gt;CEP -->
<g id="edge58" class="edge">
<title>RIM&#45;&gt;CEP</title>
<path fill="none" stroke="gray" stroke-width="5" d="M379.71,-1221.05C371.06,-1241.53 353.2,-1264.5 353.2,-1264.5 353.2,-1264.5 323.94,-1304.81 291.9,-1346.97"/>
<polygon fill="gray" stroke="gray" stroke-width="5" points="288.5,-1344.21 285.91,-1354.81 295.45,-1349.52 288.5,-1344.21"/>
</g>
<!-- RIP&#45;&gt;CEP -->
<g id="edge59" class="edge">
<title>RIP&#45;&gt;CEP</title>
<path fill="none" stroke="gray" stroke-width="0.2" d="M379.71,-1142.05C371.06,-1162.53 353.2,-1185.5 353.2,-1185.5 353.2,-1185.5 310.25,-1268.39 271.43,-1339.79"/>
<polygon fill="gray" stroke="gray" stroke-width="0.2" points="268.58,-1337.71 266.86,-1348.16 274.72,-1341.06 268.58,-1337.71"/>
</g>
<!-- RIS&#45;&gt;CEP -->
<g id="edge60" class="edge">
<title>RIS&#45;&gt;CEP</title>
<path fill="none" stroke="black" stroke-width="5" d="M379.71,-1063.05C371.06,-1083.53 353.2,-1106.5 353.2,-1106.5 353.2,-1106.5 303.14,-1230.79 262.25,-1327.83"/>
<polygon fill="black" stroke="black" stroke-width="5" points="258.33,-1325.88 258.47,-1336.79 266.39,-1329.28 258.33,-1325.88"/>
</g>
<!-- RIV&#45;&gt;CEP -->
<g id="edge61" class="edge">
<title>RIV&#45;&gt;CEP</title>
<path fill="none" stroke="gray" stroke-width="5" d="M379.71,-983.9C371.06,-1004.1 353.2,-1026.5 353.2,-1026.5 353.2,-1026.5 295.69,-1201.46 253.61,-1323.97"/>
<polygon fill="gray" stroke="gray" stroke-width="5" points="249.58,-1322.24 250.46,-1333.12 257.85,-1325.09 249.58,-1322.24"/>
</g>
<!-- RMD&#45;&gt;CEP -->
<g id="edge62" class="edge">
<title>RMD&#45;&gt;CEP</title>
<path fill="none" stroke="gray" stroke-width="5" d="M379.71,-904.9C371.06,-925.1 353.2,-947.5 353.2,-947.5 353.2,-947.5 289.62,-1176.06 247.24,-1321.98"/>
<polygon fill="gray" stroke="gray" stroke-width="5" points="243.17,-1320.33 244.57,-1331.16 251.57,-1322.78 243.17,-1320.33"/>
</g>
<!-- RMG&#45;&gt;CEP -->
<g id="edge63" class="edge">
<title>RMG&#45;&gt;CEP</title>
<path fill="none" stroke="gray" stroke-width="0.2" d="M379.58,-826.21C370.88,-846.33 353.2,-868.5 353.2,-868.5 353.2,-868.5 283.15,-1159.01 241.1,-1325.98"/>
<polygon fill="gray" stroke="gray" stroke-width="0.2" points="237.75,-1324.97 238.7,-1335.52 244.54,-1326.68 237.75,-1324.97"/>
</g>
<!-- RMH&#45;&gt;CEP -->
<g id="edge64" class="edge">
<title>RMH&#45;&gt;CEP</title>
<path fill="none" stroke="gray" stroke-width="5" d="M379.71,-746.9C371.06,-767.1 353.2,-789.5 353.2,-789.5 353.2,-789.5 280.6,-1130.66 238.86,-1319.04"/>
<polygon fill="gray" stroke="gray" stroke-width="5" points="234.61,-1318.03 236.71,-1328.74 243.15,-1319.93 234.61,-1318.03"/>
</g>
<!-- SDQ&#45;&gt;CEP -->
<g id="edge65" class="edge">
<title>SDQ&#45;&gt;CEP</title>
<path fill="none" stroke="gray" stroke-width="0.2" d="M379.71,-667.9C371.06,-688.1 353.2,-710.5 353.2,-710.5 353.2,-710.5 275.54,-1118.37 234.68,-1324.34"/>
<polygon fill="gray" stroke="gray" stroke-width="0.2" points="231.28,-1323.51 232.76,-1334 238.14,-1324.87 231.28,-1323.51"/>
</g>
<!-- SIA&#45;&gt;CEP -->
<g id="edge66" class="edge">
<title>SIA&#45;&gt;CEP</title>
<path fill="none" stroke="gray" stroke-width="0.2" d="M379.71,-588.9C371.06,-609.1 353.2,-631.5 353.2,-631.5 353.2,-631.5 272.44,-1100.27 232.3,-1324.11"/>
<polygon fill="gray" stroke="gray" stroke-width="0.2" points="228.91,-1323.16 230.59,-1333.63 235.8,-1324.4 228.91,-1323.16"/>
</g>
<!-- SMB&#45;&gt;CEP -->
<g id="edge67" class="edge">
<title>SMB&#45;&gt;CEP</title>
<path fill="none" stroke="gray" stroke-width="5" d="M379.71,-430.9C371.06,-451.1 353.2,-473.5 353.2,-473.5 353.2,-473.5 268.73,-1057.12 229.63,-1317.49"/>
<polygon fill="gray" stroke="gray" stroke-width="5" points="225.33,-1316.7 228.17,-1327.24 233.98,-1318 225.33,-1316.7"/>
</g>
<!-- SMD&#45;&gt;CEP -->
<g id="edge68" class="edge">
<title>SMD&#45;&gt;CEP</title>
<path fill="none" stroke="black" stroke-width="5" d="M379.71,-351.9C371.06,-372.1 353.2,-394.5 353.2,-394.5 353.2,-394.5 266.57,-1040.91 228.16,-1317.34"/>
<polygon fill="black" stroke="black" stroke-width="5" points="223.89,-1316.32 226.84,-1326.83 232.55,-1317.53 223.89,-1316.32"/>
</g>
<!-- URA&#45;&gt;CEP -->
<g id="edge69" class="edge">
<title>URA&#45;&gt;CEP</title>
<path fill="none" stroke="gray" stroke-width="0.2" d="M379.71,-272.9C371.06,-293.1 353.2,-315.5 353.2,-315.5 353.2,-315.5 263.53,-1034.13 226.21,-1322.57"/>
<polygon fill="gray" stroke="gray" stroke-width="0.2" points="222.75,-1321.98 224.94,-1332.35 229.69,-1322.88 222.75,-1321.98"/>
</g>
<!-- URB&#45;&gt;CEP -->
<g id="edge70" class="edge">
<title>URB&#45;&gt;CEP</title>
<path fill="none" stroke="red" stroke-width="5" d="M379.71,-193.9C371.06,-214.1 353.2,-236.5 353.2,-236.5 353.2,-236.5 262.96,-1009.52 225.85,-1316.64"/>
<polygon fill="red" stroke="red" stroke-width="5" points="221.52,-1316.03 224.66,-1326.48 230.21,-1317.08 221.52,-1316.03"/>
</g>
<!-- URX&#45;&gt;CEP -->
<g id="edge71" class="edge">
<title>URX&#45;&gt;CEP</title>
<path fill="none" stroke="gray" stroke-width="5" d="M379.71,-114.9C371.06,-135.1 353.2,-157.5 353.2,-157.5 353.2,-157.5 261.36,-995.01 224.88,-1316.58"/>
<polygon fill="gray" stroke="gray" stroke-width="5" points="220.57,-1315.79 223.79,-1326.22 229.26,-1316.78 220.57,-1315.79"/>
</g>
<!-- URY&#45;&gt;CEP -->
<g id="edge72" class="edge">
<title>URY&#45;&gt;CEP</title>
<path fill="none" stroke="black" stroke-width="2" d="M379.71,-35.9C371.06,-56.1 353.2,-78.5 353.2,-78.5 353.2,-78.5 259.24,-987.28 223.65,-1320.03"/>
<polygon fill="black" stroke="black" stroke-width="2" points="220.21,-1319.26 222.62,-1329.57 227.17,-1320 220.21,-1319.26"/>
</g>
<!-- AIM -->
<g id="node40" class="node">
<title>AIM</title>
<ellipse fill="none" stroke="black" cx="32.6" cy="-1875" rx="28.11" ry="18"/>
<text text-anchor="middle" x="32.6" y="-1869.58" font-family="Times New Roman,serif" font-size="14.00">AIM</text>
</g>
<!-- AIM&#45;&gt;CEP -->
<g id="edge73" class="edge">
<title>AIM&#45;&gt;CEP</title>
<path fill="none" stroke="black" stroke-width="5" d="M46.45,-1859.14C55.2,-1848.34 65.2,-1836 65.2,-1836 65.2,-1836 123.85,-1673.6 166.02,-1556.8"/>
<polygon fill="black" stroke="black" stroke-width="5" points="170.07,-1558.48 169.35,-1547.59 161.84,-1555.51 170.07,-1558.48"/>
</g>
<!-- ASI -->
<g id="node41" class="node">
<title>ASI</title>
<ellipse fill="none" stroke="black" cx="32.6" cy="-1796" rx="27" ry="18"/>
<text text-anchor="middle" x="32.6" y="-1790.58" font-family="Times New Roman,serif" font-size="14.00">ASI</text>
</g>
<!-- ASI&#45;&gt;CEP -->
<g id="edge74" class="edge">
<title>ASI&#45;&gt;CEP</title>
<path fill="none" stroke="gray" stroke-width="0.2" d="M46.45,-1780.14C55.2,-1769.34 65.2,-1757 65.2,-1757 65.2,-1757 118.23,-1639.44 159.71,-1547.51"/>
<polygon fill="gray" stroke="gray" stroke-width="0.2" points="162.89,-1548.96 163.81,-1538.41 156.51,-1546.08 162.89,-1548.96"/>
</g>
<!-- ASJ -->
<g id="node42" class="node">
<title>ASJ</title>
<ellipse fill="none" stroke="black" cx="32.6" cy="-1717" rx="27" ry="18"/>
<text text-anchor="middle" x="32.6" y="-1711.58" font-family="Times New Roman,serif" font-size="14.00">ASJ</text>
</g>
<!-- ASJ&#45;&gt;CEP -->
<g id="edge75" class="edge">
<title>ASJ&#45;&gt;CEP</title>
<path fill="none" stroke="gray" stroke-width="0.2" d="M46.45,-1701.14C55.2,-1690.34 65.2,-1678 65.2,-1678 65.2,-1678 108.54,-1605.88 147.49,-1541.04"/>
<polygon fill="gray" stroke="gray" stroke-width="0.2" points="150.4,-1542.99 152.55,-1532.62 144.4,-1539.39 150.4,-1542.99"/>
</g>
<!-- ASK -->
<g id="node43" class="node">
<title>ASK</title>
<ellipse fill="none" stroke="black" cx="32.6" cy="-1638" rx="29.11" ry="18"/>
<text text-anchor="middle" x="32.6" y="-1632.58" font-family="Times New Roman,serif" font-size="14.00">ASK</text>
</g>
<!-- ASK&#45;&gt;CEP -->
<g id="edge76" class="edge">
<title>ASK&#45;&gt;CEP</title>
<path fill="none" stroke="gray" stroke-width="0.2" d="M47.59,-1622.13C65.8,-1601.48 99.02,-1563.81 130.54,-1528.06"/>
<polygon fill="gray" stroke="gray" stroke-width="0.2" points="133.05,-1530.52 137.04,-1520.7 127.8,-1525.89 133.05,-1530.52"/>
</g>
<!-- AVF -->
<g id="node44" class="node">
<title>AVF</title>
<ellipse fill="none" stroke="black" cx="32.6" cy="-1559" rx="29.11" ry="18"/>
<text text-anchor="middle" x="32.6" y="-1553.58" font-family="Times New Roman,serif" font-size="14.00">AVF</text>
</g>
<!-- AVF&#45;&gt;CEP -->
<g id="edge77" class="edge">
<title>AVF&#45;&gt;CEP</title>
<path fill="none" stroke="blue" stroke-width="0.2" d="M52.95,-1545.81C67.66,-1535.79 89.1,-1521.17 111.38,-1505.99"/>
<polygon fill="blue" stroke="blue" stroke-width="0.2" points="113.08,-1509.07 119.37,-1500.54 109.13,-1503.28 113.08,-1509.07"/>
</g>
<!-- AWC -->
<g id="node45" class="node">
<title>AWC</title>
<ellipse fill="none" stroke="black" cx="32.6" cy="-1480" rx="32.6" ry="18"/>
<text text-anchor="middle" x="32.6" y="-1474.58" font-family="Times New Roman,serif" font-size="14.00">AWC</text>
</g>
<!-- AWC&#45;&gt;CEP -->
<g id="edge78" class="edge">
<title>AWC&#45;&gt;CEP</title>
<path fill="none" stroke="gray" stroke-width="5" d="M63.22,-1473.21C70.64,-1471.52 79.06,-1469.59 88.02,-1467.53"/>
<polygon fill="gray" stroke="gray" stroke-width="5" points="88.69,-1471.87 97.46,-1465.37 86.74,-1463.34 88.69,-1471.87"/>
</g>
<!-- BAG -->
<g id="node46" class="node">
<title>BAG</title>
<ellipse fill="none" stroke="black" cx="32.6" cy="-1401" rx="30.11" ry="18"/>
<text text-anchor="middle" x="32.6" y="-1395.58" font-family="Times New Roman,serif" font-size="14.00">BAG</text>
</g>
<!-- BAG&#45;&gt;CEP -->
<g id="edge79" class="edge">
<title>BAG&#45;&gt;CEP</title>
<path fill="none" stroke="gray" stroke-width="0.2" d="M61.27,-1407.18C70.68,-1409.28 81.85,-1411.78 93.78,-1414.44"/>
<polygon fill="gray" stroke="gray" stroke-width="0.2" points="92.67,-1417.78 103.19,-1416.54 94.2,-1410.95 92.67,-1417.78"/>
</g>
<!-- DVA -->
<g id="node47" class="node">
<title>DVA</title>
<ellipse fill="none" stroke="black" cx="32.6" cy="-1322" rx="30.11" ry="18"/>
<text text-anchor="middle" x="32.6" y="-1316.58" font-family="Times New Roman,serif" font-size="14.00">DVA</text>
</g>
<!-- DVA&#45;&gt;CEP -->
<g id="edge80" class="edge">
<title>DVA&#45;&gt;CEP</title>
<path fill="none" stroke="blue" stroke-width="2" d="M53.29,-1335.31C67.33,-1344.79 87.38,-1358.34 108.41,-1372.56"/>
<polygon fill="blue" stroke="blue" stroke-width="2" points="106.38,-1375.41 116.63,-1378.11 110.3,-1369.61 106.38,-1375.41"/>
</g>
<!-- DVC -->
<g id="node48" class="node">
<title>DVC</title>
<ellipse fill="none" stroke="black" cx="32.6" cy="-1243" rx="30.11" ry="18"/>
<text text-anchor="middle" x="32.6" y="-1237.58" font-family="Times New Roman,serif" font-size="14.00">DVC</text>
</g>
<!-- DVC&#45;&gt;CEP -->
<g id="edge81" class="edge">
<title>DVC&#45;&gt;CEP</title>
<path fill="none" stroke="gray" stroke-width="0.2" d="M47.59,-1258.79C65.73,-1279.25 98.75,-1316.5 130.15,-1351.94"/>
<polygon fill="gray" stroke="gray" stroke-width="0.2" points="127.37,-1354.08 136.62,-1359.24 132.61,-1349.43 127.37,-1354.08"/>
</g>
<!-- PVN -->
<g id="node49" class="node">
<title>PVN</title>
<ellipse fill="none" stroke="black" cx="32.6" cy="-1164" rx="29.11" ry="18"/>
<text text-anchor="middle" x="32.6" y="-1158.58" font-family="Times New Roman,serif" font-size="14.00">PVN</text>
</g>
<!-- PVN&#45;&gt;CEP -->
<g id="edge82" class="edge">
<title>PVN&#45;&gt;CEP</title>
<path fill="none" stroke="gray" stroke-width="0.2" d="M46.45,-1180.27C55.2,-1191.34 65.2,-1204 65.2,-1204 65.2,-1204 108.24,-1275.03 147.1,-1339.15"/>
<polygon fill="gray" stroke="gray" stroke-width="0.2" points="143.97,-1340.74 152.14,-1347.48 149.95,-1337.12 143.97,-1340.74"/>
</g>
<!-- PVT -->
<g id="node50" class="node">
<title>PVT</title>
<ellipse fill="none" stroke="black" cx="32.6" cy="-1085" rx="28.61" ry="18"/>
<text text-anchor="middle" x="32.6" y="-1079.58" font-family="Times New Roman,serif" font-size="14.00">PVT</text>
</g>
<!-- PVT&#45;&gt;CEP -->
<g id="edge83" class="edge">
<title>PVT&#45;&gt;CEP</title>
<path fill="none" stroke="gray" stroke-width="nan" d="M46.45,-1101.27C55.2,-1112.34 65.2,-1125 65.2,-1125 65.2,-1125 121.59,-1249.2 163.54,-1341.63"/>
<polygon fill="gray" stroke="gray" stroke-width="nan" points="nan,-nan nan,-nan nan,-nan nan,-nan"/>
</g>
<!-- RMF -->
<g id="node51" class="node">
<title>RMF</title>
<ellipse fill="none" stroke="black" cx="32.6" cy="-1006" rx="30.61" ry="18"/>
<text text-anchor="middle" x="32.6" y="-1000.58" font-family="Times New Roman,serif" font-size="14.00">RMF</text>
</g>
<!-- RMF&#45;&gt;CEP -->
<g id="edge84" class="edge">
<title>RMF&#45;&gt;CEP</title>
<path fill="none" stroke="gray" stroke-width="5" d="M46.45,-1022.27C55.2,-1033.34 65.2,-1046 65.2,-1046 65.2,-1046 123.76,-1207.34 165.93,-1323.53"/>
<polygon fill="gray" stroke="gray" stroke-width="5" points="161.72,-1324.76 169.25,-1332.67 169.95,-1321.78 161.72,-1324.76"/>
</g>
</g>
</svg>
