<?xml version="1.0" encoding="UTF-8" standalone="no"?>
<!DOCTYPE svg PUBLIC "-//W3C//DTD SVG 1.1//EN"
 "http://www.w3.org/Graphics/SVG/1.1/DTD/svg11.dtd">
<!-- Generated by graphviz version 11.0.0 (20240428.1522)
 -->
<!-- Pages: 1 -->
<svg width="323pt" height="267pt"
 viewBox="0.00 0.00 323.21 267.00" xmlns="http://www.w3.org/2000/svg" xmlns:xlink="http://www.w3.org/1999/xlink">
<g id="graph0" class="graph" transform="scale(1 1) rotate(0) translate(4 263)">
<polygon fill="white" stroke="none" points="-4,4 -4,-263 319.21,-263 319.21,4 -4,4"/>
<!-- DBn -->
<g id="node1" class="node">
<title>DBn</title>
<ellipse fill="none" stroke="black" cx="207.21" cy="-108" rx="108" ry="108"/>
<text text-anchor="middle" x="207.21" y="-89" font-family="Times New Roman,serif" font-size="50.00">DBn</text>
</g>
<!-- DBn&#45;&gt;DBn -->
<g id="edge1" class="edge">
<title>DBn&#45;&gt;DBn</title>
<path fill="none" stroke="gray" stroke-width="2" d="M174.59,-211.39C176.53,-238.51 187.4,-259 207.21,-259 223.76,-259 234.08,-244.68 238.14,-224.14"/>
<polygon fill="gray" stroke="gray" stroke-width="2" points="241.59,-224.77 239.42,-214.4 234.65,-223.85 241.59,-224.77"/>
</g>
<!-- AVM -->
<g id="node2" class="node">
<title>AVM</title>
<ellipse fill="none" stroke="black" cx="31.6" cy="-148" rx="31.6" ry="18"/>
<text text-anchor="middle" x="31.6" y="-142.57" font-family="Times New Roman,serif" font-size="14.00">AVM</text>
</g>
<!-- AVM&#45;&gt;DBn -->
<g id="edge2" class="edge">
<title>AVM&#45;&gt;DBn</title>
<path fill="none" stroke="gray" stroke-width="2" d="M61.27,-141.39C69.49,-139.5 78.99,-137.31 89.12,-134.98"/>
<polygon fill="gray" stroke="gray" stroke-width="2" points="89.84,-138.4 98.8,-132.75 88.27,-131.58 89.84,-138.4"/>
</g>
<!-- VBn -->
<g id="node3" class="node">
<title>VBn</title>
<ellipse fill="none" stroke="black" cx="31.6" cy="-69" rx="27.61" ry="18"/>
<text text-anchor="middle" x="31.6" y="-63.58" font-family="Times New Roman,serif" font-size="14.00">VBn</text>
</g>
<!-- VBn&#45;&gt;DBn -->
<g id="edge3" class="edge">
<title>VBn&#45;&gt;DBn</title>
<path fill="none" stroke="gray" stroke-width="2" d="M58.22,-74.75C67.02,-76.73 77.52,-79.09 88.81,-81.63"/>
<polygon fill="gray" stroke="gray" stroke-width="2" points="87.86,-85 98.38,-83.78 89.39,-78.17 87.86,-85"/>
</g>
</g>
</svg>
