<?xml version="1.0" encoding="UTF-8" standalone="no"?>
<!DOCTYPE svg PUBLIC "-//W3C//DTD SVG 1.1//EN"
 "http://www.w3.org/Graphics/SVG/1.1/DTD/svg11.dtd">
<!-- Generated by graphviz version 11.0.0 (20240428.1522)
 -->
<!-- Pages: 1 -->
<svg width="417pt" height="2651pt"
 viewBox="0.00 0.00 417.42 2651.00" xmlns="http://www.w3.org/2000/svg" xmlns:xlink="http://www.w3.org/1999/xlink">
<g id="graph0" class="graph" transform="scale(1 1) rotate(0) translate(4 2647)">
<polygon fill="white" stroke="none" points="-4,4 -4,-2647 413.42,-2647 413.42,4 -4,4"/>
<!-- DVA -->
<g id="node1" class="node">
<title>DVA</title>
<ellipse fill="none" stroke="black" cx="204.21" cy="-1519" rx="108" ry="108"/>
<text text-anchor="middle" x="204.21" y="-1500" font-family="Times New Roman,serif" font-size="50.00">DVA</text>
</g>
<!-- ADA -->
<g id="node2" class="node">
<title>ADA</title>
<ellipse fill="none" stroke="black" cx="378.82" cy="-2625" rx="30.11" ry="18"/>
<text text-anchor="middle" x="378.82" y="-2619.57" font-family="Times New Roman,serif" font-size="14.00">ADA</text>
</g>
<!-- DVA&#45;&gt;ADA -->
<g id="edge1" class="edge">
<title>DVA&#45;&gt;ADA</title>
<path fill="none" stroke="gray" stroke-width="2" d="M220.99,-1625.99C258.18,-1892.74 348.21,-2564.5 348.21,-2564.5 348.21,-2564.5 359.44,-2579.29 368.06,-2595.67"/>
<polygon fill="gray" stroke="gray" stroke-width="2" points="364.73,-2596.81 372.16,-2604.36 371.06,-2593.83 364.73,-2596.81"/>
</g>
<!-- ADE -->
<g id="node3" class="node">
<title>ADE</title>
<ellipse fill="none" stroke="black" cx="378.82" cy="-2546" rx="29.11" ry="18"/>
<text text-anchor="middle" x="378.82" y="-2540.57" font-family="Times New Roman,serif" font-size="14.00">ADE</text>
</g>
<!-- DVA&#45;&gt;ADE -->
<g id="edge2" class="edge">
<title>DVA&#45;&gt;ADE</title>
<path fill="none" stroke="gray" stroke-width="0.2" d="M222.25,-1625.59C260.17,-1877.18 348.21,-2485.5 348.21,-2485.5 348.21,-2485.5 360.54,-2501.74 369.29,-2519.04"/>
<polygon fill="gray" stroke="gray" stroke-width="0.2" points="365.97,-2520.2 373.32,-2527.83 372.33,-2517.28 365.97,-2520.2"/>
</g>
<!-- AIZ -->
<g id="node4" class="node">
<title>AIZ</title>
<ellipse fill="none" stroke="black" cx="378.82" cy="-2467" rx="27" ry="18"/>
<text text-anchor="middle" x="378.82" y="-2461.57" font-family="Times New Roman,serif" font-size="14.00">AIZ</text>
</g>
<!-- DVA&#45;&gt;AIZ -->
<g id="edge3" class="edge">
<title>DVA&#45;&gt;AIZ</title>
<path fill="none" stroke="gray" stroke-width="2" d="M223.76,-1625.39C262.45,-1861.36 348.21,-2406.5 348.21,-2406.5 348.21,-2406.5 359.44,-2421.29 368.06,-2437.67"/>
<polygon fill="gray" stroke="gray" stroke-width="2" points="364.73,-2438.81 372.16,-2446.36 371.06,-2435.83 364.73,-2438.81"/>
</g>
<!-- AQR -->
<g id="node5" class="node">
<title>AQR</title>
<ellipse fill="none" stroke="black" cx="378.82" cy="-2388" rx="30.61" ry="18"/>
<text text-anchor="middle" x="378.82" y="-2382.57" font-family="Times New Roman,serif" font-size="14.00">AQR</text>
</g>
<!-- DVA&#45;&gt;AQR -->
<g id="edge4" class="edge">
<title>DVA&#45;&gt;AQR</title>
<path fill="none" stroke="red" stroke-width="2" d="M225.55,-1625.08C265.03,-1844.69 348.21,-2327.5 348.21,-2327.5 348.21,-2327.5 359.44,-2342.29 368.06,-2358.67"/>
<polygon fill="red" stroke="red" stroke-width="2" points="364.73,-2359.81 372.16,-2367.36 371.06,-2356.83 364.73,-2359.81"/>
</g>
<!-- AUA -->
<g id="node6" class="node">
<title>AUA</title>
<ellipse fill="none" stroke="black" cx="378.82" cy="-2309" rx="30.11" ry="18"/>
<text text-anchor="middle" x="378.82" y="-2303.57" font-family="Times New Roman,serif" font-size="14.00">AUA</text>
</g>
<!-- DVA&#45;&gt;AUA -->
<g id="edge5" class="edge">
<title>DVA&#45;&gt;AUA</title>
<path fill="none" stroke="red" stroke-width="2" d="M227.71,-1624.7C267.98,-1827.16 348.21,-2248.5 348.21,-2248.5 348.21,-2248.5 359.44,-2263.29 368.06,-2279.67"/>
<polygon fill="red" stroke="red" stroke-width="2" points="364.73,-2280.81 372.16,-2288.36 371.06,-2277.83 364.73,-2280.81"/>
</g>
<!-- AVA -->
<g id="node7" class="node">
<title>AVA</title>
<ellipse fill="none" stroke="black" cx="378.82" cy="-2230" rx="30.11" ry="18"/>
<text text-anchor="middle" x="378.82" y="-2224.57" font-family="Times New Roman,serif" font-size="14.00">AVA</text>
</g>
<!-- DVA&#45;&gt;AVA -->
<g id="edge6" class="edge">
<title>DVA&#45;&gt;AVA</title>
<path fill="none" stroke="red" stroke-width="5" d="M227.71,-1624.74C267.98,-1813.98 348.21,-2191 348.21,-2191 348.21,-2191 351.42,-2195.23 355.73,-2200.9"/>
<polygon fill="red" stroke="red" stroke-width="5" points="352.13,-2203.4 361.66,-2208.72 359.1,-2198.11 352.13,-2203.4"/>
</g>
<!-- AVB -->
<g id="node8" class="node">
<title>AVB</title>
<ellipse fill="none" stroke="black" cx="378.82" cy="-2151" rx="29.61" ry="18"/>
<text text-anchor="middle" x="378.82" y="-2145.57" font-family="Times New Roman,serif" font-size="14.00">AVB</text>
</g>
<!-- DVA&#45;&gt;AVB -->
<g id="edge7" class="edge">
<title>DVA&#45;&gt;AVB</title>
<path fill="none" stroke="black" stroke-width="0.2" d="M233.64,-1623.19C275.34,-1788.3 348.21,-2090.5 348.21,-2090.5 348.21,-2090.5 360.54,-2106.74 369.29,-2124.04"/>
<polygon fill="black" stroke="black" stroke-width="0.2" points="365.97,-2125.2 373.32,-2132.83 372.33,-2122.28 365.97,-2125.2"/>
</g>
<!-- AVD -->
<g id="node9" class="node">
<title>AVD</title>
<ellipse fill="none" stroke="black" cx="378.82" cy="-2072" rx="30.11" ry="18"/>
<text text-anchor="middle" x="378.82" y="-2066.57" font-family="Times New Roman,serif" font-size="14.00">AVD</text>
</g>
<!-- DVA&#45;&gt;AVD -->
<g id="edge8" class="edge">
<title>DVA&#45;&gt;AVD</title>
<path fill="none" stroke="gray" stroke-width="0.2" d="M234.15,-1623.02C275.94,-1773.21 348.21,-2033 348.21,-2033 348.21,-2033 353.34,-2039.75 359.32,-2047.63"/>
<polygon fill="gray" stroke="gray" stroke-width="0.2" points="356.42,-2049.6 365.25,-2055.45 361.99,-2045.36 356.42,-2049.6"/>
</g>
<!-- AVE -->
<g id="node10" class="node">
<title>AVE</title>
<ellipse fill="none" stroke="black" cx="378.82" cy="-1993" rx="29.11" ry="18"/>
<text text-anchor="middle" x="378.82" y="-1987.58" font-family="Times New Roman,serif" font-size="14.00">AVE</text>
</g>
<!-- DVA&#45;&gt;AVE -->
<g id="edge9" class="edge">
<title>DVA&#45;&gt;AVE</title>
<path fill="none" stroke="black" stroke-width="5" d="M238.92,-1621.54C281.2,-1750.14 348.21,-1954 348.21,-1954 348.21,-1954 351.42,-1958.23 355.73,-1963.9"/>
<polygon fill="black" stroke="black" stroke-width="5" points="352.13,-1966.4 361.66,-1971.72 359.1,-1961.11 352.13,-1966.4"/>
</g>
<!-- AVK -->
<g id="node11" class="node">
<title>AVK</title>
<ellipse fill="none" stroke="black" cx="378.82" cy="-1914" rx="30.11" ry="18"/>
<text text-anchor="middle" x="378.82" y="-1908.58" font-family="Times New Roman,serif" font-size="14.00">AVK</text>
</g>
<!-- DVA&#45;&gt;AVK -->
<g id="edge10" class="edge">
<title>DVA&#45;&gt;AVK</title>
<path fill="none" stroke="gray" stroke-width="0.2" d="M245.43,-1619.11C287.72,-1724.41 348.21,-1875 348.21,-1875 348.21,-1875 353.34,-1881.75 359.32,-1889.63"/>
<polygon fill="gray" stroke="gray" stroke-width="0.2" points="356.42,-1891.6 365.25,-1897.45 361.99,-1887.36 356.42,-1891.6"/>
</g>
<!-- CEP -->
<g id="node12" class="node">
<title>CEP</title>
<ellipse fill="none" stroke="black" cx="378.82" cy="-1835" rx="28.11" ry="18"/>
<text text-anchor="middle" x="378.82" y="-1829.58" font-family="Times New Roman,serif" font-size="14.00">CEP</text>
</g>
<!-- DVA&#45;&gt;CEP -->
<g id="edge11" class="edge">
<title>DVA&#45;&gt;CEP</title>
<path fill="none" stroke="blue" stroke-width="2" d="M254.62,-1614.72C295.96,-1694.78 348.21,-1796 348.21,-1796 348.21,-1796 352.52,-1801.67 357.84,-1808.69"/>
<polygon fill="blue" stroke="blue" stroke-width="2" points="354.77,-1810.43 363.6,-1816.28 360.34,-1806.19 354.77,-1810.43"/>
</g>
<!-- FLP -->
<g id="node13" class="node">
<title>FLP</title>
<ellipse fill="none" stroke="black" cx="378.82" cy="-1756" rx="27.11" ry="18"/>
<text text-anchor="middle" x="378.82" y="-1750.58" font-family="Times New Roman,serif" font-size="14.00">FLP</text>
</g>
<!-- DVA&#45;&gt;FLP -->
<g id="edge12" class="edge">
<title>DVA&#45;&gt;FLP</title>
<path fill="none" stroke="gray" stroke-width="0.2" d="M276.92,-1599.46C312.6,-1646.19 348.21,-1695.5 348.21,-1695.5 348.21,-1695.5 360.54,-1711.74 369.29,-1729.04"/>
<polygon fill="gray" stroke="gray" stroke-width="0.2" points="365.97,-1730.2 373.32,-1737.83 372.33,-1727.28 365.97,-1730.2"/>
</g>
<!-- OLQ -->
<g id="node14" class="node">
<title>OLQ</title>
<ellipse fill="none" stroke="black" cx="378.82" cy="-1677" rx="30.11" ry="18"/>
<text text-anchor="middle" x="378.82" y="-1671.58" font-family="Times New Roman,serif" font-size="14.00">OLQ</text>
</g>
<!-- DVA&#45;&gt;OLQ -->
<g id="edge13" class="edge">
<title>DVA&#45;&gt;OLQ</title>
<path fill="none" stroke="gray" stroke-width="2" d="M292.02,-1582.34C317.66,-1605.83 343.24,-1631.17 359.71,-1650.07"/>
<polygon fill="gray" stroke="gray" stroke-width="2" points="356.84,-1652.09 365.93,-1657.53 362.21,-1647.6 356.84,-1652.09"/>
</g>
<!-- PVC -->
<g id="node15" class="node">
<title>PVC</title>
<ellipse fill="none" stroke="black" cx="378.82" cy="-1598" rx="29.11" ry="18"/>
<text text-anchor="middle" x="378.82" y="-1592.58" font-family="Times New Roman,serif" font-size="14.00">PVC</text>
</g>
<!-- DVA&#45;&gt;PVC -->
<g id="edge14" class="edge">
<title>DVA&#45;&gt;PVC</title>
<path fill="none" stroke="gray" stroke-width="2" d="M308.11,-1550.24C324.85,-1558.45 340.73,-1567.1 353.09,-1574.97"/>
<polygon fill="gray" stroke="gray" stroke-width="2" points="351.04,-1577.81 361.27,-1580.55 354.97,-1572.03 351.04,-1577.81"/>
</g>
<!-- PVP -->
<g id="node16" class="node">
<title>PVP</title>
<ellipse fill="none" stroke="black" cx="378.82" cy="-1519" rx="28.11" ry="18"/>
<text text-anchor="middle" x="378.82" y="-1513.58" font-family="Times New Roman,serif" font-size="14.00">PVP</text>
</g>
<!-- DVA&#45;&gt;PVP -->
<g id="edge15" class="edge">
<title>DVA&#45;&gt;PVP</title>
<path fill="none" stroke="gray" stroke-width="2" d="M311.08,-1503.25C322.66,-1503.7 333.73,-1504.55 343.42,-1505.81"/>
<polygon fill="gray" stroke="gray" stroke-width="2" points="342.68,-1509.24 353.11,-1507.38 343.8,-1502.33 342.68,-1509.24"/>
</g>
<!-- RIA -->
<g id="node17" class="node">
<title>RIA</title>
<ellipse fill="none" stroke="black" cx="378.82" cy="-1440" rx="27" ry="18"/>
<text text-anchor="middle" x="378.82" y="-1434.58" font-family="Times New Roman,serif" font-size="14.00">RIA</text>
</g>
<!-- DVA&#45;&gt;RIA -->
<g id="edge16" class="edge">
<title>DVA&#45;&gt;RIA</title>
<path fill="none" stroke="red" stroke-width="2" d="M302.86,-1474.31C317.7,-1467.52 332.07,-1460.94 344.2,-1455.39"/>
<polygon fill="red" stroke="red" stroke-width="2" points="345.56,-1458.61 353.2,-1451.27 342.65,-1452.25 345.56,-1458.61"/>
</g>
<!-- RIB -->
<g id="node18" class="node">
<title>RIB</title>
<ellipse fill="none" stroke="black" cx="378.82" cy="-1361" rx="27" ry="18"/>
<text text-anchor="middle" x="378.82" y="-1355.58" font-family="Times New Roman,serif" font-size="14.00">RIB</text>
</g>
<!-- DVA&#45;&gt;RIB -->
<g id="edge17" class="edge">
<title>DVA&#45;&gt;RIB</title>
<path fill="none" stroke="gray" stroke-width="0.2" d="M275.92,-1438.39C300.84,-1414.81 327.57,-1391.43 347.39,-1376.22"/>
<polygon fill="gray" stroke="gray" stroke-width="0.2" points="349.27,-1379.18 355.2,-1370.4 345.09,-1373.57 349.27,-1379.18"/>
</g>
<!-- RIC -->
<g id="node19" class="node">
<title>RIC</title>
<ellipse fill="none" stroke="black" cx="378.82" cy="-1282" rx="27" ry="18"/>
<text text-anchor="middle" x="378.82" y="-1276.58" font-family="Times New Roman,serif" font-size="14.00">RIC</text>
</g>
<!-- DVA&#45;&gt;RIC -->
<g id="edge18" class="edge">
<title>DVA&#45;&gt;RIC</title>
<path fill="none" stroke="gray" stroke-width="0.2" d="M268.35,-1431.58C306.66,-1378.54 348.21,-1321 348.21,-1321 348.21,-1321 353.48,-1314.06 359.57,-1306.03"/>
<polygon fill="gray" stroke="gray" stroke-width="0.2" points="362.33,-1308.19 365.59,-1298.1 356.76,-1303.95 362.33,-1308.19"/>
</g>
<!-- RIH -->
<g id="node20" class="node">
<title>RIH</title>
<ellipse fill="none" stroke="black" cx="378.82" cy="-1203" rx="27" ry="18"/>
<text text-anchor="middle" x="378.82" y="-1197.58" font-family="Times New Roman,serif" font-size="14.00">RIH</text>
</g>
<!-- DVA&#45;&gt;RIH -->
<g id="edge19" class="edge">
<title>DVA&#45;&gt;RIH</title>
<path fill="none" stroke="gray" stroke-width="0.2" d="M254.62,-1423.28C295.96,-1343.22 348.21,-1242 348.21,-1242 348.21,-1242 353.48,-1235.06 359.57,-1227.03"/>
<polygon fill="gray" stroke="gray" stroke-width="0.2" points="362.33,-1229.19 365.59,-1219.1 356.76,-1224.95 362.33,-1229.19"/>
</g>
<!-- RIM -->
<g id="node21" class="node">
<title>RIM</title>
<ellipse fill="none" stroke="black" cx="378.82" cy="-1124" rx="28.11" ry="18"/>
<text text-anchor="middle" x="378.82" y="-1118.58" font-family="Times New Roman,serif" font-size="14.00">RIM</text>
</g>
<!-- DVA&#45;&gt;RIM -->
<g id="edge20" class="edge">
<title>DVA&#45;&gt;RIM</title>
<path fill="none" stroke="gray" stroke-width="0.2" d="M245.43,-1418.89C287.72,-1313.59 348.21,-1163 348.21,-1163 348.21,-1163 353.34,-1156.25 359.32,-1148.37"/>
<polygon fill="gray" stroke="gray" stroke-width="0.2" points="361.99,-1150.64 365.25,-1140.55 356.42,-1146.4 361.99,-1150.64"/>
</g>
<!-- RIP -->
<g id="node22" class="node">
<title>RIP</title>
<ellipse fill="none" stroke="black" cx="378.82" cy="-1045" rx="27" ry="18"/>
<text text-anchor="middle" x="378.82" y="-1039.58" font-family="Times New Roman,serif" font-size="14.00">RIP</text>
</g>
<!-- DVA&#45;&gt;RIP -->
<g id="edge21" class="edge">
<title>DVA&#45;&gt;RIP</title>
<path fill="none" stroke="gray" stroke-width="0.2" d="M238.92,-1416.46C281.2,-1287.86 348.21,-1084 348.21,-1084 348.21,-1084 353.48,-1077.06 359.57,-1069.03"/>
<polygon fill="gray" stroke="gray" stroke-width="0.2" points="362.33,-1071.19 365.59,-1061.1 356.76,-1066.95 362.33,-1071.19"/>
</g>
<!-- RIR -->
<g id="node23" class="node">
<title>RIR</title>
<ellipse fill="none" stroke="black" cx="378.82" cy="-966" rx="27" ry="18"/>
<text text-anchor="middle" x="378.82" y="-960.58" font-family="Times New Roman,serif" font-size="14.00">RIR</text>
</g>
<!-- DVA&#45;&gt;RIR -->
<g id="edge22" class="edge">
<title>DVA&#45;&gt;RIR</title>
<path fill="none" stroke="red" stroke-width="2" d="M230.78,-1413.99C267.41,-1274.85 331.94,-1042.08 350.47,-986.9"/>
<polygon fill="red" stroke="red" stroke-width="2" points="353.6,-988.52 353.98,-977.93 347.08,-985.97 353.6,-988.52"/>
</g>
<!-- RIV -->
<g id="node24" class="node">
<title>RIV</title>
<ellipse fill="none" stroke="black" cx="378.82" cy="-887" rx="27" ry="18"/>
<text text-anchor="middle" x="378.82" y="-881.58" font-family="Times New Roman,serif" font-size="14.00">RIV</text>
</g>
<!-- DVA&#45;&gt;RIV -->
<g id="edge23" class="edge">
<title>DVA&#45;&gt;RIV</title>
<path fill="none" stroke="gray" stroke-width="0.2" d="M230.53,-1414.01C271.6,-1243.69 348.21,-926 348.21,-926 348.21,-926 353.48,-919.06 359.57,-911.03"/>
<polygon fill="gray" stroke="gray" stroke-width="0.2" points="362.33,-913.19 365.59,-903.1 356.76,-908.95 362.33,-913.19"/>
</g>
<!-- RMF -->
<g id="node25" class="node">
<title>RMF</title>
<ellipse fill="none" stroke="black" cx="378.82" cy="-808" rx="30.61" ry="18"/>
<text text-anchor="middle" x="378.82" y="-802.58" font-family="Times New Roman,serif" font-size="14.00">RMF</text>
</g>
<!-- DVA&#45;&gt;RMF -->
<g id="edge24" class="edge">
<title>DVA&#45;&gt;RMF</title>
<path fill="none" stroke="gray" stroke-width="0.2" d="M227.71,-1413.26C267.98,-1224.02 348.21,-847 348.21,-847 348.21,-847 353.34,-840.25 359.32,-832.37"/>
<polygon fill="gray" stroke="gray" stroke-width="0.2" points="361.99,-834.64 365.25,-824.55 356.42,-830.4 361.99,-834.64"/>
</g>
<!-- SAA -->
<g id="node26" class="node">
<title>SAA</title>
<ellipse fill="none" stroke="black" cx="378.82" cy="-729" rx="29.11" ry="18"/>
<text text-anchor="middle" x="378.82" y="-723.58" font-family="Times New Roman,serif" font-size="14.00">SAA</text>
</g>
<!-- DVA&#45;&gt;SAA -->
<g id="edge25" class="edge">
<title>DVA&#45;&gt;SAA</title>
<path fill="none" stroke="gray" stroke-width="2" d="M225.4,-1412.99C264.82,-1205.98 348.21,-768 348.21,-768 348.21,-768 352.52,-762.33 357.84,-755.31"/>
<polygon fill="gray" stroke="gray" stroke-width="2" points="360.34,-757.81 363.6,-747.72 354.77,-753.57 360.34,-757.81"/>
</g>
<!-- SAB -->
<g id="node27" class="node">
<title>SAB</title>
<ellipse fill="none" stroke="black" cx="378.82" cy="-650" rx="28.61" ry="18"/>
<text text-anchor="middle" x="378.82" y="-644.58" font-family="Times New Roman,serif" font-size="14.00">SAB</text>
</g>
<!-- DVA&#45;&gt;SAB -->
<g id="edge26" class="edge">
<title>DVA&#45;&gt;SAB</title>
<path fill="none" stroke="gray" stroke-width="2" d="M223.54,-1412.61C262.13,-1188.65 348.21,-689 348.21,-689 348.21,-689 352.52,-683.33 357.84,-676.31"/>
<polygon fill="gray" stroke="gray" stroke-width="2" points="360.34,-678.81 363.6,-668.72 354.77,-674.57 360.34,-678.81"/>
</g>
<!-- SDQ -->
<g id="node28" class="node">
<title>SDQ</title>
<ellipse fill="none" stroke="black" cx="378.82" cy="-571" rx="29.61" ry="18"/>
<text text-anchor="middle" x="378.82" y="-565.58" font-family="Times New Roman,serif" font-size="14.00">SDQ</text>
</g>
<!-- DVA&#45;&gt;SDQ -->
<g id="edge27" class="edge">
<title>DVA&#45;&gt;SDQ</title>
<path fill="none" stroke="gray" stroke-width="0.2" d="M220.38,-1412C254.56,-1184.6 335.51,-669.31 351.68,-591.09"/>
<polygon fill="gray" stroke="gray" stroke-width="0.2" points="355.06,-591.97 354.13,-581.42 348.28,-590.25 355.06,-591.97"/>
</g>
<!-- SIA -->
<g id="node29" class="node">
<title>SIA</title>
<ellipse fill="none" stroke="black" cx="378.82" cy="-492" rx="27" ry="18"/>
<text text-anchor="middle" x="378.82" y="-486.57" font-family="Times New Roman,serif" font-size="14.00">SIA</text>
</g>
<!-- DVA&#45;&gt;SIA -->
<g id="edge28" class="edge">
<title>DVA&#45;&gt;SIA</title>
<path fill="none" stroke="gray" stroke-width="0.2" d="M220.72,-1411.86C257.74,-1156.09 348.21,-531 348.21,-531 348.21,-531 353.48,-524.06 359.57,-516.03"/>
<polygon fill="gray" stroke="gray" stroke-width="0.2" points="362.33,-518.19 365.59,-508.1 356.76,-513.95 362.33,-518.19"/>
</g>
<!-- SIB -->
<g id="node30" class="node">
<title>SIB</title>
<ellipse fill="none" stroke="black" cx="378.82" cy="-413" rx="27" ry="18"/>
<text text-anchor="middle" x="378.82" y="-407.57" font-family="Times New Roman,serif" font-size="14.00">SIB</text>
</g>
<!-- DVA&#45;&gt;SIB -->
<g id="edge29" class="edge">
<title>DVA&#45;&gt;SIB</title>
<path fill="none" stroke="gray" stroke-width="5" d="M219.58,-1411.81C255.84,-1141.23 348.21,-452 348.21,-452 348.21,-452 351.69,-447.42 356.26,-441.39"/>
<polygon fill="gray" stroke="gray" stroke-width="5" points="359.44,-444.44 362,-433.83 352.47,-439.15 359.44,-444.44"/>
</g>
<!-- SMB -->
<g id="node31" class="node">
<title>SMB</title>
<ellipse fill="none" stroke="black" cx="378.82" cy="-334" rx="30.11" ry="18"/>
<text text-anchor="middle" x="378.82" y="-328.57" font-family="Times New Roman,serif" font-size="14.00">SMB</text>
</g>
<!-- DVA&#45;&gt;SMB -->
<g id="edge30" class="edge">
<title>DVA&#45;&gt;SMB</title>
<path fill="none" stroke="red" stroke-width="2" d="M218.6,-1411.7C254.15,-1126.81 348.21,-373 348.21,-373 348.21,-373 352.52,-367.33 357.84,-360.31"/>
<polygon fill="red" stroke="red" stroke-width="2" points="360.34,-362.81 363.6,-352.72 354.77,-358.57 360.34,-362.81"/>
</g>
<!-- SMD -->
<g id="node32" class="node">
<title>SMD</title>
<ellipse fill="none" stroke="black" cx="378.82" cy="-255" rx="30.61" ry="18"/>
<text text-anchor="middle" x="378.82" y="-249.57" font-family="Times New Roman,serif" font-size="14.00">SMD</text>
</g>
<!-- DVA&#45;&gt;SMD -->
<g id="edge31" class="edge">
<title>DVA&#45;&gt;SMD</title>
<path fill="none" stroke="gray" stroke-width="0.2" d="M217.78,-1411.36C252.67,-1112.44 348.21,-294 348.21,-294 348.21,-294 353.34,-287.25 359.32,-279.37"/>
<polygon fill="gray" stroke="gray" stroke-width="0.2" points="361.99,-281.64 365.25,-271.55 356.42,-277.4 361.99,-281.64"/>
</g>
<!-- URX -->
<g id="node33" class="node">
<title>URX</title>
<ellipse fill="none" stroke="black" cx="378.82" cy="-176" rx="30.11" ry="18"/>
<text text-anchor="middle" x="378.82" y="-170.57" font-family="Times New Roman,serif" font-size="14.00">URX</text>
</g>
<!-- DVA&#45;&gt;URX -->
<g id="edge32" class="edge">
<title>DVA&#45;&gt;URX</title>
<path fill="none" stroke="gray" stroke-width="0.2" d="M216.02,-1411.32C247.41,-1113.38 337.04,-295.46 352.04,-196.3"/>
<polygon fill="gray" stroke="gray" stroke-width="0.2" points="355.42,-197.24 353.86,-186.76 348.55,-195.92 355.42,-197.24"/>
</g>
<!-- URY -->
<g id="node34" class="node">
<title>URY</title>
<ellipse fill="none" stroke="black" cx="378.82" cy="-97" rx="30.11" ry="18"/>
<text text-anchor="middle" x="378.82" y="-91.58" font-family="Times New Roman,serif" font-size="14.00">URY</text>
</g>
<!-- DVA&#45;&gt;URY -->
<g id="edge33" class="edge">
<title>DVA&#45;&gt;URY</title>
<path fill="none" stroke="red" stroke-width="2" d="M216.34,-1411.34C249.97,-1086.13 348.21,-136 348.21,-136 348.21,-136 352.52,-130.33 357.84,-123.31"/>
<polygon fill="red" stroke="red" stroke-width="2" points="360.34,-125.81 363.6,-115.72 354.77,-121.57 360.34,-125.81"/>
</g>
<!-- VBn -->
<g id="node35" class="node">
<title>VBn</title>
<ellipse fill="none" stroke="black" cx="378.82" cy="-18" rx="27.61" ry="18"/>
<text text-anchor="middle" x="378.82" y="-12.57" font-family="Times New Roman,serif" font-size="14.00">VBn</text>
</g>
<!-- DVA&#45;&gt;VBn -->
<g id="edge34" class="edge">
<title>DVA&#45;&gt;VBn</title>
<path fill="none" stroke="gray" stroke-width="0.2" d="M215.76,-1411.2C248.81,-1073.27 348.21,-57 348.21,-57 348.21,-57 353.48,-50.06 359.57,-42.03"/>
<polygon fill="gray" stroke="gray" stroke-width="0.2" points="362.33,-44.19 365.59,-34.1 356.76,-39.95 362.33,-44.19"/>
</g>
<!-- ADA&#45;&gt;DVA -->
<g id="edge35" class="edge">
<title>ADA&#45;&gt;DVA</title>
<path fill="none" stroke="gray" stroke-width="5" d="M353.92,-2614.54C350.55,-2610.58 348.21,-2607.5 348.21,-2607.5 348.21,-2607.5 257.06,-1927.38 220.31,-1642.19"/>
<polygon fill="gray" stroke="gray" stroke-width="5" points="224.69,-1641.99 219.08,-1632.63 216.01,-1643.11 224.69,-1641.99"/>
</g>
<!-- ADE&#45;&gt;DVA -->
<g id="edge36" class="edge">
<title>ADE&#45;&gt;DVA</title>
<path fill="none" stroke="gray" stroke-width="0.2" d="M354.2,-2535.87C350.69,-2531.76 348.21,-2528.5 348.21,-2528.5 348.21,-2528.5 257.62,-1902.62 220.65,-1636.31"/>
<polygon fill="gray" stroke="gray" stroke-width="0.2" points="224.13,-1635.94 219.29,-1626.52 217.2,-1636.91 224.13,-1635.94"/>
</g>
<!-- AIZ&#45;&gt;DVA -->
<g id="edge37" class="edge">
<title>AIZ&#45;&gt;DVA</title>
<path fill="none" stroke="red" stroke-width="0.2" d="M355.08,-2457.89C351.1,-2453.31 348.21,-2449.5 348.21,-2449.5 348.21,-2449.5 259.57,-1886.02 221.86,-1635.86"/>
<polygon fill="red" stroke="red" stroke-width="0.2" points="225.37,-1635.67 220.43,-1626.3 218.45,-1636.71 225.37,-1635.67"/>
</g>
<!-- AQR&#45;&gt;DVA -->
<g id="edge38" class="edge">
<title>AQR&#45;&gt;DVA</title>
<path fill="none" stroke="gray" stroke-width="5" d="M353.64,-2377.21C350.43,-2373.42 348.21,-2370.5 348.21,-2370.5 348.21,-2370.5 263.34,-1877.9 224.37,-1641.85"/>
<polygon fill="gray" stroke="gray" stroke-width="5" points="228.71,-1641.31 222.77,-1632.15 220.08,-1642.73 228.71,-1641.31"/>
</g>
<!-- AUA&#45;&gt;DVA -->
<g id="edge39" class="edge">
<title>AUA&#45;&gt;DVA</title>
<path fill="none" stroke="gray" stroke-width="0.2" d="M353.92,-2298.54C350.55,-2294.58 348.21,-2291.5 348.21,-2291.5 348.21,-2291.5 264.48,-1851.77 225.16,-1635.64"/>
<polygon fill="gray" stroke="gray" stroke-width="0.2" points="228.61,-1635.03 223.38,-1625.81 221.72,-1636.28 228.61,-1635.03"/>
</g>
<!-- AVB&#45;&gt;DVA -->
<g id="edge40" class="edge">
<title>AVB&#45;&gt;DVA</title>
<path fill="none" stroke="gray" stroke-width="0.2" d="M354.2,-2140.87C350.69,-2136.76 348.21,-2133.5 348.21,-2133.5 348.21,-2133.5 270.93,-1813.04 230,-1634.73"/>
<polygon fill="gray" stroke="gray" stroke-width="0.2" points="233.43,-1634.03 227.78,-1625.07 226.6,-1635.6 233.43,-1634.03"/>
</g>
<!-- FLP&#45;&gt;DVA -->
<g id="edge41" class="edge">
<title>FLP&#45;&gt;DVA</title>
<path fill="none" stroke="gray" stroke-width="2" d="M355.08,-1746.89C351.1,-1742.31 348.21,-1738.5 348.21,-1738.5 348.21,-1738.5 305.71,-1679.65 267.05,-1622.64"/>
<polygon fill="gray" stroke="gray" stroke-width="2" points="270.08,-1620.87 261.58,-1614.54 264.27,-1624.78 270.08,-1620.87"/>
</g>
<!-- OLQ&#45;&gt;DVA -->
<g id="edge42" class="edge">
<title>OLQ&#45;&gt;DVA</title>
<path fill="none" stroke="gray" stroke-width="0.2" d="M353.83,-1666.62C335.36,-1653.12 308.74,-1630.24 283.11,-1606.36"/>
<polygon fill="gray" stroke="gray" stroke-width="0.2" points="285.82,-1604.11 276.14,-1599.82 281.03,-1609.21 285.82,-1604.11"/>
</g>
<!-- PVC&#45;&gt;DVA -->
<g id="edge43" class="edge">
<title>PVC&#45;&gt;DVA</title>
<path fill="none" stroke="gray" stroke-width="0.2" d="M349.24,-1597.28C336.73,-1593.52 321.24,-1587.62 305.09,-1580.66"/>
<polygon fill="gray" stroke="gray" stroke-width="0.2" points="306.9,-1577.63 296.34,-1576.81 304.08,-1584.04 306.9,-1577.63"/>
</g>
<!-- PVP&#45;&gt;DVA -->
<g id="edge44" class="edge">
<title>PVP&#45;&gt;DVA</title>
<path fill="none" stroke="gray" stroke-width="0.2" d="M356.1,-1530.13C346.51,-1532.06 334.43,-1533.43 321.3,-1534.24"/>
<polygon fill="gray" stroke="gray" stroke-width="0.2" points="321.2,-1530.74 311.39,-1534.74 321.55,-1537.73 321.2,-1530.74"/>
</g>
<!-- RIB&#45;&gt;DVA -->
<g id="edge45" class="edge">
<title>RIB&#45;&gt;DVA</title>
<path fill="none" stroke="gray" stroke-width="0.2" d="M368.11,-1377.83C354.29,-1395.46 327.47,-1422.71 299.53,-1448.73"/>
<polygon fill="gray" stroke="gray" stroke-width="0.2" points="297.21,-1446.1 292.24,-1455.46 301.96,-1451.24 297.21,-1446.1"/>
</g>
<!-- RIR&#45;&gt;DVA -->
<g id="edge46" class="edge">
<title>RIR&#45;&gt;DVA</title>
<path fill="none" stroke="red" stroke-width="5" d="M373.45,-983.9C365.21,-1004.1 348.21,-1026.5 348.21,-1026.5 348.21,-1026.5 284.63,-1255.06 242.25,-1400.98"/>
<polygon fill="red" stroke="red" stroke-width="5" points="238.18,-1399.33 239.58,-1410.16 246.58,-1401.78 238.18,-1399.33"/>
</g>
<!-- SDQ&#45;&gt;DVA -->
<g id="edge47" class="edge">
<title>SDQ&#45;&gt;DVA</title>
<path fill="none" stroke="black" stroke-width="5" d="M373.45,-588.9C365.21,-609.1 348.21,-631.5 348.21,-631.5 348.21,-631.5 266.18,-1152.95 226.38,-1396.62"/>
<polygon fill="black" stroke="black" stroke-width="5" points="222.07,-1395.88 224.77,-1406.46 230.7,-1397.29 222.07,-1395.88"/>
</g>
<!-- URX&#45;&gt;DVA -->
<g id="edge48" class="edge">
<title>URX&#45;&gt;DVA</title>
<path fill="none" stroke="gray" stroke-width="0.2" d="M373.45,-193.9C365.21,-214.1 348.21,-236.5 348.21,-236.5 348.21,-236.5 255.27,-1084.02 219.24,-1401.27"/>
<polygon fill="gray" stroke="gray" stroke-width="0.2" points="215.78,-1400.79 218.13,-1411.12 222.73,-1401.58 215.78,-1400.79"/>
</g>
<!-- AIB -->
<g id="node36" class="node">
<title>AIB</title>
<ellipse fill="none" stroke="black" cx="30.11" cy="-1717" rx="27" ry="18"/>
<text text-anchor="middle" x="30.11" y="-1711.58" font-family="Times New Roman,serif" font-size="14.00">AIB</text>
</g>
<!-- AIB&#45;&gt;DVA -->
<g id="edge49" class="edge">
<title>AIB&#45;&gt;DVA</title>
<path fill="none" stroke="red" stroke-width="2" d="M44.61,-1701.46C61.99,-1681.46 93.6,-1645.11 124.05,-1610.08"/>
<polygon fill="red" stroke="red" stroke-width="2" points="126.68,-1612.38 130.6,-1602.53 121.4,-1607.78 126.68,-1612.38"/>
</g>
<!-- AVF -->
<g id="node37" class="node">
<title>AVF</title>
<ellipse fill="none" stroke="black" cx="30.11" cy="-1638" rx="29.11" ry="18"/>
<text text-anchor="middle" x="30.11" y="-1632.58" font-family="Times New Roman,serif" font-size="14.00">AVF</text>
</g>
<!-- AVF&#45;&gt;DVA -->
<g id="edge50" class="edge">
<title>AVF&#45;&gt;DVA</title>
<path fill="none" stroke="gray" stroke-width="2" d="M50.18,-1624.81C63.88,-1615.34 83.51,-1601.76 104.16,-1587.49"/>
<polygon fill="gray" stroke="gray" stroke-width="2" points="105.97,-1590.49 112.21,-1581.93 101.99,-1584.73 105.97,-1590.49"/>
</g>
<!-- AVH -->
<g id="node38" class="node">
<title>AVH</title>
<ellipse fill="none" stroke="black" cx="30.11" cy="-1559" rx="30.11" ry="18"/>
<text text-anchor="middle" x="30.11" y="-1553.58" font-family="Times New Roman,serif" font-size="14.00">AVH</text>
</g>
<!-- AVH&#45;&gt;DVA -->
<g id="edge51" class="edge">
<title>AVH&#45;&gt;DVA</title>
<path fill="none" stroke="red" stroke-width="2" d="M58.76,-1552.57C66.8,-1550.7 76.12,-1548.54 86.09,-1546.22"/>
<polygon fill="red" stroke="red" stroke-width="2" points="86.63,-1549.69 95.58,-1544.02 85.05,-1542.87 86.63,-1549.69"/>
</g>
<!-- AVJ -->
<g id="node39" class="node">
<title>AVJ</title>
<ellipse fill="none" stroke="black" cx="30.11" cy="-1480" rx="27.11" ry="18"/>
<text text-anchor="middle" x="30.11" y="-1474.58" font-family="Times New Roman,serif" font-size="14.00">AVJ</text>
</g>
<!-- AVJ&#45;&gt;DVA -->
<g id="edge52" class="edge">
<title>AVJ&#45;&gt;DVA</title>
<path fill="none" stroke="gray" stroke-width="0.2" d="M56.13,-1485.67C65.4,-1487.77 76.62,-1490.31 88.67,-1493.04"/>
<polygon fill="gray" stroke="gray" stroke-width="0.2" points="87.68,-1496.41 98.2,-1495.2 89.23,-1489.58 87.68,-1496.41"/>
</g>
<!-- RIF -->
<g id="node40" class="node">
<title>RIF</title>
<ellipse fill="none" stroke="black" cx="30.11" cy="-1401" rx="27" ry="18"/>
<text text-anchor="middle" x="30.11" y="-1395.58" font-family="Times New Roman,serif" font-size="14.00">RIF</text>
</g>
<!-- RIF&#45;&gt;DVA -->
<g id="edge53" class="edge">
<title>RIF&#45;&gt;DVA</title>
<path fill="none" stroke="gray" stroke-width="0.2" d="M49.85,-1413.85C64.07,-1423.6 84.79,-1437.81 106.44,-1452.65"/>
<polygon fill="gray" stroke="gray" stroke-width="0.2" points="104.3,-1455.42 114.52,-1458.19 108.25,-1449.65 104.3,-1455.42"/>
</g>
<!-- RIG -->
<g id="node41" class="node">
<title>RIG</title>
<ellipse fill="none" stroke="black" cx="30.11" cy="-1322" rx="27.11" ry="18"/>
<text text-anchor="middle" x="30.11" y="-1316.58" font-family="Times New Roman,serif" font-size="14.00">RIG</text>
</g>
<!-- RIG&#45;&gt;DVA -->
<g id="edge54" class="edge">
<title>RIG&#45;&gt;DVA</title>
<path fill="none" stroke="gray" stroke-width="0.2" d="M44.61,-1337.46C62.37,-1357.78 94.96,-1395.08 126,-1430.61"/>
<polygon fill="gray" stroke="gray" stroke-width="0.2" points="123.18,-1432.71 132.39,-1437.93 128.45,-1428.1 123.18,-1432.71"/>
</g>
</g>
</svg>
