<?xml version="1.0" encoding="UTF-8" standalone="no"?>
<!DOCTYPE svg PUBLIC "-//W3C//DTD SVG 1.1//EN"
 "http://www.w3.org/Graphics/SVG/1.1/DTD/svg11.dtd">
<!-- Generated by graphviz version 11.0.0 (20240428.1522)
 -->
<!-- Pages: 1 -->
<svg width="411pt" height="1940pt"
 viewBox="0.00 0.00 411.21 1940.00" xmlns="http://www.w3.org/2000/svg" xmlns:xlink="http://www.w3.org/1999/xlink">
<g id="graph0" class="graph" transform="scale(1 1) rotate(0) translate(4 1936)">
<polygon fill="white" stroke="none" points="-4,4 -4,-1936 407.21,-1936 407.21,4 -4,4"/>
<!-- DVC -->
<g id="node1" class="node">
<title>DVC</title>
<ellipse fill="none" stroke="black" cx="198" cy="-926" rx="108" ry="108"/>
<text text-anchor="middle" x="198" y="-907" font-family="Times New Roman,serif" font-size="50.00">DVC</text>
</g>
<!-- DVC&#45;&gt;DVC -->
<g id="edge1" class="edge">
<title>DVC&#45;&gt;DVC</title>
<path fill="none" stroke="gray" stroke-width="2" d="M166.27,-1029.75C168.22,-1056.69 178.8,-1077 198,-1077 214.05,-1077 224.08,-1062.8 228.08,-1042.41"/>
<polygon fill="gray" stroke="gray" stroke-width="2" points="231.51,-1043.12 229.34,-1032.75 224.57,-1042.21 231.51,-1043.12"/>
</g>
<!-- ADA -->
<g id="node2" class="node">
<title>ADA</title>
<ellipse fill="none" stroke="black" cx="372.61" cy="-1914" rx="30.11" ry="18"/>
<text text-anchor="middle" x="372.61" y="-1908.58" font-family="Times New Roman,serif" font-size="14.00">ADA</text>
</g>
<!-- DVC&#45;&gt;ADA -->
<g id="edge2" class="edge">
<title>DVC&#45;&gt;ADA</title>
<path fill="none" stroke="gray" stroke-width="0.2" d="M215.13,-1033.02C252.52,-1281.21 342,-1875 342,-1875 342,-1875 347.12,-1881.75 353.11,-1889.63"/>
<polygon fill="gray" stroke="gray" stroke-width="0.2" points="350.2,-1891.6 359.04,-1897.45 355.78,-1887.36 350.2,-1891.6"/>
</g>
<!-- ADE -->
<g id="node3" class="node">
<title>ADE</title>
<ellipse fill="none" stroke="black" cx="372.61" cy="-1835" rx="29.11" ry="18"/>
<text text-anchor="middle" x="372.61" y="-1829.58" font-family="Times New Roman,serif" font-size="14.00">ADE</text>
</g>
<!-- DVC&#45;&gt;ADE -->
<g id="edge3" class="edge">
<title>DVC&#45;&gt;ADE</title>
<path fill="none" stroke="gray" stroke-width="5" d="M218.43,-1032.5C257.53,-1260.61 342,-1774.5 342,-1774.5 342,-1774.5 351.97,-1787.63 360.33,-1802.85"/>
<polygon fill="gray" stroke="gray" stroke-width="5" points="356.22,-1804.4 364.52,-1811.49 364.1,-1800.58 356.22,-1804.4"/>
</g>
<!-- AIB -->
<g id="node4" class="node">
<title>AIB</title>
<ellipse fill="none" stroke="black" cx="372.61" cy="-1756" rx="27" ry="18"/>
<text text-anchor="middle" x="372.61" y="-1750.58" font-family="Times New Roman,serif" font-size="14.00">AIB</text>
</g>
<!-- DVC&#45;&gt;AIB -->
<g id="edge4" class="edge">
<title>DVC&#45;&gt;AIB</title>
<path fill="none" stroke="black" stroke-width="5" d="M220.33,-1031.8C260.2,-1243 342,-1695.5 342,-1695.5 342,-1695.5 351.97,-1708.63 360.33,-1723.85"/>
<polygon fill="black" stroke="black" stroke-width="5" points="356.22,-1725.4 364.52,-1732.49 364.1,-1721.58 356.22,-1725.4"/>
</g>
<!-- AIZ -->
<g id="node5" class="node">
<title>AIZ</title>
<ellipse fill="none" stroke="black" cx="372.61" cy="-1677" rx="27" ry="18"/>
<text text-anchor="middle" x="372.61" y="-1671.58" font-family="Times New Roman,serif" font-size="14.00">AIZ</text>
</g>
<!-- DVC&#45;&gt;AIZ -->
<g id="edge5" class="edge">
<title>DVC&#45;&gt;AIZ</title>
<path fill="none" stroke="gray" stroke-width="0.2" d="M220.25,-1031.82C260.09,-1230.17 342,-1638 342,-1638 342,-1638 347.27,-1644.94 353.36,-1652.97"/>
<polygon fill="gray" stroke="gray" stroke-width="0.2" points="350.55,-1655.05 359.38,-1660.9 356.12,-1650.81 350.55,-1655.05"/>
</g>
<!-- AQR -->
<g id="node6" class="node">
<title>AQR</title>
<ellipse fill="none" stroke="black" cx="372.61" cy="-1598" rx="30.61" ry="18"/>
<text text-anchor="middle" x="372.61" y="-1592.58" font-family="Times New Roman,serif" font-size="14.00">AQR</text>
</g>
<!-- DVC&#45;&gt;AQR -->
<g id="edge6" class="edge">
<title>DVC&#45;&gt;AQR</title>
<path fill="none" stroke="gray" stroke-width="5" d="M222.85,-1031.59C263.54,-1211.69 342,-1559 342,-1559 342,-1559 345.21,-1563.23 349.52,-1568.9"/>
<polygon fill="gray" stroke="gray" stroke-width="5" points="345.92,-1571.4 355.45,-1576.72 352.89,-1566.11 345.92,-1571.4"/>
</g>
<!-- AVA -->
<g id="node7" class="node">
<title>AVA</title>
<ellipse fill="none" stroke="black" cx="372.61" cy="-1519" rx="30.11" ry="18"/>
<text text-anchor="middle" x="372.61" y="-1513.58" font-family="Times New Roman,serif" font-size="14.00">AVA</text>
</g>
<!-- DVC&#45;&gt;AVA -->
<g id="edge7" class="edge">
<title>DVC&#45;&gt;AVA</title>
<path fill="none" stroke="black" stroke-width="5" d="M225.98,-1030.53C267.42,-1191.07 342,-1480 342,-1480 342,-1480 345.21,-1484.23 349.52,-1489.9"/>
<polygon fill="black" stroke="black" stroke-width="5" points="345.92,-1492.4 355.45,-1497.72 352.89,-1487.11 345.92,-1492.4"/>
</g>
<!-- AVB -->
<g id="node8" class="node">
<title>AVB</title>
<ellipse fill="none" stroke="black" cx="372.61" cy="-1440" rx="29.61" ry="18"/>
<text text-anchor="middle" x="372.61" y="-1434.58" font-family="Times New Roman,serif" font-size="14.00">AVB</text>
</g>
<!-- DVC&#45;&gt;AVB -->
<g id="edge8" class="edge">
<title>DVC&#45;&gt;AVB</title>
<path fill="none" stroke="gray" stroke-width="2" d="M230.12,-1029.36C272.18,-1169.09 342,-1401 342,-1401 342,-1401 346.31,-1406.67 351.63,-1413.69"/>
<polygon fill="gray" stroke="gray" stroke-width="2" points="348.56,-1415.43 357.39,-1421.28 354.13,-1411.19 348.56,-1415.43"/>
</g>
<!-- AVE -->
<g id="node9" class="node">
<title>AVE</title>
<ellipse fill="none" stroke="black" cx="372.61" cy="-1361" rx="29.11" ry="18"/>
<text text-anchor="middle" x="372.61" y="-1355.58" font-family="Times New Roman,serif" font-size="14.00">AVE</text>
</g>
<!-- DVC&#45;&gt;AVE -->
<g id="edge9" class="edge">
<title>DVC&#45;&gt;AVE</title>
<path fill="none" stroke="gray" stroke-width="2" d="M235.73,-1027.72C278.1,-1145.05 342,-1322 342,-1322 342,-1322 346.31,-1327.67 351.63,-1334.69"/>
<polygon fill="gray" stroke="gray" stroke-width="2" points="348.56,-1336.43 357.39,-1342.28 354.13,-1332.19 348.56,-1336.43"/>
</g>
<!-- AVK -->
<g id="node10" class="node">
<title>AVK</title>
<ellipse fill="none" stroke="black" cx="372.61" cy="-1282" rx="30.11" ry="18"/>
<text text-anchor="middle" x="372.61" y="-1276.58" font-family="Times New Roman,serif" font-size="14.00">AVK</text>
</g>
<!-- DVC&#45;&gt;AVK -->
<g id="edge10" class="edge">
<title>DVC&#45;&gt;AVK</title>
<path fill="none" stroke="gray" stroke-width="2" d="M249.62,-1021.32C290.75,-1107.9 342,-1221.5 342,-1221.5 342,-1221.5 353.22,-1236.29 361.85,-1252.67"/>
<polygon fill="gray" stroke="gray" stroke-width="2" points="358.52,-1253.81 365.95,-1261.36 364.85,-1250.83 358.52,-1253.81"/>
</g>
<!-- AVL -->
<g id="node11" class="node">
<title>AVL</title>
<ellipse fill="none" stroke="black" cx="372.61" cy="-1203" rx="29.11" ry="18"/>
<text text-anchor="middle" x="372.61" y="-1197.58" font-family="Times New Roman,serif" font-size="14.00">AVL</text>
</g>
<!-- DVC&#45;&gt;AVL -->
<g id="edge11" class="edge">
<title>DVC&#45;&gt;AVL</title>
<path fill="none" stroke="gray" stroke-width="0.2" d="M262.35,-1013.28C300.6,-1073.59 342,-1142.5 342,-1142.5 342,-1142.5 354.33,-1158.74 363.07,-1176.04"/>
<polygon fill="gray" stroke="gray" stroke-width="0.2" points="359.76,-1177.2 367.11,-1184.83 366.12,-1174.28 359.76,-1177.2"/>
</g>
<!-- CEP -->
<g id="node12" class="node">
<title>CEP</title>
<ellipse fill="none" stroke="black" cx="372.61" cy="-1124" rx="28.11" ry="18"/>
<text text-anchor="middle" x="372.61" y="-1118.58" font-family="Times New Roman,serif" font-size="14.00">CEP</text>
</g>
<!-- DVC&#45;&gt;CEP -->
<g id="edge12" class="edge">
<title>DVC&#45;&gt;CEP</title>
<path fill="none" stroke="gray" stroke-width="0.2" d="M269.7,-1007.11C299.18,-1040.92 331.18,-1077.63 351.3,-1100.71"/>
<polygon fill="gray" stroke="gray" stroke-width="0.2" points="348.49,-1102.81 357.7,-1108.05 353.77,-1098.21 348.49,-1102.81"/>
</g>
<!-- FLP -->
<g id="node13" class="node">
<title>FLP</title>
<ellipse fill="none" stroke="black" cx="372.61" cy="-1045" rx="27.11" ry="18"/>
<text text-anchor="middle" x="372.61" y="-1039.58" font-family="Times New Roman,serif" font-size="14.00">FLP</text>
</g>
<!-- DVC&#45;&gt;FLP -->
<g id="edge13" class="edge">
<title>DVC&#45;&gt;FLP</title>
<path fill="none" stroke="gray" stroke-width="0.2" d="M287.58,-987.07C308.53,-1001.51 329.3,-1015.84 344.95,-1026.62"/>
<polygon fill="gray" stroke="gray" stroke-width="0.2" points="342.62,-1029.27 352.84,-1032.06 346.59,-1023.5 342.62,-1029.27"/>
</g>
<!-- OLL -->
<g id="node14" class="node">
<title>OLL</title>
<ellipse fill="none" stroke="black" cx="372.61" cy="-966" rx="28.61" ry="18"/>
<text text-anchor="middle" x="372.61" y="-960.58" font-family="Times New Roman,serif" font-size="14.00">OLL</text>
</g>
<!-- DVC&#45;&gt;OLL -->
<g id="edge14" class="edge">
<title>DVC&#45;&gt;OLL</title>
<path fill="none" stroke="gray" stroke-width="0.2" d="M303.39,-950.19C314.75,-952.82 325.68,-955.36 335.33,-957.59"/>
<polygon fill="gray" stroke="gray" stroke-width="0.2" points="334.44,-960.98 344.97,-959.83 336.02,-954.16 334.44,-960.98"/>
</g>
<!-- PVT -->
<g id="node15" class="node">
<title>PVT</title>
<ellipse fill="none" stroke="black" cx="372.61" cy="-887" rx="28.61" ry="18"/>
<text text-anchor="middle" x="372.61" y="-881.58" font-family="Times New Roman,serif" font-size="14.00">PVT</text>
</g>
<!-- DVC&#45;&gt;PVT -->
<g id="edge15" class="edge">
<title>DVC&#45;&gt;PVT</title>
<path fill="none" stroke="gray" stroke-width="0.2" d="M299.16,-887.43C311.87,-884.9 324.17,-882.94 334.92,-881.82"/>
<polygon fill="gray" stroke="gray" stroke-width="0.2" points="335.13,-885.31 344.81,-881 334.55,-878.33 335.13,-885.31"/>
</g>
<!-- RIB -->
<g id="node16" class="node">
<title>RIB</title>
<ellipse fill="none" stroke="black" cx="372.61" cy="-808" rx="27" ry="18"/>
<text text-anchor="middle" x="372.61" y="-802.58" font-family="Times New Roman,serif" font-size="14.00">RIB</text>
</g>
<!-- DVC&#45;&gt;RIB -->
<g id="edge16" class="edge">
<title>DVC&#45;&gt;RIB</title>
<path fill="none" stroke="black" stroke-width="5" d="M279.74,-854.71C298.09,-841.96 316.78,-829.97 332.47,-821"/>
<polygon fill="black" stroke="black" stroke-width="5" points="334.29,-824.98 341,-816.37 330.12,-817.29 334.29,-824.98"/>
</g>
<!-- RID -->
<g id="node17" class="node">
<title>RID</title>
<ellipse fill="none" stroke="black" cx="372.61" cy="-729" rx="27" ry="18"/>
<text text-anchor="middle" x="372.61" y="-723.58" font-family="Times New Roman,serif" font-size="14.00">RID</text>
</g>
<!-- DVC&#45;&gt;RID -->
<g id="edge17" class="edge">
<title>DVC&#45;&gt;RID</title>
<path fill="none" stroke="gray" stroke-width="0.2" d="M269.95,-845.02C299.4,-811.41 331.3,-775 351.36,-752.1"/>
<polygon fill="gray" stroke="gray" stroke-width="0.2" points="353.79,-754.65 357.74,-744.82 348.52,-750.04 353.79,-754.65"/>
</g>
<!-- RIG -->
<g id="node18" class="node">
<title>RIG</title>
<ellipse fill="none" stroke="black" cx="372.61" cy="-650" rx="27.11" ry="18"/>
<text text-anchor="middle" x="372.61" y="-644.58" font-family="Times New Roman,serif" font-size="14.00">RIG</text>
</g>
<!-- DVC&#45;&gt;RIG -->
<g id="edge18" class="edge">
<title>DVC&#45;&gt;RIG</title>
<path fill="none" stroke="gray" stroke-width="5" d="M247.21,-829.48C280.62,-770.18 321.64,-701.43 339.97,-672.47"/>
<polygon fill="gray" stroke="gray" stroke-width="5" points="343.5,-675.05 345.41,-664.3 336.22,-670.2 343.5,-675.05"/>
</g>
<!-- RIH -->
<g id="node19" class="node">
<title>RIH</title>
<ellipse fill="none" stroke="black" cx="372.61" cy="-571" rx="27" ry="18"/>
<text text-anchor="middle" x="372.61" y="-565.58" font-family="Times New Roman,serif" font-size="14.00">RIH</text>
</g>
<!-- DVC&#45;&gt;RIH -->
<g id="edge19" class="edge">
<title>DVC&#45;&gt;RIH</title>
<path fill="none" stroke="gray" stroke-width="0.2" d="M243.46,-827.75C285.44,-734.99 342,-610 342,-610 342,-610 347.27,-603.06 353.36,-595.03"/>
<polygon fill="gray" stroke="gray" stroke-width="0.2" points="356.12,-597.19 359.38,-587.1 350.55,-592.95 356.12,-597.19"/>
</g>
<!-- RIM -->
<g id="node20" class="node">
<title>RIM</title>
<ellipse fill="none" stroke="black" cx="372.61" cy="-492" rx="28.11" ry="18"/>
<text text-anchor="middle" x="372.61" y="-486.57" font-family="Times New Roman,serif" font-size="14.00">RIM</text>
</g>
<!-- DVC&#45;&gt;RIM -->
<g id="edge20" class="edge">
<title>DVC&#45;&gt;RIM</title>
<path fill="none" stroke="gray" stroke-width="0.2" d="M235.73,-824.53C278.1,-707.5 342,-531 342,-531 342,-531 347.12,-524.25 353.11,-516.37"/>
<polygon fill="gray" stroke="gray" stroke-width="0.2" points="355.78,-518.64 359.04,-508.55 350.2,-514.4 355.78,-518.64"/>
</g>
<!-- RIV -->
<g id="node21" class="node">
<title>RIV</title>
<ellipse fill="none" stroke="black" cx="372.61" cy="-413" rx="27" ry="18"/>
<text text-anchor="middle" x="372.61" y="-407.57" font-family="Times New Roman,serif" font-size="14.00">RIV</text>
</g>
<!-- DVC&#45;&gt;RIV -->
<g id="edge21" class="edge">
<title>DVC&#45;&gt;RIV</title>
<path fill="none" stroke="red" stroke-width="0.2" d="M230.21,-822.56C272.28,-683.09 342,-452 342,-452 342,-452 347.27,-445.06 353.36,-437.03"/>
<polygon fill="red" stroke="red" stroke-width="0.2" points="356.12,-439.19 359.38,-429.1 350.55,-434.95 356.12,-439.19"/>
</g>
<!-- RMF -->
<g id="node22" class="node">
<title>RMF</title>
<ellipse fill="none" stroke="black" cx="372.61" cy="-334" rx="30.61" ry="18"/>
<text text-anchor="middle" x="372.61" y="-328.57" font-family="Times New Roman,serif" font-size="14.00">RMF</text>
</g>
<!-- DVC&#45;&gt;RMF -->
<g id="edge22" class="edge">
<title>DVC&#45;&gt;RMF</title>
<path fill="none" stroke="red" stroke-width="5" d="M222.93,-820.66C258.63,-674.96 323.29,-424 342.32,-359.92"/>
<polygon fill="red" stroke="red" stroke-width="5" points="346.38,-361.57 345.43,-350.7 338.09,-358.77 346.38,-361.57"/>
</g>
<!-- SAA -->
<g id="node23" class="node">
<title>SAA</title>
<ellipse fill="none" stroke="black" cx="372.61" cy="-255" rx="29.11" ry="18"/>
<text text-anchor="middle" x="372.61" y="-249.57" font-family="Times New Roman,serif" font-size="14.00">SAA</text>
</g>
<!-- DVC&#45;&gt;SAA -->
<g id="edge23" class="edge">
<title>DVC&#45;&gt;SAA</title>
<path fill="none" stroke="gray" stroke-width="0.2" d="M222.85,-820.57C263.54,-640.76 342,-294 342,-294 342,-294 347.12,-287.25 353.11,-279.37"/>
<polygon fill="gray" stroke="gray" stroke-width="0.2" points="355.78,-281.64 359.04,-271.55 350.2,-277.4 355.78,-281.64"/>
</g>
<!-- SDQ -->
<g id="node24" class="node">
<title>SDQ</title>
<ellipse fill="none" stroke="black" cx="372.61" cy="-176" rx="29.61" ry="18"/>
<text text-anchor="middle" x="372.61" y="-170.57" font-family="Times New Roman,serif" font-size="14.00">SDQ</text>
</g>
<!-- DVC&#45;&gt;SDQ -->
<g id="edge24" class="edge">
<title>DVC&#45;&gt;SDQ</title>
<path fill="none" stroke="gray" stroke-width="0.2" d="M220.33,-819.94C260.2,-621.74 342,-215 342,-215 342,-215 347.12,-208.25 353.11,-200.37"/>
<polygon fill="gray" stroke="gray" stroke-width="0.2" points="355.78,-202.64 359.04,-192.55 350.2,-198.4 355.78,-202.64"/>
</g>
<!-- URA -->
<g id="node25" class="node">
<title>URA</title>
<ellipse fill="none" stroke="black" cx="372.61" cy="-97" rx="30.11" ry="18"/>
<text text-anchor="middle" x="372.61" y="-91.58" font-family="Times New Roman,serif" font-size="14.00">URA</text>
</g>
<!-- DVC&#45;&gt;URA -->
<g id="edge25" class="edge">
<title>DVC&#45;&gt;URA</title>
<path fill="none" stroke="gray" stroke-width="0.2" d="M216.32,-819.12C251.49,-615.29 328.94,-186.7 345.04,-117.04"/>
<polygon fill="gray" stroke="gray" stroke-width="0.2" points="348.31,-118.32 347.63,-107.75 341.57,-116.44 348.31,-118.32"/>
</g>
<!-- URY -->
<g id="node26" class="node">
<title>URY</title>
<ellipse fill="none" stroke="black" cx="372.61" cy="-18" rx="30.11" ry="18"/>
<text text-anchor="middle" x="372.61" y="-12.57" font-family="Times New Roman,serif" font-size="14.00">URY</text>
</g>
<!-- DVC&#45;&gt;URY -->
<g id="edge26" class="edge">
<title>DVC&#45;&gt;URY</title>
<path fill="none" stroke="gray" stroke-width="5" d="M216.53,-819.44C254.72,-587.4 342,-57 342,-57 342,-57 345.21,-52.77 349.52,-47.1"/>
<polygon fill="gray" stroke="gray" stroke-width="5" points="352.89,-49.89 355.45,-39.28 345.92,-44.6 352.89,-49.89"/>
</g>
<!-- ADE&#45;&gt;DVC -->
<g id="edge27" class="edge">
<title>ADE&#45;&gt;DVC</title>
<path fill="none" stroke="gray" stroke-width="2" d="M347.99,-1824.87C344.47,-1820.76 342,-1817.5 342,-1817.5 342,-1817.5 255.11,-1288.86 216.79,-1045.55"/>
<polygon fill="gray" stroke="gray" stroke-width="2" points="220.26,-1045.1 215.25,-1035.76 213.35,-1046.18 220.26,-1045.1"/>
</g>
<!-- AIB&#45;&gt;DVC -->
<g id="edge28" class="edge">
<title>AIB&#45;&gt;DVC</title>
<path fill="none" stroke="gray" stroke-width="0.2" d="M348.87,-1746.89C344.89,-1742.31 342,-1738.5 342,-1738.5 342,-1738.5 256.83,-1267.41 217.95,-1042.45"/>
<polygon fill="gray" stroke="gray" stroke-width="0.2" points="221.45,-1042.14 216.3,-1032.88 214.55,-1043.33 221.45,-1042.14"/>
</g>
<!-- AVK&#45;&gt;DVC -->
<g id="edge29" class="edge">
<title>AVK&#45;&gt;DVC</title>
<path fill="none" stroke="gray" stroke-width="0.2" d="M347.71,-1271.54C344.34,-1267.58 342,-1264.5 342,-1264.5 342,-1264.5 283.57,-1134.97 241.41,-1035.89"/>
<polygon fill="gray" stroke="gray" stroke-width="0.2" points="244.76,-1034.83 237.63,-1026.99 238.31,-1037.56 244.76,-1034.83"/>
</g>
<!-- AVL&#45;&gt;DVC -->
<g id="edge30" class="edge">
<title>AVL&#45;&gt;DVC</title>
<path fill="none" stroke="gray" stroke-width="nan" d="M347.99,-1192.87C344.47,-1188.76 342,-1185.5 342,-1185.5 342,-1185.5 288.56,-1096.55 247.01,-1022.5"/>
<polygon fill="gray" stroke="gray" stroke-width="nan" points="nan,-nan nan,-nan nan,-nan nan,-nan"/>
</g>
<!-- PVT&#45;&gt;DVC -->
<g id="edge31" class="edge">
<title>PVT&#45;&gt;DVC</title>
<path fill="none" stroke="gray" stroke-width="2" d="M354.17,-901.14C344.76,-905.51 332.23,-909.95 318.35,-914.06"/>
<polygon fill="gray" stroke="gray" stroke-width="2" points="317.45,-910.67 308.77,-916.75 319.35,-917.41 317.45,-910.67"/>
</g>
<!-- RIB&#45;&gt;DVC -->
<g id="edge32" class="edge">
<title>RIB&#45;&gt;DVC</title>
<path fill="none" stroke="gray" stroke-width="0.2" d="M360.29,-824.23C347.73,-836.9 326.12,-854.12 302.73,-870.92"/>
<polygon fill="gray" stroke="gray" stroke-width="0.2" points="300.77,-868.02 294.64,-876.66 304.82,-873.73 300.77,-868.02"/>
</g>
<!-- RIG&#45;&gt;DVC -->
<g id="edge33" class="edge">
<title>RIG&#45;&gt;DVC</title>
<path fill="none" stroke="gray" stroke-width="2" d="M367.24,-667.9C359,-688.1 342,-710.5 342,-710.5 342,-710.5 305.59,-770.84 269.52,-827.87"/>
<polygon fill="gray" stroke="gray" stroke-width="2" points="266.58,-825.96 264.18,-836.28 272.49,-829.71 266.58,-825.96"/>
</g>
<!-- RMF&#45;&gt;DVC -->
<g id="edge34" class="edge">
<title>RMF&#45;&gt;DVC</title>
<path fill="none" stroke="gray" stroke-width="0.2" d="M367.24,-351.9C359,-372.1 342,-394.5 342,-394.5 342,-394.5 274.27,-656.43 232.03,-812.75"/>
<polygon fill="gray" stroke="gray" stroke-width="0.2" points="228.73,-811.57 229.49,-822.13 235.48,-813.4 228.73,-811.57"/>
</g>
<!-- URA&#45;&gt;DVC -->
<g id="edge35" class="edge">
<title>URA&#45;&gt;DVC</title>
<path fill="none" stroke="gray" stroke-width="0.2" d="M367.24,-114.9C359,-135.1 342,-157.5 342,-157.5 342,-157.5 262.83,-594.85 222.31,-809.88"/>
<polygon fill="gray" stroke="gray" stroke-width="0.2" points="218.88,-809.17 220.46,-819.65 225.76,-810.47 218.88,-809.17"/>
</g>
<!-- IL2 -->
<g id="node27" class="node">
<title>IL2</title>
<ellipse fill="none" stroke="black" cx="27" cy="-926" rx="27" ry="18"/>
<text text-anchor="middle" x="27" y="-920.58" font-family="Times New Roman,serif" font-size="14.00">IL2</text>
</g>
<!-- IL2&#45;&gt;DVC -->
<g id="edge36" class="edge">
<title>IL2&#45;&gt;DVC</title>
<path fill="none" stroke="gray" stroke-width="0.2" d="M54.41,-926C61.84,-926 70.43,-926 79.64,-926"/>
<polygon fill="gray" stroke="gray" stroke-width="0.2" points="79.55,-929.5 89.55,-926 79.55,-922.5 79.55,-929.5"/>
</g>
</g>
</svg>
