<?xml version="1.0" encoding="UTF-8" standalone="no"?>
<!DOCTYPE svg PUBLIC "-//W3C//DTD SVG 1.1//EN"
 "http://www.w3.org/Graphics/SVG/1.1/DTD/svg11.dtd">
<!-- Generated by graphviz version 11.0.0 (20240428.1522)
 -->
<!-- Pages: 1 -->
<svg width="419pt" height="1150pt"
 viewBox="0.00 0.00 419.42 1150.00" xmlns="http://www.w3.org/2000/svg" xmlns:xlink="http://www.w3.org/1999/xlink">
<g id="graph0" class="graph" transform="scale(1 1) rotate(0) translate(4 1146)">
<polygon fill="white" stroke="none" points="-4,4 -4,-1146 415.42,-1146 415.42,4 -4,4"/>
<!-- FLP -->
<g id="node1" class="node">
<title>FLP</title>
<ellipse fill="none" stroke="black" cx="207.21" cy="-571" rx="108" ry="108"/>
<text text-anchor="middle" x="207.21" y="-552" font-family="Times New Roman,serif" font-size="50.00">FLP</text>
</g>
<!-- FLP&#45;&gt;FLP -->
<g id="edge1" class="edge">
<title>FLP&#45;&gt;FLP</title>
<path fill="none" stroke="red" stroke-width="5" d="M174.87,-674.39C176.79,-701.51 187.57,-722 207.21,-722 222.78,-722 232.78,-709.12 237.21,-690.26"/>
<polygon fill="red" stroke="red" stroke-width="5" points="241.51,-691.09 238.63,-680.56 232.85,-689.82 241.51,-691.09"/>
</g>
<!-- ADA -->
<g id="node2" class="node">
<title>ADA</title>
<ellipse fill="none" stroke="black" cx="381.31" cy="-1124" rx="30.11" ry="18"/>
<text text-anchor="middle" x="381.31" y="-1118.58" font-family="Times New Roman,serif" font-size="14.00">ADA</text>
</g>
<!-- FLP&#45;&gt;ADA -->
<g id="edge2" class="edge">
<title>FLP&#45;&gt;ADA</title>
<path fill="none" stroke="red" stroke-width="0.2" d="M237.14,-675.02C278.93,-825.21 351.21,-1085 351.21,-1085 351.21,-1085 356.24,-1091.75 362.13,-1099.63"/>
<polygon fill="red" stroke="red" stroke-width="0.2" points="359.17,-1101.52 367.96,-1107.44 364.78,-1097.34 359.17,-1101.52"/>
</g>
<!-- ADE -->
<g id="node3" class="node">
<title>ADE</title>
<ellipse fill="none" stroke="black" cx="381.31" cy="-1045" rx="29.11" ry="18"/>
<text text-anchor="middle" x="381.31" y="-1039.58" font-family="Times New Roman,serif" font-size="14.00">ADE</text>
</g>
<!-- FLP&#45;&gt;ADE -->
<g id="edge3" class="edge">
<title>FLP&#45;&gt;ADE</title>
<path fill="none" stroke="red" stroke-width="5" d="M246.43,-671.99C288.79,-794.64 351.21,-984.5 351.21,-984.5 351.21,-984.5 361,-997.63 369.23,-1012.85"/>
<polygon fill="red" stroke="red" stroke-width="5" points="365.09,-1014.32 373.34,-1021.47 372.99,-1010.56 365.09,-1014.32"/>
</g>
<!-- AIB -->
<g id="node4" class="node">
<title>AIB</title>
<ellipse fill="none" stroke="black" cx="381.31" cy="-966" rx="27" ry="18"/>
<text text-anchor="middle" x="381.31" y="-960.58" font-family="Times New Roman,serif" font-size="14.00">AIB</text>
</g>
<!-- FLP&#45;&gt;AIB -->
<g id="edge4" class="edge">
<title>FLP&#45;&gt;AIB</title>
<path fill="none" stroke="red" stroke-width="5" d="M254.04,-668.79C295.87,-767.74 351.21,-905.5 351.21,-905.5 351.21,-905.5 361,-918.63 369.23,-933.85"/>
<polygon fill="red" stroke="red" stroke-width="5" points="365.09,-935.32 373.34,-942.47 372.99,-931.56 365.09,-935.32"/>
</g>
<!-- AVA -->
<g id="node5" class="node">
<title>AVA</title>
<ellipse fill="none" stroke="black" cx="381.31" cy="-887" rx="30.11" ry="18"/>
<text text-anchor="middle" x="381.31" y="-881.58" font-family="Times New Roman,serif" font-size="14.00">AVA</text>
</g>
<!-- FLP&#45;&gt;AVA -->
<g id="edge5" class="edge">
<title>FLP&#45;&gt;AVA</title>
<path fill="none" stroke="red" stroke-width="5" d="M257.62,-666.72C298.95,-746.78 351.21,-848 351.21,-848 351.21,-848 354.36,-852.23 358.6,-857.9"/>
<polygon fill="red" stroke="red" stroke-width="5" points="354.92,-860.29 364.41,-865.69 361.93,-855.06 354.92,-860.29"/>
</g>
<!-- AVB -->
<g id="node6" class="node">
<title>AVB</title>
<ellipse fill="none" stroke="black" cx="381.31" cy="-808" rx="29.61" ry="18"/>
<text text-anchor="middle" x="381.31" y="-802.58" font-family="Times New Roman,serif" font-size="14.00">AVB</text>
</g>
<!-- FLP&#45;&gt;AVB -->
<g id="edge6" class="edge">
<title>FLP&#45;&gt;AVB</title>
<path fill="none" stroke="red" stroke-width="5" d="M271.34,-658.42C309.65,-711.46 351.21,-769 351.21,-769 351.21,-769 354.36,-773.23 358.6,-778.9"/>
<polygon fill="red" stroke="red" stroke-width="5" points="354.92,-781.29 364.41,-786.69 361.93,-776.06 354.92,-781.29"/>
</g>
<!-- AVD -->
<g id="node7" class="node">
<title>AVD</title>
<ellipse fill="none" stroke="black" cx="381.31" cy="-729" rx="30.11" ry="18"/>
<text text-anchor="middle" x="381.31" y="-723.58" font-family="Times New Roman,serif" font-size="14.00">AVD</text>
</g>
<!-- FLP&#45;&gt;AVD -->
<g id="edge7" class="edge">
<title>FLP&#45;&gt;AVD</title>
<path fill="none" stroke="red" stroke-width="5" d="M287.46,-643.76C310.6,-665 334.4,-686.86 352.12,-703.12"/>
<polygon fill="red" stroke="red" stroke-width="5" points="348.92,-706.12 359.25,-709.66 354.84,-699.67 348.92,-706.12"/>
</g>
<!-- AVE -->
<g id="node8" class="node">
<title>AVE</title>
<ellipse fill="none" stroke="black" cx="381.31" cy="-650" rx="29.11" ry="18"/>
<text text-anchor="middle" x="381.31" y="-644.58" font-family="Times New Roman,serif" font-size="14.00">AVE</text>
</g>
<!-- FLP&#45;&gt;AVE -->
<g id="edge8" class="edge">
<title>FLP&#45;&gt;AVE</title>
<path fill="none" stroke="red" stroke-width="5" d="M305.82,-615.81C318.92,-621.82 331.66,-627.67 342.78,-632.77"/>
<polygon fill="red" stroke="red" stroke-width="5" points="340.73,-636.64 351.64,-636.84 344.38,-628.69 340.73,-636.64"/>
</g>
<!-- AVJ -->
<g id="node9" class="node">
<title>AVJ</title>
<ellipse fill="none" stroke="black" cx="381.31" cy="-571" rx="27.11" ry="18"/>
<text text-anchor="middle" x="381.31" y="-565.58" font-family="Times New Roman,serif" font-size="14.00">AVJ</text>
</g>
<!-- FLP&#45;&gt;AVJ -->
<g id="edge9" class="edge">
<title>FLP&#45;&gt;AVJ</title>
<path fill="none" stroke="gray" stroke-width="0.2" d="M314.26,-555.27C327,-555.78 339.11,-556.78 349.4,-558.28"/>
<polygon fill="gray" stroke="gray" stroke-width="0.2" points="348.67,-561.71 359.13,-559.97 349.87,-554.81 348.67,-561.71"/>
</g>
<!-- DVA -->
<g id="node10" class="node">
<title>DVA</title>
<ellipse fill="none" stroke="black" cx="381.31" cy="-492" rx="30.11" ry="18"/>
<text text-anchor="middle" x="381.31" y="-486.57" font-family="Times New Roman,serif" font-size="14.00">DVA</text>
</g>
<!-- FLP&#45;&gt;DVA -->
<g id="edge10" class="edge">
<title>FLP&#45;&gt;DVA</title>
<path fill="none" stroke="gray" stroke-width="2" d="M298.8,-513.31C312.86,-506.98 326.76,-501.3 338.99,-496.96"/>
<polygon fill="gray" stroke="gray" stroke-width="2" points="339.81,-500.38 348.2,-493.91 337.61,-493.73 339.81,-500.38"/>
</g>
<!-- PVC -->
<g id="node11" class="node">
<title>PVC</title>
<ellipse fill="none" stroke="black" cx="381.31" cy="-413" rx="29.11" ry="18"/>
<text text-anchor="middle" x="381.31" y="-407.57" font-family="Times New Roman,serif" font-size="14.00">PVC</text>
</g>
<!-- FLP&#45;&gt;PVC -->
<g id="edge11" class="edge">
<title>FLP&#45;&gt;PVC</title>
<path fill="none" stroke="red" stroke-width="0.2" d="M279.2,-489.92C303.4,-466.99 329.24,-444.3 348.74,-429.17"/>
<polygon fill="red" stroke="red" stroke-width="0.2" points="350.83,-431.98 356.71,-423.16 346.62,-426.39 350.83,-431.98"/>
</g>
<!-- PVP -->
<g id="node12" class="node">
<title>PVP</title>
<ellipse fill="none" stroke="black" cx="381.31" cy="-334" rx="28.11" ry="18"/>
<text text-anchor="middle" x="381.31" y="-328.57" font-family="Times New Roman,serif" font-size="14.00">PVP</text>
</g>
<!-- FLP&#45;&gt;PVP -->
<g id="edge12" class="edge">
<title>FLP&#45;&gt;PVP</title>
<path fill="none" stroke="gray" stroke-width="0.2" d="M271.34,-483.58C309.65,-430.54 351.21,-373 351.21,-373 351.21,-373 356.24,-366.25 362.13,-358.37"/>
<polygon fill="gray" stroke="gray" stroke-width="0.2" points="364.78,-360.66 367.96,-350.56 359.17,-356.48 364.78,-360.66"/>
</g>
<!-- RIH -->
<g id="node13" class="node">
<title>RIH</title>
<ellipse fill="none" stroke="black" cx="381.31" cy="-255" rx="27" ry="18"/>
<text text-anchor="middle" x="381.31" y="-249.57" font-family="Times New Roman,serif" font-size="14.00">RIH</text>
</g>
<!-- FLP&#45;&gt;RIH -->
<g id="edge13" class="edge">
<title>FLP&#45;&gt;RIH</title>
<path fill="none" stroke="gray" stroke-width="0.2" d="M257.62,-475.28C298.95,-395.22 351.21,-294 351.21,-294 351.21,-294 356.39,-287.06 362.38,-279.03"/>
<polygon fill="gray" stroke="gray" stroke-width="0.2" points="365.12,-281.21 368.29,-271.11 359.51,-277.03 365.12,-281.21"/>
</g>
<!-- RIS -->
<g id="node14" class="node">
<title>RIS</title>
<ellipse fill="none" stroke="black" cx="381.31" cy="-176" rx="27" ry="18"/>
<text text-anchor="middle" x="381.31" y="-170.57" font-family="Times New Roman,serif" font-size="14.00">RIS</text>
</g>
<!-- FLP&#45;&gt;RIS -->
<g id="edge14" class="edge">
<title>FLP&#45;&gt;RIS</title>
<path fill="none" stroke="gray" stroke-width="0.2" d="M248.42,-470.89C290.72,-365.59 351.21,-215 351.21,-215 351.21,-215 356.39,-208.06 362.38,-200.03"/>
<polygon fill="gray" stroke="gray" stroke-width="0.2" points="365.12,-202.21 368.29,-192.11 359.51,-198.03 365.12,-202.21"/>
</g>
<!-- SDQ -->
<g id="node15" class="node">
<title>SDQ</title>
<ellipse fill="none" stroke="black" cx="381.31" cy="-97" rx="29.61" ry="18"/>
<text text-anchor="middle" x="381.31" y="-91.58" font-family="Times New Roman,serif" font-size="14.00">SDQ</text>
</g>
<!-- FLP&#45;&gt;SDQ -->
<g id="edge15" class="edge">
<title>FLP&#45;&gt;SDQ</title>
<path fill="none" stroke="gray" stroke-width="0.2" d="M237.84,-466.97C275.22,-346.46 336.19,-160.27 352.85,-116.65"/>
<polygon fill="gray" stroke="gray" stroke-width="0.2" points="355.94,-118.3 356.7,-107.74 349.52,-115.53 355.94,-118.3"/>
</g>
<!-- VBn -->
<g id="node16" class="node">
<title>VBn</title>
<ellipse fill="none" stroke="black" cx="381.31" cy="-18" rx="27.61" ry="18"/>
<text text-anchor="middle" x="381.31" y="-12.57" font-family="Times New Roman,serif" font-size="14.00">VBn</text>
</g>
<!-- FLP&#45;&gt;VBn -->
<g id="edge16" class="edge">
<title>FLP&#45;&gt;VBn</title>
<path fill="none" stroke="gray" stroke-width="0.2" d="M237.14,-466.98C278.93,-316.79 351.21,-57 351.21,-57 351.21,-57 356.24,-50.25 362.13,-42.37"/>
<polygon fill="gray" stroke="gray" stroke-width="0.2" points="364.78,-44.66 367.96,-34.56 359.17,-40.48 364.78,-44.66"/>
</g>
<!-- ADE&#45;&gt;FLP -->
<g id="edge17" class="edge">
<title>ADE&#45;&gt;FLP</title>
<path fill="none" stroke="red" stroke-width="2" d="M357.1,-1034.87C353.64,-1030.76 351.21,-1027.5 351.21,-1027.5 351.21,-1027.5 283.85,-822.6 241.59,-687.1"/>
<polygon fill="red" stroke="red" stroke-width="2" points="245.05,-686.43 238.73,-677.92 238.36,-688.51 245.05,-686.43"/>
</g>
<!-- AIB&#45;&gt;FLP -->
<g id="edge18" class="edge">
<title>AIB&#45;&gt;FLP</title>
<path fill="none" stroke="gray" stroke-width="0.2" d="M357.96,-956.89C354.05,-952.31 351.21,-948.5 351.21,-948.5 351.21,-948.5 289.07,-793.8 246.71,-682.2"/>
<polygon fill="gray" stroke="gray" stroke-width="0.2" points="250.11,-681.29 243.3,-673.18 243.56,-683.77 250.11,-681.29"/>
</g>
<!-- AVJ&#45;&gt;FLP -->
<g id="edge19" class="edge">
<title>AVJ&#45;&gt;FLP</title>
<path fill="none" stroke="gray" stroke-width="0.2" d="M359.42,-581.98C349.79,-583.98 337.53,-585.39 324.17,-586.23"/>
<polygon fill="gray" stroke="gray" stroke-width="0.2" points="324.37,-582.71 314.57,-586.72 324.73,-589.7 324.37,-582.71"/>
</g>
<!-- DVA&#45;&gt;FLP -->
<g id="edge20" class="edge">
<title>DVA&#45;&gt;FLP</title>
<path fill="none" stroke="gray" stroke-width="0.2" d="M366.05,-507.94C354.91,-516.14 338.28,-525.8 319.93,-535.18"/>
<polygon fill="gray" stroke="gray" stroke-width="0.2" points="318.45,-532.01 311.08,-539.63 321.58,-538.27 318.45,-532.01"/>
</g>
<!-- PVC&#45;&gt;FLP -->
<g id="edge21" class="edge">
<title>PVC&#45;&gt;FLP</title>
<path fill="none" stroke="gray" stroke-width="0.2" d="M370.43,-430.1C356.61,-447.7 330.1,-474.72 302.45,-500.54"/>
<polygon fill="gray" stroke="gray" stroke-width="0.2" points="300.19,-497.86 295.24,-507.22 304.95,-502.99 300.19,-497.86"/>
</g>
<!-- SDQ&#45;&gt;FLP -->
<g id="edge22" class="edge">
<title>SDQ&#45;&gt;FLP</title>
<path fill="none" stroke="red" stroke-width="2" d="M376.02,-114.9C367.92,-135.1 351.21,-157.5 351.21,-157.5 351.21,-157.5 292.75,-335.32 250.59,-457.96"/>
<polygon fill="red" stroke="red" stroke-width="2" points="247.37,-456.56 247.42,-467.15 253.99,-458.84 247.37,-456.56"/>
</g>
<!-- AQR -->
<g id="node17" class="node">
<title>AQR</title>
<ellipse fill="none" stroke="black" cx="31.6" cy="-690" rx="30.61" ry="18"/>
<text text-anchor="middle" x="31.6" y="-684.58" font-family="Times New Roman,serif" font-size="14.00">AQR</text>
</g>
<!-- AQR&#45;&gt;FLP -->
<g id="edge23" class="edge">
<title>AQR&#45;&gt;FLP</title>
<path fill="none" stroke="gray" stroke-width="0.2" d="M52.52,-676.35C66.97,-666.44 87.7,-652.23 109.27,-637.44"/>
<polygon fill="gray" stroke="gray" stroke-width="0.2" points="111.05,-640.47 117.32,-631.93 107.1,-634.69 111.05,-640.47"/>
</g>
<!-- AVM -->
<g id="node18" class="node">
<title>AVM</title>
<ellipse fill="none" stroke="black" cx="31.6" cy="-611" rx="31.6" ry="18"/>
<text text-anchor="middle" x="31.6" y="-605.58" font-family="Times New Roman,serif" font-size="14.00">AVM</text>
</g>
<!-- AVM&#45;&gt;FLP -->
<g id="edge24" class="edge">
<title>AVM&#45;&gt;FLP</title>
<path fill="none" stroke="gray" stroke-width="0.2" d="M61.27,-604.39C70.21,-602.34 80.67,-599.93 91.81,-597.36"/>
<polygon fill="gray" stroke="gray" stroke-width="0.2" points="92.49,-600.79 101.45,-595.14 90.92,-593.97 92.49,-600.79"/>
</g>
<!-- DVC -->
<g id="node19" class="node">
<title>DVC</title>
<ellipse fill="none" stroke="black" cx="31.6" cy="-532" rx="30.11" ry="18"/>
<text text-anchor="middle" x="31.6" y="-526.58" font-family="Times New Roman,serif" font-size="14.00">DVC</text>
</g>
<!-- DVC&#45;&gt;FLP -->
<g id="edge25" class="edge">
<title>DVC&#45;&gt;FLP</title>
<path fill="none" stroke="gray" stroke-width="0.2" d="M60.11,-538.18C69.22,-540.23 80.01,-542.65 91.52,-545.24"/>
<polygon fill="gray" stroke="gray" stroke-width="0.2" points="90.53,-548.6 101.05,-547.38 92.06,-541.77 90.53,-548.6"/>
</g>
<!-- RID -->
<g id="node20" class="node">
<title>RID</title>
<ellipse fill="none" stroke="black" cx="31.6" cy="-453" rx="27" ry="18"/>
<text text-anchor="middle" x="31.6" y="-447.57" font-family="Times New Roman,serif" font-size="14.00">RID</text>
</g>
<!-- RID&#45;&gt;FLP -->
<g id="edge26" class="edge">
<title>RID&#45;&gt;FLP</title>
<path fill="none" stroke="gray" stroke-width="0.2" d="M51.18,-465.63C65.61,-475.43 86.83,-489.86 108.96,-504.9"/>
<polygon fill="gray" stroke="gray" stroke-width="0.2" points="106.99,-507.8 117.23,-510.52 110.93,-502.01 106.99,-507.8"/>
</g>
</g>
</svg>
