<?xml version="1.0" encoding="UTF-8" standalone="no"?>
<!DOCTYPE svg PUBLIC "-//W3C//DTD SVG 1.1//EN"
 "http://www.w3.org/Graphics/SVG/1.1/DTD/svg11.dtd">
<!-- Generated by graphviz version 11.0.0 (20240428.1522)
 -->
<!-- Pages: 1 -->
<svg width="426pt" height="2730pt"
 viewBox="0.00 0.00 426.40 2730.00" xmlns="http://www.w3.org/2000/svg" xmlns:xlink="http://www.w3.org/1999/xlink">
<g id="graph0" class="graph" transform="scale(1 1) rotate(0) translate(4 2726)">
<polygon fill="white" stroke="none" points="-4,4 -4,-2726 422.4,-2726 422.4,4 -4,4"/>
<!-- HSN -->
<g id="node1" class="node">
<title>HSN</title>
<ellipse fill="none" stroke="black" cx="209.2" cy="-1400" rx="108" ry="108"/>
<text text-anchor="middle" x="209.2" y="-1381" font-family="Times New Roman,serif" font-size="50.00">HSN</text>
</g>
<!-- HSN&#45;&gt;HSN -->
<g id="edge1" class="edge">
<title>HSN&#45;&gt;HSN</title>
<path fill="none" stroke="gray" stroke-width="0.2" d="M176.41,-1503.39C178.35,-1530.51 189.28,-1551 209.2,-1551 226.55,-1551 237.09,-1535.45 240.8,-1513.52"/>
<polygon fill="gray" stroke="gray" stroke-width="0.2" points="244.26,-1514.04 241.96,-1503.69 237.31,-1513.21 244.26,-1514.04"/>
</g>
<!-- ADA -->
<g id="node2" class="node">
<title>ADA</title>
<ellipse fill="none" stroke="black" cx="385.8" cy="-2704" rx="30.11" ry="18"/>
<text text-anchor="middle" x="385.8" y="-2698.57" font-family="Times New Roman,serif" font-size="14.00">ADA</text>
</g>
<!-- HSN&#45;&gt;ADA -->
<g id="edge2" class="edge">
<title>HSN&#45;&gt;ADA</title>
<path fill="none" stroke="gray" stroke-width="2" d="M222.36,-1507.58C256.92,-1813.26 353.2,-2665 353.2,-2665 353.2,-2665 357.8,-2670.67 363.48,-2677.69"/>
<polygon fill="gray" stroke="gray" stroke-width="2" points="360.66,-2679.77 369.68,-2685.33 366.1,-2675.36 360.66,-2679.77"/>
</g>
<!-- ADL -->
<g id="node3" class="node">
<title>ADL</title>
<ellipse fill="none" stroke="black" cx="385.8" cy="-2625" rx="29.11" ry="18"/>
<text text-anchor="middle" x="385.8" y="-2619.57" font-family="Times New Roman,serif" font-size="14.00">ADL</text>
</g>
<!-- HSN&#45;&gt;ADL -->
<g id="edge3" class="edge">
<title>HSN&#45;&gt;ADL</title>
<path fill="none" stroke="gray" stroke-width="5" d="M224.37,-1507.23C260.49,-1795.61 353.2,-2564.5 353.2,-2564.5 353.2,-2564.5 363.84,-2577.63 372.77,-2592.85"/>
<polygon fill="gray" stroke="gray" stroke-width="5" points="368.8,-2594.69 377.28,-2601.56 376.57,-2590.67 368.8,-2594.69"/>
</g>
<!-- AIA -->
<g id="node4" class="node">
<title>AIA</title>
<ellipse fill="none" stroke="black" cx="385.8" cy="-2546" rx="27" ry="18"/>
<text text-anchor="middle" x="385.8" y="-2540.57" font-family="Times New Roman,serif" font-size="14.00">AIA</text>
</g>
<!-- HSN&#45;&gt;AIA -->
<g id="edge4" class="edge">
<title>HSN&#45;&gt;AIA</title>
<path fill="none" stroke="gray" stroke-width="2" d="M225.4,-1507.09C262.23,-1781.25 353.2,-2485.5 353.2,-2485.5 353.2,-2485.5 365.18,-2500.29 374.39,-2516.67"/>
<polygon fill="gray" stroke="gray" stroke-width="2" points="371.16,-2518.04 378.78,-2525.4 377.41,-2514.89 371.16,-2518.04"/>
</g>
<!-- AIB -->
<g id="node5" class="node">
<title>AIB</title>
<ellipse fill="none" stroke="black" cx="385.8" cy="-2467" rx="27" ry="18"/>
<text text-anchor="middle" x="385.8" y="-2461.57" font-family="Times New Roman,serif" font-size="14.00">AIB</text>
</g>
<!-- HSN&#45;&gt;AIB -->
<g id="edge5" class="edge">
<title>HSN&#45;&gt;AIB</title>
<path fill="none" stroke="gray" stroke-width="5" d="M225.1,-1507.1C261.73,-1770.4 353.2,-2428 353.2,-2428 353.2,-2428 356.92,-2432.58 361.8,-2438.61"/>
<polygon fill="gray" stroke="gray" stroke-width="5" points="358.33,-2441.28 368.02,-2446.29 365.13,-2435.77 358.33,-2441.28"/>
</g>
<!-- AIM -->
<g id="node6" class="node">
<title>AIM</title>
<ellipse fill="none" stroke="black" cx="385.8" cy="-2388" rx="28.11" ry="18"/>
<text text-anchor="middle" x="385.8" y="-2382.57" font-family="Times New Roman,serif" font-size="14.00">AIM</text>
</g>
<!-- HSN&#45;&gt;AIM -->
<g id="edge6" class="edge">
<title>HSN&#45;&gt;AIM</title>
<path fill="none" stroke="gray" stroke-width="0.2" d="M227.95,-1506.49C266.25,-1750.45 353.2,-2327.5 353.2,-2327.5 353.2,-2327.5 366.36,-2343.74 375.7,-2361.04"/>
<polygon fill="gray" stroke="gray" stroke-width="0.2" points="372.46,-2362.39 380.01,-2369.83 378.75,-2359.31 372.46,-2362.39"/>
</g>
<!-- AIZ -->
<g id="node7" class="node">
<title>AIZ</title>
<ellipse fill="none" stroke="black" cx="385.8" cy="-2309" rx="27" ry="18"/>
<text text-anchor="middle" x="385.8" y="-2303.57" font-family="Times New Roman,serif" font-size="14.00">AIZ</text>
</g>
<!-- HSN&#45;&gt;AIZ -->
<g id="edge7" class="edge">
<title>HSN&#45;&gt;AIZ</title>
<path fill="none" stroke="gray" stroke-width="5" d="M227.74,-1506.68C265.92,-1738.99 353.2,-2270 353.2,-2270 353.2,-2270 356.92,-2274.58 361.8,-2280.61"/>
<polygon fill="gray" stroke="gray" stroke-width="5" points="358.33,-2283.28 368.02,-2288.29 365.13,-2277.77 358.33,-2283.28"/>
</g>
<!-- ALM -->
<g id="node8" class="node">
<title>ALM</title>
<ellipse fill="none" stroke="black" cx="385.8" cy="-2230" rx="30.61" ry="18"/>
<text text-anchor="middle" x="385.8" y="-2224.57" font-family="Times New Roman,serif" font-size="14.00">ALM</text>
</g>
<!-- HSN&#45;&gt;ALM -->
<g id="edge8" class="edge">
<title>HSN&#45;&gt;ALM</title>
<path fill="none" stroke="gray" stroke-width="0.2" d="M229.41,-1506.27C268.41,-1721.99 353.2,-2191 353.2,-2191 353.2,-2191 358.9,-2198.03 365.46,-2206.13"/>
<polygon fill="gray" stroke="gray" stroke-width="0.2" points="362.38,-2207.89 371.39,-2213.45 367.82,-2203.48 362.38,-2207.89"/>
</g>
<!-- AQR -->
<g id="node9" class="node">
<title>AQR</title>
<ellipse fill="none" stroke="black" cx="385.8" cy="-2151" rx="30.61" ry="18"/>
<text text-anchor="middle" x="385.8" y="-2145.57" font-family="Times New Roman,serif" font-size="14.00">AQR</text>
</g>
<!-- HSN&#45;&gt;AQR -->
<g id="edge9" class="edge">
<title>HSN&#45;&gt;AQR</title>
<path fill="none" stroke="gray" stroke-width="0.2" d="M231.46,-1505.82C271.29,-1704.17 353.2,-2112 353.2,-2112 353.2,-2112 358.9,-2119.03 365.46,-2127.13"/>
<polygon fill="gray" stroke="gray" stroke-width="0.2" points="362.38,-2128.89 371.39,-2134.45 367.82,-2124.48 362.38,-2128.89"/>
</g>
<!-- ASE -->
<g id="node10" class="node">
<title>ASE</title>
<ellipse fill="none" stroke="black" cx="385.8" cy="-2072" rx="28.11" ry="18"/>
<text text-anchor="middle" x="385.8" y="-2066.57" font-family="Times New Roman,serif" font-size="14.00">ASE</text>
</g>
<!-- HSN&#45;&gt;ASE -->
<g id="edge10" class="edge">
<title>HSN&#45;&gt;ASE</title>
<path fill="none" stroke="gray" stroke-width="0.2" d="M236.85,-1504.61C278.22,-1679.59 353.2,-2011.5 353.2,-2011.5 353.2,-2011.5 366.36,-2027.74 375.7,-2045.04"/>
<polygon fill="gray" stroke="gray" stroke-width="0.2" points="372.46,-2046.39 380.01,-2053.83 378.75,-2043.31 372.46,-2046.39"/>
</g>
<!-- ASH -->
<g id="node11" class="node">
<title>ASH</title>
<ellipse fill="none" stroke="black" cx="385.8" cy="-1993" rx="29.11" ry="18"/>
<text text-anchor="middle" x="385.8" y="-1987.58" font-family="Times New Roman,serif" font-size="14.00">ASH</text>
</g>
<!-- HSN&#45;&gt;ASH -->
<g id="edge11" class="edge">
<title>HSN&#45;&gt;ASH</title>
<path fill="none" stroke="red" stroke-width="5" d="M240.62,-1503.79C282.6,-1658.99 353.2,-1932.5 353.2,-1932.5 353.2,-1932.5 363.84,-1945.63 372.77,-1960.85"/>
<polygon fill="red" stroke="red" stroke-width="5" points="368.8,-1962.69 377.28,-1969.56 376.57,-1958.67 368.8,-1962.69"/>
</g>
<!-- ASI -->
<g id="node12" class="node">
<title>ASI</title>
<ellipse fill="none" stroke="black" cx="385.8" cy="-1914" rx="27" ry="18"/>
<text text-anchor="middle" x="385.8" y="-1908.58" font-family="Times New Roman,serif" font-size="14.00">ASI</text>
</g>
<!-- HSN&#45;&gt;ASI -->
<g id="edge12" class="edge">
<title>HSN&#45;&gt;ASI</title>
<path fill="none" stroke="gray" stroke-width="0.2" d="M245.46,-1502.26C287.8,-1636.26 353.2,-1853.5 353.2,-1853.5 353.2,-1853.5 366.36,-1869.74 375.7,-1887.04"/>
<polygon fill="gray" stroke="gray" stroke-width="0.2" points="372.46,-1888.39 380.01,-1895.83 378.75,-1885.31 372.46,-1888.39"/>
</g>
<!-- ASJ -->
<g id="node13" class="node">
<title>ASJ</title>
<ellipse fill="none" stroke="black" cx="385.8" cy="-1835" rx="27" ry="18"/>
<text text-anchor="middle" x="385.8" y="-1829.58" font-family="Times New Roman,serif" font-size="14.00">ASJ</text>
</g>
<!-- HSN&#45;&gt;ASJ -->
<g id="edge13" class="edge">
<title>HSN&#45;&gt;ASJ</title>
<path fill="none" stroke="gray" stroke-width="0.2" d="M251.85,-1499.56C294.07,-1610.74 353.2,-1774.5 353.2,-1774.5 353.2,-1774.5 366.36,-1790.74 375.7,-1808.04"/>
<polygon fill="gray" stroke="gray" stroke-width="0.2" points="372.46,-1809.39 380.01,-1816.83 378.75,-1806.31 372.46,-1809.39"/>
</g>
<!-- ASK -->
<g id="node14" class="node">
<title>ASK</title>
<ellipse fill="none" stroke="black" cx="385.8" cy="-1756" rx="29.11" ry="18"/>
<text text-anchor="middle" x="385.8" y="-1750.58" font-family="Times New Roman,serif" font-size="14.00">ASK</text>
</g>
<!-- HSN&#45;&gt;ASK -->
<g id="edge14" class="edge">
<title>HSN&#45;&gt;ASK</title>
<path fill="none" stroke="gray" stroke-width="2" d="M260.82,-1495.32C301.96,-1581.9 353.2,-1695.5 353.2,-1695.5 353.2,-1695.5 365.18,-1710.29 374.39,-1726.67"/>
<polygon fill="gray" stroke="gray" stroke-width="2" points="371.16,-1728.04 378.78,-1735.4 377.41,-1724.89 371.16,-1728.04"/>
</g>
<!-- AVA -->
<g id="node15" class="node">
<title>AVA</title>
<ellipse fill="none" stroke="black" cx="385.8" cy="-1677" rx="30.11" ry="18"/>
<text text-anchor="middle" x="385.8" y="-1671.58" font-family="Times New Roman,serif" font-size="14.00">AVA</text>
</g>
<!-- HSN&#45;&gt;AVA -->
<g id="edge15" class="edge">
<title>HSN&#45;&gt;AVA</title>
<path fill="none" stroke="gray" stroke-width="0.2" d="M265.69,-1492.36C305.89,-1559.26 353.2,-1638 353.2,-1638 353.2,-1638 358.9,-1645.03 365.46,-1653.13"/>
<polygon fill="gray" stroke="gray" stroke-width="0.2" points="362.38,-1654.89 371.39,-1660.45 367.82,-1650.48 362.38,-1654.89"/>
</g>
<!-- AVB -->
<g id="node16" class="node">
<title>AVB</title>
<ellipse fill="none" stroke="black" cx="385.8" cy="-1598" rx="29.61" ry="18"/>
<text text-anchor="middle" x="385.8" y="-1592.58" font-family="Times New Roman,serif" font-size="14.00">AVB</text>
</g>
<!-- HSN&#45;&gt;AVB -->
<g id="edge16" class="edge">
<title>HSN&#45;&gt;AVB</title>
<path fill="none" stroke="gray" stroke-width="2" d="M281.47,-1480.82C310.42,-1513.65 341.8,-1549.23 362.29,-1572.47"/>
<polygon fill="gray" stroke="gray" stroke-width="2" points="359.65,-1574.77 368.89,-1579.95 364.9,-1570.14 359.65,-1574.77"/>
</g>
<!-- AVD -->
<g id="node17" class="node">
<title>AVD</title>
<ellipse fill="none" stroke="black" cx="385.8" cy="-1519" rx="30.11" ry="18"/>
<text text-anchor="middle" x="385.8" y="-1513.58" font-family="Times New Roman,serif" font-size="14.00">AVD</text>
</g>
<!-- HSN&#45;&gt;AVD -->
<g id="edge17" class="edge">
<title>HSN&#45;&gt;AVD</title>
<path fill="none" stroke="gray" stroke-width="2" d="M299.04,-1460.55C319.1,-1474.22 339.06,-1487.82 354.67,-1498.46"/>
<polygon fill="gray" stroke="gray" stroke-width="2" points="352.47,-1501.2 362.7,-1503.94 356.41,-1495.41 352.47,-1501.2"/>
</g>
<!-- AVF -->
<g id="node18" class="node">
<title>AVF</title>
<ellipse fill="none" stroke="black" cx="385.8" cy="-1440" rx="29.11" ry="18"/>
<text text-anchor="middle" x="385.8" y="-1434.58" font-family="Times New Roman,serif" font-size="14.00">AVF</text>
</g>
<!-- HSN&#45;&gt;AVF -->
<g id="edge18" class="edge">
<title>HSN&#45;&gt;AVF</title>
<path fill="none" stroke="gray" stroke-width="2" d="M317.3,-1408.78C331.2,-1412.5 344.39,-1416.63 355.37,-1420.82"/>
<polygon fill="gray" stroke="gray" stroke-width="2" points="353.77,-1423.95 364.35,-1424.58 356.48,-1417.49 353.77,-1423.95"/>
</g>
<!-- AVH -->
<g id="node19" class="node">
<title>AVH</title>
<ellipse fill="none" stroke="black" cx="385.8" cy="-1361" rx="30.11" ry="18"/>
<text text-anchor="middle" x="385.8" y="-1355.58" font-family="Times New Roman,serif" font-size="14.00">AVH</text>
</g>
<!-- HSN&#45;&gt;AVH -->
<g id="edge19" class="edge">
<title>HSN&#45;&gt;AVH</title>
<path fill="none" stroke="red" stroke-width="2" d="M315.04,-1376.58C325.46,-1374.26 335.52,-1372.01 344.62,-1369.98"/>
<polygon fill="red" stroke="red" stroke-width="2" points="345.22,-1373.43 354.21,-1367.83 343.69,-1366.6 345.22,-1373.43"/>
</g>
<!-- AVJ -->
<g id="node20" class="node">
<title>AVJ</title>
<ellipse fill="none" stroke="black" cx="385.8" cy="-1282" rx="27.11" ry="18"/>
<text text-anchor="middle" x="385.8" y="-1276.58" font-family="Times New Roman,serif" font-size="14.00">AVJ</text>
</g>
<!-- HSN&#45;&gt;AVJ -->
<g id="edge20" class="edge">
<title>HSN&#45;&gt;AVJ</title>
<path fill="none" stroke="gray" stroke-width="2" d="M299.29,-1339.79C319.59,-1326.07 339.76,-1312.44 355.4,-1301.87"/>
<polygon fill="gray" stroke="gray" stroke-width="2" points="357.1,-1304.95 363.43,-1296.45 353.18,-1299.15 357.1,-1304.95"/>
</g>
<!-- AVM -->
<g id="node21" class="node">
<title>AVM</title>
<ellipse fill="none" stroke="black" cx="385.8" cy="-1203" rx="31.6" ry="18"/>
<text text-anchor="middle" x="385.8" y="-1197.58" font-family="Times New Roman,serif" font-size="14.00">AVM</text>
</g>
<!-- HSN&#45;&gt;AVM -->
<g id="edge21" class="edge">
<title>HSN&#45;&gt;AVM</title>
<path fill="none" stroke="gray" stroke-width="0.2" d="M281.72,-1319.3C311.38,-1285.85 343.54,-1249.55 363.92,-1226.57"/>
<polygon fill="gray" stroke="gray" stroke-width="0.2" points="366.39,-1229.05 370.41,-1219.24 361.15,-1224.41 366.39,-1229.05"/>
</g>
<!-- AWA -->
<g id="node22" class="node">
<title>AWA</title>
<ellipse fill="none" stroke="black" cx="385.8" cy="-1124" rx="32.6" ry="18"/>
<text text-anchor="middle" x="385.8" y="-1118.58" font-family="Times New Roman,serif" font-size="14.00">AWA</text>
</g>
<!-- HSN&#45;&gt;AWA -->
<g id="edge22" class="edge">
<title>HSN&#45;&gt;AWA</title>
<path fill="none" stroke="gray" stroke-width="2" d="M258.42,-1303.48C292.63,-1242.74 334.84,-1172.09 351.86,-1145.37"/>
<polygon fill="gray" stroke="gray" stroke-width="2" points="354.62,-1147.54 357.31,-1137.3 348.81,-1143.63 354.62,-1147.54"/>
</g>
<!-- AWB -->
<g id="node23" class="node">
<title>AWB</title>
<ellipse fill="none" stroke="black" cx="385.8" cy="-1045" rx="32.1" ry="18"/>
<text text-anchor="middle" x="385.8" y="-1039.58" font-family="Times New Roman,serif" font-size="14.00">AWB</text>
</g>
<!-- HSN&#45;&gt;AWB -->
<g id="edge23" class="edge">
<title>HSN&#45;&gt;AWB</title>
<path fill="none" stroke="gray" stroke-width="5" d="M248.9,-1299.12C284.05,-1216.34 332.71,-1107.95 351.72,-1069.48"/>
<polygon fill="gray" stroke="gray" stroke-width="5" points="355.43,-1071.82 356.33,-1060.95 347.73,-1067.66 355.43,-1071.82"/>
</g>
<!-- BDU -->
<g id="node24" class="node">
<title>BDU</title>
<ellipse fill="none" stroke="black" cx="385.8" cy="-966" rx="29.61" ry="18"/>
<text text-anchor="middle" x="385.8" y="-960.58" font-family="Times New Roman,serif" font-size="14.00">BDU</text>
</g>
<!-- HSN&#45;&gt;BDU -->
<g id="edge24" class="edge">
<title>HSN&#45;&gt;BDU</title>
<path fill="none" stroke="red" stroke-width="2" d="M242.38,-1296.76C279.12,-1189.06 335.94,-1031.29 354.62,-987.09"/>
<polygon fill="red" stroke="red" stroke-width="2" points="357.72,-988.71 358.9,-978.18 351.41,-985.68 357.72,-988.71"/>
</g>
<!-- PLN -->
<g id="node25" class="node">
<title>PLN</title>
<ellipse fill="none" stroke="black" cx="385.8" cy="-887" rx="28.11" ry="18"/>
<text text-anchor="middle" x="385.8" y="-881.58" font-family="Times New Roman,serif" font-size="14.00">PLN</text>
</g>
<!-- HSN&#45;&gt;PLN -->
<g id="edge25" class="edge">
<title>HSN&#45;&gt;PLN</title>
<path fill="none" stroke="gray" stroke-width="0.2" d="M241.41,-1296.56C283.48,-1157.09 353.2,-926 353.2,-926 353.2,-926 358.94,-918.91 365.53,-910.78"/>
<polygon fill="gray" stroke="gray" stroke-width="0.2" points="368.18,-913.07 371.76,-903.1 362.74,-908.66 368.18,-913.07"/>
</g>
<!-- PVN -->
<g id="node26" class="node">
<title>PVN</title>
<ellipse fill="none" stroke="black" cx="385.8" cy="-808" rx="29.11" ry="18"/>
<text text-anchor="middle" x="385.8" y="-802.58" font-family="Times New Roman,serif" font-size="14.00">PVN</text>
</g>
<!-- HSN&#45;&gt;PVN -->
<g id="edge26" class="edge">
<title>HSN&#45;&gt;PVN</title>
<path fill="none" stroke="red" stroke-width="2" d="M234.14,-1294.66C270.55,-1146.04 337.09,-887.89 355.97,-829.09"/>
<polygon fill="red" stroke="red" stroke-width="2" points="359.17,-830.53 359.45,-819.94 352.62,-828.04 359.17,-830.53"/>
</g>
<!-- PVQ -->
<g id="node27" class="node">
<title>PVQ</title>
<ellipse fill="none" stroke="black" cx="385.8" cy="-729" rx="29.61" ry="18"/>
<text text-anchor="middle" x="385.8" y="-723.58" font-family="Times New Roman,serif" font-size="14.00">PVQ</text>
</g>
<!-- HSN&#45;&gt;PVQ -->
<g id="edge27" class="edge">
<title>HSN&#45;&gt;PVQ</title>
<path fill="none" stroke="gray" stroke-width="2" d="M231.46,-1293.89C267.4,-1126.61 337.61,-815.52 356.13,-750.44"/>
<polygon fill="gray" stroke="gray" stroke-width="2" points="359.32,-751.91 359.24,-741.32 352.7,-749.65 359.32,-751.91"/>
</g>
<!-- RIF -->
<g id="node28" class="node">
<title>RIF</title>
<ellipse fill="none" stroke="black" cx="385.8" cy="-650" rx="27" ry="18"/>
<text text-anchor="middle" x="385.8" y="-644.58" font-family="Times New Roman,serif" font-size="14.00">RIF</text>
</g>
<!-- HSN&#45;&gt;RIF -->
<g id="edge28" class="edge">
<title>HSN&#45;&gt;RIF</title>
<path fill="none" stroke="gray" stroke-width="nan" d="M229.27,-1293.57C268.2,-1090.14 353.2,-667.5 353.2,-667.5 353.2,-667.5 356.77,-663.1 361.5,-658.07"/>
<polygon fill="gray" stroke="gray" stroke-width="nan" points="nan,-nan nan,-nan nan,-nan nan,-nan"/>
</g>
<!-- RIM -->
<g id="node29" class="node">
<title>RIM</title>
<ellipse fill="none" stroke="black" cx="385.8" cy="-571" rx="28.11" ry="18"/>
<text text-anchor="middle" x="385.8" y="-565.58" font-family="Times New Roman,serif" font-size="14.00">RIM</text>
</g>
<!-- HSN&#45;&gt;RIM -->
<g id="edge29" class="edge">
<title>HSN&#45;&gt;RIM</title>
<path fill="none" stroke="gray" stroke-width="nan" d="M229.49,-1293.46C268.52,-1077.82 353.2,-610 353.2,-610 353.2,-610 363.2,-597.66 371.95,-586.86"/>
<polygon fill="gray" stroke="gray" stroke-width="nan" points="nan,-nan nan,-nan nan,-nan nan,-nan"/>
</g>
<!-- RIR -->
<g id="node30" class="node">
<title>RIR</title>
<ellipse fill="none" stroke="black" cx="385.8" cy="-492" rx="27" ry="18"/>
<text text-anchor="middle" x="385.8" y="-486.57" font-family="Times New Roman,serif" font-size="14.00">RIR</text>
</g>
<!-- HSN&#45;&gt;RIR -->
<g id="edge30" class="edge">
<title>HSN&#45;&gt;RIR</title>
<path fill="none" stroke="gray" stroke-width="0.2" d="M226.05,-1292.9C263.28,-1055.93 353.2,-509.5 353.2,-509.5 353.2,-509.5 353.79,-508.77 354.81,-507.57"/>
<polygon fill="gray" stroke="gray" stroke-width="0.2" points="357.26,-510.09 361.3,-500.29 352.03,-505.42 357.26,-510.09"/>
</g>
<!-- RMD -->
<g id="node31" class="node">
<title>RMD</title>
<ellipse fill="none" stroke="black" cx="385.8" cy="-413" rx="31.6" ry="18"/>
<text text-anchor="middle" x="385.8" y="-407.57" font-family="Times New Roman,serif" font-size="14.00">RMD</text>
</g>
<!-- HSN&#45;&gt;RMD -->
<g id="edge31" class="edge">
<title>HSN&#45;&gt;RMD</title>
<path fill="none" stroke="gray" stroke-width="nan" d="M226.33,-1293.1C263.73,-1045.17 353.2,-452 353.2,-452 353.2,-452 362.93,-440 371.58,-429.31"/>
<polygon fill="gray" stroke="gray" stroke-width="nan" points="nan,-nan nan,-nan nan,-nan nan,-nan"/>
</g>
<!-- RMG -->
<g id="node32" class="node">
<title>RMG</title>
<ellipse fill="none" stroke="black" cx="385.8" cy="-334" rx="32.1" ry="18"/>
<text text-anchor="middle" x="385.8" y="-328.57" font-family="Times New Roman,serif" font-size="14.00">RMG</text>
</g>
<!-- HSN&#45;&gt;RMG -->
<g id="edge32" class="edge">
<title>HSN&#45;&gt;RMG</title>
<path fill="none" stroke="gray" stroke-width="2" d="M223.72,-1292.85C256.69,-1045.52 339.42,-450.55 356.49,-356.9"/>
<polygon fill="gray" stroke="gray" stroke-width="2" points="359.85,-357.94 358.63,-347.41 353.02,-356.4 359.85,-357.94"/>
</g>
<!-- SIA -->
<g id="node33" class="node">
<title>SIA</title>
<ellipse fill="none" stroke="black" cx="385.8" cy="-255" rx="27" ry="18"/>
<text text-anchor="middle" x="385.8" y="-249.57" font-family="Times New Roman,serif" font-size="14.00">SIA</text>
</g>
<!-- HSN&#45;&gt;SIA -->
<g id="edge33" class="edge">
<title>HSN&#45;&gt;SIA</title>
<path fill="none" stroke="gray" stroke-width="0.2" d="M224.08,-1292.7C259.99,-1014.95 353.2,-294 353.2,-294 353.2,-294 358.94,-286.91 365.53,-278.78"/>
<polygon fill="gray" stroke="gray" stroke-width="0.2" points="368.18,-281.07 371.76,-271.1 362.74,-276.66 368.18,-281.07"/>
</g>
<!-- SIB -->
<g id="node34" class="node">
<title>SIB</title>
<ellipse fill="none" stroke="black" cx="385.8" cy="-176" rx="27" ry="18"/>
<text text-anchor="middle" x="385.8" y="-170.57" font-family="Times New Roman,serif" font-size="14.00">SIB</text>
</g>
<!-- HSN&#45;&gt;SIB -->
<g id="edge34" class="edge">
<title>HSN&#45;&gt;SIB</title>
<path fill="none" stroke="gray" stroke-width="0.2" d="M223.18,-1292.49C258.4,-1000.58 353.2,-215 353.2,-215 353.2,-215 358.94,-207.91 365.53,-199.78"/>
<polygon fill="gray" stroke="gray" stroke-width="0.2" points="368.18,-202.07 371.76,-192.1 362.74,-197.66 368.18,-202.07"/>
</g>
<!-- SMB -->
<g id="node35" class="node">
<title>SMB</title>
<ellipse fill="none" stroke="black" cx="385.8" cy="-97" rx="30.11" ry="18"/>
<text text-anchor="middle" x="385.8" y="-91.58" font-family="Times New Roman,serif" font-size="14.00">SMB</text>
</g>
<!-- HSN&#45;&gt;SMB -->
<g id="edge35" class="edge">
<title>HSN&#45;&gt;SMB</title>
<path fill="none" stroke="gray" stroke-width="0.2" d="M222.36,-1292.5C256.92,-987.07 353.2,-136 353.2,-136 353.2,-136 358.9,-128.97 365.46,-120.87"/>
<polygon fill="gray" stroke="gray" stroke-width="0.2" points="367.82,-123.52 371.39,-113.55 362.38,-119.11 367.82,-123.52"/>
</g>
<!-- URY -->
<g id="node36" class="node">
<title>URY</title>
<ellipse fill="none" stroke="black" cx="385.8" cy="-18" rx="30.11" ry="18"/>
<text text-anchor="middle" x="385.8" y="-12.57" font-family="Times New Roman,serif" font-size="14.00">URY</text>
</g>
<!-- HSN&#45;&gt;URY -->
<g id="edge36" class="edge">
<title>HSN&#45;&gt;URY</title>
<path fill="none" stroke="gray" stroke-width="0.2" d="M221.66,-1292.37C255.6,-973.68 353.2,-57 353.2,-57 353.2,-57 358.9,-49.97 365.46,-41.87"/>
<polygon fill="gray" stroke="gray" stroke-width="0.2" points="367.82,-44.52 371.39,-34.55 362.38,-40.11 367.82,-44.52"/>
</g>
<!-- ADL&#45;&gt;HSN -->
<g id="edge37" class="edge">
<title>ADL&#45;&gt;HSN</title>
<path fill="none" stroke="gray" stroke-width="2" d="M360.53,-2615.89C356.29,-2611.31 353.2,-2607.5 353.2,-2607.5 353.2,-2607.5 259.01,-1826.32 223.52,-1520.45"/>
<polygon fill="gray" stroke="gray" stroke-width="2" points="227,-1520.11 222.37,-1510.58 220.05,-1520.91 227,-1520.11"/>
</g>
<!-- AIA&#45;&gt;HSN -->
<g id="edge38" class="edge">
<title>AIA&#45;&gt;HSN</title>
<path fill="none" stroke="gray" stroke-width="0.2" d="M361.5,-2537.93C356.77,-2532.9 353.2,-2528.5 353.2,-2528.5 353.2,-2528.5 260,-1806.99 224.08,-1517.64"/>
<polygon fill="gray" stroke="gray" stroke-width="0.2" points="227.57,-1517.33 222.87,-1507.83 220.62,-1518.19 227.57,-1517.33"/>
</g>
<!-- AIM&#45;&gt;HSN -->
<g id="edge39" class="edge">
<title>AIM&#45;&gt;HSN</title>
<path fill="none" stroke="gray" stroke-width="0.2" d="M360.85,-2379.23C356.44,-2374.5 353.2,-2370.5 353.2,-2370.5 353.2,-2370.5 263.58,-1775.72 226.24,-1517.24"/>
<polygon fill="gray" stroke="gray" stroke-width="0.2" points="229.7,-1516.75 224.81,-1507.36 222.77,-1517.75 229.7,-1516.75"/>
</g>
<!-- ASE&#45;&gt;HSN -->
<g id="edge40" class="edge">
<title>ASE&#45;&gt;HSN</title>
<path fill="none" stroke="gray" stroke-width="0.2" d="M360.85,-2063.23C356.44,-2058.5 353.2,-2054.5 353.2,-2054.5 353.2,-2054.5 274.04,-1704.1 233.52,-1515.85"/>
<polygon fill="gray" stroke="gray" stroke-width="0.2" points="236.97,-1515.24 231.44,-1506.2 230.12,-1516.71 236.97,-1515.24"/>
</g>
<!-- ASH&#45;&gt;HSN -->
<g id="edge41" class="edge">
<title>ASH&#45;&gt;HSN</title>
<path fill="none" stroke="gray" stroke-width="5" d="M360.53,-1983.89C356.29,-1979.31 353.2,-1975.5 353.2,-1975.5 353.2,-1975.5 279.59,-1690.33 238,-1521.24"/>
<polygon fill="gray" stroke="gray" stroke-width="5" points="242.25,-1520.23 235.62,-1511.56 233.76,-1522.32 242.25,-1520.23"/>
</g>
<!-- ASI&#45;&gt;HSN -->
<g id="edge42" class="edge">
<title>ASI&#45;&gt;HSN</title>
<path fill="none" stroke="gray" stroke-width="2" d="M361.5,-1905.93C356.77,-1900.9 353.2,-1896.5 353.2,-1896.5 353.2,-1896.5 283.12,-1663.72 241.08,-1516.7"/>
<polygon fill="gray" stroke="gray" stroke-width="2" points="244.54,-1516.07 238.44,-1507.42 237.81,-1517.99 244.54,-1516.07"/>
</g>
<!-- ASJ&#45;&gt;HSN -->
<g id="edge43" class="edge">
<title>ASJ&#45;&gt;HSN</title>
<path fill="none" stroke="gray" stroke-width="5" d="M361.5,-1826.93C356.77,-1821.9 353.2,-1817.5 353.2,-1817.5 353.2,-1817.5 289.85,-1642.06 247.48,-1518.39"/>
<polygon fill="gray" stroke="gray" stroke-width="5" points="251.68,-1517.16 244.31,-1509.11 243.4,-1519.98 251.68,-1517.16"/>
</g>
<!-- ASK&#45;&gt;HSN -->
<g id="edge44" class="edge">
<title>ASK&#45;&gt;HSN</title>
<path fill="none" stroke="gray" stroke-width="0.2" d="M360.53,-1746.89C356.29,-1742.31 353.2,-1738.5 353.2,-1738.5 353.2,-1738.5 294.77,-1608.97 252.61,-1509.89"/>
<polygon fill="gray" stroke="gray" stroke-width="0.2" points="255.96,-1508.83 248.83,-1500.99 249.52,-1511.56 255.96,-1508.83"/>
</g>
<!-- AVF&#45;&gt;HSN -->
<g id="edge45" class="edge">
<title>AVF&#45;&gt;HSN</title>
<path fill="none" stroke="red" stroke-width="2" d="M357.82,-1445.86C347.8,-1445.23 335.71,-1443.61 322.82,-1441.31"/>
<polygon fill="red" stroke="red" stroke-width="2" points="323.7,-1437.91 313.22,-1439.46 322.38,-1444.79 323.7,-1437.91"/>
</g>
<!-- AWA&#45;&gt;HSN -->
<g id="edge46" class="edge">
<title>AWA&#45;&gt;HSN</title>
<path fill="none" stroke="gray" stroke-width="0.2" d="M380,-1142.21C371.16,-1162.33 353.2,-1184.5 353.2,-1184.5 353.2,-1184.5 315.73,-1246.61 279.14,-1304.36"/>
<polygon fill="gray" stroke="gray" stroke-width="0.2" points="276.33,-1302.26 273.92,-1312.58 282.24,-1306.02 276.33,-1302.26"/>
</g>
<!-- AWB&#45;&gt;HSN -->
<g id="edge47" class="edge">
<title>AWB&#45;&gt;HSN</title>
<path fill="none" stroke="gray" stroke-width="2" d="M380.14,-1062.9C371.35,-1083.1 353.2,-1105.5 353.2,-1105.5 353.2,-1105.5 306.36,-1209.01 266.3,-1293.51"/>
<polygon fill="gray" stroke="gray" stroke-width="2" points="263.25,-1291.77 262.12,-1302.3 269.57,-1294.77 263.25,-1291.77"/>
</g>
<!-- BDU&#45;&gt;HSN -->
<g id="edge48" class="edge">
<title>BDU&#45;&gt;HSN</title>
<path fill="none" stroke="red" stroke-width="2" d="M380.14,-983.9C371.35,-1004.1 353.2,-1026.5 353.2,-1026.5 353.2,-1026.5 298.24,-1178.33 256.46,-1288.6"/>
<polygon fill="red" stroke="red" stroke-width="2" points="253.3,-1287.06 253.02,-1297.65 259.84,-1289.55 253.3,-1287.06"/>
</g>
<!-- PVN&#45;&gt;HSN -->
<g id="edge49" class="edge">
<title>PVN&#45;&gt;HSN</title>
<path fill="none" stroke="gray" stroke-width="2" d="M380.14,-825.9C371.35,-846.1 353.2,-868.5 353.2,-868.5 353.2,-868.5 286.28,-1127.31 244,-1283.93"/>
<polygon fill="gray" stroke="gray" stroke-width="2" points="240.64,-1282.94 241.41,-1293.5 247.4,-1284.77 240.64,-1282.94"/>
</g>
<!-- PVQ&#45;&gt;HSN -->
<g id="edge50" class="edge">
<title>PVQ&#45;&gt;HSN</title>
<path fill="none" stroke="gray" stroke-width="5" d="M380.14,-746.9C371.35,-767.1 353.2,-789.5 353.2,-789.5 353.2,-789.5 282.64,-1101.34 240.65,-1279.47"/>
<polygon fill="gray" stroke="gray" stroke-width="5" points="236.41,-1278.41 238.37,-1289.15 244.92,-1280.42 236.41,-1278.41"/>
</g>
<!-- RIF&#45;&gt;HSN -->
<g id="edge51" class="edge">
<title>RIF&#45;&gt;HSN</title>
<path fill="none" stroke="red" stroke-width="2" d="M380.14,-667.9C371.35,-688.1 353.2,-710.5 353.2,-710.5 353.2,-710.5 277.98,-1084.51 236.65,-1281.81"/>
<polygon fill="red" stroke="red" stroke-width="2" points="233.23,-1281.07 234.6,-1291.58 240.08,-1282.51 233.23,-1281.07"/>
</g>
<!-- RIR&#45;&gt;HSN -->
<g id="edge52" class="edge">
<title>RIR&#45;&gt;HSN</title>
<path fill="none" stroke="gray" stroke-width="0.2" d="M380.14,-509.9C371.35,-530.1 353.2,-552.5 353.2,-552.5 353.2,-552.5 271.11,-1051.36 231.32,-1283.79"/>
<polygon fill="gray" stroke="gray" stroke-width="0.2" points="227.93,-1282.89 229.69,-1293.34 234.83,-1284.07 227.93,-1282.89"/>
</g>
<!-- RMG&#45;&gt;HSN -->
<g id="edge53" class="edge">
<title>RMG&#45;&gt;HSN</title>
<path fill="none" stroke="gray" stroke-width="0.2" d="M380.14,-351.9C371.35,-372.1 353.2,-394.5 353.2,-394.5 353.2,-394.5 266.41,-1017.8 228.06,-1283.07"/>
<polygon fill="gray" stroke="gray" stroke-width="0.2" points="224.62,-1282.43 226.65,-1292.83 231.55,-1283.43 224.62,-1282.43"/>
</g>
<!-- AIY -->
<g id="node37" class="node">
<title>AIY</title>
<ellipse fill="none" stroke="black" cx="32.6" cy="-1479" rx="27" ry="18"/>
<text text-anchor="middle" x="32.6" y="-1473.58" font-family="Times New Roman,serif" font-size="14.00">AIY</text>
</g>
<!-- AIY&#45;&gt;HSN -->
<g id="edge54" class="edge">
<title>AIY&#45;&gt;HSN</title>
<path fill="none" stroke="gray" stroke-width="0.2" d="M55.71,-1468.99C67.9,-1463.48 84.03,-1456.18 101.24,-1448.4"/>
<polygon fill="gray" stroke="gray" stroke-width="0.2" points="102.37,-1451.72 110.04,-1444.41 99.49,-1445.35 102.37,-1451.72"/>
</g>
<!-- AWC -->
<g id="node38" class="node">
<title>AWC</title>
<ellipse fill="none" stroke="black" cx="32.6" cy="-1400" rx="32.6" ry="18"/>
<text text-anchor="middle" x="32.6" y="-1394.58" font-family="Times New Roman,serif" font-size="14.00">AWC</text>
</g>
<!-- AWC&#45;&gt;HSN -->
<g id="edge55" class="edge">
<title>AWC&#45;&gt;HSN</title>
<path fill="none" stroke="gray" stroke-width="0.2" d="M65.63,-1400C73.14,-1400 81.57,-1400 90.5,-1400"/>
<polygon fill="gray" stroke="gray" stroke-width="0.2" points="90.45,-1403.5 100.45,-1400 90.45,-1396.5 90.45,-1403.5"/>
</g>
<!-- URX -->
<g id="node39" class="node">
<title>URX</title>
<ellipse fill="none" stroke="black" cx="32.6" cy="-1321" rx="30.11" ry="18"/>
<text text-anchor="middle" x="32.6" y="-1315.58" font-family="Times New Roman,serif" font-size="14.00">URX</text>
</g>
<!-- URX&#45;&gt;HSN -->
<g id="edge56" class="edge">
<title>URX&#45;&gt;HSN</title>
<path fill="none" stroke="gray" stroke-width="0.2" d="M57.15,-1331.65C69.16,-1337.09 84.72,-1344.13 101.28,-1351.62"/>
<polygon fill="gray" stroke="gray" stroke-width="0.2" points="99.73,-1354.76 110.28,-1355.7 102.62,-1348.38 99.73,-1354.76"/>
</g>
</g>
</svg>
