<?xml version="1.0" encoding="UTF-8" standalone="no"?>
<!DOCTYPE svg PUBLIC "-//W3C//DTD SVG 1.1//EN"
 "http://www.w3.org/Graphics/SVG/1.1/DTD/svg11.dtd">
<!-- Generated by graphviz version 11.0.0 (20240428.1522)
 -->
<!-- Pages: 1 -->
<svg width="425pt" height="1861pt"
 viewBox="0.00 0.00 425.41 1861.00" xmlns="http://www.w3.org/2000/svg" xmlns:xlink="http://www.w3.org/1999/xlink">
<g id="graph0" class="graph" transform="scale(1 1) rotate(0) translate(4 1857)">
<polygon fill="white" stroke="none" points="-4,4 -4,-1857 421.41,-1857 421.41,4 -4,4"/>
<!-- IL1 -->
<g id="node1" class="node">
<title>IL1</title>
<ellipse fill="none" stroke="black" cx="209.2" cy="-808" rx="108" ry="108"/>
<text text-anchor="middle" x="209.2" y="-789" font-family="Times New Roman,serif" font-size="50.00">IL1</text>
</g>
<!-- IL1&#45;&gt;IL1 -->
<g id="edge1" class="edge">
<title>IL1&#45;&gt;IL1</title>
<path fill="none" stroke="gray" stroke-width="5" d="M176.5,-911.39C178.44,-938.51 189.34,-959 209.2,-959 224.95,-959 235.07,-946.12 239.55,-927.26"/>
<polygon fill="gray" stroke="gray" stroke-width="5" points="243.85,-928.1 240.99,-917.56 235.19,-926.81 243.85,-928.1"/>
</g>
<!-- ADE -->
<g id="node2" class="node">
<title>ADE</title>
<ellipse fill="none" stroke="black" cx="385.3" cy="-1835" rx="29.11" ry="18"/>
<text text-anchor="middle" x="385.3" y="-1829.58" font-family="Times New Roman,serif" font-size="14.00">ADE</text>
</g>
<!-- IL1&#45;&gt;ADE -->
<g id="edge2" class="edge">
<title>IL1&#45;&gt;ADE</title>
<path fill="none" stroke="gray" stroke-width="0.2" d="M227.24,-914.59C265.16,-1166.18 353.2,-1774.5 353.2,-1774.5 353.2,-1774.5 366.15,-1790.74 375.34,-1808.04"/>
<polygon fill="gray" stroke="gray" stroke-width="0.2" points="372.09,-1809.34 379.58,-1816.83 378.39,-1806.3 372.09,-1809.34"/>
</g>
<!-- AIB -->
<g id="node3" class="node">
<title>AIB</title>
<ellipse fill="none" stroke="black" cx="385.3" cy="-1756" rx="27" ry="18"/>
<text text-anchor="middle" x="385.3" y="-1750.58" font-family="Times New Roman,serif" font-size="14.00">AIB</text>
</g>
<!-- IL1&#45;&gt;AIB -->
<g id="edge3" class="edge">
<title>IL1&#45;&gt;AIB</title>
<path fill="none" stroke="gray" stroke-width="0.2" d="M227.03,-914.95C264.83,-1155.23 353.2,-1717 353.2,-1717 353.2,-1717 358.85,-1724.09 365.34,-1732.22"/>
<polygon fill="gray" stroke="gray" stroke-width="0.2" points="362.49,-1734.26 371.47,-1739.9 367.97,-1729.9 362.49,-1734.26"/>
</g>
<!-- AVE -->
<g id="node4" class="node">
<title>AVE</title>
<ellipse fill="none" stroke="black" cx="385.3" cy="-1677" rx="29.11" ry="18"/>
<text text-anchor="middle" x="385.3" y="-1671.58" font-family="Times New Roman,serif" font-size="14.00">AVE</text>
</g>
<!-- IL1&#45;&gt;AVE -->
<g id="edge4" class="edge">
<title>IL1&#45;&gt;AVE</title>
<path fill="none" stroke="red" stroke-width="5" d="M228.53,-914.39C267.12,-1138.35 353.2,-1638 353.2,-1638 353.2,-1638 356.86,-1642.58 361.66,-1648.61"/>
<polygon fill="red" stroke="red" stroke-width="5" points="358.11,-1651.17 367.76,-1656.26 364.95,-1645.71 358.11,-1651.17"/>
</g>
<!-- AVL -->
<g id="node5" class="node">
<title>AVL</title>
<ellipse fill="none" stroke="black" cx="385.3" cy="-1598" rx="29.11" ry="18"/>
<text text-anchor="middle" x="385.3" y="-1592.58" font-family="Times New Roman,serif" font-size="14.00">AVL</text>
</g>
<!-- IL1&#45;&gt;AVL -->
<g id="edge5" class="edge">
<title>IL1&#45;&gt;AVL</title>
<path fill="none" stroke="gray" stroke-width="0.2" d="M230.39,-914.01C269.81,-1121.02 353.2,-1559 353.2,-1559 353.2,-1559 358.85,-1566.09 365.34,-1574.22"/>
<polygon fill="gray" stroke="gray" stroke-width="0.2" points="362.49,-1576.26 371.47,-1581.9 367.97,-1571.9 362.49,-1576.26"/>
</g>
<!-- CEP -->
<g id="node6" class="node">
<title>CEP</title>
<ellipse fill="none" stroke="black" cx="385.3" cy="-1519" rx="28.11" ry="18"/>
<text text-anchor="middle" x="385.3" y="-1513.58" font-family="Times New Roman,serif" font-size="14.00">CEP</text>
</g>
<!-- IL1&#45;&gt;CEP -->
<g id="edge6" class="edge">
<title>IL1&#45;&gt;CEP</title>
<path fill="none" stroke="blue" stroke-width="5" d="M235.36,-913.17C276.39,-1097.53 353.2,-1458.5 353.2,-1458.5 353.2,-1458.5 363.67,-1471.63 372.46,-1486.85"/>
<polygon fill="blue" stroke="blue" stroke-width="5" points="368.45,-1488.62 376.89,-1495.54 376.25,-1484.65 368.45,-1488.62"/>
</g>
<!-- IL2 -->
<g id="node7" class="node">
<title>IL2</title>
<ellipse fill="none" stroke="black" cx="385.3" cy="-1440" rx="27" ry="18"/>
<text text-anchor="middle" x="385.3" y="-1434.58" font-family="Times New Roman,serif" font-size="14.00">IL2</text>
</g>
<!-- IL1&#45;&gt;IL2 -->
<g id="edge7" class="edge">
<title>IL1&#45;&gt;IL2</title>
<path fill="none" stroke="gray" stroke-width="5" d="M238.63,-912.19C280.33,-1077.3 353.2,-1379.5 353.2,-1379.5 353.2,-1379.5 363.67,-1392.63 372.46,-1407.85"/>
<polygon fill="gray" stroke="gray" stroke-width="5" points="368.45,-1409.62 376.89,-1416.54 376.25,-1405.65 368.45,-1409.62"/>
</g>
<!-- OLL -->
<g id="node8" class="node">
<title>OLL</title>
<ellipse fill="none" stroke="black" cx="385.3" cy="-1361" rx="28.61" ry="18"/>
<text text-anchor="middle" x="385.3" y="-1355.58" font-family="Times New Roman,serif" font-size="14.00">OLL</text>
</g>
<!-- IL1&#45;&gt;OLL -->
<g id="edge8" class="edge">
<title>IL1&#45;&gt;OLL</title>
<path fill="none" stroke="gray" stroke-width="2" d="M242.83,-910.85C285.03,-1055.48 353.2,-1300.5 353.2,-1300.5 353.2,-1300.5 364.99,-1315.29 374.06,-1331.67"/>
<polygon fill="gray" stroke="gray" stroke-width="2" points="370.8,-1332.98 378.37,-1340.39 377.07,-1329.87 370.8,-1332.98"/>
</g>
<!-- OLQ -->
<g id="node9" class="node">
<title>OLQ</title>
<ellipse fill="none" stroke="black" cx="385.3" cy="-1282" rx="30.11" ry="18"/>
<text text-anchor="middle" x="385.3" y="-1276.58" font-family="Times New Roman,serif" font-size="14.00">OLQ</text>
</g>
<!-- IL1&#45;&gt;OLQ -->
<g id="edge9" class="edge">
<title>IL1&#45;&gt;OLQ</title>
<path fill="none" stroke="gray" stroke-width="0.2" d="M248.43,-908.99C290.79,-1031.64 353.2,-1221.5 353.2,-1221.5 353.2,-1221.5 366.15,-1237.74 375.34,-1255.04"/>
<polygon fill="gray" stroke="gray" stroke-width="0.2" points="372.09,-1256.34 379.58,-1263.83 378.39,-1253.3 372.09,-1256.34"/>
</g>
<!-- PVP -->
<g id="node10" class="node">
<title>PVP</title>
<ellipse fill="none" stroke="black" cx="385.3" cy="-1203" rx="28.11" ry="18"/>
<text text-anchor="middle" x="385.3" y="-1197.58" font-family="Times New Roman,serif" font-size="14.00">PVP</text>
</g>
<!-- IL1&#45;&gt;PVP -->
<g id="edge10" class="edge">
<title>IL1&#45;&gt;PVP</title>
<path fill="none" stroke="gray" stroke-width="0.2" d="M250.42,-908.11C292.71,-1013.41 353.2,-1164 353.2,-1164 353.2,-1164 358.85,-1171.09 365.34,-1179.22"/>
<polygon fill="gray" stroke="gray" stroke-width="0.2" points="362.49,-1181.26 371.47,-1186.9 367.97,-1176.9 362.49,-1181.26"/>
</g>
<!-- PVR -->
<g id="node11" class="node">
<title>PVR</title>
<ellipse fill="none" stroke="black" cx="385.3" cy="-1124" rx="29.11" ry="18"/>
<text text-anchor="middle" x="385.3" y="-1118.58" font-family="Times New Roman,serif" font-size="14.00">PVR</text>
</g>
<!-- IL1&#45;&gt;PVR -->
<g id="edge11" class="edge">
<title>IL1&#45;&gt;PVR</title>
<path fill="none" stroke="gray" stroke-width="2" d="M266.72,-899.97C306.69,-973.4 353.2,-1063.5 353.2,-1063.5 353.2,-1063.5 364.99,-1078.29 374.06,-1094.67"/>
<polygon fill="gray" stroke="gray" stroke-width="2" points="370.8,-1095.98 378.37,-1103.39 377.07,-1092.87 370.8,-1095.98"/>
</g>
<!-- RIP -->
<g id="node12" class="node">
<title>RIP</title>
<ellipse fill="none" stroke="black" cx="385.3" cy="-1045" rx="27" ry="18"/>
<text text-anchor="middle" x="385.3" y="-1039.58" font-family="Times New Roman,serif" font-size="14.00">RIP</text>
</g>
<!-- IL1&#45;&gt;RIP -->
<g id="edge12" class="edge">
<title>IL1&#45;&gt;RIP</title>
<path fill="none" stroke="gray" stroke-width="5" d="M281.91,-888.46C317.59,-935.19 353.2,-984.5 353.2,-984.5 353.2,-984.5 363.67,-997.63 372.46,-1012.85"/>
<polygon fill="gray" stroke="gray" stroke-width="5" points="368.45,-1014.62 376.89,-1021.54 376.25,-1010.65 368.45,-1014.62"/>
</g>
<!-- RIS -->
<g id="node13" class="node">
<title>RIS</title>
<ellipse fill="none" stroke="black" cx="385.3" cy="-966" rx="27" ry="18"/>
<text text-anchor="middle" x="385.3" y="-960.58" font-family="Times New Roman,serif" font-size="14.00">RIS</text>
</g>
<!-- IL1&#45;&gt;RIS -->
<g id="edge13" class="edge">
<title>IL1&#45;&gt;RIS</title>
<path fill="none" stroke="gray" stroke-width="0.2" d="M289.87,-880.3C315.88,-903.9 342.77,-928.31 361.18,-945.01"/>
<polygon fill="gray" stroke="gray" stroke-width="0.2" points="358.54,-947.34 368.29,-951.47 363.24,-942.16 358.54,-947.34"/>
</g>
<!-- RMD -->
<g id="node14" class="node">
<title>RMD</title>
<ellipse fill="none" stroke="black" cx="385.3" cy="-887" rx="31.6" ry="18"/>
<text text-anchor="middle" x="385.3" y="-881.58" font-family="Times New Roman,serif" font-size="14.00">RMD</text>
</g>
<!-- IL1&#45;&gt;RMD -->
<g id="edge14" class="edge">
<title>IL1&#45;&gt;RMD</title>
<path fill="none" stroke="black" stroke-width="5" d="M312.99,-838.75C328.9,-846.45 344.08,-854.57 356.32,-862.08"/>
<polygon fill="black" stroke="black" stroke-width="5" points="353.68,-865.58 364.44,-867.45 358.51,-858.28 353.68,-865.58"/>
</g>
<!-- RME -->
<g id="node15" class="node">
<title>RME</title>
<ellipse fill="none" stroke="black" cx="385.3" cy="-808" rx="30.61" ry="18"/>
<text text-anchor="middle" x="385.3" y="-802.58" font-family="Times New Roman,serif" font-size="14.00">RME</text>
</g>
<!-- IL1&#45;&gt;RME -->
<g id="edge15" class="edge">
<title>IL1&#45;&gt;RME</title>
<path fill="none" stroke="black" stroke-width="5" d="M316.49,-792.23C326.54,-792.61 336.23,-793.28 344.99,-794.26"/>
<polygon fill="black" stroke="black" stroke-width="5" points="344.3,-798.58 354.83,-795.69 345.56,-789.92 344.3,-798.58"/>
</g>
<!-- RMF -->
<g id="node16" class="node">
<title>RMF</title>
<ellipse fill="none" stroke="black" cx="385.3" cy="-729" rx="30.61" ry="18"/>
<text text-anchor="middle" x="385.3" y="-723.58" font-family="Times New Roman,serif" font-size="14.00">RMF</text>
</g>
<!-- IL1&#45;&gt;RMF -->
<g id="edge16" class="edge">
<title>IL1&#45;&gt;RMF</title>
<path fill="none" stroke="gray" stroke-width="0.2" d="M301.08,-750.65C316.45,-743.79 331.67,-737.67 344.8,-733.16"/>
<polygon fill="gray" stroke="gray" stroke-width="0.2" points="345.68,-736.56 354.12,-730.14 343.52,-729.9 345.68,-736.56"/>
</g>
<!-- RMG -->
<g id="node17" class="node">
<title>RMG</title>
<ellipse fill="none" stroke="black" cx="385.3" cy="-650" rx="32.1" ry="18"/>
<text text-anchor="middle" x="385.3" y="-644.58" font-family="Times New Roman,serif" font-size="14.00">RMG</text>
</g>
<!-- IL1&#45;&gt;RMG -->
<g id="edge17" class="edge">
<title>IL1&#45;&gt;RMG</title>
<path fill="none" stroke="gray" stroke-width="0.2" d="M281.52,-727.39C305.68,-704.73 331.51,-682.27 351.23,-667.04"/>
<polygon fill="gray" stroke="gray" stroke-width="0.2" points="353.16,-669.97 359.04,-661.17 348.95,-664.38 353.16,-669.97"/>
</g>
<!-- RMH -->
<g id="node18" class="node">
<title>RMH</title>
<ellipse fill="none" stroke="black" cx="385.3" cy="-571" rx="31.6" ry="18"/>
<text text-anchor="middle" x="385.3" y="-565.58" font-family="Times New Roman,serif" font-size="14.00">RMH</text>
</g>
<!-- IL1&#45;&gt;RMH -->
<g id="edge18" class="edge">
<title>IL1&#45;&gt;RMH</title>
<path fill="none" stroke="red" stroke-width="2" d="M265.08,-715.05C297.69,-666.77 335.18,-614.48 351.66,-592.23"/>
<polygon fill="red" stroke="red" stroke-width="2" points="354.4,-594.41 357.66,-584.33 348.83,-590.18 354.4,-594.41"/>
</g>
<!-- SAA -->
<g id="node19" class="node">
<title>SAA</title>
<ellipse fill="none" stroke="black" cx="385.3" cy="-492" rx="29.11" ry="18"/>
<text text-anchor="middle" x="385.3" y="-486.57" font-family="Times New Roman,serif" font-size="14.00">SAA</text>
</g>
<!-- IL1&#45;&gt;SAA -->
<g id="edge19" class="edge">
<title>IL1&#45;&gt;SAA</title>
<path fill="none" stroke="gray" stroke-width="0.2" d="M253.11,-709.24C295.23,-622.39 353.2,-510.5 353.2,-510.5 353.2,-510.5 353.5,-510.12 354.03,-509.45"/>
<polygon fill="gray" stroke="gray" stroke-width="0.2" points="356.45,-512.01 360.22,-502.11 351.1,-507.5 356.45,-512.01"/>
</g>
<!-- SMB -->
<g id="node20" class="node">
<title>SMB</title>
<ellipse fill="none" stroke="black" cx="385.3" cy="-413" rx="30.11" ry="18"/>
<text text-anchor="middle" x="385.3" y="-407.57" font-family="Times New Roman,serif" font-size="14.00">SMB</text>
</g>
<!-- IL1&#45;&gt;SMB -->
<g id="edge20" class="edge">
<title>IL1&#45;&gt;SMB</title>
<path fill="none" stroke="blue" stroke-width="5" d="M245.37,-705.87C281.09,-611.56 333.3,-481.07 352.89,-437.63"/>
<polygon fill="blue" stroke="blue" stroke-width="5" points="356.74,-439.71 357.31,-428.81 348.92,-435.79 356.74,-439.71"/>
</g>
<!-- SMD -->
<g id="node21" class="node">
<title>SMD</title>
<ellipse fill="none" stroke="black" cx="385.3" cy="-334" rx="30.61" ry="18"/>
<text text-anchor="middle" x="385.3" y="-328.57" font-family="Times New Roman,serif" font-size="14.00">SMD</text>
</g>
<!-- IL1&#45;&gt;SMD -->
<g id="edge21" class="edge">
<title>IL1&#45;&gt;SMD</title>
<path fill="none" stroke="blue" stroke-width="0.2" d="M239.83,-703.97C277.22,-583.46 338.19,-397.27 355.33,-353.41"/>
<polygon fill="blue" stroke="blue" stroke-width="0.2" points="358.47,-354.96 359.37,-344.4 352.08,-352.09 358.47,-354.96"/>
</g>
<!-- URA -->
<g id="node22" class="node">
<title>URA</title>
<ellipse fill="none" stroke="black" cx="385.3" cy="-255" rx="30.11" ry="18"/>
<text text-anchor="middle" x="385.3" y="-249.57" font-family="Times New Roman,serif" font-size="14.00">URA</text>
</g>
<!-- IL1&#45;&gt;URA -->
<g id="edge22" class="edge">
<title>IL1&#45;&gt;URA</title>
<path fill="none" stroke="black" stroke-width="5" d="M235.77,-702.99C271.68,-566.6 334.4,-340.23 354.13,-279.83"/>
<polygon fill="black" stroke="black" stroke-width="5" points="358.16,-281.53 357.6,-270.63 349.98,-278.44 358.16,-281.53"/>
</g>
<!-- URB -->
<g id="node23" class="node">
<title>URB</title>
<ellipse fill="none" stroke="black" cx="385.3" cy="-176" rx="29.61" ry="18"/>
<text text-anchor="middle" x="385.3" y="-170.57" font-family="Times New Roman,serif" font-size="14.00">URB</text>
</g>
<!-- IL1&#45;&gt;URB -->
<g id="edge23" class="edge">
<title>IL1&#45;&gt;URB</title>
<path fill="none" stroke="gray" stroke-width="2" d="M232.7,-702.23C268.88,-544.07 337.32,-259.46 355.63,-197.69"/>
<polygon fill="gray" stroke="gray" stroke-width="2" points="358.79,-199.24 358.8,-188.65 352.19,-196.93 358.79,-199.24"/>
</g>
<!-- URX -->
<g id="node24" class="node">
<title>URX</title>
<ellipse fill="none" stroke="black" cx="385.3" cy="-97" rx="30.11" ry="18"/>
<text text-anchor="middle" x="385.3" y="-91.58" font-family="Times New Roman,serif" font-size="14.00">URX</text>
</g>
<!-- IL1&#45;&gt;URX -->
<g id="edge24" class="edge">
<title>IL1&#45;&gt;URX</title>
<path fill="none" stroke="gray" stroke-width="0.2" d="M230.31,-701.59C266.39,-523.26 339.49,-179.02 356.58,-116.53"/>
<polygon fill="gray" stroke="gray" stroke-width="0.2" points="359.89,-117.67 359.7,-107.08 353.24,-115.48 359.89,-117.67"/>
</g>
<!-- URY -->
<g id="node25" class="node">
<title>URY</title>
<ellipse fill="none" stroke="black" cx="385.3" cy="-18" rx="30.11" ry="18"/>
<text text-anchor="middle" x="385.3" y="-12.57" font-family="Times New Roman,serif" font-size="14.00">URY</text>
</g>
<!-- IL1&#45;&gt;URY -->
<g id="edge25" class="edge">
<title>IL1&#45;&gt;URY</title>
<path fill="none" stroke="gray" stroke-width="2" d="M228.31,-701.48C263.34,-508.37 338.06,-115.09 356.18,-40.17"/>
<polygon fill="gray" stroke="gray" stroke-width="2" points="359.5,-41.28 358.95,-30.7 352.78,-39.31 359.5,-41.28"/>
</g>
<!-- ADE&#45;&gt;IL1 -->
<g id="edge26" class="edge">
<title>ADE&#45;&gt;IL1</title>
<path fill="none" stroke="red" stroke-width="5" d="M360.1,-1825.55C356.09,-1821.12 353.2,-1817.5 353.2,-1817.5 353.2,-1817.5 263.95,-1200.87 226.47,-931.3"/>
<polygon fill="red" stroke="red" stroke-width="5" points="230.8,-930.7 225.1,-921.4 222.14,-931.9 230.8,-930.7"/>
</g>
<!-- CEP&#45;&gt;IL1 -->
<g id="edge27" class="edge">
<title>CEP&#45;&gt;IL1</title>
<path fill="none" stroke="black" stroke-width="5" d="M360.42,-1509.89C356.24,-1505.31 353.2,-1501.5 353.2,-1501.5 353.2,-1501.5 274.04,-1129.51 233.52,-930.21"/>
<polygon fill="black" stroke="black" stroke-width="5" points="237.83,-929.45 231.55,-920.52 229.25,-931.19 237.83,-929.45"/>
</g>
<!-- IL2&#45;&gt;IL1 -->
<g id="edge28" class="edge">
<title>IL2&#45;&gt;IL1</title>
<path fill="none" stroke="black" stroke-width="5" d="M361.05,-1431.58C356.55,-1426.7 353.2,-1422.5 353.2,-1422.5 353.2,-1422.5 277.53,-1108.7 236.28,-929.37"/>
<polygon fill="black" stroke="black" stroke-width="5" points="240.6,-928.62 234.1,-919.85 232.07,-930.58 240.6,-928.62"/>
</g>
<!-- OLL&#45;&gt;IL1 -->
<g id="edge29" class="edge">
<title>OLL&#45;&gt;IL1</title>
<path fill="none" stroke="black" stroke-width="5" d="M360.42,-1351.89C356.24,-1347.31 353.2,-1343.5 353.2,-1343.5 353.2,-1343.5 281.74,-1086.63 239.85,-928.47"/>
<polygon fill="black" stroke="black" stroke-width="5" points="244.14,-927.59 237.36,-919.04 235.68,-929.83 244.14,-927.59"/>
</g>
<!-- OLQ&#45;&gt;IL1 -->
<g id="edge30" class="edge">
<title>OLQ&#45;&gt;IL1</title>
<path fill="none" stroke="black" stroke-width="5" d="M359.8,-1272.21C355.94,-1267.94 353.2,-1264.5 353.2,-1264.5 353.2,-1264.5 286.92,-1062.89 244.61,-927.39"/>
<polygon fill="black" stroke="black" stroke-width="5" points="248.84,-926.24 241.69,-917.99 240.48,-928.84 248.84,-926.24"/>
</g>
<!-- PVR&#45;&gt;IL1 -->
<g id="edge31" class="edge">
<title>PVR&#45;&gt;IL1</title>
<path fill="none" stroke="gray" stroke-width="5" d="M360.1,-1114.55C356.09,-1110.12 353.2,-1106.5 353.2,-1106.5 353.2,-1106.5 301.4,-1006.15 260.15,-921.56"/>
<polygon fill="gray" stroke="gray" stroke-width="5" points="264.13,-919.75 255.83,-912.67 256.26,-923.58 264.13,-919.75"/>
</g>
<!-- RIP&#45;&gt;IL1 -->
<g id="edge32" class="edge">
<title>RIP&#45;&gt;IL1</title>
<path fill="none" stroke="gray" stroke-width="0.2" d="M361.05,-1036.58C356.55,-1031.7 353.2,-1027.5 353.2,-1027.5 353.2,-1027.5 309.64,-967.18 270.6,-909.51"/>
<polygon fill="gray" stroke="gray" stroke-width="0.2" points="273.54,-907.61 265.05,-901.28 267.74,-911.53 273.54,-907.61"/>
</g>
<!-- RMD&#45;&gt;IL1 -->
<g id="edge33" class="edge">
<title>RMD&#45;&gt;IL1</title>
<path fill="none" stroke="black" stroke-width="5" d="M353.63,-885.72C342.6,-882.33 329.44,-877.41 315.63,-871.64"/>
<polygon fill="black" stroke="black" stroke-width="5" points="317.72,-867.78 306.8,-867.82 314.24,-875.81 317.72,-867.78"/>
</g>
<!-- RME&#45;&gt;IL1 -->
<g id="edge34" class="edge">
<title>RME&#45;&gt;IL1</title>
<path fill="none" stroke="gray" stroke-width="2" d="M361,-819.41C352.03,-821.1 341.06,-822.34 329.17,-823.12"/>
<polygon fill="gray" stroke="gray" stroke-width="2" points="329.32,-819.61 319.52,-823.61 329.68,-826.6 329.32,-819.61"/>
</g>
<!-- RMF&#45;&gt;IL1 -->
<g id="edge35" class="edge">
<title>RMF&#45;&gt;IL1</title>
<path fill="none" stroke="gray" stroke-width="0.2" d="M369.9,-744.92C358.41,-753.29 341.13,-763.17 322.13,-772.74"/>
<polygon fill="gray" stroke="gray" stroke-width="0.2" points="320.68,-769.55 313.26,-777.11 323.78,-775.83 320.68,-769.55"/>
</g>
<!-- RMG&#45;&gt;IL1 -->
<g id="edge36" class="edge">
<title>RMG&#45;&gt;IL1</title>
<path fill="none" stroke="gray" stroke-width="0.2" d="M374.19,-667.24C360.06,-685 332.97,-712.25 304.82,-738.21"/>
<polygon fill="gray" stroke="gray" stroke-width="0.2" points="302.49,-735.59 297.48,-744.92 307.22,-740.75 302.49,-735.59"/>
</g>
<!-- RMH&#45;&gt;IL1 -->
<g id="edge37" class="edge">
<title>RMH&#45;&gt;IL1</title>
<path fill="none" stroke="gray" stroke-width="0.2" d="M379.71,-589.05C371.06,-609.53 353.2,-632.5 353.2,-632.5 353.2,-632.5 321.77,-675.81 288.37,-719.6"/>
<polygon fill="gray" stroke="gray" stroke-width="0.2" points="285.6,-717.46 282.3,-727.53 291.16,-721.71 285.6,-717.46"/>
</g>
<!-- SAA&#45;&gt;IL1 -->
<g id="edge38" class="edge">
<title>SAA&#45;&gt;IL1</title>
<path fill="none" stroke="gray" stroke-width="2" d="M379.71,-510.05C371.06,-530.53 353.2,-553.5 353.2,-553.5 353.2,-553.5 311.29,-634.38 272.85,-705.17"/>
<polygon fill="gray" stroke="gray" stroke-width="2" points="269.88,-703.31 268.17,-713.77 276.02,-706.66 269.88,-703.31"/>
</g>
<!-- SMB&#45;&gt;IL1 -->
<g id="edge39" class="edge">
<title>SMB&#45;&gt;IL1</title>
<path fill="none" stroke="gray" stroke-width="0.2" d="M379.71,-431.05C371.06,-451.53 353.2,-474.5 353.2,-474.5 353.2,-474.5 301.27,-603.42 260,-701.18"/>
<polygon fill="gray" stroke="gray" stroke-width="0.2" points="256.83,-699.68 256.16,-710.26 263.28,-702.41 256.83,-699.68"/>
</g>
<!-- SMD&#45;&gt;IL1 -->
<g id="edge40" class="edge">
<title>SMD&#45;&gt;IL1</title>
<path fill="none" stroke="blue" stroke-width="2" d="M379.71,-351.9C371.06,-372.1 353.2,-394.5 353.2,-394.5 353.2,-394.5 294.75,-572.32 252.58,-694.96"/>
<polygon fill="blue" stroke="blue" stroke-width="2" points="249.36,-693.56 249.42,-704.15 255.98,-695.84 249.36,-693.56"/>
</g>
<!-- URA&#45;&gt;IL1 -->
<g id="edge41" class="edge">
<title>URA&#45;&gt;IL1</title>
<path fill="none" stroke="black" stroke-width="5" d="M379.71,-272.9C371.06,-293.1 353.2,-315.5 353.2,-315.5 353.2,-315.5 289.62,-544.06 247.24,-689.98"/>
<polygon fill="black" stroke="black" stroke-width="5" points="243.17,-688.33 244.57,-699.16 251.57,-690.78 243.17,-688.33"/>
</g>
<!-- URB&#45;&gt;IL1 -->
<g id="edge42" class="edge">
<title>URB&#45;&gt;IL1</title>
<path fill="none" stroke="black" stroke-width="5" d="M379.71,-193.9C371.06,-214.1 353.2,-236.5 353.2,-236.5 353.2,-236.5 284.74,-520.39 242.56,-688.2"/>
<polygon fill="black" stroke="black" stroke-width="5" points="238.35,-687 240.15,-697.76 246.83,-689.14 238.35,-687"/>
</g>
<!-- URX&#45;&gt;IL1 -->
<g id="edge43" class="edge">
<title>URX&#45;&gt;IL1</title>
<path fill="none" stroke="gray" stroke-width="0.2" d="M379.71,-114.9C371.06,-135.1 353.2,-157.5 353.2,-157.5 353.2,-157.5 279.07,-505.89 237.55,-692.95"/>
<polygon fill="gray" stroke="gray" stroke-width="0.2" points="234.17,-692.01 235.42,-702.53 241.01,-693.53 234.17,-692.01"/>
</g>
<!-- URY&#45;&gt;IL1 -->
<g id="edge44" class="edge">
<title>URY&#45;&gt;IL1</title>
<path fill="none" stroke="black" stroke-width="5" d="M379.71,-35.9C371.06,-56.1 353.2,-78.5 353.2,-78.5 353.2,-78.5 277,-478.71 235.85,-686.46"/>
<polygon fill="black" stroke="black" stroke-width="5" points="231.57,-685.52 233.92,-696.18 240.16,-687.22 231.57,-685.52"/>
</g>
<!-- ADL -->
<g id="node26" class="node">
<title>ADL</title>
<ellipse fill="none" stroke="black" cx="32.6" cy="-1203" rx="29.11" ry="18"/>
<text text-anchor="middle" x="32.6" y="-1197.58" font-family="Times New Roman,serif" font-size="14.00">ADL</text>
</g>
<!-- ADL&#45;&gt;IL1 -->
<g id="edge45" class="edge">
<title>ADL&#45;&gt;IL1</title>
<path fill="none" stroke="gray" stroke-width="2" d="M46.45,-1187.14C55.2,-1176.34 65.2,-1164 65.2,-1164 65.2,-1164 121.29,-1024.38 163.21,-920.01"/>
<polygon fill="gray" stroke="gray" stroke-width="2" points="166.38,-921.51 166.86,-910.92 159.88,-918.9 166.38,-921.51"/>
</g>
<!-- ALN -->
<g id="node27" class="node">
<title>ALN</title>
<ellipse fill="none" stroke="black" cx="32.6" cy="-1124" rx="29.11" ry="18"/>
<text text-anchor="middle" x="32.6" y="-1118.58" font-family="Times New Roman,serif" font-size="14.00">ALN</text>
</g>
<!-- ALN&#45;&gt;IL1 -->
<g id="edge46" class="edge">
<title>ALN&#45;&gt;IL1</title>
<path fill="none" stroke="gray" stroke-width="0.2" d="M46.45,-1108.14C55.2,-1097.34 65.2,-1085 65.2,-1085 65.2,-1085 113.65,-991.15 154.15,-912.71"/>
<polygon fill="gray" stroke="gray" stroke-width="0.2" points="157.17,-914.48 158.65,-903.98 150.95,-911.26 157.17,-914.48"/>
</g>
<!-- AQR -->
<g id="node28" class="node">
<title>AQR</title>
<ellipse fill="none" stroke="black" cx="32.6" cy="-1045" rx="30.61" ry="18"/>
<text text-anchor="middle" x="32.6" y="-1039.58" font-family="Times New Roman,serif" font-size="14.00">AQR</text>
</g>
<!-- AQR&#45;&gt;IL1 -->
<g id="edge47" class="edge">
<title>AQR&#45;&gt;IL1</title>
<path fill="none" stroke="gray" stroke-width="0.2" d="M46.82,-1028.69C55.48,-1018 65.2,-1006 65.2,-1006 65.2,-1006 102.64,-954.16 139.21,-903.53"/>
<polygon fill="gray" stroke="gray" stroke-width="0.2" points="141.87,-905.82 144.89,-895.67 136.19,-901.73 141.87,-905.82"/>
</g>
<!-- AWC -->
<g id="node29" class="node">
<title>AWC</title>
<ellipse fill="none" stroke="black" cx="32.6" cy="-966" rx="32.6" ry="18"/>
<text text-anchor="middle" x="32.6" y="-960.58" font-family="Times New Roman,serif" font-size="14.00">AWC</text>
</g>
<!-- AWC&#45;&gt;IL1 -->
<g id="edge48" class="edge">
<title>AWC&#45;&gt;IL1</title>
<path fill="none" stroke="gray" stroke-width="0.2" d="M50.66,-950.56C67.37,-935.44 94.15,-911.21 120.93,-886.98"/>
<polygon fill="gray" stroke="gray" stroke-width="0.2" points="123.18,-889.66 128.25,-880.35 118.48,-884.47 123.18,-889.66"/>
</g>
<!-- BDU -->
<g id="node30" class="node">
<title>BDU</title>
<ellipse fill="none" stroke="black" cx="32.6" cy="-887" rx="29.61" ry="18"/>
<text text-anchor="middle" x="32.6" y="-881.58" font-family="Times New Roman,serif" font-size="14.00">BDU</text>
</g>
<!-- BDU&#45;&gt;IL1 -->
<g id="edge49" class="edge">
<title>BDU&#45;&gt;IL1</title>
<path fill="none" stroke="gray" stroke-width="2" d="M57.15,-876.35C68.61,-871.16 83.29,-864.52 98.98,-857.42"/>
<polygon fill="gray" stroke="gray" stroke-width="2" points="100.13,-860.74 107.8,-853.43 97.25,-854.36 100.13,-860.74"/>
</g>
<!-- RIA -->
<g id="node31" class="node">
<title>RIA</title>
<ellipse fill="none" stroke="black" cx="32.6" cy="-808" rx="27" ry="18"/>
<text text-anchor="middle" x="32.6" y="-802.58" font-family="Times New Roman,serif" font-size="14.00">RIA</text>
</g>
<!-- RIA&#45;&gt;IL1 -->
<g id="edge50" class="edge">
<title>RIA&#45;&gt;IL1</title>
<path fill="none" stroke="gray" stroke-width="2" d="M59.74,-808C67.92,-808 77.55,-808 87.9,-808"/>
<polygon fill="gray" stroke="gray" stroke-width="2" points="87.81,-811.5 97.81,-808 87.81,-804.5 87.81,-811.5"/>
</g>
<!-- RIG -->
<g id="node32" class="node">
<title>RIG</title>
<ellipse fill="none" stroke="black" cx="32.6" cy="-729" rx="27.11" ry="18"/>
<text text-anchor="middle" x="32.6" y="-723.58" font-family="Times New Roman,serif" font-size="14.00">RIG</text>
</g>
<!-- RIG&#45;&gt;IL1 -->
<g id="edge51" class="edge">
<title>RIG&#45;&gt;IL1</title>
<path fill="none" stroke="blue" stroke-width="2" d="M55.71,-739.01C67.35,-744.27 82.56,-751.15 98.88,-758.54"/>
<polygon fill="blue" stroke="blue" stroke-width="2" points="97.01,-761.53 107.56,-762.46 99.89,-755.15 97.01,-761.53"/>
</g>
<!-- RIH -->
<g id="node33" class="node">
<title>RIH</title>
<ellipse fill="none" stroke="black" cx="32.6" cy="-650" rx="27" ry="18"/>
<text text-anchor="middle" x="32.6" y="-644.58" font-family="Times New Roman,serif" font-size="14.00">RIH</text>
</g>
<!-- RIH&#45;&gt;IL1 -->
<g id="edge52" class="edge">
<title>RIH&#45;&gt;IL1</title>
<path fill="none" stroke="gray" stroke-width="2" d="M49.4,-664.3C65.62,-678.98 92.22,-703.04 119.04,-727.32"/>
<polygon fill="gray" stroke="gray" stroke-width="2" points="116.52,-729.75 126.28,-733.87 121.21,-724.56 116.52,-729.75"/>
</g>
<!-- RIM -->
<g id="node34" class="node">
<title>RIM</title>
<ellipse fill="none" stroke="black" cx="32.6" cy="-571" rx="28.11" ry="18"/>
<text text-anchor="middle" x="32.6" y="-565.58" font-family="Times New Roman,serif" font-size="14.00">RIM</text>
</g>
<!-- RIM&#45;&gt;IL1 -->
<g id="edge53" class="edge">
<title>RIM&#45;&gt;IL1</title>
<path fill="none" stroke="gray" stroke-width="2" d="M46.09,-586.81C54.92,-597.99 65.2,-611 65.2,-611 65.2,-611 101.29,-660.71 137.21,-710.2"/>
<polygon fill="gray" stroke="gray" stroke-width="2" points="134.37,-712.25 143.08,-718.28 140.04,-708.13 134.37,-712.25"/>
</g>
<!-- SDQ -->
<g id="node35" class="node">
<title>SDQ</title>
<ellipse fill="none" stroke="black" cx="32.6" cy="-492" rx="29.61" ry="18"/>
<text text-anchor="middle" x="32.6" y="-486.57" font-family="Times New Roman,serif" font-size="14.00">SDQ</text>
</g>
<!-- SDQ&#45;&gt;IL1 -->
<g id="edge54" class="edge">
<title>SDQ&#45;&gt;IL1</title>
<path fill="none" stroke="gray" stroke-width="0.2" d="M46.45,-508.27C55.2,-519.34 65.2,-532 65.2,-532 65.2,-532 113.49,-625.21 153.95,-703.29"/>
<polygon fill="gray" stroke="gray" stroke-width="0.2" points="150.74,-704.71 158.45,-711.97 156.96,-701.49 150.74,-704.71"/>
</g>
<!-- SIA -->
<g id="node36" class="node">
<title>SIA</title>
<ellipse fill="none" stroke="black" cx="32.6" cy="-413" rx="27" ry="18"/>
<text text-anchor="middle" x="32.6" y="-407.57" font-family="Times New Roman,serif" font-size="14.00">SIA</text>
</g>
<!-- SIA&#45;&gt;IL1 -->
<g id="edge55" class="edge">
<title>SIA&#45;&gt;IL1</title>
<path fill="none" stroke="gray" stroke-width="0.2" d="M46.09,-428.81C54.92,-439.99 65.2,-453 65.2,-453 65.2,-453 122.2,-594.5 164.23,-698.83"/>
<polygon fill="gray" stroke="gray" stroke-width="0.2" points="160.89,-699.92 167.87,-707.89 167.38,-697.3 160.89,-699.92"/>
</g>
</g>
</svg>
