<?xml version="1.0" encoding="UTF-8" standalone="no"?>
<!DOCTYPE svg PUBLIC "-//W3C//DTD SVG 1.1//EN"
 "http://www.w3.org/Graphics/SVG/1.1/DTD/svg11.dtd">
<!-- Generated by graphviz version 11.0.0 (20240428.1522)
 -->
<!-- Pages: 1 -->
<svg width="422pt" height="2572pt"
 viewBox="0.00 0.00 422.41 2572.00" xmlns="http://www.w3.org/2000/svg" xmlns:xlink="http://www.w3.org/1999/xlink">
<g id="graph0" class="graph" transform="scale(1 1) rotate(0) translate(4 2568)">
<polygon fill="white" stroke="none" points="-4,4 -4,-2568 418.41,-2568 418.41,4 -4,4"/>
<!-- IL2 -->
<g id="node1" class="node">
<title>IL2</title>
<ellipse fill="none" stroke="black" cx="205.21" cy="-1282" rx="108" ry="108"/>
<text text-anchor="middle" x="205.21" y="-1263" font-family="Times New Roman,serif" font-size="50.00">IL2</text>
</g>
<!-- IL2&#45;&gt;IL2 -->
<g id="edge1" class="edge">
<title>IL2&#45;&gt;IL2</title>
<path fill="none" stroke="black" stroke-width="5" d="M172.78,-1385.39C174.71,-1412.51 185.52,-1433 205.21,-1433 220.83,-1433 230.86,-1420.12 235.3,-1401.26"/>
<polygon fill="black" stroke="black" stroke-width="5" points="239.6,-1402.1 236.73,-1391.56 230.94,-1400.82 239.6,-1402.1"/>
</g>
<!-- ADA -->
<g id="node2" class="node">
<title>ADA</title>
<ellipse fill="none" stroke="black" cx="381.81" cy="-2546" rx="30.11" ry="18"/>
<text text-anchor="middle" x="381.81" y="-2540.57" font-family="Times New Roman,serif" font-size="14.00">ADA</text>
</g>
<!-- IL2&#45;&gt;ADA -->
<g id="edge2" class="edge">
<title>IL2&#45;&gt;ADA</title>
<path fill="none" stroke="gray" stroke-width="nan" d="M218.78,-1389.64C253.67,-1688.56 349.21,-2507 349.21,-2507 349.21,-2507 358.93,-2519 367.59,-2529.69"/>
<polygon fill="gray" stroke="gray" stroke-width="nan" points="nan,-nan nan,-nan nan,-nan nan,-nan"/>
</g>
<!-- ADE -->
<g id="node3" class="node">
<title>ADE</title>
<ellipse fill="none" stroke="black" cx="381.81" cy="-2467" rx="29.11" ry="18"/>
<text text-anchor="middle" x="381.81" y="-2461.57" font-family="Times New Roman,serif" font-size="14.00">ADE</text>
</g>
<!-- IL2&#45;&gt;ADE -->
<g id="edge3" class="edge">
<title>IL2&#45;&gt;ADE</title>
<path fill="none" stroke="red" stroke-width="nan" d="M220.91,-1389.35C257.4,-1670.73 349.21,-2406.5 349.21,-2406.5 349.21,-2406.5 367.36,-2428.9 376.15,-2449.1"/>
<polygon fill="red" stroke="red" stroke-width="nan" points="nan,-nan nan,-nan nan,-nan nan,-nan"/>
</g>
<!-- ADL -->
<g id="node4" class="node">
<title>ADL</title>
<ellipse fill="none" stroke="black" cx="381.81" cy="-2388" rx="29.11" ry="18"/>
<text text-anchor="middle" x="381.81" y="-2382.57" font-family="Times New Roman,serif" font-size="14.00">ADL</text>
</g>
<!-- IL2&#45;&gt;ADL -->
<g id="edge4" class="edge">
<title>IL2&#45;&gt;ADL</title>
<path fill="none" stroke="gray" stroke-width="0.2" d="M221.99,-1388.99C259.18,-1655.74 349.21,-2327.5 349.21,-2327.5 349.21,-2327.5 362.37,-2343.74 371.71,-2361.04"/>
<polygon fill="gray" stroke="gray" stroke-width="0.2" points="368.47,-2362.39 376.02,-2369.83 374.76,-2359.31 368.47,-2362.39"/>
</g>
<!-- AIB -->
<g id="node5" class="node">
<title>AIB</title>
<ellipse fill="none" stroke="black" cx="381.81" cy="-2309" rx="27" ry="18"/>
<text text-anchor="middle" x="381.81" y="-2303.57" font-family="Times New Roman,serif" font-size="14.00">AIB</text>
</g>
<!-- IL2&#45;&gt;AIB -->
<g id="edge5" class="edge">
<title>IL2&#45;&gt;AIB</title>
<path fill="none" stroke="gray" stroke-width="0.2" d="M223.25,-1388.59C261.16,-1640.18 349.21,-2248.5 349.21,-2248.5 349.21,-2248.5 362.37,-2264.74 371.71,-2282.04"/>
<polygon fill="gray" stroke="gray" stroke-width="0.2" points="368.47,-2283.39 376.02,-2290.83 374.76,-2280.31 368.47,-2283.39"/>
</g>
<!-- ASI -->
<g id="node6" class="node">
<title>ASI</title>
<ellipse fill="none" stroke="black" cx="381.81" cy="-2230" rx="27" ry="18"/>
<text text-anchor="middle" x="381.81" y="-2224.57" font-family="Times New Roman,serif" font-size="14.00">ASI</text>
</g>
<!-- IL2&#45;&gt;ASI -->
<g id="edge6" class="edge">
<title>IL2&#45;&gt;ASI</title>
<path fill="none" stroke="gray" stroke-width="0.2" d="M223.03,-1388.95C260.84,-1629.23 349.21,-2191 349.21,-2191 349.21,-2191 354.95,-2198.09 361.54,-2206.22"/>
<polygon fill="gray" stroke="gray" stroke-width="0.2" points="358.75,-2208.34 367.77,-2213.9 364.19,-2203.93 358.75,-2208.34"/>
</g>
<!-- AUA -->
<g id="node7" class="node">
<title>AUA</title>
<ellipse fill="none" stroke="black" cx="381.81" cy="-2151" rx="30.11" ry="18"/>
<text text-anchor="middle" x="381.81" y="-2145.57" font-family="Times New Roman,serif" font-size="14.00">AUA</text>
</g>
<!-- IL2&#45;&gt;AUA -->
<g id="edge7" class="edge">
<title>IL2&#45;&gt;AUA</title>
<path fill="none" stroke="gray" stroke-width="0.2" d="M224.54,-1388.39C263.13,-1612.35 349.21,-2112 349.21,-2112 349.21,-2112 354.91,-2119.03 361.47,-2127.13"/>
<polygon fill="gray" stroke="gray" stroke-width="0.2" points="358.39,-2128.89 367.4,-2134.45 363.83,-2124.48 358.39,-2128.89"/>
</g>
<!-- AVA -->
<g id="node8" class="node">
<title>AVA</title>
<ellipse fill="none" stroke="black" cx="381.81" cy="-2072" rx="30.11" ry="18"/>
<text text-anchor="middle" x="381.81" y="-2066.57" font-family="Times New Roman,serif" font-size="14.00">AVA</text>
</g>
<!-- IL2&#45;&gt;AVA -->
<g id="edge8" class="edge">
<title>IL2&#45;&gt;AVA</title>
<path fill="none" stroke="gray" stroke-width="0.2" d="M226.4,-1388.01C265.81,-1595.02 349.21,-2033 349.21,-2033 349.21,-2033 354.91,-2040.03 361.47,-2048.13"/>
<polygon fill="gray" stroke="gray" stroke-width="0.2" points="358.39,-2049.89 367.4,-2055.45 363.83,-2045.48 358.39,-2049.89"/>
</g>
<!-- AVB -->
<g id="node9" class="node">
<title>AVB</title>
<ellipse fill="none" stroke="black" cx="381.81" cy="-1993" rx="29.61" ry="18"/>
<text text-anchor="middle" x="381.81" y="-1987.58" font-family="Times New Roman,serif" font-size="14.00">AVB</text>
</g>
<!-- IL2&#45;&gt;AVB -->
<g id="edge9" class="edge">
<title>IL2&#45;&gt;AVB</title>
<path fill="none" stroke="gray" stroke-width="0.2" d="M228.71,-1387.74C268.98,-1576.98 349.21,-1954 349.21,-1954 349.21,-1954 354.95,-1961.09 361.54,-1969.22"/>
<polygon fill="gray" stroke="gray" stroke-width="0.2" points="358.75,-1971.34 367.77,-1976.9 364.19,-1966.93 358.75,-1971.34"/>
</g>
<!-- AVE -->
<g id="node10" class="node">
<title>AVE</title>
<ellipse fill="none" stroke="black" cx="381.81" cy="-1914" rx="29.11" ry="18"/>
<text text-anchor="middle" x="381.81" y="-1908.58" font-family="Times New Roman,serif" font-size="14.00">AVE</text>
</g>
<!-- IL2&#45;&gt;AVE -->
<g id="edge10" class="edge">
<title>IL2&#45;&gt;AVE</title>
<path fill="none" stroke="gray" stroke-width="2" d="M231.53,-1386.99C272.6,-1557.31 349.21,-1875 349.21,-1875 349.21,-1875 354.15,-1881.1 360.13,-1888.48"/>
<polygon fill="gray" stroke="gray" stroke-width="2" points="357.04,-1890.22 366.05,-1895.79 362.48,-1885.81 357.04,-1890.22"/>
</g>
<!-- AWC -->
<g id="node11" class="node">
<title>AWC</title>
<ellipse fill="none" stroke="black" cx="381.81" cy="-1835" rx="32.6" ry="18"/>
<text text-anchor="middle" x="381.81" y="-1829.58" font-family="Times New Roman,serif" font-size="14.00">AWC</text>
</g>
<!-- IL2&#45;&gt;AWC -->
<g id="edge11" class="edge">
<title>IL2&#45;&gt;AWC</title>
<path fill="none" stroke="gray" stroke-width="0.2" d="M238.84,-1384.85C281.04,-1529.48 349.21,-1774.5 349.21,-1774.5 349.21,-1774.5 362.23,-1790.57 371.56,-1807.77"/>
<polygon fill="gray" stroke="gray" stroke-width="0.2" points="368.31,-1809.1 375.88,-1816.52 374.59,-1806 368.31,-1809.1"/>
</g>
<!-- BAG -->
<g id="node12" class="node">
<title>BAG</title>
<ellipse fill="none" stroke="black" cx="381.81" cy="-1756" rx="30.11" ry="18"/>
<text text-anchor="middle" x="381.81" y="-1750.58" font-family="Times New Roman,serif" font-size="14.00">BAG</text>
</g>
<!-- IL2&#45;&gt;BAG -->
<g id="edge12" class="edge">
<title>IL2&#45;&gt;BAG</title>
<path fill="none" stroke="gray" stroke-width="0.2" d="M239.92,-1384.54C282.2,-1513.14 349.21,-1717 349.21,-1717 349.21,-1717 354.91,-1724.03 361.47,-1732.13"/>
<polygon fill="gray" stroke="gray" stroke-width="0.2" points="358.39,-1733.89 367.4,-1739.45 363.83,-1729.48 358.39,-1733.89"/>
</g>
<!-- CEP -->
<g id="node13" class="node">
<title>CEP</title>
<ellipse fill="none" stroke="black" cx="381.81" cy="-1677" rx="28.11" ry="18"/>
<text text-anchor="middle" x="381.81" y="-1671.58" font-family="Times New Roman,serif" font-size="14.00">CEP</text>
</g>
<!-- IL2&#45;&gt;CEP -->
<g id="edge13" class="edge">
<title>IL2&#45;&gt;CEP</title>
<path fill="none" stroke="red" stroke-width="0.2" d="M252.05,-1379.79C293.87,-1478.74 349.21,-1616.5 349.21,-1616.5 349.21,-1616.5 362.37,-1632.74 371.71,-1650.04"/>
<polygon fill="red" stroke="red" stroke-width="0.2" points="368.47,-1651.39 376.02,-1658.83 374.76,-1648.31 368.47,-1651.39"/>
</g>
<!-- DVC -->
<g id="node14" class="node">
<title>DVC</title>
<ellipse fill="none" stroke="black" cx="381.81" cy="-1598" rx="30.11" ry="18"/>
<text text-anchor="middle" x="381.81" y="-1592.58" font-family="Times New Roman,serif" font-size="14.00">DVC</text>
</g>
<!-- IL2&#45;&gt;DVC -->
<g id="edge14" class="edge">
<title>IL2&#45;&gt;DVC</title>
<path fill="none" stroke="gray" stroke-width="0.2" d="M255.62,-1377.72C296.96,-1457.78 349.21,-1559 349.21,-1559 349.21,-1559 354.91,-1566.03 361.47,-1574.13"/>
<polygon fill="gray" stroke="gray" stroke-width="0.2" points="358.39,-1575.89 367.4,-1581.45 363.83,-1571.48 358.39,-1575.89"/>
</g>
<!-- IL1 -->
<g id="node15" class="node">
<title>IL1</title>
<ellipse fill="none" stroke="black" cx="381.81" cy="-1519" rx="27" ry="18"/>
<text text-anchor="middle" x="381.81" y="-1513.58" font-family="Times New Roman,serif" font-size="14.00">IL1</text>
</g>
<!-- IL2&#45;&gt;IL1 -->
<g id="edge15" class="edge">
<title>IL2&#45;&gt;IL1</title>
<path fill="none" stroke="black" stroke-width="5" d="M277.92,-1362.46C313.6,-1409.19 349.21,-1458.5 349.21,-1458.5 349.21,-1458.5 359.85,-1471.63 368.78,-1486.85"/>
<polygon fill="black" stroke="black" stroke-width="5" points="364.8,-1488.69 373.28,-1495.56 372.58,-1484.67 364.8,-1488.69"/>
</g>
<!-- OLL -->
<g id="node16" class="node">
<title>OLL</title>
<ellipse fill="none" stroke="black" cx="381.81" cy="-1440" rx="28.61" ry="18"/>
<text text-anchor="middle" x="381.81" y="-1434.58" font-family="Times New Roman,serif" font-size="14.00">OLL</text>
</g>
<!-- IL2&#45;&gt;OLL -->
<g id="edge16" class="edge">
<title>IL2&#45;&gt;OLL</title>
<path fill="none" stroke="gray" stroke-width="5" d="M293.51,-1344.88C318.6,-1367.58 343.7,-1392.07 360.5,-1410.82"/>
<polygon fill="gray" stroke="gray" stroke-width="5" points="357.07,-1413.54 366.88,-1418.33 363.73,-1407.88 357.07,-1413.54"/>
</g>
<!-- OLQ -->
<g id="node17" class="node">
<title>OLQ</title>
<ellipse fill="none" stroke="black" cx="381.81" cy="-1361" rx="30.11" ry="18"/>
<text text-anchor="middle" x="381.81" y="-1355.58" font-family="Times New Roman,serif" font-size="14.00">OLQ</text>
</g>
<!-- IL2&#45;&gt;OLQ -->
<g id="edge17" class="edge">
<title>IL2&#45;&gt;OLQ</title>
<path fill="none" stroke="gray" stroke-width="5" d="M309.04,-1312.63C325.25,-1320.45 340.72,-1328.69 353.12,-1336.31"/>
<polygon fill="gray" stroke="gray" stroke-width="5" points="350.62,-1339.9 361.37,-1341.78 355.45,-1332.61 350.62,-1339.9"/>
</g>
<!-- RIA -->
<g id="node18" class="node">
<title>RIA</title>
<ellipse fill="none" stroke="black" cx="381.81" cy="-1282" rx="27" ry="18"/>
<text text-anchor="middle" x="381.81" y="-1276.58" font-family="Times New Roman,serif" font-size="14.00">RIA</text>
</g>
<!-- IL2&#45;&gt;RIA -->
<g id="edge18" class="edge">
<title>IL2&#45;&gt;RIA</title>
<path fill="none" stroke="red" stroke-width="5" d="M313.31,-1282C322.12,-1282 330.65,-1282 338.51,-1282"/>
<polygon fill="red" stroke="red" stroke-width="5" points="338.26,-1286.38 348.26,-1282 338.26,-1277.63 338.26,-1286.38"/>
</g>
<!-- RIB -->
<g id="node19" class="node">
<title>RIB</title>
<ellipse fill="none" stroke="black" cx="381.81" cy="-1203" rx="27" ry="18"/>
<text text-anchor="middle" x="381.81" y="-1197.58" font-family="Times New Roman,serif" font-size="14.00">RIB</text>
</g>
<!-- IL2&#45;&gt;RIB -->
<g id="edge19" class="edge">
<title>IL2&#45;&gt;RIB</title>
<path fill="none" stroke="gray" stroke-width="nan" d="M304.23,-1237.65C324.75,-1228.37 344.47,-1219.44 358.76,-1212.98"/>
<polygon fill="gray" stroke="gray" stroke-width="nan" points="nan,-nan nan,-nan nan,-nan nan,-nan"/>
</g>
<!-- RIC -->
<g id="node20" class="node">
<title>RIC</title>
<ellipse fill="none" stroke="black" cx="381.81" cy="-1124" rx="27" ry="18"/>
<text text-anchor="middle" x="381.81" y="-1118.58" font-family="Times New Roman,serif" font-size="14.00">RIC</text>
</g>
<!-- IL2&#45;&gt;RIC -->
<g id="edge20" class="edge">
<title>IL2&#45;&gt;RIC</title>
<path fill="none" stroke="red" stroke-width="2" d="M286.1,-1209.7C311.14,-1187.05 336.99,-1163.65 355.35,-1147.04"/>
<polygon fill="red" stroke="red" stroke-width="2" points="357.67,-1149.66 362.73,-1140.36 352.97,-1144.47 357.67,-1149.66"/>
</g>
<!-- RIG -->
<g id="node21" class="node">
<title>RIG</title>
<ellipse fill="none" stroke="black" cx="381.81" cy="-1045" rx="27.11" ry="18"/>
<text text-anchor="middle" x="381.81" y="-1039.58" font-family="Times New Roman,serif" font-size="14.00">RIG</text>
</g>
<!-- IL2&#45;&gt;RIG -->
<g id="edge21" class="edge">
<title>IL2&#45;&gt;RIG</title>
<path fill="none" stroke="gray" stroke-width="0.2" d="M269.35,-1194.58C307.66,-1141.54 349.21,-1084 349.21,-1084 349.21,-1084 354.95,-1076.91 361.54,-1068.78"/>
<polygon fill="gray" stroke="gray" stroke-width="0.2" points="364.19,-1071.07 367.77,-1061.1 358.75,-1066.66 364.19,-1071.07"/>
</g>
<!-- RIH -->
<g id="node22" class="node">
<title>RIH</title>
<ellipse fill="none" stroke="black" cx="381.81" cy="-966" rx="27" ry="18"/>
<text text-anchor="middle" x="381.81" y="-960.58" font-family="Times New Roman,serif" font-size="14.00">RIH</text>
</g>
<!-- IL2&#45;&gt;RIH -->
<g id="edge22" class="edge">
<title>IL2&#45;&gt;RIH</title>
<path fill="none" stroke="red" stroke-width="5" d="M249.11,-1182.94C284,-1110.78 329.75,-1021.36 349.16,-987.4"/>
<polygon fill="red" stroke="red" stroke-width="5" points="352.6,-990.15 354.2,-979.35 345.19,-985.51 352.6,-990.15"/>
</g>
<!-- RIP -->
<g id="node23" class="node">
<title>RIP</title>
<ellipse fill="none" stroke="black" cx="381.81" cy="-887" rx="27" ry="18"/>
<text text-anchor="middle" x="381.81" y="-881.58" font-family="Times New Roman,serif" font-size="14.00">RIP</text>
</g>
<!-- IL2&#45;&gt;RIP -->
<g id="edge23" class="edge">
<title>IL2&#45;&gt;RIP</title>
<path fill="none" stroke="black" stroke-width="5" d="M241.19,-1180.11C277.08,-1085.09 329.74,-953.13 350.01,-909.38"/>
<polygon fill="black" stroke="black" stroke-width="5" points="353.85,-911.48 354.62,-900.59 346.1,-907.42 353.85,-911.48"/>
</g>
<!-- RMD -->
<g id="node24" class="node">
<title>RMD</title>
<ellipse fill="none" stroke="black" cx="381.81" cy="-808" rx="31.6" ry="18"/>
<text text-anchor="middle" x="381.81" y="-802.58" font-family="Times New Roman,serif" font-size="14.00">RMD</text>
</g>
<!-- IL2&#45;&gt;RMD -->
<g id="edge24" class="edge">
<title>IL2&#45;&gt;RMD</title>
<path fill="none" stroke="red" stroke-width="5" d="M235.84,-1177.97C271.84,-1061.94 329.69,-885.03 349.31,-832.89"/>
<polygon fill="red" stroke="red" stroke-width="5" points="353.26,-834.78 353.16,-823.86 345.21,-831.35 353.26,-834.78"/>
</g>
<!-- RME -->
<g id="node25" class="node">
<title>RME</title>
<ellipse fill="none" stroke="black" cx="381.81" cy="-729" rx="30.61" ry="18"/>
<text text-anchor="middle" x="381.81" y="-723.58" font-family="Times New Roman,serif" font-size="14.00">RME</text>
</g>
<!-- IL2&#45;&gt;RME -->
<g id="edge25" class="edge">
<title>IL2&#45;&gt;RME</title>
<path fill="none" stroke="black" stroke-width="5" d="M235.15,-1177.98C276.93,-1027.79 349.21,-768 349.21,-768 349.21,-768 352.82,-763.54 357.6,-757.64"/>
<polygon fill="black" stroke="black" stroke-width="5" points="360.77,-760.68 363.67,-750.16 353.97,-755.17 360.77,-760.68"/>
</g>
<!-- RMG -->
<g id="node26" class="node">
<title>RMG</title>
<ellipse fill="none" stroke="black" cx="381.81" cy="-650" rx="32.1" ry="18"/>
<text text-anchor="middle" x="381.81" y="-644.58" font-family="Times New Roman,serif" font-size="14.00">RMG</text>
</g>
<!-- IL2&#45;&gt;RMG -->
<g id="edge26" class="edge">
<title>IL2&#45;&gt;RMG</title>
<path fill="none" stroke="gray" stroke-width="0.2" d="M228.71,-1176.23C265.36,-1016.01 335.12,-726.02 351.95,-669.89"/>
<polygon fill="gray" stroke="gray" stroke-width="0.2" points="355.15,-671.34 355.2,-660.74 348.55,-668.99 355.15,-671.34"/>
</g>
<!-- RMH -->
<g id="node27" class="node">
<title>RMH</title>
<ellipse fill="none" stroke="black" cx="381.81" cy="-571" rx="31.6" ry="18"/>
<text text-anchor="middle" x="381.81" y="-565.58" font-family="Times New Roman,serif" font-size="14.00">RMH</text>
</g>
<!-- IL2&#45;&gt;RMH -->
<g id="edge27" class="edge">
<title>IL2&#45;&gt;RMH</title>
<path fill="none" stroke="red" stroke-width="2" d="M228.71,-1176.26C268.98,-987.02 349.21,-610 349.21,-610 349.21,-610 353.81,-604.33 359.49,-597.31"/>
<polygon fill="red" stroke="red" stroke-width="2" points="362.11,-599.64 365.69,-589.67 356.67,-595.23 362.11,-599.64"/>
</g>
<!-- SIA -->
<g id="node28" class="node">
<title>SIA</title>
<ellipse fill="none" stroke="black" cx="381.81" cy="-492" rx="27" ry="18"/>
<text text-anchor="middle" x="381.81" y="-486.57" font-family="Times New Roman,serif" font-size="14.00">SIA</text>
</g>
<!-- IL2&#45;&gt;SIA -->
<g id="edge28" class="edge">
<title>IL2&#45;&gt;SIA</title>
<path fill="none" stroke="gray" stroke-width="0.2" d="M224.32,-1175.48C262.8,-963.3 349.21,-509.5 349.21,-509.5 349.21,-509.5 349.8,-508.77 350.82,-507.57"/>
<polygon fill="gray" stroke="gray" stroke-width="0.2" points="353.26,-510.09 357.31,-500.29 348.04,-505.42 353.26,-510.09"/>
</g>
<!-- SIB -->
<g id="node29" class="node">
<title>SIB</title>
<ellipse fill="none" stroke="black" cx="381.81" cy="-413" rx="27" ry="18"/>
<text text-anchor="middle" x="381.81" y="-407.57" font-family="Times New Roman,serif" font-size="14.00">SIB</text>
</g>
<!-- IL2&#45;&gt;SIB -->
<g id="edge29" class="edge">
<title>IL2&#45;&gt;SIB</title>
<path fill="none" stroke="gray" stroke-width="0.2" d="M224.54,-1175.61C263.13,-951.65 349.21,-452 349.21,-452 349.21,-452 354.95,-444.91 361.54,-436.78"/>
<polygon fill="gray" stroke="gray" stroke-width="0.2" points="364.19,-439.07 367.77,-429.1 358.75,-434.66 364.19,-439.07"/>
</g>
<!-- SMB -->
<g id="node30" class="node">
<title>SMB</title>
<ellipse fill="none" stroke="black" cx="381.81" cy="-334" rx="30.11" ry="18"/>
<text text-anchor="middle" x="381.81" y="-328.57" font-family="Times New Roman,serif" font-size="14.00">SMB</text>
</g>
<!-- IL2&#45;&gt;SMB -->
<g id="edge30" class="edge">
<title>IL2&#45;&gt;SMB</title>
<path fill="none" stroke="gray" stroke-width="0.2" d="M223.03,-1175.05C260.84,-934.77 349.21,-373 349.21,-373 349.21,-373 354.91,-365.97 361.47,-357.87"/>
<polygon fill="gray" stroke="gray" stroke-width="0.2" points="363.83,-360.52 367.4,-350.55 358.39,-356.11 363.83,-360.52"/>
</g>
<!-- URA -->
<g id="node31" class="node">
<title>URA</title>
<ellipse fill="none" stroke="black" cx="381.81" cy="-255" rx="30.11" ry="18"/>
<text text-anchor="middle" x="381.81" y="-249.57" font-family="Times New Roman,serif" font-size="14.00">URA</text>
</g>
<!-- IL2&#45;&gt;URA -->
<g id="edge31" class="edge">
<title>IL2&#45;&gt;URA</title>
<path fill="none" stroke="gray" stroke-width="5" d="M220.25,-1174.78C253.15,-937.2 333.49,-381.23 352.3,-280.51"/>
<polygon fill="gray" stroke="gray" stroke-width="5" points="356.54,-281.6 354.52,-270.87 348.02,-279.64 356.54,-281.6"/>
</g>
<!-- URB -->
<g id="node32" class="node">
<title>URB</title>
<ellipse fill="none" stroke="black" cx="381.81" cy="-176" rx="29.61" ry="18"/>
<text text-anchor="middle" x="381.81" y="-170.57" font-family="Times New Roman,serif" font-size="14.00">URB</text>
</g>
<!-- IL2&#45;&gt;URB -->
<g id="edge32" class="edge">
<title>IL2&#45;&gt;URB</title>
<path fill="none" stroke="red" stroke-width="0.2" d="M219.28,-1174.56C254.58,-899.58 349.21,-193.5 349.21,-193.5 349.21,-193.5 349.39,-193.27 349.73,-192.87"/>
<polygon fill="red" stroke="red" stroke-width="0.2" points="352.07,-195.51 356.02,-185.68 346.8,-190.9 352.07,-195.51"/>
</g>
<!-- URX -->
<g id="node33" class="node">
<title>URX</title>
<ellipse fill="none" stroke="black" cx="381.81" cy="-97" rx="30.11" ry="18"/>
<text text-anchor="middle" x="381.81" y="-91.58" font-family="Times New Roman,serif" font-size="14.00">URX</text>
</g>
<!-- IL2&#45;&gt;URX -->
<g id="edge33" class="edge">
<title>IL2&#45;&gt;URX</title>
<path fill="none" stroke="red" stroke-width="2" d="M218.43,-1174.4C250.61,-905.53 335.99,-220.5 353.22,-119.3"/>
<polygon fill="red" stroke="red" stroke-width="2" points="356.6,-120.26 355.28,-109.75 349.75,-118.79 356.6,-120.26"/>
</g>
<!-- URY -->
<g id="node34" class="node">
<title>URY</title>
<ellipse fill="none" stroke="black" cx="381.81" cy="-18" rx="30.11" ry="18"/>
<text text-anchor="middle" x="381.81" y="-12.57" font-family="Times New Roman,serif" font-size="14.00">URY</text>
</g>
<!-- IL2&#45;&gt;URY -->
<g id="edge34" class="edge">
<title>IL2&#45;&gt;URY</title>
<path fill="none" stroke="gray" stroke-width="0.2" d="M218.78,-1174.36C253.67,-875.44 349.21,-57 349.21,-57 349.21,-57 354.91,-49.97 361.47,-41.87"/>
<polygon fill="gray" stroke="gray" stroke-width="0.2" points="363.83,-44.52 367.4,-34.55 358.39,-40.11 363.83,-44.52"/>
</g>
<!-- ADE&#45;&gt;IL2 -->
<g id="edge35" class="edge">
<title>ADE&#45;&gt;IL2</title>
<path fill="none" stroke="red" stroke-width="5" d="M356.54,-2457.89C352.3,-2453.31 349.21,-2449.5 349.21,-2449.5 349.21,-2449.5 256.39,-1705.66 220.31,-1405.29"/>
<polygon fill="red" stroke="red" stroke-width="5" points="224.71,-1405.2 219.18,-1395.79 216.02,-1406.24 224.71,-1405.2"/>
</g>
<!-- ADL&#45;&gt;IL2 -->
<g id="edge36" class="edge">
<title>ADL&#45;&gt;IL2</title>
<path fill="none" stroke="gray" stroke-width="0.2" d="M356.54,-2378.89C352.3,-2374.31 349.21,-2370.5 349.21,-2370.5 349.21,-2370.5 256.79,-1680.87 220.54,-1399.29"/>
<polygon fill="gray" stroke="gray" stroke-width="0.2" points="224.06,-1399.22 219.32,-1389.74 217.12,-1400.11 224.06,-1399.22"/>
</g>
<!-- AIB&#45;&gt;IL2 -->
<g id="edge37" class="edge">
<title>AIB&#45;&gt;IL2</title>
<path fill="none" stroke="gray" stroke-width="0.2" d="M357.51,-2300.93C352.78,-2295.9 349.21,-2291.5 349.21,-2291.5 349.21,-2291.5 258.62,-1665.62 221.65,-1399.31"/>
<polygon fill="gray" stroke="gray" stroke-width="0.2" points="225.13,-1398.94 220.29,-1389.52 218.2,-1399.91 225.13,-1398.94"/>
</g>
<!-- AWC&#45;&gt;IL2 -->
<g id="edge38" class="edge">
<title>AWC&#45;&gt;IL2</title>
<path fill="none" stroke="red" stroke-width="2" d="M355.01,-1824.21C351.57,-1820.42 349.21,-1817.5 349.21,-1817.5 349.21,-1817.5 276.73,-1556.99 234.97,-1399.13"/>
<polygon fill="red" stroke="red" stroke-width="2" points="238.48,-1398.72 232.55,-1389.94 231.72,-1400.5 238.48,-1398.72"/>
</g>
<!-- CEP&#45;&gt;IL2 -->
<g id="edge39" class="edge">
<title>CEP&#45;&gt;IL2</title>
<path fill="none" stroke="gray" stroke-width="2" d="M356.86,-1668.23C352.45,-1663.5 349.21,-1659.5 349.21,-1659.5 349.21,-1659.5 288.06,-1507.28 245.74,-1395.9"/>
<polygon fill="gray" stroke="gray" stroke-width="2" points="249.08,-1394.84 242.26,-1386.73 242.53,-1397.32 249.08,-1394.84"/>
</g>
<!-- IL1&#45;&gt;IL2 -->
<g id="edge40" class="edge">
<title>IL1&#45;&gt;IL2</title>
<path fill="none" stroke="gray" stroke-width="5" d="M357.51,-1510.93C352.78,-1505.9 349.21,-1501.5 349.21,-1501.5 349.21,-1501.5 308.11,-1444.59 269.98,-1388.48"/>
<polygon fill="gray" stroke="gray" stroke-width="5" points="273.6,-1386.03 264.38,-1380.19 266.35,-1390.93 273.6,-1386.03"/>
</g>
<!-- OLL&#45;&gt;IL2 -->
<g id="edge41" class="edge">
<title>OLL&#45;&gt;IL2</title>
<path fill="none" stroke="gray" stroke-width="0.2" d="M357.37,-1430.2C338.68,-1416.81 311.38,-1393.65 285.11,-1369.45"/>
<polygon fill="gray" stroke="gray" stroke-width="0.2" points="287.66,-1367.05 277.95,-1362.81 282.9,-1372.18 287.66,-1367.05"/>
</g>
<!-- OLQ&#45;&gt;IL2 -->
<g id="edge42" class="edge">
<title>OLQ&#45;&gt;IL2</title>
<path fill="none" stroke="black" stroke-width="5" d="M351.49,-1360.15C340.09,-1356.74 326.28,-1351.62 311.77,-1345.57"/>
<polygon fill="black" stroke="black" stroke-width="5" points="313.73,-1341.65 302.82,-1341.7 310.26,-1349.68 313.73,-1341.65"/>
</g>
<!-- RIH&#45;&gt;IL2 -->
<g id="edge43" class="edge">
<title>RIH&#45;&gt;IL2</title>
<path fill="none" stroke="red" stroke-width="5" d="M376.15,-983.9C367.36,-1004.1 349.21,-1026.5 349.21,-1026.5 349.21,-1026.5 308.33,-1105.69 270.29,-1176.1"/>
<polygon fill="red" stroke="red" stroke-width="5" points="266.62,-1173.67 265.7,-1184.55 274.31,-1177.85 266.62,-1173.67"/>
</g>
<!-- RIP&#45;&gt;IL2 -->
<g id="edge44" class="edge">
<title>RIP&#45;&gt;IL2</title>
<path fill="none" stroke="gray" stroke-width="0.2" d="M376.15,-904.9C367.36,-925.1 349.21,-947.5 349.21,-947.5 349.21,-947.5 297.28,-1076.79 256.01,-1174.83"/>
<polygon fill="gray" stroke="gray" stroke-width="0.2" points="252.83,-1173.36 252.16,-1183.94 259.28,-1176.08 252.83,-1173.36"/>
</g>
<!-- RMD&#45;&gt;IL2 -->
<g id="edge45" class="edge">
<title>RMD&#45;&gt;IL2</title>
<path fill="none" stroke="gray" stroke-width="0.2" d="M376.15,-825.9C367.36,-846.1 349.21,-868.5 349.21,-868.5 349.21,-868.5 289.93,-1048.84 247.7,-1171.55"/>
<polygon fill="gray" stroke="gray" stroke-width="0.2" points="244.49,-1170.13 244.54,-1180.73 251.1,-1172.41 244.49,-1170.13"/>
</g>
<!-- RMG&#45;&gt;IL2 -->
<g id="edge46" class="edge">
<title>RMG&#45;&gt;IL2</title>
<path fill="none" stroke="gray" stroke-width="0.2" d="M376.15,-667.9C367.36,-688.1 349.21,-710.5 349.21,-710.5 349.21,-710.5 279.16,-1001.01 237.11,-1167.98"/>
<polygon fill="gray" stroke="gray" stroke-width="0.2" points="233.76,-1166.97 234.71,-1177.52 240.55,-1168.68 233.76,-1166.97"/>
</g>
<!-- SIA&#45;&gt;IL2 -->
<g id="edge47" class="edge">
<title>SIA&#45;&gt;IL2</title>
<path fill="none" stroke="gray" stroke-width="0.2" d="M376.15,-509.9C367.36,-530.1 349.21,-552.5 349.21,-552.5 349.21,-552.5 271.55,-960.37 230.69,-1166.34"/>
<polygon fill="gray" stroke="gray" stroke-width="0.2" points="227.29,-1165.51 228.77,-1176 234.15,-1166.87 227.29,-1165.51"/>
</g>
<!-- URA&#45;&gt;IL2 -->
<g id="edge48" class="edge">
<title>URA&#45;&gt;IL2</title>
<path fill="none" stroke="gray" stroke-width="2" d="M376.15,-272.9C367.36,-293.1 349.21,-315.5 349.21,-315.5 349.21,-315.5 264.06,-903.79 225.18,-1162.59"/>
<polygon fill="gray" stroke="gray" stroke-width="2" points="221.72,-1162 223.7,-1172.41 228.65,-1163.05 221.72,-1162"/>
</g>
<!-- URB&#45;&gt;IL2 -->
<g id="edge49" class="edge">
<title>URB&#45;&gt;IL2</title>
<path fill="none" stroke="gray" stroke-width="2" d="M376.15,-193.9C367.36,-214.1 349.21,-236.5 349.21,-236.5 349.21,-236.5 261.97,-887.43 223.77,-1162.21"/>
<polygon fill="gray" stroke="gray" stroke-width="2" points="220.32,-1161.62 222.41,-1172.01 227.25,-1162.59 220.32,-1161.62"/>
</g>
<!-- URX&#45;&gt;IL2 -->
<g id="edge50" class="edge">
<title>URX&#45;&gt;IL2</title>
<path fill="none" stroke="red" stroke-width="0.2" d="M376.15,-114.9C367.36,-135.1 349.21,-157.5 349.21,-157.5 349.21,-157.5 259.54,-876.13 222.21,-1164.57"/>
<polygon fill="red" stroke="red" stroke-width="0.2" points="218.76,-1163.98 220.95,-1174.35 225.7,-1164.88 218.76,-1163.98"/>
</g>
<!-- AQR -->
<g id="node35" class="node">
<title>AQR</title>
<ellipse fill="none" stroke="black" cx="30.61" cy="-1440" rx="30.61" ry="18"/>
<text text-anchor="middle" x="30.61" y="-1434.58" font-family="Times New Roman,serif" font-size="14.00">AQR</text>
</g>
<!-- AQR&#45;&gt;IL2 -->
<g id="edge51" class="edge">
<title>AQR&#45;&gt;IL2</title>
<path fill="none" stroke="gray" stroke-width="0.2" d="M48.16,-1424.85C64.58,-1409.81 91.08,-1385.55 117.62,-1361.26"/>
<polygon fill="gray" stroke="gray" stroke-width="0.2" points="119.86,-1363.96 124.87,-1354.62 115.13,-1358.79 119.86,-1363.96"/>
</g>
<!-- ASE -->
<g id="node36" class="node">
<title>ASE</title>
<ellipse fill="none" stroke="black" cx="30.61" cy="-1361" rx="28.11" ry="18"/>
<text text-anchor="middle" x="30.61" y="-1355.58" font-family="Times New Roman,serif" font-size="14.00">ASE</text>
</g>
<!-- ASE&#45;&gt;IL2 -->
<g id="edge52" class="edge">
<title>ASE&#45;&gt;IL2</title>
<path fill="none" stroke="gray" stroke-width="0.2" d="M54.17,-1350.67C65.89,-1345.31 81.15,-1338.32 97.45,-1330.86"/>
<polygon fill="gray" stroke="gray" stroke-width="0.2" points="98.68,-1334.15 106.32,-1326.81 95.77,-1327.79 98.68,-1334.15"/>
</g>
<!-- BDU -->
<g id="node37" class="node">
<title>BDU</title>
<ellipse fill="none" stroke="black" cx="30.61" cy="-1282" rx="29.61" ry="18"/>
<text text-anchor="middle" x="30.61" y="-1276.58" font-family="Times New Roman,serif" font-size="14.00">BDU</text>
</g>
<!-- BDU&#45;&gt;IL2 -->
<g id="edge53" class="edge">
<title>BDU&#45;&gt;IL2</title>
<path fill="none" stroke="gray" stroke-width="2" d="M60.5,-1282C67.59,-1282 75.63,-1282 84.19,-1282"/>
<polygon fill="gray" stroke="gray" stroke-width="2" points="84.04,-1285.5 94.04,-1282 84.04,-1278.5 84.04,-1285.5"/>
</g>
<!-- PVT -->
<g id="node38" class="node">
<title>PVT</title>
<ellipse fill="none" stroke="black" cx="30.61" cy="-1203" rx="28.61" ry="18"/>
<text text-anchor="middle" x="30.61" y="-1197.58" font-family="Times New Roman,serif" font-size="14.00">PVT</text>
</g>
<!-- PVT&#45;&gt;IL2 -->
<g id="edge54" class="edge">
<title>PVT&#45;&gt;IL2</title>
<path fill="none" stroke="gray" stroke-width="0.2" d="M54.53,-1213.49C66.21,-1218.84 81.35,-1225.77 97.5,-1233.16"/>
<polygon fill="gray" stroke="gray" stroke-width="0.2" points="95.73,-1236.2 106.28,-1237.18 98.64,-1229.83 95.73,-1236.2"/>
</g>
<!-- SMD -->
<g id="node39" class="node">
<title>SMD</title>
<ellipse fill="none" stroke="black" cx="30.61" cy="-1124" rx="30.61" ry="18"/>
<text text-anchor="middle" x="30.61" y="-1118.58" font-family="Times New Roman,serif" font-size="14.00">SMD</text>
</g>
<!-- SMD&#45;&gt;IL2 -->
<g id="edge55" class="edge">
<title>SMD&#45;&gt;IL2</title>
<path fill="none" stroke="gray" stroke-width="0.2" d="M48.16,-1139.15C64.58,-1154.19 91.08,-1178.45 117.62,-1202.74"/>
<polygon fill="gray" stroke="gray" stroke-width="0.2" points="115.13,-1205.21 124.87,-1209.38 119.86,-1200.04 115.13,-1205.21"/>
</g>
</g>
</svg>
