<?xml version="1.0" encoding="UTF-8" standalone="no"?>
<!DOCTYPE svg PUBLIC "-//W3C//DTD SVG 1.1//EN"
 "http://www.w3.org/Graphics/SVG/1.1/DTD/svg11.dtd">
<!-- Generated by graphviz version 11.0.0 (20240428.1522)
 -->
<!-- Pages: 1 -->
<svg width="425pt" height="1308pt"
 viewBox="0.00 0.00 425.41 1308.00" xmlns="http://www.w3.org/2000/svg" xmlns:xlink="http://www.w3.org/1999/xlink">
<g id="graph0" class="graph" transform="scale(1 1) rotate(0) translate(4 1304)">
<polygon fill="white" stroke="none" points="-4,4 -4,-1304 421.41,-1304 421.41,4 -4,4"/>
<!-- OLL -->
<g id="node1" class="node">
<title>OLL</title>
<ellipse fill="none" stroke="black" cx="209.2" cy="-729" rx="108" ry="108"/>
<text text-anchor="middle" x="209.2" y="-710" font-family="Times New Roman,serif" font-size="50.00">OLL</text>
</g>
<!-- OLL&#45;&gt;OLL -->
<g id="edge1" class="edge">
<title>OLL&#45;&gt;OLL</title>
<path fill="none" stroke="gray" stroke-width="2" d="M176.5,-832.39C178.44,-859.51 189.34,-880 209.2,-880 225.81,-880 236.15,-865.68 240.23,-845.14"/>
<polygon fill="gray" stroke="gray" stroke-width="2" points="243.68,-845.77 241.51,-835.39 236.74,-844.85 243.68,-845.77"/>
</g>
<!-- ADE -->
<g id="node2" class="node">
<title>ADE</title>
<ellipse fill="none" stroke="black" cx="385.3" cy="-1282" rx="29.11" ry="18"/>
<text text-anchor="middle" x="385.3" y="-1276.58" font-family="Times New Roman,serif" font-size="14.00">ADE</text>
</g>
<!-- OLL&#45;&gt;ADE -->
<g id="edge2" class="edge">
<title>OLL&#45;&gt;ADE</title>
<path fill="none" stroke="gray" stroke-width="2" d="M242.83,-831.85C285.03,-976.48 353.2,-1221.5 353.2,-1221.5 353.2,-1221.5 364.99,-1236.29 374.06,-1252.67"/>
<polygon fill="gray" stroke="gray" stroke-width="2" points="370.8,-1253.98 378.37,-1261.39 377.07,-1250.87 370.8,-1253.98"/>
</g>
<!-- AVE -->
<g id="node3" class="node">
<title>AVE</title>
<ellipse fill="none" stroke="black" cx="385.3" cy="-1203" rx="29.11" ry="18"/>
<text text-anchor="middle" x="385.3" y="-1197.58" font-family="Times New Roman,serif" font-size="14.00">AVE</text>
</g>
<!-- OLL&#45;&gt;AVE -->
<g id="edge3" class="edge">
<title>OLL&#45;&gt;AVE</title>
<path fill="none" stroke="black" stroke-width="nan" d="M248.43,-829.99C290.79,-952.64 353.2,-1142.5 353.2,-1142.5 353.2,-1142.5 371.06,-1164.9 379.71,-1185.1"/>
<polygon fill="black" stroke="black" stroke-width="nan" points="nan,-nan nan,-nan nan,-nan nan,-nan"/>
</g>
<!-- CEP -->
<g id="node4" class="node">
<title>CEP</title>
<ellipse fill="none" stroke="black" cx="385.3" cy="-1124" rx="28.11" ry="18"/>
<text text-anchor="middle" x="385.3" y="-1118.58" font-family="Times New Roman,serif" font-size="14.00">CEP</text>
</g>
<!-- OLL&#45;&gt;CEP -->
<g id="edge4" class="edge">
<title>OLL&#45;&gt;CEP</title>
<path fill="none" stroke="black" stroke-width="5" d="M256.04,-826.79C297.87,-925.74 353.2,-1063.5 353.2,-1063.5 353.2,-1063.5 363.67,-1076.63 372.46,-1091.85"/>
<polygon fill="black" stroke="black" stroke-width="5" points="368.45,-1093.62 376.89,-1100.54 376.25,-1089.65 368.45,-1093.62"/>
</g>
<!-- IL1 -->
<g id="node5" class="node">
<title>IL1</title>
<ellipse fill="none" stroke="black" cx="385.3" cy="-1045" rx="27" ry="18"/>
<text text-anchor="middle" x="385.3" y="-1039.58" font-family="Times New Roman,serif" font-size="14.00">IL1</text>
</g>
<!-- OLL&#45;&gt;IL1 -->
<g id="edge5" class="edge">
<title>OLL&#45;&gt;IL1</title>
<path fill="none" stroke="black" stroke-width="5" d="M266.72,-820.97C306.69,-894.4 353.2,-984.5 353.2,-984.5 353.2,-984.5 363.67,-997.63 372.46,-1012.85"/>
<polygon fill="black" stroke="black" stroke-width="5" points="368.45,-1014.62 376.89,-1021.54 376.25,-1010.65 368.45,-1014.62"/>
</g>
<!-- IL2 -->
<g id="node6" class="node">
<title>IL2</title>
<ellipse fill="none" stroke="black" cx="385.3" cy="-966" rx="27" ry="18"/>
<text text-anchor="middle" x="385.3" y="-960.58" font-family="Times New Roman,serif" font-size="14.00">IL2</text>
</g>
<!-- OLL&#45;&gt;IL2 -->
<g id="edge6" class="edge">
<title>OLL&#45;&gt;IL2</title>
<path fill="none" stroke="gray" stroke-width="0.2" d="M281.91,-809.46C317.59,-856.19 353.2,-905.5 353.2,-905.5 353.2,-905.5 366.15,-921.74 375.34,-939.04"/>
<polygon fill="gray" stroke="gray" stroke-width="0.2" points="372.09,-940.34 379.58,-947.83 378.39,-937.3 372.09,-940.34"/>
</g>
<!-- OLQ -->
<g id="node7" class="node">
<title>OLQ</title>
<ellipse fill="none" stroke="black" cx="385.3" cy="-887" rx="30.11" ry="18"/>
<text text-anchor="middle" x="385.3" y="-881.58" font-family="Times New Roman,serif" font-size="14.00">OLQ</text>
</g>
<!-- OLL&#45;&gt;OLQ -->
<g id="edge7" class="edge">
<title>OLL&#45;&gt;OLQ</title>
<path fill="none" stroke="gray" stroke-width="0.2" d="M297.25,-791.88C324.33,-816.45 351.4,-843.1 368,-862.32"/>
<polygon fill="gray" stroke="gray" stroke-width="0.2" points="365.17,-864.39 374.25,-869.84 370.55,-859.92 365.17,-864.39"/>
</g>
<!-- RIB -->
<g id="node8" class="node">
<title>RIB</title>
<ellipse fill="none" stroke="black" cx="385.3" cy="-808" rx="27" ry="18"/>
<text text-anchor="middle" x="385.3" y="-802.58" font-family="Times New Roman,serif" font-size="14.00">RIB</text>
</g>
<!-- OLL&#45;&gt;RIB -->
<g id="edge8" class="edge">
<title>OLL&#45;&gt;RIB</title>
<path fill="none" stroke="black" stroke-width="5" d="M312.99,-759.75C329.21,-767.61 344.68,-775.89 357.04,-783.53"/>
<polygon fill="black" stroke="black" stroke-width="5" points="354.48,-787.08 365.23,-788.99 359.34,-779.8 354.48,-787.08"/>
</g>
<!-- RIS -->
<g id="node9" class="node">
<title>RIS</title>
<ellipse fill="none" stroke="black" cx="385.3" cy="-729" rx="27" ry="18"/>
<text text-anchor="middle" x="385.3" y="-723.58" font-family="Times New Roman,serif" font-size="14.00">RIS</text>
</g>
<!-- OLL&#45;&gt;RIS -->
<g id="edge9" class="edge">
<title>OLL&#45;&gt;RIS</title>
<path fill="none" stroke="gray" stroke-width="2" d="M316.49,-713.23C328.76,-713.69 340.49,-714.6 350.64,-715.95"/>
<polygon fill="gray" stroke="gray" stroke-width="2" points="349.98,-719.39 360.42,-717.57 351.13,-712.48 349.98,-719.39"/>
</g>
<!-- RMD -->
<g id="node10" class="node">
<title>RMD</title>
<ellipse fill="none" stroke="black" cx="385.3" cy="-650" rx="31.6" ry="18"/>
<text text-anchor="middle" x="385.3" y="-644.58" font-family="Times New Roman,serif" font-size="14.00">RMD</text>
</g>
<!-- OLL&#45;&gt;RMD -->
<g id="edge10" class="edge">
<title>OLL&#45;&gt;RMD</title>
<path fill="none" stroke="black" stroke-width="5" d="M301.08,-671.65C313.97,-665.9 326.74,-660.67 338.28,-656.47"/>
<polygon fill="black" stroke="black" stroke-width="5" points="339.65,-660.63 347.72,-653.28 336.85,-652.34 339.65,-660.63"/>
</g>
<!-- RME -->
<g id="node11" class="node">
<title>RME</title>
<ellipse fill="none" stroke="black" cx="385.3" cy="-571" rx="30.61" ry="18"/>
<text text-anchor="middle" x="385.3" y="-565.58" font-family="Times New Roman,serif" font-size="14.00">RME</text>
</g>
<!-- OLL&#45;&gt;RME -->
<g id="edge11" class="edge">
<title>OLL&#45;&gt;RME</title>
<path fill="none" stroke="gray" stroke-width="5" d="M281.52,-648.39C304.15,-627.17 328.24,-606.11 347.41,-591.02"/>
<polygon fill="gray" stroke="gray" stroke-width="5" points="349.82,-594.68 355.14,-585.15 344.53,-587.71 349.82,-594.68"/>
</g>
<!-- RMG -->
<g id="node12" class="node">
<title>RMG</title>
<ellipse fill="none" stroke="black" cx="385.3" cy="-492" rx="32.1" ry="18"/>
<text text-anchor="middle" x="385.3" y="-486.57" font-family="Times New Roman,serif" font-size="14.00">RMG</text>
</g>
<!-- OLL&#45;&gt;RMG -->
<g id="edge12" class="edge">
<title>OLL&#45;&gt;RMG</title>
<path fill="none" stroke="gray" stroke-width="0.2" d="M265.08,-636.05C298.79,-586.14 337.72,-531.94 353.26,-511.07"/>
<polygon fill="gray" stroke="gray" stroke-width="0.2" points="356.02,-513.23 359.31,-503.17 350.46,-508.98 356.02,-513.23"/>
</g>
<!-- RMH -->
<g id="node13" class="node">
<title>RMH</title>
<ellipse fill="none" stroke="black" cx="385.3" cy="-413" rx="31.6" ry="18"/>
<text text-anchor="middle" x="385.3" y="-407.57" font-family="Times New Roman,serif" font-size="14.00">RMH</text>
</g>
<!-- OLL&#45;&gt;RMH -->
<g id="edge13" class="edge">
<title>OLL&#45;&gt;RMH</title>
<path fill="none" stroke="gray" stroke-width="0.2" d="M259.61,-633.28C300.95,-553.22 353.2,-452 353.2,-452 353.2,-452 358.58,-445.25 364.87,-437.37"/>
<polygon fill="gray" stroke="gray" stroke-width="0.2" points="367.61,-439.55 371.11,-429.55 362.13,-435.19 367.61,-439.55"/>
</g>
<!-- SMD -->
<g id="node14" class="node">
<title>SMD</title>
<ellipse fill="none" stroke="black" cx="385.3" cy="-334" rx="30.61" ry="18"/>
<text text-anchor="middle" x="385.3" y="-328.57" font-family="Times New Roman,serif" font-size="14.00">SMD</text>
</g>
<!-- OLL&#45;&gt;SMD -->
<g id="edge14" class="edge">
<title>OLL&#45;&gt;SMD</title>
<path fill="none" stroke="black" stroke-width="5" d="M245.18,-627.11C280.82,-532.75 333,-401.95 352.38,-358.53"/>
<polygon fill="black" stroke="black" stroke-width="5" points="356.22,-360.62 356.73,-349.72 348.38,-356.74 356.22,-360.62"/>
</g>
<!-- URA -->
<g id="node15" class="node">
<title>URA</title>
<ellipse fill="none" stroke="black" cx="385.3" cy="-255" rx="30.11" ry="18"/>
<text text-anchor="middle" x="385.3" y="-249.57" font-family="Times New Roman,serif" font-size="14.00">URA</text>
</g>
<!-- OLL&#45;&gt;URA -->
<g id="edge15" class="edge">
<title>OLL&#45;&gt;URA</title>
<path fill="none" stroke="gray" stroke-width="0.2" d="M243.91,-626.46C286.19,-497.86 353.2,-294 353.2,-294 353.2,-294 358.58,-287.25 364.87,-279.37"/>
<polygon fill="gray" stroke="gray" stroke-width="0.2" points="367.61,-281.55 371.11,-271.55 362.13,-277.19 367.61,-281.55"/>
</g>
<!-- URB -->
<g id="node16" class="node">
<title>URB</title>
<ellipse fill="none" stroke="black" cx="385.3" cy="-176" rx="29.61" ry="18"/>
<text text-anchor="middle" x="385.3" y="-170.57" font-family="Times New Roman,serif" font-size="14.00">URB</text>
</g>
<!-- OLL&#45;&gt;URB -->
<g id="edge16" class="edge">
<title>OLL&#45;&gt;URB</title>
<path fill="none" stroke="gray" stroke-width="0.2" d="M235.77,-623.99C272.88,-483.02 338.63,-245.94 355.97,-195.32"/>
<polygon fill="gray" stroke="gray" stroke-width="0.2" points="359.2,-196.66 359.69,-186.07 352.71,-194.05 359.2,-196.66"/>
</g>
<!-- URX -->
<g id="node17" class="node">
<title>URX</title>
<ellipse fill="none" stroke="black" cx="385.3" cy="-97" rx="30.11" ry="18"/>
<text text-anchor="middle" x="385.3" y="-91.58" font-family="Times New Roman,serif" font-size="14.00">URX</text>
</g>
<!-- OLL&#45;&gt;URX -->
<g id="edge17" class="edge">
<title>OLL&#45;&gt;URX</title>
<path fill="none" stroke="gray" stroke-width="0.2" d="M235.52,-624.01C276.59,-453.69 353.2,-136 353.2,-136 353.2,-136 358.58,-129.25 364.87,-121.37"/>
<polygon fill="gray" stroke="gray" stroke-width="0.2" points="367.61,-123.55 371.11,-113.55 362.13,-119.19 367.61,-123.55"/>
</g>
<!-- URY -->
<g id="node18" class="node">
<title>URY</title>
<ellipse fill="none" stroke="black" cx="385.3" cy="-18" rx="30.11" ry="18"/>
<text text-anchor="middle" x="385.3" y="-12.57" font-family="Times New Roman,serif" font-size="14.00">URY</text>
</g>
<!-- OLL&#45;&gt;URY -->
<g id="edge18" class="edge">
<title>OLL&#45;&gt;URY</title>
<path fill="none" stroke="black" stroke-width="5" d="M230.31,-622.59C265.47,-448.82 335.77,-117.52 355.16,-42.87"/>
<polygon fill="black" stroke="black" stroke-width="5" points="359.21,-44.6 357.96,-33.75 350.84,-42.03 359.21,-44.6"/>
</g>
<!-- ADE&#45;&gt;OLL -->
<g id="edge19" class="edge">
<title>ADE&#45;&gt;OLL</title>
<path fill="none" stroke="red" stroke-width="2" d="M360.1,-1272.55C356.09,-1268.12 353.2,-1264.5 353.2,-1264.5 353.2,-1264.5 280.73,-1003.99 238.97,-846.13"/>
<polygon fill="red" stroke="red" stroke-width="2" points="242.48,-845.72 236.54,-836.94 235.71,-847.5 242.48,-845.72"/>
</g>
<!-- AVE&#45;&gt;OLL -->
<g id="edge20" class="edge">
<title>AVE&#45;&gt;OLL</title>
<path fill="none" stroke="gray" stroke-width="0.2" d="M360.1,-1193.55C356.09,-1189.12 353.2,-1185.5 353.2,-1185.5 353.2,-1185.5 285.03,-978.12 242.82,-842.66"/>
<polygon fill="gray" stroke="gray" stroke-width="0.2" points="246.23,-841.83 239.92,-833.32 239.55,-843.91 246.23,-841.83"/>
</g>
<!-- CEP&#45;&gt;OLL -->
<g id="edge21" class="edge">
<title>CEP&#45;&gt;OLL</title>
<path fill="none" stroke="black" stroke-width="5" d="M360.42,-1114.89C356.24,-1110.31 353.2,-1106.5 353.2,-1106.5 353.2,-1106.5 293.16,-957.04 250.89,-845.95"/>
<polygon fill="black" stroke="black" stroke-width="5" points="255.03,-844.53 247.4,-836.73 246.85,-847.63 255.03,-844.53"/>
</g>
<!-- IL1&#45;&gt;OLL -->
<g id="edge22" class="edge">
<title>IL1&#45;&gt;OLL</title>
<path fill="none" stroke="gray" stroke-width="2" d="M361.05,-1036.58C356.55,-1031.7 353.2,-1027.5 353.2,-1027.5 353.2,-1027.5 300.21,-924.85 258.75,-839.68"/>
<polygon fill="gray" stroke="gray" stroke-width="2" points="261.94,-838.25 254.43,-830.78 255.64,-841.31 261.94,-838.25"/>
</g>
<!-- IL2&#45;&gt;OLL -->
<g id="edge23" class="edge">
<title>IL2&#45;&gt;OLL</title>
<path fill="none" stroke="gray" stroke-width="5" d="M361.05,-957.58C356.55,-952.7 353.2,-948.5 353.2,-948.5 353.2,-948.5 312.1,-891.59 273.97,-835.48"/>
<polygon fill="gray" stroke="gray" stroke-width="5" points="277.59,-833.03 268.37,-827.19 270.34,-837.93 277.59,-833.03"/>
</g>
<!-- OLQ&#45;&gt;OLL -->
<g id="edge24" class="edge">
<title>OLQ&#45;&gt;OLL</title>
<path fill="none" stroke="blue" stroke-width="0.2" d="M360.11,-876.62C341.48,-863.12 314.63,-840.24 288.78,-816.36"/>
<polygon fill="blue" stroke="blue" stroke-width="0.2" points="291.44,-814.07 281.74,-809.82 286.68,-819.19 291.44,-814.07"/>
</g>
<!-- RIB&#45;&gt;OLL -->
<g id="edge25" class="edge">
<title>RIB&#45;&gt;OLL</title>
<path fill="none" stroke="red" stroke-width="2" d="M358.16,-808.05C345.57,-804.49 329.58,-798.56 312.79,-791.45"/>
<polygon fill="red" stroke="red" stroke-width="2" points="314.42,-788.34 303.85,-787.55 311.63,-794.75 314.42,-788.34"/>
</g>
<!-- RIS&#45;&gt;OLL -->
<g id="edge26" class="edge">
<title>RIS&#45;&gt;OLL</title>
<path fill="none" stroke="gray" stroke-width="0.2" d="M363.41,-739.93C353.36,-742.01 340.45,-743.46 326.39,-744.29"/>
<polygon fill="gray" stroke="gray" stroke-width="0.2" points="326.62,-740.78 316.8,-744.76 326.95,-747.77 326.62,-740.78"/>
</g>
<!-- RMD&#45;&gt;OLL -->
<g id="edge27" class="edge">
<title>RMD&#45;&gt;OLL</title>
<path fill="none" stroke="gray" stroke-width="2" d="M369.64,-666.11C358.66,-674.07 342.5,-683.38 324.62,-692.48"/>
<polygon fill="gray" stroke="gray" stroke-width="2" points="323.1,-689.32 315.7,-696.9 326.21,-695.59 323.1,-689.32"/>
</g>
<!-- RME&#45;&gt;OLL -->
<g id="edge28" class="edge">
<title>RME&#45;&gt;OLL</title>
<path fill="none" stroke="gray" stroke-width="0.2" d="M374.19,-588.24C360.06,-606 332.97,-633.25 304.82,-659.21"/>
<polygon fill="gray" stroke="gray" stroke-width="0.2" points="302.49,-656.59 297.48,-665.92 307.22,-661.75 302.49,-656.59"/>
</g>
<!-- RMG&#45;&gt;OLL -->
<g id="edge29" class="edge">
<title>RMG&#45;&gt;OLL</title>
<path fill="none" stroke="gray" stroke-width="0.2" d="M379.71,-510.05C371.06,-530.53 353.2,-553.5 353.2,-553.5 353.2,-553.5 321.77,-596.81 288.37,-640.6"/>
<polygon fill="gray" stroke="gray" stroke-width="0.2" points="285.6,-638.46 282.3,-648.53 291.16,-642.71 285.6,-638.46"/>
</g>
<!-- SMD&#45;&gt;OLL -->
<g id="edge30" class="edge">
<title>SMD&#45;&gt;OLL</title>
<path fill="none" stroke="gray" stroke-width="0.2" d="M379.71,-351.9C371.06,-372.1 353.2,-394.5 353.2,-394.5 353.2,-394.5 301.27,-523.79 260,-621.83"/>
<polygon fill="gray" stroke="gray" stroke-width="0.2" points="256.82,-620.36 256.16,-630.94 263.27,-623.08 256.82,-620.36"/>
</g>
<!-- URB&#45;&gt;OLL -->
<g id="edge31" class="edge">
<title>URB&#45;&gt;OLL</title>
<path fill="none" stroke="gray" stroke-width="0.2" d="M379.71,-193.9C371.06,-214.1 353.2,-236.5 353.2,-236.5 353.2,-236.5 287.93,-471.11 245.59,-616.69"/>
<polygon fill="gray" stroke="gray" stroke-width="0.2" points="242.35,-615.28 242.91,-625.86 249.07,-617.23 242.35,-615.28"/>
</g>
<!-- URY&#45;&gt;OLL -->
<g id="edge32" class="edge">
<title>URY&#45;&gt;OLL</title>
<path fill="none" stroke="gray" stroke-width="2" d="M379.71,-35.9C371.06,-56.1 353.2,-78.5 353.2,-78.5 353.2,-78.5 279.8,-423.44 238.17,-611.14"/>
<polygon fill="gray" stroke="gray" stroke-width="2" points="234.76,-610.35 236.01,-620.87 241.6,-611.87 234.76,-610.35"/>
</g>
<!-- ADL -->
<g id="node19" class="node">
<title>ADL</title>
<ellipse fill="none" stroke="black" cx="32.6" cy="-1006" rx="29.11" ry="18"/>
<text text-anchor="middle" x="32.6" y="-1000.58" font-family="Times New Roman,serif" font-size="14.00">ADL</text>
</g>
<!-- ADL&#45;&gt;OLL -->
<g id="edge33" class="edge">
<title>ADL&#45;&gt;OLL</title>
<path fill="none" stroke="gray" stroke-width="0.2" d="M46.45,-990.14C55.2,-979.34 65.2,-967 65.2,-967 65.2,-967 108.54,-894.88 147.49,-830.04"/>
<polygon fill="gray" stroke="gray" stroke-width="0.2" points="150.4,-831.99 152.55,-821.62 144.4,-828.39 150.4,-831.99"/>
</g>
<!-- ASE -->
<g id="node20" class="node">
<title>ASE</title>
<ellipse fill="none" stroke="black" cx="32.6" cy="-927" rx="28.11" ry="18"/>
<text text-anchor="middle" x="32.6" y="-921.58" font-family="Times New Roman,serif" font-size="14.00">ASE</text>
</g>
<!-- ASE&#45;&gt;OLL -->
<g id="edge34" class="edge">
<title>ASE&#45;&gt;OLL</title>
<path fill="none" stroke="gray" stroke-width="0.2" d="M47.3,-911.46C65.39,-890.95 98.65,-853.23 130.26,-817.39"/>
<polygon fill="gray" stroke="gray" stroke-width="0.2" points="132.78,-819.82 136.77,-810 127.53,-815.19 132.78,-819.82"/>
</g>
<!-- AWC -->
<g id="node21" class="node">
<title>AWC</title>
<ellipse fill="none" stroke="black" cx="32.6" cy="-848" rx="32.6" ry="18"/>
<text text-anchor="middle" x="32.6" y="-842.58" font-family="Times New Roman,serif" font-size="14.00">AWC</text>
</g>
<!-- AWC&#45;&gt;OLL -->
<g id="edge35" class="edge">
<title>AWC&#45;&gt;OLL</title>
<path fill="none" stroke="gray" stroke-width="0.2" d="M53.97,-834.12C68.57,-824.17 89.41,-809.97 111.06,-795.21"/>
<polygon fill="gray" stroke="gray" stroke-width="0.2" points="112.85,-798.23 119.14,-789.7 108.9,-792.44 112.85,-798.23"/>
</g>
<!-- BDU -->
<g id="node22" class="node">
<title>BDU</title>
<ellipse fill="none" stroke="black" cx="32.6" cy="-769" rx="29.61" ry="18"/>
<text text-anchor="middle" x="32.6" y="-763.58" font-family="Times New Roman,serif" font-size="14.00">BDU</text>
</g>
<!-- BDU&#45;&gt;OLL -->
<g id="edge36" class="edge">
<title>BDU&#45;&gt;OLL</title>
<path fill="none" stroke="gray" stroke-width="0.2" d="M60.88,-762.75C70.34,-760.58 81.62,-758 93.68,-755.24"/>
<polygon fill="gray" stroke="gray" stroke-width="0.2" points="94.23,-758.7 103.19,-753.06 92.66,-751.88 94.23,-758.7"/>
</g>
<!-- DVC -->
<g id="node23" class="node">
<title>DVC</title>
<ellipse fill="none" stroke="black" cx="32.6" cy="-690" rx="30.11" ry="18"/>
<text text-anchor="middle" x="32.6" y="-684.58" font-family="Times New Roman,serif" font-size="14.00">DVC</text>
</g>
<!-- DVC&#45;&gt;OLL -->
<g id="edge37" class="edge">
<title>DVC&#45;&gt;OLL</title>
<path fill="none" stroke="gray" stroke-width="0.2" d="M61.27,-696.18C70.68,-698.28 81.85,-700.78 93.78,-703.44"/>
<polygon fill="gray" stroke="gray" stroke-width="0.2" points="92.67,-706.78 103.19,-705.54 94.2,-699.95 92.67,-706.78"/>
</g>
<!-- PVN -->
<g id="node24" class="node">
<title>PVN</title>
<ellipse fill="none" stroke="black" cx="32.6" cy="-611" rx="29.11" ry="18"/>
<text text-anchor="middle" x="32.6" y="-605.58" font-family="Times New Roman,serif" font-size="14.00">PVN</text>
</g>
<!-- PVN&#45;&gt;OLL -->
<g id="edge38" class="edge">
<title>PVN&#45;&gt;OLL</title>
<path fill="none" stroke="gray" stroke-width="0.2" d="M52.95,-624.08C67.52,-633.92 88.69,-648.23 110.73,-663.13"/>
<polygon fill="gray" stroke="gray" stroke-width="0.2" points="108.72,-665.99 118.96,-668.69 112.64,-660.19 108.72,-665.99"/>
</g>
<!-- RIM -->
<g id="node25" class="node">
<title>RIM</title>
<ellipse fill="none" stroke="black" cx="32.6" cy="-532" rx="28.11" ry="18"/>
<text text-anchor="middle" x="32.6" y="-526.58" font-family="Times New Roman,serif" font-size="14.00">RIM</text>
</g>
<!-- RIM&#45;&gt;OLL -->
<g id="edge39" class="edge">
<title>RIM&#45;&gt;OLL</title>
<path fill="none" stroke="gray" stroke-width="0.2" d="M47.3,-547.46C65.39,-567.87 98.65,-605.4 130.26,-641.06"/>
<polygon fill="gray" stroke="gray" stroke-width="0.2" points="127.52,-643.24 136.77,-648.41 132.76,-638.6 127.52,-643.24"/>
</g>
<!-- SAA -->
<g id="node26" class="node">
<title>SAA</title>
<ellipse fill="none" stroke="black" cx="32.6" cy="-453" rx="29.11" ry="18"/>
<text text-anchor="middle" x="32.6" y="-447.57" font-family="Times New Roman,serif" font-size="14.00">SAA</text>
</g>
<!-- SAA&#45;&gt;OLL -->
<g id="edge40" class="edge">
<title>SAA&#45;&gt;OLL</title>
<path fill="none" stroke="black" stroke-width="5" d="M46.45,-469.27C55.2,-480.34 65.2,-493 65.2,-493 65.2,-493 105.99,-560.31 144,-623.04"/>
<polygon fill="black" stroke="black" stroke-width="5" points="140.14,-625.12 149.07,-631.41 147.63,-620.59 140.14,-625.12"/>
</g>
</g>
</svg>
