<?xml version="1.0" encoding="UTF-8" standalone="no"?>
<!DOCTYPE svg PUBLIC "-//W3C//DTD SVG 1.1//EN"
 "http://www.w3.org/Graphics/SVG/1.1/DTD/svg11.dtd">
<!-- Generated by graphviz version 11.0.0 (20240428.1522)
 -->
<!-- Pages: 1 -->
<svg width="423pt" height="2572pt"
 viewBox="0.00 0.00 423.41 2572.00" xmlns="http://www.w3.org/2000/svg" xmlns:xlink="http://www.w3.org/1999/xlink">
<g id="graph0" class="graph" transform="scale(1 1) rotate(0) translate(4 2568)">
<polygon fill="white" stroke="none" points="-4,4 -4,-2568 419.41,-2568 419.41,4 -4,4"/>
<!-- OLQ -->
<g id="node1" class="node">
<title>OLQ</title>
<ellipse fill="none" stroke="black" cx="208.2" cy="-1282" rx="108" ry="108"/>
<text text-anchor="middle" x="208.2" y="-1263" font-family="Times New Roman,serif" font-size="50.00">OLQ</text>
</g>
<!-- OLQ&#45;&gt;OLQ -->
<g id="edge1" class="edge">
<title>OLQ&#45;&gt;OLQ</title>
<path fill="none" stroke="gray" stroke-width="0.2" d="M175.59,-1385.39C177.53,-1412.51 188.4,-1433 208.2,-1433 225.46,-1433 235.93,-1417.45 239.62,-1395.52"/>
<polygon fill="gray" stroke="gray" stroke-width="0.2" points="243.09,-1396.04 240.78,-1385.69 236.13,-1395.22 243.09,-1396.04"/>
</g>
<!-- ADA -->
<g id="node2" class="node">
<title>ADA</title>
<ellipse fill="none" stroke="black" cx="383.81" cy="-2546" rx="30.11" ry="18"/>
<text text-anchor="middle" x="383.81" y="-2540.57" font-family="Times New Roman,serif" font-size="14.00">ADA</text>
</g>
<!-- OLQ&#45;&gt;ADA -->
<g id="edge2" class="edge">
<title>OLQ&#45;&gt;ADA</title>
<path fill="none" stroke="gray" stroke-width="0.2" d="M222.92,-1389.32C258.71,-1684.57 352.2,-2485.5 352.2,-2485.5 352.2,-2485.5 364.95,-2501.74 373.99,-2519.04"/>
<polygon fill="gray" stroke="gray" stroke-width="0.2" points="370.71,-2520.3 378.16,-2527.83 377.03,-2517.29 370.71,-2520.3"/>
</g>
<!-- AVA -->
<g id="node3" class="node">
<title>AVA</title>
<ellipse fill="none" stroke="black" cx="383.81" cy="-2467" rx="30.11" ry="18"/>
<text text-anchor="middle" x="383.81" y="-2461.57" font-family="Times New Roman,serif" font-size="14.00">AVA</text>
</g>
<!-- OLQ&#45;&gt;AVA -->
<g id="edge3" class="edge">
<title>OLQ&#45;&gt;AVA</title>
<path fill="none" stroke="gray" stroke-width="0.2" d="M222.59,-1389.3C258.14,-1674.19 352.2,-2428 352.2,-2428 352.2,-2428 357.5,-2434.75 363.69,-2442.63"/>
<polygon fill="gray" stroke="gray" stroke-width="0.2" points="360.89,-2444.74 369.82,-2450.45 366.4,-2440.42 360.89,-2444.74"/>
</g>
<!-- AVD -->
<g id="node4" class="node">
<title>AVD</title>
<ellipse fill="none" stroke="black" cx="383.81" cy="-2388" rx="30.11" ry="18"/>
<text text-anchor="middle" x="383.81" y="-2382.57" font-family="Times New Roman,serif" font-size="14.00">AVD</text>
</g>
<!-- OLQ&#45;&gt;AVD -->
<g id="edge4" class="edge">
<title>OLQ&#45;&gt;AVD</title>
<path fill="none" stroke="gray" stroke-width="0.2" d="M223.57,-1389.19C259.83,-1659.77 352.2,-2349 352.2,-2349 352.2,-2349 357.5,-2355.75 363.69,-2363.63"/>
<polygon fill="gray" stroke="gray" stroke-width="0.2" points="360.89,-2365.74 369.82,-2371.45 366.4,-2361.42 360.89,-2365.74"/>
</g>
<!-- AVE -->
<g id="node5" class="node">
<title>AVE</title>
<ellipse fill="none" stroke="black" cx="383.81" cy="-2309" rx="29.11" ry="18"/>
<text text-anchor="middle" x="383.81" y="-2303.57" font-family="Times New Roman,serif" font-size="14.00">AVE</text>
</g>
<!-- OLQ&#45;&gt;AVE -->
<g id="edge5" class="edge">
<title>OLQ&#45;&gt;AVE</title>
<path fill="none" stroke="gray" stroke-width="5" d="M224.71,-1389.14C261.73,-1644.91 352.2,-2270 352.2,-2270 352.2,-2270 355.7,-2274.46 360.33,-2280.36"/>
<polygon fill="gray" stroke="gray" stroke-width="5" points="356.54,-2282.61 366.16,-2287.78 363.42,-2277.21 356.54,-2282.61"/>
</g>
<!-- AVF -->
<g id="node6" class="node">
<title>AVF</title>
<ellipse fill="none" stroke="black" cx="383.81" cy="-2230" rx="29.11" ry="18"/>
<text text-anchor="middle" x="383.81" y="-2224.57" font-family="Times New Roman,serif" font-size="14.00">AVF</text>
</g>
<!-- OLQ&#45;&gt;AVF -->
<g id="edge6" class="edge">
<title>OLQ&#45;&gt;AVF</title>
<path fill="none" stroke="gray" stroke-width="0.2" d="M226.03,-1388.95C263.83,-1629.23 352.2,-2191 352.2,-2191 352.2,-2191 357.5,-2197.75 363.69,-2205.63"/>
<polygon fill="gray" stroke="gray" stroke-width="0.2" points="360.89,-2207.74 369.82,-2213.45 366.4,-2203.42 360.89,-2207.74"/>
</g>
<!-- AVJ -->
<g id="node7" class="node">
<title>AVJ</title>
<ellipse fill="none" stroke="black" cx="383.81" cy="-2151" rx="27.11" ry="18"/>
<text text-anchor="middle" x="383.81" y="-2145.57" font-family="Times New Roman,serif" font-size="14.00">AVJ</text>
</g>
<!-- OLQ&#45;&gt;AVJ -->
<g id="edge7" class="edge">
<title>OLQ&#45;&gt;AVJ</title>
<path fill="none" stroke="gray" stroke-width="2" d="M229.54,-1388.08C269.02,-1607.69 352.2,-2090.5 352.2,-2090.5 352.2,-2090.5 363.81,-2105.29 372.72,-2121.67"/>
<polygon fill="gray" stroke="gray" stroke-width="2" points="369.44,-2122.92 376.97,-2130.38 375.73,-2119.86 369.44,-2122.92"/>
</g>
<!-- BDU -->
<g id="node8" class="node">
<title>BDU</title>
<ellipse fill="none" stroke="black" cx="383.81" cy="-2072" rx="29.61" ry="18"/>
<text text-anchor="middle" x="383.81" y="-2066.57" font-family="Times New Roman,serif" font-size="14.00">BDU</text>
</g>
<!-- OLQ&#45;&gt;BDU -->
<g id="edge8" class="edge">
<title>OLQ&#45;&gt;BDU</title>
<path fill="none" stroke="blue" stroke-width="2" d="M231.71,-1387.7C271.98,-1590.16 352.2,-2011.5 352.2,-2011.5 352.2,-2011.5 363.81,-2026.29 372.72,-2042.67"/>
<polygon fill="blue" stroke="blue" stroke-width="2" points="369.44,-2043.92 376.97,-2051.38 375.73,-2040.86 369.44,-2043.92"/>
</g>
<!-- CEP -->
<g id="node9" class="node">
<title>CEP</title>
<ellipse fill="none" stroke="black" cx="383.81" cy="-1993" rx="28.11" ry="18"/>
<text text-anchor="middle" x="383.81" y="-1987.58" font-family="Times New Roman,serif" font-size="14.00">CEP</text>
</g>
<!-- OLQ&#45;&gt;CEP -->
<g id="edge9" class="edge">
<title>OLQ&#45;&gt;CEP</title>
<path fill="none" stroke="gray" stroke-width="5" d="M234.36,-1387.17C275.39,-1571.53 352.2,-1932.5 352.2,-1932.5 352.2,-1932.5 362.51,-1945.63 371.16,-1960.85"/>
<polygon fill="gray" stroke="gray" stroke-width="5" points="367.11,-1962.54 375.5,-1969.53 374.93,-1958.62 367.11,-1962.54"/>
</g>
<!-- DVA -->
<g id="node10" class="node">
<title>DVA</title>
<ellipse fill="none" stroke="black" cx="383.81" cy="-1914" rx="30.11" ry="18"/>
<text text-anchor="middle" x="383.81" y="-1908.58" font-family="Times New Roman,serif" font-size="14.00">DVA</text>
</g>
<!-- OLQ&#45;&gt;DVA -->
<g id="edge10" class="edge">
<title>OLQ&#45;&gt;DVA</title>
<path fill="none" stroke="gray" stroke-width="0.2" d="M237.63,-1386.19C279.33,-1551.3 352.2,-1853.5 352.2,-1853.5 352.2,-1853.5 364.95,-1869.74 373.99,-1887.04"/>
<polygon fill="gray" stroke="gray" stroke-width="0.2" points="370.71,-1888.3 378.16,-1895.83 377.03,-1885.29 370.71,-1888.3"/>
</g>
<!-- IL1 -->
<g id="node11" class="node">
<title>IL1</title>
<ellipse fill="none" stroke="black" cx="383.81" cy="-1835" rx="27" ry="18"/>
<text text-anchor="middle" x="383.81" y="-1829.58" font-family="Times New Roman,serif" font-size="14.00">IL1</text>
</g>
<!-- OLQ&#45;&gt;IL1 -->
<g id="edge11" class="edge">
<title>OLQ&#45;&gt;IL1</title>
<path fill="none" stroke="black" stroke-width="5" d="M241.83,-1384.85C284.04,-1529.48 352.2,-1774.5 352.2,-1774.5 352.2,-1774.5 362.51,-1787.63 371.16,-1802.85"/>
<polygon fill="black" stroke="black" stroke-width="5" points="367.11,-1804.54 375.5,-1811.53 374.93,-1800.62 367.11,-1804.54"/>
</g>
<!-- IL2 -->
<g id="node12" class="node">
<title>IL2</title>
<ellipse fill="none" stroke="black" cx="383.81" cy="-1756" rx="27" ry="18"/>
<text text-anchor="middle" x="383.81" y="-1750.58" font-family="Times New Roman,serif" font-size="14.00">IL2</text>
</g>
<!-- OLQ&#45;&gt;IL2 -->
<g id="edge12" class="edge">
<title>OLQ&#45;&gt;IL2</title>
<path fill="none" stroke="black" stroke-width="5" d="M247.43,-1382.99C289.79,-1505.64 352.2,-1695.5 352.2,-1695.5 352.2,-1695.5 362.51,-1708.63 371.16,-1723.85"/>
<polygon fill="black" stroke="black" stroke-width="5" points="367.11,-1725.54 375.5,-1732.53 374.93,-1721.62 367.11,-1725.54"/>
</g>
<!-- OLL -->
<g id="node13" class="node">
<title>OLL</title>
<ellipse fill="none" stroke="black" cx="383.81" cy="-1677" rx="28.61" ry="18"/>
<text text-anchor="middle" x="383.81" y="-1671.58" font-family="Times New Roman,serif" font-size="14.00">OLL</text>
</g>
<!-- OLQ&#45;&gt;OLL -->
<g id="edge13" class="edge">
<title>OLQ&#45;&gt;OLL</title>
<path fill="none" stroke="blue" stroke-width="0.2" d="M255.04,-1379.79C296.87,-1478.74 352.2,-1616.5 352.2,-1616.5 352.2,-1616.5 364.95,-1632.74 373.99,-1650.04"/>
<polygon fill="blue" stroke="blue" stroke-width="0.2" points="370.71,-1651.3 378.16,-1658.83 377.03,-1648.29 370.71,-1651.3"/>
</g>
<!-- PVN -->
<g id="node14" class="node">
<title>PVN</title>
<ellipse fill="none" stroke="black" cx="383.81" cy="-1598" rx="29.11" ry="18"/>
<text text-anchor="middle" x="383.81" y="-1592.58" font-family="Times New Roman,serif" font-size="14.00">PVN</text>
</g>
<!-- OLQ&#45;&gt;PVN -->
<g id="edge14" class="edge">
<title>OLQ&#45;&gt;PVN</title>
<path fill="none" stroke="gray" stroke-width="0.2" d="M265.72,-1373.97C305.69,-1447.4 352.2,-1537.5 352.2,-1537.5 352.2,-1537.5 364.95,-1553.74 373.99,-1571.04"/>
<polygon fill="gray" stroke="gray" stroke-width="0.2" points="370.71,-1572.3 378.16,-1579.83 377.03,-1569.29 370.71,-1572.3"/>
</g>
<!-- PVP -->
<g id="node15" class="node">
<title>PVP</title>
<ellipse fill="none" stroke="black" cx="383.81" cy="-1519" rx="28.11" ry="18"/>
<text text-anchor="middle" x="383.81" y="-1513.58" font-family="Times New Roman,serif" font-size="14.00">PVP</text>
</g>
<!-- OLQ&#45;&gt;PVP -->
<g id="edge15" class="edge">
<title>OLQ&#45;&gt;PVP</title>
<path fill="none" stroke="gray" stroke-width="2" d="M280.91,-1362.46C316.59,-1409.19 352.2,-1458.5 352.2,-1458.5 352.2,-1458.5 363.81,-1473.29 372.72,-1489.67"/>
<polygon fill="gray" stroke="gray" stroke-width="2" points="369.44,-1490.92 376.97,-1498.38 375.73,-1487.86 369.44,-1490.92"/>
</g>
<!-- PVR -->
<g id="node16" class="node">
<title>PVR</title>
<ellipse fill="none" stroke="black" cx="383.81" cy="-1440" rx="29.11" ry="18"/>
<text text-anchor="middle" x="383.81" y="-1434.58" font-family="Times New Roman,serif" font-size="14.00">PVR</text>
</g>
<!-- OLQ&#45;&gt;PVR -->
<g id="edge16" class="edge">
<title>OLQ&#45;&gt;PVR</title>
<path fill="none" stroke="gray" stroke-width="2" d="M296.26,-1345.11C322.24,-1368.77 348.2,-1394.33 364.81,-1413.31"/>
<polygon fill="gray" stroke="gray" stroke-width="2" points="361.97,-1415.37 371.07,-1420.8 367.34,-1410.88 361.97,-1415.37"/>
</g>
<!-- RIA -->
<g id="node17" class="node">
<title>RIA</title>
<ellipse fill="none" stroke="black" cx="383.81" cy="-1361" rx="27" ry="18"/>
<text text-anchor="middle" x="383.81" y="-1355.58" font-family="Times New Roman,serif" font-size="14.00">RIA</text>
</g>
<!-- OLQ&#45;&gt;RIA -->
<g id="edge17" class="edge">
<title>OLQ&#45;&gt;RIA</title>
<path fill="none" stroke="gray" stroke-width="2" d="M306.91,-1326.46C322.18,-1333.41 336.99,-1340.15 349.41,-1345.8"/>
<polygon fill="gray" stroke="gray" stroke-width="2" points="347.66,-1348.85 358.21,-1349.81 350.56,-1342.48 347.66,-1348.85"/>
</g>
<!-- RIC -->
<g id="node18" class="node">
<title>RIC</title>
<ellipse fill="none" stroke="black" cx="383.81" cy="-1282" rx="27" ry="18"/>
<text text-anchor="middle" x="383.81" y="-1276.58" font-family="Times New Roman,serif" font-size="14.00">RIC</text>
</g>
<!-- OLQ&#45;&gt;RIC -->
<g id="edge18" class="edge">
<title>OLQ&#45;&gt;RIC</title>
<path fill="none" stroke="black" stroke-width="5" d="M315.19,-1266.23C326.17,-1266.64 336.72,-1267.42 346.08,-1268.55"/>
<polygon fill="black" stroke="black" stroke-width="5" points="345.25,-1272.84 355.81,-1270.09 346.62,-1264.2 345.25,-1272.84"/>
</g>
<!-- RIG -->
<g id="node19" class="node">
<title>RIG</title>
<ellipse fill="none" stroke="black" cx="383.81" cy="-1203" rx="27.11" ry="18"/>
<text text-anchor="middle" x="383.81" y="-1197.58" font-family="Times New Roman,serif" font-size="14.00">RIG</text>
</g>
<!-- OLQ&#45;&gt;RIG -->
<g id="edge19" class="edge">
<title>OLQ&#45;&gt;RIG</title>
<path fill="none" stroke="gray" stroke-width="0.2" d="M300.07,-1224.54C316.71,-1217.1 333.14,-1210.54 346.93,-1205.98"/>
<polygon fill="gray" stroke="gray" stroke-width="0.2" points="347.66,-1209.42 356.18,-1203.11 345.59,-1202.73 347.66,-1209.42"/>
</g>
<!-- RIH -->
<g id="node20" class="node">
<title>RIH</title>
<ellipse fill="none" stroke="black" cx="383.81" cy="-1124" rx="27" ry="18"/>
<text text-anchor="middle" x="383.81" y="-1118.58" font-family="Times New Roman,serif" font-size="14.00">RIH</text>
</g>
<!-- OLQ&#45;&gt;RIH -->
<g id="edge20" class="edge">
<title>OLQ&#45;&gt;RIH</title>
<path fill="none" stroke="red" stroke-width="5" d="M280.57,-1201.16C303.71,-1179.4 328.36,-1157.85 347.66,-1142.73"/>
<polygon fill="red" stroke="red" stroke-width="5" points="350.03,-1146.43 355.39,-1136.92 344.77,-1139.43 350.03,-1146.43"/>
</g>
<!-- RIM -->
<g id="node21" class="node">
<title>RIM</title>
<ellipse fill="none" stroke="black" cx="383.81" cy="-1045" rx="28.11" ry="18"/>
<text text-anchor="middle" x="383.81" y="-1039.58" font-family="Times New Roman,serif" font-size="14.00">RIM</text>
</g>
<!-- OLQ&#45;&gt;RIM -->
<g id="edge21" class="edge">
<title>OLQ&#45;&gt;RIM</title>
<path fill="none" stroke="gray" stroke-width="0.2" d="M272.55,-1194.73C310.8,-1142.04 352.2,-1085 352.2,-1085 352.2,-1085 357.76,-1077.73 364.15,-1069.39"/>
<polygon fill="gray" stroke="gray" stroke-width="0.2" points="366.88,-1071.58 370.18,-1061.51 361.32,-1067.33 366.88,-1071.58"/>
</g>
<!-- RIP -->
<g id="node22" class="node">
<title>RIP</title>
<ellipse fill="none" stroke="black" cx="383.81" cy="-966" rx="27" ry="18"/>
<text text-anchor="middle" x="383.81" y="-960.58" font-family="Times New Roman,serif" font-size="14.00">RIP</text>
</g>
<!-- OLQ&#45;&gt;RIP -->
<g id="edge22" class="edge">
<title>OLQ&#45;&gt;RIP</title>
<path fill="none" stroke="gray" stroke-width="5" d="M252.11,-1183.24C286.83,-1111.66 332.31,-1023.06 351.56,-988.9"/>
<polygon fill="gray" stroke="gray" stroke-width="5" points="355.21,-991.31 356.68,-980.49 347.74,-986.75 355.21,-991.31"/>
</g>
<!-- RIR -->
<g id="node23" class="node">
<title>RIR</title>
<ellipse fill="none" stroke="black" cx="383.81" cy="-887" rx="27" ry="18"/>
<text text-anchor="middle" x="383.81" y="-881.58" font-family="Times New Roman,serif" font-size="14.00">RIR</text>
</g>
<!-- OLQ&#45;&gt;RIR -->
<g id="edge23" class="edge">
<title>OLQ&#45;&gt;RIR</title>
<path fill="none" stroke="gray" stroke-width="0.2" d="M244.19,-1180.11C286.52,-1068.02 352.2,-904.5 352.2,-904.5 352.2,-904.5 352.51,-904.11 353.06,-903.43"/>
<polygon fill="gray" stroke="gray" stroke-width="0.2" points="355.58,-905.87 359.42,-896 350.26,-901.32 355.58,-905.87"/>
</g>
<!-- RIV -->
<g id="node24" class="node">
<title>RIV</title>
<ellipse fill="none" stroke="black" cx="383.81" cy="-808" rx="27" ry="18"/>
<text text-anchor="middle" x="383.81" y="-802.58" font-family="Times New Roman,serif" font-size="14.00">RIV</text>
</g>
<!-- OLQ&#45;&gt;RIV -->
<g id="edge24" class="edge">
<title>OLQ&#45;&gt;RIV</title>
<path fill="none" stroke="gray" stroke-width="0.2" d="M238.83,-1177.97C280.72,-1042.95 352.2,-825.5 352.2,-825.5 352.2,-825.5 352.51,-825.11 353.06,-824.43"/>
<polygon fill="gray" stroke="gray" stroke-width="0.2" points="355.58,-826.87 359.42,-817 350.26,-822.32 355.58,-826.87"/>
</g>
<!-- RMD -->
<g id="node25" class="node">
<title>RMD</title>
<ellipse fill="none" stroke="black" cx="383.81" cy="-729" rx="31.6" ry="18"/>
<text text-anchor="middle" x="383.81" y="-723.58" font-family="Times New Roman,serif" font-size="14.00">RMD</text>
</g>
<!-- OLQ&#45;&gt;RMD -->
<g id="edge25" class="edge">
<title>OLQ&#45;&gt;RMD</title>
<path fill="none" stroke="black" stroke-width="5" d="M234.77,-1176.99C270.6,-1040.9 333.12,-815.25 352.35,-754.89"/>
<polygon fill="black" stroke="black" stroke-width="5" points="356.41,-756.54 355.69,-745.65 348.18,-753.57 356.41,-756.54"/>
</g>
<!-- RME -->
<g id="node26" class="node">
<title>RME</title>
<ellipse fill="none" stroke="black" cx="383.81" cy="-650" rx="30.61" ry="18"/>
<text text-anchor="middle" x="383.81" y="-644.58" font-family="Times New Roman,serif" font-size="14.00">RME</text>
</g>
<!-- OLQ&#45;&gt;RME -->
<g id="edge26" class="edge">
<title>OLQ&#45;&gt;RME</title>
<path fill="none" stroke="black" stroke-width="5" d="M234.52,-1177.01C275.6,-1006.69 352.2,-689 352.2,-689 352.2,-689 355.7,-684.54 360.33,-678.64"/>
<polygon fill="black" stroke="black" stroke-width="5" points="363.42,-681.79 366.16,-671.22 356.54,-676.39 363.42,-681.79"/>
</g>
<!-- RMH -->
<g id="node27" class="node">
<title>RMH</title>
<ellipse fill="none" stroke="black" cx="383.81" cy="-571" rx="31.6" ry="18"/>
<text text-anchor="middle" x="383.81" y="-565.58" font-family="Times New Roman,serif" font-size="14.00">RMH</text>
</g>
<!-- OLQ&#45;&gt;RMH -->
<g id="edge27" class="edge">
<title>OLQ&#45;&gt;RMH</title>
<path fill="none" stroke="red" stroke-width="5" d="M231.71,-1176.26C271.98,-987.02 352.2,-610 352.2,-610 352.2,-610 355.7,-605.54 360.33,-599.64"/>
<polygon fill="red" stroke="red" stroke-width="5" points="363.42,-602.79 366.16,-592.22 356.54,-597.39 363.42,-602.79"/>
</g>
<!-- SIA -->
<g id="node28" class="node">
<title>SIA</title>
<ellipse fill="none" stroke="black" cx="383.81" cy="-492" rx="27" ry="18"/>
<text text-anchor="middle" x="383.81" y="-486.57" font-family="Times New Roman,serif" font-size="14.00">SIA</text>
</g>
<!-- OLQ&#45;&gt;SIA -->
<g id="edge28" class="edge">
<title>OLQ&#45;&gt;SIA</title>
<path fill="none" stroke="gray" stroke-width="2" d="M229.39,-1175.99C268.81,-968.98 352.2,-531 352.2,-531 352.2,-531 356.78,-525.17 362.39,-518.01"/>
<polygon fill="gray" stroke="gray" stroke-width="2" points="365.07,-520.27 368.49,-510.24 359.56,-515.95 365.07,-520.27"/>
</g>
<!-- SIB -->
<g id="node29" class="node">
<title>SIB</title>
<ellipse fill="none" stroke="black" cx="383.81" cy="-413" rx="27" ry="18"/>
<text text-anchor="middle" x="383.81" y="-407.57" font-family="Times New Roman,serif" font-size="14.00">SIB</text>
</g>
<!-- OLQ&#45;&gt;SIB -->
<g id="edge29" class="edge">
<title>OLQ&#45;&gt;SIB</title>
<path fill="none" stroke="gray" stroke-width="5" d="M227.53,-1175.61C266.12,-951.65 352.2,-452 352.2,-452 352.2,-452 355.8,-447.42 360.53,-441.39"/>
<polygon fill="gray" stroke="gray" stroke-width="5" points="363.78,-444.34 366.51,-433.77 356.89,-438.94 363.78,-444.34"/>
</g>
<!-- SMB -->
<g id="node30" class="node">
<title>SMB</title>
<ellipse fill="none" stroke="black" cx="383.81" cy="-334" rx="30.11" ry="18"/>
<text text-anchor="middle" x="383.81" y="-328.57" font-family="Times New Roman,serif" font-size="14.00">SMB</text>
</g>
<!-- OLQ&#45;&gt;SMB -->
<g id="edge30" class="edge">
<title>OLQ&#45;&gt;SMB</title>
<path fill="none" stroke="gray" stroke-width="2" d="M226.03,-1175.05C263.83,-934.77 352.2,-373 352.2,-373 352.2,-373 356.65,-367.33 362.16,-360.31"/>
<polygon fill="gray" stroke="gray" stroke-width="2" points="364.72,-362.72 368.14,-352.69 359.21,-358.4 364.72,-362.72"/>
</g>
<!-- URA -->
<g id="node31" class="node">
<title>URA</title>
<ellipse fill="none" stroke="black" cx="383.81" cy="-255" rx="30.11" ry="18"/>
<text text-anchor="middle" x="383.81" y="-249.57" font-family="Times New Roman,serif" font-size="14.00">URA</text>
</g>
<!-- OLQ&#45;&gt;URA -->
<g id="edge31" class="edge">
<title>OLQ&#45;&gt;URA</title>
<path fill="none" stroke="gray" stroke-width="0.2" d="M223.24,-1174.78C256.84,-932.12 339.94,-357.3 356.01,-274.95"/>
<polygon fill="gray" stroke="gray" stroke-width="0.2" points="359.36,-275.97 358.33,-265.42 352.56,-274.31 359.36,-275.97"/>
</g>
<!-- URB -->
<g id="node32" class="node">
<title>URB</title>
<ellipse fill="none" stroke="black" cx="383.81" cy="-176" rx="29.61" ry="18"/>
<text text-anchor="middle" x="383.81" y="-170.57" font-family="Times New Roman,serif" font-size="14.00">URB</text>
</g>
<!-- OLQ&#45;&gt;URB -->
<g id="edge32" class="edge">
<title>OLQ&#45;&gt;URB</title>
<path fill="none" stroke="gray" stroke-width="0.2" d="M222.27,-1174.56C255.3,-917.3 340.25,-282.73 356.38,-195.68"/>
<polygon fill="gray" stroke="gray" stroke-width="0.2" points="359.76,-196.62 358.63,-186.09 352.94,-195.03 359.76,-196.62"/>
</g>
<!-- URX -->
<g id="node33" class="node">
<title>URX</title>
<ellipse fill="none" stroke="black" cx="383.81" cy="-97" rx="30.11" ry="18"/>
<text text-anchor="middle" x="383.81" y="-91.58" font-family="Times New Roman,serif" font-size="14.00">URX</text>
</g>
<!-- OLQ&#45;&gt;URX -->
<g id="edge33" class="edge">
<title>OLQ&#45;&gt;URX</title>
<path fill="none" stroke="gray" stroke-width="0.2" d="M221.43,-1174.4C253.87,-903.27 340.42,-208.96 356.22,-117.15"/>
<polygon fill="gray" stroke="gray" stroke-width="0.2" points="359.63,-117.94 358.33,-107.42 352.79,-116.45 359.63,-117.94"/>
</g>
<!-- URY -->
<g id="node34" class="node">
<title>URY</title>
<ellipse fill="none" stroke="black" cx="383.81" cy="-18" rx="30.11" ry="18"/>
<text text-anchor="middle" x="383.81" y="-12.57" font-family="Times New Roman,serif" font-size="14.00">URY</text>
</g>
<!-- OLQ&#45;&gt;URY -->
<g id="edge34" class="edge">
<title>OLQ&#45;&gt;URY</title>
<path fill="none" stroke="gray" stroke-width="5" d="M220.66,-1174.45C251.98,-895 337.52,-161.34 355.4,-44.01"/>
<polygon fill="gray" stroke="gray" stroke-width="5" points="359.69,-44.89 357.24,-34.26 351.09,-43.27 359.69,-44.89"/>
</g>
<!-- ADA&#45;&gt;OLQ -->
<g id="edge35" class="edge">
<title>ADA&#45;&gt;OLQ</title>
<path fill="none" stroke="gray" stroke-width="2" d="M358.4,-2535.87C354.76,-2531.76 352.2,-2528.5 352.2,-2528.5 352.2,-2528.5 257.25,-1715.07 222.09,-1402.27"/>
<polygon fill="gray" stroke="gray" stroke-width="2" points="225.6,-1402.11 221,-1392.56 218.64,-1402.89 225.6,-1402.11"/>
</g>
<!-- AVJ&#45;&gt;OLQ -->
<g id="edge36" class="edge">
<title>AVJ&#45;&gt;OLQ</title>
<path fill="none" stroke="gray" stroke-width="0.2" d="M359.61,-2142.23C355.34,-2137.5 352.2,-2133.5 352.2,-2133.5 352.2,-2133.5 265.89,-1632.5 227.38,-1398.9"/>
<polygon fill="gray" stroke="gray" stroke-width="0.2" points="230.87,-1398.6 225.8,-1389.3 223.97,-1399.73 230.87,-1398.6"/>
</g>
<!-- BDU&#45;&gt;OLQ -->
<g id="edge37" class="edge">
<title>BDU&#45;&gt;OLQ</title>
<path fill="none" stroke="gray" stroke-width="0.2" d="M358.69,-2062.21C354.9,-2057.94 352.2,-2054.5 352.2,-2054.5 352.2,-2054.5 268.47,-1614.77 229.15,-1398.64"/>
<polygon fill="gray" stroke="gray" stroke-width="0.2" points="232.6,-1398.03 227.37,-1388.81 225.71,-1399.28 232.6,-1398.03"/>
</g>
<!-- CEP&#45;&gt;OLQ -->
<g id="edge38" class="edge">
<title>CEP&#45;&gt;OLQ</title>
<path fill="none" stroke="red" stroke-width="5" d="M359.3,-1983.89C355.19,-1979.31 352.2,-1975.5 352.2,-1975.5 352.2,-1975.5 273.05,-1603.51 232.52,-1404.21"/>
<polygon fill="red" stroke="red" stroke-width="5" points="236.83,-1403.45 230.55,-1394.52 228.25,-1405.19 236.83,-1403.45"/>
</g>
<!-- DVA&#45;&gt;OLQ -->
<g id="edge39" class="edge">
<title>DVA&#45;&gt;OLQ</title>
<path fill="none" stroke="gray" stroke-width="2" d="M358.4,-1903.87C354.76,-1899.76 352.2,-1896.5 352.2,-1896.5 352.2,-1896.5 275.69,-1579.22 234.6,-1400.4"/>
<polygon fill="gray" stroke="gray" stroke-width="2" points="238.03,-1399.69 232.38,-1390.72 231.21,-1401.25 238.03,-1399.69"/>
</g>
<!-- IL1&#45;&gt;OLQ -->
<g id="edge40" class="edge">
<title>IL1&#45;&gt;OLQ</title>
<path fill="none" stroke="gray" stroke-width="0.2" d="M359.61,-1826.23C355.34,-1821.5 352.2,-1817.5 352.2,-1817.5 352.2,-1817.5 279,-1554.37 237.34,-1396.77"/>
<polygon fill="gray" stroke="gray" stroke-width="0.2" points="240.78,-1396.08 234.85,-1387.31 234.01,-1397.87 240.78,-1396.08"/>
</g>
<!-- IL2&#45;&gt;OLQ -->
<g id="edge41" class="edge">
<title>IL2&#45;&gt;OLQ</title>
<path fill="none" stroke="gray" stroke-width="5" d="M359.61,-1747.23C355.34,-1742.5 352.2,-1738.5 352.2,-1738.5 352.2,-1738.5 285.93,-1536.89 243.61,-1401.39"/>
<polygon fill="gray" stroke="gray" stroke-width="5" points="247.84,-1400.24 240.69,-1391.99 239.48,-1402.84 247.84,-1400.24"/>
</g>
<!-- OLL&#45;&gt;OLQ -->
<g id="edge42" class="edge">
<title>OLL&#45;&gt;OLQ</title>
<path fill="none" stroke="gray" stroke-width="0.2" d="M359,-1667.55C355.05,-1663.12 352.2,-1659.5 352.2,-1659.5 352.2,-1659.5 290.06,-1504.8 247.71,-1393.2"/>
<polygon fill="gray" stroke="gray" stroke-width="0.2" points="251.11,-1392.29 244.29,-1384.18 244.56,-1394.77 251.11,-1392.29"/>
</g>
<!-- PVN&#45;&gt;OLQ -->
<g id="edge43" class="edge">
<title>PVN&#45;&gt;OLQ</title>
<path fill="none" stroke="gray" stroke-width="0.2" d="M358.69,-1588.21C354.9,-1583.94 352.2,-1580.5 352.2,-1580.5 352.2,-1580.5 298.13,-1475.75 256.48,-1390.08"/>
<polygon fill="gray" stroke="gray" stroke-width="0.2" points="259.75,-1388.8 252.24,-1381.33 253.45,-1391.86 259.75,-1388.8"/>
</g>
<!-- PVP&#45;&gt;OLQ -->
<g id="edge44" class="edge">
<title>PVP&#45;&gt;OLQ</title>
<path fill="none" stroke="gray" stroke-width="0.2" d="M359.3,-1509.89C355.19,-1505.31 352.2,-1501.5 352.2,-1501.5 352.2,-1501.5 308.64,-1441.18 269.6,-1383.51"/>
<polygon fill="gray" stroke="gray" stroke-width="0.2" points="272.54,-1381.61 264.05,-1375.28 266.74,-1385.53 272.54,-1381.61"/>
</g>
<!-- PVR&#45;&gt;OLQ -->
<g id="edge45" class="edge">
<title>PVR&#45;&gt;OLQ</title>
<path fill="none" stroke="blue" stroke-width="2" d="M359.17,-1429.97C341.12,-1416.91 315.13,-1394.79 289.84,-1371.47"/>
<polygon fill="blue" stroke="blue" stroke-width="2" points="292.49,-1369.16 282.78,-1364.91 287.72,-1374.28 292.49,-1369.16"/>
</g>
<!-- RIC&#45;&gt;OLQ -->
<g id="edge46" class="edge">
<title>RIC&#45;&gt;OLQ</title>
<path fill="none" stroke="gray" stroke-width="0.2" d="M361.97,-1292.93C352.05,-1294.99 339.32,-1296.43 325.46,-1297.27"/>
<polygon fill="gray" stroke="gray" stroke-width="0.2" points="325.31,-1293.77 315.49,-1297.75 325.65,-1300.76 325.31,-1293.77"/>
</g>
<!-- RIG&#45;&gt;OLQ -->
<g id="edge47" class="edge">
<title>RIG&#45;&gt;OLQ</title>
<path fill="none" stroke="black" stroke-width="5" d="M369.02,-1218.5C358.66,-1226.15 343.38,-1235.1 326.3,-1243.93"/>
<polygon fill="black" stroke="black" stroke-width="5" points="324.5,-1239.94 317.52,-1248.33 328.42,-1247.76 324.5,-1239.94"/>
</g>
<!-- RIH&#45;&gt;OLQ -->
<g id="edge48" class="edge">
<title>RIH&#45;&gt;OLQ</title>
<path fill="none" stroke="black" stroke-width="5" d="M373.01,-1140.88C359.77,-1157.66 334.72,-1183.12 308.13,-1207.95"/>
<polygon fill="black" stroke="black" stroke-width="5" points="305.23,-1204.67 300.85,-1214.67 311.16,-1211.1 305.23,-1204.67"/>
</g>
<!-- RIP&#45;&gt;OLQ -->
<g id="edge49" class="edge">
<title>RIP&#45;&gt;OLQ</title>
<path fill="none" stroke="gray" stroke-width="2" d="M378.29,-984.05C369.78,-1004.53 352.2,-1027.5 352.2,-1027.5 352.2,-1027.5 310.3,-1108.38 271.85,-1179.17"/>
<polygon fill="gray" stroke="gray" stroke-width="2" points="268.88,-1177.31 267.17,-1187.77 275.03,-1180.66 268.88,-1177.31"/>
</g>
<!-- RIR&#45;&gt;OLQ -->
<g id="edge50" class="edge">
<title>RIR&#45;&gt;OLQ</title>
<path fill="none" stroke="gray" stroke-width="2" d="M378.29,-904.9C369.78,-925.1 352.2,-947.5 352.2,-947.5 352.2,-947.5 301.11,-1074.71 260,-1172.45"/>
<polygon fill="gray" stroke="gray" stroke-width="2" points="256.88,-1170.85 256.22,-1181.43 263.33,-1173.57 256.88,-1170.85"/>
</g>
<!-- RIV&#45;&gt;OLQ -->
<g id="edge51" class="edge">
<title>RIV&#45;&gt;OLQ</title>
<path fill="none" stroke="gray" stroke-width="0.2" d="M378.29,-825.9C369.78,-846.1 352.2,-868.5 352.2,-868.5 352.2,-868.5 292.92,-1048.84 250.7,-1171.55"/>
<polygon fill="gray" stroke="gray" stroke-width="0.2" points="247.48,-1170.13 247.53,-1180.73 254.1,-1172.41 247.48,-1170.13"/>
</g>
<!-- RMD&#45;&gt;OLQ -->
<g id="edge52" class="edge">
<title>RMD&#45;&gt;OLQ</title>
<path fill="none" stroke="gray" stroke-width="2" d="M378.16,-747.21C369.6,-767.33 352.2,-789.5 352.2,-789.5 352.2,-789.5 287.71,-1021.3 245.35,-1167.06"/>
<polygon fill="gray" stroke="gray" stroke-width="2" points="242.11,-1165.66 242.68,-1176.24 248.83,-1167.62 242.11,-1165.66"/>
</g>
<!-- URA&#45;&gt;OLQ -->
<g id="edge53" class="edge">
<title>URA&#45;&gt;OLQ</title>
<path fill="none" stroke="gray" stroke-width="0.2" d="M378.29,-272.9C369.78,-293.1 352.2,-315.5 352.2,-315.5 352.2,-315.5 266.46,-907.88 227.77,-1165.27"/>
<polygon fill="gray" stroke="gray" stroke-width="0.2" points="224.31,-1164.7 226.29,-1175.11 231.24,-1165.74 224.31,-1164.7"/>
</g>
<!-- URB&#45;&gt;OLQ -->
<g id="edge54" class="edge">
<title>URB&#45;&gt;OLQ</title>
<path fill="none" stroke="gray" stroke-width="2" d="M378.29,-193.9C369.78,-214.1 352.2,-236.5 352.2,-236.5 352.2,-236.5 264.97,-887.43 226.77,-1162.21"/>
<polygon fill="gray" stroke="gray" stroke-width="2" points="223.31,-1161.62 225.4,-1172.01 230.25,-1162.59 223.31,-1161.62"/>
</g>
<!-- URX&#45;&gt;OLQ -->
<g id="edge55" class="edge">
<title>URX&#45;&gt;OLQ</title>
<path fill="none" stroke="gray" stroke-width="5" d="M378.29,-114.9C369.78,-135.1 352.2,-157.5 352.2,-157.5 352.2,-157.5 263.68,-866.92 225.93,-1158.96"/>
<polygon fill="gray" stroke="gray" stroke-width="5" points="221.65,-1157.98 224.7,-1168.46 230.33,-1159.11 221.65,-1157.98"/>
</g>
<!-- URY&#45;&gt;OLQ -->
<g id="edge56" class="edge">
<title>URY&#45;&gt;OLQ</title>
<path fill="none" stroke="gray" stroke-width="5" d="M378.29,-35.9C369.78,-56.1 352.2,-78.5 352.2,-78.5 352.2,-78.5 261.97,-851.52 224.86,-1158.64"/>
<polygon fill="gray" stroke="gray" stroke-width="5" points="220.52,-1158.03 223.66,-1168.48 229.21,-1159.08 220.52,-1158.03"/>
</g>
<!-- ADF -->
<g id="node35" class="node">
<title>ADF</title>
<ellipse fill="none" stroke="black" cx="32.1" cy="-1598" rx="29.11" ry="18"/>
<text text-anchor="middle" x="32.1" y="-1592.58" font-family="Times New Roman,serif" font-size="14.00">ADF</text>
</g>
<!-- ADF&#45;&gt;OLQ -->
<g id="edge57" class="edge">
<title>ADF&#45;&gt;OLQ</title>
<path fill="none" stroke="red" stroke-width="2" d="M45.75,-1582.14C54.36,-1571.34 64.2,-1559 64.2,-1559 64.2,-1559 111.67,-1467.05 151.91,-1389.1"/>
<polygon fill="red" stroke="red" stroke-width="2" points="154.93,-1390.9 156.4,-1380.41 148.71,-1387.69 154.93,-1390.9"/>
</g>
<!-- ADL -->
<g id="node36" class="node">
<title>ADL</title>
<ellipse fill="none" stroke="black" cx="32.1" cy="-1519" rx="29.11" ry="18"/>
<text text-anchor="middle" x="32.1" y="-1513.58" font-family="Times New Roman,serif" font-size="14.00">ADL</text>
</g>
<!-- ADL&#45;&gt;OLQ -->
<g id="edge58" class="edge">
<title>ADL&#45;&gt;OLQ</title>
<path fill="none" stroke="gray" stroke-width="nan" d="M45.75,-1503.14C54.36,-1492.34 64.2,-1480 64.2,-1480 64.2,-1480 105.76,-1422.46 144.07,-1369.42"/>
<polygon fill="gray" stroke="gray" stroke-width="nan" points="nan,-nan nan,-nan nan,-nan nan,-nan"/>
</g>
<!-- AIM -->
<g id="node37" class="node">
<title>AIM</title>
<ellipse fill="none" stroke="black" cx="32.1" cy="-1440" rx="28.11" ry="18"/>
<text text-anchor="middle" x="32.1" y="-1434.58" font-family="Times New Roman,serif" font-size="14.00">AIM</text>
</g>
<!-- AIM&#45;&gt;OLQ -->
<g id="edge59" class="edge">
<title>AIM&#45;&gt;OLQ</title>
<path fill="none" stroke="gray" stroke-width="0.2" d="M49.17,-1425.42C65.78,-1410.34 93.07,-1385.58 120.34,-1360.83"/>
<polygon fill="gray" stroke="gray" stroke-width="0.2" points="122.36,-1363.72 127.41,-1354.41 117.65,-1358.54 122.36,-1363.72"/>
</g>
<!-- AQR -->
<g id="node38" class="node">
<title>AQR</title>
<ellipse fill="none" stroke="black" cx="32.1" cy="-1361" rx="30.61" ry="18"/>
<text text-anchor="middle" x="32.1" y="-1355.58" font-family="Times New Roman,serif" font-size="14.00">AQR</text>
</g>
<!-- AQR&#45;&gt;OLQ -->
<g id="edge60" class="edge">
<title>AQR&#45;&gt;OLQ</title>
<path fill="none" stroke="gray" stroke-width="0.2" d="M56.95,-1350.18C68.81,-1344.8 84.07,-1337.87 100.31,-1330.5"/>
<polygon fill="gray" stroke="gray" stroke-width="0.2" points="101.48,-1333.82 109.14,-1326.5 98.59,-1327.44 101.48,-1333.82"/>
</g>
<!-- AWB -->
<g id="node39" class="node">
<title>AWB</title>
<ellipse fill="none" stroke="black" cx="32.1" cy="-1282" rx="32.1" ry="18"/>
<text text-anchor="middle" x="32.1" y="-1276.58" font-family="Times New Roman,serif" font-size="14.00">AWB</text>
</g>
<!-- AWB&#45;&gt;OLQ -->
<g id="edge61" class="edge">
<title>AWB&#45;&gt;OLQ</title>
<path fill="none" stroke="gray" stroke-width="0.2" d="M64.63,-1282C72.26,-1282 80.86,-1282 89.97,-1282"/>
<polygon fill="gray" stroke="gray" stroke-width="0.2" points="89.72,-1285.5 99.72,-1282 89.72,-1278.5 89.72,-1285.5"/>
</g>
<!-- BAG -->
<g id="node40" class="node">
<title>BAG</title>
<ellipse fill="none" stroke="black" cx="32.1" cy="-1203" rx="30.11" ry="18"/>
<text text-anchor="middle" x="32.1" y="-1197.58" font-family="Times New Roman,serif" font-size="14.00">BAG</text>
</g>
<!-- BAG&#45;&gt;OLQ -->
<g id="edge62" class="edge">
<title>BAG&#45;&gt;OLQ</title>
<path fill="none" stroke="gray" stroke-width="0.2" d="M56.58,-1213.65C68.49,-1219.06 83.88,-1226.04 100.26,-1233.47"/>
<polygon fill="gray" stroke="gray" stroke-width="0.2" points="98.62,-1236.57 109.17,-1237.52 101.51,-1230.2 98.62,-1236.57"/>
</g>
<!-- PLN -->
<g id="node41" class="node">
<title>PLN</title>
<ellipse fill="none" stroke="black" cx="32.1" cy="-1124" rx="28.11" ry="18"/>
<text text-anchor="middle" x="32.1" y="-1118.58" font-family="Times New Roman,serif" font-size="14.00">PLN</text>
</g>
<!-- PLN&#45;&gt;OLQ -->
<g id="edge63" class="edge">
<title>PLN&#45;&gt;OLQ</title>
<path fill="none" stroke="gray" stroke-width="0.2" d="M49.17,-1138.58C65.78,-1153.66 93.07,-1178.42 120.34,-1203.17"/>
<polygon fill="gray" stroke="gray" stroke-width="0.2" points="117.65,-1205.46 127.41,-1209.59 122.36,-1200.28 117.65,-1205.46"/>
</g>
<!-- PVT -->
<g id="node42" class="node">
<title>PVT</title>
<ellipse fill="none" stroke="black" cx="32.1" cy="-1045" rx="28.61" ry="18"/>
<text text-anchor="middle" x="32.1" y="-1039.58" font-family="Times New Roman,serif" font-size="14.00">PVT</text>
</g>
<!-- PVT&#45;&gt;OLQ -->
<g id="edge64" class="edge">
<title>PVT&#45;&gt;OLQ</title>
<path fill="none" stroke="gray" stroke-width="0.2" d="M45.75,-1061.27C54.36,-1072.34 64.2,-1085 64.2,-1085 64.2,-1085 101.51,-1136.39 138.01,-1186.68"/>
<polygon fill="gray" stroke="gray" stroke-width="0.2" points="134.97,-1188.45 143.68,-1194.49 140.64,-1184.34 134.97,-1188.45"/>
</g>
<!-- RIS -->
<g id="node43" class="node">
<title>RIS</title>
<ellipse fill="none" stroke="black" cx="32.1" cy="-966" rx="27" ry="18"/>
<text text-anchor="middle" x="32.1" y="-960.58" font-family="Times New Roman,serif" font-size="14.00">RIS</text>
</g>
<!-- RIS&#45;&gt;OLQ -->
<g id="edge65" class="edge">
<title>RIS&#45;&gt;OLQ</title>
<path fill="none" stroke="gray" stroke-width="0.2" d="M45.39,-981.81C54.09,-992.99 64.2,-1006 64.2,-1006 64.2,-1006 112.5,-1099.21 152.95,-1177.29"/>
<polygon fill="gray" stroke="gray" stroke-width="0.2" points="149.74,-1178.71 157.45,-1185.97 155.96,-1175.49 149.74,-1178.71"/>
</g>
</g>
</svg>
