<?xml version="1.0" encoding="UTF-8" standalone="no"?>
<!DOCTYPE svg PUBLIC "-//W3C//DTD SVG 1.1//EN"
 "http://www.w3.org/Graphics/SVG/1.1/DTD/svg11.dtd">
<!-- Generated by graphviz version 11.0.0 (20240428.1522)
 -->
<!-- Pages: 1 -->
<svg width="421pt" height="1150pt"
 viewBox="0.00 0.00 421.41 1150.00" xmlns="http://www.w3.org/2000/svg" xmlns:xlink="http://www.w3.org/1999/xlink">
<g id="graph0" class="graph" transform="scale(1 1) rotate(0) translate(4 1146)">
<polygon fill="white" stroke="none" points="-4,4 -4,-1146 417.41,-1146 417.41,4 -4,4"/>
<!-- PLN -->
<g id="node1" class="node">
<title>PLN</title>
<ellipse fill="none" stroke="black" cx="205.21" cy="-413" rx="108" ry="108"/>
<text text-anchor="middle" x="205.21" y="-394" font-family="Times New Roman,serif" font-size="50.00">PLN</text>
</g>
<!-- AIB -->
<g id="node2" class="node">
<title>AIB</title>
<ellipse fill="none" stroke="black" cx="381.31" cy="-1124" rx="27" ry="18"/>
<text text-anchor="middle" x="381.31" y="-1118.58" font-family="Times New Roman,serif" font-size="14.00">AIB</text>
</g>
<!-- PLN&#45;&gt;AIB -->
<g id="edge1" class="edge">
<title>PLN&#45;&gt;AIB</title>
<path fill="none" stroke="blue" stroke-width="2" d="M228.71,-518.74C268.98,-707.98 349.21,-1085 349.21,-1085 349.21,-1085 353.86,-1090.83 359.57,-1097.99"/>
<polygon fill="blue" stroke="blue" stroke-width="2" points="356.8,-1100.13 365.77,-1105.77 362.28,-1095.77 356.8,-1100.13"/>
</g>
<!-- AVA -->
<g id="node3" class="node">
<title>AVA</title>
<ellipse fill="none" stroke="black" cx="381.31" cy="-1045" rx="30.11" ry="18"/>
<text text-anchor="middle" x="381.31" y="-1039.58" font-family="Times New Roman,serif" font-size="14.00">AVA</text>
</g>
<!-- PLN&#45;&gt;AVA -->
<g id="edge2" class="edge">
<title>PLN&#45;&gt;AVA</title>
<path fill="none" stroke="blue" stroke-width="2" d="M231.53,-517.99C272.6,-688.31 349.21,-1006 349.21,-1006 349.21,-1006 353.73,-1011.67 359.33,-1018.69"/>
<polygon fill="blue" stroke="blue" stroke-width="2" points="356.44,-1020.68 365.41,-1026.32 361.92,-1016.32 356.44,-1020.68"/>
</g>
<!-- AVB -->
<g id="node4" class="node">
<title>AVB</title>
<ellipse fill="none" stroke="black" cx="381.31" cy="-966" rx="29.61" ry="18"/>
<text text-anchor="middle" x="381.31" y="-960.58" font-family="Times New Roman,serif" font-size="14.00">AVB</text>
</g>
<!-- PLN&#45;&gt;AVB -->
<g id="edge3" class="edge">
<title>PLN&#45;&gt;AVB</title>
<path fill="none" stroke="gray" stroke-width="0.2" d="M235.15,-517.02C276.93,-667.21 349.21,-927 349.21,-927 349.21,-927 354.59,-933.75 360.88,-941.63"/>
<polygon fill="gray" stroke="gray" stroke-width="0.2" points="358.14,-943.81 367.11,-949.45 363.61,-939.45 358.14,-943.81"/>
</g>
<!-- CEP -->
<g id="node5" class="node">
<title>CEP</title>
<ellipse fill="none" stroke="black" cx="381.31" cy="-887" rx="28.11" ry="18"/>
<text text-anchor="middle" x="381.31" y="-881.58" font-family="Times New Roman,serif" font-size="14.00">CEP</text>
</g>
<!-- PLN&#45;&gt;CEP -->
<g id="edge4" class="edge">
<title>PLN&#45;&gt;CEP</title>
<path fill="none" stroke="gray" stroke-width="0.2" d="M244.44,-513.99C286.8,-636.64 349.21,-826.5 349.21,-826.5 349.21,-826.5 362.16,-842.74 371.35,-860.04"/>
<polygon fill="gray" stroke="gray" stroke-width="0.2" points="368.09,-861.34 375.59,-868.83 374.4,-858.3 368.09,-861.34"/>
</g>
<!-- OLQ -->
<g id="node6" class="node">
<title>OLQ</title>
<ellipse fill="none" stroke="black" cx="381.31" cy="-808" rx="30.11" ry="18"/>
<text text-anchor="middle" x="381.31" y="-802.58" font-family="Times New Roman,serif" font-size="14.00">OLQ</text>
</g>
<!-- PLN&#45;&gt;OLQ -->
<g id="edge5" class="edge">
<title>PLN&#45;&gt;OLQ</title>
<path fill="none" stroke="gray" stroke-width="0.2" d="M246.42,-513.11C288.72,-618.41 349.21,-769 349.21,-769 349.21,-769 354.59,-775.75 360.88,-783.63"/>
<polygon fill="gray" stroke="gray" stroke-width="0.2" points="358.14,-785.81 367.11,-791.45 363.61,-781.45 358.14,-785.81"/>
</g>
<!-- RIC -->
<g id="node7" class="node">
<title>RIC</title>
<ellipse fill="none" stroke="black" cx="381.31" cy="-729" rx="27" ry="18"/>
<text text-anchor="middle" x="381.31" y="-723.58" font-family="Times New Roman,serif" font-size="14.00">RIC</text>
</g>
<!-- PLN&#45;&gt;RIC -->
<g id="edge6" class="edge">
<title>PLN&#45;&gt;RIC</title>
<path fill="none" stroke="gray" stroke-width="2" d="M255.62,-508.72C296.96,-588.78 349.21,-690 349.21,-690 349.21,-690 353.86,-695.83 359.57,-702.99"/>
<polygon fill="gray" stroke="gray" stroke-width="2" points="356.8,-705.13 365.77,-710.77 362.28,-700.77 356.8,-705.13"/>
</g>
<!-- RID -->
<g id="node8" class="node">
<title>RID</title>
<ellipse fill="none" stroke="black" cx="381.31" cy="-650" rx="27" ry="18"/>
<text text-anchor="middle" x="381.31" y="-644.58" font-family="Times New Roman,serif" font-size="14.00">RID</text>
</g>
<!-- PLN&#45;&gt;RID -->
<g id="edge7" class="edge">
<title>PLN&#45;&gt;RID</title>
<path fill="none" stroke="gray" stroke-width="0.2" d="M269.35,-500.42C307.66,-553.46 349.21,-611 349.21,-611 349.21,-611 354.86,-618.09 361.35,-626.22"/>
<polygon fill="gray" stroke="gray" stroke-width="0.2" points="358.5,-628.26 367.47,-633.9 363.97,-623.9 358.5,-628.26"/>
</g>
<!-- RIV -->
<g id="node9" class="node">
<title>RIV</title>
<ellipse fill="none" stroke="black" cx="381.31" cy="-571" rx="27" ry="18"/>
<text text-anchor="middle" x="381.31" y="-565.58" font-family="Times New Roman,serif" font-size="14.00">RIV</text>
</g>
<!-- PLN&#45;&gt;RIV -->
<g id="edge8" class="edge">
<title>PLN&#45;&gt;RIV</title>
<path fill="none" stroke="gray" stroke-width="0.2" d="M285.87,-485.3C311.88,-508.9 338.78,-533.31 357.18,-550.01"/>
<polygon fill="gray" stroke="gray" stroke-width="0.2" points="354.54,-552.34 364.3,-556.47 359.25,-547.16 354.54,-552.34"/>
</g>
<!-- RMD -->
<g id="node10" class="node">
<title>RMD</title>
<ellipse fill="none" stroke="black" cx="381.31" cy="-492" rx="31.6" ry="18"/>
<text text-anchor="middle" x="381.31" y="-486.57" font-family="Times New Roman,serif" font-size="14.00">RMD</text>
</g>
<!-- PLN&#45;&gt;RMD -->
<g id="edge9" class="edge">
<title>PLN&#45;&gt;RMD</title>
<path fill="none" stroke="gray" stroke-width="0.2" d="M309,-443.75C327.18,-452.55 344.42,-461.89 357.39,-470.26"/>
<polygon fill="gray" stroke="gray" stroke-width="0.2" points="355.16,-472.98 365.4,-475.72 359.1,-467.2 355.16,-472.98"/>
</g>
<!-- RMF -->
<g id="node11" class="node">
<title>RMF</title>
<ellipse fill="none" stroke="black" cx="381.31" cy="-413" rx="30.61" ry="18"/>
<text text-anchor="middle" x="381.31" y="-407.57" font-family="Times New Roman,serif" font-size="14.00">RMF</text>
</g>
<!-- PLN&#45;&gt;RMF -->
<g id="edge10" class="edge">
<title>PLN&#45;&gt;RMF</title>
<path fill="none" stroke="blue" stroke-width="2" d="M312.5,-397.23C323.86,-397.66 334.75,-398.46 344.36,-399.66"/>
<polygon fill="blue" stroke="blue" stroke-width="2" points="343.6,-403.08 354.01,-401.13 344.66,-396.16 343.6,-403.08"/>
</g>
<!-- RMG -->
<g id="node12" class="node">
<title>RMG</title>
<ellipse fill="none" stroke="black" cx="381.31" cy="-334" rx="32.1" ry="18"/>
<text text-anchor="middle" x="381.31" y="-328.57" font-family="Times New Roman,serif" font-size="14.00">RMG</text>
</g>
<!-- PLN&#45;&gt;RMG -->
<g id="edge11" class="edge">
<title>PLN&#45;&gt;RMG</title>
<path fill="none" stroke="gray" stroke-width="0.2" d="M297.09,-355.65C311.93,-349.02 326.63,-343.09 339.45,-338.63"/>
<polygon fill="gray" stroke="gray" stroke-width="0.2" points="340.17,-342.08 348.57,-335.62 337.98,-335.43 340.17,-342.08"/>
</g>
<!-- RMH -->
<g id="node13" class="node">
<title>RMH</title>
<ellipse fill="none" stroke="black" cx="381.31" cy="-255" rx="31.6" ry="18"/>
<text text-anchor="middle" x="381.31" y="-249.57" font-family="Times New Roman,serif" font-size="14.00">RMH</text>
</g>
<!-- PLN&#45;&gt;RMH -->
<g id="edge12" class="edge">
<title>PLN&#45;&gt;RMH</title>
<path fill="none" stroke="gray" stroke-width="0.2" d="M277.53,-332.39C301.85,-309.58 327.87,-286.96 347.64,-271.73"/>
<polygon fill="gray" stroke="gray" stroke-width="0.2" points="349.57,-274.66 355.47,-265.86 345.37,-269.06 349.57,-274.66"/>
</g>
<!-- SAA -->
<g id="node14" class="node">
<title>SAA</title>
<ellipse fill="none" stroke="black" cx="381.31" cy="-176" rx="29.11" ry="18"/>
<text text-anchor="middle" x="381.31" y="-170.57" font-family="Times New Roman,serif" font-size="14.00">SAA</text>
</g>
<!-- PLN&#45;&gt;SAA -->
<g id="edge13" class="edge">
<title>PLN&#45;&gt;SAA</title>
<path fill="none" stroke="black" stroke-width="5" d="M260.88,-319.97C292.58,-272.81 328.95,-221.74 346.46,-198.08"/>
<polygon fill="black" stroke="black" stroke-width="5" points="349.73,-201.01 352.32,-190.41 342.78,-195.7 349.73,-201.01"/>
</g>
<!-- SMB -->
<g id="node15" class="node">
<title>SMB</title>
<ellipse fill="none" stroke="black" cx="381.31" cy="-97" rx="30.11" ry="18"/>
<text text-anchor="middle" x="381.31" y="-91.58" font-family="Times New Roman,serif" font-size="14.00">SMB</text>
</g>
<!-- PLN&#45;&gt;SMB -->
<g id="edge14" class="edge">
<title>PLN&#45;&gt;SMB</title>
<path fill="none" stroke="black" stroke-width="5" d="M249.11,-313.94C283.67,-242.46 328.89,-154.05 347.66,-120.33"/>
<polygon fill="black" stroke="black" stroke-width="5" points="351.18,-122.96 352.59,-112.14 343.69,-118.45 351.18,-122.96"/>
</g>
<!-- SMD -->
<g id="node16" class="node">
<title>SMD</title>
<ellipse fill="none" stroke="black" cx="381.31" cy="-18" rx="30.61" ry="18"/>
<text text-anchor="middle" x="381.31" y="-12.57" font-family="Times New Roman,serif" font-size="14.00">SMD</text>
</g>
<!-- PLN&#45;&gt;SMD -->
<g id="edge15" class="edge">
<title>PLN&#45;&gt;SMD</title>
<path fill="none" stroke="gray" stroke-width="0.2" d="M241.19,-311.11C278.57,-212.15 334.14,-73.12 350.98,-36.82"/>
<polygon fill="gray" stroke="gray" stroke-width="0.2" points="353.85,-38.88 355.36,-28.4 347.64,-35.65 353.85,-38.88"/>
</g>
<!-- CEP&#45;&gt;PLN -->
<g id="edge16" class="edge">
<title>CEP&#45;&gt;PLN</title>
<path fill="none" stroke="gray" stroke-width="2" d="M356.42,-877.89C352.25,-873.31 349.21,-869.5 349.21,-869.5 349.21,-869.5 281.85,-664.6 239.59,-529.1"/>
<polygon fill="gray" stroke="gray" stroke-width="2" points="243.05,-528.43 236.74,-519.92 236.37,-530.51 243.05,-528.43"/>
</g>
<!-- RMD&#45;&gt;PLN -->
<g id="edge17" class="edge">
<title>RMD&#45;&gt;PLN</title>
<path fill="none" stroke="gray" stroke-width="0.2" d="M349.64,-490.72C337.21,-486.9 322.09,-481.15 306.38,-474.42"/>
<polygon fill="gray" stroke="gray" stroke-width="0.2" points="307.93,-471.27 297.36,-470.47 305.12,-477.68 307.93,-471.27"/>
</g>
<!-- RMF&#45;&gt;PLN -->
<g id="edge18" class="edge">
<title>RMF&#45;&gt;PLN</title>
<path fill="none" stroke="gray" stroke-width="0.2" d="M357.01,-424.41C347.38,-426.23 335.44,-427.52 322.54,-428.29"/>
<polygon fill="gray" stroke="gray" stroke-width="0.2" points="322.62,-424.78 312.8,-428.76 322.96,-431.77 322.62,-424.78"/>
</g>
<!-- RMG&#45;&gt;PLN -->
<g id="edge19" class="edge">
<title>RMG&#45;&gt;PLN</title>
<path fill="none" stroke="gray" stroke-width="0.2" d="M365.65,-350.11C354.14,-358.45 336.96,-368.27 318.08,-377.77"/>
<polygon fill="gray" stroke="gray" stroke-width="0.2" points="316.69,-374.55 309.27,-382.11 319.78,-380.83 316.69,-374.55"/>
</g>
<!-- RMH&#45;&gt;PLN -->
<g id="edge20" class="edge">
<title>RMH&#45;&gt;PLN</title>
<path fill="none" stroke="gray" stroke-width="0.2" d="M370.2,-272.24C356.07,-290 328.98,-317.25 300.83,-343.21"/>
<polygon fill="gray" stroke="gray" stroke-width="0.2" points="298.5,-340.59 293.48,-349.92 303.23,-345.75 298.5,-340.59"/>
</g>
<!-- SAA&#45;&gt;PLN -->
<g id="edge21" class="edge">
<title>SAA&#45;&gt;PLN</title>
<path fill="none" stroke="gray" stroke-width="0.2" d="M375.72,-193.9C367.07,-214.1 349.21,-236.5 349.21,-236.5 349.21,-236.5 317.52,-280.38 283.98,-324.58"/>
<polygon fill="gray" stroke="gray" stroke-width="0.2" points="281.37,-322.22 278.1,-332.3 286.94,-326.46 281.37,-322.22"/>
</g>
<!-- SMB&#45;&gt;PLN -->
<g id="edge22" class="edge">
<title>SMB&#45;&gt;PLN</title>
<path fill="none" stroke="gray" stroke-width="2" d="M375.72,-114.9C367.07,-135.1 349.21,-157.5 349.21,-157.5 349.21,-157.5 307.3,-238.68 268.86,-309.73"/>
<polygon fill="gray" stroke="gray" stroke-width="2" points="265.86,-307.91 264.17,-318.37 272.02,-311.25 265.86,-307.91"/>
</g>
<!-- SMD&#45;&gt;PLN -->
<g id="edge23" class="edge">
<title>SMD&#45;&gt;PLN</title>
<path fill="none" stroke="blue" stroke-width="0.2" d="M375.72,-35.9C367.07,-56.1 349.21,-78.5 349.21,-78.5 349.21,-78.5 297.28,-207.79 256.01,-305.83"/>
<polygon fill="blue" stroke="blue" stroke-width="0.2" points="252.83,-304.36 252.16,-314.94 259.28,-307.08 252.83,-304.36"/>
</g>
<!-- AQR -->
<g id="node17" class="node">
<title>AQR</title>
<ellipse fill="none" stroke="black" cx="30.61" cy="-571" rx="30.61" ry="18"/>
<text text-anchor="middle" x="30.61" y="-565.58" font-family="Times New Roman,serif" font-size="14.00">AQR</text>
</g>
<!-- AQR&#45;&gt;PLN -->
<g id="edge24" class="edge">
<title>AQR&#45;&gt;PLN</title>
<path fill="none" stroke="gray" stroke-width="0.2" d="M48.16,-555.85C64.58,-540.81 91.08,-516.55 117.62,-492.26"/>
<polygon fill="gray" stroke="gray" stroke-width="0.2" points="119.86,-494.96 124.87,-485.62 115.13,-489.79 119.86,-494.96"/>
</g>
<!-- BDU -->
<g id="node18" class="node">
<title>BDU</title>
<ellipse fill="none" stroke="black" cx="30.61" cy="-492" rx="29.61" ry="18"/>
<text text-anchor="middle" x="30.61" y="-486.57" font-family="Times New Roman,serif" font-size="14.00">BDU</text>
</g>
<!-- BDU&#45;&gt;PLN -->
<g id="edge25" class="edge">
<title>BDU&#45;&gt;PLN</title>
<path fill="none" stroke="gray" stroke-width="0.2" d="M54.88,-481.35C66.53,-476.02 81.54,-469.14 97.55,-461.82"/>
<polygon fill="gray" stroke="gray" stroke-width="0.2" points="98.61,-465.18 106.25,-457.84 95.7,-458.82 98.61,-465.18"/>
</g>
<!-- HSN -->
<g id="node19" class="node">
<title>HSN</title>
<ellipse fill="none" stroke="black" cx="30.61" cy="-413" rx="29.11" ry="18"/>
<text text-anchor="middle" x="30.61" y="-407.57" font-family="Times New Roman,serif" font-size="14.00">HSN</text>
</g>
<!-- HSN&#45;&gt;PLN -->
<g id="edge26" class="edge">
<title>HSN&#45;&gt;PLN</title>
<path fill="none" stroke="gray" stroke-width="0.2" d="M60.11,-413C68,-413 77.08,-413 86.76,-413"/>
<polygon fill="gray" stroke="gray" stroke-width="0.2" points="86.75,-416.5 96.75,-413 86.75,-409.5 86.75,-416.5"/>
</g>
<!-- RIG -->
<g id="node20" class="node">
<title>RIG</title>
<ellipse fill="none" stroke="black" cx="30.61" cy="-334" rx="27.11" ry="18"/>
<text text-anchor="middle" x="30.61" y="-328.57" font-family="Times New Roman,serif" font-size="14.00">RIG</text>
</g>
<!-- RIG&#45;&gt;PLN -->
<g id="edge27" class="edge">
<title>RIG&#45;&gt;PLN</title>
<path fill="none" stroke="gray" stroke-width="2" d="M53.47,-344.01C64.71,-349.15 79.34,-355.85 95.06,-363.04"/>
<polygon fill="gray" stroke="gray" stroke-width="2" points="93.36,-366.12 103.91,-367.09 96.28,-359.75 93.36,-366.12"/>
</g>
<!-- SDQ -->
<g id="node21" class="node">
<title>SDQ</title>
<ellipse fill="none" stroke="black" cx="30.61" cy="-255" rx="29.61" ry="18"/>
<text text-anchor="middle" x="30.61" y="-249.57" font-family="Times New Roman,serif" font-size="14.00">SDQ</text>
</g>
<!-- SDQ&#45;&gt;PLN -->
<g id="edge28" class="edge">
<title>SDQ&#45;&gt;PLN</title>
<path fill="none" stroke="gray" stroke-width="0.2" d="M47.84,-269.86C64.18,-284.82 90.71,-309.1 117.31,-333.45"/>
<polygon fill="gray" stroke="gray" stroke-width="0.2" points="114.84,-335.94 124.58,-340.11 119.57,-330.77 114.84,-335.94"/>
</g>
</g>
</svg>
