<?xml version="1.0" encoding="UTF-8" standalone="no"?>
<!DOCTYPE svg PUBLIC "-//W3C//DTD SVG 1.1//EN"
 "http://www.w3.org/Graphics/SVG/1.1/DTD/svg11.dtd">
<!-- Generated by graphviz version 11.0.0 (20240428.1522)
 -->
<!-- Pages: 1 -->
<svg width="421pt" height="2177pt"
 viewBox="0.00 0.00 421.41 2177.00" xmlns="http://www.w3.org/2000/svg" xmlns:xlink="http://www.w3.org/1999/xlink">
<g id="graph0" class="graph" transform="scale(1 1) rotate(0) translate(4 2173)">
<polygon fill="white" stroke="none" points="-4,4 -4,-2173 417.41,-2173 417.41,4 -4,4"/>
<!-- PVC -->
<g id="node1" class="node">
<title>PVC</title>
<ellipse fill="none" stroke="black" cx="208.2" cy="-1124" rx="108" ry="108"/>
<text text-anchor="middle" x="208.2" y="-1105" font-family="Times New Roman,serif" font-size="50.00">PVC</text>
</g>
<!-- PVC&#45;&gt;PVC -->
<g id="edge1" class="edge">
<title>PVC&#45;&gt;PVC</title>
<path fill="none" stroke="gray" stroke-width="2" d="M175.78,-1227.39C177.7,-1254.51 188.51,-1275 208.2,-1275 224.67,-1275 234.92,-1260.68 238.97,-1240.14"/>
<polygon fill="gray" stroke="gray" stroke-width="2" points="242.41,-1240.76 240.24,-1230.4 235.47,-1239.86 242.41,-1240.76"/>
</g>
<!-- ADA -->
<g id="node2" class="node">
<title>ADA</title>
<ellipse fill="none" stroke="black" cx="382.81" cy="-2151" rx="30.11" ry="18"/>
<text text-anchor="middle" x="382.81" y="-2145.57" font-family="Times New Roman,serif" font-size="14.00">ADA</text>
</g>
<!-- PVC&#45;&gt;ADA -->
<g id="edge2" class="edge">
<title>PVC&#45;&gt;ADA</title>
<path fill="none" stroke="gray" stroke-width="0.2" d="M224.71,-1231.14C261.73,-1486.91 352.2,-2112 352.2,-2112 352.2,-2112 357.33,-2118.75 363.31,-2126.63"/>
<polygon fill="gray" stroke="gray" stroke-width="0.2" points="360.41,-2128.6 369.24,-2134.45 365.98,-2124.36 360.41,-2128.6"/>
</g>
<!-- ADL -->
<g id="node3" class="node">
<title>ADL</title>
<ellipse fill="none" stroke="black" cx="382.81" cy="-2072" rx="29.11" ry="18"/>
<text text-anchor="middle" x="382.81" y="-2066.57" font-family="Times New Roman,serif" font-size="14.00">ADL</text>
</g>
<!-- PVC&#45;&gt;ADL -->
<g id="edge3" class="edge">
<title>PVC&#45;&gt;ADL</title>
<path fill="none" stroke="gray" stroke-width="0.2" d="M227.75,-1230.39C266.44,-1466.36 352.2,-2011.5 352.2,-2011.5 352.2,-2011.5 364.53,-2027.74 373.28,-2045.04"/>
<polygon fill="gray" stroke="gray" stroke-width="0.2" points="369.96,-2046.2 377.31,-2053.83 376.32,-2043.28 369.96,-2046.2"/>
</g>
<!-- AIY -->
<g id="node4" class="node">
<title>AIY</title>
<ellipse fill="none" stroke="black" cx="382.81" cy="-1993" rx="27" ry="18"/>
<text text-anchor="middle" x="382.81" y="-1987.58" font-family="Times New Roman,serif" font-size="14.00">AIY</text>
</g>
<!-- PVC&#45;&gt;AIY -->
<g id="edge4" class="edge">
<title>PVC&#45;&gt;AIY</title>
<path fill="none" stroke="gray" stroke-width="0.2" d="M227.53,-1230.39C266.12,-1454.35 352.2,-1954 352.2,-1954 352.2,-1954 357.47,-1960.94 363.57,-1968.97"/>
<polygon fill="gray" stroke="gray" stroke-width="0.2" points="360.75,-1971.05 369.58,-1976.9 366.33,-1966.81 360.75,-1971.05"/>
</g>
<!-- ALM -->
<g id="node5" class="node">
<title>ALM</title>
<ellipse fill="none" stroke="black" cx="382.81" cy="-1914" rx="30.61" ry="18"/>
<text text-anchor="middle" x="382.81" y="-1908.58" font-family="Times New Roman,serif" font-size="14.00">ALM</text>
</g>
<!-- PVC&#45;&gt;ALM -->
<g id="edge5" class="edge">
<title>PVC&#45;&gt;ALM</title>
<path fill="none" stroke="blue" stroke-width="0.2" d="M231.71,-1229.7C271.98,-1432.16 352.2,-1853.5 352.2,-1853.5 352.2,-1853.5 364.53,-1869.74 373.28,-1887.04"/>
<polygon fill="blue" stroke="blue" stroke-width="0.2" points="369.96,-1888.2 377.31,-1895.83 376.32,-1885.28 369.96,-1888.2"/>
</g>
<!-- AQR -->
<g id="node6" class="node">
<title>AQR</title>
<ellipse fill="none" stroke="black" cx="382.81" cy="-1835" rx="30.61" ry="18"/>
<text text-anchor="middle" x="382.81" y="-1829.58" font-family="Times New Roman,serif" font-size="14.00">AQR</text>
</g>
<!-- PVC&#45;&gt;AQR -->
<g id="edge6" class="edge">
<title>PVC&#45;&gt;AQR</title>
<path fill="none" stroke="gray" stroke-width="2" d="M234.36,-1229.17C275.39,-1413.53 352.2,-1774.5 352.2,-1774.5 352.2,-1774.5 363.43,-1789.29 372.05,-1805.67"/>
<polygon fill="gray" stroke="gray" stroke-width="2" points="368.72,-1806.81 376.15,-1814.36 375.06,-1803.83 368.72,-1806.81"/>
</g>
<!-- ASH -->
<g id="node7" class="node">
<title>ASH</title>
<ellipse fill="none" stroke="black" cx="382.81" cy="-1756" rx="29.11" ry="18"/>
<text text-anchor="middle" x="382.81" y="-1750.58" font-family="Times New Roman,serif" font-size="14.00">ASH</text>
</g>
<!-- PVC&#45;&gt;ASH -->
<g id="edge7" class="edge">
<title>PVC&#45;&gt;ASH</title>
<path fill="none" stroke="gray" stroke-width="0.2" d="M237.63,-1228.19C279.33,-1393.3 352.2,-1695.5 352.2,-1695.5 352.2,-1695.5 364.53,-1711.74 373.28,-1729.04"/>
<polygon fill="gray" stroke="gray" stroke-width="0.2" points="369.96,-1730.2 377.31,-1737.83 376.32,-1727.28 369.96,-1730.2"/>
</g>
<!-- AVA -->
<g id="node8" class="node">
<title>AVA</title>
<ellipse fill="none" stroke="black" cx="382.81" cy="-1677" rx="30.11" ry="18"/>
<text text-anchor="middle" x="382.81" y="-1671.58" font-family="Times New Roman,serif" font-size="14.00">AVA</text>
</g>
<!-- PVC&#45;&gt;AVA -->
<g id="edge8" class="edge">
<title>PVC&#45;&gt;AVA</title>
<path fill="none" stroke="gray" stroke-width="5" d="M238.14,-1228.02C279.93,-1378.21 352.2,-1638 352.2,-1638 352.2,-1638 355.42,-1642.23 359.72,-1647.9"/>
<polygon fill="gray" stroke="gray" stroke-width="5" points="356.12,-1650.4 365.65,-1655.72 363.09,-1645.11 356.12,-1650.4"/>
</g>
<!-- AVB -->
<g id="node9" class="node">
<title>AVB</title>
<ellipse fill="none" stroke="black" cx="382.81" cy="-1598" rx="29.61" ry="18"/>
<text text-anchor="middle" x="382.81" y="-1592.58" font-family="Times New Roman,serif" font-size="14.00">AVB</text>
</g>
<!-- PVC&#45;&gt;AVB -->
<g id="edge9" class="edge">
<title>PVC&#45;&gt;AVB</title>
<path fill="none" stroke="black" stroke-width="5" d="M247.43,-1224.99C289.79,-1347.64 352.2,-1537.5 352.2,-1537.5 352.2,-1537.5 362.17,-1550.63 370.54,-1565.85"/>
<polygon fill="black" stroke="black" stroke-width="5" points="366.42,-1567.4 374.72,-1574.49 374.3,-1563.58 366.42,-1567.4"/>
</g>
<!-- AVD -->
<g id="node10" class="node">
<title>AVD</title>
<ellipse fill="none" stroke="black" cx="382.81" cy="-1519" rx="30.11" ry="18"/>
<text text-anchor="middle" x="382.81" y="-1513.58" font-family="Times New Roman,serif" font-size="14.00">AVD</text>
</g>
<!-- PVC&#45;&gt;AVD -->
<g id="edge10" class="edge">
<title>PVC&#45;&gt;AVD</title>
<path fill="none" stroke="black" stroke-width="5" d="M249.42,-1224.11C291.71,-1329.41 352.2,-1480 352.2,-1480 352.2,-1480 355.42,-1484.23 359.72,-1489.9"/>
<polygon fill="black" stroke="black" stroke-width="5" points="356.12,-1492.4 365.65,-1497.72 363.09,-1487.11 356.12,-1492.4"/>
</g>
<!-- AVE -->
<g id="node11" class="node">
<title>AVE</title>
<ellipse fill="none" stroke="black" cx="382.81" cy="-1440" rx="29.11" ry="18"/>
<text text-anchor="middle" x="382.81" y="-1434.58" font-family="Times New Roman,serif" font-size="14.00">AVE</text>
</g>
<!-- PVC&#45;&gt;AVE -->
<g id="edge11" class="edge">
<title>PVC&#45;&gt;AVE</title>
<path fill="none" stroke="gray" stroke-width="5" d="M258.62,-1219.72C299.95,-1299.78 352.2,-1401 352.2,-1401 352.2,-1401 355.42,-1405.23 359.72,-1410.9"/>
<polygon fill="gray" stroke="gray" stroke-width="5" points="356.12,-1413.4 365.65,-1418.72 363.09,-1408.11 356.12,-1413.4"/>
</g>
<!-- AVH -->
<g id="node12" class="node">
<title>AVH</title>
<ellipse fill="none" stroke="black" cx="382.81" cy="-1361" rx="30.11" ry="18"/>
<text text-anchor="middle" x="382.81" y="-1355.58" font-family="Times New Roman,serif" font-size="14.00">AVH</text>
</g>
<!-- PVC&#45;&gt;AVH -->
<g id="edge12" class="edge">
<title>PVC&#45;&gt;AVH</title>
<path fill="none" stroke="gray" stroke-width="0.2" d="M280.91,-1204.46C316.59,-1251.19 352.2,-1300.5 352.2,-1300.5 352.2,-1300.5 364.53,-1316.74 373.28,-1334.04"/>
<polygon fill="gray" stroke="gray" stroke-width="0.2" points="369.96,-1335.2 377.31,-1342.83 376.32,-1332.28 369.96,-1335.2"/>
</g>
<!-- AVJ -->
<g id="node13" class="node">
<title>AVJ</title>
<ellipse fill="none" stroke="black" cx="382.81" cy="-1282" rx="27.11" ry="18"/>
<text text-anchor="middle" x="382.81" y="-1276.58" font-family="Times New Roman,serif" font-size="14.00">AVJ</text>
</g>
<!-- PVC&#45;&gt;AVJ -->
<g id="edge13" class="edge">
<title>PVC&#45;&gt;AVJ</title>
<path fill="none" stroke="black" stroke-width="2" d="M296.01,-1187.34C321.8,-1210.96 347.52,-1236.45 363.98,-1255.38"/>
<polygon fill="black" stroke="black" stroke-width="2" points="361.09,-1257.39 370.17,-1262.84 366.47,-1252.91 361.09,-1257.39"/>
</g>
<!-- AVK -->
<g id="node14" class="node">
<title>AVK</title>
<ellipse fill="none" stroke="black" cx="382.81" cy="-1203" rx="30.11" ry="18"/>
<text text-anchor="middle" x="382.81" y="-1197.58" font-family="Times New Roman,serif" font-size="14.00">AVK</text>
</g>
<!-- PVC&#45;&gt;AVK -->
<g id="edge14" class="edge">
<title>PVC&#45;&gt;AVK</title>
<path fill="none" stroke="gray" stroke-width="0.2" d="M306.86,-1168.69C322.02,-1175.64 336.71,-1182.36 349.01,-1187.99"/>
<polygon fill="gray" stroke="gray" stroke-width="0.2" points="347.5,-1191.15 358.05,-1192.13 350.41,-1184.78 347.5,-1191.15"/>
</g>
<!-- DVA -->
<g id="node15" class="node">
<title>DVA</title>
<ellipse fill="none" stroke="black" cx="382.81" cy="-1124" rx="30.11" ry="18"/>
<text text-anchor="middle" x="382.81" y="-1118.58" font-family="Times New Roman,serif" font-size="14.00">DVA</text>
</g>
<!-- PVC&#45;&gt;DVA -->
<g id="edge15" class="edge">
<title>PVC&#45;&gt;DVA</title>
<path fill="none" stroke="gray" stroke-width="0.2" d="M315.08,-1108.25C327.3,-1108.72 338.97,-1109.65 349.03,-1111.03"/>
<polygon fill="gray" stroke="gray" stroke-width="0.2" points="348.17,-1114.43 358.6,-1112.58 349.29,-1107.53 348.17,-1114.43"/>
</g>
<!-- FLP -->
<g id="node16" class="node">
<title>FLP</title>
<ellipse fill="none" stroke="black" cx="382.81" cy="-1045" rx="27.11" ry="18"/>
<text text-anchor="middle" x="382.81" y="-1039.58" font-family="Times New Roman,serif" font-size="14.00">FLP</text>
</g>
<!-- PVC&#45;&gt;FLP -->
<g id="edge16" class="edge">
<title>PVC&#45;&gt;FLP</title>
<path fill="none" stroke="gray" stroke-width="0.2" d="M300.06,-1066.31C316.24,-1059.05 332.2,-1052.64 345.67,-1048.13"/>
<polygon fill="gray" stroke="gray" stroke-width="0.2" points="346.66,-1051.49 355.16,-1045.16 344.57,-1044.81 346.66,-1051.49"/>
</g>
<!-- PVD -->
<g id="node17" class="node">
<title>PVD</title>
<ellipse fill="none" stroke="black" cx="382.81" cy="-966" rx="29.11" ry="18"/>
<text text-anchor="middle" x="382.81" y="-960.58" font-family="Times New Roman,serif" font-size="14.00">PVD</text>
</g>
<!-- PVC&#45;&gt;PVD -->
<g id="edge17" class="edge">
<title>PVC&#45;&gt;PVD</title>
<path fill="none" stroke="gray" stroke-width="2" d="M288.69,-1051.24C313.06,-1028.93 338.16,-1005.95 356.15,-989.48"/>
<polygon fill="gray" stroke="gray" stroke-width="2" points="358.37,-992.2 363.38,-982.87 353.64,-987.04 358.37,-992.2"/>
</g>
<!-- PVP -->
<g id="node18" class="node">
<title>PVP</title>
<ellipse fill="none" stroke="black" cx="382.81" cy="-887" rx="28.11" ry="18"/>
<text text-anchor="middle" x="382.81" y="-881.58" font-family="Times New Roman,serif" font-size="14.00">PVP</text>
</g>
<!-- PVC&#45;&gt;PVP -->
<g id="edge18" class="edge">
<title>PVC&#45;&gt;PVP</title>
<path fill="none" stroke="gray" stroke-width="2" d="M263.88,-1030.97C296.68,-982.16 334.49,-929.18 351.04,-906.71"/>
<polygon fill="gray" stroke="gray" stroke-width="2" points="353.72,-908.96 356.95,-898.87 348.13,-904.74 353.72,-908.96"/>
</g>
<!-- RID -->
<g id="node19" class="node">
<title>RID</title>
<ellipse fill="none" stroke="black" cx="382.81" cy="-808" rx="27" ry="18"/>
<text text-anchor="middle" x="382.81" y="-802.58" font-family="Times New Roman,serif" font-size="14.00">RID</text>
</g>
<!-- PVC&#45;&gt;RID -->
<g id="edge19" class="edge">
<title>PVC&#45;&gt;RID</title>
<path fill="none" stroke="gray" stroke-width="5" d="M258.62,-1028.28C299.95,-948.22 352.2,-847 352.2,-847 352.2,-847 355.68,-842.42 360.25,-836.39"/>
<polygon fill="gray" stroke="gray" stroke-width="5" points="363.43,-839.44 366,-828.83 356.47,-834.15 363.43,-839.44"/>
</g>
<!-- RIF -->
<g id="node20" class="node">
<title>RIF</title>
<ellipse fill="none" stroke="black" cx="382.81" cy="-729" rx="27" ry="18"/>
<text text-anchor="middle" x="382.81" y="-723.58" font-family="Times New Roman,serif" font-size="14.00">RIF</text>
</g>
<!-- PVC&#45;&gt;RIF -->
<g id="edge20" class="edge">
<title>PVC&#45;&gt;RIF</title>
<path fill="none" stroke="gray" stroke-width="0.2" d="M244.19,-1022.11C286.52,-910.02 352.2,-746.5 352.2,-746.5 352.2,-746.5 352.38,-746.26 352.72,-745.83"/>
<polygon fill="gray" stroke="gray" stroke-width="0.2" points="355.23,-748.29 358.88,-738.34 349.82,-743.84 355.23,-748.29"/>
</g>
<!-- RIM -->
<g id="node21" class="node">
<title>RIM</title>
<ellipse fill="none" stroke="black" cx="382.81" cy="-650" rx="28.11" ry="18"/>
<text text-anchor="middle" x="382.81" y="-644.58" font-family="Times New Roman,serif" font-size="14.00">RIM</text>
</g>
<!-- PVC&#45;&gt;RIM -->
<g id="edge21" class="edge">
<title>PVC&#45;&gt;RIM</title>
<path fill="none" stroke="blue" stroke-width="5" d="M242.91,-1021.46C285.19,-892.86 352.2,-689 352.2,-689 352.2,-689 355.42,-684.77 359.72,-679.1"/>
<polygon fill="blue" stroke="blue" stroke-width="5" points="363.09,-681.89 365.65,-671.28 356.12,-676.6 363.09,-681.89"/>
</g>
<!-- RIP -->
<g id="node22" class="node">
<title>RIP</title>
<ellipse fill="none" stroke="black" cx="382.81" cy="-571" rx="27" ry="18"/>
<text text-anchor="middle" x="382.81" y="-565.58" font-family="Times New Roman,serif" font-size="14.00">RIP</text>
</g>
<!-- PVC&#45;&gt;RIP -->
<g id="edge22" class="edge">
<title>PVC&#45;&gt;RIP</title>
<path fill="none" stroke="blue" stroke-width="2" d="M238.14,-1019.98C279.93,-869.79 352.2,-610 352.2,-610 352.2,-610 356.63,-604.17 362.06,-597.01"/>
<polygon fill="blue" stroke="blue" stroke-width="2" points="364.68,-599.36 367.94,-589.27 359.1,-595.12 364.68,-599.36"/>
</g>
<!-- RIS -->
<g id="node23" class="node">
<title>RIS</title>
<ellipse fill="none" stroke="black" cx="382.81" cy="-492" rx="27" ry="18"/>
<text text-anchor="middle" x="382.81" y="-486.57" font-family="Times New Roman,serif" font-size="14.00">RIS</text>
</g>
<!-- PVC&#45;&gt;RIS -->
<g id="edge23" class="edge">
<title>PVC&#45;&gt;RIS</title>
<path fill="none" stroke="gray" stroke-width="0.2" d="M231.71,-1018.23C271.98,-842.19 352.2,-509.5 352.2,-509.5 352.2,-509.5 352.38,-509.26 352.72,-508.83"/>
<polygon fill="gray" stroke="gray" stroke-width="0.2" points="355.23,-511.29 358.88,-501.34 349.82,-506.84 355.23,-511.29"/>
</g>
<!-- SAA -->
<g id="node24" class="node">
<title>SAA</title>
<ellipse fill="none" stroke="black" cx="382.81" cy="-413" rx="29.11" ry="18"/>
<text text-anchor="middle" x="382.81" y="-407.57" font-family="Times New Roman,serif" font-size="14.00">SAA</text>
</g>
<!-- PVC&#45;&gt;SAA -->
<g id="edge24" class="edge">
<title>PVC&#45;&gt;SAA</title>
<path fill="none" stroke="gray" stroke-width="0.2" d="M231.71,-1018.26C271.98,-829.02 352.2,-452 352.2,-452 352.2,-452 357.33,-445.25 363.31,-437.37"/>
<polygon fill="gray" stroke="gray" stroke-width="0.2" points="365.98,-439.64 369.24,-429.55 360.41,-435.4 365.98,-439.64"/>
</g>
<!-- SDQ -->
<g id="node25" class="node">
<title>SDQ</title>
<ellipse fill="none" stroke="black" cx="382.81" cy="-334" rx="29.61" ry="18"/>
<text text-anchor="middle" x="382.81" y="-328.57" font-family="Times New Roman,serif" font-size="14.00">SDQ</text>
</g>
<!-- PVC&#45;&gt;SDQ -->
<g id="edge25" class="edge">
<title>PVC&#45;&gt;SDQ</title>
<path fill="none" stroke="gray" stroke-width="0.2" d="M227.32,-1017.48C262.79,-821.88 339,-420.93 355.38,-353.7"/>
<polygon fill="gray" stroke="gray" stroke-width="0.2" points="358.65,-355 358.11,-344.42 351.93,-353.02 358.65,-355"/>
</g>
<!-- SIA -->
<g id="node26" class="node">
<title>SIA</title>
<ellipse fill="none" stroke="black" cx="382.81" cy="-255" rx="27" ry="18"/>
<text text-anchor="middle" x="382.81" y="-249.57" font-family="Times New Roman,serif" font-size="14.00">SIA</text>
</g>
<!-- PVC&#45;&gt;SIA -->
<g id="edge26" class="edge">
<title>PVC&#45;&gt;SIA</title>
<path fill="none" stroke="gray" stroke-width="0.2" d="M227.53,-1017.61C266.12,-793.65 352.2,-294 352.2,-294 352.2,-294 357.47,-287.06 363.57,-279.03"/>
<polygon fill="gray" stroke="gray" stroke-width="0.2" points="366.33,-281.19 369.58,-271.1 360.75,-276.95 366.33,-281.19"/>
</g>
<!-- SIB -->
<g id="node27" class="node">
<title>SIB</title>
<ellipse fill="none" stroke="black" cx="382.81" cy="-176" rx="27" ry="18"/>
<text text-anchor="middle" x="382.81" y="-170.57" font-family="Times New Roman,serif" font-size="14.00">SIB</text>
</g>
<!-- PVC&#45;&gt;SIB -->
<g id="edge27" class="edge">
<title>PVC&#45;&gt;SIB</title>
<path fill="none" stroke="gray" stroke-width="5" d="M226.03,-1017.05C263.83,-776.77 352.2,-215 352.2,-215 352.2,-215 355.68,-210.42 360.25,-204.39"/>
<polygon fill="gray" stroke="gray" stroke-width="5" points="363.43,-207.44 366,-196.83 356.47,-202.15 363.43,-207.44"/>
</g>
<!-- SMB -->
<g id="node28" class="node">
<title>SMB</title>
<ellipse fill="none" stroke="black" cx="382.81" cy="-97" rx="30.11" ry="18"/>
<text text-anchor="middle" x="382.81" y="-91.58" font-family="Times New Roman,serif" font-size="14.00">SMB</text>
</g>
<!-- PVC&#45;&gt;SMB -->
<g id="edge28" class="edge">
<title>PVC&#45;&gt;SMB</title>
<path fill="none" stroke="gray" stroke-width="0.2" d="M224.71,-1016.86C261.73,-761.09 352.2,-136 352.2,-136 352.2,-136 357.33,-129.25 363.31,-121.37"/>
<polygon fill="gray" stroke="gray" stroke-width="0.2" points="365.98,-123.64 369.24,-113.55 360.41,-119.4 365.98,-123.64"/>
</g>
<!-- URX -->
<g id="node29" class="node">
<title>URX</title>
<ellipse fill="none" stroke="black" cx="382.81" cy="-18" rx="30.11" ry="18"/>
<text text-anchor="middle" x="382.81" y="-12.57" font-family="Times New Roman,serif" font-size="14.00">URX</text>
</g>
<!-- PVC&#45;&gt;URX -->
<g id="edge29" class="edge">
<title>PVC&#45;&gt;URX</title>
<path fill="none" stroke="gray" stroke-width="0.2" d="M223.57,-1016.81C259.83,-746.23 352.2,-57 352.2,-57 352.2,-57 357.33,-50.25 363.31,-42.37"/>
<polygon fill="gray" stroke="gray" stroke-width="0.2" points="365.98,-44.64 369.24,-34.55 360.41,-40.4 365.98,-44.64"/>
</g>
<!-- ADL&#45;&gt;PVC -->
<g id="edge30" class="edge">
<title>ADL&#45;&gt;PVC</title>
<path fill="none" stroke="gray" stroke-width="0.2" d="M358.2,-2061.87C354.68,-2057.76 352.2,-2054.5 352.2,-2054.5 352.2,-2054.5 263.56,-1491.02 225.86,-1240.86"/>
<polygon fill="gray" stroke="gray" stroke-width="0.2" points="229.37,-1240.67 224.42,-1231.3 222.44,-1241.71 229.37,-1240.67"/>
</g>
<!-- ALM&#45;&gt;PVC -->
<g id="edge31" class="edge">
<title>ALM&#45;&gt;PVC</title>
<path fill="none" stroke="black" stroke-width="5" d="M357.63,-1903.21C354.42,-1899.42 352.2,-1896.5 352.2,-1896.5 352.2,-1896.5 269.96,-1464.59 230.22,-1246.48"/>
<polygon fill="black" stroke="black" stroke-width="5" points="234.52,-1245.71 228.43,-1236.65 225.92,-1247.27 234.52,-1245.71"/>
</g>
<!-- AQR&#45;&gt;PVC -->
<g id="edge32" class="edge">
<title>AQR&#45;&gt;PVC</title>
<path fill="none" stroke="black" stroke-width="2" d="M357.63,-1824.21C354.42,-1820.42 352.2,-1817.5 352.2,-1817.5 352.2,-1817.5 272.17,-1441.4 231.85,-1242.93"/>
<polygon fill="black" stroke="black" stroke-width="2" points="235.33,-1242.48 229.92,-1233.37 228.47,-1243.87 235.33,-1242.48"/>
</g>
<!-- ASH&#45;&gt;PVC -->
<g id="edge33" class="edge">
<title>ASH&#45;&gt;PVC</title>
<path fill="none" stroke="gray" stroke-width="2" d="M358.2,-1745.87C354.68,-1741.76 352.2,-1738.5 352.2,-1738.5 352.2,-1738.5 275.69,-1421.22 234.6,-1242.4"/>
<polygon fill="gray" stroke="gray" stroke-width="2" points="238.03,-1241.69 232.38,-1232.72 231.21,-1243.25 238.03,-1241.69"/>
</g>
<!-- AVB&#45;&gt;PVC -->
<g id="edge34" class="edge">
<title>AVB&#45;&gt;PVC</title>
<path fill="none" stroke="gray" stroke-width="nan" d="M358.2,-1587.87C354.68,-1583.76 352.2,-1580.5 352.2,-1580.5 352.2,-1580.5 280.72,-1363.05 238.83,-1228.03"/>
<polygon fill="gray" stroke="gray" stroke-width="nan" points="nan,-nan nan,-nan nan,-nan nan,-nan"/>
</g>
<!-- AVH&#45;&gt;PVC -->
<g id="edge35" class="edge">
<title>AVH&#45;&gt;PVC</title>
<path fill="none" stroke="gray" stroke-width="0.2" d="M357.91,-1350.54C354.55,-1346.58 352.2,-1343.5 352.2,-1343.5 352.2,-1343.5 308.64,-1283.18 269.6,-1225.51"/>
<polygon fill="gray" stroke="gray" stroke-width="0.2" points="272.54,-1223.61 264.05,-1217.28 266.74,-1227.53 272.54,-1223.61"/>
</g>
<!-- AVJ&#45;&gt;PVC -->
<g id="edge36" class="edge">
<title>AVJ&#45;&gt;PVC</title>
<path fill="none" stroke="black" stroke-width="2" d="M359.43,-1272.78C341.44,-1259.83 315.01,-1237.25 289.32,-1213.43"/>
<polygon fill="black" stroke="black" stroke-width="2" points="291.81,-1210.96 282.12,-1206.68 287.02,-1216.07 291.81,-1210.96"/>
</g>
<!-- DVA&#45;&gt;PVC -->
<g id="edge37" class="edge">
<title>DVA&#45;&gt;PVC</title>
<path fill="none" stroke="gray" stroke-width="2" d="M358.9,-1135.37C350.17,-1137.04 339.51,-1138.28 327.94,-1139.07"/>
<polygon fill="gray" stroke="gray" stroke-width="2" points="327.9,-1135.56 318.1,-1139.59 328.27,-1142.55 327.9,-1135.56"/>
</g>
<!-- FLP&#45;&gt;PVC -->
<g id="edge38" class="edge">
<title>FLP&#45;&gt;PVC</title>
<path fill="none" stroke="red" stroke-width="0.2" d="M368.02,-1060.56C356.82,-1068.86 339.86,-1078.7 321.12,-1088.25"/>
<polygon fill="red" stroke="red" stroke-width="0.2" points="319.75,-1085.02 312.37,-1092.63 322.88,-1091.29 319.75,-1085.02"/>
</g>
<!-- PVP&#45;&gt;PVC -->
<g id="edge39" class="edge">
<title>PVP&#45;&gt;PVC</title>
<path fill="none" stroke="black" stroke-width="5" d="M377.44,-904.9C369.21,-925.1 352.2,-947.5 352.2,-947.5 352.2,-947.5 322.83,-988.17 290.71,-1030.64"/>
<polygon fill="black" stroke="black" stroke-width="5" points="287.25,-1027.96 284.69,-1038.57 294.22,-1033.26 287.25,-1027.96"/>
</g>
<!-- RIF&#45;&gt;PVC -->
<g id="edge40" class="edge">
<title>RIF&#45;&gt;PVC</title>
<path fill="none" stroke="gray" stroke-width="2" d="M377.44,-746.9C369.21,-767.1 352.2,-789.5 352.2,-789.5 352.2,-789.5 301.11,-916.71 260,-1014.45"/>
<polygon fill="gray" stroke="gray" stroke-width="2" points="256.88,-1012.85 256.22,-1023.43 263.33,-1015.57 256.88,-1012.85"/>
</g>
<!-- RIS&#45;&gt;PVC -->
<g id="edge41" class="edge">
<title>RIS&#45;&gt;PVC</title>
<path fill="none" stroke="gray" stroke-width="0.2" d="M377.44,-509.9C369.21,-530.1 352.2,-552.5 352.2,-552.5 352.2,-552.5 282.15,-843.01 240.11,-1009.98"/>
<polygon fill="gray" stroke="gray" stroke-width="0.2" points="236.75,-1008.97 237.7,-1019.52 243.54,-1010.68 236.75,-1008.97"/>
</g>
<!-- SDQ&#45;&gt;PVC -->
<g id="edge42" class="edge">
<title>SDQ&#45;&gt;PVC</title>
<path fill="none" stroke="gray" stroke-width="0.2" d="M377.44,-351.9C369.21,-372.1 352.2,-394.5 352.2,-394.5 352.2,-394.5 274.54,-802.37 233.68,-1008.34"/>
<polygon fill="gray" stroke="gray" stroke-width="0.2" points="230.28,-1007.51 231.76,-1018 237.15,-1008.87 230.28,-1007.51"/>
</g>
<!-- AVM -->
<g id="node30" class="node">
<title>AVM</title>
<ellipse fill="none" stroke="black" cx="32.1" cy="-1322" rx="31.6" ry="18"/>
<text text-anchor="middle" x="32.1" y="-1316.58" font-family="Times New Roman,serif" font-size="14.00">AVM</text>
</g>
<!-- AVM&#45;&gt;PVC -->
<g id="edge43" class="edge">
<title>AVM&#45;&gt;PVC</title>
<path fill="none" stroke="red" stroke-width="5" d="M47.35,-1305.8C64.78,-1285.97 95.7,-1250.8 125.73,-1216.65"/>
<polygon fill="red" stroke="red" stroke-width="5" points="128.86,-1219.72 132.18,-1209.33 122.29,-1213.95 128.86,-1219.72"/>
</g>
<!-- AWB -->
<g id="node31" class="node">
<title>AWB</title>
<ellipse fill="none" stroke="black" cx="32.1" cy="-1243" rx="32.1" ry="18"/>
<text text-anchor="middle" x="32.1" y="-1237.58" font-family="Times New Roman,serif" font-size="14.00">AWB</text>
</g>
<!-- AWB&#45;&gt;PVC -->
<g id="edge44" class="edge">
<title>AWB&#45;&gt;PVC</title>
<path fill="none" stroke="blue" stroke-width="5" d="M53.41,-1229.12C66.88,-1219.91 85.67,-1207.07 105.5,-1193.51"/>
<polygon fill="blue" stroke="blue" stroke-width="5" points="107.71,-1197.31 113.49,-1188.05 102.77,-1190.08 107.71,-1197.31"/>
</g>
<!-- BDU -->
<g id="node32" class="node">
<title>BDU</title>
<ellipse fill="none" stroke="black" cx="32.1" cy="-1164" rx="29.61" ry="18"/>
<text text-anchor="middle" x="32.1" y="-1158.58" font-family="Times New Roman,serif" font-size="14.00">BDU</text>
</g>
<!-- BDU&#45;&gt;PVC -->
<g id="edge45" class="edge">
<title>BDU&#45;&gt;PVC</title>
<path fill="none" stroke="gray" stroke-width="2" d="M60.31,-1157.75C68.92,-1155.77 79.05,-1153.44 89.9,-1150.95"/>
<polygon fill="gray" stroke="gray" stroke-width="2" points="90.5,-1154.4 99.46,-1148.75 88.93,-1147.58 90.5,-1154.4"/>
</g>
<!-- PVQ -->
<g id="node33" class="node">
<title>PVQ</title>
<ellipse fill="none" stroke="black" cx="32.1" cy="-1085" rx="29.61" ry="18"/>
<text text-anchor="middle" x="32.1" y="-1079.58" font-family="Times New Roman,serif" font-size="14.00">PVQ</text>
</g>
<!-- PVQ&#45;&gt;PVC -->
<g id="edge46" class="edge">
<title>PVQ&#45;&gt;PVC</title>
<path fill="none" stroke="gray" stroke-width="0.2" d="M60.31,-1091.09C69.57,-1093.17 80.59,-1095.64 92.36,-1098.28"/>
<polygon fill="gray" stroke="gray" stroke-width="0.2" points="91.59,-1101.69 102.12,-1100.46 93.12,-1094.86 91.59,-1101.69"/>
</g>
<!-- PVR -->
<g id="node34" class="node">
<title>PVR</title>
<ellipse fill="none" stroke="black" cx="32.1" cy="-1006" rx="29.11" ry="18"/>
<text text-anchor="middle" x="32.1" y="-1000.58" font-family="Times New Roman,serif" font-size="14.00">PVR</text>
</g>
<!-- PVR&#45;&gt;PVC -->
<g id="edge47" class="edge">
<title>PVR&#45;&gt;PVC</title>
<path fill="none" stroke="gray" stroke-width="0.2" d="M52.4,-1019.08C66.92,-1028.92 88.03,-1043.23 110.01,-1058.13"/>
<polygon fill="gray" stroke="gray" stroke-width="0.2" points="107.98,-1060.98 118.22,-1063.69 111.9,-1055.18 107.98,-1060.98"/>
</g>
<!-- RIC -->
<g id="node35" class="node">
<title>RIC</title>
<ellipse fill="none" stroke="black" cx="32.1" cy="-927" rx="27" ry="18"/>
<text text-anchor="middle" x="32.1" y="-921.58" font-family="Times New Roman,serif" font-size="14.00">RIC</text>
</g>
<!-- RIC&#45;&gt;PVC -->
<g id="edge48" class="edge">
<title>RIC&#45;&gt;PVC</title>
<path fill="none" stroke="gray" stroke-width="2" d="M46.76,-942.46C64.5,-962.52 96.86,-999.14 127.9,-1034.27"/>
<polygon fill="gray" stroke="gray" stroke-width="2" points="124.93,-1036.19 134.17,-1041.36 130.17,-1031.55 124.93,-1036.19"/>
</g>
</g>
</svg>
