<?xml version="1.0" encoding="UTF-8" standalone="no"?>
<!DOCTYPE svg PUBLIC "-//W3C//DTD SVG 1.1//EN"
 "http://www.w3.org/Graphics/SVG/1.1/DTD/svg11.dtd">
<!-- Generated by graphviz version 11.0.0 (20240428.1522)
 -->
<!-- Pages: 1 -->
<svg width="414pt" height="518pt"
 viewBox="0.00 0.00 414.43 518.00" xmlns="http://www.w3.org/2000/svg" xmlns:xlink="http://www.w3.org/1999/xlink">
<g id="graph0" class="graph" transform="scale(1 1) rotate(0) translate(4 514)">
<polygon fill="white" stroke="none" points="-4,4 -4,-514 410.43,-514 410.43,4 -4,4"/>
<!-- PVD -->
<g id="node1" class="node">
<title>PVD</title>
<ellipse fill="none" stroke="black" cx="202.22" cy="-294" rx="108" ry="108"/>
<text text-anchor="middle" x="202.22" y="-275" font-family="Times New Roman,serif" font-size="50.00">PVD</text>
</g>
<!-- AVD -->
<g id="node2" class="node">
<title>AVD</title>
<ellipse fill="none" stroke="black" cx="376.32" cy="-492" rx="30.11" ry="18"/>
<text text-anchor="middle" x="376.32" y="-486.57" font-family="Times New Roman,serif" font-size="14.00">AVD</text>
</g>
<!-- PVD&#45;&gt;AVD -->
<g id="edge1" class="edge">
<title>PVD&#45;&gt;AVD</title>
<path fill="none" stroke="blue" stroke-width="5" d="M273.96,-375.39C301.37,-406.92 330.92,-440.92 351,-464.02"/>
<polygon fill="blue" stroke="blue" stroke-width="5" points="347.42,-466.57 357.28,-471.25 354.02,-460.83 347.42,-466.57"/>
</g>
<!-- AVF -->
<g id="node3" class="node">
<title>AVF</title>
<ellipse fill="none" stroke="black" cx="376.32" cy="-413" rx="29.11" ry="18"/>
<text text-anchor="middle" x="376.32" y="-407.57" font-family="Times New Roman,serif" font-size="14.00">AVF</text>
</g>
<!-- PVD&#45;&gt;AVF -->
<g id="edge2" class="edge">
<title>PVD&#45;&gt;AVF</title>
<path fill="none" stroke="gray" stroke-width="0.2" d="M298.33,-343.72C320.5,-359.44 341.86,-376.04 356.43,-389.39"/>
<polygon fill="gray" stroke="gray" stroke-width="0.2" points="353.94,-391.85 363.58,-396.24 358.78,-386.79 353.94,-391.85"/>
</g>
<!-- AVJ -->
<g id="node4" class="node">
<title>AVJ</title>
<ellipse fill="none" stroke="black" cx="376.32" cy="-334" rx="27.11" ry="18"/>
<text text-anchor="middle" x="376.32" y="-328.57" font-family="Times New Roman,serif" font-size="14.00">AVJ</text>
</g>
<!-- PVD&#45;&gt;AVJ -->
<g id="edge3" class="edge">
<title>PVD&#45;&gt;AVJ</title>
<path fill="none" stroke="blue" stroke-width="5" d="M307.8,-318.31C317.16,-320.48 326.21,-322.59 334.49,-324.51"/>
<polygon fill="blue" stroke="blue" stroke-width="5" points="333.42,-328.75 344.15,-326.76 335.4,-320.23 333.42,-328.75"/>
</g>
<!-- RID -->
<g id="node5" class="node">
<title>RID</title>
<ellipse fill="none" stroke="black" cx="376.32" cy="-255" rx="27" ry="18"/>
<text text-anchor="middle" x="376.32" y="-249.57" font-family="Times New Roman,serif" font-size="14.00">RID</text>
</g>
<!-- PVD&#45;&gt;RID -->
<g id="edge4" class="edge">
<title>PVD&#45;&gt;RID</title>
<path fill="none" stroke="gray" stroke-width="0.2" d="M307.8,-270.3C319.37,-267.68 330.48,-265.16 340.23,-262.95"/>
<polygon fill="gray" stroke="gray" stroke-width="0.2" points="340.95,-266.38 349.93,-260.75 339.41,-259.55 340.95,-266.38"/>
</g>
<!-- SIB -->
<g id="node6" class="node">
<title>SIB</title>
<ellipse fill="none" stroke="black" cx="376.32" cy="-176" rx="27" ry="18"/>
<text text-anchor="middle" x="376.32" y="-170.57" font-family="Times New Roman,serif" font-size="14.00">SIB</text>
</g>
<!-- PVD&#45;&gt;SIB -->
<g id="edge5" class="edge">
<title>PVD&#45;&gt;SIB</title>
<path fill="none" stroke="gray" stroke-width="0.2" d="M291.79,-233.27C312.5,-219.07 333.01,-205.01 348.53,-194.37"/>
<polygon fill="gray" stroke="gray" stroke-width="0.2" points="350.09,-197.55 356.36,-189 346.13,-191.77 350.09,-197.55"/>
</g>
<!-- URX -->
<g id="node7" class="node">
<title>URX</title>
<ellipse fill="none" stroke="black" cx="376.32" cy="-97" rx="30.11" ry="18"/>
<text text-anchor="middle" x="376.32" y="-91.58" font-family="Times New Roman,serif" font-size="14.00">URX</text>
</g>
<!-- PVD&#45;&gt;URX -->
<g id="edge6" class="edge">
<title>PVD&#45;&gt;URX</title>
<path fill="none" stroke="gray" stroke-width="0.2" d="M273.96,-213.02C303.16,-179.6 334.78,-143.41 354.8,-120.49"/>
<polygon fill="gray" stroke="gray" stroke-width="0.2" points="357.23,-123.03 361.18,-113.19 351.96,-118.42 357.23,-123.03"/>
</g>
<!-- URY -->
<g id="node8" class="node">
<title>URY</title>
<ellipse fill="none" stroke="black" cx="376.32" cy="-18" rx="30.11" ry="18"/>
<text text-anchor="middle" x="376.32" y="-12.57" font-family="Times New Roman,serif" font-size="14.00">URY</text>
</g>
<!-- PVD&#45;&gt;URY -->
<g id="edge7" class="edge">
<title>PVD&#45;&gt;URY</title>
<path fill="none" stroke="gray" stroke-width="0.2" d="M258.91,-201.69C299.07,-135.15 346.22,-57 346.22,-57 346.22,-57 351.25,-50.25 357.14,-42.37"/>
<polygon fill="gray" stroke="gray" stroke-width="0.2" points="359.79,-44.66 362.97,-34.56 354.18,-40.48 359.79,-44.66"/>
</g>
<!-- AVF&#45;&gt;PVD -->
<g id="edge8" class="edge">
<title>AVF&#45;&gt;PVD</title>
<path fill="none" stroke="gray" stroke-width="0.2" d="M348.63,-406.6C333.09,-398.46 312.51,-385.59 291.74,-371.33"/>
<polygon fill="gray" stroke="gray" stroke-width="0.2" points="293.93,-368.59 283.72,-365.76 289.94,-374.34 293.93,-368.59"/>
</g>
<!-- ADL -->
<g id="node9" class="node">
<title>ADL</title>
<ellipse fill="none" stroke="black" cx="29.11" cy="-334" rx="29.11" ry="18"/>
<text text-anchor="middle" x="29.11" y="-328.57" font-family="Times New Roman,serif" font-size="14.00">ADL</text>
</g>
<!-- ADL&#45;&gt;PVD -->
<g id="edge9" class="edge">
<title>ADL&#45;&gt;PVD</title>
<path fill="none" stroke="blue" stroke-width="0.2" d="M56.84,-327.75C65.57,-325.71 75.87,-323.3 86.9,-320.72"/>
<polygon fill="blue" stroke="blue" stroke-width="0.2" points="87.52,-324.17 96.46,-318.49 85.92,-317.36 87.52,-324.17"/>
</g>
<!-- PVC -->
<g id="node10" class="node">
<title>PVC</title>
<ellipse fill="none" stroke="black" cx="29.11" cy="-255" rx="29.11" ry="18"/>
<text text-anchor="middle" x="29.11" y="-249.57" font-family="Times New Roman,serif" font-size="14.00">PVC</text>
</g>
<!-- PVC&#45;&gt;PVD -->
<g id="edge10" class="edge">
<title>PVC&#45;&gt;PVD</title>
<path fill="none" stroke="gray" stroke-width="2" d="M56.84,-261.09C64.8,-262.91 74.06,-265.02 83.99,-267.28"/>
<polygon fill="gray" stroke="gray" stroke-width="2" points="82.91,-270.62 93.43,-269.43 84.46,-263.8 82.91,-270.62"/>
</g>
</g>
</svg>
