<?xml version="1.0" encoding="UTF-8" standalone="no"?>
<!DOCTYPE svg PUBLIC "-//W3C//DTD SVG 1.1//EN"
 "http://www.w3.org/Graphics/SVG/1.1/DTD/svg11.dtd">
<!-- Generated by graphviz version 11.0.0 (20240428.1522)
 -->
<!-- Pages: 1 -->
<svg width="419pt" height="2888pt"
 viewBox="0.00 0.00 419.42 2888.00" xmlns="http://www.w3.org/2000/svg" xmlns:xlink="http://www.w3.org/1999/xlink">
<g id="graph0" class="graph" transform="scale(1 1) rotate(0) translate(4 2884)">
<polygon fill="white" stroke="none" points="-4,4 -4,-2884 415.42,-2884 415.42,4 -4,4"/>
<!-- PVN -->
<g id="node1" class="node">
<title>PVN</title>
<ellipse fill="none" stroke="black" cx="202.22" cy="-1479" rx="108" ry="108"/>
<text text-anchor="middle" x="202.22" y="-1460" font-family="Times New Roman,serif" font-size="50.00">PVN</text>
</g>
<!-- PVN&#45;&gt;PVN -->
<g id="edge1" class="edge">
<title>PVN&#45;&gt;PVN</title>
<path fill="none" stroke="gray" stroke-width="5" d="M170.07,-1582.39C171.97,-1609.51 182.69,-1630 202.22,-1630 217.7,-1630 227.64,-1617.12 232.05,-1598.26"/>
<polygon fill="gray" stroke="gray" stroke-width="5" points="236.35,-1599.09 233.46,-1588.57 227.69,-1597.83 236.35,-1599.09"/>
</g>
<!-- ADA -->
<g id="node2" class="node">
<title>ADA</title>
<ellipse fill="none" stroke="black" cx="378.82" cy="-2862" rx="30.11" ry="18"/>
<text text-anchor="middle" x="378.82" y="-2856.57" font-family="Times New Roman,serif" font-size="14.00">ADA</text>
</g>
<!-- PVN&#45;&gt;ADA -->
<g id="edge2" class="edge">
<title>PVN&#45;&gt;ADA</title>
<path fill="none" stroke="gray" stroke-width="0.2" d="M214.68,-1586.71C248.61,-1905.64 346.22,-2823 346.22,-2823 346.22,-2823 351.92,-2830.03 358.47,-2838.13"/>
<polygon fill="gray" stroke="gray" stroke-width="0.2" points="355.39,-2839.89 364.41,-2845.45 360.83,-2835.48 355.39,-2839.89"/>
</g>
<!-- ADF -->
<g id="node3" class="node">
<title>ADF</title>
<ellipse fill="none" stroke="black" cx="378.82" cy="-2783" rx="29.11" ry="18"/>
<text text-anchor="middle" x="378.82" y="-2777.57" font-family="Times New Roman,serif" font-size="14.00">ADF</text>
</g>
<!-- PVN&#45;&gt;ADF -->
<g id="edge3" class="edge">
<title>PVN&#45;&gt;ADF</title>
<path fill="none" stroke="gray" stroke-width="0.2" d="M216.48,-1586.32C251.93,-1888.41 346.22,-2722.5 346.22,-2722.5 346.22,-2722.5 359.38,-2738.74 368.71,-2756.04"/>
<polygon fill="gray" stroke="gray" stroke-width="0.2" points="365.48,-2757.39 373.02,-2764.83 371.76,-2754.31 365.48,-2757.39"/>
</g>
<!-- AIA -->
<g id="node4" class="node">
<title>AIA</title>
<ellipse fill="none" stroke="black" cx="378.82" cy="-2704" rx="27" ry="18"/>
<text text-anchor="middle" x="378.82" y="-2698.57" font-family="Times New Roman,serif" font-size="14.00">AIA</text>
</g>
<!-- PVN&#45;&gt;AIA -->
<g id="edge4" class="edge">
<title>PVN&#45;&gt;AIA</title>
<path fill="none" stroke="gray" stroke-width="2" d="M216.16,-1586.34C251.36,-1878.29 346.22,-2665 346.22,-2665 346.22,-2665 351.16,-2671.1 357.14,-2678.48"/>
<polygon fill="gray" stroke="gray" stroke-width="2" points="354.04,-2680.22 363.06,-2685.79 359.48,-2675.81 354.04,-2680.22"/>
</g>
<!-- AIB -->
<g id="node5" class="node">
<title>AIB</title>
<ellipse fill="none" stroke="black" cx="378.82" cy="-2625" rx="27" ry="18"/>
<text text-anchor="middle" x="378.82" y="-2619.57" font-family="Times New Roman,serif" font-size="14.00">AIB</text>
</g>
<!-- PVN&#45;&gt;AIB -->
<g id="edge5" class="edge">
<title>PVN&#45;&gt;AIB</title>
<path fill="none" stroke="blue" stroke-width="5" d="M217.09,-1586.4C253,-1864.4 346.22,-2586 346.22,-2586 346.22,-2586 349.93,-2590.58 354.81,-2596.61"/>
<polygon fill="blue" stroke="blue" stroke-width="5" points="351.34,-2599.28 361.04,-2604.29 358.14,-2593.77 351.34,-2599.28"/>
</g>
<!-- AIM -->
<g id="node6" class="node">
<title>AIM</title>
<ellipse fill="none" stroke="black" cx="378.82" cy="-2546" rx="28.11" ry="18"/>
<text text-anchor="middle" x="378.82" y="-2540.57" font-family="Times New Roman,serif" font-size="14.00">AIM</text>
</g>
<!-- PVN&#45;&gt;AIM -->
<g id="edge6" class="edge">
<title>PVN&#45;&gt;AIM</title>
<path fill="none" stroke="gray" stroke-width="0.2" d="M219.62,-1585.99C257.18,-1845.45 346.22,-2485.5 346.22,-2485.5 346.22,-2485.5 359.38,-2501.74 368.71,-2519.04"/>
<polygon fill="gray" stroke="gray" stroke-width="0.2" points="365.48,-2520.39 373.02,-2527.83 371.76,-2517.31 365.48,-2520.39"/>
</g>
<!-- AIZ -->
<g id="node7" class="node">
<title>AIZ</title>
<ellipse fill="none" stroke="black" cx="378.82" cy="-2467" rx="27" ry="18"/>
<text text-anchor="middle" x="378.82" y="-2461.57" font-family="Times New Roman,serif" font-size="14.00">AIZ</text>
</g>
<!-- PVN&#45;&gt;AIZ -->
<g id="edge7" class="edge">
<title>PVN&#45;&gt;AIZ</title>
<path fill="none" stroke="gray" stroke-width="0.2" d="M219.34,-1586.02C256.74,-1834.21 346.22,-2428 346.22,-2428 346.22,-2428 351.96,-2435.09 358.55,-2443.22"/>
<polygon fill="gray" stroke="gray" stroke-width="0.2" points="355.76,-2445.34 364.77,-2450.9 361.2,-2440.93 355.76,-2445.34"/>
</g>
<!-- ALM -->
<g id="node8" class="node">
<title>ALM</title>
<ellipse fill="none" stroke="black" cx="378.82" cy="-2388" rx="30.61" ry="18"/>
<text text-anchor="middle" x="378.82" y="-2382.57" font-family="Times New Roman,serif" font-size="14.00">ALM</text>
</g>
<!-- PVN&#45;&gt;ALM -->
<g id="edge8" class="edge">
<title>PVN&#45;&gt;ALM</title>
<path fill="none" stroke="gray" stroke-width="2" d="M222.65,-1585.5C261.75,-1813.61 346.22,-2327.5 346.22,-2327.5 346.22,-2327.5 358.2,-2342.29 367.4,-2358.67"/>
<polygon fill="gray" stroke="gray" stroke-width="2" points="364.17,-2360.04 371.79,-2367.4 370.43,-2356.89 364.17,-2360.04"/>
</g>
<!-- ASE -->
<g id="node9" class="node">
<title>ASE</title>
<ellipse fill="none" stroke="black" cx="378.82" cy="-2309" rx="28.11" ry="18"/>
<text text-anchor="middle" x="378.82" y="-2303.57" font-family="Times New Roman,serif" font-size="14.00">ASE</text>
</g>
<!-- PVN&#45;&gt;ASE -->
<g id="edge9" class="edge">
<title>PVN&#45;&gt;ASE</title>
<path fill="none" stroke="gray" stroke-width="5" d="M224.55,-1584.8C264.41,-1796 346.22,-2248.5 346.22,-2248.5 346.22,-2248.5 356.85,-2261.63 365.79,-2276.85"/>
<polygon fill="gray" stroke="gray" stroke-width="5" points="361.81,-2278.69 370.29,-2285.56 369.58,-2274.67 361.81,-2278.69"/>
</g>
<!-- ASI -->
<g id="node10" class="node">
<title>ASI</title>
<ellipse fill="none" stroke="black" cx="378.82" cy="-2230" rx="27" ry="18"/>
<text text-anchor="middle" x="378.82" y="-2224.57" font-family="Times New Roman,serif" font-size="14.00">ASI</text>
</g>
<!-- PVN&#45;&gt;ASI -->
<g id="edge10" class="edge">
<title>PVN&#45;&gt;ASI</title>
<path fill="none" stroke="gray" stroke-width="5" d="M226.99,-1584.63C267.65,-1778.33 346.22,-2169.5 346.22,-2169.5 346.22,-2169.5 356.85,-2182.63 365.79,-2197.85"/>
<polygon fill="gray" stroke="gray" stroke-width="5" points="361.81,-2199.69 370.29,-2206.56 369.58,-2195.67 361.81,-2199.69"/>
</g>
<!-- ASJ -->
<g id="node11" class="node">
<title>ASJ</title>
<ellipse fill="none" stroke="black" cx="378.82" cy="-2151" rx="27" ry="18"/>
<text text-anchor="middle" x="378.82" y="-2145.57" font-family="Times New Roman,serif" font-size="14.00">ASJ</text>
</g>
<!-- PVN&#45;&gt;ASJ -->
<g id="edge11" class="edge">
<title>PVN&#45;&gt;ASJ</title>
<path fill="none" stroke="gray" stroke-width="2" d="M229.86,-1583.61C271.23,-1758.59 346.22,-2090.5 346.22,-2090.5 346.22,-2090.5 358.2,-2105.29 367.4,-2121.67"/>
<polygon fill="gray" stroke="gray" stroke-width="2" points="364.17,-2123.04 371.79,-2130.4 370.43,-2119.89 364.17,-2123.04"/>
</g>
<!-- ASK -->
<g id="node12" class="node">
<title>ASK</title>
<ellipse fill="none" stroke="black" cx="378.82" cy="-2072" rx="29.11" ry="18"/>
<text text-anchor="middle" x="378.82" y="-2066.57" font-family="Times New Roman,serif" font-size="14.00">ASK</text>
</g>
<!-- PVN&#45;&gt;ASK -->
<g id="edge12" class="edge">
<title>PVN&#45;&gt;ASK</title>
<path fill="none" stroke="blue" stroke-width="5" d="M233.63,-1582.79C275.62,-1737.99 346.22,-2011.5 346.22,-2011.5 346.22,-2011.5 356.85,-2024.63 365.79,-2039.85"/>
<polygon fill="blue" stroke="blue" stroke-width="5" points="361.81,-2041.69 370.29,-2048.56 369.58,-2037.67 361.81,-2041.69"/>
</g>
<!-- AVB -->
<g id="node13" class="node">
<title>AVB</title>
<ellipse fill="none" stroke="black" cx="378.82" cy="-1993" rx="29.61" ry="18"/>
<text text-anchor="middle" x="378.82" y="-1987.58" font-family="Times New Roman,serif" font-size="14.00">AVB</text>
</g>
<!-- PVN&#45;&gt;AVB -->
<g id="edge13" class="edge">
<title>PVN&#45;&gt;AVB</title>
<path fill="none" stroke="gray" stroke-width="5" d="M234.33,-1582.36C276.4,-1722.09 346.22,-1954 346.22,-1954 346.22,-1954 349.93,-1958.58 354.81,-1964.61"/>
<polygon fill="gray" stroke="gray" stroke-width="5" points="351.34,-1967.28 361.04,-1972.29 358.14,-1961.77 351.34,-1967.28"/>
</g>
<!-- AVD -->
<g id="node14" class="node">
<title>AVD</title>
<ellipse fill="none" stroke="black" cx="378.82" cy="-1914" rx="30.11" ry="18"/>
<text text-anchor="middle" x="378.82" y="-1908.58" font-family="Times New Roman,serif" font-size="14.00">AVD</text>
</g>
<!-- PVN&#45;&gt;AVD -->
<g id="edge14" class="edge">
<title>PVN&#45;&gt;AVD</title>
<path fill="none" stroke="gray" stroke-width="0.2" d="M239.95,-1580.72C282.32,-1698.05 346.22,-1875 346.22,-1875 346.22,-1875 351.92,-1882.03 358.47,-1890.13"/>
<polygon fill="gray" stroke="gray" stroke-width="0.2" points="355.39,-1891.89 364.41,-1897.45 360.83,-1887.48 355.39,-1891.89"/>
</g>
<!-- AVE -->
<g id="node15" class="node">
<title>AVE</title>
<ellipse fill="none" stroke="black" cx="378.82" cy="-1835" rx="29.11" ry="18"/>
<text text-anchor="middle" x="378.82" y="-1829.58" font-family="Times New Roman,serif" font-size="14.00">AVE</text>
</g>
<!-- PVN&#45;&gt;AVE -->
<g id="edge15" class="edge">
<title>PVN&#45;&gt;AVE</title>
<path fill="none" stroke="gray" stroke-width="0.2" d="M247.48,-1577.13C289.48,-1670.23 346.22,-1796 346.22,-1796 346.22,-1796 351.96,-1803.09 358.55,-1811.22"/>
<polygon fill="gray" stroke="gray" stroke-width="0.2" points="355.76,-1813.34 364.77,-1818.9 361.2,-1808.93 355.76,-1813.34"/>
</g>
<!-- AVF -->
<g id="node16" class="node">
<title>AVF</title>
<ellipse fill="none" stroke="black" cx="378.82" cy="-1756" rx="29.11" ry="18"/>
<text text-anchor="middle" x="378.82" y="-1750.58" font-family="Times New Roman,serif" font-size="14.00">AVF</text>
</g>
<!-- PVN&#45;&gt;AVF -->
<g id="edge16" class="edge">
<title>PVN&#45;&gt;AVF</title>
<path fill="none" stroke="gray" stroke-width="0.2" d="M266.56,-1566.28C304.81,-1626.59 346.22,-1695.5 346.22,-1695.5 346.22,-1695.5 359.38,-1711.74 368.71,-1729.04"/>
<polygon fill="gray" stroke="gray" stroke-width="0.2" points="365.48,-1730.39 373.02,-1737.83 371.76,-1727.31 365.48,-1730.39"/>
</g>
<!-- AVJ -->
<g id="node17" class="node">
<title>AVJ</title>
<ellipse fill="none" stroke="black" cx="378.82" cy="-1677" rx="27.11" ry="18"/>
<text text-anchor="middle" x="378.82" y="-1671.58" font-family="Times New Roman,serif" font-size="14.00">AVJ</text>
</g>
<!-- PVN&#45;&gt;AVJ -->
<g id="edge17" class="edge">
<title>PVN&#45;&gt;AVJ</title>
<path fill="none" stroke="gray" stroke-width="5" d="M282.09,-1552.38C311.23,-1584.97 341.64,-1621.41 360.16,-1646.77"/>
<polygon fill="gray" stroke="gray" stroke-width="5" points="356.49,-1649.16 365.8,-1654.86 363.67,-1644.16 356.49,-1649.16"/>
</g>
<!-- AVM -->
<g id="node18" class="node">
<title>AVM</title>
<ellipse fill="none" stroke="black" cx="378.82" cy="-1598" rx="31.6" ry="18"/>
<text text-anchor="middle" x="378.82" y="-1592.58" font-family="Times New Roman,serif" font-size="14.00">AVM</text>
</g>
<!-- PVN&#45;&gt;AVM -->
<g id="edge18" class="edge">
<title>PVN&#45;&gt;AVM</title>
<path fill="none" stroke="gray" stroke-width="0.2" d="M298.69,-1528.01C321.61,-1543.98 343.76,-1560.93 358.77,-1574.5"/>
<polygon fill="gray" stroke="gray" stroke-width="0.2" points="356.04,-1576.74 365.72,-1581.06 360.85,-1571.65 356.04,-1576.74"/>
</g>
<!-- AWA -->
<g id="node19" class="node">
<title>AWA</title>
<ellipse fill="none" stroke="black" cx="378.82" cy="-1519" rx="32.6" ry="18"/>
<text text-anchor="middle" x="378.82" y="-1513.58" font-family="Times New Roman,serif" font-size="14.00">AWA</text>
</g>
<!-- PVN&#45;&gt;AWA -->
<g id="edge19" class="edge">
<title>PVN&#45;&gt;AWA</title>
<path fill="none" stroke="gray" stroke-width="2" d="M310.31,-1487.78C323.66,-1491.36 336.36,-1495.3 347.06,-1499.32"/>
<polygon fill="gray" stroke="gray" stroke-width="2" points="345.66,-1502.53 356.24,-1503.09 348.32,-1496.06 345.66,-1502.53"/>
</g>
<!-- AWB -->
<g id="node20" class="node">
<title>AWB</title>
<ellipse fill="none" stroke="black" cx="378.82" cy="-1440" rx="32.1" ry="18"/>
<text text-anchor="middle" x="378.82" y="-1434.58" font-family="Times New Roman,serif" font-size="14.00">AWB</text>
</g>
<!-- PVN&#45;&gt;AWB -->
<g id="edge20" class="edge">
<title>PVN&#45;&gt;AWB</title>
<path fill="none" stroke="gray" stroke-width="0.2" d="M303.52,-1440.63C315.72,-1438.21 327.57,-1436.29 338.09,-1435.1"/>
<polygon fill="gray" stroke="gray" stroke-width="0.2" points="338.21,-1438.6 347.83,-1434.19 337.55,-1431.64 338.21,-1438.6"/>
</g>
<!-- BDU -->
<g id="node21" class="node">
<title>BDU</title>
<ellipse fill="none" stroke="black" cx="378.82" cy="-1361" rx="29.61" ry="18"/>
<text text-anchor="middle" x="378.82" y="-1355.58" font-family="Times New Roman,serif" font-size="14.00">BDU</text>
</g>
<!-- PVN&#45;&gt;BDU -->
<g id="edge21" class="edge">
<title>PVN&#45;&gt;BDU</title>
<path fill="none" stroke="black" stroke-width="5" d="M284.13,-1408.23C302.24,-1395.77 320.73,-1383.99 336.44,-1375.01"/>
<polygon fill="black" stroke="black" stroke-width="5" points="338.38,-1378.94 345.07,-1370.32 334.2,-1371.25 338.38,-1378.94"/>
</g>
<!-- CEP -->
<g id="node22" class="node">
<title>CEP</title>
<ellipse fill="none" stroke="black" cx="378.82" cy="-1282" rx="28.11" ry="18"/>
<text text-anchor="middle" x="378.82" y="-1276.58" font-family="Times New Roman,serif" font-size="14.00">CEP</text>
</g>
<!-- PVN&#45;&gt;CEP -->
<g id="edge22" class="edge">
<title>PVN&#45;&gt;CEP</title>
<path fill="none" stroke="gray" stroke-width="0.2" d="M274.74,-1398.3C304.56,-1364.66 336.92,-1328.14 357.28,-1305.18"/>
<polygon fill="gray" stroke="gray" stroke-width="0.2" points="359.74,-1307.68 363.75,-1297.87 354.5,-1303.03 359.74,-1307.68"/>
</g>
<!-- HSN -->
<g id="node23" class="node">
<title>HSN</title>
<ellipse fill="none" stroke="black" cx="378.82" cy="-1203" rx="29.11" ry="18"/>
<text text-anchor="middle" x="378.82" y="-1197.58" font-family="Times New Roman,serif" font-size="14.00">HSN</text>
</g>
<!-- PVN&#45;&gt;HSN -->
<g id="edge23" class="edge">
<title>PVN&#45;&gt;HSN</title>
<path fill="none" stroke="gray" stroke-width="2" d="M251.43,-1382.48C285.97,-1321.17 328.65,-1249.75 346.24,-1222.65"/>
<polygon fill="gray" stroke="gray" stroke-width="2" points="349,-1224.81 351.82,-1214.6 343.25,-1220.82 349,-1224.81"/>
</g>
<!-- OLL -->
<g id="node24" class="node">
<title>OLL</title>
<ellipse fill="none" stroke="black" cx="378.82" cy="-1124" rx="28.61" ry="18"/>
<text text-anchor="middle" x="378.82" y="-1118.58" font-family="Times New Roman,serif" font-size="14.00">OLL</text>
</g>
<!-- PVN&#45;&gt;OLL -->
<g id="edge24" class="edge">
<title>PVN&#45;&gt;OLL</title>
<path fill="none" stroke="gray" stroke-width="0.2" d="M247.68,-1380.75C289.66,-1287.99 346.22,-1163 346.22,-1163 346.22,-1163 351.96,-1155.91 358.55,-1147.78"/>
<polygon fill="gray" stroke="gray" stroke-width="0.2" points="361.2,-1150.07 364.77,-1140.1 355.76,-1145.66 361.2,-1150.07"/>
</g>
<!-- OLQ -->
<g id="node25" class="node">
<title>OLQ</title>
<ellipse fill="none" stroke="black" cx="378.82" cy="-1045" rx="30.11" ry="18"/>
<text text-anchor="middle" x="378.82" y="-1039.58" font-family="Times New Roman,serif" font-size="14.00">OLQ</text>
</g>
<!-- PVN&#45;&gt;OLQ -->
<g id="edge25" class="edge">
<title>PVN&#45;&gt;OLQ</title>
<path fill="none" stroke="gray" stroke-width="0.2" d="M235.4,-1375.76C272.87,-1265.89 331.26,-1103.9 348.5,-1063.79"/>
<polygon fill="gray" stroke="gray" stroke-width="0.2" points="351.52,-1065.58 352.78,-1055.06 345.23,-1062.5 351.52,-1065.58"/>
</g>
<!-- PVQ -->
<g id="node26" class="node">
<title>PVQ</title>
<ellipse fill="none" stroke="black" cx="378.82" cy="-966" rx="29.61" ry="18"/>
<text text-anchor="middle" x="378.82" y="-960.58" font-family="Times New Roman,serif" font-size="14.00">PVQ</text>
</g>
<!-- PVN&#45;&gt;PVQ -->
<g id="edge26" class="edge">
<title>PVN&#45;&gt;PVQ</title>
<path fill="none" stroke="blue" stroke-width="0.2" d="M230.7,-1374.39C272.24,-1228.7 346.22,-983.5 346.22,-983.5 346.22,-983.5 346.4,-983.27 346.74,-982.87"/>
<polygon fill="blue" stroke="blue" stroke-width="0.2" points="349.08,-985.51 353.03,-975.68 343.81,-980.9 349.08,-985.51"/>
</g>
<!-- PVR -->
<g id="node27" class="node">
<title>PVR</title>
<ellipse fill="none" stroke="black" cx="378.82" cy="-887" rx="29.11" ry="18"/>
<text text-anchor="middle" x="378.82" y="-881.58" font-family="Times New Roman,serif" font-size="14.00">PVR</text>
</g>
<!-- PVN&#45;&gt;PVR -->
<g id="edge27" class="edge">
<title>PVN&#45;&gt;PVR</title>
<path fill="none" stroke="gray" stroke-width="2" d="M227.15,-1373.66C263.57,-1225.04 330.11,-966.89 348.98,-908.09"/>
<polygon fill="gray" stroke="gray" stroke-width="2" points="352.18,-909.53 352.47,-898.94 345.64,-907.04 352.18,-909.53"/>
</g>
<!-- RIC -->
<g id="node28" class="node">
<title>RIC</title>
<ellipse fill="none" stroke="black" cx="378.82" cy="-808" rx="27" ry="18"/>
<text text-anchor="middle" x="378.82" y="-802.58" font-family="Times New Roman,serif" font-size="14.00">RIC</text>
</g>
<!-- PVN&#45;&gt;RIC -->
<g id="edge28" class="edge">
<title>PVN&#45;&gt;RIC</title>
<path fill="none" stroke="gray" stroke-width="0.2" d="M227.07,-1373.57C267.76,-1193.76 346.22,-847 346.22,-847 346.22,-847 351.96,-839.91 358.55,-831.78"/>
<polygon fill="gray" stroke="gray" stroke-width="0.2" points="361.2,-834.07 364.77,-824.1 355.76,-829.66 361.2,-834.07"/>
</g>
<!-- RIF -->
<g id="node29" class="node">
<title>RIF</title>
<ellipse fill="none" stroke="black" cx="378.82" cy="-729" rx="27" ry="18"/>
<text text-anchor="middle" x="378.82" y="-723.58" font-family="Times New Roman,serif" font-size="14.00">RIF</text>
</g>
<!-- PVN&#45;&gt;RIF -->
<g id="edge29" class="edge">
<title>PVN&#45;&gt;RIF</title>
<path fill="none" stroke="gray" stroke-width="2" d="M222.28,-1372.57C257.71,-1187.42 331.31,-820.67 350.51,-749.16"/>
<polygon fill="gray" stroke="gray" stroke-width="2" points="353.74,-750.54 353.57,-739.94 347.1,-748.33 353.74,-750.54"/>
</g>
<!-- RIM -->
<g id="node30" class="node">
<title>RIM</title>
<ellipse fill="none" stroke="black" cx="378.82" cy="-650" rx="28.11" ry="18"/>
<text text-anchor="middle" x="378.82" y="-644.58" font-family="Times New Roman,serif" font-size="14.00">RIM</text>
</g>
<!-- PVN&#45;&gt;RIM -->
<g id="edge30" class="edge">
<title>PVN&#45;&gt;RIM</title>
<path fill="none" stroke="gray" stroke-width="5" d="M222.5,-1372.46C261.53,-1156.82 346.22,-689 346.22,-689 346.22,-689 349.93,-684.42 354.81,-678.39"/>
<polygon fill="gray" stroke="gray" stroke-width="5" points="358.14,-681.23 361.04,-670.71 351.34,-675.72 358.14,-681.23"/>
</g>
<!-- RIS -->
<g id="node31" class="node">
<title>RIS</title>
<ellipse fill="none" stroke="black" cx="378.82" cy="-571" rx="27" ry="18"/>
<text text-anchor="middle" x="378.82" y="-565.58" font-family="Times New Roman,serif" font-size="14.00">RIS</text>
</g>
<!-- PVN&#45;&gt;RIS -->
<g id="edge31" class="edge">
<title>PVN&#45;&gt;RIS</title>
<path fill="none" stroke="blue" stroke-width="5" d="M220.75,-1372.44C258.94,-1140.4 346.22,-610 346.22,-610 346.22,-610 349.93,-605.42 354.81,-599.39"/>
<polygon fill="blue" stroke="blue" stroke-width="5" points="358.14,-602.23 361.04,-591.71 351.34,-596.72 358.14,-602.23"/>
</g>
<!-- RMG -->
<g id="node32" class="node">
<title>RMG</title>
<ellipse fill="none" stroke="black" cx="378.82" cy="-492" rx="32.1" ry="18"/>
<text text-anchor="middle" x="378.82" y="-486.57" font-family="Times New Roman,serif" font-size="14.00">RMG</text>
</g>
<!-- PVN&#45;&gt;RMG -->
<g id="edge32" class="edge">
<title>PVN&#45;&gt;RMG</title>
<path fill="none" stroke="gray" stroke-width="0.2" d="M217.78,-1372.04C251.69,-1136.89 333.89,-591.24 349.9,-512.05"/>
<polygon fill="gray" stroke="gray" stroke-width="0.2" points="353.19,-513.3 352.24,-502.75 346.4,-511.6 353.19,-513.3"/>
</g>
<!-- SDQ -->
<g id="node33" class="node">
<title>SDQ</title>
<ellipse fill="none" stroke="black" cx="378.82" cy="-413" rx="29.61" ry="18"/>
<text text-anchor="middle" x="378.82" y="-407.57" font-family="Times New Roman,serif" font-size="14.00">SDQ</text>
</g>
<!-- PVN&#45;&gt;SDQ -->
<g id="edge33" class="edge">
<title>PVN&#45;&gt;SDQ</title>
<path fill="none" stroke="gray" stroke-width="0.2" d="M218.12,-1372C254.74,-1108.96 346.22,-452 346.22,-452 346.22,-452 351.96,-444.91 358.55,-436.78"/>
<polygon fill="gray" stroke="gray" stroke-width="0.2" points="361.2,-439.07 364.77,-429.1 355.76,-434.66 361.2,-439.07"/>
</g>
<!-- SIB -->
<g id="node34" class="node">
<title>SIB</title>
<ellipse fill="none" stroke="black" cx="378.82" cy="-334" rx="27" ry="18"/>
<text text-anchor="middle" x="378.82" y="-328.57" font-family="Times New Roman,serif" font-size="14.00">SIB</text>
</g>
<!-- PVN&#45;&gt;SIB -->
<g id="edge34" class="edge">
<title>PVN&#45;&gt;SIB</title>
<path fill="none" stroke="gray" stroke-width="0.2" d="M217.09,-1371.7C253,-1093.95 346.22,-373 346.22,-373 346.22,-373 351.96,-365.91 358.55,-357.78"/>
<polygon fill="gray" stroke="gray" stroke-width="0.2" points="361.2,-360.07 364.77,-350.1 355.76,-355.66 361.2,-360.07"/>
</g>
<!-- SMB -->
<g id="node35" class="node">
<title>SMB</title>
<ellipse fill="none" stroke="black" cx="378.82" cy="-255" rx="30.11" ry="18"/>
<text text-anchor="middle" x="378.82" y="-249.57" font-family="Times New Roman,serif" font-size="14.00">SMB</text>
</g>
<!-- PVN&#45;&gt;SMB -->
<g id="edge35" class="edge">
<title>PVN&#45;&gt;SMB</title>
<path fill="none" stroke="gray" stroke-width="2" d="M216.19,-1371.49C251.42,-1079.58 346.22,-294 346.22,-294 346.22,-294 350.81,-288.33 356.5,-281.31"/>
<polygon fill="gray" stroke="gray" stroke-width="2" points="359.12,-283.64 362.69,-273.67 353.68,-279.23 359.12,-283.64"/>
</g>
<!-- URB -->
<g id="node36" class="node">
<title>URB</title>
<ellipse fill="none" stroke="black" cx="378.82" cy="-176" rx="29.61" ry="18"/>
<text text-anchor="middle" x="378.82" y="-170.57" font-family="Times New Roman,serif" font-size="14.00">URB</text>
</g>
<!-- PVN&#45;&gt;URB -->
<g id="edge36" class="edge">
<title>PVN&#45;&gt;URB</title>
<path fill="none" stroke="gray" stroke-width="0.2" d="M215.38,-1371.5C249.93,-1066.07 346.22,-215 346.22,-215 346.22,-215 351.96,-207.91 358.55,-199.78"/>
<polygon fill="gray" stroke="gray" stroke-width="0.2" points="361.2,-202.07 364.77,-192.1 355.76,-197.66 361.2,-202.07"/>
</g>
<!-- URX -->
<g id="node37" class="node">
<title>URX</title>
<ellipse fill="none" stroke="black" cx="378.82" cy="-97" rx="30.11" ry="18"/>
<text text-anchor="middle" x="378.82" y="-91.58" font-family="Times New Roman,serif" font-size="14.00">URX</text>
</g>
<!-- PVN&#45;&gt;URX -->
<g id="edge37" class="edge">
<title>PVN&#45;&gt;URX</title>
<path fill="none" stroke="gray" stroke-width="0.2" d="M213.73,-1371.22C244.89,-1066.87 335.16,-218.35 350.92,-116.74"/>
<polygon fill="gray" stroke="gray" stroke-width="0.2" points="354.32,-117.58 352.86,-107.09 347.45,-116.2 354.32,-117.58"/>
</g>
<!-- URY -->
<g id="node38" class="node">
<title>URY</title>
<ellipse fill="none" stroke="black" cx="378.82" cy="-18" rx="30.11" ry="18"/>
<text text-anchor="middle" x="378.82" y="-12.57" font-family="Times New Roman,serif" font-size="14.00">URY</text>
</g>
<!-- PVN&#45;&gt;URY -->
<g id="edge38" class="edge">
<title>PVN&#45;&gt;URY</title>
<path fill="none" stroke="gray" stroke-width="2" d="M213.16,-1371.33C243.56,-1057.11 333.9,-157.98 350.6,-40.47"/>
<polygon fill="gray" stroke="gray" stroke-width="2" points="354.02,-41.24 352.37,-30.77 347.13,-39.98 354.02,-41.24"/>
</g>
<!-- ADF&#45;&gt;PVN -->
<g id="edge39" class="edge">
<title>ADF&#45;&gt;PVN</title>
<path fill="none" stroke="gray" stroke-width="0.2" d="M353.55,-2773.89C349.3,-2769.31 346.22,-2765.5 346.22,-2765.5 346.22,-2765.5 250.07,-1915.01 215.45,-1596.9"/>
<polygon fill="gray" stroke="gray" stroke-width="0.2" points="218.94,-1596.59 214.38,-1587.03 211.98,-1597.35 218.94,-1596.59"/>
</g>
<!-- AIM&#45;&gt;PVN -->
<g id="edge40" class="edge">
<title>AIM&#45;&gt;PVN</title>
<path fill="none" stroke="gray" stroke-width="2" d="M353.87,-2537.23C349.46,-2532.5 346.22,-2528.5 346.22,-2528.5 346.22,-2528.5 255.29,-1874.85 218.45,-1599.09"/>
<polygon fill="gray" stroke="gray" stroke-width="2" points="221.93,-1598.7 217.13,-1589.25 214.99,-1599.62 221.93,-1598.7"/>
</g>
<!-- ALM&#45;&gt;PVN -->
<g id="edge41" class="edge">
<title>ALM&#45;&gt;PVN</title>
<path fill="none" stroke="gray" stroke-width="2" d="M352.92,-2378.21C349,-2373.94 346.22,-2370.5 346.22,-2370.5 346.22,-2370.5 259.32,-1841.86 221.01,-1598.55"/>
<polygon fill="gray" stroke="gray" stroke-width="2" points="224.48,-1598.1 219.47,-1588.76 217.56,-1599.18 224.48,-1598.1"/>
</g>
<!-- ASE&#45;&gt;PVN -->
<g id="edge42" class="edge">
<title>ASE&#45;&gt;PVN</title>
<path fill="none" stroke="gray" stroke-width="0.2" d="M353.87,-2300.23C349.46,-2295.5 346.22,-2291.5 346.22,-2291.5 346.22,-2291.5 261.05,-1820.41 222.17,-1595.45"/>
<polygon fill="gray" stroke="gray" stroke-width="0.2" points="225.67,-1595.14 220.52,-1585.88 218.77,-1596.33 225.67,-1595.14"/>
</g>
<!-- ASI&#45;&gt;PVN -->
<g id="edge43" class="edge">
<title>ASI&#45;&gt;PVN</title>
<path fill="none" stroke="blue" stroke-width="5" d="M354.52,-2221.93C349.78,-2216.9 346.22,-2212.5 346.22,-2212.5 346.22,-2212.5 265.47,-1810.48 225.33,-1601.49"/>
<polygon fill="blue" stroke="blue" stroke-width="5" points="229.63,-1600.69 223.45,-1591.69 221.04,-1602.33 229.63,-1600.69"/>
</g>
<!-- ASJ&#45;&gt;PVN -->
<g id="edge44" class="edge">
<title>ASJ&#45;&gt;PVN</title>
<path fill="none" stroke="gray" stroke-width="2" d="M354.52,-2142.93C349.78,-2137.9 346.22,-2133.5 346.22,-2133.5 346.22,-2133.5 267.76,-1786.23 227.08,-1597.39"/>
<polygon fill="gray" stroke="gray" stroke-width="2" points="230.55,-1596.9 225.03,-1587.86 223.71,-1598.38 230.55,-1596.9"/>
</g>
<!-- ASK&#45;&gt;PVN -->
<g id="edge45" class="edge">
<title>ASK&#45;&gt;PVN</title>
<path fill="none" stroke="gray" stroke-width="0.2" d="M353.55,-2062.89C349.3,-2058.31 346.22,-2054.5 346.22,-2054.5 346.22,-2054.5 270.89,-1762.68 229.58,-1594.41"/>
<polygon fill="gray" stroke="gray" stroke-width="0.2" points="233,-1593.68 227.22,-1584.8 226.2,-1595.35 233,-1593.68"/>
</g>
<!-- AVF&#45;&gt;PVN -->
<g id="edge46" class="edge">
<title>AVF&#45;&gt;PVN</title>
<path fill="none" stroke="gray" stroke-width="5" d="M353.55,-1746.89C349.3,-1742.31 346.22,-1738.5 346.22,-1738.5 346.22,-1738.5 299.25,-1660.32 259.14,-1589.53"/>
<polygon fill="gray" stroke="gray" stroke-width="5" points="263.02,-1587.5 254.29,-1580.93 255.39,-1591.79 263.02,-1587.5"/>
</g>
<!-- AVJ&#45;&gt;PVN -->
<g id="edge47" class="edge">
<title>AVJ&#45;&gt;PVN</title>
<path fill="none" stroke="gray" stroke-width="0.2" d="M357.83,-1665.06C337.11,-1646 303.54,-1609.64 272.97,-1573.93"/>
<polygon fill="gray" stroke="gray" stroke-width="0.2" points="275.84,-1571.91 266.69,-1566.56 270.51,-1576.45 275.84,-1571.91"/>
</g>
<!-- AVM&#45;&gt;PVN -->
<g id="edge48" class="edge">
<title>AVM&#45;&gt;PVN</title>
<path fill="none" stroke="red" stroke-width="0.2" d="M349.24,-1590.83C333.43,-1582.54 312.84,-1569.77 292.12,-1555.71"/>
<polygon fill="red" stroke="red" stroke-width="0.2" points="294.35,-1553 284.12,-1550.23 290.39,-1558.77 294.35,-1553"/>
</g>
<!-- AWA&#45;&gt;PVN -->
<g id="edge49" class="edge">
<title>AWA&#45;&gt;PVN</title>
<path fill="none" stroke="gray" stroke-width="2" d="M347.3,-1524.61C338.03,-1523.85 327.26,-1522.35 315.85,-1520.31"/>
<polygon fill="gray" stroke="gray" stroke-width="2" points="316.72,-1516.91 306.24,-1518.46 315.4,-1523.79 316.72,-1516.91"/>
</g>
<!-- AWB&#45;&gt;PVN -->
<g id="edge50" class="edge">
<title>AWB&#45;&gt;PVN</title>
<path fill="none" stroke="blue" stroke-width="2" d="M359.05,-1454.65C349.4,-1458.98 336.76,-1463.35 322.83,-1467.38"/>
<polygon fill="blue" stroke="blue" stroke-width="2" points="321.94,-1464 313.23,-1470.03 323.8,-1470.75 321.94,-1464"/>
</g>
<!-- BDU&#45;&gt;PVN -->
<g id="edge51" class="edge">
<title>BDU&#45;&gt;PVN</title>
<path fill="none" stroke="black" stroke-width="5" d="M365.98,-1377.62C353.93,-1389.55 333.94,-1405.41 312.03,-1421.14"/>
<polygon fill="black" stroke="black" stroke-width="5" points="309.7,-1417.43 304.04,-1426.77 314.74,-1424.59 309.7,-1417.43"/>
</g>
<!-- HSN&#45;&gt;PVN -->
<g id="edge52" class="edge">
<title>HSN&#45;&gt;PVN</title>
<path fill="none" stroke="red" stroke-width="2" d="M373.15,-1220.9C364.36,-1241.1 346.22,-1263.5 346.22,-1263.5 346.22,-1263.5 309.81,-1323.84 273.73,-1380.87"/>
<polygon fill="red" stroke="red" stroke-width="2" points="270.8,-1378.96 268.39,-1389.28 276.71,-1382.71 270.8,-1378.96"/>
</g>
<!-- OLQ&#45;&gt;PVN -->
<g id="edge53" class="edge">
<title>OLQ&#45;&gt;PVN</title>
<path fill="none" stroke="gray" stroke-width="0.2" d="M373.15,-1062.9C364.36,-1083.1 346.22,-1105.5 346.22,-1105.5 346.22,-1105.5 290.47,-1259.49 248.59,-1369.94"/>
<polygon fill="gray" stroke="gray" stroke-width="0.2" points="245.35,-1368.61 245.07,-1379.2 251.89,-1371.1 245.35,-1368.61"/>
</g>
<!-- PVQ&#45;&gt;PVN -->
<g id="edge54" class="edge">
<title>PVQ&#45;&gt;PVN</title>
<path fill="none" stroke="gray" stroke-width="0.2" d="M373.15,-983.9C364.36,-1004.1 346.22,-1026.5 346.22,-1026.5 346.22,-1026.5 283.85,-1233.24 241.49,-1367.45"/>
<polygon fill="gray" stroke="gray" stroke-width="0.2" points="238.24,-1366.11 238.56,-1376.7 244.92,-1368.22 238.24,-1366.11"/>
</g>
<!-- PVR&#45;&gt;PVN -->
<g id="edge55" class="edge">
<title>PVR&#45;&gt;PVN</title>
<path fill="none" stroke="gray" stroke-width="2" d="M373.15,-904.9C364.36,-925.1 346.22,-947.5 346.22,-947.5 346.22,-947.5 279.29,-1206.31 237.01,-1362.93"/>
<polygon fill="gray" stroke="gray" stroke-width="2" points="233.65,-1361.94 234.42,-1372.5 240.41,-1363.77 233.65,-1361.94"/>
</g>
<!-- RIF&#45;&gt;PVN -->
<g id="edge56" class="edge">
<title>RIF&#45;&gt;PVN</title>
<path fill="none" stroke="gray" stroke-width="0.2" d="M373.15,-746.9C364.36,-767.1 346.22,-789.5 346.22,-789.5 346.22,-789.5 270.24,-1167.26 229.05,-1363.75"/>
<polygon fill="gray" stroke="gray" stroke-width="0.2" points="225.68,-1362.74 227.05,-1373.24 232.53,-1364.18 225.68,-1362.74"/>
</g>
<!-- RMG&#45;&gt;PVN -->
<g id="edge57" class="edge">
<title>RMG&#45;&gt;PVN</title>
<path fill="none" stroke="gray" stroke-width="0.2" d="M373.15,-509.9C364.36,-530.1 346.22,-552.5 346.22,-552.5 346.22,-552.5 261.65,-1113.14 222.58,-1362.36"/>
<polygon fill="gray" stroke="gray" stroke-width="0.2" points="219.18,-1361.46 221.09,-1371.88 226.09,-1362.54 219.18,-1361.46"/>
</g>
<!-- URX&#45;&gt;PVN -->
<g id="edge58" class="edge">
<title>URX&#45;&gt;PVN</title>
<path fill="none" stroke="gray" stroke-width="0.2" d="M373.15,-114.9C364.36,-135.1 346.22,-157.5 346.22,-157.5 346.22,-157.5 252.46,-1038.05 216.78,-1361.72"/>
<polygon fill="gray" stroke="gray" stroke-width="0.2" points="213.34,-1360.98 215.72,-1371.3 220.3,-1361.74 213.34,-1360.98"/>
</g>
<!-- URY&#45;&gt;PVN -->
<g id="edge59" class="edge">
<title>URY&#45;&gt;PVN</title>
<path fill="none" stroke="gray" stroke-width="0.2" d="M373.15,-35.9C364.36,-56.1 346.22,-78.5 346.22,-78.5 346.22,-78.5 251.07,-1024.62 216,-1361.72"/>
<polygon fill="gray" stroke="gray" stroke-width="0.2" points="212.57,-1360.9 215.01,-1371.21 219.53,-1361.63 212.57,-1360.9"/>
</g>
<!-- ADE -->
<g id="node39" class="node">
<title>ADE</title>
<ellipse fill="none" stroke="black" cx="29.11" cy="-1677" rx="29.11" ry="18"/>
<text text-anchor="middle" x="29.11" y="-1671.58" font-family="Times New Roman,serif" font-size="14.00">ADE</text>
</g>
<!-- ADE&#45;&gt;PVN -->
<g id="edge60" class="edge">
<title>ADE&#45;&gt;PVN</title>
<path fill="none" stroke="gray" stroke-width="0.2" d="M43.82,-1661.13C61.52,-1640.66 93.68,-1603.44 124.34,-1567.96"/>
<polygon fill="gray" stroke="gray" stroke-width="0.2" points="126.77,-1570.5 130.66,-1560.65 121.47,-1565.92 126.77,-1570.5"/>
</g>
<!-- ADL -->
<g id="node40" class="node">
<title>ADL</title>
<ellipse fill="none" stroke="black" cx="29.11" cy="-1598" rx="29.11" ry="18"/>
<text text-anchor="middle" x="29.11" y="-1592.58" font-family="Times New Roman,serif" font-size="14.00">ADL</text>
</g>
<!-- ADL&#45;&gt;PVN -->
<g id="edge61" class="edge">
<title>ADL&#45;&gt;PVN</title>
<path fill="none" stroke="gray" stroke-width="nan" d="M49.4,-1584.58C65.31,-1573.52 89.09,-1556.98 113.14,-1540.26"/>
<polygon fill="gray" stroke="gray" stroke-width="nan" points="nan,-nan nan,-nan nan,-nan nan,-nan"/>
</g>
<!-- ALA -->
<g id="node41" class="node">
<title>ALA</title>
<ellipse fill="none" stroke="black" cx="29.11" cy="-1519" rx="29.11" ry="18"/>
<text text-anchor="middle" x="29.11" y="-1513.58" font-family="Times New Roman,serif" font-size="14.00">ALA</text>
</g>
<!-- ALA&#45;&gt;PVN -->
<g id="edge62" class="edge">
<title>ALA&#45;&gt;PVN</title>
<path fill="none" stroke="gray" stroke-width="0.2" d="M56.84,-1512.75C65.57,-1510.71 75.87,-1508.3 86.9,-1505.72"/>
<polygon fill="gray" stroke="gray" stroke-width="0.2" points="87.52,-1509.17 96.46,-1503.49 85.92,-1502.36 87.52,-1509.17"/>
</g>
<!-- ASH -->
<g id="node42" class="node">
<title>ASH</title>
<ellipse fill="none" stroke="black" cx="29.11" cy="-1440" rx="29.11" ry="18"/>
<text text-anchor="middle" x="29.11" y="-1434.58" font-family="Times New Roman,serif" font-size="14.00">ASH</text>
</g>
<!-- ASH&#45;&gt;PVN -->
<g id="edge63" class="edge">
<title>ASH&#45;&gt;PVN</title>
<path fill="none" stroke="gray" stroke-width="2" d="M56.84,-1446.09C64.8,-1447.91 74.06,-1450.02 83.99,-1452.28"/>
<polygon fill="gray" stroke="gray" stroke-width="2" points="82.91,-1455.62 93.43,-1454.43 84.46,-1448.8 82.91,-1455.62"/>
</g>
<!-- PVP -->
<g id="node43" class="node">
<title>PVP</title>
<ellipse fill="none" stroke="black" cx="29.11" cy="-1361" rx="28.11" ry="18"/>
<text text-anchor="middle" x="29.11" y="-1355.58" font-family="Times New Roman,serif" font-size="14.00">PVP</text>
</g>
<!-- PVP&#45;&gt;PVN -->
<g id="edge64" class="edge">
<title>PVP&#45;&gt;PVN</title>
<path fill="none" stroke="gray" stroke-width="2" d="M49.07,-1374.08C62.56,-1383.38 81.82,-1396.66 102.13,-1410.67"/>
<polygon fill="gray" stroke="gray" stroke-width="2" points="100.1,-1413.52 110.32,-1416.32 104.08,-1407.76 100.1,-1413.52"/>
</g>
<!-- SAA -->
<g id="node44" class="node">
<title>SAA</title>
<ellipse fill="none" stroke="black" cx="29.11" cy="-1282" rx="29.11" ry="18"/>
<text text-anchor="middle" x="29.11" y="-1276.58" font-family="Times New Roman,serif" font-size="14.00">SAA</text>
</g>
<!-- SAA&#45;&gt;PVN -->
<g id="edge65" class="edge">
<title>SAA&#45;&gt;PVN</title>
<path fill="none" stroke="gray" stroke-width="0.2" d="M43.82,-1297.79C61.52,-1318.16 93.68,-1355.19 124.34,-1390.49"/>
<polygon fill="gray" stroke="gray" stroke-width="0.2" points="121.46,-1392.51 130.66,-1397.77 126.74,-1387.92 121.46,-1392.51"/>
</g>
</g>
</svg>
