<?xml version="1.0" encoding="UTF-8" standalone="no"?>
<!DOCTYPE svg PUBLIC "-//W3C//DTD SVG 1.1//EN"
 "http://www.w3.org/Graphics/SVG/1.1/DTD/svg11.dtd">
<!-- Generated by graphviz version 11.0.0 (20240428.1522)
 -->
<!-- Pages: 1 -->
<svg width="422pt" height="2572pt"
 viewBox="0.00 0.00 422.41 2572.00" xmlns="http://www.w3.org/2000/svg" xmlns:xlink="http://www.w3.org/1999/xlink">
<g id="graph0" class="graph" transform="scale(1 1) rotate(0) translate(4 2568)">
<polygon fill="white" stroke="none" points="-4,4 -4,-2568 418.41,-2568 418.41,4 -4,4"/>
<!-- PVP -->
<g id="node1" class="node">
<title>PVP</title>
<ellipse fill="none" stroke="black" cx="205.21" cy="-1321" rx="108" ry="108"/>
<text text-anchor="middle" x="205.21" y="-1302" font-family="Times New Roman,serif" font-size="50.00">PVP</text>
</g>
<!-- PVP&#45;&gt;PVP -->
<g id="edge1" class="edge">
<title>PVP&#45;&gt;PVP</title>
<path fill="none" stroke="gray" stroke-width="0.2" d="M172.78,-1424.39C174.71,-1451.51 185.52,-1472 205.21,-1472 222.37,-1472 232.78,-1456.45 236.45,-1434.52"/>
<polygon fill="gray" stroke="gray" stroke-width="0.2" points="239.91,-1435.03 237.6,-1424.69 232.96,-1434.22 239.91,-1435.03"/>
</g>
<!-- ADA -->
<g id="node2" class="node">
<title>ADA</title>
<ellipse fill="none" stroke="black" cx="381.81" cy="-2546" rx="30.11" ry="18"/>
<text text-anchor="middle" x="381.81" y="-2540.57" font-family="Times New Roman,serif" font-size="14.00">ADA</text>
</g>
<!-- PVP&#45;&gt;ADA -->
<g id="edge2" class="edge">
<title>PVP&#45;&gt;ADA</title>
<path fill="none" stroke="black" stroke-width="2" d="M220.38,-1428.23C256.5,-1716.61 349.21,-2485.5 349.21,-2485.5 349.21,-2485.5 361.19,-2500.29 370.4,-2516.67"/>
<polygon fill="black" stroke="black" stroke-width="2" points="367.17,-2518.04 374.79,-2525.4 373.42,-2514.89 367.17,-2518.04"/>
</g>
<!-- ADF -->
<g id="node3" class="node">
<title>ADF</title>
<ellipse fill="none" stroke="black" cx="381.81" cy="-2467" rx="29.11" ry="18"/>
<text text-anchor="middle" x="381.81" y="-2461.57" font-family="Times New Roman,serif" font-size="14.00">ADF</text>
</g>
<!-- PVP&#45;&gt;ADF -->
<g id="edge3" class="edge">
<title>PVP&#45;&gt;ADF</title>
<path fill="none" stroke="gray" stroke-width="0.2" d="M221.41,-1428.09C258.24,-1702.25 349.21,-2406.5 349.21,-2406.5 349.21,-2406.5 362.37,-2422.74 371.71,-2440.04"/>
<polygon fill="gray" stroke="gray" stroke-width="0.2" points="368.47,-2441.39 376.02,-2448.83 374.76,-2438.31 368.47,-2441.39"/>
</g>
<!-- AIB -->
<g id="node4" class="node">
<title>AIB</title>
<ellipse fill="none" stroke="black" cx="381.81" cy="-2388" rx="27" ry="18"/>
<text text-anchor="middle" x="381.81" y="-2382.57" font-family="Times New Roman,serif" font-size="14.00">AIB</text>
</g>
<!-- PVP&#45;&gt;AIB -->
<g id="edge4" class="edge">
<title>PVP&#45;&gt;AIB</title>
<path fill="none" stroke="gray" stroke-width="2" d="M221.11,-1428.1C257.73,-1691.4 349.21,-2349 349.21,-2349 349.21,-2349 354.15,-2355.1 360.13,-2362.48"/>
<polygon fill="gray" stroke="gray" stroke-width="2" points="357.04,-2364.22 366.05,-2369.79 362.48,-2359.81 357.04,-2364.22"/>
</g>
<!-- AQR -->
<g id="node5" class="node">
<title>AQR</title>
<ellipse fill="none" stroke="black" cx="381.81" cy="-2309" rx="30.61" ry="18"/>
<text text-anchor="middle" x="381.81" y="-2303.57" font-family="Times New Roman,serif" font-size="14.00">AQR</text>
</g>
<!-- PVP&#45;&gt;AQR -->
<g id="edge5" class="edge">
<title>PVP&#45;&gt;AQR</title>
<path fill="none" stroke="gray" stroke-width="5" d="M223.96,-1427.49C262.26,-1671.45 349.21,-2248.5 349.21,-2248.5 349.21,-2248.5 359.85,-2261.63 368.78,-2276.85"/>
<polygon fill="gray" stroke="gray" stroke-width="5" points="364.8,-2278.69 373.28,-2285.56 372.58,-2274.67 364.8,-2278.69"/>
</g>
<!-- ASH -->
<g id="node6" class="node">
<title>ASH</title>
<ellipse fill="none" stroke="black" cx="381.81" cy="-2230" rx="29.11" ry="18"/>
<text text-anchor="middle" x="381.81" y="-2224.57" font-family="Times New Roman,serif" font-size="14.00">ASH</text>
</g>
<!-- PVP&#45;&gt;ASH -->
<g id="edge6" class="edge">
<title>PVP&#45;&gt;ASH</title>
<path fill="none" stroke="gray" stroke-width="0.2" d="M225.64,-1427.5C264.74,-1655.61 349.21,-2169.5 349.21,-2169.5 349.21,-2169.5 362.37,-2185.74 371.71,-2203.04"/>
<polygon fill="gray" stroke="gray" stroke-width="0.2" points="368.47,-2204.39 376.02,-2211.83 374.76,-2201.31 368.47,-2204.39"/>
</g>
<!-- AVA -->
<g id="node7" class="node">
<title>AVA</title>
<ellipse fill="none" stroke="black" cx="381.81" cy="-2151" rx="30.11" ry="18"/>
<text text-anchor="middle" x="381.81" y="-2145.57" font-family="Times New Roman,serif" font-size="14.00">AVA</text>
</g>
<!-- PVP&#45;&gt;AVA -->
<g id="edge7" class="edge">
<title>PVP&#45;&gt;AVA</title>
<path fill="none" stroke="gray" stroke-width="5" d="M225.42,-1427.27C264.42,-1642.99 349.21,-2112 349.21,-2112 349.21,-2112 352.82,-2116.46 357.6,-2122.36"/>
<polygon fill="gray" stroke="gray" stroke-width="5" points="353.97,-2124.83 363.67,-2129.84 360.77,-2119.32 353.97,-2124.83"/>
</g>
<!-- AVB -->
<g id="node8" class="node">
<title>AVB</title>
<ellipse fill="none" stroke="black" cx="381.81" cy="-2072" rx="29.61" ry="18"/>
<text text-anchor="middle" x="381.81" y="-2066.57" font-family="Times New Roman,serif" font-size="14.00">AVB</text>
</g>
<!-- PVP&#45;&gt;AVB -->
<g id="edge8" class="edge">
<title>PVP&#45;&gt;AVB</title>
<path fill="none" stroke="black" stroke-width="5" d="M227.46,-1426.82C267.3,-1625.17 349.21,-2033 349.21,-2033 349.21,-2033 352.92,-2037.58 357.8,-2043.61"/>
<polygon fill="black" stroke="black" stroke-width="5" points="354.34,-2046.28 364.03,-2051.29 361.13,-2040.77 354.34,-2046.28"/>
</g>
<!-- AVD -->
<g id="node9" class="node">
<title>AVD</title>
<ellipse fill="none" stroke="black" cx="381.81" cy="-1993" rx="30.11" ry="18"/>
<text text-anchor="middle" x="381.81" y="-1987.58" font-family="Times New Roman,serif" font-size="14.00">AVD</text>
</g>
<!-- PVP&#45;&gt;AVD -->
<g id="edge9" class="edge">
<title>PVP&#45;&gt;AVD</title>
<path fill="none" stroke="gray" stroke-width="5" d="M230.06,-1426.59C270.75,-1606.69 349.21,-1954 349.21,-1954 349.21,-1954 352.82,-1958.46 357.6,-1964.36"/>
<polygon fill="gray" stroke="gray" stroke-width="5" points="353.97,-1966.83 363.67,-1971.84 360.77,-1961.32 353.97,-1966.83"/>
</g>
<!-- AVE -->
<g id="node10" class="node">
<title>AVE</title>
<ellipse fill="none" stroke="black" cx="381.81" cy="-1914" rx="29.11" ry="18"/>
<text text-anchor="middle" x="381.81" y="-1908.58" font-family="Times New Roman,serif" font-size="14.00">AVE</text>
</g>
<!-- PVP&#45;&gt;AVE -->
<g id="edge10" class="edge">
<title>PVP&#45;&gt;AVE</title>
<path fill="none" stroke="gray" stroke-width="2" d="M236.62,-1424.79C278.61,-1579.99 349.21,-1853.5 349.21,-1853.5 349.21,-1853.5 361.19,-1868.29 370.4,-1884.67"/>
<polygon fill="gray" stroke="gray" stroke-width="2" points="367.17,-1886.04 374.79,-1893.4 373.42,-1882.89 367.17,-1886.04"/>
</g>
<!-- AVF -->
<g id="node11" class="node">
<title>AVF</title>
<ellipse fill="none" stroke="black" cx="381.81" cy="-1835" rx="29.11" ry="18"/>
<text text-anchor="middle" x="381.81" y="-1829.58" font-family="Times New Roman,serif" font-size="14.00">AVF</text>
</g>
<!-- PVP&#45;&gt;AVF -->
<g id="edge11" class="edge">
<title>PVP&#45;&gt;AVF</title>
<path fill="none" stroke="gray" stroke-width="0.2" d="M237.33,-1424.36C279.39,-1564.09 349.21,-1796 349.21,-1796 349.21,-1796 354.95,-1803.09 361.54,-1811.22"/>
<polygon fill="gray" stroke="gray" stroke-width="0.2" points="358.75,-1813.34 367.77,-1818.9 364.19,-1808.93 358.75,-1813.34"/>
</g>
<!-- AVH -->
<g id="node12" class="node">
<title>AVH</title>
<ellipse fill="none" stroke="black" cx="381.81" cy="-1756" rx="30.11" ry="18"/>
<text text-anchor="middle" x="381.81" y="-1750.58" font-family="Times New Roman,serif" font-size="14.00">AVH</text>
</g>
<!-- PVP&#45;&gt;AVH -->
<g id="edge12" class="edge">
<title>PVP&#45;&gt;AVH</title>
<path fill="none" stroke="red" stroke-width="5" d="M247.86,-1420.56C290.07,-1531.74 349.21,-1695.5 349.21,-1695.5 349.21,-1695.5 359.85,-1708.63 368.78,-1723.85"/>
<polygon fill="red" stroke="red" stroke-width="5" points="364.8,-1725.69 373.28,-1732.56 372.58,-1721.67 364.8,-1725.69"/>
</g>
<!-- AVJ -->
<g id="node13" class="node">
<title>AVJ</title>
<ellipse fill="none" stroke="black" cx="381.81" cy="-1677" rx="27.11" ry="18"/>
<text text-anchor="middle" x="381.81" y="-1671.58" font-family="Times New Roman,serif" font-size="14.00">AVJ</text>
</g>
<!-- PVP&#45;&gt;AVJ -->
<g id="edge13" class="edge">
<title>PVP&#45;&gt;AVJ</title>
<path fill="none" stroke="gray" stroke-width="2" d="M256.83,-1416.32C297.96,-1502.9 349.21,-1616.5 349.21,-1616.5 349.21,-1616.5 361.19,-1631.29 370.4,-1647.67"/>
<polygon fill="gray" stroke="gray" stroke-width="2" points="367.17,-1649.04 374.79,-1656.4 373.42,-1645.89 367.17,-1649.04"/>
</g>
<!-- AVK -->
<g id="node14" class="node">
<title>AVK</title>
<ellipse fill="none" stroke="black" cx="381.81" cy="-1598" rx="30.11" ry="18"/>
<text text-anchor="middle" x="381.81" y="-1592.58" font-family="Times New Roman,serif" font-size="14.00">AVK</text>
</g>
<!-- PVP&#45;&gt;AVK -->
<g id="edge14" class="edge">
<title>PVP&#45;&gt;AVK</title>
<path fill="none" stroke="gray" stroke-width="0.2" d="M261.7,-1413.36C301.9,-1480.26 349.21,-1559 349.21,-1559 349.21,-1559 354.91,-1566.03 361.47,-1574.13"/>
<polygon fill="gray" stroke="gray" stroke-width="0.2" points="358.39,-1575.89 367.4,-1581.45 363.83,-1571.48 358.39,-1575.89"/>
</g>
<!-- AWA -->
<g id="node15" class="node">
<title>AWA</title>
<ellipse fill="none" stroke="black" cx="381.81" cy="-1519" rx="32.6" ry="18"/>
<text text-anchor="middle" x="381.81" y="-1513.58" font-family="Times New Roman,serif" font-size="14.00">AWA</text>
</g>
<!-- PVP&#45;&gt;AWA -->
<g id="edge15" class="edge">
<title>PVP&#45;&gt;AWA</title>
<path fill="none" stroke="gray" stroke-width="0.2" d="M277.48,-1401.82C307.17,-1435.49 339.42,-1472.07 359.86,-1495.24"/>
<polygon fill="gray" stroke="gray" stroke-width="0.2" points="357.13,-1497.44 366.37,-1502.62 362.38,-1492.81 357.13,-1497.44"/>
</g>
<!-- AWB -->
<g id="node16" class="node">
<title>AWB</title>
<ellipse fill="none" stroke="black" cx="381.81" cy="-1440" rx="32.1" ry="18"/>
<text text-anchor="middle" x="381.81" y="-1434.58" font-family="Times New Roman,serif" font-size="14.00">AWB</text>
</g>
<!-- PVP&#45;&gt;AWB -->
<g id="edge16" class="edge">
<title>PVP&#45;&gt;AWB</title>
<path fill="none" stroke="blue" stroke-width="0.2" d="M301.68,-1370.01C324.6,-1385.98 346.76,-1402.93 361.77,-1416.5"/>
<polygon fill="blue" stroke="blue" stroke-width="0.2" points="359.04,-1418.74 368.71,-1423.06 363.84,-1413.65 359.04,-1418.74"/>
</g>
<!-- DVA -->
<g id="node17" class="node">
<title>DVA</title>
<ellipse fill="none" stroke="black" cx="381.81" cy="-1361" rx="30.11" ry="18"/>
<text text-anchor="middle" x="381.81" y="-1355.58" font-family="Times New Roman,serif" font-size="14.00">DVA</text>
</g>
<!-- PVP&#45;&gt;DVA -->
<g id="edge17" class="edge">
<title>PVP&#45;&gt;DVA</title>
<path fill="none" stroke="gray" stroke-width="0.2" d="M313.31,-1329.78C328.16,-1333.76 342.2,-1338.2 353.59,-1342.68"/>
<polygon fill="gray" stroke="gray" stroke-width="0.2" points="352.02,-1345.82 362.6,-1346.5 354.76,-1339.37 352.02,-1345.82"/>
</g>
<!-- OLQ -->
<g id="node18" class="node">
<title>OLQ</title>
<ellipse fill="none" stroke="black" cx="381.81" cy="-1282" rx="30.11" ry="18"/>
<text text-anchor="middle" x="381.81" y="-1276.58" font-family="Times New Roman,serif" font-size="14.00">OLQ</text>
</g>
<!-- PVP&#45;&gt;OLQ -->
<g id="edge18" class="edge">
<title>PVP&#45;&gt;OLQ</title>
<path fill="none" stroke="gray" stroke-width="0.2" d="M306.51,-1282.63C319.41,-1280.07 331.93,-1278.07 342.89,-1276.9"/>
<polygon fill="gray" stroke="gray" stroke-width="0.2" points="342.93,-1280.41 352.59,-1276.06 342.33,-1273.44 342.93,-1280.41"/>
</g>
<!-- PVC -->
<g id="node19" class="node">
<title>PVC</title>
<ellipse fill="none" stroke="black" cx="381.81" cy="-1203" rx="29.11" ry="18"/>
<text text-anchor="middle" x="381.81" y="-1197.58" font-family="Times New Roman,serif" font-size="14.00">PVC</text>
</g>
<!-- PVP&#45;&gt;PVC -->
<g id="edge19" class="edge">
<title>PVP&#45;&gt;PVC</title>
<path fill="none" stroke="black" stroke-width="5" d="M287.12,-1250.23C305.37,-1237.68 324,-1225.81 339.79,-1216.81"/>
<polygon fill="black" stroke="black" stroke-width="5" points="341.76,-1220.72 348.46,-1212.1 337.59,-1213.03 341.76,-1220.72"/>
</g>
<!-- PVN -->
<g id="node20" class="node">
<title>PVN</title>
<ellipse fill="none" stroke="black" cx="381.81" cy="-1124" rx="29.11" ry="18"/>
<text text-anchor="middle" x="381.81" y="-1118.58" font-family="Times New Roman,serif" font-size="14.00">PVN</text>
</g>
<!-- PVP&#45;&gt;PVN -->
<g id="edge20" class="edge">
<title>PVP&#45;&gt;PVN</title>
<path fill="none" stroke="gray" stroke-width="2" d="M277.73,-1240.3C306.64,-1207.68 337.94,-1172.37 358.37,-1149.32"/>
<polygon fill="gray" stroke="gray" stroke-width="2" points="360.92,-1151.72 364.94,-1141.91 355.69,-1147.07 360.92,-1151.72"/>
</g>
<!-- PVQ -->
<g id="node21" class="node">
<title>PVQ</title>
<ellipse fill="none" stroke="black" cx="381.81" cy="-1045" rx="29.61" ry="18"/>
<text text-anchor="middle" x="381.81" y="-1039.58" font-family="Times New Roman,serif" font-size="14.00">PVQ</text>
</g>
<!-- PVP&#45;&gt;PVQ -->
<g id="edge21" class="edge">
<title>PVP&#45;&gt;PVQ</title>
<path fill="none" stroke="gray" stroke-width="2" d="M262.11,-1228.74C302.22,-1162.55 349.21,-1085 349.21,-1085 349.21,-1085 354.04,-1078.88 359.93,-1071.43"/>
<polygon fill="gray" stroke="gray" stroke-width="2" points="362.63,-1073.66 366.08,-1063.64 357.14,-1069.32 362.63,-1073.66"/>
</g>
<!-- RIA -->
<g id="node22" class="node">
<title>RIA</title>
<ellipse fill="none" stroke="black" cx="381.81" cy="-966" rx="27" ry="18"/>
<text text-anchor="middle" x="381.81" y="-960.58" font-family="Times New Roman,serif" font-size="14.00">RIA</text>
</g>
<!-- PVP&#45;&gt;RIA -->
<g id="edge22" class="edge">
<title>PVP&#45;&gt;RIA</title>
<path fill="none" stroke="gray" stroke-width="2" d="M250.87,-1222.63C292.83,-1130.2 349.21,-1006 349.21,-1006 349.21,-1006 354.29,-999.57 360.38,-991.86"/>
<polygon fill="gray" stroke="gray" stroke-width="2" points="362.99,-994.2 366.45,-984.18 357.5,-989.86 362.99,-994.2"/>
</g>
<!-- RIC -->
<g id="node23" class="node">
<title>RIC</title>
<ellipse fill="none" stroke="black" cx="381.81" cy="-887" rx="27" ry="18"/>
<text text-anchor="middle" x="381.81" y="-881.58" font-family="Times New Roman,serif" font-size="14.00">RIC</text>
</g>
<!-- PVP&#45;&gt;RIC -->
<g id="edge23" class="edge">
<title>PVP&#45;&gt;RIC</title>
<path fill="none" stroke="gray" stroke-width="2" d="M243.04,-1219.54C285.41,-1102.8 349.21,-927 349.21,-927 349.21,-927 354.29,-920.57 360.38,-912.86"/>
<polygon fill="gray" stroke="gray" stroke-width="2" points="362.99,-915.2 366.45,-905.18 357.5,-910.86 362.99,-915.2"/>
</g>
<!-- RID -->
<g id="node24" class="node">
<title>RID</title>
<ellipse fill="none" stroke="black" cx="381.81" cy="-808" rx="27" ry="18"/>
<text text-anchor="middle" x="381.81" y="-802.58" font-family="Times New Roman,serif" font-size="14.00">RID</text>
</g>
<!-- PVP&#45;&gt;RID -->
<g id="edge24" class="edge">
<title>PVP&#45;&gt;RID</title>
<path fill="none" stroke="gray" stroke-width="0.2" d="M237.42,-1217.56C279.49,-1078.09 349.21,-847 349.21,-847 349.21,-847 354.95,-839.91 361.54,-831.78"/>
<polygon fill="gray" stroke="gray" stroke-width="0.2" points="364.19,-834.07 367.77,-824.1 358.75,-829.66 364.19,-834.07"/>
</g>
<!-- RIF -->
<g id="node25" class="node">
<title>RIF</title>
<ellipse fill="none" stroke="black" cx="381.81" cy="-729" rx="27" ry="18"/>
<text text-anchor="middle" x="381.81" y="-723.58" font-family="Times New Roman,serif" font-size="14.00">RIF</text>
</g>
<!-- PVP&#45;&gt;RIF -->
<g id="edge25" class="edge">
<title>PVP&#45;&gt;RIF</title>
<path fill="none" stroke="gray" stroke-width="0.2" d="M230.15,-1215.66C270.85,-1049.51 349.21,-746.5 349.21,-746.5 349.21,-746.5 349.8,-745.77 350.82,-744.57"/>
<polygon fill="gray" stroke="gray" stroke-width="0.2" points="353.26,-747.09 357.31,-737.29 348.04,-742.42 353.26,-747.09"/>
</g>
<!-- RIG -->
<g id="node26" class="node">
<title>RIG</title>
<ellipse fill="none" stroke="black" cx="381.81" cy="-650" rx="27.11" ry="18"/>
<text text-anchor="middle" x="381.81" y="-644.58" font-family="Times New Roman,serif" font-size="14.00">RIG</text>
</g>
<!-- PVP&#45;&gt;RIG -->
<g id="edge26" class="edge">
<title>PVP&#45;&gt;RIG</title>
<path fill="none" stroke="red" stroke-width="0.2" d="M227.46,-1214.89C267.3,-1029.51 349.21,-667.5 349.21,-667.5 349.21,-667.5 349.8,-666.77 350.82,-665.57"/>
<polygon fill="red" stroke="red" stroke-width="0.2" points="353.26,-668.09 357.31,-658.29 348.04,-663.42 353.26,-668.09"/>
</g>
<!-- RIM -->
<g id="node27" class="node">
<title>RIM</title>
<ellipse fill="none" stroke="black" cx="381.81" cy="-571" rx="28.11" ry="18"/>
<text text-anchor="middle" x="381.81" y="-565.58" font-family="Times New Roman,serif" font-size="14.00">RIM</text>
</g>
<!-- PVP&#45;&gt;RIM -->
<g id="edge27" class="edge">
<title>PVP&#45;&gt;RIM</title>
<path fill="none" stroke="gray" stroke-width="nan" d="M227.54,-1214.94C267.41,-1016.74 349.21,-610 349.21,-610 349.21,-610 359.21,-597.66 367.96,-586.86"/>
<polygon fill="gray" stroke="gray" stroke-width="nan" points="nan,-nan nan,-nan nan,-nan nan,-nan"/>
</g>
<!-- RIR -->
<g id="node28" class="node">
<title>RIR</title>
<ellipse fill="none" stroke="black" cx="381.81" cy="-492" rx="27" ry="18"/>
<text text-anchor="middle" x="381.81" y="-486.57" font-family="Times New Roman,serif" font-size="14.00">RIR</text>
</g>
<!-- PVP&#45;&gt;RIR -->
<g id="edge28" class="edge">
<title>PVP&#45;&gt;RIR</title>
<path fill="none" stroke="black" stroke-width="2" d="M223.53,-1214.12C258.4,-1012.02 334.84,-588.94 353.82,-512.05"/>
<polygon fill="black" stroke="black" stroke-width="2" points="357.02,-513.55 356.62,-502.96 350.33,-511.49 357.02,-513.55"/>
</g>
<!-- RMF -->
<g id="node29" class="node">
<title>RMF</title>
<ellipse fill="none" stroke="black" cx="381.81" cy="-413" rx="30.61" ry="18"/>
<text text-anchor="middle" x="381.81" y="-407.57" font-family="Times New Roman,serif" font-size="14.00">RMF</text>
</g>
<!-- PVP&#45;&gt;RMF -->
<g id="edge29" class="edge">
<title>PVP&#45;&gt;RMF</title>
<path fill="none" stroke="gray" stroke-width="0.2" d="M223.74,-1214.44C261.93,-982.4 349.21,-452 349.21,-452 349.21,-452 354.91,-444.97 361.47,-436.87"/>
<polygon fill="gray" stroke="gray" stroke-width="0.2" points="363.83,-439.52 367.4,-429.55 358.39,-435.11 363.83,-439.52"/>
</g>
<!-- RMG -->
<g id="node30" class="node">
<title>RMG</title>
<ellipse fill="none" stroke="black" cx="381.81" cy="-334" rx="32.1" ry="18"/>
<text text-anchor="middle" x="381.81" y="-328.57" font-family="Times New Roman,serif" font-size="14.00">RMG</text>
</g>
<!-- PVP&#45;&gt;RMG -->
<g id="edge30" class="edge">
<title>PVP&#45;&gt;RMG</title>
<path fill="none" stroke="gray" stroke-width="0.2" d="M220.78,-1214.04C254.69,-978.89 336.89,-433.24 352.89,-354.05"/>
<polygon fill="gray" stroke="gray" stroke-width="0.2" points="356.19,-355.3 355.23,-344.75 349.4,-353.6 356.19,-355.3"/>
</g>
<!-- SIA -->
<g id="node31" class="node">
<title>SIA</title>
<ellipse fill="none" stroke="black" cx="381.81" cy="-255" rx="27" ry="18"/>
<text text-anchor="middle" x="381.81" y="-249.57" font-family="Times New Roman,serif" font-size="14.00">SIA</text>
</g>
<!-- PVP&#45;&gt;SIA -->
<g id="edge31" class="edge">
<title>PVP&#45;&gt;SIA</title>
<path fill="none" stroke="gray" stroke-width="0.2" d="M221.11,-1214C257.73,-950.96 349.21,-294 349.21,-294 349.21,-294 354.95,-286.91 361.54,-278.78"/>
<polygon fill="gray" stroke="gray" stroke-width="0.2" points="364.19,-281.07 367.77,-271.1 358.75,-276.66 364.19,-281.07"/>
</g>
<!-- SIB -->
<g id="node32" class="node">
<title>SIB</title>
<ellipse fill="none" stroke="black" cx="381.81" cy="-176" rx="27" ry="18"/>
<text text-anchor="middle" x="381.81" y="-170.57" font-family="Times New Roman,serif" font-size="14.00">SIB</text>
</g>
<!-- PVP&#45;&gt;SIB -->
<g id="edge32" class="edge">
<title>PVP&#45;&gt;SIB</title>
<path fill="none" stroke="gray" stroke-width="2" d="M218.84,-1213.56C251.33,-951.38 336.09,-295.03 354.52,-196.45"/>
<polygon fill="gray" stroke="gray" stroke-width="2" points="357.86,-197.55 356.8,-187.01 351.05,-195.91 357.86,-197.55"/>
</g>
<!-- URX -->
<g id="node33" class="node">
<title>URX</title>
<ellipse fill="none" stroke="black" cx="381.81" cy="-97" rx="30.11" ry="18"/>
<text text-anchor="middle" x="381.81" y="-91.58" font-family="Times New Roman,serif" font-size="14.00">URX</text>
</g>
<!-- PVP&#45;&gt;URX -->
<g id="edge33" class="edge">
<title>PVP&#45;&gt;URX</title>
<path fill="none" stroke="gray" stroke-width="0.2" d="M218.03,-1213.51C250.22,-935.52 337.7,-209.89 353.74,-116.65"/>
<polygon fill="gray" stroke="gray" stroke-width="0.2" points="357.11,-117.61 355.85,-107.09 350.27,-116.1 357.11,-117.61"/>
</g>
<!-- URY -->
<g id="node34" class="node">
<title>URY</title>
<ellipse fill="none" stroke="black" cx="381.81" cy="-18" rx="30.11" ry="18"/>
<text text-anchor="middle" x="381.81" y="-12.57" font-family="Times New Roman,serif" font-size="14.00">URY</text>
</g>
<!-- PVP&#45;&gt;URY -->
<g id="edge34" class="edge">
<title>PVP&#45;&gt;URY</title>
<path fill="none" stroke="gray" stroke-width="2" d="M218.37,-1213.5C252.93,-908.07 349.21,-57 349.21,-57 349.21,-57 353.81,-51.33 359.49,-44.31"/>
<polygon fill="gray" stroke="gray" stroke-width="2" points="362.11,-46.64 365.69,-36.67 356.67,-42.23 362.11,-46.64"/>
</g>
<!-- ADA&#45;&gt;PVP -->
<g id="edge35" class="edge">
<title>ADA&#45;&gt;PVP</title>
<path fill="none" stroke="gray" stroke-width="nan" d="M355.91,-2536.21C352,-2531.94 349.21,-2528.5 349.21,-2528.5 349.21,-2528.5 252.3,-1724.71 218.03,-1428.57"/>
<polygon fill="gray" stroke="gray" stroke-width="nan" points="nan,-nan nan,-nan nan,-nan nan,-nan"/>
</g>
<!-- ADF&#45;&gt;PVP -->
<g id="edge36" class="edge">
<title>ADF&#45;&gt;PVP</title>
<path fill="none" stroke="gray" stroke-width="0.2" d="M356.54,-2457.89C352.3,-2453.31 349.21,-2449.5 349.21,-2449.5 349.21,-2449.5 256.01,-1727.99 220.09,-1438.64"/>
<polygon fill="gray" stroke="gray" stroke-width="0.2" points="223.58,-1438.33 218.87,-1428.83 216.63,-1439.19 223.58,-1438.33"/>
</g>
<!-- AQR&#45;&gt;PVP -->
<g id="edge37" class="edge">
<title>AQR&#45;&gt;PVP</title>
<path fill="none" stroke="gray" stroke-width="2" d="M355.91,-2299.21C352,-2294.94 349.21,-2291.5 349.21,-2291.5 349.21,-2291.5 260.21,-1700.84 222.63,-1440.93"/>
<polygon fill="gray" stroke="gray" stroke-width="2" points="226.1,-1440.45 221.21,-1431.05 219.17,-1441.45 226.1,-1440.45"/>
</g>
<!-- ASH&#45;&gt;PVP -->
<g id="edge38" class="edge">
<title>ASH&#45;&gt;PVP</title>
<path fill="none" stroke="gray" stroke-width="0.2" d="M356.54,-2220.89C352.3,-2216.31 349.21,-2212.5 349.21,-2212.5 349.21,-2212.5 261.63,-1679.65 223.55,-1437.66"/>
<polygon fill="gray" stroke="gray" stroke-width="0.2" points="227.05,-1437.41 222.04,-1428.07 220.13,-1438.49 227.05,-1437.41"/>
</g>
<!-- AVE&#45;&gt;PVP -->
<g id="edge39" class="edge">
<title>AVE&#45;&gt;PVP</title>
<path fill="none" stroke="gray" stroke-width="0.2" d="M356.54,-1904.89C352.3,-1900.31 349.21,-1896.5 349.21,-1896.5 349.21,-1896.5 273.88,-1604.68 232.57,-1436.41"/>
<polygon fill="gray" stroke="gray" stroke-width="0.2" points="236,-1435.68 230.22,-1426.8 229.2,-1437.35 236,-1435.68"/>
</g>
<!-- AVH&#45;&gt;PVP -->
<g id="edge40" class="edge">
<title>AVH&#45;&gt;PVP</title>
<path fill="none" stroke="red" stroke-width="5" d="M355.91,-1746.21C352,-1741.94 349.21,-1738.5 349.21,-1738.5 349.21,-1738.5 285.86,-1563.06 243.49,-1439.39"/>
<polygon fill="red" stroke="red" stroke-width="5" points="247.69,-1438.16 240.32,-1430.11 239.41,-1440.98 247.69,-1438.16"/>
</g>
<!-- AVJ&#45;&gt;PVP -->
<g id="edge41" class="edge">
<title>AVJ&#45;&gt;PVP</title>
<path fill="none" stroke="gray" stroke-width="2" d="M357.51,-1668.93C352.78,-1663.9 349.21,-1659.5 349.21,-1659.5 349.21,-1659.5 291.83,-1532.31 249.77,-1433.6"/>
<polygon fill="gray" stroke="gray" stroke-width="2" points="253.03,-1432.33 245.9,-1424.5 246.59,-1435.07 253.03,-1432.33"/>
</g>
<!-- AWB&#45;&gt;PVP -->
<g id="edge42" class="edge">
<title>AWB&#45;&gt;PVP</title>
<path fill="none" stroke="gray" stroke-width="2" d="M352.23,-1432.83C337.06,-1424.87 317.46,-1412.78 297.59,-1399.39"/>
<polygon fill="gray" stroke="gray" stroke-width="2" points="299.6,-1396.52 289.37,-1393.76 295.64,-1402.3 299.6,-1396.52"/>
</g>
<!-- DVA&#45;&gt;PVP -->
<g id="edge43" class="edge">
<title>DVA&#45;&gt;PVP</title>
<path fill="none" stroke="gray" stroke-width="2" d="M352.78,-1366.79C342.99,-1366.12 331.32,-1364.54 318.89,-1362.32"/>
<polygon fill="gray" stroke="gray" stroke-width="2" points="319.71,-1358.91 309.23,-1360.46 318.39,-1365.79 319.71,-1358.91"/>
</g>
<!-- OLQ&#45;&gt;PVP -->
<g id="edge44" class="edge">
<title>OLQ&#45;&gt;PVP</title>
<path fill="none" stroke="gray" stroke-width="2" d="M362.88,-1296.27C353.1,-1300.74 340.06,-1305.26 325.67,-1309.43"/>
<polygon fill="gray" stroke="gray" stroke-width="2" points="324.94,-1306 316.22,-1312.03 326.79,-1312.75 324.94,-1306"/>
</g>
<!-- PVC&#45;&gt;PVP -->
<g id="edge45" class="edge">
<title>PVC&#45;&gt;PVP</title>
<path fill="none" stroke="gray" stroke-width="2" d="M368.98,-1219.62C356.47,-1232 335.43,-1248.6 312.56,-1264.91"/>
<polygon fill="gray" stroke="gray" stroke-width="2" points="310.59,-1262.01 304.42,-1270.62 314.61,-1267.74 310.59,-1262.01"/>
</g>
<!-- RIF&#45;&gt;PVP -->
<g id="edge46" class="edge">
<title>RIF&#45;&gt;PVP</title>
<path fill="none" stroke="red" stroke-width="5" d="M376.15,-746.9C367.36,-767.1 349.21,-789.5 349.21,-789.5 349.21,-789.5 283.09,-1045.2 240.77,-1202.09"/>
<polygon fill="red" stroke="red" stroke-width="5" points="236.64,-1200.61 238.25,-1211.41 245.09,-1202.89 236.64,-1200.61"/>
</g>
<!-- RIG&#45;&gt;PVP -->
<g id="edge47" class="edge">
<title>RIG&#45;&gt;PVP</title>
<path fill="none" stroke="gray" stroke-width="0.2" d="M376.15,-667.9C367.36,-688.1 349.21,-710.5 349.21,-710.5 349.21,-710.5 277.08,-1029.28 235.28,-1206.33"/>
<polygon fill="gray" stroke="gray" stroke-width="0.2" points="231.9,-1205.39 233.01,-1215.93 238.72,-1207 231.9,-1205.39"/>
</g>
<!-- RIR&#45;&gt;PVP -->
<g id="edge48" class="edge">
<title>RIR&#45;&gt;PVP</title>
<path fill="none" stroke="gray" stroke-width="0.2" d="M376.15,-509.9C367.36,-530.1 349.21,-552.5 349.21,-552.5 349.21,-552.5 270.04,-989.85 229.52,-1204.88"/>
<polygon fill="gray" stroke="gray" stroke-width="0.2" points="226.09,-1204.17 227.67,-1214.65 232.97,-1205.47 226.09,-1204.17"/>
</g>
<!-- RMG&#45;&gt;PVP -->
<g id="edge49" class="edge">
<title>RMG&#45;&gt;PVP</title>
<path fill="none" stroke="gray" stroke-width="0.2" d="M376.15,-351.9C367.36,-372.1 349.21,-394.5 349.21,-394.5 349.21,-394.5 264.64,-955.14 225.57,-1204.36"/>
<polygon fill="gray" stroke="gray" stroke-width="0.2" points="222.17,-1203.46 224.08,-1213.88 229.09,-1204.54 222.17,-1203.46"/>
</g>
<!-- SIB&#45;&gt;PVP -->
<g id="edge50" class="edge">
<title>SIB&#45;&gt;PVP</title>
<path fill="none" stroke="gray" stroke-width="2" d="M376.15,-193.9C367.36,-214.1 349.21,-236.5 349.21,-236.5 349.21,-236.5 261.02,-918.56 223.16,-1201.03"/>
<polygon fill="gray" stroke="gray" stroke-width="2" points="219.71,-1200.39 221.85,-1210.76 226.65,-1201.32 219.71,-1200.39"/>
</g>
<!-- URX&#45;&gt;PVP -->
<g id="edge51" class="edge">
<title>URX&#45;&gt;PVP</title>
<path fill="none" stroke="gray" stroke-width="2" d="M376.15,-114.9C367.36,-135.1 349.21,-157.5 349.21,-157.5 349.21,-157.5 259.16,-903.69 221.98,-1201.07"/>
<polygon fill="gray" stroke="gray" stroke-width="2" points="218.56,-1200.24 220.79,-1210.6 225.5,-1201.11 218.56,-1200.24"/>
</g>
<!-- ADE -->
<g id="node35" class="node">
<title>ADE</title>
<ellipse fill="none" stroke="black" cx="30.61" cy="-1716" rx="29.11" ry="18"/>
<text text-anchor="middle" x="30.61" y="-1710.58" font-family="Times New Roman,serif" font-size="14.00">ADE</text>
</g>
<!-- ADE&#45;&gt;PVP -->
<g id="edge52" class="edge">
<title>ADE&#45;&gt;PVP</title>
<path fill="none" stroke="gray" stroke-width="0.2" d="M43.99,-1699.69C52.1,-1689 61.21,-1677 61.21,-1677 61.21,-1677 118.21,-1535.1 160.23,-1430.48"/>
<polygon fill="gray" stroke="gray" stroke-width="0.2" points="163.4,-1431.98 163.88,-1421.39 156.91,-1429.37 163.4,-1431.98"/>
</g>
<!-- ADL -->
<g id="node36" class="node">
<title>ADL</title>
<ellipse fill="none" stroke="black" cx="30.61" cy="-1637" rx="29.11" ry="18"/>
<text text-anchor="middle" x="30.61" y="-1631.58" font-family="Times New Roman,serif" font-size="14.00">ADL</text>
</g>
<!-- ADL&#45;&gt;PVP -->
<g id="edge53" class="edge">
<title>ADL&#45;&gt;PVP</title>
<path fill="none" stroke="gray" stroke-width="nan" d="M43.99,-1620.69C52.1,-1610 61.21,-1598 61.21,-1598 61.21,-1598 113.46,-1496.78 154.8,-1416.72"/>
<polygon fill="gray" stroke="gray" stroke-width="nan" points="nan,-nan nan,-nan nan,-nan nan,-nan"/>
</g>
<!-- AFD -->
<g id="node37" class="node">
<title>AFD</title>
<ellipse fill="none" stroke="black" cx="30.61" cy="-1558" rx="29.11" ry="18"/>
<text text-anchor="middle" x="30.61" y="-1552.58" font-family="Times New Roman,serif" font-size="14.00">AFD</text>
</g>
<!-- AFD&#45;&gt;PVP -->
<g id="edge54" class="edge">
<title>AFD&#45;&gt;PVP</title>
<path fill="none" stroke="gray" stroke-width="0.2" d="M43.99,-1541.69C52.1,-1531 61.21,-1519 61.21,-1519 61.21,-1519 98.65,-1467.16 135.22,-1416.53"/>
<polygon fill="gray" stroke="gray" stroke-width="0.2" points="137.88,-1418.82 140.89,-1408.67 132.2,-1414.73 137.88,-1418.82"/>
</g>
<!-- ALM -->
<g id="node38" class="node">
<title>ALM</title>
<ellipse fill="none" stroke="black" cx="30.61" cy="-1479" rx="30.61" ry="18"/>
<text text-anchor="middle" x="30.61" y="-1473.58" font-family="Times New Roman,serif" font-size="14.00">ALM</text>
</g>
<!-- ALM&#45;&gt;PVP -->
<g id="edge55" class="edge">
<title>ALM&#45;&gt;PVP</title>
<path fill="none" stroke="gray" stroke-width="0.2" d="M48.16,-1463.85C64.58,-1448.81 91.08,-1424.55 117.62,-1400.26"/>
<polygon fill="gray" stroke="gray" stroke-width="0.2" points="119.86,-1402.96 124.87,-1393.62 115.13,-1397.79 119.86,-1402.96"/>
</g>
<!-- ASI -->
<g id="node39" class="node">
<title>ASI</title>
<ellipse fill="none" stroke="black" cx="30.61" cy="-1400" rx="27" ry="18"/>
<text text-anchor="middle" x="30.61" y="-1394.58" font-family="Times New Roman,serif" font-size="14.00">ASI</text>
</g>
<!-- ASI&#45;&gt;PVP -->
<g id="edge56" class="edge">
<title>ASI&#45;&gt;PVP</title>
<path fill="none" stroke="gray" stroke-width="0.2" d="M53.47,-1389.99C65.25,-1384.6 80.77,-1377.5 97.36,-1369.91"/>
<polygon fill="gray" stroke="gray" stroke-width="0.2" points="98.75,-1373.12 106.39,-1365.77 95.84,-1366.75 98.75,-1373.12"/>
</g>
<!-- AVL -->
<g id="node40" class="node">
<title>AVL</title>
<ellipse fill="none" stroke="black" cx="30.61" cy="-1321" rx="29.11" ry="18"/>
<text text-anchor="middle" x="30.61" y="-1315.58" font-family="Times New Roman,serif" font-size="14.00">AVL</text>
</g>
<!-- AVL&#45;&gt;PVP -->
<g id="edge57" class="edge">
<title>AVL&#45;&gt;PVP</title>
<path fill="none" stroke="gray" stroke-width="0.2" d="M60.11,-1321C68,-1321 77.08,-1321 86.76,-1321"/>
<polygon fill="gray" stroke="gray" stroke-width="0.2" points="86.75,-1324.5 96.75,-1321 86.75,-1317.5 86.75,-1324.5"/>
</g>
<!-- BAG -->
<g id="node41" class="node">
<title>BAG</title>
<ellipse fill="none" stroke="black" cx="30.61" cy="-1242" rx="30.11" ry="18"/>
<text text-anchor="middle" x="30.61" y="-1236.58" font-family="Times New Roman,serif" font-size="14.00">BAG</text>
</g>
<!-- BAG&#45;&gt;PVP -->
<g id="edge58" class="edge">
<title>BAG&#45;&gt;PVP</title>
<path fill="none" stroke="gray" stroke-width="0.2" d="M55.24,-1252.82C66.74,-1258.08 81.46,-1264.82 97.16,-1272"/>
<polygon fill="gray" stroke="gray" stroke-width="0.2" points="95.67,-1275.17 106.22,-1276.15 98.58,-1268.81 95.67,-1275.17"/>
</g>
<!-- BDU -->
<g id="node42" class="node">
<title>BDU</title>
<ellipse fill="none" stroke="black" cx="30.61" cy="-1163" rx="29.61" ry="18"/>
<text text-anchor="middle" x="30.61" y="-1157.58" font-family="Times New Roman,serif" font-size="14.00">BDU</text>
</g>
<!-- BDU&#45;&gt;PVP -->
<g id="edge59" class="edge">
<title>BDU&#45;&gt;PVP</title>
<path fill="none" stroke="gray" stroke-width="2" d="M47.84,-1177.86C63.76,-1192.44 89.35,-1215.86 115.26,-1239.58"/>
<polygon fill="gray" stroke="gray" stroke-width="2" points="112.83,-1242.1 122.57,-1246.27 117.56,-1236.93 112.83,-1242.1"/>
</g>
<!-- FLP -->
<g id="node43" class="node">
<title>FLP</title>
<ellipse fill="none" stroke="black" cx="30.61" cy="-1084" rx="27.11" ry="18"/>
<text text-anchor="middle" x="30.61" y="-1078.58" font-family="Times New Roman,serif" font-size="14.00">FLP</text>
</g>
<!-- FLP&#45;&gt;PVP -->
<g id="edge60" class="edge">
<title>FLP&#45;&gt;PVP</title>
<path fill="none" stroke="gray" stroke-width="0.2" d="M43.65,-1100.27C51.84,-1111.34 61.21,-1124 61.21,-1124 61.21,-1124 98.52,-1175.39 135.02,-1225.68"/>
<polygon fill="gray" stroke="gray" stroke-width="0.2" points="131.98,-1227.45 140.69,-1233.49 137.64,-1223.34 131.98,-1227.45"/>
</g>
<!-- IL1 -->
<g id="node44" class="node">
<title>IL1</title>
<ellipse fill="none" stroke="black" cx="30.61" cy="-1005" rx="27" ry="18"/>
<text text-anchor="middle" x="30.61" y="-999.58" font-family="Times New Roman,serif" font-size="14.00">IL1</text>
</g>
<!-- IL1&#45;&gt;PVP -->
<g id="edge61" class="edge">
<title>IL1&#45;&gt;PVP</title>
<path fill="none" stroke="gray" stroke-width="0.2" d="M43.65,-1021.27C51.84,-1032.34 61.21,-1045 61.21,-1045 61.21,-1045 109.5,-1138.21 149.96,-1216.29"/>
<polygon fill="gray" stroke="gray" stroke-width="0.2" points="146.75,-1217.71 154.46,-1224.97 152.96,-1214.49 146.75,-1217.71"/>
</g>
<!-- SMB -->
<g id="node45" class="node">
<title>SMB</title>
<ellipse fill="none" stroke="black" cx="30.61" cy="-926" rx="30.11" ry="18"/>
<text text-anchor="middle" x="30.61" y="-920.58" font-family="Times New Roman,serif" font-size="14.00">SMB</text>
</g>
<!-- SMB&#45;&gt;PVP -->
<g id="edge62" class="edge">
<title>SMB&#45;&gt;PVP</title>
<path fill="none" stroke="gray" stroke-width="0.2" d="M43.65,-942.27C51.84,-953.34 61.21,-966 61.21,-966 61.21,-966 118.21,-1107.5 160.23,-1211.83"/>
<polygon fill="gray" stroke="gray" stroke-width="0.2" points="156.9,-1212.92 163.88,-1220.89 163.39,-1210.3 156.9,-1212.92"/>
</g>
</g>
</svg>
