<?xml version="1.0" encoding="UTF-8" standalone="no"?>
<!DOCTYPE svg PUBLIC "-//W3C//DTD SVG 1.1//EN"
 "http://www.w3.org/Graphics/SVG/1.1/DTD/svg11.dtd">
<!-- Generated by graphviz version 11.0.0 (20240428.1522)
 -->
<!-- Pages: 1 -->
<svg width="419pt" height="1861pt"
 viewBox="0.00 0.00 419.42 1861.00" xmlns="http://www.w3.org/2000/svg" xmlns:xlink="http://www.w3.org/1999/xlink">
<g id="graph0" class="graph" transform="scale(1 1) rotate(0) translate(4 1857)">
<polygon fill="white" stroke="none" points="-4,4 -4,-1857 415.42,-1857 415.42,4 -4,4"/>
<!-- PVQ -->
<g id="node1" class="node">
<title>PVQ</title>
<ellipse fill="none" stroke="black" cx="202.22" cy="-966" rx="108" ry="108"/>
<text text-anchor="middle" x="202.22" y="-947" font-family="Times New Roman,serif" font-size="50.00">PVQ</text>
</g>
<!-- ADA -->
<g id="node2" class="node">
<title>ADA</title>
<ellipse fill="none" stroke="black" cx="378.82" cy="-1835" rx="30.11" ry="18"/>
<text text-anchor="middle" x="378.82" y="-1829.58" font-family="Times New Roman,serif" font-size="14.00">ADA</text>
</g>
<!-- PVQ&#45;&gt;ADA -->
<g id="edge1" class="edge">
<title>PVQ&#45;&gt;ADA</title>
<path fill="none" stroke="gray" stroke-width="0.2" d="M223.55,-1072.08C263.03,-1291.69 346.22,-1774.5 346.22,-1774.5 346.22,-1774.5 359.38,-1790.74 368.71,-1808.04"/>
<polygon fill="gray" stroke="gray" stroke-width="0.2" points="365.48,-1809.39 373.02,-1816.83 371.76,-1806.31 365.48,-1809.39"/>
</g>
<!-- ADL -->
<g id="node3" class="node">
<title>ADL</title>
<ellipse fill="none" stroke="black" cx="378.82" cy="-1756" rx="29.11" ry="18"/>
<text text-anchor="middle" x="378.82" y="-1750.58" font-family="Times New Roman,serif" font-size="14.00">ADL</text>
</g>
<!-- PVQ&#45;&gt;ADL -->
<g id="edge2" class="edge">
<title>PVQ&#45;&gt;ADL</title>
<path fill="none" stroke="gray" stroke-width="5" d="M225.72,-1071.7C265.99,-1274.16 346.22,-1695.5 346.22,-1695.5 346.22,-1695.5 356.85,-1708.63 365.79,-1723.85"/>
<polygon fill="gray" stroke="gray" stroke-width="5" points="361.81,-1725.69 370.29,-1732.56 369.58,-1721.67 361.81,-1725.69"/>
</g>
<!-- AIA -->
<g id="node4" class="node">
<title>AIA</title>
<ellipse fill="none" stroke="black" cx="378.82" cy="-1677" rx="27" ry="18"/>
<text text-anchor="middle" x="378.82" y="-1671.58" font-family="Times New Roman,serif" font-size="14.00">AIA</text>
</g>
<!-- PVQ&#45;&gt;AIA -->
<g id="edge3" class="edge">
<title>PVQ&#45;&gt;AIA</title>
<path fill="none" stroke="gray" stroke-width="5" d="M228.37,-1071.17C269.4,-1255.53 346.22,-1616.5 346.22,-1616.5 346.22,-1616.5 356.85,-1629.63 365.79,-1644.85"/>
<polygon fill="gray" stroke="gray" stroke-width="5" points="361.81,-1646.69 370.29,-1653.56 369.58,-1642.67 361.81,-1646.69"/>
</g>
<!-- AIB -->
<g id="node5" class="node">
<title>AIB</title>
<ellipse fill="none" stroke="black" cx="378.82" cy="-1598" rx="27" ry="18"/>
<text text-anchor="middle" x="378.82" y="-1592.58" font-family="Times New Roman,serif" font-size="14.00">AIB</text>
</g>
<!-- PVQ&#45;&gt;AIB -->
<g id="edge4" class="edge">
<title>PVQ&#45;&gt;AIB</title>
<path fill="none" stroke="blue" stroke-width="5" d="M228.53,-1070.99C269.61,-1241.31 346.22,-1559 346.22,-1559 346.22,-1559 349.93,-1563.58 354.81,-1569.61"/>
<polygon fill="blue" stroke="blue" stroke-width="5" points="351.34,-1572.28 361.04,-1577.29 358.14,-1566.77 351.34,-1572.28"/>
</g>
<!-- AIM -->
<g id="node6" class="node">
<title>AIM</title>
<ellipse fill="none" stroke="black" cx="378.82" cy="-1519" rx="28.11" ry="18"/>
<text text-anchor="middle" x="378.82" y="-1513.58" font-family="Times New Roman,serif" font-size="14.00">AIM</text>
</g>
<!-- PVQ&#45;&gt;AIM -->
<g id="edge5" class="edge">
<title>PVQ&#45;&gt;AIM</title>
<path fill="none" stroke="red" stroke-width="2" d="M235.84,-1068.85C278.05,-1213.48 346.22,-1458.5 346.22,-1458.5 346.22,-1458.5 358.2,-1473.29 367.4,-1489.67"/>
<polygon fill="red" stroke="red" stroke-width="2" points="364.17,-1491.04 371.79,-1498.4 370.43,-1487.89 364.17,-1491.04"/>
</g>
<!-- ALA -->
<g id="node7" class="node">
<title>ALA</title>
<ellipse fill="none" stroke="black" cx="378.82" cy="-1440" rx="29.11" ry="18"/>
<text text-anchor="middle" x="378.82" y="-1434.58" font-family="Times New Roman,serif" font-size="14.00">ALA</text>
</g>
<!-- PVQ&#45;&gt;ALA -->
<g id="edge6" class="edge">
<title>PVQ&#45;&gt;ALA</title>
<path fill="none" stroke="gray" stroke-width="0.2" d="M241.44,-1066.99C283.8,-1189.64 346.22,-1379.5 346.22,-1379.5 346.22,-1379.5 359.38,-1395.74 368.71,-1413.04"/>
<polygon fill="gray" stroke="gray" stroke-width="0.2" points="365.48,-1414.39 373.02,-1421.83 371.76,-1411.31 365.48,-1414.39"/>
</g>
<!-- ALM -->
<g id="node8" class="node">
<title>ALM</title>
<ellipse fill="none" stroke="black" cx="378.82" cy="-1361" rx="30.61" ry="18"/>
<text text-anchor="middle" x="378.82" y="-1355.58" font-family="Times New Roman,serif" font-size="14.00">ALM</text>
</g>
<!-- PVQ&#45;&gt;ALM -->
<g id="edge7" class="edge">
<title>PVQ&#45;&gt;ALM</title>
<path fill="none" stroke="gray" stroke-width="0.2" d="M243.43,-1066.11C285.73,-1171.41 346.22,-1322 346.22,-1322 346.22,-1322 351.92,-1329.03 358.47,-1337.13"/>
<polygon fill="gray" stroke="gray" stroke-width="0.2" points="355.39,-1338.89 364.41,-1344.45 360.83,-1334.48 355.39,-1338.89"/>
</g>
<!-- ASE -->
<g id="node9" class="node">
<title>ASE</title>
<ellipse fill="none" stroke="black" cx="378.82" cy="-1282" rx="28.11" ry="18"/>
<text text-anchor="middle" x="378.82" y="-1276.58" font-family="Times New Roman,serif" font-size="14.00">ASE</text>
</g>
<!-- PVQ&#45;&gt;ASE -->
<g id="edge8" class="edge">
<title>PVQ&#45;&gt;ASE</title>
<path fill="none" stroke="red" stroke-width="2" d="M259.73,-1057.97C299.7,-1131.4 346.22,-1221.5 346.22,-1221.5 346.22,-1221.5 358.2,-1236.29 367.4,-1252.67"/>
<polygon fill="red" stroke="red" stroke-width="2" points="364.17,-1254.04 371.79,-1261.4 370.43,-1250.89 364.17,-1254.04"/>
</g>
<!-- ASG -->
<g id="node10" class="node">
<title>ASG</title>
<ellipse fill="none" stroke="black" cx="378.82" cy="-1203" rx="29.61" ry="18"/>
<text text-anchor="middle" x="378.82" y="-1197.58" font-family="Times New Roman,serif" font-size="14.00">ASG</text>
</g>
<!-- PVQ&#45;&gt;ASG -->
<g id="edge9" class="edge">
<title>PVQ&#45;&gt;ASG</title>
<path fill="none" stroke="gray" stroke-width="0.2" d="M266.35,-1053.42C304.66,-1106.46 346.22,-1164 346.22,-1164 346.22,-1164 351.96,-1171.09 358.55,-1179.22"/>
<polygon fill="gray" stroke="gray" stroke-width="0.2" points="355.76,-1181.34 364.77,-1186.9 361.2,-1176.93 355.76,-1181.34"/>
</g>
<!-- ASI -->
<g id="node11" class="node">
<title>ASI</title>
<ellipse fill="none" stroke="black" cx="378.82" cy="-1124" rx="27" ry="18"/>
<text text-anchor="middle" x="378.82" y="-1118.58" font-family="Times New Roman,serif" font-size="14.00">ASI</text>
</g>
<!-- PVQ&#45;&gt;ASI -->
<g id="edge10" class="edge">
<title>PVQ&#45;&gt;ASI</title>
<path fill="none" stroke="gray" stroke-width="0.2" d="M290.52,-1028.88C317.67,-1053.45 344.82,-1080.1 361.47,-1099.32"/>
<polygon fill="gray" stroke="gray" stroke-width="0.2" points="358.65,-1101.4 367.74,-1106.85 364.03,-1096.92 358.65,-1101.4"/>
</g>
<!-- ASJ -->
<g id="node12" class="node">
<title>ASJ</title>
<ellipse fill="none" stroke="black" cx="378.82" cy="-1045" rx="27" ry="18"/>
<text text-anchor="middle" x="378.82" y="-1039.58" font-family="Times New Roman,serif" font-size="14.00">ASJ</text>
</g>
<!-- PVQ&#45;&gt;ASJ -->
<g id="edge11" class="edge">
<title>PVQ&#45;&gt;ASJ</title>
<path fill="none" stroke="gray" stroke-width="2" d="M306.04,-996.63C323.73,-1005.16 340.53,-1014.2 353.43,-1022.37"/>
<polygon fill="gray" stroke="gray" stroke-width="2" points="351.35,-1025.19 361.59,-1027.9 355.27,-1019.39 351.35,-1025.19"/>
</g>
<!-- ASK -->
<g id="node13" class="node">
<title>ASK</title>
<ellipse fill="none" stroke="black" cx="378.82" cy="-966" rx="29.11" ry="18"/>
<text text-anchor="middle" x="378.82" y="-960.58" font-family="Times New Roman,serif" font-size="14.00">ASK</text>
</g>
<!-- PVQ&#45;&gt;ASK -->
<g id="edge12" class="edge">
<title>PVQ&#45;&gt;ASK</title>
<path fill="none" stroke="black" stroke-width="5" d="M309.56,-950.22C320.28,-950.62 330.6,-951.35 339.83,-952.42"/>
<polygon fill="black" stroke="black" stroke-width="5" points="338.86,-956.7 349.41,-953.88 340.17,-948.05 338.86,-956.7"/>
</g>
<!-- AVB -->
<g id="node14" class="node">
<title>AVB</title>
<ellipse fill="none" stroke="black" cx="378.82" cy="-887" rx="29.61" ry="18"/>
<text text-anchor="middle" x="378.82" y="-881.58" font-family="Times New Roman,serif" font-size="14.00">AVB</text>
</g>
<!-- PVQ&#45;&gt;AVB -->
<g id="edge13" class="edge">
<title>PVQ&#45;&gt;AVB</title>
<path fill="none" stroke="gray" stroke-width="0.2" d="M301.23,-921.65C317.09,-914.48 332.47,-907.52 345.24,-901.74"/>
<polygon fill="gray" stroke="gray" stroke-width="0.2" points="346.51,-905.01 354.18,-897.7 343.62,-898.63 346.51,-905.01"/>
</g>
<!-- AVF -->
<g id="node15" class="node">
<title>AVF</title>
<ellipse fill="none" stroke="black" cx="378.82" cy="-808" rx="29.11" ry="18"/>
<text text-anchor="middle" x="378.82" y="-802.58" font-family="Times New Roman,serif" font-size="14.00">AVF</text>
</g>
<!-- PVQ&#45;&gt;AVF -->
<g id="edge14" class="edge">
<title>PVQ&#45;&gt;AVF</title>
<path fill="none" stroke="gray" stroke-width="5" d="M274.74,-885.39C297.73,-863.88 322.24,-842.55 341.59,-827.42"/>
<polygon fill="gray" stroke="gray" stroke-width="5" points="344.03,-831.05 349.39,-821.55 338.77,-824.06 344.03,-831.05"/>
</g>
<!-- AVM -->
<g id="node16" class="node">
<title>AVM</title>
<ellipse fill="none" stroke="black" cx="378.82" cy="-729" rx="31.6" ry="18"/>
<text text-anchor="middle" x="378.82" y="-723.58" font-family="Times New Roman,serif" font-size="14.00">AVM</text>
</g>
<!-- PVQ&#45;&gt;AVM -->
<g id="edge15" class="edge">
<title>PVQ&#45;&gt;AVM</title>
<path fill="none" stroke="gray" stroke-width="0.2" d="M266.35,-878.58C304.66,-825.54 346.22,-768 346.22,-768 346.22,-768 351.92,-760.97 358.47,-752.87"/>
<polygon fill="gray" stroke="gray" stroke-width="0.2" points="360.83,-755.52 364.41,-745.55 355.39,-751.11 360.83,-755.52"/>
</g>
<!-- AWA -->
<g id="node17" class="node">
<title>AWA</title>
<ellipse fill="none" stroke="black" cx="378.82" cy="-650" rx="32.6" ry="18"/>
<text text-anchor="middle" x="378.82" y="-644.58" font-family="Times New Roman,serif" font-size="14.00">AWA</text>
</g>
<!-- PVQ&#45;&gt;AWA -->
<g id="edge16" class="edge">
<title>PVQ&#45;&gt;AWA</title>
<path fill="none" stroke="red" stroke-width="0.2" d="M246.12,-866.94C282.32,-792.05 330.22,-698.59 346.66,-669.52"/>
<polygon fill="red" stroke="red" stroke-width="0.2" points="349.61,-671.4 351.85,-661.04 343.64,-667.74 349.61,-671.4"/>
</g>
<!-- AWB -->
<g id="node18" class="node">
<title>AWB</title>
<ellipse fill="none" stroke="black" cx="378.82" cy="-571" rx="32.1" ry="18"/>
<text text-anchor="middle" x="378.82" y="-565.58" font-family="Times New Roman,serif" font-size="14.00">AWB</text>
</g>
<!-- PVQ&#45;&gt;AWB -->
<g id="edge17" class="edge">
<title>PVQ&#45;&gt;AWB</title>
<path fill="none" stroke="blue" stroke-width="2" d="M238.2,-864.11C274.66,-767.56 328.45,-632.86 346.56,-592.86"/>
<polygon fill="blue" stroke="blue" stroke-width="2" points="349.57,-594.67 350.95,-584.16 343.32,-591.51 349.57,-594.67"/>
</g>
<!-- BDU -->
<g id="node19" class="node">
<title>BDU</title>
<ellipse fill="none" stroke="black" cx="378.82" cy="-492" rx="29.61" ry="18"/>
<text text-anchor="middle" x="378.82" y="-486.57" font-family="Times New Roman,serif" font-size="14.00">BDU</text>
</g>
<!-- PVQ&#45;&gt;BDU -->
<g id="edge18" class="edge">
<title>PVQ&#45;&gt;BDU</title>
<path fill="none" stroke="gray" stroke-width="0.2" d="M232.85,-861.97C274.73,-726.95 346.22,-509.5 346.22,-509.5 346.22,-509.5 346.4,-509.27 346.74,-508.87"/>
<polygon fill="gray" stroke="gray" stroke-width="0.2" points="349.08,-511.51 353.03,-501.68 343.81,-506.9 349.08,-511.51"/>
</g>
<!-- HSN -->
<g id="node20" class="node">
<title>HSN</title>
<ellipse fill="none" stroke="black" cx="378.82" cy="-413" rx="29.11" ry="18"/>
<text text-anchor="middle" x="378.82" y="-407.57" font-family="Times New Roman,serif" font-size="14.00">HSN</text>
</g>
<!-- PVQ&#45;&gt;HSN -->
<g id="edge19" class="edge">
<title>PVQ&#45;&gt;HSN</title>
<path fill="none" stroke="gray" stroke-width="5" d="M228.78,-860.99C264.77,-724.29 327.69,-497.22 347.77,-436.97"/>
<polygon fill="gray" stroke="gray" stroke-width="5" points="351.74,-438.83 351.29,-427.92 343.58,-435.66 351.74,-438.83"/>
</g>
<!-- PVC -->
<g id="node21" class="node">
<title>PVC</title>
<ellipse fill="none" stroke="black" cx="378.82" cy="-334" rx="29.11" ry="18"/>
<text text-anchor="middle" x="378.82" y="-328.57" font-family="Times New Roman,serif" font-size="14.00">PVC</text>
</g>
<!-- PVQ&#45;&gt;PVC -->
<g id="edge20" class="edge">
<title>PVQ&#45;&gt;PVC</title>
<path fill="none" stroke="gray" stroke-width="0.2" d="M228.53,-861.01C269.61,-690.69 346.22,-373 346.22,-373 346.22,-373 351.96,-365.91 358.55,-357.78"/>
<polygon fill="gray" stroke="gray" stroke-width="0.2" points="361.2,-360.07 364.77,-350.1 355.76,-355.66 361.2,-360.07"/>
</g>
<!-- PVN -->
<g id="node22" class="node">
<title>PVN</title>
<ellipse fill="none" stroke="black" cx="378.82" cy="-255" rx="29.11" ry="18"/>
<text text-anchor="middle" x="378.82" y="-249.57" font-family="Times New Roman,serif" font-size="14.00">PVN</text>
</g>
<!-- PVQ&#45;&gt;PVN -->
<g id="edge21" class="edge">
<title>PVQ&#45;&gt;PVN</title>
<path fill="none" stroke="gray" stroke-width="0.2" d="M223.33,-859.59C262.71,-664.91 346.22,-272.5 346.22,-272.5 346.22,-272.5 346.41,-272.26 346.76,-271.83"/>
<polygon fill="gray" stroke="gray" stroke-width="0.2" points="349.38,-274.16 353.35,-264.34 344.12,-269.54 349.38,-274.16"/>
</g>
<!-- RIF -->
<g id="node23" class="node">
<title>RIF</title>
<ellipse fill="none" stroke="black" cx="378.82" cy="-176" rx="27" ry="18"/>
<text text-anchor="middle" x="378.82" y="-170.57" font-family="Times New Roman,serif" font-size="14.00">RIF</text>
</g>
<!-- PVQ&#45;&gt;RIF -->
<g id="edge22" class="edge">
<title>PVQ&#45;&gt;RIF</title>
<path fill="none" stroke="gray" stroke-width="2" d="M223.4,-859.99C262.82,-652.98 346.22,-215 346.22,-215 346.22,-215 351.16,-208.9 357.14,-201.52"/>
<polygon fill="gray" stroke="gray" stroke-width="2" points="359.48,-204.19 363.06,-194.21 354.04,-199.78 359.48,-204.19"/>
</g>
<!-- RIS -->
<g id="node24" class="node">
<title>RIS</title>
<ellipse fill="none" stroke="black" cx="378.82" cy="-97" rx="27" ry="18"/>
<text text-anchor="middle" x="378.82" y="-91.58" font-family="Times New Roman,serif" font-size="14.00">RIS</text>
</g>
<!-- PVQ&#45;&gt;RIS -->
<g id="edge23" class="edge">
<title>PVQ&#45;&gt;RIS</title>
<path fill="none" stroke="blue" stroke-width="5" d="M221.55,-859.61C260.13,-635.65 346.22,-136 346.22,-136 346.22,-136 349.93,-131.42 354.81,-125.39"/>
<polygon fill="blue" stroke="blue" stroke-width="5" points="358.14,-128.23 361.04,-117.71 351.34,-122.72 358.14,-128.23"/>
</g>
<!-- RMG -->
<g id="node25" class="node">
<title>RMG</title>
<ellipse fill="none" stroke="black" cx="378.82" cy="-18" rx="32.1" ry="18"/>
<text text-anchor="middle" x="378.82" y="-12.57" font-family="Times New Roman,serif" font-size="14.00">RMG</text>
</g>
<!-- PVQ&#45;&gt;RMG -->
<g id="edge24" class="edge">
<title>PVQ&#45;&gt;RMG</title>
<path fill="none" stroke="gray" stroke-width="2" d="M220.04,-859.05C257.84,-618.77 346.22,-57 346.22,-57 346.22,-57 350.81,-51.33 356.5,-44.31"/>
<polygon fill="gray" stroke="gray" stroke-width="2" points="359.12,-46.64 362.69,-36.67 353.68,-42.23 359.12,-46.64"/>
</g>
<!-- ADA&#45;&gt;PVQ -->
<g id="edge25" class="edge">
<title>ADA&#45;&gt;PVQ</title>
<path fill="none" stroke="gray" stroke-width="0.2" d="M352.92,-1825.21C349,-1820.94 346.22,-1817.5 346.22,-1817.5 346.22,-1817.5 259.9,-1316.5 221.39,-1082.9"/>
<polygon fill="gray" stroke="gray" stroke-width="0.2" points="224.89,-1082.6 219.81,-1073.3 217.98,-1083.73 224.89,-1082.6"/>
</g>
<!-- ADL&#45;&gt;PVQ -->
<g id="edge26" class="edge">
<title>ADL&#45;&gt;PVQ</title>
<path fill="none" stroke="gray" stroke-width="0.2" d="M353.55,-1746.89C349.3,-1742.31 346.22,-1738.5 346.22,-1738.5 346.22,-1738.5 262.49,-1298.77 223.17,-1082.64"/>
<polygon fill="gray" stroke="gray" stroke-width="0.2" points="226.61,-1082.03 221.38,-1072.81 219.73,-1083.28 226.61,-1082.03"/>
</g>
<!-- AIA&#45;&gt;PVQ -->
<g id="edge27" class="edge">
<title>AIA&#45;&gt;PVQ</title>
<path fill="none" stroke="gray" stroke-width="0.2" d="M354.52,-1668.93C349.78,-1663.9 346.22,-1659.5 346.22,-1659.5 346.22,-1659.5 265.46,-1280.01 225.32,-1082.26"/>
<polygon fill="gray" stroke="gray" stroke-width="0.2" points="228.8,-1081.81 223.39,-1072.7 221.94,-1083.2 228.8,-1081.81"/>
</g>
<!-- AIM&#45;&gt;PVQ -->
<g id="edge28" class="edge">
<title>AIM&#45;&gt;PVQ</title>
<path fill="none" stroke="gray" stroke-width="0.2" d="M353.87,-1510.23C349.46,-1505.5 346.22,-1501.5 346.22,-1501.5 346.22,-1501.5 273.01,-1238.37 231.36,-1080.77"/>
<polygon fill="gray" stroke="gray" stroke-width="0.2" points="234.79,-1080.08 228.86,-1071.31 228.03,-1081.87 234.79,-1080.08"/>
</g>
<!-- ALA&#45;&gt;PVQ -->
<g id="edge29" class="edge">
<title>ALA&#45;&gt;PVQ</title>
<path fill="none" stroke="gray" stroke-width="2" d="M353.55,-1430.89C349.3,-1426.31 346.22,-1422.5 346.22,-1422.5 346.22,-1422.5 278.86,-1217.6 236.6,-1082.1"/>
<polygon fill="gray" stroke="gray" stroke-width="2" points="240.06,-1081.43 233.75,-1072.92 233.37,-1083.51 240.06,-1081.43"/>
</g>
<!-- ASE&#45;&gt;PVQ -->
<g id="edge30" class="edge">
<title>ASE&#45;&gt;PVQ</title>
<path fill="none" stroke="gray" stroke-width="0.2" d="M353.87,-1273.23C349.46,-1268.5 346.22,-1264.5 346.22,-1264.5 346.22,-1264.5 292.14,-1159.75 250.49,-1074.08"/>
<polygon fill="gray" stroke="gray" stroke-width="0.2" points="253.76,-1072.8 246.25,-1065.33 247.47,-1075.86 253.76,-1072.8"/>
</g>
<!-- ASI&#45;&gt;PVQ -->
<g id="edge31" class="edge">
<title>ASI&#45;&gt;PVQ</title>
<path fill="none" stroke="blue" stroke-width="2" d="M355.18,-1114.78C336.98,-1101.83 310.25,-1079.25 284.26,-1055.43"/>
<polygon fill="blue" stroke="blue" stroke-width="2" points="286.67,-1052.89 276.96,-1048.67 281.92,-1058.03 286.67,-1052.89"/>
</g>
<!-- ASJ&#45;&gt;PVQ -->
<g id="edge32" class="edge">
<title>ASJ&#45;&gt;PVQ</title>
<path fill="none" stroke="black" stroke-width="5" d="M351.5,-1045.03C339.57,-1041.65 324.59,-1036.17 308.79,-1029.57"/>
<polygon fill="black" stroke="black" stroke-width="5" points="310.74,-1025.65 299.82,-1025.7 307.27,-1033.68 310.74,-1025.65"/>
</g>
<!-- ASK&#45;&gt;PVQ -->
<g id="edge33" class="edge">
<title>ASK&#45;&gt;PVQ</title>
<path fill="none" stroke="gray" stroke-width="nan" d="M355.57,-977.19C343.25,-979.61 326.94,-981.14 309.56,-981.78"/>
<polygon fill="gray" stroke="gray" stroke-width="nan" points="nan,-nan nan,-nan nan,-nan nan,-nan"/>
</g>
<!-- AVF&#45;&gt;PVQ -->
<g id="edge34" class="edge">
<title>AVF&#45;&gt;PVQ</title>
<path fill="none" stroke="red" stroke-width="2" d="M367.93,-824.92C354.14,-842.28 327.69,-868.91 299.96,-894.5"/>
<polygon fill="red" stroke="red" stroke-width="2" points="297.77,-891.75 292.75,-901.08 302.49,-896.92 297.77,-891.75"/>
</g>
<!-- AWA&#45;&gt;PVQ -->
<g id="edge35" class="edge">
<title>AWA&#45;&gt;PVQ</title>
<path fill="none" stroke="gray" stroke-width="2" d="M373.02,-668.21C364.18,-688.33 346.22,-710.5 346.22,-710.5 346.22,-710.5 304.31,-791.68 265.87,-862.73"/>
<polygon fill="gray" stroke="gray" stroke-width="2" points="262.87,-860.91 261.18,-871.37 269.02,-864.25 262.87,-860.91"/>
</g>
<!-- AWB&#45;&gt;PVQ -->
<g id="edge36" class="edge">
<title>AWB&#45;&gt;PVQ</title>
<path fill="none" stroke="gray" stroke-width="nan" d="M373.15,-588.9C364.36,-609.1 346.22,-631.5 346.22,-631.5 346.22,-631.5 290.88,-769.26 249.05,-868.21"/>
<polygon fill="gray" stroke="gray" stroke-width="nan" points="nan,-nan nan,-nan nan,-nan nan,-nan"/>
</g>
<!-- BDU&#45;&gt;PVQ -->
<g id="edge37" class="edge">
<title>BDU&#45;&gt;PVQ</title>
<path fill="none" stroke="gray" stroke-width="0.2" d="M373.15,-509.9C364.36,-530.1 346.22,-552.5 346.22,-552.5 346.22,-552.5 286.93,-732.84 244.71,-855.55"/>
<polygon fill="gray" stroke="gray" stroke-width="0.2" points="241.49,-854.13 241.54,-864.73 248.11,-856.41 241.49,-854.13"/>
</g>
<!-- HSN&#45;&gt;PVQ -->
<g id="edge38" class="edge">
<title>HSN&#45;&gt;PVQ</title>
<path fill="none" stroke="gray" stroke-width="2" d="M373.15,-430.9C364.36,-451.1 346.22,-473.5 346.22,-473.5 346.22,-473.5 281.73,-705.3 239.36,-851.06"/>
<polygon fill="gray" stroke="gray" stroke-width="2" points="236.13,-849.66 236.69,-860.24 242.85,-851.62 236.13,-849.66"/>
</g>
<!-- PVN&#45;&gt;PVQ -->
<g id="edge39" class="edge">
<title>PVN&#45;&gt;PVQ</title>
<path fill="none" stroke="blue" stroke-width="0.2" d="M373.15,-272.9C364.36,-293.1 346.22,-315.5 346.22,-315.5 346.22,-315.5 272.08,-663.89 230.57,-850.95"/>
<polygon fill="blue" stroke="blue" stroke-width="0.2" points="227.19,-850.01 228.44,-860.53 234.02,-851.53 227.19,-850.01"/>
</g>
<!-- ADF -->
<g id="node26" class="node">
<title>ADF</title>
<ellipse fill="none" stroke="black" cx="29.11" cy="-1085" rx="29.11" ry="18"/>
<text text-anchor="middle" x="29.11" y="-1079.58" font-family="Times New Roman,serif" font-size="14.00">ADF</text>
</g>
<!-- ADF&#45;&gt;PVQ -->
<g id="edge40" class="edge">
<title>ADF&#45;&gt;PVQ</title>
<path fill="none" stroke="gray" stroke-width="0.2" d="M49.4,-1071.58C63.45,-1061.81 83.63,-1047.78 104.71,-1033.12"/>
<polygon fill="gray" stroke="gray" stroke-width="0.2" points="106.68,-1036.01 112.89,-1027.43 102.68,-1030.26 106.68,-1036.01"/>
</g>
<!-- ASH -->
<g id="node27" class="node">
<title>ASH</title>
<ellipse fill="none" stroke="black" cx="29.11" cy="-1006" rx="29.11" ry="18"/>
<text text-anchor="middle" x="29.11" y="-1000.58" font-family="Times New Roman,serif" font-size="14.00">ASH</text>
</g>
<!-- ASH&#45;&gt;PVQ -->
<g id="edge41" class="edge">
<title>ASH&#45;&gt;PVQ</title>
<path fill="none" stroke="gray" stroke-width="0.2" d="M56.84,-999.75C65.57,-997.71 75.87,-995.3 86.9,-992.72"/>
<polygon fill="gray" stroke="gray" stroke-width="0.2" points="87.52,-996.17 96.46,-990.49 85.92,-989.36 87.52,-996.17"/>
</g>
<!-- PVP -->
<g id="node28" class="node">
<title>PVP</title>
<ellipse fill="none" stroke="black" cx="29.11" cy="-927" rx="28.11" ry="18"/>
<text text-anchor="middle" x="29.11" y="-921.58" font-family="Times New Roman,serif" font-size="14.00">PVP</text>
</g>
<!-- PVP&#45;&gt;PVQ -->
<g id="edge42" class="edge">
<title>PVP&#45;&gt;PVQ</title>
<path fill="none" stroke="gray" stroke-width="2" d="M56.1,-932.92C64.29,-934.79 73.94,-936.99 84.3,-939.35"/>
<polygon fill="gray" stroke="gray" stroke-width="2" points="83.26,-942.7 93.79,-941.51 84.82,-935.88 83.26,-942.7"/>
</g>
<!-- RIG -->
<g id="node29" class="node">
<title>RIG</title>
<ellipse fill="none" stroke="black" cx="29.11" cy="-848" rx="27.11" ry="18"/>
<text text-anchor="middle" x="29.11" y="-842.58" font-family="Times New Roman,serif" font-size="14.00">RIG</text>
</g>
<!-- RIG&#45;&gt;PVQ -->
<g id="edge43" class="edge">
<title>RIG&#45;&gt;PVQ</title>
<path fill="none" stroke="gray" stroke-width="0.2" d="M48.75,-860.85C62.8,-870.55 83.26,-884.66 104.66,-899.41"/>
<polygon fill="gray" stroke="gray" stroke-width="0.2" points="102.42,-902.12 112.64,-904.92 106.4,-896.36 102.42,-902.12"/>
</g>
</g>
</svg>
