<?xml version="1.0" encoding="UTF-8" standalone="no"?>
<!DOCTYPE svg PUBLIC "-//W3C//DTD SVG 1.1//EN"
 "http://www.w3.org/Graphics/SVG/1.1/DTD/svg11.dtd">
<!-- Generated by graphviz version 11.0.0 (20240428.1522)
 -->
<!-- Pages: 1 -->
<svg width="420pt" height="1229pt"
 viewBox="0.00 0.00 420.42 1229.00" xmlns="http://www.w3.org/2000/svg" xmlns:xlink="http://www.w3.org/1999/xlink">
<g id="graph0" class="graph" transform="scale(1 1) rotate(0) translate(4 1225)">
<polygon fill="white" stroke="none" points="-4,4 -4,-1225 416.42,-1225 416.42,4 -4,4"/>
<!-- PVR -->
<g id="node1" class="node">
<title>PVR</title>
<ellipse fill="none" stroke="black" cx="205.21" cy="-689" rx="108" ry="108"/>
<text text-anchor="middle" x="205.21" y="-670" font-family="Times New Roman,serif" font-size="50.00">PVR</text>
</g>
<!-- ADA -->
<g id="node2" class="node">
<title>ADA</title>
<ellipse fill="none" stroke="black" cx="380.81" cy="-1203" rx="30.11" ry="18"/>
<text text-anchor="middle" x="380.81" y="-1197.58" font-family="Times New Roman,serif" font-size="14.00">ADA</text>
</g>
<!-- PVR&#45;&gt;ADA -->
<g id="edge1" class="edge">
<title>PVR&#45;&gt;ADA</title>
<path fill="none" stroke="blue" stroke-width="5" d="M241.47,-791.26C283.81,-925.26 349.21,-1142.5 349.21,-1142.5 349.21,-1142.5 359.51,-1155.63 368.16,-1170.85"/>
<polygon fill="blue" stroke="blue" stroke-width="5" points="364.12,-1172.54 372.51,-1179.53 371.94,-1168.62 364.12,-1172.54"/>
</g>
<!-- AVB -->
<g id="node3" class="node">
<title>AVB</title>
<ellipse fill="none" stroke="black" cx="380.81" cy="-1124" rx="29.61" ry="18"/>
<text text-anchor="middle" x="380.81" y="-1118.58" font-family="Times New Roman,serif" font-size="14.00">AVB</text>
</g>
<!-- PVR&#45;&gt;AVB -->
<g id="edge2" class="edge">
<title>PVR&#45;&gt;AVB</title>
<path fill="none" stroke="gray" stroke-width="5" d="M242.94,-790.72C285.31,-908.05 349.21,-1085 349.21,-1085 349.21,-1085 352.71,-1089.46 357.34,-1095.36"/>
<polygon fill="gray" stroke="gray" stroke-width="5" points="353.55,-1097.61 363.16,-1102.78 360.43,-1092.21 353.55,-1097.61"/>
</g>
<!-- AVD -->
<g id="node4" class="node">
<title>AVD</title>
<ellipse fill="none" stroke="black" cx="380.81" cy="-1045" rx="30.11" ry="18"/>
<text text-anchor="middle" x="380.81" y="-1039.58" font-family="Times New Roman,serif" font-size="14.00">AVD</text>
</g>
<!-- PVR&#45;&gt;AVD -->
<g id="edge3" class="edge">
<title>PVR&#45;&gt;AVD</title>
<path fill="none" stroke="gray" stroke-width="0.2" d="M250.48,-787.13C292.47,-880.23 349.21,-1006 349.21,-1006 349.21,-1006 354.51,-1012.75 360.69,-1020.63"/>
<polygon fill="gray" stroke="gray" stroke-width="0.2" points="357.9,-1022.74 366.83,-1028.45 363.41,-1018.42 357.9,-1022.74"/>
</g>
<!-- AVJ -->
<g id="node5" class="node">
<title>AVJ</title>
<ellipse fill="none" stroke="black" cx="380.81" cy="-966" rx="27.11" ry="18"/>
<text text-anchor="middle" x="380.81" y="-960.58" font-family="Times New Roman,serif" font-size="14.00">AVJ</text>
</g>
<!-- PVR&#45;&gt;AVJ -->
<g id="edge4" class="edge">
<title>PVR&#45;&gt;AVJ</title>
<path fill="none" stroke="gray" stroke-width="5" d="M261.7,-781.36C301.9,-848.26 349.21,-927 349.21,-927 349.21,-927 352.81,-931.58 357.53,-937.61"/>
<polygon fill="gray" stroke="gray" stroke-width="5" points="353.9,-940.06 363.52,-945.23 360.78,-934.66 353.9,-940.06"/>
</g>
<!-- BDU -->
<g id="node6" class="node">
<title>BDU</title>
<ellipse fill="none" stroke="black" cx="380.81" cy="-887" rx="29.61" ry="18"/>
<text text-anchor="middle" x="380.81" y="-881.58" font-family="Times New Roman,serif" font-size="14.00">BDU</text>
</g>
<!-- PVR&#45;&gt;BDU -->
<g id="edge5" class="edge">
<title>PVR&#45;&gt;BDU</title>
<path fill="none" stroke="blue" stroke-width="2" d="M284.63,-762.38C314.53,-796.01 345.77,-833.73 363.98,-859.16"/>
<polygon fill="blue" stroke="blue" stroke-width="2" points="360.89,-860.85 369.44,-867.1 366.65,-856.88 360.89,-860.85"/>
</g>
<!-- CEP -->
<g id="node7" class="node">
<title>CEP</title>
<ellipse fill="none" stroke="black" cx="380.81" cy="-808" rx="28.11" ry="18"/>
<text text-anchor="middle" x="380.81" y="-802.58" font-family="Times New Roman,serif" font-size="14.00">CEP</text>
</g>
<!-- PVR&#45;&gt;CEP -->
<g id="edge6" class="edge">
<title>PVR&#45;&gt;CEP</title>
<path fill="none" stroke="blue" stroke-width="5" d="M301.65,-738.36C322.15,-752.76 342.02,-767.93 356.59,-780.67"/>
<polygon fill="blue" stroke="blue" stroke-width="5" points="353.48,-783.76 363.78,-787.36 359.43,-777.35 353.48,-783.76"/>
</g>
<!-- IL1 -->
<g id="node8" class="node">
<title>IL1</title>
<ellipse fill="none" stroke="black" cx="380.81" cy="-729" rx="27" ry="18"/>
<text text-anchor="middle" x="380.81" y="-723.58" font-family="Times New Roman,serif" font-size="14.00">IL1</text>
</g>
<!-- PVR&#45;&gt;IL1 -->
<g id="edge7" class="edge">
<title>PVR&#45;&gt;IL1</title>
<path fill="none" stroke="gray" stroke-width="5" d="M313.19,-697.92C325.77,-701.32 337.75,-705.05 347.99,-708.86"/>
<polygon fill="gray" stroke="gray" stroke-width="5" points="346.27,-712.88 357.18,-712.68 349.63,-704.8 346.27,-712.88"/>
</g>
<!-- OLQ -->
<g id="node9" class="node">
<title>OLQ</title>
<ellipse fill="none" stroke="black" cx="380.81" cy="-650" rx="30.11" ry="18"/>
<text text-anchor="middle" x="380.81" y="-644.58" font-family="Times New Roman,serif" font-size="14.00">OLQ</text>
</g>
<!-- PVR&#45;&gt;OLQ -->
<g id="edge8" class="edge">
<title>PVR&#45;&gt;OLQ</title>
<path fill="none" stroke="blue" stroke-width="2" d="M306.44,-650.53C317.92,-648.25 329.07,-646.43 339.07,-645.24"/>
<polygon fill="blue" stroke="blue" stroke-width="2" points="339.28,-648.74 348.91,-644.33 338.63,-641.77 339.28,-648.74"/>
</g>
<!-- PVC -->
<g id="node10" class="node">
<title>PVC</title>
<ellipse fill="none" stroke="black" cx="380.81" cy="-571" rx="29.11" ry="18"/>
<text text-anchor="middle" x="380.81" y="-565.58" font-family="Times New Roman,serif" font-size="14.00">PVC</text>
</g>
<!-- PVR&#45;&gt;PVC -->
<g id="edge9" class="edge">
<title>PVR&#45;&gt;PVC</title>
<path fill="none" stroke="gray" stroke-width="0.2" d="M295.05,-628.62C315.88,-614.46 336.56,-600.4 352.28,-589.72"/>
<polygon fill="gray" stroke="gray" stroke-width="0.2" points="353.91,-592.84 360.22,-584.32 349.98,-587.05 353.91,-592.84"/>
</g>
<!-- PVN -->
<g id="node11" class="node">
<title>PVN</title>
<ellipse fill="none" stroke="black" cx="380.81" cy="-492" rx="29.11" ry="18"/>
<text text-anchor="middle" x="380.81" y="-486.57" font-family="Times New Roman,serif" font-size="14.00">PVN</text>
</g>
<!-- PVR&#45;&gt;PVN -->
<g id="edge10" class="edge">
<title>PVR&#45;&gt;PVN</title>
<path fill="none" stroke="gray" stroke-width="2" d="M269.38,-601.74C296.91,-569.2 327.87,-535.09 349.99,-513.32"/>
<polygon fill="gray" stroke="gray" stroke-width="2" points="352.2,-516.05 357,-506.61 347.36,-510.99 352.2,-516.05"/>
</g>
<!-- RIC -->
<g id="node12" class="node">
<title>RIC</title>
<ellipse fill="none" stroke="black" cx="380.81" cy="-413" rx="27" ry="18"/>
<text text-anchor="middle" x="380.81" y="-407.57" font-family="Times New Roman,serif" font-size="14.00">RIC</text>
</g>
<!-- PVR&#45;&gt;RIC -->
<g id="edge11" class="edge">
<title>PVR&#45;&gt;RIC</title>
<path fill="none" stroke="blue" stroke-width="2" d="M261.91,-596.69C302.06,-530.15 349.21,-452 349.21,-452 349.21,-452 353.79,-446.17 359.4,-439.01"/>
<polygon fill="blue" stroke="blue" stroke-width="2" points="362.08,-441.27 365.5,-431.24 356.57,-436.95 362.08,-441.27"/>
</g>
<!-- RIP -->
<g id="node13" class="node">
<title>RIP</title>
<ellipse fill="none" stroke="black" cx="380.81" cy="-334" rx="27" ry="18"/>
<text text-anchor="middle" x="380.81" y="-328.57" font-family="Times New Roman,serif" font-size="14.00">RIP</text>
</g>
<!-- PVR&#45;&gt;RIP -->
<g id="edge12" class="edge">
<title>PVR&#45;&gt;RIP</title>
<path fill="none" stroke="gray" stroke-width="5" d="M250.67,-590.75C292.65,-497.99 349.21,-373 349.21,-373 349.21,-373 352.81,-368.42 357.53,-362.39"/>
<polygon fill="gray" stroke="gray" stroke-width="5" points="360.78,-365.34 363.52,-354.77 353.9,-359.94 360.78,-365.34"/>
</g>
<!-- RIS -->
<g id="node14" class="node">
<title>RIS</title>
<ellipse fill="none" stroke="black" cx="380.81" cy="-255" rx="27" ry="18"/>
<text text-anchor="middle" x="380.81" y="-249.57" font-family="Times New Roman,serif" font-size="14.00">RIS</text>
</g>
<!-- PVR&#45;&gt;RIS -->
<g id="edge13" class="edge">
<title>PVR&#45;&gt;RIS</title>
<path fill="none" stroke="blue" stroke-width="2" d="M242.94,-587.53C285.31,-470.5 349.21,-294 349.21,-294 349.21,-294 353.79,-288.17 359.4,-281.01"/>
<polygon fill="blue" stroke="blue" stroke-width="2" points="362.08,-283.27 365.5,-273.24 356.57,-278.95 362.08,-283.27"/>
</g>
<!-- RMD -->
<g id="node15" class="node">
<title>RMD</title>
<ellipse fill="none" stroke="black" cx="380.81" cy="-176" rx="31.6" ry="18"/>
<text text-anchor="middle" x="380.81" y="-170.57" font-family="Times New Roman,serif" font-size="14.00">RMD</text>
</g>
<!-- PVR&#45;&gt;RMD -->
<g id="edge14" class="edge">
<title>PVR&#45;&gt;RMD</title>
<path fill="none" stroke="blue" stroke-width="2" d="M237.42,-585.56C279.49,-446.09 349.21,-215 349.21,-215 349.21,-215 353.66,-209.33 359.17,-202.31"/>
<polygon fill="blue" stroke="blue" stroke-width="2" points="361.72,-204.72 365.14,-194.69 356.22,-200.4 361.72,-204.72"/>
</g>
<!-- SDQ -->
<g id="node16" class="node">
<title>SDQ</title>
<ellipse fill="none" stroke="black" cx="380.81" cy="-97" rx="29.61" ry="18"/>
<text text-anchor="middle" x="380.81" y="-91.58" font-family="Times New Roman,serif" font-size="14.00">SDQ</text>
</g>
<!-- PVR&#45;&gt;SDQ -->
<g id="edge15" class="edge">
<title>PVR&#45;&gt;SDQ</title>
<path fill="none" stroke="gray" stroke-width="0.2" d="M233.28,-584.33C274.73,-424.01 349.21,-136 349.21,-136 349.21,-136 354.51,-129.25 360.69,-121.37"/>
<polygon fill="gray" stroke="gray" stroke-width="0.2" points="363.41,-123.58 366.83,-113.55 357.9,-119.26 363.41,-123.58"/>
</g>
<!-- SMB -->
<g id="node17" class="node">
<title>SMB</title>
<ellipse fill="none" stroke="black" cx="380.81" cy="-18" rx="30.11" ry="18"/>
<text text-anchor="middle" x="380.81" y="-12.57" font-family="Times New Roman,serif" font-size="14.00">SMB</text>
</g>
<!-- PVR&#45;&gt;SMB -->
<g id="edge16" class="edge">
<title>PVR&#45;&gt;SMB</title>
<path fill="none" stroke="gray" stroke-width="0.2" d="M230.06,-583.57C270.75,-403.76 349.21,-57 349.21,-57 349.21,-57 354.51,-50.25 360.69,-42.37"/>
<polygon fill="gray" stroke="gray" stroke-width="0.2" points="363.41,-44.58 366.83,-34.55 357.9,-40.26 363.41,-44.58"/>
</g>
<!-- ADA&#45;&gt;PVR -->
<g id="edge17" class="edge">
<title>ADA&#45;&gt;PVR</title>
<path fill="none" stroke="blue" stroke-width="2" d="M355.4,-1192.87C351.77,-1188.76 349.21,-1185.5 349.21,-1185.5 349.21,-1185.5 279.13,-952.72 237.09,-805.7"/>
<polygon fill="blue" stroke="blue" stroke-width="2" points="240.55,-805.07 234.44,-796.42 233.82,-806.99 240.55,-805.07"/>
</g>
<!-- BDU&#45;&gt;PVR -->
<g id="edge18" class="edge">
<title>BDU&#45;&gt;PVR</title>
<path fill="none" stroke="blue" stroke-width="5" d="M359.13,-874.31C339.32,-855.85 308.25,-822.09 279.27,-788.27"/>
<polygon fill="blue" stroke="blue" stroke-width="5" points="282.98,-785.88 273.17,-781.09 276.31,-791.54 282.98,-785.88"/>
</g>
<!-- CEP&#45;&gt;PVR -->
<g id="edge19" class="edge">
<title>CEP&#45;&gt;PVR</title>
<path fill="none" stroke="gray" stroke-width="2" d="M353.89,-802.12C338.53,-794.24 318.03,-781.59 297.22,-767.49"/>
<polygon fill="gray" stroke="gray" stroke-width="2" points="299.38,-764.73 289.15,-761.95 295.41,-770.5 299.38,-764.73"/>
</g>
<!-- IL1&#45;&gt;PVR -->
<g id="edge20" class="edge">
<title>IL1&#45;&gt;PVR</title>
<path fill="none" stroke="gray" stroke-width="2" d="M354.87,-734.97C344.7,-734.44 332.17,-732.81 318.74,-730.41"/>
<polygon fill="gray" stroke="gray" stroke-width="2" points="319.64,-727.02 309.16,-728.57 318.32,-733.89 319.64,-727.02"/>
</g>
<!-- OLQ&#45;&gt;PVR -->
<g id="edge21" class="edge">
<title>OLQ&#45;&gt;PVR</title>
<path fill="none" stroke="gray" stroke-width="2" d="M361.86,-664.33C352.22,-668.74 339.44,-673.21 325.32,-677.33"/>
<polygon fill="gray" stroke="gray" stroke-width="2" points="324.81,-673.84 316.11,-679.89 326.68,-680.59 324.81,-673.84"/>
</g>
<!-- PVN&#45;&gt;PVR -->
<g id="edge22" class="edge">
<title>PVN&#45;&gt;PVR</title>
<path fill="none" stroke="gray" stroke-width="2" d="M371.19,-509.31C356.45,-531.75 324.92,-570.39 293.34,-606.25"/>
<polygon fill="gray" stroke="gray" stroke-width="2" points="290.91,-603.72 286.89,-613.52 296.15,-608.36 290.91,-603.72"/>
</g>
<!-- ADE -->
<g id="node18" class="node">
<title>ADE</title>
<ellipse fill="none" stroke="black" cx="30.61" cy="-768" rx="29.11" ry="18"/>
<text text-anchor="middle" x="30.61" y="-762.58" font-family="Times New Roman,serif" font-size="14.00">ADE</text>
</g>
<!-- ADE&#45;&gt;PVR -->
<g id="edge23" class="edge">
<title>ADE&#45;&gt;PVR</title>
<path fill="none" stroke="gray" stroke-width="0.2" d="M54.53,-757.51C66.21,-752.16 81.35,-745.23 97.5,-737.84"/>
<polygon fill="gray" stroke="gray" stroke-width="0.2" points="98.64,-741.17 106.28,-733.82 95.73,-734.8 98.64,-741.17"/>
</g>
<!-- ALM -->
<g id="node19" class="node">
<title>ALM</title>
<ellipse fill="none" stroke="black" cx="30.61" cy="-689" rx="30.61" ry="18"/>
<text text-anchor="middle" x="30.61" y="-683.58" font-family="Times New Roman,serif" font-size="14.00">ALM</text>
</g>
<!-- ALM&#45;&gt;PVR -->
<g id="edge24" class="edge">
<title>ALM&#45;&gt;PVR</title>
<path fill="none" stroke="gray" stroke-width="0.2" d="M61.67,-689C69.11,-689 77.54,-689 86.48,-689"/>
<polygon fill="gray" stroke="gray" stroke-width="0.2" points="86.48,-692.5 96.48,-689 86.48,-685.5 86.48,-692.5"/>
</g>
<!-- SMD -->
<g id="node20" class="node">
<title>SMD</title>
<ellipse fill="none" stroke="black" cx="30.61" cy="-610" rx="30.61" ry="18"/>
<text text-anchor="middle" x="30.61" y="-604.58" font-family="Times New Roman,serif" font-size="14.00">SMD</text>
</g>
<!-- SMD&#45;&gt;PVR -->
<g id="edge25" class="edge">
<title>SMD&#45;&gt;PVR</title>
<path fill="none" stroke="gray" stroke-width="0.2" d="M55.61,-620.98C67.07,-626.23 81.66,-632.91 97.22,-640.03"/>
<polygon fill="gray" stroke="gray" stroke-width="0.2" points="95.64,-643.16 106.19,-644.14 98.55,-636.79 95.64,-643.16"/>
</g>
</g>
</svg>
