<?xml version="1.0" encoding="UTF-8" standalone="no"?>
<!DOCTYPE svg PUBLIC "-//W3C//DTD SVG 1.1//EN"
 "http://www.w3.org/Graphics/SVG/1.1/DTD/svg11.dtd">
<!-- Generated by graphviz version 11.0.0 (20240428.1522)
 -->
<!-- Pages: 1 -->
<svg width="415pt" height="1624pt"
 viewBox="0.00 0.00 415.43 1624.00" xmlns="http://www.w3.org/2000/svg" xmlns:xlink="http://www.w3.org/1999/xlink">
<g id="graph0" class="graph" transform="scale(1 1) rotate(0) translate(4 1620)">
<polygon fill="white" stroke="none" points="-4,4 -4,-1620 411.43,-1620 411.43,4 -4,4"/>
<!-- PVT -->
<g id="node1" class="node">
<title>PVT</title>
<ellipse fill="none" stroke="black" cx="202.22" cy="-808" rx="108" ry="108"/>
<text text-anchor="middle" x="202.22" y="-789" font-family="Times New Roman,serif" font-size="50.00">PVT</text>
</g>
<!-- AIB -->
<g id="node2" class="node">
<title>AIB</title>
<ellipse fill="none" stroke="black" cx="376.82" cy="-1598" rx="27" ry="18"/>
<text text-anchor="middle" x="376.82" y="-1592.58" font-family="Times New Roman,serif" font-size="14.00">AIB</text>
</g>
<!-- PVT&#45;&gt;AIB -->
<g id="edge1" class="edge">
<title>PVT&#45;&gt;AIB</title>
<path fill="none" stroke="gray" stroke-width="5" d="M225.72,-913.7C265.99,-1116.16 346.22,-1537.5 346.22,-1537.5 346.22,-1537.5 356.18,-1550.63 364.55,-1565.85"/>
<polygon fill="gray" stroke="gray" stroke-width="5" points="360.44,-1567.4 368.73,-1574.49 368.31,-1563.58 360.44,-1567.4"/>
</g>
<!-- AQR -->
<g id="node3" class="node">
<title>AQR</title>
<ellipse fill="none" stroke="black" cx="376.82" cy="-1519" rx="30.61" ry="18"/>
<text text-anchor="middle" x="376.82" y="-1513.58" font-family="Times New Roman,serif" font-size="14.00">AQR</text>
</g>
<!-- PVT&#45;&gt;AQR -->
<g id="edge2" class="edge">
<title>PVT&#45;&gt;AQR</title>
<path fill="none" stroke="gray" stroke-width="0.2" d="M225.72,-913.74C265.99,-1102.98 346.22,-1480 346.22,-1480 346.22,-1480 351.34,-1486.75 357.32,-1494.63"/>
<polygon fill="gray" stroke="gray" stroke-width="0.2" points="354.42,-1496.6 363.25,-1502.45 360,-1492.36 354.42,-1496.6"/>
</g>
<!-- AVA -->
<g id="node4" class="node">
<title>AVA</title>
<ellipse fill="none" stroke="black" cx="376.82" cy="-1440" rx="30.11" ry="18"/>
<text text-anchor="middle" x="376.82" y="-1434.58" font-family="Times New Roman,serif" font-size="14.00">AVA</text>
</g>
<!-- PVT&#45;&gt;AVA -->
<g id="edge3" class="edge">
<title>PVT&#45;&gt;AVA</title>
<path fill="none" stroke="gray" stroke-width="0.2" d="M228.53,-912.99C269.61,-1083.31 346.22,-1401 346.22,-1401 346.22,-1401 351.34,-1407.75 357.32,-1415.63"/>
<polygon fill="gray" stroke="gray" stroke-width="0.2" points="354.42,-1417.6 363.25,-1423.45 360,-1413.36 354.42,-1417.6"/>
</g>
<!-- AVE -->
<g id="node5" class="node">
<title>AVE</title>
<ellipse fill="none" stroke="black" cx="376.82" cy="-1361" rx="29.11" ry="18"/>
<text text-anchor="middle" x="376.82" y="-1355.58" font-family="Times New Roman,serif" font-size="14.00">AVE</text>
</g>
<!-- PVT&#45;&gt;AVE -->
<g id="edge4" class="edge">
<title>PVT&#45;&gt;AVE</title>
<path fill="none" stroke="gray" stroke-width="0.2" d="M232.15,-912.02C273.94,-1062.21 346.22,-1322 346.22,-1322 346.22,-1322 351.34,-1328.75 357.32,-1336.63"/>
<polygon fill="gray" stroke="gray" stroke-width="0.2" points="354.42,-1338.6 363.25,-1344.45 360,-1334.36 354.42,-1338.6"/>
</g>
<!-- AVK -->
<g id="node6" class="node">
<title>AVK</title>
<ellipse fill="none" stroke="black" cx="376.82" cy="-1282" rx="30.11" ry="18"/>
<text text-anchor="middle" x="376.82" y="-1276.58" font-family="Times New Roman,serif" font-size="14.00">AVK</text>
</g>
<!-- PVT&#45;&gt;AVK -->
<g id="edge5" class="edge">
<title>PVT&#45;&gt;AVK</title>
<path fill="none" stroke="gray" stroke-width="5" d="M241.44,-908.99C283.8,-1031.64 346.22,-1221.5 346.22,-1221.5 346.22,-1221.5 356.18,-1234.63 364.55,-1249.85"/>
<polygon fill="gray" stroke="gray" stroke-width="5" points="360.44,-1251.4 368.73,-1258.49 368.31,-1247.58 360.44,-1251.4"/>
</g>
<!-- AVL -->
<g id="node7" class="node">
<title>AVL</title>
<ellipse fill="none" stroke="black" cx="376.82" cy="-1203" rx="29.11" ry="18"/>
<text text-anchor="middle" x="376.82" y="-1197.58" font-family="Times New Roman,serif" font-size="14.00">AVL</text>
</g>
<!-- PVT&#45;&gt;AVL -->
<g id="edge6" class="edge">
<title>PVT&#45;&gt;AVL</title>
<path fill="none" stroke="gray" stroke-width="5" d="M249.05,-905.79C290.88,-1004.74 346.22,-1142.5 346.22,-1142.5 346.22,-1142.5 356.18,-1155.63 364.55,-1170.85"/>
<polygon fill="gray" stroke="gray" stroke-width="5" points="360.44,-1172.4 368.73,-1179.49 368.31,-1168.58 360.44,-1172.4"/>
</g>
<!-- CEP -->
<g id="node8" class="node">
<title>CEP</title>
<ellipse fill="none" stroke="black" cx="376.82" cy="-1124" rx="28.11" ry="18"/>
<text text-anchor="middle" x="376.82" y="-1118.58" font-family="Times New Roman,serif" font-size="14.00">CEP</text>
</g>
<!-- PVT&#45;&gt;CEP -->
<g id="edge7" class="edge">
<title>PVT&#45;&gt;CEP</title>
<path fill="none" stroke="gray" stroke-width="nan" d="M252.63,-903.72C293.96,-983.78 346.22,-1085 346.22,-1085 346.22,-1085 355.33,-1097 363.44,-1107.69"/>
<polygon fill="gray" stroke="gray" stroke-width="nan" points="nan,-nan nan,-nan nan,-nan nan,-nan"/>
</g>
<!-- DVC -->
<g id="node9" class="node">
<title>DVC</title>
<ellipse fill="none" stroke="black" cx="376.82" cy="-1045" rx="30.11" ry="18"/>
<text text-anchor="middle" x="376.82" y="-1039.58" font-family="Times New Roman,serif" font-size="14.00">DVC</text>
</g>
<!-- PVT&#45;&gt;DVC -->
<g id="edge8" class="edge">
<title>PVT&#45;&gt;DVC</title>
<path fill="none" stroke="gray" stroke-width="2" d="M274.93,-888.46C310.61,-935.19 346.22,-984.5 346.22,-984.5 346.22,-984.5 357.44,-999.29 366.07,-1015.67"/>
<polygon fill="gray" stroke="gray" stroke-width="2" points="362.73,-1016.81 370.16,-1024.36 369.07,-1013.83 362.73,-1016.81"/>
</g>
<!-- IL2 -->
<g id="node10" class="node">
<title>IL2</title>
<ellipse fill="none" stroke="black" cx="376.82" cy="-966" rx="27" ry="18"/>
<text text-anchor="middle" x="376.82" y="-960.58" font-family="Times New Roman,serif" font-size="14.00">IL2</text>
</g>
<!-- PVT&#45;&gt;IL2 -->
<g id="edge9" class="edge">
<title>PVT&#45;&gt;IL2</title>
<path fill="none" stroke="gray" stroke-width="0.2" d="M282.7,-880.76C308.25,-904.14 334.6,-928.26 352.72,-944.85"/>
<polygon fill="gray" stroke="gray" stroke-width="0.2" points="349.99,-947.1 359.73,-951.27 354.72,-941.94 349.99,-947.1"/>
</g>
<!-- OLQ -->
<g id="node11" class="node">
<title>OLQ</title>
<ellipse fill="none" stroke="black" cx="376.82" cy="-887" rx="30.11" ry="18"/>
<text text-anchor="middle" x="376.82" y="-881.58" font-family="Times New Roman,serif" font-size="14.00">OLQ</text>
</g>
<!-- PVT&#45;&gt;OLQ -->
<g id="edge10" class="edge">
<title>PVT&#45;&gt;OLQ</title>
<path fill="none" stroke="gray" stroke-width="0.2" d="M300.87,-852.69C316.03,-859.64 330.73,-866.36 343.02,-871.99"/>
<polygon fill="gray" stroke="gray" stroke-width="0.2" points="341.51,-875.15 352.06,-876.13 344.43,-868.78 341.51,-875.15"/>
</g>
<!-- RIB -->
<g id="node12" class="node">
<title>RIB</title>
<ellipse fill="none" stroke="black" cx="376.82" cy="-808" rx="27" ry="18"/>
<text text-anchor="middle" x="376.82" y="-802.58" font-family="Times New Roman,serif" font-size="14.00">RIB</text>
</g>
<!-- PVT&#45;&gt;RIB -->
<g id="edge11" class="edge">
<title>PVT&#45;&gt;RIB</title>
<path fill="none" stroke="gray" stroke-width="0.2" d="M310.57,-808C320.8,-808 330.62,-808 339.39,-808"/>
<polygon fill="gray" stroke="gray" stroke-width="0.2" points="339.22,-811.5 349.22,-808 339.22,-804.5 339.22,-811.5"/>
</g>
<!-- RIG -->
<g id="node13" class="node">
<title>RIG</title>
<ellipse fill="none" stroke="black" cx="376.82" cy="-729" rx="27.11" ry="18"/>
<text text-anchor="middle" x="376.82" y="-723.58" font-family="Times New Roman,serif" font-size="14.00">RIG</text>
</g>
<!-- PVT&#45;&gt;RIG -->
<g id="edge12" class="edge">
<title>PVT&#45;&gt;RIG</title>
<path fill="none" stroke="red" stroke-width="5" d="M294.07,-750.31C308.19,-743.98 322.14,-738.29 334.42,-733.95"/>
<polygon fill="red" stroke="red" stroke-width="5" points="335.36,-738.24 343.52,-731 332.66,-729.92 335.36,-738.24"/>
</g>
<!-- RIH -->
<g id="node14" class="node">
<title>RIH</title>
<ellipse fill="none" stroke="black" cx="376.82" cy="-650" rx="27" ry="18"/>
<text text-anchor="middle" x="376.82" y="-644.58" font-family="Times New Roman,serif" font-size="14.00">RIH</text>
</g>
<!-- PVT&#45;&gt;RIH -->
<g id="edge13" class="edge">
<title>PVT&#45;&gt;RIH</title>
<path fill="none" stroke="gray" stroke-width="2" d="M282.7,-735.24C307.22,-712.8 332.48,-689.67 350.49,-673.18"/>
<polygon fill="gray" stroke="gray" stroke-width="2" points="352.71,-675.9 357.72,-666.57 347.98,-670.74 352.71,-675.9"/>
</g>
<!-- RIM -->
<g id="node15" class="node">
<title>RIM</title>
<ellipse fill="none" stroke="black" cx="376.82" cy="-571" rx="28.11" ry="18"/>
<text text-anchor="middle" x="376.82" y="-565.58" font-family="Times New Roman,serif" font-size="14.00">RIM</text>
</g>
<!-- PVT&#45;&gt;RIM -->
<g id="edge14" class="edge">
<title>PVT&#45;&gt;RIM</title>
<path fill="none" stroke="gray" stroke-width="0.2" d="M266.35,-720.58C304.66,-667.54 346.22,-610 346.22,-610 346.22,-610 351.34,-603.25 357.32,-595.37"/>
<polygon fill="gray" stroke="gray" stroke-width="0.2" points="360,-597.64 363.25,-587.55 354.42,-593.4 360,-597.64"/>
</g>
<!-- RIS -->
<g id="node16" class="node">
<title>RIS</title>
<ellipse fill="none" stroke="black" cx="376.82" cy="-492" rx="27" ry="18"/>
<text text-anchor="middle" x="376.82" y="-486.57" font-family="Times New Roman,serif" font-size="14.00">RIS</text>
</g>
<!-- PVT&#45;&gt;RIS -->
<g id="edge15" class="edge">
<title>PVT&#45;&gt;RIS</title>
<path fill="none" stroke="gray" stroke-width="0.2" d="M252.63,-712.28C293.96,-632.22 346.22,-531 346.22,-531 346.22,-531 351.49,-524.06 357.58,-516.03"/>
<polygon fill="gray" stroke="gray" stroke-width="0.2" points="360.34,-518.19 363.6,-508.1 354.76,-513.95 360.34,-518.19"/>
</g>
<!-- RME -->
<g id="node17" class="node">
<title>RME</title>
<ellipse fill="none" stroke="black" cx="376.82" cy="-413" rx="30.61" ry="18"/>
<text text-anchor="middle" x="376.82" y="-407.57" font-family="Times New Roman,serif" font-size="14.00">RME</text>
</g>
<!-- PVT&#45;&gt;RME -->
<g id="edge16" class="edge">
<title>PVT&#45;&gt;RME</title>
<path fill="none" stroke="gray" stroke-width="2" d="M243.43,-707.89C285.73,-602.59 346.22,-452 346.22,-452 346.22,-452 350.52,-446.33 355.85,-439.31"/>
<polygon fill="gray" stroke="gray" stroke-width="2" points="358.35,-441.81 361.61,-431.72 352.77,-437.57 358.35,-441.81"/>
</g>
<!-- RMF -->
<g id="node18" class="node">
<title>RMF</title>
<ellipse fill="none" stroke="black" cx="376.82" cy="-334" rx="30.61" ry="18"/>
<text text-anchor="middle" x="376.82" y="-328.57" font-family="Times New Roman,serif" font-size="14.00">RMF</text>
</g>
<!-- PVT&#45;&gt;RMF -->
<g id="edge17" class="edge">
<title>PVT&#45;&gt;RMF</title>
<path fill="none" stroke="red" stroke-width="5" d="M232.85,-703.97C268.76,-588.2 326.43,-411.83 345.57,-359.66"/>
<polygon fill="red" stroke="red" stroke-width="5" points="349.56,-361.47 349.29,-350.56 341.46,-358.16 349.56,-361.47"/>
</g>
<!-- SDQ -->
<g id="node19" class="node">
<title>SDQ</title>
<ellipse fill="none" stroke="black" cx="376.82" cy="-255" rx="29.61" ry="18"/>
<text text-anchor="middle" x="376.82" y="-249.57" font-family="Times New Roman,serif" font-size="14.00">SDQ</text>
</g>
<!-- PVT&#45;&gt;SDQ -->
<g id="edge18" class="edge">
<title>PVT&#45;&gt;SDQ</title>
<path fill="none" stroke="gray" stroke-width="2" d="M232.15,-703.98C273.94,-553.79 346.22,-294 346.22,-294 346.22,-294 350.52,-288.33 355.85,-281.31"/>
<polygon fill="gray" stroke="gray" stroke-width="2" points="358.35,-283.81 361.61,-273.72 352.77,-279.57 358.35,-283.81"/>
</g>
<!-- SMB -->
<g id="node20" class="node">
<title>SMB</title>
<ellipse fill="none" stroke="black" cx="376.82" cy="-176" rx="30.11" ry="18"/>
<text text-anchor="middle" x="376.82" y="-170.57" font-family="Times New Roman,serif" font-size="14.00">SMB</text>
</g>
<!-- PVT&#45;&gt;SMB -->
<g id="edge19" class="edge">
<title>PVT&#45;&gt;SMB</title>
<path fill="none" stroke="gray" stroke-width="0.2" d="M228.53,-703.01C269.61,-532.69 346.22,-215 346.22,-215 346.22,-215 351.34,-208.25 357.32,-200.37"/>
<polygon fill="gray" stroke="gray" stroke-width="0.2" points="360,-202.64 363.25,-192.55 354.42,-198.4 360,-202.64"/>
</g>
<!-- URA -->
<g id="node21" class="node">
<title>URA</title>
<ellipse fill="none" stroke="black" cx="376.82" cy="-97" rx="30.11" ry="18"/>
<text text-anchor="middle" x="376.82" y="-91.58" font-family="Times New Roman,serif" font-size="14.00">URA</text>
</g>
<!-- PVT&#45;&gt;URA -->
<g id="edge20" class="edge">
<title>PVT&#45;&gt;URA</title>
<path fill="none" stroke="gray" stroke-width="0.2" d="M223.33,-701.59C259.4,-523.26 332.5,-179.02 348.91,-117.04"/>
<polygon fill="gray" stroke="gray" stroke-width="0.2" points="352.17,-118.34 351.83,-107.75 345.5,-116.24 352.17,-118.34"/>
</g>
<!-- URY -->
<g id="node22" class="node">
<title>URY</title>
<ellipse fill="none" stroke="black" cx="376.82" cy="-18" rx="30.11" ry="18"/>
<text text-anchor="middle" x="376.82" y="-12.57" font-family="Times New Roman,serif" font-size="14.00">URY</text>
</g>
<!-- PVT&#45;&gt;URY -->
<g id="edge21" class="edge">
<title>PVT&#45;&gt;URY</title>
<path fill="none" stroke="gray" stroke-width="2" d="M221.33,-701.48C256.35,-508.37 331.08,-115.09 348.52,-40.68"/>
<polygon fill="gray" stroke="gray" stroke-width="2" points="351.8,-41.95 351.11,-31.38 345.06,-40.07 351.8,-41.95"/>
</g>
<!-- AIB&#45;&gt;PVT -->
<g id="edge22" class="edge">
<title>AIB&#45;&gt;PVT</title>
<path fill="none" stroke="gray" stroke-width="0.2" d="M353.08,-1588.89C349.11,-1584.31 346.22,-1580.5 346.22,-1580.5 346.22,-1580.5 262.49,-1140.77 223.17,-924.64"/>
<polygon fill="gray" stroke="gray" stroke-width="0.2" points="226.61,-924.03 221.38,-914.81 219.73,-925.28 226.61,-924.03"/>
</g>
<!-- AVK&#45;&gt;PVT -->
<g id="edge23" class="edge">
<title>AVK&#45;&gt;PVT</title>
<path fill="none" stroke="gray" stroke-width="2" d="M351.92,-1271.54C348.56,-1267.58 346.22,-1264.5 346.22,-1264.5 346.22,-1264.5 278.86,-1059.6 236.6,-924.1"/>
<polygon fill="gray" stroke="gray" stroke-width="2" points="240.06,-923.43 233.75,-914.92 233.37,-925.51 240.06,-923.43"/>
</g>
<!-- AVL&#45;&gt;PVT -->
<g id="edge24" class="edge">
<title>AVL&#45;&gt;PVT</title>
<path fill="none" stroke="gray" stroke-width="5" d="M352.21,-1192.87C348.69,-1188.76 346.22,-1185.5 346.22,-1185.5 346.22,-1185.5 286.18,-1036.04 243.91,-924.95"/>
<polygon fill="gray" stroke="gray" stroke-width="5" points="248.05,-923.53 240.41,-915.73 239.86,-926.63 248.05,-923.53"/>
</g>
<!-- DVC&#45;&gt;PVT -->
<g id="edge25" class="edge">
<title>DVC&#45;&gt;PVT</title>
<path fill="none" stroke="gray" stroke-width="0.2" d="M351.92,-1034.54C348.56,-1030.58 346.22,-1027.5 346.22,-1027.5 346.22,-1027.5 302.65,-967.18 263.61,-909.51"/>
<polygon fill="gray" stroke="gray" stroke-width="0.2" points="266.55,-907.61 258.06,-901.28 260.75,-911.53 266.55,-907.61"/>
</g>
<!-- RIG&#45;&gt;PVT -->
<g id="edge26" class="edge">
<title>RIG&#45;&gt;PVT</title>
<path fill="none" stroke="gray" stroke-width="2" d="M362.03,-744.56C351.34,-752.49 335.39,-761.82 317.66,-770.96"/>
<polygon fill="gray" stroke="gray" stroke-width="2" points="316.18,-767.78 308.82,-775.4 319.33,-774.04 316.18,-767.78"/>
</g>
<!-- RMF&#45;&gt;PVT -->
<g id="edge27" class="edge">
<title>RMF&#45;&gt;PVT</title>
<path fill="none" stroke="red" stroke-width="2" d="M371.45,-351.9C363.22,-372.1 346.22,-394.5 346.22,-394.5 346.22,-394.5 287.76,-572.32 245.6,-694.96"/>
<polygon fill="red" stroke="red" stroke-width="2" points="242.38,-693.56 242.43,-704.15 249,-695.84 242.38,-693.56"/>
</g>
<!-- URA&#45;&gt;PVT -->
<g id="edge28" class="edge">
<title>URA&#45;&gt;PVT</title>
<path fill="none" stroke="gray" stroke-width="0.2" d="M371.45,-114.9C363.22,-135.1 346.22,-157.5 346.22,-157.5 346.22,-157.5 272.08,-505.89 230.57,-692.95"/>
<polygon fill="gray" stroke="gray" stroke-width="0.2" points="227.19,-692.01 228.44,-702.53 234.02,-693.53 227.19,-692.01"/>
</g>
<!-- URY&#45;&gt;PVT -->
<g id="edge29" class="edge">
<title>URY&#45;&gt;PVT</title>
<path fill="none" stroke="gray" stroke-width="0.2" d="M371.45,-35.9C363.22,-56.1 346.22,-78.5 346.22,-78.5 346.22,-78.5 268.55,-486.37 227.69,-692.34"/>
<polygon fill="gray" stroke="gray" stroke-width="0.2" points="224.29,-691.51 225.78,-702 231.16,-692.87 224.29,-691.51"/>
</g>
<!-- ADE -->
<g id="node23" class="node">
<title>ADE</title>
<ellipse fill="none" stroke="black" cx="29.11" cy="-808" rx="29.11" ry="18"/>
<text text-anchor="middle" x="29.11" y="-802.58" font-family="Times New Roman,serif" font-size="14.00">ADE</text>
</g>
<!-- ADE&#45;&gt;PVT -->
<g id="edge30" class="edge">
<title>ADE&#45;&gt;PVT</title>
<path fill="none" stroke="gray" stroke-width="0.2" d="M58.36,-808C65.89,-808 74.52,-808 83.71,-808"/>
<polygon fill="gray" stroke="gray" stroke-width="0.2" points="83.6,-811.5 93.6,-808 83.6,-804.5 83.6,-811.5"/>
</g>
</g>
</svg>
