<?xml version="1.0" encoding="UTF-8" standalone="no"?>
<!DOCTYPE svg PUBLIC "-//W3C//DTD SVG 1.1//EN"
 "http://www.w3.org/Graphics/SVG/1.1/DTD/svg11.dtd">
<!-- Generated by graphviz version 11.0.0 (20240428.1522)
 -->
<!-- Pages: 1 -->
<svg width="425pt" height="1861pt"
 viewBox="0.00 0.00 425.41 1861.00" xmlns="http://www.w3.org/2000/svg" xmlns:xlink="http://www.w3.org/1999/xlink">
<g id="graph0" class="graph" transform="scale(1 1) rotate(0) translate(4 1857)">
<polygon fill="white" stroke="none" points="-4,4 -4,-1857 421.41,-1857 421.41,4 -4,4"/>
<!-- RIA -->
<g id="node1" class="node">
<title>RIA</title>
<ellipse fill="none" stroke="black" cx="209.2" cy="-966" rx="108" ry="108"/>
<text text-anchor="middle" x="209.2" y="-947" font-family="Times New Roman,serif" font-size="50.00">RIA</text>
</g>
<!-- RIA&#45;&gt;RIA -->
<g id="edge1" class="edge">
<title>RIA&#45;&gt;RIA</title>
<path fill="none" stroke="black" stroke-width="5" d="M176.5,-1069.39C178.44,-1096.51 189.34,-1117 209.2,-1117 224.95,-1117 235.07,-1104.12 239.55,-1085.26"/>
<polygon fill="black" stroke="black" stroke-width="5" points="243.85,-1086.1 240.99,-1075.56 235.19,-1084.81 243.85,-1086.1"/>
</g>
<!-- ADF -->
<g id="node2" class="node">
<title>ADF</title>
<ellipse fill="none" stroke="black" cx="385.3" cy="-1835" rx="29.11" ry="18"/>
<text text-anchor="middle" x="385.3" y="-1829.58" font-family="Times New Roman,serif" font-size="14.00">ADF</text>
</g>
<!-- RIA&#45;&gt;ADF -->
<g id="edge2" class="edge">
<title>RIA&#45;&gt;ADF</title>
<path fill="none" stroke="gray" stroke-width="0.2" d="M230.54,-1072.08C270.02,-1291.69 353.2,-1774.5 353.2,-1774.5 353.2,-1774.5 366.15,-1790.74 375.34,-1808.04"/>
<polygon fill="gray" stroke="gray" stroke-width="0.2" points="372.09,-1809.34 379.58,-1816.83 378.39,-1806.3 372.09,-1809.34"/>
</g>
<!-- AIZ -->
<g id="node3" class="node">
<title>AIZ</title>
<ellipse fill="none" stroke="black" cx="385.3" cy="-1756" rx="27" ry="18"/>
<text text-anchor="middle" x="385.3" y="-1750.58" font-family="Times New Roman,serif" font-size="14.00">AIZ</text>
</g>
<!-- RIA&#45;&gt;AIZ -->
<g id="edge3" class="edge">
<title>RIA&#45;&gt;AIZ</title>
<path fill="none" stroke="gray" stroke-width="0.2" d="M232.7,-1071.7C272.97,-1274.16 353.2,-1695.5 353.2,-1695.5 353.2,-1695.5 366.15,-1711.74 375.34,-1729.04"/>
<polygon fill="gray" stroke="gray" stroke-width="0.2" points="372.09,-1730.34 379.58,-1737.83 378.39,-1727.3 372.09,-1730.34"/>
</g>
<!-- AQR -->
<g id="node4" class="node">
<title>AQR</title>
<ellipse fill="none" stroke="black" cx="385.3" cy="-1677" rx="30.61" ry="18"/>
<text text-anchor="middle" x="385.3" y="-1671.58" font-family="Times New Roman,serif" font-size="14.00">AQR</text>
</g>
<!-- RIA&#45;&gt;AQR -->
<g id="edge4" class="edge">
<title>RIA&#45;&gt;AQR</title>
<path fill="none" stroke="gray" stroke-width="2" d="M235.36,-1071.17C276.39,-1255.53 353.2,-1616.5 353.2,-1616.5 353.2,-1616.5 364.99,-1631.29 374.06,-1647.67"/>
<polygon fill="gray" stroke="gray" stroke-width="2" points="370.8,-1648.98 378.37,-1656.39 377.07,-1645.87 370.8,-1648.98"/>
</g>
<!-- AUA -->
<g id="node5" class="node">
<title>AUA</title>
<ellipse fill="none" stroke="black" cx="385.3" cy="-1598" rx="30.11" ry="18"/>
<text text-anchor="middle" x="385.3" y="-1592.58" font-family="Times New Roman,serif" font-size="14.00">AUA</text>
</g>
<!-- RIA&#45;&gt;AUA -->
<g id="edge5" class="edge">
<title>RIA&#45;&gt;AUA</title>
<path fill="none" stroke="gray" stroke-width="0.2" d="M238.63,-1070.19C280.33,-1235.3 353.2,-1537.5 353.2,-1537.5 353.2,-1537.5 366.15,-1553.74 375.34,-1571.04"/>
<polygon fill="gray" stroke="gray" stroke-width="0.2" points="372.09,-1572.34 379.58,-1579.83 378.39,-1569.3 372.09,-1572.34"/>
</g>
<!-- AVA -->
<g id="node6" class="node">
<title>AVA</title>
<ellipse fill="none" stroke="black" cx="385.3" cy="-1519" rx="30.11" ry="18"/>
<text text-anchor="middle" x="385.3" y="-1513.58" font-family="Times New Roman,serif" font-size="14.00">AVA</text>
</g>
<!-- RIA&#45;&gt;AVA -->
<g id="edge6" class="edge">
<title>RIA&#45;&gt;AVA</title>
<path fill="none" stroke="gray" stroke-width="2" d="M242.83,-1068.85C285.03,-1213.48 353.2,-1458.5 353.2,-1458.5 353.2,-1458.5 364.99,-1473.29 374.06,-1489.67"/>
<polygon fill="gray" stroke="gray" stroke-width="2" points="370.8,-1490.98 378.37,-1498.39 377.07,-1487.87 370.8,-1490.98"/>
</g>
<!-- BAG -->
<g id="node7" class="node">
<title>BAG</title>
<ellipse fill="none" stroke="black" cx="385.3" cy="-1440" rx="30.11" ry="18"/>
<text text-anchor="middle" x="385.3" y="-1434.58" font-family="Times New Roman,serif" font-size="14.00">BAG</text>
</g>
<!-- RIA&#45;&gt;BAG -->
<g id="edge7" class="edge">
<title>RIA&#45;&gt;BAG</title>
<path fill="none" stroke="gray" stroke-width="0.2" d="M248.43,-1066.99C290.79,-1189.64 353.2,-1379.5 353.2,-1379.5 353.2,-1379.5 366.15,-1395.74 375.34,-1413.04"/>
<polygon fill="gray" stroke="gray" stroke-width="0.2" points="372.09,-1414.34 379.58,-1421.83 378.39,-1411.3 372.09,-1414.34"/>
</g>
<!-- CEP -->
<g id="node8" class="node">
<title>CEP</title>
<ellipse fill="none" stroke="black" cx="385.3" cy="-1361" rx="28.11" ry="18"/>
<text text-anchor="middle" x="385.3" y="-1355.58" font-family="Times New Roman,serif" font-size="14.00">CEP</text>
</g>
<!-- RIA&#45;&gt;CEP -->
<g id="edge8" class="edge">
<title>RIA&#45;&gt;CEP</title>
<path fill="none" stroke="black" stroke-width="2" d="M256.04,-1063.79C297.87,-1162.74 353.2,-1300.5 353.2,-1300.5 353.2,-1300.5 364.99,-1315.29 374.06,-1331.67"/>
<polygon fill="black" stroke="black" stroke-width="2" points="370.8,-1332.98 378.37,-1340.39 377.07,-1329.87 370.8,-1332.98"/>
</g>
<!-- IL1 -->
<g id="node9" class="node">
<title>IL1</title>
<ellipse fill="none" stroke="black" cx="385.3" cy="-1282" rx="27" ry="18"/>
<text text-anchor="middle" x="385.3" y="-1276.58" font-family="Times New Roman,serif" font-size="14.00">IL1</text>
</g>
<!-- RIA&#45;&gt;IL1 -->
<g id="edge9" class="edge">
<title>RIA&#45;&gt;IL1</title>
<path fill="none" stroke="gray" stroke-width="2" d="M259.61,-1061.72C300.95,-1141.78 353.2,-1243 353.2,-1243 353.2,-1243 357.85,-1248.83 363.56,-1255.99"/>
<polygon fill="gray" stroke="gray" stroke-width="2" points="360.79,-1258.13 369.77,-1263.77 366.27,-1253.77 360.79,-1258.13"/>
</g>
<!-- RIB -->
<g id="node10" class="node">
<title>RIB</title>
<ellipse fill="none" stroke="black" cx="385.3" cy="-1203" rx="27" ry="18"/>
<text text-anchor="middle" x="385.3" y="-1197.58" font-family="Times New Roman,serif" font-size="14.00">RIB</text>
</g>
<!-- RIA&#45;&gt;RIB -->
<g id="edge10" class="edge">
<title>RIA&#45;&gt;RIB</title>
<path fill="none" stroke="gray" stroke-width="0.2" d="M281.91,-1046.46C317.59,-1093.19 353.2,-1142.5 353.2,-1142.5 353.2,-1142.5 366.15,-1158.74 375.34,-1176.04"/>
<polygon fill="gray" stroke="gray" stroke-width="0.2" points="372.09,-1177.34 379.58,-1184.83 378.39,-1174.3 372.09,-1177.34"/>
</g>
<!-- RIH -->
<g id="node11" class="node">
<title>RIH</title>
<ellipse fill="none" stroke="black" cx="385.3" cy="-1124" rx="27" ry="18"/>
<text text-anchor="middle" x="385.3" y="-1118.58" font-family="Times New Roman,serif" font-size="14.00">RIH</text>
</g>
<!-- RIA&#45;&gt;RIH -->
<g id="edge11" class="edge">
<title>RIA&#45;&gt;RIH</title>
<path fill="none" stroke="gray" stroke-width="0.2" d="M297.25,-1028.88C324.33,-1053.45 351.4,-1080.1 368,-1099.32"/>
<polygon fill="gray" stroke="gray" stroke-width="0.2" points="365.17,-1101.39 374.25,-1106.84 370.55,-1096.92 365.17,-1101.39"/>
</g>
<!-- RIM -->
<g id="node12" class="node">
<title>RIM</title>
<ellipse fill="none" stroke="black" cx="385.3" cy="-1045" rx="28.11" ry="18"/>
<text text-anchor="middle" x="385.3" y="-1039.58" font-family="Times New Roman,serif" font-size="14.00">RIM</text>
</g>
<!-- RIA&#45;&gt;RIM -->
<g id="edge12" class="edge">
<title>RIA&#45;&gt;RIM</title>
<path fill="none" stroke="gray" stroke-width="2" d="M312.99,-996.75C330.46,-1005.21 347.06,-1014.16 359.84,-1022.28"/>
<polygon fill="gray" stroke="gray" stroke-width="2" points="357.67,-1025.04 367.91,-1027.76 361.6,-1019.25 357.67,-1025.04"/>
</g>
<!-- RIR -->
<g id="node13" class="node">
<title>RIR</title>
<ellipse fill="none" stroke="black" cx="385.3" cy="-966" rx="27" ry="18"/>
<text text-anchor="middle" x="385.3" y="-960.58" font-family="Times New Roman,serif" font-size="14.00">RIR</text>
</g>
<!-- RIA&#45;&gt;RIR -->
<g id="edge13" class="edge">
<title>RIA&#45;&gt;RIR</title>
<path fill="none" stroke="gray" stroke-width="2" d="M316.49,-950.23C328.76,-950.69 340.49,-951.6 350.64,-952.95"/>
<polygon fill="gray" stroke="gray" stroke-width="2" points="349.98,-956.39 360.42,-954.57 351.13,-949.48 349.98,-956.39"/>
</g>
<!-- RIV -->
<g id="node14" class="node">
<title>RIV</title>
<ellipse fill="none" stroke="black" cx="385.3" cy="-887" rx="27" ry="18"/>
<text text-anchor="middle" x="385.3" y="-881.58" font-family="Times New Roman,serif" font-size="14.00">RIV</text>
</g>
<!-- RIA&#45;&gt;RIV -->
<g id="edge14" class="edge">
<title>RIA&#45;&gt;RIV</title>
<path fill="none" stroke="gray" stroke-width="5" d="M301.08,-908.65C315.64,-902.15 330.06,-896.32 342.7,-891.89"/>
<polygon fill="gray" stroke="gray" stroke-width="5" points="344.02,-896.06 352.22,-888.85 341.36,-887.73 344.02,-896.06"/>
</g>
<!-- RMD -->
<g id="node15" class="node">
<title>RMD</title>
<ellipse fill="none" stroke="black" cx="385.3" cy="-808" rx="31.6" ry="18"/>
<text text-anchor="middle" x="385.3" y="-802.58" font-family="Times New Roman,serif" font-size="14.00">RMD</text>
</g>
<!-- RIA&#45;&gt;RMD -->
<g id="edge15" class="edge">
<title>RIA&#45;&gt;RMD</title>
<path fill="none" stroke="black" stroke-width="5" d="M281.52,-885.39C303.99,-864.31 327.92,-843.39 347.02,-828.33"/>
<polygon fill="black" stroke="black" stroke-width="5" points="349.43,-832 354.74,-822.46 344.13,-825.03 349.43,-832"/>
</g>
<!-- RMF -->
<g id="node16" class="node">
<title>RMF</title>
<ellipse fill="none" stroke="black" cx="385.3" cy="-729" rx="30.61" ry="18"/>
<text text-anchor="middle" x="385.3" y="-723.58" font-family="Times New Roman,serif" font-size="14.00">RMF</text>
</g>
<!-- RIA&#45;&gt;RMF -->
<g id="edge16" class="edge">
<title>RIA&#45;&gt;RMF</title>
<path fill="none" stroke="gray" stroke-width="2" d="M273.55,-878.73C311.8,-826.04 353.2,-769 353.2,-769 353.2,-769 357.96,-762.88 363.75,-755.43"/>
<polygon fill="gray" stroke="gray" stroke-width="2" points="366.42,-757.7 369.8,-747.66 360.89,-753.41 366.42,-757.7"/>
</g>
<!-- RMG -->
<g id="node17" class="node">
<title>RMG</title>
<ellipse fill="none" stroke="black" cx="385.3" cy="-650" rx="32.1" ry="18"/>
<text text-anchor="middle" x="385.3" y="-644.58" font-family="Times New Roman,serif" font-size="14.00">RMG</text>
</g>
<!-- RIA&#45;&gt;RMG -->
<g id="edge17" class="edge">
<title>RIA&#45;&gt;RMG</title>
<path fill="none" stroke="blue" stroke-width="5" d="M253.11,-867.24C287.5,-796.34 332.45,-708.74 351.22,-674.85"/>
<polygon fill="blue" stroke="blue" stroke-width="5" points="354.96,-677.12 356.31,-666.29 347.44,-672.65 354.96,-677.12"/>
</g>
<!-- RMH -->
<g id="node18" class="node">
<title>RMH</title>
<ellipse fill="none" stroke="black" cx="385.3" cy="-571" rx="31.6" ry="18"/>
<text text-anchor="middle" x="385.3" y="-565.58" font-family="Times New Roman,serif" font-size="14.00">RMH</text>
</g>
<!-- RIA&#45;&gt;RMH -->
<g id="edge18" class="edge">
<title>RIA&#45;&gt;RMH</title>
<path fill="none" stroke="gray" stroke-width="0.2" d="M245.37,-863.87C282.75,-765.19 338.17,-626.91 354.98,-590.64"/>
<polygon fill="gray" stroke="gray" stroke-width="0.2" points="357.86,-592.68 359.36,-582.19 351.65,-589.46 357.86,-592.68"/>
</g>
<!-- SAA -->
<g id="node19" class="node">
<title>SAA</title>
<ellipse fill="none" stroke="black" cx="385.3" cy="-492" rx="29.11" ry="18"/>
<text text-anchor="middle" x="385.3" y="-486.57" font-family="Times New Roman,serif" font-size="14.00">SAA</text>
</g>
<!-- RIA&#45;&gt;SAA -->
<g id="edge19" class="edge">
<title>RIA&#45;&gt;SAA</title>
<path fill="none" stroke="gray" stroke-width="0.2" d="M239.83,-862.17C281.72,-727.45 353.2,-510.5 353.2,-510.5 353.2,-510.5 353.5,-510.12 354.03,-509.45"/>
<polygon fill="gray" stroke="gray" stroke-width="0.2" points="356.45,-512.01 360.22,-502.11 351.1,-507.5 356.45,-512.01"/>
</g>
<!-- SDQ -->
<g id="node20" class="node">
<title>SDQ</title>
<ellipse fill="none" stroke="black" cx="385.3" cy="-413" rx="29.61" ry="18"/>
<text text-anchor="middle" x="385.3" y="-407.57" font-family="Times New Roman,serif" font-size="14.00">SDQ</text>
</g>
<!-- RIA&#45;&gt;SDQ -->
<g id="edge20" class="edge">
<title>RIA&#45;&gt;SDQ</title>
<path fill="none" stroke="gray" stroke-width="0.2" d="M235.85,-860.85C277,-704.86 353.2,-431.5 353.2,-431.5 353.2,-431.5 353.5,-431.12 354.03,-430.45"/>
<polygon fill="gray" stroke="gray" stroke-width="0.2" points="356.45,-433.01 360.22,-423.11 351.1,-428.5 356.45,-433.01"/>
</g>
<!-- SIA -->
<g id="node21" class="node">
<title>SIA</title>
<ellipse fill="none" stroke="black" cx="385.3" cy="-334" rx="27" ry="18"/>
<text text-anchor="middle" x="385.3" y="-328.57" font-family="Times New Roman,serif" font-size="14.00">SIA</text>
</g>
<!-- RIA&#45;&gt;SIA -->
<g id="edge21" class="edge">
<title>RIA&#45;&gt;SIA</title>
<path fill="none" stroke="black" stroke-width="5" d="M235.6,-860.84C276.7,-690.73 353.2,-374 353.2,-374 353.2,-374 357.15,-368.92 362.24,-362.38"/>
<polygon fill="black" stroke="black" stroke-width="5" points="365.5,-365.31 368.18,-354.73 358.59,-359.94 365.5,-365.31"/>
</g>
<!-- SIB -->
<g id="node22" class="node">
<title>SIB</title>
<ellipse fill="none" stroke="black" cx="385.3" cy="-255" rx="27" ry="18"/>
<text text-anchor="middle" x="385.3" y="-249.57" font-family="Times New Roman,serif" font-size="14.00">SIB</text>
</g>
<!-- RIA&#45;&gt;SIB -->
<g id="edge22" class="edge">
<title>RIA&#45;&gt;SIB</title>
<path fill="none" stroke="gray" stroke-width="0.2" d="M232.7,-860.42C272.97,-671.46 353.2,-295 353.2,-295 353.2,-295 359.13,-287.37 365.81,-278.78"/>
<polygon fill="gray" stroke="gray" stroke-width="0.2" points="368.45,-281.09 371.83,-271.05 362.92,-276.79 368.45,-281.09"/>
</g>
<!-- SMB -->
<g id="node23" class="node">
<title>SMB</title>
<ellipse fill="none" stroke="black" cx="385.3" cy="-176" rx="30.11" ry="18"/>
<text text-anchor="middle" x="385.3" y="-170.57" font-family="Times New Roman,serif" font-size="14.00">SMB</text>
</g>
<!-- RIA&#45;&gt;SMB -->
<g id="edge23" class="edge">
<title>RIA&#45;&gt;SMB</title>
<path fill="none" stroke="red" stroke-width="5" d="M228.39,-859.21C262.99,-668.67 336.17,-283.96 355.68,-201.78"/>
<polygon fill="red" stroke="red" stroke-width="5" points="359.87,-203.05 358.4,-192.23 351.45,-200.65 359.87,-203.05"/>
</g>
<!-- SMD -->
<g id="node24" class="node">
<title>SMD</title>
<ellipse fill="none" stroke="black" cx="385.3" cy="-97" rx="30.61" ry="18"/>
<text text-anchor="middle" x="385.3" y="-91.58" font-family="Times New Roman,serif" font-size="14.00">SMD</text>
</g>
<!-- RIA&#45;&gt;SMD -->
<g id="edge24" class="edge">
<title>RIA&#45;&gt;SMD</title>
<path fill="none" stroke="black" stroke-width="5" d="M226.75,-859.12C260.79,-652.27 336.67,-211.43 355.76,-123.09"/>
<polygon fill="black" stroke="black" stroke-width="5" points="359.94,-124.4 358.23,-113.62 351.47,-122.19 359.94,-124.4"/>
</g>
<!-- URX -->
<g id="node25" class="node">
<title>URX</title>
<ellipse fill="none" stroke="black" cx="385.3" cy="-18" rx="30.11" ry="18"/>
<text text-anchor="middle" x="385.3" y="-12.57" font-family="Times New Roman,serif" font-size="14.00">URX</text>
</g>
<!-- RIA&#45;&gt;URX -->
<g id="edge25" class="edge">
<title>RIA&#45;&gt;URX</title>
<path fill="none" stroke="gray" stroke-width="0.2" d="M225.37,-859C259.59,-631.36 340.67,-115.22 357.2,-37.57"/>
<polygon fill="gray" stroke="gray" stroke-width="0.2" points="360.54,-38.65 359.72,-28.08 353.77,-36.85 360.54,-38.65"/>
</g>
<!-- ADF&#45;&gt;RIA -->
<g id="edge26" class="edge">
<title>ADF&#45;&gt;RIA</title>
<path fill="none" stroke="black" stroke-width="5" d="M360.1,-1825.55C356.09,-1821.12 353.2,-1817.5 353.2,-1817.5 353.2,-1817.5 268.33,-1324.9 229.36,-1088.85"/>
<polygon fill="black" stroke="black" stroke-width="5" points="233.7,-1088.31 227.76,-1079.15 225.07,-1089.73 233.7,-1088.31"/>
</g>
<!-- AIZ&#45;&gt;RIA -->
<g id="edge27" class="edge">
<title>AIZ&#45;&gt;RIA</title>
<path fill="none" stroke="black" stroke-width="5" d="M361.05,-1747.58C356.55,-1742.7 353.2,-1738.5 353.2,-1738.5 353.2,-1738.5 270.96,-1306.59 231.22,-1088.48"/>
<polygon fill="black" stroke="black" stroke-width="5" points="235.52,-1087.71 229.43,-1078.65 226.91,-1089.27 235.52,-1087.71"/>
</g>
<!-- AQR&#45;&gt;RIA -->
<g id="edge28" class="edge">
<title>AQR&#45;&gt;RIA</title>
<path fill="none" stroke="black" stroke-width="5" d="M359.5,-1666.87C355.8,-1662.76 353.2,-1659.5 353.2,-1659.5 353.2,-1659.5 274.04,-1287.51 233.52,-1088.21"/>
<polygon fill="black" stroke="black" stroke-width="5" points="237.83,-1087.45 231.55,-1078.52 229.25,-1089.19 237.83,-1087.45"/>
</g>
<!-- AUA&#45;&gt;RIA -->
<g id="edge29" class="edge">
<title>AUA&#45;&gt;RIA</title>
<path fill="none" stroke="black" stroke-width="5" d="M359.8,-1588.21C355.94,-1583.94 353.2,-1580.5 353.2,-1580.5 353.2,-1580.5 277.53,-1266.7 236.28,-1087.37"/>
<polygon fill="black" stroke="black" stroke-width="5" points="240.6,-1086.62 234.1,-1077.85 232.07,-1088.58 240.6,-1086.62"/>
</g>
<!-- AVA&#45;&gt;RIA -->
<g id="edge30" class="edge">
<title>AVA&#45;&gt;RIA</title>
<path fill="none" stroke="gray" stroke-width="0.2" d="M359.8,-1509.21C355.94,-1504.94 353.2,-1501.5 353.2,-1501.5 353.2,-1501.5 280,-1238.37 238.34,-1080.77"/>
<polygon fill="gray" stroke="gray" stroke-width="0.2" points="241.78,-1080.08 235.84,-1071.31 235.01,-1081.87 241.78,-1080.08"/>
</g>
<!-- BAG&#45;&gt;RIA -->
<g id="edge31" class="edge">
<title>BAG&#45;&gt;RIA</title>
<path fill="none" stroke="black" stroke-width="5" d="M359.8,-1430.21C355.94,-1425.94 353.2,-1422.5 353.2,-1422.5 353.2,-1422.5 286.92,-1220.89 244.61,-1085.39"/>
<polygon fill="black" stroke="black" stroke-width="5" points="248.84,-1084.24 241.69,-1075.99 240.48,-1086.84 248.84,-1084.24"/>
</g>
<!-- CEP&#45;&gt;RIA -->
<g id="edge32" class="edge">
<title>CEP&#45;&gt;RIA</title>
<path fill="none" stroke="gray" stroke-width="2" d="M360.42,-1351.89C356.24,-1347.31 353.2,-1343.5 353.2,-1343.5 353.2,-1343.5 292.06,-1191.28 249.73,-1079.9"/>
<polygon fill="gray" stroke="gray" stroke-width="2" points="253.07,-1078.84 246.26,-1070.73 246.53,-1081.32 253.07,-1078.84"/>
</g>
<!-- RIB&#45;&gt;RIA -->
<g id="edge33" class="edge">
<title>RIB&#45;&gt;RIA</title>
<path fill="none" stroke="black" stroke-width="5" d="M361.05,-1194.58C356.55,-1189.7 353.2,-1185.5 353.2,-1185.5 353.2,-1185.5 312.1,-1128.59 273.97,-1072.48"/>
<polygon fill="black" stroke="black" stroke-width="5" points="277.59,-1070.03 268.37,-1064.19 270.34,-1074.93 277.59,-1070.03"/>
</g>
<!-- RIH&#45;&gt;RIA -->
<g id="edge34" class="edge">
<title>RIH&#45;&gt;RIA</title>
<path fill="none" stroke="black" stroke-width="5" d="M361.73,-1114.78C344.14,-1102.23 318.56,-1080.63 293.4,-1057.62"/>
<polygon fill="black" stroke="black" stroke-width="5" points="296.4,-1054.43 286.09,-1050.85 290.46,-1060.85 296.4,-1054.43"/>
</g>
<!-- RIM&#45;&gt;RIA -->
<g id="edge35" class="edge">
<title>RIM&#45;&gt;RIA</title>
<path fill="none" stroke="gray" stroke-width="0.2" d="M357.05,-1044.74C343.97,-1040.95 327.41,-1034.72 310.15,-1027.32"/>
<polygon fill="gray" stroke="gray" stroke-width="0.2" points="311.92,-1024.27 301.35,-1023.47 309.11,-1030.68 311.92,-1024.27"/>
</g>
<!-- RIR&#45;&gt;RIA -->
<g id="edge36" class="edge">
<title>RIR&#45;&gt;RIA</title>
<path fill="none" stroke="black" stroke-width="5" d="M363.41,-976.93C354.81,-978.71 344.11,-980.03 332.39,-980.9"/>
<polygon fill="black" stroke="black" stroke-width="5" points="332.47,-976.51 322.72,-981.43 332.95,-985.25 332.47,-976.51"/>
</g>
<!-- RIV&#45;&gt;RIA -->
<g id="edge37" class="edge">
<title>RIV&#45;&gt;RIA</title>
<path fill="none" stroke="gray" stroke-width="5" d="M370.42,-902.54C359.99,-910.21 344.6,-919.19 327.43,-928.04"/>
<polygon fill="gray" stroke="gray" stroke-width="5" points="325.56,-924.08 318.57,-932.46 329.47,-931.91 325.56,-924.08"/>
</g>
<!-- RMD&#45;&gt;RIA -->
<g id="edge38" class="edge">
<title>RMD&#45;&gt;RIA</title>
<path fill="none" stroke="black" stroke-width="5" d="M374.19,-825.24C360.78,-842.09 335.71,-867.49 309.12,-892.22"/>
<polygon fill="black" stroke="black" stroke-width="5" points="306.25,-888.92 301.85,-898.91 312.17,-895.36 306.25,-888.92"/>
</g>
<!-- RMG&#45;&gt;RIA -->
<g id="edge39" class="edge">
<title>RMG&#45;&gt;RIA</title>
<path fill="none" stroke="gray" stroke-width="0.2" d="M379.71,-668.05C371.06,-688.53 353.2,-711.5 353.2,-711.5 353.2,-711.5 310.25,-794.39 271.43,-865.79"/>
<polygon fill="gray" stroke="gray" stroke-width="0.2" points="268.58,-863.71 266.86,-874.16 274.72,-867.06 268.58,-863.71"/>
</g>
<!-- RMH&#45;&gt;RIA -->
<g id="edge40" class="edge">
<title>RMH&#45;&gt;RIA</title>
<path fill="none" stroke="gray" stroke-width="0.2" d="M379.71,-589.05C371.06,-609.53 353.2,-632.5 353.2,-632.5 353.2,-632.5 301.27,-761.42 260,-859.18"/>
<polygon fill="gray" stroke="gray" stroke-width="0.2" points="256.83,-857.68 256.16,-868.26 263.28,-860.41 256.83,-857.68"/>
</g>
<!-- SAA&#45;&gt;RIA -->
<g id="edge41" class="edge">
<title>SAA&#45;&gt;RIA</title>
<path fill="none" stroke="gray" stroke-width="2" d="M379.71,-510.05C371.06,-530.53 353.2,-553.5 353.2,-553.5 353.2,-553.5 294.83,-730.65 252.68,-852.98"/>
<polygon fill="gray" stroke="gray" stroke-width="2" points="249.47,-851.55 249.51,-862.15 256.08,-853.84 249.47,-851.55"/>
</g>
<!-- SDQ&#45;&gt;RIA -->
<g id="edge42" class="edge">
<title>SDQ&#45;&gt;RIA</title>
<path fill="none" stroke="gray" stroke-width="0.2" d="M379.71,-431.05C371.06,-451.53 353.2,-474.5 353.2,-474.5 353.2,-474.5 288.15,-707.85 245.8,-853.19"/>
<polygon fill="gray" stroke="gray" stroke-width="0.2" points="242.45,-852.2 243,-862.78 249.17,-854.16 242.45,-852.2"/>
</g>
<!-- SMB&#45;&gt;RIA -->
<g id="edge43" class="edge">
<title>SMB&#45;&gt;RIA</title>
<path fill="none" stroke="gray" stroke-width="0.2" d="M379.71,-194.05C371.06,-214.53 353.2,-237.5 353.2,-237.5 353.2,-237.5 275.54,-644.83 234.68,-850.51"/>
<polygon fill="gray" stroke="gray" stroke-width="0.2" points="231.28,-849.66 232.76,-860.16 238.15,-851.03 231.28,-849.66"/>
</g>
<!-- SMD&#45;&gt;RIA -->
<g id="edge44" class="edge">
<title>SMD&#45;&gt;RIA</title>
<path fill="none" stroke="black" stroke-width="5" d="M379.71,-115.05C371.06,-135.53 353.2,-158.5 353.2,-158.5 353.2,-158.5 273.97,-617.8 233.46,-843.79"/>
<polygon fill="black" stroke="black" stroke-width="5" points="229.18,-842.89 231.72,-853.51 237.79,-844.44 229.18,-842.89"/>
</g>
<!-- URX&#45;&gt;RIA -->
<g id="edge45" class="edge">
<title>URX&#45;&gt;RIA</title>
<path fill="none" stroke="black" stroke-width="5" d="M379.71,-35.9C371.06,-56.1 353.2,-78.5 353.2,-78.5 353.2,-78.5 271.17,-599.95 231.37,-843.62"/>
<polygon fill="black" stroke="black" stroke-width="5" points="227.06,-842.88 229.76,-853.46 235.69,-844.29 227.06,-842.88"/>
</g>
<!-- ADA -->
<g id="node26" class="node">
<title>ADA</title>
<ellipse fill="none" stroke="black" cx="32.6" cy="-1835" rx="30.11" ry="18"/>
<text text-anchor="middle" x="32.6" y="-1829.58" font-family="Times New Roman,serif" font-size="14.00">ADA</text>
</g>
<!-- ADA&#45;&gt;RIA -->
<g id="edge46" class="edge">
<title>ADA&#45;&gt;RIA</title>
<path fill="none" stroke="blue" stroke-width="5" d="M46.82,-1818.69C55.48,-1808 65.2,-1796 65.2,-1796 65.2,-1796 147.38,-1319.02 187.14,-1088.23"/>
<polygon fill="blue" stroke="blue" stroke-width="5" points="191.43,-1089.13 188.81,-1078.53 182.8,-1087.64 191.43,-1089.13"/>
</g>
<!-- ADE -->
<g id="node27" class="node">
<title>ADE</title>
<ellipse fill="none" stroke="black" cx="32.6" cy="-1756" rx="29.11" ry="18"/>
<text text-anchor="middle" x="32.6" y="-1750.58" font-family="Times New Roman,serif" font-size="14.00">ADE</text>
</g>
<!-- ADE&#45;&gt;RIA -->
<g id="edge47" class="edge">
<title>ADE&#45;&gt;RIA</title>
<path fill="none" stroke="gray" stroke-width="0.2" d="M46.45,-1740.14C55.2,-1729.34 65.2,-1717 65.2,-1717 65.2,-1717 146.01,-1292.6 186.14,-1081.88"/>
<polygon fill="gray" stroke="gray" stroke-width="0.2" points="189.53,-1082.78 187.96,-1072.3 182.65,-1081.47 189.53,-1082.78"/>
</g>
<!-- ADL -->
<g id="node28" class="node">
<title>ADL</title>
<ellipse fill="none" stroke="black" cx="32.6" cy="-1677" rx="29.11" ry="18"/>
<text text-anchor="middle" x="32.6" y="-1671.58" font-family="Times New Roman,serif" font-size="14.00">ADL</text>
</g>
<!-- ADL&#45;&gt;RIA -->
<g id="edge48" class="edge">
<title>ADL&#45;&gt;RIA</title>
<path fill="none" stroke="gray" stroke-width="0.2" d="M46.45,-1661.14C55.2,-1650.34 65.2,-1638 65.2,-1638 65.2,-1638 142.71,-1273.76 183.6,-1081.6"/>
<polygon fill="gray" stroke="gray" stroke-width="0.2" points="186.98,-1082.54 185.64,-1072.04 180.13,-1081.09 186.98,-1082.54"/>
</g>
<!-- AIB -->
<g id="node29" class="node">
<title>AIB</title>
<ellipse fill="none" stroke="black" cx="32.6" cy="-1598" rx="27" ry="18"/>
<text text-anchor="middle" x="32.6" y="-1592.58" font-family="Times New Roman,serif" font-size="14.00">AIB</text>
</g>
<!-- AIB&#45;&gt;RIA -->
<g id="edge49" class="edge">
<title>AIB&#45;&gt;RIA</title>
<path fill="none" stroke="red" stroke-width="2" d="M46.45,-1582.14C55.2,-1571.34 65.2,-1559 65.2,-1559 65.2,-1559 138.19,-1256.33 179.88,-1083.46"/>
<polygon fill="red" stroke="red" stroke-width="2" points="183.23,-1084.48 182.17,-1073.93 176.43,-1082.84 183.23,-1084.48"/>
</g>
<!-- AIN -->
<g id="node30" class="node">
<title>AIN</title>
<ellipse fill="none" stroke="black" cx="32.6" cy="-1519" rx="27" ry="18"/>
<text text-anchor="middle" x="32.6" y="-1513.58" font-family="Times New Roman,serif" font-size="14.00">AIN</text>
</g>
<!-- AIN&#45;&gt;RIA -->
<g id="edge50" class="edge">
<title>AIN&#45;&gt;RIA</title>
<path fill="none" stroke="gray" stroke-width="2" d="M46.45,-1503.14C55.2,-1492.34 65.2,-1480 65.2,-1480 65.2,-1480 133.72,-1233.73 175.9,-1082.12"/>
<polygon fill="gray" stroke="gray" stroke-width="2" points="179.14,-1083.5 178.45,-1072.93 172.4,-1081.63 179.14,-1083.5"/>
</g>
<!-- AIY -->
<g id="node31" class="node">
<title>AIY</title>
<ellipse fill="none" stroke="black" cx="32.6" cy="-1440" rx="27" ry="18"/>
<text text-anchor="middle" x="32.6" y="-1434.58" font-family="Times New Roman,serif" font-size="14.00">AIY</text>
</g>
<!-- AIY&#45;&gt;RIA -->
<g id="edge51" class="edge">
<title>AIY&#45;&gt;RIA</title>
<path fill="none" stroke="black" stroke-width="5" d="M46.45,-1424.14C55.2,-1413.34 65.2,-1401 65.2,-1401 65.2,-1401 127.08,-1212.76 169.43,-1083.94"/>
<polygon fill="black" stroke="black" stroke-width="5" points="173.58,-1085.33 172.55,-1074.46 165.27,-1082.6 173.58,-1085.33"/>
</g>
<!-- ALA -->
<g id="node32" class="node">
<title>ALA</title>
<ellipse fill="none" stroke="black" cx="32.6" cy="-1361" rx="29.11" ry="18"/>
<text text-anchor="middle" x="32.6" y="-1355.58" font-family="Times New Roman,serif" font-size="14.00">ALA</text>
</g>
<!-- ALA&#45;&gt;RIA -->
<g id="edge52" class="edge">
<title>ALA&#45;&gt;RIA</title>
<path fill="none" stroke="gray" stroke-width="0.2" d="M46.45,-1345.14C55.2,-1334.34 65.2,-1322 65.2,-1322 65.2,-1322 122.2,-1180.1 164.23,-1075.48"/>
<polygon fill="gray" stroke="gray" stroke-width="0.2" points="167.4,-1076.98 167.88,-1066.39 160.9,-1074.37 167.4,-1076.98"/>
</g>
<!-- ALN -->
<g id="node33" class="node">
<title>ALN</title>
<ellipse fill="none" stroke="black" cx="32.6" cy="-1282" rx="29.11" ry="18"/>
<text text-anchor="middle" x="32.6" y="-1276.58" font-family="Times New Roman,serif" font-size="14.00">ALN</text>
</g>
<!-- ALN&#45;&gt;RIA -->
<g id="edge53" class="edge">
<title>ALN&#45;&gt;RIA</title>
<path fill="none" stroke="red" stroke-width="0.2" d="M46.45,-1266.14C55.2,-1255.34 65.2,-1243 65.2,-1243 65.2,-1243 113.65,-1149.15 154.15,-1070.71"/>
<polygon fill="red" stroke="red" stroke-width="0.2" points="157.17,-1072.48 158.65,-1061.98 150.95,-1069.26 157.17,-1072.48"/>
</g>
<!-- ASE -->
<g id="node34" class="node">
<title>ASE</title>
<ellipse fill="none" stroke="black" cx="32.6" cy="-1203" rx="28.11" ry="18"/>
<text text-anchor="middle" x="32.6" y="-1197.58" font-family="Times New Roman,serif" font-size="14.00">ASE</text>
</g>
<!-- ASE&#45;&gt;RIA -->
<g id="edge54" class="edge">
<title>ASE&#45;&gt;RIA</title>
<path fill="none" stroke="red" stroke-width="2" d="M46.45,-1187.14C55.2,-1176.34 65.2,-1164 65.2,-1164 65.2,-1164 101.57,-1113.64 137.63,-1063.72"/>
<polygon fill="red" stroke="red" stroke-width="2" points="140.27,-1066.03 143.29,-1055.88 134.6,-1061.93 140.27,-1066.03"/>
</g>
<!-- ASH -->
<g id="node35" class="node">
<title>ASH</title>
<ellipse fill="none" stroke="black" cx="32.6" cy="-1124" rx="29.11" ry="18"/>
<text text-anchor="middle" x="32.6" y="-1118.58" font-family="Times New Roman,serif" font-size="14.00">ASH</text>
</g>
<!-- ASH&#45;&gt;RIA -->
<g id="edge55" class="edge">
<title>ASH&#45;&gt;RIA</title>
<path fill="none" stroke="red" stroke-width="5" d="M50.03,-1109.14C65.85,-1094.81 91.13,-1071.94 116.87,-1048.65"/>
<polygon fill="red" stroke="red" stroke-width="5" points="119.6,-1052.08 124.08,-1042.13 113.73,-1045.59 119.6,-1052.08"/>
</g>
<!-- ASI -->
<g id="node36" class="node">
<title>ASI</title>
<ellipse fill="none" stroke="black" cx="32.6" cy="-1045" rx="27" ry="18"/>
<text text-anchor="middle" x="32.6" y="-1039.58" font-family="Times New Roman,serif" font-size="14.00">ASI</text>
</g>
<!-- ASI&#45;&gt;RIA -->
<g id="edge56" class="edge">
<title>ASI&#45;&gt;RIA</title>
<path fill="none" stroke="gray" stroke-width="0.2" d="M55.71,-1034.99C67.9,-1029.48 84.03,-1022.18 101.24,-1014.4"/>
<polygon fill="gray" stroke="gray" stroke-width="0.2" points="102.37,-1017.72 110.04,-1010.41 99.49,-1011.35 102.37,-1017.72"/>
</g>
<!-- AVK -->
<g id="node37" class="node">
<title>AVK</title>
<ellipse fill="none" stroke="black" cx="32.6" cy="-966" rx="30.11" ry="18"/>
<text text-anchor="middle" x="32.6" y="-960.58" font-family="Times New Roman,serif" font-size="14.00">AVK</text>
</g>
<!-- AVK&#45;&gt;RIA -->
<g id="edge57" class="edge">
<title>AVK&#45;&gt;RIA</title>
<path fill="none" stroke="gray" stroke-width="2" d="M62.83,-966C70.37,-966 78.97,-966 88.13,-966"/>
<polygon fill="gray" stroke="gray" stroke-width="2" points="87.9,-969.5 97.9,-966 87.9,-962.5 87.9,-969.5"/>
</g>
<!-- AWA -->
<g id="node38" class="node">
<title>AWA</title>
<ellipse fill="none" stroke="black" cx="32.6" cy="-887" rx="32.6" ry="18"/>
<text text-anchor="middle" x="32.6" y="-881.58" font-family="Times New Roman,serif" font-size="14.00">AWA</text>
</g>
<!-- AWA&#45;&gt;RIA -->
<g id="edge58" class="edge">
<title>AWA&#45;&gt;RIA</title>
<path fill="none" stroke="gray" stroke-width="0.2" d="M58.62,-898.32C70.47,-903.68 85.52,-910.49 101.49,-917.72"/>
<polygon fill="gray" stroke="gray" stroke-width="0.2" points="99.61,-920.71 110.16,-921.64 102.49,-914.33 99.61,-920.71"/>
</g>
<!-- AWB -->
<g id="node39" class="node">
<title>AWB</title>
<ellipse fill="none" stroke="black" cx="32.6" cy="-808" rx="32.1" ry="18"/>
<text text-anchor="middle" x="32.6" y="-802.58" font-family="Times New Roman,serif" font-size="14.00">AWB</text>
</g>
<!-- AWB&#45;&gt;RIA -->
<g id="edge59" class="edge">
<title>AWB&#45;&gt;RIA</title>
<path fill="none" stroke="black" stroke-width="nan" d="M50.34,-823.15C68.61,-839.68 99.18,-867.35 128.59,-893.95"/>
<polygon fill="black" stroke="black" stroke-width="nan" points="nan,-nan nan,-nan nan,-nan nan,-nan"/>
</g>
<!-- AWC -->
<g id="node40" class="node">
<title>AWC</title>
<ellipse fill="none" stroke="black" cx="32.6" cy="-729" rx="32.6" ry="18"/>
<text text-anchor="middle" x="32.6" y="-723.58" font-family="Times New Roman,serif" font-size="14.00">AWC</text>
</g>
<!-- AWC&#45;&gt;RIA -->
<g id="edge60" class="edge">
<title>AWC&#45;&gt;RIA</title>
<path fill="none" stroke="gray" stroke-width="0.2" d="M46.45,-745.27C55.2,-756.34 65.2,-769 65.2,-769 65.2,-769 102.51,-820.39 139.01,-870.68"/>
<polygon fill="gray" stroke="gray" stroke-width="0.2" points="135.97,-872.45 144.68,-878.49 141.64,-868.34 135.97,-872.45"/>
</g>
<!-- DVA -->
<g id="node41" class="node">
<title>DVA</title>
<ellipse fill="none" stroke="black" cx="32.6" cy="-650" rx="30.11" ry="18"/>
<text text-anchor="middle" x="32.6" y="-644.58" font-family="Times New Roman,serif" font-size="14.00">DVA</text>
</g>
<!-- DVA&#45;&gt;RIA -->
<g id="edge61" class="edge">
<title>DVA&#45;&gt;RIA</title>
<path fill="none" stroke="red" stroke-width="2" d="M46.45,-666.27C55.2,-677.34 65.2,-690 65.2,-690 65.2,-690 112.52,-781.32 152.72,-858.91"/>
<polygon fill="red" stroke="red" stroke-width="2" points="149.49,-860.29 157.2,-867.56 155.7,-857.07 149.49,-860.29"/>
</g>
<!-- IL2 -->
<g id="node42" class="node">
<title>IL2</title>
<ellipse fill="none" stroke="black" cx="32.6" cy="-571" rx="27" ry="18"/>
<text text-anchor="middle" x="32.6" y="-565.58" font-family="Times New Roman,serif" font-size="14.00">IL2</text>
</g>
<!-- IL2&#45;&gt;RIA -->
<g id="edge62" class="edge">
<title>IL2&#45;&gt;RIA</title>
<path fill="none" stroke="red" stroke-width="5" d="M46.09,-586.81C54.92,-597.99 65.2,-611 65.2,-611 65.2,-611 120.15,-747.42 161.93,-851.12"/>
<polygon fill="red" stroke="red" stroke-width="5" points="157.86,-852.74 165.66,-860.38 165.98,-849.47 157.86,-852.74"/>
</g>
<!-- OLQ -->
<g id="node43" class="node">
<title>OLQ</title>
<ellipse fill="none" stroke="black" cx="32.6" cy="-492" rx="30.11" ry="18"/>
<text text-anchor="middle" x="32.6" y="-486.57" font-family="Times New Roman,serif" font-size="14.00">OLQ</text>
</g>
<!-- OLQ&#45;&gt;RIA -->
<g id="edge63" class="edge">
<title>OLQ&#45;&gt;RIA</title>
<path fill="none" stroke="gray" stroke-width="2" d="M46.45,-508.27C55.2,-519.34 65.2,-532 65.2,-532 65.2,-532 128,-722.6 170.37,-851.18"/>
<polygon fill="gray" stroke="gray" stroke-width="2" points="167,-852.15 173.46,-860.55 173.65,-849.95 167,-852.15"/>
</g>
<!-- PVP -->
<g id="node44" class="node">
<title>PVP</title>
<ellipse fill="none" stroke="black" cx="32.6" cy="-413" rx="28.11" ry="18"/>
<text text-anchor="middle" x="32.6" y="-407.57" font-family="Times New Roman,serif" font-size="14.00">PVP</text>
</g>
<!-- PVP&#45;&gt;RIA -->
<g id="edge64" class="edge">
<title>PVP&#45;&gt;RIA</title>
<path fill="none" stroke="gray" stroke-width="2" d="M46.09,-428.81C54.92,-439.99 65.2,-453 65.2,-453 65.2,-453 133.49,-697.96 175.68,-849.34"/>
<polygon fill="gray" stroke="gray" stroke-width="2" points="172.31,-850.27 178.36,-858.96 179.05,-848.39 172.31,-850.27"/>
</g>
<!-- RIF -->
<g id="node45" class="node">
<title>RIF</title>
<ellipse fill="none" stroke="black" cx="32.6" cy="-334" rx="27" ry="18"/>
<text text-anchor="middle" x="32.6" y="-328.57" font-family="Times New Roman,serif" font-size="14.00">RIF</text>
</g>
<!-- RIF&#45;&gt;RIA -->
<g id="edge65" class="edge">
<title>RIF&#45;&gt;RIA</title>
<path fill="none" stroke="gray" stroke-width="0.2" d="M46.09,-349.81C54.92,-360.99 65.2,-374 65.2,-374 65.2,-374 138.82,-678.78 180.42,-850.97"/>
<polygon fill="gray" stroke="gray" stroke-width="0.2" points="176.98,-851.65 182.73,-860.55 183.78,-850.01 176.98,-851.65"/>
</g>
<!-- RIG -->
<g id="node46" class="node">
<title>RIG</title>
<ellipse fill="none" stroke="black" cx="32.6" cy="-255" rx="27.11" ry="18"/>
<text text-anchor="middle" x="32.6" y="-249.57" font-family="Times New Roman,serif" font-size="14.00">RIG</text>
</g>
<!-- RIG&#45;&gt;RIA -->
<g id="edge66" class="edge">
<title>RIG&#45;&gt;RIA</title>
<path fill="none" stroke="gray" stroke-width="2" d="M46.09,-270.81C54.92,-281.99 65.2,-295 65.2,-295 65.2,-295 141.94,-655.09 182.99,-847.7"/>
<polygon fill="gray" stroke="gray" stroke-width="2" points="179.56,-848.41 185.07,-857.46 186.41,-846.95 179.56,-848.41"/>
</g>
<!-- RIP -->
<g id="node47" class="node">
<title>RIP</title>
<ellipse fill="none" stroke="black" cx="32.6" cy="-176" rx="27" ry="18"/>
<text text-anchor="middle" x="32.6" y="-170.57" font-family="Times New Roman,serif" font-size="14.00">RIP</text>
</g>
<!-- RIP&#45;&gt;RIA -->
<g id="edge67" class="edge">
<title>RIP&#45;&gt;RIA</title>
<path fill="none" stroke="blue" stroke-width="5" d="M46.09,-191.81C54.92,-202.99 65.2,-216 65.2,-216 65.2,-216 144.4,-631.35 184.91,-843.86"/>
<polygon fill="blue" stroke="blue" stroke-width="5" points="180.6,-844.61 186.77,-853.61 189.2,-842.97 180.6,-844.61"/>
</g>
<!-- URY -->
<g id="node48" class="node">
<title>URY</title>
<ellipse fill="none" stroke="black" cx="32.6" cy="-97" rx="30.11" ry="18"/>
<text text-anchor="middle" x="32.6" y="-91.58" font-family="Times New Roman,serif" font-size="14.00">URY</text>
</g>
<!-- URY&#45;&gt;RIA -->
<g id="edge68" class="edge">
<title>URY&#45;&gt;RIA</title>
<path fill="none" stroke="gray" stroke-width="2" d="M46.45,-113.27C55.2,-124.34 65.2,-137 65.2,-137 65.2,-137 148.02,-617.1 187.6,-846.58"/>
<polygon fill="gray" stroke="gray" stroke-width="2" points="184.14,-847.08 189.29,-856.34 191.03,-845.89 184.14,-847.08"/>
</g>
</g>
</svg>
