<?xml version="1.0" encoding="UTF-8" standalone="no"?>
<!DOCTYPE svg PUBLIC "-//W3C//DTD SVG 1.1//EN"
 "http://www.w3.org/Graphics/SVG/1.1/DTD/svg11.dtd">
<!-- Generated by graphviz version 11.0.0 (20240428.1522)
 -->
<!-- Pages: 1 -->
<svg width="423pt" height="1782pt"
 viewBox="0.00 0.00 423.41 1782.00" xmlns="http://www.w3.org/2000/svg" xmlns:xlink="http://www.w3.org/1999/xlink">
<g id="graph0" class="graph" transform="scale(1 1) rotate(0) translate(4 1778)">
<polygon fill="white" stroke="none" points="-4,4 -4,-1778 419.41,-1778 419.41,4 -4,4"/>
<!-- RIB -->
<g id="node1" class="node">
<title>RIB</title>
<ellipse fill="none" stroke="black" cx="208.2" cy="-808" rx="108" ry="108"/>
<text text-anchor="middle" x="208.2" y="-789" font-family="Times New Roman,serif" font-size="50.00">RIB</text>
</g>
<!-- AIB -->
<g id="node2" class="node">
<title>AIB</title>
<ellipse fill="none" stroke="black" cx="383.81" cy="-1756" rx="27" ry="18"/>
<text text-anchor="middle" x="383.81" y="-1750.58" font-family="Times New Roman,serif" font-size="14.00">AIB</text>
</g>
<!-- RIB&#45;&gt;AIB -->
<g id="edge1" class="edge">
<title>RIB&#45;&gt;AIB</title>
<path fill="none" stroke="red" stroke-width="5" d="M227.75,-914.39C266.44,-1150.36 352.2,-1695.5 352.2,-1695.5 352.2,-1695.5 362.51,-1708.63 371.16,-1723.85"/>
<polygon fill="red" stroke="red" stroke-width="5" points="367.11,-1725.54 375.5,-1732.53 374.93,-1721.62 367.11,-1725.54"/>
</g>
<!-- AIN -->
<g id="node3" class="node">
<title>AIN</title>
<ellipse fill="none" stroke="black" cx="383.81" cy="-1677" rx="27" ry="18"/>
<text text-anchor="middle" x="383.81" y="-1671.58" font-family="Times New Roman,serif" font-size="14.00">AIN</text>
</g>
<!-- RIB&#45;&gt;AIN -->
<g id="edge2" class="edge">
<title>RIB&#45;&gt;AIN</title>
<path fill="none" stroke="gray" stroke-width="0.2" d="M229.54,-914.08C269.02,-1133.69 352.2,-1616.5 352.2,-1616.5 352.2,-1616.5 364.95,-1632.74 373.99,-1650.04"/>
<polygon fill="gray" stroke="gray" stroke-width="0.2" points="370.71,-1651.3 378.16,-1658.83 377.03,-1648.29 370.71,-1651.3"/>
</g>
<!-- AIZ -->
<g id="node4" class="node">
<title>AIZ</title>
<ellipse fill="none" stroke="black" cx="383.81" cy="-1598" rx="27" ry="18"/>
<text text-anchor="middle" x="383.81" y="-1592.58" font-family="Times New Roman,serif" font-size="14.00">AIZ</text>
</g>
<!-- RIB&#45;&gt;AIZ -->
<g id="edge3" class="edge">
<title>RIB&#45;&gt;AIZ</title>
<path fill="none" stroke="gray" stroke-width="0.2" d="M231.71,-913.7C271.98,-1116.16 352.2,-1537.5 352.2,-1537.5 352.2,-1537.5 364.95,-1553.74 373.99,-1571.04"/>
<polygon fill="gray" stroke="gray" stroke-width="0.2" points="370.71,-1572.3 378.16,-1579.83 377.03,-1569.29 370.71,-1572.3"/>
</g>
<!-- AUA -->
<g id="node5" class="node">
<title>AUA</title>
<ellipse fill="none" stroke="black" cx="383.81" cy="-1519" rx="30.11" ry="18"/>
<text text-anchor="middle" x="383.81" y="-1513.58" font-family="Times New Roman,serif" font-size="14.00">AUA</text>
</g>
<!-- RIB&#45;&gt;AUA -->
<g id="edge4" class="edge">
<title>RIB&#45;&gt;AUA</title>
<path fill="none" stroke="red" stroke-width="2" d="M234.36,-913.17C275.39,-1097.53 352.2,-1458.5 352.2,-1458.5 352.2,-1458.5 363.81,-1473.29 372.72,-1489.67"/>
<polygon fill="red" stroke="red" stroke-width="2" points="369.44,-1490.92 376.97,-1498.38 375.73,-1487.86 369.44,-1490.92"/>
</g>
<!-- AVA -->
<g id="node6" class="node">
<title>AVA</title>
<ellipse fill="none" stroke="black" cx="383.81" cy="-1440" rx="30.11" ry="18"/>
<text text-anchor="middle" x="383.81" y="-1434.58" font-family="Times New Roman,serif" font-size="14.00">AVA</text>
</g>
<!-- RIB&#45;&gt;AVA -->
<g id="edge5" class="edge">
<title>RIB&#45;&gt;AVA</title>
<path fill="none" stroke="red" stroke-width="5" d="M234.52,-912.99C275.6,-1083.31 352.2,-1401 352.2,-1401 352.2,-1401 355.7,-1405.46 360.33,-1411.36"/>
<polygon fill="red" stroke="red" stroke-width="5" points="356.54,-1413.61 366.16,-1418.78 363.42,-1408.21 356.54,-1413.61"/>
</g>
<!-- AVB -->
<g id="node7" class="node">
<title>AVB</title>
<ellipse fill="none" stroke="black" cx="383.81" cy="-1361" rx="29.61" ry="18"/>
<text text-anchor="middle" x="383.81" y="-1355.58" font-family="Times New Roman,serif" font-size="14.00">AVB</text>
</g>
<!-- RIB&#45;&gt;AVB -->
<g id="edge6" class="edge">
<title>RIB&#45;&gt;AVB</title>
<path fill="none" stroke="gray" stroke-width="0.2" d="M238.14,-912.02C279.93,-1062.21 352.2,-1322 352.2,-1322 352.2,-1322 357.5,-1328.75 363.69,-1336.63"/>
<polygon fill="gray" stroke="gray" stroke-width="0.2" points="360.89,-1338.74 369.82,-1344.45 366.4,-1334.42 360.89,-1338.74"/>
</g>
<!-- AVD -->
<g id="node8" class="node">
<title>AVD</title>
<ellipse fill="none" stroke="black" cx="383.81" cy="-1282" rx="30.11" ry="18"/>
<text text-anchor="middle" x="383.81" y="-1276.58" font-family="Times New Roman,serif" font-size="14.00">AVD</text>
</g>
<!-- RIB&#45;&gt;AVD -->
<g id="edge7" class="edge">
<title>RIB&#45;&gt;AVD</title>
<path fill="none" stroke="gray" stroke-width="2" d="M242.91,-910.54C285.19,-1039.14 352.2,-1243 352.2,-1243 352.2,-1243 356.65,-1248.67 362.16,-1255.69"/>
<polygon fill="gray" stroke="gray" stroke-width="2" points="359.21,-1257.6 368.14,-1263.31 364.72,-1253.28 359.21,-1257.6"/>
</g>
<!-- AVE -->
<g id="node9" class="node">
<title>AVE</title>
<ellipse fill="none" stroke="black" cx="383.81" cy="-1203" rx="29.11" ry="18"/>
<text text-anchor="middle" x="383.81" y="-1197.58" font-family="Times New Roman,serif" font-size="14.00">AVE</text>
</g>
<!-- RIB&#45;&gt;AVE -->
<g id="edge8" class="edge">
<title>RIB&#45;&gt;AVE</title>
<path fill="none" stroke="black" stroke-width="5" d="M249.42,-908.11C291.71,-1013.41 352.2,-1164 352.2,-1164 352.2,-1164 355.7,-1168.46 360.33,-1174.36"/>
<polygon fill="black" stroke="black" stroke-width="5" points="356.54,-1176.61 366.16,-1181.78 363.42,-1171.21 356.54,-1176.61"/>
</g>
<!-- BAG -->
<g id="node10" class="node">
<title>BAG</title>
<ellipse fill="none" stroke="black" cx="383.81" cy="-1124" rx="30.11" ry="18"/>
<text text-anchor="middle" x="383.81" y="-1118.58" font-family="Times New Roman,serif" font-size="14.00">BAG</text>
</g>
<!-- RIB&#45;&gt;BAG -->
<g id="edge9" class="edge">
<title>RIB&#45;&gt;BAG</title>
<path fill="none" stroke="black" stroke-width="5" d="M265.72,-899.97C305.69,-973.4 352.2,-1063.5 352.2,-1063.5 352.2,-1063.5 362.51,-1076.63 371.16,-1091.85"/>
<polygon fill="black" stroke="black" stroke-width="5" points="367.11,-1093.54 375.5,-1100.53 374.93,-1089.62 367.11,-1093.54"/>
</g>
<!-- CEP -->
<g id="node11" class="node">
<title>CEP</title>
<ellipse fill="none" stroke="black" cx="383.81" cy="-1045" rx="28.11" ry="18"/>
<text text-anchor="middle" x="383.81" y="-1039.58" font-family="Times New Roman,serif" font-size="14.00">CEP</text>
</g>
<!-- RIB&#45;&gt;CEP -->
<g id="edge10" class="edge">
<title>RIB&#45;&gt;CEP</title>
<path fill="none" stroke="gray" stroke-width="2" d="M280.91,-888.46C316.59,-935.19 352.2,-984.5 352.2,-984.5 352.2,-984.5 363.81,-999.29 372.72,-1015.67"/>
<polygon fill="gray" stroke="gray" stroke-width="2" points="369.44,-1016.92 376.97,-1024.38 375.73,-1013.86 369.44,-1016.92"/>
</g>
<!-- DVA -->
<g id="node12" class="node">
<title>DVA</title>
<ellipse fill="none" stroke="black" cx="383.81" cy="-966" rx="30.11" ry="18"/>
<text text-anchor="middle" x="383.81" y="-960.58" font-family="Times New Roman,serif" font-size="14.00">DVA</text>
</g>
<!-- RIB&#45;&gt;DVA -->
<g id="edge11" class="edge">
<title>RIB&#45;&gt;DVA</title>
<path fill="none" stroke="gray" stroke-width="0.2" d="M296.26,-871.11C323.06,-895.51 349.82,-921.93 366.34,-941.07"/>
<polygon fill="gray" stroke="gray" stroke-width="0.2" points="363.49,-943.12 372.57,-948.57 368.87,-938.64 363.49,-943.12"/>
</g>
<!-- DVC -->
<g id="node13" class="node">
<title>DVC</title>
<ellipse fill="none" stroke="black" cx="383.81" cy="-887" rx="30.11" ry="18"/>
<text text-anchor="middle" x="383.81" y="-881.58" font-family="Times New Roman,serif" font-size="14.00">DVC</text>
</g>
<!-- RIB&#45;&gt;DVC -->
<g id="edge12" class="edge">
<title>RIB&#45;&gt;DVC</title>
<path fill="none" stroke="gray" stroke-width="0.2" d="M311.95,-838.87C330.15,-847.72 347.38,-857.1 360.3,-865.49"/>
<polygon fill="gray" stroke="gray" stroke-width="0.2" points="358.03,-868.18 368.25,-870.95 361.99,-862.41 358.03,-868.18"/>
</g>
<!-- OLL -->
<g id="node14" class="node">
<title>OLL</title>
<ellipse fill="none" stroke="black" cx="383.81" cy="-808" rx="28.61" ry="18"/>
<text text-anchor="middle" x="383.81" y="-802.58" font-family="Times New Roman,serif" font-size="14.00">OLL</text>
</g>
<!-- RIB&#45;&gt;OLL -->
<g id="edge13" class="edge">
<title>RIB&#45;&gt;OLL</title>
<path fill="none" stroke="red" stroke-width="2" d="M315.19,-792.23C326.9,-792.67 338.12,-793.52 347.93,-794.78"/>
<polygon fill="red" stroke="red" stroke-width="2" points="347.37,-798.23 357.79,-796.35 348.47,-791.32 347.37,-798.23"/>
</g>
<!-- RIA -->
<g id="node15" class="node">
<title>RIA</title>
<ellipse fill="none" stroke="black" cx="383.81" cy="-729" rx="27" ry="18"/>
<text text-anchor="middle" x="383.81" y="-723.58" font-family="Times New Roman,serif" font-size="14.00">RIA</text>
</g>
<!-- RIB&#45;&gt;RIA -->
<g id="edge14" class="edge">
<title>RIB&#45;&gt;RIA</title>
<path fill="none" stroke="black" stroke-width="5" d="M300.07,-750.54C314.45,-744.11 328.67,-738.34 341.17,-733.95"/>
<polygon fill="black" stroke="black" stroke-width="5" points="342.35,-738.16 350.53,-730.93 339.67,-729.83 342.35,-738.16"/>
</g>
<!-- RIG -->
<g id="node16" class="node">
<title>RIG</title>
<ellipse fill="none" stroke="black" cx="383.81" cy="-650" rx="27.11" ry="18"/>
<text text-anchor="middle" x="383.81" y="-644.58" font-family="Times New Roman,serif" font-size="14.00">RIG</text>
</g>
<!-- RIB&#45;&gt;RIG -->
<g id="edge15" class="edge">
<title>RIB&#45;&gt;RIG</title>
<path fill="none" stroke="red" stroke-width="2" d="M280.57,-727.16C304.71,-704.46 330.5,-681.97 350.14,-666.8"/>
<polygon fill="red" stroke="red" stroke-width="2" points="352.02,-669.76 357.94,-660.98 347.84,-664.15 352.02,-669.76"/>
</g>
<!-- RIH -->
<g id="node17" class="node">
<title>RIH</title>
<ellipse fill="none" stroke="black" cx="383.81" cy="-571" rx="27" ry="18"/>
<text text-anchor="middle" x="383.81" y="-565.58" font-family="Times New Roman,serif" font-size="14.00">RIH</text>
</g>
<!-- RIB&#45;&gt;RIH -->
<g id="edge16" class="edge">
<title>RIB&#45;&gt;RIH</title>
<path fill="none" stroke="red" stroke-width="0.2" d="M264.08,-715.05C304.41,-655.34 352.2,-589.5 352.2,-589.5 352.2,-589.5 352.67,-588.89 353.48,-587.87"/>
<polygon fill="red" stroke="red" stroke-width="0.2" points="356,-590.31 359.73,-580.4 350.63,-585.82 356,-590.31"/>
</g>
<!-- RIM -->
<g id="node18" class="node">
<title>RIM</title>
<ellipse fill="none" stroke="black" cx="383.81" cy="-492" rx="28.11" ry="18"/>
<text text-anchor="middle" x="383.81" y="-486.57" font-family="Times New Roman,serif" font-size="14.00">RIM</text>
</g>
<!-- RIB&#45;&gt;RIM -->
<g id="edge17" class="edge">
<title>RIB&#45;&gt;RIM</title>
<path fill="none" stroke="gray" stroke-width="nan" d="M252.11,-709.24C294.23,-622.39 352.2,-510.5 352.2,-510.5 352.2,-510.5 355.34,-506.4 359.61,-501.52"/>
<polygon fill="gray" stroke="gray" stroke-width="nan" points="nan,-nan nan,-nan nan,-nan nan,-nan"/>
</g>
<!-- RIS -->
<g id="node19" class="node">
<title>RIS</title>
<ellipse fill="none" stroke="black" cx="383.81" cy="-413" rx="27" ry="18"/>
<text text-anchor="middle" x="383.81" y="-407.57" font-family="Times New Roman,serif" font-size="14.00">RIS</text>
</g>
<!-- RIB&#45;&gt;RIS -->
<g id="edge18" class="edge">
<title>RIB&#45;&gt;RIS</title>
<path fill="none" stroke="red" stroke-width="5" d="M244.37,-705.87C280.26,-611.12 332.79,-479.86 352.66,-436.38"/>
<polygon fill="red" stroke="red" stroke-width="5" points="356.43,-438.62 357.09,-427.72 348.64,-434.63 356.43,-438.62"/>
</g>
<!-- RMD -->
<g id="node20" class="node">
<title>RMD</title>
<ellipse fill="none" stroke="black" cx="383.81" cy="-334" rx="31.6" ry="18"/>
<text text-anchor="middle" x="383.81" y="-328.57" font-family="Times New Roman,serif" font-size="14.00">RMD</text>
</g>
<!-- RIB&#45;&gt;RMD -->
<g id="edge19" class="edge">
<title>RIB&#45;&gt;RMD</title>
<path fill="none" stroke="gray" stroke-width="2" d="M238.83,-703.97C275.48,-585.83 334.8,-404.58 352.81,-356.61"/>
<polygon fill="gray" stroke="gray" stroke-width="2" points="355.96,-358.15 356.64,-347.57 349.51,-355.42 355.96,-358.15"/>
</g>
<!-- RME -->
<g id="node21" class="node">
<title>RME</title>
<ellipse fill="none" stroke="black" cx="383.81" cy="-255" rx="30.61" ry="18"/>
<text text-anchor="middle" x="383.81" y="-249.57" font-family="Times New Roman,serif" font-size="14.00">RME</text>
</g>
<!-- RIB&#45;&gt;RME -->
<g id="edge20" class="edge">
<title>RIB&#45;&gt;RME</title>
<path fill="none" stroke="gray" stroke-width="0.2" d="M234.77,-702.99C271.88,-562.02 337.64,-324.94 354.67,-274.56"/>
<polygon fill="gray" stroke="gray" stroke-width="0.2" points="357.87,-276 358.29,-265.41 351.36,-273.43 357.87,-276"/>
</g>
<!-- RMF -->
<g id="node22" class="node">
<title>RMF</title>
<ellipse fill="none" stroke="black" cx="383.81" cy="-176" rx="30.61" ry="18"/>
<text text-anchor="middle" x="383.81" y="-170.57" font-family="Times New Roman,serif" font-size="14.00">RMF</text>
</g>
<!-- RIB&#45;&gt;RMF -->
<g id="edge21" class="edge">
<title>RIB&#45;&gt;RMF</title>
<path fill="none" stroke="gray" stroke-width="0.2" d="M231.71,-702.23C268.36,-542.01 338.11,-252.02 355.02,-195.64"/>
<polygon fill="gray" stroke="gray" stroke-width="0.2" points="358.25,-197.01 358.3,-186.41 351.65,-194.66 358.25,-197.01"/>
</g>
<!-- SMD -->
<g id="node23" class="node">
<title>SMD</title>
<ellipse fill="none" stroke="black" cx="383.81" cy="-97" rx="30.61" ry="18"/>
<text text-anchor="middle" x="383.81" y="-91.58" font-family="Times New Roman,serif" font-size="14.00">SMD</text>
</g>
<!-- RIB&#45;&gt;SMD -->
<g id="edge22" class="edge">
<title>RIB&#45;&gt;SMD</title>
<path fill="none" stroke="red" stroke-width="2" d="M229.31,-701.59C264.93,-525.54 336.63,-187.8 354.6,-119.31"/>
<polygon fill="red" stroke="red" stroke-width="2" points="357.86,-120.61 357.5,-110.02 351.18,-118.52 357.86,-120.61"/>
</g>
<!-- URY -->
<g id="node24" class="node">
<title>URY</title>
<ellipse fill="none" stroke="black" cx="383.81" cy="-18" rx="30.11" ry="18"/>
<text text-anchor="middle" x="383.81" y="-12.57" font-family="Times New Roman,serif" font-size="14.00">URY</text>
</g>
<!-- RIB&#45;&gt;URY -->
<g id="edge23" class="edge">
<title>RIB&#45;&gt;URY</title>
<path fill="none" stroke="gray" stroke-width="2" d="M227.32,-701.48C262.34,-508.37 337.06,-115.09 354.88,-40.43"/>
<polygon fill="gray" stroke="gray" stroke-width="2" points="358.18,-41.61 357.56,-31.04 351.45,-39.69 358.18,-41.61"/>
</g>
<!-- AIB&#45;&gt;RIB -->
<g id="edge24" class="edge">
<title>AIB&#45;&gt;RIB</title>
<path fill="none" stroke="black" stroke-width="5" d="M359.61,-1747.23C355.34,-1742.5 352.2,-1738.5 352.2,-1738.5 352.2,-1738.5 264.96,-1183.9 226.76,-930.86"/>
<polygon fill="black" stroke="black" stroke-width="5" points="231.12,-930.4 225.3,-921.17 222.46,-931.71 231.12,-930.4"/>
</g>
<!-- AIN&#45;&gt;RIB -->
<g id="edge25" class="edge">
<title>AIN&#45;&gt;RIB</title>
<path fill="none" stroke="black" stroke-width="5" d="M359.61,-1668.23C355.34,-1663.5 352.2,-1659.5 352.2,-1659.5 352.2,-1659.5 267.33,-1166.9 228.36,-930.85"/>
<polygon fill="black" stroke="black" stroke-width="5" points="232.7,-930.31 226.76,-921.15 224.07,-931.73 232.7,-930.31"/>
</g>
<!-- AIZ&#45;&gt;RIB -->
<g id="edge26" class="edge">
<title>AIZ&#45;&gt;RIB</title>
<path fill="none" stroke="gray" stroke-width="0.2" d="M359.61,-1589.23C355.34,-1584.5 352.2,-1580.5 352.2,-1580.5 352.2,-1580.5 268.47,-1140.77 229.15,-924.64"/>
<polygon fill="gray" stroke="gray" stroke-width="0.2" points="232.6,-924.03 227.37,-914.81 225.71,-925.28 232.6,-924.03"/>
</g>
<!-- AUA&#45;&gt;RIB -->
<g id="edge27" class="edge">
<title>AUA&#45;&gt;RIB</title>
<path fill="none" stroke="black" stroke-width="5" d="M358.4,-1508.87C354.76,-1504.76 352.2,-1501.5 352.2,-1501.5 352.2,-1501.5 273.05,-1129.51 232.52,-930.21"/>
<polygon fill="black" stroke="black" stroke-width="5" points="236.83,-929.45 230.55,-920.52 228.25,-931.19 236.83,-929.45"/>
</g>
<!-- BAG&#45;&gt;RIB -->
<g id="edge28" class="edge">
<title>BAG&#45;&gt;RIB</title>
<path fill="none" stroke="black" stroke-width="5" d="M358.4,-1113.87C354.76,-1109.76 352.2,-1106.5 352.2,-1106.5 352.2,-1106.5 300.4,-1006.15 259.15,-921.56"/>
<polygon fill="black" stroke="black" stroke-width="5" points="263.14,-919.75 254.83,-912.67 255.27,-923.58 263.14,-919.75"/>
</g>
<!-- CEP&#45;&gt;RIB -->
<g id="edge29" class="edge">
<title>CEP&#45;&gt;RIB</title>
<path fill="none" stroke="red" stroke-width="2" d="M359.3,-1035.89C355.19,-1031.31 352.2,-1027.5 352.2,-1027.5 352.2,-1027.5 309.7,-968.65 271.04,-911.64"/>
<polygon fill="red" stroke="red" stroke-width="2" points="274.07,-909.87 265.57,-903.54 268.27,-913.78 274.07,-909.87"/>
</g>
<!-- DVA&#45;&gt;RIB -->
<g id="edge30" class="edge">
<title>DVA&#45;&gt;RIB</title>
<path fill="none" stroke="gray" stroke-width="0.2" d="M358.76,-955.67C340.24,-942.22 313.53,-919.41 287.79,-895.59"/>
<polygon fill="gray" stroke="gray" stroke-width="0.2" points="290.49,-893.31 280.79,-889.05 285.71,-898.43 290.49,-893.31"/>
</g>
<!-- DVC&#45;&gt;RIB -->
<g id="edge31" class="edge">
<title>DVC&#45;&gt;RIB</title>
<path fill="none" stroke="black" stroke-width="5" d="M353.48,-886.1C342.38,-882.75 329,-877.77 314.93,-871.89"/>
<polygon fill="black" stroke="black" stroke-width="5" points="316.71,-867.9 305.8,-867.94 313.24,-875.93 316.71,-867.9"/>
</g>
<!-- OLL&#45;&gt;RIB -->
<g id="edge32" class="edge">
<title>OLL&#45;&gt;RIB</title>
<path fill="none" stroke="black" stroke-width="5" d="M360.78,-819.17C352.49,-820.81 342.36,-822.05 331.32,-822.87"/>
<polygon fill="black" stroke="black" stroke-width="5" points="331.16,-818.5 321.42,-823.42 331.65,-827.24 331.16,-818.5"/>
</g>
<!-- RIA&#45;&gt;RIB -->
<g id="edge33" class="edge">
<title>RIA&#45;&gt;RIB</title>
<path fill="none" stroke="gray" stroke-width="0.2" d="M369.02,-744.5C357.63,-752.91 340.29,-762.89 321.15,-772.56"/>
<polygon fill="gray" stroke="gray" stroke-width="0.2" points="319.62,-769.42 312.22,-776.99 322.73,-775.69 319.62,-769.42"/>
</g>
<!-- RIG&#45;&gt;RIB -->
<g id="edge34" class="edge">
<title>RIG&#45;&gt;RIB</title>
<path fill="none" stroke="red" stroke-width="2" d="M373.01,-666.88C359.35,-684.19 333.14,-710.73 305.63,-736.28"/>
<polygon fill="red" stroke="red" stroke-width="2" points="303.48,-733.5 298.49,-742.84 308.22,-738.65 303.48,-733.5"/>
</g>
<!-- RIH&#45;&gt;RIB -->
<g id="edge35" class="edge">
<title>RIH&#45;&gt;RIB</title>
<path fill="none" stroke="black" stroke-width="5" d="M378.29,-589.05C369.78,-609.53 352.2,-632.5 352.2,-632.5 352.2,-632.5 322.95,-672.81 290.9,-714.97"/>
<polygon fill="black" stroke="black" stroke-width="5" points="287.5,-712.21 284.91,-722.81 294.46,-717.52 287.5,-712.21"/>
</g>
<!-- RIM&#45;&gt;RIB -->
<g id="edge36" class="edge">
<title>RIM&#45;&gt;RIB</title>
<path fill="none" stroke="gray" stroke-width="5" d="M378.29,-510.05C369.78,-530.53 352.2,-553.5 352.2,-553.5 352.2,-553.5 311.32,-632.4 273.28,-702.54"/>
<polygon fill="gray" stroke="gray" stroke-width="5" points="269.64,-700.08 268.7,-710.95 277.33,-704.26 269.64,-700.08"/>
</g>
<!-- RIS&#45;&gt;RIB -->
<g id="edge37" class="edge">
<title>RIS&#45;&gt;RIB</title>
<path fill="none" stroke="black" stroke-width="5" d="M378.29,-431.05C369.78,-451.53 352.2,-474.5 352.2,-474.5 352.2,-474.5 302.14,-598.79 261.26,-695.83"/>
<polygon fill="black" stroke="black" stroke-width="5" points="257.33,-693.88 257.47,-704.79 265.39,-697.28 257.33,-693.88"/>
</g>
<!-- RMD&#45;&gt;RIB -->
<g id="edge38" class="edge">
<title>RMD&#45;&gt;RIB</title>
<path fill="none" stroke="gray" stroke-width="0.2" d="M378.16,-352.21C369.6,-372.33 352.2,-394.5 352.2,-394.5 352.2,-394.5 292.92,-574.84 250.7,-697.55"/>
<polygon fill="gray" stroke="gray" stroke-width="0.2" points="247.48,-696.13 247.53,-706.73 254.1,-698.41 247.48,-696.13"/>
</g>
<!-- RME&#45;&gt;RIB -->
<g id="edge39" class="edge">
<title>RME&#45;&gt;RIB</title>
<path fill="none" stroke="gray" stroke-width="0.2" d="M378.29,-272.9C369.78,-293.1 352.2,-315.5 352.2,-315.5 352.2,-315.5 286.93,-550.11 244.59,-695.69"/>
<polygon fill="gray" stroke="gray" stroke-width="0.2" points="241.35,-694.28 241.92,-704.86 248.07,-696.23 241.35,-694.28"/>
</g>
<!-- RMF&#45;&gt;RIB -->
<g id="edge40" class="edge">
<title>RMF&#45;&gt;RIB</title>
<path fill="none" stroke="gray" stroke-width="0.2" d="M378.29,-193.9C369.78,-214.1 352.2,-236.5 352.2,-236.5 352.2,-236.5 282.15,-527.01 240.11,-693.98"/>
<polygon fill="gray" stroke="gray" stroke-width="0.2" points="236.75,-692.97 237.7,-703.52 243.54,-694.68 236.75,-692.97"/>
</g>
<!-- SMD&#45;&gt;RIB -->
<g id="edge41" class="edge">
<title>SMD&#45;&gt;RIB</title>
<path fill="none" stroke="gray" stroke-width="0.2" d="M378.29,-114.9C369.78,-135.1 352.2,-157.5 352.2,-157.5 352.2,-157.5 278.07,-505.89 236.55,-692.95"/>
<polygon fill="gray" stroke="gray" stroke-width="0.2" points="233.18,-692.01 234.42,-702.53 240.01,-693.53 233.18,-692.01"/>
</g>
<!-- URY&#45;&gt;RIB -->
<g id="edge42" class="edge">
<title>URY&#45;&gt;RIB</title>
<path fill="none" stroke="black" stroke-width="5" d="M378.29,-35.9C369.78,-56.1 352.2,-78.5 352.2,-78.5 352.2,-78.5 276,-478.71 234.85,-686.46"/>
<polygon fill="black" stroke="black" stroke-width="5" points="230.58,-685.52 232.92,-696.18 239.16,-687.22 230.58,-685.52"/>
</g>
<!-- ADA -->
<g id="node25" class="node">
<title>ADA</title>
<ellipse fill="none" stroke="black" cx="32.1" cy="-1243" rx="30.11" ry="18"/>
<text text-anchor="middle" x="32.1" y="-1237.58" font-family="Times New Roman,serif" font-size="14.00">ADA</text>
</g>
<!-- ADA&#45;&gt;RIB -->
<g id="edge43" class="edge">
<title>ADA&#45;&gt;RIB</title>
<path fill="none" stroke="gray" stroke-width="0.2" d="M46.11,-1226.69C54.63,-1216 64.2,-1204 64.2,-1204 64.2,-1204 124.78,-1036.26 167.08,-919.12"/>
<polygon fill="gray" stroke="gray" stroke-width="0.2" points="170.26,-920.6 170.37,-910.01 163.68,-918.22 170.26,-920.6"/>
</g>
<!-- ADF -->
<g id="node26" class="node">
<title>ADF</title>
<ellipse fill="none" stroke="black" cx="32.1" cy="-1164" rx="29.11" ry="18"/>
<text text-anchor="middle" x="32.1" y="-1158.58" font-family="Times New Roman,serif" font-size="14.00">ADF</text>
</g>
<!-- ADF&#45;&gt;RIB -->
<g id="edge44" class="edge">
<title>ADF&#45;&gt;RIB</title>
<path fill="none" stroke="gray" stroke-width="2" d="M45.75,-1148.14C54.36,-1137.34 64.2,-1125 64.2,-1125 64.2,-1125 116.38,-1009.34 157.7,-917.74"/>
<polygon fill="gray" stroke="gray" stroke-width="2" points="160.77,-919.44 161.69,-908.89 154.39,-916.57 160.77,-919.44"/>
</g>
<!-- AIY -->
<g id="node27" class="node">
<title>AIY</title>
<ellipse fill="none" stroke="black" cx="32.1" cy="-1085" rx="27" ry="18"/>
<text text-anchor="middle" x="32.1" y="-1079.58" font-family="Times New Roman,serif" font-size="14.00">AIY</text>
</g>
<!-- AIY&#45;&gt;RIB -->
<g id="edge45" class="edge">
<title>AIY&#45;&gt;RIB</title>
<path fill="none" stroke="black" stroke-width="5" d="M45.75,-1069.14C54.36,-1058.34 64.2,-1046 64.2,-1046 64.2,-1046 105.27,-977.66 143.39,-914.21"/>
<polygon fill="black" stroke="black" stroke-width="5" points="147.1,-916.53 148.5,-905.7 139.6,-912.02 147.1,-916.53"/>
</g>
<!-- ASE -->
<g id="node28" class="node">
<title>ASE</title>
<ellipse fill="none" stroke="black" cx="32.1" cy="-1006" rx="28.11" ry="18"/>
<text text-anchor="middle" x="32.1" y="-1000.58" font-family="Times New Roman,serif" font-size="14.00">ASE</text>
</g>
<!-- ASE&#45;&gt;RIB -->
<g id="edge46" class="edge">
<title>ASE&#45;&gt;RIB</title>
<path fill="none" stroke="gray" stroke-width="2" d="M46.76,-990.46C64.5,-970.29 96.86,-933.49 127.9,-898.19"/>
<polygon fill="gray" stroke="gray" stroke-width="2" points="130.2,-900.87 134.18,-891.05 124.95,-896.25 130.2,-900.87"/>
</g>
<!-- ASI -->
<g id="node29" class="node">
<title>ASI</title>
<ellipse fill="none" stroke="black" cx="32.1" cy="-927" rx="27" ry="18"/>
<text text-anchor="middle" x="32.1" y="-921.58" font-family="Times New Roman,serif" font-size="14.00">ASI</text>
</g>
<!-- ASI&#45;&gt;RIB -->
<g id="edge47" class="edge">
<title>ASI&#45;&gt;RIB</title>
<path fill="none" stroke="gray" stroke-width="0.2" d="M51.73,-914.26C66.34,-904.28 87.9,-889.55 110.34,-874.21"/>
<polygon fill="gray" stroke="gray" stroke-width="0.2" points="112.1,-877.24 118.38,-868.71 108.15,-871.46 112.1,-877.24"/>
</g>
<!-- AVL -->
<g id="node30" class="node">
<title>AVL</title>
<ellipse fill="none" stroke="black" cx="32.1" cy="-848" rx="29.11" ry="18"/>
<text text-anchor="middle" x="32.1" y="-842.58" font-family="Times New Roman,serif" font-size="14.00">AVL</text>
</g>
<!-- AVL&#45;&gt;RIB -->
<g id="edge48" class="edge">
<title>AVL&#45;&gt;RIB</title>
<path fill="none" stroke="gray" stroke-width="0.2" d="M59.92,-841.84C69.41,-839.66 80.76,-837.05 92.9,-834.26"/>
<polygon fill="gray" stroke="gray" stroke-width="0.2" points="93.53,-837.71 102.49,-832.06 91.96,-830.89 93.53,-837.71"/>
</g>
<!-- AWB -->
<g id="node31" class="node">
<title>AWB</title>
<ellipse fill="none" stroke="black" cx="32.1" cy="-769" rx="32.1" ry="18"/>
<text text-anchor="middle" x="32.1" y="-763.58" font-family="Times New Roman,serif" font-size="14.00">AWB</text>
</g>
<!-- AWB&#45;&gt;RIB -->
<g id="edge49" class="edge">
<title>AWB&#45;&gt;RIB</title>
<path fill="none" stroke="gray" stroke-width="0.2" d="M62.24,-775.53C71.15,-777.52 81.54,-779.85 92.59,-782.33"/>
<polygon fill="gray" stroke="gray" stroke-width="0.2" points="91.64,-785.7 102.16,-784.47 93.17,-778.87 91.64,-785.7"/>
</g>
<!-- IL2 -->
<g id="node32" class="node">
<title>IL2</title>
<ellipse fill="none" stroke="black" cx="32.1" cy="-690" rx="27" ry="18"/>
<text text-anchor="middle" x="32.1" y="-684.58" font-family="Times New Roman,serif" font-size="14.00">IL2</text>
</g>
<!-- IL2&#45;&gt;RIB -->
<g id="edge50" class="edge">
<title>IL2&#45;&gt;RIB</title>
<path fill="none" stroke="gray" stroke-width="nan" d="M51.73,-702.63C68.05,-713.69 93.03,-730.62 118.22,-747.69"/>
<polygon fill="gray" stroke="gray" stroke-width="nan" points="nan,-nan nan,-nan nan,-nan nan,-nan"/>
</g>
<!-- PVT -->
<g id="node33" class="node">
<title>PVT</title>
<ellipse fill="none" stroke="black" cx="32.1" cy="-611" rx="28.61" ry="18"/>
<text text-anchor="middle" x="32.1" y="-605.58" font-family="Times New Roman,serif" font-size="14.00">PVT</text>
</g>
<!-- PVT&#45;&gt;RIB -->
<g id="edge51" class="edge">
<title>PVT&#45;&gt;RIB</title>
<path fill="none" stroke="gray" stroke-width="0.2" d="M47.06,-626.79C65.14,-647.25 98.06,-684.5 129.38,-719.94"/>
<polygon fill="gray" stroke="gray" stroke-width="0.2" points="126.58,-722.06 135.83,-727.24 131.83,-717.43 126.58,-722.06"/>
</g>
<!-- URA -->
<g id="node34" class="node">
<title>URA</title>
<ellipse fill="none" stroke="black" cx="32.1" cy="-532" rx="30.11" ry="18"/>
<text text-anchor="middle" x="32.1" y="-526.58" font-family="Times New Roman,serif" font-size="14.00">URA</text>
</g>
<!-- URA&#45;&gt;RIB -->
<g id="edge52" class="edge">
<title>URA&#45;&gt;RIB</title>
<path fill="none" stroke="gray" stroke-width="0.2" d="M45.75,-548.27C54.36,-559.34 64.2,-572 64.2,-572 64.2,-572 107.24,-643.03 146.1,-707.15"/>
<polygon fill="gray" stroke="gray" stroke-width="0.2" points="142.97,-708.74 151.15,-715.48 148.96,-705.12 142.97,-708.74"/>
</g>
<!-- URB -->
<g id="node35" class="node">
<title>URB</title>
<ellipse fill="none" stroke="black" cx="32.1" cy="-453" rx="29.61" ry="18"/>
<text text-anchor="middle" x="32.1" y="-447.57" font-family="Times New Roman,serif" font-size="14.00">URB</text>
</g>
<!-- URB&#45;&gt;RIB -->
<g id="edge53" class="edge">
<title>URB&#45;&gt;RIB</title>
<path fill="none" stroke="gray" stroke-width="nan" d="M45.75,-469.27C54.36,-480.34 64.2,-493 64.2,-493 64.2,-493 120.59,-617.2 162.55,-709.63"/>
<polygon fill="gray" stroke="gray" stroke-width="nan" points="nan,-nan nan,-nan nan,-nan nan,-nan"/>
</g>
<!-- URX -->
<g id="node36" class="node">
<title>URX</title>
<ellipse fill="none" stroke="black" cx="32.1" cy="-374" rx="30.11" ry="18"/>
<text text-anchor="middle" x="32.1" y="-368.57" font-family="Times New Roman,serif" font-size="14.00">URX</text>
</g>
<!-- URX&#45;&gt;RIB -->
<g id="edge54" class="edge">
<title>URX&#45;&gt;RIB</title>
<path fill="none" stroke="gray" stroke-width="0.2" d="M45.75,-390.27C54.36,-401.34 64.2,-414 64.2,-414 64.2,-414 124.69,-580.65 166.98,-697.18"/>
<polygon fill="gray" stroke="gray" stroke-width="0.2" points="163.57,-698.04 170.27,-706.25 170.15,-695.66 163.57,-698.04"/>
</g>
</g>
</svg>
