<?xml version="1.0" encoding="UTF-8" standalone="no"?>
<!DOCTYPE svg PUBLIC "-//W3C//DTD SVG 1.1//EN"
 "http://www.w3.org/Graphics/SVG/1.1/DTD/svg11.dtd">
<!-- Generated by graphviz version 11.0.0 (20240428.1522)
 -->
<!-- Pages: 1 -->
<svg width="423pt" height="2256pt"
 viewBox="0.00 0.00 423.41 2256.00" xmlns="http://www.w3.org/2000/svg" xmlns:xlink="http://www.w3.org/1999/xlink">
<g id="graph0" class="graph" transform="scale(1 1) rotate(0) translate(4 2252)">
<polygon fill="white" stroke="none" points="-4,4 -4,-2252 419.41,-2252 419.41,4 -4,4"/>
<!-- RIC -->
<g id="node1" class="node">
<title>RIC</title>
<ellipse fill="none" stroke="black" cx="207.21" cy="-1124" rx="108" ry="108"/>
<text text-anchor="middle" x="207.21" y="-1105" font-family="Times New Roman,serif" font-size="50.00">RIC</text>
</g>
<!-- RIC&#45;&gt;RIC -->
<g id="edge1" class="edge">
<title>RIC&#45;&gt;RIC</title>
<path fill="none" stroke="black" stroke-width="5" d="M174.59,-1227.39C176.53,-1254.51 187.4,-1275 207.21,-1275 222.91,-1275 233,-1262.12 237.47,-1243.26"/>
<polygon fill="black" stroke="black" stroke-width="5" points="241.77,-1244.1 238.9,-1233.56 233.11,-1242.81 241.77,-1244.1"/>
</g>
<!-- ADA -->
<g id="node2" class="node">
<title>ADA</title>
<ellipse fill="none" stroke="black" cx="383.31" cy="-2230" rx="30.11" ry="18"/>
<text text-anchor="middle" x="383.31" y="-2224.57" font-family="Times New Roman,serif" font-size="14.00">ADA</text>
</g>
<!-- RIC&#45;&gt;ADA -->
<g id="edge2" class="edge">
<title>RIC&#45;&gt;ADA</title>
<path fill="none" stroke="black" stroke-width="5" d="M223.99,-1230.99C261.18,-1497.74 351.21,-2169.5 351.21,-2169.5 351.21,-2169.5 361.68,-2182.63 370.47,-2197.85"/>
<polygon fill="black" stroke="black" stroke-width="5" points="366.46,-2199.62 374.89,-2206.54 374.25,-2195.65 366.46,-2199.62"/>
</g>
<!-- ADL -->
<g id="node3" class="node">
<title>ADL</title>
<ellipse fill="none" stroke="black" cx="383.31" cy="-2151" rx="29.11" ry="18"/>
<text text-anchor="middle" x="383.31" y="-2145.57" font-family="Times New Roman,serif" font-size="14.00">ADL</text>
</g>
<!-- RIC&#45;&gt;ADL -->
<g id="edge3" class="edge">
<title>RIC&#45;&gt;ADL</title>
<path fill="none" stroke="gray" stroke-width="0.2" d="M225.24,-1230.59C263.16,-1482.18 351.21,-2090.5 351.21,-2090.5 351.21,-2090.5 364.16,-2106.74 373.35,-2124.04"/>
<polygon fill="gray" stroke="gray" stroke-width="0.2" points="370.09,-2125.34 377.59,-2132.83 376.39,-2122.3 370.09,-2125.34"/>
</g>
<!-- AIB -->
<g id="node4" class="node">
<title>AIB</title>
<ellipse fill="none" stroke="black" cx="383.31" cy="-2072" rx="27" ry="18"/>
<text text-anchor="middle" x="383.31" y="-2066.57" font-family="Times New Roman,serif" font-size="14.00">AIB</text>
</g>
<!-- RIC&#45;&gt;AIB -->
<g id="edge4" class="edge">
<title>RIC&#45;&gt;AIB</title>
<path fill="none" stroke="red" stroke-width="5" d="M226.75,-1230.39C265.45,-1466.36 351.21,-2011.5 351.21,-2011.5 351.21,-2011.5 361.68,-2024.63 370.47,-2039.85"/>
<polygon fill="red" stroke="red" stroke-width="5" points="366.46,-2041.62 374.89,-2048.54 374.25,-2037.65 366.46,-2041.62"/>
</g>
<!-- AIZ -->
<g id="node5" class="node">
<title>AIZ</title>
<ellipse fill="none" stroke="black" cx="383.31" cy="-1993" rx="27" ry="18"/>
<text text-anchor="middle" x="383.31" y="-1987.58" font-family="Times New Roman,serif" font-size="14.00">AIZ</text>
</g>
<!-- RIC&#45;&gt;AIZ -->
<g id="edge5" class="edge">
<title>RIC&#45;&gt;AIZ</title>
<path fill="none" stroke="gray" stroke-width="2" d="M228.54,-1230.08C268.02,-1449.69 351.21,-1932.5 351.21,-1932.5 351.21,-1932.5 363,-1947.29 372.06,-1963.67"/>
<polygon fill="gray" stroke="gray" stroke-width="2" points="368.8,-1964.98 376.38,-1972.39 375.08,-1961.87 368.8,-1964.98"/>
</g>
<!-- AVA -->
<g id="node6" class="node">
<title>AVA</title>
<ellipse fill="none" stroke="black" cx="383.31" cy="-1914" rx="30.11" ry="18"/>
<text text-anchor="middle" x="383.31" y="-1908.58" font-family="Times New Roman,serif" font-size="14.00">AVA</text>
</g>
<!-- RIC&#45;&gt;AVA -->
<g id="edge6" class="edge">
<title>RIC&#45;&gt;AVA</title>
<path fill="none" stroke="black" stroke-width="5" d="M230.71,-1229.7C270.98,-1432.16 351.21,-1853.5 351.21,-1853.5 351.21,-1853.5 361.68,-1866.63 370.47,-1881.85"/>
<polygon fill="black" stroke="black" stroke-width="5" points="366.46,-1883.62 374.89,-1890.54 374.25,-1879.65 366.46,-1883.62"/>
</g>
<!-- AVB -->
<g id="node7" class="node">
<title>AVB</title>
<ellipse fill="none" stroke="black" cx="383.31" cy="-1835" rx="29.61" ry="18"/>
<text text-anchor="middle" x="383.31" y="-1829.58" font-family="Times New Roman,serif" font-size="14.00">AVB</text>
</g>
<!-- RIC&#45;&gt;AVB -->
<g id="edge7" class="edge">
<title>RIC&#45;&gt;AVB</title>
<path fill="none" stroke="gray" stroke-width="0.2" d="M230.71,-1229.74C270.98,-1418.98 351.21,-1796 351.21,-1796 351.21,-1796 356.59,-1802.75 362.88,-1810.63"/>
<polygon fill="gray" stroke="gray" stroke-width="0.2" points="360.14,-1812.81 369.11,-1818.45 365.61,-1808.45 360.14,-1812.81"/>
</g>
<!-- AVD -->
<g id="node8" class="node">
<title>AVD</title>
<ellipse fill="none" stroke="black" cx="383.31" cy="-1756" rx="30.11" ry="18"/>
<text text-anchor="middle" x="383.31" y="-1750.58" font-family="Times New Roman,serif" font-size="14.00">AVD</text>
</g>
<!-- RIC&#45;&gt;AVD -->
<g id="edge8" class="edge">
<title>RIC&#45;&gt;AVD</title>
<path fill="none" stroke="gray" stroke-width="0.2" d="M233.52,-1228.99C274.6,-1399.31 351.21,-1717 351.21,-1717 351.21,-1717 356.59,-1723.75 362.88,-1731.63"/>
<polygon fill="gray" stroke="gray" stroke-width="0.2" points="360.14,-1733.81 369.11,-1739.45 365.61,-1729.45 360.14,-1733.81"/>
</g>
<!-- AVE -->
<g id="node9" class="node">
<title>AVE</title>
<ellipse fill="none" stroke="black" cx="383.31" cy="-1677" rx="29.11" ry="18"/>
<text text-anchor="middle" x="383.31" y="-1671.58" font-family="Times New Roman,serif" font-size="14.00">AVE</text>
</g>
<!-- RIC&#45;&gt;AVE -->
<g id="edge9" class="edge">
<title>RIC&#45;&gt;AVE</title>
<path fill="none" stroke="gray" stroke-width="0.2" d="M237.14,-1228.02C278.93,-1378.21 351.21,-1638 351.21,-1638 351.21,-1638 356.86,-1645.09 363.34,-1653.22"/>
<polygon fill="gray" stroke="gray" stroke-width="0.2" points="360.5,-1655.26 369.47,-1660.9 365.97,-1650.9 360.5,-1655.26"/>
</g>
<!-- AVJ -->
<g id="node10" class="node">
<title>AVJ</title>
<ellipse fill="none" stroke="black" cx="383.31" cy="-1598" rx="27.11" ry="18"/>
<text text-anchor="middle" x="383.31" y="-1592.58" font-family="Times New Roman,serif" font-size="14.00">AVJ</text>
</g>
<!-- RIC&#45;&gt;AVJ -->
<g id="edge10" class="edge">
<title>RIC&#45;&gt;AVJ</title>
<path fill="none" stroke="blue" stroke-width="0.2" d="M241.91,-1226.54C284.19,-1355.14 351.21,-1559 351.21,-1559 351.21,-1559 356.86,-1566.09 363.34,-1574.22"/>
<polygon fill="blue" stroke="blue" stroke-width="0.2" points="360.5,-1576.26 369.47,-1581.9 365.97,-1571.9 360.5,-1576.26"/>
</g>
<!-- AVK -->
<g id="node11" class="node">
<title>AVK</title>
<ellipse fill="none" stroke="black" cx="383.31" cy="-1519" rx="30.11" ry="18"/>
<text text-anchor="middle" x="383.31" y="-1513.58" font-family="Times New Roman,serif" font-size="14.00">AVK</text>
</g>
<!-- RIC&#45;&gt;AVK -->
<g id="edge11" class="edge">
<title>RIC&#45;&gt;AVK</title>
<path fill="none" stroke="gray" stroke-width="0.2" d="M248.42,-1224.11C290.72,-1329.41 351.21,-1480 351.21,-1480 351.21,-1480 356.59,-1486.75 362.88,-1494.63"/>
<polygon fill="gray" stroke="gray" stroke-width="0.2" points="360.14,-1496.81 369.11,-1502.45 365.61,-1492.45 360.14,-1496.81"/>
</g>
<!-- BDU -->
<g id="node12" class="node">
<title>BDU</title>
<ellipse fill="none" stroke="black" cx="383.31" cy="-1440" rx="29.61" ry="18"/>
<text text-anchor="middle" x="383.31" y="-1434.58" font-family="Times New Roman,serif" font-size="14.00">BDU</text>
</g>
<!-- RIC&#45;&gt;BDU -->
<g id="edge12" class="edge">
<title>RIC&#45;&gt;BDU</title>
<path fill="none" stroke="gray" stroke-width="0.2" d="M264.72,-1215.97C304.69,-1289.4 351.21,-1379.5 351.21,-1379.5 351.21,-1379.5 364.16,-1395.74 373.35,-1413.04"/>
<polygon fill="gray" stroke="gray" stroke-width="0.2" points="370.09,-1414.34 377.59,-1421.83 376.39,-1411.3 370.09,-1414.34"/>
</g>
<!-- CEP -->
<g id="node13" class="node">
<title>CEP</title>
<ellipse fill="none" stroke="black" cx="383.31" cy="-1361" rx="28.11" ry="18"/>
<text text-anchor="middle" x="383.31" y="-1355.58" font-family="Times New Roman,serif" font-size="14.00">CEP</text>
</g>
<!-- RIC&#45;&gt;CEP -->
<g id="edge13" class="edge">
<title>RIC&#45;&gt;CEP</title>
<path fill="none" stroke="gray" stroke-width="5" d="M279.92,-1204.46C315.6,-1251.19 351.21,-1300.5 351.21,-1300.5 351.21,-1300.5 361.68,-1313.63 370.47,-1328.85"/>
<polygon fill="gray" stroke="gray" stroke-width="5" points="366.46,-1330.62 374.89,-1337.54 374.25,-1326.65 366.46,-1330.62"/>
</g>
<!-- OLQ -->
<g id="node14" class="node">
<title>OLQ</title>
<ellipse fill="none" stroke="black" cx="383.31" cy="-1282" rx="30.11" ry="18"/>
<text text-anchor="middle" x="383.31" y="-1276.58" font-family="Times New Roman,serif" font-size="14.00">OLQ</text>
</g>
<!-- RIC&#45;&gt;OLQ -->
<g id="edge14" class="edge">
<title>RIC&#45;&gt;OLQ</title>
<path fill="none" stroke="gray" stroke-width="0.2" d="M295.26,-1186.88C322.33,-1211.45 349.41,-1238.1 366.01,-1257.32"/>
<polygon fill="gray" stroke="gray" stroke-width="0.2" points="363.17,-1259.39 372.26,-1264.84 368.56,-1254.92 363.17,-1259.39"/>
</g>
<!-- PVC -->
<g id="node15" class="node">
<title>PVC</title>
<ellipse fill="none" stroke="black" cx="383.31" cy="-1203" rx="29.11" ry="18"/>
<text text-anchor="middle" x="383.31" y="-1197.58" font-family="Times New Roman,serif" font-size="14.00">PVC</text>
</g>
<!-- RIC&#45;&gt;PVC -->
<g id="edge15" class="edge">
<title>RIC&#45;&gt;PVC</title>
<path fill="none" stroke="gray" stroke-width="2" d="M305.94,-1168.35C320.94,-1175.16 335.51,-1181.77 347.83,-1187.36"/>
<polygon fill="gray" stroke="gray" stroke-width="2" points="346.03,-1190.38 356.58,-1191.33 348.92,-1184.01 346.03,-1190.38"/>
</g>
<!-- RIM -->
<g id="node16" class="node">
<title>RIM</title>
<ellipse fill="none" stroke="black" cx="383.31" cy="-1124" rx="28.11" ry="18"/>
<text text-anchor="middle" x="383.31" y="-1118.58" font-family="Times New Roman,serif" font-size="14.00">RIM</text>
</g>
<!-- RIC&#45;&gt;RIM -->
<g id="edge16" class="edge">
<title>RIC&#45;&gt;RIM</title>
<path fill="none" stroke="red" stroke-width="5" d="M314.5,-1108.23C325.25,-1108.63 335.58,-1109.38 344.81,-1110.47"/>
<polygon fill="red" stroke="red" stroke-width="5" points="343.81,-1114.74 354.36,-1111.94 345.14,-1106.09 343.81,-1114.74"/>
</g>
<!-- RIS -->
<g id="node17" class="node">
<title>RIS</title>
<ellipse fill="none" stroke="black" cx="383.31" cy="-1045" rx="27" ry="18"/>
<text text-anchor="middle" x="383.31" y="-1039.58" font-family="Times New Roman,serif" font-size="14.00">RIS</text>
</g>
<!-- RIC&#45;&gt;RIS -->
<g id="edge17" class="edge">
<title>RIC&#45;&gt;RIS</title>
<path fill="none" stroke="gray" stroke-width="0.2" d="M299.08,-1066.65C315.93,-1059.13 332.59,-1052.5 346.53,-1047.91"/>
<polygon fill="gray" stroke="gray" stroke-width="0.2" points="347.34,-1051.32 355.87,-1045.04 345.28,-1044.63 347.34,-1051.32"/>
</g>
<!-- RIV -->
<g id="node18" class="node">
<title>RIV</title>
<ellipse fill="none" stroke="black" cx="383.31" cy="-966" rx="27" ry="18"/>
<text text-anchor="middle" x="383.31" y="-960.58" font-family="Times New Roman,serif" font-size="14.00">RIV</text>
</g>
<!-- RIC&#45;&gt;RIV -->
<g id="edge18" class="edge">
<title>RIC&#45;&gt;RIV</title>
<path fill="none" stroke="red" stroke-width="2" d="M279.52,-1043.39C303.77,-1020.65 329.7,-998.1 349.45,-982.88"/>
<polygon fill="red" stroke="red" stroke-width="2" points="351.38,-985.81 357.31,-977.03 347.2,-980.19 351.38,-985.81"/>
</g>
<!-- RMD -->
<g id="node19" class="node">
<title>RMD</title>
<ellipse fill="none" stroke="black" cx="383.31" cy="-887" rx="31.6" ry="18"/>
<text text-anchor="middle" x="383.31" y="-881.58" font-family="Times New Roman,serif" font-size="14.00">RMD</text>
</g>
<!-- RIC&#45;&gt;RMD -->
<g id="edge19" class="edge">
<title>RIC&#45;&gt;RMD</title>
<path fill="none" stroke="gray" stroke-width="0.2" d="M271.55,-1036.73C309.8,-984.04 351.21,-927 351.21,-927 351.21,-927 356.86,-919.73 363.34,-911.39"/>
<polygon fill="gray" stroke="gray" stroke-width="0.2" points="366.1,-913.55 369.47,-903.51 360.57,-909.25 366.1,-913.55"/>
</g>
<!-- RMF -->
<g id="node20" class="node">
<title>RMF</title>
<ellipse fill="none" stroke="black" cx="383.31" cy="-808" rx="30.61" ry="18"/>
<text text-anchor="middle" x="383.31" y="-802.58" font-family="Times New Roman,serif" font-size="14.00">RMF</text>
</g>
<!-- RIC&#45;&gt;RMF -->
<g id="edge20" class="edge">
<title>RIC&#45;&gt;RMF</title>
<path fill="none" stroke="gray" stroke-width="2" d="M257.82,-1028.24C299.12,-948.53 351.21,-848 351.21,-848 351.21,-848 355.96,-841.88 361.76,-834.43"/>
<polygon fill="gray" stroke="gray" stroke-width="2" points="364.42,-836.7 367.8,-826.66 358.9,-832.41 364.42,-836.7"/>
</g>
<!-- RMG -->
<g id="node21" class="node">
<title>RMG</title>
<ellipse fill="none" stroke="black" cx="383.31" cy="-729" rx="32.1" ry="18"/>
<text text-anchor="middle" x="383.31" y="-723.58" font-family="Times New Roman,serif" font-size="14.00">RMG</text>
</g>
<!-- RIC&#45;&gt;RMG -->
<g id="edge21" class="edge">
<title>RIC&#45;&gt;RMG</title>
<path fill="none" stroke="gray" stroke-width="0.2" d="M248.42,-1024.17C290.72,-919.17 351.21,-769 351.21,-769 351.21,-769 356.86,-761.73 363.34,-753.39"/>
<polygon fill="gray" stroke="gray" stroke-width="0.2" points="366.1,-755.55 369.47,-745.51 360.57,-751.25 366.1,-755.55"/>
</g>
<!-- RMH -->
<g id="node22" class="node">
<title>RMH</title>
<ellipse fill="none" stroke="black" cx="383.31" cy="-650" rx="31.6" ry="18"/>
<text text-anchor="middle" x="383.31" y="-644.58" font-family="Times New Roman,serif" font-size="14.00">RMH</text>
</g>
<!-- RIC&#45;&gt;RMH -->
<g id="edge22" class="edge">
<title>RIC&#45;&gt;RMH</title>
<path fill="none" stroke="gray" stroke-width="2" d="M237.84,-1019.97C274.49,-901.83 333.8,-720.58 352.07,-672.39"/>
<polygon fill="gray" stroke="gray" stroke-width="2" points="355.27,-673.81 356.01,-663.24 348.84,-671.04 355.27,-673.81"/>
</g>
<!-- SAA -->
<g id="node23" class="node">
<title>SAA</title>
<ellipse fill="none" stroke="black" cx="383.31" cy="-571" rx="29.11" ry="18"/>
<text text-anchor="middle" x="383.31" y="-565.58" font-family="Times New Roman,serif" font-size="14.00">SAA</text>
</g>
<!-- RIC&#45;&gt;SAA -->
<g id="edge23" class="edge">
<title>RIC&#45;&gt;SAA</title>
<path fill="none" stroke="gray" stroke-width="5" d="M233.77,-1018.99C269.68,-882.6 332.4,-656.23 352.34,-595.6"/>
<polygon fill="gray" stroke="gray" stroke-width="5" points="356.42,-597.18 355.89,-586.28 348.24,-594.07 356.42,-597.18"/>
</g>
<!-- SIA -->
<g id="node24" class="node">
<title>SIA</title>
<ellipse fill="none" stroke="black" cx="383.31" cy="-492" rx="27" ry="18"/>
<text text-anchor="middle" x="383.31" y="-486.57" font-family="Times New Roman,serif" font-size="14.00">SIA</text>
</g>
<!-- RIC&#45;&gt;SIA -->
<g id="edge24" class="edge">
<title>RIC&#45;&gt;SIA</title>
<path fill="none" stroke="gray" stroke-width="0.2" d="M233.52,-1019.01C274.6,-848.69 351.21,-531 351.21,-531 351.21,-531 356.86,-523.91 363.34,-515.78"/>
<polygon fill="gray" stroke="gray" stroke-width="0.2" points="365.97,-518.1 369.47,-508.1 360.5,-513.74 365.97,-518.1"/>
</g>
<!-- SIB -->
<g id="node25" class="node">
<title>SIB</title>
<ellipse fill="none" stroke="black" cx="383.31" cy="-413" rx="27" ry="18"/>
<text text-anchor="middle" x="383.31" y="-407.57" font-family="Times New Roman,serif" font-size="14.00">SIB</text>
</g>
<!-- RIC&#45;&gt;SIB -->
<g id="edge25" class="edge">
<title>RIC&#45;&gt;SIB</title>
<path fill="none" stroke="gray" stroke-width="2" d="M228.32,-1017.59C264.01,-841.16 335.94,-502.34 354.95,-433.6"/>
<polygon fill="gray" stroke="gray" stroke-width="2" points="358.21,-434.88 358.09,-424.29 351.58,-432.65 358.21,-434.88"/>
</g>
<!-- SMB -->
<g id="node26" class="node">
<title>SMB</title>
<ellipse fill="none" stroke="black" cx="383.31" cy="-334" rx="30.11" ry="18"/>
<text text-anchor="middle" x="383.31" y="-328.57" font-family="Times New Roman,serif" font-size="14.00">SMB</text>
</g>
<!-- RIC&#45;&gt;SMB -->
<g id="edge26" class="edge">
<title>RIC&#45;&gt;SMB</title>
<path fill="none" stroke="red" stroke-width="5" d="M228.39,-1017.99C267.81,-810.98 351.21,-373 351.21,-373 351.21,-373 354.76,-368.54 359.46,-362.64"/>
<polygon fill="red" stroke="red" stroke-width="5" points="362.59,-365.74 365.41,-355.19 355.75,-360.28 362.59,-365.74"/>
</g>
<!-- SMD -->
<g id="node27" class="node">
<title>SMD</title>
<ellipse fill="none" stroke="black" cx="383.31" cy="-255" rx="30.61" ry="18"/>
<text text-anchor="middle" x="383.31" y="-249.57" font-family="Times New Roman,serif" font-size="14.00">SMD</text>
</g>
<!-- RIC&#45;&gt;SMD -->
<g id="edge27" class="edge">
<title>RIC&#45;&gt;SMD</title>
<path fill="none" stroke="black" stroke-width="5" d="M224.75,-1017C258.75,-810.14 334.51,-369.5 353.48,-280.8"/>
<polygon fill="black" stroke="black" stroke-width="5" points="357.7,-281.94 355.95,-271.17 349.23,-279.77 357.7,-281.94"/>
</g>
<!-- URB -->
<g id="node28" class="node">
<title>URB</title>
<ellipse fill="none" stroke="black" cx="383.31" cy="-176" rx="29.61" ry="18"/>
<text text-anchor="middle" x="383.31" y="-170.57" font-family="Times New Roman,serif" font-size="14.00">URB</text>
</g>
<!-- RIC&#45;&gt;URB -->
<g id="edge28" class="edge">
<title>RIC&#45;&gt;URB</title>
<path fill="none" stroke="gray" stroke-width="2" d="M223.37,-1017C257.23,-791.75 336.97,-284.03 354.66,-198.16"/>
<polygon fill="gray" stroke="gray" stroke-width="2" points="357.99,-199.28 357.06,-188.73 351.21,-197.56 357.99,-199.28"/>
</g>
<!-- URX -->
<g id="node29" class="node">
<title>URX</title>
<ellipse fill="none" stroke="black" cx="383.31" cy="-97" rx="30.11" ry="18"/>
<text text-anchor="middle" x="383.31" y="-91.58" font-family="Times New Roman,serif" font-size="14.00">URX</text>
</g>
<!-- RIC&#45;&gt;URX -->
<g id="edge29" class="edge">
<title>RIC&#45;&gt;URX</title>
<path fill="none" stroke="gray" stroke-width="0.2" d="M222.24,-1016.78C255.85,-774.12 338.94,-199.3 355.34,-116.68"/>
<polygon fill="gray" stroke="gray" stroke-width="0.2" points="358.71,-117.64 357.73,-107.09 351.91,-115.94 358.71,-117.64"/>
</g>
<!-- VBn -->
<g id="node30" class="node">
<title>VBn</title>
<ellipse fill="none" stroke="black" cx="383.31" cy="-18" rx="27.61" ry="18"/>
<text text-anchor="middle" x="383.31" y="-12.57" font-family="Times New Roman,serif" font-size="14.00">VBn</text>
</g>
<!-- RIC&#45;&gt;VBn -->
<g id="edge30" class="edge">
<title>RIC&#45;&gt;VBn</title>
<path fill="none" stroke="gray" stroke-width="0.2" d="M222.57,-1016.81C258.84,-746.23 351.21,-57 351.21,-57 351.21,-57 356.86,-49.91 363.34,-41.78"/>
<polygon fill="gray" stroke="gray" stroke-width="0.2" points="365.97,-44.1 369.47,-34.1 360.5,-39.74 365.97,-44.1"/>
</g>
<!-- ADA&#45;&gt;RIC -->
<g id="edge31" class="edge">
<title>ADA&#45;&gt;RIC</title>
<path fill="none" stroke="gray" stroke-width="2" d="M357.8,-2220.21C353.95,-2215.94 351.21,-2212.5 351.21,-2212.5 351.21,-2212.5 259.42,-1527.63 222.92,-1244.22"/>
<polygon fill="gray" stroke="gray" stroke-width="2" points="226.41,-1243.92 221.66,-1234.45 219.47,-1244.81 226.41,-1243.92"/>
</g>
<!-- ADL&#45;&gt;RIC -->
<g id="edge32" class="edge">
<title>ADL&#45;&gt;RIC</title>
<path fill="none" stroke="gray" stroke-width="0.2" d="M358.11,-2141.55C354.09,-2137.12 351.21,-2133.5 351.21,-2133.5 351.21,-2133.5 260.62,-1507.62 223.64,-1241.31"/>
<polygon fill="gray" stroke="gray" stroke-width="0.2" points="227.13,-1240.94 222.28,-1231.52 220.19,-1241.91 227.13,-1240.94"/>
</g>
<!-- AIB&#45;&gt;RIC -->
<g id="edge33" class="edge">
<title>AIB&#45;&gt;RIC</title>
<path fill="none" stroke="gray" stroke-width="0.2" d="M359.05,-2063.58C354.55,-2058.7 351.21,-2054.5 351.21,-2054.5 351.21,-2054.5 262.56,-1491.02 224.86,-1240.86"/>
<polygon fill="gray" stroke="gray" stroke-width="0.2" points="228.37,-1240.67 223.42,-1231.3 221.45,-1241.71 228.37,-1240.67"/>
</g>
<!-- AIZ&#45;&gt;RIC -->
<g id="edge34" class="edge">
<title>AIZ&#45;&gt;RIC</title>
<path fill="none" stroke="gray" stroke-width="5" d="M359.05,-1984.58C354.55,-1979.7 351.21,-1975.5 351.21,-1975.5 351.21,-1975.5 266.34,-1482.9 227.36,-1246.85"/>
<polygon fill="gray" stroke="gray" stroke-width="5" points="231.71,-1246.31 225.76,-1237.15 223.07,-1247.73 231.71,-1246.31"/>
</g>
<!-- AVA&#45;&gt;RIC -->
<g id="edge35" class="edge">
<title>AVA&#45;&gt;RIC</title>
<path fill="none" stroke="gray" stroke-width="0.2" d="M357.8,-1904.21C353.95,-1899.94 351.21,-1896.5 351.21,-1896.5 351.21,-1896.5 267.48,-1456.77 228.16,-1240.64"/>
<polygon fill="gray" stroke="gray" stroke-width="0.2" points="231.6,-1240.03 226.37,-1230.81 224.71,-1241.28 231.6,-1240.03"/>
</g>
<!-- BDU&#45;&gt;RIC -->
<g id="edge36" class="edge">
<title>BDU&#45;&gt;RIC</title>
<path fill="none" stroke="gray" stroke-width="0.2" d="M357.8,-1430.21C353.95,-1425.94 351.21,-1422.5 351.21,-1422.5 351.21,-1422.5 297.13,-1317.75 255.48,-1232.08"/>
<polygon fill="gray" stroke="gray" stroke-width="0.2" points="258.75,-1230.8 251.24,-1223.33 252.46,-1233.86 258.75,-1230.8"/>
</g>
<!-- CEP&#45;&gt;RIC -->
<g id="edge37" class="edge">
<title>CEP&#45;&gt;RIC</title>
<path fill="none" stroke="black" stroke-width="5" d="M358.42,-1351.89C354.24,-1347.31 351.21,-1343.5 351.21,-1343.5 351.21,-1343.5 310.1,-1286.59 271.97,-1230.48"/>
<polygon fill="black" stroke="black" stroke-width="5" points="275.6,-1228.03 266.37,-1222.19 268.35,-1232.93 275.6,-1228.03"/>
</g>
<!-- OLQ&#45;&gt;RIC -->
<g id="edge38" class="edge">
<title>OLQ&#45;&gt;RIC</title>
<path fill="none" stroke="black" stroke-width="5" d="M358.12,-1271.62C340.6,-1258.93 315.81,-1237.94 291.43,-1215.64"/>
<polygon fill="black" stroke="black" stroke-width="5" points="294.41,-1212.43 284.1,-1208.85 288.46,-1218.85 294.41,-1212.43"/>
</g>
<!-- RIM&#45;&gt;RIC -->
<g id="edge39" class="edge">
<title>RIM&#45;&gt;RIC</title>
<path fill="none" stroke="gray" stroke-width="0.2" d="M360.52,-1135.11C350.64,-1137.09 338.14,-1138.48 324.56,-1139.28"/>
<polygon fill="gray" stroke="gray" stroke-width="0.2" points="324.62,-1135.78 314.8,-1139.76 324.96,-1142.77 324.62,-1135.78"/>
</g>
<!-- RIS&#45;&gt;RIC -->
<g id="edge40" class="edge">
<title>RIS&#45;&gt;RIC</title>
<path fill="none" stroke="gray" stroke-width="2" d="M368.42,-1060.54C357.43,-1068.63 340.91,-1078.17 322.59,-1087.49"/>
<polygon fill="gray" stroke="gray" stroke-width="2" points="321.11,-1084.32 313.7,-1091.9 324.22,-1090.59 321.11,-1084.32"/>
</g>
<!-- RIV&#45;&gt;RIC -->
<g id="edge41" class="edge">
<title>RIV&#45;&gt;RIC</title>
<path fill="none" stroke="gray" stroke-width="0.2" d="M372.45,-982.92C358.34,-1000.73 330.94,-1028.3 302.5,-1054.5"/>
<polygon fill="gray" stroke="gray" stroke-width="0.2" points="300.5,-1051.59 295.48,-1060.92 305.22,-1056.76 300.5,-1051.59"/>
</g>
<!-- RMH&#45;&gt;RIC -->
<g id="edge42" class="edge">
<title>RMH&#45;&gt;RIC</title>
<path fill="none" stroke="gray" stroke-width="0.2" d="M377.72,-667.9C369.07,-688.1 351.21,-710.5 351.21,-710.5 351.21,-710.5 291.92,-890.84 249.7,-1013.55"/>
<polygon fill="gray" stroke="gray" stroke-width="0.2" points="246.48,-1012.13 246.53,-1022.73 253.1,-1014.41 246.48,-1012.13"/>
</g>
<!-- SAA&#45;&gt;RIC -->
<g id="edge43" class="edge">
<title>SAA&#45;&gt;RIC</title>
<path fill="none" stroke="blue" stroke-width="2" d="M377.72,-588.9C369.07,-609.1 351.21,-631.5 351.21,-631.5 351.21,-631.5 286.72,-863.3 244.35,-1009.06"/>
<polygon fill="blue" stroke="blue" stroke-width="2" points="241.12,-1007.66 241.68,-1018.24 247.84,-1009.62 241.12,-1007.66"/>
</g>
<!-- SIB&#45;&gt;RIC -->
<g id="edge44" class="edge">
<title>SIB&#45;&gt;RIC</title>
<path fill="none" stroke="gray" stroke-width="2" d="M377.72,-430.9C369.07,-451.1 351.21,-473.5 351.21,-473.5 351.21,-473.5 277.8,-818.44 236.18,-1006.14"/>
<polygon fill="gray" stroke="gray" stroke-width="2" points="232.77,-1005.35 234.02,-1015.87 239.6,-1006.87 232.77,-1005.35"/>
</g>
<!-- SMD&#45;&gt;RIC -->
<g id="edge45" class="edge">
<title>SMD&#45;&gt;RIC</title>
<path fill="none" stroke="blue" stroke-width="2" d="M377.72,-272.9C369.07,-293.1 351.21,-315.5 351.21,-315.5 351.21,-315.5 271.08,-780.56 230.78,-1005.43"/>
<polygon fill="blue" stroke="blue" stroke-width="2" points="227.4,-1004.48 229.08,-1014.94 234.29,-1005.72 227.4,-1004.48"/>
</g>
<!-- URB&#45;&gt;RIC -->
<g id="edge46" class="edge">
<title>URB&#45;&gt;RIC</title>
<path fill="none" stroke="red" stroke-width="5" d="M377.72,-193.9C369.07,-214.1 351.21,-236.5 351.21,-236.5 351.21,-236.5 269.17,-757.95 229.37,-1001.62"/>
<polygon fill="red" stroke="red" stroke-width="5" points="225.06,-1000.88 227.76,-1011.46 233.69,-1002.29 225.06,-1000.88"/>
</g>
<!-- URX&#45;&gt;RIC -->
<g id="edge47" class="edge">
<title>URX&#45;&gt;RIC</title>
<path fill="none" stroke="red" stroke-width="2" d="M377.72,-114.9C369.07,-135.1 351.21,-157.5 351.21,-157.5 351.21,-157.5 266.06,-745.79 227.17,-1004.59"/>
<polygon fill="red" stroke="red" stroke-width="2" points="223.72,-1004 225.69,-1014.41 230.64,-1005.05 223.72,-1004"/>
</g>
<!-- ADF -->
<g id="node31" class="node">
<title>ADF</title>
<ellipse fill="none" stroke="black" cx="31.6" cy="-1559" rx="29.11" ry="18"/>
<text text-anchor="middle" x="31.6" y="-1553.58" font-family="Times New Roman,serif" font-size="14.00">ADF</text>
</g>
<!-- ADF&#45;&gt;RIC -->
<g id="edge48" class="edge">
<title>ADF&#45;&gt;RIC</title>
<path fill="none" stroke="gray" stroke-width="0.2" d="M45.4,-1542.69C53.79,-1532 63.21,-1520 63.21,-1520 63.21,-1520 123.78,-1352.26 166.08,-1235.12"/>
<polygon fill="gray" stroke="gray" stroke-width="0.2" points="169.27,-1236.6 169.37,-1226.01 162.68,-1234.22 169.27,-1236.6"/>
</g>
<!-- AIM -->
<g id="node32" class="node">
<title>AIM</title>
<ellipse fill="none" stroke="black" cx="31.6" cy="-1480" rx="28.11" ry="18"/>
<text text-anchor="middle" x="31.6" y="-1474.58" font-family="Times New Roman,serif" font-size="14.00">AIM</text>
</g>
<!-- AIM&#45;&gt;RIC -->
<g id="edge49" class="edge">
<title>AIM&#45;&gt;RIC</title>
<path fill="none" stroke="gray" stroke-width="0.2" d="M45.05,-1464.14C53.52,-1453.34 63.21,-1441 63.21,-1441 63.21,-1441 116.24,-1323.44 157.71,-1231.51"/>
<polygon fill="gray" stroke="gray" stroke-width="0.2" points="160.89,-1232.96 161.81,-1222.41 154.51,-1230.08 160.89,-1232.96"/>
</g>
<!-- ALM -->
<g id="node33" class="node">
<title>ALM</title>
<ellipse fill="none" stroke="black" cx="31.6" cy="-1401" rx="30.61" ry="18"/>
<text text-anchor="middle" x="31.6" y="-1395.58" font-family="Times New Roman,serif" font-size="14.00">ALM</text>
</g>
<!-- ALM&#45;&gt;RIC -->
<g id="edge50" class="edge">
<title>ALM&#45;&gt;RIC</title>
<path fill="none" stroke="gray" stroke-width="0.2" d="M45.4,-1384.69C53.79,-1374 63.21,-1362 63.21,-1362 63.21,-1362 106.54,-1289.88 145.5,-1225.04"/>
<polygon fill="gray" stroke="gray" stroke-width="0.2" points="148.41,-1226.99 150.56,-1216.62 142.41,-1223.39 148.41,-1226.99"/>
</g>
<!-- AVM -->
<g id="node34" class="node">
<title>AVM</title>
<ellipse fill="none" stroke="black" cx="31.6" cy="-1322" rx="31.6" ry="18"/>
<text text-anchor="middle" x="31.6" y="-1316.58" font-family="Times New Roman,serif" font-size="14.00">AVM</text>
</g>
<!-- AVM&#45;&gt;RIC -->
<g id="edge51" class="edge">
<title>AVM&#45;&gt;RIC</title>
<path fill="none" stroke="blue" stroke-width="2" d="M46.81,-1305.8C64.57,-1285.54 96.38,-1249.26 126.93,-1214.42"/>
<polygon fill="blue" stroke="blue" stroke-width="2" points="129.54,-1216.74 133.51,-1206.92 124.28,-1212.13 129.54,-1216.74"/>
</g>
<!-- DVA -->
<g id="node35" class="node">
<title>DVA</title>
<ellipse fill="none" stroke="black" cx="31.6" cy="-1243" rx="30.11" ry="18"/>
<text text-anchor="middle" x="31.6" y="-1237.58" font-family="Times New Roman,serif" font-size="14.00">DVA</text>
</g>
<!-- DVA&#45;&gt;RIC -->
<g id="edge52" class="edge">
<title>DVA&#45;&gt;RIC</title>
<path fill="none" stroke="gray" stroke-width="0.2" d="M52.18,-1229.58C66.65,-1219.66 87.54,-1205.35 109.28,-1190.44"/>
<polygon fill="gray" stroke="gray" stroke-width="0.2" points="111.13,-1193.42 117.4,-1184.87 107.17,-1187.64 111.13,-1193.42"/>
</g>
<!-- IL2 -->
<g id="node36" class="node">
<title>IL2</title>
<ellipse fill="none" stroke="black" cx="31.6" cy="-1164" rx="27" ry="18"/>
<text text-anchor="middle" x="31.6" y="-1158.58" font-family="Times New Roman,serif" font-size="14.00">IL2</text>
</g>
<!-- IL2&#45;&gt;RIC -->
<g id="edge53" class="edge">
<title>IL2&#45;&gt;RIC</title>
<path fill="none" stroke="red" stroke-width="2" d="M57.48,-1158.27C66.52,-1156.18 77.44,-1153.67 89.2,-1150.96"/>
<polygon fill="red" stroke="red" stroke-width="2" points="89.82,-1154.41 98.78,-1148.75 88.25,-1147.59 89.82,-1154.41"/>
</g>
<!-- PLN -->
<g id="node37" class="node">
<title>PLN</title>
<ellipse fill="none" stroke="black" cx="31.6" cy="-1085" rx="28.11" ry="18"/>
<text text-anchor="middle" x="31.6" y="-1079.58" font-family="Times New Roman,serif" font-size="14.00">PLN</text>
</g>
<!-- PLN&#45;&gt;RIC -->
<g id="edge54" class="edge">
<title>PLN&#45;&gt;RIC</title>
<path fill="none" stroke="gray" stroke-width="2" d="M58.59,-1090.84C67.35,-1092.8 77.76,-1095.14 88.94,-1097.66"/>
<polygon fill="gray" stroke="gray" stroke-width="2" points="87.86,-1101 98.38,-1099.78 89.39,-1094.17 87.86,-1101"/>
</g>
<!-- PVN -->
<g id="node38" class="node">
<title>PVN</title>
<ellipse fill="none" stroke="black" cx="31.6" cy="-1006" rx="29.11" ry="18"/>
<text text-anchor="middle" x="31.6" y="-1000.58" font-family="Times New Roman,serif" font-size="14.00">PVN</text>
</g>
<!-- PVN&#45;&gt;RIC -->
<g id="edge55" class="edge">
<title>PVN&#45;&gt;RIC</title>
<path fill="none" stroke="gray" stroke-width="0.2" d="M51.84,-1019.08C66.25,-1028.87 87.15,-1043.07 108.94,-1057.89"/>
<polygon fill="gray" stroke="gray" stroke-width="0.2" points="106.83,-1060.69 117.07,-1063.41 110.77,-1054.9 106.83,-1060.69"/>
</g>
<!-- PVP -->
<g id="node39" class="node">
<title>PVP</title>
<ellipse fill="none" stroke="black" cx="31.6" cy="-927" rx="28.11" ry="18"/>
<text text-anchor="middle" x="31.6" y="-921.58" font-family="Times New Roman,serif" font-size="14.00">PVP</text>
</g>
<!-- PVP&#45;&gt;RIC -->
<g id="edge56" class="edge">
<title>PVP&#45;&gt;RIC</title>
<path fill="none" stroke="gray" stroke-width="2" d="M46.23,-942.46C63.84,-962.44 95.91,-998.84 126.74,-1033.83"/>
<polygon fill="gray" stroke="gray" stroke-width="2" points="123.73,-1035.7 132.97,-1040.89 128.98,-1031.07 123.73,-1035.7"/>
</g>
<!-- PVR -->
<g id="node40" class="node">
<title>PVR</title>
<ellipse fill="none" stroke="black" cx="31.6" cy="-848" rx="29.11" ry="18"/>
<text text-anchor="middle" x="31.6" y="-842.58" font-family="Times New Roman,serif" font-size="14.00">PVR</text>
</g>
<!-- PVR&#45;&gt;RIC -->
<g id="edge57" class="edge">
<title>PVR&#45;&gt;RIC</title>
<path fill="none" stroke="blue" stroke-width="2" d="M45.05,-864.27C53.52,-875.34 63.21,-888 63.21,-888 63.21,-888 105.2,-957.3 143.67,-1020.8"/>
<polygon fill="blue" stroke="blue" stroke-width="2" points="140.56,-1022.41 148.74,-1029.15 146.55,-1018.79 140.56,-1022.41"/>
</g>
<!-- RIP -->
<g id="node41" class="node">
<title>RIP</title>
<ellipse fill="none" stroke="black" cx="31.6" cy="-769" rx="27" ry="18"/>
<text text-anchor="middle" x="31.6" y="-763.58" font-family="Times New Roman,serif" font-size="14.00">RIP</text>
</g>
<!-- RIP&#45;&gt;RIC -->
<g id="edge58" class="edge">
<title>RIP&#45;&gt;RIC</title>
<path fill="none" stroke="gray" stroke-width="0.2" d="M44.7,-784.81C53.25,-795.99 63.21,-809 63.21,-809 63.21,-809 115.91,-925.09 157.32,-1016.32"/>
<polygon fill="gray" stroke="gray" stroke-width="0.2" points="154.1,-1017.69 161.42,-1025.35 160.48,-1014.8 154.1,-1017.69"/>
</g>
<!-- SDQ -->
<g id="node42" class="node">
<title>SDQ</title>
<ellipse fill="none" stroke="black" cx="31.6" cy="-690" rx="29.61" ry="18"/>
<text text-anchor="middle" x="31.6" y="-684.58" font-family="Times New Roman,serif" font-size="14.00">SDQ</text>
</g>
<!-- SDQ&#45;&gt;RIC -->
<g id="edge59" class="edge">
<title>SDQ&#45;&gt;RIC</title>
<path fill="none" stroke="gray" stroke-width="5" d="M45.05,-706.27C53.52,-717.34 63.21,-730 63.21,-730 63.21,-730 121.76,-891.34 163.94,-1007.53"/>
<polygon fill="gray" stroke="gray" stroke-width="5" points="159.73,-1008.76 167.25,-1016.67 167.95,-1005.78 159.73,-1008.76"/>
</g>
</g>
</svg>
