<?xml version="1.0" encoding="UTF-8" standalone="no"?>
<!DOCTYPE svg PUBLIC "-//W3C//DTD SVG 1.1//EN"
 "http://www.w3.org/Graphics/SVG/1.1/DTD/svg11.dtd">
<!-- Generated by graphviz version 11.0.0 (20240428.1522)
 -->
<!-- Pages: 1 -->
<svg width="421pt" height="1466pt"
 viewBox="0.00 0.00 421.41 1466.00" xmlns="http://www.w3.org/2000/svg" xmlns:xlink="http://www.w3.org/1999/xlink">
<g id="graph0" class="graph" transform="scale(1 1) rotate(0) translate(4 1462)">
<polygon fill="white" stroke="none" points="-4,4 -4,-1462 417.41,-1462 417.41,4 -4,4"/>
<!-- RID -->
<g id="node1" class="node">
<title>RID</title>
<ellipse fill="none" stroke="black" cx="208.2" cy="-729" rx="108" ry="108"/>
<text text-anchor="middle" x="208.2" y="-710" font-family="Times New Roman,serif" font-size="50.00">RID</text>
</g>
<!-- FLP -->
<g id="node2" class="node">
<title>FLP</title>
<ellipse fill="none" stroke="black" cx="382.81" cy="-769" rx="27.11" ry="18"/>
<text text-anchor="middle" x="382.81" y="-763.58" font-family="Times New Roman,serif" font-size="14.00">FLP</text>
</g>
<!-- RID&#45;&gt;FLP -->
<g id="edge1" class="edge">
<title>RID&#45;&gt;FLP</title>
<path fill="none" stroke="gray" stroke-width="0.2" d="M313.59,-753.19C325.5,-755.95 336.93,-758.6 346.91,-760.91"/>
<polygon fill="gray" stroke="gray" stroke-width="0.2" points="345.92,-764.28 356.46,-763.12 347.5,-757.46 345.92,-764.28"/>
</g>
<!-- RME -->
<g id="node3" class="node">
<title>RME</title>
<ellipse fill="none" stroke="black" cx="382.81" cy="-690" rx="30.61" ry="18"/>
<text text-anchor="middle" x="382.81" y="-684.58" font-family="Times New Roman,serif" font-size="14.00">RME</text>
</g>
<!-- RID&#45;&gt;RME -->
<g id="edge2" class="edge">
<title>RID&#45;&gt;RME</title>
<path fill="none" stroke="gray" stroke-width="0.2" d="M313.59,-705.41C324.32,-702.99 334.66,-700.65 343.9,-698.56"/>
<polygon fill="gray" stroke="gray" stroke-width="0.2" points="344.56,-702 353.54,-696.39 343.02,-695.18 344.56,-702"/>
</g>
<!-- AIM -->
<g id="node4" class="node">
<title>AIM</title>
<ellipse fill="none" stroke="black" cx="32.1" cy="-1440" rx="28.11" ry="18"/>
<text text-anchor="middle" x="32.1" y="-1434.58" font-family="Times New Roman,serif" font-size="14.00">AIM</text>
</g>
<!-- AIM&#45;&gt;RID -->
<g id="edge3" class="edge">
<title>AIM&#45;&gt;RID</title>
<path fill="none" stroke="gray" stroke-width="0.2" d="M45.75,-1424.14C54.36,-1413.34 64.2,-1401 64.2,-1401 64.2,-1401 141.71,-1036.76 182.6,-844.6"/>
<polygon fill="gray" stroke="gray" stroke-width="0.2" points="185.98,-845.54 184.64,-835.04 179.14,-844.09 185.98,-845.54"/>
</g>
<!-- AIN -->
<g id="node5" class="node">
<title>AIN</title>
<ellipse fill="none" stroke="black" cx="32.1" cy="-1361" rx="27" ry="18"/>
<text text-anchor="middle" x="32.1" y="-1355.58" font-family="Times New Roman,serif" font-size="14.00">AIN</text>
</g>
<!-- AIN&#45;&gt;RID -->
<g id="edge4" class="edge">
<title>AIN&#45;&gt;RID</title>
<path fill="none" stroke="red" stroke-width="2" d="M45.75,-1345.14C54.36,-1334.34 64.2,-1322 64.2,-1322 64.2,-1322 137.19,-1019.33 178.88,-846.46"/>
<polygon fill="red" stroke="red" stroke-width="2" points="182.23,-847.48 181.18,-836.93 175.43,-845.84 182.23,-847.48"/>
</g>
<!-- AIZ -->
<g id="node6" class="node">
<title>AIZ</title>
<ellipse fill="none" stroke="black" cx="32.1" cy="-1282" rx="27" ry="18"/>
<text text-anchor="middle" x="32.1" y="-1276.58" font-family="Times New Roman,serif" font-size="14.00">AIZ</text>
</g>
<!-- AIZ&#45;&gt;RID -->
<g id="edge5" class="edge">
<title>AIZ&#45;&gt;RID</title>
<path fill="none" stroke="gray" stroke-width="0.2" d="M45.75,-1266.14C54.36,-1255.34 64.2,-1243 64.2,-1243 64.2,-1243 133.41,-994.25 175.53,-842.84"/>
<polygon fill="gray" stroke="gray" stroke-width="0.2" points="178.88,-843.88 178.18,-833.31 172.13,-842 178.88,-843.88"/>
</g>
<!-- ALM -->
<g id="node7" class="node">
<title>ALM</title>
<ellipse fill="none" stroke="black" cx="32.1" cy="-1203" rx="30.61" ry="18"/>
<text text-anchor="middle" x="32.1" y="-1197.58" font-family="Times New Roman,serif" font-size="14.00">ALM</text>
</g>
<!-- ALM&#45;&gt;RID -->
<g id="edge6" class="edge">
<title>ALM&#45;&gt;RID</title>
<path fill="none" stroke="gray" stroke-width="0.2" d="M46.11,-1186.69C54.63,-1176 64.2,-1164 64.2,-1164 64.2,-1164 127.99,-969.98 170.36,-841.09"/>
<polygon fill="gray" stroke="gray" stroke-width="0.2" points="173.6,-842.42 173.4,-831.83 166.95,-840.23 173.6,-842.42"/>
</g>
<!-- AVF -->
<g id="node8" class="node">
<title>AVF</title>
<ellipse fill="none" stroke="black" cx="32.1" cy="-1124" rx="29.11" ry="18"/>
<text text-anchor="middle" x="32.1" y="-1118.58" font-family="Times New Roman,serif" font-size="14.00">AVF</text>
</g>
<!-- AVF&#45;&gt;RID -->
<g id="edge7" class="edge">
<title>AVF&#45;&gt;RID</title>
<path fill="none" stroke="gray" stroke-width="0.2" d="M45.75,-1108.14C54.36,-1097.34 64.2,-1085 64.2,-1085 64.2,-1085 121.2,-943.1 163.23,-838.48"/>
<polygon fill="gray" stroke="gray" stroke-width="0.2" points="166.4,-839.98 166.88,-829.39 159.9,-837.37 166.4,-839.98"/>
</g>
<!-- AVJ -->
<g id="node9" class="node">
<title>AVJ</title>
<ellipse fill="none" stroke="black" cx="32.1" cy="-1045" rx="27.11" ry="18"/>
<text text-anchor="middle" x="32.1" y="-1039.58" font-family="Times New Roman,serif" font-size="14.00">AVJ</text>
</g>
<!-- AVJ&#45;&gt;RID -->
<g id="edge8" class="edge">
<title>AVJ&#45;&gt;RID</title>
<path fill="none" stroke="gray" stroke-width="0.2" d="M45.75,-1029.14C54.36,-1018.34 64.2,-1006 64.2,-1006 64.2,-1006 112.65,-912.15 153.15,-833.71"/>
<polygon fill="gray" stroke="gray" stroke-width="0.2" points="156.18,-835.48 157.65,-824.98 149.96,-832.26 156.18,-835.48"/>
</g>
<!-- AVM -->
<g id="node10" class="node">
<title>AVM</title>
<ellipse fill="none" stroke="black" cx="32.1" cy="-966" rx="31.6" ry="18"/>
<text text-anchor="middle" x="32.1" y="-960.58" font-family="Times New Roman,serif" font-size="14.00">AVM</text>
</g>
<!-- AVM&#45;&gt;RID -->
<g id="edge9" class="edge">
<title>AVM&#45;&gt;RID</title>
<path fill="none" stroke="gray" stroke-width="0.2" d="M46.11,-949.69C54.63,-939 64.2,-927 64.2,-927 64.2,-927 101.65,-875.16 138.21,-824.53"/>
<polygon fill="gray" stroke="gray" stroke-width="0.2" points="140.87,-826.82 143.89,-816.67 135.2,-822.73 140.87,-826.82"/>
</g>
<!-- BAG -->
<g id="node11" class="node">
<title>BAG</title>
<ellipse fill="none" stroke="black" cx="32.1" cy="-887" rx="30.11" ry="18"/>
<text text-anchor="middle" x="32.1" y="-881.58" font-family="Times New Roman,serif" font-size="14.00">BAG</text>
</g>
<!-- BAG&#45;&gt;RID -->
<g id="edge10" class="edge">
<title>BAG&#45;&gt;RID</title>
<path fill="none" stroke="gray" stroke-width="0.2" d="M49.48,-872.14C66.04,-857.11 92.97,-832.67 119.92,-808.21"/>
<polygon fill="gray" stroke="gray" stroke-width="0.2" points="122.24,-810.83 127.3,-801.52 117.54,-805.65 122.24,-810.83"/>
</g>
<!-- BDU -->
<g id="node12" class="node">
<title>BDU</title>
<ellipse fill="none" stroke="black" cx="32.1" cy="-808" rx="29.61" ry="18"/>
<text text-anchor="middle" x="32.1" y="-802.58" font-family="Times New Roman,serif" font-size="14.00">BDU</text>
</g>
<!-- BDU&#45;&gt;RID -->
<g id="edge11" class="edge">
<title>BDU&#45;&gt;RID</title>
<path fill="none" stroke="gray" stroke-width="2" d="M56.58,-797.35C67.93,-792.19 82.46,-785.6 97.99,-778.56"/>
<polygon fill="gray" stroke="gray" stroke-width="2" points="99.03,-781.93 106.69,-774.61 96.14,-775.55 99.03,-781.93"/>
</g>
<!-- DVC -->
<g id="node13" class="node">
<title>DVC</title>
<ellipse fill="none" stroke="black" cx="32.1" cy="-729" rx="30.11" ry="18"/>
<text text-anchor="middle" x="32.1" y="-723.58" font-family="Times New Roman,serif" font-size="14.00">DVC</text>
</g>
<!-- DVC&#45;&gt;RID -->
<g id="edge12" class="edge">
<title>DVC&#45;&gt;RID</title>
<path fill="none" stroke="gray" stroke-width="0.2" d="M62.64,-729C70.71,-729 79.98,-729 89.85,-729"/>
<polygon fill="gray" stroke="gray" stroke-width="0.2" points="89.59,-732.5 99.59,-729 89.59,-725.5 89.59,-732.5"/>
</g>
<!-- PLN -->
<g id="node14" class="node">
<title>PLN</title>
<ellipse fill="none" stroke="black" cx="32.1" cy="-650" rx="28.11" ry="18"/>
<text text-anchor="middle" x="32.1" y="-644.58" font-family="Times New Roman,serif" font-size="14.00">PLN</text>
</g>
<!-- PLN&#45;&gt;RID -->
<g id="edge13" class="edge">
<title>PLN&#45;&gt;RID</title>
<path fill="none" stroke="gray" stroke-width="0.2" d="M55.51,-660.17C67.63,-665.67 83.58,-672.91 100.59,-680.62"/>
<polygon fill="gray" stroke="gray" stroke-width="0.2" points="98.73,-683.62 109.28,-684.57 101.62,-677.25 98.73,-683.62"/>
</g>
<!-- PVC -->
<g id="node15" class="node">
<title>PVC</title>
<ellipse fill="none" stroke="black" cx="32.1" cy="-571" rx="29.11" ry="18"/>
<text text-anchor="middle" x="32.1" y="-565.58" font-family="Times New Roman,serif" font-size="14.00">PVC</text>
</g>
<!-- PVC&#45;&gt;RID -->
<g id="edge14" class="edge">
<title>PVC&#45;&gt;RID</title>
<path fill="none" stroke="gray" stroke-width="5" d="M49.48,-585.86C65.19,-600.12 90.23,-622.85 115.78,-646.03"/>
<polygon fill="gray" stroke="gray" stroke-width="5" points="112.56,-649.01 122.9,-652.49 118.44,-642.53 112.56,-649.01"/>
</g>
<!-- PVD -->
<g id="node16" class="node">
<title>PVD</title>
<ellipse fill="none" stroke="black" cx="32.1" cy="-492" rx="29.11" ry="18"/>
<text text-anchor="middle" x="32.1" y="-486.57" font-family="Times New Roman,serif" font-size="14.00">PVD</text>
</g>
<!-- PVD&#45;&gt;RID -->
<g id="edge15" class="edge">
<title>PVD&#45;&gt;RID</title>
<path fill="none" stroke="gray" stroke-width="0.2" d="M45.75,-508.27C54.36,-519.34 64.2,-532 64.2,-532 64.2,-532 101.51,-583.39 138.01,-633.68"/>
<polygon fill="gray" stroke="gray" stroke-width="0.2" points="134.97,-635.45 143.68,-641.49 140.64,-631.34 134.97,-635.45"/>
</g>
<!-- PVP -->
<g id="node17" class="node">
<title>PVP</title>
<ellipse fill="none" stroke="black" cx="32.1" cy="-413" rx="28.11" ry="18"/>
<text text-anchor="middle" x="32.1" y="-407.57" font-family="Times New Roman,serif" font-size="14.00">PVP</text>
</g>
<!-- PVP&#45;&gt;RID -->
<g id="edge16" class="edge">
<title>PVP&#45;&gt;RID</title>
<path fill="none" stroke="gray" stroke-width="0.2" d="M45.39,-428.81C54.09,-439.99 64.2,-453 64.2,-453 64.2,-453 112.5,-546.21 152.95,-624.29"/>
<polygon fill="gray" stroke="gray" stroke-width="0.2" points="149.74,-625.71 157.45,-632.97 155.96,-622.49 149.74,-625.71"/>
</g>
<!-- RMG -->
<g id="node18" class="node">
<title>RMG</title>
<ellipse fill="none" stroke="black" cx="32.1" cy="-334" rx="32.1" ry="18"/>
<text text-anchor="middle" x="32.1" y="-328.57" font-family="Times New Roman,serif" font-size="14.00">RMG</text>
</g>
<!-- RMG&#45;&gt;RID -->
<g id="edge17" class="edge">
<title>RMG&#45;&gt;RID</title>
<path fill="none" stroke="gray" stroke-width="0.2" d="M45.75,-350.27C54.36,-361.34 64.2,-374 64.2,-374 64.2,-374 121.2,-515.5 163.23,-619.83"/>
<polygon fill="gray" stroke="gray" stroke-width="0.2" points="159.89,-620.92 166.88,-628.89 166.39,-618.3 159.89,-620.92"/>
</g>
<!-- RMH -->
<g id="node19" class="node">
<title>RMH</title>
<ellipse fill="none" stroke="black" cx="32.1" cy="-255" rx="31.6" ry="18"/>
<text text-anchor="middle" x="32.1" y="-249.57" font-family="Times New Roman,serif" font-size="14.00">RMH</text>
</g>
<!-- RMH&#45;&gt;RID -->
<g id="edge18" class="edge">
<title>RMH&#45;&gt;RID</title>
<path fill="none" stroke="gray" stroke-width="0.2" d="M45.75,-271.27C54.36,-282.34 64.2,-295 64.2,-295 64.2,-295 127.9,-488.3 170.27,-616.89"/>
<polygon fill="gray" stroke="gray" stroke-width="0.2" points="166.86,-617.73 173.31,-626.14 173.51,-615.54 166.86,-617.73"/>
</g>
<!-- SIB -->
<g id="node20" class="node">
<title>SIB</title>
<ellipse fill="none" stroke="black" cx="32.1" cy="-176" rx="27" ry="18"/>
<text text-anchor="middle" x="32.1" y="-170.57" font-family="Times New Roman,serif" font-size="14.00">SIB</text>
</g>
<!-- SIB&#45;&gt;RID -->
<g id="edge19" class="edge">
<title>SIB&#45;&gt;RID</title>
<path fill="none" stroke="gray" stroke-width="0.2" d="M45.39,-191.81C54.09,-202.99 64.2,-216 64.2,-216 64.2,-216 133.31,-463.92 175.44,-615.07"/>
<polygon fill="gray" stroke="gray" stroke-width="0.2" points="172.04,-615.89 178.1,-624.59 178.78,-614.01 172.04,-615.89"/>
</g>
<!-- URX -->
<g id="node21" class="node">
<title>URX</title>
<ellipse fill="none" stroke="black" cx="32.1" cy="-97" rx="30.11" ry="18"/>
<text text-anchor="middle" x="32.1" y="-91.58" font-family="Times New Roman,serif" font-size="14.00">URX</text>
</g>
<!-- URX&#45;&gt;RID -->
<g id="edge20" class="edge">
<title>URX&#45;&gt;RID</title>
<path fill="none" stroke="gray" stroke-width="0.2" d="M45.75,-113.27C54.36,-124.34 64.2,-137 64.2,-137 64.2,-137 137.82,-441.78 179.42,-613.97"/>
<polygon fill="gray" stroke="gray" stroke-width="0.2" points="175.98,-614.65 181.73,-623.55 182.79,-613.01 175.98,-614.65"/>
</g>
<!-- URY -->
<g id="node22" class="node">
<title>URY</title>
<ellipse fill="none" stroke="black" cx="32.1" cy="-18" rx="30.11" ry="18"/>
<text text-anchor="middle" x="32.1" y="-12.57" font-family="Times New Roman,serif" font-size="14.00">URY</text>
</g>
<!-- URY&#45;&gt;RID -->
<g id="edge21" class="edge">
<title>URY&#45;&gt;RID</title>
<path fill="none" stroke="gray" stroke-width="2" d="M45.75,-34.27C54.36,-45.34 64.2,-58 64.2,-58 64.2,-58 140.95,-418.09 181.99,-610.7"/>
<polygon fill="gray" stroke="gray" stroke-width="2" points="178.56,-611.41 184.07,-620.46 185.41,-609.95 178.56,-611.41"/>
</g>
</g>
</svg>
