<?xml version="1.0" encoding="UTF-8" standalone="no"?>
<!DOCTYPE svg PUBLIC "-//W3C//DTD SVG 1.1//EN"
 "http://www.w3.org/Graphics/SVG/1.1/DTD/svg11.dtd">
<!-- Generated by graphviz version 11.0.0 (20240428.1522)
 -->
<!-- Pages: 1 -->
<svg width="425pt" height="2493pt"
 viewBox="0.00 0.00 425.41 2493.00" xmlns="http://www.w3.org/2000/svg" xmlns:xlink="http://www.w3.org/1999/xlink">
<g id="graph0" class="graph" transform="scale(1 1) rotate(0) translate(4 2489)">
<polygon fill="white" stroke="none" points="-4,4 -4,-2489 421.41,-2489 421.41,4 -4,4"/>
<!-- RIF -->
<g id="node1" class="node">
<title>RIF</title>
<ellipse fill="none" stroke="black" cx="209.2" cy="-1203" rx="108" ry="108"/>
<text text-anchor="middle" x="209.2" y="-1184" font-family="Times New Roman,serif" font-size="50.00">RIF</text>
</g>
<!-- RIF&#45;&gt;RIF -->
<g id="edge1" class="edge">
<title>RIF&#45;&gt;RIF</title>
<path fill="none" stroke="gray" stroke-width="0.2" d="M176.5,-1306.39C178.44,-1333.51 189.34,-1354 209.2,-1354 226.5,-1354 237.01,-1338.45 240.71,-1316.52"/>
<polygon fill="gray" stroke="gray" stroke-width="0.2" points="244.17,-1317.04 241.87,-1306.69 237.22,-1316.21 244.17,-1317.04"/>
</g>
<!-- ADA -->
<g id="node2" class="node">
<title>ADA</title>
<ellipse fill="none" stroke="black" cx="385.3" cy="-2467" rx="30.11" ry="18"/>
<text text-anchor="middle" x="385.3" y="-2461.57" font-family="Times New Roman,serif" font-size="14.00">ADA</text>
</g>
<!-- RIF&#45;&gt;ADA -->
<g id="edge2" class="edge">
<title>RIF&#45;&gt;ADA</title>
<path fill="none" stroke="gray" stroke-width="2" d="M223.91,-1310.32C259.71,-1605.57 353.2,-2406.5 353.2,-2406.5 353.2,-2406.5 364.99,-2421.29 374.06,-2437.67"/>
<polygon fill="gray" stroke="gray" stroke-width="2" points="370.8,-2438.98 378.37,-2446.39 377.07,-2435.87 370.8,-2438.98"/>
</g>
<!-- ADL -->
<g id="node3" class="node">
<title>ADL</title>
<ellipse fill="none" stroke="black" cx="385.3" cy="-2388" rx="29.11" ry="18"/>
<text text-anchor="middle" x="385.3" y="-2382.57" font-family="Times New Roman,serif" font-size="14.00">ADL</text>
</g>
<!-- RIF&#45;&gt;ADL -->
<g id="edge3" class="edge">
<title>RIF&#45;&gt;ADL</title>
<path fill="none" stroke="gray" stroke-width="0.2" d="M224.9,-1310.35C261.39,-1591.73 353.2,-2327.5 353.2,-2327.5 353.2,-2327.5 366.15,-2343.74 375.34,-2361.04"/>
<polygon fill="gray" stroke="gray" stroke-width="0.2" points="372.09,-2362.34 379.58,-2369.83 378.39,-2359.3 372.09,-2362.34"/>
</g>
<!-- AIA -->
<g id="node4" class="node">
<title>AIA</title>
<ellipse fill="none" stroke="black" cx="385.3" cy="-2309" rx="27" ry="18"/>
<text text-anchor="middle" x="385.3" y="-2303.57" font-family="Times New Roman,serif" font-size="14.00">AIA</text>
</g>
<!-- RIF&#45;&gt;AIA -->
<g id="edge4" class="edge">
<title>RIF&#45;&gt;AIA</title>
<path fill="none" stroke="gray" stroke-width="0.2" d="M225.98,-1309.99C263.17,-1576.74 353.2,-2248.5 353.2,-2248.5 353.2,-2248.5 366.15,-2264.74 375.34,-2282.04"/>
<polygon fill="gray" stroke="gray" stroke-width="0.2" points="372.09,-2283.34 379.58,-2290.83 378.39,-2280.3 372.09,-2283.34"/>
</g>
<!-- AIB -->
<g id="node5" class="node">
<title>AIB</title>
<ellipse fill="none" stroke="black" cx="385.3" cy="-2230" rx="27" ry="18"/>
<text text-anchor="middle" x="385.3" y="-2224.57" font-family="Times New Roman,serif" font-size="14.00">AIB</text>
</g>
<!-- RIF&#45;&gt;AIB -->
<g id="edge5" class="edge">
<title>RIF&#45;&gt;AIB</title>
<path fill="none" stroke="gray" stroke-width="0.2" d="M227.24,-1309.59C265.16,-1561.18 353.2,-2169.5 353.2,-2169.5 353.2,-2169.5 366.15,-2185.74 375.34,-2203.04"/>
<polygon fill="gray" stroke="gray" stroke-width="0.2" points="372.09,-2204.34 379.58,-2211.83 378.39,-2201.3 372.09,-2204.34"/>
</g>
<!-- AIM -->
<g id="node6" class="node">
<title>AIM</title>
<ellipse fill="none" stroke="black" cx="385.3" cy="-2151" rx="28.11" ry="18"/>
<text text-anchor="middle" x="385.3" y="-2145.57" font-family="Times New Roman,serif" font-size="14.00">AIM</text>
</g>
<!-- RIF&#45;&gt;AIM -->
<g id="edge6" class="edge">
<title>RIF&#45;&gt;AIM</title>
<path fill="none" stroke="gray" stroke-width="0.2" d="M228.75,-1309.39C267.44,-1545.36 353.2,-2090.5 353.2,-2090.5 353.2,-2090.5 366.15,-2106.74 375.34,-2124.04"/>
<polygon fill="gray" stroke="gray" stroke-width="0.2" points="372.09,-2125.34 379.58,-2132.83 378.39,-2122.3 372.09,-2125.34"/>
</g>
<!-- AIZ -->
<g id="node7" class="node">
<title>AIZ</title>
<ellipse fill="none" stroke="black" cx="385.3" cy="-2072" rx="27" ry="18"/>
<text text-anchor="middle" x="385.3" y="-2066.57" font-family="Times New Roman,serif" font-size="14.00">AIZ</text>
</g>
<!-- RIF&#45;&gt;AIZ -->
<g id="edge7" class="edge">
<title>RIF&#45;&gt;AIZ</title>
<path fill="none" stroke="gray" stroke-width="0.2" d="M228.53,-1309.39C267.12,-1533.35 353.2,-2033 353.2,-2033 353.2,-2033 358.85,-2040.09 365.34,-2048.22"/>
<polygon fill="gray" stroke="gray" stroke-width="0.2" points="362.49,-2050.26 371.47,-2055.9 367.97,-2045.9 362.49,-2050.26"/>
</g>
<!-- ALM -->
<g id="node8" class="node">
<title>ALM</title>
<ellipse fill="none" stroke="black" cx="385.3" cy="-1993" rx="30.61" ry="18"/>
<text text-anchor="middle" x="385.3" y="-1987.58" font-family="Times New Roman,serif" font-size="14.00">ALM</text>
</g>
<!-- RIF&#45;&gt;ALM -->
<g id="edge8" class="edge">
<title>RIF&#45;&gt;ALM</title>
<path fill="none" stroke="gray" stroke-width="2" d="M232.7,-1308.7C272.97,-1511.16 353.2,-1932.5 353.2,-1932.5 353.2,-1932.5 364.99,-1947.29 374.06,-1963.67"/>
<polygon fill="gray" stroke="gray" stroke-width="2" points="370.8,-1964.98 378.37,-1972.39 377.07,-1961.87 370.8,-1964.98"/>
</g>
<!-- AQR -->
<g id="node9" class="node">
<title>AQR</title>
<ellipse fill="none" stroke="black" cx="385.3" cy="-1914" rx="30.61" ry="18"/>
<text text-anchor="middle" x="385.3" y="-1908.58" font-family="Times New Roman,serif" font-size="14.00">AQR</text>
</g>
<!-- RIF&#45;&gt;AQR -->
<g id="edge9" class="edge">
<title>RIF&#45;&gt;AQR</title>
<path fill="none" stroke="gray" stroke-width="0.2" d="M232.7,-1308.74C272.97,-1497.98 353.2,-1875 353.2,-1875 353.2,-1875 358.58,-1881.75 364.87,-1889.63"/>
<polygon fill="gray" stroke="gray" stroke-width="0.2" points="362.13,-1891.81 371.11,-1897.45 367.61,-1887.45 362.13,-1891.81"/>
</g>
<!-- ASG -->
<g id="node10" class="node">
<title>ASG</title>
<ellipse fill="none" stroke="black" cx="385.3" cy="-1835" rx="29.61" ry="18"/>
<text text-anchor="middle" x="385.3" y="-1829.58" font-family="Times New Roman,serif" font-size="14.00">ASG</text>
</g>
<!-- RIF&#45;&gt;ASG -->
<g id="edge10" class="edge">
<title>RIF&#45;&gt;ASG</title>
<path fill="none" stroke="gray" stroke-width="0.2" d="M235.52,-1307.99C276.59,-1478.31 353.2,-1796 353.2,-1796 353.2,-1796 358.58,-1802.75 364.87,-1810.63"/>
<polygon fill="gray" stroke="gray" stroke-width="0.2" points="362.13,-1812.81 371.11,-1818.45 367.61,-1808.45 362.13,-1812.81"/>
</g>
<!-- ASH -->
<g id="node11" class="node">
<title>ASH</title>
<ellipse fill="none" stroke="black" cx="385.3" cy="-1756" rx="29.11" ry="18"/>
<text text-anchor="middle" x="385.3" y="-1750.58" font-family="Times New Roman,serif" font-size="14.00">ASH</text>
</g>
<!-- RIF&#45;&gt;ASH -->
<g id="edge11" class="edge">
<title>RIF&#45;&gt;ASH</title>
<path fill="none" stroke="red" stroke-width="2" d="M242.83,-1305.85C285.03,-1450.48 353.2,-1695.5 353.2,-1695.5 353.2,-1695.5 364.99,-1710.29 374.06,-1726.67"/>
<polygon fill="red" stroke="red" stroke-width="2" points="370.8,-1727.98 378.37,-1735.39 377.07,-1724.87 370.8,-1727.98"/>
</g>
<!-- AVA -->
<g id="node12" class="node">
<title>AVA</title>
<ellipse fill="none" stroke="black" cx="385.3" cy="-1677" rx="30.11" ry="18"/>
<text text-anchor="middle" x="385.3" y="-1671.58" font-family="Times New Roman,serif" font-size="14.00">AVA</text>
</g>
<!-- RIF&#45;&gt;AVA -->
<g id="edge12" class="edge">
<title>RIF&#45;&gt;AVA</title>
<path fill="none" stroke="gray" stroke-width="0.2" d="M243.91,-1305.54C286.19,-1434.14 353.2,-1638 353.2,-1638 353.2,-1638 358.58,-1644.75 364.87,-1652.63"/>
<polygon fill="gray" stroke="gray" stroke-width="0.2" points="362.13,-1654.81 371.11,-1660.45 367.61,-1650.45 362.13,-1654.81"/>
</g>
<!-- AVB -->
<g id="node13" class="node">
<title>AVB</title>
<ellipse fill="none" stroke="black" cx="385.3" cy="-1598" rx="29.61" ry="18"/>
<text text-anchor="middle" x="385.3" y="-1592.58" font-family="Times New Roman,serif" font-size="14.00">AVB</text>
</g>
<!-- RIF&#45;&gt;AVB -->
<g id="edge13" class="edge">
<title>RIF&#45;&gt;AVB</title>
<path fill="none" stroke="black" stroke-width="5" d="M250.42,-1303.11C292.71,-1408.41 353.2,-1559 353.2,-1559 353.2,-1559 356.76,-1563.46 361.46,-1569.36"/>
<polygon fill="black" stroke="black" stroke-width="5" points="357.75,-1571.72 367.41,-1576.81 364.59,-1566.26 357.75,-1571.72"/>
</g>
<!-- AVD -->
<g id="node14" class="node">
<title>AVD</title>
<ellipse fill="none" stroke="black" cx="385.3" cy="-1519" rx="30.11" ry="18"/>
<text text-anchor="middle" x="385.3" y="-1513.58" font-family="Times New Roman,serif" font-size="14.00">AVD</text>
</g>
<!-- RIF&#45;&gt;AVD -->
<g id="edge14" class="edge">
<title>RIF&#45;&gt;AVD</title>
<path fill="none" stroke="gray" stroke-width="2" d="M259.61,-1298.72C300.95,-1378.78 353.2,-1480 353.2,-1480 353.2,-1480 357.73,-1485.67 363.32,-1492.69"/>
<polygon fill="gray" stroke="gray" stroke-width="2" points="360.44,-1494.68 369.41,-1500.32 365.91,-1490.32 360.44,-1494.68"/>
</g>
<!-- AVE -->
<g id="node15" class="node">
<title>AVE</title>
<ellipse fill="none" stroke="black" cx="385.3" cy="-1440" rx="29.11" ry="18"/>
<text text-anchor="middle" x="385.3" y="-1434.58" font-family="Times New Roman,serif" font-size="14.00">AVE</text>
</g>
<!-- RIF&#45;&gt;AVE -->
<g id="edge15" class="edge">
<title>RIF&#45;&gt;AVE</title>
<path fill="none" stroke="gray" stroke-width="2" d="M281.91,-1283.46C317.59,-1330.19 353.2,-1379.5 353.2,-1379.5 353.2,-1379.5 364.99,-1394.29 374.06,-1410.67"/>
<polygon fill="gray" stroke="gray" stroke-width="2" points="370.8,-1411.98 378.37,-1419.39 377.07,-1408.87 370.8,-1411.98"/>
</g>
<!-- AVF -->
<g id="node16" class="node">
<title>AVF</title>
<ellipse fill="none" stroke="black" cx="385.3" cy="-1361" rx="29.11" ry="18"/>
<text text-anchor="middle" x="385.3" y="-1355.58" font-family="Times New Roman,serif" font-size="14.00">AVF</text>
</g>
<!-- RIF&#45;&gt;AVF -->
<g id="edge16" class="edge">
<title>RIF&#45;&gt;AVF</title>
<path fill="none" stroke="gray" stroke-width="2" d="M297.25,-1265.88C323.36,-1289.57 349.47,-1315.2 366.19,-1334.23"/>
<polygon fill="gray" stroke="gray" stroke-width="2" points="363.39,-1336.35 372.5,-1341.76 368.75,-1331.85 363.39,-1336.35"/>
</g>
<!-- AVH -->
<g id="node17" class="node">
<title>AVH</title>
<ellipse fill="none" stroke="black" cx="385.3" cy="-1282" rx="30.11" ry="18"/>
<text text-anchor="middle" x="385.3" y="-1276.58" font-family="Times New Roman,serif" font-size="14.00">AVH</text>
</g>
<!-- RIF&#45;&gt;AVH -->
<g id="edge17" class="edge">
<title>RIF&#45;&gt;AVH</title>
<path fill="none" stroke="red" stroke-width="2" d="M312.99,-1233.75C330.24,-1242.1 346.63,-1250.93 359.34,-1258.96"/>
<polygon fill="red" stroke="red" stroke-width="2" points="357.14,-1261.7 367.39,-1264.38 361.05,-1255.89 357.14,-1261.7"/>
</g>
<!-- AVJ -->
<g id="node18" class="node">
<title>AVJ</title>
<ellipse fill="none" stroke="black" cx="385.3" cy="-1203" rx="27.11" ry="18"/>
<text text-anchor="middle" x="385.3" y="-1197.58" font-family="Times New Roman,serif" font-size="14.00">AVJ</text>
</g>
<!-- RIF&#45;&gt;AVJ -->
<g id="edge18" class="edge">
<title>RIF&#45;&gt;AVJ</title>
<path fill="none" stroke="black" stroke-width="5" d="M316.49,-1187.23C327.42,-1187.64 337.92,-1188.4 347.25,-1189.52"/>
<polygon fill="black" stroke="black" stroke-width="5" points="346.39,-1193.81 356.95,-1191.04 347.75,-1185.17 346.39,-1193.81"/>
</g>
<!-- AWB -->
<g id="node19" class="node">
<title>AWB</title>
<ellipse fill="none" stroke="black" cx="385.3" cy="-1124" rx="32.1" ry="18"/>
<text text-anchor="middle" x="385.3" y="-1118.58" font-family="Times New Roman,serif" font-size="14.00">AWB</text>
</g>
<!-- RIF&#45;&gt;AWB -->
<g id="edge19" class="edge">
<title>RIF&#45;&gt;AWB</title>
<path fill="none" stroke="gray" stroke-width="5" d="M301.08,-1145.65C313.74,-1140 326.3,-1134.85 337.67,-1130.69"/>
<polygon fill="gray" stroke="gray" stroke-width="5" points="338.89,-1134.9 346.95,-1127.53 336.07,-1126.61 338.89,-1134.9"/>
</g>
<!-- BDU -->
<g id="node20" class="node">
<title>BDU</title>
<ellipse fill="none" stroke="black" cx="385.3" cy="-1045" rx="29.61" ry="18"/>
<text text-anchor="middle" x="385.3" y="-1039.58" font-family="Times New Roman,serif" font-size="14.00">BDU</text>
</g>
<!-- RIF&#45;&gt;BDU -->
<g id="edge20" class="edge">
<title>RIF&#45;&gt;BDU</title>
<path fill="none" stroke="gray" stroke-width="0.2" d="M281.52,-1122.39C306.17,-1099.27 332.56,-1076.35 352.43,-1061.12"/>
<polygon fill="gray" stroke="gray" stroke-width="0.2" points="354.35,-1064.05 360.28,-1055.27 350.17,-1058.44 354.35,-1064.05"/>
</g>
<!-- CEP -->
<g id="node21" class="node">
<title>CEP</title>
<ellipse fill="none" stroke="black" cx="385.3" cy="-966" rx="28.11" ry="18"/>
<text text-anchor="middle" x="385.3" y="-960.58" font-family="Times New Roman,serif" font-size="14.00">CEP</text>
</g>
<!-- RIF&#45;&gt;CEP -->
<g id="edge21" class="edge">
<title>RIF&#45;&gt;CEP</title>
<path fill="none" stroke="gray" stroke-width="0.2" d="M264.88,-1109.97C305.25,-1049.9 353.2,-983.5 353.2,-983.5 353.2,-983.5 353.39,-983.26 353.74,-982.83"/>
<polygon fill="gray" stroke="gray" stroke-width="0.2" points="356.33,-985.19 360.22,-975.34 351.03,-980.62 356.33,-985.19"/>
</g>
<!-- DVA -->
<g id="node22" class="node">
<title>DVA</title>
<ellipse fill="none" stroke="black" cx="385.3" cy="-887" rx="30.11" ry="18"/>
<text text-anchor="middle" x="385.3" y="-881.58" font-family="Times New Roman,serif" font-size="14.00">DVA</text>
</g>
<!-- RIF&#45;&gt;DVA -->
<g id="edge22" class="edge">
<title>RIF&#45;&gt;DVA</title>
<path fill="none" stroke="gray" stroke-width="0.2" d="M259.61,-1107.28C300.95,-1027.22 353.2,-926 353.2,-926 353.2,-926 358.58,-919.25 364.87,-911.37"/>
<polygon fill="gray" stroke="gray" stroke-width="0.2" points="367.61,-913.55 371.11,-903.55 362.13,-909.19 367.61,-913.55"/>
</g>
<!-- HSN -->
<g id="node23" class="node">
<title>HSN</title>
<ellipse fill="none" stroke="black" cx="385.3" cy="-808" rx="29.11" ry="18"/>
<text text-anchor="middle" x="385.3" y="-802.58" font-family="Times New Roman,serif" font-size="14.00">HSN</text>
</g>
<!-- RIF&#45;&gt;HSN -->
<g id="edge23" class="edge">
<title>RIF&#45;&gt;HSN</title>
<path fill="none" stroke="red" stroke-width="2" d="M245.18,-1101.11C281.73,-1004.34 335.68,-869.25 354.19,-828.94"/>
<polygon fill="red" stroke="red" stroke-width="2" points="357.25,-830.64 358.72,-820.14 351.03,-827.43 357.25,-830.64"/>
</g>
<!-- PVC -->
<g id="node24" class="node">
<title>PVC</title>
<ellipse fill="none" stroke="black" cx="385.3" cy="-729" rx="29.11" ry="18"/>
<text text-anchor="middle" x="385.3" y="-723.58" font-family="Times New Roman,serif" font-size="14.00">PVC</text>
</g>
<!-- RIF&#45;&gt;PVC -->
<g id="edge24" class="edge">
<title>RIF&#45;&gt;PVC</title>
<path fill="none" stroke="gray" stroke-width="2" d="M239.83,-1098.97C276.65,-980.3 336.32,-797.96 354.92,-750.07"/>
<polygon fill="gray" stroke="gray" stroke-width="2" points="357.99,-751.78 358.87,-741.22 351.6,-748.92 357.99,-751.78"/>
</g>
<!-- PVN -->
<g id="node25" class="node">
<title>PVN</title>
<ellipse fill="none" stroke="black" cx="385.3" cy="-650" rx="29.11" ry="18"/>
<text text-anchor="middle" x="385.3" y="-644.58" font-family="Times New Roman,serif" font-size="14.00">PVN</text>
</g>
<!-- RIF&#45;&gt;PVN -->
<g id="edge25" class="edge">
<title>RIF&#45;&gt;PVN</title>
<path fill="none" stroke="gray" stroke-width="0.2" d="M235.77,-1097.99C276.9,-941.76 353.2,-667.5 353.2,-667.5 353.2,-667.5 353.38,-667.27 353.72,-666.87"/>
<polygon fill="gray" stroke="gray" stroke-width="0.2" points="356.03,-669.54 359.91,-659.68 350.73,-664.97 356.03,-669.54"/>
</g>
<!-- PVP -->
<g id="node26" class="node">
<title>PVP</title>
<ellipse fill="none" stroke="black" cx="385.3" cy="-571" rx="28.11" ry="18"/>
<text text-anchor="middle" x="385.3" y="-565.58" font-family="Times New Roman,serif" font-size="14.00">PVP</text>
</g>
<!-- RIF&#45;&gt;PVP -->
<g id="edge26" class="edge">
<title>RIF&#45;&gt;PVP</title>
<path fill="none" stroke="red" stroke-width="5" d="M232.7,-1097.23C268.33,-941.48 335.24,-663.1 355.19,-595.19"/>
<polygon fill="red" stroke="red" stroke-width="5" points="359.23,-596.89 358.37,-586 350.96,-594.02 359.23,-596.89"/>
</g>
<!-- RIA -->
<g id="node27" class="node">
<title>RIA</title>
<ellipse fill="none" stroke="black" cx="385.3" cy="-492" rx="27" ry="18"/>
<text text-anchor="middle" x="385.3" y="-486.57" font-family="Times New Roman,serif" font-size="14.00">RIA</text>
</g>
<!-- RIF&#45;&gt;RIA -->
<g id="edge27" class="edge">
<title>RIF&#45;&gt;RIA</title>
<path fill="none" stroke="gray" stroke-width="0.2" d="M232.7,-1097.26C272.97,-908.02 353.2,-531 353.2,-531 353.2,-531 358.85,-523.91 365.34,-515.78"/>
<polygon fill="gray" stroke="gray" stroke-width="0.2" points="367.97,-518.1 371.47,-508.1 362.49,-513.74 367.97,-518.1"/>
</g>
<!-- RIM -->
<g id="node28" class="node">
<title>RIM</title>
<ellipse fill="none" stroke="black" cx="385.3" cy="-413" rx="28.11" ry="18"/>
<text text-anchor="middle" x="385.3" y="-407.57" font-family="Times New Roman,serif" font-size="14.00">RIM</text>
</g>
<!-- RIF&#45;&gt;RIM -->
<g id="edge28" class="edge">
<title>RIF&#45;&gt;RIM</title>
<path fill="none" stroke="gray" stroke-width="5" d="M228.31,-1096.48C262.92,-905.64 336.3,-519.35 355.96,-437.46"/>
<polygon fill="gray" stroke="gray" stroke-width="5" points="360.1,-438.92 358.68,-428.1 351.69,-436.49 360.1,-438.92"/>
</g>
<!-- RIP -->
<g id="node29" class="node">
<title>RIP</title>
<ellipse fill="none" stroke="black" cx="385.3" cy="-334" rx="27" ry="18"/>
<text text-anchor="middle" x="385.3" y="-328.57" font-family="Times New Roman,serif" font-size="14.00">RIP</text>
</g>
<!-- RIF&#45;&gt;RIP -->
<g id="edge29" class="edge">
<title>RIF&#45;&gt;RIP</title>
<path fill="none" stroke="gray" stroke-width="0.2" d="M228.53,-1096.61C267.12,-872.65 353.2,-373 353.2,-373 353.2,-373 358.85,-365.91 365.34,-357.78"/>
<polygon fill="gray" stroke="gray" stroke-width="0.2" points="367.97,-360.1 371.47,-350.1 362.49,-355.74 367.97,-360.1"/>
</g>
<!-- RMG -->
<g id="node30" class="node">
<title>RMG</title>
<ellipse fill="none" stroke="black" cx="385.3" cy="-255" rx="32.1" ry="18"/>
<text text-anchor="middle" x="385.3" y="-249.57" font-family="Times New Roman,serif" font-size="14.00">RMG</text>
</g>
<!-- RIF&#45;&gt;RMG -->
<g id="edge30" class="edge">
<title>RIF&#45;&gt;RMG</title>
<path fill="none" stroke="gray" stroke-width="0.2" d="M225.37,-1096C259.55,-868.6 340.5,-353.31 356.44,-275.61"/>
<polygon fill="gray" stroke="gray" stroke-width="0.2" points="359.79,-276.63 358.83,-266.08 353,-274.92 359.79,-276.63"/>
</g>
<!-- SIA -->
<g id="node31" class="node">
<title>SIA</title>
<ellipse fill="none" stroke="black" cx="385.3" cy="-176" rx="27" ry="18"/>
<text text-anchor="middle" x="385.3" y="-170.57" font-family="Times New Roman,serif" font-size="14.00">SIA</text>
</g>
<!-- RIF&#45;&gt;SIA -->
<g id="edge31" class="edge">
<title>RIF&#45;&gt;SIA</title>
<path fill="none" stroke="gray" stroke-width="2" d="M225.71,-1095.86C262.73,-840.09 353.2,-215 353.2,-215 353.2,-215 357.85,-209.17 363.56,-202.01"/>
<polygon fill="gray" stroke="gray" stroke-width="2" points="366.27,-204.23 369.77,-194.23 360.79,-199.87 366.27,-204.23"/>
</g>
<!-- URX -->
<g id="node32" class="node">
<title>URX</title>
<ellipse fill="none" stroke="black" cx="385.3" cy="-97" rx="30.11" ry="18"/>
<text text-anchor="middle" x="385.3" y="-91.58" font-family="Times New Roman,serif" font-size="14.00">URX</text>
</g>
<!-- RIF&#45;&gt;URX -->
<g id="edge32" class="edge">
<title>RIF&#45;&gt;URX</title>
<path fill="none" stroke="gray" stroke-width="0.2" d="M223.27,-1095.56C256.3,-838.3 341.25,-203.73 357.46,-116.68"/>
<polygon fill="gray" stroke="gray" stroke-width="0.2" points="360.84,-117.62 359.73,-107.09 354.03,-116.02 360.84,-117.62"/>
</g>
<!-- URY -->
<g id="node33" class="node">
<title>URY</title>
<ellipse fill="none" stroke="black" cx="385.3" cy="-18" rx="30.11" ry="18"/>
<text text-anchor="middle" x="385.3" y="-12.57" font-family="Times New Roman,serif" font-size="14.00">URY</text>
</g>
<!-- RIF&#45;&gt;URY -->
<g id="edge33" class="edge">
<title>RIF&#45;&gt;URY</title>
<path fill="none" stroke="blue" stroke-width="2" d="M222.43,-1095.4C254.6,-826.53 339.98,-141.5 357.13,-40.3"/>
<polygon fill="blue" stroke="blue" stroke-width="2" points="360.5,-41.26 359.17,-30.75 353.66,-39.8 360.5,-41.26"/>
</g>
<!-- ADA&#45;&gt;RIF -->
<g id="edge34" class="edge">
<title>ADA&#45;&gt;RIF</title>
<path fill="none" stroke="gray" stroke-width="0.2" d="M359.8,-2457.21C355.94,-2452.94 353.2,-2449.5 353.2,-2449.5 353.2,-2449.5 257.68,-1631.23 222.78,-1320.49"/>
<polygon fill="gray" stroke="gray" stroke-width="0.2" points="226.29,-1320.4 221.7,-1310.85 219.33,-1321.18 226.29,-1320.4"/>
</g>
<!-- ADL&#45;&gt;RIF -->
<g id="edge35" class="edge">
<title>ADL&#45;&gt;RIF</title>
<path fill="none" stroke="gray" stroke-width="0.2" d="M360.1,-2378.55C356.09,-2374.12 353.2,-2370.5 353.2,-2370.5 353.2,-2370.5 259.18,-1617.01 223.61,-1320.52"/>
<polygon fill="gray" stroke="gray" stroke-width="0.2" points="227.13,-1320.41 222.46,-1310.9 220.18,-1321.24 227.13,-1320.41"/>
</g>
<!-- AIA&#45;&gt;RIF -->
<g id="edge36" class="edge">
<title>AIA&#45;&gt;RIF</title>
<path fill="none" stroke="red" stroke-width="5" d="M361.05,-2300.58C356.55,-2295.7 353.2,-2291.5 353.2,-2291.5 353.2,-2291.5 262.05,-1611.38 225.3,-1326.19"/>
<polygon fill="red" stroke="red" stroke-width="5" points="229.68,-1325.99 224.07,-1316.63 221,-1327.11 229.68,-1325.99"/>
</g>
<!-- AIB&#45;&gt;RIF -->
<g id="edge37" class="edge">
<title>AIB&#45;&gt;RIF</title>
<path fill="none" stroke="gray" stroke-width="0.2" d="M361.05,-2221.58C356.55,-2216.7 353.2,-2212.5 353.2,-2212.5 353.2,-2212.5 262.61,-1586.62 225.64,-1320.31"/>
<polygon fill="gray" stroke="gray" stroke-width="0.2" points="229.12,-1319.94 224.28,-1310.52 222.19,-1320.91 229.12,-1319.94"/>
</g>
<!-- AIM&#45;&gt;RIF -->
<g id="edge38" class="edge">
<title>AIM&#45;&gt;RIF</title>
<path fill="none" stroke="gray" stroke-width="2" d="M360.42,-2141.89C356.24,-2137.31 353.2,-2133.5 353.2,-2133.5 353.2,-2133.5 265.26,-1574.47 227.3,-1322.84"/>
<polygon fill="gray" stroke="gray" stroke-width="2" points="230.77,-1322.36 225.82,-1312.99 223.85,-1323.4 230.77,-1322.36"/>
</g>
<!-- ALM&#45;&gt;RIF -->
<g id="edge39" class="edge">
<title>ALM&#45;&gt;RIF</title>
<path fill="none" stroke="gray" stroke-width="2" d="M359.5,-1982.87C355.8,-1978.76 353.2,-1975.5 353.2,-1975.5 353.2,-1975.5 270.13,-1539.25 230.62,-1322.22"/>
<polygon fill="gray" stroke="gray" stroke-width="2" points="234.09,-1321.71 228.85,-1312.49 227.2,-1322.96 234.09,-1321.71"/>
</g>
<!-- ASH&#45;&gt;RIF -->
<g id="edge40" class="edge">
<title>ASH&#45;&gt;RIF</title>
<path fill="none" stroke="gray" stroke-width="0.2" d="M360.1,-1746.55C356.09,-1742.12 353.2,-1738.5 353.2,-1738.5 353.2,-1738.5 280,-1475.37 238.34,-1317.77"/>
<polygon fill="gray" stroke="gray" stroke-width="0.2" points="241.78,-1317.08 235.84,-1308.31 235.01,-1318.87 241.78,-1317.08"/>
</g>
<!-- AVE&#45;&gt;RIF -->
<g id="edge41" class="edge">
<title>AVE&#45;&gt;RIF</title>
<path fill="none" stroke="gray" stroke-width="0.2" d="M360.1,-1430.55C356.09,-1426.12 353.2,-1422.5 353.2,-1422.5 353.2,-1422.5 309.64,-1362.18 270.6,-1304.51"/>
<polygon fill="gray" stroke="gray" stroke-width="0.2" points="273.54,-1302.61 265.05,-1296.28 267.74,-1306.53 273.54,-1302.61"/>
</g>
<!-- AVF&#45;&gt;RIF -->
<g id="edge42" class="edge">
<title>AVF&#45;&gt;RIF</title>
<path fill="none" stroke="gray" stroke-width="2" d="M360.52,-1350.91C342.37,-1337.81 316.23,-1315.62 290.83,-1292.25"/>
<polygon fill="gray" stroke="gray" stroke-width="2" points="293.45,-1289.91 283.74,-1285.67 288.68,-1295.04 293.45,-1289.91"/>
</g>
<!-- AVH&#45;&gt;RIF -->
<g id="edge43" class="edge">
<title>AVH&#45;&gt;RIF</title>
<path fill="none" stroke="gray" stroke-width="0.2" d="M354.79,-1281.07C342.09,-1277.24 326.44,-1271.31 310.16,-1264.33"/>
<polygon fill="gray" stroke="gray" stroke-width="0.2" points="311.92,-1261.27 301.35,-1260.47 309.11,-1267.68 311.92,-1261.27"/>
</g>
<!-- AVJ&#45;&gt;RIF -->
<g id="edge44" class="edge">
<title>AVJ&#45;&gt;RIF</title>
<path fill="none" stroke="gray" stroke-width="0.2" d="M363.11,-1213.99C353.18,-1216.02 340.51,-1217.45 326.71,-1218.27"/>
<polygon fill="gray" stroke="gray" stroke-width="0.2" points="326.61,-1214.78 316.8,-1218.76 326.95,-1221.77 326.61,-1214.78"/>
</g>
<!-- AWB&#45;&gt;RIF -->
<g id="edge45" class="edge">
<title>AWB&#45;&gt;RIF</title>
<path fill="none" stroke="gray" stroke-width="5" d="M369.64,-1140.11C359.23,-1147.66 344.17,-1156.41 327.4,-1165.05"/>
<polygon fill="gray" stroke="gray" stroke-width="5" points="325.56,-1161.08 318.57,-1169.46 329.47,-1168.91 325.56,-1161.08"/>
</g>
<!-- BDU&#45;&gt;RIF -->
<g id="edge46" class="edge">
<title>BDU&#45;&gt;RIF</title>
<path fill="none" stroke="gray" stroke-width="2" d="M374.44,-1061.92C360.7,-1079.28 334.32,-1105.91 306.66,-1131.5"/>
<polygon fill="gray" stroke="gray" stroke-width="2" points="304.49,-1128.74 299.48,-1138.08 309.22,-1133.9 304.49,-1128.74"/>
</g>
<!-- CEP&#45;&gt;RIF -->
<g id="edge47" class="edge">
<title>CEP&#45;&gt;RIF</title>
<path fill="none" stroke="gray" stroke-width="0.2" d="M379.71,-983.9C371.06,-1004.1 353.2,-1026.5 353.2,-1026.5 353.2,-1026.5 321.51,-1070.38 287.97,-1114.58"/>
<polygon fill="gray" stroke="gray" stroke-width="0.2" points="285.37,-1112.22 282.09,-1122.3 290.94,-1116.46 285.37,-1112.22"/>
</g>
<!-- HSN&#45;&gt;RIF -->
<g id="edge48" class="edge">
<title>HSN&#45;&gt;RIF</title>
<path fill="none" stroke="gray" stroke-width="nan" d="M379.71,-825.9C371.06,-846.1 353.2,-868.5 353.2,-868.5 353.2,-868.5 297.87,-1006.26 256.04,-1105.21"/>
<polygon fill="gray" stroke="gray" stroke-width="nan" points="nan,-nan nan,-nan nan,-nan nan,-nan"/>
</g>
<!-- PVC&#45;&gt;RIF -->
<g id="edge49" class="edge">
<title>PVC&#45;&gt;RIF</title>
<path fill="none" stroke="gray" stroke-width="0.2" d="M379.71,-746.9C371.06,-767.1 353.2,-789.5 353.2,-789.5 353.2,-789.5 293.92,-969.84 251.69,-1092.55"/>
<polygon fill="gray" stroke="gray" stroke-width="0.2" points="248.48,-1091.13 248.53,-1101.73 255.1,-1093.41 248.48,-1091.13"/>
</g>
<!-- PVN&#45;&gt;RIF -->
<g id="edge50" class="edge">
<title>PVN&#45;&gt;RIF</title>
<path fill="none" stroke="gray" stroke-width="2" d="M379.71,-667.9C371.06,-688.1 353.2,-710.5 353.2,-710.5 353.2,-710.5 288.71,-942.3 246.35,-1088.06"/>
<polygon fill="gray" stroke="gray" stroke-width="2" points="243.11,-1086.66 243.68,-1097.24 249.83,-1088.62 243.11,-1086.66"/>
</g>
<!-- PVP&#45;&gt;RIF -->
<g id="edge51" class="edge">
<title>PVP&#45;&gt;RIF</title>
<path fill="none" stroke="gray" stroke-width="0.2" d="M379.71,-588.9C371.06,-609.1 353.2,-631.5 353.2,-631.5 353.2,-631.5 283.15,-922.01 241.1,-1088.98"/>
<polygon fill="gray" stroke="gray" stroke-width="0.2" points="237.75,-1087.97 238.7,-1098.52 244.54,-1089.68 237.75,-1087.97"/>
</g>
<!-- RIM&#45;&gt;RIF -->
<g id="edge52" class="edge">
<title>RIM&#45;&gt;RIF</title>
<path fill="none" stroke="gray" stroke-width="0.2" d="M379.71,-430.9C371.06,-451.1 353.2,-473.5 353.2,-473.5 353.2,-473.5 275.54,-881.37 234.68,-1087.34"/>
<polygon fill="gray" stroke="gray" stroke-width="0.2" points="231.28,-1086.51 232.76,-1097 238.14,-1087.87 231.28,-1086.51"/>
</g>
<!-- RMG&#45;&gt;RIF -->
<g id="edge53" class="edge">
<title>RMG&#45;&gt;RIF</title>
<path fill="none" stroke="gray" stroke-width="0.2" d="M379.58,-273.21C370.88,-293.33 353.2,-315.5 353.2,-315.5 353.2,-315.5 269.77,-845.84 230.36,-1086.76"/>
<polygon fill="gray" stroke="gray" stroke-width="0.2" points="226.96,-1085.88 228.8,-1096.31 233.87,-1087.01 226.96,-1085.88"/>
</g>
<!-- URX&#45;&gt;RIF -->
<g id="edge54" class="edge">
<title>URX&#45;&gt;RIF</title>
<path fill="none" stroke="gray" stroke-width="0.2" d="M379.71,-114.9C371.06,-135.1 353.2,-157.5 353.2,-157.5 353.2,-157.5 265.36,-812.96 227.37,-1086.06"/>
<polygon fill="gray" stroke="gray" stroke-width="0.2" points="223.94,-1085.32 226.03,-1095.71 230.87,-1086.29 223.94,-1085.32"/>
</g>
<!-- URY&#45;&gt;RIF -->
<g id="edge55" class="edge">
<title>URY&#45;&gt;RIF</title>
<path fill="none" stroke="gray" stroke-width="0.2" d="M379.71,-35.9C371.06,-56.1 353.2,-78.5 353.2,-78.5 353.2,-78.5 263.53,-797.13 226.21,-1085.57"/>
<polygon fill="gray" stroke="gray" stroke-width="0.2" points="222.75,-1084.98 224.94,-1095.35 229.69,-1085.88 222.75,-1084.98"/>
</g>
<!-- ADE -->
<g id="node34" class="node">
<title>ADE</title>
<ellipse fill="none" stroke="black" cx="32.6" cy="-1401" rx="29.11" ry="18"/>
<text text-anchor="middle" x="32.6" y="-1395.58" font-family="Times New Roman,serif" font-size="14.00">ADE</text>
</g>
<!-- ADE&#45;&gt;RIF -->
<g id="edge56" class="edge">
<title>ADE&#45;&gt;RIF</title>
<path fill="none" stroke="gray" stroke-width="0.2" d="M47.59,-1385.13C65.8,-1364.48 99.02,-1326.81 130.54,-1291.06"/>
<polygon fill="gray" stroke="gray" stroke-width="0.2" points="133.05,-1293.52 137.04,-1283.7 127.8,-1288.89 133.05,-1293.52"/>
</g>
<!-- ASI -->
<g id="node35" class="node">
<title>ASI</title>
<ellipse fill="none" stroke="black" cx="32.6" cy="-1322" rx="27" ry="18"/>
<text text-anchor="middle" x="32.6" y="-1316.58" font-family="Times New Roman,serif" font-size="14.00">ASI</text>
</g>
<!-- ASI&#45;&gt;RIF -->
<g id="edge57" class="edge">
<title>ASI&#45;&gt;RIF</title>
<path fill="none" stroke="gray" stroke-width="0.2" d="M52.29,-1309.26C66.94,-1299.28 88.56,-1284.55 111.06,-1269.21"/>
<polygon fill="gray" stroke="gray" stroke-width="0.2" points="112.83,-1272.23 119.12,-1263.71 108.89,-1266.45 112.83,-1272.23"/>
</g>
<!-- ASJ -->
<g id="node36" class="node">
<title>ASJ</title>
<ellipse fill="none" stroke="black" cx="32.6" cy="-1243" rx="27" ry="18"/>
<text text-anchor="middle" x="32.6" y="-1237.58" font-family="Times New Roman,serif" font-size="14.00">ASJ</text>
</g>
<!-- ASJ&#45;&gt;RIF -->
<g id="edge58" class="edge">
<title>ASJ&#45;&gt;RIF</title>
<path fill="none" stroke="gray" stroke-width="0.2" d="M58.62,-1237.27C68.56,-1234.99 80.74,-1232.2 93.83,-1229.2"/>
<polygon fill="gray" stroke="gray" stroke-width="0.2" points="94.24,-1232.7 103.21,-1227.05 92.68,-1225.87 94.24,-1232.7"/>
</g>
<!-- ASK -->
<g id="node37" class="node">
<title>ASK</title>
<ellipse fill="none" stroke="black" cx="32.6" cy="-1164" rx="29.11" ry="18"/>
<text text-anchor="middle" x="32.6" y="-1158.58" font-family="Times New Roman,serif" font-size="14.00">ASK</text>
</g>
<!-- ASK&#45;&gt;RIF -->
<g id="edge59" class="edge">
<title>ASK&#45;&gt;RIF</title>
<path fill="none" stroke="gray" stroke-width="nan" d="M60.5,-1170.01C72.55,-1172.7 87.62,-1176.07 103.48,-1179.61"/>
<polygon fill="gray" stroke="gray" stroke-width="nan" points="nan,-nan nan,-nan nan,-nan nan,-nan"/>
</g>
<!-- AWA -->
<g id="node38" class="node">
<title>AWA</title>
<ellipse fill="none" stroke="black" cx="32.6" cy="-1085" rx="32.6" ry="18"/>
<text text-anchor="middle" x="32.6" y="-1079.58" font-family="Times New Roman,serif" font-size="14.00">AWA</text>
</g>
<!-- AWA&#45;&gt;RIF -->
<g id="edge60" class="edge">
<title>AWA&#45;&gt;RIF</title>
<path fill="none" stroke="red" stroke-width="2" d="M53.97,-1098.77C68.05,-1108.28 87.94,-1121.73 108.77,-1135.8"/>
<polygon fill="red" stroke="red" stroke-width="2" points="106.63,-1138.58 116.88,-1141.28 110.55,-1132.78 106.63,-1138.58"/>
</g>
<!-- PVQ -->
<g id="node39" class="node">
<title>PVQ</title>
<ellipse fill="none" stroke="black" cx="32.6" cy="-1006" rx="29.61" ry="18"/>
<text text-anchor="middle" x="32.6" y="-1000.58" font-family="Times New Roman,serif" font-size="14.00">PVQ</text>
</g>
<!-- PVQ&#45;&gt;RIF -->
<g id="edge61" class="edge">
<title>PVQ&#45;&gt;RIF</title>
<path fill="none" stroke="gray" stroke-width="2" d="M47.59,-1021.79C65.42,-1041.9 97.65,-1078.26 128.57,-1113.16"/>
<polygon fill="gray" stroke="gray" stroke-width="2" points="125.56,-1115.04 134.82,-1120.2 130.8,-1110.39 125.56,-1115.04"/>
</g>
</g>
</svg>
