<?xml version="1.0" encoding="UTF-8" standalone="no"?>
<!DOCTYPE svg PUBLIC "-//W3C//DTD SVG 1.1//EN"
 "http://www.w3.org/Graphics/SVG/1.1/DTD/svg11.dtd">
<!-- Generated by graphviz version 11.0.0 (20240428.1522)
 -->
<!-- Pages: 1 -->
<svg width="425pt" height="3046pt"
 viewBox="0.00 0.00 425.41 3046.00" xmlns="http://www.w3.org/2000/svg" xmlns:xlink="http://www.w3.org/1999/xlink">
<g id="graph0" class="graph" transform="scale(1 1) rotate(0) translate(4 3042)">
<polygon fill="white" stroke="none" points="-4,4 -4,-3042 421.41,-3042 421.41,4 -4,4"/>
<!-- RIG -->
<g id="node1" class="node">
<title>RIG</title>
<ellipse fill="none" stroke="black" cx="209.2" cy="-1440" rx="108" ry="108"/>
<text text-anchor="middle" x="209.2" y="-1421" font-family="Times New Roman,serif" font-size="50.00">RIG</text>
</g>
<!-- ADE -->
<g id="node2" class="node">
<title>ADE</title>
<ellipse fill="none" stroke="black" cx="385.3" cy="-3020" rx="29.11" ry="18"/>
<text text-anchor="middle" x="385.3" y="-3014.57" font-family="Times New Roman,serif" font-size="14.00">ADE</text>
</g>
<!-- RIG&#45;&gt;ADE -->
<g id="edge1" class="edge">
<title>RIG&#45;&gt;ADE</title>
<path fill="none" stroke="gray" stroke-width="0.2" d="M221.04,-1547.62C254.38,-1894.58 353.2,-2959.5 353.2,-2959.5 353.2,-2959.5 366.15,-2975.74 375.34,-2993.04"/>
<polygon fill="gray" stroke="gray" stroke-width="0.2" points="372.09,-2994.34 379.58,-3001.83 378.39,-2991.3 372.09,-2994.34"/>
</g>
<!-- ADF -->
<g id="node3" class="node">
<title>ADF</title>
<ellipse fill="none" stroke="black" cx="385.3" cy="-2941" rx="29.11" ry="18"/>
<text text-anchor="middle" x="385.3" y="-2935.57" font-family="Times New Roman,serif" font-size="14.00">ADF</text>
</g>
<!-- RIG&#45;&gt;ADF -->
<g id="edge2" class="edge">
<title>RIG&#45;&gt;ADF</title>
<path fill="none" stroke="gray" stroke-width="0.2" d="M221.63,-1547.5C255.54,-1882.01 353.2,-2880.5 353.2,-2880.5 353.2,-2880.5 366.15,-2896.74 375.34,-2914.04"/>
<polygon fill="gray" stroke="gray" stroke-width="0.2" points="372.09,-2915.34 379.58,-2922.83 378.39,-2912.3 372.09,-2915.34"/>
</g>
<!-- ADL -->
<g id="node4" class="node">
<title>ADL</title>
<ellipse fill="none" stroke="black" cx="385.3" cy="-2862" rx="29.11" ry="18"/>
<text text-anchor="middle" x="385.3" y="-2856.57" font-family="Times New Roman,serif" font-size="14.00">ADL</text>
</g>
<!-- RIG&#45;&gt;ADL -->
<g id="edge3" class="edge">
<title>RIG&#45;&gt;ADL</title>
<path fill="none" stroke="gray" stroke-width="0.2" d="M222.3,-1547.42C256.8,-1869.2 353.2,-2801.5 353.2,-2801.5 353.2,-2801.5 366.15,-2817.74 375.34,-2835.04"/>
<polygon fill="gray" stroke="gray" stroke-width="0.2" points="372.09,-2836.34 379.58,-2843.83 378.39,-2833.3 372.09,-2836.34"/>
</g>
<!-- AFD -->
<g id="node5" class="node">
<title>AFD</title>
<ellipse fill="none" stroke="black" cx="385.3" cy="-2783" rx="29.11" ry="18"/>
<text text-anchor="middle" x="385.3" y="-2777.57" font-family="Times New Roman,serif" font-size="14.00">AFD</text>
</g>
<!-- RIG&#45;&gt;AFD -->
<g id="edge4" class="edge">
<title>RIG&#45;&gt;AFD</title>
<path fill="none" stroke="gray" stroke-width="0.2" d="M222,-1547.54C256.23,-1859.72 353.2,-2744 353.2,-2744 353.2,-2744 358.85,-2751.09 365.34,-2759.22"/>
<polygon fill="gray" stroke="gray" stroke-width="0.2" points="362.49,-2761.26 371.47,-2766.9 367.97,-2756.9 362.49,-2761.26"/>
</g>
<!-- AIB -->
<g id="node6" class="node">
<title>AIB</title>
<ellipse fill="none" stroke="black" cx="385.3" cy="-2704" rx="27" ry="18"/>
<text text-anchor="middle" x="385.3" y="-2698.57" font-family="Times New Roman,serif" font-size="14.00">AIB</text>
</g>
<!-- RIG&#45;&gt;AIB -->
<g id="edge5" class="edge">
<title>RIG&#45;&gt;AIB</title>
<path fill="none" stroke="black" stroke-width="5" d="M223.91,-1547.32C259.71,-1842.57 353.2,-2643.5 353.2,-2643.5 353.2,-2643.5 363.67,-2656.63 372.46,-2671.85"/>
<polygon fill="black" stroke="black" stroke-width="5" points="368.45,-2673.62 376.89,-2680.54 376.25,-2669.65 368.45,-2673.62"/>
</g>
<!-- AIZ -->
<g id="node7" class="node">
<title>AIZ</title>
<ellipse fill="none" stroke="black" cx="385.3" cy="-2625" rx="27" ry="18"/>
<text text-anchor="middle" x="385.3" y="-2619.57" font-family="Times New Roman,serif" font-size="14.00">AIZ</text>
</g>
<!-- RIG&#45;&gt;AIZ -->
<g id="edge6" class="edge">
<title>RIG&#45;&gt;AIZ</title>
<path fill="none" stroke="black" stroke-width="5" d="M224.9,-1547.35C261.39,-1828.73 353.2,-2564.5 353.2,-2564.5 353.2,-2564.5 363.67,-2577.63 372.46,-2592.85"/>
<polygon fill="black" stroke="black" stroke-width="5" points="368.45,-2594.62 376.89,-2601.54 376.25,-2590.65 368.45,-2594.62"/>
</g>
<!-- ALN -->
<g id="node8" class="node">
<title>ALN</title>
<ellipse fill="none" stroke="black" cx="385.3" cy="-2546" rx="29.11" ry="18"/>
<text text-anchor="middle" x="385.3" y="-2540.57" font-family="Times New Roman,serif" font-size="14.00">ALN</text>
</g>
<!-- RIG&#45;&gt;ALN -->
<g id="edge7" class="edge">
<title>RIG&#45;&gt;ALN</title>
<path fill="none" stroke="red" stroke-width="5" d="M225.98,-1546.99C263.17,-1813.74 353.2,-2485.5 353.2,-2485.5 353.2,-2485.5 363.67,-2498.63 372.46,-2513.85"/>
<polygon fill="red" stroke="red" stroke-width="5" points="368.45,-2515.62 376.89,-2522.54 376.25,-2511.65 368.45,-2515.62"/>
</g>
<!-- AQR -->
<g id="node9" class="node">
<title>AQR</title>
<ellipse fill="none" stroke="black" cx="385.3" cy="-2467" rx="30.61" ry="18"/>
<text text-anchor="middle" x="385.3" y="-2461.57" font-family="Times New Roman,serif" font-size="14.00">AQR</text>
</g>
<!-- RIG&#45;&gt;AQR -->
<g id="edge8" class="edge">
<title>RIG&#45;&gt;AQR</title>
<path fill="none" stroke="gray" stroke-width="0.2" d="M227.24,-1546.59C265.16,-1798.18 353.2,-2406.5 353.2,-2406.5 353.2,-2406.5 366.15,-2422.74 375.34,-2440.04"/>
<polygon fill="gray" stroke="gray" stroke-width="0.2" points="372.09,-2441.34 379.58,-2448.83 378.39,-2438.3 372.09,-2441.34"/>
</g>
<!-- ASH -->
<g id="node10" class="node">
<title>ASH</title>
<ellipse fill="none" stroke="black" cx="385.3" cy="-2388" rx="29.11" ry="18"/>
<text text-anchor="middle" x="385.3" y="-2382.57" font-family="Times New Roman,serif" font-size="14.00">ASH</text>
</g>
<!-- RIG&#45;&gt;ASH -->
<g id="edge9" class="edge">
<title>RIG&#45;&gt;ASH</title>
<path fill="none" stroke="gray" stroke-width="0.2" d="M227.03,-1546.95C264.83,-1787.23 353.2,-2349 353.2,-2349 353.2,-2349 358.85,-2356.09 365.34,-2364.22"/>
<polygon fill="gray" stroke="gray" stroke-width="0.2" points="362.49,-2366.26 371.47,-2371.9 367.97,-2361.9 362.49,-2366.26"/>
</g>
<!-- AVA -->
<g id="node11" class="node">
<title>AVA</title>
<ellipse fill="none" stroke="black" cx="385.3" cy="-2309" rx="30.11" ry="18"/>
<text text-anchor="middle" x="385.3" y="-2303.57" font-family="Times New Roman,serif" font-size="14.00">AVA</text>
</g>
<!-- RIG&#45;&gt;AVA -->
<g id="edge10" class="edge">
<title>RIG&#45;&gt;AVA</title>
<path fill="none" stroke="gray" stroke-width="0.2" d="M228.53,-1546.39C267.12,-1770.35 353.2,-2270 353.2,-2270 353.2,-2270 358.58,-2276.75 364.87,-2284.63"/>
<polygon fill="gray" stroke="gray" stroke-width="0.2" points="362.13,-2286.81 371.11,-2292.45 367.61,-2282.45 362.13,-2286.81"/>
</g>
<!-- AVB -->
<g id="node12" class="node">
<title>AVB</title>
<ellipse fill="none" stroke="black" cx="385.3" cy="-2230" rx="29.61" ry="18"/>
<text text-anchor="middle" x="385.3" y="-2224.57" font-family="Times New Roman,serif" font-size="14.00">AVB</text>
</g>
<!-- RIG&#45;&gt;AVB -->
<g id="edge11" class="edge">
<title>RIG&#45;&gt;AVB</title>
<path fill="none" stroke="gray" stroke-width="0.2" d="M230.39,-1546.01C269.81,-1753.02 353.2,-2191 353.2,-2191 353.2,-2191 358.58,-2197.75 364.87,-2205.63"/>
<polygon fill="gray" stroke="gray" stroke-width="0.2" points="362.13,-2207.81 371.11,-2213.45 367.61,-2203.45 362.13,-2207.81"/>
</g>
<!-- AVD -->
<g id="node13" class="node">
<title>AVD</title>
<ellipse fill="none" stroke="black" cx="385.3" cy="-2151" rx="30.11" ry="18"/>
<text text-anchor="middle" x="385.3" y="-2145.57" font-family="Times New Roman,serif" font-size="14.00">AVD</text>
</g>
<!-- RIG&#45;&gt;AVD -->
<g id="edge12" class="edge">
<title>RIG&#45;&gt;AVD</title>
<path fill="none" stroke="gray" stroke-width="2" d="M232.7,-1545.74C272.97,-1734.98 353.2,-2112 353.2,-2112 353.2,-2112 357.73,-2117.67 363.32,-2124.69"/>
<polygon fill="gray" stroke="gray" stroke-width="2" points="360.44,-2126.68 369.41,-2132.32 365.91,-2122.32 360.44,-2126.68"/>
</g>
<!-- AVE -->
<g id="node14" class="node">
<title>AVE</title>
<ellipse fill="none" stroke="black" cx="385.3" cy="-2072" rx="29.11" ry="18"/>
<text text-anchor="middle" x="385.3" y="-2066.57" font-family="Times New Roman,serif" font-size="14.00">AVE</text>
</g>
<!-- RIG&#45;&gt;AVE -->
<g id="edge13" class="edge">
<title>RIG&#45;&gt;AVE</title>
<path fill="none" stroke="red" stroke-width="5" d="M235.52,-1544.99C276.59,-1715.31 353.2,-2033 353.2,-2033 353.2,-2033 356.86,-2037.58 361.66,-2043.61"/>
<polygon fill="red" stroke="red" stroke-width="5" points="358.11,-2046.17 367.76,-2051.26 364.95,-2040.71 358.11,-2046.17"/>
</g>
<!-- AVK -->
<g id="node15" class="node">
<title>AVK</title>
<ellipse fill="none" stroke="black" cx="385.3" cy="-1993" rx="30.11" ry="18"/>
<text text-anchor="middle" x="385.3" y="-1987.58" font-family="Times New Roman,serif" font-size="14.00">AVK</text>
</g>
<!-- RIG&#45;&gt;AVK -->
<g id="edge14" class="edge">
<title>RIG&#45;&gt;AVK</title>
<path fill="none" stroke="gray" stroke-width="5" d="M242.83,-1542.85C285.03,-1687.48 353.2,-1932.5 353.2,-1932.5 353.2,-1932.5 363.67,-1945.63 372.46,-1960.85"/>
<polygon fill="gray" stroke="gray" stroke-width="5" points="368.45,-1962.62 376.89,-1969.54 376.25,-1958.65 368.45,-1962.62"/>
</g>
<!-- BAG -->
<g id="node16" class="node">
<title>BAG</title>
<ellipse fill="none" stroke="black" cx="385.3" cy="-1914" rx="30.11" ry="18"/>
<text text-anchor="middle" x="385.3" y="-1908.58" font-family="Times New Roman,serif" font-size="14.00">BAG</text>
</g>
<!-- RIG&#45;&gt;BAG -->
<g id="edge15" class="edge">
<title>RIG&#45;&gt;BAG</title>
<path fill="none" stroke="black" stroke-width="5" d="M248.43,-1540.99C290.79,-1663.64 353.2,-1853.5 353.2,-1853.5 353.2,-1853.5 363.67,-1866.63 372.46,-1881.85"/>
<polygon fill="black" stroke="black" stroke-width="5" points="368.45,-1883.62 376.89,-1890.54 376.25,-1879.65 368.45,-1883.62"/>
</g>
<!-- DVA -->
<g id="node17" class="node">
<title>DVA</title>
<ellipse fill="none" stroke="black" cx="385.3" cy="-1835" rx="30.11" ry="18"/>
<text text-anchor="middle" x="385.3" y="-1829.58" font-family="Times New Roman,serif" font-size="14.00">DVA</text>
</g>
<!-- RIG&#45;&gt;DVA -->
<g id="edge16" class="edge">
<title>RIG&#45;&gt;DVA</title>
<path fill="none" stroke="gray" stroke-width="0.2" d="M250.42,-1540.11C292.71,-1645.41 353.2,-1796 353.2,-1796 353.2,-1796 358.58,-1802.75 364.87,-1810.63"/>
<polygon fill="gray" stroke="gray" stroke-width="0.2" points="362.13,-1812.81 371.11,-1818.45 367.61,-1808.45 362.13,-1812.81"/>
</g>
<!-- DVC -->
<g id="node18" class="node">
<title>DVC</title>
<ellipse fill="none" stroke="black" cx="385.3" cy="-1756" rx="30.11" ry="18"/>
<text text-anchor="middle" x="385.3" y="-1750.58" font-family="Times New Roman,serif" font-size="14.00">DVC</text>
</g>
<!-- RIG&#45;&gt;DVC -->
<g id="edge17" class="edge">
<title>RIG&#45;&gt;DVC</title>
<path fill="none" stroke="gray" stroke-width="2" d="M266.72,-1531.97C306.69,-1605.4 353.2,-1695.5 353.2,-1695.5 353.2,-1695.5 364.99,-1710.29 374.06,-1726.67"/>
<polygon fill="gray" stroke="gray" stroke-width="2" points="370.8,-1727.98 378.37,-1735.39 377.07,-1724.87 370.8,-1727.98"/>
</g>
<!-- IL1 -->
<g id="node19" class="node">
<title>IL1</title>
<ellipse fill="none" stroke="black" cx="385.3" cy="-1677" rx="27" ry="18"/>
<text text-anchor="middle" x="385.3" y="-1671.58" font-family="Times New Roman,serif" font-size="14.00">IL1</text>
</g>
<!-- RIG&#45;&gt;IL1 -->
<g id="edge18" class="edge">
<title>RIG&#45;&gt;IL1</title>
<path fill="none" stroke="blue" stroke-width="2" d="M273.34,-1527.42C311.65,-1580.46 353.2,-1638 353.2,-1638 353.2,-1638 357.85,-1643.83 363.56,-1650.99"/>
<polygon fill="blue" stroke="blue" stroke-width="2" points="360.79,-1653.13 369.77,-1658.77 366.27,-1648.77 360.79,-1653.13"/>
</g>
<!-- OLQ -->
<g id="node20" class="node">
<title>OLQ</title>
<ellipse fill="none" stroke="black" cx="385.3" cy="-1598" rx="30.11" ry="18"/>
<text text-anchor="middle" x="385.3" y="-1592.58" font-family="Times New Roman,serif" font-size="14.00">OLQ</text>
</g>
<!-- RIG&#45;&gt;OLQ -->
<g id="edge19" class="edge">
<title>RIG&#45;&gt;OLQ</title>
<path fill="none" stroke="black" stroke-width="5" d="M297.25,-1502.88C322.27,-1525.58 347.3,-1550.07 364.05,-1568.82"/>
<polygon fill="black" stroke="black" stroke-width="5" points="360.6,-1571.53 370.41,-1576.32 367.28,-1565.87 360.6,-1571.53"/>
</g>
<!-- PLN -->
<g id="node21" class="node">
<title>PLN</title>
<ellipse fill="none" stroke="black" cx="385.3" cy="-1519" rx="28.11" ry="18"/>
<text text-anchor="middle" x="385.3" y="-1513.58" font-family="Times New Roman,serif" font-size="14.00">PLN</text>
</g>
<!-- RIG&#45;&gt;PLN -->
<g id="edge20" class="edge">
<title>RIG&#45;&gt;PLN</title>
<path fill="none" stroke="gray" stroke-width="2" d="M307.94,-1484.35C323.06,-1491.21 337.73,-1497.87 350.12,-1503.49"/>
<polygon fill="gray" stroke="gray" stroke-width="2" points="348.35,-1506.53 358.91,-1507.48 351.25,-1500.16 348.35,-1506.53"/>
</g>
<!-- PVP -->
<g id="node22" class="node">
<title>PVP</title>
<ellipse fill="none" stroke="black" cx="385.3" cy="-1440" rx="28.11" ry="18"/>
<text text-anchor="middle" x="385.3" y="-1434.58" font-family="Times New Roman,serif" font-size="14.00">PVP</text>
</g>
<!-- RIG&#45;&gt;PVP -->
<g id="edge21" class="edge">
<title>RIG&#45;&gt;PVP</title>
<path fill="none" stroke="gray" stroke-width="0.2" d="M316.49,-1424.23C329.56,-1424.72 342.01,-1425.72 352.6,-1427.22"/>
<polygon fill="gray" stroke="gray" stroke-width="0.2" points="351.77,-1430.63 362.22,-1428.84 352.94,-1423.73 351.77,-1430.63"/>
</g>
<!-- PVQ -->
<g id="node23" class="node">
<title>PVQ</title>
<ellipse fill="none" stroke="black" cx="385.3" cy="-1361" rx="29.61" ry="18"/>
<text text-anchor="middle" x="385.3" y="-1355.58" font-family="Times New Roman,serif" font-size="14.00">PVQ</text>
</g>
<!-- RIG&#45;&gt;PVQ -->
<g id="edge22" class="edge">
<title>RIG&#45;&gt;PVQ</title>
<path fill="none" stroke="gray" stroke-width="0.2" d="M307.94,-1395.65C323.75,-1388.48 339.09,-1381.52 351.82,-1375.74"/>
<polygon fill="gray" stroke="gray" stroke-width="0.2" points="353.07,-1379.02 360.73,-1371.7 350.18,-1372.64 353.07,-1379.02"/>
</g>
<!-- PVT -->
<g id="node24" class="node">
<title>PVT</title>
<ellipse fill="none" stroke="black" cx="385.3" cy="-1282" rx="28.61" ry="18"/>
<text text-anchor="middle" x="385.3" y="-1276.58" font-family="Times New Roman,serif" font-size="14.00">PVT</text>
</g>
<!-- RIG&#45;&gt;PVT -->
<g id="edge23" class="edge">
<title>RIG&#45;&gt;PVT</title>
<path fill="none" stroke="gray" stroke-width="2" d="M281.52,-1359.39C305.45,-1336.95 331.02,-1314.69 350.67,-1299.48"/>
<polygon fill="gray" stroke="gray" stroke-width="2" points="352.6,-1302.41 358.5,-1293.61 348.4,-1296.8 352.6,-1302.41"/>
</g>
<!-- RIA -->
<g id="node25" class="node">
<title>RIA</title>
<ellipse fill="none" stroke="black" cx="385.3" cy="-1203" rx="27" ry="18"/>
<text text-anchor="middle" x="385.3" y="-1197.58" font-family="Times New Roman,serif" font-size="14.00">RIA</text>
</g>
<!-- RIG&#45;&gt;RIA -->
<g id="edge24" class="edge">
<title>RIG&#45;&gt;RIA</title>
<path fill="none" stroke="gray" stroke-width="2" d="M273.55,-1352.73C311.8,-1300.04 353.2,-1243 353.2,-1243 353.2,-1243 358.2,-1236.57 364.19,-1228.86"/>
<polygon fill="gray" stroke="gray" stroke-width="2" points="366.78,-1231.24 370.15,-1221.2 361.25,-1226.94 366.78,-1231.24"/>
</g>
<!-- RIB -->
<g id="node26" class="node">
<title>RIB</title>
<ellipse fill="none" stroke="black" cx="385.3" cy="-1124" rx="27" ry="18"/>
<text text-anchor="middle" x="385.3" y="-1118.58" font-family="Times New Roman,serif" font-size="14.00">RIB</text>
</g>
<!-- RIG&#45;&gt;RIB -->
<g id="edge25" class="edge">
<title>RIG&#45;&gt;RIB</title>
<path fill="none" stroke="red" stroke-width="2" d="M253.11,-1340.94C288.81,-1267.07 335.91,-1175.13 354.21,-1143.3"/>
<polygon fill="red" stroke="red" stroke-width="2" points="357.08,-1145.31 359.44,-1134.98 351.15,-1141.58 357.08,-1145.31"/>
</g>
<!-- RIH -->
<g id="node27" class="node">
<title>RIH</title>
<ellipse fill="none" stroke="black" cx="385.3" cy="-1045" rx="27" ry="18"/>
<text text-anchor="middle" x="385.3" y="-1039.58" font-family="Times New Roman,serif" font-size="14.00">RIH</text>
</g>
<!-- RIG&#45;&gt;RIH -->
<g id="edge26" class="edge">
<title>RIG&#45;&gt;RIH</title>
<path fill="none" stroke="gray" stroke-width="0.2" d="M245.18,-1338.11C287.52,-1226.02 353.2,-1062.5 353.2,-1062.5 353.2,-1062.5 353.67,-1061.91 354.5,-1060.91"/>
<polygon fill="gray" stroke="gray" stroke-width="0.2" points="356.91,-1063.48 360.85,-1053.65 351.63,-1058.87 356.91,-1063.48"/>
</g>
<!-- RIM -->
<g id="node28" class="node">
<title>RIM</title>
<ellipse fill="none" stroke="black" cx="385.3" cy="-966" rx="28.11" ry="18"/>
<text text-anchor="middle" x="385.3" y="-960.58" font-family="Times New Roman,serif" font-size="14.00">RIM</text>
</g>
<!-- RIG&#45;&gt;RIM -->
<g id="edge27" class="edge">
<title>RIG&#45;&gt;RIM</title>
<path fill="none" stroke="gray" stroke-width="5" d="M239.83,-1335.97C275.91,-1219.68 333.95,-1042.22 353.96,-989.88"/>
<polygon fill="gray" stroke="gray" stroke-width="5" points="357.92,-991.74 357.92,-980.83 349.9,-988.24 357.92,-991.74"/>
</g>
<!-- RIR -->
<g id="node29" class="node">
<title>RIR</title>
<ellipse fill="none" stroke="black" cx="385.3" cy="-887" rx="27" ry="18"/>
<text text-anchor="middle" x="385.3" y="-881.58" font-family="Times New Roman,serif" font-size="14.00">RIR</text>
</g>
<!-- RIG&#45;&gt;RIR -->
<g id="edge28" class="edge">
<title>RIG&#45;&gt;RIR</title>
<path fill="none" stroke="red" stroke-width="5" d="M235.77,-1334.99C271.76,-1198.29 334.68,-971.22 355.1,-910.51"/>
<polygon fill="red" stroke="red" stroke-width="5" points="359.16,-912.13 358.76,-901.22 351.02,-908.92 359.16,-912.13"/>
</g>
<!-- RIV -->
<g id="node30" class="node">
<title>RIV</title>
<ellipse fill="none" stroke="black" cx="385.3" cy="-808" rx="27" ry="18"/>
<text text-anchor="middle" x="385.3" y="-802.58" font-family="Times New Roman,serif" font-size="14.00">RIV</text>
</g>
<!-- RIG&#45;&gt;RIV -->
<g id="edge29" class="edge">
<title>RIG&#45;&gt;RIV</title>
<path fill="none" stroke="gray" stroke-width="2" d="M235.52,-1335.01C276.59,-1164.69 353.2,-847 353.2,-847 353.2,-847 357.85,-841.17 363.56,-834.01"/>
<polygon fill="gray" stroke="gray" stroke-width="2" points="366.27,-836.23 369.77,-826.23 360.79,-831.87 366.27,-836.23"/>
</g>
<!-- RMD -->
<g id="node31" class="node">
<title>RMD</title>
<ellipse fill="none" stroke="black" cx="385.3" cy="-729" rx="31.6" ry="18"/>
<text text-anchor="middle" x="385.3" y="-723.58" font-family="Times New Roman,serif" font-size="14.00">RMD</text>
</g>
<!-- RIG&#45;&gt;RMD -->
<g id="edge30" class="edge">
<title>RIG&#45;&gt;RMD</title>
<path fill="none" stroke="blue" stroke-width="5" d="M230.31,-1333.59C265.39,-1160.2 335.46,-829.97 354.61,-754.84"/>
<polygon fill="blue" stroke="blue" stroke-width="5" points="358.75,-756.27 357.41,-745.44 350.36,-753.77 358.75,-756.27"/>
</g>
<!-- RMF -->
<g id="node32" class="node">
<title>RMF</title>
<ellipse fill="none" stroke="black" cx="385.3" cy="-650" rx="30.61" ry="18"/>
<text text-anchor="middle" x="385.3" y="-644.58" font-family="Times New Roman,serif" font-size="14.00">RMF</text>
</g>
<!-- RIG&#45;&gt;RMF -->
<g id="edge31" class="edge">
<title>RIG&#45;&gt;RMF</title>
<path fill="none" stroke="gray" stroke-width="5" d="M228.31,-1333.48C262.85,-1143.06 335.99,-758.02 355.17,-675.73"/>
<polygon fill="gray" stroke="gray" stroke-width="5" points="359.38,-676.94 357.83,-666.14 350.94,-674.61 359.38,-676.94"/>
</g>
<!-- RMG -->
<g id="node33" class="node">
<title>RMG</title>
<ellipse fill="none" stroke="black" cx="385.3" cy="-571" rx="32.1" ry="18"/>
<text text-anchor="middle" x="385.3" y="-565.58" font-family="Times New Roman,serif" font-size="14.00">RMG</text>
</g>
<!-- RIG&#45;&gt;RMG -->
<g id="edge32" class="edge">
<title>RIG&#45;&gt;RMG</title>
<path fill="none" stroke="red" stroke-width="2" d="M226.75,-1333C261.15,-1123.68 338.32,-674.99 355.68,-594.28"/>
<polygon fill="red" stroke="red" stroke-width="2" points="359.04,-595.27 358.15,-584.72 352.26,-593.52 359.04,-595.27"/>
</g>
<!-- RMH -->
<g id="node34" class="node">
<title>RMH</title>
<ellipse fill="none" stroke="black" cx="385.3" cy="-492" rx="31.6" ry="18"/>
<text text-anchor="middle" x="385.3" y="-486.57" font-family="Times New Roman,serif" font-size="14.00">RMH</text>
</g>
<!-- RIG&#45;&gt;RMH -->
<g id="edge33" class="edge">
<title>RIG&#45;&gt;RMH</title>
<path fill="none" stroke="gray" stroke-width="5" d="M225.37,-1333C258.79,-1110.62 336.95,-612.92 355.51,-518.15"/>
<polygon fill="gray" stroke="gray" stroke-width="5" points="359.74,-519.27 357.77,-508.53 351.22,-517.26 359.74,-519.27"/>
</g>
<!-- SAA -->
<g id="node35" class="node">
<title>SAA</title>
<ellipse fill="none" stroke="black" cx="385.3" cy="-413" rx="29.11" ry="18"/>
<text text-anchor="middle" x="385.3" y="-407.57" font-family="Times New Roman,serif" font-size="14.00">SAA</text>
</g>
<!-- RIG&#45;&gt;SAA -->
<g id="edge34" class="edge">
<title>RIG&#45;&gt;SAA</title>
<path fill="none" stroke="gray" stroke-width="5" d="M224.24,-1332.78C257.14,-1095.2 337.48,-539.23 356.45,-438.25"/>
<polygon fill="gray" stroke="gray" stroke-width="5" points="360.71,-439.26 358.7,-428.53 352.18,-437.29 360.71,-439.26"/>
</g>
<!-- SMB -->
<g id="node36" class="node">
<title>SMB</title>
<ellipse fill="none" stroke="black" cx="385.3" cy="-334" rx="30.11" ry="18"/>
<text text-anchor="middle" x="385.3" y="-328.57" font-family="Times New Roman,serif" font-size="14.00">SMB</text>
</g>
<!-- RIG&#45;&gt;SMB -->
<g id="edge35" class="edge">
<title>RIG&#45;&gt;SMB</title>
<path fill="none" stroke="gray" stroke-width="0.2" d="M224.57,-1332.81C260.83,-1062.23 353.2,-373 353.2,-373 353.2,-373 358.58,-366.25 364.87,-358.37"/>
<polygon fill="gray" stroke="gray" stroke-width="0.2" points="367.61,-360.55 371.11,-350.55 362.13,-356.19 367.61,-360.55"/>
</g>
<!-- SMD -->
<g id="node37" class="node">
<title>SMD</title>
<ellipse fill="none" stroke="black" cx="385.3" cy="-255" rx="30.61" ry="18"/>
<text text-anchor="middle" x="385.3" y="-249.57" font-family="Times New Roman,serif" font-size="14.00">SMD</text>
</g>
<!-- RIG&#45;&gt;SMD -->
<g id="edge36" class="edge">
<title>RIG&#45;&gt;SMD</title>
<path fill="none" stroke="blue" stroke-width="2" d="M223.59,-1332.7C259.14,-1047.81 353.2,-294 353.2,-294 353.2,-294 357.73,-288.33 363.32,-281.31"/>
<polygon fill="blue" stroke="blue" stroke-width="2" points="365.91,-283.68 369.41,-273.68 360.44,-279.32 365.91,-283.68"/>
</g>
<!-- URA -->
<g id="node38" class="node">
<title>URA</title>
<ellipse fill="none" stroke="black" cx="385.3" cy="-176" rx="30.11" ry="18"/>
<text text-anchor="middle" x="385.3" y="-170.57" font-family="Times New Roman,serif" font-size="14.00">URA</text>
</g>
<!-- RIG&#45;&gt;URA -->
<g id="edge37" class="edge">
<title>RIG&#45;&gt;URA</title>
<path fill="none" stroke="gray" stroke-width="0.2" d="M222.77,-1332.36C257.66,-1033.44 353.2,-215 353.2,-215 353.2,-215 358.58,-208.25 364.87,-200.37"/>
<polygon fill="gray" stroke="gray" stroke-width="0.2" points="367.61,-202.55 371.11,-192.55 362.13,-198.19 367.61,-202.55"/>
</g>
<!-- URX -->
<g id="node39" class="node">
<title>URX</title>
<ellipse fill="none" stroke="black" cx="385.3" cy="-97" rx="30.11" ry="18"/>
<text text-anchor="middle" x="385.3" y="-91.58" font-family="Times New Roman,serif" font-size="14.00">URX</text>
</g>
<!-- RIG&#45;&gt;URX -->
<g id="edge38" class="edge">
<title>RIG&#45;&gt;URX</title>
<path fill="none" stroke="gray" stroke-width="0.2" d="M221.01,-1332.32C252.4,-1034.38 342.03,-216.46 357.77,-116.74"/>
<polygon fill="gray" stroke="gray" stroke-width="0.2" points="361.17,-117.59 359.74,-107.09 354.31,-116.19 361.17,-117.59"/>
</g>
<!-- URY -->
<g id="node40" class="node">
<title>URY</title>
<ellipse fill="none" stroke="black" cx="385.3" cy="-18" rx="30.11" ry="18"/>
<text text-anchor="middle" x="385.3" y="-12.57" font-family="Times New Roman,serif" font-size="14.00">URY</text>
</g>
<!-- RIG&#45;&gt;URY -->
<g id="edge39" class="edge">
<title>RIG&#45;&gt;URY</title>
<path fill="none" stroke="gray" stroke-width="2" d="M220.43,-1332.17C251.08,-1023.95 340.77,-155.76 357.45,-40.45"/>
<polygon fill="gray" stroke="gray" stroke-width="2" points="360.87,-41.24 359.25,-30.77 353.98,-39.96 360.87,-41.24"/>
</g>
<!-- ADE&#45;&gt;RIG -->
<g id="edge40" class="edge">
<title>ADE&#45;&gt;RIG</title>
<path fill="none" stroke="black" stroke-width="5" d="M360.1,-3010.55C356.09,-3006.12 353.2,-3002.5 353.2,-3002.5 353.2,-3002.5 254.02,-1933.64 220.85,-1563.87"/>
<polygon fill="black" stroke="black" stroke-width="5" points="225.23,-1563.63 219.98,-1554.06 216.51,-1564.41 225.23,-1563.63"/>
</g>
<!-- ADF&#45;&gt;RIG -->
<g id="edge41" class="edge">
<title>ADF&#45;&gt;RIG</title>
<path fill="none" stroke="red" stroke-width="5" d="M360.1,-2931.55C356.09,-2927.12 353.2,-2923.5 353.2,-2923.5 353.2,-2923.5 255.08,-1920.37 221.4,-1563.74"/>
<polygon fill="red" stroke="red" stroke-width="5" points="225.77,-1563.52 220.48,-1553.97 217.06,-1564.34 225.77,-1563.52"/>
</g>
<!-- ADL&#45;&gt;RIG -->
<g id="edge42" class="edge">
<title>ADL&#45;&gt;RIG</title>
<path fill="none" stroke="gray" stroke-width="0.2" d="M360.1,-2852.55C356.09,-2848.12 353.2,-2844.5 353.2,-2844.5 353.2,-2844.5 255.15,-1896.22 221.43,-1557.9"/>
<polygon fill="gray" stroke="gray" stroke-width="0.2" points="224.93,-1557.73 220.46,-1548.13 217.97,-1558.42 224.93,-1557.73"/>
</g>
<!-- AIB&#45;&gt;RIG -->
<g id="edge43" class="edge">
<title>AIB&#45;&gt;RIG</title>
<path fill="none" stroke="red" stroke-width="0.2" d="M361.05,-2695.58C356.55,-2690.7 353.2,-2686.5 353.2,-2686.5 353.2,-2686.5 257.68,-1868.23 222.78,-1557.49"/>
<polygon fill="red" stroke="red" stroke-width="0.2" points="226.29,-1557.4 221.7,-1547.85 219.33,-1558.18 226.29,-1557.4"/>
</g>
<!-- AIZ&#45;&gt;RIG -->
<g id="edge44" class="edge">
<title>AIZ&#45;&gt;RIG</title>
<path fill="none" stroke="gray" stroke-width="2" d="M361.05,-2616.58C356.55,-2611.7 353.2,-2607.5 353.2,-2607.5 353.2,-2607.5 259.74,-1858.47 223.93,-1560.17"/>
<polygon fill="gray" stroke="gray" stroke-width="2" points="227.45,-1560.12 222.79,-1550.6 220.5,-1560.95 227.45,-1560.12"/>
</g>
<!-- ALN&#45;&gt;RIG -->
<g id="edge45" class="edge">
<title>ALN&#45;&gt;RIG</title>
<path fill="none" stroke="gray" stroke-width="0.2" d="M360.1,-2536.55C356.09,-2532.12 353.2,-2528.5 353.2,-2528.5 353.2,-2528.5 260.78,-1838.87 224.54,-1557.29"/>
<polygon fill="gray" stroke="gray" stroke-width="0.2" points="228.06,-1557.22 223.31,-1547.74 221.11,-1558.11 228.06,-1557.22"/>
</g>
<!-- AQR&#45;&gt;RIG -->
<g id="edge46" class="edge">
<title>AQR&#45;&gt;RIG</title>
<path fill="none" stroke="gray" stroke-width="0.2" d="M359.5,-2456.87C355.8,-2452.76 353.2,-2449.5 353.2,-2449.5 353.2,-2449.5 262.61,-1823.62 225.64,-1557.31"/>
<polygon fill="gray" stroke="gray" stroke-width="0.2" points="229.12,-1556.94 224.28,-1547.52 222.19,-1557.91 229.12,-1556.94"/>
</g>
<!-- AVK&#45;&gt;RIG -->
<g id="edge47" class="edge">
<title>AVK&#45;&gt;RIG</title>
<path fill="none" stroke="gray" stroke-width="0.2" d="M359.8,-1983.21C355.94,-1978.94 353.2,-1975.5 353.2,-1975.5 353.2,-1975.5 280,-1712.37 238.34,-1554.77"/>
<polygon fill="gray" stroke="gray" stroke-width="0.2" points="241.78,-1554.08 235.84,-1545.31 235.01,-1555.87 241.78,-1554.08"/>
</g>
<!-- BAG&#45;&gt;RIG -->
<g id="edge48" class="edge">
<title>BAG&#45;&gt;RIG</title>
<path fill="none" stroke="gray" stroke-width="5" d="M359.8,-1904.21C355.94,-1899.94 353.2,-1896.5 353.2,-1896.5 353.2,-1896.5 286.92,-1694.89 244.61,-1559.39"/>
<polygon fill="gray" stroke="gray" stroke-width="5" points="248.84,-1558.24 241.69,-1549.99 240.48,-1560.84 248.84,-1558.24"/>
</g>
<!-- DVC&#45;&gt;RIG -->
<g id="edge49" class="edge">
<title>DVC&#45;&gt;RIG</title>
<path fill="none" stroke="gray" stroke-width="5" d="M359.8,-1746.21C355.94,-1741.94 353.2,-1738.5 353.2,-1738.5 353.2,-1738.5 301.4,-1638.15 260.15,-1553.56"/>
<polygon fill="gray" stroke="gray" stroke-width="5" points="264.13,-1551.75 255.83,-1544.67 256.26,-1555.58 264.13,-1551.75"/>
</g>
<!-- OLQ&#45;&gt;RIG -->
<g id="edge50" class="edge">
<title>OLQ&#45;&gt;RIG</title>
<path fill="none" stroke="gray" stroke-width="0.2" d="M360.11,-1587.62C341.48,-1574.12 314.63,-1551.24 288.78,-1527.36"/>
<polygon fill="gray" stroke="gray" stroke-width="0.2" points="291.44,-1525.07 281.74,-1520.82 286.68,-1530.19 291.44,-1525.07"/>
</g>
<!-- PVP&#45;&gt;RIG -->
<g id="edge51" class="edge">
<title>PVP&#45;&gt;RIG</title>
<path fill="none" stroke="red" stroke-width="0.2" d="M362.52,-1451.11C352.64,-1453.09 340.13,-1454.48 326.55,-1455.28"/>
<polygon fill="red" stroke="red" stroke-width="0.2" points="326.62,-1451.78 316.8,-1455.76 326.95,-1458.77 326.62,-1451.78"/>
</g>
<!-- PVT&#45;&gt;RIG -->
<g id="edge52" class="edge">
<title>PVT&#45;&gt;RIG</title>
<path fill="none" stroke="red" stroke-width="5" d="M374.44,-1298.92C361.11,-1315.75 335.91,-1341.29 309.19,-1366.16"/>
<polygon fill="red" stroke="red" stroke-width="5" points="306.25,-1362.92 301.85,-1372.9 312.17,-1369.36 306.25,-1362.92"/>
</g>
<!-- RIB&#45;&gt;RIG -->
<g id="edge53" class="edge">
<title>RIB&#45;&gt;RIG</title>
<path fill="none" stroke="red" stroke-width="2" d="M379.71,-1141.9C371.06,-1162.1 353.2,-1184.5 353.2,-1184.5 353.2,-1184.5 311.29,-1265.68 272.85,-1336.73"/>
<polygon fill="red" stroke="red" stroke-width="2" points="269.86,-1334.91 268.16,-1345.37 276.01,-1338.25 269.86,-1334.91"/>
</g>
<!-- RIH&#45;&gt;RIG -->
<g id="edge54" class="edge">
<title>RIH&#45;&gt;RIG</title>
<path fill="none" stroke="gray" stroke-width="0.2" d="M379.71,-1062.9C371.06,-1083.1 353.2,-1105.5 353.2,-1105.5 353.2,-1105.5 301.27,-1234.79 260,-1332.83"/>
<polygon fill="gray" stroke="gray" stroke-width="0.2" points="256.82,-1331.36 256.16,-1341.94 263.27,-1334.08 256.82,-1331.36"/>
</g>
<!-- RIM&#45;&gt;RIG -->
<g id="edge55" class="edge">
<title>RIM&#45;&gt;RIG</title>
<path fill="none" stroke="gray" stroke-width="0.2" d="M379.71,-983.9C371.06,-1004.1 353.2,-1026.5 353.2,-1026.5 353.2,-1026.5 293.92,-1206.84 251.69,-1329.55"/>
<polygon fill="gray" stroke="gray" stroke-width="0.2" points="248.48,-1328.13 248.53,-1338.73 255.1,-1330.41 248.48,-1328.13"/>
</g>
<!-- RIR&#45;&gt;RIG -->
<g id="edge56" class="edge">
<title>RIR&#45;&gt;RIG</title>
<path fill="none" stroke="red" stroke-width="2" d="M379.71,-904.9C371.06,-925.1 353.2,-947.5 353.2,-947.5 353.2,-947.5 288.71,-1179.3 246.35,-1325.06"/>
<polygon fill="red" stroke="red" stroke-width="2" points="243.11,-1323.66 243.68,-1334.24 249.83,-1325.62 243.11,-1323.66"/>
</g>
<!-- RMD&#45;&gt;RIG -->
<g id="edge57" class="edge">
<title>RMD&#45;&gt;RIG</title>
<path fill="none" stroke="gray" stroke-width="0.2" d="M379.71,-746.9C371.06,-767.1 353.2,-789.5 353.2,-789.5 353.2,-789.5 279.07,-1137.89 237.55,-1324.95"/>
<polygon fill="gray" stroke="gray" stroke-width="0.2" points="234.17,-1324.01 235.42,-1334.53 241.01,-1325.53 234.17,-1324.01"/>
</g>
<!-- RMF&#45;&gt;RIG -->
<g id="edge58" class="edge">
<title>RMF&#45;&gt;RIG</title>
<path fill="none" stroke="gray" stroke-width="2" d="M379.71,-667.9C371.06,-688.1 353.2,-710.5 353.2,-710.5 353.2,-710.5 276.23,-1114.73 235.23,-1321.57"/>
<polygon fill="gray" stroke="gray" stroke-width="2" points="231.81,-1320.84 233.29,-1331.33 238.67,-1322.2 231.81,-1320.84"/>
</g>
<!-- RMG&#45;&gt;RIG -->
<g id="edge59" class="edge">
<title>RMG&#45;&gt;RIG</title>
<path fill="none" stroke="gray" stroke-width="0.2" d="M379.58,-589.21C370.88,-609.33 353.2,-631.5 353.2,-631.5 353.2,-631.5 272.44,-1100.27 232.3,-1324.11"/>
<polygon fill="gray" stroke="gray" stroke-width="0.2" points="228.91,-1323.16 230.59,-1333.63 235.8,-1324.4 228.91,-1323.16"/>
</g>
<!-- RMH&#45;&gt;RIG -->
<g id="edge60" class="edge">
<title>RMH&#45;&gt;RIG</title>
<path fill="none" stroke="gray" stroke-width="0.2" d="M379.71,-509.9C371.06,-530.1 353.2,-552.5 353.2,-552.5 353.2,-552.5 269.77,-1082.84 230.36,-1323.76"/>
<polygon fill="gray" stroke="gray" stroke-width="0.2" points="226.96,-1322.88 228.8,-1333.31 233.87,-1324.01 226.96,-1322.88"/>
</g>
<!-- SAA&#45;&gt;RIG -->
<g id="edge61" class="edge">
<title>SAA&#45;&gt;RIG</title>
<path fill="none" stroke="gray" stroke-width="0.2" d="M379.71,-430.9C371.06,-451.1 353.2,-473.5 353.2,-473.5 353.2,-473.5 267.46,-1065.88 228.76,-1323.27"/>
<polygon fill="gray" stroke="gray" stroke-width="0.2" points="225.31,-1322.7 227.28,-1333.11 232.23,-1323.74 225.31,-1322.7"/>
</g>
<!-- URX&#45;&gt;RIG -->
<g id="edge62" class="edge">
<title>URX&#45;&gt;RIG</title>
<path fill="none" stroke="black" stroke-width="5" d="M379.71,-114.9C371.06,-135.1 353.2,-157.5 353.2,-157.5 353.2,-157.5 261.36,-995.01 224.88,-1316.58"/>
<polygon fill="black" stroke="black" stroke-width="5" points="220.57,-1315.79 223.79,-1326.22 229.26,-1316.78 220.57,-1315.79"/>
</g>
<!-- URY&#45;&gt;RIG -->
<g id="edge63" class="edge">
<title>URY&#45;&gt;RIG</title>
<path fill="none" stroke="gray" stroke-width="0.2" d="M379.71,-35.9C371.06,-56.1 353.2,-78.5 353.2,-78.5 353.2,-78.5 258.77,-991.78 223.38,-1322.49"/>
<polygon fill="gray" stroke="gray" stroke-width="0.2" points="219.92,-1321.96 222.33,-1332.28 226.88,-1322.71 219.92,-1321.96"/>
</g>
<!-- ASI -->
<g id="node41" class="node">
<title>ASI</title>
<ellipse fill="none" stroke="black" cx="32.6" cy="-1677" rx="27" ry="18"/>
<text text-anchor="middle" x="32.6" y="-1671.58" font-family="Times New Roman,serif" font-size="14.00">ASI</text>
</g>
<!-- ASI&#45;&gt;RIG -->
<g id="edge64" class="edge">
<title>ASI&#45;&gt;RIG</title>
<path fill="none" stroke="gray" stroke-width="0.2" d="M46.45,-1661.14C55.2,-1650.34 65.2,-1638 65.2,-1638 65.2,-1638 102.64,-1586.16 139.21,-1535.53"/>
<polygon fill="gray" stroke="gray" stroke-width="0.2" points="141.87,-1537.82 144.89,-1527.67 136.19,-1533.73 141.87,-1537.82"/>
</g>
<!-- AVH -->
<g id="node42" class="node">
<title>AVH</title>
<ellipse fill="none" stroke="black" cx="32.6" cy="-1598" rx="30.11" ry="18"/>
<text text-anchor="middle" x="32.6" y="-1592.58" font-family="Times New Roman,serif" font-size="14.00">AVH</text>
</g>
<!-- AVH&#45;&gt;RIG -->
<g id="edge65" class="edge">
<title>AVH&#45;&gt;RIG</title>
<path fill="none" stroke="gray" stroke-width="0.2" d="M50.03,-1583.14C66.78,-1567.97 94.12,-1543.23 121.4,-1518.55"/>
<polygon fill="gray" stroke="gray" stroke-width="0.2" points="123.41,-1521.45 128.48,-1512.14 118.71,-1516.26 123.41,-1521.45"/>
</g>
<!-- AVL -->
<g id="node43" class="node">
<title>AVL</title>
<ellipse fill="none" stroke="black" cx="32.6" cy="-1519" rx="29.11" ry="18"/>
<text text-anchor="middle" x="32.6" y="-1513.58" font-family="Times New Roman,serif" font-size="14.00">AVL</text>
</g>
<!-- AVL&#45;&gt;RIG -->
<g id="edge66" class="edge">
<title>AVL&#45;&gt;RIG</title>
<path fill="none" stroke="gray" stroke-width="2" d="M56.79,-1508.51C68.21,-1503.34 82.89,-1496.7 98.61,-1489.59"/>
<polygon fill="gray" stroke="gray" stroke-width="2" points="99.78,-1492.9 107.44,-1485.59 96.89,-1486.52 99.78,-1492.9"/>
</g>
<!-- AWA -->
<g id="node44" class="node">
<title>AWA</title>
<ellipse fill="none" stroke="black" cx="32.6" cy="-1440" rx="32.6" ry="18"/>
<text text-anchor="middle" x="32.6" y="-1434.58" font-family="Times New Roman,serif" font-size="14.00">AWA</text>
</g>
<!-- AWA&#45;&gt;RIG -->
<g id="edge67" class="edge">
<title>AWA&#45;&gt;RIG</title>
<path fill="none" stroke="gray" stroke-width="0.2" d="M65.63,-1440C73.14,-1440 81.57,-1440 90.5,-1440"/>
<polygon fill="gray" stroke="gray" stroke-width="0.2" points="90.45,-1443.5 100.45,-1440 90.45,-1436.5 90.45,-1443.5"/>
</g>
<!-- AWB -->
<g id="node45" class="node">
<title>AWB</title>
<ellipse fill="none" stroke="black" cx="32.6" cy="-1361" rx="32.1" ry="18"/>
<text text-anchor="middle" x="32.6" y="-1355.58" font-family="Times New Roman,serif" font-size="14.00">AWB</text>
</g>
<!-- AWB&#45;&gt;RIG -->
<g id="edge68" class="edge">
<title>AWB&#45;&gt;RIG</title>
<path fill="none" stroke="red" stroke-width="2" d="M58.25,-1372.15C69.48,-1377.24 83.65,-1383.64 98.76,-1390.48"/>
<polygon fill="red" stroke="red" stroke-width="2" points="97.15,-1393.6 107.71,-1394.53 100.04,-1387.22 97.15,-1393.6"/>
</g>
<!-- IL2 -->
<g id="node46" class="node">
<title>IL2</title>
<ellipse fill="none" stroke="black" cx="32.6" cy="-1282" rx="27" ry="18"/>
<text text-anchor="middle" x="32.6" y="-1276.58" font-family="Times New Roman,serif" font-size="14.00">IL2</text>
</g>
<!-- IL2&#45;&gt;RIG -->
<g id="edge69" class="edge">
<title>IL2&#45;&gt;RIG</title>
<path fill="none" stroke="gray" stroke-width="0.2" d="M49.4,-1296.3C66.05,-1311.36 93.62,-1336.31 121.15,-1361.23"/>
<polygon fill="gray" stroke="gray" stroke-width="0.2" points="118.54,-1363.58 128.3,-1367.7 123.24,-1358.39 118.54,-1363.58"/>
</g>
<!-- VBn -->
<g id="node47" class="node">
<title>VBn</title>
<ellipse fill="none" stroke="black" cx="32.6" cy="-1203" rx="27.61" ry="18"/>
<text text-anchor="middle" x="32.6" y="-1197.58" font-family="Times New Roman,serif" font-size="14.00">VBn</text>
</g>
<!-- VBn&#45;&gt;RIG -->
<g id="edge70" class="edge">
<title>VBn&#45;&gt;RIG</title>
<path fill="none" stroke="gray" stroke-width="0.2" d="M46.09,-1218.81C54.92,-1229.99 65.2,-1243 65.2,-1243 65.2,-1243 102.51,-1294.39 139.01,-1344.68"/>
<polygon fill="gray" stroke="gray" stroke-width="0.2" points="135.97,-1346.45 144.68,-1352.49 141.64,-1342.34 135.97,-1346.45"/>
</g>
</g>
</svg>
