<?xml version="1.0" encoding="UTF-8" standalone="no"?>
<!DOCTYPE svg PUBLIC "-//W3C//DTD SVG 1.1//EN"
 "http://www.w3.org/Graphics/SVG/1.1/DTD/svg11.dtd">
<!-- Generated by graphviz version 11.0.0 (20240428.1522)
 -->
<!-- Pages: 1 -->
<svg width="422pt" height="1545pt"
 viewBox="0.00 0.00 422.41 1545.00" xmlns="http://www.w3.org/2000/svg" xmlns:xlink="http://www.w3.org/1999/xlink">
<g id="graph0" class="graph" transform="scale(1 1) rotate(0) translate(4 1541)">
<polygon fill="white" stroke="none" points="-4,4 -4,-1541 418.41,-1541 418.41,4 -4,4"/>
<!-- RIH -->
<g id="node1" class="node">
<title>RIH</title>
<ellipse fill="none" stroke="black" cx="209.2" cy="-729" rx="108" ry="108"/>
<text text-anchor="middle" x="209.2" y="-710" font-family="Times New Roman,serif" font-size="50.00">RIH</text>
</g>
<!-- ADF -->
<g id="node2" class="node">
<title>ADF</title>
<ellipse fill="none" stroke="black" cx="383.81" cy="-1519" rx="29.11" ry="18"/>
<text text-anchor="middle" x="383.81" y="-1513.58" font-family="Times New Roman,serif" font-size="14.00">ADF</text>
</g>
<!-- RIH&#45;&gt;ADF -->
<g id="edge1" class="edge">
<title>RIH&#45;&gt;ADF</title>
<path fill="none" stroke="gray" stroke-width="0.2" d="M232.7,-834.7C272.97,-1037.16 353.2,-1458.5 353.2,-1458.5 353.2,-1458.5 365.53,-1474.74 374.28,-1492.04"/>
<polygon fill="gray" stroke="gray" stroke-width="0.2" points="370.96,-1493.2 378.31,-1500.83 377.32,-1490.28 370.96,-1493.2"/>
</g>
<!-- AIB -->
<g id="node3" class="node">
<title>AIB</title>
<ellipse fill="none" stroke="black" cx="383.81" cy="-1440" rx="27" ry="18"/>
<text text-anchor="middle" x="383.81" y="-1434.58" font-family="Times New Roman,serif" font-size="14.00">AIB</text>
</g>
<!-- RIH&#45;&gt;AIB -->
<g id="edge2" class="edge">
<title>RIH&#45;&gt;AIB</title>
<path fill="none" stroke="gray" stroke-width="0.2" d="M232.7,-834.74C272.97,-1023.98 353.2,-1401 353.2,-1401 353.2,-1401 358.47,-1407.94 364.56,-1415.97"/>
<polygon fill="gray" stroke="gray" stroke-width="0.2" points="361.75,-1418.05 370.58,-1423.9 367.32,-1413.81 361.75,-1418.05"/>
</g>
<!-- AIY -->
<g id="node4" class="node">
<title>AIY</title>
<ellipse fill="none" stroke="black" cx="383.81" cy="-1361" rx="27" ry="18"/>
<text text-anchor="middle" x="383.81" y="-1355.58" font-family="Times New Roman,serif" font-size="14.00">AIY</text>
</g>
<!-- RIH&#45;&gt;AIY -->
<g id="edge3" class="edge">
<title>RIH&#45;&gt;AIY</title>
<path fill="none" stroke="black" stroke-width="5" d="M238.63,-833.19C280.33,-998.3 353.2,-1300.5 353.2,-1300.5 353.2,-1300.5 363.17,-1313.63 371.54,-1328.85"/>
<polygon fill="black" stroke="black" stroke-width="5" points="367.42,-1330.4 375.72,-1337.49 375.3,-1326.58 367.42,-1330.4"/>
</g>
<!-- AIZ -->
<g id="node5" class="node">
<title>AIZ</title>
<ellipse fill="none" stroke="black" cx="383.81" cy="-1282" rx="27" ry="18"/>
<text text-anchor="middle" x="383.81" y="-1276.58" font-family="Times New Roman,serif" font-size="14.00">AIZ</text>
</g>
<!-- RIH&#45;&gt;AIZ -->
<g id="edge4" class="edge">
<title>RIH&#45;&gt;AIZ</title>
<path fill="none" stroke="gray" stroke-width="5" d="M242.83,-831.85C285.03,-976.48 353.2,-1221.5 353.2,-1221.5 353.2,-1221.5 363.17,-1234.63 371.54,-1249.85"/>
<polygon fill="gray" stroke="gray" stroke-width="5" points="367.42,-1251.4 375.72,-1258.49 375.3,-1247.58 367.42,-1251.4"/>
</g>
<!-- AUA -->
<g id="node6" class="node">
<title>AUA</title>
<ellipse fill="none" stroke="black" cx="383.81" cy="-1203" rx="30.11" ry="18"/>
<text text-anchor="middle" x="383.81" y="-1197.58" font-family="Times New Roman,serif" font-size="14.00">AUA</text>
</g>
<!-- RIH&#45;&gt;AUA -->
<g id="edge5" class="edge">
<title>RIH&#45;&gt;AUA</title>
<path fill="none" stroke="red" stroke-width="0.2" d="M243.91,-831.54C286.19,-960.14 353.2,-1164 353.2,-1164 353.2,-1164 358.33,-1170.75 364.31,-1178.63"/>
<polygon fill="red" stroke="red" stroke-width="0.2" points="361.41,-1180.6 370.24,-1186.45 366.98,-1176.36 361.41,-1180.6"/>
</g>
<!-- AVE -->
<g id="node7" class="node">
<title>AVE</title>
<ellipse fill="none" stroke="black" cx="383.81" cy="-1124" rx="29.11" ry="18"/>
<text text-anchor="middle" x="383.81" y="-1118.58" font-family="Times New Roman,serif" font-size="14.00">AVE</text>
</g>
<!-- RIH&#45;&gt;AVE -->
<g id="edge6" class="edge">
<title>RIH&#45;&gt;AVE</title>
<path fill="none" stroke="gray" stroke-width="0.2" d="M250.42,-829.11C292.71,-934.41 353.2,-1085 353.2,-1085 353.2,-1085 358.33,-1091.75 364.31,-1099.63"/>
<polygon fill="gray" stroke="gray" stroke-width="0.2" points="361.41,-1101.6 370.24,-1107.45 366.98,-1097.36 361.41,-1101.6"/>
</g>
<!-- BAG -->
<g id="node8" class="node">
<title>BAG</title>
<ellipse fill="none" stroke="black" cx="383.81" cy="-1045" rx="30.11" ry="18"/>
<text text-anchor="middle" x="383.81" y="-1039.58" font-family="Times New Roman,serif" font-size="14.00">BAG</text>
</g>
<!-- RIH&#45;&gt;BAG -->
<g id="edge7" class="edge">
<title>RIH&#45;&gt;BAG</title>
<path fill="none" stroke="gray" stroke-width="2" d="M259.61,-824.72C300.95,-904.78 353.2,-1006 353.2,-1006 353.2,-1006 357.51,-1011.67 362.83,-1018.69"/>
<polygon fill="gray" stroke="gray" stroke-width="2" points="359.76,-1020.43 368.59,-1026.28 365.33,-1016.19 359.76,-1020.43"/>
</g>
<!-- CEP -->
<g id="node9" class="node">
<title>CEP</title>
<ellipse fill="none" stroke="black" cx="383.81" cy="-966" rx="28.11" ry="18"/>
<text text-anchor="middle" x="383.81" y="-960.58" font-family="Times New Roman,serif" font-size="14.00">CEP</text>
</g>
<!-- RIH&#45;&gt;CEP -->
<g id="edge8" class="edge">
<title>RIH&#45;&gt;CEP</title>
<path fill="none" stroke="gray" stroke-width="5" d="M281.91,-809.46C317.59,-856.19 353.2,-905.5 353.2,-905.5 353.2,-905.5 363.17,-918.63 371.54,-933.85"/>
<polygon fill="gray" stroke="gray" stroke-width="5" points="367.42,-935.4 375.72,-942.49 375.3,-931.58 367.42,-935.4"/>
</g>
<!-- IL1 -->
<g id="node10" class="node">
<title>IL1</title>
<ellipse fill="none" stroke="black" cx="383.81" cy="-887" rx="27" ry="18"/>
<text text-anchor="middle" x="383.81" y="-881.58" font-family="Times New Roman,serif" font-size="14.00">IL1</text>
</g>
<!-- RIH&#45;&gt;IL1 -->
<g id="edge9" class="edge">
<title>RIH&#45;&gt;IL1</title>
<path fill="none" stroke="gray" stroke-width="2" d="M289.68,-801.76C314.21,-824.2 339.47,-847.33 357.48,-863.82"/>
<polygon fill="gray" stroke="gray" stroke-width="2" points="354.97,-866.26 364.71,-870.43 359.69,-861.1 354.97,-866.26"/>
</g>
<!-- IL2 -->
<g id="node11" class="node">
<title>IL2</title>
<ellipse fill="none" stroke="black" cx="383.81" cy="-808" rx="27" ry="18"/>
<text text-anchor="middle" x="383.81" y="-802.58" font-family="Times New Roman,serif" font-size="14.00">IL2</text>
</g>
<!-- RIH&#45;&gt;IL2 -->
<g id="edge10" class="edge">
<title>RIH&#45;&gt;IL2</title>
<path fill="none" stroke="red" stroke-width="5" d="M313.1,-760.24C328.73,-767.9 343.61,-775.96 355.58,-783.4"/>
<polygon fill="red" stroke="red" stroke-width="5" points="353.1,-787.01 363.84,-788.96 357.98,-779.75 353.1,-787.01"/>
</g>
<!-- OLQ -->
<g id="node12" class="node">
<title>OLQ</title>
<ellipse fill="none" stroke="black" cx="383.81" cy="-729" rx="30.11" ry="18"/>
<text text-anchor="middle" x="383.81" y="-723.58" font-family="Times New Roman,serif" font-size="14.00">OLQ</text>
</g>
<!-- RIH&#45;&gt;OLQ -->
<g id="edge11" class="edge">
<title>RIH&#45;&gt;OLQ</title>
<path fill="none" stroke="black" stroke-width="5" d="M316.07,-713.25C325.98,-713.63 335.52,-714.32 344.14,-715.29"/>
<polygon fill="black" stroke="black" stroke-width="5" points="343.19,-719.58 353.73,-716.72 344.48,-710.92 343.19,-719.58"/>
</g>
<!-- RIA -->
<g id="node13" class="node">
<title>RIA</title>
<ellipse fill="none" stroke="black" cx="383.81" cy="-650" rx="27" ry="18"/>
<text text-anchor="middle" x="383.81" y="-644.58" font-family="Times New Roman,serif" font-size="14.00">RIA</text>
</g>
<!-- RIH&#45;&gt;RIA -->
<g id="edge12" class="edge">
<title>RIH&#45;&gt;RIA</title>
<path fill="none" stroke="black" stroke-width="5" d="M301.05,-671.31C315.17,-664.98 329.13,-659.29 341.4,-654.95"/>
<polygon fill="black" stroke="black" stroke-width="5" points="342.35,-659.24 350.51,-652 339.65,-650.92 342.35,-659.24"/>
</g>
<!-- RIB -->
<g id="node14" class="node">
<title>RIB</title>
<ellipse fill="none" stroke="black" cx="383.81" cy="-571" rx="27" ry="18"/>
<text text-anchor="middle" x="383.81" y="-565.58" font-family="Times New Roman,serif" font-size="14.00">RIB</text>
</g>
<!-- RIH&#45;&gt;RIB -->
<g id="edge13" class="edge">
<title>RIH&#45;&gt;RIB</title>
<path fill="none" stroke="black" stroke-width="5" d="M280.91,-648.39C303.94,-626.6 328.51,-604.98 347.75,-589.82"/>
<polygon fill="black" stroke="black" stroke-width="5" points="350.12,-593.51 355.46,-583.98 344.84,-586.53 350.12,-593.51"/>
</g>
<!-- RIG -->
<g id="node15" class="node">
<title>RIG</title>
<ellipse fill="none" stroke="black" cx="383.81" cy="-492" rx="27.11" ry="18"/>
<text text-anchor="middle" x="383.81" y="-486.57" font-family="Times New Roman,serif" font-size="14.00">RIG</text>
</g>
<!-- RIH&#45;&gt;RIG -->
<g id="edge14" class="edge">
<title>RIH&#45;&gt;RIG</title>
<path fill="none" stroke="gray" stroke-width="0.2" d="M265.08,-636.05C305.41,-576.34 353.2,-510.5 353.2,-510.5 353.2,-510.5 353.5,-510.1 354.03,-509.4"/>
<polygon fill="gray" stroke="gray" stroke-width="0.2" points="356.64,-511.75 360.18,-501.76 351.18,-507.36 356.64,-511.75"/>
</g>
<!-- RIP -->
<g id="node16" class="node">
<title>RIP</title>
<ellipse fill="none" stroke="black" cx="383.81" cy="-413" rx="27" ry="18"/>
<text text-anchor="middle" x="383.81" y="-407.57" font-family="Times New Roman,serif" font-size="14.00">RIP</text>
</g>
<!-- RIH&#45;&gt;RIP -->
<g id="edge15" class="edge">
<title>RIH&#45;&gt;RIP</title>
<path fill="none" stroke="black" stroke-width="5" d="M253.11,-630.24C287.82,-558.66 333.31,-470.06 352.24,-436.1"/>
<polygon fill="black" stroke="black" stroke-width="5" points="355.78,-438.7 357.17,-427.88 348.28,-434.21 355.78,-438.7"/>
</g>
<!-- RIR -->
<g id="node17" class="node">
<title>RIR</title>
<ellipse fill="none" stroke="black" cx="383.81" cy="-334" rx="27" ry="18"/>
<text text-anchor="middle" x="383.81" y="-328.57" font-family="Times New Roman,serif" font-size="14.00">RIR</text>
</g>
<!-- RIH&#45;&gt;RIR -->
<g id="edge16" class="edge">
<title>RIH&#45;&gt;RIR</title>
<path fill="none" stroke="gray" stroke-width="2" d="M250.42,-628.89C292.71,-523.59 353.2,-373 353.2,-373 353.2,-373 357.63,-367.17 363.06,-360.01"/>
<polygon fill="gray" stroke="gray" stroke-width="2" points="365.68,-362.36 368.94,-352.27 360.1,-358.12 365.68,-362.36"/>
</g>
<!-- RIS -->
<g id="node18" class="node">
<title>RIS</title>
<ellipse fill="none" stroke="black" cx="383.81" cy="-255" rx="27" ry="18"/>
<text text-anchor="middle" x="383.81" y="-249.57" font-family="Times New Roman,serif" font-size="14.00">RIS</text>
</g>
<!-- RIH&#45;&gt;RIS -->
<g id="edge17" class="edge">
<title>RIH&#45;&gt;RIS</title>
<path fill="none" stroke="gray" stroke-width="0.2" d="M243.91,-626.46C286.19,-497.86 353.2,-294 353.2,-294 353.2,-294 358.47,-287.06 364.56,-279.03"/>
<polygon fill="gray" stroke="gray" stroke-width="0.2" points="367.32,-281.19 370.58,-271.1 361.75,-276.95 367.32,-281.19"/>
</g>
<!-- RME -->
<g id="node19" class="node">
<title>RME</title>
<ellipse fill="none" stroke="black" cx="383.81" cy="-176" rx="30.61" ry="18"/>
<text text-anchor="middle" x="383.81" y="-170.57" font-family="Times New Roman,serif" font-size="14.00">RME</text>
</g>
<!-- RIH&#45;&gt;RME -->
<g id="edge18" class="edge">
<title>RIH&#45;&gt;RME</title>
<path fill="none" stroke="red" stroke-width="2" d="M235.77,-623.99C272.24,-485.46 336.37,-254.12 354.21,-198.81"/>
<polygon fill="red" stroke="red" stroke-width="2" points="357.42,-200.22 357.59,-189.63 350.85,-197.81 357.42,-200.22"/>
</g>
<!-- URA -->
<g id="node20" class="node">
<title>URA</title>
<ellipse fill="none" stroke="black" cx="383.81" cy="-97" rx="30.11" ry="18"/>
<text text-anchor="middle" x="383.81" y="-91.58" font-family="Times New Roman,serif" font-size="14.00">URA</text>
</g>
<!-- RIH&#45;&gt;URA -->
<g id="edge19" class="edge">
<title>RIH&#45;&gt;URA</title>
<path fill="none" stroke="gray" stroke-width="0.2" d="M232.7,-623.23C269.36,-463.01 339.11,-173.02 355.65,-116.89"/>
<polygon fill="gray" stroke="gray" stroke-width="0.2" points="358.85,-118.34 358.81,-107.74 352.24,-116.05 358.85,-118.34"/>
</g>
<!-- URY -->
<g id="node21" class="node">
<title>URY</title>
<ellipse fill="none" stroke="black" cx="383.81" cy="-18" rx="30.11" ry="18"/>
<text text-anchor="middle" x="383.81" y="-12.57" font-family="Times New Roman,serif" font-size="14.00">URY</text>
</g>
<!-- RIH&#45;&gt;URY -->
<g id="edge20" class="edge">
<title>RIH&#45;&gt;URY</title>
<path fill="none" stroke="black" stroke-width="5" d="M230.31,-622.59C265.39,-449.2 335.46,-118.97 354.4,-43.84"/>
<polygon fill="black" stroke="black" stroke-width="5" points="358.54,-45.27 357.16,-34.44 350.15,-42.81 358.54,-45.27"/>
</g>
<!-- ADF&#45;&gt;RIH -->
<g id="edge21" class="edge">
<title>ADF&#45;&gt;RIH</title>
<path fill="none" stroke="gray" stroke-width="2" d="M359.19,-1508.87C355.68,-1504.76 353.2,-1501.5 353.2,-1501.5 353.2,-1501.5 270.13,-1065.25 230.62,-848.22"/>
<polygon fill="gray" stroke="gray" stroke-width="2" points="234.09,-847.71 228.85,-838.49 227.2,-848.96 234.09,-847.71"/>
</g>
<!-- AIY&#45;&gt;RIH -->
<g id="edge22" class="edge">
<title>AIY&#45;&gt;RIH</title>
<path fill="none" stroke="gray" stroke-width="0.2" d="M360.07,-1351.89C356.09,-1347.31 353.2,-1343.5 353.2,-1343.5 353.2,-1343.5 275.92,-1023.04 234.99,-844.73"/>
<polygon fill="gray" stroke="gray" stroke-width="0.2" points="238.42,-844.03 232.77,-835.07 231.59,-845.6 238.42,-844.03"/>
</g>
<!-- AIZ&#45;&gt;RIH -->
<g id="edge23" class="edge">
<title>AIZ&#45;&gt;RIH</title>
<path fill="none" stroke="gray" stroke-width="0.2" d="M360.07,-1272.89C356.09,-1268.31 353.2,-1264.5 353.2,-1264.5 353.2,-1264.5 280,-1001.37 238.34,-843.77"/>
<polygon fill="gray" stroke="gray" stroke-width="0.2" points="241.78,-843.08 235.84,-834.31 235.01,-844.87 241.78,-843.08"/>
</g>
<!-- CEP&#45;&gt;RIH -->
<g id="edge24" class="edge">
<title>CEP&#45;&gt;RIH</title>
<path fill="none" stroke="gray" stroke-width="0.2" d="M359.77,-956.55C355.95,-952.12 353.2,-948.5 353.2,-948.5 353.2,-948.5 309.64,-888.18 270.6,-830.51"/>
<polygon fill="gray" stroke="gray" stroke-width="0.2" points="273.54,-828.61 265.05,-822.28 267.74,-832.53 273.54,-828.61"/>
</g>
<!-- IL2&#45;&gt;RIH -->
<g id="edge25" class="edge">
<title>IL2&#45;&gt;RIH</title>
<path fill="none" stroke="red" stroke-width="5" d="M356.44,-807.93C344.99,-804.62 330.75,-799.36 315.68,-793.04"/>
<polygon fill="red" stroke="red" stroke-width="5" points="317.69,-789.15 306.77,-789.17 314.2,-797.17 317.69,-789.15"/>
</g>
<!-- OLQ&#45;&gt;RIH -->
<g id="edge26" class="edge">
<title>OLQ&#45;&gt;RIH</title>
<path fill="none" stroke="red" stroke-width="5" d="M359.89,-740.37C352,-741.88 342.53,-743.04 332.23,-743.83"/>
<polygon fill="red" stroke="red" stroke-width="5" points="332.03,-739.46 322.3,-744.4 332.53,-748.19 332.03,-739.46"/>
</g>
<!-- RIA&#45;&gt;RIH -->
<g id="edge27" class="edge">
<title>RIA&#45;&gt;RIH</title>
<path fill="none" stroke="gray" stroke-width="0.2" d="M369.02,-665.56C357.82,-673.86 340.85,-683.7 322.12,-693.25"/>
<polygon fill="gray" stroke="gray" stroke-width="0.2" points="320.75,-690.02 313.37,-697.63 323.88,-696.29 320.75,-690.02"/>
</g>
<!-- RIB&#45;&gt;RIH -->
<g id="edge28" class="edge">
<title>RIB&#45;&gt;RIH</title>
<path fill="none" stroke="red" stroke-width="0.2" d="M373.1,-587.83C359.28,-605.46 332.46,-632.71 304.52,-658.73"/>
<polygon fill="red" stroke="red" stroke-width="0.2" points="302.2,-656.1 297.23,-665.46 306.95,-661.24 302.2,-656.1"/>
</g>
<!-- RIG&#45;&gt;RIH -->
<g id="edge29" class="edge">
<title>RIG&#45;&gt;RIH</title>
<path fill="none" stroke="gray" stroke-width="0.2" d="M378.44,-510.05C370.2,-530.53 353.2,-553.5 353.2,-553.5 353.2,-553.5 321.77,-596.81 288.37,-640.6"/>
<polygon fill="gray" stroke="gray" stroke-width="0.2" points="285.6,-638.46 282.3,-648.53 291.16,-642.71 285.6,-638.46"/>
</g>
<!-- RIP&#45;&gt;RIH -->
<g id="edge30" class="edge">
<title>RIP&#45;&gt;RIH</title>
<path fill="none" stroke="gray" stroke-width="0.2" d="M378.44,-431.05C370.2,-451.53 353.2,-474.5 353.2,-474.5 353.2,-474.5 310.25,-557.39 271.43,-628.79"/>
<polygon fill="gray" stroke="gray" stroke-width="0.2" points="268.58,-626.71 266.86,-637.16 274.72,-630.06 268.58,-626.71"/>
</g>
<!-- RME&#45;&gt;RIH -->
<g id="edge31" class="edge">
<title>RME&#45;&gt;RIH</title>
<path fill="none" stroke="gray" stroke-width="0.2" d="M378.44,-193.9C370.2,-214.1 353.2,-236.5 353.2,-236.5 353.2,-236.5 287.93,-471.11 245.59,-616.69"/>
<polygon fill="gray" stroke="gray" stroke-width="0.2" points="242.35,-615.28 242.91,-625.86 249.07,-617.23 242.35,-615.28"/>
</g>
<!-- URA&#45;&gt;RIH -->
<g id="edge32" class="edge">
<title>URA&#45;&gt;RIH</title>
<path fill="none" stroke="gray" stroke-width="0.2" d="M378.44,-114.9C370.2,-135.1 353.2,-157.5 353.2,-157.5 353.2,-157.5 283.15,-448.01 241.1,-614.98"/>
<polygon fill="gray" stroke="gray" stroke-width="0.2" points="237.75,-613.97 238.7,-624.52 244.54,-615.68 237.75,-613.97"/>
</g>
<!-- URY&#45;&gt;RIH -->
<g id="edge33" class="edge">
<title>URY&#45;&gt;RIH</title>
<path fill="none" stroke="gray" stroke-width="nan" d="M378.44,-35.9C370.2,-56.1 353.2,-78.5 353.2,-78.5 353.2,-78.5 276.39,-439.47 235.36,-623.83"/>
<polygon fill="gray" stroke="gray" stroke-width="nan" points="nan,-nan nan,-nan nan,-nan nan,-nan"/>
</g>
<!-- ADE -->
<g id="node22" class="node">
<title>ADE</title>
<ellipse fill="none" stroke="black" cx="32.6" cy="-1045" rx="29.11" ry="18"/>
<text text-anchor="middle" x="32.6" y="-1039.58" font-family="Times New Roman,serif" font-size="14.00">ADE</text>
</g>
<!-- ADE&#45;&gt;RIH -->
<g id="edge34" class="edge">
<title>ADE&#45;&gt;RIH</title>
<path fill="none" stroke="gray" stroke-width="2" d="M46.45,-1029.14C55.2,-1018.34 65.2,-1006 65.2,-1006 65.2,-1006 112.67,-914.05 152.91,-836.1"/>
<polygon fill="gray" stroke="gray" stroke-width="2" points="155.92,-837.9 157.4,-827.41 149.7,-834.69 155.92,-837.9"/>
</g>
<!-- ALM -->
<g id="node23" class="node">
<title>ALM</title>
<ellipse fill="none" stroke="black" cx="32.6" cy="-966" rx="30.61" ry="18"/>
<text text-anchor="middle" x="32.6" y="-960.58" font-family="Times New Roman,serif" font-size="14.00">ALM</text>
</g>
<!-- ALM&#45;&gt;RIH -->
<g id="edge35" class="edge">
<title>ALM&#45;&gt;RIH</title>
<path fill="none" stroke="gray" stroke-width="0.2" d="M46.82,-949.69C55.48,-939 65.2,-927 65.2,-927 65.2,-927 102.64,-875.16 139.21,-824.53"/>
<polygon fill="gray" stroke="gray" stroke-width="0.2" points="141.87,-826.82 144.89,-816.67 136.19,-822.73 141.87,-826.82"/>
</g>
<!-- AWA -->
<g id="node24" class="node">
<title>AWA</title>
<ellipse fill="none" stroke="black" cx="32.6" cy="-887" rx="32.6" ry="18"/>
<text text-anchor="middle" x="32.6" y="-881.58" font-family="Times New Roman,serif" font-size="14.00">AWA</text>
</g>
<!-- AWA&#45;&gt;RIH -->
<g id="edge36" class="edge">
<title>AWA&#45;&gt;RIH</title>
<path fill="none" stroke="gray" stroke-width="2" d="M50.66,-871.56C66.94,-856.83 92.78,-833.45 118.87,-809.84"/>
<polygon fill="gray" stroke="gray" stroke-width="2" points="121.16,-812.49 126.23,-803.18 116.46,-807.3 121.16,-812.49"/>
</g>
<!-- DVA -->
<g id="node25" class="node">
<title>DVA</title>
<ellipse fill="none" stroke="black" cx="32.6" cy="-808" rx="30.11" ry="18"/>
<text text-anchor="middle" x="32.6" y="-802.58" font-family="Times New Roman,serif" font-size="14.00">DVA</text>
</g>
<!-- DVA&#45;&gt;RIH -->
<g id="edge37" class="edge">
<title>DVA&#45;&gt;RIH</title>
<path fill="none" stroke="gray" stroke-width="0.2" d="M57.15,-797.35C69.16,-791.91 84.72,-784.87 101.28,-777.38"/>
<polygon fill="gray" stroke="gray" stroke-width="0.2" points="102.62,-780.62 110.28,-773.3 99.73,-774.24 102.62,-780.62"/>
</g>
<!-- DVC -->
<g id="node26" class="node">
<title>DVC</title>
<ellipse fill="none" stroke="black" cx="32.6" cy="-729" rx="30.11" ry="18"/>
<text text-anchor="middle" x="32.6" y="-723.58" font-family="Times New Roman,serif" font-size="14.00">DVC</text>
</g>
<!-- DVC&#45;&gt;RIH -->
<g id="edge38" class="edge">
<title>DVC&#45;&gt;RIH</title>
<path fill="none" stroke="gray" stroke-width="0.2" d="M62.83,-729C71.05,-729 80.54,-729 90.64,-729"/>
<polygon fill="gray" stroke="gray" stroke-width="0.2" points="90.63,-732.5 100.63,-729 90.63,-725.5 90.63,-732.5"/>
</g>
<!-- FLP -->
<g id="node27" class="node">
<title>FLP</title>
<ellipse fill="none" stroke="black" cx="32.6" cy="-650" rx="27.11" ry="18"/>
<text text-anchor="middle" x="32.6" y="-644.58" font-family="Times New Roman,serif" font-size="14.00">FLP</text>
</g>
<!-- FLP&#45;&gt;RIH -->
<g id="edge39" class="edge">
<title>FLP&#45;&gt;RIH</title>
<path fill="none" stroke="gray" stroke-width="0.2" d="M55.71,-660.01C67.9,-665.52 84.03,-672.82 101.24,-680.6"/>
<polygon fill="gray" stroke="gray" stroke-width="0.2" points="99.49,-683.65 110.04,-684.59 102.37,-677.28 99.49,-683.65"/>
</g>
<!-- PVT -->
<g id="node28" class="node">
<title>PVT</title>
<ellipse fill="none" stroke="black" cx="32.6" cy="-571" rx="28.61" ry="18"/>
<text text-anchor="middle" x="32.6" y="-565.58" font-family="Times New Roman,serif" font-size="14.00">PVT</text>
</g>
<!-- PVT&#45;&gt;RIH -->
<g id="edge40" class="edge">
<title>PVT&#45;&gt;RIH</title>
<path fill="none" stroke="gray" stroke-width="2" d="M49.71,-585.58C65.95,-600.27 92.35,-624.16 118.99,-648.27"/>
<polygon fill="gray" stroke="gray" stroke-width="2" points="116.4,-650.65 126.16,-654.76 121.1,-645.46 116.4,-650.65"/>
</g>
<!-- RMF -->
<g id="node29" class="node">
<title>RMF</title>
<ellipse fill="none" stroke="black" cx="32.6" cy="-492" rx="30.61" ry="18"/>
<text text-anchor="middle" x="32.6" y="-486.57" font-family="Times New Roman,serif" font-size="14.00">RMF</text>
</g>
<!-- RMF&#45;&gt;RIH -->
<g id="edge41" class="edge">
<title>RMF&#45;&gt;RIH</title>
<path fill="none" stroke="gray" stroke-width="0.2" d="M46.45,-508.27C55.2,-519.34 65.2,-532 65.2,-532 65.2,-532 102.51,-583.39 139.01,-633.68"/>
<polygon fill="gray" stroke="gray" stroke-width="0.2" points="135.97,-635.45 144.68,-641.49 141.64,-631.34 135.97,-635.45"/>
</g>
<!-- SMB -->
<g id="node30" class="node">
<title>SMB</title>
<ellipse fill="none" stroke="black" cx="32.6" cy="-413" rx="30.11" ry="18"/>
<text text-anchor="middle" x="32.6" y="-407.57" font-family="Times New Roman,serif" font-size="14.00">SMB</text>
</g>
<!-- SMB&#45;&gt;RIH -->
<g id="edge42" class="edge">
<title>SMB&#45;&gt;RIH</title>
<path fill="none" stroke="gray" stroke-width="nan" d="M46.45,-429.27C55.2,-440.34 65.2,-453 65.2,-453 65.2,-453 117.29,-553.53 158.59,-633.24"/>
<polygon fill="gray" stroke="gray" stroke-width="nan" points="nan,-nan nan,-nan nan,-nan nan,-nan"/>
</g>
</g>
</svg>
