<?xml version="1.0" encoding="UTF-8" standalone="no"?>
<!DOCTYPE svg PUBLIC "-//W3C//DTD SVG 1.1//EN"
 "http://www.w3.org/Graphics/SVG/1.1/DTD/svg11.dtd">
<!-- Generated by graphviz version 11.0.0 (20240428.1522)
 -->
<!-- Pages: 1 -->
<svg width="425pt" height="2098pt"
 viewBox="0.00 0.00 425.41 2098.00" xmlns="http://www.w3.org/2000/svg" xmlns:xlink="http://www.w3.org/1999/xlink">
<g id="graph0" class="graph" transform="scale(1 1) rotate(0) translate(4 2094)">
<polygon fill="white" stroke="none" points="-4,4 -4,-2094 421.41,-2094 421.41,4 -4,4"/>
<!-- RIM -->
<g id="node1" class="node">
<title>RIM</title>
<ellipse fill="none" stroke="black" cx="209.2" cy="-1045" rx="108" ry="108"/>
<text text-anchor="middle" x="209.2" y="-1026" font-family="Times New Roman,serif" font-size="50.00">RIM</text>
</g>
<!-- RIM&#45;&gt;RIM -->
<g id="edge1" class="edge">
<title>RIM&#45;&gt;RIM</title>
<path fill="none" stroke="gray" stroke-width="5" d="M176.5,-1148.39C178.44,-1175.51 189.34,-1196 209.2,-1196 224.95,-1196 235.07,-1183.12 239.55,-1164.26"/>
<polygon fill="gray" stroke="gray" stroke-width="5" points="243.85,-1165.1 240.99,-1154.56 235.19,-1163.81 243.85,-1165.1"/>
</g>
<!-- ADA -->
<g id="node2" class="node">
<title>ADA</title>
<ellipse fill="none" stroke="black" cx="385.3" cy="-2072" rx="30.11" ry="18"/>
<text text-anchor="middle" x="385.3" y="-2066.57" font-family="Times New Roman,serif" font-size="14.00">ADA</text>
</g>
<!-- RIM&#45;&gt;ADA -->
<g id="edge2" class="edge">
<title>RIM&#45;&gt;ADA</title>
<path fill="none" stroke="black" stroke-width="5" d="M227.24,-1151.59C265.16,-1403.18 353.2,-2011.5 353.2,-2011.5 353.2,-2011.5 363.67,-2024.63 372.46,-2039.85"/>
<polygon fill="black" stroke="black" stroke-width="5" points="368.45,-2041.62 376.89,-2048.54 376.25,-2037.65 368.45,-2041.62"/>
</g>
<!-- AIB -->
<g id="node3" class="node">
<title>AIB</title>
<ellipse fill="none" stroke="black" cx="385.3" cy="-1993" rx="27" ry="18"/>
<text text-anchor="middle" x="385.3" y="-1987.58" font-family="Times New Roman,serif" font-size="14.00">AIB</text>
</g>
<!-- RIM&#45;&gt;AIB -->
<g id="edge3" class="edge">
<title>RIM&#45;&gt;AIB</title>
<path fill="none" stroke="black" stroke-width="5" d="M228.75,-1151.39C267.44,-1387.36 353.2,-1932.5 353.2,-1932.5 353.2,-1932.5 363.67,-1945.63 372.46,-1960.85"/>
<polygon fill="black" stroke="black" stroke-width="5" points="368.45,-1962.62 376.89,-1969.54 376.25,-1958.65 368.45,-1962.62"/>
</g>
<!-- AIZ -->
<g id="node4" class="node">
<title>AIZ</title>
<ellipse fill="none" stroke="black" cx="385.3" cy="-1914" rx="27" ry="18"/>
<text text-anchor="middle" x="385.3" y="-1908.58" font-family="Times New Roman,serif" font-size="14.00">AIZ</text>
</g>
<!-- RIM&#45;&gt;AIZ -->
<g id="edge4" class="edge">
<title>RIM&#45;&gt;AIZ</title>
<path fill="none" stroke="gray" stroke-width="0.2" d="M230.54,-1151.08C270.02,-1370.69 353.2,-1853.5 353.2,-1853.5 353.2,-1853.5 366.15,-1869.74 375.34,-1887.04"/>
<polygon fill="gray" stroke="gray" stroke-width="0.2" points="372.09,-1888.34 379.58,-1895.83 378.39,-1885.3 372.09,-1888.34"/>
</g>
<!-- AUA -->
<g id="node5" class="node">
<title>AUA</title>
<ellipse fill="none" stroke="black" cx="385.3" cy="-1835" rx="30.11" ry="18"/>
<text text-anchor="middle" x="385.3" y="-1829.58" font-family="Times New Roman,serif" font-size="14.00">AUA</text>
</g>
<!-- RIM&#45;&gt;AUA -->
<g id="edge5" class="edge">
<title>RIM&#45;&gt;AUA</title>
<path fill="none" stroke="gray" stroke-width="0.2" d="M230.39,-1151.01C269.81,-1358.02 353.2,-1796 353.2,-1796 353.2,-1796 358.58,-1802.75 364.87,-1810.63"/>
<polygon fill="gray" stroke="gray" stroke-width="0.2" points="362.13,-1812.81 371.11,-1818.45 367.61,-1808.45 362.13,-1812.81"/>
</g>
<!-- AVA -->
<g id="node6" class="node">
<title>AVA</title>
<ellipse fill="none" stroke="black" cx="385.3" cy="-1756" rx="30.11" ry="18"/>
<text text-anchor="middle" x="385.3" y="-1750.58" font-family="Times New Roman,serif" font-size="14.00">AVA</text>
</g>
<!-- RIM&#45;&gt;AVA -->
<g id="edge6" class="edge">
<title>RIM&#45;&gt;AVA</title>
<path fill="none" stroke="red" stroke-width="2" d="M232.7,-1150.74C272.97,-1339.98 353.2,-1717 353.2,-1717 353.2,-1717 357.73,-1722.67 363.32,-1729.69"/>
<polygon fill="red" stroke="red" stroke-width="2" points="360.44,-1731.68 369.41,-1737.32 365.91,-1727.32 360.44,-1731.68"/>
</g>
<!-- AVB -->
<g id="node7" class="node">
<title>AVB</title>
<ellipse fill="none" stroke="black" cx="385.3" cy="-1677" rx="29.61" ry="18"/>
<text text-anchor="middle" x="385.3" y="-1671.58" font-family="Times New Roman,serif" font-size="14.00">AVB</text>
</g>
<!-- RIM&#45;&gt;AVB -->
<g id="edge7" class="edge">
<title>RIM&#45;&gt;AVB</title>
<path fill="none" stroke="black" stroke-width="5" d="M238.63,-1149.19C280.33,-1314.3 353.2,-1616.5 353.2,-1616.5 353.2,-1616.5 363.67,-1629.63 372.46,-1644.85"/>
<polygon fill="black" stroke="black" stroke-width="5" points="368.45,-1646.62 376.89,-1653.54 376.25,-1642.65 368.45,-1646.62"/>
</g>
<!-- AVE -->
<g id="node8" class="node">
<title>AVE</title>
<ellipse fill="none" stroke="black" cx="385.3" cy="-1598" rx="29.11" ry="18"/>
<text text-anchor="middle" x="385.3" y="-1592.58" font-family="Times New Roman,serif" font-size="14.00">AVE</text>
</g>
<!-- RIM&#45;&gt;AVE -->
<g id="edge8" class="edge">
<title>RIM&#45;&gt;AVE</title>
<path fill="none" stroke="red" stroke-width="0.2" d="M242.83,-1147.85C285.03,-1292.48 353.2,-1537.5 353.2,-1537.5 353.2,-1537.5 366.15,-1553.74 375.34,-1571.04"/>
<polygon fill="red" stroke="red" stroke-width="0.2" points="372.09,-1572.34 379.58,-1579.83 378.39,-1569.3 372.09,-1572.34"/>
</g>
<!-- AVJ -->
<g id="node9" class="node">
<title>AVJ</title>
<ellipse fill="none" stroke="black" cx="385.3" cy="-1519" rx="27.11" ry="18"/>
<text text-anchor="middle" x="385.3" y="-1513.58" font-family="Times New Roman,serif" font-size="14.00">AVJ</text>
</g>
<!-- RIM&#45;&gt;AVJ -->
<g id="edge9" class="edge">
<title>RIM&#45;&gt;AVJ</title>
<path fill="none" stroke="gray" stroke-width="2" d="M248.43,-1145.99C290.79,-1268.64 353.2,-1458.5 353.2,-1458.5 353.2,-1458.5 364.99,-1473.29 374.06,-1489.67"/>
<polygon fill="gray" stroke="gray" stroke-width="2" points="370.8,-1490.98 378.37,-1498.39 377.07,-1487.87 370.8,-1490.98"/>
</g>
<!-- AVK -->
<g id="node10" class="node">
<title>AVK</title>
<ellipse fill="none" stroke="black" cx="385.3" cy="-1440" rx="30.11" ry="18"/>
<text text-anchor="middle" x="385.3" y="-1434.58" font-family="Times New Roman,serif" font-size="14.00">AVK</text>
</g>
<!-- RIM&#45;&gt;AVK -->
<g id="edge10" class="edge">
<title>RIM&#45;&gt;AVK</title>
<path fill="none" stroke="gray" stroke-width="0.2" d="M256.04,-1142.79C297.87,-1241.74 353.2,-1379.5 353.2,-1379.5 353.2,-1379.5 366.15,-1395.74 375.34,-1413.04"/>
<polygon fill="gray" stroke="gray" stroke-width="0.2" points="372.09,-1414.34 379.58,-1421.83 378.39,-1411.3 372.09,-1414.34"/>
</g>
<!-- CEP -->
<g id="node11" class="node">
<title>CEP</title>
<ellipse fill="none" stroke="black" cx="385.3" cy="-1361" rx="28.11" ry="18"/>
<text text-anchor="middle" x="385.3" y="-1355.58" font-family="Times New Roman,serif" font-size="14.00">CEP</text>
</g>
<!-- RIM&#45;&gt;CEP -->
<g id="edge11" class="edge">
<title>RIM&#45;&gt;CEP</title>
<path fill="none" stroke="gray" stroke-width="5" d="M266.72,-1136.97C306.69,-1210.4 353.2,-1300.5 353.2,-1300.5 353.2,-1300.5 363.67,-1313.63 372.46,-1328.85"/>
<polygon fill="gray" stroke="gray" stroke-width="5" points="368.45,-1330.62 376.89,-1337.54 376.25,-1326.65 368.45,-1330.62"/>
</g>
<!-- IL1 -->
<g id="node12" class="node">
<title>IL1</title>
<ellipse fill="none" stroke="black" cx="385.3" cy="-1282" rx="27" ry="18"/>
<text text-anchor="middle" x="385.3" y="-1276.58" font-family="Times New Roman,serif" font-size="14.00">IL1</text>
</g>
<!-- RIM&#45;&gt;IL1 -->
<g id="edge12" class="edge">
<title>RIM&#45;&gt;IL1</title>
<path fill="none" stroke="gray" stroke-width="2" d="M273.34,-1132.42C311.65,-1185.46 353.2,-1243 353.2,-1243 353.2,-1243 357.85,-1248.83 363.56,-1255.99"/>
<polygon fill="gray" stroke="gray" stroke-width="2" points="360.79,-1258.13 369.77,-1263.77 366.27,-1253.77 360.79,-1258.13"/>
</g>
<!-- OLL -->
<g id="node13" class="node">
<title>OLL</title>
<ellipse fill="none" stroke="black" cx="385.3" cy="-1203" rx="28.61" ry="18"/>
<text text-anchor="middle" x="385.3" y="-1197.58" font-family="Times New Roman,serif" font-size="14.00">OLL</text>
</g>
<!-- RIM&#45;&gt;OLL -->
<g id="edge13" class="edge">
<title>RIM&#45;&gt;OLL</title>
<path fill="none" stroke="gray" stroke-width="0.2" d="M289.87,-1117.3C315.72,-1140.76 342.45,-1165.02 360.84,-1181.71"/>
<polygon fill="gray" stroke="gray" stroke-width="0.2" points="358.21,-1184.04 367.96,-1188.17 362.91,-1178.86 358.21,-1184.04"/>
</g>
<!-- RIA -->
<g id="node14" class="node">
<title>RIA</title>
<ellipse fill="none" stroke="black" cx="385.3" cy="-1124" rx="27" ry="18"/>
<text text-anchor="middle" x="385.3" y="-1118.58" font-family="Times New Roman,serif" font-size="14.00">RIA</text>
</g>
<!-- RIM&#45;&gt;RIA -->
<g id="edge14" class="edge">
<title>RIM&#45;&gt;RIA</title>
<path fill="none" stroke="gray" stroke-width="0.2" d="M312.99,-1075.75C331.53,-1084.73 349.09,-1094.26 362.14,-1102.76"/>
<polygon fill="gray" stroke="gray" stroke-width="0.2" points="359.95,-1105.5 370.17,-1108.28 363.92,-1099.73 359.95,-1105.5"/>
</g>
<!-- RIB -->
<g id="node15" class="node">
<title>RIB</title>
<ellipse fill="none" stroke="black" cx="385.3" cy="-1045" rx="27" ry="18"/>
<text text-anchor="middle" x="385.3" y="-1039.58" font-family="Times New Roman,serif" font-size="14.00">RIB</text>
</g>
<!-- RIM&#45;&gt;RIB -->
<g id="edge15" class="edge">
<title>RIM&#45;&gt;RIB</title>
<path fill="none" stroke="gray" stroke-width="5" d="M316.49,-1029.23C327.5,-1029.64 338.08,-1030.42 347.48,-1031.55"/>
<polygon fill="gray" stroke="gray" stroke-width="5" points="346.68,-1035.85 357.25,-1033.09 348.05,-1027.21 346.68,-1035.85"/>
</g>
<!-- RIC -->
<g id="node16" class="node">
<title>RIC</title>
<ellipse fill="none" stroke="black" cx="385.3" cy="-966" rx="27" ry="18"/>
<text text-anchor="middle" x="385.3" y="-960.58" font-family="Times New Roman,serif" font-size="14.00">RIC</text>
</g>
<!-- RIM&#45;&gt;RIC -->
<g id="edge16" class="edge">
<title>RIM&#45;&gt;RIC</title>
<path fill="none" stroke="gray" stroke-width="0.2" d="M301.08,-987.65C317.93,-980.13 334.59,-973.5 348.53,-968.91"/>
<polygon fill="gray" stroke="gray" stroke-width="0.2" points="349.34,-972.32 357.87,-966.04 347.28,-965.63 349.34,-972.32"/>
</g>
<!-- RIF -->
<g id="node17" class="node">
<title>RIF</title>
<ellipse fill="none" stroke="black" cx="385.3" cy="-887" rx="27" ry="18"/>
<text text-anchor="middle" x="385.3" y="-881.58" font-family="Times New Roman,serif" font-size="14.00">RIF</text>
</g>
<!-- RIM&#45;&gt;RIF -->
<g id="edge17" class="edge">
<title>RIM&#45;&gt;RIF</title>
<path fill="none" stroke="gray" stroke-width="0.2" d="M281.52,-964.39C306.66,-940.81 333.62,-917.43 353.61,-902.22"/>
<polygon fill="gray" stroke="gray" stroke-width="0.2" points="355.52,-905.16 361.49,-896.4 351.37,-899.53 355.52,-905.16"/>
</g>
<!-- RIG -->
<g id="node18" class="node">
<title>RIG</title>
<ellipse fill="none" stroke="black" cx="385.3" cy="-808" rx="27.11" ry="18"/>
<text text-anchor="middle" x="385.3" y="-802.58" font-family="Times New Roman,serif" font-size="14.00">RIG</text>
</g>
<!-- RIM&#45;&gt;RIG -->
<g id="edge18" class="edge">
<title>RIM&#45;&gt;RIG</title>
<path fill="none" stroke="gray" stroke-width="0.2" d="M265.08,-952.05C305.41,-892.34 353.2,-826.5 353.2,-826.5 353.2,-826.5 353.78,-825.75 354.78,-824.52"/>
<polygon fill="gray" stroke="gray" stroke-width="0.2" points="357.34,-826.91 361.18,-817.04 352.02,-822.37 357.34,-826.91"/>
</g>
<!-- RIS -->
<g id="node19" class="node">
<title>RIS</title>
<ellipse fill="none" stroke="black" cx="385.3" cy="-729" rx="27" ry="18"/>
<text text-anchor="middle" x="385.3" y="-723.58" font-family="Times New Roman,serif" font-size="14.00">RIS</text>
</g>
<!-- RIM&#45;&gt;RIS -->
<g id="edge19" class="edge">
<title>RIM&#45;&gt;RIS</title>
<path fill="none" stroke="gray" stroke-width="2" d="M253.11,-946.24C288.98,-872.28 336.34,-780.17 354.66,-748.46"/>
<polygon fill="gray" stroke="gray" stroke-width="2" points="357.39,-750.69 359.76,-740.37 351.47,-746.96 357.39,-750.69"/>
</g>
<!-- RIV -->
<g id="node20" class="node">
<title>RIV</title>
<ellipse fill="none" stroke="black" cx="385.3" cy="-650" rx="27" ry="18"/>
<text text-anchor="middle" x="385.3" y="-644.58" font-family="Times New Roman,serif" font-size="14.00">RIV</text>
</g>
<!-- RIM&#45;&gt;RIV -->
<g id="edge20" class="edge">
<title>RIM&#45;&gt;RIV</title>
<path fill="none" stroke="gray" stroke-width="0.2" d="M250.42,-945.17C292.71,-840.17 353.2,-690 353.2,-690 353.2,-690 359.13,-682.37 365.81,-673.78"/>
<polygon fill="gray" stroke="gray" stroke-width="0.2" points="368.45,-676.09 371.83,-666.05 362.92,-671.79 368.45,-676.09"/>
</g>
<!-- RMD -->
<g id="node21" class="node">
<title>RMD</title>
<ellipse fill="none" stroke="black" cx="385.3" cy="-571" rx="31.6" ry="18"/>
<text text-anchor="middle" x="385.3" y="-565.58" font-family="Times New Roman,serif" font-size="14.00">RMD</text>
</g>
<!-- RIM&#45;&gt;RMD -->
<g id="edge21" class="edge">
<title>RIM&#45;&gt;RMD</title>
<path fill="none" stroke="gray" stroke-width="5" d="M239.83,-941.17C275.83,-825.4 333.68,-648.89 353.24,-596.73"/>
<polygon fill="gray" stroke="gray" stroke-width="5" points="357.2,-598.58 357.07,-587.67 349.14,-595.18 357.2,-598.58"/>
</g>
<!-- RMF -->
<g id="node22" class="node">
<title>RMF</title>
<ellipse fill="none" stroke="black" cx="385.3" cy="-492" rx="30.61" ry="18"/>
<text text-anchor="middle" x="385.3" y="-486.57" font-family="Times New Roman,serif" font-size="14.00">RMF</text>
</g>
<!-- RIM&#45;&gt;RMF -->
<g id="edge22" class="edge">
<title>RIM&#45;&gt;RMF</title>
<path fill="none" stroke="red" stroke-width="5" d="M235.85,-939.85C271.78,-803.67 334.42,-578.02 354.13,-517.65"/>
<polygon fill="red" stroke="red" stroke-width="5" points="358.18,-519.32 357.6,-508.42 349.99,-516.24 358.18,-519.32"/>
</g>
<!-- RMG -->
<g id="node23" class="node">
<title>RMG</title>
<ellipse fill="none" stroke="black" cx="385.3" cy="-413" rx="32.1" ry="18"/>
<text text-anchor="middle" x="385.3" y="-407.57" font-family="Times New Roman,serif" font-size="14.00">RMG</text>
</g>
<!-- RIM&#45;&gt;RMG -->
<g id="edge23" class="edge">
<title>RIM&#45;&gt;RMG</title>
<path fill="none" stroke="gray" stroke-width="2" d="M235.6,-939.84C276.7,-769.73 353.2,-453 353.2,-453 353.2,-453 357.96,-446.88 363.75,-439.43"/>
<polygon fill="gray" stroke="gray" stroke-width="2" points="366.42,-441.7 369.8,-431.66 360.89,-437.41 366.42,-441.7"/>
</g>
<!-- SAA -->
<g id="node24" class="node">
<title>SAA</title>
<ellipse fill="none" stroke="black" cx="385.3" cy="-334" rx="29.11" ry="18"/>
<text text-anchor="middle" x="385.3" y="-328.57" font-family="Times New Roman,serif" font-size="14.00">SAA</text>
</g>
<!-- RIM&#45;&gt;SAA -->
<g id="edge24" class="edge">
<title>RIM&#45;&gt;SAA</title>
<path fill="none" stroke="red" stroke-width="5" d="M230.31,-938.73C265.47,-765.21 335.77,-434.4 355.6,-359.2"/>
<polygon fill="red" stroke="red" stroke-width="5" points="359.72,-360.68 358.55,-349.83 351.37,-358.06 359.72,-360.68"/>
</g>
<!-- SIA -->
<g id="node25" class="node">
<title>SIA</title>
<ellipse fill="none" stroke="black" cx="385.3" cy="-255" rx="27" ry="18"/>
<text text-anchor="middle" x="385.3" y="-249.57" font-family="Times New Roman,serif" font-size="14.00">SIA</text>
</g>
<!-- RIM&#45;&gt;SIA -->
<g id="edge25" class="edge">
<title>RIM&#45;&gt;SIA</title>
<path fill="none" stroke="gray" stroke-width="0.2" d="M230.46,-938.74C269.91,-731.84 353.2,-295 353.2,-295 353.2,-295 359.13,-287.37 365.81,-278.78"/>
<polygon fill="gray" stroke="gray" stroke-width="0.2" points="368.45,-281.09 371.83,-271.05 362.92,-276.79 368.45,-281.09"/>
</g>
<!-- SIB -->
<g id="node26" class="node">
<title>SIB</title>
<ellipse fill="none" stroke="black" cx="385.3" cy="-176" rx="27" ry="18"/>
<text text-anchor="middle" x="385.3" y="-170.57" font-family="Times New Roman,serif" font-size="14.00">SIB</text>
</g>
<!-- RIM&#45;&gt;SIB -->
<g id="edge26" class="edge">
<title>RIM&#45;&gt;SIB</title>
<path fill="none" stroke="gray" stroke-width="0.2" d="M228.53,-938.61C267.12,-714.65 353.2,-215 353.2,-215 353.2,-215 358.85,-207.91 365.34,-199.78"/>
<polygon fill="gray" stroke="gray" stroke-width="0.2" points="367.97,-202.1 371.47,-192.1 362.49,-197.74 367.97,-202.1"/>
</g>
<!-- SMD -->
<g id="node27" class="node">
<title>SMD</title>
<ellipse fill="none" stroke="black" cx="385.3" cy="-97" rx="30.61" ry="18"/>
<text text-anchor="middle" x="385.3" y="-91.58" font-family="Times New Roman,serif" font-size="14.00">SMD</text>
</g>
<!-- RIM&#45;&gt;SMD -->
<g id="edge27" class="edge">
<title>RIM&#45;&gt;SMD</title>
<path fill="none" stroke="black" stroke-width="5" d="M225.37,-938C258.79,-715.62 336.95,-217.92 355.73,-122.9"/>
<polygon fill="black" stroke="black" stroke-width="5" points="359.98,-123.94 358.05,-113.19 351.47,-121.9 359.98,-123.94"/>
</g>
<!-- VBn -->
<g id="node28" class="node">
<title>VBn</title>
<ellipse fill="none" stroke="black" cx="385.3" cy="-18" rx="27.61" ry="18"/>
<text text-anchor="middle" x="385.3" y="-12.57" font-family="Times New Roman,serif" font-size="14.00">VBn</text>
</g>
<!-- RIM&#45;&gt;VBn -->
<g id="edge28" class="edge">
<title>RIM&#45;&gt;VBn</title>
<path fill="none" stroke="gray" stroke-width="2" d="M224.24,-937.78C257.52,-697.4 339.37,-131.1 357.59,-39.34"/>
<polygon fill="gray" stroke="gray" stroke-width="2" points="360.97,-40.25 360,-29.7 354.17,-38.55 360.97,-40.25"/>
</g>
<!-- ADA&#45;&gt;RIM -->
<g id="edge29" class="edge">
<title>ADA&#45;&gt;RIM</title>
<path fill="none" stroke="black" stroke-width="5" d="M359.8,-2062.21C355.94,-2057.94 353.2,-2054.5 353.2,-2054.5 353.2,-2054.5 263.95,-1437.87 226.47,-1168.3"/>
<polygon fill="black" stroke="black" stroke-width="5" points="230.8,-1167.7 225.1,-1158.4 222.14,-1168.9 230.8,-1167.7"/>
</g>
<!-- AIB&#45;&gt;RIM -->
<g id="edge30" class="edge">
<title>AIB&#45;&gt;RIM</title>
<path fill="none" stroke="black" stroke-width="5" d="M361.05,-1984.58C356.55,-1979.7 353.2,-1975.5 353.2,-1975.5 353.2,-1975.5 265.96,-1420.9 227.76,-1167.86"/>
<polygon fill="black" stroke="black" stroke-width="5" points="232.12,-1167.4 226.3,-1158.17 223.46,-1168.71 232.12,-1167.4"/>
</g>
<!-- AIZ&#45;&gt;RIM -->
<g id="edge31" class="edge">
<title>AIZ&#45;&gt;RIM</title>
<path fill="none" stroke="black" stroke-width="5" d="M361.05,-1905.58C356.55,-1900.7 353.2,-1896.5 353.2,-1896.5 353.2,-1896.5 268.33,-1403.9 229.36,-1167.85"/>
<polygon fill="black" stroke="black" stroke-width="5" points="233.7,-1167.31 227.76,-1158.15 225.07,-1168.73 233.7,-1167.31"/>
</g>
<!-- AVB&#45;&gt;RIM -->
<g id="edge32" class="edge">
<title>AVB&#45;&gt;RIM</title>
<path fill="none" stroke="gray" stroke-width="nan" d="M359.8,-1667.21C355.94,-1662.94 353.2,-1659.5 353.2,-1659.5 353.2,-1659.5 272.97,-1326.81 232.7,-1150.77"/>
<polygon fill="gray" stroke="gray" stroke-width="nan" points="nan,-nan nan,-nan nan,-nan nan,-nan"/>
</g>
<!-- AVE&#45;&gt;RIM -->
<g id="edge33" class="edge">
<title>AVE&#45;&gt;RIM</title>
<path fill="none" stroke="gray" stroke-width="0.2" d="M360.1,-1588.55C356.09,-1584.12 353.2,-1580.5 353.2,-1580.5 353.2,-1580.5 280,-1317.37 238.34,-1159.77"/>
<polygon fill="gray" stroke="gray" stroke-width="0.2" points="241.78,-1159.08 235.84,-1150.31 235.01,-1160.87 241.78,-1159.08"/>
</g>
<!-- AVJ&#45;&gt;RIM -->
<g id="edge34" class="edge">
<title>AVJ&#45;&gt;RIM</title>
<path fill="none" stroke="gray" stroke-width="2" d="M361.05,-1510.58C356.55,-1505.7 353.2,-1501.5 353.2,-1501.5 353.2,-1501.5 285.84,-1296.6 243.59,-1161.1"/>
<polygon fill="gray" stroke="gray" stroke-width="2" points="247.04,-1160.43 240.73,-1151.92 240.36,-1162.51 247.04,-1160.43"/>
</g>
<!-- AVK&#45;&gt;RIM -->
<g id="edge35" class="edge">
<title>AVK&#45;&gt;RIM</title>
<path fill="none" stroke="black" stroke-width="5" d="M359.8,-1430.21C355.94,-1425.94 353.2,-1422.5 353.2,-1422.5 353.2,-1422.5 293.16,-1273.04 250.89,-1161.95"/>
<polygon fill="black" stroke="black" stroke-width="5" points="255.03,-1160.53 247.4,-1152.73 246.85,-1163.63 255.03,-1160.53"/>
</g>
<!-- CEP&#45;&gt;RIM -->
<g id="edge36" class="edge">
<title>CEP&#45;&gt;RIM</title>
<path fill="none" stroke="gray" stroke-width="0.2" d="M360.42,-1351.89C356.24,-1347.31 353.2,-1343.5 353.2,-1343.5 353.2,-1343.5 299.12,-1238.75 257.48,-1153.08"/>
<polygon fill="gray" stroke="gray" stroke-width="0.2" points="260.75,-1151.8 253.24,-1144.33 254.45,-1154.86 260.75,-1151.8"/>
</g>
<!-- RIA&#45;&gt;RIM -->
<g id="edge37" class="edge">
<title>RIA&#45;&gt;RIM</title>
<path fill="none" stroke="gray" stroke-width="2" d="M358.16,-1124.05C345.57,-1120.49 329.58,-1114.56 312.79,-1107.45"/>
<polygon fill="gray" stroke="gray" stroke-width="2" points="314.42,-1104.34 303.85,-1103.55 311.63,-1110.75 314.42,-1104.34"/>
</g>
<!-- RIB&#45;&gt;RIM -->
<g id="edge38" class="edge">
<title>RIB&#45;&gt;RIM</title>
<path fill="none" stroke="gray" stroke-width="nan" d="M363.41,-1055.93C351.04,-1058.49 334.33,-1060.1 316.49,-1060.77"/>
<polygon fill="gray" stroke="gray" stroke-width="nan" points="nan,-nan nan,-nan nan,-nan nan,-nan"/>
</g>
<!-- RIC&#45;&gt;RIM -->
<g id="edge39" class="edge">
<title>RIC&#45;&gt;RIM</title>
<path fill="none" stroke="red" stroke-width="5" d="M370.42,-981.54C359.99,-989.21 344.6,-998.19 327.43,-1007.04"/>
<polygon fill="red" stroke="red" stroke-width="5" points="325.56,-1003.08 318.57,-1011.46 329.47,-1010.91 325.56,-1003.08"/>
</g>
<!-- RIF&#45;&gt;RIM -->
<g id="edge40" class="edge">
<title>RIF&#45;&gt;RIM</title>
<path fill="none" stroke="gray" stroke-width="5" d="M374.44,-903.92C361.11,-920.75 335.91,-946.29 309.19,-971.16"/>
<polygon fill="gray" stroke="gray" stroke-width="5" points="306.25,-967.92 301.85,-977.9 312.17,-974.36 306.25,-967.92"/>
</g>
<!-- RIG&#45;&gt;RIM -->
<g id="edge41" class="edge">
<title>RIG&#45;&gt;RIM</title>
<path fill="none" stroke="gray" stroke-width="5" d="M379.71,-826.05C371.06,-846.53 353.2,-869.5 353.2,-869.5 353.2,-869.5 323.94,-909.81 291.9,-951.97"/>
<polygon fill="gray" stroke="gray" stroke-width="5" points="288.5,-949.21 285.91,-959.81 295.45,-954.52 288.5,-949.21"/>
</g>
<!-- RIS&#45;&gt;RIM -->
<g id="edge42" class="edge">
<title>RIS&#45;&gt;RIM</title>
<path fill="none" stroke="gray" stroke-width="5" d="M379.71,-747.05C371.06,-767.53 353.2,-790.5 353.2,-790.5 353.2,-790.5 312.32,-869.4 274.28,-939.54"/>
<polygon fill="gray" stroke="gray" stroke-width="5" points="270.64,-937.08 269.7,-947.95 278.32,-941.26 270.64,-937.08"/>
</g>
<!-- RMD&#45;&gt;RIM -->
<g id="edge43" class="edge">
<title>RMD&#45;&gt;RIM</title>
<path fill="none" stroke="red" stroke-width="2" d="M379.71,-589.05C371.06,-609.53 353.2,-632.5 353.2,-632.5 353.2,-632.5 294.83,-809.65 252.68,-931.98"/>
<polygon fill="red" stroke="red" stroke-width="2" points="249.47,-930.55 249.51,-941.15 256.08,-932.84 249.47,-930.55"/>
</g>
<!-- RMF&#45;&gt;RIM -->
<g id="edge44" class="edge">
<title>RMF&#45;&gt;RIM</title>
<path fill="none" stroke="red" stroke-width="2" d="M379.71,-510.05C371.06,-530.53 353.2,-553.5 353.2,-553.5 353.2,-553.5 288.93,-784.06 246.57,-929.57"/>
<polygon fill="red" stroke="red" stroke-width="2" points="243.21,-928.58 243.77,-939.16 249.93,-930.54 243.21,-928.58"/>
</g>
<!-- SAA&#45;&gt;RIM -->
<g id="edge45" class="edge">
<title>SAA&#45;&gt;RIM</title>
<path fill="none" stroke="black" stroke-width="5" d="M379.71,-352.05C371.06,-372.53 353.2,-395.5 353.2,-395.5 353.2,-395.5 280.6,-736.15 238.86,-924.24"/>
<polygon fill="black" stroke="black" stroke-width="5" points="234.61,-923.2 236.71,-933.92 243.15,-925.1 234.61,-923.2"/>
</g>
<!-- SMD&#45;&gt;RIM -->
<g id="edge46" class="edge">
<title>SMD&#45;&gt;RIM</title>
<path fill="none" stroke="gray" stroke-width="2" d="M379.71,-114.9C371.06,-135.1 353.2,-157.5 353.2,-157.5 353.2,-157.5 270.43,-683.65 230.83,-925.89"/>
<polygon fill="gray" stroke="gray" stroke-width="2" points="227.4,-925.19 229.24,-935.62 234.31,-926.32 227.4,-925.19"/>
</g>
<!-- VBn&#45;&gt;RIM -->
<g id="edge47" class="edge">
<title>VBn&#45;&gt;RIM</title>
<path fill="none" stroke="gray" stroke-width="2" d="M379.71,-35.9C371.06,-56.1 353.2,-78.5 353.2,-78.5 353.2,-78.5 268.06,-666.79 229.17,-925.59"/>
<polygon fill="gray" stroke="gray" stroke-width="2" points="225.72,-925 227.69,-935.41 232.64,-926.05 225.72,-925"/>
</g>
<!-- ADE -->
<g id="node29" class="node">
<title>ADE</title>
<ellipse fill="none" stroke="black" cx="32.6" cy="-1875" rx="29.11" ry="18"/>
<text text-anchor="middle" x="32.6" y="-1869.58" font-family="Times New Roman,serif" font-size="14.00">ADE</text>
</g>
<!-- ADE&#45;&gt;RIM -->
<g id="edge48" class="edge">
<title>ADE&#45;&gt;RIM</title>
<path fill="none" stroke="gray" stroke-width="0.2" d="M46.45,-1859.14C55.2,-1848.34 65.2,-1836 65.2,-1836 65.2,-1836 147.44,-1381.08 187.19,-1161.23"/>
<polygon fill="gray" stroke="gray" stroke-width="0.2" points="190.6,-1162.03 188.94,-1151.56 183.71,-1160.78 190.6,-1162.03"/>
</g>
<!-- AIN -->
<g id="node30" class="node">
<title>AIN</title>
<ellipse fill="none" stroke="black" cx="32.6" cy="-1796" rx="27" ry="18"/>
<text text-anchor="middle" x="32.6" y="-1790.58" font-family="Times New Roman,serif" font-size="14.00">AIN</text>
</g>
<!-- AIN&#45;&gt;RIM -->
<g id="edge49" class="edge">
<title>AIN&#45;&gt;RIM</title>
<path fill="none" stroke="gray" stroke-width="0.2" d="M46.45,-1780.14C55.2,-1769.34 65.2,-1757 65.2,-1757 65.2,-1757 144.42,-1362.59 184.93,-1160.87"/>
<polygon fill="gray" stroke="gray" stroke-width="0.2" points="188.35,-1161.61 186.89,-1151.12 181.49,-1160.24 188.35,-1161.61"/>
</g>
<!-- AIY -->
<g id="node31" class="node">
<title>AIY</title>
<ellipse fill="none" stroke="black" cx="32.6" cy="-1717" rx="27" ry="18"/>
<text text-anchor="middle" x="32.6" y="-1711.58" font-family="Times New Roman,serif" font-size="14.00">AIY</text>
</g>
<!-- AIY&#45;&gt;RIM -->
<g id="edge50" class="edge">
<title>AIY&#45;&gt;RIM</title>
<path fill="none" stroke="gray" stroke-width="nan" d="M46.45,-1701.14C55.2,-1690.34 65.2,-1678 65.2,-1678 65.2,-1678 143.66,-1330.69 184.35,-1150.59"/>
<polygon fill="gray" stroke="gray" stroke-width="nan" points="nan,-nan nan,-nan nan,-nan nan,-nan"/>
</g>
<!-- ALN -->
<g id="node32" class="node">
<title>ALN</title>
<ellipse fill="none" stroke="black" cx="32.6" cy="-1638" rx="29.11" ry="18"/>
<text text-anchor="middle" x="32.6" y="-1632.58" font-family="Times New Roman,serif" font-size="14.00">ALN</text>
</g>
<!-- ALN&#45;&gt;RIM -->
<g id="edge51" class="edge">
<title>ALN&#45;&gt;RIM</title>
<path fill="none" stroke="gray" stroke-width="2" d="M46.45,-1622.14C55.2,-1611.34 65.2,-1599 65.2,-1599 65.2,-1599 136.04,-1324.56 178,-1162"/>
<polygon fill="gray" stroke="gray" stroke-width="2" points="181.35,-1163.02 180.46,-1152.46 174.58,-1161.27 181.35,-1163.02"/>
</g>
<!-- AQR -->
<g id="node33" class="node">
<title>AQR</title>
<ellipse fill="none" stroke="black" cx="32.6" cy="-1559" rx="30.61" ry="18"/>
<text text-anchor="middle" x="32.6" y="-1553.58" font-family="Times New Roman,serif" font-size="14.00">AQR</text>
</g>
<!-- AQR&#45;&gt;RIM -->
<g id="edge52" class="edge">
<title>AQR&#45;&gt;RIM</title>
<path fill="none" stroke="blue" stroke-width="0.2" d="M46.82,-1542.69C55.48,-1532 65.2,-1520 65.2,-1520 65.2,-1520 131.92,-1298.39 174.21,-1157.91"/>
<polygon fill="blue" stroke="blue" stroke-width="0.2" points="177.47,-1159.24 177,-1148.65 170.76,-1157.22 177.47,-1159.24"/>
</g>
<!-- ASE -->
<g id="node34" class="node">
<title>ASE</title>
<ellipse fill="none" stroke="black" cx="32.6" cy="-1480" rx="28.11" ry="18"/>
<text text-anchor="middle" x="32.6" y="-1474.58" font-family="Times New Roman,serif" font-size="14.00">ASE</text>
</g>
<!-- ASE&#45;&gt;RIM -->
<g id="edge53" class="edge">
<title>ASE&#45;&gt;RIM</title>
<path fill="none" stroke="gray" stroke-width="2" d="M46.45,-1464.14C55.2,-1453.34 65.2,-1441 65.2,-1441 65.2,-1441 124.81,-1275.94 167.05,-1158.95"/>
<polygon fill="gray" stroke="gray" stroke-width="2" points="170.34,-1160.16 170.44,-1149.57 163.75,-1157.79 170.34,-1160.16"/>
</g>
<!-- ASH -->
<g id="node35" class="node">
<title>ASH</title>
<ellipse fill="none" stroke="black" cx="32.6" cy="-1401" rx="29.11" ry="18"/>
<text text-anchor="middle" x="32.6" y="-1395.58" font-family="Times New Roman,serif" font-size="14.00">ASH</text>
</g>
<!-- ASH&#45;&gt;RIM -->
<g id="edge54" class="edge">
<title>ASH&#45;&gt;RIM</title>
<path fill="none" stroke="gray" stroke-width="nan" d="M46.45,-1385.14C55.2,-1374.34 65.2,-1362 65.2,-1362 65.2,-1362 121.94,-1236.23 163.94,-1143.13"/>
<polygon fill="gray" stroke="gray" stroke-width="nan" points="nan,-nan nan,-nan nan,-nan nan,-nan"/>
</g>
<!-- AVH -->
<g id="node36" class="node">
<title>AVH</title>
<ellipse fill="none" stroke="black" cx="32.6" cy="-1322" rx="30.11" ry="18"/>
<text text-anchor="middle" x="32.6" y="-1316.58" font-family="Times New Roman,serif" font-size="14.00">AVH</text>
</g>
<!-- AVH&#45;&gt;RIM -->
<g id="edge55" class="edge">
<title>AVH&#45;&gt;RIM</title>
<path fill="none" stroke="red" stroke-width="0.2" d="M46.82,-1305.69C55.48,-1295 65.2,-1283 65.2,-1283 65.2,-1283 108.54,-1210.88 147.49,-1146.04"/>
<polygon fill="red" stroke="red" stroke-width="0.2" points="150.4,-1147.99 152.55,-1137.62 144.4,-1144.39 150.4,-1147.99"/>
</g>
<!-- AVL -->
<g id="node37" class="node">
<title>AVL</title>
<ellipse fill="none" stroke="black" cx="32.6" cy="-1243" rx="29.11" ry="18"/>
<text text-anchor="middle" x="32.6" y="-1237.58" font-family="Times New Roman,serif" font-size="14.00">AVL</text>
</g>
<!-- AVL&#45;&gt;RIM -->
<g id="edge56" class="edge">
<title>AVL&#45;&gt;RIM</title>
<path fill="none" stroke="gray" stroke-width="0.2" d="M47.59,-1227.13C65.8,-1206.48 99.02,-1168.81 130.54,-1133.06"/>
<polygon fill="gray" stroke="gray" stroke-width="0.2" points="133.05,-1135.52 137.04,-1125.7 127.8,-1130.89 133.05,-1135.52"/>
</g>
<!-- AWA -->
<g id="node38" class="node">
<title>AWA</title>
<ellipse fill="none" stroke="black" cx="32.6" cy="-1164" rx="32.6" ry="18"/>
<text text-anchor="middle" x="32.6" y="-1158.58" font-family="Times New Roman,serif" font-size="14.00">AWA</text>
</g>
<!-- AWA&#45;&gt;RIM -->
<g id="edge57" class="edge">
<title>AWA&#45;&gt;RIM</title>
<path fill="none" stroke="blue" stroke-width="2" d="M53.97,-1150.12C68.05,-1140.52 87.94,-1126.96 108.77,-1112.77"/>
<polygon fill="blue" stroke="blue" stroke-width="2" points="110.59,-1115.76 116.89,-1107.24 106.65,-1109.98 110.59,-1115.76"/>
</g>
<!-- AWC -->
<g id="node39" class="node">
<title>AWC</title>
<ellipse fill="none" stroke="black" cx="32.6" cy="-1085" rx="32.6" ry="18"/>
<text text-anchor="middle" x="32.6" y="-1079.58" font-family="Times New Roman,serif" font-size="14.00">AWC</text>
</g>
<!-- AWC&#45;&gt;RIM -->
<g id="edge58" class="edge">
<title>AWC&#45;&gt;RIM</title>
<path fill="none" stroke="gray" stroke-width="0.2" d="M63.22,-1078.21C72.17,-1076.16 82.6,-1073.78 93.66,-1071.24"/>
<polygon fill="gray" stroke="gray" stroke-width="0.2" points="94.28,-1074.69 103.24,-1069.05 92.72,-1067.87 94.28,-1074.69"/>
</g>
<!-- DVA -->
<g id="node40" class="node">
<title>DVA</title>
<ellipse fill="none" stroke="black" cx="32.6" cy="-1006" rx="30.11" ry="18"/>
<text text-anchor="middle" x="32.6" y="-1000.58" font-family="Times New Roman,serif" font-size="14.00">DVA</text>
</g>
<!-- DVA&#45;&gt;RIM -->
<g id="edge59" class="edge">
<title>DVA&#45;&gt;RIM</title>
<path fill="none" stroke="gray" stroke-width="0.2" d="M61.27,-1012.18C70.68,-1014.28 81.85,-1016.78 93.78,-1019.44"/>
<polygon fill="gray" stroke="gray" stroke-width="0.2" points="92.67,-1022.78 103.19,-1021.54 94.2,-1015.95 92.67,-1022.78"/>
</g>
<!-- DVC -->
<g id="node41" class="node">
<title>DVC</title>
<ellipse fill="none" stroke="black" cx="32.6" cy="-927" rx="30.11" ry="18"/>
<text text-anchor="middle" x="32.6" y="-921.58" font-family="Times New Roman,serif" font-size="14.00">DVC</text>
</g>
<!-- DVC&#45;&gt;RIM -->
<g id="edge60" class="edge">
<title>DVC&#45;&gt;RIM</title>
<path fill="none" stroke="gray" stroke-width="0.2" d="M53.29,-940.31C67.84,-950.14 88.85,-964.34 110.72,-979.12"/>
<polygon fill="gray" stroke="gray" stroke-width="0.2" points="108.64,-981.94 118.88,-984.64 112.56,-976.14 108.64,-981.94"/>
</g>
<!-- HSN -->
<g id="node42" class="node">
<title>HSN</title>
<ellipse fill="none" stroke="black" cx="32.6" cy="-848" rx="29.11" ry="18"/>
<text text-anchor="middle" x="32.6" y="-842.58" font-family="Times New Roman,serif" font-size="14.00">HSN</text>
</g>
<!-- HSN&#45;&gt;RIM -->
<g id="edge61" class="edge">
<title>HSN&#45;&gt;RIM</title>
<path fill="none" stroke="gray" stroke-width="nan" d="M47.59,-863.79C67.02,-885.7 103.52,-926.89 136.82,-964.46"/>
<polygon fill="gray" stroke="gray" stroke-width="nan" points="nan,-nan nan,-nan nan,-nan nan,-nan"/>
</g>
<!-- OLQ -->
<g id="node43" class="node">
<title>OLQ</title>
<ellipse fill="none" stroke="black" cx="32.6" cy="-769" rx="30.11" ry="18"/>
<text text-anchor="middle" x="32.6" y="-763.58" font-family="Times New Roman,serif" font-size="14.00">OLQ</text>
</g>
<!-- OLQ&#45;&gt;RIM -->
<g id="edge62" class="edge">
<title>OLQ&#45;&gt;RIM</title>
<path fill="none" stroke="gray" stroke-width="0.2" d="M46.45,-785.27C55.2,-796.34 65.2,-809 65.2,-809 65.2,-809 108.24,-880.03 147.1,-944.15"/>
<polygon fill="gray" stroke="gray" stroke-width="0.2" points="143.97,-945.74 152.14,-952.48 149.95,-942.12 143.97,-945.74"/>
</g>
<!-- PVC -->
<g id="node44" class="node">
<title>PVC</title>
<ellipse fill="none" stroke="black" cx="32.6" cy="-690" rx="29.11" ry="18"/>
<text text-anchor="middle" x="32.6" y="-684.58" font-family="Times New Roman,serif" font-size="14.00">PVC</text>
</g>
<!-- PVC&#45;&gt;RIM -->
<g id="edge63" class="edge">
<title>PVC&#45;&gt;RIM</title>
<path fill="none" stroke="blue" stroke-width="5" d="M46.45,-706.27C55.2,-717.34 65.2,-730 65.2,-730 65.2,-730 115.9,-841.68 156.92,-932.04"/>
<polygon fill="blue" stroke="blue" stroke-width="5" points="152.85,-933.65 160.97,-940.95 160.82,-930.03 152.85,-933.65"/>
</g>
<!-- PVN -->
<g id="node45" class="node">
<title>PVN</title>
<ellipse fill="none" stroke="black" cx="32.6" cy="-611" rx="29.11" ry="18"/>
<text text-anchor="middle" x="32.6" y="-605.58" font-family="Times New Roman,serif" font-size="14.00">PVN</text>
</g>
<!-- PVN&#45;&gt;RIM -->
<g id="edge64" class="edge">
<title>PVN&#45;&gt;RIM</title>
<path fill="none" stroke="gray" stroke-width="5" d="M46.45,-627.27C55.2,-638.34 65.2,-651 65.2,-651 65.2,-651 123.76,-812.34 165.93,-928.53"/>
<polygon fill="gray" stroke="gray" stroke-width="5" points="161.72,-929.76 169.25,-937.67 169.95,-926.78 161.72,-929.76"/>
</g>
<!-- PVP -->
<g id="node46" class="node">
<title>PVP</title>
<ellipse fill="none" stroke="black" cx="32.6" cy="-532" rx="28.11" ry="18"/>
<text text-anchor="middle" x="32.6" y="-526.58" font-family="Times New Roman,serif" font-size="14.00">PVP</text>
</g>
<!-- PVP&#45;&gt;RIM -->
<g id="edge65" class="edge">
<title>PVP&#45;&gt;RIM</title>
<path fill="none" stroke="gray" stroke-width="nan" d="M46.09,-547.81C54.92,-558.99 65.2,-572 65.2,-572 65.2,-572 134.82,-802.29 176.91,-941.49"/>
<polygon fill="gray" stroke="gray" stroke-width="nan" points="nan,-nan nan,-nan nan,-nan nan,-nan"/>
</g>
<!-- PVT -->
<g id="node47" class="node">
<title>PVT</title>
<ellipse fill="none" stroke="black" cx="32.6" cy="-453" rx="28.61" ry="18"/>
<text text-anchor="middle" x="32.6" y="-447.57" font-family="Times New Roman,serif" font-size="14.00">PVT</text>
</g>
<!-- PVT&#45;&gt;RIM -->
<g id="edge66" class="edge">
<title>PVT&#45;&gt;RIM</title>
<path fill="none" stroke="gray" stroke-width="0.2" d="M46.45,-469.27C55.2,-480.34 65.2,-493 65.2,-493 65.2,-493 136.8,-769.37 178.67,-931"/>
<polygon fill="gray" stroke="gray" stroke-width="0.2" points="175.16,-931.43 181.06,-940.23 181.94,-929.67 175.16,-931.43"/>
</g>
<!-- RIR -->
<g id="node48" class="node">
<title>RIR</title>
<ellipse fill="none" stroke="black" cx="32.6" cy="-374" rx="27" ry="18"/>
<text text-anchor="middle" x="32.6" y="-368.57" font-family="Times New Roman,serif" font-size="14.00">RIR</text>
</g>
<!-- RIR&#45;&gt;RIM -->
<g id="edge67" class="edge">
<title>RIR&#45;&gt;RIM</title>
<path fill="none" stroke="gray" stroke-width="0.2" d="M46.09,-389.81C54.92,-400.99 65.2,-414 65.2,-414 65.2,-414 140.85,-747.81 182.11,-929.85"/>
<polygon fill="gray" stroke="gray" stroke-width="0.2" points="178.66,-930.47 184.28,-939.44 185.48,-928.92 178.66,-930.47"/>
</g>
<!-- SDQ -->
<g id="node49" class="node">
<title>SDQ</title>
<ellipse fill="none" stroke="black" cx="32.6" cy="-295" rx="29.61" ry="18"/>
<text text-anchor="middle" x="32.6" y="-289.57" font-family="Times New Roman,serif" font-size="14.00">SDQ</text>
</g>
<!-- SDQ&#45;&gt;RIM -->
<g id="edge68" class="edge">
<title>SDQ&#45;&gt;RIM</title>
<path fill="none" stroke="gray" stroke-width="5" d="M46.45,-311.27C55.2,-322.34 65.2,-335 65.2,-335 65.2,-335 142.83,-720.41 183.69,-923.32"/>
<polygon fill="gray" stroke="gray" stroke-width="5" points="179.38,-924.04 185.64,-932.97 187.95,-922.31 179.38,-924.04"/>
</g>
<!-- URY -->
<g id="node50" class="node">
<title>URY</title>
<ellipse fill="none" stroke="black" cx="32.6" cy="-216" rx="30.11" ry="18"/>
<text text-anchor="middle" x="32.6" y="-210.57" font-family="Times New Roman,serif" font-size="14.00">URY</text>
</g>
<!-- URY&#45;&gt;RIM -->
<g id="edge69" class="edge">
<title>URY&#45;&gt;RIM</title>
<path fill="none" stroke="gray" stroke-width="5" d="M46.45,-232.27C55.2,-243.34 65.2,-256 65.2,-256 65.2,-256 145.88,-701.14 186.04,-922.71"/>
<polygon fill="gray" stroke="gray" stroke-width="5" points="181.72,-923.4 187.8,-932.45 190.33,-921.83 181.72,-923.4"/>
</g>
</g>
</svg>
