<?xml version="1.0" encoding="UTF-8" standalone="no"?>
<!DOCTYPE svg PUBLIC "-//W3C//DTD SVG 1.1//EN"
 "http://www.w3.org/Graphics/SVG/1.1/DTD/svg11.dtd">
<!-- Generated by graphviz version 11.0.0 (20240428.1522)
 -->
<!-- Pages: 1 -->
<svg width="420pt" height="1387pt"
 viewBox="0.00 0.00 420.42 1387.00" xmlns="http://www.w3.org/2000/svg" xmlns:xlink="http://www.w3.org/1999/xlink">
<g id="graph0" class="graph" transform="scale(1 1) rotate(0) translate(4 1383)">
<polygon fill="white" stroke="none" points="-4,4 -4,-1383 416.42,-1383 416.42,4 -4,4"/>
<!-- RIP -->
<g id="node1" class="node">
<title>RIP</title>
<ellipse fill="none" stroke="black" cx="205.21" cy="-808" rx="108" ry="108"/>
<text text-anchor="middle" x="205.21" y="-789" font-family="Times New Roman,serif" font-size="50.00">RIP</text>
</g>
<!-- RIP&#45;&gt;RIP -->
<g id="edge1" class="edge">
<title>RIP&#45;&gt;RIP</title>
<path fill="none" stroke="gray" stroke-width="0.2" d="M172.78,-911.39C174.71,-938.51 185.52,-959 205.21,-959 222.37,-959 232.78,-943.45 236.45,-921.52"/>
<polygon fill="gray" stroke="gray" stroke-width="0.2" points="239.91,-922.03 237.6,-911.69 232.96,-921.22 239.91,-922.03"/>
</g>
<!-- ADF -->
<g id="node2" class="node">
<title>ADF</title>
<ellipse fill="none" stroke="black" cx="380.81" cy="-1361" rx="29.11" ry="18"/>
<text text-anchor="middle" x="380.81" y="-1355.58" font-family="Times New Roman,serif" font-size="14.00">ADF</text>
</g>
<!-- RIP&#45;&gt;ADF -->
<g id="edge2" class="edge">
<title>RIP&#45;&gt;ADF</title>
<path fill="none" stroke="blue" stroke-width="2" d="M238.84,-910.85C281.04,-1055.48 349.21,-1300.5 349.21,-1300.5 349.21,-1300.5 360.81,-1315.29 369.73,-1331.67"/>
<polygon fill="blue" stroke="blue" stroke-width="2" points="366.45,-1332.92 373.97,-1340.38 372.74,-1329.86 366.45,-1332.92"/>
</g>
<!-- AIZ -->
<g id="node3" class="node">
<title>AIZ</title>
<ellipse fill="none" stroke="black" cx="380.81" cy="-1282" rx="27" ry="18"/>
<text text-anchor="middle" x="380.81" y="-1276.58" font-family="Times New Roman,serif" font-size="14.00">AIZ</text>
</g>
<!-- RIP&#45;&gt;AIZ -->
<g id="edge3" class="edge">
<title>RIP&#45;&gt;AIZ</title>
<path fill="none" stroke="blue" stroke-width="2" d="M244.44,-908.99C286.8,-1031.64 349.21,-1221.5 349.21,-1221.5 349.21,-1221.5 360.81,-1236.29 369.73,-1252.67"/>
<polygon fill="blue" stroke="blue" stroke-width="2" points="366.45,-1253.92 373.97,-1261.38 372.74,-1250.86 366.45,-1253.92"/>
</g>
<!-- AVB -->
<g id="node4" class="node">
<title>AVB</title>
<ellipse fill="none" stroke="black" cx="380.81" cy="-1203" rx="29.61" ry="18"/>
<text text-anchor="middle" x="380.81" y="-1197.58" font-family="Times New Roman,serif" font-size="14.00">AVB</text>
</g>
<!-- RIP&#45;&gt;AVB -->
<g id="edge4" class="edge">
<title>RIP&#45;&gt;AVB</title>
<path fill="none" stroke="gray" stroke-width="2" d="M246.42,-908.11C288.72,-1013.41 349.21,-1164 349.21,-1164 349.21,-1164 353.66,-1169.67 359.17,-1176.69"/>
<polygon fill="gray" stroke="gray" stroke-width="2" points="356.22,-1178.6 365.14,-1184.31 361.72,-1174.28 356.22,-1178.6"/>
</g>
<!-- CEP -->
<g id="node5" class="node">
<title>CEP</title>
<ellipse fill="none" stroke="black" cx="380.81" cy="-1124" rx="28.11" ry="18"/>
<text text-anchor="middle" x="380.81" y="-1118.58" font-family="Times New Roman,serif" font-size="14.00">CEP</text>
</g>
<!-- RIP&#45;&gt;CEP -->
<g id="edge5" class="edge">
<title>RIP&#45;&gt;CEP</title>
<path fill="none" stroke="gray" stroke-width="0.2" d="M262.73,-899.97C302.7,-973.4 349.21,-1063.5 349.21,-1063.5 349.21,-1063.5 361.95,-1079.74 370.99,-1097.04"/>
<polygon fill="gray" stroke="gray" stroke-width="0.2" points="367.72,-1098.3 375.17,-1105.83 374.04,-1095.29 367.72,-1098.3"/>
</g>
<!-- IL1 -->
<g id="node6" class="node">
<title>IL1</title>
<ellipse fill="none" stroke="black" cx="380.81" cy="-1045" rx="27" ry="18"/>
<text text-anchor="middle" x="380.81" y="-1039.58" font-family="Times New Roman,serif" font-size="14.00">IL1</text>
</g>
<!-- RIP&#45;&gt;IL1 -->
<g id="edge6" class="edge">
<title>RIP&#45;&gt;IL1</title>
<path fill="none" stroke="gray" stroke-width="0.2" d="M277.92,-888.46C313.6,-935.19 349.21,-984.5 349.21,-984.5 349.21,-984.5 361.95,-1000.74 370.99,-1018.04"/>
<polygon fill="gray" stroke="gray" stroke-width="0.2" points="367.72,-1019.3 375.17,-1026.83 374.04,-1016.29 367.72,-1019.3"/>
</g>
<!-- IL2 -->
<g id="node7" class="node">
<title>IL2</title>
<ellipse fill="none" stroke="black" cx="380.81" cy="-966" rx="27" ry="18"/>
<text text-anchor="middle" x="380.81" y="-960.58" font-family="Times New Roman,serif" font-size="14.00">IL2</text>
</g>
<!-- RIP&#45;&gt;IL2 -->
<g id="edge7" class="edge">
<title>RIP&#45;&gt;IL2</title>
<path fill="none" stroke="gray" stroke-width="0.2" d="M293.27,-871.11C320.21,-895.64 347.12,-922.22 363.62,-941.39"/>
<polygon fill="gray" stroke="gray" stroke-width="0.2" points="360.75,-943.42 369.83,-948.89 366.15,-938.96 360.75,-943.42"/>
</g>
<!-- OLQ -->
<g id="node8" class="node">
<title>OLQ</title>
<ellipse fill="none" stroke="black" cx="380.81" cy="-887" rx="30.11" ry="18"/>
<text text-anchor="middle" x="380.81" y="-881.58" font-family="Times New Roman,serif" font-size="14.00">OLQ</text>
</g>
<!-- RIP&#45;&gt;OLQ -->
<g id="edge8" class="edge">
<title>RIP&#45;&gt;OLQ</title>
<path fill="none" stroke="gray" stroke-width="2" d="M308.95,-838.87C326.1,-847.21 342.4,-856.02 355.02,-864.03"/>
<polygon fill="gray" stroke="gray" stroke-width="2" points="352.76,-866.72 363,-869.42 356.68,-860.92 352.76,-866.72"/>
</g>
<!-- RIA -->
<g id="node9" class="node">
<title>RIA</title>
<ellipse fill="none" stroke="black" cx="380.81" cy="-808" rx="27" ry="18"/>
<text text-anchor="middle" x="380.81" y="-802.58" font-family="Times New Roman,serif" font-size="14.00">RIA</text>
</g>
<!-- RIP&#45;&gt;RIA -->
<g id="edge9" class="edge">
<title>RIP&#45;&gt;RIA</title>
<path fill="none" stroke="blue" stroke-width="5" d="M313.69,-808C321.96,-808 329.96,-808 337.38,-808"/>
<polygon fill="blue" stroke="blue" stroke-width="5" points="337.22,-812.38 347.22,-808 337.22,-803.63 337.22,-812.38"/>
</g>
<!-- RIC -->
<g id="node10" class="node">
<title>RIC</title>
<ellipse fill="none" stroke="black" cx="380.81" cy="-729" rx="27" ry="18"/>
<text text-anchor="middle" x="380.81" y="-723.58" font-family="Times New Roman,serif" font-size="14.00">RIC</text>
</g>
<!-- RIP&#45;&gt;RIC -->
<g id="edge10" class="edge">
<title>RIP&#45;&gt;RIC</title>
<path fill="none" stroke="gray" stroke-width="0.2" d="M303.92,-763.54C320.14,-756.15 335.84,-749.01 348.72,-743.15"/>
<polygon fill="gray" stroke="gray" stroke-width="0.2" points="350.04,-746.39 357.7,-739.06 347.14,-740.02 350.04,-746.39"/>
</g>
<!-- RIH -->
<g id="node11" class="node">
<title>RIH</title>
<ellipse fill="none" stroke="black" cx="380.81" cy="-650" rx="27" ry="18"/>
<text text-anchor="middle" x="380.81" y="-644.58" font-family="Times New Roman,serif" font-size="14.00">RIH</text>
</g>
<!-- RIP&#45;&gt;RIH -->
<g id="edge11" class="edge">
<title>RIP&#45;&gt;RIH</title>
<path fill="none" stroke="gray" stroke-width="0.2" d="M277.57,-727.16C302.61,-703.62 329.42,-680.31 349.31,-665.14"/>
<polygon fill="gray" stroke="gray" stroke-width="0.2" points="351.18,-668.11 357.13,-659.35 347.01,-662.49 351.18,-668.11"/>
</g>
<!-- RIR -->
<g id="node12" class="node">
<title>RIR</title>
<ellipse fill="none" stroke="black" cx="380.81" cy="-571" rx="27" ry="18"/>
<text text-anchor="middle" x="380.81" y="-565.58" font-family="Times New Roman,serif" font-size="14.00">RIR</text>
</g>
<!-- RIP&#45;&gt;RIR -->
<g id="edge12" class="edge">
<title>RIP&#45;&gt;RIR</title>
<path fill="none" stroke="blue" stroke-width="2" d="M269.56,-720.73C307.81,-668.04 349.21,-611 349.21,-611 349.21,-611 354.02,-604.71 359.83,-597.12"/>
<polygon fill="blue" stroke="blue" stroke-width="2" points="362.58,-599.28 365.88,-589.21 357.02,-595.03 362.58,-599.28"/>
</g>
<!-- RIV -->
<g id="node13" class="node">
<title>RIV</title>
<ellipse fill="none" stroke="black" cx="380.81" cy="-492" rx="27" ry="18"/>
<text text-anchor="middle" x="380.81" y="-486.57" font-family="Times New Roman,serif" font-size="14.00">RIV</text>
</g>
<!-- RIP&#45;&gt;RIV -->
<g id="edge13" class="edge">
<title>RIP&#45;&gt;RIV</title>
<path fill="none" stroke="blue" stroke-width="0.2" d="M255.82,-712.24C297.13,-632.53 349.21,-532 349.21,-532 349.21,-532 355.04,-524.37 361.62,-515.78"/>
<polygon fill="blue" stroke="blue" stroke-width="0.2" points="364.24,-518.12 367.53,-508.05 358.68,-513.86 364.24,-518.12"/>
</g>
<!-- RMD -->
<g id="node14" class="node">
<title>RMD</title>
<ellipse fill="none" stroke="black" cx="380.81" cy="-413" rx="31.6" ry="18"/>
<text text-anchor="middle" x="380.81" y="-407.57" font-family="Times New Roman,serif" font-size="14.00">RMD</text>
</g>
<!-- RIP&#45;&gt;RMD -->
<g id="edge14" class="edge">
<title>RIP&#45;&gt;RMD</title>
<path fill="none" stroke="gray" stroke-width="5" d="M246.42,-708.17C288.72,-603.17 349.21,-453 349.21,-453 349.21,-453 352.81,-448.3 357.53,-442.12"/>
<polygon fill="gray" stroke="gray" stroke-width="5" points="360.97,-444.82 363.58,-434.22 354.02,-439.51 360.97,-444.82"/>
</g>
<!-- SIA -->
<g id="node15" class="node">
<title>SIA</title>
<ellipse fill="none" stroke="black" cx="380.81" cy="-334" rx="27" ry="18"/>
<text text-anchor="middle" x="380.81" y="-328.57" font-family="Times New Roman,serif" font-size="14.00">SIA</text>
</g>
<!-- RIP&#45;&gt;SIA -->
<g id="edge15" class="edge">
<title>RIP&#45;&gt;SIA</title>
<path fill="none" stroke="gray" stroke-width="0.2" d="M240.01,-705.42C282.29,-577.1 349.21,-374 349.21,-374 349.21,-374 355.04,-366.37 361.62,-357.78"/>
<polygon fill="gray" stroke="gray" stroke-width="0.2" points="364.24,-360.12 367.53,-350.05 358.68,-355.86 364.24,-360.12"/>
</g>
<!-- SIB -->
<g id="node16" class="node">
<title>SIB</title>
<ellipse fill="none" stroke="black" cx="380.81" cy="-255" rx="27" ry="18"/>
<text text-anchor="middle" x="380.81" y="-249.57" font-family="Times New Roman,serif" font-size="14.00">SIB</text>
</g>
<!-- RIP&#45;&gt;SIB -->
<g id="edge16" class="edge">
<title>RIP&#45;&gt;SIB</title>
<path fill="none" stroke="gray" stroke-width="0.2" d="M235.15,-703.98C276.93,-553.79 349.21,-294 349.21,-294 349.21,-294 354.77,-286.91 361.15,-278.78"/>
<polygon fill="gray" stroke="gray" stroke-width="0.2" points="363.76,-281.13 367.18,-271.1 358.25,-276.81 363.76,-281.13"/>
</g>
<!-- SMB -->
<g id="node17" class="node">
<title>SMB</title>
<ellipse fill="none" stroke="black" cx="380.81" cy="-176" rx="30.11" ry="18"/>
<text text-anchor="middle" x="380.81" y="-170.57" font-family="Times New Roman,serif" font-size="14.00">SMB</text>
</g>
<!-- RIP&#45;&gt;SMB -->
<g id="edge17" class="edge">
<title>RIP&#45;&gt;SMB</title>
<path fill="none" stroke="gray" stroke-width="2" d="M231.53,-703.01C272.6,-532.69 349.21,-215 349.21,-215 349.21,-215 353.66,-209.33 359.17,-202.31"/>
<polygon fill="gray" stroke="gray" stroke-width="2" points="361.72,-204.72 365.14,-194.69 356.22,-200.4 361.72,-204.72"/>
</g>
<!-- URA -->
<g id="node18" class="node">
<title>URA</title>
<ellipse fill="none" stroke="black" cx="380.81" cy="-97" rx="30.11" ry="18"/>
<text text-anchor="middle" x="380.81" y="-91.58" font-family="Times New Roman,serif" font-size="14.00">URA</text>
</g>
<!-- RIP&#45;&gt;URA -->
<g id="edge18" class="edge">
<title>RIP&#45;&gt;URA</title>
<path fill="none" stroke="gray" stroke-width="0.2" d="M226.32,-701.59C262.4,-523.26 335.5,-179.02 352.28,-116.79"/>
<polygon fill="gray" stroke="gray" stroke-width="0.2" points="355.56,-118.01 355.31,-107.42 348.9,-115.85 355.56,-118.01"/>
</g>
<!-- URY -->
<g id="node19" class="node">
<title>URY</title>
<ellipse fill="none" stroke="black" cx="380.81" cy="-18" rx="30.11" ry="18"/>
<text text-anchor="middle" x="380.81" y="-12.57" font-family="Times New Roman,serif" font-size="14.00">URY</text>
</g>
<!-- RIP&#45;&gt;URY -->
<g id="edge19" class="edge">
<title>RIP&#45;&gt;URY</title>
<path fill="none" stroke="gray" stroke-width="0.2" d="M224.32,-701.48C259.79,-505.88 336,-104.93 352.54,-37.7"/>
<polygon fill="gray" stroke="gray" stroke-width="0.2" points="355.81,-39 355.32,-28.42 349.1,-37 355.81,-39"/>
</g>
<!-- ADF&#45;&gt;RIP -->
<g id="edge20" class="edge">
<title>ADF&#45;&gt;RIP</title>
<path fill="none" stroke="blue" stroke-width="5" d="M355.7,-1351.21C351.91,-1346.94 349.21,-1343.5 349.21,-1343.5 349.21,-1343.5 277.75,-1086.63 235.86,-928.47"/>
<polygon fill="blue" stroke="blue" stroke-width="5" points="240.15,-927.59 233.37,-919.04 231.69,-929.83 240.15,-927.59"/>
</g>
<!-- AIZ&#45;&gt;RIP -->
<g id="edge21" class="edge">
<title>AIZ&#45;&gt;RIP</title>
<path fill="none" stroke="gray" stroke-width="0.2" d="M356.62,-1273.23C352.35,-1268.5 349.21,-1264.5 349.21,-1264.5 349.21,-1264.5 281.04,-1057.12 238.83,-921.66"/>
<polygon fill="gray" stroke="gray" stroke-width="0.2" points="242.24,-920.83 235.93,-912.32 235.56,-922.91 242.24,-920.83"/>
</g>
<!-- CEP&#45;&gt;RIP -->
<g id="edge22" class="edge">
<title>CEP&#45;&gt;RIP</title>
<path fill="none" stroke="gray" stroke-width="5" d="M356.31,-1114.89C352.2,-1110.31 349.21,-1106.5 349.21,-1106.5 349.21,-1106.5 297.4,-1006.15 256.16,-921.56"/>
<polygon fill="gray" stroke="gray" stroke-width="5" points="260.14,-919.75 251.84,-912.67 252.27,-923.58 260.14,-919.75"/>
</g>
<!-- IL1&#45;&gt;RIP -->
<g id="edge23" class="edge">
<title>IL1&#45;&gt;RIP</title>
<path fill="none" stroke="gray" stroke-width="5" d="M356.62,-1036.23C352.35,-1031.5 349.21,-1027.5 349.21,-1027.5 349.21,-1027.5 308.11,-970.59 269.98,-914.48"/>
<polygon fill="gray" stroke="gray" stroke-width="5" points="273.6,-912.03 264.38,-906.19 266.35,-916.93 273.6,-912.03"/>
</g>
<!-- IL2&#45;&gt;RIP -->
<g id="edge24" class="edge">
<title>IL2&#45;&gt;RIP</title>
<path fill="none" stroke="black" stroke-width="5" d="M357.38,-956.83C339.89,-944.33 314.45,-922.79 289.41,-899.83"/>
<polygon fill="black" stroke="black" stroke-width="5" points="292.45,-896.69 282.14,-893.09 286.5,-903.1 292.45,-896.69"/>
</g>
<!-- OLQ&#45;&gt;RIP -->
<g id="edge25" class="edge">
<title>OLQ&#45;&gt;RIP</title>
<path fill="none" stroke="gray" stroke-width="5" d="M350.49,-886.1C339.39,-882.75 326.01,-877.77 311.93,-871.89"/>
<polygon fill="gray" stroke="gray" stroke-width="5" points="313.72,-867.9 302.8,-867.94 310.24,-875.93 313.72,-867.9"/>
</g>
<!-- RIH&#45;&gt;RIP -->
<g id="edge26" class="edge">
<title>RIH&#45;&gt;RIP</title>
<path fill="none" stroke="black" stroke-width="5" d="M370.02,-666.88C356.77,-683.66 331.73,-709.12 305.14,-733.95"/>
<polygon fill="black" stroke="black" stroke-width="5" points="302.24,-730.67 297.85,-740.67 308.17,-737.1 302.24,-730.67"/>
</g>
<!-- URA&#45;&gt;RIP -->
<g id="edge27" class="edge">
<title>URA&#45;&gt;RIP</title>
<path fill="none" stroke="black" stroke-width="5" d="M375.3,-114.9C366.78,-135.1 349.21,-157.5 349.21,-157.5 349.21,-157.5 276.61,-498.66 234.87,-687.04"/>
<polygon fill="black" stroke="black" stroke-width="5" points="230.61,-686.03 232.72,-696.74 239.16,-687.93 230.61,-686.03"/>
</g>
<!-- URY&#45;&gt;RIP -->
<g id="edge28" class="edge">
<title>URY&#45;&gt;RIP</title>
<path fill="none" stroke="gray" stroke-width="5" d="M375.3,-35.9C366.78,-56.1 349.21,-78.5 349.21,-78.5 349.21,-78.5 273,-478.71 231.85,-686.46"/>
<polygon fill="gray" stroke="gray" stroke-width="5" points="227.58,-685.52 229.93,-696.18 236.16,-687.22 227.58,-685.52"/>
</g>
<!-- ADA -->
<g id="node20" class="node">
<title>ADA</title>
<ellipse fill="none" stroke="black" cx="30.61" cy="-1322" rx="30.11" ry="18"/>
<text text-anchor="middle" x="30.61" y="-1316.58" font-family="Times New Roman,serif" font-size="14.00">ADA</text>
</g>
<!-- ADA&#45;&gt;RIP -->
<g id="edge29" class="edge">
<title>ADA&#45;&gt;RIP</title>
<path fill="none" stroke="red" stroke-width="5" d="M43.99,-1305.69C52.1,-1295 61.21,-1283 61.21,-1283 61.21,-1283 126.07,-1067.55 168.43,-926.85"/>
<polygon fill="red" stroke="red" stroke-width="5" points="172.6,-928.17 171.3,-917.33 164.22,-925.65 172.6,-928.17"/>
</g>
<!-- ADL -->
<g id="node21" class="node">
<title>ADL</title>
<ellipse fill="none" stroke="black" cx="30.61" cy="-1243" rx="29.11" ry="18"/>
<text text-anchor="middle" x="30.61" y="-1237.58" font-family="Times New Roman,serif" font-size="14.00">ADL</text>
</g>
<!-- ADL&#45;&gt;RIP -->
<g id="edge30" class="edge">
<title>ADL&#45;&gt;RIP</title>
<path fill="none" stroke="gray" stroke-width="0.2" d="M43.99,-1226.69C52.1,-1216 61.21,-1204 61.21,-1204 61.21,-1204 121.78,-1036.26 164.08,-919.12"/>
<polygon fill="gray" stroke="gray" stroke-width="0.2" points="167.27,-920.6 167.37,-910.01 160.69,-918.22 167.27,-920.6"/>
</g>
<!-- AQR -->
<g id="node22" class="node">
<title>AQR</title>
<ellipse fill="none" stroke="black" cx="30.61" cy="-1164" rx="30.61" ry="18"/>
<text text-anchor="middle" x="30.61" y="-1158.58" font-family="Times New Roman,serif" font-size="14.00">AQR</text>
</g>
<!-- AQR&#45;&gt;RIP -->
<g id="edge31" class="edge">
<title>AQR&#45;&gt;RIP</title>
<path fill="none" stroke="gray" stroke-width="0.2" d="M43.99,-1147.69C52.1,-1137 61.21,-1125 61.21,-1125 61.21,-1125 114.24,-1007.44 155.71,-915.51"/>
<polygon fill="gray" stroke="gray" stroke-width="0.2" points="158.9,-916.96 159.82,-906.41 152.52,-914.08 158.9,-916.96"/>
</g>
<!-- ASH -->
<g id="node23" class="node">
<title>ASH</title>
<ellipse fill="none" stroke="black" cx="30.61" cy="-1085" rx="29.11" ry="18"/>
<text text-anchor="middle" x="30.61" y="-1079.58" font-family="Times New Roman,serif" font-size="14.00">ASH</text>
</g>
<!-- ASH&#45;&gt;RIP -->
<g id="edge32" class="edge">
<title>ASH&#45;&gt;RIP</title>
<path fill="none" stroke="gray" stroke-width="nan" d="M43.99,-1068.69C52.1,-1058 61.21,-1046 61.21,-1046 61.21,-1046 108.52,-967.26 148.72,-900.36"/>
<polygon fill="gray" stroke="gray" stroke-width="nan" points="nan,-nan nan,-nan nan,-nan nan,-nan"/>
</g>
<!-- BAG -->
<g id="node24" class="node">
<title>BAG</title>
<ellipse fill="none" stroke="black" cx="30.61" cy="-1006" rx="30.11" ry="18"/>
<text text-anchor="middle" x="30.61" y="-1000.58" font-family="Times New Roman,serif" font-size="14.00">BAG</text>
</g>
<!-- BAG&#45;&gt;RIP -->
<g id="edge33" class="edge">
<title>BAG&#45;&gt;RIP</title>
<path fill="none" stroke="gray" stroke-width="0.2" d="M45.44,-990.13C63.36,-969.57 96.01,-932.12 127.05,-896.51"/>
<polygon fill="gray" stroke="gray" stroke-width="0.2" points="129.52,-899.01 133.45,-889.17 124.24,-894.41 129.52,-899.01"/>
</g>
<!-- BDU -->
<g id="node25" class="node">
<title>BDU</title>
<ellipse fill="none" stroke="black" cx="30.61" cy="-927" rx="29.61" ry="18"/>
<text text-anchor="middle" x="30.61" y="-921.58" font-family="Times New Roman,serif" font-size="14.00">BDU</text>
</g>
<!-- BDU&#45;&gt;RIP -->
<g id="edge34" class="edge">
<title>BDU&#45;&gt;RIP</title>
<path fill="none" stroke="gray" stroke-width="0.2" d="M51.07,-913.58C65.38,-903.72 86,-889.5 107.49,-874.68"/>
<polygon fill="gray" stroke="gray" stroke-width="0.2" points="109.27,-877.71 115.51,-869.15 105.29,-871.95 109.27,-877.71"/>
</g>
<!-- DVA -->
<g id="node26" class="node">
<title>DVA</title>
<ellipse fill="none" stroke="black" cx="30.61" cy="-848" rx="30.11" ry="18"/>
<text text-anchor="middle" x="30.61" y="-842.58" font-family="Times New Roman,serif" font-size="14.00">DVA</text>
</g>
<!-- DVA&#45;&gt;RIP -->
<g id="edge35" class="edge">
<title>DVA&#45;&gt;RIP</title>
<path fill="none" stroke="gray" stroke-width="0.2" d="M58.95,-841.66C67.85,-839.6 78.35,-837.17 89.56,-834.57"/>
<polygon fill="gray" stroke="gray" stroke-width="0.2" points="90.34,-837.98 99.29,-832.32 88.76,-831.16 90.34,-837.98"/>
</g>
<!-- PVC -->
<g id="node27" class="node">
<title>PVC</title>
<ellipse fill="none" stroke="black" cx="30.61" cy="-769" rx="29.11" ry="18"/>
<text text-anchor="middle" x="30.61" y="-763.58" font-family="Times New Roman,serif" font-size="14.00">PVC</text>
</g>
<!-- PVC&#45;&gt;RIP -->
<g id="edge36" class="edge">
<title>PVC&#45;&gt;RIP</title>
<path fill="none" stroke="blue" stroke-width="2" d="M58.2,-775.01C66.56,-776.9 76.38,-779.12 86.92,-781.5"/>
<polygon fill="blue" stroke="blue" stroke-width="2" points="86.09,-784.9 96.62,-783.69 87.64,-778.07 86.09,-784.9"/>
</g>
<!-- PVR -->
<g id="node28" class="node">
<title>PVR</title>
<ellipse fill="none" stroke="black" cx="30.61" cy="-690" rx="29.11" ry="18"/>
<text text-anchor="middle" x="30.61" y="-684.58" font-family="Times New Roman,serif" font-size="14.00">PVR</text>
</g>
<!-- PVR&#45;&gt;RIP -->
<g id="edge37" class="edge">
<title>PVR&#45;&gt;RIP</title>
<path fill="none" stroke="gray" stroke-width="5" d="M51.07,-703.31C64.17,-712.26 82.56,-724.84 102.08,-738.18"/>
<polygon fill="gray" stroke="gray" stroke-width="5" points="99.49,-741.71 110.21,-743.74 104.43,-734.48 99.49,-741.71"/>
</g>
<!-- RIF -->
<g id="node29" class="node">
<title>RIF</title>
<ellipse fill="none" stroke="black" cx="30.61" cy="-611" rx="27" ry="18"/>
<text text-anchor="middle" x="30.61" y="-605.58" font-family="Times New Roman,serif" font-size="14.00">RIF</text>
</g>
<!-- RIF&#45;&gt;RIP -->
<g id="edge38" class="edge">
<title>RIF&#45;&gt;RIP</title>
<path fill="none" stroke="gray" stroke-width="0.2" d="M45.15,-626.46C62.96,-646.78 95.64,-684.08 126.77,-719.61"/>
<polygon fill="gray" stroke="gray" stroke-width="0.2" points="123.96,-721.72 133.18,-726.93 129.23,-717.11 123.96,-721.72"/>
</g>
<!-- RME -->
<g id="node30" class="node">
<title>RME</title>
<ellipse fill="none" stroke="black" cx="30.61" cy="-532" rx="30.61" ry="18"/>
<text text-anchor="middle" x="30.61" y="-526.58" font-family="Times New Roman,serif" font-size="14.00">RME</text>
</g>
<!-- RME&#45;&gt;RIP -->
<g id="edge39" class="edge">
<title>RME&#45;&gt;RIP</title>
<path fill="none" stroke="gray" stroke-width="0.2" d="M43.65,-548.27C51.84,-559.34 61.21,-572 61.21,-572 61.21,-572 104.25,-643.03 143.1,-707.15"/>
<polygon fill="gray" stroke="gray" stroke-width="0.2" points="139.98,-708.74 148.15,-715.48 145.96,-705.12 139.98,-708.74"/>
</g>
<!-- SAA -->
<g id="node31" class="node">
<title>SAA</title>
<ellipse fill="none" stroke="black" cx="30.61" cy="-453" rx="29.11" ry="18"/>
<text text-anchor="middle" x="30.61" y="-447.57" font-family="Times New Roman,serif" font-size="14.00">SAA</text>
</g>
<!-- SAA&#45;&gt;RIP -->
<g id="edge40" class="edge">
<title>SAA&#45;&gt;RIP</title>
<path fill="none" stroke="gray" stroke-width="2" d="M43.65,-469.27C51.84,-480.34 61.21,-493 61.21,-493 61.21,-493 112.96,-606.99 154.2,-697.83"/>
<polygon fill="gray" stroke="gray" stroke-width="2" points="150.98,-699.21 158.3,-706.87 157.35,-696.32 150.98,-699.21"/>
</g>
<!-- SDQ -->
<g id="node32" class="node">
<title>SDQ</title>
<ellipse fill="none" stroke="black" cx="30.61" cy="-374" rx="29.61" ry="18"/>
<text text-anchor="middle" x="30.61" y="-368.57" font-family="Times New Roman,serif" font-size="14.00">SDQ</text>
</g>
<!-- SDQ&#45;&gt;RIP -->
<g id="edge41" class="edge">
<title>SDQ&#45;&gt;RIP</title>
<path fill="none" stroke="gray" stroke-width="0.2" d="M43.65,-390.27C51.84,-401.34 61.21,-414 61.21,-414 61.21,-414 121.69,-580.65 163.99,-697.18"/>
<polygon fill="gray" stroke="gray" stroke-width="0.2" points="160.58,-698.04 167.28,-706.25 167.16,-695.66 160.58,-698.04"/>
</g>
<!-- URX -->
<g id="node33" class="node">
<title>URX</title>
<ellipse fill="none" stroke="black" cx="30.61" cy="-295" rx="30.11" ry="18"/>
<text text-anchor="middle" x="30.61" y="-289.57" font-family="Times New Roman,serif" font-size="14.00">URX</text>
</g>
<!-- URX&#45;&gt;RIP -->
<g id="edge42" class="edge">
<title>URX&#45;&gt;RIP</title>
<path fill="none" stroke="gray" stroke-width="5" d="M43.65,-311.27C51.84,-322.34 61.21,-335 61.21,-335 61.21,-335 125.89,-548.94 168.25,-689.06"/>
<polygon fill="gray" stroke="gray" stroke-width="5" points="164.03,-690.21 171.11,-698.52 172.41,-687.68 164.03,-690.21"/>
</g>
</g>
</svg>
