<?xml version="1.0" encoding="UTF-8" standalone="no"?>
<!DOCTYPE svg PUBLIC "-//W3C//DTD SVG 1.1//EN"
 "http://www.w3.org/Graphics/SVG/1.1/DTD/svg11.dtd">
<!-- Generated by graphviz version 11.0.0 (20240428.1522)
 -->
<!-- Pages: 1 -->
<svg width="425pt" height="1940pt"
 viewBox="0.00 0.00 425.41 1940.00" xmlns="http://www.w3.org/2000/svg" xmlns:xlink="http://www.w3.org/1999/xlink">
<g id="graph0" class="graph" transform="scale(1 1) rotate(0) translate(4 1936)">
<polygon fill="white" stroke="none" points="-4,4 -4,-1936 421.41,-1936 421.41,4 -4,4"/>
<!-- RIR -->
<g id="node1" class="node">
<title>RIR</title>
<ellipse fill="none" stroke="black" cx="209.2" cy="-887" rx="108" ry="108"/>
<text text-anchor="middle" x="209.2" y="-868" font-family="Times New Roman,serif" font-size="50.00">RIR</text>
</g>
<!-- ADA -->
<g id="node2" class="node">
<title>ADA</title>
<ellipse fill="none" stroke="black" cx="385.3" cy="-1914" rx="30.11" ry="18"/>
<text text-anchor="middle" x="385.3" y="-1908.58" font-family="Times New Roman,serif" font-size="14.00">ADA</text>
</g>
<!-- RIR&#45;&gt;ADA -->
<g id="edge1" class="edge">
<title>RIR&#45;&gt;ADA</title>
<path fill="none" stroke="gray" stroke-width="0.2" d="M225.71,-994.14C262.73,-1249.91 353.2,-1875 353.2,-1875 353.2,-1875 358.58,-1881.75 364.87,-1889.63"/>
<polygon fill="gray" stroke="gray" stroke-width="0.2" points="362.13,-1891.81 371.11,-1897.45 367.61,-1887.45 362.13,-1891.81"/>
</g>
<!-- ADF -->
<g id="node3" class="node">
<title>ADF</title>
<ellipse fill="none" stroke="black" cx="385.3" cy="-1835" rx="29.11" ry="18"/>
<text text-anchor="middle" x="385.3" y="-1829.58" font-family="Times New Roman,serif" font-size="14.00">ADF</text>
</g>
<!-- RIR&#45;&gt;ADF -->
<g id="edge2" class="edge">
<title>RIR&#45;&gt;ADF</title>
<path fill="none" stroke="red" stroke-width="5" d="M228.75,-993.39C267.44,-1229.36 353.2,-1774.5 353.2,-1774.5 353.2,-1774.5 363.67,-1787.63 372.46,-1802.85"/>
<polygon fill="red" stroke="red" stroke-width="5" points="368.45,-1804.62 376.89,-1811.54 376.25,-1800.65 368.45,-1804.62"/>
</g>
<!-- AFD -->
<g id="node4" class="node">
<title>AFD</title>
<ellipse fill="none" stroke="black" cx="385.3" cy="-1756" rx="29.11" ry="18"/>
<text text-anchor="middle" x="385.3" y="-1750.58" font-family="Times New Roman,serif" font-size="14.00">AFD</text>
</g>
<!-- RIR&#45;&gt;AFD -->
<g id="edge3" class="edge">
<title>RIR&#45;&gt;AFD</title>
<path fill="none" stroke="gray" stroke-width="0.2" d="M228.53,-993.39C267.12,-1217.35 353.2,-1717 353.2,-1717 353.2,-1717 358.85,-1724.09 365.34,-1732.22"/>
<polygon fill="gray" stroke="gray" stroke-width="0.2" points="362.49,-1734.26 371.47,-1739.9 367.97,-1729.9 362.49,-1734.26"/>
</g>
<!-- AIB -->
<g id="node5" class="node">
<title>AIB</title>
<ellipse fill="none" stroke="black" cx="385.3" cy="-1677" rx="27" ry="18"/>
<text text-anchor="middle" x="385.3" y="-1671.58" font-family="Times New Roman,serif" font-size="14.00">AIB</text>
</g>
<!-- RIR&#45;&gt;AIB -->
<g id="edge4" class="edge">
<title>RIR&#45;&gt;AIB</title>
<path fill="none" stroke="gray" stroke-width="0.2" d="M230.39,-993.01C269.81,-1200.02 353.2,-1638 353.2,-1638 353.2,-1638 358.85,-1645.09 365.34,-1653.22"/>
<polygon fill="gray" stroke="gray" stroke-width="0.2" points="362.49,-1655.26 371.47,-1660.9 367.97,-1650.9 362.49,-1655.26"/>
</g>
<!-- AIM -->
<g id="node6" class="node">
<title>AIM</title>
<ellipse fill="none" stroke="black" cx="385.3" cy="-1598" rx="28.11" ry="18"/>
<text text-anchor="middle" x="385.3" y="-1592.58" font-family="Times New Roman,serif" font-size="14.00">AIM</text>
</g>
<!-- RIR&#45;&gt;AIM -->
<g id="edge5" class="edge">
<title>RIR&#45;&gt;AIM</title>
<path fill="none" stroke="gray" stroke-width="0.2" d="M232.7,-992.74C272.97,-1181.98 353.2,-1559 353.2,-1559 353.2,-1559 358.85,-1566.09 365.34,-1574.22"/>
<polygon fill="gray" stroke="gray" stroke-width="0.2" points="362.49,-1576.26 371.47,-1581.9 367.97,-1571.9 362.49,-1576.26"/>
</g>
<!-- AIY -->
<g id="node7" class="node">
<title>AIY</title>
<ellipse fill="none" stroke="black" cx="385.3" cy="-1519" rx="27" ry="18"/>
<text text-anchor="middle" x="385.3" y="-1513.58" font-family="Times New Roman,serif" font-size="14.00">AIY</text>
</g>
<!-- RIR&#45;&gt;AIY -->
<g id="edge6" class="edge">
<title>RIR&#45;&gt;AIY</title>
<path fill="none" stroke="gray" stroke-width="0.2" d="M238.63,-991.19C280.33,-1156.3 353.2,-1458.5 353.2,-1458.5 353.2,-1458.5 366.15,-1474.74 375.34,-1492.04"/>
<polygon fill="gray" stroke="gray" stroke-width="0.2" points="372.09,-1493.34 379.58,-1500.83 378.39,-1490.3 372.09,-1493.34"/>
</g>
<!-- AIZ -->
<g id="node8" class="node">
<title>AIZ</title>
<ellipse fill="none" stroke="black" cx="385.3" cy="-1440" rx="27" ry="18"/>
<text text-anchor="middle" x="385.3" y="-1434.58" font-family="Times New Roman,serif" font-size="14.00">AIZ</text>
</g>
<!-- RIR&#45;&gt;AIZ -->
<g id="edge7" class="edge">
<title>RIR&#45;&gt;AIZ</title>
<path fill="none" stroke="gray" stroke-width="5" d="M242.83,-989.85C285.03,-1134.48 353.2,-1379.5 353.2,-1379.5 353.2,-1379.5 363.67,-1392.63 372.46,-1407.85"/>
<polygon fill="gray" stroke="gray" stroke-width="5" points="368.45,-1409.62 376.89,-1416.54 376.25,-1405.65 368.45,-1409.62"/>
</g>
<!-- AQR -->
<g id="node9" class="node">
<title>AQR</title>
<ellipse fill="none" stroke="black" cx="385.3" cy="-1361" rx="30.61" ry="18"/>
<text text-anchor="middle" x="385.3" y="-1355.58" font-family="Times New Roman,serif" font-size="14.00">AQR</text>
</g>
<!-- RIR&#45;&gt;AQR -->
<g id="edge8" class="edge">
<title>RIR&#45;&gt;AQR</title>
<path fill="none" stroke="red" stroke-width="2" d="M248.43,-987.99C290.79,-1110.64 353.2,-1300.5 353.2,-1300.5 353.2,-1300.5 364.99,-1315.29 374.06,-1331.67"/>
<polygon fill="red" stroke="red" stroke-width="2" points="370.8,-1332.98 378.37,-1340.39 377.07,-1329.87 370.8,-1332.98"/>
</g>
<!-- ASH -->
<g id="node10" class="node">
<title>ASH</title>
<ellipse fill="none" stroke="black" cx="385.3" cy="-1282" rx="29.11" ry="18"/>
<text text-anchor="middle" x="385.3" y="-1276.58" font-family="Times New Roman,serif" font-size="14.00">ASH</text>
</g>
<!-- RIR&#45;&gt;ASH -->
<g id="edge9" class="edge">
<title>RIR&#45;&gt;ASH</title>
<path fill="none" stroke="gray" stroke-width="0.2" d="M256.04,-984.79C297.87,-1083.74 353.2,-1221.5 353.2,-1221.5 353.2,-1221.5 366.15,-1237.74 375.34,-1255.04"/>
<polygon fill="gray" stroke="gray" stroke-width="0.2" points="372.09,-1256.34 379.58,-1263.83 378.39,-1253.3 372.09,-1256.34"/>
</g>
<!-- AUA -->
<g id="node11" class="node">
<title>AUA</title>
<ellipse fill="none" stroke="black" cx="385.3" cy="-1203" rx="30.11" ry="18"/>
<text text-anchor="middle" x="385.3" y="-1197.58" font-family="Times New Roman,serif" font-size="14.00">AUA</text>
</g>
<!-- RIR&#45;&gt;AUA -->
<g id="edge10" class="edge">
<title>RIR&#45;&gt;AUA</title>
<path fill="none" stroke="red" stroke-width="5" d="M266.72,-978.97C306.69,-1052.4 353.2,-1142.5 353.2,-1142.5 353.2,-1142.5 363.67,-1155.63 372.46,-1170.85"/>
<polygon fill="red" stroke="red" stroke-width="5" points="368.45,-1172.62 376.89,-1179.54 376.25,-1168.65 368.45,-1172.62"/>
</g>
<!-- AVB -->
<g id="node12" class="node">
<title>AVB</title>
<ellipse fill="none" stroke="black" cx="385.3" cy="-1124" rx="29.61" ry="18"/>
<text text-anchor="middle" x="385.3" y="-1118.58" font-family="Times New Roman,serif" font-size="14.00">AVB</text>
</g>
<!-- RIR&#45;&gt;AVB -->
<g id="edge11" class="edge">
<title>RIR&#45;&gt;AVB</title>
<path fill="none" stroke="blue" stroke-width="0.2" d="M281.91,-967.46C317.59,-1014.19 353.2,-1063.5 353.2,-1063.5 353.2,-1063.5 366.15,-1079.74 375.34,-1097.04"/>
<polygon fill="blue" stroke="blue" stroke-width="0.2" points="372.09,-1098.34 379.58,-1105.83 378.39,-1095.3 372.09,-1098.34"/>
</g>
<!-- AVE -->
<g id="node13" class="node">
<title>AVE</title>
<ellipse fill="none" stroke="black" cx="385.3" cy="-1045" rx="29.11" ry="18"/>
<text text-anchor="middle" x="385.3" y="-1039.58" font-family="Times New Roman,serif" font-size="14.00">AVE</text>
</g>
<!-- RIR&#45;&gt;AVE -->
<g id="edge12" class="edge">
<title>RIR&#45;&gt;AVE</title>
<path fill="none" stroke="red" stroke-width="2" d="M289.87,-959.3C314.53,-981.68 339.99,-1004.79 358.25,-1021.36"/>
<polygon fill="red" stroke="red" stroke-width="2" points="355.86,-1023.91 365.62,-1028.04 360.56,-1018.73 355.86,-1023.91"/>
</g>
<!-- AVH -->
<g id="node14" class="node">
<title>AVH</title>
<ellipse fill="none" stroke="black" cx="385.3" cy="-966" rx="30.11" ry="18"/>
<text text-anchor="middle" x="385.3" y="-960.58" font-family="Times New Roman,serif" font-size="14.00">AVH</text>
</g>
<!-- RIR&#45;&gt;AVH -->
<g id="edge13" class="edge">
<title>RIR&#45;&gt;AVH</title>
<path fill="none" stroke="gray" stroke-width="nan" d="M312.99,-917.75C335.52,-928.66 356.59,-940.39 369.9,-950.08"/>
<polygon fill="gray" stroke="gray" stroke-width="nan" points="nan,-nan nan,-nan nan,-nan nan,-nan"/>
</g>
<!-- AWB -->
<g id="node15" class="node">
<title>AWB</title>
<ellipse fill="none" stroke="black" cx="385.3" cy="-887" rx="32.1" ry="18"/>
<text text-anchor="middle" x="385.3" y="-881.58" font-family="Times New Roman,serif" font-size="14.00">AWB</text>
</g>
<!-- RIR&#45;&gt;AWB -->
<g id="edge14" class="edge">
<title>RIR&#45;&gt;AWB</title>
<path fill="none" stroke="gray" stroke-width="0.2" d="M316.49,-871.23C328.58,-871.68 340.14,-872.57 350.19,-873.89"/>
<polygon fill="gray" stroke="gray" stroke-width="0.2" points="349.35,-877.3 359.77,-875.37 350.43,-870.38 349.35,-877.3"/>
</g>
<!-- BAG -->
<g id="node16" class="node">
<title>BAG</title>
<ellipse fill="none" stroke="black" cx="385.3" cy="-808" rx="30.11" ry="18"/>
<text text-anchor="middle" x="385.3" y="-802.58" font-family="Times New Roman,serif" font-size="14.00">BAG</text>
</g>
<!-- RIR&#45;&gt;BAG -->
<g id="edge15" class="edge">
<title>RIR&#45;&gt;BAG</title>
<path fill="none" stroke="gray" stroke-width="5" d="M301.08,-829.65C314.45,-823.68 327.71,-818.27 339.58,-814"/>
<polygon fill="gray" stroke="gray" stroke-width="5" points="340.76,-818.22 348.87,-810.9 338,-809.91 340.76,-818.22"/>
</g>
<!-- DVA -->
<g id="node17" class="node">
<title>DVA</title>
<ellipse fill="none" stroke="black" cx="385.3" cy="-729" rx="30.11" ry="18"/>
<text text-anchor="middle" x="385.3" y="-723.58" font-family="Times New Roman,serif" font-size="14.00">DVA</text>
</g>
<!-- RIR&#45;&gt;DVA -->
<g id="edge16" class="edge">
<title>RIR&#45;&gt;DVA</title>
<path fill="none" stroke="red" stroke-width="5" d="M281.52,-806.39C304.15,-785.17 328.24,-764.11 347.41,-749.02"/>
<polygon fill="red" stroke="red" stroke-width="5" points="349.82,-752.68 355.14,-743.15 344.53,-745.71 349.82,-752.68"/>
</g>
<!-- HSN -->
<g id="node18" class="node">
<title>HSN</title>
<ellipse fill="none" stroke="black" cx="385.3" cy="-650" rx="29.11" ry="18"/>
<text text-anchor="middle" x="385.3" y="-644.58" font-family="Times New Roman,serif" font-size="14.00">HSN</text>
</g>
<!-- RIR&#45;&gt;HSN -->
<g id="edge17" class="edge">
<title>RIR&#45;&gt;HSN</title>
<path fill="none" stroke="gray" stroke-width="0.2" d="M264.88,-793.97C305.25,-733.9 353.2,-667.5 353.2,-667.5 353.2,-667.5 353.38,-667.27 353.72,-666.87"/>
<polygon fill="gray" stroke="gray" stroke-width="0.2" points="356.03,-669.54 359.91,-659.68 350.73,-664.97 356.03,-669.54"/>
</g>
<!-- OLQ -->
<g id="node19" class="node">
<title>OLQ</title>
<ellipse fill="none" stroke="black" cx="385.3" cy="-571" rx="30.11" ry="18"/>
<text text-anchor="middle" x="385.3" y="-565.58" font-family="Times New Roman,serif" font-size="14.00">OLQ</text>
</g>
<!-- RIR&#45;&gt;OLQ -->
<g id="edge18" class="edge">
<title>RIR&#45;&gt;OLQ</title>
<path fill="none" stroke="gray" stroke-width="2" d="M253.11,-787.94C288.65,-714.41 335.47,-622.98 353.2,-591.57"/>
<polygon fill="gray" stroke="gray" stroke-width="2" points="355.98,-593.73 358.22,-583.37 350.01,-590.07 355.98,-593.73"/>
</g>
<!-- PVP -->
<g id="node20" class="node">
<title>PVP</title>
<ellipse fill="none" stroke="black" cx="385.3" cy="-492" rx="28.11" ry="18"/>
<text text-anchor="middle" x="385.3" y="-486.57" font-family="Times New Roman,serif" font-size="14.00">PVP</text>
</g>
<!-- RIR&#45;&gt;PVP -->
<g id="edge19" class="edge">
<title>RIR&#45;&gt;PVP</title>
<path fill="none" stroke="gray" stroke-width="0.2" d="M245.18,-785.11C287.52,-673.02 353.2,-509.5 353.2,-509.5 353.2,-509.5 353.39,-509.26 353.74,-508.83"/>
<polygon fill="gray" stroke="gray" stroke-width="0.2" points="356.33,-511.19 360.22,-501.34 351.03,-506.62 356.33,-511.19"/>
</g>
<!-- RIA -->
<g id="node21" class="node">
<title>RIA</title>
<ellipse fill="none" stroke="black" cx="385.3" cy="-413" rx="27" ry="18"/>
<text text-anchor="middle" x="385.3" y="-407.57" font-family="Times New Roman,serif" font-size="14.00">RIA</text>
</g>
<!-- RIR&#45;&gt;RIA -->
<g id="edge20" class="edge">
<title>RIR&#45;&gt;RIA</title>
<path fill="none" stroke="black" stroke-width="5" d="M239.83,-782.97C275.99,-666.41 334.21,-488.42 354.5,-436.08"/>
<polygon fill="black" stroke="black" stroke-width="5" points="358.42,-438.03 358.51,-427.11 350.44,-434.46 358.42,-438.03"/>
</g>
<!-- RIG -->
<g id="node22" class="node">
<title>RIG</title>
<ellipse fill="none" stroke="black" cx="385.3" cy="-334" rx="27.11" ry="18"/>
<text text-anchor="middle" x="385.3" y="-328.57" font-family="Times New Roman,serif" font-size="14.00">RIG</text>
</g>
<!-- RIR&#45;&gt;RIG -->
<g id="edge21" class="edge">
<title>RIR&#45;&gt;RIG</title>
<path fill="none" stroke="red" stroke-width="2" d="M235.77,-781.99C272.4,-642.85 336.93,-410.08 356.15,-354.41"/>
<polygon fill="red" stroke="red" stroke-width="2" points="359.37,-355.8 359.91,-345.22 352.89,-353.16 359.37,-355.8"/>
</g>
<!-- RIM -->
<g id="node23" class="node">
<title>RIM</title>
<ellipse fill="none" stroke="black" cx="385.3" cy="-255" rx="28.11" ry="18"/>
<text text-anchor="middle" x="385.3" y="-249.57" font-family="Times New Roman,serif" font-size="14.00">RIM</text>
</g>
<!-- RIR&#45;&gt;RIM -->
<g id="edge22" class="edge">
<title>RIR&#45;&gt;RIM</title>
<path fill="none" stroke="gray" stroke-width="0.2" d="M235.52,-782.01C276.59,-611.69 353.2,-294 353.2,-294 353.2,-294 358.85,-286.91 365.34,-278.78"/>
<polygon fill="gray" stroke="gray" stroke-width="0.2" points="367.97,-281.1 371.47,-271.1 362.49,-276.74 367.97,-281.1"/>
</g>
<!-- RMG -->
<g id="node24" class="node">
<title>RMG</title>
<ellipse fill="none" stroke="black" cx="385.3" cy="-176" rx="32.1" ry="18"/>
<text text-anchor="middle" x="385.3" y="-170.57" font-family="Times New Roman,serif" font-size="14.00">RMG</text>
</g>
<!-- RIR&#45;&gt;RMG -->
<g id="edge23" class="edge">
<title>RIR&#45;&gt;RMG</title>
<path fill="none" stroke="gray" stroke-width="0.2" d="M230.31,-780.59C266.39,-602.26 339.49,-258.02 355.9,-196.29"/>
<polygon fill="gray" stroke="gray" stroke-width="0.2" points="359.13,-197.67 358.82,-187.07 352.46,-195.55 359.13,-197.67"/>
</g>
<!-- SMB -->
<g id="node25" class="node">
<title>SMB</title>
<ellipse fill="none" stroke="black" cx="385.3" cy="-97" rx="30.11" ry="18"/>
<text text-anchor="middle" x="385.3" y="-91.58" font-family="Times New Roman,serif" font-size="14.00">SMB</text>
</g>
<!-- RIR&#45;&gt;SMB -->
<g id="edge24" class="edge">
<title>RIR&#45;&gt;SMB</title>
<path fill="none" stroke="gray" stroke-width="0.2" d="M230.39,-780.99C269.81,-573.98 353.2,-136 353.2,-136 353.2,-136 358.58,-129.25 364.87,-121.37"/>
<polygon fill="gray" stroke="gray" stroke-width="0.2" points="367.61,-123.55 371.11,-113.55 362.13,-119.19 367.61,-123.55"/>
</g>
<!-- URX -->
<g id="node26" class="node">
<title>URX</title>
<ellipse fill="none" stroke="black" cx="385.3" cy="-18" rx="30.11" ry="18"/>
<text text-anchor="middle" x="385.3" y="-12.57" font-family="Times New Roman,serif" font-size="14.00">URX</text>
</g>
<!-- RIR&#45;&gt;URX -->
<g id="edge25" class="edge">
<title>RIR&#45;&gt;URX</title>
<path fill="none" stroke="gray" stroke-width="5" d="M226.75,-780C260.79,-572.91 336.67,-131.55 355.76,-43.26"/>
<polygon fill="gray" stroke="gray" stroke-width="5" points="359.93,-44.61 358.22,-33.83 351.47,-42.4 359.93,-44.61"/>
</g>
<!-- ADF&#45;&gt;RIR -->
<g id="edge26" class="edge">
<title>ADF&#45;&gt;RIR</title>
<path fill="none" stroke="black" stroke-width="5" d="M360.1,-1825.55C356.09,-1821.12 353.2,-1817.5 353.2,-1817.5 353.2,-1817.5 265.96,-1262.9 227.76,-1009.86"/>
<polygon fill="black" stroke="black" stroke-width="5" points="232.12,-1009.4 226.3,-1000.17 223.46,-1010.71 232.12,-1009.4"/>
</g>
<!-- AIY&#45;&gt;RIR -->
<g id="edge27" class="edge">
<title>AIY&#45;&gt;RIR</title>
<path fill="none" stroke="gray" stroke-width="0.2" d="M361.05,-1510.58C356.55,-1505.7 353.2,-1501.5 353.2,-1501.5 353.2,-1501.5 275.92,-1181.04 234.99,-1002.73"/>
<polygon fill="gray" stroke="gray" stroke-width="0.2" points="238.42,-1002.03 232.77,-993.07 231.59,-1003.6 238.42,-1002.03"/>
</g>
<!-- AIZ&#45;&gt;RIR -->
<g id="edge28" class="edge">
<title>AIZ&#45;&gt;RIR</title>
<path fill="none" stroke="blue" stroke-width="5" d="M361.05,-1431.58C356.55,-1426.7 353.2,-1422.5 353.2,-1422.5 353.2,-1422.5 281.74,-1165.63 239.85,-1007.47"/>
<polygon fill="blue" stroke="blue" stroke-width="5" points="244.14,-1006.59 237.36,-998.04 235.68,-1008.83 244.14,-1006.59"/>
</g>
<!-- AQR&#45;&gt;RIR -->
<g id="edge29" class="edge">
<title>AQR&#45;&gt;RIR</title>
<path fill="none" stroke="gray" stroke-width="5" d="M359.5,-1350.87C355.8,-1346.76 353.2,-1343.5 353.2,-1343.5 353.2,-1343.5 286.92,-1141.89 244.61,-1006.39"/>
<polygon fill="gray" stroke="gray" stroke-width="5" points="248.84,-1005.24 241.69,-996.99 240.48,-1007.84 248.84,-1005.24"/>
</g>
<!-- ASH&#45;&gt;RIR -->
<g id="edge30" class="edge">
<title>ASH&#45;&gt;RIR</title>
<path fill="none" stroke="gray" stroke-width="nan" d="M360.1,-1272.55C356.09,-1268.12 353.2,-1264.5 353.2,-1264.5 353.2,-1264.5 287.52,-1100.98 245.18,-988.89"/>
<polygon fill="gray" stroke="gray" stroke-width="nan" points="nan,-nan nan,-nan nan,-nan nan,-nan"/>
</g>
<!-- AUA&#45;&gt;RIR -->
<g id="edge31" class="edge">
<title>AUA&#45;&gt;RIR</title>
<path fill="none" stroke="gray" stroke-width="0.2" d="M359.8,-1193.21C355.94,-1188.94 353.2,-1185.5 353.2,-1185.5 353.2,-1185.5 299.12,-1080.75 257.48,-995.08"/>
<polygon fill="gray" stroke="gray" stroke-width="0.2" points="260.75,-993.8 253.24,-986.33 254.45,-996.86 260.75,-993.8"/>
</g>
<!-- AVB&#45;&gt;RIR -->
<g id="edge32" class="edge">
<title>AVB&#45;&gt;RIR</title>
<path fill="none" stroke="gray" stroke-width="0.2" d="M359.8,-1114.21C355.94,-1109.94 353.2,-1106.5 353.2,-1106.5 353.2,-1106.5 309.64,-1046.18 270.6,-988.51"/>
<polygon fill="gray" stroke="gray" stroke-width="0.2" points="273.54,-986.61 265.05,-980.28 267.74,-990.53 273.54,-986.61"/>
</g>
<!-- AVH&#45;&gt;RIR -->
<g id="edge33" class="edge">
<title>AVH&#45;&gt;RIR</title>
<path fill="none" stroke="red" stroke-width="5" d="M354.79,-965.07C343.5,-961.67 329.88,-956.6 315.56,-950.61"/>
<polygon fill="red" stroke="red" stroke-width="5" points="317.72,-946.78 306.8,-946.82 314.24,-954.81 317.72,-946.78"/>
</g>
<!-- AWB&#45;&gt;RIR -->
<g id="edge34" class="edge">
<title>AWB&#45;&gt;RIR</title>
<path fill="none" stroke="gray" stroke-width="5" d="M360.07,-898.58C352.13,-900.03 342.7,-901.13 332.49,-901.89"/>
<polygon fill="gray" stroke="gray" stroke-width="5" points="332.47,-897.51 322.72,-902.43 332.95,-906.24 332.47,-897.51"/>
</g>
<!-- BAG&#45;&gt;RIR -->
<g id="edge35" class="edge">
<title>BAG&#45;&gt;RIR</title>
<path fill="none" stroke="gray" stroke-width="0.2" d="M369.9,-823.92C358.41,-832.29 341.13,-842.17 322.13,-851.74"/>
<polygon fill="gray" stroke="gray" stroke-width="0.2" points="320.68,-848.55 313.26,-856.11 323.78,-854.83 320.68,-848.55"/>
</g>
<!-- DVA&#45;&gt;RIR -->
<g id="edge36" class="edge">
<title>DVA&#45;&gt;RIR</title>
<path fill="none" stroke="red" stroke-width="2" d="M374.44,-745.92C360.7,-763.28 334.32,-789.91 306.66,-815.5"/>
<polygon fill="red" stroke="red" stroke-width="2" points="304.49,-812.74 299.48,-822.08 309.22,-817.9 304.49,-812.74"/>
</g>
<!-- HSN&#45;&gt;RIR -->
<g id="edge37" class="edge">
<title>HSN&#45;&gt;RIR</title>
<path fill="none" stroke="gray" stroke-width="0.2" d="M379.71,-667.9C371.06,-688.1 353.2,-710.5 353.2,-710.5 353.2,-710.5 321.51,-754.38 287.97,-798.58"/>
<polygon fill="gray" stroke="gray" stroke-width="0.2" points="285.37,-796.22 282.09,-806.3 290.94,-800.46 285.37,-796.22"/>
</g>
<!-- OLQ&#45;&gt;RIR -->
<g id="edge38" class="edge">
<title>OLQ&#45;&gt;RIR</title>
<path fill="none" stroke="gray" stroke-width="0.2" d="M379.71,-588.9C371.06,-609.1 353.2,-631.5 353.2,-631.5 353.2,-631.5 310.25,-714.69 271.43,-786.36"/>
<polygon fill="gray" stroke="gray" stroke-width="0.2" points="268.56,-784.31 266.86,-794.77 274.71,-787.65 268.56,-784.31"/>
</g>
<!-- PVP&#45;&gt;RIR -->
<g id="edge39" class="edge">
<title>PVP&#45;&gt;RIR</title>
<path fill="none" stroke="black" stroke-width="2" d="M379.71,-509.9C371.06,-530.1 353.2,-552.5 353.2,-552.5 353.2,-552.5 302.1,-679.71 261,-777.45"/>
<polygon fill="black" stroke="black" stroke-width="2" points="257.87,-775.85 257.21,-786.43 264.32,-778.57 257.87,-775.85"/>
</g>
<!-- RIA&#45;&gt;RIR -->
<g id="edge40" class="edge">
<title>RIA&#45;&gt;RIR</title>
<path fill="none" stroke="gray" stroke-width="2" d="M379.71,-430.9C371.06,-451.1 353.2,-473.5 353.2,-473.5 353.2,-473.5 294.75,-651.32 252.58,-773.96"/>
<polygon fill="gray" stroke="gray" stroke-width="2" points="249.36,-772.56 249.42,-783.15 255.98,-774.84 249.36,-772.56"/>
</g>
<!-- RIG&#45;&gt;RIR -->
<g id="edge41" class="edge">
<title>RIG&#45;&gt;RIR</title>
<path fill="none" stroke="red" stroke-width="5" d="M379.71,-351.9C371.06,-372.1 353.2,-394.5 353.2,-394.5 353.2,-394.5 289.62,-623.06 247.24,-768.98"/>
<polygon fill="red" stroke="red" stroke-width="5" points="243.17,-767.33 244.57,-778.16 251.57,-769.78 243.17,-767.33"/>
</g>
<!-- RMG&#45;&gt;RIR -->
<g id="edge42" class="edge">
<title>RMG&#45;&gt;RIR</title>
<path fill="none" stroke="gray" stroke-width="0.2" d="M379.58,-194.21C370.88,-214.33 353.2,-236.5 353.2,-236.5 353.2,-236.5 279.07,-584.89 237.55,-771.95"/>
<polygon fill="gray" stroke="gray" stroke-width="0.2" points="234.17,-771.01 235.42,-781.53 241.01,-772.53 234.17,-771.01"/>
</g>
<!-- URX&#45;&gt;RIR -->
<g id="edge43" class="edge">
<title>URX&#45;&gt;RIR</title>
<path fill="none" stroke="black" stroke-width="5" d="M379.71,-35.9C371.06,-56.1 353.2,-78.5 353.2,-78.5 353.2,-78.5 273.87,-538.95 233.38,-765.06"/>
<polygon fill="black" stroke="black" stroke-width="5" points="229.1,-764.17 231.64,-774.78 237.71,-765.71 229.1,-764.17"/>
</g>
<!-- ADL -->
<g id="node27" class="node">
<title>ADL</title>
<ellipse fill="none" stroke="black" cx="32.6" cy="-1085" rx="29.11" ry="18"/>
<text text-anchor="middle" x="32.6" y="-1079.58" font-family="Times New Roman,serif" font-size="14.00">ADL</text>
</g>
<!-- ADL&#45;&gt;RIR -->
<g id="edge44" class="edge">
<title>ADL&#45;&gt;RIR</title>
<path fill="none" stroke="gray" stroke-width="0.2" d="M47.59,-1069.13C65.8,-1048.48 99.02,-1010.81 130.54,-975.06"/>
<polygon fill="gray" stroke="gray" stroke-width="0.2" points="133.05,-977.52 137.04,-967.7 127.8,-972.89 133.05,-977.52"/>
</g>
<!-- AIA -->
<g id="node28" class="node">
<title>AIA</title>
<ellipse fill="none" stroke="black" cx="32.6" cy="-1006" rx="27" ry="18"/>
<text text-anchor="middle" x="32.6" y="-1000.58" font-family="Times New Roman,serif" font-size="14.00">AIA</text>
</g>
<!-- AIA&#45;&gt;RIR -->
<g id="edge45" class="edge">
<title>AIA&#45;&gt;RIR</title>
<path fill="none" stroke="gray" stroke-width="0.2" d="M52.29,-993.26C66.94,-983.28 88.56,-968.55 111.06,-953.21"/>
<polygon fill="gray" stroke="gray" stroke-width="0.2" points="112.83,-956.23 119.12,-947.71 108.89,-950.45 112.83,-956.23"/>
</g>
<!-- ASE -->
<g id="node29" class="node">
<title>ASE</title>
<ellipse fill="none" stroke="black" cx="32.6" cy="-927" rx="28.11" ry="18"/>
<text text-anchor="middle" x="32.6" y="-921.58" font-family="Times New Roman,serif" font-size="14.00">ASE</text>
</g>
<!-- ASE&#45;&gt;RIR -->
<g id="edge46" class="edge">
<title>ASE&#45;&gt;RIR</title>
<path fill="none" stroke="gray" stroke-width="0.2" d="M59.36,-921.1C69.12,-918.86 80.95,-916.15 93.64,-913.25"/>
<polygon fill="gray" stroke="gray" stroke-width="0.2" points="94.23,-916.7 103.2,-911.06 92.67,-909.88 94.23,-916.7"/>
</g>
<!-- AWA -->
<g id="node30" class="node">
<title>AWA</title>
<ellipse fill="none" stroke="black" cx="32.6" cy="-848" rx="32.6" ry="18"/>
<text text-anchor="middle" x="32.6" y="-842.58" font-family="Times New Roman,serif" font-size="14.00">AWA</text>
</g>
<!-- AWA&#45;&gt;RIR -->
<g id="edge47" class="edge">
<title>AWA&#45;&gt;RIR</title>
<path fill="none" stroke="gray" stroke-width="0.2" d="M63.22,-854.62C72.17,-856.62 82.6,-858.94 93.66,-861.42"/>
<polygon fill="gray" stroke="gray" stroke-width="0.2" points="92.72,-864.79 103.24,-863.56 94.25,-857.96 92.72,-864.79"/>
</g>
<!-- RIH -->
<g id="node31" class="node">
<title>RIH</title>
<ellipse fill="none" stroke="black" cx="32.6" cy="-769" rx="27" ry="18"/>
<text text-anchor="middle" x="32.6" y="-763.58" font-family="Times New Roman,serif" font-size="14.00">RIH</text>
</g>
<!-- RIH&#45;&gt;RIR -->
<g id="edge48" class="edge">
<title>RIH&#45;&gt;RIR</title>
<path fill="none" stroke="gray" stroke-width="2" d="M52.29,-781.63C66.42,-791.18 87.05,-805.12 108.69,-819.75"/>
<polygon fill="gray" stroke="gray" stroke-width="2" points="106.62,-822.57 116.87,-825.27 110.54,-816.77 106.62,-822.57"/>
</g>
<!-- RIP -->
<g id="node32" class="node">
<title>RIP</title>
<ellipse fill="none" stroke="black" cx="32.6" cy="-690" rx="27" ry="18"/>
<text text-anchor="middle" x="32.6" y="-684.58" font-family="Times New Roman,serif" font-size="14.00">RIP</text>
</g>
<!-- RIP&#45;&gt;RIR -->
<g id="edge49" class="edge">
<title>RIP&#45;&gt;RIR</title>
<path fill="none" stroke="blue" stroke-width="2" d="M47.3,-705.46C65.09,-725.52 97.54,-762.14 128.67,-797.27"/>
<polygon fill="blue" stroke="blue" stroke-width="2" points="125.71,-799.21 134.96,-804.37 130.95,-794.56 125.71,-799.21"/>
</g>
</g>
</svg>
