<?xml version="1.0" encoding="UTF-8" standalone="no"?>
<!DOCTYPE svg PUBLIC "-//W3C//DTD SVG 1.1//EN"
 "http://www.w3.org/Graphics/SVG/1.1/DTD/svg11.dtd">
<!-- Generated by graphviz version 11.0.0 (20240428.1522)
 -->
<!-- Pages: 1 -->
<svg width="423pt" height="1387pt"
 viewBox="0.00 0.00 423.41 1387.00" xmlns="http://www.w3.org/2000/svg" xmlns:xlink="http://www.w3.org/1999/xlink">
<g id="graph0" class="graph" transform="scale(1 1) rotate(0) translate(4 1383)">
<polygon fill="white" stroke="none" points="-4,4 -4,-1383 419.41,-1383 419.41,4 -4,4"/>
<!-- RIS -->
<g id="node1" class="node">
<title>RIS</title>
<ellipse fill="none" stroke="black" cx="208.2" cy="-650" rx="108" ry="108"/>
<text text-anchor="middle" x="208.2" y="-631" font-family="Times New Roman,serif" font-size="50.00">RIS</text>
</g>
<!-- RIS&#45;&gt;RIS -->
<g id="edge1" class="edge">
<title>RIS&#45;&gt;RIS</title>
<path fill="none" stroke="gray" stroke-width="0.2" d="M175.59,-753.39C177.53,-780.51 188.4,-801 208.2,-801 225.46,-801 235.93,-785.45 239.62,-763.52"/>
<polygon fill="gray" stroke="gray" stroke-width="0.2" points="243.09,-764.04 240.78,-753.69 236.13,-763.22 243.09,-764.04"/>
</g>
<!-- AIB -->
<g id="node2" class="node">
<title>AIB</title>
<ellipse fill="none" stroke="black" cx="383.81" cy="-1361" rx="27" ry="18"/>
<text text-anchor="middle" x="383.81" y="-1355.58" font-family="Times New Roman,serif" font-size="14.00">AIB</text>
</g>
<!-- RIS&#45;&gt;AIB -->
<g id="edge2" class="edge">
<title>RIS&#45;&gt;AIB</title>
<path fill="none" stroke="gray" stroke-width="2" d="M231.71,-755.74C271.98,-944.98 352.2,-1322 352.2,-1322 352.2,-1322 356.78,-1327.83 362.39,-1334.99"/>
<polygon fill="gray" stroke="gray" stroke-width="2" points="359.56,-1337.05 368.49,-1342.76 365.07,-1332.73 359.56,-1337.05"/>
</g>
<!-- ALM -->
<g id="node3" class="node">
<title>ALM</title>
<ellipse fill="none" stroke="black" cx="383.81" cy="-1282" rx="30.61" ry="18"/>
<text text-anchor="middle" x="383.81" y="-1276.58" font-family="Times New Roman,serif" font-size="14.00">ALM</text>
</g>
<!-- RIS&#45;&gt;ALM -->
<g id="edge3" class="edge">
<title>RIS&#45;&gt;ALM</title>
<path fill="none" stroke="gray" stroke-width="0.2" d="M237.63,-754.19C279.33,-919.3 352.2,-1221.5 352.2,-1221.5 352.2,-1221.5 364.95,-1237.74 373.99,-1255.04"/>
<polygon fill="gray" stroke="gray" stroke-width="0.2" points="370.71,-1256.3 378.16,-1263.83 377.03,-1253.29 370.71,-1256.3"/>
</g>
<!-- AVE -->
<g id="node4" class="node">
<title>AVE</title>
<ellipse fill="none" stroke="black" cx="383.81" cy="-1203" rx="29.11" ry="18"/>
<text text-anchor="middle" x="383.81" y="-1197.58" font-family="Times New Roman,serif" font-size="14.00">AVE</text>
</g>
<!-- RIS&#45;&gt;AVE -->
<g id="edge4" class="edge">
<title>RIS&#45;&gt;AVE</title>
<path fill="none" stroke="black" stroke-width="5" d="M238.14,-754.02C279.93,-904.21 352.2,-1164 352.2,-1164 352.2,-1164 355.7,-1168.46 360.33,-1174.36"/>
<polygon fill="black" stroke="black" stroke-width="5" points="356.54,-1176.61 366.16,-1181.78 363.42,-1171.21 356.54,-1176.61"/>
</g>
<!-- AVK -->
<g id="node5" class="node">
<title>AVK</title>
<ellipse fill="none" stroke="black" cx="383.81" cy="-1124" rx="30.11" ry="18"/>
<text text-anchor="middle" x="383.81" y="-1118.58" font-family="Times New Roman,serif" font-size="14.00">AVK</text>
</g>
<!-- RIS&#45;&gt;AVK -->
<g id="edge5" class="edge">
<title>RIS&#45;&gt;AVK</title>
<path fill="none" stroke="gray" stroke-width="5" d="M247.43,-750.99C289.79,-873.64 352.2,-1063.5 352.2,-1063.5 352.2,-1063.5 362.51,-1076.63 371.16,-1091.85"/>
<polygon fill="gray" stroke="gray" stroke-width="5" points="367.11,-1093.54 375.5,-1100.53 374.93,-1089.62 367.11,-1093.54"/>
</g>
<!-- AVL -->
<g id="node6" class="node">
<title>AVL</title>
<ellipse fill="none" stroke="black" cx="383.81" cy="-1045" rx="29.11" ry="18"/>
<text text-anchor="middle" x="383.81" y="-1039.58" font-family="Times New Roman,serif" font-size="14.00">AVL</text>
</g>
<!-- RIS&#45;&gt;AVL -->
<g id="edge6" class="edge">
<title>RIS&#45;&gt;AVL</title>
<path fill="none" stroke="gray" stroke-width="2" d="M255.04,-747.79C296.87,-846.74 352.2,-984.5 352.2,-984.5 352.2,-984.5 363.81,-999.29 372.72,-1015.67"/>
<polygon fill="gray" stroke="gray" stroke-width="2" points="369.44,-1016.92 376.97,-1024.38 375.73,-1013.86 369.44,-1016.92"/>
</g>
<!-- CEP -->
<g id="node7" class="node">
<title>CEP</title>
<ellipse fill="none" stroke="black" cx="383.81" cy="-966" rx="28.11" ry="18"/>
<text text-anchor="middle" x="383.81" y="-960.58" font-family="Times New Roman,serif" font-size="14.00">CEP</text>
</g>
<!-- RIS&#45;&gt;CEP -->
<g id="edge7" class="edge">
<title>RIS&#45;&gt;CEP</title>
<path fill="none" stroke="black" stroke-width="5" d="M265.72,-741.97C305.69,-815.4 352.2,-905.5 352.2,-905.5 352.2,-905.5 362.51,-918.63 371.16,-933.85"/>
<polygon fill="black" stroke="black" stroke-width="5" points="367.11,-935.54 375.5,-942.53 374.93,-931.62 367.11,-935.54"/>
</g>
<!-- OLL -->
<g id="node8" class="node">
<title>OLL</title>
<ellipse fill="none" stroke="black" cx="383.81" cy="-887" rx="28.61" ry="18"/>
<text text-anchor="middle" x="383.81" y="-881.58" font-family="Times New Roman,serif" font-size="14.00">OLL</text>
</g>
<!-- RIS&#45;&gt;OLL -->
<g id="edge8" class="edge">
<title>RIS&#45;&gt;OLL</title>
<path fill="none" stroke="gray" stroke-width="0.2" d="M280.91,-730.46C316.59,-777.19 352.2,-826.5 352.2,-826.5 352.2,-826.5 364.95,-842.74 373.99,-860.04"/>
<polygon fill="gray" stroke="gray" stroke-width="0.2" points="370.71,-861.3 378.16,-868.83 377.03,-858.29 370.71,-861.3"/>
</g>
<!-- OLQ -->
<g id="node9" class="node">
<title>OLQ</title>
<ellipse fill="none" stroke="black" cx="383.81" cy="-808" rx="30.11" ry="18"/>
<text text-anchor="middle" x="383.81" y="-802.58" font-family="Times New Roman,serif" font-size="14.00">OLQ</text>
</g>
<!-- RIS&#45;&gt;OLQ -->
<g id="edge9" class="edge">
<title>RIS&#45;&gt;OLQ</title>
<path fill="none" stroke="gray" stroke-width="0.2" d="M288.89,-722.53C314.47,-745.81 340.89,-769.85 359.16,-786.48"/>
<polygon fill="gray" stroke="gray" stroke-width="0.2" points="356.49,-788.78 366.24,-792.92 361.2,-783.6 356.49,-788.78"/>
</g>
<!-- PVC -->
<g id="node10" class="node">
<title>PVC</title>
<ellipse fill="none" stroke="black" cx="383.81" cy="-729" rx="29.11" ry="18"/>
<text text-anchor="middle" x="383.81" y="-723.58" font-family="Times New Roman,serif" font-size="14.00">PVC</text>
</g>
<!-- RIS&#45;&gt;PVC -->
<g id="edge10" class="edge">
<title>RIS&#45;&gt;PVC</title>
<path fill="none" stroke="gray" stroke-width="0.2" d="M311.95,-680.87C330.27,-689.78 347.61,-699.22 360.55,-707.65"/>
<polygon fill="gray" stroke="gray" stroke-width="0.2" points="358.29,-710.35 368.51,-713.14 362.26,-704.58 358.29,-710.35"/>
</g>
<!-- RIB -->
<g id="node11" class="node">
<title>RIB</title>
<ellipse fill="none" stroke="black" cx="383.81" cy="-650" rx="27" ry="18"/>
<text text-anchor="middle" x="383.81" y="-644.58" font-family="Times New Roman,serif" font-size="14.00">RIB</text>
</g>
<!-- RIS&#45;&gt;RIB -->
<g id="edge11" class="edge">
<title>RIS&#45;&gt;RIB</title>
<path fill="none" stroke="black" stroke-width="5" d="M315.19,-634.23C326.17,-634.64 336.72,-635.42 346.08,-636.55"/>
<polygon fill="black" stroke="black" stroke-width="5" points="345.25,-640.84 355.81,-638.09 346.62,-632.2 345.25,-640.84"/>
</g>
<!-- RIC -->
<g id="node12" class="node">
<title>RIC</title>
<ellipse fill="none" stroke="black" cx="383.81" cy="-571" rx="27" ry="18"/>
<text text-anchor="middle" x="383.81" y="-565.58" font-family="Times New Roman,serif" font-size="14.00">RIC</text>
</g>
<!-- RIS&#45;&gt;RIC -->
<g id="edge12" class="edge">
<title>RIS&#45;&gt;RIC</title>
<path fill="none" stroke="gray" stroke-width="2" d="M300.07,-592.54C315.58,-585.6 330.91,-579.43 344.08,-574.93"/>
<polygon fill="gray" stroke="gray" stroke-width="2" points="345.1,-578.29 353.58,-571.94 342.99,-571.61 345.1,-578.29"/>
</g>
<!-- RIM -->
<g id="node13" class="node">
<title>RIM</title>
<ellipse fill="none" stroke="black" cx="383.81" cy="-492" rx="28.11" ry="18"/>
<text text-anchor="middle" x="383.81" y="-486.57" font-family="Times New Roman,serif" font-size="14.00">RIM</text>
</g>
<!-- RIS&#45;&gt;RIM -->
<g id="edge13" class="edge">
<title>RIS&#45;&gt;RIM</title>
<path fill="none" stroke="gray" stroke-width="5" d="M280.57,-569.16C303.4,-547.69 327.71,-526.41 346.9,-511.33"/>
<polygon fill="gray" stroke="gray" stroke-width="5" points="349.26,-515.03 354.6,-505.5 343.98,-508.05 349.26,-515.03"/>
</g>
<!-- RMD -->
<g id="node14" class="node">
<title>RMD</title>
<ellipse fill="none" stroke="black" cx="383.81" cy="-413" rx="31.6" ry="18"/>
<text text-anchor="middle" x="383.81" y="-407.57" font-family="Times New Roman,serif" font-size="14.00">RMD</text>
</g>
<!-- RIS&#45;&gt;RMD -->
<g id="edge14" class="edge">
<title>RIS&#45;&gt;RMD</title>
<path fill="none" stroke="black" stroke-width="5" d="M264.08,-557.05C295.59,-510.4 331.65,-460.01 348.87,-436.59"/>
<polygon fill="black" stroke="black" stroke-width="5" points="352.13,-439.53 354.65,-428.91 345.14,-434.27 352.13,-439.53"/>
</g>
<!-- RME -->
<g id="node15" class="node">
<title>RME</title>
<ellipse fill="none" stroke="black" cx="383.81" cy="-334" rx="30.61" ry="18"/>
<text text-anchor="middle" x="383.81" y="-328.57" font-family="Times New Roman,serif" font-size="14.00">RME</text>
</g>
<!-- RIS&#45;&gt;RME -->
<g id="edge15" class="edge">
<title>RIS&#45;&gt;RME</title>
<path fill="none" stroke="gray" stroke-width="0.2" d="M252.11,-551.24C288.47,-476.27 336.65,-382.63 353.32,-353.33"/>
<polygon fill="gray" stroke="gray" stroke-width="0.2" points="356.28,-355.19 358.54,-344.84 350.32,-351.52 356.28,-355.19"/>
</g>
<!-- RMF -->
<g id="node16" class="node">
<title>RMF</title>
<ellipse fill="none" stroke="black" cx="383.81" cy="-255" rx="30.61" ry="18"/>
<text text-anchor="middle" x="383.81" y="-249.57" font-family="Times New Roman,serif" font-size="14.00">RMF</text>
</g>
<!-- RIS&#45;&gt;RMF -->
<g id="edge16" class="edge">
<title>RIS&#45;&gt;RMF</title>
<path fill="none" stroke="gray" stroke-width="0.2" d="M244.37,-547.87C281.75,-449.19 337.17,-310.91 354.11,-274.41"/>
<polygon fill="gray" stroke="gray" stroke-width="0.2" points="357.06,-276.34 358.55,-265.85 350.84,-273.11 357.06,-276.34"/>
</g>
<!-- RMH -->
<g id="node17" class="node">
<title>RMH</title>
<ellipse fill="none" stroke="black" cx="383.81" cy="-176" rx="31.6" ry="18"/>
<text text-anchor="middle" x="383.81" y="-170.57" font-family="Times New Roman,serif" font-size="14.00">RMH</text>
</g>
<!-- RIS&#45;&gt;RMH -->
<g id="edge17" class="edge">
<title>RIS&#45;&gt;RMH</title>
<path fill="none" stroke="gray" stroke-width="0.2" d="M243,-547.42C285.28,-419.1 352.2,-216 352.2,-216 352.2,-216 357.76,-208.73 364.15,-200.39"/>
<polygon fill="gray" stroke="gray" stroke-width="0.2" points="366.88,-202.58 370.18,-192.51 361.32,-198.33 366.88,-202.58"/>
</g>
<!-- SMD -->
<g id="node18" class="node">
<title>SMD</title>
<ellipse fill="none" stroke="black" cx="383.81" cy="-97" rx="30.61" ry="18"/>
<text text-anchor="middle" x="383.81" y="-91.58" font-family="Times New Roman,serif" font-size="14.00">SMD</text>
</g>
<!-- RIS&#45;&gt;SMD -->
<g id="edge18" class="edge">
<title>RIS&#45;&gt;SMD</title>
<path fill="none" stroke="black" stroke-width="5" d="M234.77,-544.99C270.68,-408.6 333.4,-182.23 352.86,-122.05"/>
<polygon fill="black" stroke="black" stroke-width="5" points="356.85,-123.87 356.23,-112.98 348.65,-120.83 356.85,-123.87"/>
</g>
<!-- URY -->
<g id="node19" class="node">
<title>URY</title>
<ellipse fill="none" stroke="black" cx="383.81" cy="-18" rx="30.11" ry="18"/>
<text text-anchor="middle" x="383.81" y="-12.57" font-family="Times New Roman,serif" font-size="14.00">URY</text>
</g>
<!-- RIS&#45;&gt;URY -->
<g id="edge19" class="edge">
<title>RIS&#45;&gt;URY</title>
<path fill="none" stroke="black" stroke-width="5" d="M231.71,-544.23C267.26,-388.82 333.95,-111.32 353.35,-43.35"/>
<polygon fill="black" stroke="black" stroke-width="5" points="357.44,-44.92 356.43,-34.05 349.14,-42.16 357.44,-44.92"/>
</g>
<!-- ALM&#45;&gt;RIS -->
<g id="edge20" class="edge">
<title>ALM&#45;&gt;RIS</title>
<path fill="none" stroke="gray" stroke-width="0.2" d="M358.4,-1271.87C354.76,-1267.76 352.2,-1264.5 352.2,-1264.5 352.2,-1264.5 274.93,-944.04 233.99,-765.73"/>
<polygon fill="gray" stroke="gray" stroke-width="0.2" points="237.42,-765.03 231.77,-756.07 230.6,-766.6 237.42,-765.03"/>
</g>
<!-- AVK&#45;&gt;RIS -->
<g id="edge21" class="edge">
<title>AVK&#45;&gt;RIS</title>
<path fill="none" stroke="gray" stroke-width="5" d="M358.4,-1113.87C354.76,-1109.76 352.2,-1106.5 352.2,-1106.5 352.2,-1106.5 285.93,-904.89 243.61,-769.39"/>
<polygon fill="gray" stroke="gray" stroke-width="5" points="247.84,-768.24 240.69,-759.99 239.48,-770.84 247.84,-768.24"/>
</g>
<!-- AVL&#45;&gt;RIS -->
<g id="edge22" class="edge">
<title>AVL&#45;&gt;RIS</title>
<path fill="none" stroke="red" stroke-width="0.2" d="M358.69,-1035.21C354.9,-1030.94 352.2,-1027.5 352.2,-1027.5 352.2,-1027.5 290.06,-872.8 247.71,-761.2"/>
<polygon fill="red" stroke="red" stroke-width="0.2" points="251.11,-760.29 244.29,-752.18 244.56,-762.77 251.11,-760.29"/>
</g>
<!-- CEP&#45;&gt;RIS -->
<g id="edge23" class="edge">
<title>CEP&#45;&gt;RIS</title>
<path fill="none" stroke="black" stroke-width="2" d="M359.3,-956.89C355.19,-952.31 352.2,-948.5 352.2,-948.5 352.2,-948.5 299.21,-845.85 257.75,-760.68"/>
<polygon fill="black" stroke="black" stroke-width="2" points="260.94,-759.25 253.43,-751.78 254.65,-762.31 260.94,-759.25"/>
</g>
<!-- OLL&#45;&gt;RIS -->
<g id="edge24" class="edge">
<title>OLL&#45;&gt;RIS</title>
<path fill="none" stroke="gray" stroke-width="2" d="M359,-877.55C355.05,-873.12 352.2,-869.5 352.2,-869.5 352.2,-869.5 309.7,-810.65 271.04,-753.64"/>
<polygon fill="gray" stroke="gray" stroke-width="2" points="274.07,-751.87 265.57,-745.54 268.27,-755.78 274.07,-751.87"/>
</g>
<!-- PVC&#45;&gt;RIS -->
<g id="edge25" class="edge">
<title>PVC&#45;&gt;RIS</title>
<path fill="none" stroke="gray" stroke-width="0.2" d="M354.24,-728.33C341.53,-724.54 325.72,-718.56 309.27,-711.49"/>
<polygon fill="gray" stroke="gray" stroke-width="0.2" points="310.91,-708.39 300.35,-707.58 308.1,-714.8 310.91,-708.39"/>
</g>
<!-- RIB&#45;&gt;RIS -->
<g id="edge26" class="edge">
<title>RIB&#45;&gt;RIS</title>
<path fill="none" stroke="red" stroke-width="5" d="M361.97,-660.93C353.4,-662.71 342.73,-664.03 331.05,-664.9"/>
<polygon fill="red" stroke="red" stroke-width="5" points="331.16,-660.51 321.42,-665.43 331.64,-669.24 331.16,-660.51"/>
</g>
<!-- RIC&#45;&gt;RIS -->
<g id="edge27" class="edge">
<title>RIC&#45;&gt;RIS</title>
<path fill="none" stroke="gray" stroke-width="0.2" d="M369.02,-586.5C357.63,-594.91 340.29,-604.89 321.15,-614.56"/>
<polygon fill="gray" stroke="gray" stroke-width="0.2" points="319.62,-611.42 312.22,-618.99 322.73,-617.69 319.62,-611.42"/>
</g>
<!-- RIM&#45;&gt;RIS -->
<g id="edge28" class="edge">
<title>RIM&#45;&gt;RIS</title>
<path fill="none" stroke="gray" stroke-width="2" d="M373.01,-508.88C359.35,-526.19 333.14,-552.73 305.63,-578.28"/>
<polygon fill="gray" stroke="gray" stroke-width="2" points="303.48,-575.5 298.49,-584.84 308.22,-580.65 303.48,-575.5"/>
</g>
<!-- RMD&#45;&gt;RIS -->
<g id="edge29" class="edge">
<title>RMD&#45;&gt;RIS</title>
<path fill="none" stroke="gray" stroke-width="0.2" d="M378.29,-431.05C369.78,-451.53 352.2,-474.5 352.2,-474.5 352.2,-474.5 320.77,-517.81 287.37,-561.6"/>
<polygon fill="gray" stroke="gray" stroke-width="0.2" points="284.6,-559.46 281.31,-569.53 290.16,-563.71 284.6,-559.46"/>
</g>
<!-- RME&#45;&gt;RIS -->
<g id="edge30" class="edge">
<title>RME&#45;&gt;RIS</title>
<path fill="none" stroke="gray" stroke-width="0.2" d="M378.29,-352.05C369.78,-372.53 352.2,-395.5 352.2,-395.5 352.2,-395.5 309.26,-478.39 270.43,-549.79"/>
<polygon fill="gray" stroke="gray" stroke-width="0.2" points="267.58,-547.71 265.87,-558.16 273.73,-551.06 267.58,-547.71"/>
</g>
<!-- RMF&#45;&gt;RIS -->
<g id="edge31" class="edge">
<title>RMF&#45;&gt;RIS</title>
<path fill="none" stroke="gray" stroke-width="0.2" d="M378.29,-273.05C369.78,-293.53 352.2,-316.5 352.2,-316.5 352.2,-316.5 300.27,-445.42 259,-543.18"/>
<polygon fill="gray" stroke="gray" stroke-width="0.2" points="255.83,-541.68 255.16,-552.26 262.28,-544.41 255.83,-541.68"/>
</g>
<!-- SMD&#45;&gt;RIS -->
<g id="edge32" class="edge">
<title>SMD&#45;&gt;RIS</title>
<path fill="none" stroke="black" stroke-width="2" d="M378.29,-114.9C369.78,-135.1 352.2,-157.5 352.2,-157.5 352.2,-157.5 287.71,-389.3 245.35,-535.06"/>
<polygon fill="black" stroke="black" stroke-width="2" points="242.11,-533.66 242.68,-544.24 248.83,-535.62 242.11,-533.66"/>
</g>
<!-- URY&#45;&gt;RIS -->
<g id="edge33" class="edge">
<title>URY&#45;&gt;RIS</title>
<path fill="none" stroke="gray" stroke-width="2" d="M378.29,-35.9C369.78,-56.1 352.2,-78.5 352.2,-78.5 352.2,-78.5 282.91,-365.83 240.8,-533.23"/>
<polygon fill="gray" stroke="gray" stroke-width="2" points="237.42,-532.32 238.37,-542.88 244.21,-534.04 237.42,-532.32"/>
</g>
<!-- ASE -->
<g id="node20" class="node">
<title>ASE</title>
<ellipse fill="none" stroke="black" cx="32.1" cy="-1164" rx="28.11" ry="18"/>
<text text-anchor="middle" x="32.1" y="-1158.58" font-family="Times New Roman,serif" font-size="14.00">ASE</text>
</g>
<!-- ASE&#45;&gt;RIS -->
<g id="edge34" class="edge">
<title>ASE&#45;&gt;RIS</title>
<path fill="none" stroke="gray" stroke-width="0.2" d="M45.75,-1148.14C54.36,-1137.34 64.2,-1125 64.2,-1125 64.2,-1125 130.92,-903.39 173.21,-762.91"/>
<polygon fill="gray" stroke="gray" stroke-width="0.2" points="176.47,-764.24 176,-753.65 169.77,-762.22 176.47,-764.24"/>
</g>
<!-- ASJ -->
<g id="node21" class="node">
<title>ASJ</title>
<ellipse fill="none" stroke="black" cx="32.1" cy="-1085" rx="27" ry="18"/>
<text text-anchor="middle" x="32.1" y="-1079.58" font-family="Times New Roman,serif" font-size="14.00">ASJ</text>
</g>
<!-- ASJ&#45;&gt;RIS -->
<g id="edge35" class="edge">
<title>ASJ&#45;&gt;RIS</title>
<path fill="none" stroke="gray" stroke-width="0.2" d="M45.75,-1069.14C54.36,-1058.34 64.2,-1046 64.2,-1046 64.2,-1046 124.78,-878.26 167.08,-761.12"/>
<polygon fill="gray" stroke="gray" stroke-width="0.2" points="170.26,-762.6 170.37,-752.01 163.68,-760.22 170.26,-762.6"/>
</g>
<!-- AVJ -->
<g id="node22" class="node">
<title>AVJ</title>
<ellipse fill="none" stroke="black" cx="32.1" cy="-1006" rx="27.11" ry="18"/>
<text text-anchor="middle" x="32.1" y="-1000.58" font-family="Times New Roman,serif" font-size="14.00">AVJ</text>
</g>
<!-- AVJ&#45;&gt;RIS -->
<g id="edge36" class="edge">
<title>AVJ&#45;&gt;RIS</title>
<path fill="none" stroke="red" stroke-width="0.2" d="M45.75,-990.14C54.36,-979.34 64.2,-967 64.2,-967 64.2,-967 117.23,-849.44 158.71,-757.51"/>
<polygon fill="red" stroke="red" stroke-width="0.2" points="161.89,-758.96 162.81,-748.41 155.51,-756.08 161.89,-758.96"/>
</g>
<!-- AWB -->
<g id="node23" class="node">
<title>AWB</title>
<ellipse fill="none" stroke="black" cx="32.1" cy="-927" rx="32.1" ry="18"/>
<text text-anchor="middle" x="32.1" y="-921.58" font-family="Times New Roman,serif" font-size="14.00">AWB</text>
</g>
<!-- AWB&#45;&gt;RIS -->
<g id="edge37" class="edge">
<title>AWB&#45;&gt;RIS</title>
<path fill="none" stroke="gray" stroke-width="0.2" d="M46.11,-910.69C54.63,-900 64.2,-888 64.2,-888 64.2,-888 107.54,-815.88 146.5,-751.04"/>
<polygon fill="gray" stroke="gray" stroke-width="0.2" points="149.41,-752.99 151.56,-742.62 143.41,-749.39 149.41,-752.99"/>
</g>
<!-- BDU -->
<g id="node24" class="node">
<title>BDU</title>
<ellipse fill="none" stroke="black" cx="32.1" cy="-848" rx="29.61" ry="18"/>
<text text-anchor="middle" x="32.1" y="-842.58" font-family="Times New Roman,serif" font-size="14.00">BDU</text>
</g>
<!-- BDU&#45;&gt;RIS -->
<g id="edge38" class="edge">
<title>BDU&#45;&gt;RIS</title>
<path fill="none" stroke="blue" stroke-width="2" d="M47.06,-832.13C64.83,-811.91 96.96,-775.37 127.8,-740.3"/>
<polygon fill="blue" stroke="blue" stroke-width="2" points="130.06,-743.04 134.03,-733.22 124.8,-738.42 130.06,-743.04"/>
</g>
<!-- FLP -->
<g id="node25" class="node">
<title>FLP</title>
<ellipse fill="none" stroke="black" cx="32.1" cy="-769" rx="27.11" ry="18"/>
<text text-anchor="middle" x="32.1" y="-763.58" font-family="Times New Roman,serif" font-size="14.00">FLP</text>
</g>
<!-- FLP&#45;&gt;RIS -->
<g id="edge39" class="edge">
<title>FLP&#45;&gt;RIS</title>
<path fill="none" stroke="gray" stroke-width="0.2" d="M51.73,-756.26C66.34,-746.28 87.9,-731.55 110.34,-716.21"/>
<polygon fill="gray" stroke="gray" stroke-width="0.2" points="112.1,-719.24 118.38,-710.71 108.15,-713.46 112.1,-719.24"/>
</g>
<!-- IL1 -->
<g id="node26" class="node">
<title>IL1</title>
<ellipse fill="none" stroke="black" cx="32.1" cy="-690" rx="27" ry="18"/>
<text text-anchor="middle" x="32.1" y="-684.58" font-family="Times New Roman,serif" font-size="14.00">IL1</text>
</g>
<!-- IL1&#45;&gt;RIS -->
<g id="edge40" class="edge">
<title>IL1&#45;&gt;RIS</title>
<path fill="none" stroke="gray" stroke-width="0.2" d="M58.05,-684.27C67.79,-682.03 79.69,-679.3 92.49,-676.36"/>
<polygon fill="gray" stroke="gray" stroke-width="0.2" points="93.17,-679.79 102.13,-674.14 91.6,-672.97 93.17,-679.79"/>
</g>
<!-- PVN -->
<g id="node27" class="node">
<title>PVN</title>
<ellipse fill="none" stroke="black" cx="32.1" cy="-611" rx="29.11" ry="18"/>
<text text-anchor="middle" x="32.1" y="-605.58" font-family="Times New Roman,serif" font-size="14.00">PVN</text>
</g>
<!-- PVN&#45;&gt;RIS -->
<g id="edge41" class="edge">
<title>PVN&#45;&gt;RIS</title>
<path fill="none" stroke="blue" stroke-width="5" d="M59.92,-617.01C67.75,-618.76 76.85,-620.8 86.61,-622.99"/>
<polygon fill="blue" stroke="blue" stroke-width="5" points="85.61,-627.25 96.32,-625.16 87.52,-618.71 85.61,-627.25"/>
</g>
<!-- PVQ -->
<g id="node28" class="node">
<title>PVQ</title>
<ellipse fill="none" stroke="black" cx="32.1" cy="-532" rx="29.61" ry="18"/>
<text text-anchor="middle" x="32.1" y="-526.58" font-family="Times New Roman,serif" font-size="14.00">PVQ</text>
</g>
<!-- PVQ&#45;&gt;RIS -->
<g id="edge42" class="edge">
<title>PVQ&#45;&gt;RIS</title>
<path fill="none" stroke="blue" stroke-width="5" d="M52.74,-545.31C66.16,-554.4 85.09,-567.24 105.12,-580.81"/>
<polygon fill="blue" stroke="blue" stroke-width="5" points="102.5,-584.32 113.23,-586.31 107.41,-577.07 102.5,-584.32"/>
</g>
<!-- PVR -->
<g id="node29" class="node">
<title>PVR</title>
<ellipse fill="none" stroke="black" cx="32.1" cy="-453" rx="29.11" ry="18"/>
<text text-anchor="middle" x="32.1" y="-447.57" font-family="Times New Roman,serif" font-size="14.00">PVR</text>
</g>
<!-- PVR&#45;&gt;RIS -->
<g id="edge43" class="edge">
<title>PVR&#45;&gt;RIS</title>
<path fill="none" stroke="blue" stroke-width="2" d="M47.06,-468.79C64.76,-488.82 96.69,-524.95 127.41,-559.71"/>
<polygon fill="blue" stroke="blue" stroke-width="2" points="124.78,-562.02 134.02,-567.2 130.02,-557.38 124.78,-562.02"/>
</g>
<!-- PVT -->
<g id="node30" class="node">
<title>PVT</title>
<ellipse fill="none" stroke="black" cx="32.1" cy="-374" rx="28.61" ry="18"/>
<text text-anchor="middle" x="32.1" y="-368.57" font-family="Times New Roman,serif" font-size="14.00">PVT</text>
</g>
<!-- PVT&#45;&gt;RIS -->
<g id="edge44" class="edge">
<title>PVT&#45;&gt;RIS</title>
<path fill="none" stroke="gray" stroke-width="0.2" d="M45.75,-390.27C54.36,-401.34 64.2,-414 64.2,-414 64.2,-414 107.24,-485.03 146.1,-549.15"/>
<polygon fill="gray" stroke="gray" stroke-width="0.2" points="142.97,-550.74 151.15,-557.48 148.96,-547.12 142.97,-550.74"/>
</g>
<!-- RIH -->
<g id="node31" class="node">
<title>RIH</title>
<ellipse fill="none" stroke="black" cx="32.1" cy="-295" rx="27" ry="18"/>
<text text-anchor="middle" x="32.1" y="-289.57" font-family="Times New Roman,serif" font-size="14.00">RIH</text>
</g>
<!-- RIH&#45;&gt;RIS -->
<g id="edge45" class="edge">
<title>RIH&#45;&gt;RIS</title>
<path fill="none" stroke="gray" stroke-width="0.2" d="M45.39,-310.81C54.09,-321.99 64.2,-335 64.2,-335 64.2,-335 116.91,-451.09 158.32,-542.32"/>
<polygon fill="gray" stroke="gray" stroke-width="0.2" points="155.1,-543.69 162.42,-551.35 161.47,-540.8 155.1,-543.69"/>
</g>
<!-- RIV -->
<g id="node32" class="node">
<title>RIV</title>
<ellipse fill="none" stroke="black" cx="32.1" cy="-216" rx="27" ry="18"/>
<text text-anchor="middle" x="32.1" y="-210.57" font-family="Times New Roman,serif" font-size="14.00">RIV</text>
</g>
<!-- RIV&#45;&gt;RIS -->
<g id="edge46" class="edge">
<title>RIV&#45;&gt;RIS</title>
<path fill="none" stroke="gray" stroke-width="0.2" d="M45.39,-231.81C54.09,-242.99 64.2,-256 64.2,-256 64.2,-256 124.69,-422.65 166.98,-539.18"/>
<polygon fill="gray" stroke="gray" stroke-width="0.2" points="163.57,-540.04 170.27,-548.25 170.15,-537.66 163.57,-540.04"/>
</g>
<!-- SDQ -->
<g id="node33" class="node">
<title>SDQ</title>
<ellipse fill="none" stroke="black" cx="32.1" cy="-137" rx="29.61" ry="18"/>
<text text-anchor="middle" x="32.1" y="-131.57" font-family="Times New Roman,serif" font-size="14.00">SDQ</text>
</g>
<!-- SDQ&#45;&gt;RIS -->
<g id="edge47" class="edge">
<title>SDQ&#45;&gt;RIS</title>
<path fill="none" stroke="red" stroke-width="5" d="M45.75,-153.27C54.36,-164.34 64.2,-177 64.2,-177 64.2,-177 128.88,-390.94 171.25,-531.06"/>
<polygon fill="red" stroke="red" stroke-width="5" points="167.02,-532.21 174.11,-540.52 175.4,-529.68 167.02,-532.21"/>
</g>
</g>
</svg>
