<?xml version="1.0" encoding="UTF-8" standalone="no"?>
<!DOCTYPE svg PUBLIC "-//W3C//DTD SVG 1.1//EN"
 "http://www.w3.org/Graphics/SVG/1.1/DTD/svg11.dtd">
<!-- Generated by graphviz version 11.0.0 (20240428.1522)
 -->
<!-- Pages: 1 -->
<svg width="425pt" height="1308pt"
 viewBox="0.00 0.00 425.41 1308.00" xmlns="http://www.w3.org/2000/svg" xmlns:xlink="http://www.w3.org/1999/xlink">
<g id="graph0" class="graph" transform="scale(1 1) rotate(0) translate(4 1304)">
<polygon fill="white" stroke="none" points="-4,4 -4,-1304 421.41,-1304 421.41,4 -4,4"/>
<!-- RIV -->
<g id="node1" class="node">
<title>RIV</title>
<ellipse fill="none" stroke="black" cx="209.2" cy="-650" rx="108" ry="108"/>
<text text-anchor="middle" x="209.2" y="-631" font-family="Times New Roman,serif" font-size="50.00">RIV</text>
</g>
<!-- RIV&#45;&gt;RIV -->
<g id="edge1" class="edge">
<title>RIV&#45;&gt;RIV</title>
<path fill="none" stroke="gray" stroke-width="0.2" d="M176.5,-753.39C178.44,-780.51 189.34,-801 209.2,-801 226.5,-801 237.01,-785.45 240.71,-763.52"/>
<polygon fill="gray" stroke="gray" stroke-width="0.2" points="244.17,-764.04 241.87,-753.69 237.22,-763.21 244.17,-764.04"/>
</g>
<!-- ADE -->
<g id="node2" class="node">
<title>ADE</title>
<ellipse fill="none" stroke="black" cx="385.3" cy="-1203" rx="29.11" ry="18"/>
<text text-anchor="middle" x="385.3" y="-1197.58" font-family="Times New Roman,serif" font-size="14.00">ADE</text>
</g>
<!-- RIV&#45;&gt;ADE -->
<g id="edge2" class="edge">
<title>RIV&#45;&gt;ADE</title>
<path fill="none" stroke="gray" stroke-width="0.2" d="M242.83,-752.85C285.03,-897.48 353.2,-1142.5 353.2,-1142.5 353.2,-1142.5 366.15,-1158.74 375.34,-1176.04"/>
<polygon fill="gray" stroke="gray" stroke-width="0.2" points="372.09,-1177.34 379.58,-1184.83 378.39,-1174.3 372.09,-1177.34"/>
</g>
<!-- CEP -->
<g id="node3" class="node">
<title>CEP</title>
<ellipse fill="none" stroke="black" cx="385.3" cy="-1124" rx="28.11" ry="18"/>
<text text-anchor="middle" x="385.3" y="-1118.58" font-family="Times New Roman,serif" font-size="14.00">CEP</text>
</g>
<!-- RIV&#45;&gt;CEP -->
<g id="edge3" class="edge">
<title>RIV&#45;&gt;CEP</title>
<path fill="none" stroke="gray" stroke-width="5" d="M248.43,-750.99C290.79,-873.64 353.2,-1063.5 353.2,-1063.5 353.2,-1063.5 363.67,-1076.63 372.46,-1091.85"/>
<polygon fill="gray" stroke="gray" stroke-width="5" points="368.45,-1093.62 376.89,-1100.54 376.25,-1089.65 368.45,-1093.62"/>
</g>
<!-- OLQ -->
<g id="node4" class="node">
<title>OLQ</title>
<ellipse fill="none" stroke="black" cx="385.3" cy="-1045" rx="30.11" ry="18"/>
<text text-anchor="middle" x="385.3" y="-1039.58" font-family="Times New Roman,serif" font-size="14.00">OLQ</text>
</g>
<!-- RIV&#45;&gt;OLQ -->
<g id="edge4" class="edge">
<title>RIV&#45;&gt;OLQ</title>
<path fill="none" stroke="gray" stroke-width="0.2" d="M256.04,-747.79C297.87,-846.74 353.2,-984.5 353.2,-984.5 353.2,-984.5 366.15,-1000.74 375.34,-1018.04"/>
<polygon fill="gray" stroke="gray" stroke-width="0.2" points="372.09,-1019.34 379.58,-1026.83 378.39,-1016.3 372.09,-1019.34"/>
</g>
<!-- RIA -->
<g id="node5" class="node">
<title>RIA</title>
<ellipse fill="none" stroke="black" cx="385.3" cy="-966" rx="27" ry="18"/>
<text text-anchor="middle" x="385.3" y="-960.58" font-family="Times New Roman,serif" font-size="14.00">RIA</text>
</g>
<!-- RIV&#45;&gt;RIA -->
<g id="edge5" class="edge">
<title>RIV&#45;&gt;RIA</title>
<path fill="none" stroke="gray" stroke-width="5" d="M266.72,-741.97C306.69,-815.4 353.2,-905.5 353.2,-905.5 353.2,-905.5 363.67,-918.63 372.46,-933.85"/>
<polygon fill="gray" stroke="gray" stroke-width="5" points="368.45,-935.62 376.89,-942.54 376.25,-931.65 368.45,-935.62"/>
</g>
<!-- RIC -->
<g id="node6" class="node">
<title>RIC</title>
<ellipse fill="none" stroke="black" cx="385.3" cy="-887" rx="27" ry="18"/>
<text text-anchor="middle" x="385.3" y="-881.58" font-family="Times New Roman,serif" font-size="14.00">RIC</text>
</g>
<!-- RIV&#45;&gt;RIC -->
<g id="edge6" class="edge">
<title>RIV&#45;&gt;RIC</title>
<path fill="none" stroke="gray" stroke-width="0.2" d="M281.91,-730.46C317.59,-777.19 353.2,-826.5 353.2,-826.5 353.2,-826.5 366.15,-842.74 375.34,-860.04"/>
<polygon fill="gray" stroke="gray" stroke-width="0.2" points="372.09,-861.34 379.58,-868.83 378.39,-858.3 372.09,-861.34"/>
</g>
<!-- RIS -->
<g id="node7" class="node">
<title>RIS</title>
<ellipse fill="none" stroke="black" cx="385.3" cy="-808" rx="27" ry="18"/>
<text text-anchor="middle" x="385.3" y="-802.58" font-family="Times New Roman,serif" font-size="14.00">RIS</text>
</g>
<!-- RIV&#45;&gt;RIS -->
<g id="edge7" class="edge">
<title>RIV&#45;&gt;RIS</title>
<path fill="none" stroke="gray" stroke-width="0.2" d="M289.87,-722.3C315.88,-745.9 342.77,-770.31 361.18,-787.01"/>
<polygon fill="gray" stroke="gray" stroke-width="0.2" points="358.54,-789.34 368.29,-793.47 363.24,-784.16 358.54,-789.34"/>
</g>
<!-- RMD -->
<g id="node8" class="node">
<title>RMD</title>
<ellipse fill="none" stroke="black" cx="385.3" cy="-729" rx="31.6" ry="18"/>
<text text-anchor="middle" x="385.3" y="-723.58" font-family="Times New Roman,serif" font-size="14.00">RMD</text>
</g>
<!-- RIV&#45;&gt;RMD -->
<g id="edge8" class="edge">
<title>RIV&#45;&gt;RMD</title>
<path fill="none" stroke="black" stroke-width="5" d="M312.99,-680.75C328.9,-688.45 344.08,-696.57 356.32,-704.08"/>
<polygon fill="black" stroke="black" stroke-width="5" points="353.68,-707.58 364.44,-709.45 358.51,-700.28 353.68,-707.58"/>
</g>
<!-- RMF -->
<g id="node9" class="node">
<title>RMF</title>
<ellipse fill="none" stroke="black" cx="385.3" cy="-650" rx="30.61" ry="18"/>
<text text-anchor="middle" x="385.3" y="-644.58" font-family="Times New Roman,serif" font-size="14.00">RMF</text>
</g>
<!-- RIV&#45;&gt;RMF -->
<g id="edge9" class="edge">
<title>RIV&#45;&gt;RMF</title>
<path fill="none" stroke="gray" stroke-width="5" d="M316.49,-634.23C326.54,-634.61 336.23,-635.28 344.99,-636.26"/>
<polygon fill="gray" stroke="gray" stroke-width="5" points="344.3,-640.58 354.83,-637.69 345.56,-631.92 344.3,-640.58"/>
</g>
<!-- RMG -->
<g id="node10" class="node">
<title>RMG</title>
<ellipse fill="none" stroke="black" cx="385.3" cy="-571" rx="32.1" ry="18"/>
<text text-anchor="middle" x="385.3" y="-565.58" font-family="Times New Roman,serif" font-size="14.00">RMG</text>
</g>
<!-- RIV&#45;&gt;RMG -->
<g id="edge10" class="edge">
<title>RIV&#45;&gt;RMG</title>
<path fill="none" stroke="gray" stroke-width="0.2" d="M307.94,-605.65C323.26,-598.7 338.13,-591.95 350.61,-586.29"/>
<polygon fill="gray" stroke="gray" stroke-width="0.2" points="351.73,-589.62 359.39,-582.31 348.84,-583.25 351.73,-589.62"/>
</g>
<!-- RMH -->
<g id="node11" class="node">
<title>RMH</title>
<ellipse fill="none" stroke="black" cx="385.3" cy="-492" rx="31.6" ry="18"/>
<text text-anchor="middle" x="385.3" y="-486.57" font-family="Times New Roman,serif" font-size="14.00">RMH</text>
</g>
<!-- RIV&#45;&gt;RMH -->
<g id="edge11" class="edge">
<title>RIV&#45;&gt;RMH</title>
<path fill="none" stroke="gray" stroke-width="0.2" d="M289.87,-577.7C315.41,-554.53 341.8,-530.57 360.17,-513.9"/>
<polygon fill="gray" stroke="gray" stroke-width="0.2" points="362.25,-516.74 367.3,-507.43 357.54,-511.56 362.25,-516.74"/>
</g>
<!-- SAA -->
<g id="node12" class="node">
<title>SAA</title>
<ellipse fill="none" stroke="black" cx="385.3" cy="-413" rx="29.11" ry="18"/>
<text text-anchor="middle" x="385.3" y="-407.57" font-family="Times New Roman,serif" font-size="14.00">SAA</text>
</g>
<!-- RIV&#45;&gt;SAA -->
<g id="edge12" class="edge">
<title>RIV&#45;&gt;SAA</title>
<path fill="none" stroke="black" stroke-width="5" d="M265.08,-557.05C296.74,-510.17 333.01,-459.51 350.62,-435.73"/>
<polygon fill="black" stroke="black" stroke-width="5" points="354.06,-438.45 356.64,-427.84 347.1,-433.14 354.06,-438.45"/>
</g>
<!-- SDQ -->
<g id="node13" class="node">
<title>SDQ</title>
<ellipse fill="none" stroke="black" cx="385.3" cy="-334" rx="29.61" ry="18"/>
<text text-anchor="middle" x="385.3" y="-328.57" font-family="Times New Roman,serif" font-size="14.00">SDQ</text>
</g>
<!-- RIV&#45;&gt;SDQ -->
<g id="edge13" class="edge">
<title>RIV&#45;&gt;SDQ</title>
<path fill="none" stroke="gray" stroke-width="0.2" d="M253.11,-551.24C295.23,-464.39 353.2,-352.5 353.2,-352.5 353.2,-352.5 353.5,-352.12 354.03,-351.45"/>
<polygon fill="gray" stroke="gray" stroke-width="0.2" points="356.45,-354.01 360.22,-344.11 351.1,-349.5 356.45,-354.01"/>
</g>
<!-- SIA -->
<g id="node14" class="node">
<title>SIA</title>
<ellipse fill="none" stroke="black" cx="385.3" cy="-255" rx="27" ry="18"/>
<text text-anchor="middle" x="385.3" y="-249.57" font-family="Times New Roman,serif" font-size="14.00">SIA</text>
</g>
<!-- RIV&#45;&gt;SIA -->
<g id="edge14" class="edge">
<title>RIV&#45;&gt;SIA</title>
<path fill="none" stroke="red" stroke-width="5" d="M250.42,-550.17C292.71,-445.17 353.2,-295 353.2,-295 353.2,-295 357.15,-289.92 362.24,-283.38"/>
<polygon fill="red" stroke="red" stroke-width="5" points="365.5,-286.31 368.18,-275.73 358.59,-280.94 365.5,-286.31"/>
</g>
<!-- SMB -->
<g id="node15" class="node">
<title>SMB</title>
<ellipse fill="none" stroke="black" cx="385.3" cy="-176" rx="30.11" ry="18"/>
<text text-anchor="middle" x="385.3" y="-170.57" font-family="Times New Roman,serif" font-size="14.00">SMB</text>
</g>
<!-- RIV&#45;&gt;SMB -->
<g id="edge15" class="edge">
<title>RIV&#45;&gt;SMB</title>
<path fill="none" stroke="gray" stroke-width="2" d="M239.83,-546.17C276.65,-427.77 336.32,-245.84 354.92,-197.9"/>
<polygon fill="gray" stroke="gray" stroke-width="2" points="358.02,-199.56 358.88,-189 351.62,-196.72 358.02,-199.56"/>
</g>
<!-- SMD -->
<g id="node16" class="node">
<title>SMD</title>
<ellipse fill="none" stroke="black" cx="385.3" cy="-97" rx="30.61" ry="18"/>
<text text-anchor="middle" x="385.3" y="-91.58" font-family="Times New Roman,serif" font-size="14.00">SMD</text>
</g>
<!-- RIV&#45;&gt;SMD -->
<g id="edge16" class="edge">
<title>RIV&#45;&gt;SMD</title>
<path fill="none" stroke="black" stroke-width="5" d="M235.85,-544.85C271.78,-408.67 334.42,-183.02 354.13,-122.65"/>
<polygon fill="black" stroke="black" stroke-width="5" points="358.18,-124.32 357.6,-113.42 349.99,-121.24 358.18,-124.32"/>
</g>
<!-- URY -->
<g id="node17" class="node">
<title>URY</title>
<ellipse fill="none" stroke="black" cx="385.3" cy="-18" rx="30.11" ry="18"/>
<text text-anchor="middle" x="385.3" y="-12.57" font-family="Times New Roman,serif" font-size="14.00">URY</text>
</g>
<!-- RIV&#45;&gt;URY -->
<g id="edge17" class="edge">
<title>RIV&#45;&gt;URY</title>
<path fill="none" stroke="gray" stroke-width="0.2" d="M235.6,-544.84C276.7,-374.73 353.2,-58 353.2,-58 353.2,-58 358.85,-50.73 365.34,-42.39"/>
<polygon fill="gray" stroke="gray" stroke-width="0.2" points="368.09,-44.55 371.47,-34.51 362.57,-40.25 368.09,-44.55"/>
</g>
<!-- ADE&#45;&gt;RIV -->
<g id="edge18" class="edge">
<title>ADE&#45;&gt;RIV</title>
<path fill="none" stroke="red" stroke-width="5" d="M360.1,-1193.55C356.09,-1189.12 353.2,-1185.5 353.2,-1185.5 353.2,-1185.5 281.74,-928.63 239.85,-770.47"/>
<polygon fill="red" stroke="red" stroke-width="5" points="244.14,-769.59 237.36,-761.04 235.68,-771.83 244.14,-769.59"/>
</g>
<!-- CEP&#45;&gt;RIV -->
<g id="edge19" class="edge">
<title>CEP&#45;&gt;RIV</title>
<path fill="none" stroke="gray" stroke-width="0.2" d="M360.42,-1114.89C356.24,-1110.31 353.2,-1106.5 353.2,-1106.5 353.2,-1106.5 285.03,-899.12 242.82,-763.66"/>
<polygon fill="gray" stroke="gray" stroke-width="0.2" points="246.23,-762.83 239.92,-754.32 239.55,-764.91 246.23,-762.83"/>
</g>
<!-- OLQ&#45;&gt;RIV -->
<g id="edge20" class="edge">
<title>OLQ&#45;&gt;RIV</title>
<path fill="none" stroke="gray" stroke-width="0.2" d="M359.8,-1035.21C355.94,-1030.94 353.2,-1027.5 353.2,-1027.5 353.2,-1027.5 291.06,-872.8 248.71,-761.2"/>
<polygon fill="gray" stroke="gray" stroke-width="0.2" points="252.11,-760.29 245.29,-752.18 245.56,-762.77 252.11,-760.29"/>
</g>
<!-- RIA&#45;&gt;RIV -->
<g id="edge21" class="edge">
<title>RIA&#45;&gt;RIV</title>
<path fill="none" stroke="gray" stroke-width="5" d="M361.05,-957.58C356.55,-952.7 353.2,-948.5 353.2,-948.5 353.2,-948.5 301.4,-848.15 260.15,-763.56"/>
<polygon fill="gray" stroke="gray" stroke-width="5" points="264.13,-761.75 255.83,-754.67 256.26,-765.58 264.13,-761.75"/>
</g>
<!-- RIC&#45;&gt;RIV -->
<g id="edge22" class="edge">
<title>RIC&#45;&gt;RIV</title>
<path fill="none" stroke="red" stroke-width="2" d="M361.05,-878.58C356.55,-873.7 353.2,-869.5 353.2,-869.5 353.2,-869.5 310.7,-810.65 272.04,-753.64"/>
<polygon fill="red" stroke="red" stroke-width="2" points="275.07,-751.87 266.57,-745.54 269.26,-755.78 275.07,-751.87"/>
</g>
<!-- RMD&#45;&gt;RIV -->
<g id="edge23" class="edge">
<title>RMD&#45;&gt;RIV</title>
<path fill="none" stroke="gray" stroke-width="2" d="M353.63,-727.72C341.9,-724.11 327.77,-718.79 313.01,-712.54"/>
<polygon fill="gray" stroke="gray" stroke-width="2" points="314.42,-709.33 303.85,-708.55 311.63,-715.75 314.42,-709.33"/>
</g>
<!-- RMF&#45;&gt;RIV -->
<g id="edge24" class="edge">
<title>RMF&#45;&gt;RIV</title>
<path fill="none" stroke="gray" stroke-width="0.2" d="M361,-661.41C351.37,-663.23 339.43,-664.52 326.53,-665.29"/>
<polygon fill="gray" stroke="gray" stroke-width="0.2" points="326.62,-661.78 316.8,-665.76 326.95,-668.77 326.62,-661.78"/>
</g>
<!-- SAA&#45;&gt;RIV -->
<g id="edge25" class="edge">
<title>SAA&#45;&gt;RIV</title>
<path fill="none" stroke="gray" stroke-width="0.2" d="M379.71,-431.05C371.06,-451.53 353.2,-474.5 353.2,-474.5 353.2,-474.5 321.77,-517.81 288.37,-561.6"/>
<polygon fill="gray" stroke="gray" stroke-width="0.2" points="285.6,-559.46 282.3,-569.53 291.16,-563.71 285.6,-559.46"/>
</g>
<!-- SDQ&#45;&gt;RIV -->
<g id="edge26" class="edge">
<title>SDQ&#45;&gt;RIV</title>
<path fill="none" stroke="gray" stroke-width="nan" d="M379.71,-352.05C371.06,-372.53 353.2,-395.5 353.2,-395.5 353.2,-395.5 306.69,-485.27 266.72,-558.43"/>
<polygon fill="gray" stroke="gray" stroke-width="nan" points="nan,-nan nan,-nan nan,-nan nan,-nan"/>
</g>
<!-- SMB&#45;&gt;RIV -->
<g id="edge27" class="edge">
<title>SMB&#45;&gt;RIV</title>
<path fill="none" stroke="gray" stroke-width="nan" d="M379.71,-194.05C371.06,-214.53 353.2,-237.5 353.2,-237.5 353.2,-237.5 290.88,-426.64 248.52,-549.01"/>
<polygon fill="gray" stroke="gray" stroke-width="nan" points="nan,-nan nan,-nan nan,-nan nan,-nan"/>
</g>
<!-- SMD&#45;&gt;RIV -->
<g id="edge28" class="edge">
<title>SMD&#45;&gt;RIV</title>
<path fill="none" stroke="gray" stroke-width="0.2" d="M379.71,-115.05C371.06,-135.53 353.2,-158.5 353.2,-158.5 353.2,-158.5 288.15,-391.85 245.8,-537.19"/>
<polygon fill="gray" stroke="gray" stroke-width="0.2" points="242.45,-536.2 243,-546.78 249.17,-538.16 242.45,-536.2"/>
</g>
<!-- ADA -->
<g id="node18" class="node">
<title>ADA</title>
<ellipse fill="none" stroke="black" cx="32.6" cy="-1282" rx="30.11" ry="18"/>
<text text-anchor="middle" x="32.6" y="-1276.58" font-family="Times New Roman,serif" font-size="14.00">ADA</text>
</g>
<!-- ADA&#45;&gt;RIV -->
<g id="edge29" class="edge">
<title>ADA&#45;&gt;RIV</title>
<path fill="none" stroke="gray" stroke-width="0.2" d="M46.82,-1265.69C55.48,-1255 65.2,-1243 65.2,-1243 65.2,-1243 138.92,-937.3 180.5,-764.88"/>
<polygon fill="gray" stroke="gray" stroke-width="0.2" points="183.87,-765.83 182.81,-755.29 177.07,-764.19 183.87,-765.83"/>
</g>
<!-- ADF -->
<g id="node19" class="node">
<title>ADF</title>
<ellipse fill="none" stroke="black" cx="32.6" cy="-1203" rx="29.11" ry="18"/>
<text text-anchor="middle" x="32.6" y="-1197.58" font-family="Times New Roman,serif" font-size="14.00">ADF</text>
</g>
<!-- ADF&#45;&gt;RIV -->
<g id="edge30" class="edge">
<title>ADF&#45;&gt;RIV</title>
<path fill="none" stroke="gray" stroke-width="0.2" d="M46.45,-1187.14C55.2,-1176.34 65.2,-1164 65.2,-1164 65.2,-1164 134.41,-915.25 176.53,-763.84"/>
<polygon fill="gray" stroke="gray" stroke-width="0.2" points="179.87,-764.88 179.18,-754.31 173.13,-763 179.87,-764.88"/>
</g>
<!-- AIB -->
<g id="node20" class="node">
<title>AIB</title>
<ellipse fill="none" stroke="black" cx="32.6" cy="-1124" rx="27" ry="18"/>
<text text-anchor="middle" x="32.6" y="-1118.58" font-family="Times New Roman,serif" font-size="14.00">AIB</text>
</g>
<!-- AIB&#45;&gt;RIV -->
<g id="edge31" class="edge">
<title>AIB&#45;&gt;RIV</title>
<path fill="none" stroke="gray" stroke-width="0.2" d="M46.45,-1108.14C55.2,-1097.34 65.2,-1085 65.2,-1085 65.2,-1085 128.98,-890.98 171.35,-762.09"/>
<polygon fill="gray" stroke="gray" stroke-width="0.2" points="174.6,-763.42 174.4,-752.83 167.95,-761.23 174.6,-763.42"/>
</g>
<!-- AIY -->
<g id="node21" class="node">
<title>AIY</title>
<ellipse fill="none" stroke="black" cx="32.6" cy="-1045" rx="27" ry="18"/>
<text text-anchor="middle" x="32.6" y="-1039.58" font-family="Times New Roman,serif" font-size="14.00">AIY</text>
</g>
<!-- AIY&#45;&gt;RIV -->
<g id="edge32" class="edge">
<title>AIY&#45;&gt;RIV</title>
<path fill="none" stroke="gray" stroke-width="0.2" d="M46.45,-1029.14C55.2,-1018.34 65.2,-1006 65.2,-1006 65.2,-1006 122.2,-864.1 164.23,-759.48"/>
<polygon fill="gray" stroke="gray" stroke-width="0.2" points="167.4,-760.98 167.88,-750.39 160.9,-758.37 167.4,-760.98"/>
</g>
<!-- ALN -->
<g id="node22" class="node">
<title>ALN</title>
<ellipse fill="none" stroke="black" cx="32.6" cy="-966" rx="29.11" ry="18"/>
<text text-anchor="middle" x="32.6" y="-960.58" font-family="Times New Roman,serif" font-size="14.00">ALN</text>
</g>
<!-- ALN&#45;&gt;RIV -->
<g id="edge33" class="edge">
<title>ALN&#45;&gt;RIV</title>
<path fill="none" stroke="gray" stroke-width="0.2" d="M46.45,-950.14C55.2,-939.34 65.2,-927 65.2,-927 65.2,-927 113.65,-833.15 154.15,-754.71"/>
<polygon fill="gray" stroke="gray" stroke-width="0.2" points="157.17,-756.48 158.65,-745.98 150.95,-753.26 157.17,-756.48"/>
</g>
<!-- AQR -->
<g id="node23" class="node">
<title>AQR</title>
<ellipse fill="none" stroke="black" cx="32.6" cy="-887" rx="30.61" ry="18"/>
<text text-anchor="middle" x="32.6" y="-881.58" font-family="Times New Roman,serif" font-size="14.00">AQR</text>
</g>
<!-- AQR&#45;&gt;RIV -->
<g id="edge34" class="edge">
<title>AQR&#45;&gt;RIV</title>
<path fill="none" stroke="gray" stroke-width="0.2" d="M46.82,-870.69C55.48,-860 65.2,-848 65.2,-848 65.2,-848 102.64,-796.16 139.21,-745.53"/>
<polygon fill="gray" stroke="gray" stroke-width="0.2" points="141.87,-747.82 144.89,-737.67 136.19,-743.73 141.87,-747.82"/>
</g>
<!-- AVH -->
<g id="node24" class="node">
<title>AVH</title>
<ellipse fill="none" stroke="black" cx="32.6" cy="-808" rx="30.11" ry="18"/>
<text text-anchor="middle" x="32.6" y="-802.58" font-family="Times New Roman,serif" font-size="14.00">AVH</text>
</g>
<!-- AVH&#45;&gt;RIV -->
<g id="edge35" class="edge">
<title>AVH&#45;&gt;RIV</title>
<path fill="none" stroke="gray" stroke-width="0.2" d="M50.03,-793.14C66.78,-777.97 94.12,-753.23 121.4,-728.55"/>
<polygon fill="gray" stroke="gray" stroke-width="0.2" points="123.41,-731.45 128.48,-722.14 118.71,-726.26 123.41,-731.45"/>
</g>
<!-- AVK -->
<g id="node25" class="node">
<title>AVK</title>
<ellipse fill="none" stroke="black" cx="32.6" cy="-729" rx="30.11" ry="18"/>
<text text-anchor="middle" x="32.6" y="-723.58" font-family="Times New Roman,serif" font-size="14.00">AVK</text>
</g>
<!-- AVK&#45;&gt;RIV -->
<g id="edge36" class="edge">
<title>AVK&#45;&gt;RIV</title>
<path fill="none" stroke="gray" stroke-width="5" d="M57.15,-718.35C67.83,-713.51 81.31,-707.41 95.8,-700.86"/>
<polygon fill="gray" stroke="gray" stroke-width="5" points="97.57,-704.86 104.88,-696.75 93.96,-696.89 97.57,-704.86"/>
</g>
<!-- AWC -->
<g id="node26" class="node">
<title>AWC</title>
<ellipse fill="none" stroke="black" cx="32.6" cy="-650" rx="32.6" ry="18"/>
<text text-anchor="middle" x="32.6" y="-644.58" font-family="Times New Roman,serif" font-size="14.00">AWC</text>
</g>
<!-- AWC&#45;&gt;RIV -->
<g id="edge37" class="edge">
<title>AWC&#45;&gt;RIV</title>
<path fill="none" stroke="gray" stroke-width="0.2" d="M65.63,-650C73.14,-650 81.57,-650 90.5,-650"/>
<polygon fill="gray" stroke="gray" stroke-width="0.2" points="90.45,-653.5 100.45,-650 90.45,-646.5 90.45,-653.5"/>
</g>
<!-- BAG -->
<g id="node27" class="node">
<title>BAG</title>
<ellipse fill="none" stroke="black" cx="32.6" cy="-571" rx="30.11" ry="18"/>
<text text-anchor="middle" x="32.6" y="-565.58" font-family="Times New Roman,serif" font-size="14.00">BAG</text>
</g>
<!-- BAG&#45;&gt;RIV -->
<g id="edge38" class="edge">
<title>BAG&#45;&gt;RIV</title>
<path fill="none" stroke="gray" stroke-width="0.2" d="M57.15,-581.65C69.16,-587.09 84.72,-594.13 101.28,-601.62"/>
<polygon fill="gray" stroke="gray" stroke-width="0.2" points="99.73,-604.76 110.28,-605.7 102.62,-598.38 99.73,-604.76"/>
</g>
<!-- DVA -->
<g id="node28" class="node">
<title>DVA</title>
<ellipse fill="none" stroke="black" cx="32.6" cy="-492" rx="30.11" ry="18"/>
<text text-anchor="middle" x="32.6" y="-486.57" font-family="Times New Roman,serif" font-size="14.00">DVA</text>
</g>
<!-- DVA&#45;&gt;RIV -->
<g id="edge39" class="edge">
<title>DVA&#45;&gt;RIV</title>
<path fill="none" stroke="gray" stroke-width="0.2" d="M50.03,-506.86C66.78,-522.03 94.12,-546.77 121.4,-571.45"/>
<polygon fill="gray" stroke="gray" stroke-width="0.2" points="118.71,-573.74 128.48,-577.86 123.41,-568.55 118.71,-573.74"/>
</g>
<!-- DVC -->
<g id="node29" class="node">
<title>DVC</title>
<ellipse fill="none" stroke="black" cx="32.6" cy="-413" rx="30.11" ry="18"/>
<text text-anchor="middle" x="32.6" y="-407.57" font-family="Times New Roman,serif" font-size="14.00">DVC</text>
</g>
<!-- DVC&#45;&gt;RIV -->
<g id="edge40" class="edge">
<title>DVC&#45;&gt;RIV</title>
<path fill="none" stroke="red" stroke-width="0.2" d="M46.45,-429.27C55.2,-440.34 65.2,-453 65.2,-453 65.2,-453 102.51,-504.39 139.01,-554.68"/>
<polygon fill="red" stroke="red" stroke-width="0.2" points="135.97,-556.45 144.68,-562.49 141.64,-552.34 135.97,-556.45"/>
</g>
<!-- PLN -->
<g id="node30" class="node">
<title>PLN</title>
<ellipse fill="none" stroke="black" cx="32.6" cy="-334" rx="28.11" ry="18"/>
<text text-anchor="middle" x="32.6" y="-328.57" font-family="Times New Roman,serif" font-size="14.00">PLN</text>
</g>
<!-- PLN&#45;&gt;RIV -->
<g id="edge41" class="edge">
<title>PLN&#45;&gt;RIV</title>
<path fill="none" stroke="gray" stroke-width="0.2" d="M46.09,-349.81C54.92,-360.99 65.2,-374 65.2,-374 65.2,-374 113.49,-467.21 153.95,-545.29"/>
<polygon fill="gray" stroke="gray" stroke-width="0.2" points="150.74,-546.71 158.45,-553.97 156.96,-543.49 150.74,-546.71"/>
</g>
<!-- RIG -->
<g id="node31" class="node">
<title>RIG</title>
<ellipse fill="none" stroke="black" cx="32.6" cy="-255" rx="27.11" ry="18"/>
<text text-anchor="middle" x="32.6" y="-249.57" font-family="Times New Roman,serif" font-size="14.00">RIG</text>
</g>
<!-- RIG&#45;&gt;RIV -->
<g id="edge42" class="edge">
<title>RIG&#45;&gt;RIV</title>
<path fill="none" stroke="gray" stroke-width="2" d="M46.09,-270.81C54.92,-281.99 65.2,-295 65.2,-295 65.2,-295 121.29,-434.23 163.21,-538.3"/>
<polygon fill="gray" stroke="gray" stroke-width="2" points="159.87,-539.39 166.86,-547.36 166.37,-536.78 159.87,-539.39"/>
</g>
<!-- RIM -->
<g id="node32" class="node">
<title>RIM</title>
<ellipse fill="none" stroke="black" cx="32.6" cy="-176" rx="28.11" ry="18"/>
<text text-anchor="middle" x="32.6" y="-170.57" font-family="Times New Roman,serif" font-size="14.00">RIM</text>
</g>
<!-- RIM&#45;&gt;RIV -->
<g id="edge43" class="edge">
<title>RIM&#45;&gt;RIV</title>
<path fill="none" stroke="gray" stroke-width="0.2" d="M46.09,-191.81C54.92,-202.99 65.2,-216 65.2,-216 65.2,-216 128.89,-409.3 171.26,-537.89"/>
<polygon fill="gray" stroke="gray" stroke-width="0.2" points="167.86,-538.73 174.31,-547.14 174.5,-536.54 167.86,-538.73"/>
</g>
<!-- RIP -->
<g id="node33" class="node">
<title>RIP</title>
<ellipse fill="none" stroke="black" cx="32.6" cy="-97" rx="27" ry="18"/>
<text text-anchor="middle" x="32.6" y="-91.58" font-family="Times New Roman,serif" font-size="14.00">RIP</text>
</g>
<!-- RIP&#45;&gt;RIV -->
<g id="edge44" class="edge">
<title>RIP&#45;&gt;RIV</title>
<path fill="none" stroke="blue" stroke-width="0.2" d="M46.09,-112.81C54.92,-123.99 65.2,-137 65.2,-137 65.2,-137 134.31,-384.92 176.44,-536.07"/>
<polygon fill="blue" stroke="blue" stroke-width="0.2" points="173.04,-536.89 179.1,-545.59 179.78,-535.01 173.04,-536.89"/>
</g>
<!-- URB -->
<g id="node34" class="node">
<title>URB</title>
<ellipse fill="none" stroke="black" cx="32.6" cy="-18" rx="29.61" ry="18"/>
<text text-anchor="middle" x="32.6" y="-12.57" font-family="Times New Roman,serif" font-size="14.00">URB</text>
</g>
<!-- URB&#45;&gt;RIV -->
<g id="edge45" class="edge">
<title>URB&#45;&gt;RIV</title>
<path fill="none" stroke="gray" stroke-width="0.2" d="M46.45,-34.27C55.2,-45.34 65.2,-58 65.2,-58 65.2,-58 138.82,-362.78 180.42,-534.97"/>
<polygon fill="gray" stroke="gray" stroke-width="0.2" points="176.98,-535.65 182.73,-544.55 183.78,-534.01 176.98,-535.65"/>
</g>
</g>
</svg>
