<?xml version="1.0" encoding="UTF-8" standalone="no"?>
<!DOCTYPE svg PUBLIC "-//W3C//DTD SVG 1.1//EN"
 "http://www.w3.org/Graphics/SVG/1.1/DTD/svg11.dtd">
<!-- Generated by graphviz version 11.0.0 (20240428.1522)
 -->
<!-- Pages: 1 -->
<svg width="421pt" height="2177pt"
 viewBox="0.00 0.00 421.41 2177.00" xmlns="http://www.w3.org/2000/svg" xmlns:xlink="http://www.w3.org/1999/xlink">
<g id="graph0" class="graph" transform="scale(1 1) rotate(0) translate(4 2173)">
<polygon fill="white" stroke="none" points="-4,4 -4,-2173 417.41,-2173 417.41,4 -4,4"/>
<!-- RMD -->
<g id="node1" class="node">
<title>RMD</title>
<ellipse fill="none" stroke="black" cx="205.21" cy="-1045" rx="108" ry="108"/>
<text text-anchor="middle" x="205.21" y="-1026" font-family="Times New Roman,serif" font-size="50.00">RMD</text>
</g>
<!-- RMD&#45;&gt;RMD -->
<g id="edge1" class="edge">
<title>RMD&#45;&gt;RMD</title>
<path fill="none" stroke="black" stroke-width="5" d="M172.78,-1148.39C174.71,-1175.51 185.52,-1196 205.21,-1196 220.83,-1196 230.86,-1183.12 235.3,-1164.26"/>
<polygon fill="black" stroke="black" stroke-width="5" points="239.6,-1165.1 236.73,-1154.56 230.94,-1163.82 239.6,-1165.1"/>
</g>
<!-- ADE -->
<g id="node2" class="node">
<title>ADE</title>
<ellipse fill="none" stroke="black" cx="381.31" cy="-2151" rx="29.11" ry="18"/>
<text text-anchor="middle" x="381.31" y="-2145.57" font-family="Times New Roman,serif" font-size="14.00">ADE</text>
</g>
<!-- RMD&#45;&gt;ADE -->
<g id="edge2" class="edge">
<title>RMD&#45;&gt;ADE</title>
<path fill="none" stroke="gray" stroke-width="0.2" d="M221.99,-1151.99C259.18,-1418.74 349.21,-2090.5 349.21,-2090.5 349.21,-2090.5 362.16,-2106.74 371.35,-2124.04"/>
<polygon fill="gray" stroke="gray" stroke-width="0.2" points="368.09,-2125.34 375.59,-2132.83 374.4,-2122.3 368.09,-2125.34"/>
</g>
<!-- AVA -->
<g id="node3" class="node">
<title>AVA</title>
<ellipse fill="none" stroke="black" cx="381.31" cy="-2072" rx="30.11" ry="18"/>
<text text-anchor="middle" x="381.31" y="-2066.57" font-family="Times New Roman,serif" font-size="14.00">AVA</text>
</g>
<!-- RMD&#45;&gt;AVA -->
<g id="edge3" class="edge">
<title>RMD&#45;&gt;AVA</title>
<path fill="none" stroke="gray" stroke-width="0.2" d="M221.72,-1152.14C258.74,-1407.91 349.21,-2033 349.21,-2033 349.21,-2033 354.59,-2039.75 360.88,-2047.63"/>
<polygon fill="gray" stroke="gray" stroke-width="0.2" points="358.14,-2049.81 367.11,-2055.45 363.61,-2045.45 358.14,-2049.81"/>
</g>
<!-- AVE -->
<g id="node4" class="node">
<title>AVE</title>
<ellipse fill="none" stroke="black" cx="381.31" cy="-1993" rx="29.11" ry="18"/>
<text text-anchor="middle" x="381.31" y="-1987.58" font-family="Times New Roman,serif" font-size="14.00">AVE</text>
</g>
<!-- RMD&#45;&gt;AVE -->
<g id="edge4" class="edge">
<title>RMD&#45;&gt;AVE</title>
<path fill="none" stroke="gray" stroke-width="2" d="M223.03,-1151.95C260.84,-1392.23 349.21,-1954 349.21,-1954 349.21,-1954 353.86,-1959.83 359.57,-1966.99"/>
<polygon fill="gray" stroke="gray" stroke-width="2" points="356.8,-1969.13 365.77,-1974.77 362.28,-1964.77 356.8,-1969.13"/>
</g>
<!-- AVK -->
<g id="node5" class="node">
<title>AVK</title>
<ellipse fill="none" stroke="black" cx="381.31" cy="-1914" rx="30.11" ry="18"/>
<text text-anchor="middle" x="381.31" y="-1908.58" font-family="Times New Roman,serif" font-size="14.00">AVK</text>
</g>
<!-- RMD&#45;&gt;AVK -->
<g id="edge5" class="edge">
<title>RMD&#45;&gt;AVK</title>
<path fill="none" stroke="gray" stroke-width="0.2" d="M226.55,-1151.08C266.03,-1370.69 349.21,-1853.5 349.21,-1853.5 349.21,-1853.5 362.16,-1869.74 371.35,-1887.04"/>
<polygon fill="gray" stroke="gray" stroke-width="0.2" points="368.09,-1888.34 375.59,-1895.83 374.4,-1885.3 368.09,-1888.34"/>
</g>
<!-- CEP -->
<g id="node6" class="node">
<title>CEP</title>
<ellipse fill="none" stroke="black" cx="381.31" cy="-1835" rx="28.11" ry="18"/>
<text text-anchor="middle" x="381.31" y="-1829.58" font-family="Times New Roman,serif" font-size="14.00">CEP</text>
</g>
<!-- RMD&#45;&gt;CEP -->
<g id="edge6" class="edge">
<title>RMD&#45;&gt;CEP</title>
<path fill="none" stroke="gray" stroke-width="5" d="M228.71,-1150.7C268.98,-1353.16 349.21,-1774.5 349.21,-1774.5 349.21,-1774.5 359.68,-1787.63 368.47,-1802.85"/>
<polygon fill="gray" stroke="gray" stroke-width="5" points="364.46,-1804.62 372.89,-1811.54 372.26,-1800.65 364.46,-1804.62"/>
</g>
<!-- IL1 -->
<g id="node7" class="node">
<title>IL1</title>
<ellipse fill="none" stroke="black" cx="381.31" cy="-1756" rx="27" ry="18"/>
<text text-anchor="middle" x="381.31" y="-1750.58" font-family="Times New Roman,serif" font-size="14.00">IL1</text>
</g>
<!-- RMD&#45;&gt;IL1 -->
<g id="edge7" class="edge">
<title>RMD&#45;&gt;IL1</title>
<path fill="none" stroke="black" stroke-width="5" d="M231.36,-1150.17C272.4,-1334.53 349.21,-1695.5 349.21,-1695.5 349.21,-1695.5 359.68,-1708.63 368.47,-1723.85"/>
<polygon fill="black" stroke="black" stroke-width="5" points="364.46,-1725.62 372.89,-1732.54 372.26,-1721.65 364.46,-1725.62"/>
</g>
<!-- IL2 -->
<g id="node8" class="node">
<title>IL2</title>
<ellipse fill="none" stroke="black" cx="381.31" cy="-1677" rx="27" ry="18"/>
<text text-anchor="middle" x="381.31" y="-1671.58" font-family="Times New Roman,serif" font-size="14.00">IL2</text>
</g>
<!-- RMD&#45;&gt;IL2 -->
<g id="edge8" class="edge">
<title>RMD&#45;&gt;IL2</title>
<path fill="none" stroke="gray" stroke-width="0.2" d="M234.63,-1149.19C276.34,-1314.3 349.21,-1616.5 349.21,-1616.5 349.21,-1616.5 362.16,-1632.74 371.35,-1650.04"/>
<polygon fill="gray" stroke="gray" stroke-width="0.2" points="368.09,-1651.34 375.59,-1658.83 374.4,-1648.3 368.09,-1651.34"/>
</g>
<!-- OLL -->
<g id="node9" class="node">
<title>OLL</title>
<ellipse fill="none" stroke="black" cx="381.31" cy="-1598" rx="28.61" ry="18"/>
<text text-anchor="middle" x="381.31" y="-1592.58" font-family="Times New Roman,serif" font-size="14.00">OLL</text>
</g>
<!-- RMD&#45;&gt;OLL -->
<g id="edge9" class="edge">
<title>RMD&#45;&gt;OLL</title>
<path fill="none" stroke="gray" stroke-width="2" d="M238.84,-1147.85C281.04,-1292.48 349.21,-1537.5 349.21,-1537.5 349.21,-1537.5 361,-1552.29 370.06,-1568.67"/>
<polygon fill="gray" stroke="gray" stroke-width="2" points="366.81,-1569.98 374.38,-1577.39 373.08,-1566.87 366.81,-1569.98"/>
</g>
<!-- OLQ -->
<g id="node10" class="node">
<title>OLQ</title>
<ellipse fill="none" stroke="black" cx="381.31" cy="-1519" rx="30.11" ry="18"/>
<text text-anchor="middle" x="381.31" y="-1513.58" font-family="Times New Roman,serif" font-size="14.00">OLQ</text>
</g>
<!-- RMD&#45;&gt;OLQ -->
<g id="edge10" class="edge">
<title>RMD&#45;&gt;OLQ</title>
<path fill="none" stroke="gray" stroke-width="2" d="M244.44,-1145.99C286.8,-1268.64 349.21,-1458.5 349.21,-1458.5 349.21,-1458.5 361,-1473.29 370.06,-1489.67"/>
<polygon fill="gray" stroke="gray" stroke-width="2" points="366.81,-1490.98 374.38,-1498.39 373.08,-1487.87 366.81,-1490.98"/>
</g>
<!-- PLN -->
<g id="node11" class="node">
<title>PLN</title>
<ellipse fill="none" stroke="black" cx="381.31" cy="-1440" rx="28.11" ry="18"/>
<text text-anchor="middle" x="381.31" y="-1434.58" font-family="Times New Roman,serif" font-size="14.00">PLN</text>
</g>
<!-- RMD&#45;&gt;PLN -->
<g id="edge11" class="edge">
<title>RMD&#45;&gt;PLN</title>
<path fill="none" stroke="gray" stroke-width="0.2" d="M252.05,-1142.79C293.87,-1241.74 349.21,-1379.5 349.21,-1379.5 349.21,-1379.5 362.16,-1395.74 371.35,-1413.04"/>
<polygon fill="gray" stroke="gray" stroke-width="0.2" points="368.09,-1414.34 375.59,-1421.83 374.4,-1411.3 368.09,-1414.34"/>
</g>
<!-- RIA -->
<g id="node12" class="node">
<title>RIA</title>
<ellipse fill="none" stroke="black" cx="381.31" cy="-1361" rx="27" ry="18"/>
<text text-anchor="middle" x="381.31" y="-1355.58" font-family="Times New Roman,serif" font-size="14.00">RIA</text>
</g>
<!-- RMD&#45;&gt;RIA -->
<g id="edge12" class="edge">
<title>RMD&#45;&gt;RIA</title>
<path fill="none" stroke="black" stroke-width="5" d="M262.73,-1136.97C302.7,-1210.4 349.21,-1300.5 349.21,-1300.5 349.21,-1300.5 359.68,-1313.63 368.47,-1328.85"/>
<polygon fill="black" stroke="black" stroke-width="5" points="364.46,-1330.62 372.89,-1337.54 372.26,-1326.65 364.46,-1330.62"/>
</g>
<!-- RIB -->
<g id="node13" class="node">
<title>RIB</title>
<ellipse fill="none" stroke="black" cx="381.31" cy="-1282" rx="27" ry="18"/>
<text text-anchor="middle" x="381.31" y="-1276.58" font-family="Times New Roman,serif" font-size="14.00">RIB</text>
</g>
<!-- RMD&#45;&gt;RIB -->
<g id="edge13" class="edge">
<title>RMD&#45;&gt;RIB</title>
<path fill="none" stroke="gray" stroke-width="0.2" d="M277.92,-1125.46C313.6,-1172.19 349.21,-1221.5 349.21,-1221.5 349.21,-1221.5 362.16,-1237.74 371.35,-1255.04"/>
<polygon fill="gray" stroke="gray" stroke-width="0.2" points="368.09,-1256.34 375.59,-1263.83 374.4,-1253.3 368.09,-1256.34"/>
</g>
<!-- RIG -->
<g id="node14" class="node">
<title>RIG</title>
<ellipse fill="none" stroke="black" cx="381.31" cy="-1203" rx="27.11" ry="18"/>
<text text-anchor="middle" x="381.31" y="-1197.58" font-family="Times New Roman,serif" font-size="14.00">RIG</text>
</g>
<!-- RMD&#45;&gt;RIG -->
<g id="edge14" class="edge">
<title>RMD&#45;&gt;RIG</title>
<path fill="none" stroke="gray" stroke-width="0.2" d="M293.26,-1107.88C320.34,-1132.45 347.41,-1159.1 364.01,-1178.32"/>
<polygon fill="gray" stroke="gray" stroke-width="0.2" points="361.18,-1180.39 370.26,-1185.84 366.56,-1175.92 361.18,-1180.39"/>
</g>
<!-- RIM -->
<g id="node15" class="node">
<title>RIM</title>
<ellipse fill="none" stroke="black" cx="381.31" cy="-1124" rx="28.11" ry="18"/>
<text text-anchor="middle" x="381.31" y="-1118.58" font-family="Times New Roman,serif" font-size="14.00">RIM</text>
</g>
<!-- RMD&#45;&gt;RIM -->
<g id="edge15" class="edge">
<title>RMD&#45;&gt;RIM</title>
<path fill="none" stroke="red" stroke-width="2" d="M309,-1075.75C326.47,-1084.21 343.07,-1093.16 355.85,-1101.28"/>
<polygon fill="red" stroke="red" stroke-width="2" points="353.68,-1104.04 363.92,-1106.76 357.61,-1098.25 353.68,-1104.04"/>
</g>
<!-- RIS -->
<g id="node16" class="node">
<title>RIS</title>
<ellipse fill="none" stroke="black" cx="381.31" cy="-1045" rx="27" ry="18"/>
<text text-anchor="middle" x="381.31" y="-1039.58" font-family="Times New Roman,serif" font-size="14.00">RIS</text>
</g>
<!-- RMD&#45;&gt;RIS -->
<g id="edge16" class="edge">
<title>RMD&#45;&gt;RIS</title>
<path fill="none" stroke="gray" stroke-width="0.2" d="M312.5,-1029.23C325.88,-1029.73 338.62,-1030.76 349.38,-1032.33"/>
<polygon fill="gray" stroke="gray" stroke-width="0.2" points="348.66,-1035.76 359.12,-1034.02 349.86,-1028.86 348.66,-1035.76"/>
</g>
<!-- RIV -->
<g id="node17" class="node">
<title>RIV</title>
<ellipse fill="none" stroke="black" cx="381.31" cy="-966" rx="27" ry="18"/>
<text text-anchor="middle" x="381.31" y="-960.58" font-family="Times New Roman,serif" font-size="14.00">RIV</text>
</g>
<!-- RMD&#45;&gt;RIV -->
<g id="edge17" class="edge">
<title>RMD&#45;&gt;RIV</title>
<path fill="none" stroke="gray" stroke-width="2" d="M297.09,-987.65C312.96,-980.57 328.66,-974.27 342.07,-969.73"/>
<polygon fill="gray" stroke="gray" stroke-width="2" points="342.78,-973.18 351.28,-966.85 340.69,-966.5 342.78,-973.18"/>
</g>
<!-- RME -->
<g id="node18" class="node">
<title>RME</title>
<ellipse fill="none" stroke="black" cx="381.31" cy="-887" rx="30.61" ry="18"/>
<text text-anchor="middle" x="381.31" y="-881.58" font-family="Times New Roman,serif" font-size="14.00">RME</text>
</g>
<!-- RMD&#45;&gt;RME -->
<g id="edge18" class="edge">
<title>RMD&#45;&gt;RME</title>
<path fill="none" stroke="gray" stroke-width="5" d="M277.53,-964.39C300.15,-943.17 324.25,-922.11 343.42,-907.02"/>
<polygon fill="gray" stroke="gray" stroke-width="5" points="345.83,-910.68 351.15,-901.15 340.54,-903.71 345.83,-910.68"/>
</g>
<!-- RMF -->
<g id="node19" class="node">
<title>RMF</title>
<ellipse fill="none" stroke="black" cx="381.31" cy="-808" rx="30.61" ry="18"/>
<text text-anchor="middle" x="381.31" y="-802.58" font-family="Times New Roman,serif" font-size="14.00">RMF</text>
</g>
<!-- RMD&#45;&gt;RMF -->
<g id="edge19" class="edge">
<title>RMD&#45;&gt;RMF</title>
<path fill="none" stroke="gray" stroke-width="5" d="M261.09,-952.05C292.59,-905.4 328.66,-855.01 346.07,-831.42"/>
<polygon fill="gray" stroke="gray" stroke-width="5" points="349.48,-834.16 352.04,-823.55 342.51,-828.88 349.48,-834.16"/>
</g>
<!-- RMG -->
<g id="node20" class="node">
<title>RMG</title>
<ellipse fill="none" stroke="black" cx="381.31" cy="-729" rx="32.1" ry="18"/>
<text text-anchor="middle" x="381.31" y="-723.58" font-family="Times New Roman,serif" font-size="14.00">RMG</text>
</g>
<!-- RMD&#45;&gt;RMG -->
<g id="edge20" class="edge">
<title>RMD&#45;&gt;RMG</title>
<path fill="none" stroke="gray" stroke-width="2" d="M249.11,-946.24C284.49,-873.3 331.05,-782.7 348.78,-751.06"/>
<polygon fill="gray" stroke="gray" stroke-width="2" points="351.77,-752.89 353.94,-742.52 345.77,-749.27 351.77,-752.89"/>
</g>
<!-- RMH -->
<g id="node21" class="node">
<title>RMH</title>
<ellipse fill="none" stroke="black" cx="381.31" cy="-650" rx="31.6" ry="18"/>
<text text-anchor="middle" x="381.31" y="-644.58" font-family="Times New Roman,serif" font-size="14.00">RMH</text>
</g>
<!-- RMD&#45;&gt;RMH -->
<g id="edge21" class="edge">
<title>RMD&#45;&gt;RMH</title>
<path fill="none" stroke="gray" stroke-width="nan" d="M241.38,-942.87C283.72,-831.09 349.21,-668.5 349.21,-668.5 349.21,-668.5 351.81,-665.16 355.5,-660.92"/>
<polygon fill="gray" stroke="gray" stroke-width="nan" points="nan,-nan nan,-nan nan,-nan nan,-nan"/>
</g>
<!-- SIA -->
<g id="node22" class="node">
<title>SIA</title>
<ellipse fill="none" stroke="black" cx="381.31" cy="-571" rx="27" ry="18"/>
<text text-anchor="middle" x="381.31" y="-565.58" font-family="Times New Roman,serif" font-size="14.00">SIA</text>
</g>
<!-- RMD&#45;&gt;SIA -->
<g id="edge22" class="edge">
<title>RMD&#45;&gt;SIA</title>
<path fill="none" stroke="gray" stroke-width="2" d="M235.84,-940.97C272.74,-822.04 332.6,-639.14 351.7,-591.05"/>
<polygon fill="gray" stroke="gray" stroke-width="2" points="354.79,-592.71 355.79,-582.17 348.43,-589.79 354.79,-592.71"/>
</g>
<!-- SIB -->
<g id="node23" class="node">
<title>SIB</title>
<ellipse fill="none" stroke="black" cx="381.31" cy="-492" rx="27" ry="18"/>
<text text-anchor="middle" x="381.31" y="-486.57" font-family="Times New Roman,serif" font-size="14.00">SIB</text>
</g>
<!-- RMD&#45;&gt;SIB -->
<g id="edge23" class="edge">
<title>RMD&#45;&gt;SIB</title>
<path fill="none" stroke="gray" stroke-width="5" d="M231.78,-939.99C267.77,-803.29 330.68,-576.22 351.11,-515.51"/>
<polygon fill="gray" stroke="gray" stroke-width="5" points="355.17,-517.13 354.77,-506.22 347.03,-513.92 355.17,-517.13"/>
</g>
<!-- SMB -->
<g id="node24" class="node">
<title>SMB</title>
<ellipse fill="none" stroke="black" cx="381.31" cy="-413" rx="30.11" ry="18"/>
<text text-anchor="middle" x="381.31" y="-407.57" font-family="Times New Roman,serif" font-size="14.00">SMB</text>
</g>
<!-- RMD&#45;&gt;SMB -->
<g id="edge24" class="edge">
<title>RMD&#45;&gt;SMB</title>
<path fill="none" stroke="black" stroke-width="5" d="M228.71,-939.23C264.26,-783.82 330.96,-506.32 350.64,-438.12"/>
<polygon fill="black" stroke="black" stroke-width="5" points="354.76,-439.58 353.81,-428.7 346.47,-436.78 354.76,-439.58"/>
</g>
<!-- SMD -->
<g id="node25" class="node">
<title>SMD</title>
<ellipse fill="none" stroke="black" cx="381.31" cy="-334" rx="30.61" ry="18"/>
<text text-anchor="middle" x="381.31" y="-328.57" font-family="Times New Roman,serif" font-size="14.00">SMD</text>
</g>
<!-- RMD&#45;&gt;SMD -->
<g id="edge25" class="edge">
<title>RMD&#45;&gt;SMD</title>
<path fill="none" stroke="gray" stroke-width="2" d="M226.32,-938.59C261.94,-762.54 333.63,-424.8 351.68,-356.31"/>
<polygon fill="gray" stroke="gray" stroke-width="2" points="354.94,-357.6 354.6,-347.02 348.27,-355.51 354.94,-357.6"/>
</g>
<!-- URA -->
<g id="node26" class="node">
<title>URA</title>
<ellipse fill="none" stroke="black" cx="381.31" cy="-255" rx="30.11" ry="18"/>
<text text-anchor="middle" x="381.31" y="-249.57" font-family="Times New Roman,serif" font-size="14.00">URA</text>
</g>
<!-- RMD&#45;&gt;URA -->
<g id="edge26" class="edge">
<title>RMD&#45;&gt;URA</title>
<path fill="none" stroke="gray" stroke-width="5" d="M224.32,-938.48C258.89,-747.85 332.15,-362.19 351.46,-280.22"/>
<polygon fill="gray" stroke="gray" stroke-width="5" points="355.62,-281.61 354.12,-270.8 347.19,-279.24 355.62,-281.61"/>
</g>
<!-- URB -->
<g id="node27" class="node">
<title>URB</title>
<ellipse fill="none" stroke="black" cx="381.31" cy="-176" rx="29.61" ry="18"/>
<text text-anchor="middle" x="381.31" y="-170.57" font-family="Times New Roman,serif" font-size="14.00">URB</text>
</g>
<!-- RMD&#45;&gt;URB -->
<g id="edge27" class="edge">
<title>RMD&#45;&gt;URB</title>
<path fill="none" stroke="gray" stroke-width="2" d="M222.75,-938C257.2,-728.45 334.49,-279.03 352.43,-198.27"/>
<polygon fill="gray" stroke="gray" stroke-width="2" points="355.78,-199.28 355.01,-188.71 349.02,-197.45 355.78,-199.28"/>
</g>
<!-- URX -->
<g id="node28" class="node">
<title>URX</title>
<ellipse fill="none" stroke="black" cx="381.31" cy="-97" rx="30.11" ry="18"/>
<text text-anchor="middle" x="381.31" y="-91.58" font-family="Times New Roman,serif" font-size="14.00">URX</text>
</g>
<!-- RMD&#45;&gt;URX -->
<g id="edge28" class="edge">
<title>RMD&#45;&gt;URX</title>
<path fill="none" stroke="gray" stroke-width="0.2" d="M221.38,-938C255.59,-710.36 336.68,-194.22 353.21,-116.57"/>
<polygon fill="gray" stroke="gray" stroke-width="0.2" points="356.55,-117.65 355.73,-107.08 349.78,-115.85 356.55,-117.65"/>
</g>
<!-- URY -->
<g id="node29" class="node">
<title>URY</title>
<ellipse fill="none" stroke="black" cx="381.31" cy="-18" rx="30.11" ry="18"/>
<text text-anchor="middle" x="381.31" y="-12.57" font-family="Times New Roman,serif" font-size="14.00">URY</text>
</g>
<!-- RMD&#45;&gt;URY -->
<g id="edge29" class="edge">
<title>RMD&#45;&gt;URY</title>
<path fill="none" stroke="gray" stroke-width="0.2" d="M220.25,-937.78C253.85,-695.12 336.94,-120.3 353.34,-37.68"/>
<polygon fill="gray" stroke="gray" stroke-width="0.2" points="356.71,-38.64 355.73,-28.09 349.92,-36.94 356.71,-38.64"/>
</g>
<!-- ADE&#45;&gt;RMD -->
<g id="edge30" class="edge">
<title>ADE&#45;&gt;RMD</title>
<path fill="none" stroke="red" stroke-width="5" d="M356.11,-2141.55C352.1,-2137.12 349.21,-2133.5 349.21,-2133.5 349.21,-2133.5 258.06,-1453.38 221.3,-1168.19"/>
<polygon fill="red" stroke="red" stroke-width="5" points="225.69,-1167.99 220.08,-1158.63 217.01,-1169.11 225.69,-1167.99"/>
</g>
<!-- AVK&#45;&gt;RMD -->
<g id="edge31" class="edge">
<title>AVK&#45;&gt;RMD</title>
<path fill="none" stroke="gray" stroke-width="5" d="M355.81,-1904.21C351.95,-1899.94 349.21,-1896.5 349.21,-1896.5 349.21,-1896.5 264.34,-1403.9 225.37,-1167.85"/>
<polygon fill="gray" stroke="gray" stroke-width="5" points="229.71,-1167.31 223.77,-1158.15 221.08,-1168.73 229.71,-1167.31"/>
</g>
<!-- CEP&#45;&gt;RMD -->
<g id="edge32" class="edge">
<title>CEP&#45;&gt;RMD</title>
<path fill="none" stroke="black" stroke-width="5" d="M356.42,-1825.89C352.25,-1821.31 349.21,-1817.5 349.21,-1817.5 349.21,-1817.5 266.97,-1385.59 227.22,-1167.48"/>
<polygon fill="black" stroke="black" stroke-width="5" points="231.53,-1166.71 225.44,-1157.65 222.92,-1168.27 231.53,-1166.71"/>
</g>
<!-- IL1&#45;&gt;RMD -->
<g id="edge33" class="edge">
<title>IL1&#45;&gt;RMD</title>
<path fill="none" stroke="black" stroke-width="5" d="M357.06,-1747.58C352.56,-1742.7 349.21,-1738.5 349.21,-1738.5 349.21,-1738.5 270.05,-1366.51 229.52,-1167.21"/>
<polygon fill="black" stroke="black" stroke-width="5" points="233.84,-1166.45 227.56,-1157.52 225.26,-1168.19 233.84,-1166.45"/>
</g>
<!-- IL2&#45;&gt;RMD -->
<g id="edge34" class="edge">
<title>IL2&#45;&gt;RMD</title>
<path fill="none" stroke="red" stroke-width="5" d="M357.06,-1668.58C352.56,-1663.7 349.21,-1659.5 349.21,-1659.5 349.21,-1659.5 273.54,-1345.7 232.29,-1166.37"/>
<polygon fill="red" stroke="red" stroke-width="5" points="236.61,-1165.62 230.11,-1156.85 228.08,-1167.58 236.61,-1165.62"/>
</g>
<!-- OLL&#45;&gt;RMD -->
<g id="edge35" class="edge">
<title>OLL&#45;&gt;RMD</title>
<path fill="none" stroke="black" stroke-width="5" d="M356.42,-1588.89C352.25,-1584.31 349.21,-1580.5 349.21,-1580.5 349.21,-1580.5 277.75,-1323.63 235.86,-1165.47"/>
<polygon fill="black" stroke="black" stroke-width="5" points="240.15,-1164.59 233.37,-1156.04 231.69,-1166.83 240.15,-1164.59"/>
</g>
<!-- OLQ&#45;&gt;RMD -->
<g id="edge36" class="edge">
<title>OLQ&#45;&gt;RMD</title>
<path fill="none" stroke="black" stroke-width="5" d="M355.81,-1509.21C351.95,-1504.94 349.21,-1501.5 349.21,-1501.5 349.21,-1501.5 282.93,-1299.89 240.62,-1164.39"/>
<polygon fill="black" stroke="black" stroke-width="5" points="244.84,-1163.24 237.69,-1154.99 236.49,-1165.84 244.84,-1163.24"/>
</g>
<!-- PLN&#45;&gt;RMD -->
<g id="edge37" class="edge">
<title>PLN&#45;&gt;RMD</title>
<path fill="none" stroke="gray" stroke-width="0.2" d="M356.42,-1430.89C352.25,-1426.31 349.21,-1422.5 349.21,-1422.5 349.21,-1422.5 287.07,-1267.8 244.72,-1156.2"/>
<polygon fill="gray" stroke="gray" stroke-width="0.2" points="248.11,-1155.29 241.3,-1147.18 241.57,-1157.77 248.11,-1155.29"/>
</g>
<!-- RIA&#45;&gt;RMD -->
<g id="edge38" class="edge">
<title>RIA&#45;&gt;RMD</title>
<path fill="none" stroke="black" stroke-width="5" d="M357.06,-1352.58C352.56,-1347.7 349.21,-1343.5 349.21,-1343.5 349.21,-1343.5 297.4,-1243.15 256.16,-1158.56"/>
<polygon fill="black" stroke="black" stroke-width="5" points="260.14,-1156.75 251.84,-1149.67 252.27,-1160.58 260.14,-1156.75"/>
</g>
<!-- RIB&#45;&gt;RMD -->
<g id="edge39" class="edge">
<title>RIB&#45;&gt;RMD</title>
<path fill="none" stroke="gray" stroke-width="2" d="M357.06,-1273.58C352.56,-1268.7 349.21,-1264.5 349.21,-1264.5 349.21,-1264.5 306.71,-1205.65 268.05,-1148.64"/>
<polygon fill="gray" stroke="gray" stroke-width="2" points="271.07,-1146.87 262.58,-1140.54 265.27,-1150.78 271.07,-1146.87"/>
</g>
<!-- RIG&#45;&gt;RMD -->
<g id="edge40" class="edge">
<title>RIG&#45;&gt;RMD</title>
<path fill="none" stroke="blue" stroke-width="5" d="M357.74,-1193.78C340.15,-1181.23 314.57,-1159.63 289.41,-1136.62"/>
<polygon fill="blue" stroke="blue" stroke-width="5" points="292.41,-1133.43 282.1,-1129.85 286.47,-1139.85 292.41,-1133.43"/>
</g>
<!-- RIM&#45;&gt;RMD -->
<g id="edge41" class="edge">
<title>RIM&#45;&gt;RMD</title>
<path fill="none" stroke="gray" stroke-width="5" d="M353.06,-1123.74C341.42,-1120.37 327.02,-1115.06 311.83,-1108.72"/>
<polygon fill="gray" stroke="gray" stroke-width="5" points="313.73,-1104.77 302.81,-1104.82 310.25,-1112.81 313.73,-1104.77"/>
</g>
<!-- RIS&#45;&gt;RMD -->
<g id="edge42" class="edge">
<title>RIS&#45;&gt;RMD</title>
<path fill="none" stroke="black" stroke-width="5" d="M359.41,-1055.93C350.82,-1057.71 340.12,-1059.03 328.4,-1059.9"/>
<polygon fill="black" stroke="black" stroke-width="5" points="328.47,-1055.51 318.73,-1060.43 328.95,-1064.25 328.47,-1055.51"/>
</g>
<!-- RIV&#45;&gt;RMD -->
<g id="edge43" class="edge">
<title>RIV&#45;&gt;RMD</title>
<path fill="none" stroke="black" stroke-width="5" d="M366.43,-981.54C356,-989.21 340.61,-998.19 323.43,-1007.04"/>
<polygon fill="black" stroke="black" stroke-width="5" points="321.57,-1003.08 314.58,-1011.46 325.48,-1010.91 321.57,-1003.08"/>
</g>
<!-- RME&#45;&gt;RMD -->
<g id="edge44" class="edge">
<title>RME&#45;&gt;RMD</title>
<path fill="none" stroke="black" stroke-width="5" d="M370.2,-904.24C356.79,-921.09 331.71,-946.49 305.13,-971.22"/>
<polygon fill="black" stroke="black" stroke-width="5" points="302.26,-967.92 297.85,-977.91 308.18,-974.36 302.26,-967.92"/>
</g>
<!-- RMF&#45;&gt;RMD -->
<g id="edge45" class="edge">
<title>RMF&#45;&gt;RMD</title>
<path fill="none" stroke="gray" stroke-width="5" d="M375.72,-826.05C367.07,-846.53 349.21,-869.5 349.21,-869.5 349.21,-869.5 319.95,-909.81 287.9,-951.97"/>
<polygon fill="gray" stroke="gray" stroke-width="5" points="284.51,-949.21 281.91,-959.81 291.46,-954.52 284.51,-949.21"/>
</g>
<!-- RMG&#45;&gt;RMD -->
<g id="edge46" class="edge">
<title>RMG&#45;&gt;RMD</title>
<path fill="none" stroke="black" stroke-width="5" d="M375.72,-747.05C367.07,-767.53 349.21,-790.5 349.21,-790.5 349.21,-790.5 308.33,-869.4 270.29,-939.54"/>
<polygon fill="black" stroke="black" stroke-width="5" points="266.65,-937.08 265.71,-947.95 274.33,-941.26 266.65,-937.08"/>
</g>
<!-- RMH&#45;&gt;RMD -->
<g id="edge47" class="edge">
<title>RMH&#45;&gt;RMD</title>
<path fill="none" stroke="black" stroke-width="5" d="M375.72,-668.05C367.07,-688.53 349.21,-711.5 349.21,-711.5 349.21,-711.5 299.15,-835.79 258.26,-932.83"/>
<polygon fill="black" stroke="black" stroke-width="5" points="254.34,-930.88 254.47,-941.79 262.4,-934.28 254.34,-930.88"/>
</g>
<!-- SIA&#45;&gt;RMD -->
<g id="edge48" class="edge">
<title>SIA&#45;&gt;RMD</title>
<path fill="none" stroke="gray" stroke-width="0.2" d="M375.72,-588.9C367.07,-609.1 349.21,-631.5 349.21,-631.5 349.21,-631.5 289.93,-811.84 247.7,-934.55"/>
<polygon fill="gray" stroke="gray" stroke-width="0.2" points="244.49,-933.13 244.54,-943.73 251.1,-935.41 244.49,-933.13"/>
</g>
<!-- SIB&#45;&gt;RMD -->
<g id="edge49" class="edge">
<title>SIB&#45;&gt;RMD</title>
<path fill="none" stroke="gray" stroke-width="0.2" d="M375.72,-509.9C367.07,-530.1 349.21,-552.5 349.21,-552.5 349.21,-552.5 283.94,-787.11 241.59,-932.69"/>
<polygon fill="gray" stroke="gray" stroke-width="0.2" points="238.36,-931.28 238.92,-941.86 245.08,-933.23 238.36,-931.28"/>
</g>
<!-- SMB&#45;&gt;RMD -->
<g id="edge50" class="edge">
<title>SMB&#45;&gt;RMD</title>
<path fill="none" stroke="gray" stroke-width="nan" d="M375.72,-430.9C367.07,-451.1 349.21,-473.5 349.21,-473.5 349.21,-473.5 276.34,-775.7 234.63,-940.81"/>
<polygon fill="gray" stroke="gray" stroke-width="nan" points="nan,-nan nan,-nan nan,-nan nan,-nan"/>
</g>
<!-- SMD&#45;&gt;RMD -->
<g id="edge51" class="edge">
<title>SMD&#45;&gt;RMD</title>
<path fill="none" stroke="black" stroke-width="5" d="M375.72,-351.9C367.07,-372.1 349.21,-394.5 349.21,-394.5 349.21,-394.5 276.61,-735.66 234.87,-924.04"/>
<polygon fill="black" stroke="black" stroke-width="5" points="230.61,-923.03 232.72,-933.74 239.16,-924.93 230.61,-923.03"/>
</g>
<!-- URA&#45;&gt;RMD -->
<g id="edge52" class="edge">
<title>URA&#45;&gt;RMD</title>
<path fill="none" stroke="gray" stroke-width="2" d="M375.72,-272.9C367.07,-293.1 349.21,-315.5 349.21,-315.5 349.21,-315.5 272.24,-719.73 231.24,-926.57"/>
<polygon fill="gray" stroke="gray" stroke-width="2" points="227.82,-925.84 229.3,-936.33 234.68,-927.2 227.82,-925.84"/>
</g>
<!-- URB&#45;&gt;RMD -->
<g id="edge53" class="edge">
<title>URB&#45;&gt;RMD</title>
<path fill="none" stroke="black" stroke-width="0.2" d="M375.72,-193.9C367.07,-214.1 349.21,-236.5 349.21,-236.5 349.21,-236.5 268.45,-705.27 228.31,-929.11"/>
<polygon fill="black" stroke="black" stroke-width="0.2" points="224.92,-928.16 226.6,-938.63 231.81,-929.4 224.92,-928.16"/>
</g>
<!-- URX&#45;&gt;RMD -->
<g id="edge54" class="edge">
<title>URX&#45;&gt;RMD</title>
<path fill="none" stroke="gray" stroke-width="2" d="M375.72,-114.9C367.07,-135.1 349.21,-157.5 349.21,-157.5 349.21,-157.5 266.44,-683.65 226.84,-925.89"/>
<polygon fill="gray" stroke="gray" stroke-width="2" points="223.41,-925.19 225.25,-935.62 230.32,-926.32 223.41,-925.19"/>
</g>
<!-- URY&#45;&gt;RMD -->
<g id="edge55" class="edge">
<title>URY&#45;&gt;RMD</title>
<path fill="none" stroke="gray" stroke-width="5" d="M375.72,-35.9C367.07,-56.1 349.21,-78.5 349.21,-78.5 349.21,-78.5 264.74,-662.12 225.64,-922.49"/>
<polygon fill="gray" stroke="gray" stroke-width="5" points="221.34,-921.7 224.17,-932.24 229.99,-923 221.34,-921.7"/>
</g>
<!-- AIM -->
<g id="node30" class="node">
<title>AIM</title>
<ellipse fill="none" stroke="black" cx="30.61" cy="-1440" rx="28.11" ry="18"/>
<text text-anchor="middle" x="30.61" y="-1434.58" font-family="Times New Roman,serif" font-size="14.00">AIM</text>
</g>
<!-- AIM&#45;&gt;RMD -->
<g id="edge56" class="edge">
<title>AIM&#45;&gt;RMD</title>
<path fill="none" stroke="gray" stroke-width="0.2" d="M43.99,-1423.69C52.1,-1413 61.21,-1401 61.21,-1401 61.21,-1401 118.21,-1259.1 160.23,-1154.48"/>
<polygon fill="gray" stroke="gray" stroke-width="0.2" points="163.4,-1155.98 163.88,-1145.39 156.91,-1153.37 163.4,-1155.98"/>
</g>
<!-- AIN -->
<g id="node31" class="node">
<title>AIN</title>
<ellipse fill="none" stroke="black" cx="30.61" cy="-1361" rx="27" ry="18"/>
<text text-anchor="middle" x="30.61" y="-1355.58" font-family="Times New Roman,serif" font-size="14.00">AIN</text>
</g>
<!-- AIN&#45;&gt;RMD -->
<g id="edge57" class="edge">
<title>AIN&#45;&gt;RMD</title>
<path fill="none" stroke="gray" stroke-width="0.2" d="M43.65,-1345.14C51.84,-1334.34 61.21,-1322 61.21,-1322 61.21,-1322 109.66,-1228.15 150.15,-1149.71"/>
<polygon fill="gray" stroke="gray" stroke-width="0.2" points="153.18,-1151.48 154.66,-1140.98 146.96,-1148.26 153.18,-1151.48"/>
</g>
<!-- ALA -->
<g id="node32" class="node">
<title>ALA</title>
<ellipse fill="none" stroke="black" cx="30.61" cy="-1282" rx="29.11" ry="18"/>
<text text-anchor="middle" x="30.61" y="-1276.58" font-family="Times New Roman,serif" font-size="14.00">ALA</text>
</g>
<!-- ALA&#45;&gt;RMD -->
<g id="edge58" class="edge">
<title>ALA&#45;&gt;RMD</title>
<path fill="none" stroke="gray" stroke-width="0.2" d="M43.99,-1265.69C52.1,-1255 61.21,-1243 61.21,-1243 61.21,-1243 98.65,-1191.16 135.22,-1140.53"/>
<polygon fill="gray" stroke="gray" stroke-width="0.2" points="137.88,-1142.82 140.89,-1132.67 132.2,-1138.73 137.88,-1142.82"/>
</g>
<!-- ALM -->
<g id="node33" class="node">
<title>ALM</title>
<ellipse fill="none" stroke="black" cx="30.61" cy="-1203" rx="30.61" ry="18"/>
<text text-anchor="middle" x="30.61" y="-1197.58" font-family="Times New Roman,serif" font-size="14.00">ALM</text>
</g>
<!-- ALM&#45;&gt;RMD -->
<g id="edge59" class="edge">
<title>ALM&#45;&gt;RMD</title>
<path fill="none" stroke="gray" stroke-width="0.2" d="M48.16,-1187.85C64.58,-1172.81 91.08,-1148.55 117.62,-1124.26"/>
<polygon fill="gray" stroke="gray" stroke-width="0.2" points="119.86,-1126.96 124.87,-1117.62 115.13,-1121.79 119.86,-1126.96"/>
</g>
<!-- ALN -->
<g id="node34" class="node">
<title>ALN</title>
<ellipse fill="none" stroke="black" cx="30.61" cy="-1124" rx="29.11" ry="18"/>
<text text-anchor="middle" x="30.61" y="-1118.58" font-family="Times New Roman,serif" font-size="14.00">ALN</text>
</g>
<!-- ALN&#45;&gt;RMD -->
<g id="edge60" class="edge">
<title>ALN&#45;&gt;RMD</title>
<path fill="none" stroke="gray" stroke-width="0.2" d="M54.53,-1113.51C66.21,-1108.16 81.35,-1101.23 97.5,-1093.84"/>
<polygon fill="gray" stroke="gray" stroke-width="0.2" points="98.64,-1097.17 106.28,-1089.82 95.73,-1090.8 98.64,-1097.17"/>
</g>
<!-- AVF -->
<g id="node35" class="node">
<title>AVF</title>
<ellipse fill="none" stroke="black" cx="30.61" cy="-1045" rx="29.11" ry="18"/>
<text text-anchor="middle" x="30.61" y="-1039.58" font-family="Times New Roman,serif" font-size="14.00">AVF</text>
</g>
<!-- AVF&#45;&gt;RMD -->
<g id="edge61" class="edge">
<title>AVF&#45;&gt;RMD</title>
<path fill="none" stroke="gray" stroke-width="0.2" d="M60.11,-1045C68,-1045 77.08,-1045 86.76,-1045"/>
<polygon fill="gray" stroke="gray" stroke-width="0.2" points="86.75,-1048.5 96.75,-1045 86.75,-1041.5 86.75,-1048.5"/>
</g>
<!-- HSN -->
<g id="node36" class="node">
<title>HSN</title>
<ellipse fill="none" stroke="black" cx="30.61" cy="-966" rx="29.11" ry="18"/>
<text text-anchor="middle" x="30.61" y="-960.58" font-family="Times New Roman,serif" font-size="14.00">HSN</text>
</g>
<!-- HSN&#45;&gt;RMD -->
<g id="edge62" class="edge">
<title>HSN&#45;&gt;RMD</title>
<path fill="none" stroke="gray" stroke-width="nan" d="M54.53,-976.49C68.37,-982.83 87.07,-991.39 106.56,-1000.3"/>
<polygon fill="gray" stroke="gray" stroke-width="nan" points="nan,-nan nan,-nan nan,-nan nan,-nan"/>
</g>
<!-- PVR -->
<g id="node37" class="node">
<title>PVR</title>
<ellipse fill="none" stroke="black" cx="30.61" cy="-887" rx="29.11" ry="18"/>
<text text-anchor="middle" x="30.61" y="-881.58" font-family="Times New Roman,serif" font-size="14.00">PVR</text>
</g>
<!-- PVR&#45;&gt;RMD -->
<g id="edge63" class="edge">
<title>PVR&#45;&gt;RMD</title>
<path fill="none" stroke="blue" stroke-width="2" d="M47.84,-901.86C63.76,-916.44 89.35,-939.86 115.26,-963.58"/>
<polygon fill="blue" stroke="blue" stroke-width="2" points="112.83,-966.1 122.57,-970.27 117.56,-960.93 112.83,-966.1"/>
</g>
<!-- RIC -->
<g id="node38" class="node">
<title>RIC</title>
<ellipse fill="none" stroke="black" cx="30.61" cy="-808" rx="27" ry="18"/>
<text text-anchor="middle" x="30.61" y="-802.58" font-family="Times New Roman,serif" font-size="14.00">RIC</text>
</g>
<!-- RIC&#45;&gt;RMD -->
<g id="edge64" class="edge">
<title>RIC&#45;&gt;RMD</title>
<path fill="none" stroke="gray" stroke-width="0.2" d="M43.65,-824.27C51.84,-835.34 61.21,-848 61.21,-848 61.21,-848 98.52,-899.39 135.02,-949.68"/>
<polygon fill="gray" stroke="gray" stroke-width="0.2" points="131.98,-951.45 140.69,-957.49 137.64,-947.34 131.98,-951.45"/>
</g>
<!-- RIP -->
<g id="node39" class="node">
<title>RIP</title>
<ellipse fill="none" stroke="black" cx="30.61" cy="-729" rx="27" ry="18"/>
<text text-anchor="middle" x="30.61" y="-723.58" font-family="Times New Roman,serif" font-size="14.00">RIP</text>
</g>
<!-- RIP&#45;&gt;RMD -->
<g id="edge65" class="edge">
<title>RIP&#45;&gt;RMD</title>
<path fill="none" stroke="gray" stroke-width="5" d="M43.65,-745.27C51.84,-756.34 61.21,-769 61.21,-769 61.21,-769 107.37,-858.09 147.24,-935.04"/>
<polygon fill="gray" stroke="gray" stroke-width="5" points="143.24,-936.84 151.73,-943.71 151.01,-932.81 143.24,-936.84"/>
</g>
<!-- SAA -->
<g id="node40" class="node">
<title>SAA</title>
<ellipse fill="none" stroke="black" cx="30.61" cy="-650" rx="29.11" ry="18"/>
<text text-anchor="middle" x="30.61" y="-644.58" font-family="Times New Roman,serif" font-size="14.00">SAA</text>
</g>
<!-- SAA&#45;&gt;RMD -->
<g id="edge66" class="edge">
<title>SAA&#45;&gt;RMD</title>
<path fill="none" stroke="gray" stroke-width="0.2" d="M43.65,-666.27C51.84,-677.34 61.21,-690 61.21,-690 61.21,-690 118.21,-831.5 160.23,-935.83"/>
<polygon fill="gray" stroke="gray" stroke-width="0.2" points="156.9,-936.92 163.88,-944.89 163.39,-934.3 156.9,-936.92"/>
</g>
</g>
</svg>
