<?xml version="1.0" encoding="UTF-8" standalone="no"?>
<!DOCTYPE svg PUBLIC "-//W3C//DTD SVG 1.1//EN"
 "http://www.w3.org/Graphics/SVG/1.1/DTD/svg11.dtd">
<!-- Generated by graphviz version 11.0.0 (20240428.1522)
 -->
<!-- Pages: 1 -->
<svg width="422pt" height="992pt"
 viewBox="0.00 0.00 422.41 992.00" xmlns="http://www.w3.org/2000/svg" xmlns:xlink="http://www.w3.org/1999/xlink">
<g id="graph0" class="graph" transform="scale(1 1) rotate(0) translate(4 988)">
<polygon fill="white" stroke="none" points="-4,4 -4,-988 418.41,-988 418.41,4 -4,4"/>
<!-- RME -->
<g id="node1" class="node">
<title>RME</title>
<ellipse fill="none" stroke="black" cx="207.21" cy="-492" rx="108" ry="108"/>
<text text-anchor="middle" x="207.21" y="-473" font-family="Times New Roman,serif" font-size="50.00">RME</text>
</g>
<!-- RME&#45;&gt;RME -->
<g id="edge1" class="edge">
<title>RME&#45;&gt;RME</title>
<path fill="none" stroke="gray" stroke-width="5" d="M174.59,-595.39C176.53,-622.51 187.4,-643 207.21,-643 222.91,-643 233,-630.12 237.47,-611.26"/>
<polygon fill="gray" stroke="gray" stroke-width="5" points="241.77,-612.1 238.9,-601.56 233.11,-610.81 241.77,-612.1"/>
</g>
<!-- AVE -->
<g id="node2" class="node">
<title>AVE</title>
<ellipse fill="none" stroke="black" cx="382.81" cy="-848" rx="29.11" ry="18"/>
<text text-anchor="middle" x="382.81" y="-842.58" font-family="Times New Roman,serif" font-size="14.00">AVE</text>
</g>
<!-- RME&#45;&gt;AVE -->
<g id="edge2" class="edge">
<title>RME&#45;&gt;AVE</title>
<path fill="none" stroke="blue" stroke-width="5" d="M252.47,-590.13C294.47,-683.23 351.21,-809 351.21,-809 351.21,-809 354.7,-813.46 359.33,-819.36"/>
<polygon fill="blue" stroke="blue" stroke-width="5" points="355.54,-821.61 365.16,-826.78 362.43,-816.21 355.54,-821.61"/>
</g>
<!-- IL1 -->
<g id="node3" class="node">
<title>IL1</title>
<ellipse fill="none" stroke="black" cx="382.81" cy="-769" rx="27" ry="18"/>
<text text-anchor="middle" x="382.81" y="-763.58" font-family="Times New Roman,serif" font-size="14.00">IL1</text>
</g>
<!-- RME&#45;&gt;IL1 -->
<g id="edge3" class="edge">
<title>RME&#45;&gt;IL1</title>
<path fill="none" stroke="gray" stroke-width="2" d="M271.55,-579.28C309.8,-639.59 351.21,-708.5 351.21,-708.5 351.21,-708.5 362.81,-723.29 371.72,-739.67"/>
<polygon fill="gray" stroke="gray" stroke-width="2" points="368.44,-740.92 375.97,-748.38 374.74,-737.86 368.44,-740.92"/>
</g>
<!-- OLL -->
<g id="node4" class="node">
<title>OLL</title>
<ellipse fill="none" stroke="black" cx="382.81" cy="-690" rx="28.61" ry="18"/>
<text text-anchor="middle" x="382.81" y="-684.58" font-family="Times New Roman,serif" font-size="14.00">OLL</text>
</g>
<!-- RME&#45;&gt;OLL -->
<g id="edge4" class="edge">
<title>RME&#45;&gt;OLL</title>
<path fill="none" stroke="gray" stroke-width="0.2" d="M286.63,-565.38C317.33,-599.91 349.45,-638.76 367.42,-664.19"/>
<polygon fill="gray" stroke="gray" stroke-width="0.2" points="364.45,-666.06 372.98,-672.34 370.24,-662.11 364.45,-666.06"/>
</g>
<!-- RIB -->
<g id="node5" class="node">
<title>RIB</title>
<ellipse fill="none" stroke="black" cx="382.81" cy="-611" rx="27" ry="18"/>
<text text-anchor="middle" x="382.81" y="-605.58" font-family="Times New Roman,serif" font-size="14.00">RIB</text>
</g>
<!-- RME&#45;&gt;RIB -->
<g id="edge5" class="edge">
<title>RME&#45;&gt;RIB</title>
<path fill="none" stroke="gray" stroke-width="0.2" d="M303.64,-541.36C326.45,-557.38 348.46,-574.34 363.28,-587.87"/>
<polygon fill="gray" stroke="gray" stroke-width="0.2" points="360.47,-590.03 370.12,-594.4 365.31,-584.96 360.47,-590.03"/>
</g>
<!-- RIH -->
<g id="node6" class="node">
<title>RIH</title>
<ellipse fill="none" stroke="black" cx="382.81" cy="-532" rx="27" ry="18"/>
<text text-anchor="middle" x="382.81" y="-526.58" font-family="Times New Roman,serif" font-size="14.00">RIH</text>
</g>
<!-- RME&#45;&gt;RIH -->
<g id="edge6" class="edge">
<title>RME&#45;&gt;RIH</title>
<path fill="none" stroke="gray" stroke-width="0.2" d="M315.19,-500.92C330.19,-504.97 344.34,-509.5 355.71,-514.07"/>
<polygon fill="gray" stroke="gray" stroke-width="0.2" points="354.09,-517.18 364.66,-517.95 356.88,-510.76 354.09,-517.18"/>
</g>
<!-- RIP -->
<g id="node7" class="node">
<title>RIP</title>
<ellipse fill="none" stroke="black" cx="382.81" cy="-453" rx="27" ry="18"/>
<text text-anchor="middle" x="382.81" y="-447.57" font-family="Times New Roman,serif" font-size="14.00">RIP</text>
</g>
<!-- RME&#45;&gt;RIP -->
<g id="edge7" class="edge">
<title>RME&#45;&gt;RIP</title>
<path fill="none" stroke="gray" stroke-width="0.2" d="M312.7,-468.53C324.85,-465.8 336.52,-463.17 346.7,-460.89"/>
<polygon fill="gray" stroke="gray" stroke-width="0.2" points="347.43,-464.31 356.42,-458.7 345.9,-457.48 347.43,-464.31"/>
</g>
<!-- RIS -->
<g id="node8" class="node">
<title>RIS</title>
<ellipse fill="none" stroke="black" cx="382.81" cy="-374" rx="27" ry="18"/>
<text text-anchor="middle" x="382.81" y="-368.57" font-family="Times New Roman,serif" font-size="14.00">RIS</text>
</g>
<!-- RME&#45;&gt;RIS -->
<g id="edge8" class="edge">
<title>RME&#45;&gt;RIS</title>
<path fill="none" stroke="gray" stroke-width="0.2" d="M288.91,-421.06C309.68,-406.7 330.92,-393.26 347.83,-383.99"/>
<polygon fill="gray" stroke="gray" stroke-width="0.2" points="349.27,-387.19 356.49,-379.43 346.01,-380.99 349.27,-387.19"/>
</g>
<!-- RMD -->
<g id="node9" class="node">
<title>RMD</title>
<ellipse fill="none" stroke="black" cx="382.81" cy="-295" rx="31.6" ry="18"/>
<text text-anchor="middle" x="382.81" y="-289.57" font-family="Times New Roman,serif" font-size="14.00">RMD</text>
</g>
<!-- RME&#45;&gt;RMD -->
<g id="edge9" class="edge">
<title>RME&#45;&gt;RMD</title>
<path fill="none" stroke="black" stroke-width="5" d="M271.37,-404.74C297.75,-373.56 327.29,-340.93 349.17,-319.11"/>
<polygon fill="black" stroke="black" stroke-width="5" points="352.14,-322.32 356.29,-312.23 346.06,-316.03 352.14,-322.32"/>
</g>
<!-- RMH -->
<g id="node10" class="node">
<title>RMH</title>
<ellipse fill="none" stroke="black" cx="382.81" cy="-216" rx="31.6" ry="18"/>
<text text-anchor="middle" x="382.81" y="-210.57" font-family="Times New Roman,serif" font-size="14.00">RMH</text>
</g>
<!-- RME&#45;&gt;RMH -->
<g id="edge10" class="edge">
<title>RME&#45;&gt;RMH</title>
<path fill="none" stroke="gray" stroke-width="0.2" d="M256.62,-395.47C291.95,-333.02 335.7,-260.2 351.73,-235.28"/>
<polygon fill="gray" stroke="gray" stroke-width="0.2" points="354.51,-237.42 357.23,-227.18 348.72,-233.49 354.51,-237.42"/>
</g>
<!-- SMD -->
<g id="node11" class="node">
<title>SMD</title>
<ellipse fill="none" stroke="black" cx="382.81" cy="-137" rx="30.61" ry="18"/>
<text text-anchor="middle" x="382.81" y="-131.57" font-family="Times New Roman,serif" font-size="14.00">SMD</text>
</g>
<!-- RME&#45;&gt;SMD -->
<g id="edge11" class="edge">
<title>RME&#45;&gt;SMD</title>
<path fill="none" stroke="gray" stroke-width="2" d="M246.9,-391.39C283.13,-306.34 333.71,-194.17 351.63,-158.57"/>
<polygon fill="gray" stroke="gray" stroke-width="2" points="354.47,-160.68 356.23,-150.23 348.34,-157.3 354.47,-160.68"/>
</g>
<!-- IL1&#45;&gt;RME -->
<g id="edge12" class="edge">
<title>IL1&#45;&gt;RME</title>
<path fill="none" stroke="black" stroke-width="5" d="M358.61,-760.23C354.35,-755.5 351.21,-751.5 351.21,-751.5 351.21,-751.5 304.24,-673.32 264.13,-602.53"/>
<polygon fill="black" stroke="black" stroke-width="5" points="268.01,-600.5 259.28,-593.93 260.38,-604.79 268.01,-600.5"/>
</g>
<!-- OLL&#45;&gt;RME -->
<g id="edge13" class="edge">
<title>OLL&#45;&gt;RME</title>
<path fill="none" stroke="gray" stroke-width="5" d="M361.53,-677.69C341.76,-659.33 310.49,-625.37 281.33,-591.35"/>
<polygon fill="gray" stroke="gray" stroke-width="5" points="284.97,-588.88 275.16,-584.09 278.3,-594.54 284.97,-588.88"/>
</g>
<!-- RIB&#45;&gt;RME -->
<g id="edge14" class="edge">
<title>RIB&#45;&gt;RME</title>
<path fill="none" stroke="gray" stroke-width="0.2" d="M356.67,-605.52C340.7,-597.4 318.96,-583.95 297.05,-569.02"/>
<polygon fill="gray" stroke="gray" stroke-width="0.2" points="299.12,-566.2 288.9,-563.4 295.15,-571.96 299.12,-566.2"/>
</g>
<!-- RIH&#45;&gt;RME -->
<g id="edge15" class="edge">
<title>RIH&#45;&gt;RME</title>
<path fill="none" stroke="red" stroke-width="2" d="M356.87,-537.97C346.7,-537.44 334.17,-535.81 320.73,-533.41"/>
<polygon fill="red" stroke="red" stroke-width="2" points="321.64,-530.02 311.16,-531.57 320.32,-536.89 321.64,-530.02"/>
</g>
<!-- RIS&#45;&gt;RME -->
<g id="edge16" class="edge">
<title>RIS&#45;&gt;RME</title>
<path fill="none" stroke="gray" stroke-width="0.2" d="M370.39,-390.28C357.7,-402.99 335.89,-420.25 312.3,-437.08"/>
<polygon fill="gray" stroke="gray" stroke-width="0.2" points="310.3,-434.21 304.14,-442.83 314.33,-439.93 310.3,-434.21"/>
</g>
<!-- RMD&#45;&gt;RME -->
<g id="edge17" class="edge">
<title>RMD&#45;&gt;RME</title>
<path fill="none" stroke="gray" stroke-width="5" d="M373.19,-312.31C358.76,-334.28 328.25,-371.76 297.35,-406.96"/>
<polygon fill="gray" stroke="gray" stroke-width="5" points="294.37,-403.73 291.02,-414.11 300.92,-409.53 294.37,-403.73"/>
</g>
<!-- RMH&#45;&gt;RME -->
<g id="edge18" class="edge">
<title>RMH&#45;&gt;RME</title>
<path fill="none" stroke="gray" stroke-width="0.2" d="M377.29,-234.05C368.78,-254.53 351.21,-277.5 351.21,-277.5 351.21,-277.5 313.87,-339.12 277.35,-396.53"/>
<polygon fill="gray" stroke="gray" stroke-width="0.2" points="274.56,-394.39 272.13,-404.7 280.46,-398.15 274.56,-394.39"/>
</g>
<!-- SMD&#45;&gt;RME -->
<g id="edge19" class="edge">
<title>SMD&#45;&gt;RME</title>
<path fill="none" stroke="gray" stroke-width="5" d="M377.29,-155.05C368.78,-175.53 351.21,-198.5 351.21,-198.5 351.21,-198.5 305.66,-298.84 265.97,-382.39"/>
<polygon fill="gray" stroke="gray" stroke-width="5" points="262.06,-380.43 261.71,-391.34 269.96,-384.19 262.06,-380.43"/>
</g>
<!-- ADE -->
<g id="node12" class="node">
<title>ADE</title>
<ellipse fill="none" stroke="black" cx="31.6" cy="-966" rx="29.11" ry="18"/>
<text text-anchor="middle" x="31.6" y="-960.58" font-family="Times New Roman,serif" font-size="14.00">ADE</text>
</g>
<!-- ADE&#45;&gt;RME -->
<g id="edge20" class="edge">
<title>ADE&#45;&gt;RME</title>
<path fill="none" stroke="gray" stroke-width="2" d="M45.4,-949.69C53.79,-939 63.21,-927 63.21,-927 63.21,-927 126.1,-735.69 168.47,-606.81"/>
<polygon fill="gray" stroke="gray" stroke-width="2" points="171.75,-608.01 171.55,-597.41 165.1,-605.82 171.75,-608.01"/>
</g>
<!-- AVL -->
<g id="node13" class="node">
<title>AVL</title>
<ellipse fill="none" stroke="black" cx="31.6" cy="-887" rx="29.11" ry="18"/>
<text text-anchor="middle" x="31.6" y="-881.58" font-family="Times New Roman,serif" font-size="14.00">AVL</text>
</g>
<!-- AVL&#45;&gt;RME -->
<g id="edge21" class="edge">
<title>AVL&#45;&gt;RME</title>
<path fill="none" stroke="gray" stroke-width="0.2" d="M45.4,-870.69C53.79,-860 63.21,-848 63.21,-848 63.21,-848 120.2,-706.1 162.23,-601.48"/>
<polygon fill="gray" stroke="gray" stroke-width="0.2" points="165.4,-602.98 165.88,-592.39 158.9,-600.37 165.4,-602.98"/>
</g>
<!-- AVM -->
<g id="node14" class="node">
<title>AVM</title>
<ellipse fill="none" stroke="black" cx="31.6" cy="-808" rx="31.6" ry="18"/>
<text text-anchor="middle" x="31.6" y="-802.58" font-family="Times New Roman,serif" font-size="14.00">AVM</text>
</g>
<!-- AVM&#45;&gt;RME -->
<g id="edge22" class="edge">
<title>AVM&#45;&gt;RME</title>
<path fill="none" stroke="gray" stroke-width="0.2" d="M45.4,-791.69C53.79,-781 63.21,-769 63.21,-769 63.21,-769 111.65,-675.15 152.15,-596.71"/>
<polygon fill="gray" stroke="gray" stroke-width="0.2" points="155.18,-598.48 156.65,-587.98 148.96,-595.26 155.18,-598.48"/>
</g>
<!-- IL2 -->
<g id="node15" class="node">
<title>IL2</title>
<ellipse fill="none" stroke="black" cx="31.6" cy="-729" rx="27" ry="18"/>
<text text-anchor="middle" x="31.6" y="-723.58" font-family="Times New Roman,serif" font-size="14.00">IL2</text>
</g>
<!-- IL2&#45;&gt;RME -->
<g id="edge23" class="edge">
<title>IL2&#45;&gt;RME</title>
<path fill="none" stroke="black" stroke-width="5" d="M45.05,-713.14C53.52,-702.34 63.21,-690 63.21,-690 63.21,-690 98.22,-641.52 133.6,-592.53"/>
<polygon fill="black" stroke="black" stroke-width="5" points="137.11,-595.15 139.42,-584.48 130.01,-590.02 137.11,-595.15"/>
</g>
<!-- OLQ -->
<g id="node16" class="node">
<title>OLQ</title>
<ellipse fill="none" stroke="black" cx="31.6" cy="-650" rx="30.11" ry="18"/>
<text text-anchor="middle" x="31.6" y="-644.58" font-family="Times New Roman,serif" font-size="14.00">OLQ</text>
</g>
<!-- OLQ&#45;&gt;RME -->
<g id="edge24" class="edge">
<title>OLQ&#45;&gt;RME</title>
<path fill="none" stroke="black" stroke-width="5" d="M48.94,-635.14C64.6,-620.88 89.57,-598.15 115.04,-574.97"/>
<polygon fill="black" stroke="black" stroke-width="5" points="117.69,-578.48 122.14,-568.51 111.8,-572.01 117.69,-578.48"/>
</g>
<!-- PVT -->
<g id="node17" class="node">
<title>PVT</title>
<ellipse fill="none" stroke="black" cx="31.6" cy="-571" rx="28.61" ry="18"/>
<text text-anchor="middle" x="31.6" y="-565.58" font-family="Times New Roman,serif" font-size="14.00">PVT</text>
</g>
<!-- PVT&#45;&gt;RME -->
<g id="edge25" class="edge">
<title>PVT&#45;&gt;RME</title>
<path fill="none" stroke="gray" stroke-width="2" d="M55.3,-560.67C66.61,-555.52 81.21,-548.88 96.86,-541.76"/>
<polygon fill="gray" stroke="gray" stroke-width="2" points="98.01,-545.08 105.66,-537.76 95.11,-538.71 98.01,-545.08"/>
</g>
<!-- RID -->
<g id="node18" class="node">
<title>RID</title>
<ellipse fill="none" stroke="black" cx="31.6" cy="-492" rx="27" ry="18"/>
<text text-anchor="middle" x="31.6" y="-486.57" font-family="Times New Roman,serif" font-size="14.00">RID</text>
</g>
<!-- RID&#45;&gt;RME -->
<g id="edge26" class="edge">
<title>RID&#45;&gt;RME</title>
<path fill="none" stroke="gray" stroke-width="0.2" d="M58.97,-492C67.54,-492 77.67,-492 88.54,-492"/>
<polygon fill="gray" stroke="gray" stroke-width="0.2" points="88.41,-495.5 98.41,-492 88.41,-488.5 88.41,-495.5"/>
</g>
<!-- RMF -->
<g id="node19" class="node">
<title>RMF</title>
<ellipse fill="none" stroke="black" cx="31.6" cy="-413" rx="30.61" ry="18"/>
<text text-anchor="middle" x="31.6" y="-407.57" font-family="Times New Roman,serif" font-size="14.00">RMF</text>
</g>
<!-- RMF&#45;&gt;RME -->
<g id="edge27" class="edge">
<title>RMF&#45;&gt;RME</title>
<path fill="none" stroke="gray" stroke-width="0.2" d="M56.38,-423.82C68.13,-429.17 83.23,-436.04 99.3,-443.35"/>
<polygon fill="gray" stroke="gray" stroke-width="0.2" points="97.48,-446.37 108.04,-447.33 100.38,-440 97.48,-446.37"/>
</g>
<!-- SAA -->
<g id="node20" class="node">
<title>SAA</title>
<ellipse fill="none" stroke="black" cx="31.6" cy="-334" rx="29.11" ry="18"/>
<text text-anchor="middle" x="31.6" y="-328.57" font-family="Times New Roman,serif" font-size="14.00">SAA</text>
</g>
<!-- SAA&#45;&gt;RME -->
<g id="edge28" class="edge">
<title>SAA&#45;&gt;RME</title>
<path fill="none" stroke="gray" stroke-width="0.2" d="M48.94,-348.86C65.45,-363.89 92.3,-388.33 119.18,-412.79"/>
<polygon fill="gray" stroke="gray" stroke-width="0.2" points="116.77,-415.34 126.53,-419.48 121.49,-410.16 116.77,-415.34"/>
</g>
<!-- SMB -->
<g id="node21" class="node">
<title>SMB</title>
<ellipse fill="none" stroke="black" cx="31.6" cy="-255" rx="30.11" ry="18"/>
<text text-anchor="middle" x="31.6" y="-249.57" font-family="Times New Roman,serif" font-size="14.00">SMB</text>
</g>
<!-- SMB&#45;&gt;RME -->
<g id="edge29" class="edge">
<title>SMB&#45;&gt;RME</title>
<path fill="none" stroke="red" stroke-width="5" d="M45.05,-271.27C53.52,-282.34 63.21,-295 63.21,-295 63.21,-295 98.1,-343.06 133.41,-391.71"/>
<polygon fill="red" stroke="red" stroke-width="5" points="129.78,-394.16 139.2,-399.69 136.86,-389.02 129.78,-394.16"/>
</g>
<!-- URA -->
<g id="node22" class="node">
<title>URA</title>
<ellipse fill="none" stroke="black" cx="31.6" cy="-176" rx="30.11" ry="18"/>
<text text-anchor="middle" x="31.6" y="-170.57" font-family="Times New Roman,serif" font-size="14.00">URA</text>
</g>
<!-- URA&#45;&gt;RME -->
<g id="edge30" class="edge">
<title>URA&#45;&gt;RME</title>
<path fill="none" stroke="black" stroke-width="5" d="M45.05,-192.27C53.52,-203.34 63.21,-216 63.21,-216 63.21,-216 109.37,-305.09 149.23,-382.04"/>
<polygon fill="black" stroke="black" stroke-width="5" points="145.24,-383.84 153.72,-390.71 153.01,-379.81 145.24,-383.84"/>
</g>
<!-- URB -->
<g id="node23" class="node">
<title>URB</title>
<ellipse fill="none" stroke="black" cx="31.6" cy="-97" rx="29.61" ry="18"/>
<text text-anchor="middle" x="31.6" y="-91.58" font-family="Times New Roman,serif" font-size="14.00">URB</text>
</g>
<!-- URB&#45;&gt;RME -->
<g id="edge31" class="edge">
<title>URB&#45;&gt;RME</title>
<path fill="none" stroke="blue" stroke-width="5" d="M45.05,-113.27C53.52,-124.34 63.21,-137 63.21,-137 63.21,-137 118.16,-273.42 159.93,-377.12"/>
<polygon fill="blue" stroke="blue" stroke-width="5" points="155.87,-378.74 163.66,-386.38 163.98,-375.47 155.87,-378.74"/>
</g>
<!-- URY -->
<g id="node24" class="node">
<title>URY</title>
<ellipse fill="none" stroke="black" cx="31.6" cy="-18" rx="30.11" ry="18"/>
<text text-anchor="middle" x="31.6" y="-12.57" font-family="Times New Roman,serif" font-size="14.00">URY</text>
</g>
<!-- URY&#45;&gt;RME -->
<g id="edge32" class="edge">
<title>URY&#45;&gt;RME</title>
<path fill="none" stroke="gray" stroke-width="0.2" d="M45.05,-34.27C53.52,-45.34 63.21,-58 63.21,-58 63.21,-58 126.9,-251.3 169.27,-379.89"/>
<polygon fill="gray" stroke="gray" stroke-width="0.2" points="165.86,-380.73 172.31,-389.14 172.51,-378.54 165.86,-380.73"/>
</g>
</g>
</svg>
