<?xml version="1.0" encoding="UTF-8" standalone="no"?>
<!DOCTYPE svg PUBLIC "-//W3C//DTD SVG 1.1//EN"
 "http://www.w3.org/Graphics/SVG/1.1/DTD/svg11.dtd">
<!-- Generated by graphviz version 11.0.0 (20240428.1522)
 -->
<!-- Pages: 1 -->
<svg width="422pt" height="1782pt"
 viewBox="0.00 0.00 422.41 1782.00" xmlns="http://www.w3.org/2000/svg" xmlns:xlink="http://www.w3.org/1999/xlink">
<g id="graph0" class="graph" transform="scale(1 1) rotate(0) translate(4 1778)">
<polygon fill="white" stroke="none" points="-4,4 -4,-1778 418.41,-1778 418.41,4 -4,4"/>
<!-- RMF -->
<g id="node1" class="node">
<title>RMF</title>
<ellipse fill="none" stroke="black" cx="205.21" cy="-887" rx="108" ry="108"/>
<text text-anchor="middle" x="205.21" y="-868" font-family="Times New Roman,serif" font-size="50.00">RMF</text>
</g>
<!-- RMF&#45;&gt;RMF -->
<g id="edge1" class="edge">
<title>RMF&#45;&gt;RMF</title>
<path fill="none" stroke="gray" stroke-width="5" d="M172.78,-990.39C174.71,-1017.51 185.52,-1038 205.21,-1038 220.83,-1038 230.86,-1025.12 235.3,-1006.26"/>
<polygon fill="gray" stroke="gray" stroke-width="5" points="239.6,-1007.1 236.73,-996.56 230.94,-1005.82 239.6,-1007.1"/>
</g>
<!-- AIB -->
<g id="node2" class="node">
<title>AIB</title>
<ellipse fill="none" stroke="black" cx="381.81" cy="-1756" rx="27" ry="18"/>
<text text-anchor="middle" x="381.81" y="-1750.58" font-family="Times New Roman,serif" font-size="14.00">AIB</text>
</g>
<!-- RMF&#45;&gt;AIB -->
<g id="edge2" class="edge">
<title>RMF&#45;&gt;AIB</title>
<path fill="none" stroke="gray" stroke-width="0.2" d="M226.55,-993.08C266.03,-1212.69 349.21,-1695.5 349.21,-1695.5 349.21,-1695.5 362.37,-1711.74 371.71,-1729.04"/>
<polygon fill="gray" stroke="gray" stroke-width="0.2" points="368.47,-1730.39 376.02,-1737.83 374.76,-1727.31 368.47,-1730.39"/>
</g>
<!-- AVE -->
<g id="node3" class="node">
<title>AVE</title>
<ellipse fill="none" stroke="black" cx="381.81" cy="-1677" rx="29.11" ry="18"/>
<text text-anchor="middle" x="381.81" y="-1671.58" font-family="Times New Roman,serif" font-size="14.00">AVE</text>
</g>
<!-- RMF&#45;&gt;AVE -->
<g id="edge3" class="edge">
<title>RMF&#45;&gt;AVE</title>
<path fill="none" stroke="gray" stroke-width="0.2" d="M226.4,-993.01C265.81,-1200.02 349.21,-1638 349.21,-1638 349.21,-1638 354.95,-1645.09 361.54,-1653.22"/>
<polygon fill="gray" stroke="gray" stroke-width="0.2" points="358.75,-1655.34 367.77,-1660.9 364.19,-1650.93 358.75,-1655.34"/>
</g>
<!-- AVK -->
<g id="node4" class="node">
<title>AVK</title>
<ellipse fill="none" stroke="black" cx="381.81" cy="-1598" rx="30.11" ry="18"/>
<text text-anchor="middle" x="381.81" y="-1592.58" font-family="Times New Roman,serif" font-size="14.00">AVK</text>
</g>
<!-- RMF&#45;&gt;AVK -->
<g id="edge4" class="edge">
<title>RMF&#45;&gt;AVK</title>
<path fill="none" stroke="red" stroke-width="5" d="M231.36,-992.17C272.4,-1176.53 349.21,-1537.5 349.21,-1537.5 349.21,-1537.5 359.85,-1550.63 368.78,-1565.85"/>
<polygon fill="red" stroke="red" stroke-width="5" points="364.8,-1567.69 373.28,-1574.56 372.58,-1563.67 364.8,-1567.69"/>
</g>
<!-- AWC -->
<g id="node5" class="node">
<title>AWC</title>
<ellipse fill="none" stroke="black" cx="381.81" cy="-1519" rx="32.6" ry="18"/>
<text text-anchor="middle" x="381.81" y="-1513.58" font-family="Times New Roman,serif" font-size="14.00">AWC</text>
</g>
<!-- RMF&#45;&gt;AWC -->
<g id="edge5" class="edge">
<title>RMF&#45;&gt;AWC</title>
<path fill="none" stroke="gray" stroke-width="0.2" d="M234.63,-991.19C276.34,-1156.3 349.21,-1458.5 349.21,-1458.5 349.21,-1458.5 362.23,-1474.57 371.56,-1491.77"/>
<polygon fill="gray" stroke="gray" stroke-width="0.2" points="368.31,-1493.1 375.88,-1500.52 374.59,-1490 368.31,-1493.1"/>
</g>
<!-- BAG -->
<g id="node6" class="node">
<title>BAG</title>
<ellipse fill="none" stroke="black" cx="381.81" cy="-1440" rx="30.11" ry="18"/>
<text text-anchor="middle" x="381.81" y="-1434.58" font-family="Times New Roman,serif" font-size="14.00">BAG</text>
</g>
<!-- RMF&#45;&gt;BAG -->
<g id="edge6" class="edge">
<title>RMF&#45;&gt;BAG</title>
<path fill="none" stroke="red" stroke-width="2" d="M238.84,-989.85C281.04,-1134.48 349.21,-1379.5 349.21,-1379.5 349.21,-1379.5 361.19,-1394.29 370.4,-1410.67"/>
<polygon fill="red" stroke="red" stroke-width="2" points="367.17,-1412.04 374.79,-1419.4 373.42,-1408.89 367.17,-1412.04"/>
</g>
<!-- CEP -->
<g id="node7" class="node">
<title>CEP</title>
<ellipse fill="none" stroke="black" cx="381.81" cy="-1361" rx="28.11" ry="18"/>
<text text-anchor="middle" x="381.81" y="-1355.58" font-family="Times New Roman,serif" font-size="14.00">CEP</text>
</g>
<!-- RMF&#45;&gt;CEP -->
<g id="edge7" class="edge">
<title>RMF&#45;&gt;CEP</title>
<path fill="none" stroke="gray" stroke-width="5" d="M239.92,-989.54C282.2,-1118.14 349.21,-1322 349.21,-1322 349.21,-1322 352.92,-1326.58 357.8,-1332.61"/>
<polygon fill="gray" stroke="gray" stroke-width="5" points="354.34,-1335.28 364.03,-1340.29 361.13,-1329.77 354.34,-1335.28"/>
</g>
<!-- DVC -->
<g id="node8" class="node">
<title>DVC</title>
<ellipse fill="none" stroke="black" cx="381.81" cy="-1282" rx="30.11" ry="18"/>
<text text-anchor="middle" x="381.81" y="-1276.58" font-family="Times New Roman,serif" font-size="14.00">DVC</text>
</g>
<!-- RMF&#45;&gt;DVC -->
<g id="edge8" class="edge">
<title>RMF&#45;&gt;DVC</title>
<path fill="none" stroke="gray" stroke-width="0.2" d="M252.05,-984.79C293.87,-1083.74 349.21,-1221.5 349.21,-1221.5 349.21,-1221.5 362.37,-1237.74 371.71,-1255.04"/>
<polygon fill="gray" stroke="gray" stroke-width="0.2" points="368.47,-1256.39 376.02,-1263.83 374.76,-1253.31 368.47,-1256.39"/>
</g>
<!-- IL1 -->
<g id="node9" class="node">
<title>IL1</title>
<ellipse fill="none" stroke="black" cx="381.81" cy="-1203" rx="27" ry="18"/>
<text text-anchor="middle" x="381.81" y="-1197.58" font-family="Times New Roman,serif" font-size="14.00">IL1</text>
</g>
<!-- RMF&#45;&gt;IL1 -->
<g id="edge9" class="edge">
<title>RMF&#45;&gt;IL1</title>
<path fill="none" stroke="gray" stroke-width="0.2" d="M262.73,-978.97C302.7,-1052.4 349.21,-1142.5 349.21,-1142.5 349.21,-1142.5 362.37,-1158.74 371.71,-1176.04"/>
<polygon fill="gray" stroke="gray" stroke-width="0.2" points="368.47,-1177.39 376.02,-1184.83 374.76,-1174.31 368.47,-1177.39"/>
</g>
<!-- PLN -->
<g id="node10" class="node">
<title>PLN</title>
<ellipse fill="none" stroke="black" cx="381.81" cy="-1124" rx="28.11" ry="18"/>
<text text-anchor="middle" x="381.81" y="-1118.58" font-family="Times New Roman,serif" font-size="14.00">PLN</text>
</g>
<!-- RMF&#45;&gt;PLN -->
<g id="edge10" class="edge">
<title>RMF&#45;&gt;PLN</title>
<path fill="none" stroke="gray" stroke-width="0.2" d="M277.92,-967.46C313.6,-1014.19 349.21,-1063.5 349.21,-1063.5 349.21,-1063.5 362.37,-1079.74 371.71,-1097.04"/>
<polygon fill="gray" stroke="gray" stroke-width="0.2" points="368.47,-1098.39 376.02,-1105.83 374.76,-1095.31 368.47,-1098.39"/>
</g>
<!-- PVT -->
<g id="node11" class="node">
<title>PVT</title>
<ellipse fill="none" stroke="black" cx="381.81" cy="-1045" rx="28.61" ry="18"/>
<text text-anchor="middle" x="381.81" y="-1039.58" font-family="Times New Roman,serif" font-size="14.00">PVT</text>
</g>
<!-- RMF&#45;&gt;PVT -->
<g id="edge11" class="edge">
<title>RMF&#45;&gt;PVT</title>
<path fill="none" stroke="red" stroke-width="2" d="M293.51,-949.88C319.69,-973.57 345.88,-999.2 362.64,-1018.23"/>
<polygon fill="red" stroke="red" stroke-width="2" points="359.86,-1020.36 368.97,-1025.76 365.21,-1015.86 359.86,-1020.36"/>
</g>
<!-- RIB -->
<g id="node12" class="node">
<title>RIB</title>
<ellipse fill="none" stroke="black" cx="381.81" cy="-966" rx="27" ry="18"/>
<text text-anchor="middle" x="381.81" y="-960.58" font-family="Times New Roman,serif" font-size="14.00">RIB</text>
</g>
<!-- RMF&#45;&gt;RIB -->
<g id="edge12" class="edge">
<title>RMF&#45;&gt;RIB</title>
<path fill="none" stroke="gray" stroke-width="0.2" d="M309.04,-917.63C327.81,-926.68 345.58,-936.3 358.75,-944.87"/>
<polygon fill="gray" stroke="gray" stroke-width="0.2" points="356.61,-947.64 366.84,-950.43 360.58,-941.88 356.61,-947.64"/>
</g>
<!-- RIG -->
<g id="node13" class="node">
<title>RIG</title>
<ellipse fill="none" stroke="black" cx="381.81" cy="-887" rx="27.11" ry="18"/>
<text text-anchor="middle" x="381.81" y="-881.58" font-family="Times New Roman,serif" font-size="14.00">RIG</text>
</g>
<!-- RMF&#45;&gt;RIG -->
<g id="edge13" class="edge">
<title>RMF&#45;&gt;RIG</title>
<path fill="none" stroke="gray" stroke-width="2" d="M312.56,-871.22C324.89,-871.68 336.69,-872.58 346.91,-873.93"/>
<polygon fill="gray" stroke="gray" stroke-width="2" points="346.34,-877.38 356.78,-875.56 347.48,-870.48 346.34,-877.38"/>
</g>
<!-- RIH -->
<g id="node14" class="node">
<title>RIH</title>
<ellipse fill="none" stroke="black" cx="381.81" cy="-808" rx="27" ry="18"/>
<text text-anchor="middle" x="381.81" y="-802.58" font-family="Times New Roman,serif" font-size="14.00">RIH</text>
</g>
<!-- RMF&#45;&gt;RIH -->
<g id="edge14" class="edge">
<title>RMF&#45;&gt;RIH</title>
<path fill="none" stroke="gray" stroke-width="0.2" d="M304.23,-842.65C320.58,-835.25 336.43,-828.08 349.42,-822.2"/>
<polygon fill="gray" stroke="gray" stroke-width="0.2" points="350.81,-825.41 358.48,-818.1 347.93,-819.04 350.81,-825.41"/>
</g>
<!-- RIM -->
<g id="node15" class="node">
<title>RIM</title>
<ellipse fill="none" stroke="black" cx="381.81" cy="-729" rx="28.11" ry="18"/>
<text text-anchor="middle" x="381.81" y="-723.58" font-family="Times New Roman,serif" font-size="14.00">RIM</text>
</g>
<!-- RMF&#45;&gt;RIM -->
<g id="edge15" class="edge">
<title>RMF&#45;&gt;RIM</title>
<path fill="none" stroke="red" stroke-width="2" d="M277.73,-806.39C301.89,-783.8 327.71,-761.4 347.47,-746.18"/>
<polygon fill="red" stroke="red" stroke-width="2" points="349.41,-749.09 355.34,-740.31 345.23,-743.48 349.41,-749.09"/>
</g>
<!-- RIS -->
<g id="node16" class="node">
<title>RIS</title>
<ellipse fill="none" stroke="black" cx="381.81" cy="-650" rx="27" ry="18"/>
<text text-anchor="middle" x="381.81" y="-644.58" font-family="Times New Roman,serif" font-size="14.00">RIS</text>
</g>
<!-- RMF&#45;&gt;RIS -->
<g id="edge16" class="edge">
<title>RMF&#45;&gt;RIS</title>
<path fill="none" stroke="gray" stroke-width="0.2" d="M261.09,-794.05C301.42,-734.34 349.21,-668.5 349.21,-668.5 349.21,-668.5 349.92,-667.6 351.14,-666.13"/>
<polygon fill="gray" stroke="gray" stroke-width="0.2" points="353.71,-668.51 357.65,-658.67 348.44,-663.91 353.71,-668.51"/>
</g>
<!-- RIV -->
<g id="node17" class="node">
<title>RIV</title>
<ellipse fill="none" stroke="black" cx="381.81" cy="-571" rx="27" ry="18"/>
<text text-anchor="middle" x="381.81" y="-565.58" font-family="Times New Roman,serif" font-size="14.00">RIV</text>
</g>
<!-- RMF&#45;&gt;RIV -->
<g id="edge17" class="edge">
<title>RMF&#45;&gt;RIV</title>
<path fill="none" stroke="gray" stroke-width="0.2" d="M249.11,-788.24C291.24,-701.39 349.21,-589.5 349.21,-589.5 349.21,-589.5 349.92,-588.6 351.14,-587.13"/>
<polygon fill="gray" stroke="gray" stroke-width="0.2" points="353.71,-589.51 357.65,-579.67 348.44,-584.91 353.71,-589.51"/>
</g>
<!-- RMD -->
<g id="node18" class="node">
<title>RMD</title>
<ellipse fill="none" stroke="black" cx="381.81" cy="-492" rx="31.6" ry="18"/>
<text text-anchor="middle" x="381.81" y="-486.57" font-family="Times New Roman,serif" font-size="14.00">RMD</text>
</g>
<!-- RMF&#45;&gt;RMD -->
<g id="edge18" class="edge">
<title>RMF&#45;&gt;RMD</title>
<path fill="none" stroke="gray" stroke-width="5" d="M241.38,-784.87C277.1,-690.56 329.31,-560.07 348.78,-516.84"/>
<polygon fill="gray" stroke="gray" stroke-width="5" points="352.56,-519.06 353.12,-508.16 344.73,-515.14 352.56,-519.06"/>
</g>
<!-- RME -->
<g id="node19" class="node">
<title>RME</title>
<ellipse fill="none" stroke="black" cx="381.81" cy="-413" rx="30.61" ry="18"/>
<text text-anchor="middle" x="381.81" y="-407.57" font-family="Times New Roman,serif" font-size="14.00">RME</text>
</g>
<!-- RMF&#45;&gt;RME -->
<g id="edge19" class="edge">
<title>RMF&#45;&gt;RME</title>
<path fill="none" stroke="gray" stroke-width="0.2" d="M240.01,-784.42C282.29,-656.1 349.21,-453 349.21,-453 349.21,-453 355.07,-445.58 361.75,-437.13"/>
<polygon fill="gray" stroke="gray" stroke-width="0.2" points="364.32,-439.52 367.77,-429.51 358.82,-435.18 364.32,-439.52"/>
</g>
<!-- RMG -->
<g id="node20" class="node">
<title>RMG</title>
<ellipse fill="none" stroke="black" cx="381.81" cy="-334" rx="32.1" ry="18"/>
<text text-anchor="middle" x="381.81" y="-328.57" font-family="Times New Roman,serif" font-size="14.00">RMG</text>
</g>
<!-- RMF&#45;&gt;RMG -->
<g id="edge20" class="edge">
<title>RMF&#45;&gt;RMG</title>
<path fill="none" stroke="gray" stroke-width="0.2" d="M231.78,-781.99C268.89,-641.02 334.64,-403.94 351.61,-353.81"/>
<polygon fill="gray" stroke="gray" stroke-width="0.2" points="354.77,-355.33 355.19,-344.74 348.26,-352.75 354.77,-355.33"/>
</g>
<!-- RMH -->
<g id="node21" class="node">
<title>RMH</title>
<ellipse fill="none" stroke="black" cx="381.81" cy="-255" rx="31.6" ry="18"/>
<text text-anchor="middle" x="381.81" y="-249.57" font-family="Times New Roman,serif" font-size="14.00">RMH</text>
</g>
<!-- RMF&#45;&gt;RMH -->
<g id="edge21" class="edge">
<title>RMF&#45;&gt;RMH</title>
<path fill="none" stroke="gray" stroke-width="5" d="M228.71,-781.23C264.26,-625.82 330.96,-348.32 350.5,-280.35"/>
<polygon fill="gray" stroke="gray" stroke-width="5" points="354.59,-281.91 353.62,-271.04 346.29,-279.13 354.59,-281.91"/>
</g>
<!-- SAA -->
<g id="node22" class="node">
<title>SAA</title>
<ellipse fill="none" stroke="black" cx="381.81" cy="-176" rx="29.11" ry="18"/>
<text text-anchor="middle" x="381.81" y="-170.57" font-family="Times New Roman,serif" font-size="14.00">SAA</text>
</g>
<!-- RMF&#45;&gt;SAA -->
<g id="edge22" class="edge">
<title>RMF&#45;&gt;SAA</title>
<path fill="none" stroke="gray" stroke-width="0.2" d="M226.32,-780.59C265.71,-585.91 349.21,-193.5 349.21,-193.5 349.21,-193.5 349.4,-193.26 349.76,-192.83"/>
<polygon fill="gray" stroke="gray" stroke-width="0.2" points="352.37,-195.16 356.34,-185.34 347.11,-190.54 352.37,-195.16"/>
</g>
<!-- SIB -->
<g id="node23" class="node">
<title>SIB</title>
<ellipse fill="none" stroke="black" cx="381.81" cy="-97" rx="27" ry="18"/>
<text text-anchor="middle" x="381.81" y="-91.58" font-family="Times New Roman,serif" font-size="14.00">SIB</text>
</g>
<!-- RMF&#45;&gt;SIB -->
<g id="edge23" class="edge">
<title>RMF&#45;&gt;SIB</title>
<path fill="none" stroke="gray" stroke-width="2" d="M226.4,-780.99C265.81,-573.98 349.21,-136 349.21,-136 349.21,-136 354.15,-129.9 360.13,-122.52"/>
<polygon fill="gray" stroke="gray" stroke-width="2" points="362.48,-125.19 366.05,-115.21 357.04,-120.78 362.48,-125.19"/>
</g>
<!-- SMD -->
<g id="node24" class="node">
<title>SMD</title>
<ellipse fill="none" stroke="black" cx="381.81" cy="-18" rx="30.61" ry="18"/>
<text text-anchor="middle" x="381.81" y="-12.57" font-family="Times New Roman,serif" font-size="14.00">SMD</text>
</g>
<!-- RMF&#45;&gt;SMD -->
<g id="edge24" class="edge">
<title>RMF&#45;&gt;SMD</title>
<path fill="none" stroke="gray" stroke-width="0.2" d="M222.75,-780C257.6,-567.99 336.31,-110.44 353.12,-37.57"/>
<polygon fill="gray" stroke="gray" stroke-width="0.2" points="356.45,-38.66 355.83,-28.08 349.72,-36.74 356.45,-38.66"/>
</g>
<!-- AIB&#45;&gt;RMF -->
<g id="edge25" class="edge">
<title>AIB&#45;&gt;RMF</title>
<path fill="none" stroke="red" stroke-width="2" d="M357.51,-1747.93C352.78,-1742.9 349.21,-1738.5 349.21,-1738.5 349.21,-1738.5 263.58,-1241.46 224.84,-1006.69"/>
<polygon fill="red" stroke="red" stroke-width="2" points="228.32,-1006.28 223.25,-996.99 221.42,-1007.42 228.32,-1006.28"/>
</g>
<!-- AVK&#45;&gt;RMF -->
<g id="edge26" class="edge">
<title>AVK&#45;&gt;RMF</title>
<path fill="none" stroke="red" stroke-width="0.2" d="M355.91,-1588.21C352,-1583.94 349.21,-1580.5 349.21,-1580.5 349.21,-1580.5 268.46,-1201.01 228.32,-1003.26"/>
<polygon fill="red" stroke="red" stroke-width="0.2" points="231.8,-1002.81 226.38,-993.7 224.94,-1004.2 231.8,-1002.81"/>
</g>
<!-- AWC&#45;&gt;RMF -->
<g id="edge27" class="edge">
<title>AWC&#45;&gt;RMF</title>
<path fill="none" stroke="gray" stroke-width="0.2" d="M355.01,-1508.21C351.57,-1504.42 349.21,-1501.5 349.21,-1501.5 349.21,-1501.5 271.93,-1181.04 230.99,-1002.73"/>
<polygon fill="gray" stroke="gray" stroke-width="0.2" points="234.42,-1002.03 228.78,-993.07 227.6,-1003.6 234.42,-1002.03"/>
</g>
<!-- BAG&#45;&gt;RMF -->
<g id="edge28" class="edge">
<title>BAG&#45;&gt;RMF</title>
<path fill="none" stroke="gray" stroke-width="2" d="M355.91,-1430.21C352,-1425.94 349.21,-1422.5 349.21,-1422.5 349.21,-1422.5 276.73,-1161.99 234.97,-1004.13"/>
<polygon fill="gray" stroke="gray" stroke-width="2" points="238.48,-1003.72 232.55,-994.94 231.72,-1005.5 238.48,-1003.72"/>
</g>
<!-- DVC&#45;&gt;RMF -->
<g id="edge29" class="edge">
<title>DVC&#45;&gt;RMF</title>
<path fill="none" stroke="red" stroke-width="5" d="M355.91,-1272.21C352,-1267.94 349.21,-1264.5 349.21,-1264.5 349.21,-1264.5 289.17,-1115.04 246.9,-1003.95"/>
<polygon fill="red" stroke="red" stroke-width="5" points="251.04,-1002.53 243.4,-994.73 242.86,-1005.63 251.04,-1002.53"/>
</g>
<!-- IL1&#45;&gt;RMF -->
<g id="edge30" class="edge">
<title>IL1&#45;&gt;RMF</title>
<path fill="none" stroke="gray" stroke-width="0.2" d="M357.51,-1194.93C352.78,-1189.9 349.21,-1185.5 349.21,-1185.5 349.21,-1185.5 295.13,-1080.75 253.49,-995.08"/>
<polygon fill="gray" stroke="gray" stroke-width="0.2" points="256.76,-993.8 249.25,-986.33 250.46,-996.86 256.76,-993.8"/>
</g>
<!-- PLN&#45;&gt;RMF -->
<g id="edge31" class="edge">
<title>PLN&#45;&gt;RMF</title>
<path fill="none" stroke="blue" stroke-width="2" d="M356.86,-1115.23C352.45,-1110.5 349.21,-1106.5 349.21,-1106.5 349.21,-1106.5 306.71,-1047.65 268.05,-990.64"/>
<polygon fill="blue" stroke="blue" stroke-width="2" points="271.07,-988.87 262.58,-982.54 265.27,-992.78 271.07,-988.87"/>
</g>
<!-- PVT&#45;&gt;RMF -->
<g id="edge32" class="edge">
<title>PVT&#45;&gt;RMF</title>
<path fill="none" stroke="red" stroke-width="5" d="M357.37,-1035.2C339.72,-1022.55 314.39,-1001.19 289.49,-978.47"/>
<polygon fill="red" stroke="red" stroke-width="5" points="292.63,-975.41 282.31,-971.84 286.69,-981.84 292.63,-975.41"/>
</g>
<!-- RIB&#45;&gt;RMF -->
<g id="edge33" class="edge">
<title>RIB&#45;&gt;RMF</title>
<path fill="none" stroke="gray" stroke-width="0.2" d="M354.49,-966.03C341.22,-962.27 324.19,-955.91 306.43,-948.31"/>
<polygon fill="gray" stroke="gray" stroke-width="0.2" points="307.93,-945.15 297.37,-944.35 305.13,-951.56 307.93,-945.15"/>
</g>
<!-- RIG&#45;&gt;RMF -->
<g id="edge34" class="edge">
<title>RIG&#45;&gt;RMF</title>
<path fill="none" stroke="gray" stroke-width="5" d="M359.77,-897.95C351.11,-899.73 340.34,-901.05 328.55,-901.91"/>
<polygon fill="gray" stroke="gray" stroke-width="5" points="328.53,-897.53 318.78,-902.44 329.01,-906.27 328.53,-897.53"/>
</g>
<!-- RIM&#45;&gt;RMF -->
<g id="edge35" class="edge">
<title>RIM&#45;&gt;RMF</title>
<path fill="none" stroke="red" stroke-width="5" d="M370.92,-745.92C357.55,-762.75 332.28,-788.29 305.48,-813.16"/>
<polygon fill="red" stroke="red" stroke-width="5" points="302.53,-809.93 298.11,-819.91 308.44,-816.38 302.53,-809.93"/>
</g>
<!-- RIS&#45;&gt;RMF -->
<g id="edge36" class="edge">
<title>RIS&#45;&gt;RMF</title>
<path fill="none" stroke="gray" stroke-width="0.2" d="M376.15,-668.05C367.36,-688.53 349.21,-711.5 349.21,-711.5 349.21,-711.5 317.77,-754.81 284.38,-798.6"/>
<polygon fill="gray" stroke="gray" stroke-width="0.2" points="281.61,-796.46 278.31,-806.53 287.17,-800.71 281.61,-796.46"/>
</g>
<!-- RIV&#45;&gt;RMF -->
<g id="edge37" class="edge">
<title>RIV&#45;&gt;RMF</title>
<path fill="none" stroke="gray" stroke-width="5" d="M376.15,-589.05C367.36,-609.53 349.21,-632.5 349.21,-632.5 349.21,-632.5 308.33,-711.4 270.29,-781.54"/>
<polygon fill="gray" stroke="gray" stroke-width="5" points="266.65,-779.08 265.71,-789.95 274.33,-783.26 266.65,-779.08"/>
</g>
<!-- RMD&#45;&gt;RMF -->
<g id="edge38" class="edge">
<title>RMD&#45;&gt;RMF</title>
<path fill="none" stroke="gray" stroke-width="5" d="M376.15,-510.05C367.36,-530.53 349.21,-553.5 349.21,-553.5 349.21,-553.5 299.15,-677.79 258.26,-774.83"/>
<polygon fill="gray" stroke="gray" stroke-width="5" points="254.34,-772.88 254.47,-783.79 262.4,-776.28 254.34,-772.88"/>
</g>
<!-- RMG&#45;&gt;RMF -->
<g id="edge39" class="edge">
<title>RMG&#45;&gt;RMF</title>
<path fill="none" stroke="gray" stroke-width="5" d="M376.15,-351.9C367.36,-372.1 349.21,-394.5 349.21,-394.5 349.21,-394.5 285.62,-623.06 243.25,-768.98"/>
<polygon fill="gray" stroke="gray" stroke-width="5" points="239.18,-767.33 240.58,-778.16 247.58,-769.78 239.18,-767.33"/>
</g>
<!-- RMH&#45;&gt;RMF -->
<g id="edge40" class="edge">
<title>RMH&#45;&gt;RMF</title>
<path fill="none" stroke="gray" stroke-width="5" d="M376.15,-272.9C367.36,-293.1 349.21,-315.5 349.21,-315.5 349.21,-315.5 280.75,-599.39 238.57,-767.2"/>
<polygon fill="gray" stroke="gray" stroke-width="5" points="234.36,-766 236.16,-776.76 242.84,-768.14 234.36,-766"/>
</g>
<!-- SAA&#45;&gt;RMF -->
<g id="edge41" class="edge">
<title>SAA&#45;&gt;RMF</title>
<path fill="none" stroke="black" stroke-width="5" d="M376.15,-193.9C367.36,-214.1 349.21,-236.5 349.21,-236.5 349.21,-236.5 276.61,-577.66 234.87,-766.04"/>
<polygon fill="black" stroke="black" stroke-width="5" points="230.61,-765.03 232.72,-775.74 239.16,-766.93 230.61,-765.03"/>
</g>
<!-- SMD&#45;&gt;RMF -->
<g id="edge42" class="edge">
<title>SMD&#45;&gt;RMF</title>
<path fill="none" stroke="gray" stroke-width="0.2" d="M376.15,-35.9C367.36,-56.1 349.21,-78.5 349.21,-78.5 349.21,-78.5 268.45,-547.27 228.31,-771.11"/>
<polygon fill="gray" stroke="gray" stroke-width="0.2" points="224.92,-770.16 226.6,-780.63 231.81,-771.4 224.92,-770.16"/>
</g>
<!-- ADA -->
<g id="node25" class="node">
<title>ADA</title>
<ellipse fill="none" stroke="black" cx="30.61" cy="-1361" rx="30.11" ry="18"/>
<text text-anchor="middle" x="30.61" y="-1355.58" font-family="Times New Roman,serif" font-size="14.00">ADA</text>
</g>
<!-- ADA&#45;&gt;RMF -->
<g id="edge43" class="edge">
<title>ADA&#45;&gt;RMF</title>
<path fill="none" stroke="gray" stroke-width="0.2" d="M43.99,-1344.69C52.1,-1334 61.21,-1322 61.21,-1322 61.21,-1322 124.99,-1127.98 167.36,-999.09"/>
<polygon fill="gray" stroke="gray" stroke-width="0.2" points="170.61,-1000.42 170.41,-989.83 163.96,-998.23 170.61,-1000.42"/>
</g>
<!-- ADE -->
<g id="node26" class="node">
<title>ADE</title>
<ellipse fill="none" stroke="black" cx="30.61" cy="-1282" rx="29.11" ry="18"/>
<text text-anchor="middle" x="30.61" y="-1276.58" font-family="Times New Roman,serif" font-size="14.00">ADE</text>
</g>
<!-- ADE&#45;&gt;RMF -->
<g id="edge44" class="edge">
<title>ADE&#45;&gt;RMF</title>
<path fill="none" stroke="gray" stroke-width="2" d="M43.99,-1265.69C52.1,-1255 61.21,-1243 61.21,-1243 61.21,-1243 117.29,-1103.38 159.22,-999.01"/>
<polygon fill="gray" stroke="gray" stroke-width="2" points="162.39,-1000.51 162.87,-989.92 155.89,-997.9 162.39,-1000.51"/>
</g>
<!-- AIN -->
<g id="node27" class="node">
<title>AIN</title>
<ellipse fill="none" stroke="black" cx="30.61" cy="-1203" rx="27" ry="18"/>
<text text-anchor="middle" x="30.61" y="-1197.58" font-family="Times New Roman,serif" font-size="14.00">AIN</text>
</g>
<!-- AIN&#45;&gt;RMF -->
<g id="edge45" class="edge">
<title>AIN&#45;&gt;RMF</title>
<path fill="none" stroke="gray" stroke-width="0.2" d="M43.65,-1187.14C51.84,-1176.34 61.21,-1164 61.21,-1164 61.21,-1164 109.66,-1070.15 150.15,-991.71"/>
<polygon fill="gray" stroke="gray" stroke-width="0.2" points="153.18,-993.48 154.66,-982.98 146.96,-990.26 153.18,-993.48"/>
</g>
<!-- AQR -->
<g id="node28" class="node">
<title>AQR</title>
<ellipse fill="none" stroke="black" cx="30.61" cy="-1124" rx="30.61" ry="18"/>
<text text-anchor="middle" x="30.61" y="-1118.58" font-family="Times New Roman,serif" font-size="14.00">AQR</text>
</g>
<!-- AQR&#45;&gt;RMF -->
<g id="edge46" class="edge">
<title>AQR&#45;&gt;RMF</title>
<path fill="none" stroke="gray" stroke-width="0.2" d="M43.99,-1107.69C52.1,-1097 61.21,-1085 61.21,-1085 61.21,-1085 98.65,-1033.16 135.22,-982.53"/>
<polygon fill="gray" stroke="gray" stroke-width="0.2" points="137.88,-984.82 140.89,-974.67 132.2,-980.73 137.88,-984.82"/>
</g>
<!-- ASI -->
<g id="node29" class="node">
<title>ASI</title>
<ellipse fill="none" stroke="black" cx="30.61" cy="-1045" rx="27" ry="18"/>
<text text-anchor="middle" x="30.61" y="-1039.58" font-family="Times New Roman,serif" font-size="14.00">ASI</text>
</g>
<!-- ASI&#45;&gt;RMF -->
<g id="edge47" class="edge">
<title>ASI&#45;&gt;RMF</title>
<path fill="none" stroke="gray" stroke-width="0.2" d="M47.23,-1030.7C63.61,-1015.71 90.68,-990.92 117.78,-966.12"/>
<polygon fill="gray" stroke="gray" stroke-width="0.2" points="119.8,-969.01 124.81,-959.68 115.07,-963.85 119.8,-969.01"/>
</g>
<!-- AVH -->
<g id="node30" class="node">
<title>AVH</title>
<ellipse fill="none" stroke="black" cx="30.61" cy="-966" rx="30.11" ry="18"/>
<text text-anchor="middle" x="30.61" y="-960.58" font-family="Times New Roman,serif" font-size="14.00">AVH</text>
</g>
<!-- AVH&#45;&gt;RMF -->
<g id="edge48" class="edge">
<title>AVH&#45;&gt;RMF</title>
<path fill="none" stroke="gray" stroke-width="0.2" d="M55.24,-955.18C66.74,-949.92 81.46,-943.18 97.16,-936"/>
<polygon fill="gray" stroke="gray" stroke-width="0.2" points="98.58,-939.19 106.22,-931.85 95.67,-932.83 98.58,-939.19"/>
</g>
<!-- DVA -->
<g id="node31" class="node">
<title>DVA</title>
<ellipse fill="none" stroke="black" cx="30.61" cy="-887" rx="30.11" ry="18"/>
<text text-anchor="middle" x="30.61" y="-881.58" font-family="Times New Roman,serif" font-size="14.00">DVA</text>
</g>
<!-- DVA&#45;&gt;RMF -->
<g id="edge49" class="edge">
<title>DVA&#45;&gt;RMF</title>
<path fill="none" stroke="gray" stroke-width="0.2" d="M60.89,-887C68.51,-887 77.22,-887 86.48,-887"/>
<polygon fill="gray" stroke="gray" stroke-width="0.2" points="86.43,-890.5 96.43,-887 86.43,-883.5 86.43,-890.5"/>
</g>
<!-- PVP -->
<g id="node32" class="node">
<title>PVP</title>
<ellipse fill="none" stroke="black" cx="30.61" cy="-808" rx="28.11" ry="18"/>
<text text-anchor="middle" x="30.61" y="-802.58" font-family="Times New Roman,serif" font-size="14.00">PVP</text>
</g>
<!-- PVP&#45;&gt;RMF -->
<g id="edge50" class="edge">
<title>PVP&#45;&gt;RMF</title>
<path fill="none" stroke="gray" stroke-width="0.2" d="M54.17,-818.33C65.89,-823.69 81.15,-830.68 97.45,-838.14"/>
<polygon fill="gray" stroke="gray" stroke-width="0.2" points="95.77,-841.21 106.32,-842.19 98.68,-834.85 95.77,-841.21"/>
</g>
<!-- RIA -->
<g id="node33" class="node">
<title>RIA</title>
<ellipse fill="none" stroke="black" cx="30.61" cy="-729" rx="27" ry="18"/>
<text text-anchor="middle" x="30.61" y="-723.58" font-family="Times New Roman,serif" font-size="14.00">RIA</text>
</g>
<!-- RIA&#45;&gt;RMF -->
<g id="edge51" class="edge">
<title>RIA&#45;&gt;RMF</title>
<path fill="none" stroke="gray" stroke-width="2" d="M47.23,-743.3C63.19,-757.91 89.31,-781.82 115.7,-805.98"/>
<polygon fill="gray" stroke="gray" stroke-width="2" points="113.06,-808.31 122.8,-812.48 117.79,-803.15 113.06,-808.31"/>
</g>
<!-- RIC -->
<g id="node34" class="node">
<title>RIC</title>
<ellipse fill="none" stroke="black" cx="30.61" cy="-650" rx="27" ry="18"/>
<text text-anchor="middle" x="30.61" y="-644.58" font-family="Times New Roman,serif" font-size="14.00">RIC</text>
</g>
<!-- RIC&#45;&gt;RMF -->
<g id="edge52" class="edge">
<title>RIC&#45;&gt;RMF</title>
<path fill="none" stroke="gray" stroke-width="2" d="M43.65,-666.27C51.84,-677.34 61.21,-690 61.21,-690 61.21,-690 97.3,-739.71 133.21,-789.2"/>
<polygon fill="gray" stroke="gray" stroke-width="2" points="130.38,-791.25 139.09,-797.28 136.04,-787.13 130.38,-791.25"/>
</g>
<!-- SDQ -->
<g id="node35" class="node">
<title>SDQ</title>
<ellipse fill="none" stroke="black" cx="30.61" cy="-571" rx="29.61" ry="18"/>
<text text-anchor="middle" x="30.61" y="-565.58" font-family="Times New Roman,serif" font-size="14.00">SDQ</text>
</g>
<!-- SDQ&#45;&gt;RMF -->
<g id="edge53" class="edge">
<title>SDQ&#45;&gt;RMF</title>
<path fill="none" stroke="gray" stroke-width="0.2" d="M43.65,-587.27C51.84,-598.34 61.21,-611 61.21,-611 61.21,-611 109.5,-704.21 149.96,-782.29"/>
<polygon fill="gray" stroke="gray" stroke-width="0.2" points="146.75,-783.71 154.46,-790.97 152.96,-780.49 146.75,-783.71"/>
</g>
<!-- URX -->
<g id="node36" class="node">
<title>URX</title>
<ellipse fill="none" stroke="black" cx="30.61" cy="-492" rx="30.11" ry="18"/>
<text text-anchor="middle" x="30.61" y="-486.57" font-family="Times New Roman,serif" font-size="14.00">URX</text>
</g>
<!-- URX&#45;&gt;RMF -->
<g id="edge54" class="edge">
<title>URX&#45;&gt;RMF</title>
<path fill="none" stroke="gray" stroke-width="0.2" d="M43.65,-508.27C51.84,-519.34 61.21,-532 61.21,-532 61.21,-532 118.21,-673.5 160.23,-777.83"/>
<polygon fill="gray" stroke="gray" stroke-width="0.2" points="156.9,-778.92 163.88,-786.89 163.39,-776.3 156.9,-778.92"/>
</g>
<!-- VBn -->
<g id="node37" class="node">
<title>VBn</title>
<ellipse fill="none" stroke="black" cx="30.61" cy="-413" rx="27.61" ry="18"/>
<text text-anchor="middle" x="30.61" y="-407.57" font-family="Times New Roman,serif" font-size="14.00">VBn</text>
</g>
<!-- VBn&#45;&gt;RMF -->
<g id="edge55" class="edge">
<title>VBn&#45;&gt;RMF</title>
<path fill="none" stroke="gray" stroke-width="2" d="M43.65,-429.27C51.84,-440.34 61.21,-453 61.21,-453 61.21,-453 124.01,-643.6 166.38,-772.18"/>
<polygon fill="gray" stroke="gray" stroke-width="2" points="163.01,-773.15 169.46,-781.55 169.66,-770.95 163.01,-773.15"/>
</g>
</g>
</svg>
