<?xml version="1.0" encoding="UTF-8" standalone="no"?>
<!DOCTYPE svg PUBLIC "-//W3C//DTD SVG 1.1//EN"
 "http://www.w3.org/Graphics/SVG/1.1/DTD/svg11.dtd">
<!-- Generated by graphviz version 11.0.0 (20240428.1522)
 -->
<!-- Pages: 1 -->
<svg width="422pt" height="2888pt"
 viewBox="0.00 0.00 422.41 2888.00" xmlns="http://www.w3.org/2000/svg" xmlns:xlink="http://www.w3.org/1999/xlink">
<g id="graph0" class="graph" transform="scale(1 1) rotate(0) translate(4 2884)">
<polygon fill="white" stroke="none" points="-4,4 -4,-2884 418.41,-2884 418.41,4 -4,4"/>
<!-- RMG -->
<g id="node1" class="node">
<title>RMG</title>
<ellipse fill="none" stroke="black" cx="207.21" cy="-1400" rx="108" ry="108"/>
<text text-anchor="middle" x="207.21" y="-1381" font-family="Times New Roman,serif" font-size="50.00">RMG</text>
</g>
<!-- RMG&#45;&gt;RMG -->
<g id="edge1" class="edge">
<title>RMG&#45;&gt;RMG</title>
<path fill="none" stroke="gray" stroke-width="0.2" d="M174.59,-1503.39C176.53,-1530.51 187.4,-1551 207.21,-1551 224.46,-1551 234.93,-1535.45 238.62,-1513.52"/>
<polygon fill="gray" stroke="gray" stroke-width="0.2" points="242.09,-1514.04 239.78,-1503.69 235.14,-1513.22 242.09,-1514.04"/>
</g>
<!-- ADA -->
<g id="node2" class="node">
<title>ADA</title>
<ellipse fill="none" stroke="black" cx="382.81" cy="-2862" rx="30.11" ry="18"/>
<text text-anchor="middle" x="382.81" y="-2856.57" font-family="Times New Roman,serif" font-size="14.00">ADA</text>
</g>
<!-- RMG&#45;&gt;ADA -->
<g id="edge2" class="edge">
<title>RMG&#45;&gt;ADA</title>
<path fill="none" stroke="gray" stroke-width="2" d="M219.97,-1507.57C254.18,-1835.95 351.21,-2801.5 351.21,-2801.5 351.21,-2801.5 362.81,-2816.29 371.72,-2832.67"/>
<polygon fill="gray" stroke="gray" stroke-width="2" points="368.44,-2833.92 375.97,-2841.38 374.74,-2830.86 368.44,-2833.92"/>
</g>
<!-- ADE -->
<g id="node3" class="node">
<title>ADE</title>
<ellipse fill="none" stroke="black" cx="382.81" cy="-2783" rx="29.11" ry="18"/>
<text text-anchor="middle" x="382.81" y="-2777.57" font-family="Times New Roman,serif" font-size="14.00">ADE</text>
</g>
<!-- RMG&#45;&gt;ADE -->
<g id="edge3" class="edge">
<title>RMG&#45;&gt;ADE</title>
<path fill="none" stroke="gray" stroke-width="0.2" d="M220.68,-1507.49C255.49,-1822.94 351.21,-2722.5 351.21,-2722.5 351.21,-2722.5 363.95,-2738.74 372.99,-2756.04"/>
<polygon fill="gray" stroke="gray" stroke-width="0.2" points="369.71,-2757.3 377.16,-2764.83 376.04,-2754.29 369.71,-2757.3"/>
</g>
<!-- ADL -->
<g id="node4" class="node">
<title>ADL</title>
<ellipse fill="none" stroke="black" cx="382.81" cy="-2704" rx="29.11" ry="18"/>
<text text-anchor="middle" x="382.81" y="-2698.57" font-family="Times New Roman,serif" font-size="14.00">ADL</text>
</g>
<!-- RMG&#45;&gt;ADL -->
<g id="edge4" class="edge">
<title>RMG&#45;&gt;ADL</title>
<path fill="none" stroke="gray" stroke-width="0.2" d="M221.47,-1507.32C256.92,-1809.41 351.21,-2643.5 351.21,-2643.5 351.21,-2643.5 363.95,-2659.74 372.99,-2677.04"/>
<polygon fill="gray" stroke="gray" stroke-width="0.2" points="369.71,-2678.3 377.16,-2685.83 376.04,-2675.29 369.71,-2678.3"/>
</g>
<!-- AIB -->
<g id="node5" class="node">
<title>AIB</title>
<ellipse fill="none" stroke="black" cx="382.81" cy="-2625" rx="27" ry="18"/>
<text text-anchor="middle" x="382.81" y="-2619.57" font-family="Times New Roman,serif" font-size="14.00">AIB</text>
</g>
<!-- RMG&#45;&gt;AIB -->
<g id="edge5" class="edge">
<title>RMG&#45;&gt;AIB</title>
<path fill="none" stroke="gray" stroke-width="0.2" d="M221.15,-1507.34C256.35,-1799.29 351.21,-2586 351.21,-2586 351.21,-2586 356.77,-2593.09 363.15,-2601.22"/>
<polygon fill="gray" stroke="gray" stroke-width="0.2" points="360.25,-2603.19 369.17,-2608.9 365.76,-2598.87 360.25,-2603.19"/>
</g>
<!-- AIM -->
<g id="node6" class="node">
<title>AIM</title>
<ellipse fill="none" stroke="black" cx="382.81" cy="-2546" rx="28.11" ry="18"/>
<text text-anchor="middle" x="382.81" y="-2540.57" font-family="Times New Roman,serif" font-size="14.00">AIM</text>
</g>
<!-- RMG&#45;&gt;AIM -->
<g id="edge6" class="edge">
<title>RMG&#45;&gt;AIM</title>
<path fill="none" stroke="red" stroke-width="0.2" d="M223.41,-1507.09C260.23,-1781.25 351.21,-2485.5 351.21,-2485.5 351.21,-2485.5 363.95,-2501.74 372.99,-2519.04"/>
<polygon fill="red" stroke="red" stroke-width="0.2" points="369.71,-2520.3 377.16,-2527.83 376.04,-2517.29 369.71,-2520.3"/>
</g>
<!-- ALM -->
<g id="node7" class="node">
<title>ALM</title>
<ellipse fill="none" stroke="black" cx="382.81" cy="-2467" rx="30.61" ry="18"/>
<text text-anchor="middle" x="382.81" y="-2461.57" font-family="Times New Roman,serif" font-size="14.00">ALM</text>
</g>
<!-- RMG&#45;&gt;ALM -->
<g id="edge7" class="edge">
<title>RMG&#45;&gt;ALM</title>
<path fill="none" stroke="red" stroke-width="0.2" d="M224.61,-1506.99C262.17,-1766.45 351.21,-2406.5 351.21,-2406.5 351.21,-2406.5 363.95,-2422.74 372.99,-2440.04"/>
<polygon fill="red" stroke="red" stroke-width="0.2" points="369.71,-2441.3 377.16,-2448.83 376.04,-2438.29 369.71,-2441.3"/>
</g>
<!-- ALN -->
<g id="node8" class="node">
<title>ALN</title>
<ellipse fill="none" stroke="black" cx="382.81" cy="-2388" rx="29.11" ry="18"/>
<text text-anchor="middle" x="382.81" y="-2382.57" font-family="Times New Roman,serif" font-size="14.00">ALN</text>
</g>
<!-- RMG&#45;&gt;ALN -->
<g id="edge8" class="edge">
<title>RMG&#45;&gt;ALN</title>
<path fill="none" stroke="gray" stroke-width="2" d="M225.96,-1506.49C264.25,-1750.45 351.21,-2327.5 351.21,-2327.5 351.21,-2327.5 362.81,-2342.29 371.72,-2358.67"/>
<polygon fill="gray" stroke="gray" stroke-width="2" points="368.44,-2359.92 375.97,-2367.38 374.74,-2356.86 368.44,-2359.92"/>
</g>
<!-- ASH -->
<g id="node9" class="node">
<title>ASH</title>
<ellipse fill="none" stroke="black" cx="382.81" cy="-2309" rx="29.11" ry="18"/>
<text text-anchor="middle" x="382.81" y="-2303.57" font-family="Times New Roman,serif" font-size="14.00">ASH</text>
</g>
<!-- RMG&#45;&gt;ASH -->
<g id="edge9" class="edge">
<title>RMG&#45;&gt;ASH</title>
<path fill="none" stroke="red" stroke-width="2" d="M227.64,-1506.5C266.74,-1734.61 351.21,-2248.5 351.21,-2248.5 351.21,-2248.5 362.81,-2263.29 371.72,-2279.67"/>
<polygon fill="red" stroke="red" stroke-width="2" points="368.44,-2280.92 375.97,-2288.38 374.74,-2277.86 368.44,-2280.92"/>
</g>
<!-- AVA -->
<g id="node10" class="node">
<title>AVA</title>
<ellipse fill="none" stroke="black" cx="382.81" cy="-2230" rx="30.11" ry="18"/>
<text text-anchor="middle" x="382.81" y="-2224.57" font-family="Times New Roman,serif" font-size="14.00">AVA</text>
</g>
<!-- RMG&#45;&gt;AVA -->
<g id="edge10" class="edge">
<title>RMG&#45;&gt;AVA</title>
<path fill="none" stroke="red" stroke-width="0.2" d="M227.42,-1506.27C266.42,-1721.99 351.21,-2191 351.21,-2191 351.21,-2191 356.5,-2197.75 362.69,-2205.63"/>
<polygon fill="red" stroke="red" stroke-width="0.2" points="359.89,-2207.74 368.82,-2213.45 365.4,-2203.42 359.89,-2207.74"/>
</g>
<!-- AVB -->
<g id="node11" class="node">
<title>AVB</title>
<ellipse fill="none" stroke="black" cx="382.81" cy="-2151" rx="29.61" ry="18"/>
<text text-anchor="middle" x="382.81" y="-2145.57" font-family="Times New Roman,serif" font-size="14.00">AVB</text>
</g>
<!-- RMG&#45;&gt;AVB -->
<g id="edge11" class="edge">
<title>RMG&#45;&gt;AVB</title>
<path fill="none" stroke="red" stroke-width="5" d="M229.46,-1505.82C269.3,-1704.17 351.21,-2112 351.21,-2112 351.21,-2112 354.7,-2116.46 359.33,-2122.36"/>
<polygon fill="red" stroke="red" stroke-width="5" points="355.54,-2124.61 365.16,-2129.78 362.43,-2119.21 355.54,-2124.61"/>
</g>
<!-- AVD -->
<g id="node12" class="node">
<title>AVD</title>
<ellipse fill="none" stroke="black" cx="382.81" cy="-2072" rx="30.11" ry="18"/>
<text text-anchor="middle" x="382.81" y="-2066.57" font-family="Times New Roman,serif" font-size="14.00">AVD</text>
</g>
<!-- RMG&#45;&gt;AVD -->
<g id="edge12" class="edge">
<title>RMG&#45;&gt;AVD</title>
<path fill="none" stroke="gray" stroke-width="2" d="M232.06,-1505.59C272.75,-1685.69 351.21,-2033 351.21,-2033 351.21,-2033 355.66,-2038.67 361.16,-2045.69"/>
<polygon fill="gray" stroke="gray" stroke-width="2" points="358.21,-2047.6 367.14,-2053.31 363.72,-2043.28 358.21,-2047.6"/>
</g>
<!-- AVE -->
<g id="node13" class="node">
<title>AVE</title>
<ellipse fill="none" stroke="black" cx="382.81" cy="-1993" rx="29.11" ry="18"/>
<text text-anchor="middle" x="382.81" y="-1987.58" font-family="Times New Roman,serif" font-size="14.00">AVE</text>
</g>
<!-- RMG&#45;&gt;AVE -->
<g id="edge13" class="edge">
<title>RMG&#45;&gt;AVE</title>
<path fill="none" stroke="red" stroke-width="5" d="M238.62,-1503.79C280.61,-1658.99 351.21,-1932.5 351.21,-1932.5 351.21,-1932.5 361.51,-1945.63 370.16,-1960.85"/>
<polygon fill="red" stroke="red" stroke-width="5" points="366.11,-1962.54 374.5,-1969.53 373.94,-1958.62 366.11,-1962.54"/>
</g>
<!-- AVF -->
<g id="node14" class="node">
<title>AVF</title>
<ellipse fill="none" stroke="black" cx="382.81" cy="-1914" rx="29.11" ry="18"/>
<text text-anchor="middle" x="382.81" y="-1908.58" font-family="Times New Roman,serif" font-size="14.00">AVF</text>
</g>
<!-- RMG&#45;&gt;AVF -->
<g id="edge14" class="edge">
<title>RMG&#45;&gt;AVF</title>
<path fill="none" stroke="gray" stroke-width="0.2" d="M243.46,-1502.26C285.81,-1636.26 351.21,-1853.5 351.21,-1853.5 351.21,-1853.5 363.95,-1869.74 372.99,-1887.04"/>
<polygon fill="gray" stroke="gray" stroke-width="0.2" points="369.71,-1888.3 377.16,-1895.83 376.04,-1885.29 369.71,-1888.3"/>
</g>
<!-- AVJ -->
<g id="node15" class="node">
<title>AVJ</title>
<ellipse fill="none" stroke="black" cx="382.81" cy="-1835" rx="27.11" ry="18"/>
<text text-anchor="middle" x="382.81" y="-1829.58" font-family="Times New Roman,serif" font-size="14.00">AVJ</text>
</g>
<!-- RMG&#45;&gt;AVJ -->
<g id="edge15" class="edge">
<title>RMG&#45;&gt;AVJ</title>
<path fill="none" stroke="gray" stroke-width="2" d="M244.94,-1501.72C287.31,-1619.05 351.21,-1796 351.21,-1796 351.21,-1796 355.78,-1801.83 361.4,-1808.99"/>
<polygon fill="gray" stroke="gray" stroke-width="2" points="358.57,-1811.05 367.49,-1816.76 364.07,-1806.73 358.57,-1811.05"/>
</g>
<!-- CEP -->
<g id="node16" class="node">
<title>CEP</title>
<ellipse fill="none" stroke="black" cx="382.81" cy="-1756" rx="28.11" ry="18"/>
<text text-anchor="middle" x="382.81" y="-1750.58" font-family="Times New Roman,serif" font-size="14.00">CEP</text>
</g>
<!-- RMG&#45;&gt;CEP -->
<g id="edge16" class="edge">
<title>RMG&#45;&gt;CEP</title>
<path fill="none" stroke="gray" stroke-width="0.2" d="M258.82,-1495.32C299.96,-1581.9 351.21,-1695.5 351.21,-1695.5 351.21,-1695.5 363.95,-1711.74 372.99,-1729.04"/>
<polygon fill="gray" stroke="gray" stroke-width="0.2" points="369.71,-1730.3 377.16,-1737.83 376.04,-1727.29 369.71,-1730.3"/>
</g>
<!-- HSN -->
<g id="node17" class="node">
<title>HSN</title>
<ellipse fill="none" stroke="black" cx="382.81" cy="-1677" rx="29.11" ry="18"/>
<text text-anchor="middle" x="382.81" y="-1671.58" font-family="Times New Roman,serif" font-size="14.00">HSN</text>
</g>
<!-- RMG&#45;&gt;HSN -->
<g id="edge17" class="edge">
<title>RMG&#45;&gt;HSN</title>
<path fill="none" stroke="gray" stroke-width="0.2" d="M271.55,-1487.28C309.8,-1547.59 351.21,-1616.5 351.21,-1616.5 351.21,-1616.5 363.95,-1632.74 372.99,-1650.04"/>
<polygon fill="gray" stroke="gray" stroke-width="0.2" points="369.71,-1651.3 377.16,-1658.83 376.04,-1648.29 369.71,-1651.3"/>
</g>
<!-- IL1 -->
<g id="node18" class="node">
<title>IL1</title>
<ellipse fill="none" stroke="black" cx="382.81" cy="-1598" rx="27" ry="18"/>
<text text-anchor="middle" x="382.81" y="-1592.58" font-family="Times New Roman,serif" font-size="14.00">IL1</text>
</g>
<!-- RMG&#45;&gt;IL1 -->
<g id="edge18" class="edge">
<title>RMG&#45;&gt;IL1</title>
<path fill="none" stroke="gray" stroke-width="0.2" d="M286.63,-1473.38C317.49,-1508.09 349.78,-1547.17 367.7,-1572.59"/>
<polygon fill="gray" stroke="gray" stroke-width="0.2" points="364.72,-1574.43 373.24,-1580.73 370.5,-1570.49 364.72,-1574.43"/>
</g>
<!-- IL2 -->
<g id="node19" class="node">
<title>IL2</title>
<ellipse fill="none" stroke="black" cx="382.81" cy="-1519" rx="27" ry="18"/>
<text text-anchor="middle" x="382.81" y="-1513.58" font-family="Times New Roman,serif" font-size="14.00">IL2</text>
</g>
<!-- RMG&#45;&gt;IL2 -->
<g id="edge19" class="edge">
<title>RMG&#45;&gt;IL2</title>
<path fill="none" stroke="gray" stroke-width="0.2" d="M303.64,-1449.36C326.45,-1465.38 348.46,-1482.34 363.28,-1495.87"/>
<polygon fill="gray" stroke="gray" stroke-width="0.2" points="360.47,-1498.03 370.12,-1502.4 365.31,-1492.96 360.47,-1498.03"/>
</g>
<!-- OLL -->
<g id="node20" class="node">
<title>OLL</title>
<ellipse fill="none" stroke="black" cx="382.81" cy="-1440" rx="28.61" ry="18"/>
<text text-anchor="middle" x="382.81" y="-1434.58" font-family="Times New Roman,serif" font-size="14.00">OLL</text>
</g>
<!-- RMG&#45;&gt;OLL -->
<g id="edge20" class="edge">
<title>RMG&#45;&gt;OLL</title>
<path fill="none" stroke="gray" stroke-width="0.2" d="M315.19,-1408.92C329.97,-1412.91 343.93,-1417.37 355.22,-1421.87"/>
<polygon fill="gray" stroke="gray" stroke-width="0.2" points="353.55,-1424.96 364.12,-1425.7 356.32,-1418.53 353.55,-1424.96"/>
</g>
<!-- PLN -->
<g id="node21" class="node">
<title>PLN</title>
<ellipse fill="none" stroke="black" cx="382.81" cy="-1361" rx="28.11" ry="18"/>
<text text-anchor="middle" x="382.81" y="-1355.58" font-family="Times New Roman,serif" font-size="14.00">PLN</text>
</g>
<!-- RMG&#45;&gt;PLN -->
<g id="edge21" class="edge">
<title>RMG&#45;&gt;PLN</title>
<path fill="none" stroke="gray" stroke-width="0.2" d="M308.44,-1361.53C321.77,-1358.88 334.67,-1356.85 345.83,-1355.72"/>
<polygon fill="gray" stroke="gray" stroke-width="0.2" points="345.97,-1359.22 355.66,-1354.95 345.42,-1352.24 345.97,-1359.22"/>
</g>
<!-- PVN -->
<g id="node22" class="node">
<title>PVN</title>
<ellipse fill="none" stroke="black" cx="382.81" cy="-1282" rx="29.11" ry="18"/>
<text text-anchor="middle" x="382.81" y="-1276.58" font-family="Times New Roman,serif" font-size="14.00">PVN</text>
</g>
<!-- RMG&#45;&gt;PVN -->
<g id="edge22" class="edge">
<title>RMG&#45;&gt;PVN</title>
<path fill="none" stroke="gray" stroke-width="0.2" d="M288.91,-1329.06C309.08,-1315.11 329.69,-1302.03 346.36,-1292.8"/>
<polygon fill="gray" stroke="gray" stroke-width="0.2" points="347.75,-1296.03 354.92,-1288.23 344.45,-1289.85 347.75,-1296.03"/>
</g>
<!-- PVP -->
<g id="node23" class="node">
<title>PVP</title>
<ellipse fill="none" stroke="black" cx="382.81" cy="-1203" rx="28.11" ry="18"/>
<text text-anchor="middle" x="382.81" y="-1197.58" font-family="Times New Roman,serif" font-size="14.00">PVP</text>
</g>
<!-- RMG&#45;&gt;PVP -->
<g id="edge23" class="edge">
<title>RMG&#45;&gt;PVP</title>
<path fill="none" stroke="gray" stroke-width="0.2" d="M271.37,-1312.74C299.82,-1279.12 331.93,-1243.82 354.16,-1222.19"/>
<polygon fill="gray" stroke="gray" stroke-width="0.2" points="356.53,-1224.77 361.37,-1215.35 351.71,-1219.7 356.53,-1224.77"/>
</g>
<!-- RIA -->
<g id="node24" class="node">
<title>RIA</title>
<ellipse fill="none" stroke="black" cx="382.81" cy="-1124" rx="27" ry="18"/>
<text text-anchor="middle" x="382.81" y="-1118.58" font-family="Times New Roman,serif" font-size="14.00">RIA</text>
</g>
<!-- RMG&#45;&gt;RIA -->
<g id="edge24" class="edge">
<title>RMG&#45;&gt;RIA</title>
<path fill="none" stroke="gray" stroke-width="0.2" d="M256.62,-1303.47C298.1,-1230.14 351.21,-1142.5 351.21,-1142.5 351.21,-1142.5 351.67,-1141.89 352.48,-1140.87"/>
<polygon fill="gray" stroke="gray" stroke-width="0.2" points="355,-1143.31 358.73,-1133.4 349.63,-1138.82 355,-1143.31"/>
</g>
<!-- RID -->
<g id="node25" class="node">
<title>RID</title>
<ellipse fill="none" stroke="black" cx="382.81" cy="-1045" rx="27" ry="18"/>
<text text-anchor="middle" x="382.81" y="-1039.58" font-family="Times New Roman,serif" font-size="14.00">RID</text>
</g>
<!-- RMG&#45;&gt;RID -->
<g id="edge25" class="edge">
<title>RMG&#45;&gt;RID</title>
<path fill="none" stroke="gray" stroke-width="0.2" d="M252.86,-1301.63C294.82,-1209.2 351.21,-1085 351.21,-1085 351.21,-1085 357.04,-1077.37 363.61,-1068.78"/>
<polygon fill="gray" stroke="gray" stroke-width="0.2" points="366.23,-1071.12 369.53,-1061.05 360.67,-1066.86 366.23,-1071.12"/>
</g>
<!-- RIF -->
<g id="node26" class="node">
<title>RIF</title>
<ellipse fill="none" stroke="black" cx="382.81" cy="-966" rx="27" ry="18"/>
<text text-anchor="middle" x="382.81" y="-960.58" font-family="Times New Roman,serif" font-size="14.00">RIF</text>
</g>
<!-- RMG&#45;&gt;RIF -->
<g id="edge26" class="edge">
<title>RMG&#45;&gt;RIF</title>
<path fill="none" stroke="gray" stroke-width="0.2" d="M240.39,-1296.98C282.56,-1173.65 351.21,-984.5 351.21,-984.5 351.21,-984.5 351.67,-983.89 352.48,-982.87"/>
<polygon fill="gray" stroke="gray" stroke-width="0.2" points="355,-985.31 358.73,-975.4 349.63,-980.82 355,-985.31"/>
</g>
<!-- RIG -->
<g id="node27" class="node">
<title>RIG</title>
<ellipse fill="none" stroke="black" cx="382.81" cy="-887" rx="27.11" ry="18"/>
<text text-anchor="middle" x="382.81" y="-881.58" font-family="Times New Roman,serif" font-size="14.00">RIG</text>
</g>
<!-- RMG&#45;&gt;RIG -->
<g id="edge27" class="edge">
<title>RMG&#45;&gt;RIG</title>
<path fill="none" stroke="gray" stroke-width="0.2" d="M235.69,-1295.39C277.23,-1149.7 351.21,-904.5 351.21,-904.5 351.21,-904.5 351.51,-904.11 352.06,-903.43"/>
<polygon fill="gray" stroke="gray" stroke-width="0.2" points="354.58,-905.87 358.42,-896 349.26,-901.32 354.58,-905.87"/>
</g>
<!-- RIR -->
<g id="node28" class="node">
<title>RIR</title>
<ellipse fill="none" stroke="black" cx="382.81" cy="-808" rx="27" ry="18"/>
<text text-anchor="middle" x="382.81" y="-802.58" font-family="Times New Roman,serif" font-size="14.00">RIR</text>
</g>
<!-- RMG&#45;&gt;RIR -->
<g id="edge28" class="edge">
<title>RMG&#45;&gt;RIR</title>
<path fill="none" stroke="gray" stroke-width="0.2" d="M232.14,-1294.66C272.85,-1128.51 351.21,-825.5 351.21,-825.5 351.21,-825.5 351.51,-825.11 352.06,-824.43"/>
<polygon fill="gray" stroke="gray" stroke-width="0.2" points="354.58,-826.87 358.42,-817 349.26,-822.32 354.58,-826.87"/>
</g>
<!-- RMD -->
<g id="node29" class="node">
<title>RMD</title>
<ellipse fill="none" stroke="black" cx="382.81" cy="-729" rx="31.6" ry="18"/>
<text text-anchor="middle" x="382.81" y="-723.58" font-family="Times New Roman,serif" font-size="14.00">RMD</text>
</g>
<!-- RMG&#45;&gt;RMD -->
<g id="edge29" class="edge">
<title>RMG&#45;&gt;RMD</title>
<path fill="none" stroke="black" stroke-width="5" d="M229.46,-1293.89C264.78,-1129.51 333.19,-826.25 352.15,-754.97"/>
<polygon fill="black" stroke="black" stroke-width="5" points="356.23,-756.59 354.98,-745.75 347.86,-754.02 356.23,-756.59"/>
</g>
<!-- RMF -->
<g id="node30" class="node">
<title>RMF</title>
<ellipse fill="none" stroke="black" cx="382.81" cy="-650" rx="30.61" ry="18"/>
<text text-anchor="middle" x="382.81" y="-644.58" font-family="Times New Roman,serif" font-size="14.00">RMF</text>
</g>
<!-- RMG&#45;&gt;RMF -->
<g id="edge30" class="edge">
<title>RMG&#45;&gt;RMF</title>
<path fill="none" stroke="gray" stroke-width="5" d="M227.27,-1293.57C262.1,-1111.6 333.79,-754.21 352.96,-675.57"/>
<polygon fill="gray" stroke="gray" stroke-width="5" points="357.12,-676.94 355.67,-666.12 348.71,-674.52 357.12,-676.94"/>
</g>
<!-- RMH -->
<g id="node31" class="node">
<title>RMH</title>
<ellipse fill="none" stroke="black" cx="382.81" cy="-571" rx="31.6" ry="18"/>
<text text-anchor="middle" x="382.81" y="-565.58" font-family="Times New Roman,serif" font-size="14.00">RMH</text>
</g>
<!-- RMG&#45;&gt;RMH -->
<g id="edge31" class="edge">
<title>RMG&#45;&gt;RMH</title>
<path fill="none" stroke="gray" stroke-width="2" d="M225.53,-1293.12C260.21,-1092.09 336.03,-672.44 353.47,-594.36"/>
<polygon fill="gray" stroke="gray" stroke-width="2" points="356.85,-595.28 356.04,-584.71 350.09,-593.48 356.85,-595.28"/>
</g>
<!-- SAA -->
<g id="node32" class="node">
<title>SAA</title>
<ellipse fill="none" stroke="black" cx="382.81" cy="-492" rx="29.11" ry="18"/>
<text text-anchor="middle" x="382.81" y="-486.57" font-family="Times New Roman,serif" font-size="14.00">SAA</text>
</g>
<!-- RMG&#45;&gt;SAA -->
<g id="edge32" class="edge">
<title>RMG&#45;&gt;SAA</title>
<path fill="none" stroke="gray" stroke-width="2" d="M224.06,-1292.9C258.2,-1075.6 336.64,-598.08 354.43,-514.36"/>
<polygon fill="gray" stroke="gray" stroke-width="2" points="357.81,-515.28 356.94,-504.72 351.04,-513.52 357.81,-515.28"/>
</g>
<!-- SDQ -->
<g id="node33" class="node">
<title>SDQ</title>
<ellipse fill="none" stroke="black" cx="382.81" cy="-413" rx="29.61" ry="18"/>
<text text-anchor="middle" x="382.81" y="-407.57" font-family="Times New Roman,serif" font-size="14.00">SDQ</text>
</g>
<!-- RMG&#45;&gt;SDQ -->
<g id="edge33" class="edge">
<title>RMG&#45;&gt;SDQ</title>
<path fill="none" stroke="gray" stroke-width="0.2" d="M222.77,-1293.04C256.68,-1057.89 338.88,-512.24 355.21,-432.51"/>
<polygon fill="gray" stroke="gray" stroke-width="0.2" points="358.53,-433.64 357.62,-423.08 351.75,-431.91 358.53,-433.64"/>
</g>
<!-- SIA -->
<g id="node34" class="node">
<title>SIA</title>
<ellipse fill="none" stroke="black" cx="382.81" cy="-334" rx="27" ry="18"/>
<text text-anchor="middle" x="382.81" y="-328.57" font-family="Times New Roman,serif" font-size="14.00">SIA</text>
</g>
<!-- RMG&#45;&gt;SIA -->
<g id="edge34" class="edge">
<title>RMG&#45;&gt;SIA</title>
<path fill="none" stroke="gray" stroke-width="2" d="M223.1,-1293C259.73,-1029.96 351.21,-373 351.21,-373 351.21,-373 355.78,-367.17 361.4,-360.01"/>
<polygon fill="gray" stroke="gray" stroke-width="2" points="364.07,-362.27 367.49,-352.24 358.57,-357.95 364.07,-362.27"/>
</g>
<!-- SIB -->
<g id="node35" class="node">
<title>SIB</title>
<ellipse fill="none" stroke="black" cx="382.81" cy="-255" rx="27" ry="18"/>
<text text-anchor="middle" x="382.81" y="-249.57" font-family="Times New Roman,serif" font-size="14.00">SIB</text>
</g>
<!-- RMG&#45;&gt;SIB -->
<g id="edge35" class="edge">
<title>RMG&#45;&gt;SIB</title>
<path fill="none" stroke="red" stroke-width="5" d="M222.08,-1292.7C257.99,-1014.95 351.21,-294 351.21,-294 351.21,-294 354.8,-289.42 359.53,-283.39"/>
<polygon fill="red" stroke="red" stroke-width="5" points="362.78,-286.34 365.51,-275.77 355.9,-280.94 362.78,-286.34"/>
</g>
<!-- SMB -->
<g id="node36" class="node">
<title>SMB</title>
<ellipse fill="none" stroke="black" cx="382.81" cy="-176" rx="30.11" ry="18"/>
<text text-anchor="middle" x="382.81" y="-170.57" font-family="Times New Roman,serif" font-size="14.00">SMB</text>
</g>
<!-- RMG&#45;&gt;SMB -->
<g id="edge36" class="edge">
<title>RMG&#45;&gt;SMB</title>
<path fill="none" stroke="red" stroke-width="2" d="M220.03,-1292.51C251.92,-1017.12 338.07,-302.43 354.85,-198.7"/>
<polygon fill="red" stroke="red" stroke-width="2" points="358.25,-199.59 356.8,-189.09 351.38,-198.2 358.25,-199.59"/>
</g>
<!-- SMD -->
<g id="node37" class="node">
<title>SMD</title>
<ellipse fill="none" stroke="black" cx="382.81" cy="-97" rx="30.61" ry="18"/>
<text text-anchor="middle" x="382.81" y="-91.58" font-family="Times New Roman,serif" font-size="14.00">SMD</text>
</g>
<!-- RMG&#45;&gt;SMD -->
<g id="edge37" class="edge">
<title>RMG&#45;&gt;SMD</title>
<path fill="none" stroke="gray" stroke-width="2" d="M219.34,-1292.35C250.7,-1003.73 338.26,-228.99 354.94,-119.91"/>
<polygon fill="gray" stroke="gray" stroke-width="2" points="358.38,-120.58 356.83,-110.1 351.5,-119.26 358.38,-120.58"/>
</g>
<!-- URX -->
<g id="node38" class="node">
<title>URX</title>
<ellipse fill="none" stroke="black" cx="382.81" cy="-18" rx="30.11" ry="18"/>
<text text-anchor="middle" x="382.81" y="-12.57" font-family="Times New Roman,serif" font-size="14.00">URX</text>
</g>
<!-- RMG&#45;&gt;URX -->
<g id="edge38" class="edge">
<title>RMG&#45;&gt;URX</title>
<path fill="none" stroke="red" stroke-width="2" d="M218.72,-1292.22C249.62,-990.39 338.66,-153.37 355.08,-40.69"/>
<polygon fill="red" stroke="red" stroke-width="2" points="358.48,-41.57 356.85,-31.1 351.59,-40.3 358.48,-41.57"/>
</g>
<!-- ADA&#45;&gt;RMG -->
<g id="edge39" class="edge">
<title>ADA&#45;&gt;RMG</title>
<path fill="none" stroke="gray" stroke-width="0.2" d="M357.4,-2851.87C353.76,-2847.76 351.21,-2844.5 351.21,-2844.5 351.21,-2844.5 252.53,-1862.6 219.12,-1517.76"/>
<polygon fill="gray" stroke="gray" stroke-width="0.2" points="222.62,-1517.66 218.18,-1508.04 215.66,-1518.33 222.62,-1517.66"/>
</g>
<!-- ADE&#45;&gt;RMG -->
<g id="edge40" class="edge">
<title>ADE&#45;&gt;RMG</title>
<path fill="none" stroke="gray" stroke-width="2" d="M357.7,-2773.21C353.9,-2768.94 351.21,-2765.5 351.21,-2765.5 351.21,-2765.5 254.25,-1854.29 220.01,-1520.45"/>
<polygon fill="gray" stroke="gray" stroke-width="2" points="223.53,-1520.46 219.03,-1510.87 216.57,-1521.17 223.53,-1520.46"/>
</g>
<!-- ADL&#45;&gt;RMG -->
<g id="edge41" class="edge">
<title>ADL&#45;&gt;RMG</title>
<path fill="none" stroke="blue" stroke-width="2" d="M357.7,-2694.21C353.9,-2689.94 351.21,-2686.5 351.21,-2686.5 351.21,-2686.5 255.54,-1840.2 220.7,-1520.27"/>
<polygon fill="blue" stroke="blue" stroke-width="2" points="224.23,-1520.3 219.67,-1510.74 217.27,-1521.06 224.23,-1520.3"/>
</g>
<!-- AIM&#45;&gt;RMG -->
<g id="edge42" class="edge">
<title>AIM&#45;&gt;RMG</title>
<path fill="none" stroke="gray" stroke-width="2" d="M358.3,-2536.89C354.19,-2532.31 351.21,-2528.5 351.21,-2528.5 351.21,-2528.5 258.56,-1811.26 222.41,-1520.23"/>
<polygon fill="gray" stroke="gray" stroke-width="2" points="225.91,-1520.03 221.21,-1510.54 218.96,-1520.89 225.91,-1520.03"/>
</g>
<!-- ALM&#45;&gt;RMG -->
<g id="edge43" class="edge">
<title>ALM&#45;&gt;RMG</title>
<path fill="none" stroke="gray" stroke-width="0.2" d="M357.4,-2456.87C353.76,-2452.76 351.21,-2449.5 351.21,-2449.5 351.21,-2449.5 259.65,-1791.3 223.05,-1517.23"/>
<polygon fill="gray" stroke="gray" stroke-width="0.2" points="226.55,-1517 221.76,-1507.55 219.62,-1517.92 226.55,-1517"/>
</g>
<!-- ALN&#45;&gt;RMG -->
<g id="edge44" class="edge">
<title>ALN&#45;&gt;RMG</title>
<path fill="none" stroke="black" stroke-width="5" d="M357.7,-2378.21C353.9,-2373.94 351.21,-2370.5 351.21,-2370.5 351.21,-2370.5 262.91,-1784.52 225.08,-1523.05"/>
<polygon fill="black" stroke="black" stroke-width="5" points="229.42,-1522.5 223.66,-1513.23 220.76,-1523.75 229.42,-1522.5"/>
</g>
<!-- ASH&#45;&gt;RMG -->
<g id="edge45" class="edge">
<title>ASH&#45;&gt;RMG</title>
<path fill="none" stroke="gray" stroke-width="2" d="M357.7,-2299.21C353.9,-2294.94 351.21,-2291.5 351.21,-2291.5 351.21,-2291.5 264.31,-1762.86 226,-1519.55"/>
<polygon fill="gray" stroke="gray" stroke-width="2" points="229.47,-1519.1 224.46,-1509.76 222.55,-1520.18 229.47,-1519.1"/>
</g>
<!-- AVE&#45;&gt;RMG -->
<g id="edge46" class="edge">
<title>AVE&#45;&gt;RMG</title>
<path fill="none" stroke="gray" stroke-width="0.2" d="M357.7,-1983.21C353.9,-1978.94 351.21,-1975.5 351.21,-1975.5 351.21,-1975.5 275.88,-1683.68 234.57,-1515.41"/>
<polygon fill="gray" stroke="gray" stroke-width="0.2" points="237.99,-1514.68 232.21,-1505.8 231.19,-1516.35 237.99,-1514.68"/>
</g>
<!-- AVF&#45;&gt;RMG -->
<g id="edge47" class="edge">
<title>AVF&#45;&gt;RMG</title>
<path fill="none" stroke="gray" stroke-width="0.2" d="M357.7,-1904.21C353.9,-1899.94 351.21,-1896.5 351.21,-1896.5 351.21,-1896.5 280.28,-1660.91 238.33,-1514.05"/>
<polygon fill="gray" stroke="gray" stroke-width="0.2" points="241.8,-1513.46 235.69,-1504.8 235.07,-1515.37 241.8,-1513.46"/>
</g>
<!-- CEP&#45;&gt;RMG -->
<g id="edge48" class="edge">
<title>CEP&#45;&gt;RMG</title>
<path fill="none" stroke="red" stroke-width="2" d="M358.3,-1746.89C354.19,-1742.31 351.21,-1738.5 351.21,-1738.5 351.21,-1738.5 293.83,-1611.31 251.76,-1512.6"/>
<polygon fill="red" stroke="red" stroke-width="2" points="255.03,-1511.33 247.9,-1503.5 248.59,-1514.07 255.03,-1511.33"/>
</g>
<!-- HSN&#45;&gt;RMG -->
<g id="edge49" class="edge">
<title>HSN&#45;&gt;RMG</title>
<path fill="none" stroke="gray" stroke-width="2" d="M357.7,-1667.21C353.9,-1662.94 351.21,-1659.5 351.21,-1659.5 351.21,-1659.5 302.86,-1579.03 262.38,-1507.44"/>
<polygon fill="gray" stroke="gray" stroke-width="2" points="265.66,-1506.13 257.71,-1499.14 259.56,-1509.57 265.66,-1506.13"/>
</g>
<!-- IL1&#45;&gt;RMG -->
<g id="edge50" class="edge">
<title>IL1&#45;&gt;RMG</title>
<path fill="none" stroke="gray" stroke-width="0.2" d="M361.93,-1586.06C341.34,-1567 307.96,-1530.64 277.56,-1494.93"/>
<polygon fill="gray" stroke="gray" stroke-width="0.2" points="280.45,-1492.93 271.32,-1487.56 275.11,-1497.46 280.45,-1492.93"/>
</g>
<!-- IL2&#45;&gt;RMG -->
<g id="edge51" class="edge">
<title>IL2&#45;&gt;RMG</title>
<path fill="none" stroke="gray" stroke-width="0.2" d="M356.67,-1513.52C340.7,-1505.4 318.96,-1491.95 297.05,-1477.02"/>
<polygon fill="gray" stroke="gray" stroke-width="0.2" points="299.12,-1474.2 288.9,-1471.4 295.15,-1479.96 299.12,-1474.2"/>
</g>
<!-- OLL&#45;&gt;RMG -->
<g id="edge52" class="edge">
<title>OLL&#45;&gt;RMG</title>
<path fill="none" stroke="gray" stroke-width="0.2" d="M355.53,-1445.9C344.88,-1445.25 331.83,-1443.47 317.93,-1440.9"/>
<polygon fill="gray" stroke="gray" stroke-width="0.2" points="318.97,-1437.53 308.48,-1439.05 317.63,-1444.4 318.97,-1437.53"/>
</g>
<!-- PLN&#45;&gt;RMG -->
<g id="edge53" class="edge">
<title>PLN&#45;&gt;RMG</title>
<path fill="none" stroke="gray" stroke-width="0.2" d="M364.4,-1375.08C354.16,-1379.82 340.24,-1384.64 324.9,-1389.03"/>
<polygon fill="gray" stroke="gray" stroke-width="0.2" points="324.19,-1385.59 315.48,-1391.62 326.05,-1392.34 324.19,-1385.59"/>
</g>
<!-- PVN&#45;&gt;RMG -->
<g id="edge54" class="edge">
<title>PVN&#45;&gt;RMG</title>
<path fill="none" stroke="gray" stroke-width="0.2" d="M370.39,-1298.28C357.7,-1310.99 335.89,-1328.25 312.3,-1345.08"/>
<polygon fill="gray" stroke="gray" stroke-width="0.2" points="310.3,-1342.21 304.14,-1350.83 314.33,-1347.93 310.3,-1342.21"/>
</g>
<!-- PVP&#45;&gt;RMG -->
<g id="edge55" class="edge">
<title>PVP&#45;&gt;RMG</title>
<path fill="none" stroke="gray" stroke-width="0.2" d="M373.19,-1220.31C358.13,-1243.23 325.57,-1283.04 293.32,-1319.54"/>
<polygon fill="gray" stroke="gray" stroke-width="0.2" points="291.11,-1316.76 287.08,-1326.56 296.34,-1321.41 291.11,-1316.76"/>
</g>
<!-- RIA&#45;&gt;RMG -->
<g id="edge56" class="edge">
<title>RIA&#45;&gt;RMG</title>
<path fill="none" stroke="blue" stroke-width="5" d="M377.29,-1142.05C368.78,-1162.53 351.21,-1185.5 351.21,-1185.5 351.21,-1185.5 315.98,-1243.64 280.49,-1299.58"/>
<polygon fill="blue" stroke="blue" stroke-width="5" points="277,-1296.91 275.32,-1307.69 284.38,-1301.61 277,-1296.91"/>
</g>
<!-- RIF&#45;&gt;RMG -->
<g id="edge57" class="edge">
<title>RIF&#45;&gt;RMG</title>
<path fill="none" stroke="gray" stroke-width="0.2" d="M377.29,-984.05C368.78,-1004.53 351.21,-1027.5 351.21,-1027.5 351.21,-1027.5 295.54,-1180.87 253.67,-1291.01"/>
<polygon fill="gray" stroke="gray" stroke-width="0.2" points="250.44,-1289.65 250.16,-1300.24 256.99,-1292.14 250.44,-1289.65"/>
</g>
<!-- RIG&#45;&gt;RMG -->
<g id="edge58" class="edge">
<title>RIG&#45;&gt;RMG</title>
<path fill="none" stroke="red" stroke-width="2" d="M377.29,-904.9C368.78,-925.1 351.21,-947.5 351.21,-947.5 351.21,-947.5 289.71,-1151.35 247.37,-1285.62"/>
<polygon fill="red" stroke="red" stroke-width="2" points="244.05,-1284.51 244.37,-1295.1 250.73,-1286.62 244.05,-1284.51"/>
</g>
<!-- RIR&#45;&gt;RMG -->
<g id="edge59" class="edge">
<title>RIR&#45;&gt;RMG</title>
<path fill="none" stroke="gray" stroke-width="0.2" d="M377.29,-825.9C368.78,-846.1 351.21,-868.5 351.21,-868.5 351.21,-868.5 283.47,-1130.43 241.24,-1286.75"/>
<polygon fill="gray" stroke="gray" stroke-width="0.2" points="237.93,-1285.57 238.7,-1296.13 244.69,-1287.4 237.93,-1285.57"/>
</g>
<!-- RMD&#45;&gt;RMG -->
<g id="edge60" class="edge">
<title>RMD&#45;&gt;RMG</title>
<path fill="none" stroke="gray" stroke-width="2" d="M377.16,-747.21C368.6,-767.33 351.21,-789.5 351.21,-789.5 351.21,-789.5 279.79,-1105.11 237.9,-1282.68"/>
<polygon fill="gray" stroke="gray" stroke-width="2" points="234.53,-1281.74 235.63,-1292.27 241.34,-1283.35 234.53,-1281.74"/>
</g>
<!-- RMF&#45;&gt;RMG -->
<g id="edge61" class="edge">
<title>RMF&#45;&gt;RMG</title>
<path fill="none" stroke="gray" stroke-width="0.2" d="M377.29,-667.9C368.78,-688.1 351.21,-710.5 351.21,-710.5 351.21,-710.5 275.23,-1088.26 234.04,-1284.75"/>
<polygon fill="gray" stroke="gray" stroke-width="0.2" points="230.67,-1283.74 232.04,-1294.24 237.52,-1285.18 230.67,-1283.74"/>
</g>
<!-- RMH&#45;&gt;RMG -->
<g id="edge62" class="edge">
<title>RMH&#45;&gt;RMG</title>
<path fill="none" stroke="gray" stroke-width="2" d="M377.16,-589.21C368.6,-609.33 351.21,-631.5 351.21,-631.5 351.21,-631.5 272.67,-1065.39 232,-1281.31"/>
<polygon fill="gray" stroke="gray" stroke-width="2" points="228.59,-1280.49 230.18,-1290.97 235.47,-1281.79 228.59,-1280.49"/>
</g>
<!-- SAA&#45;&gt;RMG -->
<g id="edge63" class="edge">
<title>SAA&#45;&gt;RMG</title>
<path fill="none" stroke="gray" stroke-width="0.2" d="M377.29,-509.9C368.78,-530.1 351.21,-552.5 351.21,-552.5 351.21,-552.5 269.11,-1051.36 229.33,-1283.79"/>
<polygon fill="gray" stroke="gray" stroke-width="0.2" points="225.93,-1282.89 227.69,-1293.34 232.83,-1284.07 225.93,-1282.89"/>
</g>
<!-- SDQ&#45;&gt;RMG -->
<g id="edge64" class="edge">
<title>SDQ&#45;&gt;RMG</title>
<path fill="none" stroke="gray" stroke-width="0.2" d="M377.29,-430.9C368.78,-451.1 351.21,-473.5 351.21,-473.5 351.21,-473.5 266.64,-1034.14 227.57,-1283.36"/>
<polygon fill="gray" stroke="gray" stroke-width="0.2" points="224.17,-1282.46 226.07,-1292.88 231.08,-1283.54 224.17,-1282.46"/>
</g>
<!-- SMB&#45;&gt;RMG -->
<g id="edge65" class="edge">
<title>SMB&#45;&gt;RMG</title>
<path fill="none" stroke="gray" stroke-width="0.2" d="M377.29,-193.9C368.78,-214.1 351.21,-236.5 351.21,-236.5 351.21,-236.5 260.62,-987.13 223.65,-1282.71"/>
<polygon fill="gray" stroke="gray" stroke-width="0.2" points="220.21,-1281.95 222.45,-1292.3 227.16,-1282.82 220.21,-1281.95"/>
</g>
<!-- SMD&#45;&gt;RMG -->
<g id="edge66" class="edge">
<title>SMD&#45;&gt;RMG</title>
<path fill="none" stroke="gray" stroke-width="nan" d="M377.29,-114.9C368.78,-135.1 351.21,-157.5 351.21,-157.5 351.21,-157.5 256.97,-990.43 221.5,-1292.5"/>
<polygon fill="gray" stroke="gray" stroke-width="nan" points="nan,-nan nan,-nan nan,-nan nan,-nan"/>
</g>
<!-- URX&#45;&gt;RMG -->
<g id="edge67" class="edge">
<title>URX&#45;&gt;RMG</title>
<path fill="none" stroke="red" stroke-width="5" d="M377.29,-35.9C368.78,-56.1 351.21,-78.5 351.21,-78.5 351.21,-78.5 258.55,-948.65 222.41,-1276.92"/>
<polygon fill="red" stroke="red" stroke-width="5" points="218.11,-1275.98 221.36,-1286.4 226.81,-1276.94 218.11,-1275.98"/>
</g>
<!-- AIA -->
<g id="node39" class="node">
<title>AIA</title>
<ellipse fill="none" stroke="black" cx="31.6" cy="-1835" rx="27" ry="18"/>
<text text-anchor="middle" x="31.6" y="-1829.58" font-family="Times New Roman,serif" font-size="14.00">AIA</text>
</g>
<!-- AIA&#45;&gt;RMG -->
<g id="edge68" class="edge">
<title>AIA&#45;&gt;RMG</title>
<path fill="none" stroke="gray" stroke-width="0.2" d="M45.05,-1819.14C53.52,-1808.34 63.21,-1796 63.21,-1796 63.21,-1796 123.78,-1628.26 166.08,-1511.12"/>
<polygon fill="gray" stroke="gray" stroke-width="0.2" points="169.27,-1512.6 169.37,-1502.01 162.68,-1510.22 169.27,-1512.6"/>
</g>
<!-- ASE -->
<g id="node40" class="node">
<title>ASE</title>
<ellipse fill="none" stroke="black" cx="31.6" cy="-1756" rx="28.11" ry="18"/>
<text text-anchor="middle" x="31.6" y="-1750.58" font-family="Times New Roman,serif" font-size="14.00">ASE</text>
</g>
<!-- ASE&#45;&gt;RMG -->
<g id="edge69" class="edge">
<title>ASE&#45;&gt;RMG</title>
<path fill="none" stroke="gray" stroke-width="5" d="M45.05,-1740.14C53.52,-1729.34 63.21,-1717 63.21,-1717 63.21,-1717 114.22,-1603.91 155.31,-1512.83"/>
<polygon fill="gray" stroke="gray" stroke-width="5" points="159.25,-1514.73 159.37,-1503.82 151.27,-1511.13 159.25,-1514.73"/>
</g>
<!-- ASJ -->
<g id="node41" class="node">
<title>ASJ</title>
<ellipse fill="none" stroke="black" cx="31.6" cy="-1677" rx="27" ry="18"/>
<text text-anchor="middle" x="31.6" y="-1671.58" font-family="Times New Roman,serif" font-size="14.00">ASJ</text>
</g>
<!-- ASJ&#45;&gt;RMG -->
<g id="edge70" class="edge">
<title>ASJ&#45;&gt;RMG</title>
<path fill="none" stroke="gray" stroke-width="2" d="M45.05,-1661.14C53.52,-1650.34 63.21,-1638 63.21,-1638 63.21,-1638 105.48,-1567.63 144.06,-1503.42"/>
<polygon fill="gray" stroke="gray" stroke-width="2" points="147,-1505.33 149.15,-1494.95 141,-1501.72 147,-1505.33"/>
</g>
<!-- ASK -->
<g id="node42" class="node">
<title>ASK</title>
<ellipse fill="none" stroke="black" cx="31.6" cy="-1598" rx="29.11" ry="18"/>
<text text-anchor="middle" x="31.6" y="-1592.58" font-family="Times New Roman,serif" font-size="14.00">ASK</text>
</g>
<!-- ASK&#45;&gt;RMG -->
<g id="edge71" class="edge">
<title>ASK&#45;&gt;RMG</title>
<path fill="none" stroke="gray" stroke-width="0.2" d="M46.52,-1582.13C64.54,-1561.57 97.38,-1524.12 128.6,-1488.51"/>
<polygon fill="gray" stroke="gray" stroke-width="0.2" points="131.07,-1491 135.04,-1481.17 125.81,-1486.38 131.07,-1491"/>
</g>
<!-- AVK -->
<g id="node43" class="node">
<title>AVK</title>
<ellipse fill="none" stroke="black" cx="31.6" cy="-1519" rx="30.11" ry="18"/>
<text text-anchor="middle" x="31.6" y="-1513.58" font-family="Times New Roman,serif" font-size="14.00">AVK</text>
</g>
<!-- AVK&#45;&gt;RMG -->
<g id="edge72" class="edge">
<title>AVK&#45;&gt;RMG</title>
<path fill="none" stroke="gray" stroke-width="0.2" d="M52.18,-1505.58C66.65,-1495.66 87.54,-1481.35 109.28,-1466.44"/>
<polygon fill="gray" stroke="gray" stroke-width="0.2" points="111.13,-1469.42 117.4,-1460.87 107.17,-1463.64 111.13,-1469.42"/>
</g>
<!-- AVM -->
<g id="node44" class="node">
<title>AVM</title>
<ellipse fill="none" stroke="black" cx="31.6" cy="-1440" rx="31.6" ry="18"/>
<text text-anchor="middle" x="31.6" y="-1434.58" font-family="Times New Roman,serif" font-size="14.00">AVM</text>
</g>
<!-- AVM&#45;&gt;RMG -->
<g id="edge73" class="edge">
<title>AVM&#45;&gt;RMG</title>
<path fill="none" stroke="gray" stroke-width="0.2" d="M61.27,-1433.39C70.21,-1431.34 80.67,-1428.93 91.81,-1426.36"/>
<polygon fill="gray" stroke="gray" stroke-width="0.2" points="92.49,-1429.79 101.45,-1424.14 90.92,-1422.97 92.49,-1429.79"/>
</g>
<!-- BDU -->
<g id="node45" class="node">
<title>BDU</title>
<ellipse fill="none" stroke="black" cx="31.6" cy="-1361" rx="29.61" ry="18"/>
<text text-anchor="middle" x="31.6" y="-1355.58" font-family="Times New Roman,serif" font-size="14.00">BDU</text>
</g>
<!-- BDU&#45;&gt;RMG -->
<g id="edge74" class="edge">
<title>BDU&#45;&gt;RMG</title>
<path fill="none" stroke="gray" stroke-width="0.2" d="M59.73,-1367.09C68.89,-1369.15 79.78,-1371.6 91.41,-1374.21"/>
<polygon fill="gray" stroke="gray" stroke-width="0.2" points="90.52,-1377.6 101.04,-1376.38 92.06,-1370.77 90.52,-1377.6"/>
</g>
<!-- PVQ -->
<g id="node46" class="node">
<title>PVQ</title>
<ellipse fill="none" stroke="black" cx="31.6" cy="-1282" rx="29.61" ry="18"/>
<text text-anchor="middle" x="31.6" y="-1276.58" font-family="Times New Roman,serif" font-size="14.00">PVQ</text>
</g>
<!-- PVQ&#45;&gt;RMG -->
<g id="edge75" class="edge">
<title>PVQ&#45;&gt;RMG</title>
<path fill="none" stroke="gray" stroke-width="2" d="M52.18,-1295.31C66.06,-1304.74 85.86,-1318.2 106.65,-1332.33"/>
<polygon fill="gray" stroke="gray" stroke-width="2" points="104.5,-1335.1 114.74,-1337.83 108.44,-1329.32 104.5,-1335.1"/>
</g>
<!-- RIC -->
<g id="node47" class="node">
<title>RIC</title>
<ellipse fill="none" stroke="black" cx="31.6" cy="-1203" rx="27" ry="18"/>
<text text-anchor="middle" x="31.6" y="-1197.58" font-family="Times New Roman,serif" font-size="14.00">RIC</text>
</g>
<!-- RIC&#45;&gt;RMG -->
<g id="edge76" class="edge">
<title>RIC&#45;&gt;RMG</title>
<path fill="none" stroke="gray" stroke-width="0.2" d="M46.23,-1218.46C64.14,-1238.78 97.01,-1276.08 128.32,-1311.61"/>
<polygon fill="gray" stroke="gray" stroke-width="0.2" points="125.53,-1313.75 134.77,-1318.93 130.78,-1309.12 125.53,-1313.75"/>
</g>
<!-- RIM -->
<g id="node48" class="node">
<title>RIM</title>
<ellipse fill="none" stroke="black" cx="31.6" cy="-1124" rx="28.11" ry="18"/>
<text text-anchor="middle" x="31.6" y="-1118.58" font-family="Times New Roman,serif" font-size="14.00">RIM</text>
</g>
<!-- RIM&#45;&gt;RMG -->
<g id="edge77" class="edge">
<title>RIM&#45;&gt;RMG</title>
<path fill="none" stroke="gray" stroke-width="2" d="M45.05,-1140.27C53.52,-1151.34 63.21,-1164 63.21,-1164 63.21,-1164 105.2,-1233.3 143.67,-1296.8"/>
<polygon fill="gray" stroke="gray" stroke-width="2" points="140.56,-1298.41 148.74,-1305.15 146.55,-1294.79 140.56,-1298.41"/>
</g>
<!-- RIV -->
<g id="node49" class="node">
<title>RIV</title>
<ellipse fill="none" stroke="black" cx="31.6" cy="-1045" rx="27" ry="18"/>
<text text-anchor="middle" x="31.6" y="-1039.58" font-family="Times New Roman,serif" font-size="14.00">RIV</text>
</g>
<!-- RIV&#45;&gt;RMG -->
<g id="edge78" class="edge">
<title>RIV&#45;&gt;RMG</title>
<path fill="none" stroke="gray" stroke-width="0.2" d="M44.7,-1060.81C53.25,-1071.99 63.21,-1085 63.21,-1085 63.21,-1085 115.91,-1201.09 157.32,-1292.32"/>
<polygon fill="gray" stroke="gray" stroke-width="0.2" points="154.1,-1293.69 161.42,-1301.35 160.48,-1290.8 154.1,-1293.69"/>
</g>
<!-- URB -->
<g id="node50" class="node">
<title>URB</title>
<ellipse fill="none" stroke="black" cx="31.6" cy="-966" rx="29.61" ry="18"/>
<text text-anchor="middle" x="31.6" y="-960.58" font-family="Times New Roman,serif" font-size="14.00">URB</text>
</g>
<!-- URB&#45;&gt;RMG -->
<g id="edge79" class="edge">
<title>URB&#45;&gt;RMG</title>
<path fill="none" stroke="red" stroke-width="0.2" d="M45.05,-982.27C53.52,-993.34 63.21,-1006 63.21,-1006 63.21,-1006 123.69,-1172.65 165.99,-1289.18"/>
<polygon fill="red" stroke="red" stroke-width="0.2" points="162.58,-1290.04 169.28,-1298.25 169.16,-1287.66 162.58,-1290.04"/>
</g>
</g>
</svg>
