<?xml version="1.0" encoding="UTF-8" standalone="no"?>
<!DOCTYPE svg PUBLIC "-//W3C//DTD SVG 1.1//EN"
 "http://www.w3.org/Graphics/SVG/1.1/DTD/svg11.dtd">
<!-- Generated by graphviz version 11.0.0 (20240428.1522)
 -->
<!-- Pages: 1 -->
<svg width="420pt" height="1387pt"
 viewBox="0.00 0.00 420.42 1387.00" xmlns="http://www.w3.org/2000/svg" xmlns:xlink="http://www.w3.org/1999/xlink">
<g id="graph0" class="graph" transform="scale(1 1) rotate(0) translate(4 1383)">
<polygon fill="white" stroke="none" points="-4,4 -4,-1383 416.42,-1383 416.42,4 -4,4"/>
<!-- RMH -->
<g id="node1" class="node">
<title>RMH</title>
<ellipse fill="none" stroke="black" cx="204.21" cy="-650" rx="108" ry="108"/>
<text text-anchor="middle" x="204.21" y="-631" font-family="Times New Roman,serif" font-size="50.00">RMH</text>
</g>
<!-- RMH&#45;&gt;RMH -->
<g id="edge1" class="edge">
<title>RMH&#45;&gt;RMH</title>
<path fill="none" stroke="gray" stroke-width="nan" d="M171.88,-753.39C173.8,-780.51 184.57,-801 204.21,-801 223.85,-801 234.63,-780.51 236.55,-753.39"/>
<polygon fill="gray" stroke="gray" stroke-width="nan" points="nan,-nan nan,-nan nan,-nan nan,-nan"/>
</g>
<!-- AIB -->
<g id="node2" class="node">
<title>AIB</title>
<ellipse fill="none" stroke="black" cx="380.31" cy="-1361" rx="27" ry="18"/>
<text text-anchor="middle" x="380.31" y="-1355.58" font-family="Times New Roman,serif" font-size="14.00">AIB</text>
</g>
<!-- RMH&#45;&gt;AIB -->
<g id="edge2" class="edge">
<title>RMH&#45;&gt;AIB</title>
<path fill="none" stroke="gray" stroke-width="0.2" d="M230.37,-755.17C271.4,-939.53 348.21,-1300.5 348.21,-1300.5 348.21,-1300.5 361.16,-1316.74 370.35,-1334.04"/>
<polygon fill="gray" stroke="gray" stroke-width="0.2" points="367.1,-1335.34 374.59,-1342.83 373.4,-1332.3 367.1,-1335.34"/>
</g>
<!-- AVA -->
<g id="node3" class="node">
<title>AVA</title>
<ellipse fill="none" stroke="black" cx="380.31" cy="-1282" rx="30.11" ry="18"/>
<text text-anchor="middle" x="380.31" y="-1276.58" font-family="Times New Roman,serif" font-size="14.00">AVA</text>
</g>
<!-- RMH&#45;&gt;AVA -->
<g id="edge3" class="edge">
<title>RMH&#45;&gt;AVA</title>
<path fill="none" stroke="gray" stroke-width="0.2" d="M230.53,-754.99C271.6,-925.31 348.21,-1243 348.21,-1243 348.21,-1243 353.59,-1249.75 359.88,-1257.63"/>
<polygon fill="gray" stroke="gray" stroke-width="0.2" points="357.14,-1259.81 366.12,-1265.45 362.62,-1255.45 357.14,-1259.81"/>
</g>
<!-- AVK -->
<g id="node4" class="node">
<title>AVK</title>
<ellipse fill="none" stroke="black" cx="380.31" cy="-1203" rx="30.11" ry="18"/>
<text text-anchor="middle" x="380.31" y="-1197.58" font-family="Times New Roman,serif" font-size="14.00">AVK</text>
</g>
<!-- RMH&#45;&gt;AVK -->
<g id="edge4" class="edge">
<title>RMH&#45;&gt;AVK</title>
<path fill="none" stroke="gray" stroke-width="0.2" d="M237.84,-752.85C280.05,-897.48 348.21,-1142.5 348.21,-1142.5 348.21,-1142.5 361.16,-1158.74 370.35,-1176.04"/>
<polygon fill="gray" stroke="gray" stroke-width="0.2" points="367.1,-1177.34 374.59,-1184.83 373.4,-1174.3 367.1,-1177.34"/>
</g>
<!-- CEP -->
<g id="node5" class="node">
<title>CEP</title>
<ellipse fill="none" stroke="black" cx="380.31" cy="-1124" rx="28.11" ry="18"/>
<text text-anchor="middle" x="380.31" y="-1118.58" font-family="Times New Roman,serif" font-size="14.00">CEP</text>
</g>
<!-- RMH&#45;&gt;CEP -->
<g id="edge5" class="edge">
<title>RMH&#45;&gt;CEP</title>
<path fill="none" stroke="gray" stroke-width="5" d="M243.44,-750.99C285.8,-873.64 348.21,-1063.5 348.21,-1063.5 348.21,-1063.5 358.68,-1076.63 367.47,-1091.85"/>
<polygon fill="gray" stroke="gray" stroke-width="5" points="363.46,-1093.62 371.9,-1100.54 371.26,-1089.65 363.46,-1093.62"/>
</g>
<!-- IL1 -->
<g id="node6" class="node">
<title>IL1</title>
<ellipse fill="none" stroke="black" cx="380.31" cy="-1045" rx="27" ry="18"/>
<text text-anchor="middle" x="380.31" y="-1039.58" font-family="Times New Roman,serif" font-size="14.00">IL1</text>
</g>
<!-- RMH&#45;&gt;IL1 -->
<g id="edge6" class="edge">
<title>RMH&#45;&gt;IL1</title>
<path fill="none" stroke="gray" stroke-width="0.2" d="M251.05,-747.79C292.88,-846.74 348.21,-984.5 348.21,-984.5 348.21,-984.5 361.16,-1000.74 370.35,-1018.04"/>
<polygon fill="gray" stroke="gray" stroke-width="0.2" points="367.1,-1019.34 374.59,-1026.83 373.4,-1016.3 367.1,-1019.34"/>
</g>
<!-- PLN -->
<g id="node7" class="node">
<title>PLN</title>
<ellipse fill="none" stroke="black" cx="380.31" cy="-966" rx="28.11" ry="18"/>
<text text-anchor="middle" x="380.31" y="-960.58" font-family="Times New Roman,serif" font-size="14.00">PLN</text>
</g>
<!-- RMH&#45;&gt;PLN -->
<g id="edge7" class="edge">
<title>RMH&#45;&gt;PLN</title>
<path fill="none" stroke="gray" stroke-width="0.2" d="M261.73,-741.97C301.7,-815.4 348.21,-905.5 348.21,-905.5 348.21,-905.5 361.16,-921.74 370.35,-939.04"/>
<polygon fill="gray" stroke="gray" stroke-width="0.2" points="367.1,-940.34 374.59,-947.83 373.4,-937.3 367.1,-940.34"/>
</g>
<!-- RIA -->
<g id="node8" class="node">
<title>RIA</title>
<ellipse fill="none" stroke="black" cx="380.31" cy="-887" rx="27" ry="18"/>
<text text-anchor="middle" x="380.31" y="-881.58" font-family="Times New Roman,serif" font-size="14.00">RIA</text>
</g>
<!-- RMH&#45;&gt;RIA -->
<g id="edge8" class="edge">
<title>RMH&#45;&gt;RIA</title>
<path fill="none" stroke="gray" stroke-width="0.2" d="M276.92,-730.46C312.6,-777.19 348.21,-826.5 348.21,-826.5 348.21,-826.5 361.16,-842.74 370.35,-860.04"/>
<polygon fill="gray" stroke="gray" stroke-width="0.2" points="367.1,-861.34 374.59,-868.83 373.4,-858.3 367.1,-861.34"/>
</g>
<!-- RIC -->
<g id="node9" class="node">
<title>RIC</title>
<ellipse fill="none" stroke="black" cx="380.31" cy="-808" rx="27" ry="18"/>
<text text-anchor="middle" x="380.31" y="-802.58" font-family="Times New Roman,serif" font-size="14.00">RIC</text>
</g>
<!-- RMH&#45;&gt;RIC -->
<g id="edge9" class="edge">
<title>RMH&#45;&gt;RIC</title>
<path fill="none" stroke="gray" stroke-width="0.2" d="M292.26,-712.88C319.34,-737.45 346.42,-764.1 363.01,-783.32"/>
<polygon fill="gray" stroke="gray" stroke-width="0.2" points="360.18,-785.39 369.26,-790.84 365.56,-780.92 360.18,-785.39"/>
</g>
<!-- RID -->
<g id="node10" class="node">
<title>RID</title>
<ellipse fill="none" stroke="black" cx="380.31" cy="-729" rx="27" ry="18"/>
<text text-anchor="middle" x="380.31" y="-723.58" font-family="Times New Roman,serif" font-size="14.00">RID</text>
</g>
<!-- RMH&#45;&gt;RID -->
<g id="edge10" class="edge">
<title>RMH&#45;&gt;RID</title>
<path fill="none" stroke="gray" stroke-width="0.2" d="M302.95,-694.35C319.26,-701.75 335.06,-708.92 348.01,-714.8"/>
<polygon fill="gray" stroke="gray" stroke-width="0.2" points="346.5,-717.95 357.05,-718.9 349.39,-711.58 346.5,-717.95"/>
</g>
<!-- RIG -->
<g id="node11" class="node">
<title>RIG</title>
<ellipse fill="none" stroke="black" cx="380.31" cy="-650" rx="27.11" ry="18"/>
<text text-anchor="middle" x="380.31" y="-644.58" font-family="Times New Roman,serif" font-size="14.00">RIG</text>
</g>
<!-- RMH&#45;&gt;RIG -->
<g id="edge11" class="edge">
<title>RMH&#45;&gt;RIG</title>
<path fill="none" stroke="gray" stroke-width="0.2" d="M311.5,-634.23C324.78,-634.73 337.42,-635.75 348.12,-637.29"/>
<polygon fill="gray" stroke="gray" stroke-width="0.2" points="347.37,-640.71 357.82,-638.96 348.56,-633.82 347.37,-640.71"/>
</g>
<!-- RMD -->
<g id="node12" class="node">
<title>RMD</title>
<ellipse fill="none" stroke="black" cx="380.31" cy="-571" rx="31.6" ry="18"/>
<text text-anchor="middle" x="380.31" y="-565.58" font-family="Times New Roman,serif" font-size="14.00">RMD</text>
</g>
<!-- RMH&#45;&gt;RMD -->
<g id="edge12" class="edge">
<title>RMH&#45;&gt;RMD</title>
<path fill="none" stroke="black" stroke-width="5" d="M296.09,-592.65C308.98,-586.9 321.75,-581.67 333.29,-577.47"/>
<polygon fill="black" stroke="black" stroke-width="5" points="334.66,-581.63 342.73,-574.28 331.86,-573.34 334.66,-581.63"/>
</g>
<!-- RME -->
<g id="node13" class="node">
<title>RME</title>
<ellipse fill="none" stroke="black" cx="380.31" cy="-492" rx="30.61" ry="18"/>
<text text-anchor="middle" x="380.31" y="-486.57" font-family="Times New Roman,serif" font-size="14.00">RME</text>
</g>
<!-- RMH&#45;&gt;RME -->
<g id="edge13" class="edge">
<title>RMH&#45;&gt;RME</title>
<path fill="none" stroke="gray" stroke-width="0.2" d="M276.53,-569.39C301.01,-546.43 327.22,-523.65 347.04,-508.43"/>
<polygon fill="gray" stroke="gray" stroke-width="0.2" points="348.97,-511.36 354.88,-502.57 344.77,-505.75 348.97,-511.36"/>
</g>
<!-- RMF -->
<g id="node14" class="node">
<title>RMF</title>
<ellipse fill="none" stroke="black" cx="380.31" cy="-413" rx="30.61" ry="18"/>
<text text-anchor="middle" x="380.31" y="-407.57" font-family="Times New Roman,serif" font-size="14.00">RMF</text>
</g>
<!-- RMH&#45;&gt;RMF -->
<g id="edge14" class="edge">
<title>RMH&#45;&gt;RMF</title>
<path fill="none" stroke="gray" stroke-width="5" d="M260.09,-557.05C291.6,-510.4 327.66,-460.01 345.07,-436.42"/>
<polygon fill="gray" stroke="gray" stroke-width="5" points="348.49,-439.16 351.04,-428.55 341.51,-433.88 348.49,-439.16"/>
</g>
<!-- RMG -->
<g id="node15" class="node">
<title>RMG</title>
<ellipse fill="none" stroke="black" cx="380.31" cy="-334" rx="32.1" ry="18"/>
<text text-anchor="middle" x="380.31" y="-328.57" font-family="Times New Roman,serif" font-size="14.00">RMG</text>
</g>
<!-- RMH&#45;&gt;RMG -->
<g id="edge15" class="edge">
<title>RMH&#45;&gt;RMG</title>
<path fill="none" stroke="gray" stroke-width="2" d="M248.12,-551.24C283.49,-478.3 330.05,-387.7 347.78,-356.06"/>
<polygon fill="gray" stroke="gray" stroke-width="2" points="350.77,-357.89 352.94,-347.52 344.78,-354.27 350.77,-357.89"/>
</g>
<!-- SAA -->
<g id="node16" class="node">
<title>SAA</title>
<ellipse fill="none" stroke="black" cx="380.31" cy="-255" rx="29.11" ry="18"/>
<text text-anchor="middle" x="380.31" y="-249.57" font-family="Times New Roman,serif" font-size="14.00">SAA</text>
</g>
<!-- RMH&#45;&gt;SAA -->
<g id="edge16" class="edge">
<title>RMH&#45;&gt;SAA</title>
<path fill="none" stroke="gray" stroke-width="0.2" d="M240.38,-547.87C282.72,-436.09 348.21,-273.5 348.21,-273.5 348.21,-273.5 348.51,-273.12 349.04,-272.45"/>
<polygon fill="gray" stroke="gray" stroke-width="0.2" points="351.46,-275.01 355.23,-265.11 346.11,-270.5 351.46,-275.01"/>
</g>
<!-- SIB -->
<g id="node17" class="node">
<title>SIB</title>
<ellipse fill="none" stroke="black" cx="380.31" cy="-176" rx="27" ry="18"/>
<text text-anchor="middle" x="380.31" y="-170.57" font-family="Times New Roman,serif" font-size="14.00">SIB</text>
</g>
<!-- RMH&#45;&gt;SIB -->
<g id="edge17" class="edge">
<title>RMH&#45;&gt;SIB</title>
<path fill="none" stroke="gray" stroke-width="0.2" d="M234.84,-545.97C276.73,-410.95 348.21,-193.5 348.21,-193.5 348.21,-193.5 348.68,-192.91 349.51,-191.91"/>
<polygon fill="gray" stroke="gray" stroke-width="0.2" points="351.92,-194.48 355.86,-184.65 346.65,-189.87 351.92,-194.48"/>
</g>
<!-- SMD -->
<g id="node18" class="node">
<title>SMD</title>
<ellipse fill="none" stroke="black" cx="380.31" cy="-97" rx="30.61" ry="18"/>
<text text-anchor="middle" x="380.31" y="-91.58" font-family="Times New Roman,serif" font-size="14.00">SMD</text>
</g>
<!-- RMH&#45;&gt;SMD -->
<g id="edge18" class="edge">
<title>RMH&#45;&gt;SMD</title>
<path fill="none" stroke="gray" stroke-width="0.2" d="M234.15,-545.98C275.94,-395.79 348.21,-136 348.21,-136 348.21,-136 353.59,-129.25 359.88,-121.37"/>
<polygon fill="gray" stroke="gray" stroke-width="0.2" points="362.62,-123.55 366.12,-113.55 357.14,-119.19 362.62,-123.55"/>
</g>
<!-- URX -->
<g id="node19" class="node">
<title>URX</title>
<ellipse fill="none" stroke="black" cx="380.31" cy="-18" rx="30.11" ry="18"/>
<text text-anchor="middle" x="380.31" y="-12.57" font-family="Times New Roman,serif" font-size="14.00">URX</text>
</g>
<!-- RMH&#45;&gt;URX -->
<g id="edge19" class="edge">
<title>RMH&#45;&gt;URX</title>
<path fill="none" stroke="gray" stroke-width="0.2" d="M227.71,-544.23C264.37,-384.01 334.12,-94.02 351.33,-37.39"/>
<polygon fill="gray" stroke="gray" stroke-width="0.2" points="354.59,-38.67 354.7,-28.08 348.01,-36.29 354.59,-38.67"/>
</g>
<!-- AIB&#45;&gt;RMH -->
<g id="edge20" class="edge">
<title>AIB&#45;&gt;RMH</title>
<path fill="none" stroke="gray" stroke-width="0.2" d="M356.06,-1352.58C351.56,-1347.7 348.21,-1343.5 348.21,-1343.5 348.21,-1343.5 267.46,-964.01 227.32,-766.26"/>
<polygon fill="gray" stroke="gray" stroke-width="0.2" points="230.8,-765.81 225.38,-756.7 223.94,-767.2 230.8,-765.81"/>
</g>
<!-- AVK&#45;&gt;RMH -->
<g id="edge21" class="edge">
<title>AVK&#45;&gt;RMH</title>
<path fill="none" stroke="gray" stroke-width="0.2" d="M354.81,-1193.21C350.95,-1188.94 348.21,-1185.5 348.21,-1185.5 348.21,-1185.5 275.01,-922.37 233.35,-764.77"/>
<polygon fill="gray" stroke="gray" stroke-width="0.2" points="236.79,-764.08 230.85,-755.31 230.02,-765.87 236.79,-764.08"/>
</g>
<!-- CEP&#45;&gt;RMH -->
<g id="edge22" class="edge">
<title>CEP&#45;&gt;RMH</title>
<path fill="none" stroke="gray" stroke-width="5" d="M355.43,-1114.89C351.25,-1110.31 348.21,-1106.5 348.21,-1106.5 348.21,-1106.5 281.93,-904.89 239.62,-769.39"/>
<polygon fill="gray" stroke="gray" stroke-width="5" points="243.85,-768.24 236.7,-759.99 235.49,-770.84 243.85,-768.24"/>
</g>
<!-- IL1&#45;&gt;RMH -->
<g id="edge23" class="edge">
<title>IL1&#45;&gt;RMH</title>
<path fill="none" stroke="red" stroke-width="2" d="M356.06,-1036.58C351.56,-1031.7 348.21,-1027.5 348.21,-1027.5 348.21,-1027.5 287.07,-875.28 244.74,-763.9"/>
<polygon fill="red" stroke="red" stroke-width="2" points="248.08,-762.84 241.27,-754.73 241.54,-765.32 248.08,-762.84"/>
</g>
<!-- PLN&#45;&gt;RMH -->
<g id="edge24" class="edge">
<title>PLN&#45;&gt;RMH</title>
<path fill="none" stroke="gray" stroke-width="0.2" d="M355.43,-956.89C351.25,-952.31 348.21,-948.5 348.21,-948.5 348.21,-948.5 294.13,-843.75 252.49,-758.08"/>
<polygon fill="gray" stroke="gray" stroke-width="0.2" points="255.76,-756.8 248.25,-749.33 249.46,-759.86 255.76,-756.8"/>
</g>
<!-- RIA&#45;&gt;RMH -->
<g id="edge25" class="edge">
<title>RIA&#45;&gt;RMH</title>
<path fill="none" stroke="gray" stroke-width="0.2" d="M356.06,-878.58C351.56,-873.7 348.21,-869.5 348.21,-869.5 348.21,-869.5 304.65,-809.18 265.61,-751.51"/>
<polygon fill="gray" stroke="gray" stroke-width="0.2" points="268.55,-749.61 260.06,-743.28 262.75,-753.53 268.55,-749.61"/>
</g>
<!-- RIC&#45;&gt;RMH -->
<g id="edge26" class="edge">
<title>RIC&#45;&gt;RMH</title>
<path fill="none" stroke="gray" stroke-width="2" d="M356.74,-798.78C338.59,-785.83 311.94,-763.25 286.03,-739.43"/>
<polygon fill="gray" stroke="gray" stroke-width="2" points="288.46,-736.91 278.75,-732.67 283.69,-742.04 288.46,-736.91"/>
</g>
<!-- RIG&#45;&gt;RMH -->
<g id="edge27" class="edge">
<title>RIG&#45;&gt;RMH</title>
<path fill="none" stroke="gray" stroke-width="5" d="M358.12,-660.99C349.64,-662.73 339.15,-664.02 327.67,-664.88"/>
<polygon fill="gray" stroke="gray" stroke-width="5" points="327.47,-660.5 317.73,-665.43 327.96,-669.24 327.47,-660.5"/>
</g>
<!-- RMD&#45;&gt;RMH -->
<g id="edge28" class="edge">
<title>RMD&#45;&gt;RMH</title>
<path fill="none" stroke="gray" stroke-width="nan" d="M364.65,-587.11C351.32,-596.77 330.38,-608.41 308,-619.25"/>
<polygon fill="gray" stroke="gray" stroke-width="nan" points="nan,-nan nan,-nan nan,-nan nan,-nan"/>
</g>
<!-- RME&#45;&gt;RMH -->
<g id="edge29" class="edge">
<title>RME&#45;&gt;RMH</title>
<path fill="none" stroke="gray" stroke-width="0.2" d="M369.2,-509.24C355.07,-527 327.98,-554.25 299.83,-580.21"/>
<polygon fill="gray" stroke="gray" stroke-width="0.2" points="297.5,-577.59 292.49,-586.92 302.23,-582.75 297.5,-577.59"/>
</g>
<!-- RMF&#45;&gt;RMH -->
<g id="edge30" class="edge">
<title>RMF&#45;&gt;RMH</title>
<path fill="none" stroke="gray" stroke-width="5" d="M374.72,-431.05C366.07,-451.53 348.21,-474.5 348.21,-474.5 348.21,-474.5 318.95,-514.81 286.91,-556.97"/>
<polygon fill="gray" stroke="gray" stroke-width="5" points="283.51,-554.21 280.92,-564.81 290.46,-559.52 283.51,-554.21"/>
</g>
<!-- RMG&#45;&gt;RMH -->
<g id="edge31" class="edge">
<title>RMG&#45;&gt;RMH</title>
<path fill="none" stroke="gray" stroke-width="2" d="M374.72,-352.05C366.07,-372.53 348.21,-395.5 348.21,-395.5 348.21,-395.5 306.3,-476.38 267.86,-547.17"/>
<polygon fill="gray" stroke="gray" stroke-width="2" points="264.89,-545.31 263.18,-555.77 271.03,-548.66 264.89,-545.31"/>
</g>
<!-- SAA&#45;&gt;RMH -->
<g id="edge32" class="edge">
<title>SAA&#45;&gt;RMH</title>
<path fill="none" stroke="gray" stroke-width="2" d="M374.72,-273.05C366.07,-293.53 348.21,-316.5 348.21,-316.5 348.21,-316.5 297.11,-443.35 256.01,-540.81"/>
<polygon fill="gray" stroke="gray" stroke-width="2" points="252.9,-539.17 252.23,-549.75 259.35,-541.9 252.9,-539.17"/>
</g>
<!-- SIB&#45;&gt;RMH -->
<g id="edge33" class="edge">
<title>SIB&#45;&gt;RMH</title>
<path fill="none" stroke="gray" stroke-width="0.2" d="M374.72,-193.9C366.07,-214.1 348.21,-236.5 348.21,-236.5 348.21,-236.5 288.93,-416.84 246.7,-539.55"/>
<polygon fill="gray" stroke="gray" stroke-width="0.2" points="243.49,-538.13 243.54,-548.73 250.11,-540.41 243.49,-538.13"/>
</g>
<!-- URX&#45;&gt;RMH -->
<g id="edge34" class="edge">
<title>URX&#45;&gt;RMH</title>
<path fill="none" stroke="gray" stroke-width="2" d="M374.72,-35.9C366.07,-56.1 348.21,-78.5 348.21,-78.5 348.21,-78.5 278.92,-365.83 236.81,-533.23"/>
<polygon fill="gray" stroke="gray" stroke-width="2" points="233.43,-532.32 234.38,-542.88 240.21,-534.04 233.43,-532.32"/>
</g>
<!-- ADE -->
<g id="node20" class="node">
<title>ADE</title>
<ellipse fill="none" stroke="black" cx="30.11" cy="-1045" rx="29.11" ry="18"/>
<text text-anchor="middle" x="30.11" y="-1039.58" font-family="Times New Roman,serif" font-size="14.00">ADE</text>
</g>
<!-- ADE&#45;&gt;RMH -->
<g id="edge35" class="edge">
<title>ADE&#45;&gt;RMH</title>
<path fill="none" stroke="red" stroke-width="2" d="M43.28,-1028.69C51.26,-1018 60.21,-1006 60.21,-1006 60.21,-1006 116.3,-866.38 158.22,-762.01"/>
<polygon fill="red" stroke="red" stroke-width="2" points="161.39,-763.51 161.87,-752.92 154.89,-760.9 161.39,-763.51"/>
</g>
<!-- ALN -->
<g id="node21" class="node">
<title>ALN</title>
<ellipse fill="none" stroke="black" cx="30.11" cy="-966" rx="29.11" ry="18"/>
<text text-anchor="middle" x="30.11" y="-960.58" font-family="Times New Roman,serif" font-size="14.00">ALN</text>
</g>
<!-- ALN&#45;&gt;RMH -->
<g id="edge36" class="edge">
<title>ALN&#45;&gt;RMH</title>
<path fill="none" stroke="gray" stroke-width="0.2" d="M43.28,-949.69C51.26,-939 60.21,-927 60.21,-927 60.21,-927 108.66,-833.15 149.16,-754.71"/>
<polygon fill="gray" stroke="gray" stroke-width="0.2" points="152.18,-756.48 153.66,-745.98 145.96,-753.26 152.18,-756.48"/>
</g>
<!-- IL2 -->
<g id="node22" class="node">
<title>IL2</title>
<ellipse fill="none" stroke="black" cx="30.11" cy="-887" rx="27" ry="18"/>
<text text-anchor="middle" x="30.11" y="-881.58" font-family="Times New Roman,serif" font-size="14.00">IL2</text>
</g>
<!-- IL2&#45;&gt;RMH -->
<g id="edge37" class="edge">
<title>IL2&#45;&gt;RMH</title>
<path fill="none" stroke="red" stroke-width="2" d="M42.94,-871.14C51,-860.34 60.21,-848 60.21,-848 60.21,-848 96.58,-797.64 132.64,-747.72"/>
<polygon fill="red" stroke="red" stroke-width="2" points="135.28,-750.03 138.3,-739.88 129.61,-745.93 135.28,-750.03"/>
</g>
<!-- OLL -->
<g id="node23" class="node">
<title>OLL</title>
<ellipse fill="none" stroke="black" cx="30.11" cy="-808" rx="28.61" ry="18"/>
<text text-anchor="middle" x="30.11" y="-802.58" font-family="Times New Roman,serif" font-size="14.00">OLL</text>
</g>
<!-- OLL&#45;&gt;RMH -->
<g id="edge38" class="edge">
<title>OLL&#45;&gt;RMH</title>
<path fill="none" stroke="gray" stroke-width="0.2" d="M47.3,-793.14C63.59,-778.18 90.04,-753.9 116.56,-729.55"/>
<polygon fill="gray" stroke="gray" stroke-width="0.2" points="118.81,-732.23 123.81,-722.89 114.08,-727.08 118.81,-732.23"/>
</g>
<!-- OLQ -->
<g id="node24" class="node">
<title>OLQ</title>
<ellipse fill="none" stroke="black" cx="30.11" cy="-729" rx="30.11" ry="18"/>
<text text-anchor="middle" x="30.11" y="-723.58" font-family="Times New Roman,serif" font-size="14.00">OLQ</text>
</g>
<!-- OLQ&#45;&gt;RMH -->
<g id="edge39" class="edge">
<title>OLQ&#45;&gt;RMH</title>
<path fill="none" stroke="red" stroke-width="5" d="M54.68,-718.18C64.86,-713.51 77.57,-707.67 91.24,-701.4"/>
<polygon fill="red" stroke="red" stroke-width="5" points="92.85,-705.47 100.11,-697.33 89.2,-697.52 92.85,-705.47"/>
</g>
<!-- RIS -->
<g id="node25" class="node">
<title>RIS</title>
<ellipse fill="none" stroke="black" cx="30.11" cy="-650" rx="27" ry="18"/>
<text text-anchor="middle" x="30.11" y="-644.58" font-family="Times New Roman,serif" font-size="14.00">RIS</text>
</g>
<!-- RIS&#45;&gt;RMH -->
<g id="edge40" class="edge">
<title>RIS&#45;&gt;RMH</title>
<path fill="none" stroke="gray" stroke-width="0.2" d="M57.25,-650C65.51,-650 75.24,-650 85.69,-650"/>
<polygon fill="gray" stroke="gray" stroke-width="0.2" points="85.6,-653.5 95.6,-650 85.6,-646.5 85.6,-653.5"/>
</g>
<!-- RIV -->
<g id="node26" class="node">
<title>RIV</title>
<ellipse fill="none" stroke="black" cx="30.11" cy="-571" rx="27" ry="18"/>
<text text-anchor="middle" x="30.11" y="-565.58" font-family="Times New Roman,serif" font-size="14.00">RIV</text>
</g>
<!-- RIV&#45;&gt;RMH -->
<g id="edge41" class="edge">
<title>RIV&#45;&gt;RMH</title>
<path fill="none" stroke="gray" stroke-width="0.2" d="M52.9,-581.01C64.58,-586.37 79.92,-593.41 96.34,-600.95"/>
<polygon fill="gray" stroke="gray" stroke-width="0.2" points="94.74,-604.06 105.29,-605.05 97.66,-597.7 94.74,-604.06"/>
</g>
<!-- SDQ -->
<g id="node27" class="node">
<title>SDQ</title>
<ellipse fill="none" stroke="black" cx="30.11" cy="-492" rx="29.61" ry="18"/>
<text text-anchor="middle" x="30.11" y="-486.57" font-family="Times New Roman,serif" font-size="14.00">SDQ</text>
</g>
<!-- SDQ&#45;&gt;RMH -->
<g id="edge42" class="edge">
<title>SDQ&#45;&gt;RMH</title>
<path fill="none" stroke="gray" stroke-width="5" d="M47.3,-506.86C62.68,-520.99 87.13,-543.43 112.14,-566.39"/>
<polygon fill="gray" stroke="gray" stroke-width="5" points="109.11,-569.55 119.44,-573.09 115.03,-563.11 109.11,-569.55"/>
</g>
<!-- SMB -->
<g id="node28" class="node">
<title>SMB</title>
<ellipse fill="none" stroke="black" cx="30.11" cy="-413" rx="30.11" ry="18"/>
<text text-anchor="middle" x="30.11" y="-407.57" font-family="Times New Roman,serif" font-size="14.00">SMB</text>
</g>
<!-- SMB&#45;&gt;RMH -->
<g id="edge43" class="edge">
<title>SMB&#45;&gt;RMH</title>
<path fill="none" stroke="gray" stroke-width="0.2" d="M42.94,-429.27C51,-440.34 60.21,-453 60.21,-453 60.21,-453 97.52,-504.39 134.02,-554.68"/>
<polygon fill="gray" stroke="gray" stroke-width="0.2" points="130.98,-556.45 139.69,-562.49 136.65,-552.34 130.98,-556.45"/>
</g>
<!-- URB -->
<g id="node29" class="node">
<title>URB</title>
<ellipse fill="none" stroke="black" cx="30.11" cy="-334" rx="29.61" ry="18"/>
<text text-anchor="middle" x="30.11" y="-328.57" font-family="Times New Roman,serif" font-size="14.00">URB</text>
</g>
<!-- URB&#45;&gt;RMH -->
<g id="edge44" class="edge">
<title>URB&#45;&gt;RMH</title>
<path fill="none" stroke="red" stroke-width="2" d="M42.94,-350.27C51,-361.34 60.21,-374 60.21,-374 60.21,-374 107.53,-465.32 147.73,-542.91"/>
<polygon fill="red" stroke="red" stroke-width="2" points="144.5,-544.29 152.21,-551.56 150.71,-541.07 144.5,-544.29"/>
</g>
<!-- URY -->
<g id="node30" class="node">
<title>URY</title>
<ellipse fill="none" stroke="black" cx="30.11" cy="-255" rx="30.11" ry="18"/>
<text text-anchor="middle" x="30.11" y="-249.57" font-family="Times New Roman,serif" font-size="14.00">URY</text>
</g>
<!-- URY&#45;&gt;RMH -->
<g id="edge45" class="edge">
<title>URY&#45;&gt;RMH</title>
<path fill="none" stroke="blue" stroke-width="5" d="M42.94,-271.27C51,-282.34 60.21,-295 60.21,-295 60.21,-295 115.16,-431.42 156.94,-535.12"/>
<polygon fill="blue" stroke="blue" stroke-width="5" points="152.87,-536.74 160.67,-544.38 160.99,-533.47 152.87,-536.74"/>
</g>
</g>
</svg>
