<?xml version="1.0" encoding="UTF-8" standalone="no"?>
<!DOCTYPE svg PUBLIC "-//W3C//DTD SVG 1.1//EN"
 "http://www.w3.org/Graphics/SVG/1.1/DTD/svg11.dtd">
<!-- Generated by graphviz version 11.0.0 (20240428.1522)
 -->
<!-- Pages: 1 -->
<svg width="421pt" height="2019pt"
 viewBox="0.00 0.00 421.41 2019.00" xmlns="http://www.w3.org/2000/svg" xmlns:xlink="http://www.w3.org/1999/xlink">
<g id="graph0" class="graph" transform="scale(1 1) rotate(0) translate(4 2015)">
<polygon fill="white" stroke="none" points="-4,4 -4,-2015 417.41,-2015 417.41,4 -4,4"/>
<!-- SAA -->
<g id="node1" class="node">
<title>SAA</title>
<ellipse fill="none" stroke="black" cx="205.21" cy="-1005" rx="108" ry="108"/>
<text text-anchor="middle" x="205.21" y="-986" font-family="Times New Roman,serif" font-size="50.00">SAA</text>
</g>
<!-- SAA&#45;&gt;SAA -->
<g id="edge1" class="edge">
<title>SAA&#45;&gt;SAA</title>
<path fill="none" stroke="gray" stroke-width="5" d="M172.78,-1108.39C174.71,-1135.51 185.52,-1156 205.21,-1156 220.83,-1156 230.86,-1143.12 235.3,-1124.26"/>
<polygon fill="gray" stroke="gray" stroke-width="5" points="239.6,-1125.1 236.73,-1114.56 230.94,-1123.82 239.6,-1125.1"/>
</g>
<!-- ADA -->
<g id="node2" class="node">
<title>ADA</title>
<ellipse fill="none" stroke="black" cx="381.31" cy="-1993" rx="30.11" ry="18"/>
<text text-anchor="middle" x="381.31" y="-1987.58" font-family="Times New Roman,serif" font-size="14.00">ADA</text>
</g>
<!-- SAA&#45;&gt;ADA -->
<g id="edge2" class="edge">
<title>SAA&#45;&gt;ADA</title>
<path fill="none" stroke="blue" stroke-width="2" d="M223.96,-1111.49C262.26,-1355.45 349.21,-1932.5 349.21,-1932.5 349.21,-1932.5 361,-1947.29 370.06,-1963.67"/>
<polygon fill="blue" stroke="blue" stroke-width="2" points="366.81,-1964.98 374.38,-1972.39 373.08,-1961.87 366.81,-1964.98"/>
</g>
<!-- AIB -->
<g id="node3" class="node">
<title>AIB</title>
<ellipse fill="none" stroke="black" cx="381.31" cy="-1914" rx="27" ry="18"/>
<text text-anchor="middle" x="381.31" y="-1908.58" font-family="Times New Roman,serif" font-size="14.00">AIB</text>
</g>
<!-- SAA&#45;&gt;AIB -->
<g id="edge3" class="edge">
<title>SAA&#45;&gt;AIB</title>
<path fill="none" stroke="red" stroke-width="2" d="M225.64,-1111.5C264.74,-1339.61 349.21,-1853.5 349.21,-1853.5 349.21,-1853.5 361,-1868.29 370.06,-1884.67"/>
<polygon fill="red" stroke="red" stroke-width="2" points="366.81,-1885.98 374.38,-1893.39 373.08,-1882.87 366.81,-1885.98"/>
</g>
<!-- ALN -->
<g id="node4" class="node">
<title>ALN</title>
<ellipse fill="none" stroke="black" cx="381.31" cy="-1835" rx="29.11" ry="18"/>
<text text-anchor="middle" x="381.31" y="-1829.58" font-family="Times New Roman,serif" font-size="14.00">ALN</text>
</g>
<!-- SAA&#45;&gt;ALN -->
<g id="edge4" class="edge">
<title>SAA&#45;&gt;ALN</title>
<path fill="none" stroke="gray" stroke-width="2" d="M227.54,-1110.8C267.41,-1322 349.21,-1774.5 349.21,-1774.5 349.21,-1774.5 361,-1789.29 370.06,-1805.67"/>
<polygon fill="gray" stroke="gray" stroke-width="2" points="366.81,-1806.98 374.38,-1814.39 373.08,-1803.87 366.81,-1806.98"/>
</g>
<!-- ASI -->
<g id="node5" class="node">
<title>ASI</title>
<ellipse fill="none" stroke="black" cx="381.31" cy="-1756" rx="27" ry="18"/>
<text text-anchor="middle" x="381.31" y="-1750.58" font-family="Times New Roman,serif" font-size="14.00">ASI</text>
</g>
<!-- SAA&#45;&gt;ASI -->
<g id="edge5" class="edge">
<title>SAA&#45;&gt;ASI</title>
<path fill="none" stroke="gray" stroke-width="0.2" d="M229.98,-1110.63C270.65,-1304.33 349.21,-1695.5 349.21,-1695.5 349.21,-1695.5 362.16,-1711.74 371.35,-1729.04"/>
<polygon fill="gray" stroke="gray" stroke-width="0.2" points="368.09,-1730.34 375.59,-1737.83 374.4,-1727.3 368.09,-1730.34"/>
</g>
<!-- AVA -->
<g id="node6" class="node">
<title>AVA</title>
<ellipse fill="none" stroke="black" cx="381.31" cy="-1677" rx="30.11" ry="18"/>
<text text-anchor="middle" x="381.31" y="-1671.58" font-family="Times New Roman,serif" font-size="14.00">AVA</text>
</g>
<!-- SAA&#45;&gt;AVA -->
<g id="edge6" class="edge">
<title>SAA&#45;&gt;AVA</title>
<path fill="none" stroke="black" stroke-width="5" d="M232.86,-1109.61C274.23,-1284.59 349.21,-1616.5 349.21,-1616.5 349.21,-1616.5 359.68,-1629.63 368.47,-1644.85"/>
<polygon fill="black" stroke="black" stroke-width="5" points="364.46,-1646.62 372.89,-1653.54 372.26,-1642.65 364.46,-1646.62"/>
</g>
<!-- AVB -->
<g id="node7" class="node">
<title>AVB</title>
<ellipse fill="none" stroke="black" cx="381.31" cy="-1598" rx="29.61" ry="18"/>
<text text-anchor="middle" x="381.31" y="-1592.58" font-family="Times New Roman,serif" font-size="14.00">AVB</text>
</g>
<!-- SAA&#45;&gt;AVB -->
<g id="edge7" class="edge">
<title>SAA&#45;&gt;AVB</title>
<path fill="none" stroke="gray" stroke-width="0.2" d="M233.19,-1109.53C274.63,-1270.07 349.21,-1559 349.21,-1559 349.21,-1559 354.59,-1565.75 360.88,-1573.63"/>
<polygon fill="gray" stroke="gray" stroke-width="0.2" points="358.14,-1575.81 367.11,-1581.45 363.61,-1571.45 358.14,-1575.81"/>
</g>
<!-- AVE -->
<g id="node8" class="node">
<title>AVE</title>
<ellipse fill="none" stroke="black" cx="381.31" cy="-1519" rx="29.11" ry="18"/>
<text text-anchor="middle" x="381.31" y="-1513.58" font-family="Times New Roman,serif" font-size="14.00">AVE</text>
</g>
<!-- SAA&#45;&gt;AVE -->
<g id="edge8" class="edge">
<title>SAA&#45;&gt;AVE</title>
<path fill="none" stroke="gray" stroke-width="5" d="M237.33,-1108.36C279.39,-1248.09 349.21,-1480 349.21,-1480 349.21,-1480 352.86,-1484.58 357.67,-1490.61"/>
<polygon fill="gray" stroke="gray" stroke-width="5" points="354.12,-1493.17 363.77,-1498.26 360.96,-1487.71 354.12,-1493.17"/>
</g>
<!-- AVK -->
<g id="node9" class="node">
<title>AVK</title>
<ellipse fill="none" stroke="black" cx="381.31" cy="-1440" rx="30.11" ry="18"/>
<text text-anchor="middle" x="381.31" y="-1434.58" font-family="Times New Roman,serif" font-size="14.00">AVK</text>
</g>
<!-- SAA&#45;&gt;AVK -->
<g id="edge9" class="edge">
<title>SAA&#45;&gt;AVK</title>
<path fill="none" stroke="gray" stroke-width="0.2" d="M247.86,-1104.56C290.07,-1215.74 349.21,-1379.5 349.21,-1379.5 349.21,-1379.5 362.16,-1395.74 371.35,-1413.04"/>
<polygon fill="gray" stroke="gray" stroke-width="0.2" points="368.09,-1414.34 375.59,-1421.83 374.4,-1411.3 368.09,-1414.34"/>
</g>
<!-- IL1 -->
<g id="node10" class="node">
<title>IL1</title>
<ellipse fill="none" stroke="black" cx="381.31" cy="-1361" rx="27" ry="18"/>
<text text-anchor="middle" x="381.31" y="-1355.58" font-family="Times New Roman,serif" font-size="14.00">IL1</text>
</g>
<!-- SAA&#45;&gt;IL1 -->
<g id="edge10" class="edge">
<title>SAA&#45;&gt;IL1</title>
<path fill="none" stroke="gray" stroke-width="2" d="M256.83,-1100.32C297.96,-1186.9 349.21,-1300.5 349.21,-1300.5 349.21,-1300.5 361,-1315.29 370.06,-1331.67"/>
<polygon fill="gray" stroke="gray" stroke-width="2" points="366.81,-1332.98 374.38,-1340.39 373.08,-1329.87 366.81,-1332.98"/>
</g>
<!-- OLL -->
<g id="node11" class="node">
<title>OLL</title>
<ellipse fill="none" stroke="black" cx="381.31" cy="-1282" rx="28.61" ry="18"/>
<text text-anchor="middle" x="381.31" y="-1276.58" font-family="Times New Roman,serif" font-size="14.00">OLL</text>
</g>
<!-- SAA&#45;&gt;OLL -->
<g id="edge11" class="edge">
<title>SAA&#45;&gt;OLL</title>
<path fill="none" stroke="black" stroke-width="5" d="M261.7,-1097.36C301.9,-1164.26 349.21,-1243 349.21,-1243 349.21,-1243 352.86,-1247.58 357.67,-1253.61"/>
<polygon fill="black" stroke="black" stroke-width="5" points="354.12,-1256.17 363.77,-1261.26 360.96,-1250.71 354.12,-1256.17"/>
</g>
<!-- PLN -->
<g id="node12" class="node">
<title>PLN</title>
<ellipse fill="none" stroke="black" cx="381.31" cy="-1203" rx="28.11" ry="18"/>
<text text-anchor="middle" x="381.31" y="-1197.58" font-family="Times New Roman,serif" font-size="14.00">PLN</text>
</g>
<!-- SAA&#45;&gt;PLN -->
<g id="edge12" class="edge">
<title>SAA&#45;&gt;PLN</title>
<path fill="none" stroke="gray" stroke-width="0.2" d="M284.86,-1078.38C315.65,-1112.91 347.86,-1151.76 365.88,-1177.19"/>
<polygon fill="gray" stroke="gray" stroke-width="0.2" points="362.92,-1179.07 371.46,-1185.34 368.7,-1175.11 362.92,-1179.07"/>
</g>
<!-- PVN -->
<g id="node13" class="node">
<title>PVN</title>
<ellipse fill="none" stroke="black" cx="381.31" cy="-1124" rx="29.11" ry="18"/>
<text text-anchor="middle" x="381.31" y="-1118.58" font-family="Times New Roman,serif" font-size="14.00">PVN</text>
</g>
<!-- SAA&#45;&gt;PVN -->
<g id="edge13" class="edge">
<title>SAA&#45;&gt;PVN</title>
<path fill="none" stroke="gray" stroke-width="0.2" d="M295.05,-1065.72C315.98,-1080.03 336.78,-1094.25 352.6,-1105.06"/>
<polygon fill="gray" stroke="gray" stroke-width="0.2" points="350.36,-1107.77 360.59,-1110.52 354.31,-1101.99 350.36,-1107.77"/>
</g>
<!-- RIA -->
<g id="node14" class="node">
<title>RIA</title>
<ellipse fill="none" stroke="black" cx="381.31" cy="-1045" rx="27" ry="18"/>
<text text-anchor="middle" x="381.31" y="-1039.58" font-family="Times New Roman,serif" font-size="14.00">RIA</text>
</g>
<!-- SAA&#45;&gt;RIA -->
<g id="edge14" class="edge">
<title>SAA&#45;&gt;RIA</title>
<path fill="none" stroke="gray" stroke-width="2" d="M313,-1013.78C327.17,-1017.58 340.59,-1021.81 351.68,-1026.1"/>
<polygon fill="gray" stroke="gray" stroke-width="2" points="350.16,-1029.25 360.73,-1029.95 352.9,-1022.81 350.16,-1029.25"/>
</g>
<!-- RIC -->
<g id="node15" class="node">
<title>RIC</title>
<ellipse fill="none" stroke="black" cx="381.31" cy="-966" rx="27" ry="18"/>
<text text-anchor="middle" x="381.31" y="-960.58" font-family="Times New Roman,serif" font-size="14.00">RIC</text>
</g>
<!-- SAA&#45;&gt;RIC -->
<g id="edge15" class="edge">
<title>SAA&#45;&gt;RIC</title>
<path fill="none" stroke="blue" stroke-width="2" d="M306.48,-966.58C319.34,-964.03 331.81,-962.04 342.72,-960.88"/>
<polygon fill="blue" stroke="blue" stroke-width="2" points="342.92,-964.37 352.61,-960.1 342.37,-957.39 342.92,-964.37"/>
</g>
<!-- RIG -->
<g id="node16" class="node">
<title>RIG</title>
<ellipse fill="none" stroke="black" cx="381.31" cy="-887" rx="27.11" ry="18"/>
<text text-anchor="middle" x="381.31" y="-881.58" font-family="Times New Roman,serif" font-size="14.00">RIG</text>
</g>
<!-- SAA&#45;&gt;RIG -->
<g id="edge16" class="edge">
<title>SAA&#45;&gt;RIG</title>
<path fill="none" stroke="gray" stroke-width="0.2" d="M287.14,-934.06C307.97,-919.7 329.27,-906.26 346.24,-896.99"/>
<polygon fill="gray" stroke="gray" stroke-width="0.2" points="347.69,-900.18 354.92,-892.43 344.44,-893.98 347.69,-900.18"/>
</g>
<!-- RIM -->
<g id="node17" class="node">
<title>RIM</title>
<ellipse fill="none" stroke="black" cx="381.31" cy="-808" rx="28.11" ry="18"/>
<text text-anchor="middle" x="381.31" y="-802.58" font-family="Times New Roman,serif" font-size="14.00">RIM</text>
</g>
<!-- SAA&#45;&gt;RIM -->
<g id="edge17" class="edge">
<title>SAA&#45;&gt;RIM</title>
<path fill="none" stroke="black" stroke-width="5" d="M269.56,-917.74C296.34,-886.18 326.36,-853.13 348.39,-831.31"/>
<polygon fill="black" stroke="black" stroke-width="5" points="351.34,-834.54 355.53,-824.46 345.29,-828.22 351.34,-834.54"/>
</g>
<!-- RIP -->
<g id="node18" class="node">
<title>RIP</title>
<ellipse fill="none" stroke="black" cx="381.31" cy="-729" rx="27" ry="18"/>
<text text-anchor="middle" x="381.31" y="-723.58" font-family="Times New Roman,serif" font-size="14.00">RIP</text>
</g>
<!-- SAA&#45;&gt;RIP -->
<g id="edge18" class="edge">
<title>SAA&#45;&gt;RIP</title>
<path fill="none" stroke="gray" stroke-width="2" d="M262.11,-912.74C302.22,-846.55 349.21,-769 349.21,-769 349.21,-769 354.21,-762.57 360.2,-754.86"/>
<polygon fill="gray" stroke="gray" stroke-width="2" points="362.79,-757.24 366.16,-747.2 357.26,-752.94 362.79,-757.24"/>
</g>
<!-- RIV -->
<g id="node19" class="node">
<title>RIV</title>
<ellipse fill="none" stroke="black" cx="381.31" cy="-650" rx="27" ry="18"/>
<text text-anchor="middle" x="381.31" y="-644.58" font-family="Times New Roman,serif" font-size="14.00">RIV</text>
</g>
<!-- SAA&#45;&gt;RIV -->
<g id="edge19" class="edge">
<title>SAA&#45;&gt;RIV</title>
<path fill="none" stroke="gray" stroke-width="0.2" d="M244.91,-904.39C287.26,-804.97 349.21,-668.5 349.21,-668.5 349.21,-668.5 349.79,-667.75 350.79,-666.52"/>
<polygon fill="gray" stroke="gray" stroke-width="0.2" points="353.35,-668.91 357.19,-659.04 348.03,-664.37 353.35,-668.91"/>
</g>
<!-- RMD -->
<g id="node20" class="node">
<title>RMD</title>
<ellipse fill="none" stroke="black" cx="381.31" cy="-571" rx="31.6" ry="18"/>
<text text-anchor="middle" x="381.31" y="-565.58" font-family="Times New Roman,serif" font-size="14.00">RMD</text>
</g>
<!-- SAA&#45;&gt;RMD -->
<g id="edge20" class="edge">
<title>SAA&#45;&gt;RMD</title>
<path fill="none" stroke="gray" stroke-width="0.2" d="M243.04,-903.54C285.41,-786.8 349.21,-611 349.21,-611 349.21,-611 354.86,-603.73 361.35,-595.39"/>
<polygon fill="gray" stroke="gray" stroke-width="0.2" points="364.1,-597.55 367.48,-587.51 358.57,-593.25 364.1,-597.55"/>
</g>
<!-- RME -->
<g id="node21" class="node">
<title>RME</title>
<ellipse fill="none" stroke="black" cx="381.31" cy="-492" rx="30.61" ry="18"/>
<text text-anchor="middle" x="381.31" y="-486.57" font-family="Times New Roman,serif" font-size="14.00">RME</text>
</g>
<!-- SAA&#45;&gt;RME -->
<g id="edge21" class="edge">
<title>SAA&#45;&gt;RME</title>
<path fill="none" stroke="gray" stroke-width="0.2" d="M237.42,-901.56C279.49,-762.09 349.21,-531 349.21,-531 349.21,-531 354.59,-524.25 360.88,-516.37"/>
<polygon fill="gray" stroke="gray" stroke-width="0.2" points="363.61,-518.55 367.11,-508.55 358.14,-514.19 363.61,-518.55"/>
</g>
<!-- RMF -->
<g id="node22" class="node">
<title>RMF</title>
<ellipse fill="none" stroke="black" cx="381.31" cy="-413" rx="30.61" ry="18"/>
<text text-anchor="middle" x="381.31" y="-407.57" font-family="Times New Roman,serif" font-size="14.00">RMF</text>
</g>
<!-- SAA&#45;&gt;RMF -->
<g id="edge22" class="edge">
<title>SAA&#45;&gt;RMF</title>
<path fill="none" stroke="black" stroke-width="5" d="M230.15,-899.66C265.92,-753.63 330.79,-501.88 350.24,-438.04"/>
<polygon fill="black" stroke="black" stroke-width="5" points="354.23,-439.89 353.43,-429.01 345.98,-436.98 354.23,-439.89"/>
</g>
<!-- RMG -->
<g id="node23" class="node">
<title>RMG</title>
<ellipse fill="none" stroke="black" cx="381.31" cy="-334" rx="32.1" ry="18"/>
<text text-anchor="middle" x="381.31" y="-328.57" font-family="Times New Roman,serif" font-size="14.00">RMG</text>
</g>
<!-- SAA&#45;&gt;RMG -->
<g id="edge23" class="edge">
<title>SAA&#45;&gt;RMG</title>
<path fill="none" stroke="gray" stroke-width="0.2" d="M227.46,-898.89C263.8,-729.8 335.14,-413.77 351.72,-354.43"/>
<polygon fill="gray" stroke="gray" stroke-width="0.2" points="355,-355.67 354.82,-345.07 348.36,-353.47 355,-355.67"/>
</g>
<!-- RMH -->
<g id="node24" class="node">
<title>RMH</title>
<ellipse fill="none" stroke="black" cx="381.31" cy="-255" rx="31.6" ry="18"/>
<text text-anchor="middle" x="381.31" y="-249.57" font-family="Times New Roman,serif" font-size="14.00">RMH</text>
</g>
<!-- SAA&#45;&gt;RMH -->
<g id="edge24" class="edge">
<title>SAA&#45;&gt;RMH</title>
<path fill="none" stroke="gray" stroke-width="2" d="M225.27,-898.57C260.56,-714.21 333.68,-349.82 351.54,-277.87"/>
<polygon fill="gray" stroke="gray" stroke-width="2" points="354.87,-278.94 354.35,-268.36 348.16,-276.96 354.87,-278.94"/>
</g>
<!-- SIB -->
<g id="node25" class="node">
<title>SIB</title>
<ellipse fill="none" stroke="black" cx="381.31" cy="-176" rx="27" ry="18"/>
<text text-anchor="middle" x="381.31" y="-170.57" font-family="Times New Roman,serif" font-size="14.00">SIB</text>
</g>
<!-- SAA&#45;&gt;SIB -->
<g id="edge25" class="edge">
<title>SAA&#45;&gt;SIB</title>
<path fill="none" stroke="gray" stroke-width="0.2" d="M225.5,-898.46C264.53,-682.82 349.21,-215 349.21,-215 349.21,-215 354.86,-207.91 361.35,-199.78"/>
<polygon fill="gray" stroke="gray" stroke-width="0.2" points="363.97,-202.1 367.47,-192.1 358.5,-197.74 363.97,-202.1"/>
</g>
<!-- SMB -->
<g id="node26" class="node">
<title>SMB</title>
<ellipse fill="none" stroke="black" cx="381.31" cy="-97" rx="30.11" ry="18"/>
<text text-anchor="middle" x="381.31" y="-91.58" font-family="Times New Roman,serif" font-size="14.00">SMB</text>
</g>
<!-- SAA&#45;&gt;SMB -->
<g id="edge26" class="edge">
<title>SAA&#45;&gt;SMB</title>
<path fill="none" stroke="gray" stroke-width="0.2" d="M222.06,-897.9C256.6,-678.05 336.49,-191.86 353.12,-116.58"/>
<polygon fill="gray" stroke="gray" stroke-width="0.2" points="356.46,-117.65 355.73,-107.08 349.71,-115.8 356.46,-117.65"/>
</g>
<!-- SMD -->
<g id="node27" class="node">
<title>SMD</title>
<ellipse fill="none" stroke="black" cx="381.31" cy="-18" rx="30.61" ry="18"/>
<text text-anchor="middle" x="381.31" y="-12.57" font-family="Times New Roman,serif" font-size="14.00">SMD</text>
</g>
<!-- SAA&#45;&gt;SMD -->
<g id="edge27" class="edge">
<title>SAA&#45;&gt;SMD</title>
<path fill="none" stroke="black" stroke-width="5" d="M220.78,-898.04C253.94,-668.06 333.29,-141.12 351.89,-43.7"/>
<polygon fill="black" stroke="black" stroke-width="5" points="356.1,-44.93 354.1,-34.2 347.57,-42.96 356.1,-44.93"/>
</g>
<!-- ADA&#45;&gt;SAA -->
<g id="edge28" class="edge">
<title>ADA&#45;&gt;SAA</title>
<path fill="none" stroke="gray" stroke-width="0.2" d="M355.81,-1983.21C351.95,-1978.94 349.21,-1975.5 349.21,-1975.5 349.21,-1975.5 259.59,-1380.72 222.24,-1122.24"/>
<polygon fill="gray" stroke="gray" stroke-width="0.2" points="225.71,-1121.75 220.82,-1112.36 218.78,-1122.75 225.71,-1121.75"/>
</g>
<!-- AIB&#45;&gt;SAA -->
<g id="edge29" class="edge">
<title>AIB&#45;&gt;SAA</title>
<path fill="none" stroke="gray" stroke-width="5" d="M357.06,-1905.58C352.56,-1900.7 349.21,-1896.5 349.21,-1896.5 349.21,-1896.5 263.01,-1372.05 224.46,-1127.47"/>
<polygon fill="gray" stroke="gray" stroke-width="5" points="228.84,-1127.13 222.96,-1117.93 220.19,-1128.49 228.84,-1127.13"/>
</g>
<!-- ALN&#45;&gt;SAA -->
<g id="edge30" class="edge">
<title>ALN&#45;&gt;SAA</title>
<path fill="none" stroke="black" stroke-width="5" d="M356.11,-1825.55C352.1,-1821.12 349.21,-1817.5 349.21,-1817.5 349.21,-1817.5 265.56,-1354.77 226.21,-1127.53"/>
<polygon fill="black" stroke="black" stroke-width="5" points="230.53,-1126.84 224.52,-1117.73 221.91,-1128.33 230.53,-1126.84"/>
</g>
<!-- ASI&#45;&gt;SAA -->
<g id="edge31" class="edge">
<title>ASI&#45;&gt;SAA</title>
<path fill="none" stroke="gray" stroke-width="0.2" d="M357.06,-1747.58C352.56,-1742.7 349.21,-1738.5 349.21,-1738.5 349.21,-1738.5 266.92,-1328.79 227.19,-1121.58"/>
<polygon fill="gray" stroke="gray" stroke-width="0.2" points="230.65,-1121.02 225.33,-1111.86 223.77,-1122.34 230.65,-1121.02"/>
</g>
<!-- AVA&#45;&gt;SAA -->
<g id="edge32" class="edge">
<title>AVA&#45;&gt;SAA</title>
<path fill="none" stroke="gray" stroke-width="2" d="M355.81,-1667.21C351.95,-1662.94 349.21,-1659.5 349.21,-1659.5 349.21,-1659.5 270.76,-1312.23 230.07,-1123.39"/>
<polygon fill="gray" stroke="gray" stroke-width="2" points="233.55,-1122.9 228.02,-1113.86 226.7,-1124.38 233.55,-1122.9"/>
</g>
<!-- AVK&#45;&gt;SAA -->
<g id="edge33" class="edge">
<title>AVK&#45;&gt;SAA</title>
<path fill="none" stroke="gray" stroke-width="5" d="M355.81,-1430.21C351.95,-1425.94 349.21,-1422.5 349.21,-1422.5 349.21,-1422.5 285.86,-1247.06 243.49,-1123.39"/>
<polygon fill="gray" stroke="gray" stroke-width="5" points="247.69,-1122.16 240.32,-1114.11 239.41,-1124.98 247.69,-1122.16"/>
</g>
<!-- IL1&#45;&gt;SAA -->
<g id="edge34" class="edge">
<title>IL1&#45;&gt;SAA</title>
<path fill="none" stroke="gray" stroke-width="0.2" d="M357.06,-1352.58C352.56,-1347.7 349.21,-1343.5 349.21,-1343.5 349.21,-1343.5 290.78,-1213.97 248.62,-1114.89"/>
<polygon fill="gray" stroke="gray" stroke-width="0.2" points="251.97,-1113.83 244.84,-1105.99 245.52,-1116.56 251.97,-1113.83"/>
</g>
<!-- PLN&#45;&gt;SAA -->
<g id="edge35" class="edge">
<title>PLN&#45;&gt;SAA</title>
<path fill="none" stroke="black" stroke-width="5" d="M359.98,-1190.69C340.15,-1172.33 308.79,-1138.37 279.54,-1104.35"/>
<polygon fill="black" stroke="black" stroke-width="5" points="283.17,-1101.86 273.36,-1097.08 276.51,-1107.53 283.17,-1101.86"/>
</g>
<!-- RIA&#45;&gt;SAA -->
<g id="edge36" class="edge">
<title>RIA&#45;&gt;SAA</title>
<path fill="none" stroke="gray" stroke-width="0.2" d="M355.53,-1050.98C344.53,-1050.43 330.74,-1048.57 316.02,-1045.85"/>
<polygon fill="gray" stroke="gray" stroke-width="0.2" points="317.01,-1042.48 306.52,-1044 315.67,-1049.35 317.01,-1042.48"/>
</g>
<!-- RIC&#45;&gt;SAA -->
<g id="edge37" class="edge">
<title>RIC&#45;&gt;SAA</title>
<path fill="none" stroke="gray" stroke-width="5" d="M363.25,-979.9C354.05,-984.18 341.82,-988.53 328.22,-992.58"/>
<polygon fill="gray" stroke="gray" stroke-width="5" points="327.46,-988.25 319.01,-995.15 329.82,-996.67 327.46,-988.25"/>
</g>
<!-- RIG&#45;&gt;SAA -->
<g id="edge38" class="edge">
<title>RIG&#45;&gt;SAA</title>
<path fill="none" stroke="gray" stroke-width="5" d="M368.81,-903.32C356.88,-915.23 336.93,-931.14 315.01,-946.93"/>
<polygon fill="gray" stroke="gray" stroke-width="5" points="312.65,-943.24 307.01,-952.58 317.7,-950.38 312.65,-943.24"/>
</g>
<!-- RIM&#45;&gt;SAA -->
<g id="edge39" class="edge">
<title>RIM&#45;&gt;SAA</title>
<path fill="none" stroke="red" stroke-width="5" d="M371.66,-825.31C357.19,-847.28 326.6,-884.76 295.61,-919.96"/>
<polygon fill="red" stroke="red" stroke-width="5" points="292.62,-916.74 289.25,-927.12 299.16,-922.55 292.62,-916.74"/>
</g>
<!-- RIV&#45;&gt;SAA -->
<g id="edge40" class="edge">
<title>RIV&#45;&gt;SAA</title>
<path fill="none" stroke="black" stroke-width="5" d="M375.72,-668.05C367.07,-688.53 349.21,-711.5 349.21,-711.5 349.21,-711.5 303.66,-811.84 263.98,-895.39"/>
<polygon fill="black" stroke="black" stroke-width="5" points="260.06,-893.43 259.71,-904.34 267.96,-897.19 260.06,-893.43"/>
</g>
<!-- RMF&#45;&gt;SAA -->
<g id="edge41" class="edge">
<title>RMF&#45;&gt;SAA</title>
<path fill="none" stroke="gray" stroke-width="0.2" d="M375.72,-430.9C367.07,-451.1 349.21,-473.5 349.21,-473.5 349.21,-473.5 281.48,-735.43 239.24,-891.75"/>
<polygon fill="gray" stroke="gray" stroke-width="0.2" points="235.94,-890.57 236.7,-901.13 242.69,-892.4 235.94,-890.57"/>
</g>
<!-- RMG&#45;&gt;SAA -->
<g id="edge42" class="edge">
<title>RMG&#45;&gt;SAA</title>
<path fill="none" stroke="gray" stroke-width="2" d="M375.59,-352.21C366.89,-372.33 349.21,-394.5 349.21,-394.5 349.21,-394.5 277.8,-710.11 235.9,-887.68"/>
<polygon fill="gray" stroke="gray" stroke-width="2" points="232.53,-886.74 233.64,-897.27 239.34,-888.35 232.53,-886.74"/>
</g>
<!-- RMH&#45;&gt;SAA -->
<g id="edge43" class="edge">
<title>RMH&#45;&gt;SAA</title>
<path fill="none" stroke="gray" stroke-width="0.2" d="M375.72,-272.9C367.07,-293.1 349.21,-315.5 349.21,-315.5 349.21,-315.5 273.23,-693.26 232.04,-889.75"/>
<polygon fill="gray" stroke="gray" stroke-width="0.2" points="228.68,-888.74 230.05,-899.24 235.53,-890.18 228.68,-888.74"/>
</g>
<!-- SMB&#45;&gt;SAA -->
<g id="edge44" class="edge">
<title>SMB&#45;&gt;SAA</title>
<path fill="none" stroke="black" stroke-width="5" d="M375.72,-114.9C367.07,-135.1 349.21,-157.5 349.21,-157.5 349.21,-157.5 268.5,-648 228.35,-882.86"/>
<polygon fill="black" stroke="black" stroke-width="5" points="224.07,-881.9 226.7,-892.49 232.7,-883.37 224.07,-881.9"/>
</g>
<!-- SMD&#45;&gt;SAA -->
<g id="edge45" class="edge">
<title>SMD&#45;&gt;SAA</title>
<path fill="none" stroke="gray" stroke-width="nan" d="M375.72,-35.9C367.07,-56.1 349.21,-78.5 349.21,-78.5 349.21,-78.5 262.37,-654.22 224.03,-898.18"/>
<polygon fill="gray" stroke="gray" stroke-width="nan" points="nan,-nan nan,-nan nan,-nan nan,-nan"/>
</g>
<!-- ADE -->
<g id="node28" class="node">
<title>ADE</title>
<ellipse fill="none" stroke="black" cx="30.61" cy="-1400" rx="29.11" ry="18"/>
<text text-anchor="middle" x="30.61" y="-1394.58" font-family="Times New Roman,serif" font-size="14.00">ADE</text>
</g>
<!-- ADE&#45;&gt;SAA -->
<g id="edge46" class="edge">
<title>ADE&#45;&gt;SAA</title>
<path fill="none" stroke="red" stroke-width="0.2" d="M43.99,-1383.69C52.1,-1373 61.21,-1361 61.21,-1361 61.21,-1361 118.21,-1219.1 160.23,-1114.48"/>
<polygon fill="red" stroke="red" stroke-width="0.2" points="163.4,-1115.98 163.88,-1105.39 156.91,-1113.37 163.4,-1115.98"/>
</g>
<!-- AIN -->
<g id="node29" class="node">
<title>AIN</title>
<ellipse fill="none" stroke="black" cx="30.61" cy="-1321" rx="27" ry="18"/>
<text text-anchor="middle" x="30.61" y="-1315.58" font-family="Times New Roman,serif" font-size="14.00">AIN</text>
</g>
<!-- AIN&#45;&gt;SAA -->
<g id="edge47" class="edge">
<title>AIN&#45;&gt;SAA</title>
<path fill="none" stroke="gray" stroke-width="0.2" d="M43.65,-1305.14C51.84,-1294.34 61.21,-1282 61.21,-1282 61.21,-1282 109.66,-1188.15 150.15,-1109.71"/>
<polygon fill="gray" stroke="gray" stroke-width="0.2" points="153.18,-1111.48 154.66,-1100.98 146.96,-1108.26 153.18,-1111.48"/>
</g>
<!-- AQR -->
<g id="node30" class="node">
<title>AQR</title>
<ellipse fill="none" stroke="black" cx="30.61" cy="-1242" rx="30.61" ry="18"/>
<text text-anchor="middle" x="30.61" y="-1236.58" font-family="Times New Roman,serif" font-size="14.00">AQR</text>
</g>
<!-- AQR&#45;&gt;SAA -->
<g id="edge48" class="edge">
<title>AQR&#45;&gt;SAA</title>
<path fill="none" stroke="gray" stroke-width="0.2" d="M43.99,-1225.69C52.1,-1215 61.21,-1203 61.21,-1203 61.21,-1203 98.65,-1151.16 135.22,-1100.53"/>
<polygon fill="gray" stroke="gray" stroke-width="0.2" points="137.88,-1102.82 140.89,-1092.67 132.2,-1098.73 137.88,-1102.82"/>
</g>
<!-- ASJ -->
<g id="node31" class="node">
<title>ASJ</title>
<ellipse fill="none" stroke="black" cx="30.61" cy="-1163" rx="27" ry="18"/>
<text text-anchor="middle" x="30.61" y="-1157.58" font-family="Times New Roman,serif" font-size="14.00">ASJ</text>
</g>
<!-- ASJ&#45;&gt;SAA -->
<g id="edge49" class="edge">
<title>ASJ&#45;&gt;SAA</title>
<path fill="none" stroke="gray" stroke-width="0.2" d="M47.23,-1148.7C63.61,-1133.71 90.68,-1108.92 117.78,-1084.12"/>
<polygon fill="gray" stroke="gray" stroke-width="0.2" points="119.8,-1087.01 124.81,-1077.68 115.07,-1081.85 119.8,-1087.01"/>
</g>
<!-- AUA -->
<g id="node32" class="node">
<title>AUA</title>
<ellipse fill="none" stroke="black" cx="30.61" cy="-1084" rx="30.11" ry="18"/>
<text text-anchor="middle" x="30.61" y="-1078.58" font-family="Times New Roman,serif" font-size="14.00">AUA</text>
</g>
<!-- AUA&#45;&gt;SAA -->
<g id="edge50" class="edge">
<title>AUA&#45;&gt;SAA</title>
<path fill="none" stroke="gray" stroke-width="0.2" d="M55.24,-1073.18C66.74,-1067.92 81.46,-1061.18 97.16,-1054"/>
<polygon fill="gray" stroke="gray" stroke-width="0.2" points="98.58,-1057.19 106.22,-1049.85 95.67,-1050.83 98.58,-1057.19"/>
</g>
<!-- DVA -->
<g id="node33" class="node">
<title>DVA</title>
<ellipse fill="none" stroke="black" cx="30.61" cy="-1005" rx="30.11" ry="18"/>
<text text-anchor="middle" x="30.61" y="-999.58" font-family="Times New Roman,serif" font-size="14.00">DVA</text>
</g>
<!-- DVA&#45;&gt;SAA -->
<g id="edge51" class="edge">
<title>DVA&#45;&gt;SAA</title>
<path fill="none" stroke="gray" stroke-width="2" d="M60.89,-1005C67.78,-1005 75.56,-1005 83.84,-1005"/>
<polygon fill="gray" stroke="gray" stroke-width="2" points="83.7,-1008.5 93.7,-1005 83.7,-1001.5 83.7,-1008.5"/>
</g>
<!-- DVC -->
<g id="node34" class="node">
<title>DVC</title>
<ellipse fill="none" stroke="black" cx="30.61" cy="-926" rx="30.11" ry="18"/>
<text text-anchor="middle" x="30.61" y="-920.58" font-family="Times New Roman,serif" font-size="14.00">DVC</text>
</g>
<!-- DVC&#45;&gt;SAA -->
<g id="edge52" class="edge">
<title>DVC&#45;&gt;SAA</title>
<path fill="none" stroke="gray" stroke-width="0.2" d="M55.24,-936.82C66.74,-942.08 81.46,-948.82 97.16,-956"/>
<polygon fill="gray" stroke="gray" stroke-width="0.2" points="95.67,-959.17 106.22,-960.15 98.58,-952.81 95.67,-959.17"/>
</g>
<!-- PVC -->
<g id="node35" class="node">
<title>PVC</title>
<ellipse fill="none" stroke="black" cx="30.61" cy="-847" rx="29.11" ry="18"/>
<text text-anchor="middle" x="30.61" y="-841.58" font-family="Times New Roman,serif" font-size="14.00">PVC</text>
</g>
<!-- PVC&#45;&gt;SAA -->
<g id="edge53" class="edge">
<title>PVC&#45;&gt;SAA</title>
<path fill="none" stroke="gray" stroke-width="0.2" d="M47.84,-861.86C64.18,-876.82 90.71,-901.1 117.31,-925.45"/>
<polygon fill="gray" stroke="gray" stroke-width="0.2" points="114.84,-927.94 124.58,-932.11 119.57,-922.77 114.84,-927.94"/>
</g>
<!-- SDQ -->
<g id="node36" class="node">
<title>SDQ</title>
<ellipse fill="none" stroke="black" cx="30.61" cy="-768" rx="29.61" ry="18"/>
<text text-anchor="middle" x="30.61" y="-762.58" font-family="Times New Roman,serif" font-size="14.00">SDQ</text>
</g>
<!-- SDQ&#45;&gt;SAA -->
<g id="edge54" class="edge">
<title>SDQ&#45;&gt;SAA</title>
<path fill="none" stroke="gray" stroke-width="0.2" d="M43.65,-784.27C51.84,-795.34 61.21,-808 61.21,-808 61.21,-808 98.52,-859.39 135.02,-909.68"/>
<polygon fill="gray" stroke="gray" stroke-width="0.2" points="131.98,-911.45 140.69,-917.49 137.64,-907.34 131.98,-911.45"/>
</g>
<!-- URY -->
<g id="node37" class="node">
<title>URY</title>
<ellipse fill="none" stroke="black" cx="30.61" cy="-689" rx="30.11" ry="18"/>
<text text-anchor="middle" x="30.61" y="-683.58" font-family="Times New Roman,serif" font-size="14.00">URY</text>
</g>
<!-- URY&#45;&gt;SAA -->
<g id="edge55" class="edge">
<title>URY&#45;&gt;SAA</title>
<path fill="none" stroke="gray" stroke-width="0.2" d="M43.65,-705.27C51.84,-716.34 61.21,-729 61.21,-729 61.21,-729 109.5,-822.21 149.96,-900.29"/>
<polygon fill="gray" stroke="gray" stroke-width="0.2" points="146.75,-901.71 154.46,-908.97 152.96,-898.49 146.75,-901.71"/>
</g>
<!-- VBn -->
<g id="node38" class="node">
<title>VBn</title>
<ellipse fill="none" stroke="black" cx="30.61" cy="-610" rx="27.61" ry="18"/>
<text text-anchor="middle" x="30.61" y="-604.58" font-family="Times New Roman,serif" font-size="14.00">VBn</text>
</g>
<!-- VBn&#45;&gt;SAA -->
<g id="edge56" class="edge">
<title>VBn&#45;&gt;SAA</title>
<path fill="none" stroke="gray" stroke-width="2" d="M43.65,-626.27C51.84,-637.34 61.21,-650 61.21,-650 61.21,-650 117.29,-789.23 159.22,-893.3"/>
<polygon fill="gray" stroke="gray" stroke-width="2" points="155.88,-894.39 162.87,-902.36 162.38,-891.78 155.88,-894.39"/>
</g>
</g>
</svg>
