<?xml version="1.0" encoding="UTF-8" standalone="no"?>
<!DOCTYPE svg PUBLIC "-//W3C//DTD SVG 1.1//EN"
 "http://www.w3.org/Graphics/SVG/1.1/DTD/svg11.dtd">
<!-- Generated by graphviz version 11.0.0 (20240428.1522)
 -->
<!-- Pages: 1 -->
<svg width="421pt" height="2414pt"
 viewBox="0.00 0.00 421.41 2414.00" xmlns="http://www.w3.org/2000/svg" xmlns:xlink="http://www.w3.org/1999/xlink">
<g id="graph0" class="graph" transform="scale(1 1) rotate(0) translate(4 2410)">
<polygon fill="white" stroke="none" points="-4,4 -4,-2410 417.41,-2410 417.41,4 -4,4"/>
<!-- SDQ -->
<g id="node1" class="node">
<title>SDQ</title>
<ellipse fill="none" stroke="black" cx="205.21" cy="-1361" rx="108" ry="108"/>
<text text-anchor="middle" x="205.21" y="-1342" font-family="Times New Roman,serif" font-size="50.00">SDQ</text>
</g>
<!-- SDQ&#45;&gt;SDQ -->
<g id="edge1" class="edge">
<title>SDQ&#45;&gt;SDQ</title>
<path fill="none" stroke="red" stroke-width="0.2" d="M172.78,-1464.39C174.71,-1491.51 185.52,-1512 205.21,-1512 222.37,-1512 232.78,-1496.45 236.45,-1474.52"/>
<polygon fill="red" stroke="red" stroke-width="0.2" points="239.91,-1475.03 237.6,-1464.69 232.96,-1474.22 239.91,-1475.03"/>
</g>
<!-- ADA -->
<g id="node2" class="node">
<title>ADA</title>
<ellipse fill="none" stroke="black" cx="381.31" cy="-2388" rx="30.11" ry="18"/>
<text text-anchor="middle" x="381.31" y="-2382.57" font-family="Times New Roman,serif" font-size="14.00">ADA</text>
</g>
<!-- SDQ&#45;&gt;ADA -->
<g id="edge2" class="edge">
<title>SDQ&#45;&gt;ADA</title>
<path fill="none" stroke="gray" stroke-width="0.2" d="M223.25,-1467.59C261.16,-1719.18 349.21,-2327.5 349.21,-2327.5 349.21,-2327.5 362.16,-2343.74 371.35,-2361.04"/>
<polygon fill="gray" stroke="gray" stroke-width="0.2" points="368.09,-2362.34 375.59,-2369.83 374.4,-2359.3 368.09,-2362.34"/>
</g>
<!-- ADL -->
<g id="node3" class="node">
<title>ADL</title>
<ellipse fill="none" stroke="black" cx="381.31" cy="-2309" rx="29.11" ry="18"/>
<text text-anchor="middle" x="381.31" y="-2303.57" font-family="Times New Roman,serif" font-size="14.00">ADL</text>
</g>
<!-- SDQ&#45;&gt;ADL -->
<g id="edge3" class="edge">
<title>SDQ&#45;&gt;ADL</title>
<path fill="none" stroke="gray" stroke-width="0.2" d="M223.03,-1467.95C260.84,-1708.23 349.21,-2270 349.21,-2270 349.21,-2270 354.86,-2277.09 361.35,-2285.22"/>
<polygon fill="gray" stroke="gray" stroke-width="0.2" points="358.5,-2287.26 367.47,-2292.9 363.97,-2282.9 358.5,-2287.26"/>
</g>
<!-- AIB -->
<g id="node4" class="node">
<title>AIB</title>
<ellipse fill="none" stroke="black" cx="381.31" cy="-2230" rx="27" ry="18"/>
<text text-anchor="middle" x="381.31" y="-2224.57" font-family="Times New Roman,serif" font-size="14.00">AIB</text>
</g>
<!-- SDQ&#45;&gt;AIB -->
<g id="edge4" class="edge">
<title>SDQ&#45;&gt;AIB</title>
<path fill="none" stroke="black" stroke-width="5" d="M224.54,-1467.39C263.13,-1691.35 349.21,-2191 349.21,-2191 349.21,-2191 352.86,-2195.58 357.67,-2201.61"/>
<polygon fill="black" stroke="black" stroke-width="5" points="354.12,-2204.17 363.77,-2209.26 360.96,-2198.71 354.12,-2204.17"/>
</g>
<!-- AIZ -->
<g id="node5" class="node">
<title>AIZ</title>
<ellipse fill="none" stroke="black" cx="381.31" cy="-2151" rx="27" ry="18"/>
<text text-anchor="middle" x="381.31" y="-2145.57" font-family="Times New Roman,serif" font-size="14.00">AIZ</text>
</g>
<!-- SDQ&#45;&gt;AIZ -->
<g id="edge5" class="edge">
<title>SDQ&#45;&gt;AIZ</title>
<path fill="none" stroke="gray" stroke-width="2" d="M228.71,-1466.7C268.98,-1669.16 349.21,-2090.5 349.21,-2090.5 349.21,-2090.5 361,-2105.29 370.06,-2121.67"/>
<polygon fill="gray" stroke="gray" stroke-width="2" points="366.81,-2122.98 374.38,-2130.39 373.08,-2119.87 366.81,-2122.98"/>
</g>
<!-- ALM -->
<g id="node6" class="node">
<title>ALM</title>
<ellipse fill="none" stroke="black" cx="381.31" cy="-2072" rx="30.61" ry="18"/>
<text text-anchor="middle" x="381.31" y="-2066.57" font-family="Times New Roman,serif" font-size="14.00">ALM</text>
</g>
<!-- SDQ&#45;&gt;ALM -->
<g id="edge6" class="edge">
<title>SDQ&#45;&gt;ALM</title>
<path fill="none" stroke="gray" stroke-width="0.2" d="M231.36,-1466.17C272.4,-1650.53 349.21,-2011.5 349.21,-2011.5 349.21,-2011.5 362.16,-2027.74 371.35,-2045.04"/>
<polygon fill="gray" stroke="gray" stroke-width="0.2" points="368.09,-2046.34 375.59,-2053.83 374.4,-2043.3 368.09,-2046.34"/>
</g>
<!-- AVA -->
<g id="node7" class="node">
<title>AVA</title>
<ellipse fill="none" stroke="black" cx="381.31" cy="-1993" rx="30.11" ry="18"/>
<text text-anchor="middle" x="381.31" y="-1987.58" font-family="Times New Roman,serif" font-size="14.00">AVA</text>
</g>
<!-- SDQ&#45;&gt;AVA -->
<g id="edge7" class="edge">
<title>SDQ&#45;&gt;AVA</title>
<path fill="none" stroke="black" stroke-width="5" d="M231.53,-1465.99C272.6,-1636.31 349.21,-1954 349.21,-1954 349.21,-1954 352.76,-1958.46 357.47,-1964.36"/>
<polygon fill="black" stroke="black" stroke-width="5" points="353.76,-1966.72 363.41,-1971.81 360.6,-1961.26 353.76,-1966.72"/>
</g>
<!-- AVB -->
<g id="node8" class="node">
<title>AVB</title>
<ellipse fill="none" stroke="black" cx="381.31" cy="-1914" rx="29.61" ry="18"/>
<text text-anchor="middle" x="381.31" y="-1908.58" font-family="Times New Roman,serif" font-size="14.00">AVB</text>
</g>
<!-- SDQ&#45;&gt;AVB -->
<g id="edge8" class="edge">
<title>SDQ&#45;&gt;AVB</title>
<path fill="none" stroke="black" stroke-width="5" d="M238.84,-1463.85C281.04,-1608.48 349.21,-1853.5 349.21,-1853.5 349.21,-1853.5 359.68,-1866.63 368.47,-1881.85"/>
<polygon fill="black" stroke="black" stroke-width="5" points="364.46,-1883.62 372.89,-1890.54 372.26,-1879.65 364.46,-1883.62"/>
</g>
<!-- AVD -->
<g id="node9" class="node">
<title>AVD</title>
<ellipse fill="none" stroke="black" cx="381.31" cy="-1835" rx="30.11" ry="18"/>
<text text-anchor="middle" x="381.31" y="-1829.58" font-family="Times New Roman,serif" font-size="14.00">AVD</text>
</g>
<!-- SDQ&#45;&gt;AVD -->
<g id="edge9" class="edge">
<title>SDQ&#45;&gt;AVD</title>
<path fill="none" stroke="gray" stroke-width="0.2" d="M239.92,-1463.54C282.2,-1592.14 349.21,-1796 349.21,-1796 349.21,-1796 354.59,-1802.75 360.88,-1810.63"/>
<polygon fill="gray" stroke="gray" stroke-width="0.2" points="358.14,-1812.81 367.11,-1818.45 363.61,-1808.45 358.14,-1812.81"/>
</g>
<!-- AVE -->
<g id="node10" class="node">
<title>AVE</title>
<ellipse fill="none" stroke="black" cx="381.31" cy="-1756" rx="29.11" ry="18"/>
<text text-anchor="middle" x="381.31" y="-1750.58" font-family="Times New Roman,serif" font-size="14.00">AVE</text>
</g>
<!-- SDQ&#45;&gt;AVE -->
<g id="edge10" class="edge">
<title>SDQ&#45;&gt;AVE</title>
<path fill="none" stroke="gray" stroke-width="2" d="M246.42,-1461.11C288.72,-1566.41 349.21,-1717 349.21,-1717 349.21,-1717 353.86,-1722.83 359.57,-1729.99"/>
<polygon fill="gray" stroke="gray" stroke-width="2" points="356.8,-1732.13 365.77,-1737.77 362.28,-1727.77 356.8,-1732.13"/>
</g>
<!-- AVK -->
<g id="node11" class="node">
<title>AVK</title>
<ellipse fill="none" stroke="black" cx="381.31" cy="-1677" rx="30.11" ry="18"/>
<text text-anchor="middle" x="381.31" y="-1671.58" font-family="Times New Roman,serif" font-size="14.00">AVK</text>
</g>
<!-- SDQ&#45;&gt;AVK -->
<g id="edge11" class="edge">
<title>SDQ&#45;&gt;AVK</title>
<path fill="none" stroke="gray" stroke-width="2" d="M262.73,-1452.97C302.7,-1526.4 349.21,-1616.5 349.21,-1616.5 349.21,-1616.5 361,-1631.29 370.06,-1647.67"/>
<polygon fill="gray" stroke="gray" stroke-width="2" points="366.81,-1648.98 374.38,-1656.39 373.08,-1645.87 366.81,-1648.98"/>
</g>
<!-- CEP -->
<g id="node12" class="node">
<title>CEP</title>
<ellipse fill="none" stroke="black" cx="381.31" cy="-1598" rx="28.11" ry="18"/>
<text text-anchor="middle" x="381.31" y="-1592.58" font-family="Times New Roman,serif" font-size="14.00">CEP</text>
</g>
<!-- SDQ&#45;&gt;CEP -->
<g id="edge12" class="edge">
<title>SDQ&#45;&gt;CEP</title>
<path fill="none" stroke="gray" stroke-width="0.2" d="M277.92,-1441.46C313.6,-1488.19 349.21,-1537.5 349.21,-1537.5 349.21,-1537.5 362.16,-1553.74 371.35,-1571.04"/>
<polygon fill="gray" stroke="gray" stroke-width="0.2" points="368.09,-1572.34 375.59,-1579.83 374.4,-1569.3 368.09,-1572.34"/>
</g>
<!-- DVA -->
<g id="node13" class="node">
<title>DVA</title>
<ellipse fill="none" stroke="black" cx="381.31" cy="-1519" rx="30.11" ry="18"/>
<text text-anchor="middle" x="381.31" y="-1513.58" font-family="Times New Roman,serif" font-size="14.00">DVA</text>
</g>
<!-- SDQ&#45;&gt;DVA -->
<g id="edge13" class="edge">
<title>SDQ&#45;&gt;DVA</title>
<path fill="none" stroke="black" stroke-width="5" d="M293.26,-1423.88C318.28,-1446.58 343.3,-1471.07 360.06,-1489.82"/>
<polygon fill="black" stroke="black" stroke-width="5" points="356.61,-1492.53 366.42,-1497.32 363.29,-1486.87 356.61,-1492.53"/>
</g>
<!-- FLP -->
<g id="node14" class="node">
<title>FLP</title>
<ellipse fill="none" stroke="black" cx="381.31" cy="-1440" rx="27.11" ry="18"/>
<text text-anchor="middle" x="381.31" y="-1434.58" font-family="Times New Roman,serif" font-size="14.00">FLP</text>
</g>
<!-- SDQ&#45;&gt;FLP -->
<g id="edge14" class="edge">
<title>SDQ&#45;&gt;FLP</title>
<path fill="none" stroke="red" stroke-width="2" d="M309,-1391.75C326.47,-1400.21 343.07,-1409.16 355.85,-1417.28"/>
<polygon fill="red" stroke="red" stroke-width="2" points="353.68,-1420.04 363.92,-1422.76 357.61,-1414.25 353.68,-1420.04"/>
</g>
<!-- IL1 -->
<g id="node15" class="node">
<title>IL1</title>
<ellipse fill="none" stroke="black" cx="381.31" cy="-1361" rx="27" ry="18"/>
<text text-anchor="middle" x="381.31" y="-1355.58" font-family="Times New Roman,serif" font-size="14.00">IL1</text>
</g>
<!-- SDQ&#45;&gt;IL1 -->
<g id="edge15" class="edge">
<title>SDQ&#45;&gt;IL1</title>
<path fill="none" stroke="gray" stroke-width="0.2" d="M313.5,-1361C324.26,-1361 334.59,-1361 343.77,-1361"/>
<polygon fill="gray" stroke="gray" stroke-width="0.2" points="343.67,-1364.5 353.67,-1361 343.67,-1357.5 343.67,-1364.5"/>
</g>
<!-- PLN -->
<g id="node16" class="node">
<title>PLN</title>
<ellipse fill="none" stroke="black" cx="381.31" cy="-1282" rx="28.11" ry="18"/>
<text text-anchor="middle" x="381.31" y="-1276.58" font-family="Times New Roman,serif" font-size="14.00">PLN</text>
</g>
<!-- SDQ&#45;&gt;PLN -->
<g id="edge16" class="edge">
<title>SDQ&#45;&gt;PLN</title>
<path fill="none" stroke="gray" stroke-width="0.2" d="M303.95,-1316.65C320.01,-1309.36 335.57,-1302.3 348.42,-1296.47"/>
<polygon fill="gray" stroke="gray" stroke-width="0.2" points="349.74,-1299.72 357.4,-1292.4 346.84,-1293.34 349.74,-1299.72"/>
</g>
<!-- PVC -->
<g id="node17" class="node">
<title>PVC</title>
<ellipse fill="none" stroke="black" cx="381.31" cy="-1203" rx="29.11" ry="18"/>
<text text-anchor="middle" x="381.31" y="-1197.58" font-family="Times New Roman,serif" font-size="14.00">PVC</text>
</g>
<!-- SDQ&#45;&gt;PVC -->
<g id="edge17" class="edge">
<title>SDQ&#45;&gt;PVC</title>
<path fill="none" stroke="gray" stroke-width="0.2" d="M277.53,-1280.39C302.18,-1257.27 328.57,-1234.35 348.44,-1219.12"/>
<polygon fill="gray" stroke="gray" stroke-width="0.2" points="350.36,-1222.05 356.29,-1213.27 346.18,-1216.44 350.36,-1222.05"/>
</g>
<!-- RIA -->
<g id="node18" class="node">
<title>RIA</title>
<ellipse fill="none" stroke="black" cx="381.31" cy="-1124" rx="27" ry="18"/>
<text text-anchor="middle" x="381.31" y="-1118.58" font-family="Times New Roman,serif" font-size="14.00">RIA</text>
</g>
<!-- SDQ&#45;&gt;RIA -->
<g id="edge18" class="edge">
<title>SDQ&#45;&gt;RIA</title>
<path fill="none" stroke="gray" stroke-width="0.2" d="M261.09,-1268.05C301.42,-1208.34 349.21,-1142.5 349.21,-1142.5 349.21,-1142.5 349.79,-1141.75 350.79,-1140.52"/>
<polygon fill="gray" stroke="gray" stroke-width="0.2" points="353.35,-1142.91 357.19,-1133.04 348.03,-1138.37 353.35,-1142.91"/>
</g>
<!-- RIC -->
<g id="node19" class="node">
<title>RIC</title>
<ellipse fill="none" stroke="black" cx="381.31" cy="-1045" rx="27" ry="18"/>
<text text-anchor="middle" x="381.31" y="-1039.58" font-family="Times New Roman,serif" font-size="14.00">RIC</text>
</g>
<!-- SDQ&#45;&gt;RIC -->
<g id="edge19" class="edge">
<title>SDQ&#45;&gt;RIC</title>
<path fill="none" stroke="gray" stroke-width="5" d="M255.82,-1265.24C297.13,-1185.53 349.21,-1085 349.21,-1085 349.21,-1085 353.16,-1079.92 358.25,-1073.38"/>
<polygon fill="gray" stroke="gray" stroke-width="5" points="361.51,-1076.31 364.19,-1065.73 354.6,-1070.94 361.51,-1076.31"/>
</g>
<!-- RIM -->
<g id="node20" class="node">
<title>RIM</title>
<ellipse fill="none" stroke="black" cx="381.31" cy="-966" rx="28.11" ry="18"/>
<text text-anchor="middle" x="381.31" y="-960.58" font-family="Times New Roman,serif" font-size="14.00">RIM</text>
</g>
<!-- SDQ&#45;&gt;RIM -->
<g id="edge20" class="edge">
<title>SDQ&#45;&gt;RIM</title>
<path fill="none" stroke="gray" stroke-width="5" d="M246.42,-1260.89C288.72,-1155.59 349.21,-1005 349.21,-1005 349.21,-1005 352.86,-1000.42 357.67,-994.39"/>
<polygon fill="gray" stroke="gray" stroke-width="5" points="360.96,-997.29 363.77,-986.74 354.12,-991.83 360.96,-997.29"/>
</g>
<!-- RIP -->
<g id="node21" class="node">
<title>RIP</title>
<ellipse fill="none" stroke="black" cx="381.31" cy="-887" rx="27" ry="18"/>
<text text-anchor="middle" x="381.31" y="-881.58" font-family="Times New Roman,serif" font-size="14.00">RIP</text>
</g>
<!-- SDQ&#45;&gt;RIP -->
<g id="edge21" class="edge">
<title>SDQ&#45;&gt;RIP</title>
<path fill="none" stroke="gray" stroke-width="0.2" d="M239.92,-1258.46C282.2,-1129.86 349.21,-926 349.21,-926 349.21,-926 354.86,-918.91 361.35,-910.78"/>
<polygon fill="gray" stroke="gray" stroke-width="0.2" points="363.97,-913.1 367.47,-903.1 358.5,-908.74 363.97,-913.1"/>
</g>
<!-- RIS -->
<g id="node22" class="node">
<title>RIS</title>
<ellipse fill="none" stroke="black" cx="381.31" cy="-808" rx="27" ry="18"/>
<text text-anchor="middle" x="381.31" y="-802.58" font-family="Times New Roman,serif" font-size="14.00">RIS</text>
</g>
<!-- SDQ&#45;&gt;RIS -->
<g id="edge22" class="edge">
<title>SDQ&#45;&gt;RIS</title>
<path fill="none" stroke="red" stroke-width="5" d="M235.15,-1256.98C276.93,-1106.79 349.21,-847 349.21,-847 349.21,-847 352.86,-842.42 357.67,-836.39"/>
<polygon fill="red" stroke="red" stroke-width="5" points="360.96,-839.29 363.77,-828.74 354.12,-833.83 360.96,-839.29"/>
</g>
<!-- RIV -->
<g id="node23" class="node">
<title>RIV</title>
<ellipse fill="none" stroke="black" cx="381.31" cy="-729" rx="27" ry="18"/>
<text text-anchor="middle" x="381.31" y="-723.58" font-family="Times New Roman,serif" font-size="14.00">RIV</text>
</g>
<!-- SDQ&#45;&gt;RIV -->
<g id="edge23" class="edge">
<title>SDQ&#45;&gt;RIV</title>
<path fill="none" stroke="gray" stroke-width="nan" d="M228.71,-1255.23C268.98,-1079.19 349.21,-746.5 349.21,-746.5 349.21,-746.5 352.56,-742.3 357.06,-737.42"/>
<polygon fill="gray" stroke="gray" stroke-width="nan" points="nan,-nan nan,-nan nan,-nan nan,-nan"/>
</g>
<!-- RMF -->
<g id="node24" class="node">
<title>RMF</title>
<ellipse fill="none" stroke="black" cx="381.31" cy="-650" rx="30.61" ry="18"/>
<text text-anchor="middle" x="381.31" y="-644.58" font-family="Times New Roman,serif" font-size="14.00">RMF</text>
</g>
<!-- SDQ&#45;&gt;RMF -->
<g id="edge24" class="edge">
<title>SDQ&#45;&gt;RMF</title>
<path fill="none" stroke="gray" stroke-width="0.2" d="M228.71,-1255.26C268.98,-1066.02 349.21,-689 349.21,-689 349.21,-689 354.59,-682.25 360.88,-674.37"/>
<polygon fill="gray" stroke="gray" stroke-width="0.2" points="363.61,-676.55 367.11,-666.55 358.14,-672.19 363.61,-676.55"/>
</g>
<!-- RMG -->
<g id="node25" class="node">
<title>RMG</title>
<ellipse fill="none" stroke="black" cx="381.31" cy="-571" rx="32.1" ry="18"/>
<text text-anchor="middle" x="381.31" y="-565.58" font-family="Times New Roman,serif" font-size="14.00">RMG</text>
</g>
<!-- SDQ&#45;&gt;RMG -->
<g id="edge25" class="edge">
<title>SDQ&#45;&gt;RMG</title>
<path fill="none" stroke="gray" stroke-width="0.2" d="M224.32,-1254.48C259.72,-1059.29 335.68,-659.63 352.06,-591.65"/>
<polygon fill="gray" stroke="gray" stroke-width="0.2" points="355.41,-592.66 354.83,-582.08 348.69,-590.71 355.41,-592.66"/>
</g>
<!-- RMH -->
<g id="node26" class="node">
<title>RMH</title>
<ellipse fill="none" stroke="black" cx="381.31" cy="-492" rx="31.6" ry="18"/>
<text text-anchor="middle" x="381.31" y="-486.57" font-family="Times New Roman,serif" font-size="14.00">RMH</text>
</g>
<!-- SDQ&#45;&gt;RMH -->
<g id="edge26" class="edge">
<title>SDQ&#45;&gt;RMH</title>
<path fill="none" stroke="gray" stroke-width="5" d="M224.54,-1254.61C263.13,-1030.65 349.21,-531 349.21,-531 349.21,-531 352.76,-526.54 357.47,-520.64"/>
<polygon fill="gray" stroke="gray" stroke-width="5" points="360.6,-523.74 363.41,-513.19 353.76,-518.28 360.6,-523.74"/>
</g>
<!-- SAA -->
<g id="node27" class="node">
<title>SAA</title>
<ellipse fill="none" stroke="black" cx="381.31" cy="-413" rx="29.11" ry="18"/>
<text text-anchor="middle" x="381.31" y="-407.57" font-family="Times New Roman,serif" font-size="14.00">SAA</text>
</g>
<!-- SDQ&#45;&gt;SAA -->
<g id="edge27" class="edge">
<title>SDQ&#45;&gt;SAA</title>
<path fill="none" stroke="gray" stroke-width="0.2" d="M223.03,-1254.05C260.84,-1013.77 349.21,-452 349.21,-452 349.21,-452 354.86,-444.91 361.35,-436.78"/>
<polygon fill="gray" stroke="gray" stroke-width="0.2" points="363.97,-439.1 367.47,-429.1 358.5,-434.74 363.97,-439.1"/>
</g>
<!-- SIA -->
<g id="node28" class="node">
<title>SIA</title>
<ellipse fill="none" stroke="black" cx="381.31" cy="-334" rx="27" ry="18"/>
<text text-anchor="middle" x="381.31" y="-328.57" font-family="Times New Roman,serif" font-size="14.00">SIA</text>
</g>
<!-- SDQ&#45;&gt;SIA -->
<g id="edge28" class="edge">
<title>SDQ&#45;&gt;SIA</title>
<path fill="none" stroke="gray" stroke-width="nan" d="M221.72,-1253.86C258.74,-998.09 349.21,-373 349.21,-373 349.21,-373 359.05,-360.66 367.66,-349.86"/>
<polygon fill="gray" stroke="gray" stroke-width="nan" points="nan,-nan nan,-nan nan,-nan nan,-nan"/>
</g>
<!-- SIB -->
<g id="node29" class="node">
<title>SIB</title>
<ellipse fill="none" stroke="black" cx="381.31" cy="-255" rx="27" ry="18"/>
<text text-anchor="middle" x="381.31" y="-249.57" font-family="Times New Roman,serif" font-size="14.00">SIB</text>
</g>
<!-- SDQ&#45;&gt;SIB -->
<g id="edge29" class="edge">
<title>SDQ&#45;&gt;SIB</title>
<path fill="none" stroke="red" stroke-width="0.2" d="M220.58,-1253.81C256.84,-983.23 349.21,-294 349.21,-294 349.21,-294 354.86,-286.91 361.35,-278.78"/>
<polygon fill="red" stroke="red" stroke-width="0.2" points="363.97,-281.1 367.47,-271.1 358.5,-276.74 363.97,-281.1"/>
</g>
<!-- SMB -->
<g id="node30" class="node">
<title>SMB</title>
<ellipse fill="none" stroke="black" cx="381.31" cy="-176" rx="30.11" ry="18"/>
<text text-anchor="middle" x="381.31" y="-170.57" font-family="Times New Roman,serif" font-size="14.00">SMB</text>
</g>
<!-- SDQ&#45;&gt;SMB -->
<g id="edge30" class="edge">
<title>SDQ&#45;&gt;SMB</title>
<path fill="none" stroke="gray" stroke-width="0.2" d="M219.6,-1253.7C255.15,-968.81 349.21,-215 349.21,-215 349.21,-215 354.59,-208.25 360.88,-200.37"/>
<polygon fill="gray" stroke="gray" stroke-width="0.2" points="363.61,-202.55 367.11,-192.55 358.14,-198.19 363.61,-202.55"/>
</g>
<!-- SMD -->
<g id="node31" class="node">
<title>SMD</title>
<ellipse fill="none" stroke="black" cx="381.31" cy="-97" rx="30.61" ry="18"/>
<text text-anchor="middle" x="381.31" y="-91.58" font-family="Times New Roman,serif" font-size="14.00">SMD</text>
</g>
<!-- SDQ&#45;&gt;SMD -->
<g id="edge31" class="edge">
<title>SDQ&#45;&gt;SMD</title>
<path fill="none" stroke="gray" stroke-width="0.2" d="M218.78,-1253.36C253.67,-954.44 349.21,-136 349.21,-136 349.21,-136 354.59,-129.25 360.88,-121.37"/>
<polygon fill="gray" stroke="gray" stroke-width="0.2" points="363.61,-123.55 367.11,-113.55 358.14,-119.19 363.61,-123.55"/>
</g>
<!-- URY -->
<g id="node32" class="node">
<title>URY</title>
<ellipse fill="none" stroke="black" cx="381.31" cy="-18" rx="30.11" ry="18"/>
<text text-anchor="middle" x="381.31" y="-12.57" font-family="Times New Roman,serif" font-size="14.00">URY</text>
</g>
<!-- SDQ&#45;&gt;URY -->
<g id="edge32" class="edge">
<title>SDQ&#45;&gt;URY</title>
<path fill="none" stroke="gray" stroke-width="0.2" d="M218,-1253.46C252.24,-941.28 349.21,-57 349.21,-57 349.21,-57 354.59,-50.25 360.88,-42.37"/>
<polygon fill="gray" stroke="gray" stroke-width="0.2" points="363.61,-44.55 367.11,-34.55 358.14,-40.19 363.61,-44.55"/>
</g>
<!-- ADA&#45;&gt;SDQ -->
<g id="edge33" class="edge">
<title>ADA&#45;&gt;SDQ</title>
<path fill="none" stroke="gray" stroke-width="0.2" d="M355.81,-2378.21C351.95,-2373.94 349.21,-2370.5 349.21,-2370.5 349.21,-2370.5 258.62,-1744.62 221.65,-1478.31"/>
<polygon fill="gray" stroke="gray" stroke-width="0.2" points="225.13,-1477.94 220.29,-1468.52 218.2,-1478.91 225.13,-1477.94"/>
</g>
<!-- AIZ&#45;&gt;SDQ -->
<g id="edge34" class="edge">
<title>AIZ&#45;&gt;SDQ</title>
<path fill="none" stroke="gray" stroke-width="0.2" d="M357.06,-2142.58C352.56,-2137.7 349.21,-2133.5 349.21,-2133.5 349.21,-2133.5 265.48,-1693.77 226.16,-1477.64"/>
<polygon fill="gray" stroke="gray" stroke-width="0.2" points="229.61,-1477.03 224.38,-1467.81 222.72,-1478.28 229.61,-1477.03"/>
</g>
<!-- ALM&#45;&gt;SDQ -->
<g id="edge35" class="edge">
<title>ALM&#45;&gt;SDQ</title>
<path fill="none" stroke="gray" stroke-width="0.2" d="M355.5,-2061.87C351.81,-2057.76 349.21,-2054.5 349.21,-2054.5 349.21,-2054.5 268.46,-1675.01 228.32,-1477.26"/>
<polygon fill="gray" stroke="gray" stroke-width="0.2" points="231.8,-1476.81 226.38,-1467.7 224.94,-1478.2 231.8,-1476.81"/>
</g>
<!-- AVB&#45;&gt;SDQ -->
<g id="edge36" class="edge">
<title>AVB&#45;&gt;SDQ</title>
<path fill="none" stroke="gray" stroke-width="0.2" d="M355.81,-1904.21C351.95,-1899.94 349.21,-1896.5 349.21,-1896.5 349.21,-1896.5 276.01,-1633.37 234.35,-1475.77"/>
<polygon fill="gray" stroke="gray" stroke-width="0.2" points="237.79,-1475.08 231.85,-1466.31 231.02,-1476.87 237.79,-1475.08"/>
</g>
<!-- AVK&#45;&gt;SDQ -->
<g id="edge37" class="edge">
<title>AVK&#45;&gt;SDQ</title>
<path fill="none" stroke="gray" stroke-width="0.2" d="M355.81,-1667.21C351.95,-1662.94 349.21,-1659.5 349.21,-1659.5 349.21,-1659.5 295.13,-1554.75 253.49,-1469.08"/>
<polygon fill="gray" stroke="gray" stroke-width="0.2" points="256.76,-1467.8 249.25,-1460.33 250.46,-1470.86 256.76,-1467.8"/>
</g>
<!-- CEP&#45;&gt;SDQ -->
<g id="edge38" class="edge">
<title>CEP&#45;&gt;SDQ</title>
<path fill="none" stroke="gray" stroke-width="0.2" d="M356.42,-1588.89C352.25,-1584.31 349.21,-1580.5 349.21,-1580.5 349.21,-1580.5 305.64,-1520.18 266.61,-1462.51"/>
<polygon fill="gray" stroke="gray" stroke-width="0.2" points="269.55,-1460.61 261.05,-1454.28 263.74,-1464.53 269.55,-1460.61"/>
</g>
<!-- DVA&#45;&gt;SDQ -->
<g id="edge39" class="edge">
<title>DVA&#45;&gt;SDQ</title>
<path fill="none" stroke="gray" stroke-width="0.2" d="M356.12,-1508.62C337.49,-1495.12 310.63,-1472.24 284.78,-1448.36"/>
<polygon fill="gray" stroke="gray" stroke-width="0.2" points="287.45,-1446.07 277.75,-1441.82 282.68,-1451.19 287.45,-1446.07"/>
</g>
<!-- FLP&#45;&gt;SDQ -->
<g id="edge40" class="edge">
<title>FLP&#45;&gt;SDQ</title>
<path fill="none" stroke="gray" stroke-width="0.2" d="M353.8,-1439.95C340.64,-1436.2 323.83,-1429.9 306.3,-1422.38"/>
<polygon fill="gray" stroke="gray" stroke-width="0.2" points="307.93,-1419.27 297.36,-1418.47 305.12,-1425.68 307.93,-1419.27"/>
</g>
<!-- PVC&#45;&gt;SDQ -->
<g id="edge41" class="edge">
<title>PVC&#45;&gt;SDQ</title>
<path fill="none" stroke="gray" stroke-width="0.2" d="M370.45,-1219.92C356.34,-1237.73 328.94,-1265.3 300.51,-1291.5"/>
<polygon fill="gray" stroke="gray" stroke-width="0.2" points="298.5,-1288.59 293.48,-1297.92 303.23,-1293.76 298.5,-1288.59"/>
</g>
<!-- RIA&#45;&gt;SDQ -->
<g id="edge42" class="edge">
<title>RIA&#45;&gt;SDQ</title>
<path fill="none" stroke="gray" stroke-width="0.2" d="M375.72,-1142.05C367.07,-1162.53 349.21,-1185.5 349.21,-1185.5 349.21,-1185.5 317.77,-1228.81 284.38,-1272.6"/>
<polygon fill="gray" stroke="gray" stroke-width="0.2" points="281.61,-1270.46 278.31,-1280.53 287.17,-1274.71 281.61,-1270.46"/>
</g>
<!-- RIV&#45;&gt;SDQ -->
<g id="edge43" class="edge">
<title>RIV&#45;&gt;SDQ</title>
<path fill="none" stroke="gray" stroke-width="0.2" d="M375.72,-746.9C367.07,-767.1 349.21,-789.5 349.21,-789.5 349.21,-789.5 279.16,-1080.01 237.11,-1246.98"/>
<polygon fill="gray" stroke="gray" stroke-width="0.2" points="233.76,-1245.97 234.71,-1256.52 240.55,-1247.68 233.76,-1245.97"/>
</g>
<!-- RMG&#45;&gt;SDQ -->
<g id="edge44" class="edge">
<title>RMG&#45;&gt;SDQ</title>
<path fill="none" stroke="gray" stroke-width="0.2" d="M375.59,-589.21C366.89,-609.33 349.21,-631.5 349.21,-631.5 349.21,-631.5 271.55,-1039.37 230.69,-1245.34"/>
<polygon fill="gray" stroke="gray" stroke-width="0.2" points="227.29,-1244.51 228.77,-1255 234.15,-1245.87 227.29,-1244.51"/>
</g>
<!-- ADE -->
<g id="node33" class="node">
<title>ADE</title>
<ellipse fill="none" stroke="black" cx="30.61" cy="-1677" rx="29.11" ry="18"/>
<text text-anchor="middle" x="30.61" y="-1671.58" font-family="Times New Roman,serif" font-size="14.00">ADE</text>
</g>
<!-- ADE&#45;&gt;SDQ -->
<g id="edge45" class="edge">
<title>ADE&#45;&gt;SDQ</title>
<path fill="none" stroke="gray" stroke-width="0.2" d="M43.99,-1660.69C52.1,-1650 61.21,-1638 61.21,-1638 61.21,-1638 109.66,-1544.15 150.15,-1465.71"/>
<polygon fill="gray" stroke="gray" stroke-width="0.2" points="153.18,-1467.48 154.66,-1456.98 146.96,-1464.26 153.18,-1467.48"/>
</g>
<!-- AIM -->
<g id="node34" class="node">
<title>AIM</title>
<ellipse fill="none" stroke="black" cx="30.61" cy="-1598" rx="28.11" ry="18"/>
<text text-anchor="middle" x="30.61" y="-1592.58" font-family="Times New Roman,serif" font-size="14.00">AIM</text>
</g>
<!-- AIM&#45;&gt;SDQ -->
<g id="edge46" class="edge">
<title>AIM&#45;&gt;SDQ</title>
<path fill="none" stroke="gray" stroke-width="0.2" d="M43.99,-1581.69C52.1,-1571 61.21,-1559 61.21,-1559 61.21,-1559 98.65,-1507.16 135.22,-1456.53"/>
<polygon fill="gray" stroke="gray" stroke-width="0.2" points="137.88,-1458.82 140.89,-1448.67 132.2,-1454.73 137.88,-1458.82"/>
</g>
<!-- AQR -->
<g id="node35" class="node">
<title>AQR</title>
<ellipse fill="none" stroke="black" cx="30.61" cy="-1519" rx="30.61" ry="18"/>
<text text-anchor="middle" x="30.61" y="-1513.58" font-family="Times New Roman,serif" font-size="14.00">AQR</text>
</g>
<!-- AQR&#45;&gt;SDQ -->
<g id="edge47" class="edge">
<title>AQR&#45;&gt;SDQ</title>
<path fill="none" stroke="gray" stroke-width="0.2" d="M48.16,-1503.85C64.58,-1488.81 91.08,-1464.55 117.62,-1440.26"/>
<polygon fill="gray" stroke="gray" stroke-width="0.2" points="119.86,-1442.96 124.87,-1433.62 115.13,-1437.79 119.86,-1442.96"/>
</g>
<!-- BDU -->
<g id="node36" class="node">
<title>BDU</title>
<ellipse fill="none" stroke="black" cx="30.61" cy="-1440" rx="29.61" ry="18"/>
<text text-anchor="middle" x="30.61" y="-1434.58" font-family="Times New Roman,serif" font-size="14.00">BDU</text>
</g>
<!-- BDU&#45;&gt;SDQ -->
<g id="edge48" class="edge">
<title>BDU&#45;&gt;SDQ</title>
<path fill="none" stroke="gray" stroke-width="5" d="M54.88,-1429.35C65.13,-1424.66 77.98,-1418.78 91.81,-1412.44"/>
<polygon fill="gray" stroke="gray" stroke-width="5" points="93.58,-1416.45 100.85,-1408.31 89.94,-1408.49 93.58,-1416.45"/>
</g>
<!-- DVC -->
<g id="node37" class="node">
<title>DVC</title>
<ellipse fill="none" stroke="black" cx="30.61" cy="-1361" rx="30.11" ry="18"/>
<text text-anchor="middle" x="30.61" y="-1355.58" font-family="Times New Roman,serif" font-size="14.00">DVC</text>
</g>
<!-- DVC&#45;&gt;SDQ -->
<g id="edge49" class="edge">
<title>DVC&#45;&gt;SDQ</title>
<path fill="none" stroke="gray" stroke-width="0.2" d="M60.89,-1361C68.51,-1361 77.22,-1361 86.48,-1361"/>
<polygon fill="gray" stroke="gray" stroke-width="0.2" points="86.43,-1364.5 96.43,-1361 86.43,-1357.5 86.43,-1364.5"/>
</g>
<!-- PVN -->
<g id="node38" class="node">
<title>PVN</title>
<ellipse fill="none" stroke="black" cx="30.61" cy="-1282" rx="29.11" ry="18"/>
<text text-anchor="middle" x="30.61" y="-1276.58" font-family="Times New Roman,serif" font-size="14.00">PVN</text>
</g>
<!-- PVN&#45;&gt;SDQ -->
<g id="edge50" class="edge">
<title>PVN&#45;&gt;SDQ</title>
<path fill="none" stroke="gray" stroke-width="0.2" d="M54.53,-1292.49C66.21,-1297.84 81.35,-1304.77 97.5,-1312.16"/>
<polygon fill="gray" stroke="gray" stroke-width="0.2" points="95.73,-1315.2 106.28,-1316.18 98.64,-1308.83 95.73,-1315.2"/>
</g>
<!-- PVR -->
<g id="node39" class="node">
<title>PVR</title>
<ellipse fill="none" stroke="black" cx="30.61" cy="-1203" rx="29.11" ry="18"/>
<text text-anchor="middle" x="30.61" y="-1197.58" font-family="Times New Roman,serif" font-size="14.00">PVR</text>
</g>
<!-- PVR&#45;&gt;SDQ -->
<g id="edge51" class="edge">
<title>PVR&#45;&gt;SDQ</title>
<path fill="none" stroke="gray" stroke-width="0.2" d="M47.84,-1217.86C64.18,-1232.82 90.71,-1257.1 117.31,-1281.45"/>
<polygon fill="gray" stroke="gray" stroke-width="0.2" points="114.84,-1283.94 124.58,-1288.11 119.57,-1278.77 114.84,-1283.94"/>
</g>
<!-- PVT -->
<g id="node40" class="node">
<title>PVT</title>
<ellipse fill="none" stroke="black" cx="30.61" cy="-1124" rx="28.61" ry="18"/>
<text text-anchor="middle" x="30.61" y="-1118.58" font-family="Times New Roman,serif" font-size="14.00">PVT</text>
</g>
<!-- PVT&#45;&gt;SDQ -->
<g id="edge52" class="edge">
<title>PVT&#45;&gt;SDQ</title>
<path fill="none" stroke="gray" stroke-width="2" d="M43.65,-1140.27C51.84,-1151.34 61.21,-1164 61.21,-1164 61.21,-1164 97.3,-1213.71 133.21,-1263.2"/>
<polygon fill="gray" stroke="gray" stroke-width="2" points="130.38,-1265.25 139.09,-1271.28 136.04,-1261.13 130.38,-1265.25"/>
</g>
<!-- URB -->
<g id="node41" class="node">
<title>URB</title>
<ellipse fill="none" stroke="black" cx="30.61" cy="-1045" rx="29.61" ry="18"/>
<text text-anchor="middle" x="30.61" y="-1039.58" font-family="Times New Roman,serif" font-size="14.00">URB</text>
</g>
<!-- URB&#45;&gt;SDQ -->
<g id="edge53" class="edge">
<title>URB&#45;&gt;SDQ</title>
<path fill="none" stroke="gray" stroke-width="0.2" d="M43.65,-1061.27C51.84,-1072.34 61.21,-1085 61.21,-1085 61.21,-1085 109.5,-1178.21 149.96,-1256.29"/>
<polygon fill="gray" stroke="gray" stroke-width="0.2" points="146.75,-1257.71 154.46,-1264.97 152.96,-1254.49 146.75,-1257.71"/>
</g>
</g>
</svg>
