<?xml version="1.0" encoding="UTF-8" standalone="no"?>
<!DOCTYPE svg PUBLIC "-//W3C//DTD SVG 1.1//EN"
 "http://www.w3.org/Graphics/SVG/1.1/DTD/svg11.dtd">
<!-- Generated by graphviz version 11.0.0 (20240428.1522)
 -->
<!-- Pages: 1 -->
<svg width="423pt" height="1782pt"
 viewBox="0.00 0.00 423.41 1782.00" xmlns="http://www.w3.org/2000/svg" xmlns:xlink="http://www.w3.org/1999/xlink">
<g id="graph0" class="graph" transform="scale(1 1) rotate(0) translate(4 1778)">
<polygon fill="white" stroke="none" points="-4,4 -4,-1778 419.41,-1778 419.41,4 -4,4"/>
<!-- SIA -->
<g id="node1" class="node">
<title>SIA</title>
<ellipse fill="none" stroke="black" cx="208.2" cy="-887" rx="108" ry="108"/>
<text text-anchor="middle" x="208.2" y="-868" font-family="Times New Roman,serif" font-size="50.00">SIA</text>
</g>
<!-- ADE -->
<g id="node2" class="node">
<title>ADE</title>
<ellipse fill="none" stroke="black" cx="383.81" cy="-1243" rx="29.11" ry="18"/>
<text text-anchor="middle" x="383.81" y="-1237.58" font-family="Times New Roman,serif" font-size="14.00">ADE</text>
</g>
<!-- SIA&#45;&gt;ADE -->
<g id="edge1" class="edge">
<title>SIA&#45;&gt;ADE</title>
<path fill="none" stroke="gray" stroke-width="0.2" d="M259.82,-982.32C300.96,-1068.9 352.2,-1182.5 352.2,-1182.5 352.2,-1182.5 364.95,-1198.74 373.99,-1216.04"/>
<polygon fill="gray" stroke="gray" stroke-width="0.2" points="370.71,-1217.3 378.16,-1224.83 377.03,-1214.29 370.71,-1217.3"/>
</g>
<!-- ALM -->
<g id="node3" class="node">
<title>ALM</title>
<ellipse fill="none" stroke="black" cx="383.81" cy="-1164" rx="30.61" ry="18"/>
<text text-anchor="middle" x="383.81" y="-1158.58" font-family="Times New Roman,serif" font-size="14.00">ALM</text>
</g>
<!-- SIA&#45;&gt;ALM -->
<g id="edge2" class="edge">
<title>SIA&#45;&gt;ALM</title>
<path fill="none" stroke="gray" stroke-width="0.2" d="M272.55,-974.28C310.8,-1034.59 352.2,-1103.5 352.2,-1103.5 352.2,-1103.5 364.95,-1119.74 373.99,-1137.04"/>
<polygon fill="gray" stroke="gray" stroke-width="0.2" points="370.71,-1138.3 378.16,-1145.83 377.03,-1135.29 370.71,-1138.3"/>
</g>
<!-- ALN -->
<g id="node4" class="node">
<title>ALN</title>
<ellipse fill="none" stroke="black" cx="383.81" cy="-1085" rx="29.11" ry="18"/>
<text text-anchor="middle" x="383.81" y="-1079.58" font-family="Times New Roman,serif" font-size="14.00">ALN</text>
</g>
<!-- SIA&#45;&gt;ALN -->
<g id="edge3" class="edge">
<title>SIA&#45;&gt;ALN</title>
<path fill="none" stroke="gray" stroke-width="2" d="M287.63,-960.38C317.53,-994.01 348.76,-1031.73 366.97,-1057.16"/>
<polygon fill="gray" stroke="gray" stroke-width="2" points="363.88,-1058.85 372.44,-1065.1 369.65,-1054.88 363.88,-1058.85"/>
</g>
<!-- AVA -->
<g id="node5" class="node">
<title>AVA</title>
<ellipse fill="none" stroke="black" cx="383.81" cy="-1006" rx="30.11" ry="18"/>
<text text-anchor="middle" x="383.81" y="-1000.58" font-family="Times New Roman,serif" font-size="14.00">AVA</text>
</g>
<!-- SIA&#45;&gt;AVA -->
<g id="edge4" class="edge">
<title>SIA&#45;&gt;AVA</title>
<path fill="none" stroke="gray" stroke-width="0.2" d="M297.79,-947.72C318.52,-961.93 339.12,-976.06 354.85,-986.84"/>
<polygon fill="gray" stroke="gray" stroke-width="0.2" points="352.58,-989.52 362.81,-992.29 356.54,-983.75 352.58,-989.52"/>
</g>
<!-- AVF -->
<g id="node6" class="node">
<title>AVF</title>
<ellipse fill="none" stroke="black" cx="383.81" cy="-927" rx="29.11" ry="18"/>
<text text-anchor="middle" x="383.81" y="-921.58" font-family="Times New Roman,serif" font-size="14.00">AVF</text>
</g>
<!-- SIA&#45;&gt;AVF -->
<g id="edge5" class="edge">
<title>SIA&#45;&gt;AVF</title>
<path fill="none" stroke="gray" stroke-width="0.2" d="M316.18,-895.92C330.86,-899.88 344.73,-904.31 355.97,-908.77"/>
<polygon fill="gray" stroke="gray" stroke-width="0.2" points="354.28,-911.85 364.85,-912.57 357.03,-905.42 354.28,-911.85"/>
</g>
<!-- CEP -->
<g id="node7" class="node">
<title>CEP</title>
<ellipse fill="none" stroke="black" cx="383.81" cy="-848" rx="28.11" ry="18"/>
<text text-anchor="middle" x="383.81" y="-842.58" font-family="Times New Roman,serif" font-size="14.00">CEP</text>
</g>
<!-- SIA&#45;&gt;CEP -->
<g id="edge6" class="edge">
<title>SIA&#45;&gt;CEP</title>
<path fill="none" stroke="gray" stroke-width="0.2" d="M309.44,-848.53C322.77,-845.88 335.66,-843.85 346.83,-842.72"/>
<polygon fill="gray" stroke="gray" stroke-width="0.2" points="346.96,-846.22 356.66,-841.95 346.42,-839.24 346.96,-846.22"/>
</g>
<!-- IL1 -->
<g id="node8" class="node">
<title>IL1</title>
<ellipse fill="none" stroke="black" cx="383.81" cy="-769" rx="27" ry="18"/>
<text text-anchor="middle" x="383.81" y="-763.58" font-family="Times New Roman,serif" font-size="14.00">IL1</text>
</g>
<!-- SIA&#45;&gt;IL1 -->
<g id="edge7" class="edge">
<title>SIA&#45;&gt;IL1</title>
<path fill="none" stroke="gray" stroke-width="0.2" d="M298.04,-826.62C319.16,-812.26 340.11,-798.02 355.9,-787.29"/>
<polygon fill="gray" stroke="gray" stroke-width="0.2" points="357.56,-790.39 363.86,-781.88 353.63,-784.6 357.56,-790.39"/>
</g>
<!-- IL2 -->
<g id="node9" class="node">
<title>IL2</title>
<ellipse fill="none" stroke="black" cx="383.81" cy="-690" rx="27" ry="18"/>
<text text-anchor="middle" x="383.81" y="-684.58" font-family="Times New Roman,serif" font-size="14.00">IL2</text>
</g>
<!-- SIA&#45;&gt;IL2 -->
<g id="edge8" class="edge">
<title>SIA&#45;&gt;IL2</title>
<path fill="none" stroke="gray" stroke-width="0.2" d="M272.37,-799.74C300.99,-765.92 333.32,-730.39 355.57,-708.8"/>
<polygon fill="gray" stroke="gray" stroke-width="0.2" points="357.91,-711.4 362.77,-701.98 353.1,-706.31 357.91,-711.4"/>
</g>
<!-- RMD -->
<g id="node10" class="node">
<title>RMD</title>
<ellipse fill="none" stroke="black" cx="383.81" cy="-611" rx="31.6" ry="18"/>
<text text-anchor="middle" x="383.81" y="-605.58" font-family="Times New Roman,serif" font-size="14.00">RMD</text>
</g>
<!-- SIA&#45;&gt;RMD -->
<g id="edge9" class="edge">
<title>SIA&#45;&gt;RMD</title>
<path fill="none" stroke="gray" stroke-width="0.2" d="M257.62,-790.47C292.94,-728.02 336.7,-655.2 352.73,-630.28"/>
<polygon fill="gray" stroke="gray" stroke-width="0.2" points="355.51,-632.42 358.23,-622.18 349.72,-628.49 355.51,-632.42"/>
</g>
<!-- SMB -->
<g id="node11" class="node">
<title>SMB</title>
<ellipse fill="none" stroke="black" cx="383.81" cy="-532" rx="30.11" ry="18"/>
<text text-anchor="middle" x="383.81" y="-526.58" font-family="Times New Roman,serif" font-size="14.00">SMB</text>
</g>
<!-- SIA&#45;&gt;SMB -->
<g id="edge10" class="edge">
<title>SIA&#45;&gt;SMB</title>
<path fill="none" stroke="gray" stroke-width="0.2" d="M247.9,-786.39C290.25,-686.97 352.2,-550.5 352.2,-550.5 352.2,-550.5 352.38,-550.27 352.71,-549.85"/>
<polygon fill="gray" stroke="gray" stroke-width="0.2" points="355.14,-552.4 358.8,-542.46 349.74,-547.95 355.14,-552.4"/>
</g>
<!-- ADE&#45;&gt;SIA -->
<g id="edge11" class="edge">
<title>ADE&#45;&gt;SIA</title>
<path fill="none" stroke="gray" stroke-width="5" d="M358.69,-1233.21C354.9,-1228.94 352.2,-1225.5 352.2,-1225.5 352.2,-1225.5 295.99,-1100.88 254.05,-1002.61"/>
<polygon fill="gray" stroke="gray" stroke-width="5" points="258.09,-1000.94 250.15,-993.45 250.04,-1004.36 258.09,-1000.94"/>
</g>
<!-- ALM&#45;&gt;SIA -->
<g id="edge12" class="edge">
<title>ALM&#45;&gt;SIA</title>
<path fill="none" stroke="gray" stroke-width="0.2" d="M358.4,-1153.87C354.76,-1149.76 352.2,-1146.5 352.2,-1146.5 352.2,-1146.5 302.86,-1064.37 262.14,-992.24"/>
<polygon fill="gray" stroke="gray" stroke-width="0.2" points="265.32,-990.76 257.37,-983.76 259.22,-994.2 265.32,-990.76"/>
</g>
<!-- ALN&#45;&gt;SIA -->
<g id="edge13" class="edge">
<title>ALN&#45;&gt;SIA</title>
<path fill="none" stroke="gray" stroke-width="0.2" d="M362.53,-1072.69C341.89,-1053.52 308.73,-1017.38 278.52,-981.89"/>
<polygon fill="gray" stroke="gray" stroke-width="0.2" points="281.45,-979.93 272.32,-974.56 276.11,-984.46 281.45,-979.93"/>
</g>
<!-- AVF&#45;&gt;SIA -->
<g id="edge14" class="edge">
<title>AVF&#45;&gt;SIA</title>
<path fill="none" stroke="gray" stroke-width="0.2" d="M355.84,-932.85C345.39,-932.18 332.67,-930.43 319.15,-927.94"/>
<polygon fill="gray" stroke="gray" stroke-width="0.2" points="319.97,-924.53 309.48,-926.05 318.63,-931.4 319.97,-924.53"/>
</g>
<!-- CEP&#45;&gt;SIA -->
<g id="edge15" class="edge">
<title>CEP&#45;&gt;SIA</title>
<path fill="none" stroke="red" stroke-width="nan" d="M365.4,-862.08C353.04,-867.81 335.3,-873.64 316.18,-878.7"/>
<polygon fill="red" stroke="red" stroke-width="nan" points="nan,-nan nan,-nan nan,-nan nan,-nan"/>
</g>
<!-- IL2&#45;&gt;SIA -->
<g id="edge16" class="edge">
<title>IL2&#45;&gt;SIA</title>
<path fill="none" stroke="gray" stroke-width="0.2" d="M374.18,-707.31C359.13,-730.23 326.57,-770.04 294.32,-806.54"/>
<polygon fill="gray" stroke="gray" stroke-width="0.2" points="292.11,-803.76 288.08,-813.56 297.34,-808.41 292.11,-803.76"/>
</g>
<!-- RMD&#45;&gt;SIA -->
<g id="edge17" class="edge">
<title>RMD&#45;&gt;SIA</title>
<path fill="none" stroke="gray" stroke-width="2" d="M378.29,-629.05C369.78,-649.53 352.2,-672.5 352.2,-672.5 352.2,-672.5 315.93,-732.37 279.92,-789.05"/>
<polygon fill="gray" stroke="gray" stroke-width="2" points="277.02,-787.09 274.59,-797.4 282.92,-790.85 277.02,-787.09"/>
</g>
<!-- SMB&#45;&gt;SIA -->
<g id="edge18" class="edge">
<title>SMB&#45;&gt;SIA</title>
<path fill="none" stroke="gray" stroke-width="2" d="M378.29,-550.05C369.78,-570.53 352.2,-593.5 352.2,-593.5 352.2,-593.5 305.61,-696.13 265.62,-780.23"/>
<polygon fill="gray" stroke="gray" stroke-width="2" points="262.47,-778.7 261.33,-789.23 268.79,-781.71 262.47,-778.7"/>
</g>
<!-- AIB -->
<g id="node12" class="node">
<title>AIB</title>
<ellipse fill="none" stroke="black" cx="32.1" cy="-1756" rx="27" ry="18"/>
<text text-anchor="middle" x="32.1" y="-1750.58" font-family="Times New Roman,serif" font-size="14.00">AIB</text>
</g>
<!-- AIB&#45;&gt;SIA -->
<g id="edge19" class="edge">
<title>AIB&#45;&gt;SIA</title>
<path fill="none" stroke="gray" stroke-width="2" d="M45.75,-1740.14C54.36,-1729.34 64.2,-1717 64.2,-1717 64.2,-1717 147.12,-1235.72 186.68,-1006.13"/>
<polygon fill="gray" stroke="gray" stroke-width="2" points="190.11,-1006.82 188.36,-996.37 183.21,-1005.63 190.11,-1006.82"/>
</g>
<!-- AIM -->
<g id="node13" class="node">
<title>AIM</title>
<ellipse fill="none" stroke="black" cx="32.1" cy="-1677" rx="28.11" ry="18"/>
<text text-anchor="middle" x="32.1" y="-1671.58" font-family="Times New Roman,serif" font-size="14.00">AIM</text>
</g>
<!-- AIM&#45;&gt;SIA -->
<g id="edge20" class="edge">
<title>AIM&#45;&gt;SIA</title>
<path fill="none" stroke="gray" stroke-width="0.2" d="M45.75,-1661.14C54.36,-1650.34 64.2,-1638 64.2,-1638 64.2,-1638 145.02,-1213.6 185.14,-1002.88"/>
<polygon fill="gray" stroke="gray" stroke-width="0.2" points="188.53,-1003.78 186.96,-993.3 181.65,-1002.47 188.53,-1003.78"/>
</g>
<!-- AIZ -->
<g id="node14" class="node">
<title>AIZ</title>
<ellipse fill="none" stroke="black" cx="32.1" cy="-1598" rx="27" ry="18"/>
<text text-anchor="middle" x="32.1" y="-1592.58" font-family="Times New Roman,serif" font-size="14.00">AIZ</text>
</g>
<!-- AIZ&#45;&gt;SIA -->
<g id="edge21" class="edge">
<title>AIZ&#45;&gt;SIA</title>
<path fill="none" stroke="gray" stroke-width="0.2" d="M45.75,-1582.14C54.36,-1571.34 64.2,-1559 64.2,-1559 64.2,-1559 141.71,-1194.76 182.6,-1002.6"/>
<polygon fill="gray" stroke="gray" stroke-width="0.2" points="185.98,-1003.54 184.64,-993.04 179.14,-1002.09 185.98,-1003.54"/>
</g>
<!-- AVH -->
<g id="node15" class="node">
<title>AVH</title>
<ellipse fill="none" stroke="black" cx="32.1" cy="-1519" rx="30.11" ry="18"/>
<text text-anchor="middle" x="32.1" y="-1513.58" font-family="Times New Roman,serif" font-size="14.00">AVH</text>
</g>
<!-- AVH&#45;&gt;SIA -->
<g id="edge22" class="edge">
<title>AVH&#45;&gt;SIA</title>
<path fill="none" stroke="gray" stroke-width="0.2" d="M46.11,-1502.69C54.63,-1492 64.2,-1480 64.2,-1480 64.2,-1480 137.92,-1174.3 179.5,-1001.88"/>
<polygon fill="gray" stroke="gray" stroke-width="0.2" points="182.87,-1002.83 181.81,-992.29 176.07,-1001.19 182.87,-1002.83"/>
</g>
<!-- AVK -->
<g id="node16" class="node">
<title>AVK</title>
<ellipse fill="none" stroke="black" cx="32.1" cy="-1440" rx="30.11" ry="18"/>
<text text-anchor="middle" x="32.1" y="-1434.58" font-family="Times New Roman,serif" font-size="14.00">AVK</text>
</g>
<!-- AVK&#45;&gt;SIA -->
<g id="edge23" class="edge">
<title>AVK&#45;&gt;SIA</title>
<path fill="none" stroke="gray" stroke-width="5" d="M46.11,-1423.69C54.63,-1413 64.2,-1401 64.2,-1401 64.2,-1401 131.76,-1158.17 174.01,-1006.33"/>
<polygon fill="gray" stroke="gray" stroke-width="5" points="178.13,-1007.83 176.59,-997.02 169.7,-1005.49 178.13,-1007.83"/>
</g>
<!-- AWB -->
<g id="node17" class="node">
<title>AWB</title>
<ellipse fill="none" stroke="black" cx="32.1" cy="-1361" rx="32.1" ry="18"/>
<text text-anchor="middle" x="32.1" y="-1355.58" font-family="Times New Roman,serif" font-size="14.00">AWB</text>
</g>
<!-- AWB&#45;&gt;SIA -->
<g id="edge24" class="edge">
<title>AWB&#45;&gt;SIA</title>
<path fill="none" stroke="gray" stroke-width="0.2" d="M46.11,-1344.69C54.63,-1334 64.2,-1322 64.2,-1322 64.2,-1322 127.99,-1127.98 170.36,-999.09"/>
<polygon fill="gray" stroke="gray" stroke-width="0.2" points="173.6,-1000.42 173.4,-989.83 166.95,-998.23 173.6,-1000.42"/>
</g>
<!-- DVA -->
<g id="node18" class="node">
<title>DVA</title>
<ellipse fill="none" stroke="black" cx="32.1" cy="-1282" rx="30.11" ry="18"/>
<text text-anchor="middle" x="32.1" y="-1276.58" font-family="Times New Roman,serif" font-size="14.00">DVA</text>
</g>
<!-- DVA&#45;&gt;SIA -->
<g id="edge25" class="edge">
<title>DVA&#45;&gt;SIA</title>
<path fill="none" stroke="gray" stroke-width="0.2" d="M46.11,-1265.69C54.63,-1255 64.2,-1243 64.2,-1243 64.2,-1243 121.2,-1101.1 163.23,-996.48"/>
<polygon fill="gray" stroke="gray" stroke-width="0.2" points="166.4,-997.98 166.88,-987.39 159.9,-995.37 166.4,-997.98"/>
</g>
<!-- HSN -->
<g id="node19" class="node">
<title>HSN</title>
<ellipse fill="none" stroke="black" cx="32.1" cy="-1203" rx="29.11" ry="18"/>
<text text-anchor="middle" x="32.1" y="-1197.58" font-family="Times New Roman,serif" font-size="14.00">HSN</text>
</g>
<!-- HSN&#45;&gt;SIA -->
<g id="edge26" class="edge">
<title>HSN&#45;&gt;SIA</title>
<path fill="none" stroke="gray" stroke-width="0.2" d="M45.75,-1187.14C54.36,-1176.34 64.2,-1164 64.2,-1164 64.2,-1164 112.65,-1070.15 153.15,-991.71"/>
<polygon fill="gray" stroke="gray" stroke-width="0.2" points="156.18,-993.48 157.65,-982.98 149.96,-990.26 156.18,-993.48"/>
</g>
<!-- OLQ -->
<g id="node20" class="node">
<title>OLQ</title>
<ellipse fill="none" stroke="black" cx="32.1" cy="-1124" rx="30.11" ry="18"/>
<text text-anchor="middle" x="32.1" y="-1118.58" font-family="Times New Roman,serif" font-size="14.00">OLQ</text>
</g>
<!-- OLQ&#45;&gt;SIA -->
<g id="edge27" class="edge">
<title>OLQ&#45;&gt;SIA</title>
<path fill="none" stroke="gray" stroke-width="2" d="M46.11,-1107.69C54.63,-1097 64.2,-1085 64.2,-1085 64.2,-1085 100.57,-1034.64 136.63,-984.72"/>
<polygon fill="gray" stroke="gray" stroke-width="2" points="139.28,-987.03 142.29,-976.88 133.6,-982.93 139.28,-987.03"/>
</g>
<!-- PVC -->
<g id="node21" class="node">
<title>PVC</title>
<ellipse fill="none" stroke="black" cx="32.1" cy="-1045" rx="29.11" ry="18"/>
<text text-anchor="middle" x="32.1" y="-1039.58" font-family="Times New Roman,serif" font-size="14.00">PVC</text>
</g>
<!-- PVC&#45;&gt;SIA -->
<g id="edge28" class="edge">
<title>PVC&#45;&gt;SIA</title>
<path fill="none" stroke="gray" stroke-width="0.2" d="M49.48,-1030.14C66.04,-1015.11 92.97,-990.67 119.92,-966.21"/>
<polygon fill="gray" stroke="gray" stroke-width="0.2" points="122.24,-968.83 127.3,-959.52 117.54,-963.65 122.24,-968.83"/>
</g>
<!-- PVP -->
<g id="node22" class="node">
<title>PVP</title>
<ellipse fill="none" stroke="black" cx="32.1" cy="-966" rx="28.11" ry="18"/>
<text text-anchor="middle" x="32.1" y="-960.58" font-family="Times New Roman,serif" font-size="14.00">PVP</text>
</g>
<!-- PVP&#45;&gt;SIA -->
<g id="edge29" class="edge">
<title>PVP&#45;&gt;SIA</title>
<path fill="none" stroke="gray" stroke-width="0.2" d="M55.51,-955.83C67.63,-950.33 83.58,-943.09 100.59,-935.38"/>
<polygon fill="gray" stroke="gray" stroke-width="0.2" points="101.62,-938.75 109.28,-931.43 98.73,-932.38 101.62,-938.75"/>
</g>
<!-- RIA -->
<g id="node23" class="node">
<title>RIA</title>
<ellipse fill="none" stroke="black" cx="32.1" cy="-887" rx="27" ry="18"/>
<text text-anchor="middle" x="32.1" y="-881.58" font-family="Times New Roman,serif" font-size="14.00">RIA</text>
</g>
<!-- RIA&#45;&gt;SIA -->
<g id="edge30" class="edge">
<title>RIA&#45;&gt;SIA</title>
<path fill="none" stroke="black" stroke-width="5" d="M59.54,-887C66.71,-887 74.96,-887 83.82,-887"/>
<polygon fill="black" stroke="black" stroke-width="5" points="83.54,-891.38 93.54,-887 83.54,-882.63 83.54,-891.38"/>
</g>
<!-- RIC -->
<g id="node24" class="node">
<title>RIC</title>
<ellipse fill="none" stroke="black" cx="32.1" cy="-808" rx="27" ry="18"/>
<text text-anchor="middle" x="32.1" y="-802.58" font-family="Times New Roman,serif" font-size="14.00">RIC</text>
</g>
<!-- RIC&#45;&gt;SIA -->
<g id="edge31" class="edge">
<title>RIC&#45;&gt;SIA</title>
<path fill="none" stroke="gray" stroke-width="0.2" d="M55.15,-818.01C67.31,-823.52 83.39,-830.82 100.55,-838.6"/>
<polygon fill="gray" stroke="gray" stroke-width="0.2" points="98.77,-841.64 109.32,-842.59 101.66,-835.27 98.77,-841.64"/>
</g>
<!-- RIF -->
<g id="node25" class="node">
<title>RIF</title>
<ellipse fill="none" stroke="black" cx="32.1" cy="-729" rx="27" ry="18"/>
<text text-anchor="middle" x="32.1" y="-723.58" font-family="Times New Roman,serif" font-size="14.00">RIF</text>
</g>
<!-- RIF&#45;&gt;SIA -->
<g id="edge32" class="edge">
<title>RIF&#45;&gt;SIA</title>
<path fill="none" stroke="gray" stroke-width="2" d="M48.86,-743.3C65.03,-757.98 91.55,-782.04 118.3,-806.32"/>
<polygon fill="gray" stroke="gray" stroke-width="2" points="115.76,-808.74 125.51,-812.87 120.46,-803.55 115.76,-808.74"/>
</g>
<!-- RIM -->
<g id="node26" class="node">
<title>RIM</title>
<ellipse fill="none" stroke="black" cx="32.1" cy="-650" rx="28.11" ry="18"/>
<text text-anchor="middle" x="32.1" y="-644.58" font-family="Times New Roman,serif" font-size="14.00">RIM</text>
</g>
<!-- RIM&#45;&gt;SIA -->
<g id="edge33" class="edge">
<title>RIM&#45;&gt;SIA</title>
<path fill="none" stroke="gray" stroke-width="0.2" d="M45.39,-665.81C54.09,-676.99 64.2,-690 64.2,-690 64.2,-690 101.51,-741.39 138.01,-791.68"/>
<polygon fill="gray" stroke="gray" stroke-width="0.2" points="134.97,-793.45 143.68,-799.49 140.64,-789.34 134.97,-793.45"/>
</g>
<!-- RIP -->
<g id="node27" class="node">
<title>RIP</title>
<ellipse fill="none" stroke="black" cx="32.1" cy="-571" rx="27" ry="18"/>
<text text-anchor="middle" x="32.1" y="-565.58" font-family="Times New Roman,serif" font-size="14.00">RIP</text>
</g>
<!-- RIP&#45;&gt;SIA -->
<g id="edge34" class="edge">
<title>RIP&#45;&gt;SIA</title>
<path fill="none" stroke="gray" stroke-width="0.2" d="M45.39,-586.81C54.09,-597.99 64.2,-611 64.2,-611 64.2,-611 112.5,-704.21 152.95,-782.29"/>
<polygon fill="gray" stroke="gray" stroke-width="0.2" points="149.74,-783.71 157.45,-790.97 155.96,-780.49 149.74,-783.71"/>
</g>
<!-- RIV -->
<g id="node28" class="node">
<title>RIV</title>
<ellipse fill="none" stroke="black" cx="32.1" cy="-492" rx="27" ry="18"/>
<text text-anchor="middle" x="32.1" y="-486.57" font-family="Times New Roman,serif" font-size="14.00">RIV</text>
</g>
<!-- RIV&#45;&gt;SIA -->
<g id="edge35" class="edge">
<title>RIV&#45;&gt;SIA</title>
<path fill="none" stroke="red" stroke-width="5" d="M45.39,-507.81C54.09,-518.99 64.2,-532 64.2,-532 64.2,-532 119.16,-668.42 160.93,-772.12"/>
<polygon fill="red" stroke="red" stroke-width="5" points="156.86,-773.74 164.66,-781.38 164.98,-770.47 156.86,-773.74"/>
</g>
<!-- RMG -->
<g id="node29" class="node">
<title>RMG</title>
<ellipse fill="none" stroke="black" cx="32.1" cy="-413" rx="32.1" ry="18"/>
<text text-anchor="middle" x="32.1" y="-407.57" font-family="Times New Roman,serif" font-size="14.00">RMG</text>
</g>
<!-- RMG&#45;&gt;SIA -->
<g id="edge36" class="edge">
<title>RMG&#45;&gt;SIA</title>
<path fill="none" stroke="gray" stroke-width="2" d="M45.75,-429.27C54.36,-440.34 64.2,-453 64.2,-453 64.2,-453 127.01,-643.6 169.37,-772.18"/>
<polygon fill="gray" stroke="gray" stroke-width="2" points="166,-773.15 172.46,-781.55 172.65,-770.95 166,-773.15"/>
</g>
<!-- SDQ -->
<g id="node30" class="node">
<title>SDQ</title>
<ellipse fill="none" stroke="black" cx="32.1" cy="-334" rx="29.61" ry="18"/>
<text text-anchor="middle" x="32.1" y="-328.57" font-family="Times New Roman,serif" font-size="14.00">SDQ</text>
</g>
<!-- SDQ&#45;&gt;SIA -->
<g id="edge37" class="edge">
<title>SDQ&#45;&gt;SIA</title>
<path fill="none" stroke="gray" stroke-width="nan" d="M45.75,-350.27C54.36,-361.34 64.2,-374 64.2,-374 64.2,-374 136.38,-632.93 178.18,-782.88"/>
<polygon fill="gray" stroke="gray" stroke-width="nan" points="nan,-nan nan,-nan nan,-nan nan,-nan"/>
</g>
<!-- SIB -->
<g id="node31" class="node">
<title>SIB</title>
<ellipse fill="none" stroke="black" cx="32.1" cy="-255" rx="27" ry="18"/>
<text text-anchor="middle" x="32.1" y="-249.57" font-family="Times New Roman,serif" font-size="14.00">SIB</text>
</g>
<!-- SIB&#45;&gt;SIA -->
<g id="edge38" class="edge">
<title>SIB&#45;&gt;SIA</title>
<path fill="none" stroke="gray" stroke-width="0.2" d="M45.39,-270.81C54.09,-281.99 64.2,-295 64.2,-295 64.2,-295 137.82,-599.78 179.42,-771.97"/>
<polygon fill="gray" stroke="gray" stroke-width="0.2" points="175.98,-772.65 181.73,-781.55 182.79,-771.01 175.98,-772.65"/>
</g>
<!-- SMD -->
<g id="node32" class="node">
<title>SMD</title>
<ellipse fill="none" stroke="black" cx="32.1" cy="-176" rx="30.61" ry="18"/>
<text text-anchor="middle" x="32.1" y="-170.57" font-family="Times New Roman,serif" font-size="14.00">SMD</text>
</g>
<!-- SMD&#45;&gt;SIA -->
<g id="edge39" class="edge">
<title>SMD&#45;&gt;SIA</title>
<path fill="none" stroke="gray" stroke-width="0.2" d="M45.75,-192.27C54.36,-203.34 64.2,-216 64.2,-216 64.2,-216 141.71,-579.7 182.6,-771.57"/>
<polygon fill="gray" stroke="gray" stroke-width="0.2" points="179.13,-772.07 184.64,-781.12 185.98,-770.61 179.13,-772.07"/>
</g>
<!-- URB -->
<g id="node33" class="node">
<title>URB</title>
<ellipse fill="none" stroke="black" cx="32.1" cy="-97" rx="29.61" ry="18"/>
<text text-anchor="middle" x="32.1" y="-91.58" font-family="Times New Roman,serif" font-size="14.00">URB</text>
</g>
<!-- URB&#45;&gt;SIA -->
<g id="edge40" class="edge">
<title>URB&#45;&gt;SIA</title>
<path fill="none" stroke="red" stroke-width="5" d="M45.75,-113.27C54.36,-124.34 64.2,-137 64.2,-137 64.2,-137 143.4,-552.35 183.92,-764.86"/>
<polygon fill="red" stroke="red" stroke-width="5" points="179.6,-765.61 185.78,-774.61 188.2,-763.97 179.6,-765.61"/>
</g>
<!-- URX -->
<g id="node34" class="node">
<title>URX</title>
<ellipse fill="none" stroke="black" cx="32.1" cy="-18" rx="30.11" ry="18"/>
<text text-anchor="middle" x="32.1" y="-12.57" font-family="Times New Roman,serif" font-size="14.00">URX</text>
</g>
<!-- URX&#45;&gt;SIA -->
<g id="edge41" class="edge">
<title>URX&#45;&gt;SIA</title>
<path fill="none" stroke="gray" stroke-width="0.2" d="M45.75,-34.27C54.36,-45.34 64.2,-58 64.2,-58 64.2,-58 147.68,-541.92 187.07,-770.31"/>
<polygon fill="gray" stroke="gray" stroke-width="0.2" points="183.6,-770.76 188.75,-780.02 190.5,-769.57 183.6,-770.76"/>
</g>
</g>
</svg>
