<?xml version="1.0" encoding="UTF-8" standalone="no"?>
<!DOCTYPE svg PUBLIC "-//W3C//DTD SVG 1.1//EN"
 "http://www.w3.org/Graphics/SVG/1.1/DTD/svg11.dtd">
<!-- Generated by graphviz version 11.0.0 (20240428.1522)
 -->
<!-- Pages: 1 -->
<svg width="424pt" height="2651pt"
 viewBox="0.00 0.00 424.41 2651.00" xmlns="http://www.w3.org/2000/svg" xmlns:xlink="http://www.w3.org/1999/xlink">
<g id="graph0" class="graph" transform="scale(1 1) rotate(0) translate(4 2647)">
<polygon fill="white" stroke="none" points="-4,4 -4,-2647 420.41,-2647 420.41,4 -4,4"/>
<!-- SIB -->
<g id="node1" class="node">
<title>SIB</title>
<ellipse fill="none" stroke="black" cx="209.2" cy="-1321" rx="108" ry="108"/>
<text text-anchor="middle" x="209.2" y="-1302" font-family="Times New Roman,serif" font-size="50.00">SIB</text>
</g>
<!-- AVD -->
<g id="node2" class="node">
<title>AVD</title>
<ellipse fill="none" stroke="black" cx="384.81" cy="-1637" rx="30.11" ry="18"/>
<text text-anchor="middle" x="384.81" y="-1631.58" font-family="Times New Roman,serif" font-size="14.00">AVD</text>
</g>
<!-- SIB&#45;&gt;AVD -->
<g id="edge1" class="edge">
<title>SIB&#45;&gt;AVD</title>
<path fill="none" stroke="gray" stroke-width="0.2" d="M259.61,-1416.72C300.95,-1496.78 353.2,-1598 353.2,-1598 353.2,-1598 358.5,-1604.75 364.68,-1612.63"/>
<polygon fill="gray" stroke="gray" stroke-width="0.2" points="361.89,-1614.74 370.82,-1620.45 367.4,-1610.42 361.89,-1614.74"/>
</g>
<!-- PVP -->
<g id="node3" class="node">
<title>PVP</title>
<ellipse fill="none" stroke="black" cx="384.81" cy="-1558" rx="28.11" ry="18"/>
<text text-anchor="middle" x="384.81" y="-1552.58" font-family="Times New Roman,serif" font-size="14.00">PVP</text>
</g>
<!-- SIB&#45;&gt;PVP -->
<g id="edge2" class="edge">
<title>SIB&#45;&gt;PVP</title>
<path fill="none" stroke="gray" stroke-width="2" d="M281.91,-1401.46C317.59,-1448.19 353.2,-1497.5 353.2,-1497.5 353.2,-1497.5 364.8,-1512.29 373.72,-1528.67"/>
<polygon fill="gray" stroke="gray" stroke-width="2" points="370.44,-1529.92 377.96,-1537.38 376.73,-1526.86 370.44,-1529.92"/>
</g>
<!-- RIC -->
<g id="node4" class="node">
<title>RIC</title>
<ellipse fill="none" stroke="black" cx="384.81" cy="-1479" rx="27" ry="18"/>
<text text-anchor="middle" x="384.81" y="-1473.58" font-family="Times New Roman,serif" font-size="14.00">RIC</text>
</g>
<!-- SIB&#45;&gt;RIC -->
<g id="edge3" class="edge">
<title>SIB&#45;&gt;RIC</title>
<path fill="none" stroke="gray" stroke-width="2" d="M297.26,-1384.11C323.24,-1407.77 349.19,-1433.33 365.8,-1452.31"/>
<polygon fill="gray" stroke="gray" stroke-width="2" points="362.97,-1454.37 372.07,-1459.8 368.34,-1449.88 362.97,-1454.37"/>
</g>
<!-- RID -->
<g id="node5" class="node">
<title>RID</title>
<ellipse fill="none" stroke="black" cx="384.81" cy="-1400" rx="27" ry="18"/>
<text text-anchor="middle" x="384.81" y="-1394.58" font-family="Times New Roman,serif" font-size="14.00">RID</text>
</g>
<!-- SIB&#45;&gt;RID -->
<g id="edge4" class="edge">
<title>SIB&#45;&gt;RID</title>
<path fill="none" stroke="gray" stroke-width="0.2" d="M307.91,-1365.46C324.13,-1372.85 339.84,-1379.99 352.71,-1385.85"/>
<polygon fill="gray" stroke="gray" stroke-width="0.2" points="351.14,-1388.98 361.69,-1389.94 354.04,-1382.61 351.14,-1388.98"/>
</g>
<!-- RMD -->
<g id="node6" class="node">
<title>RMD</title>
<ellipse fill="none" stroke="black" cx="384.81" cy="-1321" rx="31.6" ry="18"/>
<text text-anchor="middle" x="384.81" y="-1315.58" font-family="Times New Roman,serif" font-size="14.00">RMD</text>
</g>
<!-- SIB&#45;&gt;RMD -->
<g id="edge5" class="edge">
<title>SIB&#45;&gt;RMD</title>
<path fill="none" stroke="gray" stroke-width="0.2" d="M316.19,-1305.23C328.34,-1305.69 339.97,-1306.59 350.05,-1307.92"/>
<polygon fill="gray" stroke="gray" stroke-width="0.2" points="349.23,-1311.34 359.65,-1309.43 350.32,-1304.42 349.23,-1311.34"/>
</g>
<!-- RMH -->
<g id="node7" class="node">
<title>RMH</title>
<ellipse fill="none" stroke="black" cx="384.81" cy="-1242" rx="31.6" ry="18"/>
<text text-anchor="middle" x="384.81" y="-1236.58" font-family="Times New Roman,serif" font-size="14.00">RMH</text>
</g>
<!-- SIB&#45;&gt;RMH -->
<g id="edge6" class="edge">
<title>SIB&#45;&gt;RMH</title>
<path fill="none" stroke="gray" stroke-width="0.2" d="M301.07,-1263.54C315.83,-1256.94 330.43,-1251.03 343.17,-1246.6"/>
<polygon fill="gray" stroke="gray" stroke-width="0.2" points="344.26,-1249.92 352.66,-1243.47 342.06,-1243.27 344.26,-1249.92"/>
</g>
<!-- SIA -->
<g id="node8" class="node">
<title>SIA</title>
<ellipse fill="none" stroke="black" cx="384.81" cy="-1163" rx="27" ry="18"/>
<text text-anchor="middle" x="384.81" y="-1157.58" font-family="Times New Roman,serif" font-size="14.00">SIA</text>
</g>
<!-- SIB&#45;&gt;SIA -->
<g id="edge7" class="edge">
<title>SIB&#45;&gt;SIA</title>
<path fill="none" stroke="gray" stroke-width="0.2" d="M289.89,-1248.47C315.78,-1224.91 342.53,-1200.57 360.82,-1183.92"/>
<polygon fill="gray" stroke="gray" stroke-width="0.2" points="362.85,-1186.8 367.89,-1177.48 358.14,-1181.62 362.85,-1186.8"/>
</g>
<!-- SMB -->
<g id="node9" class="node">
<title>SMB</title>
<ellipse fill="none" stroke="black" cx="384.81" cy="-1084" rx="30.11" ry="18"/>
<text text-anchor="middle" x="384.81" y="-1078.58" font-family="Times New Roman,serif" font-size="14.00">SMB</text>
</g>
<!-- SIB&#45;&gt;SMB -->
<g id="edge8" class="edge">
<title>SIB&#45;&gt;SMB</title>
<path fill="none" stroke="gray" stroke-width="0.2" d="M265.08,-1228.05C305.41,-1168.34 353.2,-1102.5 353.2,-1102.5 353.2,-1102.5 353.38,-1102.27 353.71,-1101.85"/>
<polygon fill="gray" stroke="gray" stroke-width="0.2" points="356.14,-1104.4 359.8,-1094.46 350.74,-1099.95 356.14,-1104.4"/>
</g>
<!-- PVP&#45;&gt;SIB -->
<g id="edge9" class="edge">
<title>PVP&#45;&gt;SIB</title>
<path fill="none" stroke="gray" stroke-width="2" d="M360.3,-1548.89C356.19,-1544.31 353.2,-1540.5 353.2,-1540.5 353.2,-1540.5 310.7,-1481.65 272.04,-1424.64"/>
<polygon fill="gray" stroke="gray" stroke-width="2" points="275.07,-1422.87 266.57,-1416.54 269.26,-1426.78 275.07,-1422.87"/>
</g>
<!-- RIC&#45;&gt;SIB -->
<g id="edge10" class="edge">
<title>RIC&#45;&gt;SIB</title>
<path fill="none" stroke="gray" stroke-width="2" d="M361.37,-1469.83C343.33,-1456.93 316.82,-1434.42 291.02,-1410.65"/>
<polygon fill="gray" stroke="gray" stroke-width="2" points="293.49,-1408.16 283.78,-1403.91 288.72,-1413.28 293.49,-1408.16"/>
</g>
<!-- RMD&#45;&gt;SIB -->
<g id="edge11" class="edge">
<title>RMD&#45;&gt;SIB</title>
<path fill="none" stroke="gray" stroke-width="5" d="M359.95,-1332.52C352,-1333.99 342.54,-1335.11 332.28,-1335.88"/>
<polygon fill="gray" stroke="gray" stroke-width="5" points="332.16,-1331.5 322.42,-1336.42 332.64,-1340.24 332.16,-1331.5"/>
</g>
<!-- RMH&#45;&gt;SIB -->
<g id="edge12" class="edge">
<title>RMH&#45;&gt;SIB</title>
<path fill="none" stroke="gray" stroke-width="0.2" d="M369.24,-1258.07C357.82,-1266.38 340.75,-1276.17 321.98,-1285.65"/>
<polygon fill="gray" stroke="gray" stroke-width="0.2" points="320.62,-1282.42 313.22,-1289.99 323.73,-1288.69 320.62,-1282.42"/>
</g>
<!-- SMB&#45;&gt;SIB -->
<g id="edge13" class="edge">
<title>SMB&#45;&gt;SIB</title>
<path fill="none" stroke="gray" stroke-width="0.2" d="M379.29,-1102.05C370.78,-1122.53 353.2,-1145.5 353.2,-1145.5 353.2,-1145.5 321.77,-1188.81 288.37,-1232.6"/>
<polygon fill="gray" stroke="gray" stroke-width="0.2" points="285.6,-1230.46 282.3,-1240.53 291.16,-1234.71 285.6,-1230.46"/>
</g>
<!-- ADA -->
<g id="node10" class="node">
<title>ADA</title>
<ellipse fill="none" stroke="black" cx="32.6" cy="-2625" rx="30.11" ry="18"/>
<text text-anchor="middle" x="32.6" y="-2619.57" font-family="Times New Roman,serif" font-size="14.00">ADA</text>
</g>
<!-- ADA&#45;&gt;SIB -->
<g id="edge14" class="edge">
<title>ADA&#45;&gt;SIB</title>
<path fill="none" stroke="blue" stroke-width="2" d="M46.82,-2608.69C55.48,-2598 65.2,-2586 65.2,-2586 65.2,-2586 158.87,-1757.39 194.59,-1441.42"/>
<polygon fill="blue" stroke="blue" stroke-width="2" points="198.06,-1441.92 195.7,-1431.59 191.1,-1441.13 198.06,-1441.92"/>
</g>
<!-- ADE -->
<g id="node11" class="node">
<title>ADE</title>
<ellipse fill="none" stroke="black" cx="32.6" cy="-2546" rx="29.11" ry="18"/>
<text text-anchor="middle" x="32.6" y="-2540.57" font-family="Times New Roman,serif" font-size="14.00">ADE</text>
</g>
<!-- ADE&#45;&gt;SIB -->
<g id="edge15" class="edge">
<title>ADE&#45;&gt;SIB</title>
<path fill="none" stroke="gray" stroke-width="0.2" d="M46.45,-2530.14C55.2,-2519.34 65.2,-2507 65.2,-2507 65.2,-2507 157.94,-1737.86 194.05,-1438.36"/>
<polygon fill="gray" stroke="gray" stroke-width="0.2" points="197.5,-1438.99 195.22,-1428.64 190.55,-1438.15 197.5,-1438.99"/>
</g>
<!-- ADF -->
<g id="node12" class="node">
<title>ADF</title>
<ellipse fill="none" stroke="black" cx="32.6" cy="-2467" rx="29.11" ry="18"/>
<text text-anchor="middle" x="32.6" y="-2461.57" font-family="Times New Roman,serif" font-size="14.00">ADF</text>
</g>
<!-- ADF&#45;&gt;SIB -->
<g id="edge16" class="edge">
<title>ADF&#45;&gt;SIB</title>
<path fill="none" stroke="gray" stroke-width="0.2" d="M46.45,-2451.14C55.2,-2440.34 65.2,-2428 65.2,-2428 65.2,-2428 156.24,-1723.21 193.04,-1438.36"/>
<polygon fill="gray" stroke="gray" stroke-width="0.2" points="196.48,-1439.07 194.29,-1428.7 189.54,-1438.17 196.48,-1439.07"/>
</g>
<!-- ADL -->
<g id="node13" class="node">
<title>ADL</title>
<ellipse fill="none" stroke="black" cx="32.6" cy="-2388" rx="29.11" ry="18"/>
<text text-anchor="middle" x="32.6" y="-2382.57" font-family="Times New Roman,serif" font-size="14.00">ADL</text>
</g>
<!-- ADL&#45;&gt;SIB -->
<g id="edge17" class="edge">
<title>ADL&#45;&gt;SIB</title>
<path fill="none" stroke="gray" stroke-width="0.2" d="M46.45,-2372.14C55.2,-2361.34 65.2,-2349 65.2,-2349 65.2,-2349 154.46,-1707.36 191.94,-1437.92"/>
<polygon fill="gray" stroke="gray" stroke-width="0.2" points="195.35,-1438.79 193.26,-1428.4 188.42,-1437.83 195.35,-1438.79"/>
</g>
<!-- AFD -->
<g id="node14" class="node">
<title>AFD</title>
<ellipse fill="none" stroke="black" cx="32.6" cy="-2309" rx="29.11" ry="18"/>
<text text-anchor="middle" x="32.6" y="-2303.57" font-family="Times New Roman,serif" font-size="14.00">AFD</text>
</g>
<!-- AFD&#45;&gt;SIB -->
<g id="edge18" class="edge">
<title>AFD&#45;&gt;SIB</title>
<path fill="none" stroke="blue" stroke-width="2" d="M46.45,-2293.14C55.2,-2282.34 65.2,-2270 65.2,-2270 65.2,-2270 151.73,-1695.76 190.17,-1440.66"/>
<polygon fill="blue" stroke="blue" stroke-width="2" points="193.6,-1441.42 191.63,-1431.01 186.67,-1440.38 193.6,-1441.42"/>
</g>
<!-- AIB -->
<g id="node15" class="node">
<title>AIB</title>
<ellipse fill="none" stroke="black" cx="32.6" cy="-2230" rx="27" ry="18"/>
<text text-anchor="middle" x="32.6" y="-2224.57" font-family="Times New Roman,serif" font-size="14.00">AIB</text>
</g>
<!-- AIB&#45;&gt;SIB -->
<g id="edge19" class="edge">
<title>AIB&#45;&gt;SIB</title>
<path fill="none" stroke="gray" stroke-width="0.2" d="M46.45,-2214.14C55.2,-2203.34 65.2,-2191 65.2,-2191 65.2,-2191 150.03,-1674.93 189.02,-1437.73"/>
<polygon fill="gray" stroke="gray" stroke-width="0.2" points="192.45,-1438.41 190.62,-1427.98 185.54,-1437.28 192.45,-1438.41"/>
</g>
<!-- AIM -->
<g id="node16" class="node">
<title>AIM</title>
<ellipse fill="none" stroke="black" cx="32.6" cy="-2151" rx="28.11" ry="18"/>
<text text-anchor="middle" x="32.6" y="-2145.57" font-family="Times New Roman,serif" font-size="14.00">AIM</text>
</g>
<!-- AIM&#45;&gt;SIB -->
<g id="edge20" class="edge">
<title>AIM&#45;&gt;SIB</title>
<path fill="none" stroke="gray" stroke-width="0.2" d="M46.45,-2135.14C55.2,-2124.34 65.2,-2112 65.2,-2112 65.2,-2112 147.44,-1657.08 187.19,-1437.23"/>
<polygon fill="gray" stroke="gray" stroke-width="0.2" points="190.6,-1438.03 188.94,-1427.56 183.71,-1436.78 190.6,-1438.03"/>
</g>
<!-- ALM -->
<g id="node17" class="node">
<title>ALM</title>
<ellipse fill="none" stroke="black" cx="32.6" cy="-2072" rx="30.61" ry="18"/>
<text text-anchor="middle" x="32.6" y="-2066.57" font-family="Times New Roman,serif" font-size="14.00">ALM</text>
</g>
<!-- ALM&#45;&gt;SIB -->
<g id="edge21" class="edge">
<title>ALM&#45;&gt;SIB</title>
<path fill="none" stroke="gray" stroke-width="0.2" d="M46.82,-2055.69C55.48,-2045 65.2,-2033 65.2,-2033 65.2,-2033 144.42,-1638.59 184.93,-1436.87"/>
<polygon fill="gray" stroke="gray" stroke-width="0.2" points="188.35,-1437.61 186.89,-1427.12 181.49,-1436.24 188.35,-1437.61"/>
</g>
<!-- ALN -->
<g id="node18" class="node">
<title>ALN</title>
<ellipse fill="none" stroke="black" cx="32.6" cy="-1993" rx="29.11" ry="18"/>
<text text-anchor="middle" x="32.6" y="-1987.58" font-family="Times New Roman,serif" font-size="14.00">ALN</text>
</g>
<!-- ALN&#45;&gt;SIB -->
<g id="edge22" class="edge">
<title>ALN&#45;&gt;SIB</title>
<path fill="none" stroke="gray" stroke-width="0.2" d="M46.45,-1977.14C55.2,-1966.34 65.2,-1954 65.2,-1954 65.2,-1954 140.85,-1619.13 182.11,-1436.52"/>
<polygon fill="gray" stroke="gray" stroke-width="0.2" points="185.49,-1437.41 184.28,-1426.89 178.66,-1435.87 185.49,-1437.41"/>
</g>
<!-- ASK -->
<g id="node19" class="node">
<title>ASK</title>
<ellipse fill="none" stroke="black" cx="32.6" cy="-1914" rx="29.11" ry="18"/>
<text text-anchor="middle" x="32.6" y="-1908.58" font-family="Times New Roman,serif" font-size="14.00">ASK</text>
</g>
<!-- ASK&#45;&gt;SIB -->
<g id="edge23" class="edge">
<title>ASK&#45;&gt;SIB</title>
<path fill="none" stroke="gray" stroke-width="0.2" d="M46.45,-1898.14C55.2,-1887.34 65.2,-1875 65.2,-1875 65.2,-1875 136.9,-1597.25 178.76,-1435.08"/>
<polygon fill="gray" stroke="gray" stroke-width="0.2" points="182.03,-1436.38 181.15,-1425.82 175.26,-1434.63 182.03,-1436.38"/>
</g>
<!-- AVJ -->
<g id="node20" class="node">
<title>AVJ</title>
<ellipse fill="none" stroke="black" cx="32.6" cy="-1835" rx="27.11" ry="18"/>
<text text-anchor="middle" x="32.6" y="-1829.58" font-family="Times New Roman,serif" font-size="14.00">AVJ</text>
</g>
<!-- AVJ&#45;&gt;SIB -->
<g id="edge24" class="edge">
<title>AVJ&#45;&gt;SIB</title>
<path fill="none" stroke="gray" stroke-width="0.2" d="M46.45,-1819.14C55.2,-1808.34 65.2,-1796 65.2,-1796 65.2,-1796 131.92,-1574.39 174.21,-1433.91"/>
<polygon fill="gray" stroke="gray" stroke-width="0.2" points="177.47,-1435.24 177,-1424.65 170.76,-1433.22 177.47,-1435.24"/>
</g>
<!-- AVK -->
<g id="node21" class="node">
<title>AVK</title>
<ellipse fill="none" stroke="black" cx="32.6" cy="-1756" rx="30.11" ry="18"/>
<text text-anchor="middle" x="32.6" y="-1750.58" font-family="Times New Roman,serif" font-size="14.00">AVK</text>
</g>
<!-- AVK&#45;&gt;SIB -->
<g id="edge25" class="edge">
<title>AVK&#45;&gt;SIB</title>
<path fill="none" stroke="gray" stroke-width="0.2" d="M46.82,-1739.69C55.48,-1729 65.2,-1717 65.2,-1717 65.2,-1717 125.77,-1549.26 168.07,-1432.12"/>
<polygon fill="gray" stroke="gray" stroke-width="0.2" points="171.26,-1433.6 171.37,-1423.01 164.68,-1431.22 171.26,-1433.6"/>
</g>
<!-- AVM -->
<g id="node22" class="node">
<title>AVM</title>
<ellipse fill="none" stroke="black" cx="32.6" cy="-1677" rx="31.6" ry="18"/>
<text text-anchor="middle" x="32.6" y="-1671.58" font-family="Times New Roman,serif" font-size="14.00">AVM</text>
</g>
<!-- AVM&#45;&gt;SIB -->
<g id="edge26" class="edge">
<title>AVM&#45;&gt;SIB</title>
<path fill="none" stroke="gray" stroke-width="0.2" d="M46.82,-1660.69C55.48,-1650 65.2,-1638 65.2,-1638 65.2,-1638 118.23,-1520.44 159.71,-1428.51"/>
<polygon fill="gray" stroke="gray" stroke-width="0.2" points="162.89,-1429.96 163.81,-1419.41 156.51,-1427.08 162.89,-1429.96"/>
</g>
<!-- AWB -->
<g id="node23" class="node">
<title>AWB</title>
<ellipse fill="none" stroke="black" cx="32.6" cy="-1598" rx="32.1" ry="18"/>
<text text-anchor="middle" x="32.6" y="-1592.58" font-family="Times New Roman,serif" font-size="14.00">AWB</text>
</g>
<!-- AWB&#45;&gt;SIB -->
<g id="edge27" class="edge">
<title>AWB&#45;&gt;SIB</title>
<path fill="none" stroke="gray" stroke-width="0.2" d="M46.82,-1581.69C55.48,-1571 65.2,-1559 65.2,-1559 65.2,-1559 108.54,-1486.88 147.49,-1422.04"/>
<polygon fill="gray" stroke="gray" stroke-width="0.2" points="150.4,-1423.99 152.55,-1413.62 144.4,-1420.39 150.4,-1423.99"/>
</g>
<!-- AWC -->
<g id="node24" class="node">
<title>AWC</title>
<ellipse fill="none" stroke="black" cx="32.6" cy="-1519" rx="32.6" ry="18"/>
<text text-anchor="middle" x="32.6" y="-1513.58" font-family="Times New Roman,serif" font-size="14.00">AWC</text>
</g>
<!-- AWC&#45;&gt;SIB -->
<g id="edge28" class="edge">
<title>AWC&#45;&gt;SIB</title>
<path fill="none" stroke="gray" stroke-width="0.2" d="M47.89,-1502.8C66.14,-1482.1 99.12,-1444.7 130.44,-1409.19"/>
<polygon fill="gray" stroke="gray" stroke-width="0.2" points="132.9,-1411.68 136.89,-1401.87 127.65,-1407.05 132.9,-1411.68"/>
</g>
<!-- BDU -->
<g id="node25" class="node">
<title>BDU</title>
<ellipse fill="none" stroke="black" cx="32.6" cy="-1440" rx="29.61" ry="18"/>
<text text-anchor="middle" x="32.6" y="-1434.58" font-family="Times New Roman,serif" font-size="14.00">BDU</text>
</g>
<!-- BDU&#45;&gt;SIB -->
<g id="edge29" class="edge">
<title>BDU&#45;&gt;SIB</title>
<path fill="none" stroke="gray" stroke-width="0.2" d="M53.29,-1426.58C67.92,-1416.61 89.08,-1402.19 111.08,-1387.19"/>
<polygon fill="gray" stroke="gray" stroke-width="0.2" points="113,-1390.12 119.29,-1381.6 109.06,-1384.34 113,-1390.12"/>
</g>
<!-- CEP -->
<g id="node26" class="node">
<title>CEP</title>
<ellipse fill="none" stroke="black" cx="32.6" cy="-1361" rx="28.11" ry="18"/>
<text text-anchor="middle" x="32.6" y="-1355.58" font-family="Times New Roman,serif" font-size="14.00">CEP</text>
</g>
<!-- CEP&#45;&gt;SIB -->
<g id="edge30" class="edge">
<title>CEP&#45;&gt;SIB</title>
<path fill="none" stroke="gray" stroke-width="0.2" d="M59.36,-1355.1C69.12,-1352.86 80.95,-1350.15 93.64,-1347.25"/>
<polygon fill="gray" stroke="gray" stroke-width="0.2" points="94.23,-1350.7 103.2,-1345.06 92.67,-1343.88 94.23,-1350.7"/>
</g>
<!-- DVA -->
<g id="node27" class="node">
<title>DVA</title>
<ellipse fill="none" stroke="black" cx="32.6" cy="-1282" rx="30.11" ry="18"/>
<text text-anchor="middle" x="32.6" y="-1276.58" font-family="Times New Roman,serif" font-size="14.00">DVA</text>
</g>
<!-- DVA&#45;&gt;SIB -->
<g id="edge31" class="edge">
<title>DVA&#45;&gt;SIB</title>
<path fill="none" stroke="gray" stroke-width="5" d="M61.27,-1288.18C69.09,-1289.93 78.14,-1291.95 87.83,-1294.11"/>
<polygon fill="gray" stroke="gray" stroke-width="5" points="86.69,-1298.34 97.4,-1296.25 88.6,-1289.8 86.69,-1298.34"/>
</g>
<!-- HSN -->
<g id="node28" class="node">
<title>HSN</title>
<ellipse fill="none" stroke="black" cx="32.6" cy="-1203" rx="29.11" ry="18"/>
<text text-anchor="middle" x="32.6" y="-1197.58" font-family="Times New Roman,serif" font-size="14.00">HSN</text>
</g>
<!-- HSN&#45;&gt;SIB -->
<g id="edge32" class="edge">
<title>HSN&#45;&gt;SIB</title>
<path fill="none" stroke="gray" stroke-width="0.2" d="M52.95,-1216.08C67.52,-1225.92 88.69,-1240.23 110.73,-1255.13"/>
<polygon fill="gray" stroke="gray" stroke-width="0.2" points="108.72,-1257.99 118.96,-1260.69 112.64,-1252.19 108.72,-1257.99"/>
</g>
<!-- IL2 -->
<g id="node29" class="node">
<title>IL2</title>
<ellipse fill="none" stroke="black" cx="32.6" cy="-1124" rx="27" ry="18"/>
<text text-anchor="middle" x="32.6" y="-1118.58" font-family="Times New Roman,serif" font-size="14.00">IL2</text>
</g>
<!-- IL2&#45;&gt;SIB -->
<g id="edge33" class="edge">
<title>IL2&#45;&gt;SIB</title>
<path fill="none" stroke="gray" stroke-width="0.2" d="M47.3,-1139.46C65.39,-1159.87 98.65,-1197.4 130.26,-1233.06"/>
<polygon fill="gray" stroke="gray" stroke-width="0.2" points="127.52,-1235.24 136.77,-1240.41 132.76,-1230.6 127.52,-1235.24"/>
</g>
<!-- OLQ -->
<g id="node30" class="node">
<title>OLQ</title>
<ellipse fill="none" stroke="black" cx="32.6" cy="-1045" rx="30.11" ry="18"/>
<text text-anchor="middle" x="32.6" y="-1039.58" font-family="Times New Roman,serif" font-size="14.00">OLQ</text>
</g>
<!-- OLQ&#45;&gt;SIB -->
<g id="edge34" class="edge">
<title>OLQ&#45;&gt;SIB</title>
<path fill="none" stroke="gray" stroke-width="5" d="M46.45,-1061.27C55.2,-1072.34 65.2,-1085 65.2,-1085 65.2,-1085 105.99,-1152.31 144,-1215.04"/>
<polygon fill="gray" stroke="gray" stroke-width="5" points="140.14,-1217.12 149.07,-1223.41 147.63,-1212.59 140.14,-1217.12"/>
</g>
<!-- PVC -->
<g id="node31" class="node">
<title>PVC</title>
<ellipse fill="none" stroke="black" cx="32.6" cy="-966" rx="29.11" ry="18"/>
<text text-anchor="middle" x="32.6" y="-960.58" font-family="Times New Roman,serif" font-size="14.00">PVC</text>
</g>
<!-- PVC&#45;&gt;SIB -->
<g id="edge35" class="edge">
<title>PVC&#45;&gt;SIB</title>
<path fill="none" stroke="gray" stroke-width="5" d="M46.45,-982.27C55.2,-993.34 65.2,-1006 65.2,-1006 65.2,-1006 115.9,-1117.68 156.92,-1208.04"/>
<polygon fill="gray" stroke="gray" stroke-width="5" points="152.85,-1209.65 160.97,-1216.95 160.82,-1206.03 152.85,-1209.65"/>
</g>
<!-- PVD -->
<g id="node32" class="node">
<title>PVD</title>
<ellipse fill="none" stroke="black" cx="32.6" cy="-887" rx="29.11" ry="18"/>
<text text-anchor="middle" x="32.6" y="-881.58" font-family="Times New Roman,serif" font-size="14.00">PVD</text>
</g>
<!-- PVD&#45;&gt;SIB -->
<g id="edge36" class="edge">
<title>PVD&#45;&gt;SIB</title>
<path fill="none" stroke="gray" stroke-width="0.2" d="M46.45,-903.27C55.2,-914.34 65.2,-927 65.2,-927 65.2,-927 125.69,-1093.65 167.98,-1210.18"/>
<polygon fill="gray" stroke="gray" stroke-width="0.2" points="164.57,-1211.04 171.27,-1219.25 171.15,-1208.66 164.57,-1211.04"/>
</g>
<!-- PVN -->
<g id="node33" class="node">
<title>PVN</title>
<ellipse fill="none" stroke="black" cx="32.6" cy="-808" rx="29.11" ry="18"/>
<text text-anchor="middle" x="32.6" y="-802.58" font-family="Times New Roman,serif" font-size="14.00">PVN</text>
</g>
<!-- PVN&#45;&gt;SIB -->
<g id="edge37" class="edge">
<title>PVN&#45;&gt;SIB</title>
<path fill="none" stroke="gray" stroke-width="0.2" d="M46.45,-824.27C55.2,-835.34 65.2,-848 65.2,-848 65.2,-848 131.73,-1068.06 174.03,-1207.98"/>
<polygon fill="gray" stroke="gray" stroke-width="0.2" points="170.58,-1208.64 176.82,-1217.2 177.28,-1206.62 170.58,-1208.64"/>
</g>
<!-- RIA -->
<g id="node34" class="node">
<title>RIA</title>
<ellipse fill="none" stroke="black" cx="32.6" cy="-729" rx="27" ry="18"/>
<text text-anchor="middle" x="32.6" y="-723.58" font-family="Times New Roman,serif" font-size="14.00">RIA</text>
</g>
<!-- RIA&#45;&gt;SIB -->
<g id="edge38" class="edge">
<title>RIA&#45;&gt;SIB</title>
<path fill="none" stroke="gray" stroke-width="0.2" d="M46.09,-744.81C54.92,-755.99 65.2,-769 65.2,-769 65.2,-769 136.8,-1045.37 178.67,-1207"/>
<polygon fill="gray" stroke="gray" stroke-width="0.2" points="175.16,-1207.43 181.06,-1216.23 181.94,-1205.67 175.16,-1207.43"/>
</g>
<!-- RIM -->
<g id="node35" class="node">
<title>RIM</title>
<ellipse fill="none" stroke="black" cx="32.6" cy="-650" rx="28.11" ry="18"/>
<text text-anchor="middle" x="32.6" y="-644.58" font-family="Times New Roman,serif" font-size="14.00">RIM</text>
</g>
<!-- RIM&#45;&gt;SIB -->
<g id="edge39" class="edge">
<title>RIM&#45;&gt;SIB</title>
<path fill="none" stroke="gray" stroke-width="0.2" d="M46.09,-665.81C54.92,-676.99 65.2,-690 65.2,-690 65.2,-690 140.85,-1023.81 182.11,-1205.85"/>
<polygon fill="gray" stroke="gray" stroke-width="0.2" points="178.66,-1206.47 184.28,-1215.44 185.48,-1204.92 178.66,-1206.47"/>
</g>
<!-- RIP -->
<g id="node36" class="node">
<title>RIP</title>
<ellipse fill="none" stroke="black" cx="32.6" cy="-571" rx="27" ry="18"/>
<text text-anchor="middle" x="32.6" y="-565.58" font-family="Times New Roman,serif" font-size="14.00">RIP</text>
</g>
<!-- RIP&#45;&gt;SIB -->
<g id="edge40" class="edge">
<title>RIP&#45;&gt;SIB</title>
<path fill="none" stroke="gray" stroke-width="0.2" d="M46.09,-586.81C54.92,-597.99 65.2,-611 65.2,-611 65.2,-611 144.31,-1003.79 184.85,-1205.06"/>
<polygon fill="gray" stroke="gray" stroke-width="0.2" points="181.41,-1205.68 186.81,-1214.79 188.27,-1204.3 181.41,-1205.68"/>
</g>
<!-- RMF -->
<g id="node37" class="node">
<title>RMF</title>
<ellipse fill="none" stroke="black" cx="32.6" cy="-492" rx="30.61" ry="18"/>
<text text-anchor="middle" x="32.6" y="-486.57" font-family="Times New Roman,serif" font-size="14.00">RMF</text>
</g>
<!-- RMF&#45;&gt;SIB -->
<g id="edge41" class="edge">
<title>RMF&#45;&gt;SIB</title>
<path fill="none" stroke="gray" stroke-width="2" d="M46.45,-508.27C55.2,-519.34 65.2,-532 65.2,-532 65.2,-532 146.69,-981.6 186.64,-1202.02"/>
<polygon fill="gray" stroke="gray" stroke-width="2" points="183.15,-1202.4 188.38,-1211.61 190.04,-1201.15 183.15,-1202.4"/>
</g>
<!-- RMG -->
<g id="node38" class="node">
<title>RMG</title>
<ellipse fill="none" stroke="black" cx="32.6" cy="-413" rx="32.1" ry="18"/>
<text text-anchor="middle" x="32.6" y="-407.57" font-family="Times New Roman,serif" font-size="14.00">RMG</text>
</g>
<!-- RMG&#45;&gt;SIB -->
<g id="edge42" class="edge">
<title>RMG&#45;&gt;SIB</title>
<path fill="none" stroke="red" stroke-width="5" d="M46.45,-429.27C55.2,-440.34 65.2,-453 65.2,-453 65.2,-453 148.58,-959.13 188.01,-1198.42"/>
<polygon fill="red" stroke="red" stroke-width="5" points="183.64,-1198.82 189.58,-1207.98 192.27,-1197.4 183.64,-1198.82"/>
</g>
<!-- SAA -->
<g id="node39" class="node">
<title>SAA</title>
<ellipse fill="none" stroke="black" cx="32.6" cy="-334" rx="29.11" ry="18"/>
<text text-anchor="middle" x="32.6" y="-328.57" font-family="Times New Roman,serif" font-size="14.00">SAA</text>
</g>
<!-- SAA&#45;&gt;SIB -->
<g id="edge43" class="edge">
<title>SAA&#45;&gt;SIB</title>
<path fill="none" stroke="gray" stroke-width="0.2" d="M46.45,-350.27C55.2,-361.34 65.2,-374 65.2,-374 65.2,-374 152.33,-951.02 190.57,-1204.23"/>
<polygon fill="gray" stroke="gray" stroke-width="0.2" points="187.08,-1204.54 192.03,-1213.91 194,-1203.5 187.08,-1204.54"/>
</g>
<!-- SDQ -->
<g id="node40" class="node">
<title>SDQ</title>
<ellipse fill="none" stroke="black" cx="32.6" cy="-255" rx="29.61" ry="18"/>
<text text-anchor="middle" x="32.6" y="-249.57" font-family="Times New Roman,serif" font-size="14.00">SDQ</text>
</g>
<!-- SDQ&#45;&gt;SIB -->
<g id="edge44" class="edge">
<title>SDQ&#45;&gt;SIB</title>
<path fill="none" stroke="red" stroke-width="0.2" d="M46.45,-271.27C55.2,-282.34 65.2,-295 65.2,-295 65.2,-295 154.37,-934.76 191.88,-1203.91"/>
<polygon fill="red" stroke="red" stroke-width="0.2" points="188.41,-1204.38 193.26,-1213.8 195.35,-1203.42 188.41,-1204.38"/>
</g>
<!-- SMD -->
<g id="node41" class="node">
<title>SMD</title>
<ellipse fill="none" stroke="black" cx="32.6" cy="-176" rx="30.61" ry="18"/>
<text text-anchor="middle" x="32.6" y="-170.57" font-family="Times New Roman,serif" font-size="14.00">SMD</text>
</g>
<!-- SMD&#45;&gt;SIB -->
<g id="edge45" class="edge">
<title>SMD&#45;&gt;SIB</title>
<path fill="none" stroke="gray" stroke-width="0.2" d="M46.45,-192.27C55.2,-203.34 65.2,-216 65.2,-216 65.2,-216 156.19,-919.09 193.01,-1203.6"/>
<polygon fill="gray" stroke="gray" stroke-width="0.2" points="189.5,-1203.77 194.26,-1213.24 196.44,-1202.87 189.5,-1203.77"/>
</g>
<!-- URB -->
<g id="node42" class="node">
<title>URB</title>
<ellipse fill="none" stroke="black" cx="32.6" cy="-97" rx="29.61" ry="18"/>
<text text-anchor="middle" x="32.6" y="-91.58" font-family="Times New Roman,serif" font-size="14.00">URB</text>
</g>
<!-- URB&#45;&gt;SIB -->
<g id="edge46" class="edge">
<title>URB&#45;&gt;SIB</title>
<path fill="none" stroke="gray" stroke-width="0.2" d="M46.45,-113.27C55.2,-124.34 65.2,-137 65.2,-137 65.2,-137 157.88,-904.39 194.02,-1203.57"/>
<polygon fill="gray" stroke="gray" stroke-width="0.2" points="190.52,-1203.77 195.19,-1213.28 197.47,-1202.93 190.52,-1203.77"/>
</g>
<!-- URY -->
<g id="node43" class="node">
<title>URY</title>
<ellipse fill="none" stroke="black" cx="32.6" cy="-18" rx="30.11" ry="18"/>
<text text-anchor="middle" x="32.6" y="-12.57" font-family="Times New Roman,serif" font-size="14.00">URY</text>
</g>
<!-- URY&#45;&gt;SIB -->
<g id="edge47" class="edge">
<title>URY&#45;&gt;SIB</title>
<path fill="none" stroke="gray" stroke-width="2" d="M46.45,-34.27C55.2,-45.34 65.2,-58 65.2,-58 65.2,-58 158.82,-884.81 194.56,-1200.49"/>
<polygon fill="gray" stroke="gray" stroke-width="2" points="191.07,-1200.77 195.67,-1210.31 198.02,-1199.98 191.07,-1200.77"/>
</g>
</g>
</svg>
