<?xml version="1.0" encoding="UTF-8" standalone="no"?>
<!DOCTYPE svg PUBLIC "-//W3C//DTD SVG 1.1//EN"
 "http://www.w3.org/Graphics/SVG/1.1/DTD/svg11.dtd">
<!-- Generated by graphviz version 11.0.0 (20240428.1522)
 -->
<!-- Pages: 1 -->
<svg width="425pt" height="1940pt"
 viewBox="0.00 0.00 425.41 1940.00" xmlns="http://www.w3.org/2000/svg" xmlns:xlink="http://www.w3.org/1999/xlink">
<g id="graph0" class="graph" transform="scale(1 1) rotate(0) translate(4 1936)">
<polygon fill="white" stroke="none" points="-4,4 -4,-1936 421.41,-1936 421.41,4 -4,4"/>
<!-- SMB -->
<g id="node1" class="node">
<title>SMB</title>
<ellipse fill="none" stroke="black" cx="209.2" cy="-966" rx="108" ry="108"/>
<text text-anchor="middle" x="209.2" y="-947" font-family="Times New Roman,serif" font-size="50.00">SMB</text>
</g>
<!-- SMB&#45;&gt;SMB -->
<g id="edge1" class="edge">
<title>SMB&#45;&gt;SMB</title>
<path fill="none" stroke="gray" stroke-width="2" d="M176.5,-1069.39C178.44,-1096.51 189.34,-1117 209.2,-1117 225.81,-1117 236.15,-1102.68 240.23,-1082.14"/>
<polygon fill="gray" stroke="gray" stroke-width="2" points="243.68,-1082.77 241.51,-1072.39 236.74,-1081.85 243.68,-1082.77"/>
</g>
<!-- ADA -->
<g id="node2" class="node">
<title>ADA</title>
<ellipse fill="none" stroke="black" cx="385.3" cy="-1914" rx="30.11" ry="18"/>
<text text-anchor="middle" x="385.3" y="-1908.58" font-family="Times New Roman,serif" font-size="14.00">ADA</text>
</g>
<!-- SMB&#45;&gt;ADA -->
<g id="edge2" class="edge">
<title>SMB&#45;&gt;ADA</title>
<path fill="none" stroke="gray" stroke-width="0.2" d="M227.03,-1072.95C264.83,-1313.23 353.2,-1875 353.2,-1875 353.2,-1875 358.58,-1881.75 364.87,-1889.63"/>
<polygon fill="gray" stroke="gray" stroke-width="0.2" points="362.13,-1891.81 371.11,-1897.45 367.61,-1887.45 362.13,-1891.81"/>
</g>
<!-- ADL -->
<g id="node3" class="node">
<title>ADL</title>
<ellipse fill="none" stroke="black" cx="385.3" cy="-1835" rx="29.11" ry="18"/>
<text text-anchor="middle" x="385.3" y="-1829.58" font-family="Times New Roman,serif" font-size="14.00">ADL</text>
</g>
<!-- SMB&#45;&gt;ADL -->
<g id="edge3" class="edge">
<title>SMB&#45;&gt;ADL</title>
<path fill="none" stroke="gray" stroke-width="0.2" d="M230.54,-1072.08C270.02,-1291.69 353.2,-1774.5 353.2,-1774.5 353.2,-1774.5 366.15,-1790.74 375.34,-1808.04"/>
<polygon fill="gray" stroke="gray" stroke-width="0.2" points="372.09,-1809.34 379.58,-1816.83 378.39,-1806.3 372.09,-1809.34"/>
</g>
<!-- AIM -->
<g id="node4" class="node">
<title>AIM</title>
<ellipse fill="none" stroke="black" cx="385.3" cy="-1756" rx="28.11" ry="18"/>
<text text-anchor="middle" x="385.3" y="-1750.58" font-family="Times New Roman,serif" font-size="14.00">AIM</text>
</g>
<!-- SMB&#45;&gt;AIM -->
<g id="edge4" class="edge">
<title>SMB&#45;&gt;AIM</title>
<path fill="none" stroke="gray" stroke-width="0.2" d="M232.7,-1071.7C272.97,-1274.16 353.2,-1695.5 353.2,-1695.5 353.2,-1695.5 366.15,-1711.74 375.34,-1729.04"/>
<polygon fill="gray" stroke="gray" stroke-width="0.2" points="372.09,-1730.34 379.58,-1737.83 378.39,-1727.3 372.09,-1730.34"/>
</g>
<!-- AIZ -->
<g id="node5" class="node">
<title>AIZ</title>
<ellipse fill="none" stroke="black" cx="385.3" cy="-1677" rx="27" ry="18"/>
<text text-anchor="middle" x="385.3" y="-1671.58" font-family="Times New Roman,serif" font-size="14.00">AIZ</text>
</g>
<!-- SMB&#45;&gt;AIZ -->
<g id="edge5" class="edge">
<title>SMB&#45;&gt;AIZ</title>
<path fill="none" stroke="gray" stroke-width="0.2" d="M235.36,-1071.17C276.39,-1255.53 353.2,-1616.5 353.2,-1616.5 353.2,-1616.5 366.15,-1632.74 375.34,-1650.04"/>
<polygon fill="gray" stroke="gray" stroke-width="0.2" points="372.09,-1651.34 379.58,-1658.83 378.39,-1648.3 372.09,-1651.34"/>
</g>
<!-- ALN -->
<g id="node6" class="node">
<title>ALN</title>
<ellipse fill="none" stroke="black" cx="385.3" cy="-1598" rx="29.11" ry="18"/>
<text text-anchor="middle" x="385.3" y="-1592.58" font-family="Times New Roman,serif" font-size="14.00">ALN</text>
</g>
<!-- SMB&#45;&gt;ALN -->
<g id="edge6" class="edge">
<title>SMB&#45;&gt;ALN</title>
<path fill="none" stroke="red" stroke-width="2" d="M238.63,-1070.19C280.33,-1235.3 353.2,-1537.5 353.2,-1537.5 353.2,-1537.5 364.99,-1552.29 374.06,-1568.67"/>
<polygon fill="red" stroke="red" stroke-width="2" points="370.8,-1569.98 378.37,-1577.39 377.07,-1566.87 370.8,-1569.98"/>
</g>
<!-- AVA -->
<g id="node7" class="node">
<title>AVA</title>
<ellipse fill="none" stroke="black" cx="385.3" cy="-1519" rx="30.11" ry="18"/>
<text text-anchor="middle" x="385.3" y="-1513.58" font-family="Times New Roman,serif" font-size="14.00">AVA</text>
</g>
<!-- SMB&#45;&gt;AVA -->
<g id="edge7" class="edge">
<title>SMB&#45;&gt;AVA</title>
<path fill="none" stroke="gray" stroke-width="0.2" d="M239.14,-1070.02C280.93,-1220.21 353.2,-1480 353.2,-1480 353.2,-1480 358.58,-1486.75 364.87,-1494.63"/>
<polygon fill="gray" stroke="gray" stroke-width="0.2" points="362.13,-1496.81 371.11,-1502.45 367.61,-1492.45 362.13,-1496.81"/>
</g>
<!-- AVB -->
<g id="node8" class="node">
<title>AVB</title>
<ellipse fill="none" stroke="black" cx="385.3" cy="-1440" rx="29.61" ry="18"/>
<text text-anchor="middle" x="385.3" y="-1434.58" font-family="Times New Roman,serif" font-size="14.00">AVB</text>
</g>
<!-- SMB&#45;&gt;AVB -->
<g id="edge8" class="edge">
<title>SMB&#45;&gt;AVB</title>
<path fill="none" stroke="gray" stroke-width="0.2" d="M243.91,-1068.54C286.19,-1197.14 353.2,-1401 353.2,-1401 353.2,-1401 358.58,-1407.75 364.87,-1415.63"/>
<polygon fill="gray" stroke="gray" stroke-width="0.2" points="362.13,-1417.81 371.11,-1423.45 367.61,-1413.45 362.13,-1417.81"/>
</g>
<!-- AVF -->
<g id="node9" class="node">
<title>AVF</title>
<ellipse fill="none" stroke="black" cx="385.3" cy="-1361" rx="29.11" ry="18"/>
<text text-anchor="middle" x="385.3" y="-1355.58" font-family="Times New Roman,serif" font-size="14.00">AVF</text>
</g>
<!-- SMB&#45;&gt;AVF -->
<g id="edge9" class="edge">
<title>SMB&#45;&gt;AVF</title>
<path fill="none" stroke="gray" stroke-width="0.2" d="M256.04,-1063.79C297.87,-1162.74 353.2,-1300.5 353.2,-1300.5 353.2,-1300.5 366.15,-1316.74 375.34,-1334.04"/>
<polygon fill="gray" stroke="gray" stroke-width="0.2" points="372.09,-1335.34 379.58,-1342.83 378.39,-1332.3 372.09,-1335.34"/>
</g>
<!-- AVH -->
<g id="node10" class="node">
<title>AVH</title>
<ellipse fill="none" stroke="black" cx="385.3" cy="-1282" rx="30.11" ry="18"/>
<text text-anchor="middle" x="385.3" y="-1276.58" font-family="Times New Roman,serif" font-size="14.00">AVH</text>
</g>
<!-- SMB&#45;&gt;AVH -->
<g id="edge10" class="edge">
<title>SMB&#45;&gt;AVH</title>
<path fill="none" stroke="gray" stroke-width="0.2" d="M266.72,-1057.97C306.69,-1131.4 353.2,-1221.5 353.2,-1221.5 353.2,-1221.5 366.15,-1237.74 375.34,-1255.04"/>
<polygon fill="gray" stroke="gray" stroke-width="0.2" points="372.09,-1256.34 379.58,-1263.83 378.39,-1253.3 372.09,-1256.34"/>
</g>
<!-- AVJ -->
<g id="node11" class="node">
<title>AVJ</title>
<ellipse fill="none" stroke="black" cx="385.3" cy="-1203" rx="27.11" ry="18"/>
<text text-anchor="middle" x="385.3" y="-1197.58" font-family="Times New Roman,serif" font-size="14.00">AVJ</text>
</g>
<!-- SMB&#45;&gt;AVJ -->
<g id="edge11" class="edge">
<title>SMB&#45;&gt;AVJ</title>
<path fill="none" stroke="gray" stroke-width="0.2" d="M273.34,-1053.42C311.65,-1106.46 353.2,-1164 353.2,-1164 353.2,-1164 358.85,-1171.09 365.34,-1179.22"/>
<polygon fill="gray" stroke="gray" stroke-width="0.2" points="362.49,-1181.26 371.47,-1186.9 367.97,-1176.9 362.49,-1181.26"/>
</g>
<!-- CEP -->
<g id="node12" class="node">
<title>CEP</title>
<ellipse fill="none" stroke="black" cx="385.3" cy="-1124" rx="28.11" ry="18"/>
<text text-anchor="middle" x="385.3" y="-1118.58" font-family="Times New Roman,serif" font-size="14.00">CEP</text>
</g>
<!-- SMB&#45;&gt;CEP -->
<g id="edge12" class="edge">
<title>SMB&#45;&gt;CEP</title>
<path fill="none" stroke="gray" stroke-width="5" d="M297.25,-1028.88C322.27,-1051.58 347.3,-1076.07 364.05,-1094.82"/>
<polygon fill="gray" stroke="gray" stroke-width="5" points="360.6,-1097.53 370.41,-1102.32 367.28,-1091.87 360.6,-1097.53"/>
</g>
<!-- IL1 -->
<g id="node13" class="node">
<title>IL1</title>
<ellipse fill="none" stroke="black" cx="385.3" cy="-1045" rx="27" ry="18"/>
<text text-anchor="middle" x="385.3" y="-1039.58" font-family="Times New Roman,serif" font-size="14.00">IL1</text>
</g>
<!-- SMB&#45;&gt;IL1 -->
<g id="edge13" class="edge">
<title>SMB&#45;&gt;IL1</title>
<path fill="none" stroke="gray" stroke-width="0.2" d="M312.99,-996.75C331.53,-1005.73 349.09,-1015.26 362.14,-1023.76"/>
<polygon fill="gray" stroke="gray" stroke-width="0.2" points="359.95,-1026.5 370.17,-1029.28 363.92,-1020.73 359.95,-1026.5"/>
</g>
<!-- PLN -->
<g id="node14" class="node">
<title>PLN</title>
<ellipse fill="none" stroke="black" cx="385.3" cy="-966" rx="28.11" ry="18"/>
<text text-anchor="middle" x="385.3" y="-960.58" font-family="Times New Roman,serif" font-size="14.00">PLN</text>
</g>
<!-- SMB&#45;&gt;PLN -->
<g id="edge14" class="edge">
<title>SMB&#45;&gt;PLN</title>
<path fill="none" stroke="gray" stroke-width="2" d="M316.49,-950.23C328.47,-950.68 339.93,-951.55 349.91,-952.85"/>
<polygon fill="gray" stroke="gray" stroke-width="2" points="349.1,-956.27 359.53,-954.41 350.21,-949.36 349.1,-956.27"/>
</g>
<!-- PVP -->
<g id="node15" class="node">
<title>PVP</title>
<ellipse fill="none" stroke="black" cx="385.3" cy="-887" rx="28.11" ry="18"/>
<text text-anchor="middle" x="385.3" y="-881.58" font-family="Times New Roman,serif" font-size="14.00">PVP</text>
</g>
<!-- SMB&#45;&gt;PVP -->
<g id="edge15" class="edge">
<title>SMB&#45;&gt;PVP</title>
<path fill="none" stroke="gray" stroke-width="0.2" d="M307.94,-921.65C324,-914.36 339.57,-907.3 352.41,-901.47"/>
<polygon fill="gray" stroke="gray" stroke-width="0.2" points="353.73,-904.72 361.39,-897.4 350.84,-898.34 353.73,-904.72"/>
</g>
<!-- RIA -->
<g id="node16" class="node">
<title>RIA</title>
<ellipse fill="none" stroke="black" cx="385.3" cy="-808" rx="27" ry="18"/>
<text text-anchor="middle" x="385.3" y="-802.58" font-family="Times New Roman,serif" font-size="14.00">RIA</text>
</g>
<!-- SMB&#45;&gt;RIA -->
<g id="edge16" class="edge">
<title>SMB&#45;&gt;RIA</title>
<path fill="none" stroke="gray" stroke-width="0.2" d="M281.52,-885.39C306.66,-861.81 333.62,-838.43 353.61,-823.22"/>
<polygon fill="gray" stroke="gray" stroke-width="0.2" points="355.52,-826.16 361.49,-817.4 351.37,-820.53 355.52,-826.16"/>
</g>
<!-- RIH -->
<g id="node17" class="node">
<title>RIH</title>
<ellipse fill="none" stroke="black" cx="385.3" cy="-729" rx="27" ry="18"/>
<text text-anchor="middle" x="385.3" y="-723.58" font-family="Times New Roman,serif" font-size="14.00">RIH</text>
</g>
<!-- SMB&#45;&gt;RIH -->
<g id="edge17" class="edge">
<title>SMB&#45;&gt;RIH</title>
<path fill="none" stroke="gray" stroke-width="nan" d="M273.55,-878.73C311.8,-826.04 353.2,-769 353.2,-769 353.2,-769 363.32,-755.99 372.01,-744.81"/>
<polygon fill="gray" stroke="gray" stroke-width="nan" points="nan,-nan nan,-nan nan,-nan nan,-nan"/>
</g>
<!-- RIV -->
<g id="node18" class="node">
<title>RIV</title>
<ellipse fill="none" stroke="black" cx="385.3" cy="-650" rx="27" ry="18"/>
<text text-anchor="middle" x="385.3" y="-644.58" font-family="Times New Roman,serif" font-size="14.00">RIV</text>
</g>
<!-- SMB&#45;&gt;RIV -->
<g id="edge18" class="edge">
<title>SMB&#45;&gt;RIV</title>
<path fill="none" stroke="gray" stroke-width="nan" d="M253.11,-867.24C295.23,-780.39 353.2,-668.5 353.2,-668.5 353.2,-668.5 356.71,-663.99 361.37,-658.81"/>
<polygon fill="gray" stroke="gray" stroke-width="nan" points="nan,-nan nan,-nan nan,-nan nan,-nan"/>
</g>
<!-- RMD -->
<g id="node19" class="node">
<title>RMD</title>
<ellipse fill="none" stroke="black" cx="385.3" cy="-571" rx="31.6" ry="18"/>
<text text-anchor="middle" x="385.3" y="-565.58" font-family="Times New Roman,serif" font-size="14.00">RMD</text>
</g>
<!-- SMB&#45;&gt;RMD -->
<g id="edge19" class="edge">
<title>SMB&#45;&gt;RMD</title>
<path fill="none" stroke="gray" stroke-width="nan" d="M245.37,-863.87C287.71,-752.09 353.2,-589.5 353.2,-589.5 353.2,-589.5 355.8,-586.16 359.5,-581.92"/>
<polygon fill="gray" stroke="gray" stroke-width="nan" points="nan,-nan nan,-nan nan,-nan nan,-nan"/>
</g>
<!-- RME -->
<g id="node20" class="node">
<title>RME</title>
<ellipse fill="none" stroke="black" cx="385.3" cy="-492" rx="30.61" ry="18"/>
<text text-anchor="middle" x="385.3" y="-486.57" font-family="Times New Roman,serif" font-size="14.00">RME</text>
</g>
<!-- SMB&#45;&gt;RME -->
<g id="edge20" class="edge">
<title>SMB&#45;&gt;RME</title>
<path fill="none" stroke="red" stroke-width="5" d="M244,-863.42C286.28,-735.1 353.2,-532 353.2,-532 353.2,-532 357.05,-527.06 362.03,-520.64"/>
<polygon fill="red" stroke="red" stroke-width="5" points="365.14,-523.77 367.83,-513.19 358.23,-518.4 365.14,-523.77"/>
</g>
<!-- RMG -->
<g id="node21" class="node">
<title>RMG</title>
<ellipse fill="none" stroke="black" cx="385.3" cy="-413" rx="32.1" ry="18"/>
<text text-anchor="middle" x="385.3" y="-407.57" font-family="Times New Roman,serif" font-size="14.00">RMG</text>
</g>
<!-- SMB&#45;&gt;RMG -->
<g id="edge21" class="edge">
<title>SMB&#45;&gt;RMG</title>
<path fill="none" stroke="gray" stroke-width="0.2" d="M235.85,-860.85C272.98,-720.1 338.65,-483.77 355.75,-433.39"/>
<polygon fill="gray" stroke="gray" stroke-width="0.2" points="358.96,-434.79 359.38,-424.21 352.45,-432.22 358.96,-434.79"/>
</g>
<!-- RMH -->
<g id="node22" class="node">
<title>RMH</title>
<ellipse fill="none" stroke="black" cx="385.3" cy="-334" rx="31.6" ry="18"/>
<text text-anchor="middle" x="385.3" y="-328.57" font-family="Times New Roman,serif" font-size="14.00">RMH</text>
</g>
<!-- SMB&#45;&gt;RMH -->
<g id="edge22" class="edge">
<title>SMB&#45;&gt;RMH</title>
<path fill="none" stroke="gray" stroke-width="0.2" d="M235.6,-860.84C276.7,-690.73 353.2,-374 353.2,-374 353.2,-374 358.85,-366.73 365.34,-358.39"/>
<polygon fill="gray" stroke="gray" stroke-width="0.2" points="368.09,-360.55 371.47,-350.51 362.57,-356.25 368.09,-360.55"/>
</g>
<!-- SAA -->
<g id="node23" class="node">
<title>SAA</title>
<ellipse fill="none" stroke="black" cx="385.3" cy="-255" rx="29.11" ry="18"/>
<text text-anchor="middle" x="385.3" y="-249.57" font-family="Times New Roman,serif" font-size="14.00">SAA</text>
</g>
<!-- SMB&#45;&gt;SAA -->
<g id="edge23" class="edge">
<title>SMB&#45;&gt;SAA</title>
<path fill="none" stroke="black" stroke-width="5" d="M230.31,-859.73C265.47,-686.21 335.77,-355.4 355.6,-280.2"/>
<polygon fill="black" stroke="black" stroke-width="5" points="359.72,-281.68 358.55,-270.83 351.37,-279.06 359.72,-281.68"/>
</g>
<!-- SIA -->
<g id="node24" class="node">
<title>SIA</title>
<ellipse fill="none" stroke="black" cx="385.3" cy="-176" rx="27" ry="18"/>
<text text-anchor="middle" x="385.3" y="-170.57" font-family="Times New Roman,serif" font-size="14.00">SIA</text>
</g>
<!-- SMB&#45;&gt;SIA -->
<g id="edge24" class="edge">
<title>SMB&#45;&gt;SIA</title>
<path fill="none" stroke="gray" stroke-width="2" d="M228.39,-859.21C263.52,-665.77 338.4,-272.21 357.49,-197.16"/>
<polygon fill="gray" stroke="gray" stroke-width="2" points="360.81,-198.28 360.47,-187.69 354.13,-196.19 360.81,-198.28"/>
</g>
<!-- SIB -->
<g id="node25" class="node">
<title>SIB</title>
<ellipse fill="none" stroke="black" cx="385.3" cy="-97" rx="27" ry="18"/>
<text text-anchor="middle" x="385.3" y="-91.58" font-family="Times New Roman,serif" font-size="14.00">SIB</text>
</g>
<!-- SMB&#45;&gt;SIB -->
<g id="edge25" class="edge">
<title>SMB&#45;&gt;SIB</title>
<path fill="none" stroke="gray" stroke-width="0.2" d="M226.75,-859.12C264.39,-630.37 353.2,-115.5 353.2,-115.5 353.2,-115.5 353.78,-114.75 354.78,-113.52"/>
<polygon fill="gray" stroke="gray" stroke-width="0.2" points="357.34,-115.91 361.18,-106.04 352.02,-111.37 357.34,-115.91"/>
</g>
<!-- SMD -->
<g id="node26" class="node">
<title>SMD</title>
<ellipse fill="none" stroke="black" cx="385.3" cy="-18" rx="30.61" ry="18"/>
<text text-anchor="middle" x="385.3" y="-12.57" font-family="Times New Roman,serif" font-size="14.00">SMD</text>
</g>
<!-- SMB&#45;&gt;SMD -->
<g id="edge26" class="edge">
<title>SMB&#45;&gt;SMD</title>
<path fill="none" stroke="gray" stroke-width="0.2" d="M227.03,-859.17C264.83,-619.15 353.2,-58 353.2,-58 353.2,-58 358.85,-50.73 365.34,-42.39"/>
<polygon fill="gray" stroke="gray" stroke-width="0.2" points="368.09,-44.55 371.47,-34.51 362.57,-40.25 368.09,-44.55"/>
</g>
<!-- ADL&#45;&gt;SMB -->
<g id="edge27" class="edge">
<title>ADL&#45;&gt;SMB</title>
<path fill="none" stroke="gray" stroke-width="5" d="M360.1,-1825.55C356.09,-1821.12 353.2,-1817.5 353.2,-1817.5 353.2,-1817.5 268.33,-1324.9 229.36,-1088.85"/>
<polygon fill="gray" stroke="gray" stroke-width="5" points="233.7,-1088.31 227.76,-1079.15 225.07,-1089.73 233.7,-1088.31"/>
</g>
<!-- AIM&#45;&gt;SMB -->
<g id="edge28" class="edge">
<title>AIM&#45;&gt;SMB</title>
<path fill="none" stroke="black" stroke-width="0.2" d="M360.42,-1746.89C356.24,-1742.31 353.2,-1738.5 353.2,-1738.5 353.2,-1738.5 269.47,-1298.77 230.15,-1082.64"/>
<polygon fill="black" stroke="black" stroke-width="0.2" points="233.6,-1082.03 228.37,-1072.81 226.71,-1083.28 233.6,-1082.03"/>
</g>
<!-- AIZ&#45;&gt;SMB -->
<g id="edge29" class="edge">
<title>AIZ&#45;&gt;SMB</title>
<path fill="none" stroke="black" stroke-width="5" d="M361.05,-1668.58C356.55,-1663.7 353.2,-1659.5 353.2,-1659.5 353.2,-1659.5 274.04,-1287.51 233.52,-1088.21"/>
<polygon fill="black" stroke="black" stroke-width="5" points="237.83,-1087.45 231.55,-1078.52 229.25,-1089.19 237.83,-1087.45"/>
</g>
<!-- ALN&#45;&gt;SMB -->
<g id="edge30" class="edge">
<title>ALN&#45;&gt;SMB</title>
<path fill="none" stroke="black" stroke-width="5" d="M360.1,-1588.55C356.09,-1584.12 353.2,-1580.5 353.2,-1580.5 353.2,-1580.5 277.53,-1266.7 236.28,-1087.37"/>
<polygon fill="black" stroke="black" stroke-width="5" points="240.6,-1086.62 234.1,-1077.85 232.07,-1088.58 240.6,-1086.62"/>
</g>
<!-- AVF&#45;&gt;SMB -->
<g id="edge31" class="edge">
<title>AVF&#45;&gt;SMB</title>
<path fill="none" stroke="gray" stroke-width="0.2" d="M360.1,-1351.55C356.09,-1347.12 353.2,-1343.5 353.2,-1343.5 353.2,-1343.5 291.06,-1188.8 248.71,-1077.2"/>
<polygon fill="gray" stroke="gray" stroke-width="0.2" points="252.11,-1076.29 245.29,-1068.18 245.56,-1078.77 252.11,-1076.29"/>
</g>
<!-- AVH&#45;&gt;SMB -->
<g id="edge32" class="edge">
<title>AVH&#45;&gt;SMB</title>
<path fill="none" stroke="red" stroke-width="5" d="M359.8,-1272.21C355.94,-1267.94 353.2,-1264.5 353.2,-1264.5 353.2,-1264.5 301.4,-1164.15 260.15,-1079.56"/>
<polygon fill="red" stroke="red" stroke-width="5" points="264.13,-1077.75 255.83,-1070.67 256.26,-1081.58 264.13,-1077.75"/>
</g>
<!-- CEP&#45;&gt;SMB -->
<g id="edge33" class="edge">
<title>CEP&#45;&gt;SMB</title>
<path fill="none" stroke="gray" stroke-width="5" d="M361.33,-1114.49C343.74,-1101.89 318.31,-1080.41 293.33,-1057.55"/>
<polygon fill="gray" stroke="gray" stroke-width="5" points="296.4,-1054.43 286.09,-1050.85 290.46,-1060.85 296.4,-1054.43"/>
</g>
<!-- IL1&#45;&gt;SMB -->
<g id="edge34" class="edge">
<title>IL1&#45;&gt;SMB</title>
<path fill="none" stroke="blue" stroke-width="5" d="M358.16,-1045.05C346.3,-1041.7 331.41,-1036.24 315.69,-1029.67"/>
<polygon fill="blue" stroke="blue" stroke-width="5" points="317.72,-1025.78 306.8,-1025.82 314.24,-1033.81 317.72,-1025.78"/>
</g>
<!-- PLN&#45;&gt;SMB -->
<g id="edge35" class="edge">
<title>PLN&#45;&gt;SMB</title>
<path fill="none" stroke="black" stroke-width="5" d="M362.52,-977.11C354.08,-978.8 343.72,-980.06 332.41,-980.89"/>
<polygon fill="black" stroke="black" stroke-width="5" points="332.47,-976.51 322.72,-981.43 332.95,-985.25 332.47,-976.51"/>
</g>
<!-- RIA&#45;&gt;SMB -->
<g id="edge36" class="edge">
<title>RIA&#45;&gt;SMB</title>
<path fill="none" stroke="red" stroke-width="5" d="M374.44,-824.92C361.11,-841.75 335.91,-867.29 309.19,-892.16"/>
<polygon fill="red" stroke="red" stroke-width="5" points="306.25,-888.92 301.85,-898.9 312.17,-895.36 306.25,-888.92"/>
</g>
<!-- RIV&#45;&gt;SMB -->
<g id="edge37" class="edge">
<title>RIV&#45;&gt;SMB</title>
<path fill="none" stroke="gray" stroke-width="2" d="M379.71,-668.05C371.06,-688.53 353.2,-711.5 353.2,-711.5 353.2,-711.5 311.29,-792.38 272.85,-863.17"/>
<polygon fill="gray" stroke="gray" stroke-width="2" points="269.88,-861.31 268.17,-871.77 276.02,-864.66 269.88,-861.31"/>
</g>
<!-- RMD&#45;&gt;SMB -->
<g id="edge38" class="edge">
<title>RMD&#45;&gt;SMB</title>
<path fill="none" stroke="black" stroke-width="5" d="M379.71,-589.05C371.06,-609.53 353.2,-632.5 353.2,-632.5 353.2,-632.5 303.14,-756.79 262.25,-853.83"/>
<polygon fill="black" stroke="black" stroke-width="5" points="258.33,-851.88 258.47,-862.79 266.39,-855.28 258.33,-851.88"/>
</g>
<!-- RMG&#45;&gt;SMB -->
<g id="edge39" class="edge">
<title>RMG&#45;&gt;SMB</title>
<path fill="none" stroke="red" stroke-width="2" d="M379.71,-431.05C371.06,-451.53 353.2,-474.5 353.2,-474.5 353.2,-474.5 288.93,-705.06 246.57,-850.57"/>
<polygon fill="red" stroke="red" stroke-width="2" points="243.21,-849.58 243.77,-860.16 249.93,-851.54 243.21,-849.58"/>
</g>
<!-- SAA&#45;&gt;SMB -->
<g id="edge40" class="edge">
<title>SAA&#45;&gt;SMB</title>
<path fill="none" stroke="gray" stroke-width="0.2" d="M379.71,-273.05C371.06,-293.53 353.2,-316.5 353.2,-316.5 353.2,-316.5 279.07,-664.37 237.55,-851.14"/>
<polygon fill="gray" stroke="gray" stroke-width="0.2" points="234.18,-850.19 235.42,-860.71 241.01,-851.71 234.18,-850.19"/>
</g>
<!-- SIA&#45;&gt;SMB -->
<g id="edge41" class="edge">
<title>SIA&#45;&gt;SMB</title>
<path fill="none" stroke="gray" stroke-width="0.2" d="M379.71,-194.05C371.06,-214.53 353.2,-237.5 353.2,-237.5 353.2,-237.5 275.54,-644.83 234.68,-850.51"/>
<polygon fill="gray" stroke="gray" stroke-width="0.2" points="231.28,-849.66 232.76,-860.16 238.15,-851.03 231.28,-849.66"/>
</g>
<!-- SIB&#45;&gt;SMB -->
<g id="edge42" class="edge">
<title>SIB&#45;&gt;SMB</title>
<path fill="none" stroke="gray" stroke-width="0.2" d="M379.71,-115.05C371.06,-135.53 353.2,-158.5 353.2,-158.5 353.2,-158.5 272.54,-626.11 232.38,-849.83"/>
<polygon fill="gray" stroke="gray" stroke-width="0.2" points="228.99,-848.89 230.67,-859.35 235.88,-850.12 228.99,-848.89"/>
</g>
<!-- ADE -->
<g id="node27" class="node">
<title>ADE</title>
<ellipse fill="none" stroke="black" cx="32.6" cy="-1914" rx="29.11" ry="18"/>
<text text-anchor="middle" x="32.6" y="-1908.58" font-family="Times New Roman,serif" font-size="14.00">ADE</text>
</g>
<!-- ADE&#45;&gt;SMB -->
<g id="edge43" class="edge">
<title>ADE&#45;&gt;SMB</title>
<path fill="none" stroke="gray" stroke-width="2" d="M46.45,-1898.14C55.2,-1887.34 65.2,-1875 65.2,-1875 65.2,-1875 150.58,-1332.27 189.4,-1085.54"/>
<polygon fill="gray" stroke="gray" stroke-width="2" points="192.81,-1086.36 190.91,-1075.94 185.9,-1085.27 192.81,-1086.36"/>
</g>
<!-- ADF -->
<g id="node28" class="node">
<title>ADF</title>
<ellipse fill="none" stroke="black" cx="32.6" cy="-1835" rx="29.11" ry="18"/>
<text text-anchor="middle" x="32.6" y="-1829.58" font-family="Times New Roman,serif" font-size="14.00">ADF</text>
</g>
<!-- ADF&#45;&gt;SMB -->
<g id="edge44" class="edge">
<title>ADF&#45;&gt;SMB</title>
<path fill="none" stroke="gray" stroke-width="5" d="M46.45,-1819.14C55.2,-1808.34 65.2,-1796 65.2,-1796 65.2,-1796 147.38,-1319.02 187.14,-1088.23"/>
<polygon fill="gray" stroke="gray" stroke-width="5" points="191.43,-1089.13 188.81,-1078.53 182.8,-1087.64 191.43,-1089.13"/>
</g>
<!-- ALM -->
<g id="node29" class="node">
<title>ALM</title>
<ellipse fill="none" stroke="black" cx="32.6" cy="-1756" rx="30.61" ry="18"/>
<text text-anchor="middle" x="32.6" y="-1750.58" font-family="Times New Roman,serif" font-size="14.00">ALM</text>
</g>
<!-- ALM&#45;&gt;SMB -->
<g id="edge45" class="edge">
<title>ALM&#45;&gt;SMB</title>
<path fill="none" stroke="gray" stroke-width="0.2" d="M46.82,-1739.69C55.48,-1729 65.2,-1717 65.2,-1717 65.2,-1717 146.01,-1292.6 186.14,-1081.88"/>
<polygon fill="gray" stroke="gray" stroke-width="0.2" points="189.53,-1082.78 187.96,-1072.3 182.65,-1081.47 189.53,-1082.78"/>
</g>
<!-- ASH -->
<g id="node30" class="node">
<title>ASH</title>
<ellipse fill="none" stroke="black" cx="32.6" cy="-1677" rx="29.11" ry="18"/>
<text text-anchor="middle" x="32.6" y="-1671.58" font-family="Times New Roman,serif" font-size="14.00">ASH</text>
</g>
<!-- ASH&#45;&gt;SMB -->
<g id="edge46" class="edge">
<title>ASH&#45;&gt;SMB</title>
<path fill="none" stroke="gray" stroke-width="2" d="M46.45,-1661.14C55.2,-1650.34 65.2,-1638 65.2,-1638 65.2,-1638 141.94,-1277.37 182.99,-1084.48"/>
<polygon fill="gray" stroke="gray" stroke-width="2" points="186.41,-1085.21 185.07,-1074.7 179.57,-1083.75 186.41,-1085.21"/>
</g>
<!-- ASI -->
<g id="node31" class="node">
<title>ASI</title>
<ellipse fill="none" stroke="black" cx="32.6" cy="-1598" rx="27" ry="18"/>
<text text-anchor="middle" x="32.6" y="-1592.58" font-family="Times New Roman,serif" font-size="14.00">ASI</text>
</g>
<!-- ASI&#45;&gt;SMB -->
<g id="edge47" class="edge">
<title>ASI&#45;&gt;SMB</title>
<path fill="none" stroke="blue" stroke-width="0.2" d="M46.45,-1582.14C55.2,-1571.34 65.2,-1559 65.2,-1559 65.2,-1559 138.92,-1253.3 180.5,-1080.88"/>
<polygon fill="blue" stroke="blue" stroke-width="0.2" points="183.87,-1081.83 182.81,-1071.29 177.07,-1080.19 183.87,-1081.83"/>
</g>
<!-- AVK -->
<g id="node32" class="node">
<title>AVK</title>
<ellipse fill="none" stroke="black" cx="32.6" cy="-1519" rx="30.11" ry="18"/>
<text text-anchor="middle" x="32.6" y="-1513.58" font-family="Times New Roman,serif" font-size="14.00">AVK</text>
</g>
<!-- AVK&#45;&gt;SMB -->
<g id="edge48" class="edge">
<title>AVK&#45;&gt;SMB</title>
<path fill="none" stroke="red" stroke-width="0.2" d="M46.82,-1502.69C55.48,-1492 65.2,-1480 65.2,-1480 65.2,-1480 134.41,-1231.25 176.53,-1079.84"/>
<polygon fill="red" stroke="red" stroke-width="0.2" points="179.87,-1080.88 179.18,-1070.31 173.13,-1079 179.87,-1080.88"/>
</g>
<!-- AWA -->
<g id="node33" class="node">
<title>AWA</title>
<ellipse fill="none" stroke="black" cx="32.6" cy="-1440" rx="32.6" ry="18"/>
<text text-anchor="middle" x="32.6" y="-1434.58" font-family="Times New Roman,serif" font-size="14.00">AWA</text>
</g>
<!-- AWA&#45;&gt;SMB -->
<g id="edge49" class="edge">
<title>AWA&#45;&gt;SMB</title>
<path fill="none" stroke="gray" stroke-width="5" d="M46.82,-1423.69C55.48,-1413 65.2,-1401 65.2,-1401 65.2,-1401 127.08,-1212.76 169.43,-1083.94"/>
<polygon fill="gray" stroke="gray" stroke-width="5" points="173.58,-1085.33 172.55,-1074.46 165.27,-1082.6 173.58,-1085.33"/>
</g>
<!-- AWB -->
<g id="node34" class="node">
<title>AWB</title>
<ellipse fill="none" stroke="black" cx="32.6" cy="-1361" rx="32.1" ry="18"/>
<text text-anchor="middle" x="32.6" y="-1355.58" font-family="Times New Roman,serif" font-size="14.00">AWB</text>
</g>
<!-- AWB&#45;&gt;SMB -->
<g id="edge50" class="edge">
<title>AWB&#45;&gt;SMB</title>
<path fill="none" stroke="red" stroke-width="5" d="M46.82,-1344.69C55.48,-1334 65.2,-1322 65.2,-1322 65.2,-1322 120.27,-1184.92 162.06,-1080.88"/>
<polygon fill="red" stroke="red" stroke-width="5" points="166,-1082.81 165.66,-1071.9 157.88,-1079.55 166,-1082.81"/>
</g>
<!-- DVA -->
<g id="node35" class="node">
<title>DVA</title>
<ellipse fill="none" stroke="black" cx="32.6" cy="-1282" rx="30.11" ry="18"/>
<text text-anchor="middle" x="32.6" y="-1276.58" font-family="Times New Roman,serif" font-size="14.00">DVA</text>
</g>
<!-- DVA&#45;&gt;SMB -->
<g id="edge51" class="edge">
<title>DVA&#45;&gt;SMB</title>
<path fill="none" stroke="red" stroke-width="2" d="M46.82,-1265.69C55.48,-1255 65.2,-1243 65.2,-1243 65.2,-1243 112.67,-1151.05 152.91,-1073.1"/>
<polygon fill="red" stroke="red" stroke-width="2" points="155.92,-1074.9 157.4,-1064.41 149.7,-1071.69 155.92,-1074.9"/>
</g>
<!-- HSN -->
<g id="node36" class="node">
<title>HSN</title>
<ellipse fill="none" stroke="black" cx="32.6" cy="-1203" rx="29.11" ry="18"/>
<text text-anchor="middle" x="32.6" y="-1197.58" font-family="Times New Roman,serif" font-size="14.00">HSN</text>
</g>
<!-- HSN&#45;&gt;SMB -->
<g id="edge52" class="edge">
<title>HSN&#45;&gt;SMB</title>
<path fill="none" stroke="gray" stroke-width="0.2" d="M46.45,-1187.14C55.2,-1176.34 65.2,-1164 65.2,-1164 65.2,-1164 102.64,-1112.16 139.21,-1061.53"/>
<polygon fill="gray" stroke="gray" stroke-width="0.2" points="141.87,-1063.82 144.89,-1053.67 136.19,-1059.73 141.87,-1063.82"/>
</g>
<!-- IL2 -->
<g id="node37" class="node">
<title>IL2</title>
<ellipse fill="none" stroke="black" cx="32.6" cy="-1124" rx="27" ry="18"/>
<text text-anchor="middle" x="32.6" y="-1118.58" font-family="Times New Roman,serif" font-size="14.00">IL2</text>
</g>
<!-- IL2&#45;&gt;SMB -->
<g id="edge53" class="edge">
<title>IL2&#45;&gt;SMB</title>
<path fill="none" stroke="gray" stroke-width="0.2" d="M49.4,-1109.7C66.05,-1094.64 93.62,-1069.69 121.15,-1044.77"/>
<polygon fill="gray" stroke="gray" stroke-width="0.2" points="123.24,-1047.61 128.3,-1038.3 118.54,-1042.42 123.24,-1047.61"/>
</g>
<!-- OLQ -->
<g id="node38" class="node">
<title>OLQ</title>
<ellipse fill="none" stroke="black" cx="32.6" cy="-1045" rx="30.11" ry="18"/>
<text text-anchor="middle" x="32.6" y="-1039.58" font-family="Times New Roman,serif" font-size="14.00">OLQ</text>
</g>
<!-- OLQ&#45;&gt;SMB -->
<g id="edge54" class="edge">
<title>OLQ&#45;&gt;SMB</title>
<path fill="none" stroke="gray" stroke-width="2" d="M57.15,-1034.35C68.61,-1029.16 83.29,-1022.52 98.98,-1015.42"/>
<polygon fill="gray" stroke="gray" stroke-width="2" points="100.13,-1018.74 107.8,-1011.43 97.25,-1012.36 100.13,-1018.74"/>
</g>
<!-- PVC -->
<g id="node39" class="node">
<title>PVC</title>
<ellipse fill="none" stroke="black" cx="32.6" cy="-966" rx="29.11" ry="18"/>
<text text-anchor="middle" x="32.6" y="-960.58" font-family="Times New Roman,serif" font-size="14.00">PVC</text>
</g>
<!-- PVC&#45;&gt;SMB -->
<g id="edge55" class="edge">
<title>PVC&#45;&gt;SMB</title>
<path fill="none" stroke="gray" stroke-width="0.2" d="M62.04,-966C70.46,-966 80.25,-966 90.7,-966"/>
<polygon fill="gray" stroke="gray" stroke-width="0.2" points="90.59,-969.5 100.59,-966 90.59,-962.5 90.59,-969.5"/>
</g>
<!-- PVN -->
<g id="node40" class="node">
<title>PVN</title>
<ellipse fill="none" stroke="black" cx="32.6" cy="-887" rx="29.11" ry="18"/>
<text text-anchor="middle" x="32.6" y="-881.58" font-family="Times New Roman,serif" font-size="14.00">PVN</text>
</g>
<!-- PVN&#45;&gt;SMB -->
<g id="edge56" class="edge">
<title>PVN&#45;&gt;SMB</title>
<path fill="none" stroke="gray" stroke-width="2" d="M56.79,-897.49C68.21,-902.66 82.89,-909.3 98.61,-916.41"/>
<polygon fill="gray" stroke="gray" stroke-width="2" points="96.89,-919.48 107.44,-920.41 99.78,-913.1 96.89,-919.48"/>
</g>
<!-- PVR -->
<g id="node41" class="node">
<title>PVR</title>
<ellipse fill="none" stroke="black" cx="32.6" cy="-808" rx="29.11" ry="18"/>
<text text-anchor="middle" x="32.6" y="-802.58" font-family="Times New Roman,serif" font-size="14.00">PVR</text>
</g>
<!-- PVR&#45;&gt;SMB -->
<g id="edge57" class="edge">
<title>PVR&#45;&gt;SMB</title>
<path fill="none" stroke="gray" stroke-width="0.2" d="M50.03,-822.86C66.78,-838.03 94.12,-862.77 121.4,-887.45"/>
<polygon fill="gray" stroke="gray" stroke-width="0.2" points="118.71,-889.74 128.48,-893.86 123.41,-884.55 118.71,-889.74"/>
</g>
<!-- PVT -->
<g id="node42" class="node">
<title>PVT</title>
<ellipse fill="none" stroke="black" cx="32.6" cy="-729" rx="28.61" ry="18"/>
<text text-anchor="middle" x="32.6" y="-723.58" font-family="Times New Roman,serif" font-size="14.00">PVT</text>
</g>
<!-- PVT&#45;&gt;SMB -->
<g id="edge58" class="edge">
<title>PVT&#45;&gt;SMB</title>
<path fill="none" stroke="gray" stroke-width="0.2" d="M46.45,-745.27C55.2,-756.34 65.2,-769 65.2,-769 65.2,-769 102.51,-820.39 139.01,-870.68"/>
<polygon fill="gray" stroke="gray" stroke-width="0.2" points="135.97,-872.45 144.68,-878.49 141.64,-868.34 135.97,-872.45"/>
</g>
<!-- RIC -->
<g id="node43" class="node">
<title>RIC</title>
<ellipse fill="none" stroke="black" cx="32.6" cy="-650" rx="27" ry="18"/>
<text text-anchor="middle" x="32.6" y="-644.58" font-family="Times New Roman,serif" font-size="14.00">RIC</text>
</g>
<!-- RIC&#45;&gt;SMB -->
<g id="edge59" class="edge">
<title>RIC&#45;&gt;SMB</title>
<path fill="none" stroke="red" stroke-width="5" d="M46.09,-665.81C54.92,-676.99 65.2,-690 65.2,-690 65.2,-690 111.36,-779.09 151.23,-856.04"/>
<polygon fill="red" stroke="red" stroke-width="5" points="147.23,-857.84 155.72,-864.71 155,-853.81 147.23,-857.84"/>
</g>
<!-- RIG -->
<g id="node44" class="node">
<title>RIG</title>
<ellipse fill="none" stroke="black" cx="32.6" cy="-571" rx="27.11" ry="18"/>
<text text-anchor="middle" x="32.6" y="-565.58" font-family="Times New Roman,serif" font-size="14.00">RIG</text>
</g>
<!-- RIG&#45;&gt;SMB -->
<g id="edge60" class="edge">
<title>RIG&#45;&gt;SMB</title>
<path fill="none" stroke="gray" stroke-width="0.2" d="M46.09,-586.81C54.92,-597.99 65.2,-611 65.2,-611 65.2,-611 122.2,-752.5 164.23,-856.83"/>
<polygon fill="gray" stroke="gray" stroke-width="0.2" points="160.89,-857.92 167.87,-865.89 167.38,-855.3 160.89,-857.92"/>
</g>
<!-- RIP -->
<g id="node45" class="node">
<title>RIP</title>
<ellipse fill="none" stroke="black" cx="32.6" cy="-492" rx="27" ry="18"/>
<text text-anchor="middle" x="32.6" y="-486.57" font-family="Times New Roman,serif" font-size="14.00">RIP</text>
</g>
<!-- RIP&#45;&gt;SMB -->
<g id="edge61" class="edge">
<title>RIP&#45;&gt;SMB</title>
<path fill="none" stroke="gray" stroke-width="2" d="M46.09,-507.81C54.92,-518.99 65.2,-532 65.2,-532 65.2,-532 128,-722.6 170.37,-851.18"/>
<polygon fill="gray" stroke="gray" stroke-width="2" points="167,-852.15 173.46,-860.55 173.65,-849.95 167,-852.15"/>
</g>
<!-- RIR -->
<g id="node46" class="node">
<title>RIR</title>
<ellipse fill="none" stroke="black" cx="32.6" cy="-413" rx="27" ry="18"/>
<text text-anchor="middle" x="32.6" y="-407.57" font-family="Times New Roman,serif" font-size="14.00">RIR</text>
</g>
<!-- RIR&#45;&gt;SMB -->
<g id="edge62" class="edge">
<title>RIR&#45;&gt;SMB</title>
<path fill="none" stroke="gray" stroke-width="0.2" d="M46.09,-428.81C54.92,-439.99 65.2,-453 65.2,-453 65.2,-453 134.31,-700.92 176.44,-852.07"/>
<polygon fill="gray" stroke="gray" stroke-width="0.2" points="173.04,-852.89 179.1,-861.59 179.78,-851.01 173.04,-852.89"/>
</g>
<!-- SDQ -->
<g id="node47" class="node">
<title>SDQ</title>
<ellipse fill="none" stroke="black" cx="32.6" cy="-334" rx="29.61" ry="18"/>
<text text-anchor="middle" x="32.6" y="-328.57" font-family="Times New Roman,serif" font-size="14.00">SDQ</text>
</g>
<!-- SDQ&#45;&gt;SMB -->
<g id="edge63" class="edge">
<title>SDQ&#45;&gt;SMB</title>
<path fill="none" stroke="gray" stroke-width="0.2" d="M46.45,-350.27C55.2,-361.34 65.2,-374 65.2,-374 65.2,-374 138.82,-678.78 180.42,-850.97"/>
<polygon fill="gray" stroke="gray" stroke-width="0.2" points="176.98,-851.65 182.73,-860.55 183.78,-850.01 176.98,-851.65"/>
</g>
<!-- URB -->
<g id="node48" class="node">
<title>URB</title>
<ellipse fill="none" stroke="black" cx="32.6" cy="-255" rx="29.61" ry="18"/>
<text text-anchor="middle" x="32.6" y="-249.57" font-family="Times New Roman,serif" font-size="14.00">URB</text>
</g>
<!-- URB&#45;&gt;SMB -->
<g id="edge64" class="edge">
<title>URB&#45;&gt;SMB</title>
<path fill="none" stroke="red" stroke-width="0.2" d="M46.45,-271.27C55.2,-282.34 65.2,-295 65.2,-295 65.2,-295 142.71,-658.7 183.6,-850.57"/>
<polygon fill="red" stroke="red" stroke-width="0.2" points="180.13,-851.07 185.64,-860.12 186.98,-849.61 180.13,-851.07"/>
</g>
<!-- URX -->
<g id="node49" class="node">
<title>URX</title>
<ellipse fill="none" stroke="black" cx="32.6" cy="-176" rx="30.11" ry="18"/>
<text text-anchor="middle" x="32.6" y="-170.57" font-family="Times New Roman,serif" font-size="14.00">URX</text>
</g>
<!-- URX&#45;&gt;SMB -->
<g id="edge65" class="edge">
<title>URX&#45;&gt;SMB</title>
<path fill="none" stroke="gray" stroke-width="2" d="M46.45,-192.27C55.2,-203.34 65.2,-216 65.2,-216 65.2,-216 145.19,-635.52 185.52,-847.04"/>
<polygon fill="gray" stroke="gray" stroke-width="2" points="182.06,-847.6 187.37,-856.76 188.94,-846.29 182.06,-847.6"/>
</g>
<!-- URY -->
<g id="node50" class="node">
<title>URY</title>
<ellipse fill="none" stroke="black" cx="32.6" cy="-97" rx="30.11" ry="18"/>
<text text-anchor="middle" x="32.6" y="-91.58" font-family="Times New Roman,serif" font-size="14.00">URY</text>
</g>
<!-- URY&#45;&gt;SMB -->
<g id="edge66" class="edge">
<title>URY&#45;&gt;SMB</title>
<path fill="none" stroke="gray" stroke-width="0.2" d="M46.45,-113.27C55.2,-124.34 65.2,-137 65.2,-137 65.2,-137 148.68,-620.92 188.07,-849.31"/>
<polygon fill="gray" stroke="gray" stroke-width="0.2" points="184.6,-849.76 189.75,-859.02 191.5,-848.57 184.6,-849.76"/>
</g>
<!-- VBn -->
<g id="node51" class="node">
<title>VBn</title>
<ellipse fill="none" stroke="black" cx="32.6" cy="-18" rx="27.61" ry="18"/>
<text text-anchor="middle" x="32.6" y="-12.57" font-family="Times New Roman,serif" font-size="14.00">VBn</text>
</g>
<!-- VBn&#45;&gt;SMB -->
<g id="edge67" class="edge">
<title>VBn&#45;&gt;SMB</title>
<path fill="none" stroke="gray" stroke-width="0.2" d="M46.09,-33.81C54.92,-44.99 65.2,-58 65.2,-58 65.2,-58 151.18,-603.91 189.8,-849.15"/>
<polygon fill="gray" stroke="gray" stroke-width="0.2" points="186.32,-849.54 191.33,-858.87 193.23,-848.45 186.32,-849.54"/>
</g>
</g>
</svg>
