<?xml version="1.0" encoding="UTF-8" standalone="no"?>
<!DOCTYPE svg PUBLIC "-//W3C//DTD SVG 1.1//EN"
 "http://www.w3.org/Graphics/SVG/1.1/DTD/svg11.dtd">
<!-- Generated by graphviz version 11.0.0 (20240428.1522)
 -->
<!-- Pages: 1 -->
<svg width="425pt" height="2256pt"
 viewBox="0.00 0.00 425.41 2256.00" xmlns="http://www.w3.org/2000/svg" xmlns:xlink="http://www.w3.org/1999/xlink">
<g id="graph0" class="graph" transform="scale(1 1) rotate(0) translate(4 2252)">
<polygon fill="white" stroke="none" points="-4,4 -4,-2252 421.41,-2252 421.41,4 -4,4"/>
<!-- SMD -->
<g id="node1" class="node">
<title>SMD</title>
<ellipse fill="none" stroke="black" cx="209.2" cy="-1084" rx="108" ry="108"/>
<text text-anchor="middle" x="209.2" y="-1065" font-family="Times New Roman,serif" font-size="50.00">SMD</text>
</g>
<!-- SMD&#45;&gt;SMD -->
<g id="edge1" class="edge">
<title>SMD&#45;&gt;SMD</title>
<path fill="none" stroke="black" stroke-width="5" d="M176.5,-1187.39C178.44,-1214.51 189.34,-1235 209.2,-1235 224.95,-1235 235.07,-1222.12 239.55,-1203.26"/>
<polygon fill="black" stroke="black" stroke-width="5" points="243.85,-1204.1 240.99,-1193.56 235.19,-1202.81 243.85,-1204.1"/>
</g>
<!-- AIB -->
<g id="node2" class="node">
<title>AIB</title>
<ellipse fill="none" stroke="black" cx="385.3" cy="-2230" rx="27" ry="18"/>
<text text-anchor="middle" x="385.3" y="-2224.57" font-family="Times New Roman,serif" font-size="14.00">AIB</text>
</g>
<!-- SMD&#45;&gt;AIB -->
<g id="edge2" class="edge">
<title>SMD&#45;&gt;AIB</title>
<path fill="none" stroke="gray" stroke-width="0.2" d="M225.4,-1191.09C262.23,-1465.25 353.2,-2169.5 353.2,-2169.5 353.2,-2169.5 366.15,-2185.74 375.34,-2203.04"/>
<polygon fill="gray" stroke="gray" stroke-width="0.2" points="372.09,-2204.34 379.58,-2211.83 378.39,-2201.3 372.09,-2204.34"/>
</g>
<!-- AIZ -->
<g id="node3" class="node">
<title>AIZ</title>
<ellipse fill="none" stroke="black" cx="385.3" cy="-2151" rx="27" ry="18"/>
<text text-anchor="middle" x="385.3" y="-2145.57" font-family="Times New Roman,serif" font-size="14.00">AIZ</text>
</g>
<!-- SMD&#45;&gt;AIZ -->
<g id="edge3" class="edge">
<title>SMD&#45;&gt;AIZ</title>
<path fill="none" stroke="gray" stroke-width="0.2" d="M226.61,-1190.99C264.17,-1450.45 353.2,-2090.5 353.2,-2090.5 353.2,-2090.5 366.15,-2106.74 375.34,-2124.04"/>
<polygon fill="gray" stroke="gray" stroke-width="0.2" points="372.09,-2125.34 379.58,-2132.83 378.39,-2122.3 372.09,-2125.34"/>
</g>
<!-- ALN -->
<g id="node4" class="node">
<title>ALN</title>
<ellipse fill="none" stroke="black" cx="385.3" cy="-2072" rx="29.11" ry="18"/>
<text text-anchor="middle" x="385.3" y="-2066.57" font-family="Times New Roman,serif" font-size="14.00">ALN</text>
</g>
<!-- SMD&#45;&gt;ALN -->
<g id="edge4" class="edge">
<title>SMD&#45;&gt;ALN</title>
<path fill="none" stroke="gray" stroke-width="5" d="M227.95,-1190.49C266.25,-1434.45 353.2,-2011.5 353.2,-2011.5 353.2,-2011.5 363.67,-2024.63 372.46,-2039.85"/>
<polygon fill="gray" stroke="gray" stroke-width="5" points="368.45,-2041.62 376.89,-2048.54 376.25,-2037.65 368.45,-2041.62"/>
</g>
<!-- ASG -->
<g id="node5" class="node">
<title>ASG</title>
<ellipse fill="none" stroke="black" cx="385.3" cy="-1993" rx="29.61" ry="18"/>
<text text-anchor="middle" x="385.3" y="-1987.58" font-family="Times New Roman,serif" font-size="14.00">ASG</text>
</g>
<!-- SMD&#45;&gt;ASG -->
<g id="edge5" class="edge">
<title>SMD&#45;&gt;ASG</title>
<path fill="none" stroke="gray" stroke-width="0.2" d="M227.74,-1190.68C265.92,-1422.99 353.2,-1954 353.2,-1954 353.2,-1954 358.58,-1960.75 364.87,-1968.63"/>
<polygon fill="gray" stroke="gray" stroke-width="0.2" points="362.13,-1970.81 371.11,-1976.45 367.61,-1966.45 362.13,-1970.81"/>
</g>
<!-- ASJ -->
<g id="node6" class="node">
<title>ASJ</title>
<ellipse fill="none" stroke="black" cx="385.3" cy="-1914" rx="27" ry="18"/>
<text text-anchor="middle" x="385.3" y="-1908.58" font-family="Times New Roman,serif" font-size="14.00">ASJ</text>
</g>
<!-- SMD&#45;&gt;ASJ -->
<g id="edge6" class="edge">
<title>SMD&#45;&gt;ASJ</title>
<path fill="none" stroke="gray" stroke-width="0.2" d="M229.41,-1190.27C268.41,-1405.99 353.2,-1875 353.2,-1875 353.2,-1875 358.85,-1882.09 365.34,-1890.22"/>
<polygon fill="gray" stroke="gray" stroke-width="0.2" points="362.49,-1892.26 371.47,-1897.9 367.97,-1887.9 362.49,-1892.26"/>
</g>
<!-- AVA -->
<g id="node7" class="node">
<title>AVA</title>
<ellipse fill="none" stroke="black" cx="385.3" cy="-1835" rx="30.11" ry="18"/>
<text text-anchor="middle" x="385.3" y="-1829.58" font-family="Times New Roman,serif" font-size="14.00">AVA</text>
</g>
<!-- SMD&#45;&gt;AVA -->
<g id="edge7" class="edge">
<title>SMD&#45;&gt;AVA</title>
<path fill="none" stroke="gray" stroke-width="0.2" d="M233.98,-1189.63C274.64,-1383.33 353.2,-1774.5 353.2,-1774.5 353.2,-1774.5 366.15,-1790.74 375.34,-1808.04"/>
<polygon fill="gray" stroke="gray" stroke-width="0.2" points="372.09,-1809.34 379.58,-1816.83 378.39,-1806.3 372.09,-1809.34"/>
</g>
<!-- AVE -->
<g id="node8" class="node">
<title>AVE</title>
<ellipse fill="none" stroke="black" cx="385.3" cy="-1756" rx="29.11" ry="18"/>
<text text-anchor="middle" x="385.3" y="-1750.58" font-family="Times New Roman,serif" font-size="14.00">AVE</text>
</g>
<!-- SMD&#45;&gt;AVE -->
<g id="edge8" class="edge">
<title>SMD&#45;&gt;AVE</title>
<path fill="none" stroke="gray" stroke-width="0.2" d="M234.06,-1189.59C274.74,-1369.69 353.2,-1717 353.2,-1717 353.2,-1717 358.85,-1724.09 365.34,-1732.22"/>
<polygon fill="gray" stroke="gray" stroke-width="0.2" points="362.49,-1734.26 371.47,-1739.9 367.97,-1729.9 362.49,-1734.26"/>
</g>
<!-- CEP -->
<g id="node9" class="node">
<title>CEP</title>
<ellipse fill="none" stroke="black" cx="385.3" cy="-1677" rx="28.11" ry="18"/>
<text text-anchor="middle" x="385.3" y="-1671.58" font-family="Times New Roman,serif" font-size="14.00">CEP</text>
</g>
<!-- SMD&#45;&gt;CEP -->
<g id="edge9" class="edge">
<title>SMD&#45;&gt;CEP</title>
<path fill="none" stroke="black" stroke-width="5" d="M240.62,-1187.79C282.6,-1342.99 353.2,-1616.5 353.2,-1616.5 353.2,-1616.5 363.67,-1629.63 372.46,-1644.85"/>
<polygon fill="black" stroke="black" stroke-width="5" points="368.45,-1646.62 376.89,-1653.54 376.25,-1642.65 368.45,-1646.62"/>
</g>
<!-- IL1 -->
<g id="node10" class="node">
<title>IL1</title>
<ellipse fill="none" stroke="black" cx="385.3" cy="-1598" rx="27" ry="18"/>
<text text-anchor="middle" x="385.3" y="-1592.58" font-family="Times New Roman,serif" font-size="14.00">IL1</text>
</g>
<!-- SMD&#45;&gt;IL1 -->
<g id="edge10" class="edge">
<title>SMD&#45;&gt;IL1</title>
<path fill="none" stroke="blue" stroke-width="2" d="M245.46,-1186.26C287.8,-1320.26 353.2,-1537.5 353.2,-1537.5 353.2,-1537.5 364.99,-1552.29 374.06,-1568.67"/>
<polygon fill="blue" stroke="blue" stroke-width="2" points="370.8,-1569.98 378.37,-1577.39 377.07,-1566.87 370.8,-1569.98"/>
</g>
<!-- IL2 -->
<g id="node11" class="node">
<title>IL2</title>
<ellipse fill="none" stroke="black" cx="385.3" cy="-1519" rx="27" ry="18"/>
<text text-anchor="middle" x="385.3" y="-1513.58" font-family="Times New Roman,serif" font-size="14.00">IL2</text>
</g>
<!-- SMD&#45;&gt;IL2 -->
<g id="edge11" class="edge">
<title>SMD&#45;&gt;IL2</title>
<path fill="none" stroke="gray" stroke-width="0.2" d="M246.94,-1185.72C289.3,-1303.05 353.2,-1480 353.2,-1480 353.2,-1480 358.85,-1487.09 365.34,-1495.22"/>
<polygon fill="gray" stroke="gray" stroke-width="0.2" points="362.49,-1497.26 371.47,-1502.9 367.97,-1492.9 362.49,-1497.26"/>
</g>
<!-- OLL -->
<g id="node12" class="node">
<title>OLL</title>
<ellipse fill="none" stroke="black" cx="385.3" cy="-1440" rx="28.61" ry="18"/>
<text text-anchor="middle" x="385.3" y="-1434.58" font-family="Times New Roman,serif" font-size="14.00">OLL</text>
</g>
<!-- SMD&#45;&gt;OLL -->
<g id="edge12" class="edge">
<title>SMD&#45;&gt;OLL</title>
<path fill="none" stroke="gray" stroke-width="0.2" d="M260.82,-1179.32C301.96,-1265.9 353.2,-1379.5 353.2,-1379.5 353.2,-1379.5 366.15,-1395.74 375.34,-1413.04"/>
<polygon fill="gray" stroke="gray" stroke-width="0.2" points="372.09,-1414.34 379.58,-1421.83 378.39,-1411.3 372.09,-1414.34"/>
</g>
<!-- PLN -->
<g id="node13" class="node">
<title>PLN</title>
<ellipse fill="none" stroke="black" cx="385.3" cy="-1361" rx="28.11" ry="18"/>
<text text-anchor="middle" x="385.3" y="-1355.58" font-family="Times New Roman,serif" font-size="14.00">PLN</text>
</g>
<!-- SMD&#45;&gt;PLN -->
<g id="edge13" class="edge">
<title>SMD&#45;&gt;PLN</title>
<path fill="none" stroke="blue" stroke-width="0.2" d="M273.55,-1171.28C311.8,-1231.59 353.2,-1300.5 353.2,-1300.5 353.2,-1300.5 366.15,-1316.74 375.34,-1334.04"/>
<polygon fill="blue" stroke="blue" stroke-width="0.2" points="372.09,-1335.34 379.58,-1342.83 378.39,-1332.3 372.09,-1335.34"/>
</g>
<!-- PVR -->
<g id="node14" class="node">
<title>PVR</title>
<ellipse fill="none" stroke="black" cx="385.3" cy="-1282" rx="29.11" ry="18"/>
<text text-anchor="middle" x="385.3" y="-1276.58" font-family="Times New Roman,serif" font-size="14.00">PVR</text>
</g>
<!-- SMD&#45;&gt;PVR -->
<g id="edge14" class="edge">
<title>SMD&#45;&gt;PVR</title>
<path fill="none" stroke="gray" stroke-width="0.2" d="M281.27,-1164.82C311.04,-1198.68 343.4,-1235.48 363.76,-1258.63"/>
<polygon fill="gray" stroke="gray" stroke-width="0.2" points="361,-1260.8 370.23,-1266 366.26,-1256.18 361,-1260.8"/>
</g>
<!-- RIA -->
<g id="node15" class="node">
<title>RIA</title>
<ellipse fill="none" stroke="black" cx="385.3" cy="-1203" rx="27" ry="18"/>
<text text-anchor="middle" x="385.3" y="-1197.58" font-family="Times New Roman,serif" font-size="14.00">RIA</text>
</g>
<!-- SMD&#45;&gt;RIA -->
<g id="edge15" class="edge">
<title>SMD&#45;&gt;RIA</title>
<path fill="none" stroke="black" stroke-width="5" d="M305.66,-1133.19C326.27,-1147.61 346.26,-1162.81 360.92,-1175.6"/>
<polygon fill="black" stroke="black" stroke-width="5" points="357.87,-1178.74 368.18,-1182.33 363.82,-1172.32 357.87,-1178.74"/>
</g>
<!-- RIB -->
<g id="node16" class="node">
<title>RIB</title>
<ellipse fill="none" stroke="black" cx="385.3" cy="-1124" rx="27" ry="18"/>
<text text-anchor="middle" x="385.3" y="-1118.58" font-family="Times New Roman,serif" font-size="14.00">RIB</text>
</g>
<!-- SMD&#45;&gt;RIB -->
<g id="edge16" class="edge">
<title>SMD&#45;&gt;RIB</title>
<path fill="none" stroke="gray" stroke-width="0.2" d="M316.99,-1092.78C332.24,-1096.87 346.63,-1101.46 358.16,-1106.08"/>
<polygon fill="gray" stroke="gray" stroke-width="0.2" points="356.66,-1109.24 367.23,-1110.01 359.45,-1102.82 356.66,-1109.24"/>
</g>
<!-- RIC -->
<g id="node17" class="node">
<title>RIC</title>
<ellipse fill="none" stroke="black" cx="385.3" cy="-1045" rx="27" ry="18"/>
<text text-anchor="middle" x="385.3" y="-1039.58" font-family="Times New Roman,serif" font-size="14.00">RIC</text>
</g>
<!-- SMD&#45;&gt;RIC -->
<g id="edge17" class="edge">
<title>SMD&#45;&gt;RIC</title>
<path fill="none" stroke="blue" stroke-width="2" d="M310.47,-1045.58C323.33,-1043.03 335.8,-1041.04 346.71,-1039.88"/>
<polygon fill="blue" stroke="blue" stroke-width="2" points="346.91,-1043.37 356.6,-1039.1 346.36,-1036.39 346.91,-1043.37"/>
</g>
<!-- RIM -->
<g id="node18" class="node">
<title>RIM</title>
<ellipse fill="none" stroke="black" cx="385.3" cy="-966" rx="28.11" ry="18"/>
<text text-anchor="middle" x="385.3" y="-960.58" font-family="Times New Roman,serif" font-size="14.00">RIM</text>
</g>
<!-- SMD&#45;&gt;RIM -->
<g id="edge18" class="edge">
<title>SMD&#45;&gt;RIM</title>
<path fill="none" stroke="gray" stroke-width="2" d="M291.14,-1013.06C310.72,-999.56 330.71,-986.87 347.13,-977.7"/>
<polygon fill="gray" stroke="gray" stroke-width="2" points="348.56,-980.91 355.73,-973.11 345.26,-974.73 348.56,-980.91"/>
</g>
<!-- RIS -->
<g id="node19" class="node">
<title>RIS</title>
<ellipse fill="none" stroke="black" cx="385.3" cy="-887" rx="27" ry="18"/>
<text text-anchor="middle" x="385.3" y="-881.58" font-family="Times New Roman,serif" font-size="14.00">RIS</text>
</g>
<!-- SMD&#45;&gt;RIS -->
<g id="edge19" class="edge">
<title>SMD&#45;&gt;RIS</title>
<path fill="none" stroke="black" stroke-width="2" d="M273.55,-996.74C301.5,-963.8 332.98,-929.25 355.21,-907.53"/>
<polygon fill="black" stroke="black" stroke-width="2" points="357.39,-910.28 362.24,-900.86 352.57,-905.2 357.39,-910.28"/>
</g>
<!-- RIV -->
<g id="node20" class="node">
<title>RIV</title>
<ellipse fill="none" stroke="black" cx="385.3" cy="-808" rx="27" ry="18"/>
<text text-anchor="middle" x="385.3" y="-802.58" font-family="Times New Roman,serif" font-size="14.00">RIV</text>
</g>
<!-- SMD&#45;&gt;RIV -->
<g id="edge20" class="edge">
<title>SMD&#45;&gt;RIV</title>
<path fill="none" stroke="gray" stroke-width="0.2" d="M258.62,-987.47C300.1,-914.14 353.2,-826.5 353.2,-826.5 353.2,-826.5 353.78,-825.75 354.78,-824.52"/>
<polygon fill="gray" stroke="gray" stroke-width="0.2" points="357.34,-826.91 361.18,-817.04 352.02,-822.37 357.34,-826.91"/>
</g>
<!-- RMD -->
<g id="node21" class="node">
<title>RMD</title>
<ellipse fill="none" stroke="black" cx="385.3" cy="-729" rx="31.6" ry="18"/>
<text text-anchor="middle" x="385.3" y="-723.58" font-family="Times New Roman,serif" font-size="14.00">RMD</text>
</g>
<!-- SMD&#45;&gt;RMD -->
<g id="edge21" class="edge">
<title>SMD&#45;&gt;RMD</title>
<path fill="none" stroke="black" stroke-width="5" d="M248.9,-983.39C284.05,-900.86 332.71,-792.81 351.84,-754.14"/>
<polygon fill="black" stroke="black" stroke-width="5" points="355.64,-756.29 356.54,-745.42 347.94,-752.14 355.64,-756.29"/>
</g>
<!-- RME -->
<g id="node22" class="node">
<title>RME</title>
<ellipse fill="none" stroke="black" cx="385.3" cy="-650" rx="30.61" ry="18"/>
<text text-anchor="middle" x="385.3" y="-644.58" font-family="Times New Roman,serif" font-size="14.00">RME</text>
</g>
<!-- SMD&#45;&gt;RME -->
<g id="edge22" class="edge">
<title>SMD&#45;&gt;RME</title>
<path fill="none" stroke="gray" stroke-width="5" d="M242.38,-980.98C278.29,-875.96 333.41,-723.2 353.05,-675.28"/>
<polygon fill="gray" stroke="gray" stroke-width="5" points="357,-677.16 357.2,-666.25 349.05,-673.51 357,-677.16"/>
</g>
<!-- RMF -->
<g id="node23" class="node">
<title>RMF</title>
<ellipse fill="none" stroke="black" cx="385.3" cy="-571" rx="30.61" ry="18"/>
<text text-anchor="middle" x="385.3" y="-565.58" font-family="Times New Roman,serif" font-size="14.00">RMF</text>
</g>
<!-- SMD&#45;&gt;RMF -->
<g id="edge23" class="edge">
<title>SMD&#45;&gt;RMF</title>
<path fill="none" stroke="gray" stroke-width="0.2" d="M237.69,-979.58C279.23,-834.18 353.2,-589.5 353.2,-589.5 353.2,-589.5 353.24,-589.44 353.33,-589.34"/>
<polygon fill="gray" stroke="gray" stroke-width="0.2" points="355.89,-591.73 359.6,-581.81 350.51,-587.25 355.89,-591.73"/>
</g>
<!-- RMG -->
<g id="node24" class="node">
<title>RMG</title>
<ellipse fill="none" stroke="black" cx="385.3" cy="-492" rx="32.1" ry="18"/>
<text text-anchor="middle" x="385.3" y="-486.57" font-family="Times New Roman,serif" font-size="14.00">RMG</text>
</g>
<!-- SMD&#45;&gt;RMG -->
<g id="edge24" class="edge">
<title>SMD&#45;&gt;RMG</title>
<path fill="none" stroke="gray" stroke-width="nan" d="M234.22,-978.5C274.95,-812.57 353.2,-510.5 353.2,-510.5 353.2,-510.5 355.8,-507.16 359.5,-502.92"/>
<polygon fill="gray" stroke="gray" stroke-width="nan" points="nan,-nan nan,-nan nan,-nan nan,-nan"/>
</g>
<!-- SAA -->
<g id="node25" class="node">
<title>SAA</title>
<ellipse fill="none" stroke="black" cx="385.3" cy="-413" rx="29.11" ry="18"/>
<text text-anchor="middle" x="385.3" y="-407.57" font-family="Times New Roman,serif" font-size="14.00">SAA</text>
</g>
<!-- SMD&#45;&gt;SAA -->
<g id="edge25" class="edge">
<title>SMD&#45;&gt;SAA</title>
<path fill="none" stroke="gray" stroke-width="nan" d="M231.46,-977.89C271.29,-792.51 353.2,-430.5 353.2,-430.5 353.2,-430.5 356.09,-426.88 360.1,-422.45"/>
<polygon fill="gray" stroke="gray" stroke-width="nan" points="nan,-nan nan,-nan nan,-nan nan,-nan"/>
</g>
<!-- SIA -->
<g id="node26" class="node">
<title>SIA</title>
<ellipse fill="none" stroke="black" cx="385.3" cy="-334" rx="27" ry="18"/>
<text text-anchor="middle" x="385.3" y="-328.57" font-family="Times New Roman,serif" font-size="14.00">SIA</text>
</g>
<!-- SMD&#45;&gt;SIA -->
<g id="edge26" class="edge">
<title>SMD&#45;&gt;SIA</title>
<path fill="none" stroke="gray" stroke-width="0.2" d="M231.53,-977.94C271.4,-779.74 353.2,-373 353.2,-373 353.2,-373 358.85,-365.91 365.34,-357.78"/>
<polygon fill="gray" stroke="gray" stroke-width="0.2" points="367.97,-360.1 371.47,-350.1 362.49,-355.74 367.97,-360.1"/>
</g>
<!-- SIB -->
<g id="node27" class="node">
<title>SIB</title>
<ellipse fill="none" stroke="black" cx="385.3" cy="-255" rx="27" ry="18"/>
<text text-anchor="middle" x="385.3" y="-249.57" font-family="Times New Roman,serif" font-size="14.00">SIB</text>
</g>
<!-- SMD&#45;&gt;SIB -->
<g id="edge27" class="edge">
<title>SMD&#45;&gt;SIB</title>
<path fill="none" stroke="gray" stroke-width="0.2" d="M229.49,-977.46C268.52,-761.82 353.2,-294 353.2,-294 353.2,-294 358.85,-286.91 365.34,-278.78"/>
<polygon fill="gray" stroke="gray" stroke-width="0.2" points="367.97,-281.1 371.47,-271.1 362.49,-276.74 367.97,-281.1"/>
</g>
<!-- URB -->
<g id="node28" class="node">
<title>URB</title>
<ellipse fill="none" stroke="black" cx="385.3" cy="-176" rx="29.61" ry="18"/>
<text text-anchor="middle" x="385.3" y="-170.57" font-family="Times New Roman,serif" font-size="14.00">URB</text>
</g>
<!-- SMD&#45;&gt;URB -->
<g id="edge28" class="edge">
<title>SMD&#45;&gt;URB</title>
<path fill="none" stroke="gray" stroke-width="0.2" d="M226.05,-976.9C260.59,-757.05 340.48,-270.86 357.11,-195.58"/>
<polygon fill="gray" stroke="gray" stroke-width="0.2" points="360.45,-196.65 359.72,-186.08 353.7,-194.8 360.45,-196.65"/>
</g>
<!-- URY -->
<g id="node29" class="node">
<title>URY</title>
<ellipse fill="none" stroke="black" cx="385.3" cy="-97" rx="30.11" ry="18"/>
<text text-anchor="middle" x="385.3" y="-91.58" font-family="Times New Roman,serif" font-size="14.00">URY</text>
</g>
<!-- SMD&#45;&gt;URY -->
<g id="edge29" class="edge">
<title>SMD&#45;&gt;URY</title>
<path fill="none" stroke="gray" stroke-width="0.2" d="M224.77,-977.04C258.68,-741.89 340.88,-196.24 357.29,-116.51"/>
<polygon fill="gray" stroke="gray" stroke-width="0.2" points="360.62,-117.64 359.72,-107.08 353.84,-115.89 360.62,-117.64"/>
</g>
<!-- VBn -->
<g id="node30" class="node">
<title>VBn</title>
<ellipse fill="none" stroke="black" cx="385.3" cy="-18" rx="27.61" ry="18"/>
<text text-anchor="middle" x="385.3" y="-12.57" font-family="Times New Roman,serif" font-size="14.00">VBn</text>
</g>
<!-- SMD&#45;&gt;VBn -->
<g id="edge30" class="edge">
<title>SMD&#45;&gt;VBn</title>
<path fill="none" stroke="gray" stroke-width="0.2" d="M225.1,-977C261.73,-713.96 353.2,-57 353.2,-57 353.2,-57 358.85,-49.91 365.34,-41.78"/>
<polygon fill="gray" stroke="gray" stroke-width="0.2" points="367.97,-44.1 371.47,-34.1 362.49,-39.74 367.97,-44.1"/>
</g>
<!-- AIB&#45;&gt;SMD -->
<g id="edge31" class="edge">
<title>AIB&#45;&gt;SMD</title>
<path fill="none" stroke="black" stroke-width="5" d="M361.05,-2221.58C356.55,-2216.7 353.2,-2212.5 353.2,-2212.5 353.2,-2212.5 261.19,-1500.23 224.78,-1207.27"/>
<polygon fill="black" stroke="black" stroke-width="5" points="229.17,-1207.11 223.6,-1197.72 220.49,-1208.19 229.17,-1207.11"/>
</g>
<!-- AIZ&#45;&gt;SMD -->
<g id="edge32" class="edge">
<title>AIZ&#45;&gt;SMD</title>
<path fill="none" stroke="gray" stroke-width="2" d="M361.05,-2142.58C356.55,-2137.7 353.2,-2133.5 353.2,-2133.5 353.2,-2133.5 262.28,-1479.85 225.43,-1204.09"/>
<polygon fill="gray" stroke="gray" stroke-width="2" points="228.91,-1203.7 224.12,-1194.25 221.97,-1204.62 228.91,-1203.7"/>
</g>
<!-- ALN&#45;&gt;SMD -->
<g id="edge33" class="edge">
<title>ALN&#45;&gt;SMD</title>
<path fill="none" stroke="gray" stroke-width="2" d="M360.1,-2062.55C356.09,-2058.12 353.2,-2054.5 353.2,-2054.5 353.2,-2054.5 264.2,-1463.84 226.63,-1203.93"/>
<polygon fill="gray" stroke="gray" stroke-width="2" points="230.09,-1203.45 225.2,-1194.05 223.16,-1204.45 230.09,-1203.45"/>
</g>
<!-- AVA&#45;&gt;SMD -->
<g id="edge34" class="edge">
<title>AVA&#45;&gt;SMD</title>
<path fill="none" stroke="gray" stroke-width="2" d="M359.8,-1825.21C355.94,-1820.94 353.2,-1817.5 353.2,-1817.5 353.2,-1817.5 271.57,-1411.04 231.66,-1203.06"/>
<polygon fill="gray" stroke="gray" stroke-width="2" points="235.15,-1202.7 229.83,-1193.54 228.28,-1204.02 235.15,-1202.7"/>
</g>
<!-- CEP&#45;&gt;SMD -->
<g id="edge35" class="edge">
<title>CEP&#45;&gt;SMD</title>
<path fill="none" stroke="gray" stroke-width="2" d="M360.42,-1667.89C356.24,-1663.31 353.2,-1659.5 353.2,-1659.5 353.2,-1659.5 278.62,-1370.58 237.18,-1201.94"/>
<polygon fill="gray" stroke="gray" stroke-width="2" points="240.64,-1201.33 234.86,-1192.45 233.84,-1202.99 240.64,-1201.33"/>
</g>
<!-- IL1&#45;&gt;SMD -->
<g id="edge36" class="edge">
<title>IL1&#45;&gt;SMD</title>
<path fill="none" stroke="blue" stroke-width="0.2" d="M361.05,-1589.58C356.55,-1584.7 353.2,-1580.5 353.2,-1580.5 353.2,-1580.5 282.28,-1344.91 240.33,-1198.05"/>
<polygon fill="blue" stroke="blue" stroke-width="0.2" points="243.8,-1197.46 237.69,-1188.8 237.06,-1199.37 243.8,-1197.46"/>
</g>
<!-- OLL&#45;&gt;SMD -->
<g id="edge37" class="edge">
<title>OLL&#45;&gt;SMD</title>
<path fill="none" stroke="black" stroke-width="5" d="M360.42,-1430.89C356.24,-1426.31 353.2,-1422.5 353.2,-1422.5 353.2,-1422.5 296.99,-1297.88 255.05,-1199.61"/>
<polygon fill="black" stroke="black" stroke-width="5" points="259.09,-1197.94 251.15,-1190.45 251.04,-1201.36 259.09,-1197.94"/>
</g>
<!-- PLN&#45;&gt;SMD -->
<g id="edge38" class="edge">
<title>PLN&#45;&gt;SMD</title>
<path fill="none" stroke="gray" stroke-width="0.2" d="M360.42,-1351.89C356.24,-1347.31 353.2,-1343.5 353.2,-1343.5 353.2,-1343.5 303.85,-1261.37 263.14,-1189.24"/>
<polygon fill="gray" stroke="gray" stroke-width="0.2" points="266.32,-1187.76 258.37,-1180.76 260.22,-1191.2 266.32,-1187.76"/>
</g>
<!-- RIA&#45;&gt;SMD -->
<g id="edge39" class="edge">
<title>RIA&#45;&gt;SMD</title>
<path fill="none" stroke="black" stroke-width="5" d="M359.1,-1197.52C344.27,-1190.01 324.51,-1177.94 304.23,-1164.35"/>
<polygon fill="black" stroke="black" stroke-width="5" points="306.76,-1160.78 296.03,-1158.75 301.82,-1168 306.76,-1160.78"/>
</g>
<!-- RIB&#45;&gt;SMD -->
<g id="edge40" class="edge">
<title>RIB&#45;&gt;SMD</title>
<path fill="none" stroke="red" stroke-width="2" d="M359.52,-1129.98C349.25,-1129.46 336.56,-1127.82 322.94,-1125.39"/>
<polygon fill="red" stroke="red" stroke-width="2" points="323.67,-1121.96 313.19,-1123.51 322.35,-1128.84 323.67,-1121.96"/>
</g>
<!-- RIC&#45;&gt;SMD -->
<g id="edge41" class="edge">
<title>RIC&#45;&gt;SMD</title>
<path fill="none" stroke="black" stroke-width="5" d="M367.24,-1058.9C358.05,-1063.18 345.81,-1067.53 332.21,-1071.58"/>
<polygon fill="black" stroke="black" stroke-width="5" points="331.45,-1067.25 323,-1074.15 333.81,-1075.67 331.45,-1067.25"/>
</g>
<!-- RIM&#45;&gt;SMD -->
<g id="edge42" class="edge">
<title>RIM&#45;&gt;SMD</title>
<path fill="none" stroke="black" stroke-width="5" d="M372.8,-982.32C360.87,-994.23 340.92,-1010.14 319,-1025.93"/>
<polygon fill="black" stroke="black" stroke-width="5" points="316.64,-1022.24 311,-1031.58 321.69,-1029.38 316.64,-1022.24"/>
</g>
<!-- RIS&#45;&gt;SMD -->
<g id="edge43" class="edge">
<title>RIS&#45;&gt;SMD</title>
<path fill="none" stroke="black" stroke-width="5" d="M375.66,-904.31C361.19,-926.28 330.59,-963.76 299.6,-998.96"/>
<polygon fill="black" stroke="black" stroke-width="5" points="296.61,-995.74 293.24,-1006.12 303.16,-1001.55 296.61,-995.74"/>
</g>
<!-- RIV&#45;&gt;SMD -->
<g id="edge44" class="edge">
<title>RIV&#45;&gt;SMD</title>
<path fill="none" stroke="black" stroke-width="5" d="M379.71,-826.05C371.06,-846.53 353.2,-869.5 353.2,-869.5 353.2,-869.5 317.97,-927.64 282.49,-983.58"/>
<polygon fill="black" stroke="black" stroke-width="5" points="279,-980.91 277.32,-991.69 286.38,-985.61 279,-980.91"/>
</g>
<!-- RMD&#45;&gt;SMD -->
<g id="edge45" class="edge">
<title>RMD&#45;&gt;SMD</title>
<path fill="none" stroke="gray" stroke-width="2" d="M379.71,-747.05C371.06,-767.53 353.2,-790.5 353.2,-790.5 353.2,-790.5 306.61,-893.13 266.62,-977.23"/>
<polygon fill="gray" stroke="gray" stroke-width="2" points="263.47,-975.7 262.32,-986.23 269.79,-978.71 263.47,-975.7"/>
</g>
<!-- RME&#45;&gt;SMD -->
<g id="edge46" class="edge">
<title>RME&#45;&gt;SMD</title>
<path fill="none" stroke="gray" stroke-width="2" d="M379.71,-668.05C371.06,-688.53 353.2,-711.5 353.2,-711.5 353.2,-711.5 298.32,-862.72 256.55,-972.68"/>
<polygon fill="gray" stroke="gray" stroke-width="2" points="253.41,-971.1 253.12,-981.69 259.95,-973.59 253.41,-971.1"/>
</g>
<!-- RMF&#45;&gt;SMD -->
<g id="edge47" class="edge">
<title>RMF&#45;&gt;SMD</title>
<path fill="none" stroke="gray" stroke-width="0.2" d="M379.71,-589.05C371.06,-609.53 353.2,-632.5 353.2,-632.5 353.2,-632.5 290.92,-838.5 248.56,-972.43"/>
<polygon fill="gray" stroke="gray" stroke-width="0.2" points="245.33,-971.06 245.64,-981.65 252,-973.18 245.33,-971.06"/>
</g>
<!-- RMG&#45;&gt;SMD -->
<g id="edge48" class="edge">
<title>RMG&#45;&gt;SMD</title>
<path fill="none" stroke="gray" stroke-width="2" d="M379.71,-510.05C371.06,-530.53 353.2,-553.5 353.2,-553.5 353.2,-553.5 286.37,-811.48 244.08,-967.84"/>
<polygon fill="gray" stroke="gray" stroke-width="2" points="240.73,-966.83 241.5,-977.39 247.49,-968.66 240.73,-966.83"/>
</g>
<!-- SAA&#45;&gt;SMD -->
<g id="edge49" class="edge">
<title>SAA&#45;&gt;SMD</title>
<path fill="none" stroke="black" stroke-width="5" d="M379.71,-430.9C371.06,-451.1 353.2,-473.5 353.2,-473.5 353.2,-473.5 282.64,-785.34 240.65,-963.47"/>
<polygon fill="black" stroke="black" stroke-width="5" points="236.41,-962.41 238.37,-973.15 244.92,-964.42 236.41,-962.41"/>
</g>
<!-- URB&#45;&gt;SMD -->
<g id="edge50" class="edge">
<title>URB&#45;&gt;SMD</title>
<path fill="none" stroke="gray" stroke-width="0.2" d="M379.71,-193.9C371.06,-214.1 353.2,-236.5 353.2,-236.5 353.2,-236.5 271.11,-735.36 231.32,-967.79"/>
<polygon fill="gray" stroke="gray" stroke-width="0.2" points="227.93,-966.89 229.69,-977.34 234.83,-968.07 227.93,-966.89"/>
</g>
<!-- URY&#45;&gt;SMD -->
<g id="edge51" class="edge">
<title>URY&#45;&gt;SMD</title>
<path fill="none" stroke="gray" stroke-width="5" d="M379.71,-114.9C371.06,-135.1 353.2,-157.5 353.2,-157.5 353.2,-157.5 269.97,-709.3 230.5,-961.38"/>
<polygon fill="gray" stroke="gray" stroke-width="5" points="226.22,-960.46 228.99,-971.01 234.86,-961.81 226.22,-960.46"/>
</g>
<!-- ADA -->
<g id="node31" class="node">
<title>ADA</title>
<ellipse fill="none" stroke="black" cx="32.6" cy="-1677" rx="30.11" ry="18"/>
<text text-anchor="middle" x="32.6" y="-1671.58" font-family="Times New Roman,serif" font-size="14.00">ADA</text>
</g>
<!-- ADA&#45;&gt;SMD -->
<g id="edge52" class="edge">
<title>ADA&#45;&gt;SMD</title>
<path fill="none" stroke="gray" stroke-width="5" d="M46.82,-1660.69C55.48,-1650 65.2,-1638 65.2,-1638 65.2,-1638 135.19,-1366.85 177.24,-1203.94"/>
<polygon fill="gray" stroke="gray" stroke-width="5" points="181.4,-1205.34 179.66,-1194.57 172.93,-1203.16 181.4,-1205.34"/>
</g>
<!-- ADE -->
<g id="node32" class="node">
<title>ADE</title>
<ellipse fill="none" stroke="black" cx="32.6" cy="-1598" rx="29.11" ry="18"/>
<text text-anchor="middle" x="32.6" y="-1592.58" font-family="Times New Roman,serif" font-size="14.00">ADE</text>
</g>
<!-- ADE&#45;&gt;SMD -->
<g id="edge53" class="edge">
<title>ADE&#45;&gt;SMD</title>
<path fill="none" stroke="gray" stroke-width="0.2" d="M46.45,-1582.14C55.2,-1571.34 65.2,-1559 65.2,-1559 65.2,-1559 131.92,-1337.39 174.21,-1196.91"/>
<polygon fill="gray" stroke="gray" stroke-width="0.2" points="177.47,-1198.24 177,-1187.65 170.76,-1196.22 177.47,-1198.24"/>
</g>
<!-- ADF -->
<g id="node33" class="node">
<title>ADF</title>
<ellipse fill="none" stroke="black" cx="32.6" cy="-1519" rx="29.11" ry="18"/>
<text text-anchor="middle" x="32.6" y="-1513.58" font-family="Times New Roman,serif" font-size="14.00">ADF</text>
</g>
<!-- ADF&#45;&gt;SMD -->
<g id="edge54" class="edge">
<title>ADF&#45;&gt;SMD</title>
<path fill="none" stroke="gray" stroke-width="0.2" d="M46.45,-1503.14C55.2,-1492.34 65.2,-1480 65.2,-1480 65.2,-1480 125.77,-1312.26 168.07,-1195.12"/>
<polygon fill="gray" stroke="gray" stroke-width="0.2" points="171.26,-1196.6 171.37,-1186.01 164.68,-1194.22 171.26,-1196.6"/>
</g>
<!-- ADL -->
<g id="node34" class="node">
<title>ADL</title>
<ellipse fill="none" stroke="black" cx="32.6" cy="-1440" rx="29.11" ry="18"/>
<text text-anchor="middle" x="32.6" y="-1434.58" font-family="Times New Roman,serif" font-size="14.00">ADL</text>
</g>
<!-- ADL&#45;&gt;SMD -->
<g id="edge55" class="edge">
<title>ADL&#45;&gt;SMD</title>
<path fill="none" stroke="blue" stroke-width="2" d="M46.45,-1424.14C55.2,-1413.34 65.2,-1401 65.2,-1401 65.2,-1401 117.38,-1285.34 158.7,-1193.74"/>
<polygon fill="blue" stroke="blue" stroke-width="2" points="161.77,-1195.44 162.69,-1184.89 155.39,-1192.57 161.77,-1195.44"/>
</g>
<!-- ALM -->
<g id="node35" class="node">
<title>ALM</title>
<ellipse fill="none" stroke="black" cx="32.6" cy="-1361" rx="30.61" ry="18"/>
<text text-anchor="middle" x="32.6" y="-1355.58" font-family="Times New Roman,serif" font-size="14.00">ALM</text>
</g>
<!-- ALM&#45;&gt;SMD -->
<g id="edge56" class="edge">
<title>ALM&#45;&gt;SMD</title>
<path fill="none" stroke="gray" stroke-width="0.2" d="M46.82,-1344.69C55.48,-1334 65.2,-1322 65.2,-1322 65.2,-1322 108.54,-1249.88 147.49,-1185.04"/>
<polygon fill="gray" stroke="gray" stroke-width="0.2" points="150.4,-1186.99 152.55,-1176.62 144.4,-1183.39 150.4,-1186.99"/>
</g>
<!-- ASK -->
<g id="node36" class="node">
<title>ASK</title>
<ellipse fill="none" stroke="black" cx="32.6" cy="-1282" rx="29.11" ry="18"/>
<text text-anchor="middle" x="32.6" y="-1276.58" font-family="Times New Roman,serif" font-size="14.00">ASK</text>
</g>
<!-- ASK&#45;&gt;SMD -->
<g id="edge57" class="edge">
<title>ASK&#45;&gt;SMD</title>
<path fill="none" stroke="gray" stroke-width="0.2" d="M47.59,-1266.13C65.8,-1245.48 99.02,-1207.81 130.54,-1172.06"/>
<polygon fill="gray" stroke="gray" stroke-width="0.2" points="133.05,-1174.52 137.04,-1164.7 127.8,-1169.89 133.05,-1174.52"/>
</g>
<!-- AVF -->
<g id="node37" class="node">
<title>AVF</title>
<ellipse fill="none" stroke="black" cx="32.6" cy="-1203" rx="29.11" ry="18"/>
<text text-anchor="middle" x="32.6" y="-1197.58" font-family="Times New Roman,serif" font-size="14.00">AVF</text>
</g>
<!-- AVF&#45;&gt;SMD -->
<g id="edge58" class="edge">
<title>AVF&#45;&gt;SMD</title>
<path fill="none" stroke="gray" stroke-width="0.2" d="M52.95,-1189.81C67.66,-1179.79 89.1,-1165.17 111.38,-1149.99"/>
<polygon fill="gray" stroke="gray" stroke-width="0.2" points="113.08,-1153.07 119.37,-1144.54 109.13,-1147.28 113.08,-1153.07"/>
</g>
<!-- AVH -->
<g id="node38" class="node">
<title>AVH</title>
<ellipse fill="none" stroke="black" cx="32.6" cy="-1124" rx="30.11" ry="18"/>
<text text-anchor="middle" x="32.6" y="-1118.58" font-family="Times New Roman,serif" font-size="14.00">AVH</text>
</g>
<!-- AVH&#45;&gt;SMD -->
<g id="edge59" class="edge">
<title>AVH&#45;&gt;SMD</title>
<path fill="none" stroke="gray" stroke-width="0.2" d="M61.27,-1117.66C70.68,-1115.51 81.85,-1112.95 93.78,-1110.21"/>
<polygon fill="gray" stroke="gray" stroke-width="0.2" points="94.23,-1113.7 103.2,-1108.06 92.67,-1106.88 94.23,-1113.7"/>
</g>
<!-- AVK -->
<g id="node39" class="node">
<title>AVK</title>
<ellipse fill="none" stroke="black" cx="32.6" cy="-1045" rx="30.11" ry="18"/>
<text text-anchor="middle" x="32.6" y="-1039.58" font-family="Times New Roman,serif" font-size="14.00">AVK</text>
</g>
<!-- AVK&#45;&gt;SMD -->
<g id="edge60" class="edge">
<title>AVK&#45;&gt;SMD</title>
<path fill="none" stroke="red" stroke-width="0.2" d="M61.27,-1051.18C70.68,-1053.28 81.85,-1055.78 93.78,-1058.44"/>
<polygon fill="red" stroke="red" stroke-width="0.2" points="92.67,-1061.78 103.19,-1060.54 94.2,-1054.95 92.67,-1061.78"/>
</g>
<!-- AWC -->
<g id="node40" class="node">
<title>AWC</title>
<ellipse fill="none" stroke="black" cx="32.6" cy="-966" rx="32.6" ry="18"/>
<text text-anchor="middle" x="32.6" y="-960.58" font-family="Times New Roman,serif" font-size="14.00">AWC</text>
</g>
<!-- AWC&#45;&gt;SMD -->
<g id="edge61" class="edge">
<title>AWC&#45;&gt;SMD</title>
<path fill="none" stroke="gray" stroke-width="0.2" d="M53.97,-979.77C68.57,-989.63 89.41,-1003.71 111.06,-1018.35"/>
<polygon fill="gray" stroke="gray" stroke-width="0.2" points="108.89,-1021.11 119.14,-1023.81 112.81,-1015.31 108.89,-1021.11"/>
</g>
<!-- BAG -->
<g id="node41" class="node">
<title>BAG</title>
<ellipse fill="none" stroke="black" cx="32.6" cy="-887" rx="30.11" ry="18"/>
<text text-anchor="middle" x="32.6" y="-881.58" font-family="Times New Roman,serif" font-size="14.00">BAG</text>
</g>
<!-- BAG&#45;&gt;SMD -->
<g id="edge62" class="edge">
<title>BAG&#45;&gt;SMD</title>
<path fill="none" stroke="gray" stroke-width="0.2" d="M47.59,-902.79C65.73,-923.25 98.75,-960.5 130.15,-995.94"/>
<polygon fill="gray" stroke="gray" stroke-width="0.2" points="127.37,-998.08 136.62,-1003.24 132.61,-993.43 127.37,-998.08"/>
</g>
<!-- DVA -->
<g id="node42" class="node">
<title>DVA</title>
<ellipse fill="none" stroke="black" cx="32.6" cy="-808" rx="30.11" ry="18"/>
<text text-anchor="middle" x="32.6" y="-802.58" font-family="Times New Roman,serif" font-size="14.00">DVA</text>
</g>
<!-- DVA&#45;&gt;SMD -->
<g id="edge63" class="edge">
<title>DVA&#45;&gt;SMD</title>
<path fill="none" stroke="gray" stroke-width="0.2" d="M46.45,-824.27C55.2,-835.34 65.2,-848 65.2,-848 65.2,-848 108.24,-919.03 147.1,-983.15"/>
<polygon fill="gray" stroke="gray" stroke-width="0.2" points="143.97,-984.74 152.14,-991.48 149.95,-981.12 143.97,-984.74"/>
</g>
<!-- RIG -->
<g id="node43" class="node">
<title>RIG</title>
<ellipse fill="none" stroke="black" cx="32.6" cy="-729" rx="27.11" ry="18"/>
<text text-anchor="middle" x="32.6" y="-723.58" font-family="Times New Roman,serif" font-size="14.00">RIG</text>
</g>
<!-- RIG&#45;&gt;SMD -->
<g id="edge64" class="edge">
<title>RIG&#45;&gt;SMD</title>
<path fill="none" stroke="blue" stroke-width="2" d="M46.09,-744.81C54.92,-755.99 65.2,-769 65.2,-769 65.2,-769 116.95,-882.99 158.19,-973.83"/>
<polygon fill="blue" stroke="blue" stroke-width="2" points="154.97,-975.21 162.29,-982.87 161.35,-972.32 154.97,-975.21"/>
</g>
<!-- RMH -->
<g id="node44" class="node">
<title>RMH</title>
<ellipse fill="none" stroke="black" cx="32.6" cy="-650" rx="31.6" ry="18"/>
<text text-anchor="middle" x="32.6" y="-644.58" font-family="Times New Roman,serif" font-size="14.00">RMH</text>
</g>
<!-- RMH&#45;&gt;SMD -->
<g id="edge65" class="edge">
<title>RMH&#45;&gt;SMD</title>
<path fill="none" stroke="gray" stroke-width="0.2" d="M46.45,-666.27C55.2,-677.34 65.2,-690 65.2,-690 65.2,-690 125.69,-856.65 167.98,-973.18"/>
<polygon fill="gray" stroke="gray" stroke-width="0.2" points="164.57,-974.04 171.27,-982.25 171.15,-971.66 164.57,-974.04"/>
</g>
<!-- SDQ -->
<g id="node45" class="node">
<title>SDQ</title>
<ellipse fill="none" stroke="black" cx="32.6" cy="-571" rx="29.61" ry="18"/>
<text text-anchor="middle" x="32.6" y="-565.58" font-family="Times New Roman,serif" font-size="14.00">SDQ</text>
</g>
<!-- SDQ&#45;&gt;SMD -->
<g id="edge66" class="edge">
<title>SDQ&#45;&gt;SMD</title>
<path fill="none" stroke="gray" stroke-width="0.2" d="M46.45,-587.27C55.2,-598.34 65.2,-611 65.2,-611 65.2,-611 131.73,-831.06 174.03,-970.98"/>
<polygon fill="gray" stroke="gray" stroke-width="0.2" points="170.58,-971.64 176.82,-980.2 177.28,-969.62 170.58,-971.64"/>
</g>
<!-- SMB -->
<g id="node46" class="node">
<title>SMB</title>
<ellipse fill="none" stroke="black" cx="32.6" cy="-492" rx="30.11" ry="18"/>
<text text-anchor="middle" x="32.6" y="-486.57" font-family="Times New Roman,serif" font-size="14.00">SMB</text>
</g>
<!-- SMB&#45;&gt;SMD -->
<g id="edge67" class="edge">
<title>SMB&#45;&gt;SMD</title>
<path fill="none" stroke="gray" stroke-width="0.2" d="M46.45,-508.27C55.2,-519.34 65.2,-532 65.2,-532 65.2,-532 136.8,-808.37 178.67,-970"/>
<polygon fill="gray" stroke="gray" stroke-width="0.2" points="175.16,-970.43 181.06,-979.23 181.94,-968.67 175.16,-970.43"/>
</g>
</g>
</svg>
