<?xml version="1.0" encoding="UTF-8" standalone="no"?>
<!DOCTYPE svg PUBLIC "-//W3C//DTD SVG 1.1//EN"
 "http://www.w3.org/Graphics/SVG/1.1/DTD/svg11.dtd">
<!-- Generated by graphviz version 11.0.0 (20240428.1522)
 -->
<!-- Pages: 1 -->
<svg width="419pt" height="1150pt"
 viewBox="0.00 0.00 419.42 1150.00" xmlns="http://www.w3.org/2000/svg" xmlns:xlink="http://www.w3.org/1999/xlink">
<g id="graph0" class="graph" transform="scale(1 1) rotate(0) translate(4 1146)">
<polygon fill="white" stroke="none" points="-4,4 -4,-1146 415.42,-1146 415.42,4 -4,4"/>
<!-- URA -->
<g id="node1" class="node">
<title>URA</title>
<ellipse fill="none" stroke="black" cx="204.21" cy="-650" rx="108" ry="108"/>
<text text-anchor="middle" x="204.21" y="-631" font-family="Times New Roman,serif" font-size="50.00">URA</text>
</g>
<!-- ADA -->
<g id="node2" class="node">
<title>ADA</title>
<ellipse fill="none" stroke="black" cx="379.82" cy="-1124" rx="30.11" ry="18"/>
<text text-anchor="middle" x="379.82" y="-1118.58" font-family="Times New Roman,serif" font-size="14.00">ADA</text>
</g>
<!-- URA&#45;&gt;ADA -->
<g id="edge1" class="edge">
<title>URA&#45;&gt;ADA</title>
<path fill="none" stroke="gray" stroke-width="0.2" d="M243.44,-750.99C285.8,-873.64 348.21,-1063.5 348.21,-1063.5 348.21,-1063.5 360.96,-1079.74 370,-1097.04"/>
<polygon fill="gray" stroke="gray" stroke-width="0.2" points="366.72,-1098.3 374.17,-1105.83 373.04,-1095.29 366.72,-1098.3"/>
</g>
<!-- AVE -->
<g id="node3" class="node">
<title>AVE</title>
<ellipse fill="none" stroke="black" cx="379.82" cy="-1045" rx="29.11" ry="18"/>
<text text-anchor="middle" x="379.82" y="-1039.58" font-family="Times New Roman,serif" font-size="14.00">AVE</text>
</g>
<!-- URA&#45;&gt;AVE -->
<g id="edge2" class="edge">
<title>URA&#45;&gt;AVE</title>
<path fill="none" stroke="gray" stroke-width="0.2" d="M245.43,-750.11C287.72,-855.41 348.21,-1006 348.21,-1006 348.21,-1006 353.51,-1012.75 359.69,-1020.63"/>
<polygon fill="gray" stroke="gray" stroke-width="0.2" points="356.9,-1022.74 365.83,-1028.45 362.41,-1018.42 356.9,-1022.74"/>
</g>
<!-- CEP -->
<g id="node4" class="node">
<title>CEP</title>
<ellipse fill="none" stroke="black" cx="379.82" cy="-966" rx="28.11" ry="18"/>
<text text-anchor="middle" x="379.82" y="-960.58" font-family="Times New Roman,serif" font-size="14.00">CEP</text>
</g>
<!-- URA&#45;&gt;CEP -->
<g id="edge3" class="edge">
<title>URA&#45;&gt;CEP</title>
<path fill="none" stroke="gray" stroke-width="0.2" d="M261.73,-741.97C301.7,-815.4 348.21,-905.5 348.21,-905.5 348.21,-905.5 360.96,-921.74 370,-939.04"/>
<polygon fill="gray" stroke="gray" stroke-width="0.2" points="366.72,-940.3 374.17,-947.83 373.04,-937.29 366.72,-940.3"/>
</g>
<!-- DVC -->
<g id="node5" class="node">
<title>DVC</title>
<ellipse fill="none" stroke="black" cx="379.82" cy="-887" rx="30.11" ry="18"/>
<text text-anchor="middle" x="379.82" y="-881.58" font-family="Times New Roman,serif" font-size="14.00">DVC</text>
</g>
<!-- URA&#45;&gt;DVC -->
<g id="edge4" class="edge">
<title>URA&#45;&gt;DVC</title>
<path fill="none" stroke="gray" stroke-width="0.2" d="M276.92,-730.46C312.6,-777.19 348.21,-826.5 348.21,-826.5 348.21,-826.5 360.96,-842.74 370,-860.04"/>
<polygon fill="gray" stroke="gray" stroke-width="0.2" points="366.72,-861.3 374.17,-868.83 373.04,-858.29 366.72,-861.3"/>
</g>
<!-- IL1 -->
<g id="node6" class="node">
<title>IL1</title>
<ellipse fill="none" stroke="black" cx="379.82" cy="-808" rx="27" ry="18"/>
<text text-anchor="middle" x="379.82" y="-802.58" font-family="Times New Roman,serif" font-size="14.00">IL1</text>
</g>
<!-- URA&#45;&gt;IL1 -->
<g id="edge5" class="edge">
<title>URA&#45;&gt;IL1</title>
<path fill="none" stroke="black" stroke-width="5" d="M292.27,-713.11C317.17,-735.78 342.04,-760.2 358.69,-778.9"/>
<polygon fill="black" stroke="black" stroke-width="5" points="355.2,-781.55 364.99,-786.36 361.88,-775.9 355.2,-781.55"/>
</g>
<!-- IL2 -->
<g id="node7" class="node">
<title>IL2</title>
<ellipse fill="none" stroke="black" cx="379.82" cy="-729" rx="27" ry="18"/>
<text text-anchor="middle" x="379.82" y="-723.58" font-family="Times New Roman,serif" font-size="14.00">IL2</text>
</g>
<!-- URA&#45;&gt;IL2 -->
<g id="edge6" class="edge">
<title>URA&#45;&gt;IL2</title>
<path fill="none" stroke="gray" stroke-width="2" d="M307.95,-680.87C325.33,-689.32 341.82,-698.25 354.52,-706.34"/>
<polygon fill="gray" stroke="gray" stroke-width="2" points="352.29,-709.06 362.52,-711.79 356.23,-703.27 352.29,-709.06"/>
</g>
<!-- OLQ -->
<g id="node8" class="node">
<title>OLQ</title>
<ellipse fill="none" stroke="black" cx="379.82" cy="-650" rx="30.11" ry="18"/>
<text text-anchor="middle" x="379.82" y="-644.58" font-family="Times New Roman,serif" font-size="14.00">OLQ</text>
</g>
<!-- URA&#45;&gt;OLQ -->
<g id="edge7" class="edge">
<title>URA&#45;&gt;OLQ</title>
<path fill="none" stroke="gray" stroke-width="0.2" d="M311.2,-634.23C323.67,-634.7 335.58,-635.63 345.84,-637.03"/>
<polygon fill="gray" stroke="gray" stroke-width="0.2" points="345.15,-640.46 355.58,-638.6 346.27,-633.55 345.15,-640.46"/>
</g>
<!-- PVT -->
<g id="node9" class="node">
<title>PVT</title>
<ellipse fill="none" stroke="black" cx="379.82" cy="-571" rx="28.61" ry="18"/>
<text text-anchor="middle" x="379.82" y="-565.58" font-family="Times New Roman,serif" font-size="14.00">PVT</text>
</g>
<!-- URA&#45;&gt;PVT -->
<g id="edge8" class="edge">
<title>URA&#45;&gt;PVT</title>
<path fill="none" stroke="gray" stroke-width="0.2" d="M296.08,-592.54C312.03,-585.4 327.8,-579.08 341.22,-574.55"/>
<polygon fill="gray" stroke="gray" stroke-width="0.2" points="342.23,-577.9 350.71,-571.54 340.12,-571.23 342.23,-577.9"/>
</g>
<!-- RIB -->
<g id="node10" class="node">
<title>RIB</title>
<ellipse fill="none" stroke="black" cx="379.82" cy="-492" rx="27" ry="18"/>
<text text-anchor="middle" x="379.82" y="-486.57" font-family="Times New Roman,serif" font-size="14.00">RIB</text>
</g>
<!-- URA&#45;&gt;RIB -->
<g id="edge9" class="edge">
<title>URA&#45;&gt;RIB</title>
<path fill="none" stroke="gray" stroke-width="0.2" d="M284.9,-577.47C310.79,-553.91 337.54,-529.57 355.83,-512.92"/>
<polygon fill="gray" stroke="gray" stroke-width="0.2" points="357.86,-515.8 362.9,-506.48 353.15,-510.62 357.86,-515.8"/>
</g>
<!-- RIH -->
<g id="node11" class="node">
<title>RIH</title>
<ellipse fill="none" stroke="black" cx="379.82" cy="-413" rx="27" ry="18"/>
<text text-anchor="middle" x="379.82" y="-407.57" font-family="Times New Roman,serif" font-size="14.00">RIH</text>
</g>
<!-- URA&#45;&gt;RIH -->
<g id="edge10" class="edge">
<title>URA&#45;&gt;RIH</title>
<path fill="none" stroke="gray" stroke-width="0.2" d="M259.89,-556.97C300.26,-496.9 348.21,-430.5 348.21,-430.5 348.21,-430.5 348.52,-430.11 349.07,-429.43"/>
<polygon fill="gray" stroke="gray" stroke-width="0.2" points="351.59,-431.87 355.42,-422 346.27,-427.32 351.59,-431.87"/>
</g>
<!-- RIP -->
<g id="node12" class="node">
<title>RIP</title>
<ellipse fill="none" stroke="black" cx="379.82" cy="-334" rx="27" ry="18"/>
<text text-anchor="middle" x="379.82" y="-328.57" font-family="Times New Roman,serif" font-size="14.00">RIP</text>
</g>
<!-- URA&#45;&gt;RIP -->
<g id="edge11" class="edge">
<title>URA&#45;&gt;RIP</title>
<path fill="none" stroke="black" stroke-width="5" d="M248.12,-550.94C282.83,-479.12 328.32,-390.2 347.39,-356.27"/>
<polygon fill="black" stroke="black" stroke-width="5" points="350.9,-358.91 352.37,-348.09 343.43,-354.35 350.9,-358.91"/>
</g>
<!-- RMD -->
<g id="node13" class="node">
<title>RMD</title>
<ellipse fill="none" stroke="black" cx="379.82" cy="-255" rx="31.6" ry="18"/>
<text text-anchor="middle" x="379.82" y="-249.57" font-family="Times New Roman,serif" font-size="14.00">RMD</text>
</g>
<!-- URA&#45;&gt;RMD -->
<g id="edge12" class="edge">
<title>URA&#45;&gt;RMD</title>
<path fill="none" stroke="gray" stroke-width="2" d="M240.19,-548.11C276.58,-451.78 330.2,-317.47 348.13,-277.34"/>
<polygon fill="gray" stroke="gray" stroke-width="2" points="351.2,-279.02 352.49,-268.5 344.92,-275.92 351.2,-279.02"/>
</g>
<!-- RME -->
<g id="node14" class="node">
<title>RME</title>
<ellipse fill="none" stroke="black" cx="379.82" cy="-176" rx="30.61" ry="18"/>
<text text-anchor="middle" x="379.82" y="-170.57" font-family="Times New Roman,serif" font-size="14.00">RME</text>
</g>
<!-- URA&#45;&gt;RME -->
<g id="edge13" class="edge">
<title>URA&#45;&gt;RME</title>
<path fill="none" stroke="black" stroke-width="5" d="M238.92,-547.46C281.2,-418.86 348.21,-215 348.21,-215 348.21,-215 351.71,-210.54 356.34,-204.64"/>
<polygon fill="black" stroke="black" stroke-width="5" points="359.43,-207.79 362.16,-197.22 352.55,-202.39 359.43,-207.79"/>
</g>
<!-- URB -->
<g id="node15" class="node">
<title>URB</title>
<ellipse fill="none" stroke="black" cx="379.82" cy="-97" rx="29.61" ry="18"/>
<text text-anchor="middle" x="379.82" y="-91.58" font-family="Times New Roman,serif" font-size="14.00">URB</text>
</g>
<!-- URA&#45;&gt;URB -->
<g id="edge14" class="edge">
<title>URA&#45;&gt;URB</title>
<path fill="none" stroke="gray" stroke-width="0.2" d="M234.15,-545.98C275.94,-395.79 348.21,-136 348.21,-136 348.21,-136 353.51,-129.25 359.69,-121.37"/>
<polygon fill="gray" stroke="gray" stroke-width="0.2" points="362.41,-123.58 365.83,-113.55 356.9,-119.26 362.41,-123.58"/>
</g>
<!-- URY -->
<g id="node16" class="node">
<title>URY</title>
<ellipse fill="none" stroke="black" cx="379.82" cy="-18" rx="30.11" ry="18"/>
<text text-anchor="middle" x="379.82" y="-12.57" font-family="Times New Roman,serif" font-size="14.00">URY</text>
</g>
<!-- URA&#45;&gt;URY -->
<g id="edge15" class="edge">
<title>URA&#45;&gt;URY</title>
<path fill="none" stroke="gray" stroke-width="0.2" d="M230.53,-545.01C271.6,-374.69 348.21,-57 348.21,-57 348.21,-57 353.51,-50.25 359.69,-42.37"/>
<polygon fill="gray" stroke="gray" stroke-width="0.2" points="362.41,-44.58 365.83,-34.55 356.9,-40.26 362.41,-44.58"/>
</g>
<!-- ADA&#45;&gt;URA -->
<g id="edge16" class="edge">
<title>ADA&#45;&gt;URA</title>
<path fill="none" stroke="gray" stroke-width="0.2" d="M354.41,-1113.87C350.77,-1109.76 348.21,-1106.5 348.21,-1106.5 348.21,-1106.5 280.04,-899.12 237.83,-763.66"/>
<polygon fill="gray" stroke="gray" stroke-width="0.2" points="241.24,-762.83 234.93,-754.32 234.56,-764.91 241.24,-762.83"/>
</g>
<!-- CEP&#45;&gt;URA -->
<g id="edge17" class="edge">
<title>CEP&#45;&gt;URA</title>
<path fill="none" stroke="gray" stroke-width="5" d="M355.31,-956.89C351.2,-952.31 348.21,-948.5 348.21,-948.5 348.21,-948.5 296.41,-848.15 255.16,-763.56"/>
<polygon fill="gray" stroke="gray" stroke-width="5" points="259.14,-761.75 250.84,-754.67 251.27,-765.58 259.14,-761.75"/>
</g>
<!-- DVC&#45;&gt;URA -->
<g id="edge18" class="edge">
<title>DVC&#45;&gt;URA</title>
<path fill="none" stroke="gray" stroke-width="0.2" d="M354.41,-876.87C350.77,-872.76 348.21,-869.5 348.21,-869.5 348.21,-869.5 304.65,-809.18 265.61,-751.51"/>
<polygon fill="gray" stroke="gray" stroke-width="0.2" points="268.55,-749.61 260.06,-743.28 262.75,-753.53 268.55,-749.61"/>
</g>
<!-- IL1&#45;&gt;URA -->
<g id="edge19" class="edge">
<title>IL1&#45;&gt;URA</title>
<path fill="none" stroke="black" stroke-width="5" d="M356.38,-798.83C338.89,-786.33 313.45,-764.79 288.41,-741.83"/>
<polygon fill="black" stroke="black" stroke-width="5" points="291.45,-738.69 281.15,-735.09 285.5,-745.1 291.45,-738.69"/>
</g>
<!-- IL2&#45;&gt;URA -->
<g id="edge20" class="edge">
<title>IL2&#45;&gt;URA</title>
<path fill="none" stroke="gray" stroke-width="5" d="M352.47,-728.98C340.84,-725.65 326.33,-720.32 310.98,-713.91"/>
<polygon fill="gray" stroke="gray" stroke-width="5" points="312.72,-709.89 301.81,-709.94 309.24,-717.92 312.72,-709.89"/>
</g>
<!-- OLQ&#45;&gt;URA -->
<g id="edge21" class="edge">
<title>OLQ&#45;&gt;URA</title>
<path fill="none" stroke="gray" stroke-width="0.2" d="M355.88,-661.35C346.25,-663.19 334.26,-664.5 321.29,-665.28"/>
<polygon fill="gray" stroke="gray" stroke-width="0.2" points="321.32,-661.77 311.5,-665.76 321.66,-668.77 321.32,-661.77"/>
</g>
<!-- PVT&#45;&gt;URA -->
<g id="edge22" class="edge">
<title>PVT&#45;&gt;URA</title>
<path fill="none" stroke="gray" stroke-width="0.2" d="M364.77,-586.69C353.37,-595.06 336.12,-604.99 317.1,-614.59"/>
<polygon fill="gray" stroke="gray" stroke-width="0.2" points="315.63,-611.42 308.23,-618.99 318.74,-617.69 315.63,-611.42"/>
</g>
<!-- RIH&#45;&gt;URA -->
<g id="edge23" class="edge">
<title>RIH&#45;&gt;URA</title>
<path fill="none" stroke="gray" stroke-width="0.2" d="M374.3,-430.9C365.79,-451.1 348.21,-473.5 348.21,-473.5 348.21,-473.5 316.52,-517.38 282.98,-561.58"/>
<polygon fill="gray" stroke="gray" stroke-width="0.2" points="280.38,-559.22 277.1,-569.3 285.95,-563.46 280.38,-559.22"/>
</g>
<!-- RIP&#45;&gt;URA -->
<g id="edge24" class="edge">
<title>RIP&#45;&gt;URA</title>
<path fill="none" stroke="gray" stroke-width="0.2" d="M374.3,-351.9C365.79,-372.1 348.21,-394.5 348.21,-394.5 348.21,-394.5 305.26,-477.69 266.44,-549.36"/>
<polygon fill="gray" stroke="gray" stroke-width="0.2" points="263.57,-547.31 261.87,-557.77 269.72,-550.65 263.57,-547.31"/>
</g>
<!-- RMD&#45;&gt;URA -->
<g id="edge25" class="edge">
<title>RMD&#45;&gt;URA</title>
<path fill="none" stroke="gray" stroke-width="5" d="M374.17,-273.21C365.61,-293.33 348.21,-315.5 348.21,-315.5 348.21,-315.5 298.15,-440.14 257.26,-537.46"/>
<polygon fill="gray" stroke="gray" stroke-width="5" points="253.32,-535.55 253.47,-546.47 261.38,-538.95 253.32,-535.55"/>
</g>
<!-- AIB -->
<g id="node17" class="node">
<title>AIB</title>
<ellipse fill="none" stroke="black" cx="30.11" cy="-848" rx="27" ry="18"/>
<text text-anchor="middle" x="30.11" y="-842.58" font-family="Times New Roman,serif" font-size="14.00">AIB</text>
</g>
<!-- AIB&#45;&gt;URA -->
<g id="edge26" class="edge">
<title>AIB&#45;&gt;URA</title>
<path fill="none" stroke="gray" stroke-width="0.2" d="M44.61,-832.46C62.37,-812.04 94.96,-774.54 126,-738.83"/>
<polygon fill="gray" stroke="gray" stroke-width="0.2" points="128.47,-741.32 132.39,-731.48 123.19,-736.73 128.47,-741.32"/>
</g>
<!-- AVF -->
<g id="node18" class="node">
<title>AVF</title>
<ellipse fill="none" stroke="black" cx="30.11" cy="-769" rx="29.11" ry="18"/>
<text text-anchor="middle" x="30.11" y="-763.58" font-family="Times New Roman,serif" font-size="14.00">AVF</text>
</g>
<!-- AVF&#45;&gt;URA -->
<g id="edge27" class="edge">
<title>AVF&#45;&gt;URA</title>
<path fill="none" stroke="gray" stroke-width="0.2" d="M50.18,-755.81C64.38,-745.99 84.95,-731.77 106.43,-716.92"/>
<polygon fill="gray" stroke="gray" stroke-width="0.2" points="108.21,-719.94 114.45,-711.38 104.23,-714.18 108.21,-719.94"/>
</g>
<!-- BAG -->
<g id="node19" class="node">
<title>BAG</title>
<ellipse fill="none" stroke="black" cx="30.11" cy="-690" rx="30.11" ry="18"/>
<text text-anchor="middle" x="30.11" y="-684.58" font-family="Times New Roman,serif" font-size="14.00">BAG</text>
</g>
<!-- BAG&#45;&gt;URA -->
<g id="edge28" class="edge">
<title>BAG&#45;&gt;URA</title>
<path fill="none" stroke="gray" stroke-width="0.2" d="M58.76,-683.57C67.5,-681.54 77.77,-679.15 88.74,-676.61"/>
<polygon fill="gray" stroke="gray" stroke-width="0.2" points="89.28,-680.07 98.23,-674.4 87.7,-673.25 89.28,-680.07"/>
</g>
<!-- BDU -->
<g id="node20" class="node">
<title>BDU</title>
<ellipse fill="none" stroke="black" cx="30.11" cy="-611" rx="29.61" ry="18"/>
<text text-anchor="middle" x="30.11" y="-605.58" font-family="Times New Roman,serif" font-size="14.00">BDU</text>
</g>
<!-- BDU&#45;&gt;URA -->
<g id="edge29" class="edge">
<title>BDU&#45;&gt;URA</title>
<path fill="none" stroke="red" stroke-width="0.2" d="M58.38,-617.18C67.17,-619.17 77.54,-621.52 88.62,-624.03"/>
<polygon fill="red" stroke="red" stroke-width="0.2" points="87.7,-627.41 98.22,-626.21 89.24,-620.59 87.7,-627.41"/>
</g>
<!-- OLL -->
<g id="node21" class="node">
<title>OLL</title>
<ellipse fill="none" stroke="black" cx="30.11" cy="-532" rx="28.61" ry="18"/>
<text text-anchor="middle" x="30.11" y="-526.58" font-family="Times New Roman,serif" font-size="14.00">OLL</text>
</g>
<!-- OLL&#45;&gt;URA -->
<g id="edge30" class="edge">
<title>OLL&#45;&gt;URA</title>
<path fill="none" stroke="gray" stroke-width="0.2" d="M50.18,-545.08C64.38,-554.82 84.95,-568.92 106.43,-583.64"/>
<polygon fill="gray" stroke="gray" stroke-width="0.2" points="104.22,-586.37 114.45,-589.14 108.18,-580.6 104.22,-586.37"/>
</g>
<!-- RIG -->
<g id="node22" class="node">
<title>RIG</title>
<ellipse fill="none" stroke="black" cx="30.11" cy="-453" rx="27.11" ry="18"/>
<text text-anchor="middle" x="30.11" y="-447.57" font-family="Times New Roman,serif" font-size="14.00">RIG</text>
</g>
<!-- RIG&#45;&gt;URA -->
<g id="edge31" class="edge">
<title>RIG&#45;&gt;URA</title>
<path fill="none" stroke="gray" stroke-width="0.2" d="M44.61,-468.46C62.37,-488.78 94.96,-526.08 126,-561.61"/>
<polygon fill="gray" stroke="gray" stroke-width="0.2" points="123.18,-563.71 132.39,-568.93 128.45,-559.1 123.18,-563.71"/>
</g>
</g>
</svg>
