<?xml version="1.0" encoding="UTF-8" standalone="no"?>
<!DOCTYPE svg PUBLIC "-//W3C//DTD SVG 1.1//EN"
 "http://www.w3.org/Graphics/SVG/1.1/DTD/svg11.dtd">
<!-- Generated by graphviz version 11.0.0 (20240428.1522)
 -->
<!-- Pages: 1 -->
<svg width="421pt" height="2019pt"
 viewBox="0.00 0.00 421.41 2019.00" xmlns="http://www.w3.org/2000/svg" xmlns:xlink="http://www.w3.org/1999/xlink">
<g id="graph0" class="graph" transform="scale(1 1) rotate(0) translate(4 2015)">
<polygon fill="white" stroke="none" points="-4,4 -4,-2015 417.41,-2015 417.41,4 -4,4"/>
<!-- URB -->
<g id="node1" class="node">
<title>URB</title>
<ellipse fill="none" stroke="black" cx="205.21" cy="-1124" rx="108" ry="108"/>
<text text-anchor="middle" x="205.21" y="-1105" font-family="Times New Roman,serif" font-size="50.00">URB</text>
</g>
<!-- URB&#45;&gt;URB -->
<g id="edge1" class="edge">
<title>URB&#45;&gt;URB</title>
<path fill="none" stroke="gray" stroke-width="0.2" d="M172.78,-1227.39C174.71,-1254.51 185.52,-1275 205.21,-1275 222.37,-1275 232.78,-1259.45 236.45,-1237.52"/>
<polygon fill="gray" stroke="gray" stroke-width="0.2" points="239.91,-1238.03 237.6,-1227.69 232.96,-1237.22 239.91,-1238.03"/>
</g>
<!-- ADA -->
<g id="node2" class="node">
<title>ADA</title>
<ellipse fill="none" stroke="black" cx="381.31" cy="-1993" rx="30.11" ry="18"/>
<text text-anchor="middle" x="381.31" y="-1987.58" font-family="Times New Roman,serif" font-size="14.00">ADA</text>
</g>
<!-- URB&#45;&gt;ADA -->
<g id="edge2" class="edge">
<title>URB&#45;&gt;ADA</title>
<path fill="none" stroke="red" stroke-width="5" d="M224.54,-1230.39C263.13,-1454.35 349.21,-1954 349.21,-1954 349.21,-1954 352.76,-1958.46 357.47,-1964.36"/>
<polygon fill="red" stroke="red" stroke-width="5" points="353.76,-1966.72 363.41,-1971.81 360.6,-1961.26 353.76,-1966.72"/>
</g>
<!-- ADE -->
<g id="node3" class="node">
<title>ADE</title>
<ellipse fill="none" stroke="black" cx="381.31" cy="-1914" rx="29.11" ry="18"/>
<text text-anchor="middle" x="381.31" y="-1908.58" font-family="Times New Roman,serif" font-size="14.00">ADE</text>
</g>
<!-- URB&#45;&gt;ADE -->
<g id="edge3" class="edge">
<title>URB&#45;&gt;ADE</title>
<path fill="none" stroke="red" stroke-width="0.2" d="M228.71,-1229.7C268.98,-1432.16 349.21,-1853.5 349.21,-1853.5 349.21,-1853.5 362.16,-1869.74 371.35,-1887.04"/>
<polygon fill="red" stroke="red" stroke-width="0.2" points="368.09,-1888.34 375.59,-1895.83 374.4,-1885.3 368.09,-1888.34"/>
</g>
<!-- ADL -->
<g id="node4" class="node">
<title>ADL</title>
<ellipse fill="none" stroke="black" cx="381.31" cy="-1835" rx="29.11" ry="18"/>
<text text-anchor="middle" x="381.31" y="-1829.58" font-family="Times New Roman,serif" font-size="14.00">ADL</text>
</g>
<!-- URB&#45;&gt;ADL -->
<g id="edge4" class="edge">
<title>URB&#45;&gt;ADL</title>
<path fill="none" stroke="gray" stroke-width="0.2" d="M231.36,-1229.17C272.4,-1413.53 349.21,-1774.5 349.21,-1774.5 349.21,-1774.5 362.16,-1790.74 371.35,-1808.04"/>
<polygon fill="gray" stroke="gray" stroke-width="0.2" points="368.09,-1809.34 375.59,-1816.83 374.4,-1806.3 368.09,-1809.34"/>
</g>
<!-- AVB -->
<g id="node5" class="node">
<title>AVB</title>
<ellipse fill="none" stroke="black" cx="381.31" cy="-1756" rx="29.61" ry="18"/>
<text text-anchor="middle" x="381.31" y="-1750.58" font-family="Times New Roman,serif" font-size="14.00">AVB</text>
</g>
<!-- URB&#45;&gt;AVB -->
<g id="edge5" class="edge">
<title>URB&#45;&gt;AVB</title>
<path fill="none" stroke="red" stroke-width="2" d="M231.53,-1228.99C272.6,-1399.31 349.21,-1717 349.21,-1717 349.21,-1717 353.73,-1722.67 359.33,-1729.69"/>
<polygon fill="red" stroke="red" stroke-width="2" points="356.44,-1731.68 365.41,-1737.32 361.92,-1727.32 356.44,-1731.68"/>
</g>
<!-- AVD -->
<g id="node6" class="node">
<title>AVD</title>
<ellipse fill="none" stroke="black" cx="381.31" cy="-1677" rx="30.11" ry="18"/>
<text text-anchor="middle" x="381.31" y="-1671.58" font-family="Times New Roman,serif" font-size="14.00">AVD</text>
</g>
<!-- URB&#45;&gt;AVD -->
<g id="edge6" class="edge">
<title>URB&#45;&gt;AVD</title>
<path fill="none" stroke="red" stroke-width="0.2" d="M235.15,-1228.02C276.93,-1378.21 349.21,-1638 349.21,-1638 349.21,-1638 354.59,-1644.75 360.88,-1652.63"/>
<polygon fill="red" stroke="red" stroke-width="0.2" points="358.14,-1654.81 367.11,-1660.45 363.61,-1650.45 358.14,-1654.81"/>
</g>
<!-- AVE -->
<g id="node7" class="node">
<title>AVE</title>
<ellipse fill="none" stroke="black" cx="381.31" cy="-1598" rx="29.11" ry="18"/>
<text text-anchor="middle" x="381.31" y="-1592.58" font-family="Times New Roman,serif" font-size="14.00">AVE</text>
</g>
<!-- URB&#45;&gt;AVE -->
<g id="edge7" class="edge">
<title>URB&#45;&gt;AVE</title>
<path fill="none" stroke="gray" stroke-width="0.2" d="M239.92,-1226.54C282.2,-1355.14 349.21,-1559 349.21,-1559 349.21,-1559 354.86,-1566.09 361.35,-1574.22"/>
<polygon fill="gray" stroke="gray" stroke-width="0.2" points="358.5,-1576.26 367.47,-1581.9 363.97,-1571.9 358.5,-1576.26"/>
</g>
<!-- AVJ -->
<g id="node8" class="node">
<title>AVJ</title>
<ellipse fill="none" stroke="black" cx="381.31" cy="-1519" rx="27.11" ry="18"/>
<text text-anchor="middle" x="381.31" y="-1513.58" font-family="Times New Roman,serif" font-size="14.00">AVJ</text>
</g>
<!-- URB&#45;&gt;AVJ -->
<g id="edge8" class="edge">
<title>URB&#45;&gt;AVJ</title>
<path fill="none" stroke="gray" stroke-width="0.2" d="M246.42,-1224.11C288.72,-1329.41 349.21,-1480 349.21,-1480 349.21,-1480 354.86,-1487.09 361.35,-1495.22"/>
<polygon fill="gray" stroke="gray" stroke-width="0.2" points="358.5,-1497.26 367.47,-1502.9 363.97,-1492.9 358.5,-1497.26"/>
</g>
<!-- CEP -->
<g id="node9" class="node">
<title>CEP</title>
<ellipse fill="none" stroke="black" cx="381.31" cy="-1440" rx="28.11" ry="18"/>
<text text-anchor="middle" x="381.31" y="-1434.58" font-family="Times New Roman,serif" font-size="14.00">CEP</text>
</g>
<!-- URB&#45;&gt;CEP -->
<g id="edge9" class="edge">
<title>URB&#45;&gt;CEP</title>
<path fill="none" stroke="red" stroke-width="5" d="M262.73,-1215.97C302.7,-1289.4 349.21,-1379.5 349.21,-1379.5 349.21,-1379.5 359.68,-1392.63 368.47,-1407.85"/>
<polygon fill="red" stroke="red" stroke-width="5" points="364.46,-1409.62 372.89,-1416.54 372.26,-1405.65 364.46,-1409.62"/>
</g>
<!-- IL1 -->
<g id="node10" class="node">
<title>IL1</title>
<ellipse fill="none" stroke="black" cx="381.31" cy="-1361" rx="27" ry="18"/>
<text text-anchor="middle" x="381.31" y="-1355.58" font-family="Times New Roman,serif" font-size="14.00">IL1</text>
</g>
<!-- URB&#45;&gt;IL1 -->
<g id="edge10" class="edge">
<title>URB&#45;&gt;IL1</title>
<path fill="none" stroke="black" stroke-width="5" d="M277.92,-1204.46C313.6,-1251.19 349.21,-1300.5 349.21,-1300.5 349.21,-1300.5 359.68,-1313.63 368.47,-1328.85"/>
<polygon fill="black" stroke="black" stroke-width="5" points="364.46,-1330.62 372.89,-1337.54 372.26,-1326.65 364.46,-1330.62"/>
</g>
<!-- IL2 -->
<g id="node11" class="node">
<title>IL2</title>
<ellipse fill="none" stroke="black" cx="381.31" cy="-1282" rx="27" ry="18"/>
<text text-anchor="middle" x="381.31" y="-1276.58" font-family="Times New Roman,serif" font-size="14.00">IL2</text>
</g>
<!-- URB&#45;&gt;IL2 -->
<g id="edge11" class="edge">
<title>URB&#45;&gt;IL2</title>
<path fill="none" stroke="gray" stroke-width="2" d="M293.26,-1186.88C319.37,-1210.57 345.48,-1236.2 362.19,-1255.23"/>
<polygon fill="gray" stroke="gray" stroke-width="2" points="359.4,-1257.35 368.51,-1262.76 364.76,-1252.85 359.4,-1257.35"/>
</g>
<!-- OLL -->
<g id="node12" class="node">
<title>OLL</title>
<ellipse fill="none" stroke="black" cx="381.31" cy="-1203" rx="28.61" ry="18"/>
<text text-anchor="middle" x="381.31" y="-1197.58" font-family="Times New Roman,serif" font-size="14.00">OLL</text>
</g>
<!-- URB&#45;&gt;OLL -->
<g id="edge12" class="edge">
<title>URB&#45;&gt;OLL</title>
<path fill="none" stroke="gray" stroke-width="0.2" d="M309,-1154.75C327.42,-1163.67 344.87,-1173.14 357.9,-1181.59"/>
<polygon fill="gray" stroke="gray" stroke-width="0.2" points="355.69,-1184.33 365.92,-1187.09 359.65,-1178.55 355.69,-1184.33"/>
</g>
<!-- OLQ -->
<g id="node13" class="node">
<title>OLQ</title>
<ellipse fill="none" stroke="black" cx="381.31" cy="-1124" rx="30.11" ry="18"/>
<text text-anchor="middle" x="381.31" y="-1118.58" font-family="Times New Roman,serif" font-size="14.00">OLQ</text>
</g>
<!-- URB&#45;&gt;OLQ -->
<g id="edge13" class="edge">
<title>URB&#45;&gt;OLQ</title>
<path fill="none" stroke="gray" stroke-width="2" d="M312.5,-1108.23C323.95,-1108.66 334.94,-1109.48 344.61,-1110.69"/>
<polygon fill="gray" stroke="gray" stroke-width="2" points="343.9,-1114.12 354.32,-1112.19 344.98,-1107.2 343.9,-1114.12"/>
</g>
<!-- RIB -->
<g id="node14" class="node">
<title>RIB</title>
<ellipse fill="none" stroke="black" cx="381.31" cy="-1045" rx="27" ry="18"/>
<text text-anchor="middle" x="381.31" y="-1039.58" font-family="Times New Roman,serif" font-size="14.00">RIB</text>
</g>
<!-- URB&#45;&gt;RIB -->
<g id="edge14" class="edge">
<title>URB&#45;&gt;RIB</title>
<path fill="none" stroke="gray" stroke-width="nan" d="M303.95,-1079.65C324.41,-1070.37 344.07,-1061.44 358.32,-1054.98"/>
<polygon fill="gray" stroke="gray" stroke-width="nan" points="nan,-nan nan,-nan nan,-nan nan,-nan"/>
</g>
<!-- RIC -->
<g id="node15" class="node">
<title>RIC</title>
<ellipse fill="none" stroke="black" cx="381.31" cy="-966" rx="27" ry="18"/>
<text text-anchor="middle" x="381.31" y="-960.58" font-family="Times New Roman,serif" font-size="14.00">RIC</text>
</g>
<!-- URB&#45;&gt;RIC -->
<g id="edge15" class="edge">
<title>URB&#45;&gt;RIC</title>
<path fill="none" stroke="red" stroke-width="5" d="M277.53,-1043.39C300.76,-1021.6 325.54,-999.98 344.95,-984.82"/>
<polygon fill="red" stroke="red" stroke-width="5" points="347.38,-988.47 352.75,-978.96 342.13,-981.47 347.38,-988.47"/>
</g>
<!-- RIV -->
<g id="node16" class="node">
<title>RIV</title>
<ellipse fill="none" stroke="black" cx="381.31" cy="-887" rx="27" ry="18"/>
<text text-anchor="middle" x="381.31" y="-881.58" font-family="Times New Roman,serif" font-size="14.00">RIV</text>
</g>
<!-- URB&#45;&gt;RIV -->
<g id="edge16" class="edge">
<title>URB&#45;&gt;RIV</title>
<path fill="none" stroke="gray" stroke-width="0.2" d="M269.35,-1036.58C307.66,-983.54 349.21,-926 349.21,-926 349.21,-926 354.86,-918.91 361.35,-910.78"/>
<polygon fill="gray" stroke="gray" stroke-width="0.2" points="363.97,-913.1 367.47,-903.1 358.5,-908.74 363.97,-913.1"/>
</g>
<!-- RMD -->
<g id="node17" class="node">
<title>RMD</title>
<ellipse fill="none" stroke="black" cx="381.31" cy="-808" rx="31.6" ry="18"/>
<text text-anchor="middle" x="381.31" y="-802.58" font-family="Times New Roman,serif" font-size="14.00">RMD</text>
</g>
<!-- URB&#45;&gt;RMD -->
<g id="edge17" class="edge">
<title>URB&#45;&gt;RMD</title>
<path fill="none" stroke="black" stroke-width="0.2" d="M249.11,-1024.94C285.48,-949.71 333.65,-855.74 350.01,-826.92"/>
<polygon fill="black" stroke="black" stroke-width="0.2" points="352.79,-829.07 355.05,-818.72 346.83,-825.4 352.79,-829.07"/>
</g>
<!-- RME -->
<g id="node18" class="node">
<title>RME</title>
<ellipse fill="none" stroke="black" cx="381.31" cy="-729" rx="30.61" ry="18"/>
<text text-anchor="middle" x="381.31" y="-723.58" font-family="Times New Roman,serif" font-size="14.00">RME</text>
</g>
<!-- URB&#45;&gt;RME -->
<g id="edge18" class="edge">
<title>URB&#45;&gt;RME</title>
<path fill="none" stroke="blue" stroke-width="5" d="M246.42,-1023.89C288.72,-918.59 349.21,-768 349.21,-768 349.21,-768 352.76,-763.54 357.47,-757.64"/>
<polygon fill="blue" stroke="blue" stroke-width="5" points="360.6,-760.74 363.41,-750.19 353.76,-755.28 360.6,-760.74"/>
</g>
<!-- RMG -->
<g id="node19" class="node">
<title>RMG</title>
<ellipse fill="none" stroke="black" cx="381.31" cy="-650" rx="32.1" ry="18"/>
<text text-anchor="middle" x="381.31" y="-644.58" font-family="Times New Roman,serif" font-size="14.00">RMG</text>
</g>
<!-- URB&#45;&gt;RMG -->
<g id="edge19" class="edge">
<title>URB&#45;&gt;RMG</title>
<path fill="none" stroke="red" stroke-width="0.2" d="M239.92,-1021.46C282.2,-892.86 349.21,-689 349.21,-689 349.21,-689 354.59,-682.25 360.88,-674.37"/>
<polygon fill="red" stroke="red" stroke-width="0.2" points="363.61,-676.55 367.11,-666.55 358.14,-672.19 363.61,-676.55"/>
</g>
<!-- RMH -->
<g id="node20" class="node">
<title>RMH</title>
<ellipse fill="none" stroke="black" cx="381.31" cy="-571" rx="31.6" ry="18"/>
<text text-anchor="middle" x="381.31" y="-565.58" font-family="Times New Roman,serif" font-size="14.00">RMH</text>
</g>
<!-- URB&#45;&gt;RMH -->
<g id="edge20" class="edge">
<title>URB&#45;&gt;RMH</title>
<path fill="none" stroke="red" stroke-width="2" d="M235.15,-1019.98C276.93,-869.79 349.21,-610 349.21,-610 349.21,-610 353.73,-604.33 359.33,-597.31"/>
<polygon fill="red" stroke="red" stroke-width="2" points="361.92,-599.68 365.41,-589.68 356.44,-595.32 361.92,-599.68"/>
</g>
<!-- SDQ -->
<g id="node21" class="node">
<title>SDQ</title>
<ellipse fill="none" stroke="black" cx="381.31" cy="-492" rx="29.61" ry="18"/>
<text text-anchor="middle" x="381.31" y="-486.57" font-family="Times New Roman,serif" font-size="14.00">SDQ</text>
</g>
<!-- URB&#45;&gt;SDQ -->
<g id="edge21" class="edge">
<title>URB&#45;&gt;SDQ</title>
<path fill="none" stroke="gray" stroke-width="0.2" d="M231.53,-1019.01C272.6,-848.69 349.21,-531 349.21,-531 349.21,-531 354.59,-524.25 360.88,-516.37"/>
<polygon fill="gray" stroke="gray" stroke-width="0.2" points="363.61,-518.55 367.11,-508.55 358.14,-514.19 363.61,-518.55"/>
</g>
<!-- SIA -->
<g id="node22" class="node">
<title>SIA</title>
<ellipse fill="none" stroke="black" cx="381.31" cy="-413" rx="27" ry="18"/>
<text text-anchor="middle" x="381.31" y="-407.57" font-family="Times New Roman,serif" font-size="14.00">SIA</text>
</g>
<!-- URB&#45;&gt;SIA -->
<g id="edge22" class="edge">
<title>URB&#45;&gt;SIA</title>
<path fill="none" stroke="red" stroke-width="5" d="M228.71,-1018.26C268.98,-829.02 349.21,-452 349.21,-452 349.21,-452 352.86,-447.42 357.67,-441.39"/>
<polygon fill="red" stroke="red" stroke-width="5" points="360.96,-444.29 363.77,-433.74 354.12,-438.83 360.96,-444.29"/>
</g>
<!-- SIB -->
<g id="node23" class="node">
<title>SIB</title>
<ellipse fill="none" stroke="black" cx="381.31" cy="-334" rx="27" ry="18"/>
<text text-anchor="middle" x="381.31" y="-328.57" font-family="Times New Roman,serif" font-size="14.00">SIB</text>
</g>
<!-- URB&#45;&gt;SIB -->
<g id="edge23" class="edge">
<title>URB&#45;&gt;SIB</title>
<path fill="none" stroke="gray" stroke-width="0.2" d="M226.4,-1017.99C265.81,-810.98 349.21,-373 349.21,-373 349.21,-373 354.86,-365.91 361.35,-357.78"/>
<polygon fill="gray" stroke="gray" stroke-width="0.2" points="363.97,-360.1 367.47,-350.1 358.5,-355.74 363.97,-360.1"/>
</g>
<!-- SMB -->
<g id="node24" class="node">
<title>SMB</title>
<ellipse fill="none" stroke="black" cx="381.31" cy="-255" rx="30.11" ry="18"/>
<text text-anchor="middle" x="381.31" y="-249.57" font-family="Times New Roman,serif" font-size="14.00">SMB</text>
</g>
<!-- URB&#45;&gt;SMB -->
<g id="edge24" class="edge">
<title>URB&#45;&gt;SMB</title>
<path fill="none" stroke="red" stroke-width="0.2" d="M224.54,-1017.61C263.13,-793.65 349.21,-294 349.21,-294 349.21,-294 354.59,-287.25 360.88,-279.37"/>
<polygon fill="red" stroke="red" stroke-width="0.2" points="363.61,-281.55 367.11,-271.55 358.14,-277.19 363.61,-281.55"/>
</g>
<!-- SMD -->
<g id="node25" class="node">
<title>SMD</title>
<ellipse fill="none" stroke="black" cx="381.31" cy="-176" rx="30.61" ry="18"/>
<text text-anchor="middle" x="381.31" y="-170.57" font-family="Times New Roman,serif" font-size="14.00">SMD</text>
</g>
<!-- URB&#45;&gt;SMD -->
<g id="edge25" class="edge">
<title>URB&#45;&gt;SMD</title>
<path fill="none" stroke="gray" stroke-width="0.2" d="M221.38,-1017C255.56,-789.6 336.51,-274.31 352.92,-196.09"/>
<polygon fill="gray" stroke="gray" stroke-width="0.2" points="356.3,-196.98 355.43,-186.42 349.53,-195.22 356.3,-196.98"/>
</g>
<!-- URX -->
<g id="node26" class="node">
<title>URX</title>
<ellipse fill="none" stroke="black" cx="381.31" cy="-97" rx="30.11" ry="18"/>
<text text-anchor="middle" x="381.31" y="-91.58" font-family="Times New Roman,serif" font-size="14.00">URX</text>
</g>
<!-- URB&#45;&gt;URX -->
<g id="edge26" class="edge">
<title>URB&#45;&gt;URX</title>
<path fill="none" stroke="red" stroke-width="5" d="M220.25,-1016.78C253.15,-779.2 333.49,-223.23 352.22,-122.51"/>
<polygon fill="red" stroke="red" stroke-width="5" points="356.46,-123.6 354.42,-112.87 347.93,-121.65 356.46,-123.6"/>
</g>
<!-- URY -->
<g id="node27" class="node">
<title>URY</title>
<ellipse fill="none" stroke="black" cx="381.31" cy="-18" rx="30.11" ry="18"/>
<text text-anchor="middle" x="381.31" y="-12.57" font-family="Times New Roman,serif" font-size="14.00">URY</text>
</g>
<!-- URB&#45;&gt;URY -->
<g id="edge27" class="edge">
<title>URB&#45;&gt;URY</title>
<path fill="none" stroke="gray" stroke-width="0.2" d="M220.58,-1016.81C256.84,-746.23 349.21,-57 349.21,-57 349.21,-57 354.59,-50.25 360.88,-42.37"/>
<polygon fill="gray" stroke="gray" stroke-width="0.2" points="363.61,-44.55 367.11,-34.55 358.14,-40.19 363.61,-44.55"/>
</g>
<!-- ADE&#45;&gt;URB -->
<g id="edge28" class="edge">
<title>ADE&#45;&gt;URB</title>
<path fill="none" stroke="red" stroke-width="2" d="M356.11,-1904.55C352.1,-1900.12 349.21,-1896.5 349.21,-1896.5 349.21,-1896.5 266.14,-1460.25 226.63,-1243.22"/>
<polygon fill="red" stroke="red" stroke-width="2" points="230.09,-1242.71 224.86,-1233.49 223.21,-1243.96 230.09,-1242.71"/>
</g>
<!-- ADL&#45;&gt;URB -->
<g id="edge29" class="edge">
<title>ADL&#45;&gt;URB</title>
<path fill="none" stroke="gray" stroke-width="2" d="M356.11,-1825.55C352.1,-1821.12 349.21,-1817.5 349.21,-1817.5 349.21,-1817.5 269.18,-1441.4 228.86,-1242.93"/>
<polygon fill="gray" stroke="gray" stroke-width="2" points="232.34,-1242.48 226.92,-1233.37 225.48,-1243.87 232.34,-1242.48"/>
</g>
<!-- CEP&#45;&gt;URB -->
<g id="edge30" class="edge">
<title>CEP&#45;&gt;URB</title>
<path fill="none" stroke="red" stroke-width="5" d="M356.42,-1430.89C352.25,-1426.31 349.21,-1422.5 349.21,-1422.5 349.21,-1422.5 297.4,-1322.15 256.16,-1237.56"/>
<polygon fill="red" stroke="red" stroke-width="5" points="260.14,-1235.75 251.84,-1228.67 252.27,-1239.58 260.14,-1235.75"/>
</g>
<!-- IL1&#45;&gt;URB -->
<g id="edge31" class="edge">
<title>IL1&#45;&gt;URB</title>
<path fill="none" stroke="gray" stroke-width="2" d="M357.06,-1352.58C352.56,-1347.7 349.21,-1343.5 349.21,-1343.5 349.21,-1343.5 306.71,-1284.65 268.05,-1227.64"/>
<polygon fill="gray" stroke="gray" stroke-width="2" points="271.07,-1225.87 262.58,-1219.54 265.27,-1229.78 271.07,-1225.87"/>
</g>
<!-- IL2&#45;&gt;URB -->
<g id="edge32" class="edge">
<title>IL2&#45;&gt;URB</title>
<path fill="none" stroke="red" stroke-width="0.2" d="M357.74,-1272.78C339.12,-1259.49 311.53,-1236.06 284.98,-1211.54"/>
<polygon fill="red" stroke="red" stroke-width="0.2" points="287.45,-1209.07 277.75,-1204.82 282.68,-1214.19 287.45,-1209.07"/>
</g>
<!-- OLL&#45;&gt;URB -->
<g id="edge33" class="edge">
<title>OLL&#45;&gt;URB</title>
<path fill="none" stroke="gray" stroke-width="0.2" d="M352.31,-1202.52C339.43,-1198.74 323.29,-1192.66 306.48,-1185.46"/>
<polygon fill="gray" stroke="gray" stroke-width="0.2" points="307.93,-1182.27 297.36,-1181.47 305.12,-1188.68 307.93,-1182.27"/>
</g>
<!-- OLQ&#45;&gt;URB -->
<g id="edge34" class="edge">
<title>OLQ&#45;&gt;URB</title>
<path fill="none" stroke="gray" stroke-width="0.2" d="M357.31,-1135.35C347.65,-1137.19 335.63,-1138.5 322.62,-1139.28"/>
<polygon fill="gray" stroke="gray" stroke-width="0.2" points="322.62,-1135.78 312.8,-1139.76 322.96,-1142.77 322.62,-1135.78"/>
</g>
<!-- RIC&#45;&gt;URB -->
<g id="edge35" class="edge">
<title>RIC&#45;&gt;URB</title>
<path fill="none" stroke="gray" stroke-width="2" d="M370.45,-982.92C356.7,-1000.28 330.33,-1026.91 302.67,-1052.5"/>
<polygon fill="gray" stroke="gray" stroke-width="2" points="300.5,-1049.74 295.49,-1059.08 305.23,-1054.9 300.5,-1049.74"/>
</g>
<!-- RMD&#45;&gt;URB -->
<g id="edge36" class="edge">
<title>RMD&#45;&gt;URB</title>
<path fill="none" stroke="gray" stroke-width="2" d="M375.72,-825.9C367.07,-846.1 349.21,-868.5 349.21,-868.5 349.21,-868.5 307.3,-949.68 268.86,-1020.73"/>
<polygon fill="gray" stroke="gray" stroke-width="2" points="265.86,-1018.91 264.17,-1029.37 272.02,-1022.25 265.86,-1018.91"/>
</g>
<!-- SMD&#45;&gt;URB -->
<g id="edge37" class="edge">
<title>SMD&#45;&gt;URB</title>
<path fill="none" stroke="gray" stroke-width="0.2" d="M375.72,-193.9C367.07,-214.1 349.21,-236.5 349.21,-236.5 349.21,-236.5 265.78,-766.84 226.37,-1007.76"/>
<polygon fill="gray" stroke="gray" stroke-width="0.2" points="222.97,-1006.88 224.81,-1017.31 229.88,-1008.01 222.97,-1006.88"/>
</g>
<!-- URX&#45;&gt;URB -->
<g id="edge38" class="edge">
<title>URX&#45;&gt;URB</title>
<path fill="none" stroke="gray" stroke-width="2" d="M375.72,-114.9C367.07,-135.1 349.21,-157.5 349.21,-157.5 349.21,-157.5 264.06,-745.79 225.18,-1004.59"/>
<polygon fill="gray" stroke="gray" stroke-width="2" points="221.72,-1004 223.7,-1014.41 228.65,-1005.05 221.72,-1004"/>
</g>
<!-- ALM -->
<g id="node28" class="node">
<title>ALM</title>
<ellipse fill="none" stroke="black" cx="30.61" cy="-1243" rx="30.61" ry="18"/>
<text text-anchor="middle" x="30.61" y="-1237.58" font-family="Times New Roman,serif" font-size="14.00">ALM</text>
</g>
<!-- ALM&#45;&gt;URB -->
<g id="edge39" class="edge">
<title>ALM&#45;&gt;URB</title>
<path fill="none" stroke="gray" stroke-width="0.2" d="M51.41,-1229.35C65.7,-1219.5 86.16,-1205.39 107.48,-1190.69"/>
<polygon fill="gray" stroke="gray" stroke-width="0.2" points="109.19,-1193.76 115.44,-1185.2 105.22,-1188 109.19,-1193.76"/>
</g>
<!-- BDU -->
<g id="node29" class="node">
<title>BDU</title>
<ellipse fill="none" stroke="black" cx="30.61" cy="-1164" rx="29.61" ry="18"/>
<text text-anchor="middle" x="30.61" y="-1158.58" font-family="Times New Roman,serif" font-size="14.00">BDU</text>
</g>
<!-- BDU&#45;&gt;URB -->
<g id="edge40" class="edge">
<title>BDU&#45;&gt;URB</title>
<path fill="none" stroke="blue" stroke-width="0.2" d="M58.57,-1157.75C67.61,-1155.66 78.33,-1153.17 89.79,-1150.52"/>
<polygon fill="blue" stroke="blue" stroke-width="0.2" points="90.33,-1153.98 99.28,-1148.32 88.75,-1147.16 90.33,-1153.98"/>
</g>
<!-- PVN -->
<g id="node30" class="node">
<title>PVN</title>
<ellipse fill="none" stroke="black" cx="30.61" cy="-1085" rx="29.11" ry="18"/>
<text text-anchor="middle" x="30.61" y="-1079.58" font-family="Times New Roman,serif" font-size="14.00">PVN</text>
</g>
<!-- PVN&#45;&gt;URB -->
<g id="edge41" class="edge">
<title>PVN&#45;&gt;URB</title>
<path fill="none" stroke="gray" stroke-width="0.2" d="M58.2,-1091.01C67.28,-1093.06 78.1,-1095.51 89.68,-1098.12"/>
<polygon fill="gray" stroke="gray" stroke-width="0.2" points="88.75,-1101.5 99.28,-1100.29 90.29,-1094.67 88.75,-1101.5"/>
</g>
<!-- URA -->
<g id="node31" class="node">
<title>URA</title>
<ellipse fill="none" stroke="black" cx="30.61" cy="-1006" rx="30.11" ry="18"/>
<text text-anchor="middle" x="30.61" y="-1000.58" font-family="Times New Roman,serif" font-size="14.00">URA</text>
</g>
<!-- URA&#45;&gt;URB -->
<g id="edge42" class="edge">
<title>URA&#45;&gt;URB</title>
<path fill="none" stroke="gray" stroke-width="0.2" d="M51.41,-1019.54C65.63,-1029.26 85.98,-1043.17 107.2,-1057.68"/>
<polygon fill="gray" stroke="gray" stroke-width="0.2" points="105.21,-1060.56 115.44,-1063.31 109.16,-1054.78 105.21,-1060.56"/>
</g>
</g>
</svg>
