<?xml version="1.0" encoding="UTF-8" standalone="no"?>
<!DOCTYPE svg PUBLIC "-//W3C//DTD SVG 1.1//EN"
 "http://www.w3.org/Graphics/SVG/1.1/DTD/svg11.dtd">
<!-- Generated by graphviz version 11.0.0 (20240428.1522)
 -->
<!-- Pages: 1 -->
<svg width="420pt" height="3520pt"
 viewBox="0.00 0.00 420.42 3520.00" xmlns="http://www.w3.org/2000/svg" xmlns:xlink="http://www.w3.org/1999/xlink">
<g id="graph0" class="graph" transform="scale(1 1) rotate(0) translate(4 3516)">
<polygon fill="white" stroke="none" points="-4,4 -4,-3516 416.42,-3516 416.42,4 -4,4"/>
<!-- URX -->
<g id="node1" class="node">
<title>URX</title>
<ellipse fill="none" stroke="black" cx="204.21" cy="-1677" rx="108" ry="108"/>
<text text-anchor="middle" x="204.21" y="-1658" font-family="Times New Roman,serif" font-size="50.00">URX</text>
</g>
<!-- URX&#45;&gt;URX -->
<g id="edge1" class="edge">
<title>URX&#45;&gt;URX</title>
<path fill="none" stroke="gray" stroke-width="0.2" d="M171.88,-1780.39C173.8,-1807.51 184.57,-1828 204.21,-1828 221.32,-1828 231.7,-1812.45 235.36,-1790.52"/>
<polygon fill="gray" stroke="gray" stroke-width="0.2" points="238.83,-1791.03 236.51,-1780.69 231.87,-1790.22 238.83,-1791.03"/>
</g>
<!-- ADA -->
<g id="node2" class="node">
<title>ADA</title>
<ellipse fill="none" stroke="black" cx="380.31" cy="-3494" rx="30.11" ry="18"/>
<text text-anchor="middle" x="380.31" y="-3488.57" font-family="Times New Roman,serif" font-size="14.00">ADA</text>
</g>
<!-- URX&#45;&gt;ADA -->
<g id="edge2" class="edge">
<title>URX&#45;&gt;ADA</title>
<path fill="none" stroke="gray" stroke-width="5" d="M214.57,-1784.74C246.35,-2166.98 348.21,-3433.5 348.21,-3433.5 348.21,-3433.5 358.68,-3446.63 367.47,-3461.85"/>
<polygon fill="gray" stroke="gray" stroke-width="5" points="363.46,-3463.62 371.9,-3470.54 371.26,-3459.65 363.46,-3463.62"/>
</g>
<!-- ADF -->
<g id="node3" class="node">
<title>ADF</title>
<ellipse fill="none" stroke="black" cx="380.31" cy="-3415" rx="29.11" ry="18"/>
<text text-anchor="middle" x="380.31" y="-3409.57" font-family="Times New Roman,serif" font-size="14.00">ADF</text>
</g>
<!-- URX&#45;&gt;ADF -->
<g id="edge3" class="edge">
<title>URX&#45;&gt;ADF</title>
<path fill="none" stroke="gray" stroke-width="0.2" d="M215.01,-1784.69C247.29,-2155.43 348.21,-3354.5 348.21,-3354.5 348.21,-3354.5 361.16,-3370.74 370.35,-3388.04"/>
<polygon fill="gray" stroke="gray" stroke-width="0.2" points="367.1,-3389.34 374.59,-3396.83 373.4,-3386.3 367.1,-3389.34"/>
</g>
<!-- ADL -->
<g id="node4" class="node">
<title>ADL</title>
<ellipse fill="none" stroke="black" cx="380.31" cy="-3336" rx="29.11" ry="18"/>
<text text-anchor="middle" x="380.31" y="-3330.57" font-family="Times New Roman,serif" font-size="14.00">ADL</text>
</g>
<!-- URX&#45;&gt;ADL -->
<g id="edge4" class="edge">
<title>URX&#45;&gt;ADL</title>
<path fill="none" stroke="gray" stroke-width="0.2" d="M215.53,-1784.88C248.34,-2144.12 348.21,-3275.5 348.21,-3275.5 348.21,-3275.5 361.16,-3291.74 370.35,-3309.04"/>
<polygon fill="gray" stroke="gray" stroke-width="0.2" points="367.1,-3310.34 374.59,-3317.83 373.4,-3307.3 367.1,-3310.34"/>
</g>
<!-- AIB -->
<g id="node5" class="node">
<title>AIB</title>
<ellipse fill="none" stroke="black" cx="380.31" cy="-3257" rx="27" ry="18"/>
<text text-anchor="middle" x="380.31" y="-3251.57" font-family="Times New Roman,serif" font-size="14.00">AIB</text>
</g>
<!-- URX&#45;&gt;AIB -->
<g id="edge5" class="edge">
<title>URX&#45;&gt;AIB</title>
<path fill="none" stroke="gray" stroke-width="0.2" d="M215.21,-1784.75C247.7,-2134.86 348.21,-3218 348.21,-3218 348.21,-3218 353.86,-3225.09 360.35,-3233.22"/>
<polygon fill="gray" stroke="gray" stroke-width="0.2" points="357.5,-3235.26 366.48,-3240.9 362.98,-3230.9 357.5,-3235.26"/>
</g>
<!-- AIM -->
<g id="node6" class="node">
<title>AIM</title>
<ellipse fill="none" stroke="black" cx="380.31" cy="-3178" rx="28.11" ry="18"/>
<text text-anchor="middle" x="380.31" y="-3172.57" font-family="Times New Roman,serif" font-size="14.00">AIM</text>
</g>
<!-- URX&#45;&gt;AIM -->
<g id="edge6" class="edge">
<title>URX&#45;&gt;AIM</title>
<path fill="none" stroke="gray" stroke-width="2" d="M216.64,-1784.5C250.55,-2119.01 348.21,-3117.5 348.21,-3117.5 348.21,-3117.5 360,-3132.29 369.07,-3148.67"/>
<polygon fill="gray" stroke="gray" stroke-width="2" points="365.81,-3149.98 373.38,-3157.39 372.08,-3146.87 365.81,-3149.98"/>
</g>
<!-- AIN -->
<g id="node7" class="node">
<title>AIN</title>
<ellipse fill="none" stroke="black" cx="380.31" cy="-3099" rx="27" ry="18"/>
<text text-anchor="middle" x="380.31" y="-3093.57" font-family="Times New Roman,serif" font-size="14.00">AIN</text>
</g>
<!-- URX&#45;&gt;AIN -->
<g id="edge7" class="edge">
<title>URX&#45;&gt;AIN</title>
<path fill="none" stroke="gray" stroke-width="0.2" d="M217.31,-1784.42C251.81,-2106.2 348.21,-3038.5 348.21,-3038.5 348.21,-3038.5 361.16,-3054.74 370.35,-3072.04"/>
<polygon fill="gray" stroke="gray" stroke-width="0.2" points="367.1,-3073.34 374.59,-3080.83 373.4,-3070.3 367.1,-3073.34"/>
</g>
<!-- AIZ -->
<g id="node8" class="node">
<title>AIZ</title>
<ellipse fill="none" stroke="black" cx="380.31" cy="-3020" rx="27" ry="18"/>
<text text-anchor="middle" x="380.31" y="-3014.57" font-family="Times New Roman,serif" font-size="14.00">AIZ</text>
</g>
<!-- URX&#45;&gt;AIZ -->
<g id="edge8" class="edge">
<title>URX&#45;&gt;AIZ</title>
<path fill="none" stroke="gray" stroke-width="0.2" d="M217.01,-1784.54C251.24,-2096.72 348.21,-2981 348.21,-2981 348.21,-2981 353.86,-2988.09 360.35,-2996.22"/>
<polygon fill="gray" stroke="gray" stroke-width="0.2" points="357.5,-2998.26 366.48,-3003.9 362.98,-2993.9 357.5,-2998.26"/>
</g>
<!-- ALM -->
<g id="node9" class="node">
<title>ALM</title>
<ellipse fill="none" stroke="black" cx="380.31" cy="-2941" rx="30.61" ry="18"/>
<text text-anchor="middle" x="380.31" y="-2935.57" font-family="Times New Roman,serif" font-size="14.00">ALM</text>
</g>
<!-- URX&#45;&gt;ALM -->
<g id="edge9" class="edge">
<title>URX&#45;&gt;ALM</title>
<path fill="none" stroke="gray" stroke-width="0.2" d="M217.78,-1784.64C252.67,-2083.56 348.21,-2902 348.21,-2902 348.21,-2902 353.59,-2908.75 359.88,-2916.63"/>
<polygon fill="gray" stroke="gray" stroke-width="0.2" points="357.14,-2918.81 366.12,-2924.45 362.62,-2914.45 357.14,-2918.81"/>
</g>
<!-- AQR -->
<g id="node10" class="node">
<title>AQR</title>
<ellipse fill="none" stroke="black" cx="380.31" cy="-2862" rx="30.61" ry="18"/>
<text text-anchor="middle" x="380.31" y="-2856.57" font-family="Times New Roman,serif" font-size="14.00">AQR</text>
</g>
<!-- URX&#45;&gt;AQR -->
<g id="edge10" class="edge">
<title>URX&#45;&gt;AQR</title>
<path fill="none" stroke="gray" stroke-width="2" d="M219.91,-1784.35C256.4,-2065.73 348.21,-2801.5 348.21,-2801.5 348.21,-2801.5 360,-2816.29 369.07,-2832.67"/>
<polygon fill="gray" stroke="gray" stroke-width="2" points="365.81,-2833.98 373.38,-2841.39 372.08,-2830.87 365.81,-2833.98"/>
</g>
<!-- ASH -->
<g id="node11" class="node">
<title>ASH</title>
<ellipse fill="none" stroke="black" cx="380.31" cy="-2783" rx="29.11" ry="18"/>
<text text-anchor="middle" x="380.31" y="-2777.57" font-family="Times New Roman,serif" font-size="14.00">ASH</text>
</g>
<!-- URX&#45;&gt;ASH -->
<g id="edge11" class="edge">
<title>URX&#45;&gt;ASH</title>
<path fill="none" stroke="gray" stroke-width="0.2" d="M220.99,-1783.99C258.18,-2050.74 348.21,-2722.5 348.21,-2722.5 348.21,-2722.5 361.16,-2738.74 370.35,-2756.04"/>
<polygon fill="gray" stroke="gray" stroke-width="0.2" points="367.1,-2757.34 374.59,-2764.83 373.4,-2754.3 367.1,-2757.34"/>
</g>
<!-- ASI -->
<g id="node12" class="node">
<title>ASI</title>
<ellipse fill="none" stroke="black" cx="380.31" cy="-2704" rx="27" ry="18"/>
<text text-anchor="middle" x="380.31" y="-2698.57" font-family="Times New Roman,serif" font-size="14.00">ASI</text>
</g>
<!-- URX&#45;&gt;ASI -->
<g id="edge12" class="edge">
<title>URX&#45;&gt;ASI</title>
<path fill="none" stroke="gray" stroke-width="0.2" d="M220.72,-1784.14C257.74,-2039.91 348.21,-2665 348.21,-2665 348.21,-2665 353.86,-2672.09 360.35,-2680.22"/>
<polygon fill="gray" stroke="gray" stroke-width="0.2" points="357.5,-2682.26 366.48,-2687.9 362.98,-2677.9 357.5,-2682.26"/>
</g>
<!-- AUA -->
<g id="node13" class="node">
<title>AUA</title>
<ellipse fill="none" stroke="black" cx="380.31" cy="-2625" rx="30.11" ry="18"/>
<text text-anchor="middle" x="380.31" y="-2619.57" font-family="Times New Roman,serif" font-size="14.00">AUA</text>
</g>
<!-- URX&#45;&gt;AUA -->
<g id="edge13" class="edge">
<title>URX&#45;&gt;AUA</title>
<path fill="none" stroke="gray" stroke-width="5" d="M223.76,-1783.39C262.45,-2019.36 348.21,-2564.5 348.21,-2564.5 348.21,-2564.5 358.68,-2577.63 367.47,-2592.85"/>
<polygon fill="gray" stroke="gray" stroke-width="5" points="363.46,-2594.62 371.9,-2601.54 371.26,-2590.65 363.46,-2594.62"/>
</g>
<!-- AVA -->
<g id="node14" class="node">
<title>AVA</title>
<ellipse fill="none" stroke="black" cx="380.31" cy="-2546" rx="30.11" ry="18"/>
<text text-anchor="middle" x="380.31" y="-2540.57" font-family="Times New Roman,serif" font-size="14.00">AVA</text>
</g>
<!-- URX&#45;&gt;AVA -->
<g id="edge14" class="edge">
<title>URX&#45;&gt;AVA</title>
<path fill="none" stroke="gray" stroke-width="0.2" d="M223.54,-1783.39C262.13,-2007.35 348.21,-2507 348.21,-2507 348.21,-2507 353.59,-2513.75 359.88,-2521.63"/>
<polygon fill="gray" stroke="gray" stroke-width="0.2" points="357.14,-2523.81 366.12,-2529.45 362.62,-2519.45 357.14,-2523.81"/>
</g>
<!-- AVB -->
<g id="node15" class="node">
<title>AVB</title>
<ellipse fill="none" stroke="black" cx="380.31" cy="-2467" rx="29.61" ry="18"/>
<text text-anchor="middle" x="380.31" y="-2461.57" font-family="Times New Roman,serif" font-size="14.00">AVB</text>
</g>
<!-- URX&#45;&gt;AVB -->
<g id="edge15" class="edge">
<title>URX&#45;&gt;AVB</title>
<path fill="none" stroke="gray" stroke-width="2" d="M225.4,-1783.01C264.82,-1990.02 348.21,-2428 348.21,-2428 348.21,-2428 352.74,-2433.67 358.33,-2440.69"/>
<polygon fill="gray" stroke="gray" stroke-width="2" points="355.45,-2442.68 364.42,-2448.32 360.92,-2438.32 355.45,-2442.68"/>
</g>
<!-- AVD -->
<g id="node16" class="node">
<title>AVD</title>
<ellipse fill="none" stroke="black" cx="380.31" cy="-2388" rx="30.11" ry="18"/>
<text text-anchor="middle" x="380.31" y="-2382.57" font-family="Times New Roman,serif" font-size="14.00">AVD</text>
</g>
<!-- URX&#45;&gt;AVD -->
<g id="edge16" class="edge">
<title>URX&#45;&gt;AVD</title>
<path fill="none" stroke="gray" stroke-width="0.2" d="M227.71,-1782.74C267.98,-1971.98 348.21,-2349 348.21,-2349 348.21,-2349 353.59,-2355.75 359.88,-2363.63"/>
<polygon fill="gray" stroke="gray" stroke-width="0.2" points="357.14,-2365.81 366.12,-2371.45 362.62,-2361.45 357.14,-2365.81"/>
</g>
<!-- AVE -->
<g id="node17" class="node">
<title>AVE</title>
<ellipse fill="none" stroke="black" cx="380.31" cy="-2309" rx="29.11" ry="18"/>
<text text-anchor="middle" x="380.31" y="-2303.57" font-family="Times New Roman,serif" font-size="14.00">AVE</text>
</g>
<!-- URX&#45;&gt;AVE -->
<g id="edge17" class="edge">
<title>URX&#45;&gt;AVE</title>
<path fill="none" stroke="red" stroke-width="5" d="M233.64,-1781.19C275.34,-1946.3 348.21,-2248.5 348.21,-2248.5 348.21,-2248.5 358.68,-2261.63 367.47,-2276.85"/>
<polygon fill="red" stroke="red" stroke-width="5" points="363.46,-2278.62 371.9,-2285.54 371.26,-2274.65 363.46,-2278.62"/>
</g>
<!-- AVF -->
<g id="node18" class="node">
<title>AVF</title>
<ellipse fill="none" stroke="black" cx="380.31" cy="-2230" rx="29.11" ry="18"/>
<text text-anchor="middle" x="380.31" y="-2224.57" font-family="Times New Roman,serif" font-size="14.00">AVF</text>
</g>
<!-- URX&#45;&gt;AVF -->
<g id="edge18" class="edge">
<title>URX&#45;&gt;AVF</title>
<path fill="none" stroke="gray" stroke-width="nan" d="M234.15,-1781.02C275.94,-1931.21 348.21,-2191 348.21,-2191 348.21,-2191 358.05,-2203.34 366.66,-2214.14"/>
<polygon fill="gray" stroke="gray" stroke-width="nan" points="nan,-nan nan,-nan nan,-nan nan,-nan"/>
</g>
<!-- AVH -->
<g id="node19" class="node">
<title>AVH</title>
<ellipse fill="none" stroke="black" cx="380.31" cy="-2151" rx="30.11" ry="18"/>
<text text-anchor="middle" x="380.31" y="-2145.57" font-family="Times New Roman,serif" font-size="14.00">AVH</text>
</g>
<!-- URX&#45;&gt;AVH -->
<g id="edge19" class="edge">
<title>URX&#45;&gt;AVH</title>
<path fill="none" stroke="gray" stroke-width="0.2" d="M243.44,-1777.99C285.8,-1900.64 348.21,-2090.5 348.21,-2090.5 348.21,-2090.5 361.16,-2106.74 370.35,-2124.04"/>
<polygon fill="gray" stroke="gray" stroke-width="0.2" points="367.1,-2125.34 374.59,-2132.83 373.4,-2122.3 367.1,-2125.34"/>
</g>
<!-- AVJ -->
<g id="node20" class="node">
<title>AVJ</title>
<ellipse fill="none" stroke="black" cx="380.31" cy="-2072" rx="27.11" ry="18"/>
<text text-anchor="middle" x="380.31" y="-2066.57" font-family="Times New Roman,serif" font-size="14.00">AVJ</text>
</g>
<!-- URX&#45;&gt;AVJ -->
<g id="edge20" class="edge">
<title>URX&#45;&gt;AVJ</title>
<path fill="none" stroke="gray" stroke-width="2" d="M245.43,-1777.11C287.72,-1882.41 348.21,-2033 348.21,-2033 348.21,-2033 352.86,-2038.83 358.57,-2045.99"/>
<polygon fill="gray" stroke="gray" stroke-width="2" points="355.81,-2048.13 364.78,-2053.77 361.28,-2043.77 355.81,-2048.13"/>
</g>
<!-- AWB -->
<g id="node21" class="node">
<title>AWB</title>
<ellipse fill="none" stroke="black" cx="380.31" cy="-1993" rx="32.1" ry="18"/>
<text text-anchor="middle" x="380.31" y="-1987.58" font-family="Times New Roman,serif" font-size="14.00">AWB</text>
</g>
<!-- URX&#45;&gt;AWB -->
<g id="edge21" class="edge">
<title>URX&#45;&gt;AWB</title>
<path fill="none" stroke="gray" stroke-width="0.2" d="M254.62,-1772.72C295.96,-1852.78 348.21,-1954 348.21,-1954 348.21,-1954 353.59,-1960.75 359.88,-1968.63"/>
<polygon fill="gray" stroke="gray" stroke-width="0.2" points="357.14,-1970.81 366.12,-1976.45 362.62,-1966.45 357.14,-1970.81"/>
</g>
<!-- BAG -->
<g id="node22" class="node">
<title>BAG</title>
<ellipse fill="none" stroke="black" cx="380.31" cy="-1914" rx="30.11" ry="18"/>
<text text-anchor="middle" x="380.31" y="-1908.58" font-family="Times New Roman,serif" font-size="14.00">BAG</text>
</g>
<!-- URX&#45;&gt;BAG -->
<g id="edge22" class="edge">
<title>URX&#45;&gt;BAG</title>
<path fill="none" stroke="gray" stroke-width="0.2" d="M276.92,-1757.46C312.6,-1804.19 348.21,-1853.5 348.21,-1853.5 348.21,-1853.5 361.16,-1869.74 370.35,-1887.04"/>
<polygon fill="gray" stroke="gray" stroke-width="0.2" points="367.1,-1888.34 374.59,-1895.83 373.4,-1885.3 367.1,-1888.34"/>
</g>
<!-- BDU -->
<g id="node23" class="node">
<title>BDU</title>
<ellipse fill="none" stroke="black" cx="380.31" cy="-1835" rx="29.61" ry="18"/>
<text text-anchor="middle" x="380.31" y="-1829.58" font-family="Times New Roman,serif" font-size="14.00">BDU</text>
</g>
<!-- URX&#45;&gt;BDU -->
<g id="edge23" class="edge">
<title>URX&#45;&gt;BDU</title>
<path fill="none" stroke="gray" stroke-width="0.2" d="M284.88,-1749.3C310.57,-1772.62 337.13,-1796.72 355.52,-1813.4"/>
<polygon fill="gray" stroke="gray" stroke-width="0.2" points="352.89,-1815.74 362.64,-1819.87 357.59,-1810.56 352.89,-1815.74"/>
</g>
<!-- CEP -->
<g id="node24" class="node">
<title>CEP</title>
<ellipse fill="none" stroke="black" cx="380.31" cy="-1756" rx="28.11" ry="18"/>
<text text-anchor="middle" x="380.31" y="-1750.58" font-family="Times New Roman,serif" font-size="14.00">CEP</text>
</g>
<!-- URX&#45;&gt;CEP -->
<g id="edge24" class="edge">
<title>URX&#45;&gt;CEP</title>
<path fill="none" stroke="gray" stroke-width="5" d="M308,-1707.75C324.22,-1715.61 339.69,-1723.89 352.05,-1731.53"/>
<polygon fill="gray" stroke="gray" stroke-width="5" points="349.49,-1735.08 360.24,-1736.99 354.35,-1727.8 349.49,-1735.08"/>
</g>
<!-- DVA -->
<g id="node25" class="node">
<title>DVA</title>
<ellipse fill="none" stroke="black" cx="380.31" cy="-1677" rx="30.11" ry="18"/>
<text text-anchor="middle" x="380.31" y="-1671.58" font-family="Times New Roman,serif" font-size="14.00">DVA</text>
</g>
<!-- URX&#45;&gt;DVA -->
<g id="edge25" class="edge">
<title>URX&#45;&gt;DVA</title>
<path fill="none" stroke="gray" stroke-width="0.2" d="M311.5,-1661.23C324.01,-1661.7 335.96,-1662.63 346.24,-1664.03"/>
<polygon fill="gray" stroke="gray" stroke-width="0.2" points="345.59,-1667.47 356.02,-1665.6 346.7,-1660.56 345.59,-1667.47"/>
</g>
<!-- HSN -->
<g id="node26" class="node">
<title>HSN</title>
<ellipse fill="none" stroke="black" cx="380.31" cy="-1598" rx="29.11" ry="18"/>
<text text-anchor="middle" x="380.31" y="-1592.58" font-family="Times New Roman,serif" font-size="14.00">HSN</text>
</g>
<!-- URX&#45;&gt;HSN -->
<g id="edge26" class="edge">
<title>URX&#45;&gt;HSN</title>
<path fill="none" stroke="gray" stroke-width="0.2" d="M302.95,-1632.65C318.89,-1625.42 334.34,-1618.41 347.12,-1612.61"/>
<polygon fill="gray" stroke="gray" stroke-width="0.2" points="348.41,-1615.87 356.07,-1608.55 345.52,-1609.49 348.41,-1615.87"/>
</g>
<!-- IL1 -->
<g id="node27" class="node">
<title>IL1</title>
<ellipse fill="none" stroke="black" cx="380.31" cy="-1519" rx="27" ry="18"/>
<text text-anchor="middle" x="380.31" y="-1513.58" font-family="Times New Roman,serif" font-size="14.00">IL1</text>
</g>
<!-- URX&#45;&gt;IL1 -->
<g id="edge27" class="edge">
<title>URX&#45;&gt;IL1</title>
<path fill="none" stroke="gray" stroke-width="0.2" d="M276.53,-1596.39C301.67,-1572.81 328.63,-1549.43 348.62,-1534.22"/>
<polygon fill="gray" stroke="gray" stroke-width="0.2" points="350.53,-1537.16 356.5,-1528.4 346.38,-1531.53 350.53,-1537.16"/>
</g>
<!-- IL2 -->
<g id="node28" class="node">
<title>IL2</title>
<ellipse fill="none" stroke="black" cx="380.31" cy="-1440" rx="27" ry="18"/>
<text text-anchor="middle" x="380.31" y="-1434.58" font-family="Times New Roman,serif" font-size="14.00">IL2</text>
</g>
<!-- URX&#45;&gt;IL2 -->
<g id="edge28" class="edge">
<title>URX&#45;&gt;IL2</title>
<path fill="none" stroke="red" stroke-width="0.2" d="M259.89,-1583.97C300.26,-1523.9 348.21,-1457.5 348.21,-1457.5 348.21,-1457.5 348.68,-1456.91 349.51,-1455.91"/>
<polygon fill="red" stroke="red" stroke-width="0.2" points="351.92,-1458.48 355.86,-1448.65 346.65,-1453.87 351.92,-1458.48"/>
</g>
<!-- OLQ -->
<g id="node29" class="node">
<title>OLQ</title>
<ellipse fill="none" stroke="black" cx="380.31" cy="-1361" rx="30.11" ry="18"/>
<text text-anchor="middle" x="380.31" y="-1355.58" font-family="Times New Roman,serif" font-size="14.00">OLQ</text>
</g>
<!-- URX&#45;&gt;OLQ -->
<g id="edge29" class="edge">
<title>URX&#45;&gt;OLQ</title>
<path fill="none" stroke="gray" stroke-width="5" d="M248.12,-1577.94C282.67,-1506.46 327.89,-1418.05 346.67,-1384.33"/>
<polygon fill="gray" stroke="gray" stroke-width="5" points="350.19,-1386.96 351.59,-1376.14 342.69,-1382.45 350.19,-1386.96"/>
</g>
<!-- PVN -->
<g id="node30" class="node">
<title>PVN</title>
<ellipse fill="none" stroke="black" cx="380.31" cy="-1282" rx="29.11" ry="18"/>
<text text-anchor="middle" x="380.31" y="-1276.58" font-family="Times New Roman,serif" font-size="14.00">PVN</text>
</g>
<!-- URX&#45;&gt;PVN -->
<g id="edge30" class="edge">
<title>URX&#45;&gt;PVN</title>
<path fill="none" stroke="gray" stroke-width="0.2" d="M240.19,-1575.11C282.53,-1463.02 348.21,-1299.5 348.21,-1299.5 348.21,-1299.5 348.39,-1299.27 348.73,-1298.87"/>
<polygon fill="gray" stroke="gray" stroke-width="0.2" points="351.04,-1301.54 354.92,-1291.68 345.74,-1296.97 351.04,-1301.54"/>
</g>
<!-- PVP -->
<g id="node31" class="node">
<title>PVP</title>
<ellipse fill="none" stroke="black" cx="380.31" cy="-1203" rx="28.11" ry="18"/>
<text text-anchor="middle" x="380.31" y="-1197.58" font-family="Times New Roman,serif" font-size="14.00">PVP</text>
</g>
<!-- URX&#45;&gt;PVP -->
<g id="edge31" class="edge">
<title>URX&#45;&gt;PVP</title>
<path fill="none" stroke="gray" stroke-width="2" d="M234.84,-1572.97C271.66,-1454.3 331.33,-1271.96 350.14,-1223.84"/>
<polygon fill="gray" stroke="gray" stroke-width="2" points="353.27,-1225.43 354.18,-1214.87 346.89,-1222.55 353.27,-1225.43"/>
</g>
<!-- RIA -->
<g id="node32" class="node">
<title>RIA</title>
<ellipse fill="none" stroke="black" cx="380.31" cy="-1124" rx="27" ry="18"/>
<text text-anchor="middle" x="380.31" y="-1118.58" font-family="Times New Roman,serif" font-size="14.00">RIA</text>
</g>
<!-- URX&#45;&gt;RIA -->
<g id="edge32" class="edge">
<title>URX&#45;&gt;RIA</title>
<path fill="none" stroke="black" stroke-width="5" d="M230.78,-1571.99C266.77,-1435.29 329.69,-1208.22 350.11,-1147.51"/>
<polygon fill="black" stroke="black" stroke-width="5" points="354.17,-1149.13 353.77,-1138.22 346.03,-1145.92 354.17,-1149.13"/>
</g>
<!-- RIB -->
<g id="node33" class="node">
<title>RIB</title>
<ellipse fill="none" stroke="black" cx="380.31" cy="-1045" rx="27" ry="18"/>
<text text-anchor="middle" x="380.31" y="-1039.58" font-family="Times New Roman,serif" font-size="14.00">RIB</text>
</g>
<!-- URX&#45;&gt;RIB -->
<g id="edge33" class="edge">
<title>URX&#45;&gt;RIB</title>
<path fill="none" stroke="gray" stroke-width="0.2" d="M230.53,-1572.01C271.6,-1401.69 348.21,-1084 348.21,-1084 348.21,-1084 353.86,-1076.91 360.35,-1068.78"/>
<polygon fill="gray" stroke="gray" stroke-width="0.2" points="362.98,-1071.1 366.48,-1061.1 357.5,-1066.74 362.98,-1071.1"/>
</g>
<!-- RIC -->
<g id="node34" class="node">
<title>RIC</title>
<ellipse fill="none" stroke="black" cx="380.31" cy="-966" rx="27" ry="18"/>
<text text-anchor="middle" x="380.31" y="-960.58" font-family="Times New Roman,serif" font-size="14.00">RIC</text>
</g>
<!-- URX&#45;&gt;RIC -->
<g id="edge34" class="edge">
<title>URX&#45;&gt;RIC</title>
<path fill="none" stroke="red" stroke-width="2" d="M225.32,-1570.59C261.02,-1394.16 332.94,-1055.34 351.96,-986.6"/>
<polygon fill="red" stroke="red" stroke-width="2" points="355.22,-987.88 355.09,-977.29 348.59,-985.65 355.22,-987.88"/>
</g>
<!-- RID -->
<g id="node35" class="node">
<title>RID</title>
<ellipse fill="none" stroke="black" cx="380.31" cy="-887" rx="27" ry="18"/>
<text text-anchor="middle" x="380.31" y="-881.58" font-family="Times New Roman,serif" font-size="14.00">RID</text>
</g>
<!-- URX&#45;&gt;RID -->
<g id="edge35" class="edge">
<title>URX&#45;&gt;RID</title>
<path fill="none" stroke="gray" stroke-width="0.2" d="M225.4,-1570.99C264.82,-1363.98 348.21,-926 348.21,-926 348.21,-926 353.86,-918.91 360.35,-910.78"/>
<polygon fill="gray" stroke="gray" stroke-width="0.2" points="362.98,-913.1 366.48,-903.1 357.5,-908.74 362.98,-913.1"/>
</g>
<!-- RIF -->
<g id="node36" class="node">
<title>RIF</title>
<ellipse fill="none" stroke="black" cx="380.31" cy="-808" rx="27" ry="18"/>
<text text-anchor="middle" x="380.31" y="-802.58" font-family="Times New Roman,serif" font-size="14.00">RIF</text>
</g>
<!-- URX&#45;&gt;RIF -->
<g id="edge36" class="edge">
<title>URX&#45;&gt;RIF</title>
<path fill="none" stroke="gray" stroke-width="0.2" d="M221.76,-1570C259.4,-1341 348.21,-825.5 348.21,-825.5 348.21,-825.5 348.68,-824.91 349.51,-823.91"/>
<polygon fill="gray" stroke="gray" stroke-width="0.2" points="351.92,-826.48 355.86,-816.65 346.65,-821.87 351.92,-826.48"/>
</g>
<!-- RIG -->
<g id="node37" class="node">
<title>RIG</title>
<ellipse fill="none" stroke="black" cx="380.31" cy="-729" rx="27.11" ry="18"/>
<text text-anchor="middle" x="380.31" y="-723.58" font-family="Times New Roman,serif" font-size="14.00">RIG</text>
</g>
<!-- URX&#45;&gt;RIG -->
<g id="edge37" class="edge">
<title>URX&#45;&gt;RIG</title>
<path fill="none" stroke="black" stroke-width="5" d="M220.38,-1570C253.88,-1347.14 332.29,-847.78 352.03,-753"/>
<polygon fill="black" stroke="black" stroke-width="5" points="356.23,-754.23 354.5,-743.46 347.76,-752.04 356.23,-754.23"/>
</g>
<!-- RIP -->
<g id="node38" class="node">
<title>RIP</title>
<ellipse fill="none" stroke="black" cx="380.31" cy="-650" rx="27" ry="18"/>
<text text-anchor="middle" x="380.31" y="-644.58" font-family="Times New Roman,serif" font-size="14.00">RIP</text>
</g>
<!-- URX&#45;&gt;RIP -->
<g id="edge38" class="edge">
<title>URX&#45;&gt;RIP</title>
<path fill="none" stroke="gray" stroke-width="5" d="M220.72,-1569.86C257.74,-1314.09 348.21,-689 348.21,-689 348.21,-689 351.87,-684.42 356.67,-678.39"/>
<polygon fill="gray" stroke="gray" stroke-width="5" points="359.96,-681.29 362.77,-670.74 353.12,-675.83 359.96,-681.29"/>
</g>
<!-- RIR -->
<g id="node39" class="node">
<title>RIR</title>
<ellipse fill="none" stroke="black" cx="380.31" cy="-571" rx="27" ry="18"/>
<text text-anchor="middle" x="380.31" y="-565.58" font-family="Times New Roman,serif" font-size="14.00">RIR</text>
</g>
<!-- URX&#45;&gt;RIR -->
<g id="edge39" class="edge">
<title>URX&#45;&gt;RIR</title>
<path fill="none" stroke="black" stroke-width="5" d="M218.28,-1569.56C250.69,-1317.14 333.09,-701.44 352.46,-595.1"/>
<polygon fill="black" stroke="black" stroke-width="5" points="356.69,-596.22 354.66,-585.5 348.16,-594.26 356.69,-596.22"/>
</g>
<!-- RMD -->
<g id="node40" class="node">
<title>RMD</title>
<ellipse fill="none" stroke="black" cx="380.31" cy="-492" rx="31.6" ry="18"/>
<text text-anchor="middle" x="380.31" y="-486.57" font-family="Times New Roman,serif" font-size="14.00">RMD</text>
</g>
<!-- URX&#45;&gt;RMD -->
<g id="edge40" class="edge">
<title>URX&#45;&gt;RMD</title>
<path fill="none" stroke="gray" stroke-width="2" d="M217.44,-1569.4C249.58,-1300.82 334.81,-616.94 351.61,-515.16"/>
<polygon fill="gray" stroke="gray" stroke-width="2" points="355.02,-515.92 353.6,-505.42 348.16,-514.52 355.02,-515.92"/>
</g>
<!-- RMF -->
<g id="node41" class="node">
<title>RMF</title>
<ellipse fill="none" stroke="black" cx="380.31" cy="-413" rx="30.61" ry="18"/>
<text text-anchor="middle" x="380.31" y="-407.57" font-family="Times New Roman,serif" font-size="14.00">RMF</text>
</g>
<!-- URX&#45;&gt;RMF -->
<g id="edge41" class="edge">
<title>URX&#45;&gt;RMF</title>
<path fill="none" stroke="gray" stroke-width="0.2" d="M217.78,-1569.36C252.67,-1270.44 348.21,-452 348.21,-452 348.21,-452 353.59,-445.25 359.88,-437.37"/>
<polygon fill="gray" stroke="gray" stroke-width="0.2" points="362.62,-439.55 366.12,-429.55 357.14,-435.19 362.62,-439.55"/>
</g>
<!-- RMG -->
<g id="node42" class="node">
<title>RMG</title>
<ellipse fill="none" stroke="black" cx="380.31" cy="-334" rx="32.1" ry="18"/>
<text text-anchor="middle" x="380.31" y="-328.57" font-family="Times New Roman,serif" font-size="14.00">RMG</text>
</g>
<!-- URX&#45;&gt;RMG -->
<g id="edge42" class="edge">
<title>URX&#45;&gt;RMG</title>
<path fill="none" stroke="red" stroke-width="5" d="M216.02,-1569.32C246.86,-1276.63 333.9,-482.12 351.17,-360.47"/>
<polygon fill="red" stroke="red" stroke-width="5" points="355.43,-361.53 352.84,-350.93 346.81,-360.03 355.43,-361.53"/>
</g>
<!-- RMH -->
<g id="node43" class="node">
<title>RMH</title>
<ellipse fill="none" stroke="black" cx="380.31" cy="-255" rx="31.6" ry="18"/>
<text text-anchor="middle" x="380.31" y="-249.57" font-family="Times New Roman,serif" font-size="14.00">RMH</text>
</g>
<!-- URX&#45;&gt;RMH -->
<g id="edge43" class="edge">
<title>URX&#45;&gt;RMH</title>
<path fill="none" stroke="gray" stroke-width="2" d="M215.44,-1569.17C246.09,-1260.95 335.78,-392.76 351.97,-278"/>
<polygon fill="gray" stroke="gray" stroke-width="2" points="355.37,-278.9 353.68,-268.44 348.48,-277.67 355.37,-278.9"/>
</g>
<!-- SIA -->
<g id="node44" class="node">
<title>SIA</title>
<ellipse fill="none" stroke="black" cx="380.31" cy="-176" rx="27" ry="18"/>
<text text-anchor="middle" x="380.31" y="-170.57" font-family="Times New Roman,serif" font-size="14.00">SIA</text>
</g>
<!-- URX&#45;&gt;SIA -->
<g id="edge44" class="edge">
<title>URX&#45;&gt;SIA</title>
<path fill="none" stroke="gray" stroke-width="0.2" d="M215.76,-1569.2C248.81,-1231.27 348.21,-215 348.21,-215 348.21,-215 353.86,-207.91 360.35,-199.78"/>
<polygon fill="gray" stroke="gray" stroke-width="0.2" points="362.98,-202.1 366.48,-192.1 357.5,-197.74 362.98,-202.1"/>
</g>
<!-- SMB -->
<g id="node45" class="node">
<title>SMB</title>
<ellipse fill="none" stroke="black" cx="380.31" cy="-97" rx="30.11" ry="18"/>
<text text-anchor="middle" x="380.31" y="-91.58" font-family="Times New Roman,serif" font-size="14.00">SMB</text>
</g>
<!-- URX&#45;&gt;SMB -->
<g id="edge45" class="edge">
<title>URX&#45;&gt;SMB</title>
<path fill="none" stroke="gray" stroke-width="2" d="M215.21,-1569.25C247.7,-1219.14 348.21,-136 348.21,-136 348.21,-136 352.74,-130.33 358.33,-123.31"/>
<polygon fill="gray" stroke="gray" stroke-width="2" points="360.92,-125.68 364.42,-115.68 355.45,-121.32 360.92,-125.68"/>
</g>
<!-- URB -->
<g id="node46" class="node">
<title>URB</title>
<ellipse fill="none" stroke="black" cx="380.31" cy="-18" rx="29.61" ry="18"/>
<text text-anchor="middle" x="380.31" y="-12.57" font-family="Times New Roman,serif" font-size="14.00">URB</text>
</g>
<!-- URX&#45;&gt;URB -->
<g id="edge46" class="edge">
<title>URX&#45;&gt;URB</title>
<path fill="none" stroke="gray" stroke-width="2" d="M214,-1569.16C243.32,-1224.6 336.57,-167.43 352.74,-40.3"/>
<polygon fill="gray" stroke="gray" stroke-width="2" points="356.14,-41.22 354.31,-30.78 349.23,-40.07 356.14,-41.22"/>
</g>
<!-- ADA&#45;&gt;URX -->
<g id="edge47" class="edge">
<title>ADA&#45;&gt;URX</title>
<path fill="none" stroke="gray" stroke-width="2" d="M354.81,-3484.21C350.95,-3479.94 348.21,-3476.5 348.21,-3476.5 348.21,-3476.5 245.68,-2201.66 214.26,-1797.9"/>
<polygon fill="gray" stroke="gray" stroke-width="2" points="217.76,-1797.78 213.49,-1788.08 210.78,-1798.32 217.76,-1797.78"/>
</g>
<!-- ADF&#45;&gt;URX -->
<g id="edge48" class="edge">
<title>ADF&#45;&gt;URX</title>
<path fill="none" stroke="gray" stroke-width="5" d="M355.11,-3405.55C351.1,-3401.12 348.21,-3397.5 348.21,-3397.5 348.21,-3397.5 247.04,-2195.48 214.89,-1800.73"/>
<polygon fill="gray" stroke="gray" stroke-width="5" points="219.27,-1800.62 214.1,-1791.01 210.55,-1801.33 219.27,-1800.62"/>
</g>
<!-- ADL&#45;&gt;URX -->
<g id="edge49" class="edge">
<title>ADL&#45;&gt;URX</title>
<path fill="none" stroke="gray" stroke-width="2" d="M355.11,-3326.55C351.1,-3322.12 348.21,-3318.5 348.21,-3318.5 348.21,-3318.5 247.46,-2177.12 215.09,-1797.74"/>
<polygon fill="gray" stroke="gray" stroke-width="2" points="218.59,-1797.53 214.25,-1787.86 211.61,-1798.12 218.59,-1797.53"/>
</g>
<!-- AIM&#45;&gt;URX -->
<g id="edge50" class="edge">
<title>AIM&#45;&gt;URX</title>
<path fill="none" stroke="gray" stroke-width="2" d="M355.43,-3168.89C351.25,-3164.31 348.21,-3160.5 348.21,-3160.5 348.21,-3160.5 249.51,-2151.39 216.11,-1797.58"/>
<polygon fill="gray" stroke="gray" stroke-width="2" points="219.61,-1797.4 215.18,-1787.78 212.64,-1798.06 219.61,-1797.4"/>
</g>
<!-- AIN&#45;&gt;URX -->
<g id="edge51" class="edge">
<title>AIN&#45;&gt;URX</title>
<path fill="none" stroke="gray" stroke-width="0.2" d="M356.06,-3090.58C351.56,-3085.7 348.21,-3081.5 348.21,-3081.5 348.21,-3081.5 250.16,-2133.22 216.44,-1794.9"/>
<polygon fill="gray" stroke="gray" stroke-width="0.2" points="219.94,-1794.73 215.47,-1785.13 212.98,-1795.42 219.94,-1794.73"/>
</g>
<!-- AQR&#45;&gt;URX -->
<g id="edge52" class="edge">
<title>AQR&#45;&gt;URX</title>
<path fill="none" stroke="gray" stroke-width="2" d="M354.51,-2851.87C350.81,-2847.76 348.21,-2844.5 348.21,-2844.5 348.21,-2844.5 254.75,-2095.47 218.94,-1797.17"/>
<polygon fill="gray" stroke="gray" stroke-width="2" points="222.46,-1797.12 217.8,-1787.6 215.51,-1797.95 222.46,-1797.12"/>
</g>
<!-- ASH&#45;&gt;URX -->
<g id="edge53" class="edge">
<title>ASH&#45;&gt;URX</title>
<path fill="none" stroke="gray" stroke-width="0.2" d="M355.11,-2773.55C351.1,-2769.12 348.21,-2765.5 348.21,-2765.5 348.21,-2765.5 255.79,-2075.87 219.55,-1794.29"/>
<polygon fill="gray" stroke="gray" stroke-width="0.2" points="223.07,-1794.22 218.32,-1784.74 216.12,-1795.11 223.07,-1794.22"/>
</g>
<!-- AUA&#45;&gt;URX -->
<g id="edge54" class="edge">
<title>AUA&#45;&gt;URX</title>
<path fill="none" stroke="gray" stroke-width="5" d="M354.81,-2615.21C350.95,-2610.94 348.21,-2607.5 348.21,-2607.5 348.21,-2607.5 260.97,-2052.9 222.77,-1799.86"/>
<polygon fill="gray" stroke="gray" stroke-width="5" points="227.13,-1799.4 221.31,-1790.17 218.47,-1800.71 227.13,-1799.4"/>
</g>
<!-- AVE&#45;&gt;URX -->
<g id="edge55" class="edge">
<title>AVE&#45;&gt;URX</title>
<path fill="none" stroke="gray" stroke-width="0.2" d="M355.11,-2299.55C351.1,-2295.12 348.21,-2291.5 348.21,-2291.5 348.21,-2291.5 270.93,-1971.04 230,-1792.73"/>
<polygon fill="gray" stroke="gray" stroke-width="0.2" points="233.43,-1792.03 227.78,-1783.07 226.6,-1793.6 233.43,-1792.03"/>
</g>
<!-- AVH&#45;&gt;URX -->
<g id="edge56" class="edge">
<title>AVH&#45;&gt;URX</title>
<path fill="none" stroke="gray" stroke-width="0.2" d="M354.81,-2141.21C350.95,-2136.94 348.21,-2133.5 348.21,-2133.5 348.21,-2133.5 280.04,-1926.12 237.83,-1790.66"/>
<polygon fill="gray" stroke="gray" stroke-width="0.2" points="241.24,-1789.83 234.93,-1781.32 234.56,-1791.91 241.24,-1789.83"/>
</g>
<!-- BAG&#45;&gt;URX -->
<g id="edge57" class="edge">
<title>BAG&#45;&gt;URX</title>
<path fill="none" stroke="gray" stroke-width="0.2" d="M354.81,-1904.21C350.95,-1899.94 348.21,-1896.5 348.21,-1896.5 348.21,-1896.5 304.65,-1836.18 265.61,-1778.51"/>
<polygon fill="gray" stroke="gray" stroke-width="0.2" points="268.55,-1776.61 260.06,-1770.28 262.75,-1780.53 268.55,-1776.61"/>
</g>
<!-- CEP&#45;&gt;URX -->
<g id="edge58" class="edge">
<title>CEP&#45;&gt;URX</title>
<path fill="none" stroke="gray" stroke-width="5" d="M352.06,-1755.74C340.42,-1752.37 326.02,-1747.06 310.83,-1740.72"/>
<polygon fill="gray" stroke="gray" stroke-width="5" points="312.73,-1736.77 301.81,-1736.82 309.26,-1744.81 312.73,-1736.77"/>
</g>
<!-- DVA&#45;&gt;URX -->
<g id="edge59" class="edge">
<title>DVA&#45;&gt;URX</title>
<path fill="none" stroke="gray" stroke-width="0.2" d="M356.32,-1688.35C346.65,-1690.19 334.63,-1691.5 321.62,-1692.28"/>
<polygon fill="gray" stroke="gray" stroke-width="0.2" points="321.62,-1688.78 311.81,-1692.76 321.96,-1695.77 321.62,-1688.78"/>
</g>
<!-- IL1&#45;&gt;URX -->
<g id="edge60" class="edge">
<title>IL1&#45;&gt;URX</title>
<path fill="none" stroke="gray" stroke-width="0.2" d="M369.45,-1535.92C355.35,-1553.73 327.95,-1581.3 299.51,-1607.5"/>
<polygon fill="gray" stroke="gray" stroke-width="0.2" points="297.5,-1604.59 292.49,-1613.92 302.23,-1609.76 297.5,-1604.59"/>
</g>
<!-- IL2&#45;&gt;URX -->
<g id="edge61" class="edge">
<title>IL2&#45;&gt;URX</title>
<path fill="none" stroke="red" stroke-width="2" d="M374.72,-1457.9C366.07,-1478.1 348.21,-1500.5 348.21,-1500.5 348.21,-1500.5 317.56,-1542.94 284.64,-1586.39"/>
<polygon fill="red" stroke="red" stroke-width="2" points="282.02,-1584.05 278.75,-1594.13 287.59,-1588.29 282.02,-1584.05"/>
</g>
<!-- OLQ&#45;&gt;URX -->
<g id="edge62" class="edge">
<title>OLQ&#45;&gt;URX</title>
<path fill="none" stroke="gray" stroke-width="0.2" d="M374.72,-1378.9C366.07,-1399.1 348.21,-1421.5 348.21,-1421.5 348.21,-1421.5 305.26,-1504.69 266.44,-1576.36"/>
<polygon fill="gray" stroke="gray" stroke-width="0.2" points="263.57,-1574.31 261.87,-1584.77 269.72,-1577.65 263.57,-1574.31"/>
</g>
<!-- PVN&#45;&gt;URX -->
<g id="edge63" class="edge">
<title>PVN&#45;&gt;URX</title>
<path fill="none" stroke="gray" stroke-width="0.2" d="M374.72,-1299.9C366.07,-1320.1 348.21,-1342.5 348.21,-1342.5 348.21,-1342.5 296.28,-1471.79 255.01,-1569.83"/>
<polygon fill="gray" stroke="gray" stroke-width="0.2" points="251.83,-1568.36 251.17,-1578.94 258.28,-1571.08 251.83,-1568.36"/>
</g>
<!-- PVP&#45;&gt;URX -->
<g id="edge64" class="edge">
<title>PVP&#45;&gt;URX</title>
<path fill="none" stroke="gray" stroke-width="0.2" d="M374.72,-1220.9C366.07,-1241.1 348.21,-1263.5 348.21,-1263.5 348.21,-1263.5 288.93,-1443.84 246.7,-1566.55"/>
<polygon fill="gray" stroke="gray" stroke-width="0.2" points="243.49,-1565.13 243.54,-1575.73 250.11,-1567.41 243.49,-1565.13"/>
</g>
<!-- RIA&#45;&gt;URX -->
<g id="edge65" class="edge">
<title>RIA&#45;&gt;URX</title>
<path fill="none" stroke="gray" stroke-width="0.2" d="M374.72,-1141.9C366.07,-1162.1 348.21,-1184.5 348.21,-1184.5 348.21,-1184.5 282.94,-1419.11 240.6,-1564.69"/>
<polygon fill="gray" stroke="gray" stroke-width="0.2" points="237.36,-1563.28 237.92,-1573.86 244.08,-1565.23 237.36,-1563.28"/>
</g>
<!-- RIC&#45;&gt;URX -->
<g id="edge66" class="edge">
<title>RIC&#45;&gt;URX</title>
<path fill="none" stroke="gray" stroke-width="0.2" d="M374.72,-983.9C366.07,-1004.1 348.21,-1026.5 348.21,-1026.5 348.21,-1026.5 274.08,-1374.89 232.56,-1561.95"/>
<polygon fill="gray" stroke="gray" stroke-width="0.2" points="229.19,-1561.01 230.43,-1571.53 236.02,-1562.53 229.19,-1561.01"/>
</g>
<!-- RIF&#45;&gt;URX -->
<g id="edge67" class="edge">
<title>RIF&#45;&gt;URX</title>
<path fill="none" stroke="gray" stroke-width="0.2" d="M374.72,-825.9C366.07,-846.1 348.21,-868.5 348.21,-868.5 348.21,-868.5 267.45,-1337.27 227.31,-1561.11"/>
<polygon fill="gray" stroke="gray" stroke-width="0.2" points="223.92,-1560.16 225.6,-1570.63 230.81,-1561.4 223.92,-1560.16"/>
</g>
<!-- RIG&#45;&gt;URX -->
<g id="edge68" class="edge">
<title>RIG&#45;&gt;URX</title>
<path fill="none" stroke="gray" stroke-width="0.2" d="M374.72,-746.9C366.07,-767.1 348.21,-789.5 348.21,-789.5 348.21,-789.5 264.78,-1319.84 225.37,-1560.76"/>
<polygon fill="gray" stroke="gray" stroke-width="0.2" points="221.97,-1559.88 223.81,-1570.31 228.88,-1561.01 221.97,-1559.88"/>
</g>
<!-- RIR&#45;&gt;URX -->
<g id="edge69" class="edge">
<title>RIR&#45;&gt;URX</title>
<path fill="none" stroke="gray" stroke-width="5" d="M374.72,-588.9C366.07,-609.1 348.21,-631.5 348.21,-631.5 348.21,-631.5 261.58,-1277.91 223.17,-1554.34"/>
<polygon fill="gray" stroke="gray" stroke-width="5" points="218.9,-1553.32 221.85,-1563.83 227.56,-1554.53 218.9,-1553.32"/>
</g>
<!-- RMD&#45;&gt;URX -->
<g id="edge70" class="edge">
<title>RMD&#45;&gt;URX</title>
<path fill="none" stroke="gray" stroke-width="0.2" d="M374.72,-509.9C366.07,-530.1 348.21,-552.5 348.21,-552.5 348.21,-552.5 258.54,-1271.13 221.22,-1559.57"/>
<polygon fill="gray" stroke="gray" stroke-width="0.2" points="217.76,-1558.98 219.95,-1569.35 224.7,-1559.88 217.76,-1558.98"/>
</g>
<!-- RMG&#45;&gt;URX -->
<g id="edge71" class="edge">
<title>RMG&#45;&gt;URX</title>
<path fill="none" stroke="red" stroke-width="2" d="M374.59,-352.21C365.89,-372.33 348.21,-394.5 348.21,-394.5 348.21,-394.5 255.73,-1237.84 219.51,-1556.91"/>
<polygon fill="red" stroke="red" stroke-width="2" points="216.08,-1556.08 218.43,-1566.41 223.04,-1556.87 216.08,-1556.08"/>
</g>
<!-- RMH&#45;&gt;URX -->
<g id="edge72" class="edge">
<title>RMH&#45;&gt;URX</title>
<path fill="none" stroke="gray" stroke-width="0.2" d="M374.72,-272.9C366.07,-293.1 348.21,-315.5 348.21,-315.5 348.21,-315.5 253.78,-1228.78 218.39,-1559.49"/>
<polygon fill="gray" stroke="gray" stroke-width="0.2" points="214.93,-1558.96 217.34,-1569.28 221.89,-1559.71 214.93,-1558.96"/>
</g>
<!-- URB&#45;&gt;URX -->
<g id="edge73" class="edge">
<title>URB&#45;&gt;URX</title>
<path fill="none" stroke="red" stroke-width="5" d="M374.72,-35.9C366.07,-56.1 348.21,-78.5 348.21,-78.5 348.21,-78.5 251.2,-1177.52 216.98,-1553.12"/>
<polygon fill="red" stroke="red" stroke-width="5" points="212.64,-1552.55 216.09,-1562.91 221.36,-1553.35 212.64,-1552.55"/>
</g>
<!-- ADE -->
<g id="node47" class="node">
<title>ADE</title>
<ellipse fill="none" stroke="black" cx="30.11" cy="-1835" rx="29.11" ry="18"/>
<text text-anchor="middle" x="30.11" y="-1829.58" font-family="Times New Roman,serif" font-size="14.00">ADE</text>
</g>
<!-- ADE&#45;&gt;URX -->
<g id="edge74" class="edge">
<title>ADE&#45;&gt;URX</title>
<path fill="none" stroke="gray" stroke-width="0.2" d="M47.3,-1820.14C63.59,-1805.18 90.04,-1780.9 116.56,-1756.55"/>
<polygon fill="gray" stroke="gray" stroke-width="0.2" points="118.81,-1759.23 123.81,-1749.89 114.08,-1754.08 118.81,-1759.23"/>
</g>
<!-- OLL -->
<g id="node48" class="node">
<title>OLL</title>
<ellipse fill="none" stroke="black" cx="30.11" cy="-1756" rx="28.61" ry="18"/>
<text text-anchor="middle" x="30.11" y="-1750.58" font-family="Times New Roman,serif" font-size="14.00">OLL</text>
</g>
<!-- OLL&#45;&gt;URX -->
<g id="edge75" class="edge">
<title>OLL&#45;&gt;URX</title>
<path fill="none" stroke="gray" stroke-width="0.2" d="M53.96,-1745.51C65.53,-1740.2 80.5,-1733.33 96.49,-1725.99"/>
<polygon fill="gray" stroke="gray" stroke-width="0.2" points="97.55,-1729.35 105.18,-1722 94.63,-1722.99 97.55,-1729.35"/>
</g>
<!-- PVC -->
<g id="node49" class="node">
<title>PVC</title>
<ellipse fill="none" stroke="black" cx="30.11" cy="-1677" rx="29.11" ry="18"/>
<text text-anchor="middle" x="30.11" y="-1671.58" font-family="Times New Roman,serif" font-size="14.00">PVC</text>
</g>
<!-- PVC&#45;&gt;URX -->
<g id="edge76" class="edge">
<title>PVC&#45;&gt;URX</title>
<path fill="none" stroke="gray" stroke-width="0.2" d="M59.53,-1677C67.32,-1677 76.28,-1677 85.84,-1677"/>
<polygon fill="gray" stroke="gray" stroke-width="0.2" points="85.69,-1680.5 95.69,-1677 85.69,-1673.5 85.69,-1680.5"/>
</g>
<!-- PVD -->
<g id="node50" class="node">
<title>PVD</title>
<ellipse fill="none" stroke="black" cx="30.11" cy="-1598" rx="29.11" ry="18"/>
<text text-anchor="middle" x="30.11" y="-1592.58" font-family="Times New Roman,serif" font-size="14.00">PVD</text>
</g>
<!-- PVD&#45;&gt;URX -->
<g id="edge77" class="edge">
<title>PVD&#45;&gt;URX</title>
<path fill="none" stroke="gray" stroke-width="0.2" d="M53.96,-1608.49C65.53,-1613.8 80.5,-1620.67 96.49,-1628.01"/>
<polygon fill="gray" stroke="gray" stroke-width="0.2" points="94.63,-1631.01 105.18,-1632 97.55,-1624.65 94.63,-1631.01"/>
</g>
<!-- URY -->
<g id="node51" class="node">
<title>URY</title>
<ellipse fill="none" stroke="black" cx="30.11" cy="-1519" rx="30.11" ry="18"/>
<text text-anchor="middle" x="30.11" y="-1513.58" font-family="Times New Roman,serif" font-size="14.00">URY</text>
</g>
<!-- URY&#45;&gt;URX -->
<g id="edge78" class="edge">
<title>URY&#45;&gt;URX</title>
<path fill="none" stroke="gray" stroke-width="0.2" d="M47.61,-1534.15C63.91,-1549.12 90.16,-1573.22 116.5,-1597.39"/>
<polygon fill="gray" stroke="gray" stroke-width="0.2" points="113.96,-1599.82 123.7,-1604 118.7,-1594.66 113.96,-1599.82"/>
</g>
</g>
</svg>
