<?xml version="1.0" encoding="UTF-8" standalone="no"?>
<!DOCTYPE svg PUBLIC "-//W3C//DTD SVG 1.1//EN"
 "http://www.w3.org/Graphics/SVG/1.1/DTD/svg11.dtd">
<!-- Generated by graphviz version 11.0.0 (20240428.1522)
 -->
<!-- Pages: 1 -->
<svg width="425pt" height="3046pt"
 viewBox="0.00 0.00 425.41 3046.00" xmlns="http://www.w3.org/2000/svg" xmlns:xlink="http://www.w3.org/1999/xlink">
<g id="graph0" class="graph" transform="scale(1 1) rotate(0) translate(4 3042)">
<polygon fill="white" stroke="none" points="-4,4 -4,-3042 421.41,-3042 421.41,4 -4,4"/>
<!-- URY -->
<g id="node1" class="node">
<title>URY</title>
<ellipse fill="none" stroke="black" cx="208.2" cy="-1519" rx="108" ry="108"/>
<text text-anchor="middle" x="208.2" y="-1500" font-family="Times New Roman,serif" font-size="50.00">URY</text>
</g>
<!-- URY&#45;&gt;URY -->
<g id="edge1" class="edge">
<title>URY&#45;&gt;URY</title>
<path fill="none" stroke="gray" stroke-width="2" d="M175.5,-1622.39C177.44,-1649.51 188.34,-1670 208.2,-1670 224.81,-1670 235.15,-1655.68 239.23,-1635.14"/>
<polygon fill="gray" stroke="gray" stroke-width="2" points="242.68,-1635.77 240.51,-1625.39 235.74,-1634.85 242.68,-1635.77"/>
</g>
<!-- ADA -->
<g id="node2" class="node">
<title>ADA</title>
<ellipse fill="none" stroke="black" cx="384.81" cy="-3020" rx="30.11" ry="18"/>
<text text-anchor="middle" x="384.81" y="-3014.57" font-family="Times New Roman,serif" font-size="14.00">ADA</text>
</g>
<!-- URY&#45;&gt;ADA -->
<g id="edge2" class="edge">
<title>URY&#45;&gt;ADA</title>
<path fill="none" stroke="gray" stroke-width="0.2" d="M220.63,-1626.5C254.54,-1961.01 352.2,-2959.5 352.2,-2959.5 352.2,-2959.5 365.36,-2975.74 374.7,-2993.04"/>
<polygon fill="gray" stroke="gray" stroke-width="0.2" points="371.46,-2994.39 379.01,-3001.83 377.75,-2991.31 371.46,-2994.39"/>
</g>
<!-- ADL -->
<g id="node3" class="node">
<title>ADL</title>
<ellipse fill="none" stroke="black" cx="384.81" cy="-2941" rx="29.11" ry="18"/>
<text text-anchor="middle" x="384.81" y="-2935.57" font-family="Times New Roman,serif" font-size="14.00">ADL</text>
</g>
<!-- URY&#45;&gt;ADL -->
<g id="edge3" class="edge">
<title>URY&#45;&gt;ADL</title>
<path fill="none" stroke="gray" stroke-width="0.2" d="M221.3,-1626.42C255.81,-1948.2 352.2,-2880.5 352.2,-2880.5 352.2,-2880.5 365.36,-2896.74 374.7,-2914.04"/>
<polygon fill="gray" stroke="gray" stroke-width="0.2" points="371.46,-2915.39 379.01,-2922.83 377.75,-2912.31 371.46,-2915.39"/>
</g>
<!-- AIB -->
<g id="node4" class="node">
<title>AIB</title>
<ellipse fill="none" stroke="black" cx="384.81" cy="-2862" rx="27" ry="18"/>
<text text-anchor="middle" x="384.81" y="-2856.57" font-family="Times New Roman,serif" font-size="14.00">AIB</text>
</g>
<!-- URY&#45;&gt;AIB -->
<g id="edge4" class="edge">
<title>URY&#45;&gt;AIB</title>
<path fill="none" stroke="gray" stroke-width="2" d="M222.08,-1626.58C257.23,-1935.48 352.2,-2801.5 352.2,-2801.5 352.2,-2801.5 364.18,-2816.29 373.39,-2832.67"/>
<polygon fill="gray" stroke="gray" stroke-width="2" points="370.16,-2834.04 377.78,-2841.4 376.42,-2830.89 370.16,-2834.04"/>
</g>
<!-- AIM -->
<g id="node5" class="node">
<title>AIM</title>
<ellipse fill="none" stroke="black" cx="384.81" cy="-2783" rx="28.11" ry="18"/>
<text text-anchor="middle" x="384.81" y="-2777.57" font-family="Times New Roman,serif" font-size="14.00">AIM</text>
</g>
<!-- URY&#45;&gt;AIM -->
<g id="edge5" class="edge">
<title>URY&#45;&gt;AIM</title>
<path fill="none" stroke="gray" stroke-width="0.2" d="M221.77,-1626.64C256.66,-1925.56 352.2,-2744 352.2,-2744 352.2,-2744 357.95,-2751.09 364.54,-2759.22"/>
<polygon fill="gray" stroke="gray" stroke-width="0.2" points="361.75,-2761.34 370.76,-2766.9 367.19,-2756.93 361.75,-2761.34"/>
</g>
<!-- AIZ -->
<g id="node6" class="node">
<title>AIZ</title>
<ellipse fill="none" stroke="black" cx="384.81" cy="-2704" rx="27" ry="18"/>
<text text-anchor="middle" x="384.81" y="-2698.57" font-family="Times New Roman,serif" font-size="14.00">AIZ</text>
</g>
<!-- URY&#45;&gt;AIZ -->
<g id="edge6" class="edge">
<title>URY&#45;&gt;AIZ</title>
<path fill="none" stroke="gray" stroke-width="0.2" d="M223.9,-1626.35C260.39,-1907.73 352.2,-2643.5 352.2,-2643.5 352.2,-2643.5 365.36,-2659.74 374.7,-2677.04"/>
<polygon fill="gray" stroke="gray" stroke-width="0.2" points="371.46,-2678.39 379.01,-2685.83 377.75,-2675.31 371.46,-2678.39"/>
</g>
<!-- ALM -->
<g id="node7" class="node">
<title>ALM</title>
<ellipse fill="none" stroke="black" cx="384.81" cy="-2625" rx="30.61" ry="18"/>
<text text-anchor="middle" x="384.81" y="-2619.57" font-family="Times New Roman,serif" font-size="14.00">ALM</text>
</g>
<!-- URY&#45;&gt;ALM -->
<g id="edge7" class="edge">
<title>URY&#45;&gt;ALM</title>
<path fill="none" stroke="gray" stroke-width="0.2" d="M223.57,-1626.19C259.83,-1896.77 352.2,-2586 352.2,-2586 352.2,-2586 357.9,-2593.03 364.46,-2601.13"/>
<polygon fill="gray" stroke="gray" stroke-width="0.2" points="361.38,-2602.89 370.4,-2608.45 366.82,-2598.48 361.38,-2602.89"/>
</g>
<!-- AUA -->
<g id="node8" class="node">
<title>AUA</title>
<ellipse fill="none" stroke="black" cx="384.81" cy="-2546" rx="30.11" ry="18"/>
<text text-anchor="middle" x="384.81" y="-2540.57" font-family="Times New Roman,serif" font-size="14.00">AUA</text>
</g>
<!-- URY&#45;&gt;AUA -->
<g id="edge8" class="edge">
<title>URY&#45;&gt;AUA</title>
<path fill="none" stroke="gray" stroke-width="0.2" d="M224.71,-1626.14C261.73,-1881.91 352.2,-2507 352.2,-2507 352.2,-2507 357.9,-2514.03 364.46,-2522.13"/>
<polygon fill="gray" stroke="gray" stroke-width="0.2" points="361.38,-2523.89 370.4,-2529.45 366.82,-2519.48 361.38,-2523.89"/>
</g>
<!-- AVA -->
<g id="node9" class="node">
<title>AVA</title>
<ellipse fill="none" stroke="black" cx="384.81" cy="-2467" rx="30.11" ry="18"/>
<text text-anchor="middle" x="384.81" y="-2461.57" font-family="Times New Roman,serif" font-size="14.00">AVA</text>
</g>
<!-- URY&#45;&gt;AVA -->
<g id="edge9" class="edge">
<title>URY&#45;&gt;AVA</title>
<path fill="none" stroke="gray" stroke-width="5" d="M226.03,-1625.95C263.83,-1866.23 352.2,-2428 352.2,-2428 352.2,-2428 355.81,-2432.46 360.59,-2438.36"/>
<polygon fill="gray" stroke="gray" stroke-width="5" points="356.97,-2440.83 366.66,-2445.84 363.76,-2435.32 356.97,-2440.83"/>
</g>
<!-- AVB -->
<g id="node10" class="node">
<title>AVB</title>
<ellipse fill="none" stroke="black" cx="384.81" cy="-2388" rx="29.61" ry="18"/>
<text text-anchor="middle" x="384.81" y="-2382.57" font-family="Times New Roman,serif" font-size="14.00">AVB</text>
</g>
<!-- URY&#45;&gt;AVB -->
<g id="edge10" class="edge">
<title>URY&#45;&gt;AVB</title>
<path fill="none" stroke="gray" stroke-width="5" d="M227.53,-1625.39C266.12,-1849.35 352.2,-2349 352.2,-2349 352.2,-2349 355.92,-2353.58 360.8,-2359.61"/>
<polygon fill="gray" stroke="gray" stroke-width="5" points="357.33,-2362.28 367.03,-2367.29 364.13,-2356.77 357.33,-2362.28"/>
</g>
<!-- AVD -->
<g id="node11" class="node">
<title>AVD</title>
<ellipse fill="none" stroke="black" cx="384.81" cy="-2309" rx="30.11" ry="18"/>
<text text-anchor="middle" x="384.81" y="-2303.57" font-family="Times New Roman,serif" font-size="14.00">AVD</text>
</g>
<!-- URY&#45;&gt;AVD -->
<g id="edge11" class="edge">
<title>URY&#45;&gt;AVD</title>
<path fill="none" stroke="black" stroke-width="5" d="M229.39,-1625.01C268.81,-1832.02 352.2,-2270 352.2,-2270 352.2,-2270 355.81,-2274.46 360.59,-2280.36"/>
<polygon fill="black" stroke="black" stroke-width="5" points="356.97,-2282.83 366.66,-2287.84 363.76,-2277.32 356.97,-2282.83"/>
</g>
<!-- AVE -->
<g id="node12" class="node">
<title>AVE</title>
<ellipse fill="none" stroke="black" cx="384.81" cy="-2230" rx="29.11" ry="18"/>
<text text-anchor="middle" x="384.81" y="-2224.57" font-family="Times New Roman,serif" font-size="14.00">AVE</text>
</g>
<!-- URY&#45;&gt;AVE -->
<g id="edge12" class="edge">
<title>URY&#45;&gt;AVE</title>
<path fill="none" stroke="black" stroke-width="5" d="M231.71,-1624.74C271.98,-1813.98 352.2,-2191 352.2,-2191 352.2,-2191 355.92,-2195.58 360.8,-2201.61"/>
<polygon fill="black" stroke="black" stroke-width="5" points="357.33,-2204.28 367.03,-2209.29 364.13,-2198.77 357.33,-2204.28"/>
</g>
<!-- AVJ -->
<g id="node13" class="node">
<title>AVJ</title>
<ellipse fill="none" stroke="black" cx="384.81" cy="-2151" rx="27.11" ry="18"/>
<text text-anchor="middle" x="384.81" y="-2145.57" font-family="Times New Roman,serif" font-size="14.00">AVJ</text>
</g>
<!-- URY&#45;&gt;AVJ -->
<g id="edge13" class="edge">
<title>URY&#45;&gt;AVJ</title>
<path fill="none" stroke="gray" stroke-width="2" d="M237.63,-1623.19C279.33,-1788.3 352.2,-2090.5 352.2,-2090.5 352.2,-2090.5 364.18,-2105.29 373.39,-2121.67"/>
<polygon fill="gray" stroke="gray" stroke-width="2" points="370.16,-2123.04 377.78,-2130.4 376.42,-2119.89 370.16,-2123.04"/>
</g>
<!-- AVL -->
<g id="node14" class="node">
<title>AVL</title>
<ellipse fill="none" stroke="black" cx="384.81" cy="-2072" rx="29.11" ry="18"/>
<text text-anchor="middle" x="384.81" y="-2066.57" font-family="Times New Roman,serif" font-size="14.00">AVL</text>
</g>
<!-- URY&#45;&gt;AVL -->
<g id="edge14" class="edge">
<title>URY&#45;&gt;AVL</title>
<path fill="none" stroke="gray" stroke-width="0.2" d="M241.83,-1621.85C284.04,-1766.48 352.2,-2011.5 352.2,-2011.5 352.2,-2011.5 365.36,-2027.74 374.7,-2045.04"/>
<polygon fill="gray" stroke="gray" stroke-width="0.2" points="371.46,-2046.39 379.01,-2053.83 377.75,-2043.31 371.46,-2046.39"/>
</g>
<!-- AWC -->
<g id="node15" class="node">
<title>AWC</title>
<ellipse fill="none" stroke="black" cx="384.81" cy="-1993" rx="32.6" ry="18"/>
<text text-anchor="middle" x="384.81" y="-1987.58" font-family="Times New Roman,serif" font-size="14.00">AWC</text>
</g>
<!-- URY&#45;&gt;AWC -->
<g id="edge15" class="edge">
<title>URY&#45;&gt;AWC</title>
<path fill="none" stroke="gray" stroke-width="0.2" d="M242.91,-1621.54C285.19,-1750.14 352.2,-1954 352.2,-1954 352.2,-1954 357.9,-1961.03 364.46,-1969.13"/>
<polygon fill="gray" stroke="gray" stroke-width="0.2" points="361.38,-1970.89 370.4,-1976.45 366.82,-1966.48 361.38,-1970.89"/>
</g>
<!-- BAG -->
<g id="node16" class="node">
<title>BAG</title>
<ellipse fill="none" stroke="black" cx="384.81" cy="-1914" rx="30.11" ry="18"/>
<text text-anchor="middle" x="384.81" y="-1908.58" font-family="Times New Roman,serif" font-size="14.00">BAG</text>
</g>
<!-- URY&#45;&gt;BAG -->
<g id="edge16" class="edge">
<title>URY&#45;&gt;BAG</title>
<path fill="none" stroke="blue" stroke-width="5" d="M249.42,-1619.11C291.71,-1724.41 352.2,-1875 352.2,-1875 352.2,-1875 355.81,-1879.46 360.59,-1885.36"/>
<polygon fill="blue" stroke="blue" stroke-width="5" points="356.97,-1887.83 366.66,-1892.84 363.76,-1882.32 356.97,-1887.83"/>
</g>
<!-- BDU -->
<g id="node17" class="node">
<title>BDU</title>
<ellipse fill="none" stroke="black" cx="384.81" cy="-1835" rx="29.61" ry="18"/>
<text text-anchor="middle" x="384.81" y="-1829.58" font-family="Times New Roman,serif" font-size="14.00">BDU</text>
</g>
<!-- URY&#45;&gt;BDU -->
<g id="edge17" class="edge">
<title>URY&#45;&gt;BDU</title>
<path fill="none" stroke="gray" stroke-width="0.2" d="M265.72,-1610.97C305.69,-1684.4 352.2,-1774.5 352.2,-1774.5 352.2,-1774.5 365.36,-1790.74 374.7,-1808.04"/>
<polygon fill="gray" stroke="gray" stroke-width="0.2" points="371.46,-1809.39 379.01,-1816.83 377.75,-1806.31 371.46,-1809.39"/>
</g>
<!-- CEP -->
<g id="node18" class="node">
<title>CEP</title>
<ellipse fill="none" stroke="black" cx="384.81" cy="-1756" rx="28.11" ry="18"/>
<text text-anchor="middle" x="384.81" y="-1750.58" font-family="Times New Roman,serif" font-size="14.00">CEP</text>
</g>
<!-- URY&#45;&gt;CEP -->
<g id="edge18" class="edge">
<title>URY&#45;&gt;CEP</title>
<path fill="none" stroke="black" stroke-width="2" d="M280.91,-1599.46C316.59,-1646.19 352.2,-1695.5 352.2,-1695.5 352.2,-1695.5 364.18,-1710.29 373.39,-1726.67"/>
<polygon fill="black" stroke="black" stroke-width="2" points="370.16,-1728.04 377.78,-1735.4 376.42,-1724.89 370.16,-1728.04"/>
</g>
<!-- IL1 -->
<g id="node19" class="node">
<title>IL1</title>
<ellipse fill="none" stroke="black" cx="384.81" cy="-1677" rx="27" ry="18"/>
<text text-anchor="middle" x="384.81" y="-1671.58" font-family="Times New Roman,serif" font-size="14.00">IL1</text>
</g>
<!-- URY&#45;&gt;IL1 -->
<g id="edge19" class="edge">
<title>URY&#45;&gt;IL1</title>
<path fill="none" stroke="black" stroke-width="5" d="M296.5,-1581.88C321.6,-1604.58 346.69,-1629.07 363.49,-1647.82"/>
<polygon fill="black" stroke="black" stroke-width="5" points="360.06,-1650.54 369.88,-1655.33 366.73,-1644.88 360.06,-1650.54"/>
</g>
<!-- OLL -->
<g id="node20" class="node">
<title>OLL</title>
<ellipse fill="none" stroke="black" cx="384.81" cy="-1598" rx="28.61" ry="18"/>
<text text-anchor="middle" x="384.81" y="-1592.58" font-family="Times New Roman,serif" font-size="14.00">OLL</text>
</g>
<!-- URY&#45;&gt;OLL -->
<g id="edge20" class="edge">
<title>URY&#45;&gt;OLL</title>
<path fill="none" stroke="gray" stroke-width="2" d="M312.03,-1549.63C329.6,-1558.1 346.31,-1567.08 359.17,-1575.22"/>
<polygon fill="gray" stroke="gray" stroke-width="2" points="357.07,-1578.02 367.31,-1580.72 360.99,-1572.22 357.07,-1578.02"/>
</g>
<!-- OLQ -->
<g id="node21" class="node">
<title>OLQ</title>
<ellipse fill="none" stroke="black" cx="384.81" cy="-1519" rx="30.11" ry="18"/>
<text text-anchor="middle" x="384.81" y="-1513.58" font-family="Times New Roman,serif" font-size="14.00">OLQ</text>
</g>
<!-- URY&#45;&gt;OLQ -->
<g id="edge21" class="edge">
<title>URY&#45;&gt;OLQ</title>
<path fill="none" stroke="gray" stroke-width="5" d="M315.55,-1503.22C325.96,-1503.6 336,-1504.31 345.02,-1505.33"/>
<polygon fill="gray" stroke="gray" stroke-width="5" points="344.25,-1509.64 354.78,-1506.78 345.53,-1500.98 344.25,-1509.64"/>
</g>
<!-- PVN -->
<g id="node22" class="node">
<title>PVN</title>
<ellipse fill="none" stroke="black" cx="384.81" cy="-1440" rx="29.11" ry="18"/>
<text text-anchor="middle" x="384.81" y="-1434.58" font-family="Times New Roman,serif" font-size="14.00">PVN</text>
</g>
<!-- URY&#45;&gt;PVN -->
<g id="edge22" class="edge">
<title>URY&#45;&gt;PVN</title>
<path fill="none" stroke="gray" stroke-width="0.2" d="M300.08,-1461.77C316.22,-1454.58 332.19,-1448.19 345.79,-1443.62"/>
<polygon fill="gray" stroke="gray" stroke-width="0.2" points="346.48,-1447.07 354.96,-1440.71 344.36,-1440.4 346.48,-1447.07"/>
</g>
<!-- PVT -->
<g id="node23" class="node">
<title>PVT</title>
<ellipse fill="none" stroke="black" cx="384.81" cy="-1361" rx="28.61" ry="18"/>
<text text-anchor="middle" x="384.81" y="-1355.58" font-family="Times New Roman,serif" font-size="14.00">PVT</text>
</g>
<!-- URY&#45;&gt;PVT -->
<g id="edge23" class="edge">
<title>URY&#45;&gt;PVT</title>
<path fill="none" stroke="gray" stroke-width="0.2" d="M280.72,-1438.39C305.61,-1415.12 332.27,-1392.04 352.24,-1376.82"/>
<polygon fill="gray" stroke="gray" stroke-width="0.2" points="354.17,-1379.74 360.12,-1370.98 350,-1374.12 354.17,-1379.74"/>
</g>
<!-- RIA -->
<g id="node24" class="node">
<title>RIA</title>
<ellipse fill="none" stroke="black" cx="384.81" cy="-1282" rx="27" ry="18"/>
<text text-anchor="middle" x="384.81" y="-1276.58" font-family="Times New Roman,serif" font-size="14.00">RIA</text>
</g>
<!-- URY&#45;&gt;RIA -->
<g id="edge24" class="edge">
<title>URY&#45;&gt;RIA</title>
<path fill="none" stroke="gray" stroke-width="2" d="M272.55,-1431.73C310.8,-1379.04 352.2,-1322 352.2,-1322 352.2,-1322 357.29,-1315.57 363.37,-1307.86"/>
<polygon fill="gray" stroke="gray" stroke-width="2" points="365.99,-1310.2 369.44,-1300.18 360.49,-1305.86 365.99,-1310.2"/>
</g>
<!-- RIB -->
<g id="node25" class="node">
<title>RIB</title>
<ellipse fill="none" stroke="black" cx="384.81" cy="-1203" rx="27" ry="18"/>
<text text-anchor="middle" x="384.81" y="-1197.58" font-family="Times New Roman,serif" font-size="14.00">RIB</text>
</g>
<!-- URY&#45;&gt;RIB -->
<g id="edge25" class="edge">
<title>URY&#45;&gt;RIB</title>
<path fill="none" stroke="black" stroke-width="5" d="M252.11,-1420.24C286.99,-1348.32 332.74,-1259.22 352.35,-1225.01"/>
<polygon fill="black" stroke="black" stroke-width="5" points="355.93,-1227.53 357.53,-1216.73 348.51,-1222.88 355.93,-1227.53"/>
</g>
<!-- RID -->
<g id="node26" class="node">
<title>RID</title>
<ellipse fill="none" stroke="black" cx="384.81" cy="-1124" rx="27" ry="18"/>
<text text-anchor="middle" x="384.81" y="-1118.58" font-family="Times New Roman,serif" font-size="14.00">RID</text>
</g>
<!-- URY&#45;&gt;RID -->
<g id="edge26" class="edge">
<title>URY&#45;&gt;RID</title>
<path fill="none" stroke="gray" stroke-width="2" d="M249.42,-1419.17C291.71,-1314.17 352.2,-1164 352.2,-1164 352.2,-1164 357.29,-1157.57 363.37,-1149.86"/>
<polygon fill="gray" stroke="gray" stroke-width="2" points="365.99,-1152.2 369.44,-1142.18 360.49,-1147.86 365.99,-1152.2"/>
</g>
<!-- RIF -->
<g id="node27" class="node">
<title>RIF</title>
<ellipse fill="none" stroke="black" cx="384.81" cy="-1045" rx="27" ry="18"/>
<text text-anchor="middle" x="384.81" y="-1039.58" font-family="Times New Roman,serif" font-size="14.00">RIF</text>
</g>
<!-- URY&#45;&gt;RIF -->
<g id="edge27" class="edge">
<title>URY&#45;&gt;RIF</title>
<path fill="none" stroke="gray" stroke-width="0.2" d="M238.83,-1415.17C280.72,-1280.45 352.2,-1063.5 352.2,-1063.5 352.2,-1063.5 352.92,-1062.6 354.13,-1061.13"/>
<polygon fill="gray" stroke="gray" stroke-width="0.2" points="356.7,-1063.51 360.64,-1053.67 351.43,-1058.91 356.7,-1063.51"/>
</g>
<!-- RIG -->
<g id="node28" class="node">
<title>RIG</title>
<ellipse fill="none" stroke="black" cx="384.81" cy="-966" rx="27.11" ry="18"/>
<text text-anchor="middle" x="384.81" y="-960.58" font-family="Times New Roman,serif" font-size="14.00">RIG</text>
</g>
<!-- URY&#45;&gt;RIG -->
<g id="edge28" class="edge">
<title>URY&#45;&gt;RIG</title>
<path fill="none" stroke="gray" stroke-width="0.2" d="M234.77,-1413.99C275.9,-1257.76 352.2,-983.5 352.2,-983.5 352.2,-983.5 352.79,-982.77 353.81,-981.57"/>
<polygon fill="gray" stroke="gray" stroke-width="0.2" points="356.26,-984.09 360.31,-974.29 351.04,-979.42 356.26,-984.09"/>
</g>
<!-- RIH -->
<g id="node29" class="node">
<title>RIH</title>
<ellipse fill="none" stroke="black" cx="384.81" cy="-887" rx="27" ry="18"/>
<text text-anchor="middle" x="384.81" y="-881.58" font-family="Times New Roman,serif" font-size="14.00">RIH</text>
</g>
<!-- URY&#45;&gt;RIH -->
<g id="edge29" class="edge">
<title>URY&#45;&gt;RIH</title>
<path fill="none" stroke="gray" stroke-width="nan" d="M231.71,-1413.23C271.98,-1237.19 352.2,-904.5 352.2,-904.5 352.2,-904.5 355.77,-900.1 360.51,-895.07"/>
<polygon fill="gray" stroke="gray" stroke-width="nan" points="nan,-nan nan,-nan nan,-nan nan,-nan"/>
</g>
<!-- RIM -->
<g id="node30" class="node">
<title>RIM</title>
<ellipse fill="none" stroke="black" cx="384.81" cy="-808" rx="28.11" ry="18"/>
<text text-anchor="middle" x="384.81" y="-802.58" font-family="Times New Roman,serif" font-size="14.00">RIM</text>
</g>
<!-- URY&#45;&gt;RIM -->
<g id="edge30" class="edge">
<title>URY&#45;&gt;RIM</title>
<path fill="none" stroke="gray" stroke-width="5" d="M231.71,-1413.26C271.98,-1224.02 352.2,-847 352.2,-847 352.2,-847 355.92,-842.42 360.8,-836.39"/>
<polygon fill="gray" stroke="gray" stroke-width="5" points="364.13,-839.23 367.03,-828.71 357.33,-833.72 364.13,-839.23"/>
</g>
<!-- RIP -->
<g id="node31" class="node">
<title>RIP</title>
<ellipse fill="none" stroke="black" cx="384.81" cy="-729" rx="27" ry="18"/>
<text text-anchor="middle" x="384.81" y="-723.58" font-family="Times New Roman,serif" font-size="14.00">RIP</text>
</g>
<!-- URY&#45;&gt;RIP -->
<g id="edge31" class="edge">
<title>URY&#45;&gt;RIP</title>
<path fill="none" stroke="gray" stroke-width="5" d="M227.32,-1412.48C261.96,-1221.44 335.47,-834.51 355.83,-752.44"/>
<polygon fill="gray" stroke="gray" stroke-width="5" points="359.96,-753.88 358.69,-743.03 351.59,-751.33 359.96,-753.88"/>
</g>
<!-- RIS -->
<g id="node32" class="node">
<title>RIS</title>
<ellipse fill="none" stroke="black" cx="384.81" cy="-650" rx="27" ry="18"/>
<text text-anchor="middle" x="384.81" y="-644.58" font-family="Times New Roman,serif" font-size="14.00">RIS</text>
</g>
<!-- URY&#45;&gt;RIS -->
<g id="edge32" class="edge">
<title>URY&#45;&gt;RIS</title>
<path fill="none" stroke="gray" stroke-width="2" d="M225.75,-1412C260.27,-1202.01 337.81,-751.11 356.85,-670.42"/>
<polygon fill="gray" stroke="gray" stroke-width="2" points="360.17,-671.55 359.65,-660.97 353.45,-669.57 360.17,-671.55"/>
</g>
<!-- RMD -->
<g id="node33" class="node">
<title>RMD</title>
<ellipse fill="none" stroke="black" cx="384.81" cy="-571" rx="31.6" ry="18"/>
<text text-anchor="middle" x="384.81" y="-565.58" font-family="Times New Roman,serif" font-size="14.00">RMD</text>
</g>
<!-- URY&#45;&gt;RMD -->
<g id="edge33" class="edge">
<title>URY&#45;&gt;RMD</title>
<path fill="none" stroke="gray" stroke-width="5" d="M224.37,-1412C257.8,-1189.62 335.95,-691.92 354.81,-596.9"/>
<polygon fill="gray" stroke="gray" stroke-width="5" points="359.06,-597.94 357.14,-587.19 350.55,-595.89 359.06,-597.94"/>
</g>
<!-- RME -->
<g id="node34" class="node">
<title>RME</title>
<ellipse fill="none" stroke="black" cx="384.81" cy="-492" rx="30.61" ry="18"/>
<text text-anchor="middle" x="384.81" y="-486.57" font-family="Times New Roman,serif" font-size="14.00">RME</text>
</g>
<!-- URY&#45;&gt;RME -->
<g id="edge34" class="edge">
<title>URY&#45;&gt;RME</title>
<path fill="none" stroke="gray" stroke-width="0.2" d="M224.71,-1411.86C261.73,-1156.09 352.2,-531 352.2,-531 352.2,-531 357.9,-523.97 364.46,-515.87"/>
<polygon fill="gray" stroke="gray" stroke-width="0.2" points="366.82,-518.52 370.4,-508.55 361.38,-514.11 366.82,-518.52"/>
</g>
<!-- RMH -->
<g id="node35" class="node">
<title>RMH</title>
<ellipse fill="none" stroke="black" cx="384.81" cy="-413" rx="31.6" ry="18"/>
<text text-anchor="middle" x="384.81" y="-407.57" font-family="Times New Roman,serif" font-size="14.00">RMH</text>
</g>
<!-- URY&#45;&gt;RMH -->
<g id="edge35" class="edge">
<title>URY&#45;&gt;RMH</title>
<path fill="none" stroke="blue" stroke-width="5" d="M223.57,-1411.81C259.83,-1141.23 352.2,-452 352.2,-452 352.2,-452 355.81,-447.54 360.59,-441.64"/>
<polygon fill="blue" stroke="blue" stroke-width="5" points="363.76,-444.68 366.66,-434.16 356.97,-439.17 363.76,-444.68"/>
</g>
<!-- SAA -->
<g id="node36" class="node">
<title>SAA</title>
<ellipse fill="none" stroke="black" cx="384.81" cy="-334" rx="29.11" ry="18"/>
<text text-anchor="middle" x="384.81" y="-328.57" font-family="Times New Roman,serif" font-size="14.00">SAA</text>
</g>
<!-- URY&#45;&gt;SAA -->
<g id="edge36" class="edge">
<title>URY&#45;&gt;SAA</title>
<path fill="none" stroke="gray" stroke-width="0.2" d="M222.59,-1411.7C258.14,-1126.81 352.2,-373 352.2,-373 352.2,-373 357.95,-365.91 364.54,-357.78"/>
<polygon fill="gray" stroke="gray" stroke-width="0.2" points="367.19,-360.07 370.76,-350.1 361.75,-355.66 367.19,-360.07"/>
</g>
<!-- SIB -->
<g id="node37" class="node">
<title>SIB</title>
<ellipse fill="none" stroke="black" cx="384.81" cy="-255" rx="27" ry="18"/>
<text text-anchor="middle" x="384.81" y="-249.57" font-family="Times New Roman,serif" font-size="14.00">SIB</text>
</g>
<!-- URY&#45;&gt;SIB -->
<g id="edge37" class="edge">
<title>URY&#45;&gt;SIB</title>
<path fill="none" stroke="gray" stroke-width="2" d="M221.77,-1411.36C256.66,-1112.44 352.2,-294 352.2,-294 352.2,-294 357.15,-287.9 363.12,-280.52"/>
<polygon fill="gray" stroke="gray" stroke-width="2" points="365.47,-283.19 369.05,-273.21 360.03,-278.78 365.47,-283.19"/>
</g>
<!-- SMB -->
<g id="node38" class="node">
<title>SMB</title>
<ellipse fill="none" stroke="black" cx="384.81" cy="-176" rx="30.11" ry="18"/>
<text text-anchor="middle" x="384.81" y="-170.57" font-family="Times New Roman,serif" font-size="14.00">SMB</text>
</g>
<!-- URY&#45;&gt;SMB -->
<g id="edge38" class="edge">
<title>URY&#45;&gt;SMB</title>
<path fill="none" stroke="gray" stroke-width="0.2" d="M221,-1411.46C255.23,-1099.28 352.2,-215 352.2,-215 352.2,-215 357.9,-207.97 364.46,-199.87"/>
<polygon fill="gray" stroke="gray" stroke-width="0.2" points="366.82,-202.52 370.4,-192.55 361.38,-198.11 366.82,-202.52"/>
</g>
<!-- SMD -->
<g id="node39" class="node">
<title>SMD</title>
<ellipse fill="none" stroke="black" cx="384.81" cy="-97" rx="30.61" ry="18"/>
<text text-anchor="middle" x="384.81" y="-91.58" font-family="Times New Roman,serif" font-size="14.00">SMD</text>
</g>
<!-- URY&#45;&gt;SMD -->
<g id="edge39" class="edge">
<title>URY&#45;&gt;SMD</title>
<path fill="none" stroke="gray" stroke-width="5" d="M219.43,-1411.17C249.83,-1105.52 338.28,-249.21 356.11,-122.5"/>
<polygon fill="gray" stroke="gray" stroke-width="5" points="360.36,-123.54 357.81,-112.93 351.75,-122.01 360.36,-123.54"/>
</g>
<!-- URX -->
<g id="node40" class="node">
<title>URX</title>
<ellipse fill="none" stroke="black" cx="384.81" cy="-18" rx="30.11" ry="18"/>
<text text-anchor="middle" x="384.81" y="-12.57" font-family="Times New Roman,serif" font-size="14.00">URX</text>
</g>
<!-- URY&#45;&gt;URX -->
<g id="edge40" class="edge">
<title>URY&#45;&gt;URX</title>
<path fill="none" stroke="gray" stroke-width="0.2" d="M219.75,-1411.2C252.8,-1073.27 352.2,-57 352.2,-57 352.2,-57 357.9,-49.97 364.46,-41.87"/>
<polygon fill="gray" stroke="gray" stroke-width="0.2" points="366.82,-44.52 370.4,-34.55 361.38,-40.11 366.82,-44.52"/>
</g>
<!-- ADA&#45;&gt;URY -->
<g id="edge41" class="edge">
<title>ADA&#45;&gt;URY</title>
<path fill="none" stroke="gray" stroke-width="0.2" d="M358.91,-3010.21C354.99,-3005.94 352.2,-3002.5 352.2,-3002.5 352.2,-3002.5 253.01,-1988.4 219.85,-1636.96"/>
<polygon fill="gray" stroke="gray" stroke-width="0.2" points="223.34,-1636.69 218.92,-1627.06 216.37,-1637.35 223.34,-1636.69"/>
</g>
<!-- ADL&#45;&gt;URY -->
<g id="edge42" class="edge">
<title>ADL&#45;&gt;URY</title>
<path fill="none" stroke="gray" stroke-width="0.2" d="M359.53,-2931.89C355.29,-2927.31 352.2,-2923.5 352.2,-2923.5 352.2,-2923.5 254.15,-1975.22 220.43,-1636.9"/>
<polygon fill="gray" stroke="gray" stroke-width="0.2" points="223.93,-1636.73 219.46,-1627.13 216.97,-1637.42 223.93,-1636.73"/>
</g>
<!-- AIB&#45;&gt;URY -->
<g id="edge43" class="edge">
<title>AIB&#45;&gt;URY</title>
<path fill="none" stroke="gray" stroke-width="0.2" d="M360.51,-2853.93C355.77,-2848.9 352.2,-2844.5 352.2,-2844.5 352.2,-2844.5 255.34,-1961.23 221.06,-1636.59"/>
<polygon fill="gray" stroke="gray" stroke-width="0.2" points="224.57,-1636.56 220.04,-1626.99 217.61,-1637.3 224.57,-1636.56"/>
</g>
<!-- AIZ&#45;&gt;URY -->
<g id="edge44" class="edge">
<title>AIZ&#45;&gt;URY</title>
<path fill="none" stroke="gray" stroke-width="2" d="M360.51,-2695.93C355.77,-2690.9 352.2,-2686.5 352.2,-2686.5 352.2,-2686.5 258.74,-1937.47 222.93,-1639.17"/>
<polygon fill="gray" stroke="gray" stroke-width="2" points="226.45,-1639.12 221.79,-1629.6 219.5,-1639.95 226.45,-1639.12"/>
</g>
<!-- AVJ&#45;&gt;URY -->
<g id="edge45" class="edge">
<title>AVJ&#45;&gt;URY</title>
<path fill="none" stroke="gray" stroke-width="0.2" d="M360.51,-2142.93C355.77,-2137.9 352.2,-2133.5 352.2,-2133.5 352.2,-2133.5 274.93,-1813.04 233.99,-1634.73"/>
<polygon fill="gray" stroke="gray" stroke-width="0.2" points="237.42,-1634.03 231.77,-1625.07 230.6,-1635.6 237.42,-1634.03"/>
</g>
<!-- AVL&#45;&gt;URY -->
<g id="edge46" class="edge">
<title>AVL&#45;&gt;URY</title>
<path fill="none" stroke="gray" stroke-width="0.2" d="M359.53,-2062.89C355.29,-2058.31 352.2,-2054.5 352.2,-2054.5 352.2,-2054.5 279,-1791.37 237.34,-1633.77"/>
<polygon fill="gray" stroke="gray" stroke-width="0.2" points="240.78,-1633.08 234.85,-1624.31 234.01,-1634.87 240.78,-1633.08"/>
</g>
<!-- BDU&#45;&gt;URY -->
<g id="edge47" class="edge">
<title>BDU&#45;&gt;URY</title>
<path fill="none" stroke="gray" stroke-width="0.2" d="M359.22,-1825.55C355.14,-1821.12 352.2,-1817.5 352.2,-1817.5 352.2,-1817.5 298.13,-1712.75 256.48,-1627.08"/>
<polygon fill="gray" stroke="gray" stroke-width="0.2" points="259.75,-1625.8 252.24,-1618.33 253.45,-1628.86 259.75,-1625.8"/>
</g>
<!-- CEP&#45;&gt;URY -->
<g id="edge48" class="edge">
<title>CEP&#45;&gt;URY</title>
<path fill="none" stroke="red" stroke-width="5" d="M359.85,-1747.23C355.45,-1742.5 352.2,-1738.5 352.2,-1738.5 352.2,-1738.5 311.1,-1681.59 272.97,-1625.48"/>
<polygon fill="red" stroke="red" stroke-width="5" points="276.6,-1623.03 267.37,-1617.19 269.35,-1627.93 276.6,-1623.03"/>
</g>
<!-- IL1&#45;&gt;URY -->
<g id="edge49" class="edge">
<title>IL1&#45;&gt;URY</title>
<path fill="none" stroke="gray" stroke-width="2" d="M361.17,-1667.78C342.97,-1654.83 316.24,-1632.25 290.25,-1608.43"/>
<polygon fill="gray" stroke="gray" stroke-width="2" points="292.66,-1605.89 282.95,-1601.67 287.91,-1611.03 292.66,-1605.89"/>
</g>
<!-- OLL&#45;&gt;URY -->
<g id="edge50" class="edge">
<title>OLL&#45;&gt;URY</title>
<path fill="none" stroke="black" stroke-width="5" d="M356,-1597.6C344.32,-1594.2 329.94,-1588.9 314.79,-1582.58"/>
<polygon fill="black" stroke="black" stroke-width="5" points="316.73,-1578.65 305.81,-1578.7 313.26,-1586.68 316.73,-1578.65"/>
</g>
<!-- OLQ&#45;&gt;URY -->
<g id="edge51" class="edge">
<title>OLQ&#45;&gt;URY</title>
<path fill="none" stroke="gray" stroke-width="5" d="M360.95,-1530.31C352.63,-1531.91 342.54,-1533.11 331.56,-1533.91"/>
<polygon fill="gray" stroke="gray" stroke-width="5" points="331.53,-1529.53 321.78,-1534.44 332,-1538.27 331.53,-1529.53"/>
</g>
<!-- PVN&#45;&gt;URY -->
<g id="edge52" class="edge">
<title>PVN&#45;&gt;URY</title>
<path fill="none" stroke="gray" stroke-width="2" d="M369.56,-1455.78C358.48,-1463.85 341.94,-1473.37 323.63,-1482.64"/>
<polygon fill="gray" stroke="gray" stroke-width="2" points="322.16,-1479.46 314.75,-1487.03 325.26,-1485.74 322.16,-1479.46"/>
</g>
<!-- PVT&#45;&gt;URY -->
<g id="edge53" class="edge">
<title>PVT&#45;&gt;URY</title>
<path fill="none" stroke="gray" stroke-width="2" d="M373.92,-1377.92C360.13,-1395.28 333.68,-1421.91 305.94,-1447.5"/>
<polygon fill="gray" stroke="gray" stroke-width="2" points="303.76,-1444.75 298.74,-1454.08 308.48,-1449.92 303.76,-1444.75"/>
</g>
<!-- RIB&#45;&gt;URY -->
<g id="edge54" class="edge">
<title>RIB&#45;&gt;URY</title>
<path fill="none" stroke="gray" stroke-width="2" d="M379.14,-1221.05C370.35,-1241.53 352.2,-1264.5 352.2,-1264.5 352.2,-1264.5 310.3,-1345.38 271.85,-1416.17"/>
<polygon fill="gray" stroke="gray" stroke-width="2" points="268.88,-1414.31 267.17,-1424.77 275.03,-1417.66 268.88,-1414.31"/>
</g>
<!-- RIF&#45;&gt;URY -->
<g id="edge55" class="edge">
<title>RIF&#45;&gt;URY</title>
<path fill="none" stroke="blue" stroke-width="2" d="M379.14,-1063.05C370.35,-1083.53 352.2,-1106.5 352.2,-1106.5 352.2,-1106.5 293.84,-1283.65 251.68,-1405.98"/>
<polygon fill="blue" stroke="blue" stroke-width="2" points="248.47,-1404.55 248.51,-1415.15 255.09,-1406.84 248.47,-1404.55"/>
</g>
<!-- RIG&#45;&gt;URY -->
<g id="edge56" class="edge">
<title>RIG&#45;&gt;URY</title>
<path fill="none" stroke="gray" stroke-width="2" d="M379.14,-983.9C370.35,-1004.1 352.2,-1026.5 352.2,-1026.5 352.2,-1026.5 287.71,-1258.3 245.35,-1404.06"/>
<polygon fill="gray" stroke="gray" stroke-width="2" points="242.11,-1402.66 242.68,-1413.24 248.83,-1404.62 242.11,-1402.66"/>
</g>
<!-- RIH&#45;&gt;URY -->
<g id="edge57" class="edge">
<title>RIH&#45;&gt;URY</title>
<path fill="none" stroke="black" stroke-width="5" d="M379.14,-904.9C370.35,-925.1 352.2,-947.5 352.2,-947.5 352.2,-947.5 283.74,-1231.39 241.56,-1399.2"/>
<polygon fill="black" stroke="black" stroke-width="5" points="237.35,-1398 239.15,-1408.76 245.84,-1400.14 237.35,-1398"/>
</g>
<!-- RIP&#45;&gt;URY -->
<g id="edge58" class="edge">
<title>RIP&#45;&gt;URY</title>
<path fill="none" stroke="gray" stroke-width="0.2" d="M379.14,-746.9C370.35,-767.1 352.2,-789.5 352.2,-789.5 352.2,-789.5 274.54,-1197.37 233.68,-1403.34"/>
<polygon fill="gray" stroke="gray" stroke-width="0.2" points="230.28,-1402.51 231.76,-1413 237.15,-1403.87 230.28,-1402.51"/>
</g>
<!-- RIS&#45;&gt;URY -->
<g id="edge59" class="edge">
<title>RIS&#45;&gt;URY</title>
<path fill="none" stroke="black" stroke-width="5" d="M379.14,-667.9C370.35,-688.1 352.2,-710.5 352.2,-710.5 352.2,-710.5 272.87,-1170.95 232.39,-1397.06"/>
<polygon fill="black" stroke="black" stroke-width="5" points="228.1,-1396.17 230.64,-1406.78 236.71,-1397.71 228.1,-1396.17"/>
</g>
<!-- RMD&#45;&gt;URY -->
<g id="edge60" class="edge">
<title>RMD&#45;&gt;URY</title>
<path fill="none" stroke="gray" stroke-width="0.2" d="M379.14,-588.9C370.35,-609.1 352.2,-631.5 352.2,-631.5 352.2,-631.5 268.77,-1161.84 229.37,-1402.76"/>
<polygon fill="gray" stroke="gray" stroke-width="0.2" points="225.96,-1401.88 227.8,-1412.31 232.87,-1403.01 225.96,-1401.88"/>
</g>
<!-- SMD&#45;&gt;URY -->
<g id="edge61" class="edge">
<title>SMD&#45;&gt;URY</title>
<path fill="none" stroke="gray" stroke-width="0.2" d="M379.14,-114.9C370.35,-135.1 352.2,-157.5 352.2,-157.5 352.2,-157.5 257.77,-1070.78 222.38,-1401.49"/>
<polygon fill="gray" stroke="gray" stroke-width="0.2" points="218.92,-1400.96 221.34,-1411.28 225.88,-1401.71 218.92,-1400.96"/>
</g>
<!-- ADF -->
<g id="node41" class="node">
<title>ADF</title>
<ellipse fill="none" stroke="black" cx="32.1" cy="-2033" rx="29.11" ry="18"/>
<text text-anchor="middle" x="32.1" y="-2027.58" font-family="Times New Roman,serif" font-size="14.00">ADF</text>
</g>
<!-- ADF&#45;&gt;URY -->
<g id="edge62" class="edge">
<title>ADF&#45;&gt;URY</title>
<path fill="none" stroke="gray" stroke-width="0.2" d="M45.75,-2017.14C54.36,-2006.34 64.2,-1994 64.2,-1994 64.2,-1994 130.92,-1772.39 173.21,-1631.91"/>
<polygon fill="gray" stroke="gray" stroke-width="0.2" points="176.47,-1633.24 176,-1622.65 169.77,-1631.22 176.47,-1633.24"/>
</g>
<!-- ASI -->
<g id="node42" class="node">
<title>ASI</title>
<ellipse fill="none" stroke="black" cx="32.1" cy="-1954" rx="27" ry="18"/>
<text text-anchor="middle" x="32.1" y="-1948.58" font-family="Times New Roman,serif" font-size="14.00">ASI</text>
</g>
<!-- ASI&#45;&gt;URY -->
<g id="edge63" class="edge">
<title>ASI&#45;&gt;URY</title>
<path fill="none" stroke="gray" stroke-width="0.2" d="M45.75,-1938.14C54.36,-1927.34 64.2,-1915 64.2,-1915 64.2,-1915 124.78,-1747.26 167.08,-1630.12"/>
<polygon fill="gray" stroke="gray" stroke-width="0.2" points="170.26,-1631.6 170.37,-1621.01 163.68,-1629.22 170.26,-1631.6"/>
</g>
<!-- AVK -->
<g id="node43" class="node">
<title>AVK</title>
<ellipse fill="none" stroke="black" cx="32.1" cy="-1875" rx="30.11" ry="18"/>
<text text-anchor="middle" x="32.1" y="-1869.58" font-family="Times New Roman,serif" font-size="14.00">AVK</text>
</g>
<!-- AVK&#45;&gt;URY -->
<g id="edge64" class="edge">
<title>AVK&#45;&gt;URY</title>
<path fill="none" stroke="gray" stroke-width="2" d="M46.11,-1858.69C54.63,-1848 64.2,-1836 64.2,-1836 64.2,-1836 116.38,-1720.34 157.7,-1628.74"/>
<polygon fill="gray" stroke="gray" stroke-width="2" points="160.77,-1630.44 161.69,-1619.89 154.39,-1627.57 160.77,-1630.44"/>
</g>
<!-- AWB -->
<g id="node44" class="node">
<title>AWB</title>
<ellipse fill="none" stroke="black" cx="32.1" cy="-1796" rx="32.1" ry="18"/>
<text text-anchor="middle" x="32.1" y="-1790.58" font-family="Times New Roman,serif" font-size="14.00">AWB</text>
</g>
<!-- AWB&#45;&gt;URY -->
<g id="edge65" class="edge">
<title>AWB&#45;&gt;URY</title>
<path fill="none" stroke="gray" stroke-width="5" d="M46.11,-1779.69C54.63,-1769 64.2,-1757 64.2,-1757 64.2,-1757 105.27,-1688.66 143.39,-1625.21"/>
<polygon fill="gray" stroke="gray" stroke-width="5" points="147.1,-1627.53 148.5,-1616.7 139.6,-1623.02 147.1,-1627.53"/>
</g>
<!-- DVA -->
<g id="node45" class="node">
<title>DVA</title>
<ellipse fill="none" stroke="black" cx="32.1" cy="-1717" rx="30.11" ry="18"/>
<text text-anchor="middle" x="32.1" y="-1711.58" font-family="Times New Roman,serif" font-size="14.00">DVA</text>
</g>
<!-- DVA&#45;&gt;URY -->
<g id="edge66" class="edge">
<title>DVA&#45;&gt;URY</title>
<path fill="none" stroke="red" stroke-width="2" d="M47.06,-1701.13C64.83,-1680.91 96.96,-1644.37 127.8,-1609.3"/>
<polygon fill="red" stroke="red" stroke-width="2" points="130.06,-1612.04 134.03,-1602.22 124.8,-1607.42 130.06,-1612.04"/>
</g>
<!-- DVC -->
<g id="node46" class="node">
<title>DVC</title>
<ellipse fill="none" stroke="black" cx="32.1" cy="-1638" rx="30.11" ry="18"/>
<text text-anchor="middle" x="32.1" y="-1632.58" font-family="Times New Roman,serif" font-size="14.00">DVC</text>
</g>
<!-- DVC&#45;&gt;URY -->
<g id="edge67" class="edge">
<title>DVC&#45;&gt;URY</title>
<path fill="none" stroke="gray" stroke-width="5" d="M52.74,-1624.58C66.16,-1615.41 85.09,-1602.46 105.12,-1588.78"/>
<polygon fill="gray" stroke="gray" stroke-width="5" points="107.46,-1592.48 113.24,-1583.22 102.52,-1585.25 107.46,-1592.48"/>
</g>
<!-- HSN -->
<g id="node47" class="node">
<title>HSN</title>
<ellipse fill="none" stroke="black" cx="32.1" cy="-1559" rx="29.11" ry="18"/>
<text text-anchor="middle" x="32.1" y="-1553.58" font-family="Times New Roman,serif" font-size="14.00">HSN</text>
</g>
<!-- HSN&#45;&gt;URY -->
<g id="edge68" class="edge">
<title>HSN&#45;&gt;URY</title>
<path fill="none" stroke="gray" stroke-width="0.2" d="M59.92,-1552.84C69.41,-1550.66 80.76,-1548.05 92.9,-1545.26"/>
<polygon fill="gray" stroke="gray" stroke-width="0.2" points="93.53,-1548.71 102.49,-1543.06 91.96,-1541.89 93.53,-1548.71"/>
</g>
<!-- IL2 -->
<g id="node48" class="node">
<title>IL2</title>
<ellipse fill="none" stroke="black" cx="32.1" cy="-1480" rx="27" ry="18"/>
<text text-anchor="middle" x="32.1" y="-1474.58" font-family="Times New Roman,serif" font-size="14.00">IL2</text>
</g>
<!-- IL2&#45;&gt;URY -->
<g id="edge69" class="edge">
<title>IL2&#45;&gt;URY</title>
<path fill="none" stroke="gray" stroke-width="0.2" d="M58.05,-1485.59C67.79,-1487.77 79.69,-1490.44 92.49,-1493.3"/>
<polygon fill="gray" stroke="gray" stroke-width="0.2" points="91.61,-1496.69 102.13,-1495.46 93.14,-1489.86 91.61,-1496.69"/>
</g>
<!-- PVD -->
<g id="node49" class="node">
<title>PVD</title>
<ellipse fill="none" stroke="black" cx="32.1" cy="-1401" rx="29.11" ry="18"/>
<text text-anchor="middle" x="32.1" y="-1395.58" font-family="Times New Roman,serif" font-size="14.00">PVD</text>
</g>
<!-- PVD&#45;&gt;URY -->
<g id="edge70" class="edge">
<title>PVD&#45;&gt;URY</title>
<path fill="none" stroke="gray" stroke-width="0.2" d="M52.4,-1414.08C66.92,-1423.92 88.03,-1438.23 110.01,-1453.13"/>
<polygon fill="gray" stroke="gray" stroke-width="0.2" points="107.98,-1455.98 118.22,-1458.69 111.9,-1450.18 107.98,-1455.98"/>
</g>
<!-- PVP -->
<g id="node50" class="node">
<title>PVP</title>
<ellipse fill="none" stroke="black" cx="32.1" cy="-1322" rx="28.11" ry="18"/>
<text text-anchor="middle" x="32.1" y="-1316.58" font-family="Times New Roman,serif" font-size="14.00">PVP</text>
</g>
<!-- PVP&#45;&gt;URY -->
<g id="edge71" class="edge">
<title>PVP&#45;&gt;URY</title>
<path fill="none" stroke="gray" stroke-width="2" d="M46.76,-1337.46C64.5,-1357.52 96.86,-1394.14 127.9,-1429.27"/>
<polygon fill="gray" stroke="gray" stroke-width="2" points="124.93,-1431.19 134.17,-1436.36 130.17,-1426.55 124.93,-1431.19"/>
</g>
<!-- RIV -->
<g id="node51" class="node">
<title>RIV</title>
<ellipse fill="none" stroke="black" cx="32.1" cy="-1243" rx="27" ry="18"/>
<text text-anchor="middle" x="32.1" y="-1237.58" font-family="Times New Roman,serif" font-size="14.00">RIV</text>
</g>
<!-- RIV&#45;&gt;URY -->
<g id="edge72" class="edge">
<title>RIV&#45;&gt;URY</title>
<path fill="none" stroke="gray" stroke-width="0.2" d="M45.39,-1258.81C54.09,-1269.99 64.2,-1283 64.2,-1283 64.2,-1283 107.24,-1354.03 146.1,-1418.15"/>
<polygon fill="gray" stroke="gray" stroke-width="0.2" points="142.97,-1419.74 151.15,-1426.48 148.96,-1416.12 142.97,-1419.74"/>
</g>
<!-- SDQ -->
<g id="node52" class="node">
<title>SDQ</title>
<ellipse fill="none" stroke="black" cx="32.1" cy="-1164" rx="29.61" ry="18"/>
<text text-anchor="middle" x="32.1" y="-1158.58" font-family="Times New Roman,serif" font-size="14.00">SDQ</text>
</g>
<!-- SDQ&#45;&gt;URY -->
<g id="edge73" class="edge">
<title>SDQ&#45;&gt;URY</title>
<path fill="none" stroke="gray" stroke-width="0.2" d="M45.75,-1180.27C54.36,-1191.34 64.2,-1204 64.2,-1204 64.2,-1204 116.91,-1320.09 158.32,-1411.32"/>
<polygon fill="gray" stroke="gray" stroke-width="0.2" points="155.1,-1412.69 162.42,-1420.35 161.47,-1409.8 155.1,-1412.69"/>
</g>
<!-- URA -->
<g id="node53" class="node">
<title>URA</title>
<ellipse fill="none" stroke="black" cx="32.1" cy="-1085" rx="30.11" ry="18"/>
<text text-anchor="middle" x="32.1" y="-1079.58" font-family="Times New Roman,serif" font-size="14.00">URA</text>
</g>
<!-- URA&#45;&gt;URY -->
<g id="edge74" class="edge">
<title>URA&#45;&gt;URY</title>
<path fill="none" stroke="gray" stroke-width="0.2" d="M45.75,-1101.27C54.36,-1112.34 64.2,-1125 64.2,-1125 64.2,-1125 124.69,-1291.65 166.98,-1408.18"/>
<polygon fill="gray" stroke="gray" stroke-width="0.2" points="163.57,-1409.04 170.27,-1417.25 170.15,-1406.66 163.57,-1409.04"/>
</g>
<!-- URB -->
<g id="node54" class="node">
<title>URB</title>
<ellipse fill="none" stroke="black" cx="32.1" cy="-1006" rx="29.61" ry="18"/>
<text text-anchor="middle" x="32.1" y="-1000.58" font-family="Times New Roman,serif" font-size="14.00">URB</text>
</g>
<!-- URB&#45;&gt;URY -->
<g id="edge75" class="edge">
<title>URB&#45;&gt;URY</title>
<path fill="none" stroke="gray" stroke-width="0.2" d="M45.75,-1022.27C54.36,-1033.34 64.2,-1046 64.2,-1046 64.2,-1046 130.73,-1266.06 173.03,-1405.98"/>
<polygon fill="gray" stroke="gray" stroke-width="0.2" points="169.58,-1406.64 175.82,-1415.2 176.28,-1404.62 169.58,-1406.64"/>
</g>
</g>
</svg>
