<?xml version="1.0" encoding="UTF-8" standalone="no"?>
<!DOCTYPE svg PUBLIC "-//W3C//DTD SVG 1.1//EN"
 "http://www.w3.org/Graphics/SVG/1.1/DTD/svg11.dtd">
<!-- Generated by graphviz version 11.0.0 (20240428.1522)
 -->
<!-- Pages: 1 -->
<svg width="418pt" height="755pt"
 viewBox="0.00 0.00 418.42 755.00" xmlns="http://www.w3.org/2000/svg" xmlns:xlink="http://www.w3.org/1999/xlink">
<g id="graph0" class="graph" transform="scale(1 1) rotate(0) translate(4 751)">
<polygon fill="white" stroke="none" points="-4,4 -4,-751 414.42,-751 414.42,4 -4,4"/>
<!-- VBn -->
<g id="node1" class="node">
<title>VBn</title>
<ellipse fill="none" stroke="black" cx="205.21" cy="-373" rx="108" ry="108"/>
<text text-anchor="middle" x="205.21" y="-354" font-family="Times New Roman,serif" font-size="50.00">VBn</text>
</g>
<!-- ADA -->
<g id="node2" class="node">
<title>ADA</title>
<ellipse fill="none" stroke="black" cx="379.82" cy="-729" rx="30.11" ry="18"/>
<text text-anchor="middle" x="379.82" y="-723.58" font-family="Times New Roman,serif" font-size="14.00">ADA</text>
</g>
<!-- VBn&#45;&gt;ADA -->
<g id="edge1" class="edge">
<title>VBn&#45;&gt;ADA</title>
<path fill="none" stroke="gray" stroke-width="0.2" d="M250.48,-471.13C292.47,-564.23 349.21,-690 349.21,-690 349.21,-690 354.33,-696.75 360.32,-704.63"/>
<polygon fill="gray" stroke="gray" stroke-width="0.2" points="357.41,-706.6 366.25,-712.45 362.99,-702.36 357.41,-706.6"/>
</g>
<!-- AIB -->
<g id="node3" class="node">
<title>AIB</title>
<ellipse fill="none" stroke="black" cx="379.82" cy="-650" rx="27" ry="18"/>
<text text-anchor="middle" x="379.82" y="-644.58" font-family="Times New Roman,serif" font-size="14.00">AIB</text>
</g>
<!-- VBn&#45;&gt;AIB -->
<g id="edge2" class="edge">
<title>VBn&#45;&gt;AIB</title>
<path fill="none" stroke="gray" stroke-width="0.2" d="M269.56,-460.28C307.81,-520.59 349.21,-589.5 349.21,-589.5 349.21,-589.5 361.54,-605.74 370.28,-623.04"/>
<polygon fill="gray" stroke="gray" stroke-width="0.2" points="366.97,-624.2 374.32,-631.83 373.33,-621.28 366.97,-624.2"/>
</g>
<!-- ASJ -->
<g id="node4" class="node">
<title>ASJ</title>
<ellipse fill="none" stroke="black" cx="379.82" cy="-571" rx="27" ry="18"/>
<text text-anchor="middle" x="379.82" y="-565.58" font-family="Times New Roman,serif" font-size="14.00">ASJ</text>
</g>
<!-- VBn&#45;&gt;ASJ -->
<g id="edge3" class="edge">
<title>VBn&#45;&gt;ASJ</title>
<path fill="none" stroke="gray" stroke-width="2" d="M276.91,-454.11C305.65,-487.08 336.78,-522.79 356.97,-545.94"/>
<polygon fill="gray" stroke="gray" stroke-width="2" points="354.23,-548.13 363.44,-553.36 359.51,-543.53 354.23,-548.13"/>
</g>
<!-- AVF -->
<g id="node5" class="node">
<title>AVF</title>
<ellipse fill="none" stroke="black" cx="379.82" cy="-492" rx="29.11" ry="18"/>
<text text-anchor="middle" x="379.82" y="-486.57" font-family="Times New Roman,serif" font-size="14.00">AVF</text>
</g>
<!-- VBn&#45;&gt;AVF -->
<g id="edge4" class="edge">
<title>VBn&#45;&gt;AVF</title>
<path fill="none" stroke="gray" stroke-width="2" d="M294.79,-434.07C314.5,-447.66 334.06,-461.14 349.34,-471.68"/>
<polygon fill="gray" stroke="gray" stroke-width="2" points="346.94,-474.27 357.16,-477.07 350.91,-468.51 346.94,-474.27"/>
</g>
<!-- DBn -->
<g id="node6" class="node">
<title>DBn</title>
<ellipse fill="none" stroke="black" cx="379.82" cy="-413" rx="27.61" ry="18"/>
<text text-anchor="middle" x="379.82" y="-407.57" font-family="Times New Roman,serif" font-size="14.00">DBn</text>
</g>
<!-- VBn&#45;&gt;DBn -->
<g id="edge5" class="edge">
<title>VBn&#45;&gt;DBn</title>
<path fill="none" stroke="gray" stroke-width="2" d="M310.6,-397.19C321.28,-399.67 331.58,-402.05 340.79,-404.19"/>
<polygon fill="gray" stroke="gray" stroke-width="2" points="339.96,-407.59 350.49,-406.44 341.54,-400.77 339.96,-407.59"/>
</g>
<!-- RIG -->
<g id="node7" class="node">
<title>RIG</title>
<ellipse fill="none" stroke="black" cx="379.82" cy="-334" rx="27.11" ry="18"/>
<text text-anchor="middle" x="379.82" y="-328.57" font-family="Times New Roman,serif" font-size="14.00">RIG</text>
</g>
<!-- VBn&#45;&gt;RIG -->
<g id="edge6" class="edge">
<title>VBn&#45;&gt;RIG</title>
<path fill="none" stroke="gray" stroke-width="0.2" d="M310.6,-349.41C322.51,-346.72 333.93,-344.14 343.92,-341.89"/>
<polygon fill="gray" stroke="gray" stroke-width="0.2" points="344.48,-345.35 353.46,-339.73 342.94,-338.52 344.48,-345.35"/>
</g>
<!-- RIM -->
<g id="node8" class="node">
<title>RIM</title>
<ellipse fill="none" stroke="black" cx="379.82" cy="-255" rx="28.11" ry="18"/>
<text text-anchor="middle" x="379.82" y="-249.57" font-family="Times New Roman,serif" font-size="14.00">RIM</text>
</g>
<!-- VBn&#45;&gt;RIM -->
<g id="edge7" class="edge">
<title>VBn&#45;&gt;RIM</title>
<path fill="none" stroke="gray" stroke-width="2" d="M286.95,-301.71C306.16,-288.37 325.73,-275.85 341.85,-266.77"/>
<polygon fill="gray" stroke="gray" stroke-width="2" points="343.11,-270.06 350.25,-262.23 339.79,-263.9 343.11,-270.06"/>
</g>
<!-- RMF -->
<g id="node9" class="node">
<title>RMF</title>
<ellipse fill="none" stroke="black" cx="379.82" cy="-176" rx="30.61" ry="18"/>
<text text-anchor="middle" x="379.82" y="-170.57" font-family="Times New Roman,serif" font-size="14.00">RMF</text>
</g>
<!-- VBn&#45;&gt;RMF -->
<g id="edge8" class="edge">
<title>VBn&#45;&gt;RMF</title>
<path fill="none" stroke="gray" stroke-width="2" d="M277.16,-292.02C305.55,-259.63 336.22,-224.62 356.36,-201.63"/>
<polygon fill="gray" stroke="gray" stroke-width="2" points="358.87,-204.07 362.83,-194.24 353.61,-199.46 358.87,-204.07"/>
</g>
<!-- SAA -->
<g id="node10" class="node">
<title>SAA</title>
<ellipse fill="none" stroke="black" cx="379.82" cy="-97" rx="29.11" ry="18"/>
<text text-anchor="middle" x="379.82" y="-91.58" font-family="Times New Roman,serif" font-size="14.00">SAA</text>
</g>
<!-- VBn&#45;&gt;SAA -->
<g id="edge9" class="edge">
<title>VBn&#45;&gt;SAA</title>
<path fill="none" stroke="gray" stroke-width="2" d="M261.91,-280.69C302.06,-214.15 349.21,-136 349.21,-136 349.21,-136 353.52,-130.33 358.84,-123.31"/>
<polygon fill="gray" stroke="gray" stroke-width="2" points="361.34,-125.81 364.6,-115.72 355.77,-121.57 361.34,-125.81"/>
</g>
<!-- SMB -->
<g id="node11" class="node">
<title>SMB</title>
<ellipse fill="none" stroke="black" cx="379.82" cy="-18" rx="30.11" ry="18"/>
<text text-anchor="middle" x="379.82" y="-12.57" font-family="Times New Roman,serif" font-size="14.00">SMB</text>
</g>
<!-- VBn&#45;&gt;SMB -->
<g id="edge10" class="edge">
<title>VBn&#45;&gt;SMB</title>
<path fill="none" stroke="gray" stroke-width="0.2" d="M250.67,-274.75C292.65,-181.99 349.21,-57 349.21,-57 349.21,-57 354.33,-50.25 360.32,-42.37"/>
<polygon fill="gray" stroke="gray" stroke-width="0.2" points="362.99,-44.64 366.25,-34.55 357.41,-40.4 362.99,-44.64"/>
</g>
<!-- AIB&#45;&gt;VBn -->
<g id="edge11" class="edge">
<title>AIB&#45;&gt;VBn</title>
<path fill="none" stroke="gray" stroke-width="0.2" d="M356.08,-640.89C352.1,-636.31 349.21,-632.5 349.21,-632.5 349.21,-632.5 299.86,-550.37 259.14,-478.24"/>
<polygon fill="gray" stroke="gray" stroke-width="0.2" points="262.33,-476.76 254.37,-469.76 256.23,-480.2 262.33,-476.76"/>
</g>
<!-- RIM&#45;&gt;VBn -->
<g id="edge12" class="edge">
<title>RIM&#45;&gt;VBn</title>
<path fill="none" stroke="gray" stroke-width="2" d="M367.5,-271.23C355.33,-283.52 334.64,-300.07 312.08,-316.38"/>
<polygon fill="gray" stroke="gray" stroke-width="2" points="310.18,-313.43 304.07,-322.08 314.24,-319.13 310.18,-313.43"/>
</g>
<!-- ADE -->
<g id="node12" class="node">
<title>ADE</title>
<ellipse fill="none" stroke="black" cx="30.61" cy="-571" rx="29.11" ry="18"/>
<text text-anchor="middle" x="30.61" y="-565.58" font-family="Times New Roman,serif" font-size="14.00">ADE</text>
</g>
<!-- ADE&#45;&gt;VBn -->
<g id="edge13" class="edge">
<title>ADE&#45;&gt;VBn</title>
<path fill="none" stroke="gray" stroke-width="0.2" d="M45.44,-555.13C63.36,-534.57 96.01,-497.12 127.05,-461.51"/>
<polygon fill="gray" stroke="gray" stroke-width="0.2" points="129.52,-464.01 133.45,-454.17 124.24,-459.41 129.52,-464.01"/>
</g>
<!-- AIZ -->
<g id="node13" class="node">
<title>AIZ</title>
<ellipse fill="none" stroke="black" cx="30.61" cy="-492" rx="27" ry="18"/>
<text text-anchor="middle" x="30.61" y="-486.57" font-family="Times New Roman,serif" font-size="14.00">AIZ</text>
</g>
<!-- AIZ&#45;&gt;VBn -->
<g id="edge14" class="edge">
<title>AIZ&#45;&gt;VBn</title>
<path fill="none" stroke="gray" stroke-width="0.2" d="M50.08,-479.26C64.34,-469.43 85.29,-454.99 107.17,-439.9"/>
<polygon fill="gray" stroke="gray" stroke-width="0.2" points="109.1,-442.83 115.34,-434.27 105.12,-437.06 109.1,-442.83"/>
</g>
<!-- DVA -->
<g id="node14" class="node">
<title>DVA</title>
<ellipse fill="none" stroke="black" cx="30.61" cy="-413" rx="30.11" ry="18"/>
<text text-anchor="middle" x="30.61" y="-407.57" font-family="Times New Roman,serif" font-size="14.00">DVA</text>
</g>
<!-- DVA&#45;&gt;VBn -->
<g id="edge15" class="edge">
<title>DVA&#45;&gt;VBn</title>
<path fill="none" stroke="gray" stroke-width="0.2" d="M58.95,-406.66C67.85,-404.6 78.35,-402.17 89.56,-399.57"/>
<polygon fill="gray" stroke="gray" stroke-width="0.2" points="90.34,-402.98 99.29,-397.32 88.76,-396.16 90.34,-402.98"/>
</g>
<!-- FLP -->
<g id="node15" class="node">
<title>FLP</title>
<ellipse fill="none" stroke="black" cx="30.61" cy="-334" rx="27.11" ry="18"/>
<text text-anchor="middle" x="30.61" y="-328.57" font-family="Times New Roman,serif" font-size="14.00">FLP</text>
</g>
<!-- FLP&#45;&gt;VBn -->
<g id="edge16" class="edge">
<title>FLP&#45;&gt;VBn</title>
<path fill="none" stroke="gray" stroke-width="0.2" d="M56.7,-339.67C66.07,-341.79 77.43,-344.35 89.63,-347.11"/>
<polygon fill="gray" stroke="gray" stroke-width="0.2" points="88.75,-350.5 99.28,-349.29 90.29,-343.67 88.75,-350.5"/>
</g>
<!-- RIC -->
<g id="node16" class="node">
<title>RIC</title>
<ellipse fill="none" stroke="black" cx="30.61" cy="-255" rx="27" ry="18"/>
<text text-anchor="middle" x="30.61" y="-249.57" font-family="Times New Roman,serif" font-size="14.00">RIC</text>
</g>
<!-- RIC&#45;&gt;VBn -->
<g id="edge17" class="edge">
<title>RIC&#45;&gt;VBn</title>
<path fill="none" stroke="gray" stroke-width="0.2" d="M50.08,-267.63C64.34,-277.38 85.29,-291.7 107.17,-306.66"/>
<polygon fill="gray" stroke="gray" stroke-width="0.2" points="105.11,-309.49 115.34,-312.25 109.06,-303.71 105.11,-309.49"/>
</g>
<!-- SMD -->
<g id="node17" class="node">
<title>SMD</title>
<ellipse fill="none" stroke="black" cx="30.61" cy="-176" rx="30.61" ry="18"/>
<text text-anchor="middle" x="30.61" y="-170.57" font-family="Times New Roman,serif" font-size="14.00">SMD</text>
</g>
<!-- SMD&#45;&gt;VBn -->
<g id="edge18" class="edge">
<title>SMD&#45;&gt;VBn</title>
<path fill="none" stroke="gray" stroke-width="0.2" d="M45.73,-192.12C63.7,-212.63 96.1,-249.61 126.95,-284.82"/>
<polygon fill="gray" stroke="gray" stroke-width="0.2" points="124.08,-286.85 133.3,-292.07 129.34,-282.24 124.08,-286.85"/>
</g>
</g>
</svg>
